<svg width="183" height="246" viewBox="44790 17890 14729 19730" xmlns="http://www.w3.org/2000/svg"><g clip-path="url(#a)" mask="url(#b)"><defs><clipPath id="a"><path d="M44800 17900v19700h14700V17900H44800" fill-rule="evenodd"/></clipPath></defs><g fill="#313d63" stroke="#313d63"><path d="M44800 17900v19700h14700V17900H44800" fill-rule="evenodd"/><g fill-opacity="0" stroke-linecap="round" stroke-linejoin="round" stroke-width="19.685" fill="none" stroke="#000"><path d="M59500 17900H44800M59500 37600V17900M44800 37600h14700M44800 17900v19700"/></g></g><g stroke-linecap="round" stroke-linejoin="round" stroke-width="0" stroke="none" fill="#9c6b28"><circle cx="49492" cy="22250" r="314.96"/><circle cx="46500" cy="22250" r="314.96"/><g fill-rule="evenodd"><path d="M56793 20658l3.9.5 3.7 1 3.6 1.3 3.5 1.6 3.3 2 3.1 2.3 2.9 2.6 2.6 2.9 2.3 3.1 2 3.3 1.6 3.5 1.3 3.6 1 3.8.6 3.8.1 3.9v102.3l-.1 3.9-.6 3.8-1 3.7-1.3 3.7-1.6 3.5-2 3.3-2.3 3.1-2.6 2.9-2.9 2.5-3.1 2.3-3.3 2-3.5 1.7-3.6 1.3-3.7.9-3.9.6-3.8.2h-78.8l-3.8-.2-3.9-.6-3.7-.9-3.6-1.3-3.5-1.7-3.3-2-3.1-2.3-2.9-2.5-2.6-2.9-2.3-3.1-2-3.3-1.6-3.5-1.3-3.7-1-3.7-.6-3.8-.1-3.9v-102.3l.1-3.9.6-3.8 1-3.8 1.3-3.6 1.6-3.5 2-3.3 2.3-3.1 2.6-2.9 2.9-2.6 3.1-2.3 3.3-2 3.5-1.6 3.6-1.3 3.7-1 3.9-.5 3.8-.2h78.8zM56793 20910l3.9.6 3.7.9 3.6 1.3 3.5 1.7 3.3 2 3.1 2.3 2.9 2.6 2.6 2.8 2.3 3.1 2 3.4 1.6 3.5 1.3 3.6 1 3.7.6 3.9.1 3.8v102.4l-.1 3.8-.6 3.9-1 3.7-1.3 3.6-1.6 3.5-2 3.4-2.3 3.1-2.6 2.8-2.9 2.6-3.1 2.3-3.3 2-3.5 1.7-3.6 1.3-3.7.9-3.9.6-3.8.2h-78.8l-3.8-.2-3.9-.6-3.7-.9-3.6-1.3-3.5-1.7-3.3-2-3.1-2.3-2.9-2.6-2.6-2.8-2.3-3.1-2-3.4-1.6-3.5-1.3-3.6-1-3.7-.6-3.9-.1-3.8v-102.4l.1-3.8.6-3.9 1-3.7 1.3-3.6 1.6-3.5 2-3.4 2.3-3.1 2.6-2.8 2.9-2.6 3.1-2.3 3.3-2 3.5-1.7 3.6-1.3 3.7-.9 3.9-.6 3.8-.2h78.8z"/></g><circle cx="57250" cy="18750" r="354.33"/><circle cx="55250" cy="19750" r="354.33"/><circle cx="52250" cy="18750" r="354.33"/><circle cx="55250" cy="22000" r="314.96"/><circle cx="52250" cy="25000" r="314.96"/><circle cx="55250" cy="23000" r="314.96"/><circle cx="52250" cy="24000" r="314.96"/><circle cx="55250" cy="24000" r="314.96"/><circle cx="52250" cy="23000" r="314.96"/><circle cx="55250" cy="25000" r="314.96"/><path d="M51935 22315v-630h630v630z" fill-rule="evenodd"/><g fill-rule="evenodd"><path d="M51293 21412l3.9.6 3.7.9 3.6 1.3 3.5 1.7 3.3 2 3.1 2.3 2.9 2.5 2.6 2.9 2.3 3.1 2 3.3 1.6 3.5 1.3 3.7 1 3.7.6 3.8.1 3.9v102.3l-.1 3.9-.6 3.8-1 3.8-1.3 3.6-1.6 3.5-2 3.3-2.3 3.1-2.6 2.9-2.9 2.6-3.1 2.3-3.3 2-3.5 1.6-3.6 1.3-3.7 1-3.9.5-3.8.2h-78.8l-3.8-.2-3.9-.5-3.7-1-3.6-1.3-3.5-1.6-3.3-2-3.1-2.3-2.9-2.6-2.6-2.9-2.3-3.1-2-3.3-1.6-3.5-1.3-3.6-1-3.8-.6-3.8-.1-3.9v-102.3l.1-3.9.6-3.8 1-3.7 1.3-3.7 1.6-3.5 2-3.3 2.3-3.1 2.6-2.9 2.9-2.5 3.1-2.3 3.3-2 3.5-1.7 3.6-1.3 3.7-.9 3.9-.6 3.8-.2h78.8zM51293 21160l3.9.6 3.7.9 3.6 1.3 3.5 1.7 3.3 2 3.1 2.3 2.9 2.6 2.6 2.8 2.3 3.1 2 3.4 1.6 3.5 1.3 3.6 1 3.7.6 3.9.1 3.8v102.4l-.1 3.8-.6 3.9-1 3.7-1.3 3.6-1.6 3.5-2 3.4-2.3 3.1-2.6 2.8-2.9 2.6-3.1 2.3-3.3 2-3.5 1.7-3.6 1.3-3.7.9-3.9.6-3.8.2h-78.8l-3.8-.2-3.9-.6-3.7-.9-3.6-1.3-3.5-1.7-3.3-2-3.1-2.3-2.9-2.6-2.6-2.8-2.3-3.1-2-3.4-1.6-3.5-1.3-3.6-1-3.7-.6-3.9-.1-3.8v-102.4l.1-3.8.6-3.9 1-3.7 1.3-3.6 1.6-3.5 2-3.4 2.3-3.1 2.6-2.8 2.9-2.6 3.1-2.3 3.3-2 3.5-1.7 3.6-1.3 3.7-.9 3.9-.6 3.8-.2h78.8z"/></g><g><circle cx="58250" cy="25000" r="334.65"/><circle cx="58250" cy="24000" r="334.65"/><circle cx="58250" cy="23000" r="334.65"/><path d="M57915 22335v-669.2h669.2v669.2z" fill-rule="evenodd"/></g><g fill-rule="evenodd"><path d="M57006 21402l9.6 1.5 9.3 2.3 9.1 3.3 8.8 4.1 8.2 5 7.8 5.7 7.2 6.5 6.4 7.2 5.8 7.7 5 8.3 4.1 8.7 3.2 9.1 2.4 9.4 1.4 9.6.5 9.6v295.3l-.5 9.6-1.4 9.6-2.4 9.3-3.2 9.1-4.1 8.8-5 8.3-5.8 7.7-6.4 7.2-7.2 6.5-7.8 5.7-8.2 5-8.8 4.1-9.1 3.3-9.3 2.3-9.6 1.4-9.6.5h-492.2l-9.6-.5-9.6-1.4-9.3-2.3-9.1-3.3-8.8-4.1-8.2-5-7.8-5.7-7.2-6.5-6.4-7.2-5.8-7.7-5-8.3-4.1-8.8-3.2-9.1-2.4-9.3-1.4-9.6-.5-9.6V21500l.5-9.6 1.4-9.6 2.4-9.4 3.2-9.1 4.1-8.7 5-8.3 5.8-7.7 6.4-7.2 7.2-6.5 7.8-5.7 8.2-5 8.8-4.1 9.1-3.3 9.3-2.3 9.6-1.5 9.6-.4h492.2zM57006 22504l9.6 1.4 9.3 2.4 9.1 3.2 8.8 4.2 8.2 4.9 7.8 5.8 7.2 6.5 6.4 7.1 5.8 7.8 5 8.3 4.1 8.7 3.2 9.1 2.4 9.4 1.4 9.5.5 9.7v295.2l-.5 9.7-1.4 9.5-2.4 9.4-3.2 9.1-4.1 8.7-5 8.3-5.8 7.8-6.4 7.1-7.2 6.5-7.8 5.8-8.2 4.9-8.8 4.2-9.1 3.2-9.3 2.4-9.6 1.4-9.6.5h-492.2l-9.6-.5-9.6-1.4-9.3-2.4-9.1-3.2-8.8-4.2-8.2-4.9-7.8-5.8-7.2-6.5-6.4-7.1-5.8-7.8-5-8.3-4.1-8.7-3.2-9.1-2.4-9.4-1.4-9.5-.5-9.7V22602l.5-9.7 1.4-9.5 2.4-9.4 3.2-9.1 4.1-8.7 5-8.3 5.8-7.8 6.4-7.1 7.2-6.5 7.8-5.8 8.2-4.9 8.8-4.2 9.1-3.2 9.3-2.4 9.6-1.4 9.6-.5h492.2z"/></g></g><g fill="#212d53" stroke="#212d53" stroke-linecap="round" stroke-linejoin="round" stroke-width="0"><g stroke="none"><circle cx="49492" cy="22250" r="314.96"/><circle cx="46500" cy="22250" r="314.96"/><g fill-rule="evenodd"><path d="M56793 20658l3.9.5 3.7 1 3.6 1.3 3.5 1.6 3.3 2 3.1 2.3 2.9 2.6 2.6 2.9 2.3 3.1 2 3.3 1.6 3.5 1.3 3.6 1 3.8.6 3.8.1 3.9v102.3l-.1 3.9-.6 3.8-1 3.7-1.3 3.7-1.6 3.5-2 3.3-2.3 3.1-2.6 2.9-2.9 2.5-3.1 2.3-3.3 2-3.5 1.7-3.6 1.3-3.7.9-3.9.6-3.8.2h-78.8l-3.8-.2-3.9-.6-3.7-.9-3.6-1.3-3.5-1.7-3.3-2-3.1-2.3-2.9-2.5-2.6-2.9-2.3-3.1-2-3.3-1.6-3.5-1.3-3.7-1-3.7-.6-3.8-.1-3.9v-102.3l.1-3.9.6-3.8 1-3.8 1.3-3.6 1.6-3.5 2-3.3 2.3-3.1 2.6-2.9 2.9-2.6 3.1-2.3 3.3-2 3.5-1.6 3.6-1.3 3.7-1 3.9-.5 3.8-.2h78.8zM56793 20910l3.9.6 3.7.9 3.6 1.3 3.5 1.7 3.3 2 3.1 2.3 2.9 2.6 2.6 2.8 2.3 3.1 2 3.4 1.6 3.5 1.3 3.6 1 3.7.6 3.9.1 3.8v102.4l-.1 3.8-.6 3.9-1 3.7-1.3 3.6-1.6 3.5-2 3.4-2.3 3.1-2.6 2.8-2.9 2.6-3.1 2.3-3.3 2-3.5 1.7-3.6 1.3-3.7.9-3.9.6-3.8.2h-78.8l-3.8-.2-3.9-.6-3.7-.9-3.6-1.3-3.5-1.7-3.3-2-3.1-2.3-2.9-2.6-2.6-2.8-2.3-3.1-2-3.4-1.6-3.5-1.3-3.6-1-3.7-.6-3.9-.1-3.8v-102.4l.1-3.8.6-3.9 1-3.7 1.3-3.6 1.6-3.5 2-3.4 2.3-3.1 2.6-2.8 2.9-2.6 3.1-2.3 3.3-2 3.5-1.7 3.6-1.3 3.7-.9 3.9-.6 3.8-.2h78.8z"/></g><circle cx="57250" cy="18750" r="354.33"/><circle cx="55250" cy="19750" r="354.33"/><circle cx="52250" cy="18750" r="354.33"/><circle cx="55250" cy="22000" r="314.96"/><circle cx="52250" cy="25000" r="314.96"/><circle cx="55250" cy="23000" r="314.96"/><circle cx="52250" cy="24000" r="314.96"/><circle cx="55250" cy="24000" r="314.96"/><circle cx="52250" cy="23000" r="314.96"/><circle cx="55250" cy="25000" r="314.96"/><path d="M51935 22315v-630h630v630z" fill-rule="evenodd"/><g fill-rule="evenodd"><path d="M51293 21412l3.9.6 3.7.9 3.6 1.3 3.5 1.7 3.3 2 3.1 2.3 2.9 2.5 2.6 2.9 2.3 3.1 2 3.3 1.6 3.5 1.3 3.7 1 3.7.6 3.8.1 3.9v102.3l-.1 3.9-.6 3.8-1 3.8-1.3 3.6-1.6 3.5-2 3.3-2.3 3.1-2.6 2.9-2.9 2.6-3.1 2.3-3.3 2-3.5 1.6-3.6 1.3-3.7 1-3.9.5-3.8.2h-78.8l-3.8-.2-3.9-.5-3.7-1-3.6-1.3-3.5-1.6-3.3-2-3.1-2.3-2.9-2.6-2.6-2.9-2.3-3.1-2-3.3-1.6-3.5-1.3-3.6-1-3.8-.6-3.8-.1-3.9v-102.3l.1-3.9.6-3.8 1-3.7 1.3-3.7 1.6-3.5 2-3.3 2.3-3.1 2.6-2.9 2.9-2.5 3.1-2.3 3.3-2 3.5-1.7 3.6-1.3 3.7-.9 3.9-.6 3.8-.2h78.8zM51293 21160l3.9.6 3.7.9 3.6 1.3 3.5 1.7 3.3 2 3.1 2.3 2.9 2.6 2.6 2.8 2.3 3.1 2 3.4 1.6 3.5 1.3 3.6 1 3.7.6 3.9.1 3.8v102.4l-.1 3.8-.6 3.9-1 3.7-1.3 3.6-1.6 3.5-2 3.4-2.3 3.1-2.6 2.8-2.9 2.6-3.1 2.3-3.3 2-3.5 1.7-3.6 1.3-3.7.9-3.9.6-3.8.2h-78.8l-3.8-.2-3.9-.6-3.7-.9-3.6-1.3-3.5-1.7-3.3-2-3.1-2.3-2.9-2.6-2.6-2.8-2.3-3.1-2-3.4-1.6-3.5-1.3-3.6-1-3.7-.6-3.9-.1-3.8v-102.4l.1-3.8.6-3.9 1-3.7 1.3-3.6 1.6-3.5 2-3.4 2.3-3.1 2.6-2.8 2.9-2.6 3.1-2.3 3.3-2 3.5-1.7 3.6-1.3 3.7-.9 3.9-.6 3.8-.2h78.8z"/></g><g><circle cx="58250" cy="25000" r="334.65"/><circle cx="58250" cy="24000" r="334.65"/><circle cx="58250" cy="23000" r="334.65"/><path d="M57915 22335v-669.2h669.2v669.2z" fill-rule="evenodd"/></g><g fill-rule="evenodd"><path d="M57006 21402l9.6 1.5 9.3 2.3 9.1 3.3 8.8 4.1 8.2 5 7.8 5.7 7.2 6.5 6.4 7.2 5.8 7.7 5 8.3 4.1 8.7 3.2 9.1 2.4 9.4 1.4 9.6.5 9.6v295.3l-.5 9.6-1.4 9.6-2.4 9.3-3.2 9.1-4.1 8.8-5 8.3-5.8 7.7-6.4 7.2-7.2 6.5-7.8 5.7-8.2 5-8.8 4.1-9.1 3.3-9.3 2.3-9.6 1.4-9.6.5h-492.2l-9.6-.5-9.6-1.4-9.3-2.3-9.1-3.3-8.8-4.1-8.2-5-7.8-5.7-7.2-6.5-6.4-7.2-5.8-7.7-5-8.3-4.1-8.8-3.2-9.1-2.4-9.3-1.4-9.6-.5-9.6V21500l.5-9.6 1.4-9.6 2.4-9.4 3.2-9.1 4.1-8.7 5-8.3 5.8-7.7 6.4-7.2 7.2-6.5 7.8-5.7 8.2-5 8.8-4.1 9.1-3.3 9.3-2.3 9.6-1.5 9.6-.4h492.2zM57006 22504l9.6 1.4 9.3 2.4 9.1 3.2 8.8 4.2 8.2 4.9 7.8 5.8 7.2 6.5 6.4 7.1 5.8 7.8 5 8.3 4.1 8.7 3.2 9.1 2.4 9.4 1.4 9.5.5 9.7v295.2l-.5 9.7-1.4 9.5-2.4 9.4-3.2 9.1-4.1 8.7-5 8.3-5.8 7.8-6.4 7.1-7.2 6.5-7.8 5.8-8.2 4.9-8.8 4.2-9.1 3.2-9.3 2.4-9.6 1.4-9.6.5h-492.2l-9.6-.5-9.6-1.4-9.3-2.4-9.1-3.2-8.8-4.2-8.2-4.9-7.8-5.8-7.2-6.5-6.4-7.1-5.8-7.8-5-8.3-4.1-8.7-3.2-9.1-2.4-9.4-1.4-9.5-.5-9.7V22602l.5-9.7 1.4-9.5 2.4-9.4 3.2-9.1 4.1-8.7 5-8.3 5.8-7.8 6.4-7.1 7.2-6.5 7.8-5.8 8.2-4.9 8.8-4.2 9.1-3.2 9.3-2.4 9.6-1.4 9.6-.5h492.2z"/></g></g><g fill-opacity="0"><path d="M56750 21000v647" fill="none" stroke-width="78.74"/><g stroke-width="393.7" fill="none"><path d="M56750 22750v250M56750 23000h-1500M58250 23000h-1500M59000 20250l-1500-1500M59000 24250v-4000M58250 25000l750-750M52250 25000h-1250M49492 23492v-1242M51000 25000l-1508-1508M53250 26000l-1000-1000M57250 26000h-4000M58250 25000l-1000 1000M54250 25000h1000M52250 23000l2000 2000M52250 23000v-1000M55250 25000h750M57000 24000h1250M56000 25000l1000-1000M58250 22000v-1250M58250 20750l-1250-1250M57000 19500h-500M55750 18750h-3250M56500 19500l-750-750M55250 22000v-750M56500 20000v-500M55250 21250l1250-1250M52500 18750l-1250 1250M51250 20000v500"/></g><g stroke-width="78.74" fill="none"><path d="M51250 21250v-750M56750 20250l-250-250M56750 20748v-498"/></g><g stroke-width="393.7" fill="none"><path d="M52250 24000l-1750-1750M50500 22250v-500M50500 21750l-250-250M47250 21500l-750 750M50250 21500h-3000"/></g><g stroke-width="78.74" fill="none"><path d="M51250 21501v249M51250 21750h-750"/></g><g stroke-width="393.7" fill="none"><path d="M55250 19750l-1250 1250M54000 22750l1250 1250M54000 21000v1750"/></g></g><g stroke="none"><circle cx="49492" cy="22250" r="68.898"/><circle cx="46500" cy="22250" r="68.898"/><circle cx="57250" cy="18750" r="68.898"/><circle cx="55250" cy="19750" r="68.898"/><circle cx="52250" cy="18750" r="68.898"/><circle cx="55250" cy="22000" r="68.898"/><circle cx="52250" cy="25000" r="68.898"/><circle cx="55250" cy="23000" r="68.898"/><circle cx="52250" cy="24000" r="68.898"/><circle cx="55250" cy="24000" r="68.898"/><circle cx="52250" cy="23000" r="68.898"/><circle cx="55250" cy="25000" r="68.898"/><circle cx="52250" cy="22000" r="68.898"/><circle cx="58250" cy="25000" r="68.898"/><circle cx="58250" cy="24000" r="68.898"/><circle cx="58250" cy="23000" r="68.898"/><circle cx="58250" cy="22000" r="68.898"/></g></g><g fill="#b5ae30" mask="url(#c)" stroke="#b5ae30" stroke-linecap="round" stroke-linejoin="round" stroke-width="0"><g stroke="none"><circle cx="49492" cy="22250" r="314.96"/><circle cx="46500" cy="22250" r="314.96"/><g fill-rule="evenodd"><path d="M56793 20658l3.9.5 3.7 1 3.6 1.3 3.5 1.6 3.3 2 3.1 2.3 2.9 2.6 2.6 2.9 2.3 3.1 2 3.3 1.6 3.5 1.3 3.6 1 3.8.6 3.8.1 3.9v102.3l-.1 3.9-.6 3.8-1 3.7-1.3 3.7-1.6 3.5-2 3.3-2.3 3.1-2.6 2.9-2.9 2.5-3.1 2.3-3.3 2-3.5 1.7-3.6 1.3-3.7.9-3.9.6-3.8.2h-78.8l-3.8-.2-3.9-.6-3.7-.9-3.6-1.3-3.5-1.7-3.3-2-3.1-2.3-2.9-2.5-2.6-2.9-2.3-3.1-2-3.3-1.6-3.5-1.3-3.7-1-3.7-.6-3.8-.1-3.9v-102.3l.1-3.9.6-3.8 1-3.8 1.3-3.6 1.6-3.5 2-3.3 2.3-3.1 2.6-2.9 2.9-2.6 3.1-2.3 3.3-2 3.5-1.6 3.6-1.3 3.7-1 3.9-.5 3.8-.2h78.8zM56793 20910l3.9.6 3.7.9 3.6 1.3 3.5 1.7 3.3 2 3.1 2.3 2.9 2.6 2.6 2.8 2.3 3.1 2 3.4 1.6 3.5 1.3 3.6 1 3.7.6 3.9.1 3.8v102.4l-.1 3.8-.6 3.9-1 3.7-1.3 3.6-1.6 3.5-2 3.4-2.3 3.1-2.6 2.8-2.9 2.6-3.1 2.3-3.3 2-3.5 1.7-3.6 1.3-3.7.9-3.9.6-3.8.2h-78.8l-3.8-.2-3.9-.6-3.7-.9-3.6-1.3-3.5-1.7-3.3-2-3.1-2.3-2.9-2.6-2.6-2.8-2.3-3.1-2-3.4-1.6-3.5-1.3-3.6-1-3.7-.6-3.9-.1-3.8v-102.4l.1-3.8.6-3.9 1-3.7 1.3-3.6 1.6-3.5 2-3.4 2.3-3.1 2.6-2.8 2.9-2.6 3.1-2.3 3.3-2 3.5-1.7 3.6-1.3 3.7-.9 3.9-.6 3.8-.2h78.8z"/></g><circle cx="57250" cy="18750" r="354.33"/><circle cx="55250" cy="19750" r="354.33"/><circle cx="52250" cy="18750" r="354.33"/><circle cx="55250" cy="22000" r="314.96"/><circle cx="52250" cy="25000" r="314.96"/><circle cx="55250" cy="23000" r="314.96"/><circle cx="52250" cy="24000" r="314.96"/><circle cx="55250" cy="24000" r="314.96"/><circle cx="52250" cy="23000" r="314.96"/><circle cx="55250" cy="25000" r="314.96"/><path d="M51935 22315v-630h630v630z" fill-rule="evenodd"/><g fill-rule="evenodd"><path d="M51293 21412l3.9.6 3.7.9 3.6 1.3 3.5 1.7 3.3 2 3.1 2.3 2.9 2.5 2.6 2.9 2.3 3.1 2 3.3 1.6 3.5 1.3 3.7 1 3.7.6 3.8.1 3.9v102.3l-.1 3.9-.6 3.8-1 3.8-1.3 3.6-1.6 3.5-2 3.3-2.3 3.1-2.6 2.9-2.9 2.6-3.1 2.3-3.3 2-3.5 1.6-3.6 1.3-3.7 1-3.9.5-3.8.2h-78.8l-3.8-.2-3.9-.5-3.7-1-3.6-1.3-3.5-1.6-3.3-2-3.1-2.3-2.9-2.6-2.6-2.9-2.3-3.1-2-3.3-1.6-3.5-1.3-3.6-1-3.8-.6-3.8-.1-3.9v-102.3l.1-3.9.6-3.8 1-3.7 1.3-3.7 1.6-3.5 2-3.3 2.3-3.1 2.6-2.9 2.9-2.5 3.1-2.3 3.3-2 3.5-1.7 3.6-1.3 3.7-.9 3.9-.6 3.8-.2h78.8zM51293 21160l3.9.6 3.7.9 3.6 1.3 3.5 1.7 3.3 2 3.1 2.3 2.9 2.6 2.6 2.8 2.3 3.1 2 3.4 1.6 3.5 1.3 3.6 1 3.7.6 3.9.1 3.8v102.4l-.1 3.8-.6 3.9-1 3.7-1.3 3.6-1.6 3.5-2 3.4-2.3 3.1-2.6 2.8-2.9 2.6-3.1 2.3-3.3 2-3.5 1.7-3.6 1.3-3.7.9-3.9.6-3.8.2h-78.8l-3.8-.2-3.9-.6-3.7-.9-3.6-1.3-3.5-1.7-3.3-2-3.1-2.3-2.9-2.6-2.6-2.8-2.3-3.1-2-3.4-1.6-3.5-1.3-3.6-1-3.7-.6-3.9-.1-3.8v-102.4l.1-3.8.6-3.9 1-3.7 1.3-3.6 1.6-3.5 2-3.4 2.3-3.1 2.6-2.8 2.9-2.6 3.1-2.3 3.3-2 3.5-1.7 3.6-1.3 3.7-.9 3.9-.6 3.8-.2h78.8z"/></g><g><circle cx="58250" cy="25000" r="334.65"/><circle cx="58250" cy="24000" r="334.65"/><circle cx="58250" cy="23000" r="334.65"/><path d="M57915 22335v-669.2h669.2v669.2z" fill-rule="evenodd"/></g><g fill-rule="evenodd"><path d="M57006 21402l9.6 1.5 9.3 2.3 9.1 3.3 8.8 4.1 8.2 5 7.8 5.7 7.2 6.5 6.4 7.2 5.8 7.7 5 8.3 4.1 8.7 3.2 9.1 2.4 9.4 1.4 9.6.5 9.6v295.3l-.5 9.6-1.4 9.6-2.4 9.3-3.2 9.1-4.1 8.8-5 8.3-5.8 7.7-6.4 7.2-7.2 6.5-7.8 5.7-8.2 5-8.8 4.1-9.1 3.3-9.3 2.3-9.6 1.4-9.6.5h-492.2l-9.6-.5-9.6-1.4-9.3-2.3-9.1-3.3-8.8-4.1-8.2-5-7.8-5.7-7.2-6.5-6.4-7.2-5.8-7.7-5-8.3-4.1-8.8-3.2-9.1-2.4-9.3-1.4-9.6-.5-9.6V21500l.5-9.6 1.4-9.6 2.4-9.4 3.2-9.1 4.1-8.7 5-8.3 5.8-7.7 6.4-7.2 7.2-6.5 7.8-5.7 8.2-5 8.8-4.1 9.1-3.3 9.3-2.3 9.6-1.5 9.6-.4h492.2zM57006 22504l9.6 1.4 9.3 2.4 9.1 3.2 8.8 4.2 8.2 4.9 7.8 5.8 7.2 6.5 6.4 7.1 5.8 7.8 5 8.3 4.1 8.7 3.2 9.1 2.4 9.4 1.4 9.5.5 9.7v295.2l-.5 9.7-1.4 9.5-2.4 9.4-3.2 9.1-4.1 8.7-5 8.3-5.8 7.8-6.4 7.1-7.2 6.5-7.8 5.8-8.2 4.9-8.8 4.2-9.1 3.2-9.3 2.4-9.6 1.4-9.6.5h-492.2l-9.6-.5-9.6-1.4-9.3-2.4-9.1-3.2-8.8-4.2-8.2-4.9-7.8-5.8-7.2-6.5-6.4-7.1-5.8-7.8-5-8.3-4.1-8.7-3.2-9.1-2.4-9.4-1.4-9.5-.5-9.7V22602l.5-9.7 1.4-9.5 2.4-9.4 3.2-9.1 4.1-8.7 5-8.3 5.8-7.8 6.4-7.1 7.2-6.5 7.8-5.8 8.2-4.9 8.8-4.2 9.1-3.2 9.3-2.4 9.6-1.4 9.6-.5h492.2z"/></g></g><g fill-opacity="0"><path d="M56750 21000v647" fill="none" stroke-width="78.74"/><g stroke-width="393.7" fill="none"><path d="M56750 22750v250M56750 23000h-1500M58250 23000h-1500M59000 20250l-1500-1500M59000 24250v-4000M58250 25000l750-750M52250 25000h-1250M49492 23492v-1242M51000 25000l-1508-1508M53250 26000l-1000-1000M57250 26000h-4000M58250 25000l-1000 1000M54250 25000h1000M52250 23000l2000 2000M52250 23000v-1000M55250 25000h750M57000 24000h1250M56000 25000l1000-1000M58250 22000v-1250M58250 20750l-1250-1250M57000 19500h-500M55750 18750h-3250M56500 19500l-750-750M55250 22000v-750M56500 20000v-500M55250 21250l1250-1250M52500 18750l-1250 1250M51250 20000v500"/></g><g stroke-width="78.74" fill="none"><path d="M51250 21250v-750M56750 20250l-250-250M56750 20748v-498"/></g><g stroke-width="393.7" fill="none"><path d="M52250 24000l-1750-1750M50500 22250v-500M50500 21750l-250-250M47250 21500l-750 750M50250 21500h-3000"/></g><g stroke-width="78.74" fill="none"><path d="M51250 21501v249M51250 21750h-750"/></g><g stroke-width="393.7" fill="none"><path d="M55250 19750l-1250 1250M54000 22750l1250 1250M54000 21000v1750"/></g></g><g stroke="none"><circle cx="49492" cy="22250" r="68.898"/><circle cx="46500" cy="22250" r="68.898"/><circle cx="57250" cy="18750" r="68.898"/><circle cx="55250" cy="19750" r="68.898"/><circle cx="52250" cy="18750" r="68.898"/><circle cx="55250" cy="22000" r="68.898"/><circle cx="52250" cy="25000" r="68.898"/><circle cx="55250" cy="23000" r="68.898"/><circle cx="52250" cy="24000" r="68.898"/><circle cx="55250" cy="24000" r="68.898"/><circle cx="52250" cy="23000" r="68.898"/><circle cx="55250" cy="25000" r="68.898"/><circle cx="52250" cy="22000" r="68.898"/><circle cx="58250" cy="25000" r="68.898"/><circle cx="58250" cy="24000" r="68.898"/><circle cx="58250" cy="23000" r="68.898"/><circle cx="58250" cy="22000" r="68.898"/></g></g><defs><mask id="c"><g fill-opacity="1" stroke="#fff" stroke-linecap="round" stroke-linejoin="round" stroke-width="0" fill="#fff"><circle cx="49492" cy="22250" r="314.96"/><circle cx="46500" cy="22250" r="314.96"/><path d="M56793 20658l3.9.5 3.7 1 3.6 1.3 3.5 1.6 3.3 2 3.1 2.3 2.9 2.6 2.6 2.9 2.3 3.1 2 3.3 1.6 3.5 1.3 3.6 1 3.8.6 3.8.1 3.9v102.3l-.1 3.9-.6 3.8-1 3.7-1.3 3.7-1.6 3.5-2 3.3-2.3 3.1-2.6 2.9-2.9 2.5-3.1 2.3-3.3 2-3.5 1.7-3.6 1.3-3.7.9-3.9.6-3.8.2h-78.8l-3.8-.2-3.9-.6-3.7-.9-3.6-1.3-3.5-1.7-3.3-2-3.1-2.3-2.9-2.5-2.6-2.9-2.3-3.1-2-3.3-1.6-3.5-1.3-3.7-1-3.7-.6-3.8-.1-3.9v-102.3l.1-3.9.6-3.8 1-3.8 1.3-3.6 1.6-3.5 2-3.3 2.3-3.1 2.6-2.9 2.9-2.6 3.1-2.3 3.3-2 3.5-1.6 3.6-1.3 3.7-1 3.9-.5 3.8-.2h78.8zM56793 20910l3.9.6 3.7.9 3.6 1.3 3.5 1.7 3.3 2 3.1 2.3 2.9 2.6 2.6 2.8 2.3 3.1 2 3.4 1.6 3.5 1.3 3.6 1 3.7.6 3.9.1 3.8v102.4l-.1 3.8-.6 3.9-1 3.7-1.3 3.6-1.6 3.5-2 3.4-2.3 3.1-2.6 2.8-2.9 2.6-3.1 2.3-3.3 2-3.5 1.7-3.6 1.3-3.7.9-3.9.6-3.8.2h-78.8l-3.8-.2-3.9-.6-3.7-.9-3.6-1.3-3.5-1.7-3.3-2-3.1-2.3-2.9-2.6-2.6-2.8-2.3-3.1-2-3.4-1.6-3.5-1.3-3.6-1-3.7-.6-3.9-.1-3.8v-102.4l.1-3.8.6-3.9 1-3.7 1.3-3.6 1.6-3.5 2-3.4 2.3-3.1 2.6-2.8 2.9-2.6 3.1-2.3 3.3-2 3.5-1.7 3.6-1.3 3.7-.9 3.9-.6 3.8-.2h78.8z" fill-rule="evenodd"/><circle cx="57250" cy="18750" r="354.33"/><circle cx="55250" cy="19750" r="354.33"/><circle cx="52250" cy="18750" r="354.33"/><circle cx="55250" cy="22000" r="314.96"/><circle cx="52250" cy="25000" r="314.96"/><circle cx="55250" cy="23000" r="314.96"/><circle cx="52250" cy="24000" r="314.96"/><circle cx="55250" cy="24000" r="314.96"/><circle cx="52250" cy="23000" r="314.96"/><circle cx="55250" cy="25000" r="314.96"/><path d="M51935 22315v-630h630v630zM51293 21412l3.9.6 3.7.9 3.6 1.3 3.5 1.7 3.3 2 3.1 2.3 2.9 2.5 2.6 2.9 2.3 3.1 2 3.3 1.6 3.5 1.3 3.7 1 3.7.6 3.8.1 3.9v102.3l-.1 3.9-.6 3.8-1 3.8-1.3 3.6-1.6 3.5-2 3.3-2.3 3.1-2.6 2.9-2.9 2.6-3.1 2.3-3.3 2-3.5 1.6-3.6 1.3-3.7 1-3.9.5-3.8.2h-78.8l-3.8-.2-3.9-.5-3.7-1-3.6-1.3-3.5-1.6-3.3-2-3.1-2.3-2.9-2.6-2.6-2.9-2.3-3.1-2-3.3-1.6-3.5-1.3-3.6-1-3.8-.6-3.8-.1-3.9v-102.3l.1-3.9.6-3.8 1-3.7 1.3-3.7 1.6-3.5 2-3.3 2.3-3.1 2.6-2.9 2.9-2.5 3.1-2.3 3.3-2 3.5-1.7 3.6-1.3 3.7-.9 3.9-.6 3.8-.2h78.8zM51293 21160l3.9.6 3.7.9 3.6 1.3 3.5 1.7 3.3 2 3.1 2.3 2.9 2.6 2.6 2.8 2.3 3.1 2 3.4 1.6 3.5 1.3 3.6 1 3.7.6 3.9.1 3.8v102.4l-.1 3.8-.6 3.9-1 3.7-1.3 3.6-1.6 3.5-2 3.4-2.3 3.1-2.6 2.8-2.9 2.6-3.1 2.3-3.3 2-3.5 1.7-3.6 1.3-3.7.9-3.9.6-3.8.2h-78.8l-3.8-.2-3.9-.6-3.7-.9-3.6-1.3-3.5-1.7-3.3-2-3.1-2.3-2.9-2.6-2.6-2.8-2.3-3.1-2-3.4-1.6-3.5-1.3-3.6-1-3.7-.6-3.9-.1-3.8v-102.4l.1-3.8.6-3.9 1-3.7 1.3-3.6 1.6-3.5 2-3.4 2.3-3.1 2.6-2.8 2.9-2.6 3.1-2.3 3.3-2 3.5-1.7 3.6-1.3 3.7-.9 3.9-.6 3.8-.2h78.8z" fill-rule="evenodd"/><g><circle cx="58250" cy="25000" r="334.65"/><circle cx="58250" cy="24000" r="334.65"/><circle cx="58250" cy="23000" r="334.65"/><path d="M57915 22335v-669.2h669.2v669.2z" fill-rule="evenodd"/></g><path d="M57006 21402l9.6 1.5 9.3 2.3 9.1 3.3 8.8 4.1 8.2 5 7.8 5.7 7.2 6.5 6.4 7.2 5.8 7.7 5 8.3 4.1 8.7 3.2 9.1 2.4 9.4 1.4 9.6.5 9.6v295.3l-.5 9.6-1.4 9.6-2.4 9.3-3.2 9.1-4.1 8.8-5 8.3-5.8 7.7-6.4 7.2-7.2 6.5-7.8 5.7-8.2 5-8.8 4.1-9.1 3.3-9.3 2.3-9.6 1.4-9.6.5h-492.2l-9.6-.5-9.6-1.4-9.3-2.3-9.1-3.3-8.8-4.1-8.2-5-7.8-5.7-7.2-6.5-6.4-7.2-5.8-7.7-5-8.3-4.1-8.8-3.2-9.1-2.4-9.3-1.4-9.6-.5-9.6V21500l.5-9.6 1.4-9.6 2.4-9.4 3.2-9.1 4.1-8.7 5-8.3 5.8-7.7 6.4-7.2 7.2-6.5 7.8-5.7 8.2-5 8.8-4.1 9.1-3.3 9.3-2.3 9.6-1.5 9.6-.4h492.2zM57006 22504l9.6 1.4 9.3 2.4 9.1 3.2 8.8 4.2 8.2 4.9 7.8 5.8 7.2 6.5 6.4 7.1 5.8 7.8 5 8.3 4.1 8.7 3.2 9.1 2.4 9.4 1.4 9.5.5 9.7v295.2l-.5 9.7-1.4 9.5-2.4 9.4-3.2 9.1-4.1 8.7-5 8.3-5.8 7.8-6.4 7.1-7.2 6.5-7.8 5.8-8.2 4.9-8.8 4.2-9.1 3.2-9.3 2.4-9.6 1.4-9.6.5h-492.2l-9.6-.5-9.6-1.4-9.3-2.4-9.1-3.2-8.8-4.2-8.2-4.9-7.8-5.8-7.2-6.5-6.4-7.1-5.8-7.8-5-8.3-4.1-8.7-3.2-9.1-2.4-9.4-1.4-9.5-.5-9.7V22602l.5-9.7 1.4-9.5 2.4-9.4 3.2-9.1 4.1-8.7 5-8.3 5.8-7.8 6.4-7.1 7.2-6.5 7.8-5.8 8.2-4.9 8.8-4.2 9.1-3.2 9.3-2.4 9.6-1.4 9.6-.5h492.2z" fill-rule="evenodd"/></g></mask></defs><defs><mask id="d"><path fill="#fff" d="M44790 17890h14729v19730H44790z"/><g fill-opacity="1" stroke="#000" stroke-linecap="round" stroke-linejoin="round" stroke-width="0"><circle cx="49492" cy="22250" r="314.96"/><circle cx="46500" cy="22250" r="314.96"/><path d="M56793 20658l3.9.5 3.7 1 3.6 1.3 3.5 1.6 3.3 2 3.1 2.3 2.9 2.6 2.6 2.9 2.3 3.1 2 3.3 1.6 3.5 1.3 3.6 1 3.8.6 3.8.1 3.9v102.3l-.1 3.9-.6 3.8-1 3.7-1.3 3.7-1.6 3.5-2 3.3-2.3 3.1-2.6 2.9-2.9 2.5-3.1 2.3-3.3 2-3.5 1.7-3.6 1.3-3.7.9-3.9.6-3.8.2h-78.8l-3.8-.2-3.9-.6-3.7-.9-3.6-1.3-3.5-1.7-3.3-2-3.1-2.3-2.9-2.5-2.6-2.9-2.3-3.1-2-3.3-1.6-3.5-1.3-3.7-1-3.7-.6-3.8-.1-3.9v-102.3l.1-3.9.6-3.8 1-3.8 1.3-3.6 1.6-3.5 2-3.3 2.3-3.1 2.6-2.9 2.9-2.6 3.1-2.3 3.3-2 3.5-1.6 3.6-1.3 3.7-1 3.9-.5 3.8-.2h78.8zM56793 20910l3.9.6 3.7.9 3.6 1.3 3.5 1.7 3.3 2 3.1 2.3 2.9 2.6 2.6 2.8 2.3 3.1 2 3.4 1.6 3.5 1.3 3.6 1 3.7.6 3.9.1 3.8v102.4l-.1 3.8-.6 3.9-1 3.7-1.3 3.6-1.6 3.5-2 3.4-2.3 3.1-2.6 2.8-2.9 2.6-3.1 2.3-3.3 2-3.5 1.7-3.6 1.3-3.7.9-3.9.6-3.8.2h-78.8l-3.8-.2-3.9-.6-3.7-.9-3.6-1.3-3.5-1.7-3.3-2-3.1-2.3-2.9-2.6-2.6-2.8-2.3-3.1-2-3.4-1.6-3.5-1.3-3.6-1-3.7-.6-3.9-.1-3.8v-102.4l.1-3.8.6-3.9 1-3.7 1.3-3.6 1.6-3.5 2-3.4 2.3-3.1 2.6-2.8 2.9-2.6 3.1-2.3 3.3-2 3.5-1.7 3.6-1.3 3.7-.9 3.9-.6 3.8-.2h78.8z" fill-rule="evenodd"/><circle cx="57250" cy="18750" r="354.33"/><circle cx="55250" cy="19750" r="354.33"/><circle cx="52250" cy="18750" r="354.33"/><circle cx="55250" cy="22000" r="314.96"/><circle cx="52250" cy="25000" r="314.96"/><circle cx="55250" cy="23000" r="314.96"/><circle cx="52250" cy="24000" r="314.96"/><circle cx="55250" cy="24000" r="314.96"/><circle cx="52250" cy="23000" r="314.96"/><circle cx="55250" cy="25000" r="314.96"/><path d="M51935 22315v-630h630v630zM51293 21412l3.9.6 3.7.9 3.6 1.3 3.5 1.7 3.3 2 3.1 2.3 2.9 2.5 2.6 2.9 2.3 3.1 2 3.3 1.6 3.5 1.3 3.7 1 3.7.6 3.8.1 3.9v102.3l-.1 3.9-.6 3.8-1 3.8-1.3 3.6-1.6 3.5-2 3.3-2.3 3.1-2.6 2.9-2.9 2.6-3.1 2.3-3.3 2-3.5 1.6-3.6 1.3-3.7 1-3.9.5-3.8.2h-78.8l-3.8-.2-3.9-.5-3.7-1-3.6-1.3-3.5-1.6-3.3-2-3.1-2.3-2.9-2.6-2.6-2.9-2.3-3.1-2-3.3-1.6-3.5-1.3-3.6-1-3.8-.6-3.8-.1-3.9v-102.3l.1-3.9.6-3.8 1-3.7 1.3-3.7 1.6-3.5 2-3.3 2.3-3.1 2.6-2.9 2.9-2.5 3.1-2.3 3.3-2 3.5-1.7 3.6-1.3 3.7-.9 3.9-.6 3.8-.2h78.8zM51293 21160l3.9.6 3.7.9 3.6 1.3 3.5 1.7 3.3 2 3.1 2.3 2.9 2.6 2.6 2.8 2.3 3.1 2 3.4 1.6 3.5 1.3 3.6 1 3.7.6 3.9.1 3.8v102.4l-.1 3.8-.6 3.9-1 3.7-1.3 3.6-1.6 3.5-2 3.4-2.3 3.1-2.6 2.8-2.9 2.6-3.1 2.3-3.3 2-3.5 1.7-3.6 1.3-3.7.9-3.9.6-3.8.2h-78.8l-3.8-.2-3.9-.6-3.7-.9-3.6-1.3-3.5-1.7-3.3-2-3.1-2.3-2.9-2.6-2.6-2.8-2.3-3.1-2-3.4-1.6-3.5-1.3-3.6-1-3.7-.6-3.9-.1-3.8v-102.4l.1-3.8.6-3.9 1-3.7 1.3-3.6 1.6-3.5 2-3.4 2.3-3.1 2.6-2.8 2.9-2.6 3.1-2.3 3.3-2 3.5-1.7 3.6-1.3 3.7-.9 3.9-.6 3.8-.2h78.8z" fill-rule="evenodd"/><g><circle cx="58250" cy="25000" r="334.65"/><circle cx="58250" cy="24000" r="334.65"/><circle cx="58250" cy="23000" r="334.65"/><path d="M57915 22335v-669.2h669.2v669.2z" fill-rule="evenodd"/></g><path d="M57006 21402l9.6 1.5 9.3 2.3 9.1 3.3 8.8 4.1 8.2 5 7.8 5.7 7.2 6.5 6.4 7.2 5.8 7.7 5 8.3 4.1 8.7 3.2 9.1 2.4 9.4 1.4 9.6.5 9.6v295.3l-.5 9.6-1.4 9.6-2.4 9.3-3.2 9.1-4.1 8.8-5 8.3-5.8 7.7-6.4 7.2-7.2 6.5-7.8 5.7-8.2 5-8.8 4.1-9.1 3.3-9.3 2.3-9.6 1.4-9.6.5h-492.2l-9.6-.5-9.6-1.4-9.3-2.3-9.1-3.3-8.8-4.1-8.2-5-7.8-5.7-7.2-6.5-6.4-7.2-5.8-7.7-5-8.3-4.1-8.8-3.2-9.1-2.4-9.3-1.4-9.6-.5-9.6V21500l.5-9.6 1.4-9.6 2.4-9.4 3.2-9.1 4.1-8.7 5-8.3 5.8-7.7 6.4-7.2 7.2-6.5 7.8-5.7 8.2-5 8.8-4.1 9.1-3.3 9.3-2.3 9.6-1.5 9.6-.4h492.2zM57006 22504l9.6 1.4 9.3 2.4 9.1 3.2 8.8 4.2 8.2 4.9 7.8 5.8 7.2 6.5 6.4 7.1 5.8 7.8 5 8.3 4.1 8.7 3.2 9.1 2.4 9.4 1.4 9.5.5 9.7v295.2l-.5 9.7-1.4 9.5-2.4 9.4-3.2 9.1-4.1 8.7-5 8.3-5.8 7.8-6.4 7.1-7.2 6.5-7.8 5.8-8.2 4.9-8.8 4.2-9.1 3.2-9.3 2.4-9.6 1.4-9.6.5h-492.2l-9.6-.5-9.6-1.4-9.3-2.4-9.1-3.2-8.8-4.2-8.2-4.9-7.8-5.8-7.2-6.5-6.4-7.1-5.8-7.8-5-8.3-4.1-8.7-3.2-9.1-2.4-9.4-1.4-9.5-.5-9.7V22602l.5-9.7 1.4-9.5 2.4-9.4 3.2-9.1 4.1-8.7 5-8.3 5.8-7.8 6.4-7.1 7.2-6.5 7.8-5.8 8.2-4.9 8.8-4.2 9.1-3.2 9.3-2.4 9.6-1.4 9.6-.5h492.2z" fill-rule="evenodd"/></g></mask></defs><g fill="#f0f0f0" fill-opacity="0" mask="url(#d)" stroke="#f0f0f0" stroke-linecap="round" stroke-linejoin="round"><g stroke-width="147.64"><path d="M52267 37040v337M52267 37209h-591l84 56 57 56 28 56M52042 36787v-450M51676 36140l591-197-591-197M52210 35212l29 28 28 85v56l-28 84-57 56-56 29-112 28h-85l-112-28-57-29-56-56-28-84v-56l28-85 28-28M52210 34622l29 28 28 84v56l-28 85-57 56-56 28-112 28h-85l-112-28-57-28-56-56-28-85v-56l28-84 28-28" fill="none"/></g><g stroke-width="295.28" fill="none"><path d="M46684 19534h-562v-1181M47078 19534v-1181h281l169 56 112 112 56 113 57 225v169l-57 225-56 112-112 113-169 56h-281M48934 19534l-394-563M48259 19534v-1181h450l112 56 56 56 57 113v168l-57 113-56 56-112 56h-450"/></g><g stroke-width="147.64"><path d="M57873 37152h394M57648 37293l422 141v-366M58042 36843v-450M57704 35803l-28 56v84l28 85 56 56 57 28 112 28h85l112-28 56-28 57-56 28-85v-56l-28-84-29-28h-196v112M58267 35521h-591l591-337h-591M58267 34903h-591v-141l28-84 56-56 57-29 112-28h85l112 28 56 29 57 56 28 84v141M55676 37346v-365l225 197v-85l28-56 28-28 57-28h140l56 28 29 28 28 56v169l-28 56-29 28M56042 36728v-450M56098 36025v-282M56267 36081l-591-197 591-197M55676 35378v-57l28-56 28-28 57-28 112-28h141l112 28 56 28 29 28 28 56v57l-28 56-29 28-56 28-112 28h-141l-112-28-57-28-28-28-28-56M53732 37360l-28-28-28-56v-141l28-56 28-28 57-28h56l84 28 338 337v-365M54042 36770v-450M54267 36039h-591v-141l28-84 56-57 57-28 112-28h85l112 28 56 28 57 57 28 84v141M53676 35336v-57l28-56 28-28 57-28 112-28h141l112 28 56 28 29 28 28 56v57l-28 56-29 28-56 28-112 28h-141l-112-28-57-28-28-28-28-56" fill="none"/></g><g stroke-width="47.244" fill="none"><path d="M46814 20517h2363M46814 23982h2363M49190 23973a2096.6 2096.6 0 0 0-12.8-3455.7M46802 20527a2096.6 2096.6 0 0 0 12.9 3455.7M59194 19250h-298M58596 19761v-1023M59194 19761v-1023M59194 18738h-598M59194 19761h-598M51001 20248v-1997M58596 20248v-1997M58596 18251h-7595M58596 20248h-7595M54793 21476h-650M54793 25523v-4047M52706 25523h2087M52706 21476v4047M53356 21476h-650M53356 21476a393.7 393.7 0 0 0 787.4 0M58250 21476h523M58773 21476v524M58773 22500v3023M57726 25523h1047M57726 22500v3023M57726 22500h1047M57196 23098v-1530M56303 23098h893M56303 21568v1530"/></g></g><g fill-opacity="0" stroke-linecap="round" stroke-linejoin="round" stroke-width="19.685" fill="none" stroke="#000"><path d="M59500 17900H44800M59500 37600V17900M44800 37600h14700M44800 17900v19700"/></g><defs><mask id="b"><path fill="#fff" d="M44790 17890h14729v19730H44790z"/><path stroke="#000" stroke-linecap="round" stroke-width="314" d="M49492 22250h0M46500 22250h0"/><path stroke="#000" stroke-linecap="round" stroke-width="393" d="M57250 18750h0M55250 19750h0M52250 18750h0"/><path stroke="#000" stroke-linecap="round" stroke-width="314" d="M55250 22000h0M52250 25000h0M55250 23000h0M52250 24000h0M55250 24000h0M52250 23000h0M55250 25000h0M52250 22000h0"/><path stroke="#000" stroke-linecap="round" stroke-width="393" d="M58250 25000h0M58250 24000h0M58250 23000h0M58250 22000h0"/></mask></defs></g><g stroke-width=".1"><g stroke="#191919" transform="matrix(393.65 0 0 393.59 45994 20538)"><path d="M7.718.1H2.45c-3.154 1.955-3.154 6.544 0 8.5h5.268c3.155-1.956 3.155-6.545 0-8.5z" fill="#e3dbdb" fill-rule="evenodd"/><circle transform="scale(1 -1)" cx="1.284" cy="-4.35" r=".25" fill="#b3b3b3"/><circle transform="scale(1 -1)" cx="8.884" cy="-4.35" r=".25" fill="#b3b3b3"/><path d="M3.851 5.725V4.2h2.167v-.925H3.85V1.75h3.243V.825h-4.51v-.3h4.81V2.05H4.151v.925h2.167V4.5H4.15v.925h2.167V6.95H3.075v.925h4.51v.3h-4.81V6.65h3.243v-.925H4.15z" fill="#f95" fill-rule="evenodd"/></g></g><g transform="scale(393.67 392.86) rotate(-90 98.645 -45.511)" stroke-width=".013"><g fill-rule="evenodd" stroke="#191919"><path d="M-.2-.15h-.077 0H-.3v.3h.1zM.2-.15h.1v.3H.2z" fill="#999"/><path d="M-.2.15h.4v-.3h0-.4z" fill="#333"/></g><g fill="none" stroke="#191919"><path d="M-.277-.15v.3M-.223-.15v.3M.277-.15v.3M.223-.15v.3"/></g></g><g stroke-width=".093"><g transform="matrix(-393.68 0 0 393.6 52249.628 18749.62)"><path d="M2.9 3.685h-18.75a.15.15 0 0 1-.15-.15v0-4.53a.15.15 0 0 1 .15-.15H2.9a.15.15 0 0 1 .15.15v4.53a.15.15 0 0 1-.15.15z" fill="#005aff" fill-rule="evenodd" stroke="#191919"/><path d="M-17.216.09H-16v2.36h-1.216c-.183-.016-.284-.118-.304-.304v-.64h.79v-.472h-.79v-.64c.02-.186.121-.288.304-.304z" fill="#c88010" fill-rule="evenodd" stroke="#191919"/><g fill="none" stroke="#191919"><path d="M-17.52 1.506v.64M2.9 3.535h-18.75M-15.85 3.535v-4.53M-15.85-.995H2.901M2.9-.995v4.53M2.9 3.535v.15M-15.85 3.535v.15M2.9-.995h.15M2.9 3.535h.15M-15.85 3.535H-16M-15.85-.995H-16M-15.85-.995v-.15M2.9-.995v-.15M-17.216.09v.944M-17.216 1.506v.944M-16 1.27h-.73"/></g></g></g><g stroke="#000" stroke-width=".093"><path d="M7.116 8.927V.85h0V.33h-6.2v9.12h6.2z" fill="#333" transform="matrix(393.7 0 0 393.65 52169 21575)"/><g fill="none"><path d="M7.19 9.524v-.597M7.19.85V.254M7.19 7.937V6.92M7.19 2.857V1.84M7.19 5.397V4.38M7.19.254H.84M.84.254V.85M.84 8.927v.597M.84 1.84v1.017M.84 6.92v1.017M.84 4.38v1.017M.84 9.524h6.35M7.19 9.524l-.074-.075M7.19.254l-.074.075M7.116 7.937V6.92M7.116 2.857V1.84M7.116 5.397V4.38M.84.254l.076.075M.84 9.524l.076-.075M.916 1.84v1.017M.916 6.92v1.017M.916 4.38v1.017M7.116.329l-.324.323" transform="matrix(393.7 0 0 393.65 52169 21575)"/></g><path d="M6.792 9.125V.652h-2.03a.75.75 0 0 1-.746.675v0A.75.75 0 0 1 3.27.652h0-2.03v8.473z" fill="#1a1a1a" fill-rule="evenodd" transform="matrix(393.7 0 0 393.65 52169 21575)"/><g fill="none"><path d="M7.116 9.449l-.324-.324M.916.329l.323.323M3.266.546l.004.106M3.266.546h1.5M4.765.546l-.003.106M.916 9.449l.323-.324M3.266.567a.75.75 0 0 1 0-.02M4.765.546a.75.75 0 0 1 0 .02" transform="matrix(393.7 0 0 393.65 52169 21575)"/></g><path d="M.536 47.907H.155v-1.524h1.09v1.524z" fill="#ccc" fill-rule="evenodd" transform="matrix(393.7 0 0 393.65 52039 5440.861)"/><path d="M.536 47.907v-1.524" fill="none" transform="matrix(393.7 0 0 393.65 52039 5440.861)"/><path d="M.536 50.447H.155v-1.524h1.09v1.524z" fill="#ccc" fill-rule="evenodd" transform="matrix(393.7 0 0 393.65 52039 5440.861)"/><path d="M.536 50.447v-1.524" fill="none" transform="matrix(393.7 0 0 393.65 52039 5440.861)"/><g><path d="M.46 45.367H.08v-1.524h1.09v1.524z" fill="#ccc" fill-rule="evenodd" transform="matrix(393.7 0 0 393.65 52068.512 5440.861)"/><path d="M.46 45.367v-1.524" fill="none" transform="matrix(393.7 0 0 393.65 52068.512 5440.861)"/></g><g><path d="M.536 42.827H.155v-1.524h1.09v1.524z" fill="#ccc" fill-rule="evenodd" transform="matrix(393.7 0 0 393.65 52039 5440.861)"/><path d="M.536 42.827v-1.524" fill="none" transform="matrix(393.7 0 0 393.65 52039 5440.861)"/></g><g><path d="M15.268 46.383h.381v1.524h0-1.09v-1.524z" fill="#ccc" fill-rule="evenodd" transform="matrix(393.7 0 0 393.65 49238.966 5440.861)"/><path d="M15.268 46.383v1.524" fill="none" transform="matrix(393.7 0 0 393.65 49238.966 5440.861)"/><path d="M15.268 48.923h.381v1.524h0-1.091v-1.524z" fill="#ccc" fill-rule="evenodd" transform="matrix(393.7 0 0 393.65 49238.966 5440.861)"/><path d="M15.268 48.923v1.524" fill="none" transform="matrix(393.7 0 0 393.65 49238.966 5440.861)"/><path d="M15.268 43.843h.381v1.524h0-1.091v-1.524z" fill="#ccc" fill-rule="evenodd" transform="matrix(393.7 0 0 393.65 49238.966 5440.861)"/><path d="M15.268 43.843v1.524" fill="none" transform="matrix(393.7 0 0 393.65 49238.966 5440.861)"/><path d="M15.268 41.303h.381v1.524h0-1.091v-1.524z" fill="#ccc" fill-rule="evenodd" transform="matrix(393.7 0 0 393.65 49238.966 5440.861)"/><path d="M15.268 41.303v1.524" fill="none" transform="matrix(393.7 0 0 393.65 49238.966 5440.861)"/></g></g><g transform="scale(393.67 392.86) rotate(90 37.889 92.297)" stroke-width=".013"><g fill-rule="evenodd" stroke="#191919"><path d="M-.2-.15h-.077 0H-.3v.3h.1zM.2-.15h.1v.3H.2z" fill="#999"/><path d="M-.2.15h.4v-.3h0-.4z" fill="#333"/></g><g fill="none" stroke="#191919"><path d="M-.277-.15v.3M-.223-.15v.3M.277-.15v.3M.223-.15v.3"/></g></g><g stroke-width=".093"><g transform="matrix(393.7 0 0 -393.69 58249.999 21999.986)"><path d="M-1.27-8.89h2.54V1.27h-2.54z" fill="#1a1a1a" fill-rule="evenodd" stroke="#000"/><path d="M-.6-1.94v-1.2H.6v1.2z" fill="#333" fill-rule="evenodd" stroke="#000"/><g fill="#4d4d4d" fill-rule="evenodd" stroke="#000"><path d="M-.6-5.68H.6v1.2H-.6zM-.6-.6H.6V.6H-.6zM.6-7.02H-.6v-1.2H.6z"/></g><g fill="none" stroke="#000"><path d="M-.6-1.94l.299-.299M-.6-3.14l.299.299M-.301-2.239v-.602M.6-1.94l-.299-.299M.301-2.239h-.602M.6-3.14l-.299.299M.301-2.841v.602M-.301-2.841h.602M.6-4.48l-.299-.299M-.6-4.48l.299-.299M.301-4.779h-.602M.6-5.68l-.299.299M.301-5.381v.602M-.6-5.68l.299.299M-.301-5.381h.602M-.301-4.779v-.602M-.6-.6l.299.299M.6-.6l-.299.299M-.301-.301h.602M-.6.6l.299-.299M-.301.301v-.602M.6.6L.301.301M.301.301h-.602M.301-.301v.602M-.6-8.22l.299.299M.6-8.22l-.299.299M-.301-7.921h.602M-.6-7.02l.299-.299M-.301-7.319v-.602M.6-7.02l-.299-.299M.301-7.319h-.602M.301-7.921v.602"/></g><g fill="olive" fill-rule="evenodd" stroke="#000"><path d="M-.3-2.84h.6v.6h-.6zM.3-5.38v.6h-.6v-.6zM.3-.3v.6h-.6v-.6zM.3-7.92v.6h-.6v-.6z"/></g><g fill="none" stroke="#000"><path d="M-.1-2.29v.05M-.1-2.79v.5M-.1-2.84v.05M.1-2.84v.05M-.1-2.79h.2M.1-2.79v.5M.1-2.29v.05M-.1-2.29h.2M-.1-4.83v.05M-.1-5.33v.5M-.1-5.38v.05M.1-5.38v.05M-.1-5.33h.2M.1-5.33v.5M.1-4.83v.05M-.1-4.83h.2M-.1.25V.3M-.1-.25v.5M-.1-.3v.05M.1-.3v.05M-.1-.25h.2M.1-.25v.5M.1.25V.3M-.1.25h.2M-.1-7.37v.05M-.1-7.87v.5M-.1-7.92v.05M.1-7.92v.05M-.1-7.87h.2M.1-7.87v.5M.1-7.37v.05M-.1-7.37h.2"/></g></g></g><g stroke-width=".013"><g transform="scale(393.69 393.24) rotate(-90 100.3 -43.85)"><g fill="none" stroke="#191919"><path d="M-1 .8V.6M-1 .6V-.6M-1-.6v-.2M1-.6v-.2M1 .6V-.6M1 .8V.6"/></g><g stroke="#191919"><path d="M.9.8h.7V-.8H.9z" fill="gray" fill-rule="evenodd"/><path d="M-1.06.6H-1M-1.06-.6H-1" fill="none"/><path d="M-.9.8V-.8h-.7V.8h.6z" fill="gray" fill-rule="evenodd"/></g><g fill="none" stroke="#191919"><path d="M1-.6h.06M1 .6h.06M-1.45.6h.39M-1.45.8V.6M-1.06-.6h-.39M-1.45-.6v-.2M1.45.6v.2M1.06.6h.39M1.45-.6h-.39M1.45-.8v.2M-1.06-.6V.6M1.06-.6V.6M-1.54-.8V.8M1.54-.8V.8"/></g></g><path d="M2.532.232h-1.8 0v1.6h1.8z" fill="#ccc" stroke="#000" transform="matrix(0 -393.24 393.69 0 56344 22840)"/></g></svg>