<svg width="246" height="189" viewBox="0 0 18425 14109" xmlns="http://www.w3.org/2000/svg"><g clip-path="url(#a)" mask="url(#b)" transform="translate(-35371 -6898)"><defs><clipPath id="a"><path d="M35374 6870v14153h18405V6870H35374" fill-rule="evenodd"/></clipPath></defs><g fill="#313d63" stroke="#313d63"><path d="M35374 6870v14153h18405V6870H35374" fill-rule="evenodd"/><g fill-opacity="0" stroke-linecap="round" stroke-linejoin="round" stroke-width="19.685" fill="none" stroke="#000"><path d="M53779 6870H35374M53779 21023V6870M35374 21023h18405M35374 6870v14153"/></g></g><g stroke-linecap="round" stroke-linejoin="round" stroke-width="0" stroke="none" fill="#9c6b28"><g fill-rule="evenodd"><path d="M46872 18460v-275.6h196.8v275.6zM46868 15019v-275.5h196.9v275.5zM46863 15467v-275.6h196.8v275.6zM46862 15902v-275.6h196.9v275.6zM46866 16347v-275.6h196.9v275.6zM46876 16771v-275.6h196.9v275.6zM46876 17190v-275.6h196.9v275.6zM46880 17639v-275.6h196.8v275.6zM46872 18054v-275.6h196.8v275.6zM45846 10650v-157.5h472.4v157.5zM45846 10906v-157.5h472.4v157.5zM45846 11161v-157.5h472.4v157.5zM45846 11417v-157.5h472.4v157.5zM45846 11673v-157.5h472.4v157.5zM45846 11929v-157.4h472.4v157.4zM45846 12185v-157.4h472.4v157.4zM43130 12185v-157.4h472.5v157.4zM43130 11929v-157.4h472.5v157.4zM43130 11673v-157.5h472.5v157.5zM43130 11417v-157.5h472.5v157.5zM43130 11161v-157.5h472.5v157.5zM43130 10906v-157.5h472.5v157.5zM43130 10650v-157.5h472.5v157.5zM40335 9055.1h590.6v787.4H40335zM38524 9055.1h590.6v787.4H38524zM39429 9055.1h590.6v787.4H39429zM38976 11535h1496v787.4h-1496zM46890 11004l3.8.6 3.8.9 3.6 1.3 3.5 1.7 3.3 2 3.1 2.3 2.9 2.6 2.6 2.8 2.3 3.1 1.9 3.3 1.7 3.5 1.3 3.7.9 3.7.6 3.8.2 3.9v78.7l-.2 3.9-.6 3.8-.9 3.8-1.3 3.6-1.7 3.5-1.9 3.3-2.3 3.1-2.6 2.9-2.9 2.6-3.1 2.3-3.3 2-3.5 1.6-3.6 1.3-3.8 1-3.8.5-3.9.2h-102.3l-3.9-.2-3.8-.5-3.8-1-3.6-1.3-3.5-1.6-3.3-2-3.1-2.3-2.9-2.6-2.6-2.9-2.3-3.1-2-3.3-1.6-3.5-1.3-3.6-.9-3.8-.6-3.8-.2-3.9v-78.7l.2-3.9.6-3.8.9-3.7 1.3-3.7 1.6-3.5 2-3.3 2.3-3.1 2.6-2.8 2.9-2.6 3.1-2.3 3.3-2 3.5-1.7 3.6-1.3 3.8-.9 3.8-.6 3.9-.2h102.3zM47142 11004l3.8.6 3.7.9 3.7 1.3 3.5 1.7 3.3 2 3.1 2.3 2.8 2.6 2.6 2.8 2.3 3.1 2 3.3 1.7 3.5 1.3 3.7.9 3.7.6 3.8.2 3.9v78.7l-.2 3.9-.6 3.8-.9 3.8-1.3 3.6-1.7 3.5-2 3.3-2.3 3.1-2.6 2.9-2.8 2.6-3.1 2.3-3.3 2-3.5 1.6-3.7 1.3-3.7 1-3.8.5-3.9.2h-102.4l-3.8-.2-3.8-.5-3.8-1-3.6-1.3-3.5-1.6-3.3-2-3.1-2.3-2.9-2.6-2.6-2.9-2.3-3.1-2-3.3-1.6-3.5-1.3-3.6-1-3.8-.5-3.8-.2-3.9v-78.7l.2-3.9.5-3.8 1-3.7 1.3-3.7 1.6-3.5 2-3.3 2.3-3.1 2.6-2.8 2.9-2.6 3.1-2.3 3.3-2 3.5-1.7 3.6-1.3 3.8-.9 3.8-.6 3.8-.2h102.4zM42417 12402l3.9.5 3.7 1 3.7 1.3 3.4 1.6 3.4 2 3.1 2.3 2.8 2.6 2.6 2.9 2.3 3.1 2 3.3 1.7 3.5 1.3 3.6.9 3.8.6 3.8.2 3.8v78.8l-.2 3.8-.6 3.9-.9 3.7-1.3 3.7-1.7 3.4-2 3.4-2.3 3.1-2.6 2.8-2.8 2.6-3.1 2.3-3.4 2-3.4 1.7-3.7 1.3-3.7.9-3.9.6-3.8.2h-102.4l-3.8-.2-3.9-.6-3.7-.9-3.6-1.3-3.5-1.7-3.3-2-3.2-2.3-2.8-2.6-2.6-2.8-2.3-3.1-2-3.4-1.6-3.4-1.4-3.7-.9-3.7-.6-3.9-.1-3.8v-78.8l.1-3.8.6-3.8.9-3.8 1.4-3.6 1.6-3.5 2-3.3 2.3-3.1 2.6-2.9 2.8-2.6 3.2-2.3 3.3-2 3.5-1.6 3.6-1.3 3.7-1 3.9-.5 3.8-.2h102.4zM42669 12402l3.8.5 3.8 1 3.6 1.3 3.5 1.6 3.3 2 3.1 2.3 2.9 2.6 2.6 2.9 2.3 3.1 2 3.3 1.6 3.5 1.3 3.6 1 3.8.5 3.8.2 3.8v78.8l-.2 3.8-.5 3.9-1 3.7-1.3 3.7-1.6 3.4-2 3.4-2.3 3.1-2.6 2.8-2.9 2.6-3.1 2.3-3.3 2-3.5 1.7-3.6 1.3-3.8.9-3.8.6-3.8.2h-102.4l-3.9-.2-3.8-.6-3.7-.9-3.7-1.3-3.5-1.7-3.3-2-3.1-2.3-2.8-2.6-2.6-2.8-2.3-3.1-2-3.4-1.7-3.4-1.3-3.7-.9-3.7-.6-3.9-.2-3.8v-78.8l.2-3.8.6-3.8.9-3.8 1.3-3.6 1.7-3.5 2-3.3 2.3-3.1 2.6-2.9 2.8-2.6 3.1-2.3 3.3-2 3.5-1.6 3.7-1.3 3.7-1 3.8-.5 3.9-.2h102.4zM42429 11516l3.8.6 3.7.9 3.7 1.3 3.5 1.7 3.3 2 3.1 2.3 2.8 2.6 2.6 2.8 2.3 3.1 2 3.4 1.7 3.5 1.3 3.6.9 3.7.6 3.9.2 3.8v78.8l-.2 3.8-.6 3.8-.9 3.8-1.3 3.6-1.7 3.5-2 3.3-2.3 3.1-2.6 2.9-2.8 2.6-3.1 2.3-3.3 2-3.5 1.6-3.7 1.3-3.7 1-3.8.5-3.9.2h-102.4l-3.8-.2-3.8-.5-3.8-1-3.6-1.3-3.5-1.6-3.3-2-3.1-2.3-2.9-2.6-2.6-2.9-2.3-3.1-2-3.3-1.6-3.5-1.3-3.6-1-3.8-.5-3.8-.2-3.8v-78.8l.2-3.8.5-3.9 1-3.7 1.3-3.6 1.6-3.5 2-3.4 2.3-3.1 2.6-2.8 2.9-2.6 3.1-2.3 3.3-2 3.5-1.7 3.6-1.3 3.8-.9 3.8-.6 3.8-.2h102.4zM42681 11516l3.8.6 3.8.9 3.6 1.3 3.5 1.7 3.3 2 3.1 2.3 2.9 2.6 2.6 2.8 2.3 3.1 2 3.4 1.6 3.5 1.3 3.6 1 3.7.5 3.9.2 3.8v78.8l-.2 3.8-.5 3.8-1 3.8-1.3 3.6-1.6 3.5-2 3.3-2.3 3.1-2.6 2.9-2.9 2.6-3.1 2.3-3.3 2-3.5 1.6-3.6 1.3-3.8 1-3.8.5-3.8.2h-102.4l-3.9-.2-3.8-.5-3.7-1-3.7-1.3-3.5-1.6-3.3-2-3.1-2.3-2.8-2.6-2.6-2.9-2.3-3.1-2-3.3-1.7-3.5-1.3-3.6-.9-3.8-.6-3.8-.2-3.8v-78.8l.2-3.8.6-3.9.9-3.7 1.3-3.6 1.7-3.5 2-3.4 2.3-3.1 2.6-2.8 2.8-2.6 3.1-2.3 3.3-2 3.5-1.7 3.7-1.3 3.7-.9 3.8-.6 3.9-.2h102.4zM42421 10748l3.8.6 3.8.9 3.6 1.3 3.5 1.7 3.3 2 3.1 2.3 2.9 2.6 2.6 2.8 2.3 3.1 1.9 3.3 1.7 3.5 1.3 3.7.9 3.7.6 3.8.2 3.9v78.7l-.2 3.9-.6 3.8-.9 3.8-1.3 3.6-1.7 3.5-1.9 3.3-2.3 3.1-2.6 2.9-2.9 2.6-3.1 2.3-3.3 2-3.5 1.6-3.6 1.3-3.8 1-3.8.5-3.9.2h-102.3l-3.9-.2-3.8-.5-3.8-1-3.6-1.3-3.5-1.6-3.3-2-3.1-2.3-2.9-2.6-2.6-2.9-2.3-3.1-2-3.3-1.6-3.5-1.3-3.6-1-3.8-.5-3.8-.2-3.9v-78.7l.2-3.9.5-3.8 1-3.7 1.3-3.7 1.6-3.5 2-3.3 2.3-3.1 2.6-2.8 2.9-2.6 3.1-2.3 3.3-2 3.5-1.7 3.6-1.3 3.8-.9 3.8-.6 3.9-.2h102.3zM42673 10748l3.8.6 3.7.9 3.7 1.3 3.5 1.7 3.3 2 3.1 2.3 2.8 2.6 2.6 2.8 2.3 3.1 2 3.3 1.7 3.5 1.3 3.7.9 3.7.6 3.8.2 3.9v78.7l-.2 3.9-.6 3.8-.9 3.8-1.3 3.6-1.7 3.5-2 3.3-2.3 3.1-2.6 2.9-2.8 2.6-3.1 2.3-3.3 2-3.5 1.6-3.7 1.3-3.7 1-3.8.5-3.9.2h-102.4l-3.8-.2-3.9-.5-3.7-1-3.6-1.3-3.5-1.6-3.3-2-3.1-2.3-2.9-2.6-2.6-2.9-2.3-3.1-2-3.3-1.6-3.5-1.3-3.6-1-3.8-.6-3.8-.1-3.9v-78.7l.1-3.9.6-3.8 1-3.7 1.3-3.7 1.6-3.5 2-3.3 2.3-3.1 2.6-2.8 2.9-2.6 3.1-2.3 3.3-2 3.5-1.7 3.6-1.3 3.7-.9 3.9-.6 3.8-.2h102.4z"/></g><circle cx="36417" cy="16457" r="334.65"/><circle cx="36417" cy="15457" r="334.65"/><circle cx="36417" cy="14457" r="334.65"/><circle cx="36417" cy="13457" r="334.65"/><circle cx="36417" cy="12457" r="334.65"/><path d="M36083 11791v-669.3h669.3v669.3z" fill-rule="evenodd"/><g fill-rule="evenodd"><path d="M44407 9189.2l5.3.8 5.3 1.31 5.1 1.82 4.9 2.31 4.6 2.79 4.3 3.22 4 3.63 3.7 4.01 3.2 4.34 2.8 4.64 2.3 4.89 1.8 5.09 1.3 5.25.8 5.35.3 5.4v133.86l-.3 5.41-.8 5.35-1.3 5.24-1.8 5.1-2.3 4.89-2.8 4.63-3.2 4.35-3.7 4.01-4 3.63-4.3 3.22-4.6 2.78-4.9 2.32-5.1 1.82-5.3 1.31-5.3.8-5.4.26h-110.3l-5.4-.26-5.3-.8-5.3-1.31-5.1-1.82-4.8-2.32-4.7-2.78-4.3-3.22-4-3.63-3.7-4.01-3.2-4.35-2.8-4.63-2.3-4.89-1.8-5.1-1.3-5.24-.8-5.35-.3-5.41v-133.86l.3-5.4.8-5.35 1.3-5.25 1.8-5.09 2.3-4.89 2.8-4.64 3.2-4.34 3.7-4.01 4-3.63 4.3-3.22 4.7-2.79 4.8-2.31 5.1-1.82 5.3-1.31 5.3-.8 5.4-.26h110.3zM44785 9189.2l5.4.8 5.2 1.31 5.1 1.82 4.9 2.31 4.6 2.79 4.4 3.22 4 3.63 3.6 4.01 3.3 4.34 2.7 4.64 2.3 4.89 1.9 5.09 1.3 5.25.8 5.35.2 5.4v133.86l-.2 5.41-.8 5.35-1.3 5.24-1.9 5.1-2.3 4.89-2.7 4.63-3.3 4.35-3.6 4.01-4 3.63-4.4 3.22-4.6 2.78-4.9 2.32-5.1 1.82-5.2 1.31-5.4.8-5.4.26h-110.2l-5.4-.26-5.4-.8-5.2-1.31-5.1-1.82-4.9-2.32-4.6-2.78-4.4-3.22-4-3.63-3.6-4.01-3.2-4.35-2.8-4.63-2.3-4.89-1.9-5.1-1.3-5.24-.8-5.35-.2-5.41v-133.86l.2-5.4.8-5.35 1.3-5.25 1.9-5.09 2.3-4.89 2.8-4.64 3.2-4.34 3.6-4.01 4-3.63 4.4-3.22 4.6-2.79 4.9-2.31 5.1-1.82 5.2-1.31 5.4-.8 5.4-.26h110.2zM41824 9039.6l5.4.79 5.2 1.31 5.1 1.83 4.9 2.31 4.6 2.78 4.4 3.22 4 3.63 3.6 4.01 3.2 4.35 2.8 4.64 2.3 4.89 1.8 5.09 1.4 5.25.8 5.35.2 5.4v110.23l-.2 5.41-.8 5.35-1.4 5.24-1.8 5.1-2.3 4.89-2.8 4.64-3.2 4.34-3.6 4.01-4 3.63-4.4 3.22-4.6 2.78-4.9 2.32-5.1 1.82-5.2 1.31-5.4.8-5.4.26h-133.9l-5.4-.26-5.3-.8-5.3-1.31-5.1-1.82-4.8-2.32-4.7-2.78-4.3-3.22-4-3.63-3.7-4.01-3.2-4.34-2.8-4.64-2.3-4.89-1.8-5.1-1.3-5.24-.8-5.35-.3-5.41v-110.23l.3-5.4.8-5.35 1.3-5.25 1.8-5.09 2.3-4.89 2.8-4.64 3.2-4.35 3.7-4.01 4-3.63 4.3-3.22 4.7-2.78 4.8-2.31 5.1-1.83 5.3-1.31 5.3-.79 5.4-.27h133.9zM41824 9417.6l5.4.79 5.2 1.32 5.1 1.82 4.9 2.31 4.6 2.78 4.4 3.22 4 3.64 3.6 4 3.2 4.35 2.8 4.64 2.3 4.89 1.8 5.09 1.4 5.25.8 5.35.2 5.4v110.24l-.2 5.4-.8 5.35-1.4 5.25-1.8 5.09-2.3 4.89-2.8 4.64-3.2 4.34-3.6 4.01-4 3.63-4.4 3.23-4.6 2.78-4.9 2.31-5.1 1.82-5.2 1.32-5.4.79-5.4.27h-133.9l-5.4-.27-5.3-.79-5.3-1.32-5.1-1.82-4.8-2.31-4.7-2.78-4.3-3.23-4-3.63-3.7-4.01-3.2-4.34-2.8-4.64-2.3-4.89-1.8-5.09-1.3-5.25-.8-5.35-.3-5.4v-110.24l.3-5.4.8-5.35 1.3-5.25 1.8-5.09 2.3-4.89 2.8-4.64 3.2-4.35 3.7-4 4-3.64 4.3-3.22 4.7-2.78 4.8-2.31 5.1-1.82 5.3-1.32 5.3-.79 5.4-.27h133.9zM42434 9020l5.4.79 5.2 1.32 5.1 1.82 4.9 2.31 4.7 2.78 4.3 3.23 4 3.63 3.6 4.01 3.3 4.34 2.7 4.64 2.4 4.89 1.8 5.09 1.3 5.25.8 5.35.3 5.4v110.24l-.3 5.4-.8 5.35-1.3 5.25-1.8 5.09-2.4 4.89-2.7 4.64-3.3 4.35-3.6 4-4 3.64-4.3 3.22-4.7 2.78-4.9 2.31-5.1 1.82-5.2 1.32-5.4.79-5.4.27h-133.8l-5.4-.27-5.4-.79-5.2-1.32-5.1-1.82-4.9-2.31-4.6-2.78-4.4-3.22-4-3.64-3.6-4-3.3-4.35-2.7-4.64-2.3-4.89-1.9-5.09-1.3-5.25-.8-5.35-.2-5.4v-110.24l.2-5.4.8-5.35 1.3-5.25 1.9-5.09 2.3-4.89 2.7-4.64 3.3-4.34 3.6-4.01 4-3.63 4.4-3.23 4.6-2.78 4.9-2.31 5.1-1.82 5.2-1.32 5.4-.79 5.4-.26h133.8zM42434 9397.9l5.4.8 5.2 1.31 5.1 1.82 4.9 2.32 4.7 2.78 4.3 3.22 4 3.63 3.6 4.01 3.3 4.34 2.7 4.64 2.4 4.89 1.8 5.1 1.3 5.24.8 5.35.3 5.41v110.23l-.3 5.4-.8 5.36-1.3 5.24-1.8 5.1-2.4 4.88-2.7 4.64-3.3 4.35-3.6 4.01-4 3.63-4.3 3.22-4.7 2.78-4.9 2.31-5.1 1.83-5.2 1.31-5.4.79-5.4.27h-133.8l-5.4-.27-5.4-.79-5.2-1.31-5.1-1.83-4.9-2.31-4.6-2.78-4.4-3.22-4-3.63-3.6-4.01-3.3-4.35-2.7-4.64-2.3-4.88-1.9-5.1-1.3-5.24-.8-5.36-.2-5.4v-110.23l.2-5.41.8-5.35 1.3-5.24 1.9-5.1 2.3-4.89 2.7-4.64 3.3-4.34 3.6-4.01 4-3.63 4.4-3.22 4.6-2.78 4.9-2.32 5.1-1.82 5.2-1.31 5.4-.8 5.4-.26h133.8zM36722 9543.6l5.4.8 5.2 1.31 5.1 1.82 4.9 2.32 4.7 2.78 4.3 3.22 4 3.63 3.6 4.01 3.3 4.34 2.7 4.64 2.4 4.89 1.8 5.1 1.3 5.24.8 5.35.3 5.41v133.85l-.3 5.41-.8 5.35-1.3 5.24-1.8 5.1-2.4 4.89-2.7 4.64-3.3 4.34-3.6 4.01-4 3.63-4.3 3.22-4.7 2.78-4.9 2.32-5.1 1.82-5.2 1.31-5.4.8-5.4.26h-110.2l-5.4-.26-5.4-.8-5.2-1.31-5.1-1.82-4.9-2.32-4.6-2.78-4.4-3.22-4-3.63-3.6-4.01-3.2-4.34-2.8-4.64-2.3-4.89-1.8-5.1-1.4-5.24-.8-5.35-.2-5.41v-133.85l.2-5.41.8-5.35 1.4-5.24 1.8-5.1 2.3-4.89 2.8-4.64 3.2-4.34 3.6-4.01 4-3.63 4.4-3.22 4.6-2.78 4.9-2.32 5.1-1.82 5.2-1.31 5.4-.8 5.4-.26h110.2zM37100 9543.6l5.3.8 5.3 1.31 5.1 1.82 4.9 2.32 4.6 2.78 4.4 3.22 4 3.63 3.6 4.01 3.2 4.34 2.8 4.64 2.3 4.89 1.8 5.1 1.3 5.24.8 5.35.3 5.41v133.85l-.3 5.41-.8 5.35-1.3 5.24-1.8 5.1-2.3 4.89-2.8 4.64-3.2 4.34-3.6 4.01-4 3.63-4.4 3.22-4.6 2.78-4.9 2.32-5.1 1.82-5.3 1.31-5.3.8-5.4.26h-110.2l-5.5-.26-5.3-.8-5.2-1.31-5.1-1.82-4.9-2.32-4.7-2.78-4.3-3.22-4-3.63-3.7-4.01-3.2-4.34-2.8-4.64-2.3-4.89-1.8-5.1-1.3-5.24-.8-5.35-.3-5.41v-133.85l.3-5.41.8-5.35 1.3-5.24 1.8-5.1 2.3-4.89 2.8-4.64 3.2-4.34 3.7-4.01 4-3.63 4.3-3.22 4.7-2.78 4.9-2.32 5.1-1.82 5.2-1.31 5.3-.8 5.5-.26h110.2z"/></g></g><g fill="#212d53" stroke="#212d53" stroke-linecap="round" stroke-linejoin="round"><g fill-rule="evenodd" stroke-width="0" stroke="none"><path d="M46872 18460v-275.6h196.8v275.6zM46868 15019v-275.5h196.9v275.5zM46863 15467v-275.6h196.8v275.6zM46862 15902v-275.6h196.9v275.6zM46866 16347v-275.6h196.9v275.6zM46876 16771v-275.6h196.9v275.6zM46876 17190v-275.6h196.9v275.6zM46880 17639v-275.6h196.8v275.6zM46872 18054v-275.6h196.8v275.6zM45846 10650v-157.5h472.4v157.5zM45846 10906v-157.5h472.4v157.5zM45846 11161v-157.5h472.4v157.5zM45846 11417v-157.5h472.4v157.5zM45846 11673v-157.5h472.4v157.5zM45846 11929v-157.4h472.4v157.4zM45846 12185v-157.4h472.4v157.4zM43130 12185v-157.4h472.5v157.4zM43130 11929v-157.4h472.5v157.4zM43130 11673v-157.5h472.5v157.5zM43130 11417v-157.5h472.5v157.5zM43130 11161v-157.5h472.5v157.5zM43130 10906v-157.5h472.5v157.5zM43130 10650v-157.5h472.5v157.5zM40335 9055.1h590.6v787.4H40335zM38524 9055.1h590.6v787.4H38524zM39429 9055.1h590.6v787.4H39429zM38976 11535h1496v787.4h-1496zM46890 11004l3.8.6 3.8.9 3.6 1.3 3.5 1.7 3.3 2 3.1 2.3 2.9 2.6 2.6 2.8 2.3 3.1 1.9 3.3 1.7 3.5 1.3 3.7.9 3.7.6 3.8.2 3.9v78.7l-.2 3.9-.6 3.8-.9 3.8-1.3 3.6-1.7 3.5-1.9 3.3-2.3 3.1-2.6 2.9-2.9 2.6-3.1 2.3-3.3 2-3.5 1.6-3.6 1.3-3.8 1-3.8.5-3.9.2h-102.3l-3.9-.2-3.8-.5-3.8-1-3.6-1.3-3.5-1.6-3.3-2-3.1-2.3-2.9-2.6-2.6-2.9-2.3-3.1-2-3.3-1.6-3.5-1.3-3.6-.9-3.8-.6-3.8-.2-3.9v-78.7l.2-3.9.6-3.8.9-3.7 1.3-3.7 1.6-3.5 2-3.3 2.3-3.1 2.6-2.8 2.9-2.6 3.1-2.3 3.3-2 3.5-1.7 3.6-1.3 3.8-.9 3.8-.6 3.9-.2h102.3zM47142 11004l3.8.6 3.7.9 3.7 1.3 3.5 1.7 3.3 2 3.1 2.3 2.8 2.6 2.6 2.8 2.3 3.1 2 3.3 1.7 3.5 1.3 3.7.9 3.7.6 3.8.2 3.9v78.7l-.2 3.9-.6 3.8-.9 3.8-1.3 3.6-1.7 3.5-2 3.3-2.3 3.1-2.6 2.9-2.8 2.6-3.1 2.3-3.3 2-3.5 1.6-3.7 1.3-3.7 1-3.8.5-3.9.2h-102.4l-3.8-.2-3.8-.5-3.8-1-3.6-1.3-3.5-1.6-3.3-2-3.1-2.3-2.9-2.6-2.6-2.9-2.3-3.1-2-3.3-1.6-3.5-1.3-3.6-1-3.8-.5-3.8-.2-3.9v-78.7l.2-3.9.5-3.8 1-3.7 1.3-3.7 1.6-3.5 2-3.3 2.3-3.1 2.6-2.8 2.9-2.6 3.1-2.3 3.3-2 3.5-1.7 3.6-1.3 3.8-.9 3.8-.6 3.8-.2h102.4zM42417 12402l3.9.5 3.7 1 3.7 1.3 3.4 1.6 3.4 2 3.1 2.3 2.8 2.6 2.6 2.9 2.3 3.1 2 3.3 1.7 3.5 1.3 3.6.9 3.8.6 3.8.2 3.8v78.8l-.2 3.8-.6 3.9-.9 3.7-1.3 3.7-1.7 3.4-2 3.4-2.3 3.1-2.6 2.8-2.8 2.6-3.1 2.3-3.4 2-3.4 1.7-3.7 1.3-3.7.9-3.9.6-3.8.2h-102.4l-3.8-.2-3.9-.6-3.7-.9-3.6-1.3-3.5-1.7-3.3-2-3.2-2.3-2.8-2.6-2.6-2.8-2.3-3.1-2-3.4-1.6-3.4-1.4-3.7-.9-3.7-.6-3.9-.1-3.8v-78.8l.1-3.8.6-3.8.9-3.8 1.4-3.6 1.6-3.5 2-3.3 2.3-3.1 2.6-2.9 2.8-2.6 3.2-2.3 3.3-2 3.5-1.6 3.6-1.3 3.7-1 3.9-.5 3.8-.2h102.4zM42669 12402l3.8.5 3.8 1 3.6 1.3 3.5 1.6 3.3 2 3.1 2.3 2.9 2.6 2.6 2.9 2.3 3.1 2 3.3 1.6 3.5 1.3 3.6 1 3.8.5 3.8.2 3.8v78.8l-.2 3.8-.5 3.9-1 3.7-1.3 3.7-1.6 3.4-2 3.4-2.3 3.1-2.6 2.8-2.9 2.6-3.1 2.3-3.3 2-3.5 1.7-3.6 1.3-3.8.9-3.8.6-3.8.2h-102.4l-3.9-.2-3.8-.6-3.7-.9-3.7-1.3-3.5-1.7-3.3-2-3.1-2.3-2.8-2.6-2.6-2.8-2.3-3.1-2-3.4-1.7-3.4-1.3-3.7-.9-3.7-.6-3.9-.2-3.8v-78.8l.2-3.8.6-3.8.9-3.8 1.3-3.6 1.7-3.5 2-3.3 2.3-3.1 2.6-2.9 2.8-2.6 3.1-2.3 3.3-2 3.5-1.6 3.7-1.3 3.7-1 3.8-.5 3.9-.2h102.4zM42429 11516l3.8.6 3.7.9 3.7 1.3 3.5 1.7 3.3 2 3.1 2.3 2.8 2.6 2.6 2.8 2.3 3.1 2 3.4 1.7 3.5 1.3 3.6.9 3.7.6 3.9.2 3.8v78.8l-.2 3.8-.6 3.8-.9 3.8-1.3 3.6-1.7 3.5-2 3.3-2.3 3.1-2.6 2.9-2.8 2.6-3.1 2.3-3.3 2-3.5 1.6-3.7 1.3-3.7 1-3.8.5-3.9.2h-102.4l-3.8-.2-3.8-.5-3.8-1-3.6-1.3-3.5-1.6-3.3-2-3.1-2.3-2.9-2.6-2.6-2.9-2.3-3.1-2-3.3-1.6-3.5-1.3-3.6-1-3.8-.5-3.8-.2-3.8v-78.8l.2-3.8.5-3.9 1-3.7 1.3-3.6 1.6-3.5 2-3.4 2.3-3.1 2.6-2.8 2.9-2.6 3.1-2.3 3.3-2 3.5-1.7 3.6-1.3 3.8-.9 3.8-.6 3.8-.2h102.4zM42681 11516l3.8.6 3.8.9 3.6 1.3 3.5 1.7 3.3 2 3.1 2.3 2.9 2.6 2.6 2.8 2.3 3.1 2 3.4 1.6 3.5 1.3 3.6 1 3.7.5 3.9.2 3.8v78.8l-.2 3.8-.5 3.8-1 3.8-1.3 3.6-1.6 3.5-2 3.3-2.3 3.1-2.6 2.9-2.9 2.6-3.1 2.3-3.3 2-3.5 1.6-3.6 1.3-3.8 1-3.8.5-3.8.2h-102.4l-3.9-.2-3.8-.5-3.7-1-3.7-1.3-3.5-1.6-3.3-2-3.1-2.3-2.8-2.6-2.6-2.9-2.3-3.1-2-3.3-1.7-3.5-1.3-3.6-.9-3.8-.6-3.8-.2-3.8v-78.8l.2-3.8.6-3.9.9-3.7 1.3-3.6 1.7-3.5 2-3.4 2.3-3.1 2.6-2.8 2.8-2.6 3.1-2.3 3.3-2 3.5-1.7 3.7-1.3 3.7-.9 3.8-.6 3.9-.2h102.4zM42421 10748l3.8.6 3.8.9 3.6 1.3 3.5 1.7 3.3 2 3.1 2.3 2.9 2.6 2.6 2.8 2.3 3.1 1.9 3.3 1.7 3.5 1.3 3.7.9 3.7.6 3.8.2 3.9v78.7l-.2 3.9-.6 3.8-.9 3.8-1.3 3.6-1.7 3.5-1.9 3.3-2.3 3.1-2.6 2.9-2.9 2.6-3.1 2.3-3.3 2-3.5 1.6-3.6 1.3-3.8 1-3.8.5-3.9.2h-102.3l-3.9-.2-3.8-.5-3.8-1-3.6-1.3-3.5-1.6-3.3-2-3.1-2.3-2.9-2.6-2.6-2.9-2.3-3.1-2-3.3-1.6-3.5-1.3-3.6-1-3.8-.5-3.8-.2-3.9v-78.7l.2-3.9.5-3.8 1-3.7 1.3-3.7 1.6-3.5 2-3.3 2.3-3.1 2.6-2.8 2.9-2.6 3.1-2.3 3.3-2 3.5-1.7 3.6-1.3 3.8-.9 3.8-.6 3.9-.2h102.3zM42673 10748l3.8.6 3.7.9 3.7 1.3 3.5 1.7 3.3 2 3.1 2.3 2.8 2.6 2.6 2.8 2.3 3.1 2 3.3 1.7 3.5 1.3 3.7.9 3.7.6 3.8.2 3.9v78.7l-.2 3.9-.6 3.8-.9 3.8-1.3 3.6-1.7 3.5-2 3.3-2.3 3.1-2.6 2.9-2.8 2.6-3.1 2.3-3.3 2-3.5 1.6-3.7 1.3-3.7 1-3.8.5-3.9.2h-102.4l-3.8-.2-3.9-.5-3.7-1-3.6-1.3-3.5-1.6-3.3-2-3.1-2.3-2.9-2.6-2.6-2.9-2.3-3.1-2-3.3-1.6-3.5-1.3-3.6-1-3.8-.6-3.8-.1-3.9v-78.7l.1-3.9.6-3.8 1-3.7 1.3-3.7 1.6-3.5 2-3.3 2.3-3.1 2.6-2.8 2.9-2.6 3.1-2.3 3.3-2 3.5-1.7 3.6-1.3 3.7-.9 3.9-.6 3.8-.2h102.4z"/></g><g stroke-width="0" stroke="none"><circle cx="36417" cy="16457" r="334.65"/><circle cx="36417" cy="15457" r="334.65"/><circle cx="36417" cy="14457" r="334.65"/><circle cx="36417" cy="13457" r="334.65"/><circle cx="36417" cy="12457" r="334.65"/><path d="M36083 11791v-669.3h669.3v669.3z" fill-rule="evenodd"/></g><g fill-rule="evenodd" stroke-width="0" stroke="none"><path d="M44407 9189.2l5.3.8 5.3 1.31 5.1 1.82 4.9 2.31 4.6 2.79 4.3 3.22 4 3.63 3.7 4.01 3.2 4.34 2.8 4.64 2.3 4.89 1.8 5.09 1.3 5.25.8 5.35.3 5.4v133.86l-.3 5.41-.8 5.35-1.3 5.24-1.8 5.1-2.3 4.89-2.8 4.63-3.2 4.35-3.7 4.01-4 3.63-4.3 3.22-4.6 2.78-4.9 2.32-5.1 1.82-5.3 1.31-5.3.8-5.4.26h-110.3l-5.4-.26-5.3-.8-5.3-1.31-5.1-1.82-4.8-2.32-4.7-2.78-4.3-3.22-4-3.63-3.7-4.01-3.2-4.35-2.8-4.63-2.3-4.89-1.8-5.1-1.3-5.24-.8-5.35-.3-5.41v-133.86l.3-5.4.8-5.35 1.3-5.25 1.8-5.09 2.3-4.89 2.8-4.64 3.2-4.34 3.7-4.01 4-3.63 4.3-3.22 4.7-2.79 4.8-2.31 5.1-1.82 5.3-1.31 5.3-.8 5.4-.26h110.3zM44785 9189.2l5.4.8 5.2 1.31 5.1 1.82 4.9 2.31 4.6 2.79 4.4 3.22 4 3.63 3.6 4.01 3.3 4.34 2.7 4.64 2.3 4.89 1.9 5.09 1.3 5.25.8 5.35.2 5.4v133.86l-.2 5.41-.8 5.35-1.3 5.24-1.9 5.1-2.3 4.89-2.7 4.63-3.3 4.35-3.6 4.01-4 3.63-4.4 3.22-4.6 2.78-4.9 2.32-5.1 1.82-5.2 1.31-5.4.8-5.4.26h-110.2l-5.4-.26-5.4-.8-5.2-1.31-5.1-1.82-4.9-2.32-4.6-2.78-4.4-3.22-4-3.63-3.6-4.01-3.2-4.35-2.8-4.63-2.3-4.89-1.9-5.1-1.3-5.24-.8-5.35-.2-5.41v-133.86l.2-5.4.8-5.35 1.3-5.25 1.9-5.09 2.3-4.89 2.8-4.64 3.2-4.34 3.6-4.01 4-3.63 4.4-3.22 4.6-2.79 4.9-2.31 5.1-1.82 5.2-1.31 5.4-.8 5.4-.26h110.2zM41824 9039.6l5.4.79 5.2 1.31 5.1 1.83 4.9 2.31 4.6 2.78 4.4 3.22 4 3.63 3.6 4.01 3.2 4.35 2.8 4.64 2.3 4.89 1.8 5.09 1.4 5.25.8 5.35.2 5.4v110.23l-.2 5.41-.8 5.35-1.4 5.24-1.8 5.1-2.3 4.89-2.8 4.64-3.2 4.34-3.6 4.01-4 3.63-4.4 3.22-4.6 2.78-4.9 2.32-5.1 1.82-5.2 1.31-5.4.8-5.4.26h-133.9l-5.4-.26-5.3-.8-5.3-1.31-5.1-1.82-4.8-2.32-4.7-2.78-4.3-3.22-4-3.63-3.7-4.01-3.2-4.34-2.8-4.64-2.3-4.89-1.8-5.1-1.3-5.24-.8-5.35-.3-5.41v-110.23l.3-5.4.8-5.35 1.3-5.25 1.8-5.09 2.3-4.89 2.8-4.64 3.2-4.35 3.7-4.01 4-3.63 4.3-3.22 4.7-2.78 4.8-2.31 5.1-1.83 5.3-1.31 5.3-.79 5.4-.27h133.9zM41824 9417.6l5.4.79 5.2 1.32 5.1 1.82 4.9 2.31 4.6 2.78 4.4 3.22 4 3.64 3.6 4 3.2 4.35 2.8 4.64 2.3 4.89 1.8 5.09 1.4 5.25.8 5.35.2 5.4v110.24l-.2 5.4-.8 5.35-1.4 5.25-1.8 5.09-2.3 4.89-2.8 4.64-3.2 4.34-3.6 4.01-4 3.63-4.4 3.23-4.6 2.78-4.9 2.31-5.1 1.82-5.2 1.32-5.4.79-5.4.27h-133.9l-5.4-.27-5.3-.79-5.3-1.32-5.1-1.82-4.8-2.31-4.7-2.78-4.3-3.23-4-3.63-3.7-4.01-3.2-4.34-2.8-4.64-2.3-4.89-1.8-5.09-1.3-5.25-.8-5.35-.3-5.4v-110.24l.3-5.4.8-5.35 1.3-5.25 1.8-5.09 2.3-4.89 2.8-4.64 3.2-4.35 3.7-4 4-3.64 4.3-3.22 4.7-2.78 4.8-2.31 5.1-1.82 5.3-1.32 5.3-.79 5.4-.27h133.9zM42434 9020l5.4.79 5.2 1.32 5.1 1.82 4.9 2.31 4.7 2.78 4.3 3.23 4 3.63 3.6 4.01 3.3 4.34 2.7 4.64 2.4 4.89 1.8 5.09 1.3 5.25.8 5.35.3 5.4v110.24l-.3 5.4-.8 5.35-1.3 5.25-1.8 5.09-2.4 4.89-2.7 4.64-3.3 4.35-3.6 4-4 3.64-4.3 3.22-4.7 2.78-4.9 2.31-5.1 1.82-5.2 1.32-5.4.79-5.4.27h-133.8l-5.4-.27-5.4-.79-5.2-1.32-5.1-1.82-4.9-2.31-4.6-2.78-4.4-3.22-4-3.64-3.6-4-3.3-4.35-2.7-4.64-2.3-4.89-1.9-5.09-1.3-5.25-.8-5.35-.2-5.4v-110.24l.2-5.4.8-5.35 1.3-5.25 1.9-5.09 2.3-4.89 2.7-4.64 3.3-4.34 3.6-4.01 4-3.63 4.4-3.23 4.6-2.78 4.9-2.31 5.1-1.82 5.2-1.32 5.4-.79 5.4-.26h133.8zM42434 9397.9l5.4.8 5.2 1.31 5.1 1.82 4.9 2.32 4.7 2.78 4.3 3.22 4 3.63 3.6 4.01 3.3 4.34 2.7 4.64 2.4 4.89 1.8 5.1 1.3 5.24.8 5.35.3 5.41v110.23l-.3 5.4-.8 5.36-1.3 5.24-1.8 5.1-2.4 4.88-2.7 4.64-3.3 4.35-3.6 4.01-4 3.63-4.3 3.22-4.7 2.78-4.9 2.31-5.1 1.83-5.2 1.31-5.4.79-5.4.27h-133.8l-5.4-.27-5.4-.79-5.2-1.31-5.1-1.83-4.9-2.31-4.6-2.78-4.4-3.22-4-3.63-3.6-4.01-3.3-4.35-2.7-4.64-2.3-4.88-1.9-5.1-1.3-5.24-.8-5.36-.2-5.4v-110.23l.2-5.41.8-5.35 1.3-5.24 1.9-5.1 2.3-4.89 2.7-4.64 3.3-4.34 3.6-4.01 4-3.63 4.4-3.22 4.6-2.78 4.9-2.32 5.1-1.82 5.2-1.31 5.4-.8 5.4-.26h133.8zM36722 9543.6l5.4.8 5.2 1.31 5.1 1.82 4.9 2.32 4.7 2.78 4.3 3.22 4 3.63 3.6 4.01 3.3 4.34 2.7 4.64 2.4 4.89 1.8 5.1 1.3 5.24.8 5.35.3 5.41v133.85l-.3 5.41-.8 5.35-1.3 5.24-1.8 5.1-2.4 4.89-2.7 4.64-3.3 4.34-3.6 4.01-4 3.63-4.3 3.22-4.7 2.78-4.9 2.32-5.1 1.82-5.2 1.31-5.4.8-5.4.26h-110.2l-5.4-.26-5.4-.8-5.2-1.31-5.1-1.82-4.9-2.32-4.6-2.78-4.4-3.22-4-3.63-3.6-4.01-3.2-4.34-2.8-4.64-2.3-4.89-1.8-5.1-1.4-5.24-.8-5.35-.2-5.41v-133.85l.2-5.41.8-5.35 1.4-5.24 1.8-5.1 2.3-4.89 2.8-4.64 3.2-4.34 3.6-4.01 4-3.63 4.4-3.22 4.6-2.78 4.9-2.32 5.1-1.82 5.2-1.31 5.4-.8 5.4-.26h110.2zM37100 9543.6l5.3.8 5.3 1.31 5.1 1.82 4.9 2.32 4.6 2.78 4.4 3.22 4 3.63 3.6 4.01 3.2 4.34 2.8 4.64 2.3 4.89 1.8 5.1 1.3 5.24.8 5.35.3 5.41v133.85l-.3 5.41-.8 5.35-1.3 5.24-1.8 5.1-2.3 4.89-2.8 4.64-3.2 4.34-3.6 4.01-4 3.63-4.4 3.22-4.6 2.78-4.9 2.32-5.1 1.82-5.3 1.31-5.3.8-5.4.26h-110.2l-5.5-.26-5.3-.8-5.2-1.31-5.1-1.82-4.9-2.32-4.7-2.78-4.3-3.22-4-3.63-3.7-4.01-3.2-4.34-2.8-4.64-2.3-4.89-1.8-5.1-1.3-5.24-.8-5.35-.3-5.41v-133.85l.3-5.41.8-5.35 1.3-5.24 1.8-5.1 2.3-4.89 2.8-4.64 3.2-4.34 3.7-4.01 4-3.63 4.3-3.22 4.7-2.78 4.9-2.32 5.1-1.82 5.2-1.31 5.3-.8 5.5-.26h110.2z"/></g><g stroke-width="0" stroke="none"><circle cx="44350" cy="12854" r="157.48"/><circle cx="44350" cy="10945" r="157.48"/><circle cx="46496" cy="14980" r="157.48"/><circle cx="43898" cy="11821" r="157.48"/><circle cx="46575" cy="15728" r="157.48"/><circle cx="46299" cy="17028" r="157.48"/><circle cx="47697" cy="15551" r="157.48"/><circle cx="41378" cy="9901.6" r="157.48"/><circle cx="41949" cy="12992" r="157.48"/><circle cx="41929" cy="12461" r="157.48"/><circle cx="41713" cy="11594" r="157.48"/><circle cx="45335" cy="9163.4" r="157.48"/><circle cx="45335" cy="11181" r="157.48"/></g><g fill-opacity="0" stroke-width="98.425" fill="none"><path d="M46863 15349h-18M44350 10944h-197M44015 11082h-649M44153 10944l-138 138M46496 14980v216M46628 15329h333M46496 15196l132 133M46862 15783h-252M43395 11820l-29 30M43897 11820h-502M46875 16652h507M47382 16652l610-609M47992 16043v-3484M47539 12106h-1457M47992 12559l-453-453M47086 11082h1083M48169 11082l787 788M48956 11870v4744M48050 17520h-1170M48956 16614l-906 906M36417 9909l244-244M36417 11456V9909M40929 9149l-300 299M41751 9149h-822M42342 9149l20-20M41751 9149h591M42362 9129h35M43366 10098v472M42397 9129l969 969M43559 10098l787-787M43366 10098h193M46082 10826h-689M45393 10826l-256-256M43366 12106h1161M44527 12106l118-118M44645 10570h-1279M45137 10570h-492M44625 11338l20 20M43366 11338h1259M44645 11358v-788M46082 11594h-1437M44645 11594v-236M44645 11988v-394M46875 17072h895M47770 17072l674-675M48444 12854v-984M48444 16397v-3543M48169 11594h-2087M48444 11870l-275-276M46949 17027l25 25M46299 17027h650M38602 9665l216-217M36417 12456h555M37401 9665h1201M37401 12027V9665M36972 12456l429-429M37039 9665h362M44724 8976v335M44488 8740l236 236M38051 8740h6437M37401 9389l650-649M37401 9665v-276M44724 9311v255M45728 10570h354M44724 9566l1004 1004M41771 9507l-20 20M42362 9507h-591M39724 10000h1555M39724 11929v-1929M39724 10000v-552M46964 16209h74M47038 16209l658-658M41377 9901l374-374M41279 10000l98-99M41948 12992l-610-611M41338 12381v-1279M41614 10826h752M41338 11102l276-276M42342 12460l20 20M41929 12460h413M41712 11594h662M36417 13456h-520M35897 13456l-287-287M36043 8562h8720M35610 8996l433-434M35610 13169V8996M45334 9133v30M44763 8562l571 571M45492 11338l-158-157M46082 11338h-590M42618 10826h748M43366 11594h-741M42614 12480h2149M44763 12480l679-679M46033 11801l49 49M45442 11801h591M46834 11082h-752"/></g><g stroke-width="0" stroke="none"><circle cx="44350" cy="12854" r="68.898"/><circle cx="44350" cy="10945" r="68.898"/><circle cx="46496" cy="14980" r="68.898"/><circle cx="43898" cy="11821" r="68.898"/><circle cx="46575" cy="15728" r="68.898"/><circle cx="46299" cy="17028" r="68.898"/><circle cx="47697" cy="15551" r="68.898"/><circle cx="41378" cy="9901.6" r="68.898"/><circle cx="41949" cy="12992" r="68.898"/><circle cx="41929" cy="12461" r="68.898"/><circle cx="41713" cy="11594" r="68.898"/><circle cx="45335" cy="9163.4" r="68.898"/><circle cx="45335" cy="11181" r="68.898"/><circle cx="36417" cy="16457" r="68.898"/><circle cx="36417" cy="15457" r="68.898"/><circle cx="36417" cy="14457" r="68.898"/><circle cx="36417" cy="13457" r="68.898"/><circle cx="36417" cy="12457" r="68.898"/><circle cx="36417" cy="11457" r="68.898"/></g></g><g fill="#b5ae30" mask="url(#c)" stroke="#b5ae30" stroke-linecap="round" stroke-linejoin="round"><g fill-rule="evenodd" stroke-width="0" stroke="none"><path d="M46872 18460v-275.6h196.8v275.6zM46868 15019v-275.5h196.9v275.5zM46863 15467v-275.6h196.8v275.6zM46862 15902v-275.6h196.9v275.6zM46866 16347v-275.6h196.9v275.6zM46876 16771v-275.6h196.9v275.6zM46876 17190v-275.6h196.9v275.6zM46880 17639v-275.6h196.8v275.6zM46872 18054v-275.6h196.8v275.6zM45846 10650v-157.5h472.4v157.5zM45846 10906v-157.5h472.4v157.5zM45846 11161v-157.5h472.4v157.5zM45846 11417v-157.5h472.4v157.5zM45846 11673v-157.5h472.4v157.5zM45846 11929v-157.4h472.4v157.4zM45846 12185v-157.4h472.4v157.4zM43130 12185v-157.4h472.5v157.4zM43130 11929v-157.4h472.5v157.4zM43130 11673v-157.5h472.5v157.5zM43130 11417v-157.5h472.5v157.5zM43130 11161v-157.5h472.5v157.5zM43130 10906v-157.5h472.5v157.5zM43130 10650v-157.5h472.5v157.5zM40335 9055.1h590.6v787.4H40335zM38524 9055.1h590.6v787.4H38524zM39429 9055.1h590.6v787.4H39429zM38976 11535h1496v787.4h-1496zM46890 11004l3.8.6 3.8.9 3.6 1.3 3.5 1.7 3.3 2 3.1 2.3 2.9 2.6 2.6 2.8 2.3 3.1 1.9 3.3 1.7 3.5 1.3 3.7.9 3.7.6 3.8.2 3.9v78.7l-.2 3.9-.6 3.8-.9 3.8-1.3 3.6-1.7 3.5-1.9 3.3-2.3 3.1-2.6 2.9-2.9 2.6-3.1 2.3-3.3 2-3.5 1.6-3.6 1.3-3.8 1-3.8.5-3.9.2h-102.3l-3.9-.2-3.8-.5-3.8-1-3.6-1.3-3.5-1.6-3.3-2-3.1-2.3-2.9-2.6-2.6-2.9-2.3-3.1-2-3.3-1.6-3.5-1.3-3.6-.9-3.8-.6-3.8-.2-3.9v-78.7l.2-3.9.6-3.8.9-3.7 1.3-3.7 1.6-3.5 2-3.3 2.3-3.1 2.6-2.8 2.9-2.6 3.1-2.3 3.3-2 3.5-1.7 3.6-1.3 3.8-.9 3.8-.6 3.9-.2h102.3zM47142 11004l3.8.6 3.7.9 3.7 1.3 3.5 1.7 3.3 2 3.1 2.3 2.8 2.6 2.6 2.8 2.3 3.1 2 3.3 1.7 3.5 1.3 3.7.9 3.7.6 3.8.2 3.9v78.7l-.2 3.9-.6 3.8-.9 3.8-1.3 3.6-1.7 3.5-2 3.3-2.3 3.1-2.6 2.9-2.8 2.6-3.1 2.3-3.3 2-3.5 1.6-3.7 1.3-3.7 1-3.8.5-3.9.2h-102.4l-3.8-.2-3.8-.5-3.8-1-3.6-1.3-3.5-1.6-3.3-2-3.1-2.3-2.9-2.6-2.6-2.9-2.3-3.1-2-3.3-1.6-3.5-1.3-3.6-1-3.8-.5-3.8-.2-3.9v-78.7l.2-3.9.5-3.8 1-3.7 1.3-3.7 1.6-3.5 2-3.3 2.3-3.1 2.6-2.8 2.9-2.6 3.1-2.3 3.3-2 3.5-1.7 3.6-1.3 3.8-.9 3.8-.6 3.8-.2h102.4zM42417 12402l3.9.5 3.7 1 3.7 1.3 3.4 1.6 3.4 2 3.1 2.3 2.8 2.6 2.6 2.9 2.3 3.1 2 3.3 1.7 3.5 1.3 3.6.9 3.8.6 3.8.2 3.8v78.8l-.2 3.8-.6 3.9-.9 3.7-1.3 3.7-1.7 3.4-2 3.4-2.3 3.1-2.6 2.8-2.8 2.6-3.1 2.3-3.4 2-3.4 1.7-3.7 1.3-3.7.9-3.9.6-3.8.2h-102.4l-3.8-.2-3.9-.6-3.7-.9-3.6-1.3-3.5-1.7-3.3-2-3.2-2.3-2.8-2.6-2.6-2.8-2.3-3.1-2-3.4-1.6-3.4-1.4-3.7-.9-3.7-.6-3.9-.1-3.8v-78.8l.1-3.8.6-3.8.9-3.8 1.4-3.6 1.6-3.5 2-3.3 2.3-3.1 2.6-2.9 2.8-2.6 3.2-2.3 3.3-2 3.5-1.6 3.6-1.3 3.7-1 3.9-.5 3.8-.2h102.4zM42669 12402l3.8.5 3.8 1 3.6 1.3 3.5 1.6 3.3 2 3.1 2.3 2.9 2.6 2.6 2.9 2.3 3.1 2 3.3 1.6 3.5 1.3 3.6 1 3.8.5 3.8.2 3.8v78.8l-.2 3.8-.5 3.9-1 3.7-1.3 3.7-1.6 3.4-2 3.4-2.3 3.1-2.6 2.8-2.9 2.6-3.1 2.3-3.3 2-3.5 1.7-3.6 1.3-3.8.9-3.8.6-3.8.2h-102.4l-3.9-.2-3.8-.6-3.7-.9-3.7-1.3-3.5-1.7-3.3-2-3.1-2.3-2.8-2.6-2.6-2.8-2.3-3.1-2-3.4-1.7-3.4-1.3-3.7-.9-3.7-.6-3.9-.2-3.8v-78.8l.2-3.8.6-3.8.9-3.8 1.3-3.6 1.7-3.5 2-3.3 2.3-3.1 2.6-2.9 2.8-2.6 3.1-2.3 3.3-2 3.5-1.6 3.7-1.3 3.7-1 3.8-.5 3.9-.2h102.4zM42429 11516l3.8.6 3.7.9 3.7 1.3 3.5 1.7 3.3 2 3.1 2.3 2.8 2.6 2.6 2.8 2.3 3.1 2 3.4 1.7 3.5 1.3 3.6.9 3.7.6 3.9.2 3.8v78.8l-.2 3.8-.6 3.8-.9 3.8-1.3 3.6-1.7 3.5-2 3.3-2.3 3.1-2.6 2.9-2.8 2.6-3.1 2.3-3.3 2-3.5 1.6-3.7 1.3-3.7 1-3.8.5-3.9.2h-102.4l-3.8-.2-3.8-.5-3.8-1-3.6-1.3-3.5-1.6-3.3-2-3.1-2.3-2.9-2.6-2.6-2.9-2.3-3.1-2-3.3-1.6-3.5-1.3-3.6-1-3.8-.5-3.8-.2-3.8v-78.8l.2-3.8.5-3.9 1-3.7 1.3-3.6 1.6-3.5 2-3.4 2.3-3.1 2.6-2.8 2.9-2.6 3.1-2.3 3.3-2 3.5-1.7 3.6-1.3 3.8-.9 3.8-.6 3.8-.2h102.4zM42681 11516l3.8.6 3.8.9 3.6 1.3 3.5 1.7 3.3 2 3.1 2.3 2.9 2.6 2.6 2.8 2.3 3.1 2 3.4 1.6 3.5 1.3 3.6 1 3.7.5 3.9.2 3.8v78.8l-.2 3.8-.5 3.8-1 3.8-1.3 3.6-1.6 3.5-2 3.3-2.3 3.1-2.6 2.9-2.9 2.6-3.1 2.3-3.3 2-3.5 1.6-3.6 1.3-3.8 1-3.8.5-3.8.2h-102.4l-3.9-.2-3.8-.5-3.7-1-3.7-1.3-3.5-1.6-3.3-2-3.1-2.3-2.8-2.6-2.6-2.9-2.3-3.1-2-3.3-1.7-3.5-1.3-3.6-.9-3.8-.6-3.8-.2-3.8v-78.8l.2-3.8.6-3.9.9-3.7 1.3-3.6 1.7-3.5 2-3.4 2.3-3.1 2.6-2.8 2.8-2.6 3.1-2.3 3.3-2 3.5-1.7 3.7-1.3 3.7-.9 3.8-.6 3.9-.2h102.4zM42421 10748l3.8.6 3.8.9 3.6 1.3 3.5 1.7 3.3 2 3.1 2.3 2.9 2.6 2.6 2.8 2.3 3.1 1.9 3.3 1.7 3.5 1.3 3.7.9 3.7.6 3.8.2 3.9v78.7l-.2 3.9-.6 3.8-.9 3.8-1.3 3.6-1.7 3.5-1.9 3.3-2.3 3.1-2.6 2.9-2.9 2.6-3.1 2.3-3.3 2-3.5 1.6-3.6 1.3-3.8 1-3.8.5-3.9.2h-102.3l-3.9-.2-3.8-.5-3.8-1-3.6-1.3-3.5-1.6-3.3-2-3.1-2.3-2.9-2.6-2.6-2.9-2.3-3.1-2-3.3-1.6-3.5-1.3-3.6-1-3.8-.5-3.8-.2-3.9v-78.7l.2-3.9.5-3.8 1-3.7 1.3-3.7 1.6-3.5 2-3.3 2.3-3.1 2.6-2.8 2.9-2.6 3.1-2.3 3.3-2 3.5-1.7 3.6-1.3 3.8-.9 3.8-.6 3.9-.2h102.3zM42673 10748l3.8.6 3.7.9 3.7 1.3 3.5 1.7 3.3 2 3.1 2.3 2.8 2.6 2.6 2.8 2.3 3.1 2 3.3 1.7 3.5 1.3 3.7.9 3.7.6 3.8.2 3.9v78.7l-.2 3.9-.6 3.8-.9 3.8-1.3 3.6-1.7 3.5-2 3.3-2.3 3.1-2.6 2.9-2.8 2.6-3.1 2.3-3.3 2-3.5 1.6-3.7 1.3-3.7 1-3.8.5-3.9.2h-102.4l-3.8-.2-3.9-.5-3.7-1-3.6-1.3-3.5-1.6-3.3-2-3.1-2.3-2.9-2.6-2.6-2.9-2.3-3.1-2-3.3-1.6-3.5-1.3-3.6-1-3.8-.6-3.8-.1-3.9v-78.7l.1-3.9.6-3.8 1-3.7 1.3-3.7 1.6-3.5 2-3.3 2.3-3.1 2.6-2.8 2.9-2.6 3.1-2.3 3.3-2 3.5-1.7 3.6-1.3 3.7-.9 3.9-.6 3.8-.2h102.4z"/></g><g stroke-width="0" stroke="none"><circle cx="36417" cy="16457" r="334.65"/><circle cx="36417" cy="15457" r="334.65"/><circle cx="36417" cy="14457" r="334.65"/><circle cx="36417" cy="13457" r="334.65"/><circle cx="36417" cy="12457" r="334.65"/><path d="M36083 11791v-669.3h669.3v669.3z" fill-rule="evenodd"/></g><g fill-rule="evenodd" stroke-width="0" stroke="none"><path d="M44407 9189.2l5.3.8 5.3 1.31 5.1 1.82 4.9 2.31 4.6 2.79 4.3 3.22 4 3.63 3.7 4.01 3.2 4.34 2.8 4.64 2.3 4.89 1.8 5.09 1.3 5.25.8 5.35.3 5.4v133.86l-.3 5.41-.8 5.35-1.3 5.24-1.8 5.1-2.3 4.89-2.8 4.63-3.2 4.35-3.7 4.01-4 3.63-4.3 3.22-4.6 2.78-4.9 2.32-5.1 1.82-5.3 1.31-5.3.8-5.4.26h-110.3l-5.4-.26-5.3-.8-5.3-1.31-5.1-1.82-4.8-2.32-4.7-2.78-4.3-3.22-4-3.63-3.7-4.01-3.2-4.35-2.8-4.63-2.3-4.89-1.8-5.1-1.3-5.24-.8-5.35-.3-5.41v-133.86l.3-5.4.8-5.35 1.3-5.25 1.8-5.09 2.3-4.89 2.8-4.64 3.2-4.34 3.7-4.01 4-3.63 4.3-3.22 4.7-2.79 4.8-2.31 5.1-1.82 5.3-1.31 5.3-.8 5.4-.26h110.3zM44785 9189.2l5.4.8 5.2 1.31 5.1 1.82 4.9 2.31 4.6 2.79 4.4 3.22 4 3.63 3.6 4.01 3.3 4.34 2.7 4.64 2.3 4.89 1.9 5.09 1.3 5.25.8 5.35.2 5.4v133.86l-.2 5.41-.8 5.35-1.3 5.24-1.9 5.1-2.3 4.89-2.7 4.63-3.3 4.35-3.6 4.01-4 3.63-4.4 3.22-4.6 2.78-4.9 2.32-5.1 1.82-5.2 1.31-5.4.8-5.4.26h-110.2l-5.4-.26-5.4-.8-5.2-1.31-5.1-1.82-4.9-2.32-4.6-2.78-4.4-3.22-4-3.63-3.6-4.01-3.2-4.35-2.8-4.63-2.3-4.89-1.9-5.1-1.3-5.24-.8-5.35-.2-5.41v-133.86l.2-5.4.8-5.35 1.3-5.25 1.9-5.09 2.3-4.89 2.8-4.64 3.2-4.34 3.6-4.01 4-3.63 4.4-3.22 4.6-2.79 4.9-2.31 5.1-1.82 5.2-1.31 5.4-.8 5.4-.26h110.2zM41824 9039.6l5.4.79 5.2 1.31 5.1 1.83 4.9 2.31 4.6 2.78 4.4 3.22 4 3.63 3.6 4.01 3.2 4.35 2.8 4.64 2.3 4.89 1.8 5.09 1.4 5.25.8 5.35.2 5.4v110.23l-.2 5.41-.8 5.35-1.4 5.24-1.8 5.1-2.3 4.89-2.8 4.64-3.2 4.34-3.6 4.01-4 3.63-4.4 3.22-4.6 2.78-4.9 2.32-5.1 1.82-5.2 1.31-5.4.8-5.4.26h-133.9l-5.4-.26-5.3-.8-5.3-1.31-5.1-1.82-4.8-2.32-4.7-2.78-4.3-3.22-4-3.63-3.7-4.01-3.2-4.34-2.8-4.64-2.3-4.89-1.8-5.1-1.3-5.24-.8-5.35-.3-5.41v-110.23l.3-5.4.8-5.35 1.3-5.25 1.8-5.09 2.3-4.89 2.8-4.64 3.2-4.35 3.7-4.01 4-3.63 4.3-3.22 4.7-2.78 4.8-2.31 5.1-1.83 5.3-1.31 5.3-.79 5.4-.27h133.9zM41824 9417.6l5.4.79 5.2 1.32 5.1 1.82 4.9 2.31 4.6 2.78 4.4 3.22 4 3.64 3.6 4 3.2 4.35 2.8 4.64 2.3 4.89 1.8 5.09 1.4 5.25.8 5.35.2 5.4v110.24l-.2 5.4-.8 5.35-1.4 5.25-1.8 5.09-2.3 4.89-2.8 4.64-3.2 4.34-3.6 4.01-4 3.63-4.4 3.23-4.6 2.78-4.9 2.31-5.1 1.82-5.2 1.32-5.4.79-5.4.27h-133.9l-5.4-.27-5.3-.79-5.3-1.32-5.1-1.82-4.8-2.31-4.7-2.78-4.3-3.23-4-3.63-3.7-4.01-3.2-4.34-2.8-4.64-2.3-4.89-1.8-5.09-1.3-5.25-.8-5.35-.3-5.4v-110.24l.3-5.4.8-5.35 1.3-5.25 1.8-5.09 2.3-4.89 2.8-4.64 3.2-4.35 3.7-4 4-3.64 4.3-3.22 4.7-2.78 4.8-2.31 5.1-1.82 5.3-1.32 5.3-.79 5.4-.27h133.9zM42434 9020l5.4.79 5.2 1.32 5.1 1.82 4.9 2.31 4.7 2.78 4.3 3.23 4 3.63 3.6 4.01 3.3 4.34 2.7 4.64 2.4 4.89 1.8 5.09 1.3 5.25.8 5.35.3 5.4v110.24l-.3 5.4-.8 5.35-1.3 5.25-1.8 5.09-2.4 4.89-2.7 4.64-3.3 4.35-3.6 4-4 3.64-4.3 3.22-4.7 2.78-4.9 2.31-5.1 1.82-5.2 1.32-5.4.79-5.4.27h-133.8l-5.4-.27-5.4-.79-5.2-1.32-5.1-1.82-4.9-2.31-4.6-2.78-4.4-3.22-4-3.64-3.6-4-3.3-4.35-2.7-4.64-2.3-4.89-1.9-5.09-1.3-5.25-.8-5.35-.2-5.4v-110.24l.2-5.4.8-5.35 1.3-5.25 1.9-5.09 2.3-4.89 2.7-4.64 3.3-4.34 3.6-4.01 4-3.63 4.4-3.23 4.6-2.78 4.9-2.31 5.1-1.82 5.2-1.32 5.4-.79 5.4-.26h133.8zM42434 9397.9l5.4.8 5.2 1.31 5.1 1.82 4.9 2.32 4.7 2.78 4.3 3.22 4 3.63 3.6 4.01 3.3 4.34 2.7 4.64 2.4 4.89 1.8 5.1 1.3 5.24.8 5.35.3 5.41v110.23l-.3 5.4-.8 5.36-1.3 5.24-1.8 5.1-2.4 4.88-2.7 4.64-3.3 4.35-3.6 4.01-4 3.63-4.3 3.22-4.7 2.78-4.9 2.31-5.1 1.83-5.2 1.31-5.4.79-5.4.27h-133.8l-5.4-.27-5.4-.79-5.2-1.31-5.1-1.83-4.9-2.31-4.6-2.78-4.4-3.22-4-3.63-3.6-4.01-3.3-4.35-2.7-4.64-2.3-4.88-1.9-5.1-1.3-5.24-.8-5.36-.2-5.4v-110.23l.2-5.41.8-5.35 1.3-5.24 1.9-5.1 2.3-4.89 2.7-4.64 3.3-4.34 3.6-4.01 4-3.63 4.4-3.22 4.6-2.78 4.9-2.32 5.1-1.82 5.2-1.31 5.4-.8 5.4-.26h133.8zM36722 9543.6l5.4.8 5.2 1.31 5.1 1.82 4.9 2.32 4.7 2.78 4.3 3.22 4 3.63 3.6 4.01 3.3 4.34 2.7 4.64 2.4 4.89 1.8 5.1 1.3 5.24.8 5.35.3 5.41v133.85l-.3 5.41-.8 5.35-1.3 5.24-1.8 5.1-2.4 4.89-2.7 4.64-3.3 4.34-3.6 4.01-4 3.63-4.3 3.22-4.7 2.78-4.9 2.32-5.1 1.82-5.2 1.31-5.4.8-5.4.26h-110.2l-5.4-.26-5.4-.8-5.2-1.31-5.1-1.82-4.9-2.32-4.6-2.78-4.4-3.22-4-3.63-3.6-4.01-3.2-4.34-2.8-4.64-2.3-4.89-1.8-5.1-1.4-5.24-.8-5.35-.2-5.41v-133.85l.2-5.41.8-5.35 1.4-5.24 1.8-5.1 2.3-4.89 2.8-4.64 3.2-4.34 3.6-4.01 4-3.63 4.4-3.22 4.6-2.78 4.9-2.32 5.1-1.82 5.2-1.31 5.4-.8 5.4-.26h110.2zM37100 9543.6l5.3.8 5.3 1.31 5.1 1.82 4.9 2.32 4.6 2.78 4.4 3.22 4 3.63 3.6 4.01 3.2 4.34 2.8 4.64 2.3 4.89 1.8 5.1 1.3 5.24.8 5.35.3 5.41v133.85l-.3 5.41-.8 5.35-1.3 5.24-1.8 5.1-2.3 4.89-2.8 4.64-3.2 4.34-3.6 4.01-4 3.63-4.4 3.22-4.6 2.78-4.9 2.32-5.1 1.82-5.3 1.31-5.3.8-5.4.26h-110.2l-5.5-.26-5.3-.8-5.2-1.31-5.1-1.82-4.9-2.32-4.7-2.78-4.3-3.22-4-3.63-3.7-4.01-3.2-4.34-2.8-4.64-2.3-4.89-1.8-5.1-1.3-5.24-.8-5.35-.3-5.41v-133.85l.3-5.41.8-5.35 1.3-5.24 1.8-5.1 2.3-4.89 2.8-4.64 3.2-4.34 3.7-4.01 4-3.63 4.3-3.22 4.7-2.78 4.9-2.32 5.1-1.82 5.2-1.31 5.3-.8 5.5-.26h110.2z"/></g><g stroke-width="0" stroke="none"><circle cx="44350" cy="12854" r="157.48"/><circle cx="44350" cy="10945" r="157.48"/><circle cx="46496" cy="14980" r="157.48"/><circle cx="43898" cy="11821" r="157.48"/><circle cx="46575" cy="15728" r="157.48"/><circle cx="46299" cy="17028" r="157.48"/><circle cx="47697" cy="15551" r="157.48"/><circle cx="41378" cy="9901.6" r="157.48"/><circle cx="41949" cy="12992" r="157.48"/><circle cx="41929" cy="12461" r="157.48"/><circle cx="41713" cy="11594" r="157.48"/><circle cx="45335" cy="9163.4" r="157.48"/><circle cx="45335" cy="11181" r="157.48"/></g><g fill-opacity="0" stroke-width="98.425" fill="none"><path d="M46863 15349h-18M44350 10944h-197M44015 11082h-649M44153 10944l-138 138M46496 14980v216M46628 15329h333M46496 15196l132 133M46862 15783h-252M43395 11820l-29 30M43897 11820h-502M46875 16652h507M47382 16652l610-609M47992 16043v-3484M47539 12106h-1457M47992 12559l-453-453M47086 11082h1083M48169 11082l787 788M48956 11870v4744M48050 17520h-1170M48956 16614l-906 906M36417 9909l244-244M36417 11456V9909M40929 9149l-300 299M41751 9149h-822M42342 9149l20-20M41751 9149h591M42362 9129h35M43366 10098v472M42397 9129l969 969M43559 10098l787-787M43366 10098h193M46082 10826h-689M45393 10826l-256-256M43366 12106h1161M44527 12106l118-118M44645 10570h-1279M45137 10570h-492M44625 11338l20 20M43366 11338h1259M44645 11358v-788M46082 11594h-1437M44645 11594v-236M44645 11988v-394M46875 17072h895M47770 17072l674-675M48444 12854v-984M48444 16397v-3543M48169 11594h-2087M48444 11870l-275-276M46949 17027l25 25M46299 17027h650M38602 9665l216-217M36417 12456h555M37401 9665h1201M37401 12027V9665M36972 12456l429-429M37039 9665h362M44724 8976v335M44488 8740l236 236M38051 8740h6437M37401 9389l650-649M37401 9665v-276M44724 9311v255M45728 10570h354M44724 9566l1004 1004M41771 9507l-20 20M42362 9507h-591M39724 10000h1555M39724 11929v-1929M39724 10000v-552M46964 16209h74M47038 16209l658-658M41377 9901l374-374M41279 10000l98-99M41948 12992l-610-611M41338 12381v-1279M41614 10826h752M41338 11102l276-276M42342 12460l20 20M41929 12460h413M41712 11594h662M36417 13456h-520M35897 13456l-287-287M36043 8562h8720M35610 8996l433-434M35610 13169V8996M45334 9133v30M44763 8562l571 571M45492 11338l-158-157M46082 11338h-590M42618 10826h748M43366 11594h-741M42614 12480h2149M44763 12480l679-679M46033 11801l49 49M45442 11801h591M46834 11082h-752"/></g><g stroke-width="0" stroke="none"><circle cx="44350" cy="12854" r="68.898"/><circle cx="44350" cy="10945" r="68.898"/><circle cx="46496" cy="14980" r="68.898"/><circle cx="43898" cy="11821" r="68.898"/><circle cx="46575" cy="15728" r="68.898"/><circle cx="46299" cy="17028" r="68.898"/><circle cx="47697" cy="15551" r="68.898"/><circle cx="41378" cy="9901.6" r="68.898"/><circle cx="41949" cy="12992" r="68.898"/><circle cx="41929" cy="12461" r="68.898"/><circle cx="41713" cy="11594" r="68.898"/><circle cx="45335" cy="9163.4" r="68.898"/><circle cx="45335" cy="11181" r="68.898"/><circle cx="36417" cy="16457" r="68.898"/><circle cx="36417" cy="15457" r="68.898"/><circle cx="36417" cy="14457" r="68.898"/><circle cx="36417" cy="13457" r="68.898"/><circle cx="36417" cy="12457" r="68.898"/><circle cx="36417" cy="11457" r="68.898"/></g></g><defs><mask id="c"><g fill-opacity="1" stroke="#fff" stroke-linecap="round" stroke-linejoin="round" stroke-width="0" fill="#fff"><path d="M46872 18460v-275.6h196.8v275.6zM46868 15019v-275.5h196.9v275.5zM46863 15467v-275.6h196.8v275.6zM46862 15902v-275.6h196.9v275.6zM46866 16347v-275.6h196.9v275.6zM46876 16771v-275.6h196.9v275.6zM46876 17190v-275.6h196.9v275.6zM46880 17639v-275.6h196.8v275.6zM46872 18054v-275.6h196.8v275.6zM45846 10650v-157.5h472.4v157.5zM45846 10906v-157.5h472.4v157.5zM45846 11161v-157.5h472.4v157.5zM45846 11417v-157.5h472.4v157.5zM45846 11673v-157.5h472.4v157.5zM45846 11929v-157.4h472.4v157.4zM45846 12185v-157.4h472.4v157.4zM43130 12185v-157.4h472.5v157.4zM43130 11929v-157.4h472.5v157.4zM43130 11673v-157.5h472.5v157.5zM43130 11417v-157.5h472.5v157.5zM43130 11161v-157.5h472.5v157.5zM43130 10906v-157.5h472.5v157.5zM43130 10650v-157.5h472.5v157.5zM40335 9055.1h590.6v787.4H40335zM38524 9055.1h590.6v787.4H38524zM39429 9055.1h590.6v787.4H39429zM38976 11535h1496v787.4h-1496zM46890 11004l3.8.6 3.8.9 3.6 1.3 3.5 1.7 3.3 2 3.1 2.3 2.9 2.6 2.6 2.8 2.3 3.1 1.9 3.3 1.7 3.5 1.3 3.7.9 3.7.6 3.8.2 3.9v78.7l-.2 3.9-.6 3.8-.9 3.8-1.3 3.6-1.7 3.5-1.9 3.3-2.3 3.1-2.6 2.9-2.9 2.6-3.1 2.3-3.3 2-3.5 1.6-3.6 1.3-3.8 1-3.8.5-3.9.2h-102.3l-3.9-.2-3.8-.5-3.8-1-3.6-1.3-3.5-1.6-3.3-2-3.1-2.3-2.9-2.6-2.6-2.9-2.3-3.1-2-3.3-1.6-3.5-1.3-3.6-.9-3.8-.6-3.8-.2-3.9v-78.7l.2-3.9.6-3.8.9-3.7 1.3-3.7 1.6-3.5 2-3.3 2.3-3.1 2.6-2.8 2.9-2.6 3.1-2.3 3.3-2 3.5-1.7 3.6-1.3 3.8-.9 3.8-.6 3.9-.2h102.3zM47142 11004l3.8.6 3.7.9 3.7 1.3 3.5 1.7 3.3 2 3.1 2.3 2.8 2.6 2.6 2.8 2.3 3.1 2 3.3 1.7 3.5 1.3 3.7.9 3.7.6 3.8.2 3.9v78.7l-.2 3.9-.6 3.8-.9 3.8-1.3 3.6-1.7 3.5-2 3.3-2.3 3.1-2.6 2.9-2.8 2.6-3.1 2.3-3.3 2-3.5 1.6-3.7 1.3-3.7 1-3.8.5-3.9.2h-102.4l-3.8-.2-3.8-.5-3.8-1-3.6-1.3-3.5-1.6-3.3-2-3.1-2.3-2.9-2.6-2.6-2.9-2.3-3.1-2-3.3-1.6-3.5-1.3-3.6-1-3.8-.5-3.8-.2-3.9v-78.7l.2-3.9.5-3.8 1-3.7 1.3-3.7 1.6-3.5 2-3.3 2.3-3.1 2.6-2.8 2.9-2.6 3.1-2.3 3.3-2 3.5-1.7 3.6-1.3 3.8-.9 3.8-.6 3.8-.2h102.4zM42417 12402l3.9.5 3.7 1 3.7 1.3 3.4 1.6 3.4 2 3.1 2.3 2.8 2.6 2.6 2.9 2.3 3.1 2 3.3 1.7 3.5 1.3 3.6.9 3.8.6 3.8.2 3.8v78.8l-.2 3.8-.6 3.9-.9 3.7-1.3 3.7-1.7 3.4-2 3.4-2.3 3.1-2.6 2.8-2.8 2.6-3.1 2.3-3.4 2-3.4 1.7-3.7 1.3-3.7.9-3.9.6-3.8.2h-102.4l-3.8-.2-3.9-.6-3.7-.9-3.6-1.3-3.5-1.7-3.3-2-3.2-2.3-2.8-2.6-2.6-2.8-2.3-3.1-2-3.4-1.6-3.4-1.4-3.7-.9-3.7-.6-3.9-.1-3.8v-78.8l.1-3.8.6-3.8.9-3.8 1.4-3.6 1.6-3.5 2-3.3 2.3-3.1 2.6-2.9 2.8-2.6 3.2-2.3 3.3-2 3.5-1.6 3.6-1.3 3.7-1 3.9-.5 3.8-.2h102.4zM42669 12402l3.8.5 3.8 1 3.6 1.3 3.5 1.6 3.3 2 3.1 2.3 2.9 2.6 2.6 2.9 2.3 3.1 2 3.3 1.6 3.5 1.3 3.6 1 3.8.5 3.8.2 3.8v78.8l-.2 3.8-.5 3.9-1 3.7-1.3 3.7-1.6 3.4-2 3.4-2.3 3.1-2.6 2.8-2.9 2.6-3.1 2.3-3.3 2-3.5 1.7-3.6 1.3-3.8.9-3.8.6-3.8.2h-102.4l-3.9-.2-3.8-.6-3.7-.9-3.7-1.3-3.5-1.7-3.3-2-3.1-2.3-2.8-2.6-2.6-2.8-2.3-3.1-2-3.4-1.7-3.4-1.3-3.7-.9-3.7-.6-3.9-.2-3.8v-78.8l.2-3.8.6-3.8.9-3.8 1.3-3.6 1.7-3.5 2-3.3 2.3-3.1 2.6-2.9 2.8-2.6 3.1-2.3 3.3-2 3.5-1.6 3.7-1.3 3.7-1 3.8-.5 3.9-.2h102.4zM42429 11516l3.8.6 3.7.9 3.7 1.3 3.5 1.7 3.3 2 3.1 2.3 2.8 2.6 2.6 2.8 2.3 3.1 2 3.4 1.7 3.5 1.3 3.6.9 3.7.6 3.9.2 3.8v78.8l-.2 3.8-.6 3.8-.9 3.8-1.3 3.6-1.7 3.5-2 3.3-2.3 3.1-2.6 2.9-2.8 2.6-3.1 2.3-3.3 2-3.5 1.6-3.7 1.3-3.7 1-3.8.5-3.9.2h-102.4l-3.8-.2-3.8-.5-3.8-1-3.6-1.3-3.5-1.6-3.3-2-3.1-2.3-2.9-2.6-2.6-2.9-2.3-3.1-2-3.3-1.6-3.5-1.3-3.6-1-3.8-.5-3.8-.2-3.8v-78.8l.2-3.8.5-3.9 1-3.7 1.3-3.6 1.6-3.5 2-3.4 2.3-3.1 2.6-2.8 2.9-2.6 3.1-2.3 3.3-2 3.5-1.7 3.6-1.3 3.8-.9 3.8-.6 3.8-.2h102.4zM42681 11516l3.8.6 3.8.9 3.6 1.3 3.5 1.7 3.3 2 3.1 2.3 2.9 2.6 2.6 2.8 2.3 3.1 2 3.4 1.6 3.5 1.3 3.6 1 3.7.5 3.9.2 3.8v78.8l-.2 3.8-.5 3.8-1 3.8-1.3 3.6-1.6 3.5-2 3.3-2.3 3.1-2.6 2.9-2.9 2.6-3.1 2.3-3.3 2-3.5 1.6-3.6 1.3-3.8 1-3.8.5-3.8.2h-102.4l-3.9-.2-3.8-.5-3.7-1-3.7-1.3-3.5-1.6-3.3-2-3.1-2.3-2.8-2.6-2.6-2.9-2.3-3.1-2-3.3-1.7-3.5-1.3-3.6-.9-3.8-.6-3.8-.2-3.8v-78.8l.2-3.8.6-3.9.9-3.7 1.3-3.6 1.7-3.5 2-3.4 2.3-3.1 2.6-2.8 2.8-2.6 3.1-2.3 3.3-2 3.5-1.7 3.7-1.3 3.7-.9 3.8-.6 3.9-.2h102.4zM42421 10748l3.8.6 3.8.9 3.6 1.3 3.5 1.7 3.3 2 3.1 2.3 2.9 2.6 2.6 2.8 2.3 3.1 1.9 3.3 1.7 3.5 1.3 3.7.9 3.7.6 3.8.2 3.9v78.7l-.2 3.9-.6 3.8-.9 3.8-1.3 3.6-1.7 3.5-1.9 3.3-2.3 3.1-2.6 2.9-2.9 2.6-3.1 2.3-3.3 2-3.5 1.6-3.6 1.3-3.8 1-3.8.5-3.9.2h-102.3l-3.9-.2-3.8-.5-3.8-1-3.6-1.3-3.5-1.6-3.3-2-3.1-2.3-2.9-2.6-2.6-2.9-2.3-3.1-2-3.3-1.6-3.5-1.3-3.6-1-3.8-.5-3.8-.2-3.9v-78.7l.2-3.9.5-3.8 1-3.7 1.3-3.7 1.6-3.5 2-3.3 2.3-3.1 2.6-2.8 2.9-2.6 3.1-2.3 3.3-2 3.5-1.7 3.6-1.3 3.8-.9 3.8-.6 3.9-.2h102.3zM42673 10748l3.8.6 3.7.9 3.7 1.3 3.5 1.7 3.3 2 3.1 2.3 2.8 2.6 2.6 2.8 2.3 3.1 2 3.3 1.7 3.5 1.3 3.7.9 3.7.6 3.8.2 3.9v78.7l-.2 3.9-.6 3.8-.9 3.8-1.3 3.6-1.7 3.5-2 3.3-2.3 3.1-2.6 2.9-2.8 2.6-3.1 2.3-3.3 2-3.5 1.6-3.7 1.3-3.7 1-3.8.5-3.9.2h-102.4l-3.8-.2-3.9-.5-3.7-1-3.6-1.3-3.5-1.6-3.3-2-3.1-2.3-2.9-2.6-2.6-2.9-2.3-3.1-2-3.3-1.6-3.5-1.3-3.6-1-3.8-.6-3.8-.1-3.9v-78.7l.1-3.9.6-3.8 1-3.7 1.3-3.7 1.6-3.5 2-3.3 2.3-3.1 2.6-2.8 2.9-2.6 3.1-2.3 3.3-2 3.5-1.7 3.6-1.3 3.7-.9 3.9-.6 3.8-.2h102.4z" fill-rule="evenodd"/><circle cx="36417" cy="16457" r="334.65"/><circle cx="36417" cy="15457" r="334.65"/><circle cx="36417" cy="14457" r="334.65"/><circle cx="36417" cy="13457" r="334.65"/><circle cx="36417" cy="12457" r="334.65"/><path d="M36083 11791v-669.3h669.3v669.3zM44407 9189.2l5.3.8 5.3 1.31 5.1 1.82 4.9 2.31 4.6 2.79 4.3 3.22 4 3.63 3.7 4.01 3.2 4.34 2.8 4.64 2.3 4.89 1.8 5.09 1.3 5.25.8 5.35.3 5.4v133.86l-.3 5.41-.8 5.35-1.3 5.24-1.8 5.1-2.3 4.89-2.8 4.63-3.2 4.35-3.7 4.01-4 3.63-4.3 3.22-4.6 2.78-4.9 2.32-5.1 1.82-5.3 1.31-5.3.8-5.4.26h-110.3l-5.4-.26-5.3-.8-5.3-1.31-5.1-1.82-4.8-2.32-4.7-2.78-4.3-3.22-4-3.63-3.7-4.01-3.2-4.35-2.8-4.63-2.3-4.89-1.8-5.1-1.3-5.24-.8-5.35-.3-5.41v-133.86l.3-5.4.8-5.35 1.3-5.25 1.8-5.09 2.3-4.89 2.8-4.64 3.2-4.34 3.7-4.01 4-3.63 4.3-3.22 4.7-2.79 4.8-2.31 5.1-1.82 5.3-1.31 5.3-.8 5.4-.26h110.3zM44785 9189.2l5.4.8 5.2 1.31 5.1 1.82 4.9 2.31 4.6 2.79 4.4 3.22 4 3.63 3.6 4.01 3.3 4.34 2.7 4.64 2.3 4.89 1.9 5.09 1.3 5.25.8 5.35.2 5.4v133.86l-.2 5.41-.8 5.35-1.3 5.24-1.9 5.1-2.3 4.89-2.7 4.63-3.3 4.35-3.6 4.01-4 3.63-4.4 3.22-4.6 2.78-4.9 2.32-5.1 1.82-5.2 1.31-5.4.8-5.4.26h-110.2l-5.4-.26-5.4-.8-5.2-1.31-5.1-1.82-4.9-2.32-4.6-2.78-4.4-3.22-4-3.63-3.6-4.01-3.2-4.35-2.8-4.63-2.3-4.89-1.9-5.1-1.3-5.24-.8-5.35-.2-5.41v-133.86l.2-5.4.8-5.35 1.3-5.25 1.9-5.09 2.3-4.89 2.8-4.64 3.2-4.34 3.6-4.01 4-3.63 4.4-3.22 4.6-2.79 4.9-2.31 5.1-1.82 5.2-1.31 5.4-.8 5.4-.26h110.2zM41824 9039.6l5.4.79 5.2 1.31 5.1 1.83 4.9 2.31 4.6 2.78 4.4 3.22 4 3.63 3.6 4.01 3.2 4.35 2.8 4.64 2.3 4.89 1.8 5.09 1.4 5.25.8 5.35.2 5.4v110.23l-.2 5.41-.8 5.35-1.4 5.24-1.8 5.1-2.3 4.89-2.8 4.64-3.2 4.34-3.6 4.01-4 3.63-4.4 3.22-4.6 2.78-4.9 2.32-5.1 1.82-5.2 1.31-5.4.8-5.4.26h-133.9l-5.4-.26-5.3-.8-5.3-1.31-5.1-1.82-4.8-2.32-4.7-2.78-4.3-3.22-4-3.63-3.7-4.01-3.2-4.34-2.8-4.64-2.3-4.89-1.8-5.1-1.3-5.24-.8-5.35-.3-5.41v-110.23l.3-5.4.8-5.35 1.3-5.25 1.8-5.09 2.3-4.89 2.8-4.64 3.2-4.35 3.7-4.01 4-3.63 4.3-3.22 4.7-2.78 4.8-2.31 5.1-1.83 5.3-1.31 5.3-.79 5.4-.27h133.9zM41824 9417.6l5.4.79 5.2 1.32 5.1 1.82 4.9 2.31 4.6 2.78 4.4 3.22 4 3.64 3.6 4 3.2 4.35 2.8 4.64 2.3 4.89 1.8 5.09 1.4 5.25.8 5.35.2 5.4v110.24l-.2 5.4-.8 5.35-1.4 5.25-1.8 5.09-2.3 4.89-2.8 4.64-3.2 4.34-3.6 4.01-4 3.63-4.4 3.23-4.6 2.78-4.9 2.31-5.1 1.82-5.2 1.32-5.4.79-5.4.27h-133.9l-5.4-.27-5.3-.79-5.3-1.32-5.1-1.82-4.8-2.31-4.7-2.78-4.3-3.23-4-3.63-3.7-4.01-3.2-4.34-2.8-4.64-2.3-4.89-1.8-5.09-1.3-5.25-.8-5.35-.3-5.4v-110.24l.3-5.4.8-5.35 1.3-5.25 1.8-5.09 2.3-4.89 2.8-4.64 3.2-4.35 3.7-4 4-3.64 4.3-3.22 4.7-2.78 4.8-2.31 5.1-1.82 5.3-1.32 5.3-.79 5.4-.27h133.9zM42434 9020l5.4.79 5.2 1.32 5.1 1.82 4.9 2.31 4.7 2.78 4.3 3.23 4 3.63 3.6 4.01 3.3 4.34 2.7 4.64 2.4 4.89 1.8 5.09 1.3 5.25.8 5.35.3 5.4v110.24l-.3 5.4-.8 5.35-1.3 5.25-1.8 5.09-2.4 4.89-2.7 4.64-3.3 4.35-3.6 4-4 3.64-4.3 3.22-4.7 2.78-4.9 2.31-5.1 1.82-5.2 1.32-5.4.79-5.4.27h-133.8l-5.4-.27-5.4-.79-5.2-1.32-5.1-1.82-4.9-2.31-4.6-2.78-4.4-3.22-4-3.64-3.6-4-3.3-4.35-2.7-4.64-2.3-4.89-1.9-5.09-1.3-5.25-.8-5.35-.2-5.4v-110.24l.2-5.4.8-5.35 1.3-5.25 1.9-5.09 2.3-4.89 2.7-4.64 3.3-4.34 3.6-4.01 4-3.63 4.4-3.23 4.6-2.78 4.9-2.31 5.1-1.82 5.2-1.32 5.4-.79 5.4-.26h133.8zM42434 9397.9l5.4.8 5.2 1.31 5.1 1.82 4.9 2.32 4.7 2.78 4.3 3.22 4 3.63 3.6 4.01 3.3 4.34 2.7 4.64 2.4 4.89 1.8 5.1 1.3 5.24.8 5.35.3 5.41v110.23l-.3 5.4-.8 5.36-1.3 5.24-1.8 5.1-2.4 4.88-2.7 4.64-3.3 4.35-3.6 4.01-4 3.63-4.3 3.22-4.7 2.78-4.9 2.31-5.1 1.83-5.2 1.31-5.4.79-5.4.27h-133.8l-5.4-.27-5.4-.79-5.2-1.31-5.1-1.83-4.9-2.31-4.6-2.78-4.4-3.22-4-3.63-3.6-4.01-3.3-4.35-2.7-4.64-2.3-4.88-1.9-5.1-1.3-5.24-.8-5.36-.2-5.4v-110.23l.2-5.41.8-5.35 1.3-5.24 1.9-5.1 2.3-4.89 2.7-4.64 3.3-4.34 3.6-4.01 4-3.63 4.4-3.22 4.6-2.78 4.9-2.32 5.1-1.82 5.2-1.31 5.4-.8 5.4-.26h133.8zM36722 9543.6l5.4.8 5.2 1.31 5.1 1.82 4.9 2.32 4.7 2.78 4.3 3.22 4 3.63 3.6 4.01 3.3 4.34 2.7 4.64 2.4 4.89 1.8 5.1 1.3 5.24.8 5.35.3 5.41v133.85l-.3 5.41-.8 5.35-1.3 5.24-1.8 5.1-2.4 4.89-2.7 4.64-3.3 4.34-3.6 4.01-4 3.63-4.3 3.22-4.7 2.78-4.9 2.32-5.1 1.82-5.2 1.31-5.4.8-5.4.26h-110.2l-5.4-.26-5.4-.8-5.2-1.31-5.1-1.82-4.9-2.32-4.6-2.78-4.4-3.22-4-3.63-3.6-4.01-3.2-4.34-2.8-4.64-2.3-4.89-1.8-5.1-1.4-5.24-.8-5.35-.2-5.41v-133.85l.2-5.41.8-5.35 1.4-5.24 1.8-5.1 2.3-4.89 2.8-4.64 3.2-4.34 3.6-4.01 4-3.63 4.4-3.22 4.6-2.78 4.9-2.32 5.1-1.82 5.2-1.31 5.4-.8 5.4-.26h110.2zM37100 9543.6l5.3.8 5.3 1.31 5.1 1.82 4.9 2.32 4.6 2.78 4.4 3.22 4 3.63 3.6 4.01 3.2 4.34 2.8 4.64 2.3 4.89 1.8 5.1 1.3 5.24.8 5.35.3 5.41v133.85l-.3 5.41-.8 5.35-1.3 5.24-1.8 5.1-2.3 4.89-2.8 4.64-3.2 4.34-3.6 4.01-4 3.63-4.4 3.22-4.6 2.78-4.9 2.32-5.1 1.82-5.3 1.31-5.3.8-5.4.26h-110.2l-5.5-.26-5.3-.8-5.2-1.31-5.1-1.82-4.9-2.32-4.7-2.78-4.3-3.22-4-3.63-3.7-4.01-3.2-4.34-2.8-4.64-2.3-4.89-1.8-5.1-1.3-5.24-.8-5.35-.3-5.41v-133.85l.3-5.41.8-5.35 1.3-5.24 1.8-5.1 2.3-4.89 2.8-4.64 3.2-4.34 3.7-4.01 4-3.63 4.3-3.22 4.7-2.78 4.9-2.32 5.1-1.82 5.2-1.31 5.3-.8 5.5-.26h110.2z" fill-rule="evenodd"/></g></mask></defs><defs><mask id="d"><g fill-opacity="1" stroke="#000" stroke-linecap="round" stroke-linejoin="round" stroke-width="0"><path d="M46872 18460v-275.6h196.8v275.6zM46868 15019v-275.5h196.9v275.5zM46863 15467v-275.6h196.8v275.6zM46862 15902v-275.6h196.9v275.6zM46866 16347v-275.6h196.9v275.6zM46876 16771v-275.6h196.9v275.6zM46876 17190v-275.6h196.9v275.6zM46880 17639v-275.6h196.8v275.6zM46872 18054v-275.6h196.8v275.6zM45846 10650v-157.5h472.4v157.5zM45846 10906v-157.5h472.4v157.5zM45846 11161v-157.5h472.4v157.5zM45846 11417v-157.5h472.4v157.5zM45846 11673v-157.5h472.4v157.5zM45846 11929v-157.4h472.4v157.4zM45846 12185v-157.4h472.4v157.4zM43130 12185v-157.4h472.5v157.4zM43130 11929v-157.4h472.5v157.4zM43130 11673v-157.5h472.5v157.5zM43130 11417v-157.5h472.5v157.5zM43130 11161v-157.5h472.5v157.5zM43130 10906v-157.5h472.5v157.5zM43130 10650v-157.5h472.5v157.5zM40335 9055.1h590.6v787.4H40335zM38524 9055.1h590.6v787.4H38524zM39429 9055.1h590.6v787.4H39429zM38976 11535h1496v787.4h-1496zM46890 11004l3.8.6 3.8.9 3.6 1.3 3.5 1.7 3.3 2 3.1 2.3 2.9 2.6 2.6 2.8 2.3 3.1 1.9 3.3 1.7 3.5 1.3 3.7.9 3.7.6 3.8.2 3.9v78.7l-.2 3.9-.6 3.8-.9 3.8-1.3 3.6-1.7 3.5-1.9 3.3-2.3 3.1-2.6 2.9-2.9 2.6-3.1 2.3-3.3 2-3.5 1.6-3.6 1.3-3.8 1-3.8.5-3.9.2h-102.3l-3.9-.2-3.8-.5-3.8-1-3.6-1.3-3.5-1.6-3.3-2-3.1-2.3-2.9-2.6-2.6-2.9-2.3-3.1-2-3.3-1.6-3.5-1.3-3.6-.9-3.8-.6-3.8-.2-3.9v-78.7l.2-3.9.6-3.8.9-3.7 1.3-3.7 1.6-3.5 2-3.3 2.3-3.1 2.6-2.8 2.9-2.6 3.1-2.3 3.3-2 3.5-1.7 3.6-1.3 3.8-.9 3.8-.6 3.9-.2h102.3zM47142 11004l3.8.6 3.7.9 3.7 1.3 3.5 1.7 3.3 2 3.1 2.3 2.8 2.6 2.6 2.8 2.3 3.1 2 3.3 1.7 3.5 1.3 3.7.9 3.7.6 3.8.2 3.9v78.7l-.2 3.9-.6 3.8-.9 3.8-1.3 3.6-1.7 3.5-2 3.3-2.3 3.1-2.6 2.9-2.8 2.6-3.1 2.3-3.3 2-3.5 1.6-3.7 1.3-3.7 1-3.8.5-3.9.2h-102.4l-3.8-.2-3.8-.5-3.8-1-3.6-1.3-3.5-1.6-3.3-2-3.1-2.3-2.9-2.6-2.6-2.9-2.3-3.1-2-3.3-1.6-3.5-1.3-3.6-1-3.8-.5-3.8-.2-3.9v-78.7l.2-3.9.5-3.8 1-3.7 1.3-3.7 1.6-3.5 2-3.3 2.3-3.1 2.6-2.8 2.9-2.6 3.1-2.3 3.3-2 3.5-1.7 3.6-1.3 3.8-.9 3.8-.6 3.8-.2h102.4zM42417 12402l3.9.5 3.7 1 3.7 1.3 3.4 1.6 3.4 2 3.1 2.3 2.8 2.6 2.6 2.9 2.3 3.1 2 3.3 1.7 3.5 1.3 3.6.9 3.8.6 3.8.2 3.8v78.8l-.2 3.8-.6 3.9-.9 3.7-1.3 3.7-1.7 3.4-2 3.4-2.3 3.1-2.6 2.8-2.8 2.6-3.1 2.3-3.4 2-3.4 1.7-3.7 1.3-3.7.9-3.9.6-3.8.2h-102.4l-3.8-.2-3.9-.6-3.7-.9-3.6-1.3-3.5-1.7-3.3-2-3.2-2.3-2.8-2.6-2.6-2.8-2.3-3.1-2-3.4-1.6-3.4-1.4-3.7-.9-3.7-.6-3.9-.1-3.8v-78.8l.1-3.8.6-3.8.9-3.8 1.4-3.6 1.6-3.5 2-3.3 2.3-3.1 2.6-2.9 2.8-2.6 3.2-2.3 3.3-2 3.5-1.6 3.6-1.3 3.7-1 3.9-.5 3.8-.2h102.4zM42669 12402l3.8.5 3.8 1 3.6 1.3 3.5 1.6 3.3 2 3.1 2.3 2.9 2.6 2.6 2.9 2.3 3.1 2 3.3 1.6 3.5 1.3 3.6 1 3.8.5 3.8.2 3.8v78.8l-.2 3.8-.5 3.9-1 3.7-1.3 3.7-1.6 3.4-2 3.4-2.3 3.1-2.6 2.8-2.9 2.6-3.1 2.3-3.3 2-3.5 1.7-3.6 1.3-3.8.9-3.8.6-3.8.2h-102.4l-3.9-.2-3.8-.6-3.7-.9-3.7-1.3-3.5-1.7-3.3-2-3.1-2.3-2.8-2.6-2.6-2.8-2.3-3.1-2-3.4-1.7-3.4-1.3-3.7-.9-3.7-.6-3.9-.2-3.8v-78.8l.2-3.8.6-3.8.9-3.8 1.3-3.6 1.7-3.5 2-3.3 2.3-3.1 2.6-2.9 2.8-2.6 3.1-2.3 3.3-2 3.5-1.6 3.7-1.3 3.7-1 3.8-.5 3.9-.2h102.4zM42429 11516l3.8.6 3.7.9 3.7 1.3 3.5 1.7 3.3 2 3.1 2.3 2.8 2.6 2.6 2.8 2.3 3.1 2 3.4 1.7 3.5 1.3 3.6.9 3.7.6 3.9.2 3.8v78.8l-.2 3.8-.6 3.8-.9 3.8-1.3 3.6-1.7 3.5-2 3.3-2.3 3.1-2.6 2.9-2.8 2.6-3.1 2.3-3.3 2-3.5 1.6-3.7 1.3-3.7 1-3.8.5-3.9.2h-102.4l-3.8-.2-3.8-.5-3.8-1-3.6-1.3-3.5-1.6-3.3-2-3.1-2.3-2.9-2.6-2.6-2.9-2.3-3.1-2-3.3-1.6-3.5-1.3-3.6-1-3.8-.5-3.8-.2-3.8v-78.8l.2-3.8.5-3.9 1-3.7 1.3-3.6 1.6-3.5 2-3.4 2.3-3.1 2.6-2.8 2.9-2.6 3.1-2.3 3.3-2 3.5-1.7 3.6-1.3 3.8-.9 3.8-.6 3.8-.2h102.4zM42681 11516l3.8.6 3.8.9 3.6 1.3 3.5 1.7 3.3 2 3.1 2.3 2.9 2.6 2.6 2.8 2.3 3.1 2 3.4 1.6 3.5 1.3 3.6 1 3.7.5 3.9.2 3.8v78.8l-.2 3.8-.5 3.8-1 3.8-1.3 3.6-1.6 3.5-2 3.3-2.3 3.1-2.6 2.9-2.9 2.6-3.1 2.3-3.3 2-3.5 1.6-3.6 1.3-3.8 1-3.8.5-3.8.2h-102.4l-3.9-.2-3.8-.5-3.7-1-3.7-1.3-3.5-1.6-3.3-2-3.1-2.3-2.8-2.6-2.6-2.9-2.3-3.1-2-3.3-1.7-3.5-1.3-3.6-.9-3.8-.6-3.8-.2-3.8v-78.8l.2-3.8.6-3.9.9-3.7 1.3-3.6 1.7-3.5 2-3.4 2.3-3.1 2.6-2.8 2.8-2.6 3.1-2.3 3.3-2 3.5-1.7 3.7-1.3 3.7-.9 3.8-.6 3.9-.2h102.4zM42421 10748l3.8.6 3.8.9 3.6 1.3 3.5 1.7 3.3 2 3.1 2.3 2.9 2.6 2.6 2.8 2.3 3.1 1.9 3.3 1.7 3.5 1.3 3.7.9 3.7.6 3.8.2 3.9v78.7l-.2 3.9-.6 3.8-.9 3.8-1.3 3.6-1.7 3.5-1.9 3.3-2.3 3.1-2.6 2.9-2.9 2.6-3.1 2.3-3.3 2-3.5 1.6-3.6 1.3-3.8 1-3.8.5-3.9.2h-102.3l-3.9-.2-3.8-.5-3.8-1-3.6-1.3-3.5-1.6-3.3-2-3.1-2.3-2.9-2.6-2.6-2.9-2.3-3.1-2-3.3-1.6-3.5-1.3-3.6-1-3.8-.5-3.8-.2-3.9v-78.7l.2-3.9.5-3.8 1-3.7 1.3-3.7 1.6-3.5 2-3.3 2.3-3.1 2.6-2.8 2.9-2.6 3.1-2.3 3.3-2 3.5-1.7 3.6-1.3 3.8-.9 3.8-.6 3.9-.2h102.3zM42673 10748l3.8.6 3.7.9 3.7 1.3 3.5 1.7 3.3 2 3.1 2.3 2.8 2.6 2.6 2.8 2.3 3.1 2 3.3 1.7 3.5 1.3 3.7.9 3.7.6 3.8.2 3.9v78.7l-.2 3.9-.6 3.8-.9 3.8-1.3 3.6-1.7 3.5-2 3.3-2.3 3.1-2.6 2.9-2.8 2.6-3.1 2.3-3.3 2-3.5 1.6-3.7 1.3-3.7 1-3.8.5-3.9.2h-102.4l-3.8-.2-3.9-.5-3.7-1-3.6-1.3-3.5-1.6-3.3-2-3.1-2.3-2.9-2.6-2.6-2.9-2.3-3.1-2-3.3-1.6-3.5-1.3-3.6-1-3.8-.6-3.8-.1-3.9v-78.7l.1-3.9.6-3.8 1-3.7 1.3-3.7 1.6-3.5 2-3.3 2.3-3.1 2.6-2.8 2.9-2.6 3.1-2.3 3.3-2 3.5-1.7 3.6-1.3 3.7-.9 3.9-.6 3.8-.2h102.4z" fill-rule="evenodd"/><circle cx="36417" cy="16457" r="334.65"/><circle cx="36417" cy="15457" r="334.65"/><circle cx="36417" cy="14457" r="334.65"/><circle cx="36417" cy="13457" r="334.65"/><circle cx="36417" cy="12457" r="334.65"/><path d="M36083 11791v-669.3h669.3v669.3zM44407 9189.2l5.3.8 5.3 1.31 5.1 1.82 4.9 2.31 4.6 2.79 4.3 3.22 4 3.63 3.7 4.01 3.2 4.34 2.8 4.64 2.3 4.89 1.8 5.09 1.3 5.25.8 5.35.3 5.4v133.86l-.3 5.41-.8 5.35-1.3 5.24-1.8 5.1-2.3 4.89-2.8 4.63-3.2 4.35-3.7 4.01-4 3.63-4.3 3.22-4.6 2.78-4.9 2.32-5.1 1.82-5.3 1.31-5.3.8-5.4.26h-110.3l-5.4-.26-5.3-.8-5.3-1.31-5.1-1.82-4.8-2.32-4.7-2.78-4.3-3.22-4-3.63-3.7-4.01-3.2-4.35-2.8-4.63-2.3-4.89-1.8-5.1-1.3-5.24-.8-5.35-.3-5.41v-133.86l.3-5.4.8-5.35 1.3-5.25 1.8-5.09 2.3-4.89 2.8-4.64 3.2-4.34 3.7-4.01 4-3.63 4.3-3.22 4.7-2.79 4.8-2.31 5.1-1.82 5.3-1.31 5.3-.8 5.4-.26h110.3zM44785 9189.2l5.4.8 5.2 1.31 5.1 1.82 4.9 2.31 4.6 2.79 4.4 3.22 4 3.63 3.6 4.01 3.3 4.34 2.7 4.64 2.3 4.89 1.9 5.09 1.3 5.25.8 5.35.2 5.4v133.86l-.2 5.41-.8 5.35-1.3 5.24-1.9 5.1-2.3 4.89-2.7 4.63-3.3 4.35-3.6 4.01-4 3.63-4.4 3.22-4.6 2.78-4.9 2.32-5.1 1.82-5.2 1.31-5.4.8-5.4.26h-110.2l-5.4-.26-5.4-.8-5.2-1.31-5.1-1.82-4.9-2.32-4.6-2.78-4.4-3.22-4-3.63-3.6-4.01-3.2-4.35-2.8-4.63-2.3-4.89-1.9-5.1-1.3-5.24-.8-5.35-.2-5.41v-133.86l.2-5.4.8-5.35 1.3-5.25 1.9-5.09 2.3-4.89 2.8-4.64 3.2-4.34 3.6-4.01 4-3.63 4.4-3.22 4.6-2.79 4.9-2.31 5.1-1.82 5.2-1.31 5.4-.8 5.4-.26h110.2zM41824 9039.6l5.4.79 5.2 1.31 5.1 1.83 4.9 2.31 4.6 2.78 4.4 3.22 4 3.63 3.6 4.01 3.2 4.35 2.8 4.64 2.3 4.89 1.8 5.09 1.4 5.25.8 5.35.2 5.4v110.23l-.2 5.41-.8 5.35-1.4 5.24-1.8 5.1-2.3 4.89-2.8 4.64-3.2 4.34-3.6 4.01-4 3.63-4.4 3.22-4.6 2.78-4.9 2.32-5.1 1.82-5.2 1.31-5.4.8-5.4.26h-133.9l-5.4-.26-5.3-.8-5.3-1.31-5.1-1.82-4.8-2.32-4.7-2.78-4.3-3.22-4-3.63-3.7-4.01-3.2-4.34-2.8-4.64-2.3-4.89-1.8-5.1-1.3-5.24-.8-5.35-.3-5.41v-110.23l.3-5.4.8-5.35 1.3-5.25 1.8-5.09 2.3-4.89 2.8-4.64 3.2-4.35 3.7-4.01 4-3.63 4.3-3.22 4.7-2.78 4.8-2.31 5.1-1.83 5.3-1.31 5.3-.79 5.4-.27h133.9zM41824 9417.6l5.4.79 5.2 1.32 5.1 1.82 4.9 2.31 4.6 2.78 4.4 3.22 4 3.64 3.6 4 3.2 4.35 2.8 4.64 2.3 4.89 1.8 5.09 1.4 5.25.8 5.35.2 5.4v110.24l-.2 5.4-.8 5.35-1.4 5.25-1.8 5.09-2.3 4.89-2.8 4.64-3.2 4.34-3.6 4.01-4 3.63-4.4 3.23-4.6 2.78-4.9 2.31-5.1 1.82-5.2 1.32-5.4.79-5.4.27h-133.9l-5.4-.27-5.3-.79-5.3-1.32-5.1-1.82-4.8-2.31-4.7-2.78-4.3-3.23-4-3.63-3.7-4.01-3.2-4.34-2.8-4.64-2.3-4.89-1.8-5.09-1.3-5.25-.8-5.35-.3-5.4v-110.24l.3-5.4.8-5.35 1.3-5.25 1.8-5.09 2.3-4.89 2.8-4.64 3.2-4.35 3.7-4 4-3.64 4.3-3.22 4.7-2.78 4.8-2.31 5.1-1.82 5.3-1.32 5.3-.79 5.4-.27h133.9zM42434 9020l5.4.79 5.2 1.32 5.1 1.82 4.9 2.31 4.7 2.78 4.3 3.23 4 3.63 3.6 4.01 3.3 4.34 2.7 4.64 2.4 4.89 1.8 5.09 1.3 5.25.8 5.35.3 5.4v110.24l-.3 5.4-.8 5.35-1.3 5.25-1.8 5.09-2.4 4.89-2.7 4.64-3.3 4.35-3.6 4-4 3.64-4.3 3.22-4.7 2.78-4.9 2.31-5.1 1.82-5.2 1.32-5.4.79-5.4.27h-133.8l-5.4-.27-5.4-.79-5.2-1.32-5.1-1.82-4.9-2.31-4.6-2.78-4.4-3.22-4-3.64-3.6-4-3.3-4.35-2.7-4.64-2.3-4.89-1.9-5.09-1.3-5.25-.8-5.35-.2-5.4v-110.24l.2-5.4.8-5.35 1.3-5.25 1.9-5.09 2.3-4.89 2.7-4.64 3.3-4.34 3.6-4.01 4-3.63 4.4-3.23 4.6-2.78 4.9-2.31 5.1-1.82 5.2-1.32 5.4-.79 5.4-.26h133.8zM42434 9397.9l5.4.8 5.2 1.31 5.1 1.82 4.9 2.32 4.7 2.78 4.3 3.22 4 3.63 3.6 4.01 3.3 4.34 2.7 4.64 2.4 4.89 1.8 5.1 1.3 5.24.8 5.35.3 5.41v110.23l-.3 5.4-.8 5.36-1.3 5.24-1.8 5.1-2.4 4.88-2.7 4.64-3.3 4.35-3.6 4.01-4 3.63-4.3 3.22-4.7 2.78-4.9 2.31-5.1 1.83-5.2 1.31-5.4.79-5.4.27h-133.8l-5.4-.27-5.4-.79-5.2-1.31-5.1-1.83-4.9-2.31-4.6-2.78-4.4-3.22-4-3.63-3.6-4.01-3.3-4.35-2.7-4.64-2.3-4.88-1.9-5.1-1.3-5.24-.8-5.36-.2-5.4v-110.23l.2-5.41.8-5.35 1.3-5.24 1.9-5.1 2.3-4.89 2.7-4.64 3.3-4.34 3.6-4.01 4-3.63 4.4-3.22 4.6-2.78 4.9-2.32 5.1-1.82 5.2-1.31 5.4-.8 5.4-.26h133.8zM36722 9543.6l5.4.8 5.2 1.31 5.1 1.82 4.9 2.32 4.7 2.78 4.3 3.22 4 3.63 3.6 4.01 3.3 4.34 2.7 4.64 2.4 4.89 1.8 5.1 1.3 5.24.8 5.35.3 5.41v133.85l-.3 5.41-.8 5.35-1.3 5.24-1.8 5.1-2.4 4.89-2.7 4.64-3.3 4.34-3.6 4.01-4 3.63-4.3 3.22-4.7 2.78-4.9 2.32-5.1 1.82-5.2 1.31-5.4.8-5.4.26h-110.2l-5.4-.26-5.4-.8-5.2-1.31-5.1-1.82-4.9-2.32-4.6-2.78-4.4-3.22-4-3.63-3.6-4.01-3.2-4.34-2.8-4.64-2.3-4.89-1.8-5.1-1.4-5.24-.8-5.35-.2-5.41v-133.85l.2-5.41.8-5.35 1.4-5.24 1.8-5.1 2.3-4.89 2.8-4.64 3.2-4.34 3.6-4.01 4-3.63 4.4-3.22 4.6-2.78 4.9-2.32 5.1-1.82 5.2-1.31 5.4-.8 5.4-.26h110.2zM37100 9543.6l5.3.8 5.3 1.31 5.1 1.82 4.9 2.32 4.6 2.78 4.4 3.22 4 3.63 3.6 4.01 3.2 4.34 2.8 4.64 2.3 4.89 1.8 5.1 1.3 5.24.8 5.35.3 5.41v133.85l-.3 5.41-.8 5.35-1.3 5.24-1.8 5.1-2.3 4.89-2.8 4.64-3.2 4.34-3.6 4.01-4 3.63-4.4 3.22-4.6 2.78-4.9 2.32-5.1 1.82-5.3 1.31-5.3.8-5.4.26h-110.2l-5.5-.26-5.3-.8-5.2-1.31-5.1-1.82-4.9-2.32-4.7-2.78-4.3-3.22-4-3.63-3.7-4.01-3.2-4.34-2.8-4.64-2.3-4.89-1.8-5.1-1.3-5.24-.8-5.35-.3-5.41v-133.85l.3-5.41.8-5.35 1.3-5.24 1.8-5.1 2.3-4.89 2.8-4.64 3.2-4.34 3.7-4.01 4-3.63 4.3-3.22 4.7-2.78 4.9-2.32 5.1-1.82 5.2-1.31 5.3-.8 5.5-.26h110.2z" fill-rule="evenodd"/></g><path fill="#fff" d="M35364 2221h18425v18812H35364z"/></mask></defs><g fill="#f0f0f0" fill-opacity="0" mask="url(#d)" stroke="#f0f0f0" stroke-linecap="round" stroke-linejoin="round"><g stroke-width="147.64"><path d="M37914 20567v-365l225 196v-84l28-56 29-28 56-28h140l57 28 28 28 28 56v169l-28 56-28 28M38280 19949v-450M38505 19217h-591l422-196-422-197h591M38505 18542h-591M38477 18289l28-84v-141l-28-56-28-28-57-28h-56l-56 28-28 28-28 56-28 113-29 56-28 28-56 28h-56l-56-28-29-28-28-56v-141l28-84M37914 17586v-112l28-56 57-57 112-28h197l112 28 57 57 28 56v112l-28 57-57 56-112 28h-197l-112-28-57-56-28-57M40178 20258h394M39953 20398l422 141v-365M40347 19949v-450M40572 19217h-591l422-196-422-197h591M39981 18430v-113l28-56 57-56 112-28h197l112 28 57 56 28 56v113l-28 56-57 56-112 29h-197l-112-29-57-56-28-56M40544 17952l28-84v-141l-28-56-28-28-57-29h-56l-56 29-28 28-28 56-29 112-28 57-28 28-56 28h-56l-57-28-28-28-28-57v-140l28-85M40572 17361h-591M42048 20230v281l281 28-28-28-28-56v-141l28-56 28-28 57-28h140l56 28 29 28 28 56v141l-28 56-29 28M42414 19949v-450M42611 19245l28-84v-140l-28-57-29-28-56-28h-56l-56 28-28 28-29 57-28 112-28 56-28 28-56 28h-56l-57-28-28-28-28-56v-141l28-84M42582 18317l29 29 28 84v56l-28 85-57 56-56 28-112 28h-85l-112-28-56-28-57-56-28-85v-56l28-84 28-29M42639 18064h-591M42639 17727l-338 253M42048 17727l338 337M44115 20258v112l28 57 28 28 85 56 112 28h225l56-28 29-28 28-56v-113l-28-56-29-28-56-28h-140l-57 28-28 28-28 56v113l28 56 28 28 57 28M44481 19949v-450M44649 18880l29 28 28 84v57l-28 84-57 56-56 28-112 28h-85l-112-28-57-28-56-56-28-84v-57l28-84 28-28M44678 18655l28-84v-141l-28-56-29-28-56-29h-56l-56 29-28 28-29 56-28 112-28 57-28 28-56 28h-56l-57-28-28-28-28-57v-140l28-85" fill="none"/></g><g stroke-width="62.992" fill="none"><path d="M47072 18579h5731M52803 18579v-5714M52803 12865h-5731M47072 12865v5714"/></g><g stroke-width="59.055" fill="none"><path d="M43631 10364h-502M43631 12627h2185M43631 10049h2185M43631 12627v-354M45816 12627v-354M45816 10049v354M43631 10049v315"/></g><g stroke-width="47.244" fill="none"><path d="M41066 9074v2366M38381 9960v1480M41066 11440h-496M38381 11440h496M36417 10933h523M36940 10933v523M36940 11956v5024M35893 16980h1047M35893 11956v5024M35893 11956h1047M44577 9169h-85M44577 9452h-85M41893 9381v-85M41610 9381v-85M42503 9361v-85M42220 9361v-85M36892 9523h-85M36892 9807h-85"/></g></g><g fill-opacity="0" stroke-linecap="round" stroke-linejoin="round" stroke-width="19.685" fill="none" stroke="#000"><path d="M53779 6870H35374M53779 21023V6870M35374 21023h18405M35374 6870v14153"/></g><defs><mask id="b"><path fill="#fff" d="M35364 2221h18425v18812H35364z"/><path stroke="#000" stroke-linecap="round" stroke-width="393" d="M36417 16456h0M36417 15456h0M36417 14456h0M36417 13456h0M36417 12456h0M36417 11456h0"/></mask></defs></g><g stroke="#000" stroke-width=".093"><path d="M11764.902 7793.873l367.102-1.85v3856.173h-426.141V7793.873h59.055z" fill="#999" fill-rule="evenodd" stroke-width="36.6141"/><path d="M14650.33 6771.827c-.008-20.771 16.062-37.976 36.712-39.303l-.906-.04c-22.326-.984-40.968 16.91-40.96 39.346v-.001c-.007-21.748 17.551-39.382 39.217-39.386l.011.014c.59-.005 1.142.004 1.732.025l1678.304 74.968 5.146-2.008v-559.054h-2014.012l-8.815.512-8.705 1.496-8.484 2.441-8.157 3.386-7.729 4.272-7.2 5.11-6.583 5.882-5.886 6.582-5.11 7.201-4.272 7.729-3.386 8.157-2.44 8.484-1.497 8.705-.511 8.815.035-.032v480.314l136.122 122.047h232.192v-155.688h5.147v155.688h-5.146zM15705.839 6195.45h-1590.272v-251.967h2401.57v251.491l-152.555.473v.003h-658.739v-15.748z" fill="#ccc" fill-rule="evenodd" stroke-width="36.6141"/><path d="M17835.362 11656.07h-676.573V7323.007l255.905 2.245v.019h268.917v-.011l151.744-1.89v4332.669z" fill="#1a1a1a" fill-rule="evenodd" stroke-width="36.6141"/><path d="M16364.5 6246.632v561.062l-178.154-2.008-157.48 157.48h-1586.611l-129.921-157.48h-196.85v-862.203h0-1838.579v-.051 547.282h-39.37v-370.078c0-43.48-35.248-78.732-78.728-78.74l-.012-.001h-236.22l.012.001c-43.492-.006-78.752 35.248-78.752 78.74v370.078h-78.74v3527.552h275.59v669.29h-275.59v1043.305h5393.69v-39.382.012-3192.435h0l94.973-538.62h0l137.188-376.925.014-.004a393.739 393.739 0 0 0 23.729-134.649v-1505.43.05h-897.636v-.05 236.271h-71.528l.433 15.748h-.043v51.181h-76.378z" fill="#ccc" fill-rule="evenodd" stroke-width="36.6141"/><path d="M16397.176 6806.08l-1.732-.079-.866-.039-7.795-.35-.867-.04-.866-.038M16397.176 6809.229l.158.007.158.007.475.021.158.007.158.007.475.021.158.007.158.007.317.014M16397.176 6809.229l11.055.472M16397.176 6808.835l-32.598-1.456M16397.176 6805.686h-27.559M16364.5 6805.686h5.146M16445.995 6927.733h-62.57M16064.106 6927.733h319.047M14115.291 6996.236V5982.853M16397.176 6179.703h-32.598M13103.482 5943.483h-39.37M12670.412 5943.483h-39.37M16725.522 5923.798v19.685zM16331.822 5923.798v19.685M16725.522 5923.798h-393.7M13064.112 5923.798v19.685M13064.112 5923.798h-393.7M12670.412 5923.798v19.685M12768.837 8711.194h-236.22" fill="none" stroke-width="36.6141"/><path d="M12650.727 8451.352v259.842h118.11c173.232.008 173.244-259.842.012-259.85z" fill="#1a1a1a" fill-rule="evenodd" stroke-width="36.6141"/><path d="M12532.617 8451.352a129.921 129.921 0 0 0 .012 259.834" fill="none" stroke-width="36.6141"/><path d="M16548.357 11348.984c-172.023-1.181-172.035-258.63-.012-259.834h236.22l.012-.007c173.232.008 173.22 259.858-.012 259.85h-236.22zM16548.357 7845.054c-172.023-1.181-172.035-258.63-.012-259.834h236.22l.012-.007c173.232.008 173.22 259.858-.012 259.85h-236.22z" fill="#1a1a1a" fill-rule="evenodd" stroke-width="36.6141"/><path d="M12532.617 8451.352h236.22" fill="none" stroke-width="36.6141"/><path d="M13182.222 10317.49v118.11c.004 32.618 26.449 59.055 59.067 59.047l-.012.006h669.29c32.622.007 59.07-26.437 59.067-59.063l-.012.007v-118.11c.004-32.615-26.43-59.055-59.043-59.063l-.012.006h-669.29c-32.606.007-59.04 26.44-59.043 59.047zM16272.767 11297.803v-1377.95c.004-43.484-35.244-78.74-78.728-78.748l-.012.006h-551.18c-43.48.007-78.724 35.256-78.728 78.732l-.012.007v1377.95c.004 43.488 35.264 78.74 78.752 78.732l-.012.006h551.18c43.496.007 78.756-35.252 78.752-78.748zM13969.622 8703.32v-118.11c.004-32.614-26.43-59.055-59.043-59.063l-.012.006h-669.29c-32.606.007-59.04 26.441-59.043 59.047l-.012.007v118.11c.004 32.618 26.449 59.055 59.067 59.047l-.012.006h669.29c32.622.007 59.07-26.437 59.067-59.063z" fill="#1a1a1a" fill-rule="evenodd" stroke-width="36.6141"/><path d="M15505.052 5919.86v23.614z" fill="#ccc" fill-rule="evenodd" stroke-width="36.6141"/><path d="M17414.497 7262.378v62.992zM11764.902 11730.873v-39.382M12965.687 11730.873v19.685M12453.877 11730.873v19.685M12965.687 11750.558h-511.81M12453.877 11730.873h-39.382M13005.057 11730.873h-39.382" fill="none" stroke-width="36.6141"/><path d="M16272.767 9526.153c.004 43.496-35.256 78.752-78.752 78.748h-551.18l.012-.007c-43.488.007-78.748-35.244-78.752-78.732v-1377.95l.012-.006c.004-43.48 35.248-78.728 78.728-78.732h551.18l.012-.007c43.484.007 78.732 35.264 78.728 78.748v1377.95zM13182.222 10750.56v118.11c.004 32.618 26.449 59.055 59.067 59.047l-.012.006h669.29c32.622.007 59.07-26.437 59.067-59.063l-.012.007v-118.11c.004-32.615-26.43-59.055-59.043-59.063l-.012.006h-669.29c-32.606.007-59.04 26.44-59.043 59.047zM12650.727 10695.442v259.842h118.11c173.232.008 173.244-259.842.012-259.85z" fill="#1a1a1a" fill-rule="evenodd" stroke-width="36.6141"/><path d="M11981.437 10545.836v-385.826M11705.847 10160.01h275.59M11981.437 10545.836h-275.59M11981.437 10628.513v-82.677M11705.847 10628.513h275.59M11981.437 10160.01v-82.677M11981.437 10077.333h-275.59M12768.837 10955.284h-236.22M12532.617 10695.442h236.22M12532.617 10695.442a129.921 129.921 0 0 0 .012 259.834M16445.995 6848.993a39.52 39.37 0 0 0-37.748-39.339M16445.995 6848.993v78.78M16445.995 6927.733h71.138M16516.861 6927.733v7.874M16438.121 7014.347a78.74 78.74 0 0 0 78.752-78.748M16438.121 7014.347h-1562.989M14875.132 7014.347l-86.614 60.645M14788.518 7074.976h-594.487M14115.291 6996.236a78.74 78.74 0 0 0 78.752 78.756M15705.839 6179.703h658.739M16397.176 6179.703h119.957M16397.176 6195.45h48.819M16397.176 6195.45h-32.52M11843.642 11730.873h393.7M15505.052 11730.873h629.92M16237.334 11730.873h566.928-39.386zM16213.712 11730.873h23.56M16253.082 11730.873h-39.382M12965.687 11730.873h39.382M12414.507 11730.873h39.382" fill="none" stroke-width="36.6141"/><path d="M16134.972 5919.86v23.614zM15583.792 5687.578h472.44c43.492-.007 78.752 35.248 78.752 78.74l-.012-.002v153.543h-629.92v-153.543c0-43.492 35.26-78.744 78.752-78.74z" fill="#ccc" fill-rule="evenodd" stroke-width="36.6141"/><path d="M13969.622 11301.74c.004 32.622-26.445 59.067-59.067 59.063h-669.29l.012-.007c-32.618.007-59.063-26.433-59.067-59.047v-118.11l.012-.006c.004-32.606 26.437-59.043 59.043-59.047h669.29l.012-.007c32.614.007 59.047 26.45 59.043 59.063v118.11z" fill="#1a1a1a" fill-rule="evenodd" stroke-width="36.6141"/><path d="M14343.637 11730.873h275.59z" fill="none" stroke-width="36.6141"/><path d="M13969.622 9569.46c.004 32.622-26.445 59.067-59.067 59.063h-669.29l.012-.007c-32.618.007-59.063-26.433-59.067-59.047v-118.11l.012-.006c.004-32.606 26.437-59.043 59.043-59.047h669.29l.012-.007c32.614.007 59.047 26.45 59.043 59.063v118.11z" fill="#1a1a1a" fill-rule="evenodd" stroke-width="36.6141"/><path d="M15505.052 11730.873v23.652h629.92v-23.652 177.196l.012-.006c.003 43.496-35.256 78.752-78.752 78.748h-472.44l.012-.007c-43.488.007-78.748-35.244-78.752-78.732v-153.543z" fill="#ccc" fill-rule="evenodd" stroke-width="36.6141"/><path d="M13969.622 10002.53c.004 32.622-26.445 59.067-59.067 59.063h-669.29l.012-.007c-32.618.007-59.063-26.433-59.067-59.047v-118.11l.012-.006c.004-32.606 26.437-59.043 59.043-59.047h669.29l.012-.007c32.614.007 59.047 26.45 59.043 59.063v118.11z" fill="#1a1a1a" fill-rule="evenodd" stroke-width="36.6141"/><path d="M12237.342 11754.495v153.543c-.004 43.48-35.248 78.728-78.728 78.732l-.012.006h-236.22l.012-.006c-43.488.007-78.748-35.244-78.752-78.732v-177.197 23.653h393.7v-23.653z" fill="#ccc" fill-rule="evenodd" stroke-width="36.6141"/><path d="M13969.622 9136.39v-118.11c.004-32.614-26.43-59.055-59.043-59.063l-.012.006h-669.29c-32.606.007-59.04 26.441-59.043 59.047l-.012.007v118.11c.004 32.618 26.449 59.055 59.067 59.047l-.012.006h669.29c32.622.007 59.07-26.437 59.067-59.063zM13969.622 8270.25c.004 32.622-26.445 59.067-59.067 59.063h-669.29l.012-.007c-32.618.007-59.063-26.433-59.067-59.047v-118.11l.012-.006c.004-32.606 26.437-59.043 59.043-59.047h669.29l.012-.007c32.614.007 59.047 26.45 59.043 59.063v118.11z" fill="#1a1a1a" fill-rule="evenodd" stroke-width="36.6141"/><path d="M12237.342 6372.616h-393.7" fill="none" stroke-width="36.6141"/><path d="M11705.847 11278.118h-196.85v275.59h196.85zM11705.847 10845.048h-196.85v275.59h196.85zM11705.847 8246.628h-196.85v275.59h196.85v-275.59zM11705.847 9112.768h-196.85v275.59h196.85v-275.59z" fill="#cccc80" fill-rule="evenodd" stroke-width="36.6141"/><path d="M16397.176 6806.08l-1.732-.079-.866-.039-7.795-.35-.867-.04-.866-.038M16397.176 6179.703h-32.52M16397.176 6195.45h-32.52M16397.176 6809.229V6246.71M14115.291 5982.853h-1838.579M12237.342 6348.994h-393.7M16364.5 6195.45v-15.747M16397.176 6195.45v-15.747M12237.342 6455.293h-393.7M17414.497 5982.853h-897.636M17158.592 11691.503h-5393.69M16082.216 6805.686v-10.618" fill="none" stroke-width="36.6141"/><path d="M17835.362 7325.763c115.06 0 208.335 93.276 208.335 208.335h0v3913.732h0c0 115.059-93.276 208.334-208.335 208.334-513.463-1503.265-303.393-2922.238 0-4330.306l-151.743-.313z" fill="#666" stroke-width="36.6141"/><path d="M11705.847 10687.568v-275.59h0-196.85v275.59zM11705.847 10254.498v-275.59h0-196.85v275.59zM11705.847 9821.428v-275.59h0-196.85v275.59h196.85zM11705.847 8955.288v-275.59h0-196.85v275.59h196.85zM11705.847 8089.148v-275.59h0-196.85v275.59h196.85z" fill="#cccc80" stroke-width="36.6141"/></g><g transform="translate(7787 3189) scale(393.7)" stroke="#000" stroke-width=".093"><path d="M6.628.253v5.85l-.175.175h-4.95l-.175-.175V.253l.175-.175h4.95z" fill="#1a1a1a"/><path d="M6.628.253L6.553.29M6.553.29v.788M6.553 1.378v.35M6.553 2.028v.35M6.553 2.678v.35M6.553 3.328v.35M6.553 3.978v.35M6.553 4.628v.35M6.553 5.278v.787M6.553 6.066l-.194-.098M6.359.388v5.58M6.553.29l-.194.098M6.628 6.103l-.075-.037M6.415.153l.138.138M6.453.078l-.037.075M6.318.347l.04.04M6.415.153l-.097.194M1.638.347h4.68M6.359 5.968l-.04.04M6.318 6.008h-4.68M1.638 6.008l-.04-.04M1.597 5.968V.388M1.597.388l.04-.04" fill="none"/><circle transform="scale(1 -1)" cx="2.297" cy="-1.048" r=".25" fill="#4d4d4d"/><path d="M6.553 6.066l-.138.137M6.415 6.203l-.097-.194M6.453 6.278l-.037-.075M1.54.153h4.875M1.503.078l.037.075M1.54.153l.098.194M1.403.29l.138-.137M1.403.29l.194.098M1.403 6.066v-.788M1.403 4.978v-.35M1.403 4.328v-.35M1.403 3.678v-.35M1.403 3.028v-.35M1.403 2.378v-.35M1.403 1.728v-.35M1.403 1.078V.291M1.403 6.066l.194-.098M1.54 6.203l-.137-.138M1.54 6.203l.098-.194M6.415 6.203H1.54M1.503 6.278l.037-.075M1.328 6.103l.075-.037M1.328.253l.075.037" fill="none"/><path d="M1.403 4.978v.3h0H.078h0v-.3h0z" fill="#b3b3b3" fill-rule="evenodd"/><path d="M.808 5.278v-.3M1.078 5.278v-.3M.708 5.278v-.3" fill="none"/><path d="M1.403 4.328v.3h0H.078h0v-.3h0z" fill="#b3b3b3" fill-rule="evenodd"/><path d="M.808 4.628v-.3M1.078 4.628v-.3M.708 4.628v-.3" fill="none"/><path d="M1.403 3.678v.3h0H.078h0v-.3h0z" fill="#b3b3b3" fill-rule="evenodd"/><path d="M.808 3.978v-.3M1.078 3.978v-.3M.708 3.978v-.3" fill="none"/><path d="M1.403 3.028v.3h0H.078h0v-.3h0z" fill="#b3b3b3" fill-rule="evenodd"/><path d="M.808 3.328v-.3M1.078 3.328v-.3M.708 3.328v-.3" fill="none"/><g><path d="M1.403 2.378v.3h0H.078h0v-.3h0z" fill="#b3b3b3" fill-rule="evenodd"/><path d="M.808 2.678v-.3M1.078 2.678v-.3M.708 2.678v-.3" fill="none"/></g><g><path d="M1.403 1.728v.3h0H.078h0v-.3h0z" fill="#b3b3b3" fill-rule="evenodd"/><path d="M.808 2.028v-.3M1.078 2.028v-.3M.708 2.028v-.3" fill="none"/></g><g><path d="M1.403 1.078v.3h0H.078h0v-.3h0z" fill="#b3b3b3" fill-rule="evenodd"/><path d="M.808 1.378v-.3M1.078 1.378v-.3M.708 1.378v-.3" fill="none"/></g><g><path d="M6.553 5.278v-.3h1.325v.3h0z" fill="#b3b3b3" fill-rule="evenodd"/><path d="M7.148 4.978v.3M6.878 4.978v.3M7.248 4.978v.3" fill="none"/></g><g><path d="M6.553 4.628v-.3h1.325v.3h0z" fill="#b3b3b3" fill-rule="evenodd"/><path d="M7.148 4.328v.3M6.878 4.328v.3M7.248 4.328v.3" fill="none"/></g><g><path d="M6.553 3.978v-.3h1.325v.3h0z" fill="#b3b3b3" fill-rule="evenodd"/><path d="M7.148 3.678v.3M6.878 3.678v.3M7.248 3.678v.3" fill="none"/></g><g><path d="M6.553 3.328v-.3h1.325v.3h0z" fill="#b3b3b3" fill-rule="evenodd"/><path d="M7.148 3.028v.3M6.878 3.028v.3M7.248 3.028v.3" fill="none"/></g><g><path d="M6.553 2.678v-.3h1.325v.3h0z" fill="#b3b3b3" fill-rule="evenodd"/><path d="M7.148 2.378v.3M6.878 2.378v.3M7.248 2.378v.3" fill="none"/></g><g><path d="M6.553 2.028v-.3h1.325v.3h0z" fill="#b3b3b3" fill-rule="evenodd"/><path d="M7.148 1.728v.3M6.878 1.728v.3M7.248 1.728v.3" fill="none"/></g><g><path d="M6.553 1.378v-.3h1.325v.3h0z" fill="#b3b3b3" fill-rule="evenodd"/><path d="M7.148 1.078v.3M6.878 1.078v.3M7.248 1.078v.3" fill="none"/></g></g><g transform="scale(393.7) rotate(90 .715 10.342)" stroke="#000" stroke-width=".093"><path d="M-3.5-2.683v.766H-1.735v-.766h-.985 0-.2z" fill="gray" fill-rule="evenodd"/><path d="M-1.75 3.25v-.567M-1.75-2.683v-.567M-1.75 1.917V.383M-1.75-.383v-1.534M-1.75-3.25h3.5M1.75-3.25v2.1M1.75 1.15v2.1M1.75 3.25h-3.5M-1.75 3.25l.015-.015M-1.75-3.25l.015.015M-1.735-2.683v-.552h3.47v2.085" fill="none"/><path d="M-3.5 1.917H-1.735v.767h-.985 0-.78z" fill="gray" fill-rule="evenodd"/><path d="M-1.735 1.917V.383" fill="none"/><path d="M-2.72-.383h-.78v.766H-1.735v-.766h-.985v.766" fill="gray" fill-rule="evenodd"/><path d="M-1.735-.383v-1.534M1.75-3.25l-.015.015" fill="none"/><path d="M1.735-1.15v2.3H3.5v-2.3H1.75z" fill="gray" fill-rule="evenodd"/><path d="M1.75 3.25l-.015-.015M1.735 1.15v2.085h-3.47v-.552M-1.735-3.235l.093.093M-1.735 3.235l.093-.093M-2.72 1.917v.767M-2.72-2.683v.766M1.735-3.235l-.093.093" fill="none"/><path d="M-1.641-3.142h3.283v6.284h-3.284z" fill="#1a1a1a" fill-rule="evenodd"/><path d="M1.735 3.235l-.093-.093M2.72 1.15v-2.3M-2.25 1.917v.767M-2.92 1.917v.767M-2.25-2.683v.766M-2.92-2.683v.766M-2.25-.383v.766M-2.92-.383v.766M2.25 1.15v-2.3M2.92 1.15v-2.3M-1.75 2.683h.015M-1.75-2.683h.015M-1.75 1.917h.015M-1.75.383h.015M-1.75-.383h.015M-1.75-1.917h.015M1.75-1.15h-.015M1.75 1.15h-.015" fill="none"/></g><g transform="matrix(-393.7 0 0 393.7 11588.772 4184.182)" stroke-width=".013"><path d="M-.2-.15h-.077 0H-.3v.3h.1zM.2-.15h.1v.3H.2z" fill="#999" fill-rule="evenodd" stroke="#191919"/><path d="M-.2.15h.4v-.3h0-.4z" fill="#333" fill-rule="evenodd" stroke="#191919"/><path d="M-.277-.15v.3M-.223-.15v.3M.277-.15v.3M.223-.15v.3" fill="none" stroke="#191919"/></g><g transform="matrix(-393.7 0 0 393.7 7116.772 5582.182)" stroke-width=".013"><path d="M-.2-.15h-.077 0H-.3v.3h.1zM.2-.15h.1v.3H.2z" fill="#999" fill-rule="evenodd" stroke="#191919"/><path d="M-.2.15h.4v-.3h0-.4z" fill="#333" fill-rule="evenodd" stroke="#191919"/><path d="M-.277-.15v.3M-.223-.15v.3M.277-.15v.3M.223-.15v.3" fill="none" stroke="#191919"/></g><g transform="matrix(-393.7 0 0 393.7 7128.772 4696.182)" stroke-width=".013"><path d="M-.2-.15h-.077 0H-.3v.3h.1zM.2-.15h.1v.3H.2z" fill="#999" fill-rule="evenodd" stroke="#191919"/><path d="M-.2.15h.4v-.3h0-.4z" fill="#333" fill-rule="evenodd" stroke="#191919"/><path d="M-.277-.15v.3M-.223-.15v.3M.277-.15v.3M.223-.15v.3" fill="none" stroke="#191919"/></g><g transform="matrix(-393.7 0 0 393.7 7120.772 3928.182)" stroke-width=".013"><path d="M-.2-.15h-.077 0H-.3v.3h.1zM.2-.15h.1v.3H.2z" fill="#999" fill-rule="evenodd" stroke="#191919"/><path d="M-.2.15h.4v-.3h0-.4z" fill="#333" fill-rule="evenodd" stroke="#191919"/><path d="M-.277-.15v.3M-.223-.15v.3M.277-.15v.3M.223-.15v.3" fill="none" stroke="#191919"/></g><g stroke-width=".093"><g transform="matrix(393.7 0 0 -393.7 1045.999 4557.999)"><path d="M1.27-13.97V1.27h-2.54v-15.24z" fill="#1a1a1a" fill-rule="evenodd" stroke="#000"/><path d="M-.6.6V-.6H.6V.6z" fill="gray" fill-rule="evenodd" stroke="#000"/><path d="M.6-3.14v1.2H-.6v-1.2zM.6-5.68v1.2H-.6v-1.2zM-.6-13.3H.6v1.2H-.6zM-.6-10.76H.6v1.2H-.6zM-.6-8.22H.6v1.2H-.6z" fill="#666" fill-rule="evenodd" stroke="#000"/><path d="M-.6.6l.299-.299M-.6-.6l.299.299M-.301.301v-.602M.6.6L.301.301M.301.301h-.602M.6-.6l-.299.299M.301-.301v.602M-.301-.301h.602M-.6-3.14l.299.299M.6-3.14l-.299.299M-.301-2.841h.602M-.6-1.94l.299-.299M-.301-2.239v-.602M.6-1.94l-.299-.299M.301-2.239h-.602M.301-2.841v.602M.6-5.68l-.299.299M.6-4.48l-.299-.299M.301-5.381v.602M-.6-5.68l.299.299M-.301-5.381h.602M-.6-4.48l.299-.299M-.301-4.779v-.602M.301-4.779h-.602M-.6-12.1l.299-.299M-.6-13.3l.299.299M-.301-12.399v-.602M.6-12.1l-.299-.299M.301-12.399h-.602M.6-13.3l-.299.299M.301-13.001v.602M-.301-13.001h.602M-.6-10.76l.299.299M.6-10.76l-.299.299M-.301-10.461h.602M-.6-9.56l.299-.299M-.301-9.859v-.602M.6-9.56l-.299-.299M.301-9.859h-.602M.301-10.461v.602M.6-8.22l-.299.299M.6-7.02l-.299-.299M.301-7.921v.602M-.6-8.22l.299.299M-.301-7.921h.602M-.6-7.02l.299-.299M-.301-7.319v-.602M.301-7.319h-.602" fill="none" stroke="#000"/><path d="M.3-.3v.6h-.6v-.6zM-.3-2.84h.6v.6h-.6zM.3-5.38v.6h-.6v-.6zM.3-13v.6h-.6v-.6zM-.3-10.46h.6v.6h-.6zM.3-7.92v.6h-.6v-.6z" fill="olive" fill-rule="evenodd" stroke="#000"/><path d="M-.1.25V.3M-.1-.25v.5M-.1-.3v.05M.1-.3v.05M-.1-.25h.2M.1-.25v.5M.1.25V.3M-.1.25h.2M-.1-2.29v.05M-.1-2.79v.5M-.1-2.84v.05" fill="none" stroke="#000"/><path d="M.1-2.84v.05" fill="olive" fill-rule="evenodd" stroke="#000"/><path d="M-.1-2.79h.2M.1-2.79v.5M.1-2.29v.05M-.1-2.29h.2M-.1-4.83v.05M-.1-5.33v.5M-.1-5.38v.05M.1-5.38v.05M-.1-5.33h.2M.1-5.33v.5M.1-4.83v.05M-.1-4.83h.2M-.1-12.45v.05M-.1-12.95v.5M-.1-13v.05M.1-13v.05M-.1-12.95h.2M.1-12.95v.5M.1-12.45v.05M-.1-12.45h.2M-.1-9.91v.05M-.1-10.41v.5M-.1-10.46v.05M.1-10.46v.05M-.1-10.41h.2M.1-10.41v.5M.1-9.91v.05M-.1-9.91h.2M-.1-7.37v.05M-.1-7.87v.5M-.1-7.92v.05M.1-7.92v.05M-.1-7.87h.2M.1-7.87v.5M.1-7.37v.05M-.1-7.37h.2" fill="none" stroke="#000"/></g></g><g stroke-width=".013"><path d="M9046.135 2322.444h236.22v181.102h0-236.22 0z" fill="#ffb380" stroke="#000" stroke-width="5.118099999999999"/><g transform="matrix(-393.7 0 0 393.7 9164.245 2412.995)" fill="#b3b3b3"><path d="M-.3.25v-.5h-.2v.5zM.5.25v-.5H.3v.5zM-.5-.23h.2M-.5.23h.2M-.3.21h.6M-.3-.21h.6M.3-.23h.2M.3.23h.2" fill-rule="evenodd" stroke="#191919"/></g></g><g stroke-width=".013"><path d="M6470.157 2321.934v236.22h-181.103 0v-236.22h0z" fill="#ffb380" stroke="#000" stroke-width="5.118099999999999"/><g transform="matrix(0 -393.7 -393.7 0 6379.605 2440.044)" fill="#b3b3b3"><path d="M-.3.25v-.5h-.2v.5zM.5.25v-.5H.3v.5zM-.5-.23h.2M-.5.23h.2M-.3.21h.6M-.3-.21h.6M.3-.23h.2M.3.23h.2" fill-rule="evenodd" stroke="#191919"/></g></g><g stroke-width=".013"><path d="M7081.157 2301.934v236.22h-181.103 0v-236.22h0z" fill="#ffb380" stroke="#000" stroke-width="5.118099999999999"/><g transform="matrix(0 -393.7 -393.7 0 6990.605 2420.044)" fill="#b3b3b3"><path d="M-.3.25v-.5h-.2v.5zM.5.25v-.5H.3v.5zM-.5-.23h.2M-.5.23h.2M-.3.21h.6M-.3-.21h.6M.3-.23h.2M.3.23h.2" fill-rule="evenodd" stroke="#191919"/></g></g><g stroke-width=".013"><path d="M1361.135 2676.843h236.22v181.103h0-236.22 0z" fill="#ffb380" stroke="#000" stroke-width="5.118099999999999"/><g transform="matrix(-393.7 0 0 393.7 1479.245 2767.394)" fill="#b3b3b3"><path d="M-.3.25v-.5h-.2v.5zM.5.25v-.5H.3v.5zM-.5-.23h.2M-.5.23h.2M-.3.21h.6M-.3-.21h.6M.3-.23h.2M.3.23h.2" fill-rule="evenodd" stroke="#191919"/></g></g></svg>