<svg width="391" height="304" viewBox="9804400 3352800 7970600 6197600" xmlns="http://www.w3.org/2000/svg" xmlns:xlink="http://www.w3.org/1999/xlink"><defs><mask id="c"><g fill="#fff" fill-opacity="1" stroke="#fff" stroke-linecap="round" stroke-linejoin="round" stroke-width=".1"><path d="M17440000 5069000v-170000h170000v170000z" fill-rule="evenodd"/><circle cx="17525000" cy="5238000" r="85000"/><circle cx="17525000" cy="5492000" r="85000"/><circle cx="17525000" cy="5746000" r="85000"/><circle cx="17525000" cy="6000000" r="85000"/><circle cx="17525000" cy="6254000" r="85000"/><path d="m16220000 5173750-5740.3-1141.8-4866.3-3251.6-3251.6-4866.3-1141.8-5740.3v-117500l1141.8-5740.3 3251.6-4866.3 4866.3-3251.6 5740.3-1141.8h30000l5740.3 1141.8 4866.3 3251.6 3251.6 4866.3 1141.8 5740.3v117500l-1141.8 5740.3-3251.6 4866.3-4866.3 3251.6-5740.3 1141.8zM16410000 5173750l-5740.3-1141.8-4866.3-3251.6-3251.6-4866.3-1141.8-5740.3v-117500l1141.8-5740.3 3251.6-4866.3 4866.3-3251.6 5740.3-1141.8h30000l5740.3 1141.8 4866.3 3251.6 3251.6 4866.3 1141.8 5740.3v117500l-1141.8 5740.3-3251.6 4866.3-4866.3 3251.6-5740.3 1141.8zM16315000 4986250l-5740.3-1141.8-4866.3-3251.6-3251.6-4866.3-1141.8-5740.3v-117500l1141.8-5740.3 3251.6-4866.3 4866.3-3251.6 5740.3-1141.8h30000l5740.3 1141.8 4866.3 3251.6 3251.6 4866.3 1141.8 5740.3v117500l-1141.8 5740.3-3251.6 4866.3-4866.3 3251.6-5740.3 1141.8zM16665000 5242000l3826.8 761.2 3244.3 2167.7 2167.7 3244.3 761.2 3826.8v26000l-761.2 3826.8-2167.7 3244.3-3244.3 2167.7-3826.8 761.2h-20000l-3826.8-761.2-3244.3-2167.7-2167.7-3244.3-761.2-3826.8v-26000l761.2-3826.8 2167.7-3244.3 3244.3-2167.7 3826.8-761.2zM16665000 5306000l3826.8 761.2 3244.3 2167.7 2167.7 3244.3 761.2 3826.8v26000l-761.2 3826.8-2167.7 3244.3-3244.3 2167.7-3826.8 761.2h-20000l-3826.8-761.2-3244.3-2167.7-2167.7-3244.3-761.2-3826.8v-26000l761.2-3826.8 2167.7-3244.3 3244.3-2167.7 3826.8-761.2zM17235000 5235500l3826.8 761.2 3244.3 2167.7 2167.7 3244.3 761.2 3826.8v26000l-761.2 3826.8-2167.7 3244.3-3244.3 2167.7-3826.8 761.2h-20000l-3826.8-761.2-3244.3-2167.7-2167.7-3244.3-761.2-3826.8v-26000l761.2-3826.8 2167.7-3244.3 3244.3-2167.7 3826.8-761.2zM17235000 5299500l3826.8 761.2 3244.3 2167.7 2167.7 3244.3 761.2 3826.8v26000l-761.2 3826.8-2167.7 3244.3-3244.3 2167.7-3826.8 761.2h-20000l-3826.8-761.2-3244.3-2167.7-2167.7-3244.3-761.2-3826.8v-26000l761.2-3826.8 2167.7-3244.3 3244.3-2167.7 3826.8-761.2zM16097000 4834500l5357.6 1065.7 4541.9 3034.8 3034.8 4541.9 1065.7 5357.6v28000l-1065.7 5357.6-3034.8 4541.9-4541.9 3034.8-5357.6 1065.7h-34000l-5357.6-1065.7-4541.9-3034.8-3034.8-4541.9-1065.7-5357.6v-28000l1065.7-5357.6 3034.8-4541.9 4541.9-3034.8 5357.6-1065.7zM16097000 4930500l5357.6 1065.7 4541.9 3034.8 3034.8 4541.9 1065.7 5357.6v28000l-1065.7 5357.6-3034.8 4541.9-4541.9 3034.8-5357.6 1065.7h-34000l-5357.6-1065.7-4541.9-3034.8-3034.8-4541.9-1065.7-5357.6v-28000l1065.7-5357.6 3034.8-4541.9 4541.9-3034.8 5357.6-1065.7zM17040000 5251250l5740.3 1141.8 4866.3 3251.6 3251.6 4866.3 1141.8 5740.3v117500l-1141.8 5740.3-3251.6 4866.3-4866.3 3251.6-5740.3 1141.8h-30000l-5740.3-1141.8-4866.3-3251.6-3251.6-4866.3-1141.8-5740.3v-117500l1141.8-5740.3 3251.6-4866.3 4866.3-3251.6 5740.3-1141.8zM16850000 5251250l5740.3 1141.8 4866.3 3251.6 3251.6 4866.3 1141.8 5740.3v117500l-1141.8 5740.3-3251.6 4866.3-4866.3 3251.6-5740.3 1141.8h-30000l-5740.3-1141.8-4866.3-3251.6-3251.6-4866.3-1141.8-5740.3v-117500l1141.8-5740.3 3251.6-4866.3 4866.3-3251.6 5740.3-1141.8zM16945000 5438750l5740.3 1141.8 4866.3 3251.6 3251.6 4866.3 1141.8 5740.3v117500l-1141.8 5740.3-3251.6 4866.3-4866.3 3251.6-5740.3 1141.8h-30000l-5740.3-1141.8-4866.3-3251.6-3251.6-4866.3-1141.8-5740.3v-117500l1141.8-5740.3 3251.6-4866.3 4866.3-3251.6 5740.3-1141.8zM17235000 5727000l3826.8 761.2 3244.3 2167.7 2167.7 3244.3 761.2 3826.8v26000l-761.2 3826.8-2167.7 3244.3-3244.3 2167.7-3826.8 761.2h-20000l-3826.8-761.2-3244.3-2167.7-2167.7-3244.3-761.2-3826.8v-26000l761.2-3826.8 2167.7-3244.3 3244.3-2167.7 3826.8-761.2zM17235000 5791000l3826.8 761.2 3244.3 2167.7 2167.7 3244.3 761.2 3826.8v26000l-761.2 3826.8-2167.7 3244.3-3244.3 2167.7-3826.8 761.2h-20000l-3826.8-761.2-3244.3-2167.7-2167.7-3244.3-761.2-3826.8v-26000l761.2-3826.8 2167.7-3244.3 3244.3-2167.7 3826.8-761.2zM16177500 5587500h-35000v-50000h35000zM16242500 5587500h-35000v-50000h35000zM16307500 5587500h-35000v-50000h35000zM16372500 5587500h-35000v-50000h35000zM16372500 5747500h-35000v-50000h35000zM16307500 5747500h-35000v-50000h35000zM16242500 5747500h-35000v-50000h35000zM16177500 5747500h-35000v-50000h35000zM16665000 6057500l3826.8 761.2 3244.3 2167.7 2167.7 3244.3 761.2 3826.8v26000l-761.2 3826.8-2167.7 3244.3-3244.3 2167.7-3826.8 761.2h-20000l-3826.8-761.2-3244.3-2167.7-2167.7-3244.3-761.2-3826.8v-26000l761.2-3826.8 2167.7-3244.3 3244.3-2167.7 3826.8-761.2zM16665000 6121500l3826.8 761.2 3244.3 2167.7 2167.7 3244.3 761.2 3826.8v26000l-761.2 3826.8-2167.7 3244.3-3244.3 2167.7-3826.8 761.2h-20000l-3826.8-761.2-3244.3-2167.7-2167.7-3244.3-761.2-3826.8v-26000l761.2-3826.8 2167.7-3244.3 3244.3-2167.7 3826.8-761.2zM16403000 5342000l-1065.7 5357.6-3034.8 4541.9-4541.9 3034.8-5357.6 1065.7h-28000l-5357.6-1065.7-4541.9-3034.8-3034.8-4541.9-1065.7-5357.6v-34000l1065.7-5357.6 3034.8-4541.9 4541.9-3034.8 5357.6-1065.7h28000l5357.6 1065.7 4541.9 3034.8 3034.8 4541.9 1065.7 5357.6zM16307000 5342000l-1065.7 5357.6-3034.8 4541.9-4541.9 3034.8-5357.6 1065.7h-28000l-5357.6-1065.7-4541.9-3034.8-3034.8-4541.9-1065.7-5357.6v-34000l1065.7-5357.6 3034.8-4541.9 4541.9-3034.8 5357.6-1065.7h28000l5357.6 1065.7 4541.9 3034.8 3034.8 4541.9 1065.7 5357.6zM17235000 5485500l3826.8 761.2 3244.3 2167.7 2167.7 3244.3 761.2 3826.8v26000l-761.2 3826.8-2167.7 3244.3-3244.3 2167.7-3826.8 761.2h-20000l-3826.8-761.2-3244.3-2167.7-2167.7-3244.3-761.2-3826.8v-26000l761.2-3826.8 2167.7-3244.3 3244.3-2167.7 3826.8-761.2zM17235000 5549500l3826.8 761.2 3244.3 2167.7 2167.7 3244.3 761.2 3826.8v26000l-761.2 3826.8-2167.7 3244.3-3244.3 2167.7-3826.8 761.2h-20000l-3826.8-761.2-3244.3-2167.7-2167.7-3244.3-761.2-3826.8v-26000l761.2-3826.8 2167.7-3244.3 3244.3-2167.7 3826.8-761.2zM16665000 5657500l3826.8 761.2 3244.3 2167.7 2167.7 3244.3 761.2 3826.8v26000l-761.2 3826.8-2167.7 3244.3-3244.3 2167.7-3826.8 761.2h-20000l-3826.8-761.2-3244.3-2167.7-2167.7-3244.3-761.2-3826.8v-26000l761.2-3826.8 2167.7-3244.3 3244.3-2167.7 3826.8-761.2zM16665000 5721500l3826.8 761.2 3244.3 2167.7 2167.7 3244.3 761.2 3826.8v26000l-761.2 3826.8-2167.7 3244.3-3244.3 2167.7-3826.8 761.2h-20000l-3826.8-761.2-3244.3-2167.7-2167.7-3244.3-761.2-3826.8v-26000l761.2-3826.8 2167.7-3244.3 3244.3-2167.7 3826.8-761.2zM17235000 5995000l3826.8 761.2 3244.3 2167.7 2167.7 3244.3 761.2 3826.8v26000l-761.2 3826.8-2167.7 3244.3-3244.3 2167.7-3826.8 761.2h-20000l-3826.8-761.2-3244.3-2167.7-2167.7-3244.3-761.2-3826.8v-26000l761.2-3826.8 2167.7-3244.3 3244.3-2167.7 3826.8-761.2zM17235000 6059000l3826.8 761.2 3244.3 2167.7 2167.7 3244.3 761.2 3826.8v26000l-761.2 3826.8-2167.7 3244.3-3244.3 2167.7-3826.8 761.2h-20000l-3826.8-761.2-3244.3-2167.7-2167.7-3244.3-761.2-3826.8v-26000l761.2-3826.8 2167.7-3244.3 3244.3-2167.7 3826.8-761.2zM17045000 5663750l5740.3 1141.8 4866.3 3251.6 3251.6 4866.3 1141.8 5740.3v117500l-1141.8 5740.3-3251.6 4866.3-4866.3 3251.6-5740.3 1141.8h-30000l-5740.3-1141.8-4866.3-3251.6-3251.6-4866.3-1141.8-5740.3v-117500l1141.8-5740.3 3251.6-4866.3 4866.3-3251.6 5740.3-1141.8zM16855000 5663750l5740.3 1141.8 4866.3 3251.6 3251.6 4866.3 1141.8 5740.3v117500l-1141.8 5740.3-3251.6 4866.3-4866.3 3251.6-5740.3 1141.8h-30000l-5740.3-1141.8-4866.3-3251.6-3251.6-4866.3-1141.8-5740.3v-117500l1141.8-5740.3 3251.6-4866.3 4866.3-3251.6 5740.3-1141.8zM16950000 5851250l5740.3 1141.8 4866.3 3251.6 3251.6 4866.3 1141.8 5740.3v117500l-1141.8 5740.3-3251.6 4866.3-4866.3 3251.6-5740.3 1141.8h-30000l-5740.3-1141.8-4866.3-3251.6-3251.6-4866.3-1141.8-5740.3v-117500l1141.8-5740.3 3251.6-4866.3 4866.3-3251.6 5740.3-1141.8zM17040000 6076250l5740.3 1141.8 4866.3 3251.6 3251.6 4866.3 1141.8 5740.3v117500l-1141.8 5740.3-3251.6 4866.3-4866.3 3251.6-5740.3 1141.8h-30000l-5740.3-1141.8-4866.3-3251.6-3251.6-4866.3-1141.8-5740.3v-117500l1141.8-5740.3 3251.6-4866.3 4866.3-3251.6 5740.3-1141.8zM16850000 6076250l5740.3 1141.8 4866.3 3251.6 3251.6 4866.3 1141.8 5740.3v117500l-1141.8 5740.3-3251.6 4866.3-4866.3 3251.6-5740.3 1141.8h-30000l-5740.3-1141.8-4866.3-3251.6-3251.6-4866.3-1141.8-5740.3v-117500l1141.8-5740.3 3251.6-4866.3 4866.3-3251.6 5740.3-1141.8zM16945000 6263750l5740.3 1141.8 4866.3 3251.6 3251.6 4866.3 1141.8 5740.3v117500l-1141.8 5740.3-3251.6 4866.3-4866.3 3251.6-5740.3 1141.8h-30000l-5740.3-1141.8-4866.3-3251.6-3251.6-4866.3-1141.8-5740.3v-117500l1141.8-5740.3 3251.6-4866.3 4866.3-3251.6 5740.3-1141.8zM16308500 5884500l-1065.7 5357.6-3034.8 4541.9-4541.9 3034.8-5357.6 1065.7h-28000l-5357.6-1065.7-4541.9-3034.8-3034.8-4541.9-1065.7-5357.6v-34000l1065.7-5357.6 3034.8-4541.9 4541.9-3034.8 5357.6-1065.7h28000l5357.6 1065.7 4541.9 3034.8 3034.8 4541.9 1065.7 5357.6zM16212500 5884500l-1065.7 5357.6-3034.8 4541.9-4541.9 3034.8-5357.6 1065.7h-28000l-5357.6-1065.7-4541.9-3034.8-3034.8-4541.9-1065.7-5357.6v-34000l1065.7-5357.6 3034.8-4541.9 4541.9-3034.8 5357.6-1065.7h28000l5357.6 1065.7 4541.9 3034.8 3034.8 4541.9 1065.7 5357.6zM17035000 4838750l5740.3 1141.8 4866.3 3251.6 3251.6 4866.3 1141.8 5740.3v117500l-1141.8 5740.3-3251.6 4866.3-4866.3 3251.6-5740.3 1141.8h-30000l-5740.3-1141.8-4866.3-3251.6-3251.6-4866.3-1141.8-5740.3v-117500l1141.8-5740.3 3251.6-4866.3 4866.3-3251.6 5740.3-1141.8zM16845000 4838750l5740.3 1141.8 4866.3 3251.6 3251.6 4866.3 1141.8 5740.3v117500l-1141.8 5740.3-3251.6 4866.3-4866.3 3251.6-5740.3 1141.8h-30000l-5740.3-1141.8-4866.3-3251.6-3251.6-4866.3-1141.8-5740.3v-117500l1141.8-5740.3 3251.6-4866.3 4866.3-3251.6 5740.3-1141.8zM16940000 5026250l5740.3 1141.8 4866.3 3251.6 3251.6 4866.3 1141.8 5740.3v117500l-1141.8 5740.3-3251.6 4866.3-4866.3 3251.6-5740.3 1141.8h-30000l-5740.3-1141.8-4866.3-3251.6-3251.6-4866.3-1141.8-5740.3v-117500l1141.8-5740.3 3251.6-4866.3 4866.3-3251.6 5740.3-1141.8zM16665000 4814500l3826.8 761.2 3244.3 2167.7 2167.7 3244.3 761.2 3826.8v26000l-761.2 3826.8-2167.7 3244.3-3244.3 2167.7-3826.8 761.2h-20000l-3826.8-761.2-3244.3-2167.7-2167.7-3244.3-761.2-3826.8v-26000l761.2-3826.8 2167.7-3244.3 3244.3-2167.7 3826.8-761.2zM16665000 4878500l3826.8 761.2 3244.3 2167.7 2167.7 3244.3 761.2 3826.8v26000l-761.2 3826.8-2167.7 3244.3-3244.3 2167.7-3826.8 761.2h-20000l-3826.8-761.2-3244.3-2167.7-2167.7-3244.3-761.2-3826.8v-26000l761.2-3826.8 2167.7-3244.3 3244.3-2167.7 3826.8-761.2z" fill-rule="evenodd"/></g></mask><mask id="d"><path fill="#fff" d="M9801900 3350300h7975600v6202600H9801900z"/><g fill-opacity="1" stroke="#000" stroke-linecap="round" stroke-linejoin="round" stroke-width=".1"><path d="M17440000 5069000v-170000h170000v170000z" fill-rule="evenodd"/><circle cx="17525000" cy="5238000" r="85000"/><circle cx="17525000" cy="5492000" r="85000"/><circle cx="17525000" cy="5746000" r="85000"/><circle cx="17525000" cy="6000000" r="85000"/><circle cx="17525000" cy="6254000" r="85000"/><path d="m16220000 5173750-5740.3-1141.8-4866.3-3251.6-3251.6-4866.3-1141.8-5740.3v-117500l1141.8-5740.3 3251.6-4866.3 4866.3-3251.6 5740.3-1141.8h30000l5740.3 1141.8 4866.3 3251.6 3251.6 4866.3 1141.8 5740.3v117500l-1141.8 5740.3-3251.6 4866.3-4866.3 3251.6-5740.3 1141.8zM16410000 5173750l-5740.3-1141.8-4866.3-3251.6-3251.6-4866.3-1141.8-5740.3v-117500l1141.8-5740.3 3251.6-4866.3 4866.3-3251.6 5740.3-1141.8h30000l5740.3 1141.8 4866.3 3251.6 3251.6 4866.3 1141.8 5740.3v117500l-1141.8 5740.3-3251.6 4866.3-4866.3 3251.6-5740.3 1141.8zM16315000 4986250l-5740.3-1141.8-4866.3-3251.6-3251.6-4866.3-1141.8-5740.3v-117500l1141.8-5740.3 3251.6-4866.3 4866.3-3251.6 5740.3-1141.8h30000l5740.3 1141.8 4866.3 3251.6 3251.6 4866.3 1141.8 5740.3v117500l-1141.8 5740.3-3251.6 4866.3-4866.3 3251.6-5740.3 1141.8zM16665000 5242000l3826.8 761.2 3244.3 2167.7 2167.7 3244.3 761.2 3826.8v26000l-761.2 3826.8-2167.7 3244.3-3244.3 2167.7-3826.8 761.2h-20000l-3826.8-761.2-3244.3-2167.7-2167.7-3244.3-761.2-3826.8v-26000l761.2-3826.8 2167.7-3244.3 3244.3-2167.7 3826.8-761.2zM16665000 5306000l3826.8 761.2 3244.3 2167.7 2167.7 3244.3 761.2 3826.8v26000l-761.2 3826.8-2167.7 3244.3-3244.3 2167.7-3826.8 761.2h-20000l-3826.8-761.2-3244.3-2167.7-2167.7-3244.3-761.2-3826.8v-26000l761.2-3826.8 2167.7-3244.3 3244.3-2167.7 3826.8-761.2zM17235000 5235500l3826.8 761.2 3244.3 2167.7 2167.7 3244.3 761.2 3826.8v26000l-761.2 3826.8-2167.7 3244.3-3244.3 2167.7-3826.8 761.2h-20000l-3826.8-761.2-3244.3-2167.7-2167.7-3244.3-761.2-3826.8v-26000l761.2-3826.8 2167.7-3244.3 3244.3-2167.7 3826.8-761.2zM17235000 5299500l3826.8 761.2 3244.3 2167.7 2167.7 3244.3 761.2 3826.8v26000l-761.2 3826.8-2167.7 3244.3-3244.3 2167.7-3826.8 761.2h-20000l-3826.8-761.2-3244.3-2167.7-2167.7-3244.3-761.2-3826.8v-26000l761.2-3826.8 2167.7-3244.3 3244.3-2167.7 3826.8-761.2zM16097000 4834500l5357.6 1065.7 4541.9 3034.8 3034.8 4541.9 1065.7 5357.6v28000l-1065.7 5357.6-3034.8 4541.9-4541.9 3034.8-5357.6 1065.7h-34000l-5357.6-1065.7-4541.9-3034.8-3034.8-4541.9-1065.7-5357.6v-28000l1065.7-5357.6 3034.8-4541.9 4541.9-3034.8 5357.6-1065.7zM16097000 4930500l5357.6 1065.7 4541.9 3034.8 3034.8 4541.9 1065.7 5357.6v28000l-1065.7 5357.6-3034.8 4541.9-4541.9 3034.8-5357.6 1065.7h-34000l-5357.6-1065.7-4541.9-3034.8-3034.8-4541.9-1065.7-5357.6v-28000l1065.7-5357.6 3034.8-4541.9 4541.9-3034.8 5357.6-1065.7zM17040000 5251250l5740.3 1141.8 4866.3 3251.6 3251.6 4866.3 1141.8 5740.3v117500l-1141.8 5740.3-3251.6 4866.3-4866.3 3251.6-5740.3 1141.8h-30000l-5740.3-1141.8-4866.3-3251.6-3251.6-4866.3-1141.8-5740.3v-117500l1141.8-5740.3 3251.6-4866.3 4866.3-3251.6 5740.3-1141.8zM16850000 5251250l5740.3 1141.8 4866.3 3251.6 3251.6 4866.3 1141.8 5740.3v117500l-1141.8 5740.3-3251.6 4866.3-4866.3 3251.6-5740.3 1141.8h-30000l-5740.3-1141.8-4866.3-3251.6-3251.6-4866.3-1141.8-5740.3v-117500l1141.8-5740.3 3251.6-4866.3 4866.3-3251.6 5740.3-1141.8zM16945000 5438750l5740.3 1141.8 4866.3 3251.6 3251.6 4866.3 1141.8 5740.3v117500l-1141.8 5740.3-3251.6 4866.3-4866.3 3251.6-5740.3 1141.8h-30000l-5740.3-1141.8-4866.3-3251.6-3251.6-4866.3-1141.8-5740.3v-117500l1141.8-5740.3 3251.6-4866.3 4866.3-3251.6 5740.3-1141.8zM17235000 5727000l3826.8 761.2 3244.3 2167.7 2167.7 3244.3 761.2 3826.8v26000l-761.2 3826.8-2167.7 3244.3-3244.3 2167.7-3826.8 761.2h-20000l-3826.8-761.2-3244.3-2167.7-2167.7-3244.3-761.2-3826.8v-26000l761.2-3826.8 2167.7-3244.3 3244.3-2167.7 3826.8-761.2zM17235000 5791000l3826.8 761.2 3244.3 2167.7 2167.7 3244.3 761.2 3826.8v26000l-761.2 3826.8-2167.7 3244.3-3244.3 2167.7-3826.8 761.2h-20000l-3826.8-761.2-3244.3-2167.7-2167.7-3244.3-761.2-3826.8v-26000l761.2-3826.8 2167.7-3244.3 3244.3-2167.7 3826.8-761.2zM16177500 5587500h-35000v-50000h35000zM16242500 5587500h-35000v-50000h35000zM16307500 5587500h-35000v-50000h35000zM16372500 5587500h-35000v-50000h35000zM16372500 5747500h-35000v-50000h35000zM16307500 5747500h-35000v-50000h35000zM16242500 5747500h-35000v-50000h35000zM16177500 5747500h-35000v-50000h35000zM16665000 6057500l3826.8 761.2 3244.3 2167.7 2167.7 3244.3 761.2 3826.8v26000l-761.2 3826.8-2167.7 3244.3-3244.3 2167.7-3826.8 761.2h-20000l-3826.8-761.2-3244.3-2167.7-2167.7-3244.3-761.2-3826.8v-26000l761.2-3826.8 2167.7-3244.3 3244.3-2167.7 3826.8-761.2zM16665000 6121500l3826.8 761.2 3244.3 2167.7 2167.7 3244.3 761.2 3826.8v26000l-761.2 3826.8-2167.7 3244.3-3244.3 2167.7-3826.8 761.2h-20000l-3826.8-761.2-3244.3-2167.7-2167.7-3244.3-761.2-3826.8v-26000l761.2-3826.8 2167.7-3244.3 3244.3-2167.7 3826.8-761.2zM16403000 5342000l-1065.7 5357.6-3034.8 4541.9-4541.9 3034.8-5357.6 1065.7h-28000l-5357.6-1065.7-4541.9-3034.8-3034.8-4541.9-1065.7-5357.6v-34000l1065.7-5357.6 3034.8-4541.9 4541.9-3034.8 5357.6-1065.7h28000l5357.6 1065.7 4541.9 3034.8 3034.8 4541.9 1065.7 5357.6zM16307000 5342000l-1065.7 5357.6-3034.8 4541.9-4541.9 3034.8-5357.6 1065.7h-28000l-5357.6-1065.7-4541.9-3034.8-3034.8-4541.9-1065.7-5357.6v-34000l1065.7-5357.6 3034.8-4541.9 4541.9-3034.8 5357.6-1065.7h28000l5357.6 1065.7 4541.9 3034.8 3034.8 4541.9 1065.7 5357.6zM17235000 5485500l3826.8 761.2 3244.3 2167.7 2167.7 3244.3 761.2 3826.8v26000l-761.2 3826.8-2167.7 3244.3-3244.3 2167.7-3826.8 761.2h-20000l-3826.8-761.2-3244.3-2167.7-2167.7-3244.3-761.2-3826.8v-26000l761.2-3826.8 2167.7-3244.3 3244.3-2167.7 3826.8-761.2zM17235000 5549500l3826.8 761.2 3244.3 2167.7 2167.7 3244.3 761.2 3826.8v26000l-761.2 3826.8-2167.7 3244.3-3244.3 2167.7-3826.8 761.2h-20000l-3826.8-761.2-3244.3-2167.7-2167.7-3244.3-761.2-3826.8v-26000l761.2-3826.8 2167.7-3244.3 3244.3-2167.7 3826.8-761.2zM16665000 5657500l3826.8 761.2 3244.3 2167.7 2167.7 3244.3 761.2 3826.8v26000l-761.2 3826.8-2167.7 3244.3-3244.3 2167.7-3826.8 761.2h-20000l-3826.8-761.2-3244.3-2167.7-2167.7-3244.3-761.2-3826.8v-26000l761.2-3826.8 2167.7-3244.3 3244.3-2167.7 3826.8-761.2zM16665000 5721500l3826.8 761.2 3244.3 2167.7 2167.7 3244.3 761.2 3826.8v26000l-761.2 3826.8-2167.7 3244.3-3244.3 2167.7-3826.8 761.2h-20000l-3826.8-761.2-3244.3-2167.7-2167.7-3244.3-761.2-3826.8v-26000l761.2-3826.8 2167.7-3244.3 3244.3-2167.7 3826.8-761.2zM17235000 5995000l3826.8 761.2 3244.3 2167.7 2167.7 3244.3 761.2 3826.8v26000l-761.2 3826.8-2167.7 3244.3-3244.3 2167.7-3826.8 761.2h-20000l-3826.8-761.2-3244.3-2167.7-2167.7-3244.3-761.2-3826.8v-26000l761.2-3826.8 2167.7-3244.3 3244.3-2167.7 3826.8-761.2zM17235000 6059000l3826.8 761.2 3244.3 2167.7 2167.7 3244.3 761.2 3826.8v26000l-761.2 3826.8-2167.7 3244.3-3244.3 2167.7-3826.8 761.2h-20000l-3826.8-761.2-3244.3-2167.7-2167.7-3244.3-761.2-3826.8v-26000l761.2-3826.8 2167.7-3244.3 3244.3-2167.7 3826.8-761.2zM17045000 5663750l5740.3 1141.8 4866.3 3251.6 3251.6 4866.3 1141.8 5740.3v117500l-1141.8 5740.3-3251.6 4866.3-4866.3 3251.6-5740.3 1141.8h-30000l-5740.3-1141.8-4866.3-3251.6-3251.6-4866.3-1141.8-5740.3v-117500l1141.8-5740.3 3251.6-4866.3 4866.3-3251.6 5740.3-1141.8zM16855000 5663750l5740.3 1141.8 4866.3 3251.6 3251.6 4866.3 1141.8 5740.3v117500l-1141.8 5740.3-3251.6 4866.3-4866.3 3251.6-5740.3 1141.8h-30000l-5740.3-1141.8-4866.3-3251.6-3251.6-4866.3-1141.8-5740.3v-117500l1141.8-5740.3 3251.6-4866.3 4866.3-3251.6 5740.3-1141.8zM16950000 5851250l5740.3 1141.8 4866.3 3251.6 3251.6 4866.3 1141.8 5740.3v117500l-1141.8 5740.3-3251.6 4866.3-4866.3 3251.6-5740.3 1141.8h-30000l-5740.3-1141.8-4866.3-3251.6-3251.6-4866.3-1141.8-5740.3v-117500l1141.8-5740.3 3251.6-4866.3 4866.3-3251.6 5740.3-1141.8zM17040000 6076250l5740.3 1141.8 4866.3 3251.6 3251.6 4866.3 1141.8 5740.3v117500l-1141.8 5740.3-3251.6 4866.3-4866.3 3251.6-5740.3 1141.8h-30000l-5740.3-1141.8-4866.3-3251.6-3251.6-4866.3-1141.8-5740.3v-117500l1141.8-5740.3 3251.6-4866.3 4866.3-3251.6 5740.3-1141.8zM16850000 6076250l5740.3 1141.8 4866.3 3251.6 3251.6 4866.3 1141.8 5740.3v117500l-1141.8 5740.3-3251.6 4866.3-4866.3 3251.6-5740.3 1141.8h-30000l-5740.3-1141.8-4866.3-3251.6-3251.6-4866.3-1141.8-5740.3v-117500l1141.8-5740.3 3251.6-4866.3 4866.3-3251.6 5740.3-1141.8zM16945000 6263750l5740.3 1141.8 4866.3 3251.6 3251.6 4866.3 1141.8 5740.3v117500l-1141.8 5740.3-3251.6 4866.3-4866.3 3251.6-5740.3 1141.8h-30000l-5740.3-1141.8-4866.3-3251.6-3251.6-4866.3-1141.8-5740.3v-117500l1141.8-5740.3 3251.6-4866.3 4866.3-3251.6 5740.3-1141.8zM16308500 5884500l-1065.7 5357.6-3034.8 4541.9-4541.9 3034.8-5357.6 1065.7h-28000l-5357.6-1065.7-4541.9-3034.8-3034.8-4541.9-1065.7-5357.6v-34000l1065.7-5357.6 3034.8-4541.9 4541.9-3034.8 5357.6-1065.7h28000l5357.6 1065.7 4541.9 3034.8 3034.8 4541.9 1065.7 5357.6zM16212500 5884500l-1065.7 5357.6-3034.8 4541.9-4541.9 3034.8-5357.6 1065.7h-28000l-5357.6-1065.7-4541.9-3034.8-3034.8-4541.9-1065.7-5357.6v-34000l1065.7-5357.6 3034.8-4541.9 4541.9-3034.8 5357.6-1065.7h28000l5357.6 1065.7 4541.9 3034.8 3034.8 4541.9 1065.7 5357.6zM17035000 4838750l5740.3 1141.8 4866.3 3251.6 3251.6 4866.3 1141.8 5740.3v117500l-1141.8 5740.3-3251.6 4866.3-4866.3 3251.6-5740.3 1141.8h-30000l-5740.3-1141.8-4866.3-3251.6-3251.6-4866.3-1141.8-5740.3v-117500l1141.8-5740.3 3251.6-4866.3 4866.3-3251.6 5740.3-1141.8zM16845000 4838750l5740.3 1141.8 4866.3 3251.6 3251.6 4866.3 1141.8 5740.3v117500l-1141.8 5740.3-3251.6 4866.3-4866.3 3251.6-5740.3 1141.8h-30000l-5740.3-1141.8-4866.3-3251.6-3251.6-4866.3-1141.8-5740.3v-117500l1141.8-5740.3 3251.6-4866.3 4866.3-3251.6 5740.3-1141.8zM16940000 5026250l5740.3 1141.8 4866.3 3251.6 3251.6 4866.3 1141.8 5740.3v117500l-1141.8 5740.3-3251.6 4866.3-4866.3 3251.6-5740.3 1141.8h-30000l-5740.3-1141.8-4866.3-3251.6-3251.6-4866.3-1141.8-5740.3v-117500l1141.8-5740.3 3251.6-4866.3 4866.3-3251.6 5740.3-1141.8zM16665000 4814500l3826.8 761.2 3244.3 2167.7 2167.7 3244.3 761.2 3826.8v26000l-761.2 3826.8-2167.7 3244.3-3244.3 2167.7-3826.8 761.2h-20000l-3826.8-761.2-3244.3-2167.7-2167.7-3244.3-761.2-3826.8v-26000l761.2-3826.8 2167.7-3244.3 3244.3-2167.7 3826.8-761.2zM16665000 4878500l3826.8 761.2 3244.3 2167.7 2167.7 3244.3 761.2 3826.8v26000l-761.2 3826.8-2167.7 3244.3-3244.3 2167.7-3826.8 761.2h-20000l-3826.8-761.2-3244.3-2167.7-2167.7-3244.3-761.2-3826.8v-26000l761.2-3826.8 2167.7-3244.3 3244.3-2167.7 3826.8-761.2z" fill-rule="evenodd"/></g></mask><mask id="b"><path fill="#fff" d="M9801900 3350300h7975600v6202600H9801900z"/><path stroke="#000" stroke-linecap="round" stroke-width="100000" d="M17525000 4984000h0M17525000 5238000h0M17525000 5492000h0M17525000 5746000h0M17525000 6000000h0M17525000 6254000h0"/></mask><clipPath id="a"><path d="M9804400 3352800v6197600h7970600V3352800H9804400" fill-rule="evenodd"/></clipPath></defs><g clip-path="url(#a)" mask="url(#b)"><g fill="#313d63" stroke="#313d63"><path d="M9804400 3352800v6197600h7970600V3352800H9804400" fill-rule="evenodd"/><g fill-opacity="0" stroke-linecap="round" stroke-linejoin="round" stroke-width="5000" fill="none"><path d="M17775000 3352800H9804400M9804400 9550400h7970600M17775000 9550400V3352800M9804400 3352800v6197600"/></g></g><g fill-opacity="1" stroke-linecap="round" stroke-linejoin="round" stroke-width=".1" fill="#9c6b28" stroke="#9c6b28"><path d="M17440000 5069000v-170000h170000v170000z" fill-rule="evenodd"/><circle cx="17525000" cy="5238000" r="85000"/><circle cx="17525000" cy="5492000" r="85000"/><circle cx="17525000" cy="5746000" r="85000"/><circle cx="17525000" cy="6000000" r="85000"/><circle cx="17525000" cy="6254000" r="85000"/><g fill-rule="evenodd"><path d="m16220000 5173750-5740.3-1141.8-4866.3-3251.6-3251.6-4866.3-1141.8-5740.3v-117500l1141.8-5740.3 3251.6-4866.3 4866.3-3251.6 5740.3-1141.8h30000l5740.3 1141.8 4866.3 3251.6 3251.6 4866.3 1141.8 5740.3v117500l-1141.8 5740.3-3251.6 4866.3-4866.3 3251.6-5740.3 1141.8zM16410000 5173750l-5740.3-1141.8-4866.3-3251.6-3251.6-4866.3-1141.8-5740.3v-117500l1141.8-5740.3 3251.6-4866.3 4866.3-3251.6 5740.3-1141.8h30000l5740.3 1141.8 4866.3 3251.6 3251.6 4866.3 1141.8 5740.3v117500l-1141.8 5740.3-3251.6 4866.3-4866.3 3251.6-5740.3 1141.8zM16315000 4986250l-5740.3-1141.8-4866.3-3251.6-3251.6-4866.3-1141.8-5740.3v-117500l1141.8-5740.3 3251.6-4866.3 4866.3-3251.6 5740.3-1141.8h30000l5740.3 1141.8 4866.3 3251.6 3251.6 4866.3 1141.8 5740.3v117500l-1141.8 5740.3-3251.6 4866.3-4866.3 3251.6-5740.3 1141.8zM16665000 5242000l3826.8 761.2 3244.3 2167.7 2167.7 3244.3 761.2 3826.8v26000l-761.2 3826.8-2167.7 3244.3-3244.3 2167.7-3826.8 761.2h-20000l-3826.8-761.2-3244.3-2167.7-2167.7-3244.3-761.2-3826.8v-26000l761.2-3826.8 2167.7-3244.3 3244.3-2167.7 3826.8-761.2zM16665000 5306000l3826.8 761.2 3244.3 2167.7 2167.7 3244.3 761.2 3826.8v26000l-761.2 3826.8-2167.7 3244.3-3244.3 2167.7-3826.8 761.2h-20000l-3826.8-761.2-3244.3-2167.7-2167.7-3244.3-761.2-3826.8v-26000l761.2-3826.8 2167.7-3244.3 3244.3-2167.7 3826.8-761.2zM17235000 5235500l3826.8 761.2 3244.3 2167.7 2167.7 3244.3 761.2 3826.8v26000l-761.2 3826.8-2167.7 3244.3-3244.3 2167.7-3826.8 761.2h-20000l-3826.8-761.2-3244.3-2167.7-2167.7-3244.3-761.2-3826.8v-26000l761.2-3826.8 2167.7-3244.3 3244.3-2167.7 3826.8-761.2zM17235000 5299500l3826.8 761.2 3244.3 2167.7 2167.7 3244.3 761.2 3826.8v26000l-761.2 3826.8-2167.7 3244.3-3244.3 2167.7-3826.8 761.2h-20000l-3826.8-761.2-3244.3-2167.7-2167.7-3244.3-761.2-3826.8v-26000l761.2-3826.8 2167.7-3244.3 3244.3-2167.7 3826.8-761.2zM16097000 4834500l5357.6 1065.7 4541.9 3034.8 3034.8 4541.9 1065.7 5357.6v28000l-1065.7 5357.6-3034.8 4541.9-4541.9 3034.8-5357.6 1065.7h-34000l-5357.6-1065.7-4541.9-3034.8-3034.8-4541.9-1065.7-5357.6v-28000l1065.7-5357.6 3034.8-4541.9 4541.9-3034.8 5357.6-1065.7zM16097000 4930500l5357.6 1065.7 4541.9 3034.8 3034.8 4541.9 1065.7 5357.6v28000l-1065.7 5357.6-3034.8 4541.9-4541.9 3034.8-5357.6 1065.7h-34000l-5357.6-1065.7-4541.9-3034.8-3034.8-4541.9-1065.7-5357.6v-28000l1065.7-5357.6 3034.8-4541.9 4541.9-3034.8 5357.6-1065.7zM17040000 5251250l5740.3 1141.8 4866.3 3251.6 3251.6 4866.3 1141.8 5740.3v117500l-1141.8 5740.3-3251.6 4866.3-4866.3 3251.6-5740.3 1141.8h-30000l-5740.3-1141.8-4866.3-3251.6-3251.6-4866.3-1141.8-5740.3v-117500l1141.8-5740.3 3251.6-4866.3 4866.3-3251.6 5740.3-1141.8zM16850000 5251250l5740.3 1141.8 4866.3 3251.6 3251.6 4866.3 1141.8 5740.3v117500l-1141.8 5740.3-3251.6 4866.3-4866.3 3251.6-5740.3 1141.8h-30000l-5740.3-1141.8-4866.3-3251.6-3251.6-4866.3-1141.8-5740.3v-117500l1141.8-5740.3 3251.6-4866.3 4866.3-3251.6 5740.3-1141.8zM16945000 5438750l5740.3 1141.8 4866.3 3251.6 3251.6 4866.3 1141.8 5740.3v117500l-1141.8 5740.3-3251.6 4866.3-4866.3 3251.6-5740.3 1141.8h-30000l-5740.3-1141.8-4866.3-3251.6-3251.6-4866.3-1141.8-5740.3v-117500l1141.8-5740.3 3251.6-4866.3 4866.3-3251.6 5740.3-1141.8zM17235000 5727000l3826.8 761.2 3244.3 2167.7 2167.7 3244.3 761.2 3826.8v26000l-761.2 3826.8-2167.7 3244.3-3244.3 2167.7-3826.8 761.2h-20000l-3826.8-761.2-3244.3-2167.7-2167.7-3244.3-761.2-3826.8v-26000l761.2-3826.8 2167.7-3244.3 3244.3-2167.7 3826.8-761.2zM17235000 5791000l3826.8 761.2 3244.3 2167.7 2167.7 3244.3 761.2 3826.8v26000l-761.2 3826.8-2167.7 3244.3-3244.3 2167.7-3826.8 761.2h-20000l-3826.8-761.2-3244.3-2167.7-2167.7-3244.3-761.2-3826.8v-26000l761.2-3826.8 2167.7-3244.3 3244.3-2167.7 3826.8-761.2zM16177500 5587500h-35000v-50000h35000zM16242500 5587500h-35000v-50000h35000zM16307500 5587500h-35000v-50000h35000zM16372500 5587500h-35000v-50000h35000zM16372500 5747500h-35000v-50000h35000zM16307500 5747500h-35000v-50000h35000zM16242500 5747500h-35000v-50000h35000zM16177500 5747500h-35000v-50000h35000zM16665000 6057500l3826.8 761.2 3244.3 2167.7 2167.7 3244.3 761.2 3826.8v26000l-761.2 3826.8-2167.7 3244.3-3244.3 2167.7-3826.8 761.2h-20000l-3826.8-761.2-3244.3-2167.7-2167.7-3244.3-761.2-3826.8v-26000l761.2-3826.8 2167.7-3244.3 3244.3-2167.7 3826.8-761.2zM16665000 6121500l3826.8 761.2 3244.3 2167.7 2167.7 3244.3 761.2 3826.8v26000l-761.2 3826.8-2167.7 3244.3-3244.3 2167.7-3826.8 761.2h-20000l-3826.8-761.2-3244.3-2167.7-2167.7-3244.3-761.2-3826.8v-26000l761.2-3826.8 2167.7-3244.3 3244.3-2167.7 3826.8-761.2zM16403000 5342000l-1065.7 5357.6-3034.8 4541.9-4541.9 3034.8-5357.6 1065.7h-28000l-5357.6-1065.7-4541.9-3034.8-3034.8-4541.9-1065.7-5357.6v-34000l1065.7-5357.6 3034.8-4541.9 4541.9-3034.8 5357.6-1065.7h28000l5357.6 1065.7 4541.9 3034.8 3034.8 4541.9 1065.7 5357.6zM16307000 5342000l-1065.7 5357.6-3034.8 4541.9-4541.9 3034.8-5357.6 1065.7h-28000l-5357.6-1065.7-4541.9-3034.8-3034.8-4541.9-1065.7-5357.6v-34000l1065.7-5357.6 3034.8-4541.9 4541.9-3034.8 5357.6-1065.7h28000l5357.6 1065.7 4541.9 3034.8 3034.8 4541.9 1065.7 5357.6zM17235000 5485500l3826.8 761.2 3244.3 2167.7 2167.7 3244.3 761.2 3826.8v26000l-761.2 3826.8-2167.7 3244.3-3244.3 2167.7-3826.8 761.2h-20000l-3826.8-761.2-3244.3-2167.7-2167.7-3244.3-761.2-3826.8v-26000l761.2-3826.8 2167.7-3244.3 3244.3-2167.7 3826.8-761.2zM17235000 5549500l3826.8 761.2 3244.3 2167.7 2167.7 3244.3 761.2 3826.8v26000l-761.2 3826.8-2167.7 3244.3-3244.3 2167.7-3826.8 761.2h-20000l-3826.8-761.2-3244.3-2167.7-2167.7-3244.3-761.2-3826.8v-26000l761.2-3826.8 2167.7-3244.3 3244.3-2167.7 3826.8-761.2zM16665000 5657500l3826.8 761.2 3244.3 2167.7 2167.7 3244.3 761.2 3826.8v26000l-761.2 3826.8-2167.7 3244.3-3244.3 2167.7-3826.8 761.2h-20000l-3826.8-761.2-3244.3-2167.7-2167.7-3244.3-761.2-3826.8v-26000l761.2-3826.8 2167.7-3244.3 3244.3-2167.7 3826.8-761.2zM16665000 5721500l3826.8 761.2 3244.3 2167.7 2167.7 3244.3 761.2 3826.8v26000l-761.2 3826.8-2167.7 3244.3-3244.3 2167.7-3826.8 761.2h-20000l-3826.8-761.2-3244.3-2167.7-2167.7-3244.3-761.2-3826.8v-26000l761.2-3826.8 2167.7-3244.3 3244.3-2167.7 3826.8-761.2zM17235000 5995000l3826.8 761.2 3244.3 2167.7 2167.7 3244.3 761.2 3826.8v26000l-761.2 3826.8-2167.7 3244.3-3244.3 2167.7-3826.8 761.2h-20000l-3826.8-761.2-3244.3-2167.7-2167.7-3244.3-761.2-3826.8v-26000l761.2-3826.8 2167.7-3244.3 3244.3-2167.7 3826.8-761.2zM17235000 6059000l3826.8 761.2 3244.3 2167.7 2167.7 3244.3 761.2 3826.8v26000l-761.2 3826.8-2167.7 3244.3-3244.3 2167.7-3826.8 761.2h-20000l-3826.8-761.2-3244.3-2167.7-2167.7-3244.3-761.2-3826.8v-26000l761.2-3826.8 2167.7-3244.3 3244.3-2167.7 3826.8-761.2zM17045000 5663750l5740.3 1141.8 4866.3 3251.6 3251.6 4866.3 1141.8 5740.3v117500l-1141.8 5740.3-3251.6 4866.3-4866.3 3251.6-5740.3 1141.8h-30000l-5740.3-1141.8-4866.3-3251.6-3251.6-4866.3-1141.8-5740.3v-117500l1141.8-5740.3 3251.6-4866.3 4866.3-3251.6 5740.3-1141.8zM16855000 5663750l5740.3 1141.8 4866.3 3251.6 3251.6 4866.3 1141.8 5740.3v117500l-1141.8 5740.3-3251.6 4866.3-4866.3 3251.6-5740.3 1141.8h-30000l-5740.3-1141.8-4866.3-3251.6-3251.6-4866.3-1141.8-5740.3v-117500l1141.8-5740.3 3251.6-4866.3 4866.3-3251.6 5740.3-1141.8zM16950000 5851250l5740.3 1141.8 4866.3 3251.6 3251.6 4866.3 1141.8 5740.3v117500l-1141.8 5740.3-3251.6 4866.3-4866.3 3251.6-5740.3 1141.8h-30000l-5740.3-1141.8-4866.3-3251.6-3251.6-4866.3-1141.8-5740.3v-117500l1141.8-5740.3 3251.6-4866.3 4866.3-3251.6 5740.3-1141.8zM17040000 6076250l5740.3 1141.8 4866.3 3251.6 3251.6 4866.3 1141.8 5740.3v117500l-1141.8 5740.3-3251.6 4866.3-4866.3 3251.6-5740.3 1141.8h-30000l-5740.3-1141.8-4866.3-3251.6-3251.6-4866.3-1141.8-5740.3v-117500l1141.8-5740.3 3251.6-4866.3 4866.3-3251.6 5740.3-1141.8zM16850000 6076250l5740.3 1141.8 4866.3 3251.6 3251.6 4866.3 1141.8 5740.3v117500l-1141.8 5740.3-3251.6 4866.3-4866.3 3251.6-5740.3 1141.8h-30000l-5740.3-1141.8-4866.3-3251.6-3251.6-4866.3-1141.8-5740.3v-117500l1141.8-5740.3 3251.6-4866.3 4866.3-3251.6 5740.3-1141.8zM16945000 6263750l5740.3 1141.8 4866.3 3251.6 3251.6 4866.3 1141.8 5740.3v117500l-1141.8 5740.3-3251.6 4866.3-4866.3 3251.6-5740.3 1141.8h-30000l-5740.3-1141.8-4866.3-3251.6-3251.6-4866.3-1141.8-5740.3v-117500l1141.8-5740.3 3251.6-4866.3 4866.3-3251.6 5740.3-1141.8zM16308500 5884500l-1065.7 5357.6-3034.8 4541.9-4541.9 3034.8-5357.6 1065.7h-28000l-5357.6-1065.7-4541.9-3034.8-3034.8-4541.9-1065.7-5357.6v-34000l1065.7-5357.6 3034.8-4541.9 4541.9-3034.8 5357.6-1065.7h28000l5357.6 1065.7 4541.9 3034.8 3034.8 4541.9 1065.7 5357.6zM16212500 5884500l-1065.7 5357.6-3034.8 4541.9-4541.9 3034.8-5357.6 1065.7h-28000l-5357.6-1065.7-4541.9-3034.8-3034.8-4541.9-1065.7-5357.6v-34000l1065.7-5357.6 3034.8-4541.9 4541.9-3034.8 5357.6-1065.7h28000l5357.6 1065.7 4541.9 3034.8 3034.8 4541.9 1065.7 5357.6zM17035000 4838750l5740.3 1141.8 4866.3 3251.6 3251.6 4866.3 1141.8 5740.3v117500l-1141.8 5740.3-3251.6 4866.3-4866.3 3251.6-5740.3 1141.8h-30000l-5740.3-1141.8-4866.3-3251.6-3251.6-4866.3-1141.8-5740.3v-117500l1141.8-5740.3 3251.6-4866.3 4866.3-3251.6 5740.3-1141.8zM16845000 4838750l5740.3 1141.8 4866.3 3251.6 3251.6 4866.3 1141.8 5740.3v117500l-1141.8 5740.3-3251.6 4866.3-4866.3 3251.6-5740.3 1141.8h-30000l-5740.3-1141.8-4866.3-3251.6-3251.6-4866.3-1141.8-5740.3v-117500l1141.8-5740.3 3251.6-4866.3 4866.3-3251.6 5740.3-1141.8zM16940000 5026250l5740.3 1141.8 4866.3 3251.6 3251.6 4866.3 1141.8 5740.3v117500l-1141.8 5740.3-3251.6 4866.3-4866.3 3251.6-5740.3 1141.8h-30000l-5740.3-1141.8-4866.3-3251.6-3251.6-4866.3-1141.8-5740.3v-117500l1141.8-5740.3 3251.6-4866.3 4866.3-3251.6 5740.3-1141.8zM16665000 4814500l3826.8 761.2 3244.3 2167.7 2167.7 3244.3 761.2 3826.8v26000l-761.2 3826.8-2167.7 3244.3-3244.3 2167.7-3826.8 761.2h-20000l-3826.8-761.2-3244.3-2167.7-2167.7-3244.3-761.2-3826.8v-26000l761.2-3826.8 2167.7-3244.3 3244.3-2167.7 3826.8-761.2zM16665000 4878500l3826.8 761.2 3244.3 2167.7 2167.7 3244.3 761.2 3826.8v26000l-761.2 3826.8-2167.7 3244.3-3244.3 2167.7-3826.8 761.2h-20000l-3826.8-761.2-3244.3-2167.7-2167.7-3244.3-761.2-3826.8v-26000l761.2-3826.8 2167.7-3244.3 3244.3-2167.7 3826.8-761.2z"/></g></g><g stroke-linecap="round" stroke-linejoin="round" fill="#212d53" stroke="#212d53"><g stroke-width=".1"><path d="M17440000 5069000v-170000h170000v170000z" fill-rule="evenodd"/><circle cx="17525000" cy="5238000" r="85000"/><circle cx="17525000" cy="5492000" r="85000"/><circle cx="17525000" cy="5746000" r="85000"/><circle cx="17525000" cy="6000000" r="85000"/><circle cx="17525000" cy="6254000" r="85000"/><g fill-rule="evenodd"><path d="m16220000 5173750-5740.3-1141.8-4866.3-3251.6-3251.6-4866.3-1141.8-5740.3v-117500l1141.8-5740.3 3251.6-4866.3 4866.3-3251.6 5740.3-1141.8h30000l5740.3 1141.8 4866.3 3251.6 3251.6 4866.3 1141.8 5740.3v117500l-1141.8 5740.3-3251.6 4866.3-4866.3 3251.6-5740.3 1141.8zM16410000 5173750l-5740.3-1141.8-4866.3-3251.6-3251.6-4866.3-1141.8-5740.3v-117500l1141.8-5740.3 3251.6-4866.3 4866.3-3251.6 5740.3-1141.8h30000l5740.3 1141.8 4866.3 3251.6 3251.6 4866.3 1141.8 5740.3v117500l-1141.8 5740.3-3251.6 4866.3-4866.3 3251.6-5740.3 1141.8zM16315000 4986250l-5740.3-1141.8-4866.3-3251.6-3251.6-4866.3-1141.8-5740.3v-117500l1141.8-5740.3 3251.6-4866.3 4866.3-3251.6 5740.3-1141.8h30000l5740.3 1141.8 4866.3 3251.6 3251.6 4866.3 1141.8 5740.3v117500l-1141.8 5740.3-3251.6 4866.3-4866.3 3251.6-5740.3 1141.8zM16665000 5242000l3826.8 761.2 3244.3 2167.7 2167.7 3244.3 761.2 3826.8v26000l-761.2 3826.8-2167.7 3244.3-3244.3 2167.7-3826.8 761.2h-20000l-3826.8-761.2-3244.3-2167.7-2167.7-3244.3-761.2-3826.8v-26000l761.2-3826.8 2167.7-3244.3 3244.3-2167.7 3826.8-761.2zM16665000 5306000l3826.8 761.2 3244.3 2167.7 2167.7 3244.3 761.2 3826.8v26000l-761.2 3826.8-2167.7 3244.3-3244.3 2167.7-3826.8 761.2h-20000l-3826.8-761.2-3244.3-2167.7-2167.7-3244.3-761.2-3826.8v-26000l761.2-3826.8 2167.7-3244.3 3244.3-2167.7 3826.8-761.2zM17235000 5235500l3826.8 761.2 3244.3 2167.7 2167.7 3244.3 761.2 3826.8v26000l-761.2 3826.8-2167.7 3244.3-3244.3 2167.7-3826.8 761.2h-20000l-3826.8-761.2-3244.3-2167.7-2167.7-3244.3-761.2-3826.8v-26000l761.2-3826.8 2167.7-3244.3 3244.3-2167.7 3826.8-761.2zM17235000 5299500l3826.8 761.2 3244.3 2167.7 2167.7 3244.3 761.2 3826.8v26000l-761.2 3826.8-2167.7 3244.3-3244.3 2167.7-3826.8 761.2h-20000l-3826.8-761.2-3244.3-2167.7-2167.7-3244.3-761.2-3826.8v-26000l761.2-3826.8 2167.7-3244.3 3244.3-2167.7 3826.8-761.2zM16097000 4834500l5357.6 1065.7 4541.9 3034.8 3034.8 4541.9 1065.7 5357.6v28000l-1065.7 5357.6-3034.8 4541.9-4541.9 3034.8-5357.6 1065.7h-34000l-5357.6-1065.7-4541.9-3034.8-3034.8-4541.9-1065.7-5357.6v-28000l1065.7-5357.6 3034.8-4541.9 4541.9-3034.8 5357.6-1065.7zM16097000 4930500l5357.6 1065.7 4541.9 3034.8 3034.8 4541.9 1065.7 5357.6v28000l-1065.7 5357.6-3034.8 4541.9-4541.9 3034.8-5357.6 1065.7h-34000l-5357.6-1065.7-4541.9-3034.8-3034.8-4541.9-1065.7-5357.6v-28000l1065.7-5357.6 3034.8-4541.9 4541.9-3034.8 5357.6-1065.7zM17040000 5251250l5740.3 1141.8 4866.3 3251.6 3251.6 4866.3 1141.8 5740.3v117500l-1141.8 5740.3-3251.6 4866.3-4866.3 3251.6-5740.3 1141.8h-30000l-5740.3-1141.8-4866.3-3251.6-3251.6-4866.3-1141.8-5740.3v-117500l1141.8-5740.3 3251.6-4866.3 4866.3-3251.6 5740.3-1141.8zM16850000 5251250l5740.3 1141.8 4866.3 3251.6 3251.6 4866.3 1141.8 5740.3v117500l-1141.8 5740.3-3251.6 4866.3-4866.3 3251.6-5740.3 1141.8h-30000l-5740.3-1141.8-4866.3-3251.6-3251.6-4866.3-1141.8-5740.3v-117500l1141.8-5740.3 3251.6-4866.3 4866.3-3251.6 5740.3-1141.8zM16945000 5438750l5740.3 1141.8 4866.3 3251.6 3251.6 4866.3 1141.8 5740.3v117500l-1141.8 5740.3-3251.6 4866.3-4866.3 3251.6-5740.3 1141.8h-30000l-5740.3-1141.8-4866.3-3251.6-3251.6-4866.3-1141.8-5740.3v-117500l1141.8-5740.3 3251.6-4866.3 4866.3-3251.6 5740.3-1141.8zM17235000 5727000l3826.8 761.2 3244.3 2167.7 2167.7 3244.3 761.2 3826.8v26000l-761.2 3826.8-2167.7 3244.3-3244.3 2167.7-3826.8 761.2h-20000l-3826.8-761.2-3244.3-2167.7-2167.7-3244.3-761.2-3826.8v-26000l761.2-3826.8 2167.7-3244.3 3244.3-2167.7 3826.8-761.2zM17235000 5791000l3826.8 761.2 3244.3 2167.7 2167.7 3244.3 761.2 3826.8v26000l-761.2 3826.8-2167.7 3244.3-3244.3 2167.7-3826.8 761.2h-20000l-3826.8-761.2-3244.3-2167.7-2167.7-3244.3-761.2-3826.8v-26000l761.2-3826.8 2167.7-3244.3 3244.3-2167.7 3826.8-761.2zM16177500 5587500h-35000v-50000h35000zM16242500 5587500h-35000v-50000h35000zM16307500 5587500h-35000v-50000h35000zM16372500 5587500h-35000v-50000h35000zM16372500 5747500h-35000v-50000h35000zM16307500 5747500h-35000v-50000h35000zM16242500 5747500h-35000v-50000h35000zM16177500 5747500h-35000v-50000h35000zM16665000 6057500l3826.8 761.2 3244.3 2167.7 2167.7 3244.3 761.2 3826.8v26000l-761.2 3826.8-2167.7 3244.3-3244.3 2167.7-3826.8 761.2h-20000l-3826.8-761.2-3244.3-2167.7-2167.7-3244.3-761.2-3826.8v-26000l761.2-3826.8 2167.7-3244.3 3244.3-2167.7 3826.8-761.2zM16665000 6121500l3826.8 761.2 3244.3 2167.7 2167.7 3244.3 761.2 3826.8v26000l-761.2 3826.8-2167.7 3244.3-3244.3 2167.7-3826.8 761.2h-20000l-3826.8-761.2-3244.3-2167.7-2167.7-3244.3-761.2-3826.8v-26000l761.2-3826.8 2167.7-3244.3 3244.3-2167.7 3826.8-761.2zM16403000 5342000l-1065.7 5357.6-3034.8 4541.9-4541.9 3034.8-5357.6 1065.7h-28000l-5357.6-1065.7-4541.9-3034.8-3034.8-4541.9-1065.7-5357.6v-34000l1065.7-5357.6 3034.8-4541.9 4541.9-3034.8 5357.6-1065.7h28000l5357.6 1065.7 4541.9 3034.8 3034.8 4541.9 1065.7 5357.6zM16307000 5342000l-1065.7 5357.6-3034.8 4541.9-4541.9 3034.8-5357.6 1065.7h-28000l-5357.6-1065.7-4541.9-3034.8-3034.8-4541.9-1065.7-5357.6v-34000l1065.7-5357.6 3034.8-4541.9 4541.9-3034.8 5357.6-1065.7h28000l5357.6 1065.7 4541.9 3034.8 3034.8 4541.9 1065.7 5357.6zM17235000 5485500l3826.8 761.2 3244.3 2167.7 2167.7 3244.3 761.2 3826.8v26000l-761.2 3826.8-2167.7 3244.3-3244.3 2167.7-3826.8 761.2h-20000l-3826.8-761.2-3244.3-2167.7-2167.7-3244.3-761.2-3826.8v-26000l761.2-3826.8 2167.7-3244.3 3244.3-2167.7 3826.8-761.2zM17235000 5549500l3826.8 761.2 3244.3 2167.7 2167.7 3244.3 761.2 3826.8v26000l-761.2 3826.8-2167.7 3244.3-3244.3 2167.7-3826.8 761.2h-20000l-3826.8-761.2-3244.3-2167.7-2167.7-3244.3-761.2-3826.8v-26000l761.2-3826.8 2167.7-3244.3 3244.3-2167.7 3826.8-761.2zM16665000 5657500l3826.8 761.2 3244.3 2167.7 2167.7 3244.3 761.2 3826.8v26000l-761.2 3826.8-2167.7 3244.3-3244.3 2167.7-3826.8 761.2h-20000l-3826.8-761.2-3244.3-2167.7-2167.7-3244.3-761.2-3826.8v-26000l761.2-3826.8 2167.7-3244.3 3244.3-2167.7 3826.8-761.2zM16665000 5721500l3826.8 761.2 3244.3 2167.7 2167.7 3244.3 761.2 3826.8v26000l-761.2 3826.8-2167.7 3244.3-3244.3 2167.7-3826.8 761.2h-20000l-3826.8-761.2-3244.3-2167.7-2167.7-3244.3-761.2-3826.8v-26000l761.2-3826.8 2167.7-3244.3 3244.3-2167.7 3826.8-761.2zM17235000 5995000l3826.8 761.2 3244.3 2167.7 2167.7 3244.3 761.2 3826.8v26000l-761.2 3826.8-2167.7 3244.3-3244.3 2167.7-3826.8 761.2h-20000l-3826.8-761.2-3244.3-2167.7-2167.7-3244.3-761.2-3826.8v-26000l761.2-3826.8 2167.7-3244.3 3244.3-2167.7 3826.8-761.2zM17235000 6059000l3826.8 761.2 3244.3 2167.7 2167.7 3244.3 761.2 3826.8v26000l-761.2 3826.8-2167.7 3244.3-3244.3 2167.7-3826.8 761.2h-20000l-3826.8-761.2-3244.3-2167.7-2167.7-3244.3-761.2-3826.8v-26000l761.2-3826.8 2167.7-3244.3 3244.3-2167.7 3826.8-761.2zM17045000 5663750l5740.3 1141.8 4866.3 3251.6 3251.6 4866.3 1141.8 5740.3v117500l-1141.8 5740.3-3251.6 4866.3-4866.3 3251.6-5740.3 1141.8h-30000l-5740.3-1141.8-4866.3-3251.6-3251.6-4866.3-1141.8-5740.3v-117500l1141.8-5740.3 3251.6-4866.3 4866.3-3251.6 5740.3-1141.8zM16855000 5663750l5740.3 1141.8 4866.3 3251.6 3251.6 4866.3 1141.8 5740.3v117500l-1141.8 5740.3-3251.6 4866.3-4866.3 3251.6-5740.3 1141.8h-30000l-5740.3-1141.8-4866.3-3251.6-3251.6-4866.3-1141.8-5740.3v-117500l1141.8-5740.3 3251.6-4866.3 4866.3-3251.6 5740.3-1141.8zM16950000 5851250l5740.3 1141.8 4866.3 3251.6 3251.6 4866.3 1141.8 5740.3v117500l-1141.8 5740.3-3251.6 4866.3-4866.3 3251.6-5740.3 1141.8h-30000l-5740.3-1141.8-4866.3-3251.6-3251.6-4866.3-1141.8-5740.3v-117500l1141.8-5740.3 3251.6-4866.3 4866.3-3251.6 5740.3-1141.8zM17040000 6076250l5740.3 1141.8 4866.3 3251.6 3251.6 4866.3 1141.8 5740.3v117500l-1141.8 5740.3-3251.6 4866.3-4866.3 3251.6-5740.3 1141.8h-30000l-5740.3-1141.8-4866.3-3251.6-3251.6-4866.3-1141.8-5740.3v-117500l1141.8-5740.3 3251.6-4866.3 4866.3-3251.6 5740.3-1141.8zM16850000 6076250l5740.3 1141.8 4866.3 3251.6 3251.6 4866.3 1141.8 5740.3v117500l-1141.8 5740.3-3251.6 4866.3-4866.3 3251.6-5740.3 1141.8h-30000l-5740.3-1141.8-4866.3-3251.6-3251.6-4866.3-1141.8-5740.3v-117500l1141.8-5740.3 3251.6-4866.3 4866.3-3251.6 5740.3-1141.8zM16945000 6263750l5740.3 1141.8 4866.3 3251.6 3251.6 4866.3 1141.8 5740.3v117500l-1141.8 5740.3-3251.6 4866.3-4866.3 3251.6-5740.3 1141.8h-30000l-5740.3-1141.8-4866.3-3251.6-3251.6-4866.3-1141.8-5740.3v-117500l1141.8-5740.3 3251.6-4866.3 4866.3-3251.6 5740.3-1141.8zM16308500 5884500l-1065.7 5357.6-3034.8 4541.9-4541.9 3034.8-5357.6 1065.7h-28000l-5357.6-1065.7-4541.9-3034.8-3034.8-4541.9-1065.7-5357.6v-34000l1065.7-5357.6 3034.8-4541.9 4541.9-3034.8 5357.6-1065.7h28000l5357.6 1065.7 4541.9 3034.8 3034.8 4541.9 1065.7 5357.6zM16212500 5884500l-1065.7 5357.6-3034.8 4541.9-4541.9 3034.8-5357.6 1065.7h-28000l-5357.6-1065.7-4541.9-3034.8-3034.8-4541.9-1065.7-5357.6v-34000l1065.7-5357.6 3034.8-4541.9 4541.9-3034.8 5357.6-1065.7h28000l5357.6 1065.7 4541.9 3034.8 3034.8 4541.9 1065.7 5357.6zM17035000 4838750l5740.3 1141.8 4866.3 3251.6 3251.6 4866.3 1141.8 5740.3v117500l-1141.8 5740.3-3251.6 4866.3-4866.3 3251.6-5740.3 1141.8h-30000l-5740.3-1141.8-4866.3-3251.6-3251.6-4866.3-1141.8-5740.3v-117500l1141.8-5740.3 3251.6-4866.3 4866.3-3251.6 5740.3-1141.8zM16845000 4838750l5740.3 1141.8 4866.3 3251.6 3251.6 4866.3 1141.8 5740.3v117500l-1141.8 5740.3-3251.6 4866.3-4866.3 3251.6-5740.3 1141.8h-30000l-5740.3-1141.8-4866.3-3251.6-3251.6-4866.3-1141.8-5740.3v-117500l1141.8-5740.3 3251.6-4866.3 4866.3-3251.6 5740.3-1141.8zM16940000 5026250l5740.3 1141.8 4866.3 3251.6 3251.6 4866.3 1141.8 5740.3v117500l-1141.8 5740.3-3251.6 4866.3-4866.3 3251.6-5740.3 1141.8h-30000l-5740.3-1141.8-4866.3-3251.6-3251.6-4866.3-1141.8-5740.3v-117500l1141.8-5740.3 3251.6-4866.3 4866.3-3251.6 5740.3-1141.8zM16665000 4814500l3826.8 761.2 3244.3 2167.7 2167.7 3244.3 761.2 3826.8v26000l-761.2 3826.8-2167.7 3244.3-3244.3 2167.7-3826.8 761.2h-20000l-3826.8-761.2-3244.3-2167.7-2167.7-3244.3-761.2-3826.8v-26000l761.2-3826.8 2167.7-3244.3 3244.3-2167.7 3826.8-761.2zM16665000 4878500l3826.8 761.2 3244.3 2167.7 2167.7 3244.3 761.2 3826.8v26000l-761.2 3826.8-2167.7 3244.3-3244.3 2167.7-3826.8 761.2h-20000l-3826.8-761.2-3244.3-2167.7-2167.7-3244.3-761.2-3826.8v-26000l761.2-3826.8 2167.7-3244.3 3244.3-2167.7 3826.8-761.2z"/></g></g><g fill-opacity="0" stroke-width="25000" fill="none"><path d="M17225000 5750000h19104M17642500 6048670v-216170M17600000 5875000l42500-42500M17244104 5750000l125000 125000M17604500 5355500l38000-38000M17360000 5258500l97000 97000M17250000 4750000l-50000-50000M17457329 5355500h147171M17625000 5625000l17500-17500M17368000 6018000l107000 107000M17225000 5258500h135329M16280000 4862500l50000 50000M17566170 6125000l76330-76330M17200000 4700000h-750000M17642500 5101500l-117500-117500M17491829 5625000h133171M17525000 4984000h-191000M16450000 4700000l-120000 120000M16330000 4820000v92500M17334000 4984000l-84000-84000M17475000 6125000h91170M17642500 5607500v-506000M17250000 4900000v-150000M17375329 5508500l116500 116500M17225000 5508500h150329M17642500 5832500v-225000M16080000 4862500h200000M17225000 6018000h143000M17369104 5875000h230896M16080000 4958500h13500M16225000 5325000l-65000 65000M17462000 5175000l63000 63000M17175000 5050000l125000 125000M16283425 5100000l145787-145788M16225000 5722500v104500M17175000 4800000v250000M16160000 5562500v47500M17300000 5175000h162000M16429212 4820787l70788-70787M16429212 4954212v-133425M16225000 5675000v47500M16225000 5827000l-40500 40500M16279000 5325000h-54000M16235000 5100000h48425M16160000 5610000l65000 65000M16235000 5281000l44000 44000M16235000 5100000v181000M17125000 4750000l50000 50000M16500000 4750000h625000M16093500 4958500l141500 141500M16160000 5390000v172500M16737500 4837500l37500-37500M17025000 6150000h-49075M16775000 5625000h50000M16825000 5625000h92500M16280000 5919500v-52000M16775000 4800000h150000M16825000 5200000h50000M16655000 4837500h82500M16160000 5722500l-36000 36000M16875000 5200000l125000 125000M16825000 5200000v-141575M16917500 5625000l112500 112500M16925000 4800000l95000 95000M17000000 6150000h25000M16980925 5737500h49075M16425000 5100000l100000-100000M16970925 4912500h49075M16655000 5680500h64500M16525000 4850000l12500-12500M17020000 4895000v17500M16800000 6025000h50000M16850000 5868425l130925-130925M16375000 5150000l50000-50000M16875000 6025000l125000 125000M16720000 5680500l55500-55500M16525000 5000000v-150000M16124000 5924000l26000 26000M16290000 5722500v135500M16976574 5325000h48426M16975925 6150000l-150000 150000M16375000 5325000v-175000M16600000 6300000l-350000-350000M16655000 6080500h89500M16290000 5858000l-9500 9500M16124000 5758500v165500M16825000 5476574l151574-151574M16850000 6025000h25000M16655000 5265000l65000-65000M16825000 5058425l145925-145925M16537500 4837500h117500M16150000 5950000h100000M17000000 5325000h25000M16744500 6080500l55500-55500M16825000 5625000v-148426M16825925 6300000h-225925M16850000 6025000v-156575M16720000 5200000h105000M16250000 5950000l30500-30500M17225000 5322500h-27500M17525000 5492000l-92000-92000M17150000 5150000l-50000-50000M17302500 5400000l-77500-77500M17100000 5100000h-175000M17433000 5400000h-130500M17150000 5275000v-125000M17197500 5322500l-47500-47500M17225000 5572500h-27500M17375000 5722500v2500M17197500 5572500l-60000-60000M17225000 5572500l150000 150000M17137500 5512500h-207500M17396000 5746000h129000M17375000 5725000l21000 21000M17125000 5950000h-165000M17300000 5950000l-75000-75000M17225000 5875000v-61000M16960000 5950000l-25000-25000M17200000 5875000l-75000 75000M17475000 6000000l-50000-50000M17525000 6000000h-50000M17225000 5875000h-25000M17425000 5950000h-125000M17397000 6254000l-172000-172000M16930000 6337500h132500M17225000 6175000v-93000M17525000 6254000h-128000M17062500 6337500l162500-162500M16275000 5665000h173639M16840000 5737500h-178000M16506819 5656819l93181 93181M16448639 5665000l8180-8181M16600000 5750000h49500M16650000 5750000l5500-5500M16456819 5656819h50000M16225000 5562500v48639M16275000 5661139v3861M16662000 5737500l-7000 7000M16225000 5611139l50000 50000M16830000 6144500l5500 5500M16355000 5905000v-182500M16655000 6144500h-60500M16655000 6144500h174500M16594500 6144500l-239500-239500M16655000 5395000v-66000M16430000 5620000l225000-225000M16290000 5562500v50000M16297500 5620000h132500M16655000 5329000h176000M16290000 5612500l7500 7500M16831000 5329000l4000-4000M16355000 5520000l195000-195000M16655000 4901500h164000M16655000 5020000v-118500M16819000 4901500l11000 11000M16550000 5125000l105000-105000M16550000 5325000v-200000M16355000 5562500v-42500"/></g></g><g stroke-linecap="round" stroke-linejoin="round" fill="#b5ae30" mask="url(#c)" stroke="#b5ae30"><g stroke-width=".1"><path d="M17440000 5069000v-170000h170000v170000z" fill-rule="evenodd"/><circle cx="17525000" cy="5238000" r="85000"/><circle cx="17525000" cy="5492000" r="85000"/><circle cx="17525000" cy="5746000" r="85000"/><circle cx="17525000" cy="6000000" r="85000"/><circle cx="17525000" cy="6254000" r="85000"/><g fill-rule="evenodd"><path d="m16220000 5173750-5740.3-1141.8-4866.3-3251.6-3251.6-4866.3-1141.8-5740.3v-117500l1141.8-5740.3 3251.6-4866.3 4866.3-3251.6 5740.3-1141.8h30000l5740.3 1141.8 4866.3 3251.6 3251.6 4866.3 1141.8 5740.3v117500l-1141.8 5740.3-3251.6 4866.3-4866.3 3251.6-5740.3 1141.8zM16410000 5173750l-5740.3-1141.8-4866.3-3251.6-3251.6-4866.3-1141.8-5740.3v-117500l1141.8-5740.3 3251.6-4866.3 4866.3-3251.6 5740.3-1141.8h30000l5740.3 1141.8 4866.3 3251.6 3251.6 4866.3 1141.8 5740.3v117500l-1141.8 5740.3-3251.6 4866.3-4866.3 3251.6-5740.3 1141.8zM16315000 4986250l-5740.3-1141.8-4866.3-3251.6-3251.6-4866.3-1141.8-5740.3v-117500l1141.8-5740.3 3251.6-4866.3 4866.3-3251.6 5740.3-1141.8h30000l5740.3 1141.8 4866.3 3251.6 3251.6 4866.3 1141.8 5740.3v117500l-1141.8 5740.3-3251.6 4866.3-4866.3 3251.6-5740.3 1141.8zM16665000 5242000l3826.8 761.2 3244.3 2167.7 2167.7 3244.3 761.2 3826.8v26000l-761.2 3826.8-2167.7 3244.3-3244.3 2167.7-3826.8 761.2h-20000l-3826.8-761.2-3244.3-2167.7-2167.7-3244.3-761.2-3826.8v-26000l761.2-3826.8 2167.7-3244.3 3244.3-2167.7 3826.8-761.2zM16665000 5306000l3826.8 761.2 3244.3 2167.7 2167.7 3244.3 761.2 3826.8v26000l-761.2 3826.8-2167.7 3244.3-3244.3 2167.7-3826.8 761.2h-20000l-3826.8-761.2-3244.3-2167.7-2167.7-3244.3-761.2-3826.8v-26000l761.2-3826.8 2167.7-3244.3 3244.3-2167.7 3826.8-761.2zM17235000 5235500l3826.8 761.2 3244.3 2167.7 2167.7 3244.3 761.2 3826.8v26000l-761.2 3826.8-2167.7 3244.3-3244.3 2167.7-3826.8 761.2h-20000l-3826.8-761.2-3244.3-2167.7-2167.7-3244.3-761.2-3826.8v-26000l761.2-3826.8 2167.7-3244.3 3244.3-2167.7 3826.8-761.2zM17235000 5299500l3826.8 761.2 3244.3 2167.7 2167.7 3244.3 761.2 3826.8v26000l-761.2 3826.8-2167.7 3244.3-3244.3 2167.7-3826.8 761.2h-20000l-3826.8-761.2-3244.3-2167.7-2167.7-3244.3-761.2-3826.8v-26000l761.2-3826.8 2167.7-3244.3 3244.3-2167.7 3826.8-761.2zM16097000 4834500l5357.6 1065.7 4541.9 3034.8 3034.8 4541.9 1065.7 5357.6v28000l-1065.7 5357.6-3034.8 4541.9-4541.9 3034.8-5357.6 1065.7h-34000l-5357.6-1065.7-4541.9-3034.8-3034.8-4541.9-1065.7-5357.6v-28000l1065.7-5357.6 3034.8-4541.9 4541.9-3034.8 5357.6-1065.7zM16097000 4930500l5357.6 1065.7 4541.9 3034.8 3034.8 4541.9 1065.7 5357.6v28000l-1065.7 5357.6-3034.8 4541.9-4541.9 3034.8-5357.6 1065.7h-34000l-5357.6-1065.7-4541.9-3034.8-3034.8-4541.9-1065.7-5357.6v-28000l1065.7-5357.6 3034.8-4541.9 4541.9-3034.8 5357.6-1065.7zM17040000 5251250l5740.3 1141.8 4866.3 3251.6 3251.6 4866.3 1141.8 5740.3v117500l-1141.8 5740.3-3251.6 4866.3-4866.3 3251.6-5740.3 1141.8h-30000l-5740.3-1141.8-4866.3-3251.6-3251.6-4866.3-1141.8-5740.3v-117500l1141.8-5740.3 3251.6-4866.3 4866.3-3251.6 5740.3-1141.8zM16850000 5251250l5740.3 1141.8 4866.3 3251.6 3251.6 4866.3 1141.8 5740.3v117500l-1141.8 5740.3-3251.6 4866.3-4866.3 3251.6-5740.3 1141.8h-30000l-5740.3-1141.8-4866.3-3251.6-3251.6-4866.3-1141.8-5740.3v-117500l1141.8-5740.3 3251.6-4866.3 4866.3-3251.6 5740.3-1141.8zM16945000 5438750l5740.3 1141.8 4866.3 3251.6 3251.6 4866.3 1141.8 5740.3v117500l-1141.8 5740.3-3251.6 4866.3-4866.3 3251.6-5740.3 1141.8h-30000l-5740.3-1141.8-4866.3-3251.6-3251.6-4866.3-1141.8-5740.3v-117500l1141.8-5740.3 3251.6-4866.3 4866.3-3251.6 5740.3-1141.8zM17235000 5727000l3826.8 761.2 3244.3 2167.7 2167.7 3244.3 761.2 3826.8v26000l-761.2 3826.8-2167.7 3244.3-3244.3 2167.7-3826.8 761.2h-20000l-3826.8-761.2-3244.3-2167.7-2167.7-3244.3-761.2-3826.8v-26000l761.2-3826.8 2167.7-3244.3 3244.3-2167.7 3826.8-761.2zM17235000 5791000l3826.8 761.2 3244.3 2167.7 2167.7 3244.3 761.2 3826.8v26000l-761.2 3826.8-2167.7 3244.3-3244.3 2167.7-3826.8 761.2h-20000l-3826.8-761.2-3244.3-2167.7-2167.7-3244.3-761.2-3826.8v-26000l761.2-3826.8 2167.7-3244.3 3244.3-2167.7 3826.8-761.2zM16177500 5587500h-35000v-50000h35000zM16242500 5587500h-35000v-50000h35000zM16307500 5587500h-35000v-50000h35000zM16372500 5587500h-35000v-50000h35000zM16372500 5747500h-35000v-50000h35000zM16307500 5747500h-35000v-50000h35000zM16242500 5747500h-35000v-50000h35000zM16177500 5747500h-35000v-50000h35000zM16665000 6057500l3826.8 761.2 3244.3 2167.7 2167.7 3244.3 761.2 3826.8v26000l-761.2 3826.8-2167.7 3244.3-3244.3 2167.7-3826.8 761.2h-20000l-3826.8-761.2-3244.3-2167.7-2167.7-3244.3-761.2-3826.8v-26000l761.2-3826.8 2167.7-3244.3 3244.3-2167.7 3826.8-761.2zM16665000 6121500l3826.8 761.2 3244.3 2167.7 2167.7 3244.3 761.2 3826.8v26000l-761.2 3826.8-2167.7 3244.3-3244.3 2167.7-3826.8 761.2h-20000l-3826.8-761.2-3244.3-2167.7-2167.7-3244.3-761.2-3826.8v-26000l761.2-3826.8 2167.7-3244.3 3244.3-2167.7 3826.8-761.2zM16403000 5342000l-1065.7 5357.6-3034.8 4541.9-4541.9 3034.8-5357.6 1065.7h-28000l-5357.6-1065.7-4541.9-3034.8-3034.8-4541.9-1065.7-5357.6v-34000l1065.7-5357.6 3034.8-4541.9 4541.9-3034.8 5357.6-1065.7h28000l5357.6 1065.7 4541.9 3034.8 3034.8 4541.9 1065.7 5357.6zM16307000 5342000l-1065.7 5357.6-3034.8 4541.9-4541.9 3034.8-5357.6 1065.7h-28000l-5357.6-1065.7-4541.9-3034.8-3034.8-4541.9-1065.7-5357.6v-34000l1065.7-5357.6 3034.8-4541.9 4541.9-3034.8 5357.6-1065.7h28000l5357.6 1065.7 4541.9 3034.8 3034.8 4541.9 1065.7 5357.6zM17235000 5485500l3826.8 761.2 3244.3 2167.7 2167.7 3244.3 761.2 3826.8v26000l-761.2 3826.8-2167.7 3244.3-3244.3 2167.7-3826.8 761.2h-20000l-3826.8-761.2-3244.3-2167.7-2167.7-3244.3-761.2-3826.8v-26000l761.2-3826.8 2167.7-3244.3 3244.3-2167.7 3826.8-761.2zM17235000 5549500l3826.8 761.2 3244.3 2167.7 2167.7 3244.3 761.2 3826.8v26000l-761.2 3826.8-2167.7 3244.3-3244.3 2167.7-3826.8 761.2h-20000l-3826.8-761.2-3244.3-2167.7-2167.7-3244.3-761.2-3826.8v-26000l761.2-3826.8 2167.7-3244.3 3244.3-2167.7 3826.8-761.2zM16665000 5657500l3826.8 761.2 3244.3 2167.7 2167.7 3244.3 761.2 3826.8v26000l-761.2 3826.8-2167.7 3244.3-3244.3 2167.7-3826.8 761.2h-20000l-3826.8-761.2-3244.3-2167.7-2167.7-3244.3-761.2-3826.8v-26000l761.2-3826.8 2167.7-3244.3 3244.3-2167.7 3826.8-761.2zM16665000 5721500l3826.8 761.2 3244.3 2167.7 2167.7 3244.3 761.2 3826.8v26000l-761.2 3826.8-2167.7 3244.3-3244.3 2167.7-3826.8 761.2h-20000l-3826.8-761.2-3244.3-2167.7-2167.7-3244.3-761.2-3826.8v-26000l761.2-3826.8 2167.7-3244.3 3244.3-2167.7 3826.8-761.2zM17235000 5995000l3826.8 761.2 3244.3 2167.7 2167.7 3244.3 761.2 3826.8v26000l-761.2 3826.8-2167.7 3244.3-3244.3 2167.7-3826.8 761.2h-20000l-3826.8-761.2-3244.3-2167.7-2167.7-3244.3-761.2-3826.8v-26000l761.2-3826.8 2167.7-3244.3 3244.3-2167.7 3826.8-761.2zM17235000 6059000l3826.8 761.2 3244.3 2167.7 2167.7 3244.3 761.2 3826.8v26000l-761.2 3826.8-2167.7 3244.3-3244.3 2167.7-3826.8 761.2h-20000l-3826.8-761.2-3244.3-2167.7-2167.7-3244.3-761.2-3826.8v-26000l761.2-3826.8 2167.7-3244.3 3244.3-2167.7 3826.8-761.2zM17045000 5663750l5740.3 1141.8 4866.3 3251.6 3251.6 4866.3 1141.8 5740.3v117500l-1141.8 5740.3-3251.6 4866.3-4866.3 3251.6-5740.3 1141.8h-30000l-5740.3-1141.8-4866.3-3251.6-3251.6-4866.3-1141.8-5740.3v-117500l1141.8-5740.3 3251.6-4866.3 4866.3-3251.6 5740.3-1141.8zM16855000 5663750l5740.3 1141.8 4866.3 3251.6 3251.6 4866.3 1141.8 5740.3v117500l-1141.8 5740.3-3251.6 4866.3-4866.3 3251.6-5740.3 1141.8h-30000l-5740.3-1141.8-4866.3-3251.6-3251.6-4866.3-1141.8-5740.3v-117500l1141.8-5740.3 3251.6-4866.3 4866.3-3251.6 5740.3-1141.8zM16950000 5851250l5740.3 1141.8 4866.3 3251.6 3251.6 4866.3 1141.8 5740.3v117500l-1141.8 5740.3-3251.6 4866.3-4866.3 3251.6-5740.3 1141.8h-30000l-5740.3-1141.8-4866.3-3251.6-3251.6-4866.3-1141.8-5740.3v-117500l1141.8-5740.3 3251.6-4866.3 4866.3-3251.6 5740.3-1141.8zM17040000 6076250l5740.3 1141.8 4866.3 3251.6 3251.6 4866.3 1141.8 5740.3v117500l-1141.8 5740.3-3251.6 4866.3-4866.3 3251.6-5740.3 1141.8h-30000l-5740.3-1141.8-4866.3-3251.6-3251.6-4866.3-1141.8-5740.3v-117500l1141.8-5740.3 3251.6-4866.3 4866.3-3251.6 5740.3-1141.8zM16850000 6076250l5740.3 1141.8 4866.3 3251.6 3251.6 4866.3 1141.8 5740.3v117500l-1141.8 5740.3-3251.6 4866.3-4866.3 3251.6-5740.3 1141.8h-30000l-5740.3-1141.8-4866.3-3251.6-3251.6-4866.3-1141.8-5740.3v-117500l1141.8-5740.3 3251.6-4866.3 4866.3-3251.6 5740.3-1141.8zM16945000 6263750l5740.3 1141.8 4866.3 3251.6 3251.6 4866.3 1141.8 5740.3v117500l-1141.8 5740.3-3251.6 4866.3-4866.3 3251.6-5740.3 1141.8h-30000l-5740.3-1141.8-4866.3-3251.6-3251.6-4866.3-1141.8-5740.3v-117500l1141.8-5740.3 3251.6-4866.3 4866.3-3251.6 5740.3-1141.8zM16308500 5884500l-1065.7 5357.6-3034.8 4541.9-4541.9 3034.8-5357.6 1065.7h-28000l-5357.6-1065.7-4541.9-3034.8-3034.8-4541.9-1065.7-5357.6v-34000l1065.7-5357.6 3034.8-4541.9 4541.9-3034.8 5357.6-1065.7h28000l5357.6 1065.7 4541.9 3034.8 3034.8 4541.9 1065.7 5357.6zM16212500 5884500l-1065.7 5357.6-3034.8 4541.9-4541.9 3034.8-5357.6 1065.7h-28000l-5357.6-1065.7-4541.9-3034.8-3034.8-4541.9-1065.7-5357.6v-34000l1065.7-5357.6 3034.8-4541.9 4541.9-3034.8 5357.6-1065.7h28000l5357.6 1065.7 4541.9 3034.8 3034.8 4541.9 1065.7 5357.6zM17035000 4838750l5740.3 1141.8 4866.3 3251.6 3251.6 4866.3 1141.8 5740.3v117500l-1141.8 5740.3-3251.6 4866.3-4866.3 3251.6-5740.3 1141.8h-30000l-5740.3-1141.8-4866.3-3251.6-3251.6-4866.3-1141.8-5740.3v-117500l1141.8-5740.3 3251.6-4866.3 4866.3-3251.6 5740.3-1141.8zM16845000 4838750l5740.3 1141.8 4866.3 3251.6 3251.6 4866.3 1141.8 5740.3v117500l-1141.8 5740.3-3251.6 4866.3-4866.3 3251.6-5740.3 1141.8h-30000l-5740.3-1141.8-4866.3-3251.6-3251.6-4866.3-1141.8-5740.3v-117500l1141.8-5740.3 3251.6-4866.3 4866.3-3251.6 5740.3-1141.8zM16940000 5026250l5740.3 1141.8 4866.3 3251.6 3251.6 4866.3 1141.8 5740.3v117500l-1141.8 5740.3-3251.6 4866.3-4866.3 3251.6-5740.3 1141.8h-30000l-5740.3-1141.8-4866.3-3251.6-3251.6-4866.3-1141.8-5740.3v-117500l1141.8-5740.3 3251.6-4866.3 4866.3-3251.6 5740.3-1141.8zM16665000 4814500l3826.8 761.2 3244.3 2167.7 2167.7 3244.3 761.2 3826.8v26000l-761.2 3826.8-2167.7 3244.3-3244.3 2167.7-3826.8 761.2h-20000l-3826.8-761.2-3244.3-2167.7-2167.7-3244.3-761.2-3826.8v-26000l761.2-3826.8 2167.7-3244.3 3244.3-2167.7 3826.8-761.2zM16665000 4878500l3826.8 761.2 3244.3 2167.7 2167.7 3244.3 761.2 3826.8v26000l-761.2 3826.8-2167.7 3244.3-3244.3 2167.7-3826.8 761.2h-20000l-3826.8-761.2-3244.3-2167.7-2167.7-3244.3-761.2-3826.8v-26000l761.2-3826.8 2167.7-3244.3 3244.3-2167.7 3826.8-761.2z"/></g></g><g fill-opacity="0" stroke-width="25000" fill="none"><path d="M17225000 5750000h19104M17642500 6048670v-216170M17600000 5875000l42500-42500M17244104 5750000l125000 125000M17604500 5355500l38000-38000M17360000 5258500l97000 97000M17250000 4750000l-50000-50000M17457329 5355500h147171M17625000 5625000l17500-17500M17368000 6018000l107000 107000M17225000 5258500h135329M16280000 4862500l50000 50000M17566170 6125000l76330-76330M17200000 4700000h-750000M17642500 5101500l-117500-117500M17491829 5625000h133171M17525000 4984000h-191000M16450000 4700000l-120000 120000M16330000 4820000v92500M17334000 4984000l-84000-84000M17475000 6125000h91170M17642500 5607500v-506000M17250000 4900000v-150000M17375329 5508500l116500 116500M17225000 5508500h150329M17642500 5832500v-225000M16080000 4862500h200000M17225000 6018000h143000M17369104 5875000h230896M16080000 4958500h13500M16225000 5325000l-65000 65000M17462000 5175000l63000 63000M17175000 5050000l125000 125000M16283425 5100000l145787-145788M16225000 5722500v104500M17175000 4800000v250000M16160000 5562500v47500M17300000 5175000h162000M16429212 4820787l70788-70787M16429212 4954212v-133425M16225000 5675000v47500M16225000 5827000l-40500 40500M16279000 5325000h-54000M16235000 5100000h48425M16160000 5610000l65000 65000M16235000 5281000l44000 44000M16235000 5100000v181000M17125000 4750000l50000 50000M16500000 4750000h625000M16093500 4958500l141500 141500M16160000 5390000v172500M16737500 4837500l37500-37500M17025000 6150000h-49075M16775000 5625000h50000M16825000 5625000h92500M16280000 5919500v-52000M16775000 4800000h150000M16825000 5200000h50000M16655000 4837500h82500M16160000 5722500l-36000 36000M16875000 5200000l125000 125000M16825000 5200000v-141575M16917500 5625000l112500 112500M16925000 4800000l95000 95000M17000000 6150000h25000M16980925 5737500h49075M16425000 5100000l100000-100000M16970925 4912500h49075M16655000 5680500h64500M16525000 4850000l12500-12500M17020000 4895000v17500M16800000 6025000h50000M16850000 5868425l130925-130925M16375000 5150000l50000-50000M16875000 6025000l125000 125000M16720000 5680500l55500-55500M16525000 5000000v-150000M16124000 5924000l26000 26000M16290000 5722500v135500M16976574 5325000h48426M16975925 6150000l-150000 150000M16375000 5325000v-175000M16600000 6300000l-350000-350000M16655000 6080500h89500M16290000 5858000l-9500 9500M16124000 5758500v165500M16825000 5476574l151574-151574M16850000 6025000h25000M16655000 5265000l65000-65000M16825000 5058425l145925-145925M16537500 4837500h117500M16150000 5950000h100000M17000000 5325000h25000M16744500 6080500l55500-55500M16825000 5625000v-148426M16825925 6300000h-225925M16850000 6025000v-156575M16720000 5200000h105000M16250000 5950000l30500-30500M17225000 5322500h-27500M17525000 5492000l-92000-92000M17150000 5150000l-50000-50000M17302500 5400000l-77500-77500M17100000 5100000h-175000M17433000 5400000h-130500M17150000 5275000v-125000M17197500 5322500l-47500-47500M17225000 5572500h-27500M17375000 5722500v2500M17197500 5572500l-60000-60000M17225000 5572500l150000 150000M17137500 5512500h-207500M17396000 5746000h129000M17375000 5725000l21000 21000M17125000 5950000h-165000M17300000 5950000l-75000-75000M17225000 5875000v-61000M16960000 5950000l-25000-25000M17200000 5875000l-75000 75000M17475000 6000000l-50000-50000M17525000 6000000h-50000M17225000 5875000h-25000M17425000 5950000h-125000M17397000 6254000l-172000-172000M16930000 6337500h132500M17225000 6175000v-93000M17525000 6254000h-128000M17062500 6337500l162500-162500M16275000 5665000h173639M16840000 5737500h-178000M16506819 5656819l93181 93181M16448639 5665000l8180-8181M16600000 5750000h49500M16650000 5750000l5500-5500M16456819 5656819h50000M16225000 5562500v48639M16275000 5661139v3861M16662000 5737500l-7000 7000M16225000 5611139l50000 50000M16830000 6144500l5500 5500M16355000 5905000v-182500M16655000 6144500h-60500M16655000 6144500h174500M16594500 6144500l-239500-239500M16655000 5395000v-66000M16430000 5620000l225000-225000M16290000 5562500v50000M16297500 5620000h132500M16655000 5329000h176000M16290000 5612500l7500 7500M16831000 5329000l4000-4000M16355000 5520000l195000-195000M16655000 4901500h164000M16655000 5020000v-118500M16819000 4901500l11000 11000M16550000 5125000l105000-105000M16550000 5325000v-200000M16355000 5562500v-42500"/></g></g><g fill="#f0f0f0" fill-opacity="0" mask="url(#d)" stroke="#f0f0f0" stroke-linecap="round" stroke-linejoin="round"><g class="stroked-text" stroke-width="75000"><path d="m10701428 3788571 42857 14286 14286 14285 14286 28572v42857l-14286 28571-14286 14286-28571 14286h-114286v-300000h100000l28572 14286 14285 14285 14286 28572v28571l-14286 28572-14285 14285-28572 14286h-100000M10901428 3945714v-300000l100000 214286 100000-214286v300000M11244285 3945714v-300000h114286l28571 14286 14286 14285 14286 28572v42857l-14286 28571-14286 14286-28571 14286h-114286M11530000 3674285l14285-14285 28572-14286h71428l28572 14286 14285 14285 14286 28572v28571l-14286 42857-171428 171429h185714M11872857 3774285l-28572-14285-14285-14286-14286-28572v-14285l14286-28572 14285-14285 28572-14286h57143l28571 14286 14286 14285 14285 28572v14285l-14285 28572-14286 14286-28571 14285h-57143l-28572 14286-14285 14286-14286 28571v57143l14286 28571 14285 14286 28572 14286h57143l28571-14286 14286-14286 14285-28571v-57143l-14285-28571-14286-14286-28571-14286M12172857 3645714h28571l28572 14286 14285 14285 14286 28572 14286 57143v71428l-14286 57143-14286 28571-14285 14286-28572 14286h-28571l-28572-14286-14285-14286-14286-28571-14286-57143v-71428l14286-57143 14286-28572 14285-14285 28572-14286" fill="none"/></g><g class="stroked-text" stroke-width="37500"><path d="M10410589 8767357v-150000h57143l14285 7143 7143 7142 7143 14286v21429l-7143 14285-7143 7143-14285 7143h-57143M10646303 8767357l-50000-71429M10560589 8767357v-150000h57143l14285 7143 7143 7142 7143 14286v21429l-7143 14285-7143 7143-14285 7143h-57143M10710589 8688785h50000M10782017 8767357h-71428v-150000h71428M10839160 8760214l21429 7143h35714l14286-7143 7143-7143 7143-14286v-14285l-7143-14286-7143-7143-14286-7143-28571-7143-14286-7143-7143-7142-7143-14286v-14286l7143-14286 7143-7142 14286-7143h35714l21429 7143M10982017 8760214l21429 7143h35714l14286-7143 7143-7143 7143-14286v-14285l-7143-14286-7143-7143-14286-7143-28571-7143-14286-7143-7143-7142-7143-14286v-14286l7143-14286 7143-7142 14286-7143h35714l21429 7143M12024875 8617357h85714M12067732 8767357v-150000M12160589 8688785h50000M12232017 8767357h-71428v-150000h71428M12296303 8767357v-150000l50000 107143 50000-107143v150000M12467732 8767357v-150000h57143l14285 7143 7143 7142 7143 14286v21429l-7143 14285-7143 7143-14285 7143h-57143" fill="none"/></g><g stroke-width="12000" fill="none"><path d="M17525000 4851000h133000M17658000 4851000v133000M17658000 5111000v1276000M17392000 5111000h266000M17392000 6387000h266000M17392000 5111000v1276000M16486000 5006250v65000M16486000 5006250v-65000M16174000 5006250v167500M16174000 5006250v-65000M16116000 4899716v21567M16044000 4899716v21567M17086000 5418750v65000M16774000 5418750v65000M17086000 5418750v-167500M16774000 5418750v-65000"/></g><g stroke-width="10000" fill="none"><path d="M16122500 5752500v-64000M16392500 5596500v-64000M16344500 5752500h48000M16122500 5752500h48000M16392500 5752500v-64000M16344500 5532500h48000M16122500 5596500v-64000"/></g><g stroke-width="12000" fill="none"><path d="M16337783 5289000h-21567M16337783 5361000h-21567M16779000 5831250v-65000M16779000 5831250v65000M17091000 5831250v65000M17091000 5831250v-167500M16774000 6243750v65000M17086000 6243750v-167500M16774000 6243750v-65000M17086000 6243750v65000M16243283 5903500h-21567M16243283 5831500h-21567M17081000 5006250v65000M17081000 5006250v-167500M16769000 5006250v-65000M16769000 5006250v65000"/></g></g><g stroke="#000" stroke-width="15000"><g fill-opacity="0" stroke-linecap="round" stroke-linejoin="round" fill="none"><path d="M17775000 3352800H9804400M9804400 9550400h7970600M17775000 9550400V3352800M9804400 3352800v6197600"/></g><path d="M17475000 4984000a50000 50000 0 1 1 100000 0 50000 50000 0 1 1-100000 0zM17475000 5238000a50000 50000 0 1 1 100000 0 50000 50000 0 1 1-100000 0zM17475000 5492000a50000 50000 0 1 1 100000 0 50000 50000 0 1 1-100000 0zM17475000 5746000a50000 50000 0 1 1 100000 0 50000 50000 0 1 1-100000 0zM17475000 6000000a50000 50000 0 1 1 100000 0 50000 50000 0 1 1-100000 0zM17475000 6254000a50000 50000 0 1 1 100000 0 50000 50000 0 1 1-100000 0z"/></g></g><g stroke-width=".093"><g transform="matrix(100000 0 0 -100000 17525000 4984000)"><path d="M1.27-13.97V1.27h-2.54v-15.24z" fill="#1a1a1a" fill-rule="evenodd" stroke="#000"/><path d="M-.6.6V-.6H.6V.6z" fill="gray" fill-rule="evenodd" stroke="#000"/><g fill="#666" fill-rule="evenodd" stroke="#000"><path d="M.6-3.14v1.2H-.6v-1.2zM.6-5.68v1.2H-.6v-1.2zM-.6-13.3H.6v1.2H-.6zM-.6-10.76H.6v1.2H-.6zM-.6-8.22H.6v1.2H-.6z"/></g><g fill="none" stroke="#000"><path d="m-.6.6.299-.299M-.6-.6l.299.299M-.301.301v-.602M.6.6.301.301M.301.301h-.602M.6-.6l-.299.299M.301-.301v.602M-.301-.301h.602M-.6-3.14l.299.299M.6-3.14l-.299.299M-.301-2.841h.602M-.6-1.94l.299-.299M-.301-2.239v-.602M.6-1.94l-.299-.299M.301-2.239h-.602M.301-2.841v.602M.6-5.68l-.299.299M.6-4.48l-.299-.299M.301-5.381v.602M-.6-5.68l.299.299M-.301-5.381h.602M-.6-4.48l.299-.299M-.301-4.779v-.602M.301-4.779h-.602M-.6-12.1l.299-.299M-.6-13.3l.299.299M-.301-12.399v-.602M.6-12.1l-.299-.299M.301-12.399h-.602M.6-13.3l-.299.299M.301-13.001v.602M-.301-13.001h.602M-.6-10.76l.299.299M.6-10.76l-.299.299M-.301-10.461h.602M-.6-9.56l.299-.299M-.301-9.859v-.602M.6-9.56l-.299-.299M.301-9.859h-.602M.301-10.461v.602M.6-8.22l-.299.299M.6-7.02l-.299-.299M.301-7.921v.602M-.6-8.22l.299.299M-.301-7.921h.602M-.6-7.02l.299-.299M-.301-7.319v-.602M.301-7.319h-.602"/></g><g fill="olive" fill-rule="evenodd" stroke="#000"><path d="M.3-.3v.6h-.6v-.6zM-.3-2.84h.6v.6h-.6zM.3-5.38v.6h-.6v-.6zM.3-13v.6h-.6v-.6zM-.3-10.46h.6v.6h-.6zM.3-7.92v.6h-.6v-.6z"/></g><g fill="none" stroke="#000"><path d="M-.1.25V.3M-.1-.25v.5M-.1-.3v.05M.1-.3v.05M-.1-.25h.2M.1-.25v.5M.1.25V.3M-.1.25h.2M-.1-2.29v.05M-.1-2.79v.5M-.1-2.84v.05"/></g><path d="M.1-2.84v.05" fill="olive" fill-rule="evenodd" stroke="#000"/><g fill="none" stroke="#000"><path d="M-.1-2.79h.2M.1-2.79v.5M.1-2.29v.05M-.1-2.29h.2M-.1-4.83v.05M-.1-5.33v.5M-.1-5.38v.05M.1-5.38v.05M-.1-5.33h.2M.1-5.33v.5M.1-4.83v.05M-.1-4.83h.2M-.1-12.45v.05M-.1-12.95v.5M-.1-13v.05M.1-13v.05M-.1-12.95h.2M.1-12.95v.5M.1-12.45v.05M-.1-12.45h.2M-.1-9.91v.05M-.1-10.41v.5M-.1-10.46v.05M.1-10.46v.05M-.1-10.41h.2M.1-10.41v.5M.1-9.91v.05M-.1-9.91h.2M-.1-7.37v.05M-.1-7.87v.5M-.1-7.92v.05M.1-7.92v.05M-.1-7.87h.2M.1-7.87v.5M.1-7.37v.05M-.1-7.37h.2"/></g></g></g><g stroke="#000" stroke-width=".093"><g fill="none"><path d="M16180000 5066750v-121000M16180000 4945750l9500-9500M16180000 4945750l2500 1250M16182500 5065500v-118500M16180000 5066750l2500-1250M16189500 5076250l-9500-9500M16189500 4936250h120500M16350000 4936250h120500M16470500 4936250l9500 9500M16480000 4945750v121000M16480000 5066750l-9500 9500M16470500 5076250h-25500M16215000 5076250h-25500M16405000 5076250h-150000M16189500 4936250l1250 2500M16182500 4947000l8250-8250M16182500 4947000l6675.7 3337.8M16182500 5065500l6675.7-3337.8M16190750 5073750l-8250-8250M16189500 5076250l1250-2500M16190750 4938750h119250M16470500 4936250l-1250 2500M16350000 4938750h119250M16480000 4945750l-2500 1250M16469250 4938750l8250 8250M16480000 5066750l-2500-1250M16477500 4947000v118500M16470500 5076250l-1250-2500M16477500 5065500l-8250 8250M16469250 5073750h-24250M16215000 5073750h-24250M16405000 5073750h-150000M16190750 4938750l3337.8 6675.7" stroke-width="9300"/></g><path d="M16194088 4945430h271820l4912.2 4912.2-.05-.04v111820l-4912.2 4912.2.05-.005h-271820l-4912.2-4912.2.05.005v-111820l4912.2-4912.2z" fill="#1a1a1a" fill-rule="evenodd" stroke-width="9300"/><g fill="none"><path d="m16190750 5073750 3337.8-6675.7M16310000 4938750h40000M16469250 4938750l-3337.8 6675.7M16477500 4947000l-6675.7 3337.8M16477500 5065500l-6675.7-3337.8M16469250 5073750l-3337.8-6675.7M16445000 5073750h-40000M16255000 5073750h-40000" stroke-width="9300"/></g><path d="M16310000 4881250h40000v55000h-40000v-35000z" fill="gray" fill-rule="evenodd" stroke-width="9300"/><path d="M16310000 4911250h40000M16310000 4901250h40000" fill="none" stroke-width="9300"/><g fill="none"><path d="M16310000 4936250v2500M16350000 4936250v2500M16445000 5076250v-2500M16215000 5076250v-2500M16405000 5076250v-2500M16255000 5076250v-2500" stroke-width="9300"/></g><path d="M16445000 5128750h-40000v-55000h40000v35000z" fill="gray" fill-rule="evenodd" stroke-width="9300"/><path d="M16445000 5098750h-40000M16445000 5108750h-40000" fill="none" stroke-width="9300"/><path d="M16255000 5128750h-40000v-55000h40000v35000z" fill="gray" fill-rule="evenodd" stroke-width="9300"/><path d="M16255000 5098750h-40000M16255000 5108750h-40000" fill="none" stroke-width="9300"/></g><g transform="rotate(90 5745300 11011000) scale(100000)"><g transform="matrix(1 0 0 -1 .313 1.013)" stroke-width=".013" id="e"><path d="M-.2-.15h-.1v.3h.1zM.2-.15h.1v.3H.2z" fill="#999" fill-rule="evenodd" stroke="#191919"/><path d="M-.2.15h.4v-.3h-.4z" fill="#333" fill-rule="evenodd" stroke="#191919"/><path d="M-.277-.15v.3M-.223-.15v.3M.277-.15v.3M.223-.15v.3" fill="none" stroke="#191919"/></g></g><use xlink:href="#e" transform="rotate(90 6033550 11292750) scale(100000)"/><g stroke-width=".013"><path d="M16057000 4940500v-60000h46000-.002v60000h.002-46000z" fill="#ffb380" stroke="#000" stroke-width="1300"/><g transform="matrix(0 100000 100000 0 16080000 4910500)" fill="#b3b3b3"><g fill-rule="evenodd" stroke="#191919"><path d="M-.3.25v-.5h-.2v.5zM.5.25v-.5H.3v.5zM-.5-.23h.2M-.5.23h.2M-.3.21h.6M-.3-.21h.6M.3-.23h.2M.3.23h.2"/></g></g></g><g transform="rotate(90 5895625 11186875) scale(100000)"><g id="f" stroke="#000" stroke-width=".093"><path d="M.67.025h1.21M1.88.025l.095.095M1.88.025 1.867.05M.682.05h1.185M.67.025.683.05M.575.12.67.025M1.975.12v1.205M1.975 1.725V2.93M1.975 2.93l-.095.095M1.88 3.025H.67M.67 3.025.575 2.93M.575 2.93v-.255M.575.375V.12M.575 2.275v-1.5M1.975.12 1.95.133M1.867.05l.083.083M1.867.05l-.033.067M.682.05l.034.067M.6.133.683.05M.575.12.6.133M1.95.133v1.192M1.975 2.93l-.025-.013M1.95 1.725v1.192M1.88 3.025 1.868 3M1.95 2.917 1.867 3M.67 3.025.682 3M1.867 3H.682M.575 2.93.6 2.917M.682 3 .6 2.917M.6 2.917v-.242M.6.375V.133M.6 2.275v-1.5M1.95.133l-.067.033" fill="none"/><path d="M1.883.166v2.718l-.049.05H.716l-.05-.05V.166l.05-.05h1.118l.05.05z" fill="#1a1a1a" fill-rule="evenodd"/><path d="m.6.133.067.033M1.95 1.325v.4M1.95 2.917l-.067-.033M1.867 3l-.033-.067M.682 3l.034-.067M.6 2.917l.067-.033M.6 2.675v-.4M.6.775v-.4" fill="none"/><path d="M2.525 1.325v.4h-.55v-.4h.35z" fill="gray" fill-rule="evenodd"/><path d="M2.225 1.325v.4M2.325 1.325v.4M1.975 1.325H1.95M1.975 1.725H1.95M.575 2.675H.6M.575.375H.6M.575 2.275H.6M.575.775H.6" fill="none"/><path d="M.05 2.675v-.4H.6v.4H.25z" fill="gray" fill-rule="evenodd"/><path d="M.35 2.675v-.4M.25 2.675v-.4" fill="none"/><path d="M.05.775v-.4H.6v.4H.25z" fill="gray" fill-rule="evenodd"/><path d="M.35.775v-.4M.25.775v-.4" fill="none"/></g></g><use xlink:href="#e" transform="rotate(90 5787800 11538500) scale(100000)"/><g stroke-width=".04" transform="translate(16130000 5540000) scale(100000)"><path d="M.025 2.025v-2h2.5v2z" fill="gray" fill-rule="evenodd" stroke="#191919"/><circle transform="scale(1 -1)" cx=".525" cy="-.525" r=".1" fill="#1a1a1a" stroke="#191919"/></g><use xlink:href="#e" transform="rotate(90 5337550 11418750) scale(100000)"/><g stroke-width=".013"><path d="M16297000 5302000h60000v46000-.002h-60000v.002-46000z" fill="#ffb380" stroke="#000" stroke-width="1300"/><g transform="matrix(-100000 0 0 100000 16327000 5325000)" fill="#b3b3b3"><g fill-rule="evenodd" stroke="#191919"><path d="M-.3.25v-.5h-.2v.5zM.5.25v-.5H.3v.5zM-.5-.23h.2M-.5.23h.2M-.3.21h.6M-.3-.21h.6M.3-.23h.2M.3.23h.2"/></g></g></g><use xlink:href="#e" transform="rotate(90 5908550 11417750) scale(100000)"/><use xlink:href="#e" transform="rotate(90 5537550 11218750) scale(100000)"/><use xlink:href="#e" transform="rotate(90 5653800 11672500) scale(100000)"/><use xlink:href="#f" transform="rotate(90 5691875 11395625) scale(100000)"/><use xlink:href="#f" transform="rotate(90 5483125 11599375) scale(100000)"/><g stroke-width=".013"><path d="M16202500 5844500h60000v46000-.002h-60000v.002-46000z" fill="#ffb380" stroke="#000" stroke-width="1300"/><g transform="matrix(-100000 0 0 100000 16232500 5867500)" fill="#b3b3b3"><g fill-rule="evenodd" stroke="#191919"><path d="M-.3.25v-.5h-.2v.5zM.5.25v-.5H.3v.5zM-.5-.23h.2M-.5.23h.2M-.3.21h.6M-.3-.21h.6M.3-.23h.2M.3.23h.2"/></g></g></g><use xlink:href="#f" transform="rotate(90 6099375 10978125) scale(100000)"/><use xlink:href="#e" transform="rotate(90 5959050 10797250) scale(100000)"/></svg>