<svg width="282" height="304" viewBox="98019000 33503000 57454000 62026000" xmlns="http://www.w3.org/2000/svg" xmlns:xlink="http://www.w3.org/1999/xlink"><defs><mask id="c"><g fill="#fff" fill-opacity="1" stroke="#fff" stroke-linecap="round" stroke-linejoin="round" stroke-width="1"><path d="M150660000 48471999v-1700000h1700000v1700000z" fill-rule="evenodd"/><circle cx="151510000" cy="50162000" r="850000"/><circle cx="151510000" cy="52702000" r="850000"/><circle cx="151510000" cy="55242000" r="850000"/><path d="M144040000 55900000l-11418 57403-32516 48663-48663 32516-57403 11418h-1175000l-57403-11418-48663-32516-32516-48663-11418-57403v-300000l11418-57403 32516-48663 48663-32516 57403-11418h1175000l57403 11418 48663 32516 32516 48663 11418 57403zM144040000 54000000l-11418 57403-32516 48663-48663 32516-57403 11418h-1175000l-57403-11418-48663-32516-32516-48663-11418-57403v-300000l11418-57403 32516-48663 48663-32516 57403-11418h1175000l57403 11418 48663 32516 32516 48663 11418 57403zM142170000 54950000l-11418 57403-32516 48663-48663 32516-57403 11418h-1175000l-57403-11418-48663-32516-32516-48663-11418-57403v-300000l11418-57403 32516-48663 48663-32516 57403-11418h1175000l57403 11418 48663 32516 32516 48663 11418 57403zM142150000 57104000l10657-53576 30348-45419 45419-30348 53576-10657h280000l53576 10657 45419 30348 30348 45419 10657 53576v340000l-10657 53576-30348 45419-45419 30348-53576 10657h-280000l-53576-10657-45419-30348-30348-45419-10657-53576zM143110000 57104000l10657-53576 30348-45419 45419-30348 53576-10657h280000l53576 10657 45419 30348 30348 45419 10657 53576v340000l-10657 53576-30348 45419-45419 30348-53576 10657h-280000l-53576-10657-45419-30348-30348-45419-10657-53576zM149070000 52660000l38268 7612 32443 21677 21677 32443 7612 38268v260000l-7612 38268-21677 32443-32443 21677-38268 7612h-200000l-38268-7612-32443-21677-21677-32443-7612-38268v-260000l7612-38268 21677-32443 32443-21677 38268-7612zM149070000 53300000l38268 7612 32443 21677 21677 32443 7612 38268v260000l-7612 38268-21677 32443-32443 21677-38268 7612h-200000l-38268-7612-32443-21677-21677-32443-7612-38268v-260000l7612-38268 21677-32443 32443-21677 38268-7612zM148870000 51916000l-38268-7612-32443-21677-21677-32443-7612-38268v-260000l7612-38268 21677-32443 32443-21677 38268-7612h200000l38268 7612 32443 21677 21677 32443 7612 38268v260000l-7612 38268-21677 32443-32443 21677-38268 7612zM148870000 51276000l-38268-7612-32443-21677-21677-32443-7612-38268v-260000l7612-38268 21677-32443 32443-21677 38268-7612h200000l38268 7612 32443 21677 21677 32443 7612 38268v260000l-7612 38268-21677 32443-32443 21677-38268 7612zM144110000 48087999h-350000v-500000h350000zM144760000 48087999h-350000v-500000h350000zM145410000 48087999h-350000v-500000h350000zM146060000 48087999h-350000v-500000h350000zM146060000 49687999h-350000v-500000h350000zM145410000 49687999h-350000v-500000h350000zM144760000 49687999h-350000v-500000h350000zM144110000 49687999h-350000v-500000h350000zM144630000 52364000l-10657 53576-30348 45419-45419 30348-53576 10657h-280000l-53576-10657-45419-30348-30348-45419-10657-53576v-340000l10657-53576 30348-45419 45419-30348 53576-10657h280000l53576 10657 45419 30348 30348 45419 10657 53576zM143670000 52364000l-10657 53576-30348 45419-45419 30348-53576 10657h-280000l-53576-10657-45419-30348-30348-45419-10657-53576v-340000l10657-53576 30348-45419 45419-30348 53576-10657h280000l53576 10657 45419 30348 30348 45419 10657 53576zM144650000 51348000l-10657 53576-30348 45419-45419 30348-53576 10657h-280000l-53576-10657-45419-30348-30348-45419-10657-53576v-340000l10657-53576 30348-45419 45419-30348 53576-10657h280000l53576 10657 45419 30348 30348 45419 10657 53576zM143690000 51348000l-10657 53576-30348 45419-45419 30348-53576 10657h-280000l-53576-10657-45419-30348-30348-45419-10657-53576v-340000l10657-53576 30348-45419 45419-30348 53576-10657h280000l53576 10657 45419 30348 30348 45419 10657 53576zM148870000 49859000l-38268-7612-32443-21677-21677-32443-7612-38268v-260000l7612-38268 21677-32443 32443-21677 38268-7612h200000l38268 7612 32443 21677 21677 32443 7612 38268v260000l-7612 38268-21677 32443-32443 21677-38268 7612zM148870000 49219000l-38268-7612-32443-21677-21677-32443-7612-38268v-260000l7612-38268 21677-32443 32443-21677 38268-7612h200000l38268 7612 32443 21677 21677 32443 7612 38268v260000l-7612 38268-21677 32443-32443 21677-38268 7612zM145810000 57143000l-95671-19030-81106-54193-54193-81106-19030-95671v-750000l19030-95671 54193-81106 81106-54193 95671-19030h1250000l95671 19030 81106 54193 54193 81106 19030 95671v750000l-19030 95671-54193 81106-81106 54193-95671 19030zM145810000 54343000l-95671-19030-81106-54193-54193-81106-19030-95671v-750000l19030-95671 54193-81106 81106-54193 95671-19030h1250000l95671 19030 81106 54193 54193 81106 19030 95671v750000l-19030 95671-54193 81106-81106 54193-95671 19030z" fill-rule="evenodd"/></g></mask><mask id="d"><path fill="#fff" d="M98019000 33503000h57454000v62026000H98019000z"/><g fill-opacity="1" stroke="#000" stroke-linecap="round" stroke-linejoin="round" stroke-width="1"><path d="M150660000 48471999v-1700000h1700000v1700000z" fill-rule="evenodd"/><circle cx="151510000" cy="50162000" r="850000"/><circle cx="151510000" cy="52702000" r="850000"/><circle cx="151510000" cy="55242000" r="850000"/><path d="M144040000 55900000l-11418 57403-32516 48663-48663 32516-57403 11418h-1175000l-57403-11418-48663-32516-32516-48663-11418-57403v-300000l11418-57403 32516-48663 48663-32516 57403-11418h1175000l57403 11418 48663 32516 32516 48663 11418 57403zM144040000 54000000l-11418 57403-32516 48663-48663 32516-57403 11418h-1175000l-57403-11418-48663-32516-32516-48663-11418-57403v-300000l11418-57403 32516-48663 48663-32516 57403-11418h1175000l57403 11418 48663 32516 32516 48663 11418 57403zM142170000 54950000l-11418 57403-32516 48663-48663 32516-57403 11418h-1175000l-57403-11418-48663-32516-32516-48663-11418-57403v-300000l11418-57403 32516-48663 48663-32516 57403-11418h1175000l57403 11418 48663 32516 32516 48663 11418 57403zM142150000 57104000l10657-53576 30348-45419 45419-30348 53576-10657h280000l53576 10657 45419 30348 30348 45419 10657 53576v340000l-10657 53576-30348 45419-45419 30348-53576 10657h-280000l-53576-10657-45419-30348-30348-45419-10657-53576zM143110000 57104000l10657-53576 30348-45419 45419-30348 53576-10657h280000l53576 10657 45419 30348 30348 45419 10657 53576v340000l-10657 53576-30348 45419-45419 30348-53576 10657h-280000l-53576-10657-45419-30348-30348-45419-10657-53576zM149070000 52660000l38268 7612 32443 21677 21677 32443 7612 38268v260000l-7612 38268-21677 32443-32443 21677-38268 7612h-200000l-38268-7612-32443-21677-21677-32443-7612-38268v-260000l7612-38268 21677-32443 32443-21677 38268-7612zM149070000 53300000l38268 7612 32443 21677 21677 32443 7612 38268v260000l-7612 38268-21677 32443-32443 21677-38268 7612h-200000l-38268-7612-32443-21677-21677-32443-7612-38268v-260000l7612-38268 21677-32443 32443-21677 38268-7612zM148870000 51916000l-38268-7612-32443-21677-21677-32443-7612-38268v-260000l7612-38268 21677-32443 32443-21677 38268-7612h200000l38268 7612 32443 21677 21677 32443 7612 38268v260000l-7612 38268-21677 32443-32443 21677-38268 7612zM148870000 51276000l-38268-7612-32443-21677-21677-32443-7612-38268v-260000l7612-38268 21677-32443 32443-21677 38268-7612h200000l38268 7612 32443 21677 21677 32443 7612 38268v260000l-7612 38268-21677 32443-32443 21677-38268 7612zM144110000 48087999h-350000v-500000h350000zM144760000 48087999h-350000v-500000h350000zM145410000 48087999h-350000v-500000h350000zM146060000 48087999h-350000v-500000h350000zM146060000 49687999h-350000v-500000h350000zM145410000 49687999h-350000v-500000h350000zM144760000 49687999h-350000v-500000h350000zM144110000 49687999h-350000v-500000h350000zM144630000 52364000l-10657 53576-30348 45419-45419 30348-53576 10657h-280000l-53576-10657-45419-30348-30348-45419-10657-53576v-340000l10657-53576 30348-45419 45419-30348 53576-10657h280000l53576 10657 45419 30348 30348 45419 10657 53576zM143670000 52364000l-10657 53576-30348 45419-45419 30348-53576 10657h-280000l-53576-10657-45419-30348-30348-45419-10657-53576v-340000l10657-53576 30348-45419 45419-30348 53576-10657h280000l53576 10657 45419 30348 30348 45419 10657 53576zM144650000 51348000l-10657 53576-30348 45419-45419 30348-53576 10657h-280000l-53576-10657-45419-30348-30348-45419-10657-53576v-340000l10657-53576 30348-45419 45419-30348 53576-10657h280000l53576 10657 45419 30348 30348 45419 10657 53576zM143690000 51348000l-10657 53576-30348 45419-45419 30348-53576 10657h-280000l-53576-10657-45419-30348-30348-45419-10657-53576v-340000l10657-53576 30348-45419 45419-30348 53576-10657h280000l53576 10657 45419 30348 30348 45419 10657 53576zM148870000 49859000l-38268-7612-32443-21677-21677-32443-7612-38268v-260000l7612-38268 21677-32443 32443-21677 38268-7612h200000l38268 7612 32443 21677 21677 32443 7612 38268v260000l-7612 38268-21677 32443-32443 21677-38268 7612zM148870000 49219000l-38268-7612-32443-21677-21677-32443-7612-38268v-260000l7612-38268 21677-32443 32443-21677 38268-7612h200000l38268 7612 32443 21677 21677 32443 7612 38268v260000l-7612 38268-21677 32443-32443 21677-38268 7612zM145810000 57143000l-95671-19030-81106-54193-54193-81106-19030-95671v-750000l19030-95671 54193-81106 81106-54193 95671-19030h1250000l95671 19030 81106 54193 54193 81106 19030 95671v750000l-19030 95671-54193 81106-81106 54193-95671 19030zM145810000 54343000l-95671-19030-81106-54193-54193-81106-19030-95671v-750000l19030-95671 54193-81106 81106-54193 95671-19030h1250000l95671 19030 81106 54193 54193 81106 19030 95671v750000l-19030 95671-54193 81106-81106 54193-95671 19030z" fill-rule="evenodd"/></g></mask><mask id="b"><path fill="#fff" d="M98019000 33503000h57454000v62026000H98019000z"/><path stroke="#000" stroke-linecap="round" stroke-width="1000000" d="M151510000 47622000h0M151510000 50162000h0M151510000 52702000h0M151510000 55242000h0"/></mask><clipPath id="a"><path d="M98044000 33528000v61976000h57404000V33528000H98044000" fill-rule="evenodd"/></clipPath></defs><g clip-path="url(#a)" mask="url(#b)"><g fill="#313d63" stroke="#313d63"><path d="M98044000 33528000v61976000h57404000V33528000H98044000" fill-rule="evenodd"/><g fill-opacity="0" stroke-linecap="round" stroke-linejoin="round" stroke-width="50000" fill="none" stroke="#000"><path d="M155450000 33528000H98046000M98044000 95504000h57404000M155450000 95504000V33528000M98044000 33528000v61976000"/></g></g><g fill-opacity="1" stroke-linecap="round" stroke-linejoin="round" stroke-width="1" fill="#9c6b28" stroke="#9c6b28"><path d="M150660000 48471999v-1700000h1700000v1700000z" fill-rule="evenodd"/><circle cx="151510000" cy="50162000" r="850000"/><circle cx="151510000" cy="52702000" r="850000"/><circle cx="151510000" cy="55242000" r="850000"/><g fill-rule="evenodd"><path d="M144040000 55900000l-11418 57403-32516 48663-48663 32516-57403 11418h-1175000l-57403-11418-48663-32516-32516-48663-11418-57403v-300000l11418-57403 32516-48663 48663-32516 57403-11418h1175000l57403 11418 48663 32516 32516 48663 11418 57403zM144040000 54000000l-11418 57403-32516 48663-48663 32516-57403 11418h-1175000l-57403-11418-48663-32516-32516-48663-11418-57403v-300000l11418-57403 32516-48663 48663-32516 57403-11418h1175000l57403 11418 48663 32516 32516 48663 11418 57403zM142170000 54950000l-11418 57403-32516 48663-48663 32516-57403 11418h-1175000l-57403-11418-48663-32516-32516-48663-11418-57403v-300000l11418-57403 32516-48663 48663-32516 57403-11418h1175000l57403 11418 48663 32516 32516 48663 11418 57403zM142150000 57104000l10657-53576 30348-45419 45419-30348 53576-10657h280000l53576 10657 45419 30348 30348 45419 10657 53576v340000l-10657 53576-30348 45419-45419 30348-53576 10657h-280000l-53576-10657-45419-30348-30348-45419-10657-53576zM143110000 57104000l10657-53576 30348-45419 45419-30348 53576-10657h280000l53576 10657 45419 30348 30348 45419 10657 53576v340000l-10657 53576-30348 45419-45419 30348-53576 10657h-280000l-53576-10657-45419-30348-30348-45419-10657-53576zM149070000 52660000l38268 7612 32443 21677 21677 32443 7612 38268v260000l-7612 38268-21677 32443-32443 21677-38268 7612h-200000l-38268-7612-32443-21677-21677-32443-7612-38268v-260000l7612-38268 21677-32443 32443-21677 38268-7612zM149070000 53300000l38268 7612 32443 21677 21677 32443 7612 38268v260000l-7612 38268-21677 32443-32443 21677-38268 7612h-200000l-38268-7612-32443-21677-21677-32443-7612-38268v-260000l7612-38268 21677-32443 32443-21677 38268-7612zM148870000 51916000l-38268-7612-32443-21677-21677-32443-7612-38268v-260000l7612-38268 21677-32443 32443-21677 38268-7612h200000l38268 7612 32443 21677 21677 32443 7612 38268v260000l-7612 38268-21677 32443-32443 21677-38268 7612zM148870000 51276000l-38268-7612-32443-21677-21677-32443-7612-38268v-260000l7612-38268 21677-32443 32443-21677 38268-7612h200000l38268 7612 32443 21677 21677 32443 7612 38268v260000l-7612 38268-21677 32443-32443 21677-38268 7612zM144110000 48087999h-350000v-500000h350000zM144760000 48087999h-350000v-500000h350000zM145410000 48087999h-350000v-500000h350000zM146060000 48087999h-350000v-500000h350000zM146060000 49687999h-350000v-500000h350000zM145410000 49687999h-350000v-500000h350000zM144760000 49687999h-350000v-500000h350000zM144110000 49687999h-350000v-500000h350000zM144630000 52364000l-10657 53576-30348 45419-45419 30348-53576 10657h-280000l-53576-10657-45419-30348-30348-45419-10657-53576v-340000l10657-53576 30348-45419 45419-30348 53576-10657h280000l53576 10657 45419 30348 30348 45419 10657 53576zM143670000 52364000l-10657 53576-30348 45419-45419 30348-53576 10657h-280000l-53576-10657-45419-30348-30348-45419-10657-53576v-340000l10657-53576 30348-45419 45419-30348 53576-10657h280000l53576 10657 45419 30348 30348 45419 10657 53576zM144650000 51348000l-10657 53576-30348 45419-45419 30348-53576 10657h-280000l-53576-10657-45419-30348-30348-45419-10657-53576v-340000l10657-53576 30348-45419 45419-30348 53576-10657h280000l53576 10657 45419 30348 30348 45419 10657 53576zM143690000 51348000l-10657 53576-30348 45419-45419 30348-53576 10657h-280000l-53576-10657-45419-30348-30348-45419-10657-53576v-340000l10657-53576 30348-45419 45419-30348 53576-10657h280000l53576 10657 45419 30348 30348 45419 10657 53576zM148870000 49859000l-38268-7612-32443-21677-21677-32443-7612-38268v-260000l7612-38268 21677-32443 32443-21677 38268-7612h200000l38268 7612 32443 21677 21677 32443 7612 38268v260000l-7612 38268-21677 32443-32443 21677-38268 7612zM148870000 49219000l-38268-7612-32443-21677-21677-32443-7612-38268v-260000l7612-38268 21677-32443 32443-21677 38268-7612h200000l38268 7612 32443 21677 21677 32443 7612 38268v260000l-7612 38268-21677 32443-32443 21677-38268 7612zM145810000 57143000l-95671-19030-81106-54193-54193-81106-19030-95671v-750000l19030-95671 54193-81106 81106-54193 95671-19030h1250000l95671 19030 81106 54193 54193 81106 19030 95671v750000l-19030 95671-54193 81106-81106 54193-95671 19030zM145810000 54343000l-95671-19030-81106-54193-54193-81106-19030-95671v-750000l19030-95671 54193-81106 81106-54193 95671-19030h1250000l95671 19030 81106 54193 54193 81106 19030 95671v750000l-19030 95671-54193 81106-81106 54193-95671 19030z"/></g></g><g fill="#212d53" stroke="#212d53" stroke-linecap="round" stroke-linejoin="round"><path d="M150660000 48471999v-1700000h1700000v1700000z" fill-rule="evenodd"/><circle cx="151510000" cy="50162000" r="850000"/><circle cx="151510000" cy="52702000" r="850000"/><circle cx="151510000" cy="55242000" r="850000"/><g fill-rule="evenodd"><path d="M144040000 55900000l-11418 57403-32516 48663-48663 32516-57403 11418h-1175000l-57403-11418-48663-32516-32516-48663-11418-57403v-300000l11418-57403 32516-48663 48663-32516 57403-11418h1175000l57403 11418 48663 32516 32516 48663 11418 57403zM144040000 54000000l-11418 57403-32516 48663-48663 32516-57403 11418h-1175000l-57403-11418-48663-32516-32516-48663-11418-57403v-300000l11418-57403 32516-48663 48663-32516 57403-11418h1175000l57403 11418 48663 32516 32516 48663 11418 57403zM142170000 54950000l-11418 57403-32516 48663-48663 32516-57403 11418h-1175000l-57403-11418-48663-32516-32516-48663-11418-57403v-300000l11418-57403 32516-48663 48663-32516 57403-11418h1175000l57403 11418 48663 32516 32516 48663 11418 57403zM142150000 57104000l10657-53576 30348-45419 45419-30348 53576-10657h280000l53576 10657 45419 30348 30348 45419 10657 53576v340000l-10657 53576-30348 45419-45419 30348-53576 10657h-280000l-53576-10657-45419-30348-30348-45419-10657-53576zM143110000 57104000l10657-53576 30348-45419 45419-30348 53576-10657h280000l53576 10657 45419 30348 30348 45419 10657 53576v340000l-10657 53576-30348 45419-45419 30348-53576 10657h-280000l-53576-10657-45419-30348-30348-45419-10657-53576zM149070000 52660000l38268 7612 32443 21677 21677 32443 7612 38268v260000l-7612 38268-21677 32443-32443 21677-38268 7612h-200000l-38268-7612-32443-21677-21677-32443-7612-38268v-260000l7612-38268 21677-32443 32443-21677 38268-7612zM149070000 53300000l38268 7612 32443 21677 21677 32443 7612 38268v260000l-7612 38268-21677 32443-32443 21677-38268 7612h-200000l-38268-7612-32443-21677-21677-32443-7612-38268v-260000l7612-38268 21677-32443 32443-21677 38268-7612zM148870000 51916000l-38268-7612-32443-21677-21677-32443-7612-38268v-260000l7612-38268 21677-32443 32443-21677 38268-7612h200000l38268 7612 32443 21677 21677 32443 7612 38268v260000l-7612 38268-21677 32443-32443 21677-38268 7612zM148870000 51276000l-38268-7612-32443-21677-21677-32443-7612-38268v-260000l7612-38268 21677-32443 32443-21677 38268-7612h200000l38268 7612 32443 21677 21677 32443 7612 38268v260000l-7612 38268-21677 32443-32443 21677-38268 7612zM144110000 48087999h-350000v-500000h350000zM144760000 48087999h-350000v-500000h350000zM145410000 48087999h-350000v-500000h350000zM146060000 48087999h-350000v-500000h350000zM146060000 49687999h-350000v-500000h350000zM145410000 49687999h-350000v-500000h350000zM144760000 49687999h-350000v-500000h350000zM144110000 49687999h-350000v-500000h350000zM144630000 52364000l-10657 53576-30348 45419-45419 30348-53576 10657h-280000l-53576-10657-45419-30348-30348-45419-10657-53576v-340000l10657-53576 30348-45419 45419-30348 53576-10657h280000l53576 10657 45419 30348 30348 45419 10657 53576zM143670000 52364000l-10657 53576-30348 45419-45419 30348-53576 10657h-280000l-53576-10657-45419-30348-30348-45419-10657-53576v-340000l10657-53576 30348-45419 45419-30348 53576-10657h280000l53576 10657 45419 30348 30348 45419 10657 53576zM144650000 51348000l-10657 53576-30348 45419-45419 30348-53576 10657h-280000l-53576-10657-45419-30348-30348-45419-10657-53576v-340000l10657-53576 30348-45419 45419-30348 53576-10657h280000l53576 10657 45419 30348 30348 45419 10657 53576zM143690000 51348000l-10657 53576-30348 45419-45419 30348-53576 10657h-280000l-53576-10657-45419-30348-30348-45419-10657-53576v-340000l10657-53576 30348-45419 45419-30348 53576-10657h280000l53576 10657 45419 30348 30348 45419 10657 53576zM148870000 49859000l-38268-7612-32443-21677-21677-32443-7612-38268v-260000l7612-38268 21677-32443 32443-21677 38268-7612h200000l38268 7612 32443 21677 21677 32443 7612 38268v260000l-7612 38268-21677 32443-32443 21677-38268 7612zM148870000 49219000l-38268-7612-32443-21677-21677-32443-7612-38268v-260000l7612-38268 21677-32443 32443-21677 38268-7612h200000l38268 7612 32443 21677 21677 32443 7612 38268v260000l-7612 38268-21677 32443-32443 21677-38268 7612zM145810000 57143000l-95671-19030-81106-54193-54193-81106-19030-95671v-750000l19030-95671 54193-81106 81106-54193 95671-19030h1250000l95671 19030 81106 54193 54193 81106 19030 95671v750000l-19030 95671-54193 81106-81106 54193-95671 19030zM145810000 54343000l-95671-19030-81106-54193-54193-81106-19030-95671v-750000l19030-95671 54193-81106 81106-54193 95671-19030h1250000l95671 19030 81106 54193 54193 81106 19030 95671v750000l-19030 95671-54193 81106-81106 54193-95671 19030z"/></g><g fill-opacity="0" stroke-width="250000" fill="none"><path d="M141430000 56280000v-1480500M149160000 52702000h2352000M144340000 54800000l574000-574000M148790000 52702000l188000 188000M142430000 57274000l-993500-993500M148970000 52890000l188000-188000M144910000 53210000l508000-508000M144910000 54226000v-1016000M141430000 54800000h2903500M145420000 52702000h3368000M143940000 48089000v-251000M143390000 52194000h-508000M143390000 57274000h2292000M141350000 58290000l-1016000-1016000M144580000 49438000v-357000M142370000 49146000l508000-508000M143410000 48612600l523600-523600M142880000 48638000h533400M144580000 49081000l-443000-443000M143390000 57274000v508000M142370000 51686000v-1016000M142370000 50670000v-1524000M140340000 57274000v-3556000M144140000 48638000h-730600M143390000 57782000l-508000 508000M145680000 57274000l756000-756000M146430000 56518000h3804000M143310000 55750000v1445500M140340000 53718000l2032000-2032000M143410000 51178000h-536000M143310000 57195500l78500 78500M142880000 51178000l-508000-508000M150240000 56518000l1276000-1276000M143410000 48638000v-25400M142880000 58290000h-1524000M142880000 52194000l-508000-508000M144400000 53210000v-960000M143310000 53850000h454500M145240000 49932600l-153200 153200M148470000 51686000l-584200-584200M143940000 49438000v313000M146410000 50085800h1473200M143940000 49751000l439000 439000M144910000 50085800h171800M147880000 50085800h635400M146100000 50085800l-212800-212800M145240000 49095282v342718M146100000 50085800h310800M144910000 50085800h-431800M144350000 51206000l28000-28000M145240000 49438000v494600M145880000 49873000v-435000M144370000 50190000v988000M144580000 47838000v607282M148970000 51686000h-508000M148520000 50085800l456800-456800M144400000 52250000l-56000-56000M147880000 51101800v-1016000M144350000 52194000v-988000M144480000 50085800l-104200 104200M143760000 53850000l640000-640000M145080000 50085800h1016000M144580000 48445282l650000 650000M148970000 53530000h-2352000M146620000 53530000l-188000 188000M148760000 47838000l216000-216000M148970000 47622000h2540000M145880000 47838000h2873000M148970000 48989000v-1367000M153550000 49654000l-508000 508000M150630000 51046000l884000-884000M153040000 50162000h-1524000M153550000 46098000v3556000M147700000 45082000h4832000M152530000 45082000l1016000 1016000M145240000 47297000l2215000-2215000M147450000 45082000h248000M145240000 47838000v-541000M148970000 51046000h1656000"/></g><g><circle cx="151510000" cy="47622000" r="175000"/><circle cx="151510000" cy="50162000" r="175000"/><circle cx="151510000" cy="52702000" r="175000"/><circle cx="151510000" cy="55242000" r="175000"/></g></g><g fill="#b5ae30" mask="url(#c)" stroke="#b5ae30" stroke-linecap="round" stroke-linejoin="round"><path d="M150660000 48471999v-1700000h1700000v1700000z" fill-rule="evenodd"/><circle cx="151510000" cy="50162000" r="850000"/><circle cx="151510000" cy="52702000" r="850000"/><circle cx="151510000" cy="55242000" r="850000"/><g fill-rule="evenodd"><path d="M144040000 55900000l-11418 57403-32516 48663-48663 32516-57403 11418h-1175000l-57403-11418-48663-32516-32516-48663-11418-57403v-300000l11418-57403 32516-48663 48663-32516 57403-11418h1175000l57403 11418 48663 32516 32516 48663 11418 57403zM144040000 54000000l-11418 57403-32516 48663-48663 32516-57403 11418h-1175000l-57403-11418-48663-32516-32516-48663-11418-57403v-300000l11418-57403 32516-48663 48663-32516 57403-11418h1175000l57403 11418 48663 32516 32516 48663 11418 57403zM142170000 54950000l-11418 57403-32516 48663-48663 32516-57403 11418h-1175000l-57403-11418-48663-32516-32516-48663-11418-57403v-300000l11418-57403 32516-48663 48663-32516 57403-11418h1175000l57403 11418 48663 32516 32516 48663 11418 57403zM142150000 57104000l10657-53576 30348-45419 45419-30348 53576-10657h280000l53576 10657 45419 30348 30348 45419 10657 53576v340000l-10657 53576-30348 45419-45419 30348-53576 10657h-280000l-53576-10657-45419-30348-30348-45419-10657-53576zM143110000 57104000l10657-53576 30348-45419 45419-30348 53576-10657h280000l53576 10657 45419 30348 30348 45419 10657 53576v340000l-10657 53576-30348 45419-45419 30348-53576 10657h-280000l-53576-10657-45419-30348-30348-45419-10657-53576zM149070000 52660000l38268 7612 32443 21677 21677 32443 7612 38268v260000l-7612 38268-21677 32443-32443 21677-38268 7612h-200000l-38268-7612-32443-21677-21677-32443-7612-38268v-260000l7612-38268 21677-32443 32443-21677 38268-7612zM149070000 53300000l38268 7612 32443 21677 21677 32443 7612 38268v260000l-7612 38268-21677 32443-32443 21677-38268 7612h-200000l-38268-7612-32443-21677-21677-32443-7612-38268v-260000l7612-38268 21677-32443 32443-21677 38268-7612zM148870000 51916000l-38268-7612-32443-21677-21677-32443-7612-38268v-260000l7612-38268 21677-32443 32443-21677 38268-7612h200000l38268 7612 32443 21677 21677 32443 7612 38268v260000l-7612 38268-21677 32443-32443 21677-38268 7612zM148870000 51276000l-38268-7612-32443-21677-21677-32443-7612-38268v-260000l7612-38268 21677-32443 32443-21677 38268-7612h200000l38268 7612 32443 21677 21677 32443 7612 38268v260000l-7612 38268-21677 32443-32443 21677-38268 7612zM144110000 48087999h-350000v-500000h350000zM144760000 48087999h-350000v-500000h350000zM145410000 48087999h-350000v-500000h350000zM146060000 48087999h-350000v-500000h350000zM146060000 49687999h-350000v-500000h350000zM145410000 49687999h-350000v-500000h350000zM144760000 49687999h-350000v-500000h350000zM144110000 49687999h-350000v-500000h350000zM144630000 52364000l-10657 53576-30348 45419-45419 30348-53576 10657h-280000l-53576-10657-45419-30348-30348-45419-10657-53576v-340000l10657-53576 30348-45419 45419-30348 53576-10657h280000l53576 10657 45419 30348 30348 45419 10657 53576zM143670000 52364000l-10657 53576-30348 45419-45419 30348-53576 10657h-280000l-53576-10657-45419-30348-30348-45419-10657-53576v-340000l10657-53576 30348-45419 45419-30348 53576-10657h280000l53576 10657 45419 30348 30348 45419 10657 53576zM144650000 51348000l-10657 53576-30348 45419-45419 30348-53576 10657h-280000l-53576-10657-45419-30348-30348-45419-10657-53576v-340000l10657-53576 30348-45419 45419-30348 53576-10657h280000l53576 10657 45419 30348 30348 45419 10657 53576zM143690000 51348000l-10657 53576-30348 45419-45419 30348-53576 10657h-280000l-53576-10657-45419-30348-30348-45419-10657-53576v-340000l10657-53576 30348-45419 45419-30348 53576-10657h280000l53576 10657 45419 30348 30348 45419 10657 53576zM148870000 49859000l-38268-7612-32443-21677-21677-32443-7612-38268v-260000l7612-38268 21677-32443 32443-21677 38268-7612h200000l38268 7612 32443 21677 21677 32443 7612 38268v260000l-7612 38268-21677 32443-32443 21677-38268 7612zM148870000 49219000l-38268-7612-32443-21677-21677-32443-7612-38268v-260000l7612-38268 21677-32443 32443-21677 38268-7612h200000l38268 7612 32443 21677 21677 32443 7612 38268v260000l-7612 38268-21677 32443-32443 21677-38268 7612zM145810000 57143000l-95671-19030-81106-54193-54193-81106-19030-95671v-750000l19030-95671 54193-81106 81106-54193 95671-19030h1250000l95671 19030 81106 54193 54193 81106 19030 95671v750000l-19030 95671-54193 81106-81106 54193-95671 19030zM145810000 54343000l-95671-19030-81106-54193-54193-81106-19030-95671v-750000l19030-95671 54193-81106 81106-54193 95671-19030h1250000l95671 19030 81106 54193 54193 81106 19030 95671v750000l-19030 95671-54193 81106-81106 54193-95671 19030z"/></g><g fill-opacity="0" stroke-width="250000" fill="none"><path d="M141430000 56280000v-1480500M149160000 52702000h2352000M144340000 54800000l574000-574000M148790000 52702000l188000 188000M142430000 57274000l-993500-993500M148970000 52890000l188000-188000M144910000 53210000l508000-508000M144910000 54226000v-1016000M141430000 54800000h2903500M145420000 52702000h3368000M143940000 48089000v-251000M143390000 52194000h-508000M143390000 57274000h2292000M141350000 58290000l-1016000-1016000M144580000 49438000v-357000M142370000 49146000l508000-508000M143410000 48612600l523600-523600M142880000 48638000h533400M144580000 49081000l-443000-443000M143390000 57274000v508000M142370000 51686000v-1016000M142370000 50670000v-1524000M140340000 57274000v-3556000M144140000 48638000h-730600M143390000 57782000l-508000 508000M145680000 57274000l756000-756000M146430000 56518000h3804000M143310000 55750000v1445500M140340000 53718000l2032000-2032000M143410000 51178000h-536000M143310000 57195500l78500 78500M142880000 51178000l-508000-508000M150240000 56518000l1276000-1276000M143410000 48638000v-25400M142880000 58290000h-1524000M142880000 52194000l-508000-508000M144400000 53210000v-960000M143310000 53850000h454500M145240000 49932600l-153200 153200M148470000 51686000l-584200-584200M143940000 49438000v313000M146410000 50085800h1473200M143940000 49751000l439000 439000M144910000 50085800h171800M147880000 50085800h635400M146100000 50085800l-212800-212800M145240000 49095282v342718M146100000 50085800h310800M144910000 50085800h-431800M144350000 51206000l28000-28000M145240000 49438000v494600M145880000 49873000v-435000M144370000 50190000v988000M144580000 47838000v607282M148970000 51686000h-508000M148520000 50085800l456800-456800M144400000 52250000l-56000-56000M147880000 51101800v-1016000M144350000 52194000v-988000M144480000 50085800l-104200 104200M143760000 53850000l640000-640000M145080000 50085800h1016000M144580000 48445282l650000 650000M148970000 53530000h-2352000M146620000 53530000l-188000 188000M148760000 47838000l216000-216000M148970000 47622000h2540000M145880000 47838000h2873000M148970000 48989000v-1367000M153550000 49654000l-508000 508000M150630000 51046000l884000-884000M153040000 50162000h-1524000M153550000 46098000v3556000M147700000 45082000h4832000M152530000 45082000l1016000 1016000M145240000 47297000l2215000-2215000M147450000 45082000h248000M145240000 47838000v-541000M148970000 51046000h1656000"/></g><g><circle cx="151510000" cy="47622000" r="175000"/><circle cx="151510000" cy="50162000" r="175000"/><circle cx="151510000" cy="52702000" r="175000"/><circle cx="151510000" cy="55242000" r="175000"/></g></g><g fill="#f0f0f0" mask="url(#d)" stroke="#f0f0f0" stroke-linecap="round" stroke-linejoin="round"><g fill-opacity="0"><g class="stroked-text" stroke-width="750000"><path d="M107010000 37885714l428572 142857 142857 142857 142857 285714v428572l-142857 285714-142857 142857-285715 142857h-1142857v-3000000h1000000l285715 142858 142857 142857 142857 285714v285714l-142857 285715-142857 142857-285715 142857h-1000000M109010000 39457142v-3000000l1000000 2142858 1000000-2142858v3000000M112440000 39457142v-3000000h1142857l285714 142858 142857 142857 142857 285714v428571l-142857 285715-142857 142857-285714 142857h-1142857M115300000 36742857l142857-142857 285714-142858h714286l285714 142858 142857 142857 142857 285714v285714l-142857 428572-1714286 1714285h1857143M118730000 37742857l-285714-142857-142857-142858-142858-285714v-142857l142858-285714 142857-142857 285714-142858h571429l285714 142858 142857 142857 142857 285714v142857l-142857 285714-142857 142858-285714 142857h-571429l-285714 142857-142857 142857-142858 285714v571429l142858 285714 142857 142857 285714 142857h571429l285714-142857 142857-142857 142857-285714v-571429l-142857-285714-142857-142857-285714-142857M121730000 36457142h285714l285715 142858 142857 142857 142857 285714 142857 571429v714285l-142857 571429-142857 285714-142857 142857-285715 142857h-285714l-285714-142857-142857-142857-142858-285714-142857-571429v-714285l142857-571429 142858-285714 142857-142857 285714-142858" fill="none"/></g><g class="stroked-text" stroke-width="375000"><path d="M104110000 87673571v-1500000h571429l142857 71429 71429 71428 71428 142857v214286l-71428 142857-71429 71429-142857 71428h-571429M106460000 87673571l-500000-714286M105610000 87673571v-1500000h571429l142857 71429 71429 71428 71428 142857v214286l-71428 142857-71429 71429-142857 71428h-571429M107110000 86887857h500000M107820000 87673571h-714286v-1500000h714286M108390000 87602142l214285 71429h357143l142857-71429 71429-71428 71429-142857v-142857l-71429-142858-71429-71428-142857-71429-285714-71428-142857-71429-71429-71428-71428-142858v-142857l71428-142857 71429-71428 142857-71429h357143l214286 71429M109820000 87602142l214286 71429h357143l142857-71429 71428-71428 71429-142857v-142857l-71429-142858-71428-71428-142857-71429-285715-71428-142857-71429-71428-71428-71429-142858v-142857l71429-142857 71428-71428 142857-71429h357143l214286 71429M120250000 86173571h857142M120680000 87673571v-1500000M121610000 86887857h500000M122320000 87673571h-714286v-1500000h714286M122960000 87673571v-1500000l500000 1071429 500000-1071429v1500000M124680000 87673571v-1500000h571429l142857 71429 71428 71428 71429 142857v214286l-71429 142857-71428 71429-142857 71428h-571429" fill="none"/></g><g stroke-width="120000" fill="none"><path d="M151510000 46292000h1330000M150180000 48892000h2660000M152840000 46292000v1330000M150180000 48892000v7680000M152840000 48892000v7680000M150180000 56572000h2660000M142370000 53240000h650000M142370000 53240000h-650000M142370000 56360000h1675000M142370000 56360000h-650000M142800000 56914000h215672M142800000 57634000h215672"/></g><g stroke-width="100000" fill="none"><path d="M143560000 49738000v-640000M146260000 48178000v-640000M145780000 49738000h480000M143560000 49738000h480000M146260000 49738000v-640000M145780000 47538000h480000M143560000 48178000v-640000"/></g><g stroke-width="120000" fill="none"><path d="M143970000 51834000h-215672M143970000 52554000h-215672M144000000 51538000h-215672M144000000 50818000h-215672M145300000 53518000v3885000M145300000 57403000h2270000M147570000 57403000v-3885000"/></g></g><circle cx="151510000" cy="47622000" r="175000"/><circle cx="151510000" cy="50162000" r="175000"/><circle cx="151510000" cy="52702000" r="175000"/><circle cx="151510000" cy="55242000" r="175000"/></g><g fill-opacity="0" stroke-linecap="round" stroke-linejoin="round" stroke-width="50000" fill="none" stroke="#000"><path d="M155450000 33528000H98046000M98044000 95504000h57404000M155450000 95504000V33528000M98044000 33528000v61976000"/></g></g><g stroke-width=".093"><g transform="matrix(1000000 0 0 -1000000 151510000 47622000)"><path d="M-1.27-8.89h2.54V1.27h-2.54z" fill="#1a1a1a" fill-rule="evenodd" stroke="#000"/><path d="M-.6-1.94v-1.2H.6v1.2z" fill="#333" fill-rule="evenodd" stroke="#000"/><g fill="#4d4d4d" fill-rule="evenodd" stroke="#000"><path d="M-.6-5.68H.6v1.2H-.6zM-.6-.6H.6V.6H-.6zM.6-7.02H-.6v-1.2H.6z"/></g><g fill="none" stroke="#000"><path d="M-.6-1.94l.299-.299M-.6-3.14l.299.299M-.301-2.239v-.602M.6-1.94l-.299-.299M.301-2.239h-.602M.6-3.14l-.299.299M.301-2.841v.602M-.301-2.841h.602M.6-4.48l-.299-.299M-.6-4.48l.299-.299M.301-4.779h-.602M.6-5.68l-.299.299M.301-5.381v.602M-.6-5.68l.299.299M-.301-5.381h.602M-.301-4.779v-.602M-.6-.6l.299.299M.6-.6l-.299.299M-.301-.301h.602M-.6.6l.299-.299M-.301.301v-.602M.6.6L.301.301M.301.301h-.602M.301-.301v.602M-.6-8.22l.299.299M.6-8.22l-.299.299M-.301-7.921h.602M-.6-7.02l.299-.299M-.301-7.319v-.602M.6-7.02l-.299-.299M.301-7.319h-.602M.301-7.921v.602"/></g><g fill="olive" fill-rule="evenodd" stroke="#000"><path d="M-.3-2.84h.6v.6h-.6zM.3-5.38v.6h-.6v-.6zM.3-.3v.6h-.6v-.6zM.3-7.92v.6h-.6v-.6z"/></g><g fill="none" stroke="#000"><path d="M-.1-2.29v.05M-.1-2.79v.5M-.1-2.84v.05M.1-2.84v.05M-.1-2.79h.2M.1-2.79v.5M.1-2.29v.05M-.1-2.29h.2M-.1-4.83v.05M-.1-5.33v.5M-.1-5.38v.05M.1-5.38v.05M-.1-5.33h.2M.1-5.33v.5M.1-4.83v.05M-.1-4.83h.2M-.1.25V.3M-.1-.25v.5M-.1-.3v.05M.1-.3v.05M-.1-.25h.2M.1-.25v.5M.1.25V.3M-.1.25h.2M-.1-7.37v.05M-.1-7.87v.5M-.1-7.92v.05M.1-7.92v.05M-.1-7.87h.2M.1-7.87v.5M.1-7.37v.05M-.1-7.37h.2"/></g></g></g><g stroke="#000" stroke-width=".093"><g fill="none"><path d="M142975000 56300000h-1210000M141765000 56300000l-95000-95000M141765000 56300000l12500-25000M142962500 56275000h-1185000M142975000 56300000l-12500-25000M143070000 56205000l-95000 95000M141670000 56205000v-1205000M141670000 54600000v-1205000M141670000 53395000l95000-95000M141765000 53300000h1210000M142975000 53300000l95000 95000M143070000 53395000v255000M143070000 55950000v255000M143070000 54050000v1500000M141670000 56205000l25000-12500M141777500 56275000l-82500-82500M141777500 56275000l33378-66757M142962500 56275000l-33378-66757M143045000 56192500l-82500 82500M143070000 56205000l-25000-12500M141695000 56192500v-1192500M141670000 53395000l25000 12500M141695000 54600000v-1192500M141765000 53300000l12500 25000M141695000 53407500l82500-82500M142975000 53300000l-12500 25000M141777500 53325000h1185000M143070000 53395000l-25000 12500M142962500 53325000l82500 82500M143045000 53407500v242500M143045000 55950000v242500M143045000 54050000v1500000M141695000 56192500l66757-33378" stroke-width="93000"/></g><path d="M141761800 56159120v-2718200l49122-49122-.4.5h1118200l49122 49122-.05-.5v2718200l-49122 49122 .05-.5h-1118200l-49122-49122z" fill="#1a1a1a" fill-rule="evenodd" stroke-width="93000"/><g fill="none"><path d="M143045000 56192500l-66757-33378M141695000 55000000v-400000M141695000 53407500l66757 33378M141777500 53325000l33378 66757M142962500 53325000l-33378 66757M143045000 53407500l-66757 33378M143045000 53650000v400000M143045000 55550000v400000" stroke-width="93000"/></g><path d="M141120000 55000000v-400000h550000v400000h-350000z" fill="gray" fill-rule="evenodd" stroke-width="93000"/><path d="M141420000 55000000v-400000M141320000 55000000v-400000" fill="none" stroke-width="93000"/><g fill="none"><path d="M141670000 55000000h25000M141670000 54600000h25000M143070000 53650000h-25000M143070000 55950000h-25000M143070000 54050000h-25000M143070000 55550000h-25000" stroke-width="93000"/></g><path d="M143595000 53650000v400000h-550000v-400000h350000z" fill="gray" fill-rule="evenodd" stroke-width="93000"/><path d="M143295000 53650000v400000M143395000 53650000v400000" fill="none" stroke-width="93000"/><g><path d="M143595000 55550000v400000h-550000v-400000h350000z" fill="gray" fill-rule="evenodd" stroke-width="93000"/><path d="M143295000 55550000v400000M143395000 55550000v400000" fill="none" stroke-width="93000"/></g></g><g transform="translate(142395000 56259000) scale(1000000)"><g id="f" stroke-width=".013"><path d="M.815 1.245h-.6v-.46 0h.6v.46z" fill="#ffb380" stroke="#000"/><g transform="matrix(1 0 0 -1 .515 1.015)" fill="#b3b3b3"><path d="M-.3.25v-.5h-.2v.5zM.5.25v-.5H.3v.5zM-.5-.23h.2M-.5.23h.2M-.3.21h.6M-.3-.21h.6M.3-.23h.2M.3.23h.2" fill-rule="evenodd" stroke="#191919"/></g></g></g><g transform="rotate(90 48543000 101440000) scale(1000000)"><g transform="matrix(1 0 0 -1 .313 1.013)" stroke-width=".013" id="e"><path d="M-.2-.15h-.077 0H-.3v.3h.1zM.2-.15h.1v.3H.2z" fill="#999" fill-rule="evenodd" stroke="#191919"/><path d="M-.2.15h.4v-.3h0-.4z" fill="#333" fill-rule="evenodd" stroke="#191919"/><path d="M-.277-.15v.3M-.223-.15v.3M.277-.15v.3M.223-.15v.3" fill="none" stroke="#191919"/></g></g><use xlink:href="#e" transform="rotate(-90 99818000 -48139000) scale(1000000)"/><g stroke-width=".04" transform="translate(143635000 47613000) scale(1000000)"><path d="M.025 2.025v-2h2.5v2z" fill="gray" fill-rule="evenodd" stroke="#191919"/><circle transform="scale(1 -1)" cx=".525" cy="-.525" r=".1" fill="#1a1a1a" stroke="#191919"/></g><use xlink:href="#f" transform="rotate(180 72192500 26604500) scale(1000000)"/><use xlink:href="#f" transform="rotate(180 72202500 26096500) scale(1000000)"/><use xlink:href="#e" transform="rotate(-90 98789500 -49167500) scale(1000000)"/><g stroke-width=".013"><g transform="matrix(0 -1000000 -1000000 0 146430000 55118000)"><g fill="none" stroke="#191919"><path d="M-1 .8V.6M-1 .6V-.6M-1-.6v-.2M1-.6v-.2M1 .6V-.6M1 .8V.6"/></g><g stroke="#191919"><path d="M.9.8h.7V-.8H.9z" fill="gray" fill-rule="evenodd"/><path d="M-1.06.6H-1M-1.06-.6H-1" fill="none"/><path d="M-.9.8V-.8h-.7V.8h.6z" fill="gray" fill-rule="evenodd"/></g><g fill="none" stroke="#191919"><path d="M1-.6h.06M1 .6h.06M-1.45.6h.39M-1.45.8V.6M-1.06-.6h-.39M-1.45-.6v-.2M1.45.6v.2M1.06.6h.39M1.45-.6h-.39M1.45-.8v.2M-1.06-.6V.6M1.06-.6V.6M-1.54-.8V.8M1.54-.8V.8"/></g></g><path d="M145630000 54218000v1800000-.03h1600000v.03-1800000z" fill="#ccc" stroke="#000" stroke-width="13000"/></g></svg>