<svg width="416" height="266" viewBox="0 0 28858 18524" xmlns="http://www.w3.org/2000/svg"><g clip-path="url(#a)" mask="url(#b)" transform="translate(-47038 -12391)"><defs><clipPath id="a"><path d="M47047 12598v18307h28838V12598H47047" fill-rule="evenodd"/></clipPath></defs><g fill="#313d63" stroke="#313d63"><path d="M47047 12598v18307h28838V12598H47047" fill-rule="evenodd"/><g fill-opacity="0" stroke-linecap="round" stroke-linejoin="round" stroke-width="19.685" fill="none" stroke="#000"><path d="M75885 30905v-98M47047 30905h28838M75885 12598v18209M47047 12598h28838M47047 30905V12598"/></g></g><g stroke-linecap="round" stroke-linejoin="round" fill="#9c6b28" stroke="#9c6b28"><path d="M59346 21363v-993.7h600v993.7z" fill-rule="evenodd" stroke="none" stroke-width="0"/><g fill-opacity="0" stroke-width="600" fill="none"><path d="M60645 20669v393M61645 20669v393M62645 20669v393M63645 20669v393M63645 14669v393M62645 14669v393M61645 14669v393M60645 14669v393M59645 14669v393"/></g><g stroke-width="0" stroke="none"><circle cx="71228" cy="21850" r="275.59"/><circle cx="73228" cy="21850" r="275.59"/><circle cx="71228" cy="22835" r="275.59"/><circle cx="73228" cy="22835" r="275.59"/><circle cx="71228" cy="23819" r="275.59"/><circle cx="73228" cy="23819" r="275.59"/><circle cx="71228" cy="24803" r="275.59"/><circle cx="73228" cy="24803" r="275.59"/><circle cx="73260" cy="20669" r="275.59"/><circle cx="71260" cy="20669" r="275.59"/><circle cx="73260" cy="19732" r="275.59"/><circle cx="71260" cy="19732" r="275.59"/><circle cx="73260" cy="18701" r="275.59"/><circle cx="71260" cy="18701" r="275.59"/><circle cx="73260" cy="17716" r="275.59"/><circle cx="71260" cy="17716" r="275.59"/><circle cx="73260" cy="16732" r="275.59"/><circle cx="71260" cy="16732" r="275.59"/><circle cx="73260" cy="15748" r="275.59"/><circle cx="71260" cy="15748" r="275.59"/><circle cx="73260" cy="14764" r="275.59"/><circle cx="71260" cy="14764" r="275.59"/><circle cx="73260" cy="13780" r="275.59"/><circle cx="71260" cy="13780" r="275.59"/></g><path d="M66919 22894v-511.8h413.4v511.8z" fill-rule="evenodd" stroke="none" stroke-width="0"/><g fill-opacity="0" stroke-width="413.39" fill="none"><path d="M69125 22588v99M68125 22588v99"/></g><path d="M61408 22894v-511.8h413.4v511.8z" fill-rule="evenodd" stroke="none" stroke-width="0"/><g fill-opacity="0" stroke-width="413.39" fill="none"><path d="M63614 22588v99M62614 22588v99"/></g><path d="M55896 22894v-511.8h413.4v511.8z" fill-rule="evenodd" stroke="none" stroke-width="0"/><g fill-opacity="0" stroke-width="413.39" fill="none"><path d="M58102 22588v99M57102 22588v99"/></g><path d="M50384 22894v-511.8h413.3v511.8z" fill-rule="evenodd" stroke="none" stroke-width="0"/><g fill-opacity="0" stroke-width="413.39" fill="none"><path d="M52590 22588v99M51590 22588v99"/></g><g stroke-width="0" stroke="none"><circle cx="74803" cy="26780" r="334.65"/><circle cx="74803" cy="25780" r="334.65"/><circle cx="74803" cy="24780" r="334.65"/><circle cx="74803" cy="23780" r="334.65"/><circle cx="74803" cy="22780" r="334.65"/><circle cx="74803" cy="21780" r="334.65"/><circle cx="74803" cy="20780" r="334.65"/><circle cx="74803" cy="19780" r="334.65"/><circle cx="74803" cy="18780" r="334.65"/><circle cx="74803" cy="17780" r="334.65"/><circle cx="74803" cy="16780" r="334.65"/><circle cx="74803" cy="15780" r="334.65"/><circle cx="74803" cy="14780" r="334.65"/><path d="M74468 14114v-669.3h669.3v669.3z" fill-rule="evenodd"/></g><path d="M64858 21363v-993.7h600v993.7z" fill-rule="evenodd" stroke="none" stroke-width="0"/><g fill-opacity="0" stroke-width="600" fill="none"><path d="M66157 20669v393M67157 20669v393M68157 20669v393M69157 20669v393M69157 14669v393M68157 14669v393M67157 14669v393M66157 14669v393M65157 14669v393"/></g><path d="M53834 21363v-993.7h600v993.7z" fill-rule="evenodd" stroke="none" stroke-width="0"/><g fill-opacity="0" stroke-width="600" fill="none"><path d="M55133 20669v393M56133 20669v393M57133 20669v393M58133 20669v393M58133 14669v393M57133 14669v393M56133 14669v393M55133 14669v393M54133 14669v393"/></g><path d="M48322 21363v-993.7h600v993.7z" fill-rule="evenodd" stroke="none" stroke-width="0"/><g fill-opacity="0" stroke-width="600" fill="none"><path d="M49622 20669v393M50622 20669v393M51622 20669v393M52622 20669v393M52622 14669v393M51622 14669v393M50622 14669v393M49622 14669v393M48622 14669v393"/></g></g><g fill="#212d53" stroke="#212d53" stroke-linecap="round" stroke-linejoin="round"><path d="M59346 21363v-993.7h600v993.7z" fill-rule="evenodd" stroke="none" stroke-width="0"/><g fill-opacity="0" stroke-width="600" fill="none"><path d="M60645 20669v393M61645 20669v393M62645 20669v393M63645 20669v393M63645 14669v393M62645 14669v393M61645 14669v393M60645 14669v393M59645 14669v393"/></g><g stroke-width="0" stroke="none"><circle cx="71228" cy="21850" r="275.59"/><circle cx="73228" cy="21850" r="275.59"/><circle cx="71228" cy="22835" r="275.59"/><circle cx="73228" cy="22835" r="275.59"/><circle cx="71228" cy="23819" r="275.59"/><circle cx="73228" cy="23819" r="275.59"/><circle cx="71228" cy="24803" r="275.59"/><circle cx="73228" cy="24803" r="275.59"/><circle cx="73260" cy="20669" r="275.59"/><circle cx="71260" cy="20669" r="275.59"/><circle cx="73260" cy="19732" r="275.59"/><circle cx="71260" cy="19732" r="275.59"/><circle cx="73260" cy="18701" r="275.59"/><circle cx="71260" cy="18701" r="275.59"/><circle cx="73260" cy="17716" r="275.59"/><circle cx="71260" cy="17716" r="275.59"/><circle cx="73260" cy="16732" r="275.59"/><circle cx="71260" cy="16732" r="275.59"/><circle cx="73260" cy="15748" r="275.59"/><circle cx="71260" cy="15748" r="275.59"/><circle cx="73260" cy="14764" r="275.59"/><circle cx="71260" cy="14764" r="275.59"/><circle cx="73260" cy="13780" r="275.59"/><circle cx="71260" cy="13780" r="275.59"/></g><path d="M66919 22894v-511.8h413.4v511.8z" fill-rule="evenodd" stroke="none" stroke-width="0"/><g fill-opacity="0" stroke-width="413.39" fill="none"><path d="M69125 22588v99M68125 22588v99"/></g><path d="M61408 22894v-511.8h413.4v511.8z" fill-rule="evenodd" stroke="none" stroke-width="0"/><g fill-opacity="0" stroke-width="413.39" fill="none"><path d="M63614 22588v99M62614 22588v99"/></g><path d="M55896 22894v-511.8h413.4v511.8z" fill-rule="evenodd" stroke="none" stroke-width="0"/><g fill-opacity="0" stroke-width="413.39" fill="none"><path d="M58102 22588v99M57102 22588v99"/></g><path d="M50384 22894v-511.8h413.3v511.8z" fill-rule="evenodd" stroke="none" stroke-width="0"/><g fill-opacity="0" stroke-width="413.39" fill="none"><path d="M52590 22588v99M51590 22588v99"/></g><g stroke-width="0" stroke="none"><circle cx="74803" cy="26780" r="334.65"/><circle cx="74803" cy="25780" r="334.65"/><circle cx="74803" cy="24780" r="334.65"/><circle cx="74803" cy="23780" r="334.65"/><circle cx="74803" cy="22780" r="334.65"/><circle cx="74803" cy="21780" r="334.65"/><circle cx="74803" cy="20780" r="334.65"/><circle cx="74803" cy="19780" r="334.65"/><circle cx="74803" cy="18780" r="334.65"/><circle cx="74803" cy="17780" r="334.65"/><circle cx="74803" cy="16780" r="334.65"/><circle cx="74803" cy="15780" r="334.65"/><circle cx="74803" cy="14780" r="334.65"/><path d="M74468 14114v-669.3h669.3v669.3z" fill-rule="evenodd"/></g><path d="M64858 21363v-993.7h600v993.7z" fill-rule="evenodd" stroke="none" stroke-width="0"/><g fill-opacity="0" stroke-width="600" fill="none"><path d="M66157 20669v393M67157 20669v393M68157 20669v393M69157 20669v393M69157 14669v393M68157 14669v393M67157 14669v393M66157 14669v393M65157 14669v393"/></g><path d="M53834 21363v-993.7h600v993.7z" fill-rule="evenodd" stroke="none" stroke-width="0"/><g fill-opacity="0" stroke-width="600" fill="none"><path d="M55133 20669v393M56133 20669v393M57133 20669v393M58133 20669v393M58133 14669v393M57133 14669v393M56133 14669v393M55133 14669v393M54133 14669v393"/></g><path d="M48322 21363v-993.7h600v993.7z" fill-rule="evenodd" stroke="none" stroke-width="0"/><g fill-opacity="0" stroke-width="600" fill="none"><path d="M49622 20669v393M50622 20669v393M51622 20669v393M52622 20669v393M52622 14669v393M51622 14669v393M50622 14669v393M49622 14669v393M48622 14669v393"/></g><g stroke-width="0" stroke="none"><circle cx="65158" cy="17323" r="157.48"/><circle cx="59646" cy="17323" r="157.48"/><circle cx="54134" cy="17323" r="157.48"/><circle cx="55134" cy="16748" r="157.48"/><circle cx="60646" cy="16748" r="157.48"/><circle cx="66158" cy="16748" r="157.48"/><circle cx="49606" cy="16732" r="157.48"/><circle cx="57284" cy="16142" r="157.48"/><circle cx="62795" cy="16142" r="157.48"/><circle cx="68307" cy="16142" r="157.48"/><circle cx="51622" cy="16189" r="157.48"/><circle cx="50197" cy="17913" r="157.48"/><circle cx="55709" cy="17913" r="157.48"/><circle cx="61220" cy="17913" r="157.48"/><circle cx="66732" cy="17913" r="157.48"/><circle cx="49016" cy="18504" r="157.48"/><circle cx="54528" cy="18504" r="157.48"/><circle cx="60236" cy="18504" r="157.48"/><circle cx="65748" cy="18504" r="157.48"/></g><g fill-opacity="0" stroke-width="196.85" fill="none"><path d="M65157 20866v-3544M59645 20866v-3544M54133 20866v-3544M55133 20866v-4118M60645 20866v-4118M66157 20866v-4118M49622 20866v-4118M49622 16748l-16-16M50622 14866v6000M57133 20866v-4575M57133 16291l150-150M62645 20866v-4575M62645 16291l150-150M68157 20866v-4575M68157 16291l150-150M51622 20866v-4678M49622 14866v504M49622 15370l574 574M50196 15944v1969M55133 14866v700M55133 15566l575 575M55708 16141v1772M60645 14866v700M60645 15566l575 575M61220 16141v1772M66157 14866v700M66157 15566l575 575M66732 16141v1772M48622 14866v3244M48622 18110l393 393M54133 14866v1472M54133 16338l394 394M54527 16732v1771M59645 14866v1275M59645 16141l591 591M60236 16732v1771M65157 14866v1472M65157 16338l591 591M65748 16929v1574M56133 14866v6000M61645 14866v6000M67157 14866v6000"/></g><g stroke-width="0" stroke="none"><circle cx="65158" cy="17323" r="68.898"/><circle cx="59646" cy="17323" r="68.898"/><circle cx="54134" cy="17323" r="68.898"/><circle cx="55134" cy="16748" r="68.898"/><circle cx="60646" cy="16748" r="68.898"/><circle cx="66158" cy="16748" r="68.898"/><circle cx="49606" cy="16732" r="68.898"/><circle cx="57284" cy="16142" r="68.898"/><circle cx="62795" cy="16142" r="68.898"/><circle cx="68307" cy="16142" r="68.898"/><circle cx="51622" cy="16189" r="68.898"/><circle cx="50197" cy="17913" r="68.898"/><circle cx="55709" cy="17913" r="68.898"/><circle cx="61220" cy="17913" r="68.898"/><circle cx="66732" cy="17913" r="68.898"/><circle cx="49016" cy="18504" r="68.898"/><circle cx="54528" cy="18504" r="68.898"/><circle cx="60236" cy="18504" r="68.898"/><circle cx="65748" cy="18504" r="68.898"/><circle cx="59646" cy="20866" r="68.898"/><circle cx="60646" cy="20866" r="68.898"/><circle cx="61646" cy="20866" r="68.898"/><circle cx="62646" cy="20866" r="68.898"/><circle cx="63646" cy="20866" r="68.898"/><circle cx="63646" cy="14866" r="68.898"/><circle cx="62646" cy="14866" r="68.898"/><circle cx="61646" cy="14866" r="68.898"/><circle cx="60646" cy="14866" r="68.898"/><circle cx="59646" cy="14866" r="68.898"/><circle cx="71228" cy="21850" r="68.898"/><circle cx="73228" cy="21850" r="68.898"/><circle cx="71228" cy="22835" r="68.898"/><circle cx="73228" cy="22835" r="68.898"/><circle cx="71228" cy="23819" r="68.898"/><circle cx="73228" cy="23819" r="68.898"/><circle cx="71228" cy="24803" r="68.898"/><circle cx="73228" cy="24803" r="68.898"/><circle cx="73260" cy="20669" r="68.898"/><circle cx="71260" cy="20669" r="68.898"/><circle cx="73260" cy="19732" r="68.898"/><circle cx="71260" cy="19732" r="68.898"/><circle cx="73260" cy="18701" r="68.898"/><circle cx="71260" cy="18701" r="68.898"/><circle cx="73260" cy="17716" r="68.898"/><circle cx="71260" cy="17716" r="68.898"/><circle cx="73260" cy="16732" r="68.898"/><circle cx="71260" cy="16732" r="68.898"/><circle cx="73260" cy="15748" r="68.898"/><circle cx="71260" cy="15748" r="68.898"/><circle cx="73260" cy="14764" r="68.898"/><circle cx="71260" cy="14764" r="68.898"/><circle cx="73260" cy="13780" r="68.898"/><circle cx="71260" cy="13780" r="68.898"/><circle cx="67126" cy="22638" r="68.898"/><circle cx="69126" cy="22638" r="68.898"/><circle cx="68126" cy="22638" r="68.898"/><circle cx="61614" cy="22638" r="68.898"/><circle cx="63614" cy="22638" r="68.898"/><circle cx="62614" cy="22638" r="68.898"/><circle cx="56102" cy="22638" r="68.898"/><circle cx="58102" cy="22638" r="68.898"/><circle cx="57102" cy="22638" r="68.898"/><circle cx="50591" cy="22638" r="68.898"/><circle cx="52591" cy="22638" r="68.898"/><circle cx="51591" cy="22638" r="68.898"/><circle cx="74803" cy="26780" r="68.898"/><circle cx="74803" cy="25780" r="68.898"/><circle cx="74803" cy="24780" r="68.898"/><circle cx="74803" cy="23780" r="68.898"/><circle cx="74803" cy="22780" r="68.898"/><circle cx="74803" cy="21780" r="68.898"/><circle cx="74803" cy="20780" r="68.898"/><circle cx="74803" cy="19780" r="68.898"/><circle cx="74803" cy="18780" r="68.898"/><circle cx="74803" cy="17780" r="68.898"/><circle cx="74803" cy="16780" r="68.898"/><circle cx="74803" cy="15780" r="68.898"/><circle cx="74803" cy="14780" r="68.898"/><circle cx="74803" cy="13780" r="68.898"/><circle cx="65158" cy="20866" r="68.898"/><circle cx="66158" cy="20866" r="68.898"/><circle cx="67158" cy="20866" r="68.898"/><circle cx="68158" cy="20866" r="68.898"/><circle cx="69158" cy="20866" r="68.898"/><circle cx="69158" cy="14866" r="68.898"/><circle cx="68158" cy="14866" r="68.898"/><circle cx="67158" cy="14866" r="68.898"/><circle cx="66158" cy="14866" r="68.898"/><circle cx="65158" cy="14866" r="68.898"/><circle cx="54134" cy="20866" r="68.898"/><circle cx="55134" cy="20866" r="68.898"/><circle cx="56134" cy="20866" r="68.898"/><circle cx="57134" cy="20866" r="68.898"/><circle cx="58134" cy="20866" r="68.898"/><circle cx="58134" cy="14866" r="68.898"/><circle cx="57134" cy="14866" r="68.898"/><circle cx="56134" cy="14866" r="68.898"/><circle cx="55134" cy="14866" r="68.898"/><circle cx="54134" cy="14866" r="68.898"/><circle cx="48622" cy="20866" r="68.898"/><circle cx="49622" cy="20866" r="68.898"/><circle cx="50622" cy="20866" r="68.898"/><circle cx="51622" cy="20866" r="68.898"/><circle cx="52622" cy="20866" r="68.898"/><circle cx="52622" cy="14866" r="68.898"/><circle cx="51622" cy="14866" r="68.898"/><circle cx="50622" cy="14866" r="68.898"/><circle cx="49622" cy="14866" r="68.898"/><circle cx="48622" cy="14866" r="68.898"/></g></g><g fill="#b5ae30" mask="url(#c)" stroke="#b5ae30" stroke-linecap="round" stroke-linejoin="round"><path d="M59346 21363v-993.7h600v993.7z" fill-rule="evenodd" stroke="none" stroke-width="0"/><g fill-opacity="0" stroke-width="600" fill="none"><path d="M60645 20669v393M61645 20669v393M62645 20669v393M63645 20669v393M63645 14669v393M62645 14669v393M61645 14669v393M60645 14669v393M59645 14669v393"/></g><g stroke-width="0" stroke="none"><circle cx="71228" cy="21850" r="275.59"/><circle cx="73228" cy="21850" r="275.59"/><circle cx="71228" cy="22835" r="275.59"/><circle cx="73228" cy="22835" r="275.59"/><circle cx="71228" cy="23819" r="275.59"/><circle cx="73228" cy="23819" r="275.59"/><circle cx="71228" cy="24803" r="275.59"/><circle cx="73228" cy="24803" r="275.59"/><circle cx="73260" cy="20669" r="275.59"/><circle cx="71260" cy="20669" r="275.59"/><circle cx="73260" cy="19732" r="275.59"/><circle cx="71260" cy="19732" r="275.59"/><circle cx="73260" cy="18701" r="275.59"/><circle cx="71260" cy="18701" r="275.59"/><circle cx="73260" cy="17716" r="275.59"/><circle cx="71260" cy="17716" r="275.59"/><circle cx="73260" cy="16732" r="275.59"/><circle cx="71260" cy="16732" r="275.59"/><circle cx="73260" cy="15748" r="275.59"/><circle cx="71260" cy="15748" r="275.59"/><circle cx="73260" cy="14764" r="275.59"/><circle cx="71260" cy="14764" r="275.59"/><circle cx="73260" cy="13780" r="275.59"/><circle cx="71260" cy="13780" r="275.59"/></g><path d="M66919 22894v-511.8h413.4v511.8z" fill-rule="evenodd" stroke="none" stroke-width="0"/><g fill-opacity="0" stroke-width="413.39" fill="none"><path d="M69125 22588v99M68125 22588v99"/></g><path d="M61408 22894v-511.8h413.4v511.8z" fill-rule="evenodd" stroke="none" stroke-width="0"/><g fill-opacity="0" stroke-width="413.39" fill="none"><path d="M63614 22588v99M62614 22588v99"/></g><path d="M55896 22894v-511.8h413.4v511.8z" fill-rule="evenodd" stroke="none" stroke-width="0"/><g fill-opacity="0" stroke-width="413.39" fill="none"><path d="M58102 22588v99M57102 22588v99"/></g><path d="M50384 22894v-511.8h413.3v511.8z" fill-rule="evenodd" stroke="none" stroke-width="0"/><g fill-opacity="0" stroke-width="413.39" fill="none"><path d="M52590 22588v99M51590 22588v99"/></g><g stroke-width="0" stroke="none"><circle cx="74803" cy="26780" r="334.65"/><circle cx="74803" cy="25780" r="334.65"/><circle cx="74803" cy="24780" r="334.65"/><circle cx="74803" cy="23780" r="334.65"/><circle cx="74803" cy="22780" r="334.65"/><circle cx="74803" cy="21780" r="334.65"/><circle cx="74803" cy="20780" r="334.65"/><circle cx="74803" cy="19780" r="334.65"/><circle cx="74803" cy="18780" r="334.65"/><circle cx="74803" cy="17780" r="334.65"/><circle cx="74803" cy="16780" r="334.65"/><circle cx="74803" cy="15780" r="334.65"/><circle cx="74803" cy="14780" r="334.65"/><path d="M74468 14114v-669.3h669.3v669.3z" fill-rule="evenodd"/></g><path d="M64858 21363v-993.7h600v993.7z" fill-rule="evenodd" stroke="none" stroke-width="0"/><g fill-opacity="0" stroke-width="600" fill="none"><path d="M66157 20669v393M67157 20669v393M68157 20669v393M69157 20669v393M69157 14669v393M68157 14669v393M67157 14669v393M66157 14669v393M65157 14669v393"/></g><path d="M53834 21363v-993.7h600v993.7z" fill-rule="evenodd" stroke="none" stroke-width="0"/><g fill-opacity="0" stroke-width="600" fill="none"><path d="M55133 20669v393M56133 20669v393M57133 20669v393M58133 20669v393M58133 14669v393M57133 14669v393M56133 14669v393M55133 14669v393M54133 14669v393"/></g><path d="M48322 21363v-993.7h600v993.7z" fill-rule="evenodd" stroke="none" stroke-width="0"/><g fill-opacity="0" stroke-width="600" fill="none"><path d="M49622 20669v393M50622 20669v393M51622 20669v393M52622 20669v393M52622 14669v393M51622 14669v393M50622 14669v393M49622 14669v393M48622 14669v393"/></g><g stroke-width="0" stroke="none"><circle cx="65158" cy="17323" r="157.48"/><circle cx="59646" cy="17323" r="157.48"/><circle cx="54134" cy="17323" r="157.48"/><circle cx="55134" cy="16748" r="157.48"/><circle cx="60646" cy="16748" r="157.48"/><circle cx="66158" cy="16748" r="157.48"/><circle cx="49606" cy="16732" r="157.48"/><circle cx="57284" cy="16142" r="157.48"/><circle cx="62795" cy="16142" r="157.48"/><circle cx="68307" cy="16142" r="157.48"/><circle cx="51622" cy="16189" r="157.48"/><circle cx="50197" cy="17913" r="157.48"/><circle cx="55709" cy="17913" r="157.48"/><circle cx="61220" cy="17913" r="157.48"/><circle cx="66732" cy="17913" r="157.48"/><circle cx="49016" cy="18504" r="157.48"/><circle cx="54528" cy="18504" r="157.48"/><circle cx="60236" cy="18504" r="157.48"/><circle cx="65748" cy="18504" r="157.48"/></g><g fill-opacity="0" stroke-width="196.85" fill="none"><path d="M65157 20866v-3544M59645 20866v-3544M54133 20866v-3544M55133 20866v-4118M60645 20866v-4118M66157 20866v-4118M49622 20866v-4118M49622 16748l-16-16M50622 14866v6000M57133 20866v-4575M57133 16291l150-150M62645 20866v-4575M62645 16291l150-150M68157 20866v-4575M68157 16291l150-150M51622 20866v-4678M49622 14866v504M49622 15370l574 574M50196 15944v1969M55133 14866v700M55133 15566l575 575M55708 16141v1772M60645 14866v700M60645 15566l575 575M61220 16141v1772M66157 14866v700M66157 15566l575 575M66732 16141v1772M48622 14866v3244M48622 18110l393 393M54133 14866v1472M54133 16338l394 394M54527 16732v1771M59645 14866v1275M59645 16141l591 591M60236 16732v1771M65157 14866v1472M65157 16338l591 591M65748 16929v1574M56133 14866v6000M61645 14866v6000M67157 14866v6000"/></g><g stroke-width="0" stroke="none"><circle cx="65158" cy="17323" r="68.898"/><circle cx="59646" cy="17323" r="68.898"/><circle cx="54134" cy="17323" r="68.898"/><circle cx="55134" cy="16748" r="68.898"/><circle cx="60646" cy="16748" r="68.898"/><circle cx="66158" cy="16748" r="68.898"/><circle cx="49606" cy="16732" r="68.898"/><circle cx="57284" cy="16142" r="68.898"/><circle cx="62795" cy="16142" r="68.898"/><circle cx="68307" cy="16142" r="68.898"/><circle cx="51622" cy="16189" r="68.898"/><circle cx="50197" cy="17913" r="68.898"/><circle cx="55709" cy="17913" r="68.898"/><circle cx="61220" cy="17913" r="68.898"/><circle cx="66732" cy="17913" r="68.898"/><circle cx="49016" cy="18504" r="68.898"/><circle cx="54528" cy="18504" r="68.898"/><circle cx="60236" cy="18504" r="68.898"/><circle cx="65748" cy="18504" r="68.898"/><circle cx="59646" cy="20866" r="68.898"/><circle cx="60646" cy="20866" r="68.898"/><circle cx="61646" cy="20866" r="68.898"/><circle cx="62646" cy="20866" r="68.898"/><circle cx="63646" cy="20866" r="68.898"/><circle cx="63646" cy="14866" r="68.898"/><circle cx="62646" cy="14866" r="68.898"/><circle cx="61646" cy="14866" r="68.898"/><circle cx="60646" cy="14866" r="68.898"/><circle cx="59646" cy="14866" r="68.898"/><circle cx="71228" cy="21850" r="68.898"/><circle cx="73228" cy="21850" r="68.898"/><circle cx="71228" cy="22835" r="68.898"/><circle cx="73228" cy="22835" r="68.898"/><circle cx="71228" cy="23819" r="68.898"/><circle cx="73228" cy="23819" r="68.898"/><circle cx="71228" cy="24803" r="68.898"/><circle cx="73228" cy="24803" r="68.898"/><circle cx="73260" cy="20669" r="68.898"/><circle cx="71260" cy="20669" r="68.898"/><circle cx="73260" cy="19732" r="68.898"/><circle cx="71260" cy="19732" r="68.898"/><circle cx="73260" cy="18701" r="68.898"/><circle cx="71260" cy="18701" r="68.898"/><circle cx="73260" cy="17716" r="68.898"/><circle cx="71260" cy="17716" r="68.898"/><circle cx="73260" cy="16732" r="68.898"/><circle cx="71260" cy="16732" r="68.898"/><circle cx="73260" cy="15748" r="68.898"/><circle cx="71260" cy="15748" r="68.898"/><circle cx="73260" cy="14764" r="68.898"/><circle cx="71260" cy="14764" r="68.898"/><circle cx="73260" cy="13780" r="68.898"/><circle cx="71260" cy="13780" r="68.898"/><circle cx="67126" cy="22638" r="68.898"/><circle cx="69126" cy="22638" r="68.898"/><circle cx="68126" cy="22638" r="68.898"/><circle cx="61614" cy="22638" r="68.898"/><circle cx="63614" cy="22638" r="68.898"/><circle cx="62614" cy="22638" r="68.898"/><circle cx="56102" cy="22638" r="68.898"/><circle cx="58102" cy="22638" r="68.898"/><circle cx="57102" cy="22638" r="68.898"/><circle cx="50591" cy="22638" r="68.898"/><circle cx="52591" cy="22638" r="68.898"/><circle cx="51591" cy="22638" r="68.898"/><circle cx="74803" cy="26780" r="68.898"/><circle cx="74803" cy="25780" r="68.898"/><circle cx="74803" cy="24780" r="68.898"/><circle cx="74803" cy="23780" r="68.898"/><circle cx="74803" cy="22780" r="68.898"/><circle cx="74803" cy="21780" r="68.898"/><circle cx="74803" cy="20780" r="68.898"/><circle cx="74803" cy="19780" r="68.898"/><circle cx="74803" cy="18780" r="68.898"/><circle cx="74803" cy="17780" r="68.898"/><circle cx="74803" cy="16780" r="68.898"/><circle cx="74803" cy="15780" r="68.898"/><circle cx="74803" cy="14780" r="68.898"/><circle cx="74803" cy="13780" r="68.898"/><circle cx="65158" cy="20866" r="68.898"/><circle cx="66158" cy="20866" r="68.898"/><circle cx="67158" cy="20866" r="68.898"/><circle cx="68158" cy="20866" r="68.898"/><circle cx="69158" cy="20866" r="68.898"/><circle cx="69158" cy="14866" r="68.898"/><circle cx="68158" cy="14866" r="68.898"/><circle cx="67158" cy="14866" r="68.898"/><circle cx="66158" cy="14866" r="68.898"/><circle cx="65158" cy="14866" r="68.898"/><circle cx="54134" cy="20866" r="68.898"/><circle cx="55134" cy="20866" r="68.898"/><circle cx="56134" cy="20866" r="68.898"/><circle cx="57134" cy="20866" r="68.898"/><circle cx="58134" cy="20866" r="68.898"/><circle cx="58134" cy="14866" r="68.898"/><circle cx="57134" cy="14866" r="68.898"/><circle cx="56134" cy="14866" r="68.898"/><circle cx="55134" cy="14866" r="68.898"/><circle cx="54134" cy="14866" r="68.898"/><circle cx="48622" cy="20866" r="68.898"/><circle cx="49622" cy="20866" r="68.898"/><circle cx="50622" cy="20866" r="68.898"/><circle cx="51622" cy="20866" r="68.898"/><circle cx="52622" cy="20866" r="68.898"/><circle cx="52622" cy="14866" r="68.898"/><circle cx="51622" cy="14866" r="68.898"/><circle cx="50622" cy="14866" r="68.898"/><circle cx="49622" cy="14866" r="68.898"/><circle cx="48622" cy="14866" r="68.898"/></g></g><defs><mask id="c"><g stroke="#fff" stroke-linecap="round" stroke-linejoin="round" fill="#fff"><path d="M59346 21363v-993.7h600v993.7z" fill-rule="evenodd" stroke-width="0"/><g fill-opacity="0" stroke-width="600"><path d="M60645 20669v393M61645 20669v393M62645 20669v393M63645 20669v393M63645 14669v393M62645 14669v393M61645 14669v393M60645 14669v393M59645 14669v393"/></g><g stroke-width="0"><circle cx="71228" cy="21850" r="275.59"/><circle cx="73228" cy="21850" r="275.59"/><circle cx="71228" cy="22835" r="275.59"/><circle cx="73228" cy="22835" r="275.59"/><circle cx="71228" cy="23819" r="275.59"/><circle cx="73228" cy="23819" r="275.59"/><circle cx="71228" cy="24803" r="275.59"/><circle cx="73228" cy="24803" r="275.59"/><circle cx="73260" cy="20669" r="275.59"/><circle cx="71260" cy="20669" r="275.59"/><circle cx="73260" cy="19732" r="275.59"/><circle cx="71260" cy="19732" r="275.59"/><circle cx="73260" cy="18701" r="275.59"/><circle cx="71260" cy="18701" r="275.59"/><circle cx="73260" cy="17716" r="275.59"/><circle cx="71260" cy="17716" r="275.59"/><circle cx="73260" cy="16732" r="275.59"/><circle cx="71260" cy="16732" r="275.59"/><circle cx="73260" cy="15748" r="275.59"/><circle cx="71260" cy="15748" r="275.59"/><circle cx="73260" cy="14764" r="275.59"/><circle cx="71260" cy="14764" r="275.59"/><circle cx="73260" cy="13780" r="275.59"/><circle cx="71260" cy="13780" r="275.59"/></g><path d="M66919 22894v-511.8h413.4v511.8z" fill-rule="evenodd" stroke-width="0"/><g fill-opacity="0" stroke-width="413.39"><path d="M69125 22588v99M68125 22588v99"/></g><path d="M61408 22894v-511.8h413.4v511.8z" fill-rule="evenodd" stroke-width="0"/><g fill-opacity="0" stroke-width="413.39"><path d="M63614 22588v99M62614 22588v99"/></g><path d="M55896 22894v-511.8h413.4v511.8z" fill-rule="evenodd" stroke-width="0"/><g fill-opacity="0" stroke-width="413.39"><path d="M58102 22588v99M57102 22588v99"/></g><path d="M50384 22894v-511.8h413.3v511.8z" fill-rule="evenodd" stroke-width="0"/><g fill-opacity="0" stroke-width="413.39"><path d="M52590 22588v99M51590 22588v99"/></g><g stroke-width="0"><circle cx="74803" cy="26780" r="334.65"/><circle cx="74803" cy="25780" r="334.65"/><circle cx="74803" cy="24780" r="334.65"/><circle cx="74803" cy="23780" r="334.65"/><circle cx="74803" cy="22780" r="334.65"/><circle cx="74803" cy="21780" r="334.65"/><circle cx="74803" cy="20780" r="334.65"/><circle cx="74803" cy="19780" r="334.65"/><circle cx="74803" cy="18780" r="334.65"/><circle cx="74803" cy="17780" r="334.65"/><circle cx="74803" cy="16780" r="334.65"/><circle cx="74803" cy="15780" r="334.65"/><circle cx="74803" cy="14780" r="334.65"/><path d="M74468 14114v-669.3h669.3v669.3z" fill-rule="evenodd"/></g><path d="M64858 21363v-993.7h600v993.7z" fill-rule="evenodd" stroke-width="0"/><g fill-opacity="0" stroke-width="600"><path d="M66157 20669v393M67157 20669v393M68157 20669v393M69157 20669v393M69157 14669v393M68157 14669v393M67157 14669v393M66157 14669v393M65157 14669v393"/></g><path d="M53834 21363v-993.7h600v993.7z" fill-rule="evenodd" stroke-width="0"/><g fill-opacity="0" stroke-width="600"><path d="M55133 20669v393M56133 20669v393M57133 20669v393M58133 20669v393M58133 14669v393M57133 14669v393M56133 14669v393M55133 14669v393M54133 14669v393"/></g><path d="M48322 21363v-993.7h600v993.7z" fill-rule="evenodd" stroke-width="0"/><g fill-opacity="0" stroke-width="600"><path d="M49622 20669v393M50622 20669v393M51622 20669v393M52622 20669v393M52622 14669v393M51622 14669v393M50622 14669v393M49622 14669v393M48622 14669v393"/></g></g></mask></defs><defs><mask id="d"><g stroke="#000" stroke-linecap="round" stroke-linejoin="round"><path d="M59346 21363v-993.7h600v993.7z" fill-rule="evenodd" stroke-width="0"/><g fill-opacity="0" stroke-width="600"><path d="M60645 20669v393M61645 20669v393M62645 20669v393M63645 20669v393M63645 14669v393M62645 14669v393M61645 14669v393M60645 14669v393M59645 14669v393"/></g><g stroke-width="0"><circle cx="71228" cy="21850" r="275.59"/><circle cx="73228" cy="21850" r="275.59"/><circle cx="71228" cy="22835" r="275.59"/><circle cx="73228" cy="22835" r="275.59"/><circle cx="71228" cy="23819" r="275.59"/><circle cx="73228" cy="23819" r="275.59"/><circle cx="71228" cy="24803" r="275.59"/><circle cx="73228" cy="24803" r="275.59"/><circle cx="73260" cy="20669" r="275.59"/><circle cx="71260" cy="20669" r="275.59"/><circle cx="73260" cy="19732" r="275.59"/><circle cx="71260" cy="19732" r="275.59"/><circle cx="73260" cy="18701" r="275.59"/><circle cx="71260" cy="18701" r="275.59"/><circle cx="73260" cy="17716" r="275.59"/><circle cx="71260" cy="17716" r="275.59"/><circle cx="73260" cy="16732" r="275.59"/><circle cx="71260" cy="16732" r="275.59"/><circle cx="73260" cy="15748" r="275.59"/><circle cx="71260" cy="15748" r="275.59"/><circle cx="73260" cy="14764" r="275.59"/><circle cx="71260" cy="14764" r="275.59"/><circle cx="73260" cy="13780" r="275.59"/><circle cx="71260" cy="13780" r="275.59"/></g><path d="M66919 22894v-511.8h413.4v511.8z" fill-rule="evenodd" stroke-width="0"/><g fill-opacity="0" stroke-width="413.39"><path d="M69125 22588v99M68125 22588v99"/></g><path d="M61408 22894v-511.8h413.4v511.8z" fill-rule="evenodd" stroke-width="0"/><g fill-opacity="0" stroke-width="413.39"><path d="M63614 22588v99M62614 22588v99"/></g><path d="M55896 22894v-511.8h413.4v511.8z" fill-rule="evenodd" stroke-width="0"/><g fill-opacity="0" stroke-width="413.39"><path d="M58102 22588v99M57102 22588v99"/></g><path d="M50384 22894v-511.8h413.3v511.8z" fill-rule="evenodd" stroke-width="0"/><g fill-opacity="0" stroke-width="413.39"><path d="M52590 22588v99M51590 22588v99"/></g><g stroke-width="0"><circle cx="74803" cy="26780" r="334.65"/><circle cx="74803" cy="25780" r="334.65"/><circle cx="74803" cy="24780" r="334.65"/><circle cx="74803" cy="23780" r="334.65"/><circle cx="74803" cy="22780" r="334.65"/><circle cx="74803" cy="21780" r="334.65"/><circle cx="74803" cy="20780" r="334.65"/><circle cx="74803" cy="19780" r="334.65"/><circle cx="74803" cy="18780" r="334.65"/><circle cx="74803" cy="17780" r="334.65"/><circle cx="74803" cy="16780" r="334.65"/><circle cx="74803" cy="15780" r="334.65"/><circle cx="74803" cy="14780" r="334.65"/><path d="M74468 14114v-669.3h669.3v669.3z" fill-rule="evenodd"/></g><path d="M64858 21363v-993.7h600v993.7z" fill-rule="evenodd" stroke-width="0"/><g fill-opacity="0" stroke-width="600"><path d="M66157 20669v393M67157 20669v393M68157 20669v393M69157 20669v393M69157 14669v393M68157 14669v393M67157 14669v393M66157 14669v393M65157 14669v393"/></g><path d="M53834 21363v-993.7h600v993.7z" fill-rule="evenodd" stroke-width="0"/><g fill-opacity="0" stroke-width="600"><path d="M55133 20669v393M56133 20669v393M57133 20669v393M58133 20669v393M58133 14669v393M57133 14669v393M56133 14669v393M55133 14669v393M54133 14669v393"/></g><path d="M48322 21363v-993.7h600v993.7z" fill-rule="evenodd" stroke-width="0"/><g fill-opacity="0" stroke-width="600"><path d="M49622 20669v393M50622 20669v393M51622 20669v393M52622 20669v393M52622 14669v393M51622 14669v393M50622 14669v393M49622 14669v393M48622 14669v393"/></g></g><path fill="#fff" d="M47037 12390h28858v18524H47037z"/></mask></defs><g fill="#f0f0f0" fill-opacity="0" mask="url(#d)" stroke="#f0f0f0" stroke-linecap="round" stroke-linejoin="round"><g stroke-width="147.64"><path d="M71667 29918l28 28 28 85v56l-28 84-56 57-56 28-113 28h-84l-113-28-56-28-56-57-28-84v-56l28-85 28-28M71723 29665h-590l422-197-422-196h590M69755 30143h-591v-140l28-85 57-56 56-28 112-28h85l112 28 56 28 57 56 28 85v140M69361 29300h394M69136 29440l422 141v-366M67786 30143h-590v-140l28-85 56-56 56-28 113-28h84l113 28 56 28 56 56 28 85v140M67196 29609v-366l225 197v-84l28-56 28-28 56-29h141l56 29 28 28 28 56v169l-28 56-28 28M65818 30143h-591v-140l28-85 57-56 56-28 112-28h85l112 28 56 28 57 56 28 85v140M65284 29581l-29-28-28-57v-140l28-56 29-28 56-29h56l84 29 338 337v-366M63849 30143h-590v-140l28-85 56-56 56-28 113-28h84l113 28 56 28 56 56 28 85v140M63849 29243v338M63849 29412h-590l84 56 56 57 29 56M61881 29806h-591M61853 29806l28 56v113l-28 56-28 28-57 28h-168l-57-28-28-28-28-56v-113l28-56M61487 29525h591M61515 29525l-28-57v-112l28-56 28-28 57-29h168l57 29 28 28 28 56v112l-28 57M59519 29272h478l56 28 28 28 28 56v84l-28 57" fill="none"/><path d="M59884 29272l28 56v112l-28 56-28 29-56 28h-169l-56-28-28-29-28-56v-112l28-56M55947 29272l28 56v112l-28 56-56 29h-225l-56-29-28-56v-112l28-56 56-29h56l56 282M57550 29412v-225M57944 29328h-506l-57-28-28-57v-56M54007 29272h-591M53979 29272l28 56v112l-28 56-28 29-57 28h-168l-57-28-28-29-28-56v-112l28-56M48101 29272h-309l-56 28-28 56v112l28 57" fill="none"/><path d="M48073 29272l28 56v140l-28 57-56 28h-56l-57-28-28-57v-140l-28-56M52010 29243l28 57v112l-28 56-28 28-56 29h-169l-56-29-28-28-28-56v-112l28-57M50070 29525h-591M49704 29525l-28-57v-112l28-56 28-28 57-29h168l57 29 28 28 28 56v112l-28 57" fill="none"/></g><g stroke-width="47.244" fill="none"><circle cx="63220" cy="19835" r="176.07"/><path d="M60464 15897h2756M62826 17866h-2756M63220 15897l-394 1969M62433 19834l393-1968M59677 19834h2756M60070 17866l-393 1968M60464 15897l-394 1969M64125 14072h-4960M59559 21659h4566M64169 20116v-4500M59122 20116v-4500M72984 22212h-1512M72984 21488h-1512M72984 23196h-1512M72984 22472h-1512M72984 24181h-1512M72984 23456h-1512M72984 25165h-1512M72984 24440h-1512M71503 20307h1512M71503 21031h1512M71503 19370h1512M71503 20094h1512M71503 18338h1512M71503 19062h1512M71503 17354h1512M71503 18078h1512M71503 16370h1512M71503 17094h1512M71503 15385h1512M71503 16110h1512M71503 14401h1512M71503 15125h1512M71503 13417h1512M71503 14141h1512M67547 22007l-146 355M68708 22007h-1161M68838 22362l-130-355M68885 22972l12-59M67370 22972h1515M62035 22007l-146 355M63196 22007h-1161M63326 22362l-130-355M63374 22972l11-59M61858 22972h1516M56523 22007l-146 355M57685 22007h-1162M57814 22362l-129-355M57862 22972l12-59M56346 22972h1516M51011 22007l-145 355M52173 22007h-1162M52303 22362l-130-355M52350 22972l12-59M50834 22972h1516M74279 14279h1047M74279 14279v13024M74279 27303h1047M75326 14279v13024M75326 13255v524M74803 13255h523"/><circle cx="68732" cy="19835" r="176.07"/><path d="M65976 15897h2756M68338 17866h-2756M68732 15897l-394 1969M67944 19834l394-1968M65188 19834h2756M65582 17866l-394 1968M65976 15897l-394 1969M69637 14072h-4960M65070 21659h4567M69681 20116v-4500M64633 20116v-4500"/><circle cx="57709" cy="19835" r="176.07"/><path d="M54952 15897h2756M57314 17866h-2755M57708 15897l-394 1969M56921 19834l393-1968M54165 19834h2756M54559 17866l-394 1968M54952 15897l-393 1969M58614 14072h-4961M54047 21659h4567M58657 20116v-4500M53610 20116v-4500"/><circle cx="52197" cy="19835" r="176.07"/><path d="M49440 15897h2756M51803 17866h-2756M52196 15897l-393 1969M51409 19834l394-1968M48653 19834h2756M49047 17866l-394 1968M49440 15897l-393 1969M53102 14072h-4961M48535 21659h4567M53145 20116v-4500M48098 20116v-4500"/></g></g><g fill-opacity="0" stroke-linecap="round" stroke-linejoin="round" stroke-width="19.685" fill="none" stroke="#000"><path d="M75885 30905v-98M47047 30905h28838M75885 12598v18209M47047 12598h28838M47047 30905V12598"/></g><defs><mask id="b"><path fill="#fff" d="M47037 12390h28858v18524H47037z"/><path stroke="#000" stroke-linecap="round" stroke-width="314" d="M59645 20866h0M60645 20866h0M61645 20866h0M62645 20866h0M63645 20866h0M63645 14866h0M62645 14866h0M61645 14866h0M60645 14866h0M59645 14866h0"/><path stroke="#000" stroke-linecap="round" stroke-width="275" d="M71228 21850h0M73228 21850h0M71228 22834h0M73228 22834h0M71228 23818h0M73228 23818h0M71228 24803h0M73228 24803h0M73259 20669h0M71259 20669h0M73259 19732h0M71259 19732h0M73259 18700h0M71259 18700h0M73259 17716h0M71259 17716h0M73259 16732h0M71259 16732h0M73259 15748h0M71259 15748h0M73259 14763h0M71259 14763h0M73259 13779h0M71259 13779h0"/><path stroke="#000" stroke-linecap="round" stroke-width="295" d="M67125 22637h0M69125 22637h0M68125 22637h0M61614 22637h0M63614 22637h0M62614 22637h0M56102 22637h0M58102 22637h0M57102 22637h0M50590 22637h0M52590 22637h0M51590 22637h0"/><path stroke="#000" stroke-linecap="round" stroke-width="393" d="M74803 26779h0M74803 25779h0M74803 24779h0M74803 23779h0M74803 22779h0M74803 21779h0M74803 20779h0M74803 19779h0M74803 18779h0M74803 17779h0M74803 16779h0M74803 15779h0M74803 14779h0M74803 13779h0"/><path stroke="#000" stroke-linecap="round" stroke-width="314" d="M65157 20866h0M66157 20866h0M67157 20866h0M68157 20866h0M69157 20866h0M69157 14866h0M68157 14866h0M67157 14866h0M66157 14866h0M65157 14866h0M54133 20866h0M55133 20866h0M56133 20866h0M57133 20866h0M58133 20866h0M58133 14866h0M57133 14866h0M56133 14866h0M55133 14866h0M54133 14866h0M48622 20866h0M49622 20866h0M50622 20866h0M51622 20866h0M52622 20866h0M52622 14866h0M51622 14866h0M50622 14866h0M49622 14866h0M48622 14866h0"/></mask></defs></g><g transform="matrix(0 -393.7 393.7 0 12051.686 9299.998)" stroke="#000"><path d="M19.24 12.79H.19V.19h19.05z" fill="#0a0a0a" fill-rule="evenodd" stroke-width=".093"/><circle transform="scale(1 -1)" cx="2.336" cy="-11.472" r=".75" fill="red" stroke-width=".093"/><path fill="red" stroke-width=".093" d="M3.132 9.189h6.865v1.491H3.132zM10.222 9.197h6.865v1.491h-6.865zM3.132 2.213h6.865v1.491H3.132zM10.222 2.222h6.865v1.491h-6.865z"/><path fill="red" stroke-width=".08" d="M3.901 3.892v5.103H2.397V3.892zM10.868 3.919v5.103H9.364V3.919zM17.856 3.901v5.103h-1.504V3.901z"/></g><g transform="matrix(-393.7 0 0 393.7 26190 9459)" fill="#faa" stroke-width=".093"><path d="M1.14.8V-.8M3.94.8V-.8M1.14-.8c-.24.021-.374.155-.4.4v.8c0 .22.18.4.4.4h.5V-.8zM3.44-.8V.8h.5a.4.4 0 0 0 .4-.4v-.8c-.026-.245-.16-.379-.4-.4z" fill-rule="evenodd" stroke="#191919"/><path d="M4.34.25h.74c.333 0 .333-.5 0-.5h-.74 0z" fill="#999" fill-rule="evenodd" stroke="#191919"/></g><path d="M25898.678 9557.44v-196.85h291.338c131.232 0 131.232 196.85 0 196.85z" fill="#999" stroke="#1a1a1a" stroke-width="36.6141"/><path d="M24835.688 9742.48v-566.928h708.66v566.928h-708.66z" fill="#e9afaf" stroke="#1a1a1a" stroke-width="36.6141"/><path fill="#500" opacity=".997" stroke="#1a1a1a" stroke-width="36.2204" d="M25449.033 9741.204h-71.653v-563.778h71.653z"/><path opacity=".997" stroke="#1a1a1a" stroke-width="36.2204" d="M25304.939 9739.236h-71.654v-563.779h71.654z"/><path fill="red" opacity=".997" stroke="#1a1a1a" stroke-width="36.2204" d="M25158.876 9738.842h-71.653v-563.778h71.653z"/><path fill="olive" opacity=".997" stroke="#1a1a1a" stroke-width="36.2204" d="M24963.6 9741.204h-71.653v-563.778h71.654z"/><g transform="matrix(-393.7 0 0 393.7 26190 10443)" fill="#faa" stroke-width=".093"><path d="M1.14.8V-.8M3.94.8V-.8M1.14-.8c-.24.021-.374.155-.4.4v.8c0 .22.18.4.4.4h.5V-.8zM3.44-.8V.8h.5a.4.4 0 0 0 .4-.4v-.8c-.026-.245-.16-.379-.4-.4z" fill-rule="evenodd" stroke="#191919"/><path d="M4.34.25h.74c.333 0 .333-.5 0-.5h-.74 0z" fill="#999" fill-rule="evenodd" stroke="#191919"/></g><path d="M25898.678 10541.44v-196.85h291.338c131.232 0 131.232 196.85 0 196.85z" fill="#999" stroke="#1a1a1a" stroke-width="36.6141"/><path d="M24835.688 10726.48v-566.928h708.66v566.928h-708.66z" fill="#e9afaf" stroke="#1a1a1a" stroke-width="36.6141"/><path fill="#500" opacity=".997" stroke="#1a1a1a" stroke-width="36.2204" d="M25449.033 10725.204h-71.653v-563.778h71.653z"/><path opacity=".997" stroke="#1a1a1a" stroke-width="36.2204" d="M25304.939 10723.236h-71.654v-563.779h71.654z"/><path fill="red" opacity=".997" stroke="#1a1a1a" stroke-width="36.2204" d="M25158.876 10722.842h-71.653v-563.778h71.653z"/><path fill="olive" opacity=".997" stroke="#1a1a1a" stroke-width="36.2204" d="M24963.6 10725.204h-71.653v-563.778h71.654z"/><g transform="matrix(-393.7 0 0 393.7 26190 11427)" fill="#faa" stroke-width=".093"><path d="M1.14.8V-.8M3.94.8V-.8M1.14-.8c-.24.021-.374.155-.4.4v.8c0 .22.18.4.4.4h.5V-.8zM3.44-.8V.8h.5a.4.4 0 0 0 .4-.4v-.8c-.026-.245-.16-.379-.4-.4z" fill-rule="evenodd" stroke="#191919"/><path d="M4.34.25h.74c.333 0 .333-.5 0-.5h-.74 0z" fill="#999" fill-rule="evenodd" stroke="#191919"/></g><path d="M25898.678 11525.44v-196.85h291.338c131.232 0 131.232 196.85 0 196.85z" fill="#999" stroke="#1a1a1a" stroke-width="36.6141"/><path d="M24835.688 11710.48v-566.928h708.66v566.928h-708.66z" fill="#e9afaf" stroke="#1a1a1a" stroke-width="36.6141"/><path fill="#500" opacity=".997" stroke="#1a1a1a" stroke-width="36.2204" d="M25449.033 11709.204h-71.653v-563.778h71.653z"/><path opacity=".997" stroke="#1a1a1a" stroke-width="36.2204" d="M25304.939 11707.236h-71.654v-563.779h71.654z"/><path fill="red" opacity=".997" stroke="#1a1a1a" stroke-width="36.2204" d="M25158.876 11706.842h-71.653v-563.778h71.653z"/><path fill="olive" opacity=".997" stroke="#1a1a1a" stroke-width="36.2204" d="M24963.6 11709.204h-71.653v-563.778h71.654z"/><g><g transform="matrix(-393.7 0 0 393.7 26190 12412)" fill="#faa" stroke-width=".093"><path d="M1.14.8V-.8M3.94.8V-.8M1.14-.8c-.24.021-.374.155-.4.4v.8c0 .22.18.4.4.4h.5V-.8zM3.44-.8V.8h.5a.4.4 0 0 0 .4-.4v-.8c-.026-.245-.16-.379-.4-.4z" fill-rule="evenodd" stroke="#191919"/><path d="M4.34.25h.74c.333 0 .333-.5 0-.5h-.74 0z" fill="#999" fill-rule="evenodd" stroke="#191919"/></g><path d="M25898.678 12510.44v-196.85h291.338c131.232 0 131.232 196.85 0 196.85z" fill="#999" stroke="#1a1a1a" stroke-width="36.6141"/><path d="M24835.688 12695.48v-566.928h708.66v566.928h-708.66z" fill="#e9afaf" stroke="#1a1a1a" stroke-width="36.6141"/><path fill="#500" opacity=".997" stroke="#1a1a1a" stroke-width="36.2204" d="M25449.033 12694.204h-71.653v-563.778h71.653z"/><path opacity=".997" stroke="#1a1a1a" stroke-width="36.2204" d="M25304.939 12692.236h-71.654v-563.779h71.654z"/><path fill="red" opacity=".997" stroke="#1a1a1a" stroke-width="36.2204" d="M25158.876 12691.842h-71.653v-563.778h71.653z"/><path fill="olive" opacity=".997" stroke="#1a1a1a" stroke-width="36.2204" d="M24963.6 12694.204h-71.653v-563.778h71.654z"/></g><g><g transform="matrix(393.7 0 0 -393.7 24221 8278)" fill="#faa" stroke-width=".093"><path d="M1.14.8V-.8M3.94.8V-.8M1.14-.8c-.24.021-.374.155-.4.4v.8c0 .22.18.4.4.4h.5V-.8zM3.44-.8V.8h.5a.4.4 0 0 0 .4-.4v-.8c-.026-.245-.16-.379-.4-.4z" fill-rule="evenodd" stroke="#191919"/><path d="M4.34.25h.74c.333 0 .333-.5 0-.5h-.74 0z" fill="#999" fill-rule="evenodd" stroke="#191919"/></g><path d="M24512.322 8179.56v196.85h-291.338c-131.232 0-131.232-196.85 0-196.85z" fill="#999" stroke="#1a1a1a" stroke-width="36.6141"/><path d="M25575.312 7994.52v566.928h-708.66V7994.52h708.66z" fill="#e9afaf" stroke="#1a1a1a" stroke-width="36.6141"/><path fill="#500" opacity=".997" stroke="#1a1a1a" stroke-width="36.2204" d="M24961.967 7995.796h71.653v563.778h-71.653z"/><path opacity=".997" stroke="#1a1a1a" stroke-width="36.2204" d="M25106.061 7997.764h71.654v563.779h-71.654z"/><path fill="red" opacity=".997" stroke="#1a1a1a" stroke-width="36.2204" d="M25252.124 7998.158h71.653v563.778h-71.653z"/><path fill="olive" opacity=".997" stroke="#1a1a1a" stroke-width="36.2204" d="M25447.4 7995.796h71.653v563.778h-71.654z"/></g><g><g transform="matrix(393.7 0 0 -393.7 24221 7341)" fill="#faa" stroke-width=".093"><path d="M1.14.8V-.8M3.94.8V-.8M1.14-.8c-.24.021-.374.155-.4.4v.8c0 .22.18.4.4.4h.5V-.8zM3.44-.8V.8h.5a.4.4 0 0 0 .4-.4v-.8c-.026-.245-.16-.379-.4-.4z" fill-rule="evenodd" stroke="#191919"/><path d="M4.34.25h.74c.333 0 .333-.5 0-.5h-.74 0z" fill="#999" fill-rule="evenodd" stroke="#191919"/></g><path d="M24512.322 7242.56v196.85h-291.338c-131.232 0-131.232-196.85 0-196.85z" fill="#999" stroke="#1a1a1a" stroke-width="36.6141"/><path d="M25575.312 7057.52v566.928h-708.66V7057.52h708.66z" fill="#e9afaf" stroke="#1a1a1a" stroke-width="36.6141"/><path fill="#500" opacity=".997" stroke="#1a1a1a" stroke-width="36.2204" d="M24961.967 7058.796h71.653v563.778h-71.653z"/><path opacity=".997" stroke="#1a1a1a" stroke-width="36.2204" d="M25106.061 7060.764h71.654v563.779h-71.654z"/><path fill="red" opacity=".997" stroke="#1a1a1a" stroke-width="36.2204" d="M25252.124 7061.158h71.653v563.778h-71.653z"/><path fill="olive" opacity=".997" stroke="#1a1a1a" stroke-width="36.2204" d="M25447.4 7058.796h71.653v563.778h-71.654z"/></g><g><g transform="matrix(393.7 0 0 -393.7 24221 6309)" fill="#faa" stroke-width=".093"><path d="M1.14.8V-.8M3.94.8V-.8M1.14-.8c-.24.021-.374.155-.4.4v.8c0 .22.18.4.4.4h.5V-.8zM3.44-.8V.8h.5a.4.4 0 0 0 .4-.4v-.8c-.026-.245-.16-.379-.4-.4z" fill-rule="evenodd" stroke="#191919"/><path d="M4.34.25h.74c.333 0 .333-.5 0-.5h-.74 0z" fill="#999" fill-rule="evenodd" stroke="#191919"/></g><path d="M24512.322 6210.56v196.85h-291.338c-131.232 0-131.232-196.85 0-196.85z" fill="#999" stroke="#1a1a1a" stroke-width="36.6141"/><path d="M25575.312 6025.52v566.928h-708.66V6025.52h708.66z" fill="#e9afaf" stroke="#1a1a1a" stroke-width="36.6141"/><path fill="#500" opacity=".997" stroke="#1a1a1a" stroke-width="36.2204" d="M24961.967 6026.796h71.653v563.778h-71.653z"/><path opacity=".997" stroke="#1a1a1a" stroke-width="36.2204" d="M25106.061 6028.764h71.654v563.779h-71.654z"/><path fill="red" opacity=".997" stroke="#1a1a1a" stroke-width="36.2204" d="M25252.124 6029.158h71.653v563.778h-71.653z"/><path fill="olive" opacity=".997" stroke="#1a1a1a" stroke-width="36.2204" d="M25447.4 6026.796h71.653v563.778h-71.654z"/></g><g><g transform="matrix(393.7 0 0 -393.7 24221 5325)" fill="#faa" stroke-width=".093"><path d="M1.14.8V-.8M3.94.8V-.8M1.14-.8c-.24.021-.374.155-.4.4v.8c0 .22.18.4.4.4h.5V-.8zM3.44-.8V.8h.5a.4.4 0 0 0 .4-.4v-.8c-.026-.245-.16-.379-.4-.4z" fill-rule="evenodd" stroke="#191919"/><path d="M4.34.25h.74c.333 0 .333-.5 0-.5h-.74 0z" fill="#999" fill-rule="evenodd" stroke="#191919"/></g><path d="M24512.322 5226.56v196.85h-291.338c-131.232 0-131.232-196.85 0-196.85z" fill="#999" stroke="#1a1a1a" stroke-width="36.6141"/><path d="M25575.312 5041.52v566.928h-708.66V5041.52h708.66z" fill="#e9afaf" stroke="#1a1a1a" stroke-width="36.6141"/><path fill="#500" opacity=".997" stroke="#1a1a1a" stroke-width="36.2204" d="M24961.967 5042.796h71.653v563.778h-71.653z"/><path opacity=".997" stroke="#1a1a1a" stroke-width="36.2204" d="M25106.061 5044.764h71.654v563.779h-71.654z"/><path fill="red" opacity=".997" stroke="#1a1a1a" stroke-width="36.2204" d="M25252.124 5045.158h71.653v563.778h-71.653z"/><path fill="olive" opacity=".997" stroke="#1a1a1a" stroke-width="36.2204" d="M25447.4 5042.796h71.653v563.778h-71.654z"/></g><g><g transform="matrix(393.7 0 0 -393.7 24221 4341)" fill="#faa" stroke-width=".093"><path d="M1.14.8V-.8M3.94.8V-.8M1.14-.8c-.24.021-.374.155-.4.4v.8c0 .22.18.4.4.4h.5V-.8zM3.44-.8V.8h.5a.4.4 0 0 0 .4-.4v-.8c-.026-.245-.16-.379-.4-.4z" fill-rule="evenodd" stroke="#191919"/><path d="M4.34.25h.74c.333 0 .333-.5 0-.5h-.74 0z" fill="#999" fill-rule="evenodd" stroke="#191919"/></g><path d="M24512.322 4242.56v196.85h-291.338c-131.232 0-131.232-196.85 0-196.85z" fill="#999" stroke="#1a1a1a" stroke-width="36.6141"/><path d="M25575.312 4057.52v566.928h-708.66V4057.52h708.66z" fill="#e9afaf" stroke="#1a1a1a" stroke-width="36.6141"/><path fill="#500" opacity=".997" stroke="#1a1a1a" stroke-width="36.2204" d="M24961.967 4058.796h71.653v563.778h-71.653z"/><path opacity=".997" stroke="#1a1a1a" stroke-width="36.2204" d="M25106.061 4060.764h71.654v563.779h-71.654z"/><path fill="red" opacity=".997" stroke="#1a1a1a" stroke-width="36.2204" d="M25252.124 4061.158h71.653v563.778h-71.653z"/><path fill="olive" opacity=".997" stroke="#1a1a1a" stroke-width="36.2204" d="M25447.4 4058.796h71.653v563.778h-71.654z"/></g><g><g transform="matrix(393.7 0 0 -393.7 24221 3357)" fill="#faa" stroke-width=".093"><path d="M1.14.8V-.8M3.94.8V-.8M1.14-.8c-.24.021-.374.155-.4.4v.8c0 .22.18.4.4.4h.5V-.8zM3.44-.8V.8h.5a.4.4 0 0 0 .4-.4v-.8c-.026-.245-.16-.379-.4-.4z" fill-rule="evenodd" stroke="#191919"/><path d="M4.34.25h.74c.333 0 .333-.5 0-.5h-.74 0z" fill="#999" fill-rule="evenodd" stroke="#191919"/></g><path d="M24512.322 3258.56v196.85h-291.338c-131.232 0-131.232-196.85 0-196.85z" fill="#999" stroke="#1a1a1a" stroke-width="36.6141"/><path d="M25575.312 3073.52v566.928h-708.66V3073.52h708.66z" fill="#e9afaf" stroke="#1a1a1a" stroke-width="36.6141"/><path fill="#500" opacity=".997" stroke="#1a1a1a" stroke-width="36.2204" d="M24961.967 3074.796h71.653v563.778h-71.653z"/><path opacity=".997" stroke="#1a1a1a" stroke-width="36.2204" d="M25106.061 3076.764h71.654v563.779h-71.654z"/><path fill="red" opacity=".997" stroke="#1a1a1a" stroke-width="36.2204" d="M25252.124 3077.158h71.653v563.778h-71.653z"/><path fill="olive" opacity=".997" stroke="#1a1a1a" stroke-width="36.2204" d="M25447.4 3074.796h71.653v563.778h-71.654z"/></g><g><g transform="matrix(393.7 0 0 -393.7 24221 2372)" fill="#faa" stroke-width=".093"><path d="M1.14.8V-.8M3.94.8V-.8M1.14-.8c-.24.021-.374.155-.4.4v.8c0 .22.18.4.4.4h.5V-.8zM3.44-.8V.8h.5a.4.4 0 0 0 .4-.4v-.8c-.026-.245-.16-.379-.4-.4z" fill-rule="evenodd" stroke="#191919"/><path d="M4.34.25h.74c.333 0 .333-.5 0-.5h-.74 0z" fill="#999" fill-rule="evenodd" stroke="#191919"/></g><path d="M24512.322 2273.56v196.85h-291.338c-131.232 0-131.232-196.85 0-196.85z" fill="#999" stroke="#1a1a1a" stroke-width="36.6141"/><path d="M25575.312 2088.52v566.928h-708.66V2088.52h708.66z" fill="#e9afaf" stroke="#1a1a1a" stroke-width="36.6141"/><path fill="#500" opacity=".997" stroke="#1a1a1a" stroke-width="36.2204" d="M24961.967 2089.796h71.653v563.778h-71.653z"/><path opacity=".997" stroke="#1a1a1a" stroke-width="36.2204" d="M25106.061 2091.764h71.654v563.779h-71.654z"/><path fill="red" opacity=".997" stroke="#1a1a1a" stroke-width="36.2204" d="M25252.124 2092.158h71.653v563.778h-71.653z"/><path fill="olive" opacity=".997" stroke="#1a1a1a" stroke-width="36.2204" d="M25447.4 2089.796h71.653v563.778h-71.654z"/></g><g><g transform="matrix(393.7 0 0 -393.7 24221 1388)" fill="#faa" stroke-width=".093"><path d="M1.14.8V-.8M3.94.8V-.8M1.14-.8c-.24.021-.374.155-.4.4v.8c0 .22.18.4.4.4h.5V-.8zM3.44-.8V.8h.5a.4.4 0 0 0 .4-.4v-.8c-.026-.245-.16-.379-.4-.4z" fill-rule="evenodd" stroke="#191919"/><path d="M4.34.25h.74c.333 0 .333-.5 0-.5h-.74 0z" fill="#999" fill-rule="evenodd" stroke="#191919"/></g><path d="M24512.322 1289.56v196.85h-291.338c-131.232 0-131.232-196.85 0-196.85z" fill="#999" stroke="#1a1a1a" stroke-width="36.6141"/><path d="M25575.312 1104.52v566.928h-708.66V1104.52h708.66z" fill="#e9afaf" stroke="#1a1a1a" stroke-width="36.6141"/><path fill="#500" opacity=".997" stroke="#1a1a1a" stroke-width="36.2204" d="M24961.967 1105.796h71.653v563.778h-71.653z"/><path opacity=".997" stroke="#1a1a1a" stroke-width="36.2204" d="M25106.061 1107.764h71.654v563.779h-71.654z"/><path fill="red" opacity=".997" stroke="#1a1a1a" stroke-width="36.2204" d="M25252.124 1108.158h71.653v563.778h-71.653z"/><path fill="olive" opacity=".997" stroke="#1a1a1a" stroke-width="36.2204" d="M25447.4 1105.796h71.653v563.778h-71.654z"/></g><g stroke="#000" stroke-width=".093"><g transform="matrix(393.7 0 0 -393.7 20087 10246)"><path d="M1.11 1.54h2.86L4.54 0 4.4-.77H.68L.54 0z" fill="#1a1a1a" fill-rule="evenodd"/><path d="M5.33-.19h-.825 0L4.47.19h.86z" fill="#b3b3b3" fill-rule="evenodd"/></g><path d="M20313.2 10320.803l14.087-149.606h0-338.708v149.606z" fill="#b3b3b3" stroke-width="36.6141"/></g><g stroke="#000" stroke-width=".093"><g transform="matrix(393.7 0 0 -393.7 14576 10246)"><path d="M1.11 1.54h2.86L4.54 0 4.4-.77H.68L.54 0z" fill="#1a1a1a" fill-rule="evenodd"/><path d="M5.33-.19h-.825 0L4.47.19h.86z" fill="#b3b3b3" fill-rule="evenodd"/></g><path d="M14802.2 10320.803l14.087-149.606h0-338.708v149.606z" fill="#b3b3b3" stroke-width="36.6141"/></g><g stroke="#000" stroke-width=".093"><g transform="matrix(393.7 0 0 -393.7 9064 10246)"><path d="M1.11 1.54h2.86L4.54 0 4.4-.77H.68L.54 0z" fill="#1a1a1a" fill-rule="evenodd"/><path d="M5.33-.19h-.825 0L4.47.19h.86z" fill="#b3b3b3" fill-rule="evenodd"/></g><path d="M9290.2 10320.803l14.087-149.606h0-338.708v149.606z" fill="#b3b3b3" stroke-width="36.6141"/></g><g stroke="#000" stroke-width=".093"><g transform="matrix(393.7 0 0 -393.7 3552 10246)"><path d="M1.11 1.54h2.86L4.54 0 4.4-.77H.68L.54 0z" fill="#1a1a1a" fill-rule="evenodd"/><path d="M5.33-.19h-.825 0L4.47.19h.86z" fill="#b3b3b3" fill-rule="evenodd"/></g><path d="M3778.2 10320.803l14.087-149.606h0-338.708v149.606z" fill="#b3b3b3" stroke-width="36.6141"/></g><g stroke="#000" stroke-width=".093"><path d="M27265.001 888.001v13999.972h999.998V888.001h-999.998z" fill="#1a1a1a" fill-rule="evenodd" stroke-width="36.6141"/><path d="M28001.22 12151.994h-472.44v472.44h472.44z" fill="#333" fill-rule="evenodd" stroke-width="36.6141"/><path d="M27528.78 12624.434l117.716-117.716M28001.22 12624.434l-117.716-117.716M27646.496 12506.718h237.008M27528.78 12151.994l117.716 117.717M27646.496 12269.71v237.008M28001.22 12151.994l-117.716 117.717M27883.504 12269.71h-237.008M27883.504 12506.718v-237.007" fill="none" stroke-width="36.6141"/><path d="M27883.11 12270.104h-236.22v236.22h236.22z" fill="olive" fill-rule="evenodd" stroke-width="36.6141"/><path d="M27725.63 12289.79v-19.686M27725.63 12486.64v-196.85M27725.63 12506.324v-19.685M27804.37 12506.324v-19.685M27725.63 12486.64h78.74M27804.37 12486.64v-196.85M27804.37 12289.79v-19.686M27725.63 12289.79h78.74" fill="none" stroke-width="36.6141"/><g><path d="M28001.22 13151.992h-472.44v472.44h472.44z" fill="#333" fill-rule="evenodd" stroke-width="36.6141"/><path d="M27528.78 13624.432l117.716-117.716M28001.22 13624.432l-117.716-117.716M27646.496 13506.716h237.008M27528.78 13151.992l117.716 117.717M27646.496 13269.709v237.007M28001.22 13151.992l-117.716 117.717M27883.504 13269.709h-237.008M27883.504 13506.716v-237.007" fill="none" stroke-width="36.6141"/><path d="M27883.11 13270.102h-236.22v236.22h236.22z" fill="olive" fill-rule="evenodd" stroke-width="36.6141"/><path d="M27725.63 13289.787v-19.685M27725.63 13486.637v-196.85M27725.63 13506.322v-19.685M27804.37 13506.322v-19.685M27725.63 13486.637h78.74M27804.37 13486.637v-196.85M27804.37 13289.787v-19.685M27725.63 13289.787h78.74" fill="none" stroke-width="36.6141"/></g><g><path d="M28001.22 14151.99h-472.44v472.44h472.44z" fill="#333" fill-rule="evenodd" stroke-width="36.6141"/><path d="M27528.78 14624.43l117.716-117.716M28001.22 14624.43l-117.716-117.716M27646.496 14506.714h237.008M27528.78 14151.99l117.716 117.717M27646.496 14269.707v237.007M28001.22 14151.99l-117.716 117.717M27883.504 14269.707h-237.008M27883.504 14506.714v-237.007" fill="none" stroke-width="36.6141"/><path d="M27883.11 14270.1h-236.22v236.22h236.22z" fill="olive" fill-rule="evenodd" stroke-width="36.6141"/><path d="M27725.63 14289.785v-19.685M27725.63 14486.635v-196.85M27725.63 14506.32v-19.685M27804.37 14506.32v-19.685M27725.63 14486.635h78.74M27804.37 14486.635v-196.85M27804.37 14289.785v-19.685M27725.63 14289.785h78.74" fill="none" stroke-width="36.6141"/></g><g><path d="M28001.22 9152h-472.44v472.44h472.44z" fill="#333" fill-rule="evenodd" stroke-width="36.6141"/><path d="M27528.78 9624.44l117.716-117.716M28001.22 9624.44l-117.716-117.716M27646.496 9506.724h237.008M27528.78 9152l117.716 117.717M27646.496 9269.717v237.007M28001.22 9152l-117.716 117.717M27883.504 9269.717h-237.008M27883.504 9506.724v-237.007" fill="none" stroke-width="36.6141"/><path d="M27883.11 9270.11h-236.22v236.22h236.22z" fill="olive" fill-rule="evenodd" stroke-width="36.6141"/><path d="M27725.63 9289.795v-19.685M27725.63 9486.645v-196.85M27725.63 9506.33v-19.685M27804.37 9506.33v-19.685M27725.63 9486.645h78.74M27804.37 9486.645v-196.85M27804.37 9289.795v-19.685M27725.63 9289.795h78.74" fill="none" stroke-width="36.6141"/></g><g><path d="M28001.22 10151.998h-472.44v472.44h472.44z" fill="#333" fill-rule="evenodd" stroke-width="36.6141"/><path d="M27528.78 10624.438l117.716-117.716M28001.22 10624.438l-117.716-117.716M27646.496 10506.722h237.008M27528.78 10151.998l117.716 117.717M27646.496 10269.715v237.007M28001.22 10151.998l-117.716 117.717M27883.504 10269.715h-237.008M27883.504 10506.722v-237.007" fill="none" stroke-width="36.6141"/><path d="M27883.11 10270.108h-236.22v236.22h236.22z" fill="olive" fill-rule="evenodd" stroke-width="36.6141"/><path d="M27725.63 10289.793v-19.685M27725.63 10486.643v-196.85M27725.63 10506.328v-19.685M27804.37 10506.328v-19.685M27725.63 10486.643h78.74M27804.37 10486.643v-196.85M27804.37 10289.793v-19.685M27725.63 10289.793h78.74" fill="none" stroke-width="36.6141"/></g><g><path d="M28001.22 11151.996h-472.44v472.44h472.44z" fill="#333" fill-rule="evenodd" stroke-width="36.6141"/><path d="M27528.78 11624.436l117.716-117.716M28001.22 11624.436l-117.716-117.716M27646.496 11506.72h237.008M27528.78 11151.996l117.716 117.717M27646.496 11269.713v237.007M28001.22 11151.996l-117.716 117.717M27883.504 11269.713h-237.008M27883.504 11506.72v-237.007" fill="none" stroke-width="36.6141"/><path d="M27883.11 11270.106h-236.22v236.22h236.22z" fill="olive" fill-rule="evenodd" stroke-width="36.6141"/><path d="M27725.63 11289.791v-19.685M27725.63 11486.641v-196.85M27725.63 11506.326v-19.685M27804.37 11506.326v-19.685M27725.63 11486.641h78.74M27804.37 11486.641v-196.85M27804.37 11289.791v-19.685M27725.63 11289.791h78.74" fill="none" stroke-width="36.6141"/></g><g><path d="M28001.22 12151.994h-472.44v472.44h472.44z" fill="#333" fill-rule="evenodd" stroke-width="36.6141"/><path d="M27528.78 12624.434l117.716-117.716M28001.22 12624.434l-117.716-117.716M27646.496 12506.718h237.008M27528.78 12151.994l117.716 117.717M27646.496 12269.71v237.008M28001.22 12151.994l-117.716 117.717M27883.504 12269.71h-237.008M27883.504 12506.718v-237.007" fill="none" stroke-width="36.6141"/><path d="M27883.11 12270.104h-236.22v236.22h236.22z" fill="olive" fill-rule="evenodd" stroke-width="36.6141"/><path d="M27725.63 12289.79v-19.686M27725.63 12486.64v-196.85M27725.63 12506.324v-19.685M27804.37 12506.324v-19.685M27725.63 12486.64h78.74M27804.37 12486.64v-196.85M27804.37 12289.79v-19.686M27725.63 12289.79h78.74" fill="none" stroke-width="36.6141"/></g><g><path d="M28001.22 6152.006h-472.44v472.44h472.44z" fill="#333" fill-rule="evenodd" stroke-width="36.6141"/><path d="M27528.78 6624.446l117.716-117.716M28001.22 6624.446l-117.716-117.716M27646.496 6506.73h237.008M27528.78 6152.006l117.716 117.717M27646.496 6269.723v237.007M28001.22 6152.006l-117.716 117.717M27883.504 6269.723h-237.008M27883.504 6506.73v-237.007" fill="none" stroke-width="36.6141"/><path d="M27883.11 6270.116h-236.22v236.22h236.22z" fill="olive" fill-rule="evenodd" stroke-width="36.6141"/><path d="M27725.63 6289.801v-19.685M27725.63 6486.651v-196.85M27725.63 6506.336v-19.685M27804.37 6506.336v-19.685M27725.63 6486.651h78.74M27804.37 6486.651v-196.85M27804.37 6289.801v-19.685M27725.63 6289.801h78.74" fill="none" stroke-width="36.6141"/></g><g><path d="M28001.22 7152.004h-472.44v472.44h472.44z" fill="#333" fill-rule="evenodd" stroke-width="36.6141"/><path d="M27528.78 7624.444l117.716-117.716M28001.22 7624.444l-117.716-117.716M27646.496 7506.728h237.008M27528.78 7152.004l117.716 117.717M27646.496 7269.72v237.008M28001.22 7152.004l-117.716 117.717M27883.504 7269.72h-237.008M27883.504 7506.728V7269.72" fill="none" stroke-width="36.6141"/><path d="M27883.11 7270.114h-236.22v236.22h236.22z" fill="olive" fill-rule="evenodd" stroke-width="36.6141"/><path d="M27725.63 7289.8v-19.686M27725.63 7486.65V7289.8M27725.63 7506.334v-19.685M27804.37 7506.334v-19.685M27725.63 7486.65h78.74M27804.37 7486.65V7289.8M27804.37 7289.8v-19.686M27725.63 7289.8h78.74" fill="none" stroke-width="36.6141"/></g><g><path d="M28001.22 8152.002h-472.44v472.44h472.44z" fill="#333" fill-rule="evenodd" stroke-width="36.6141"/><path d="M27528.78 8624.442l117.716-117.716M28001.22 8624.442l-117.716-117.716M27646.496 8506.726h237.008M27528.78 8152.002l117.716 117.717M27646.496 8269.719v237.007M28001.22 8152.002l-117.716 117.717M27883.504 8269.719h-237.008M27883.504 8506.726v-237.007" fill="none" stroke-width="36.6141"/><path d="M27883.11 8270.112h-236.22v236.22h236.22z" fill="olive" fill-rule="evenodd" stroke-width="36.6141"/><path d="M27725.63 8289.797v-19.685M27725.63 8486.647v-196.85M27725.63 8506.332v-19.685M27804.37 8506.332v-19.685M27725.63 8486.647h78.74M27804.37 8486.647v-196.85M27804.37 8289.797v-19.685M27725.63 8289.797h78.74" fill="none" stroke-width="36.6141"/></g><g><path d="M28001.22 9152h-472.44v472.44h472.44z" fill="#333" fill-rule="evenodd" stroke-width="36.6141"/><path d="M27528.78 9624.44l117.716-117.716M28001.22 9624.44l-117.716-117.716M27646.496 9506.724h237.008M27528.78 9152l117.716 117.717M27646.496 9269.717v237.007M28001.22 9152l-117.716 117.717M27883.504 9269.717h-237.008M27883.504 9506.724v-237.007" fill="none" stroke-width="36.6141"/><path d="M27883.11 9270.11h-236.22v236.22h236.22z" fill="olive" fill-rule="evenodd" stroke-width="36.6141"/><path d="M27725.63 9289.795v-19.685M27725.63 9486.645v-196.85M27725.63 9506.33v-19.685M27804.37 9506.33v-19.685M27725.63 9486.645h78.74M27804.37 9486.645v-196.85M27804.37 9289.795v-19.685M27725.63 9289.795h78.74" fill="none" stroke-width="36.6141"/></g><g><path d="M28001.22 3152.012h-472.44v472.44h472.44z" fill="#333" fill-rule="evenodd" stroke-width="36.6141"/><path d="M27528.78 3624.452l117.716-117.716M28001.22 3624.452l-117.716-117.716M27646.496 3506.736h237.008M27528.78 3152.012l117.716 117.717M27646.496 3269.729v237.007M28001.22 3152.012l-117.716 117.717M27883.504 3269.729h-237.008M27883.504 3506.736v-237.007" fill="none" stroke-width="36.6141"/><path d="M27883.11 3270.122h-236.22v236.22h236.22z" fill="olive" fill-rule="evenodd" stroke-width="36.6141"/><path d="M27725.63 3289.807v-19.685M27725.63 3486.657v-196.85M27725.63 3506.342v-19.685M27804.37 3506.342v-19.685M27725.63 3486.657h78.74M27804.37 3486.657v-196.85M27804.37 3289.807v-19.685M27725.63 3289.807h78.74" fill="none" stroke-width="36.6141"/></g><g><path d="M28001.22 4152.01h-472.44v472.44h472.44z" fill="#333" fill-rule="evenodd" stroke-width="36.6141"/><path d="M27528.78 4624.45l117.716-117.716M28001.22 4624.45l-117.716-117.716M27646.496 4506.734h237.008M27528.78 4152.01l117.716 117.717M27646.496 4269.727v237.007M28001.22 4152.01l-117.716 117.717M27883.504 4269.727h-237.008M27883.504 4506.734v-237.007" fill="none" stroke-width="36.6141"/><path d="M27883.11 4270.12h-236.22v236.22h236.22z" fill="olive" fill-rule="evenodd" stroke-width="36.6141"/><path d="M27725.63 4289.805v-19.685M27725.63 4486.655v-196.85M27725.63 4506.34v-19.685M27804.37 4506.34v-19.685M27725.63 4486.655h78.74M27804.37 4486.655v-196.85M27804.37 4289.805v-19.685M27725.63 4289.805h78.74" fill="none" stroke-width="36.6141"/></g><g><path d="M28001.22 5152.008h-472.44v472.44h472.44z" fill="#333" fill-rule="evenodd" stroke-width="36.6141"/><path d="M27528.78 5624.448l117.716-117.716M28001.22 5624.448l-117.716-117.716M27646.496 5506.732h237.008M27528.78 5152.008l117.716 117.717M27646.496 5269.725v237.007M28001.22 5152.008l-117.716 117.717M27883.504 5269.725h-237.008M27883.504 5506.732v-237.007" fill="none" stroke-width="36.6141"/><path d="M27883.11 5270.118h-236.22v236.22h236.22z" fill="olive" fill-rule="evenodd" stroke-width="36.6141"/><path d="M27725.63 5289.803v-19.685M27725.63 5486.653v-196.85M27725.63 5506.338v-19.685M27804.37 5506.338v-19.685M27725.63 5486.653h78.74M27804.37 5486.653v-196.85M27804.37 5289.803v-19.685M27725.63 5289.803h78.74" fill="none" stroke-width="36.6141"/></g><g><path d="M28001.22 6152.006h-472.44v472.44h472.44z" fill="#333" fill-rule="evenodd" stroke-width="36.6141"/><path d="M27528.78 6624.446l117.716-117.716M28001.22 6624.446l-117.716-117.716M27646.496 6506.73h237.008M27528.78 6152.006l117.716 117.717M27646.496 6269.723v237.007M28001.22 6152.006l-117.716 117.717M27883.504 6269.723h-237.008M27883.504 6506.73v-237.007" fill="none" stroke-width="36.6141"/><path d="M27883.11 6270.116h-236.22v236.22h236.22z" fill="olive" fill-rule="evenodd" stroke-width="36.6141"/><path d="M27725.63 6289.801v-19.685M27725.63 6486.651v-196.85M27725.63 6506.336v-19.685M27804.37 6506.336v-19.685M27725.63 6486.651h78.74M27804.37 6486.651v-196.85M27804.37 6289.801v-19.685M27725.63 6289.801h78.74" fill="none" stroke-width="36.6141"/></g><g><path d="M28001.22 1152.016h-472.44v472.44h472.44z" fill="#333" fill-rule="evenodd" stroke-width="36.6141"/><path d="M27528.78 1624.456l117.716-117.716M28001.22 1624.456l-117.716-117.716M27646.496 1506.74h237.008M27528.78 1152.016l117.716 117.717M27646.496 1269.733v237.007M28001.22 1152.016l-117.716 117.717M27883.504 1269.733h-237.008M27883.504 1506.74v-237.007" fill="none" stroke-width="36.6141"/><path d="M27883.11 1270.126h-236.22v236.22h236.22z" fill="olive" fill-rule="evenodd" stroke-width="36.6141"/><path d="M27725.63 1289.811v-19.685M27725.63 1486.661v-196.85M27725.63 1506.346v-19.685M27804.37 1506.346v-19.685M27725.63 1486.661h78.74M27804.37 1486.661v-196.85M27804.37 1289.811v-19.685M27725.63 1289.811h78.74" fill="none" stroke-width="36.6141"/></g><g><path d="M28001.22 2152.014h-472.44v472.44h472.44z" fill="#333" fill-rule="evenodd" stroke-width="36.6141"/><path d="M27528.78 2624.454l117.716-117.716M28001.22 2624.454l-117.716-117.716M27646.496 2506.738h237.008M27528.78 2152.014l117.716 117.717M27646.496 2269.73v237.008M28001.22 2152.014l-117.716 117.717M27883.504 2269.73h-237.008M27883.504 2506.738V2269.73" fill="none" stroke-width="36.6141"/><path d="M27883.11 2270.124h-236.22v236.22h236.22z" fill="olive" fill-rule="evenodd" stroke-width="36.6141"/><path d="M27725.63 2289.81v-19.686M27725.63 2486.66v-196.85M27725.63 2506.344v-19.685M27804.37 2506.344v-19.685M27725.63 2486.66h78.74M27804.37 2486.66v-196.85M27804.37 2289.81v-19.686M27725.63 2289.81h78.74" fill="none" stroke-width="36.6141"/></g></g><g transform="matrix(0 -393.7 393.7 0 17563.686 9299.998)" stroke="#000"><path d="M19.24 12.79H.19V.19h19.05z" fill="#0a0a0a" fill-rule="evenodd" stroke-width=".093"/><circle transform="scale(1 -1)" cx="2.336" cy="-11.472" r=".75" fill="red" stroke-width=".093"/><path fill="red" stroke-width=".093" d="M3.132 9.189h6.865v1.491H3.132zM10.222 9.197h6.865v1.491h-6.865zM3.132 2.213h6.865v1.491H3.132zM10.222 2.222h6.865v1.491h-6.865z"/><path fill="red" stroke-width=".08" d="M3.901 3.892v5.103H2.397V3.892zM10.868 3.919v5.103H9.364V3.919zM17.856 3.901v5.103h-1.504V3.901z"/></g><g transform="rotate(-90 7919.842 1380.156) scale(393.7)" stroke="#000"><path d="M19.24 12.79H.19V.19h19.05z" fill="#0a0a0a" fill-rule="evenodd" stroke-width=".093"/><circle transform="scale(1 -1)" cx="2.336" cy="-11.472" r=".75" fill="red" stroke-width=".093"/><path fill="red" stroke-width=".093" d="M3.132 9.189h6.865v1.491H3.132zM10.222 9.197h6.865v1.491h-6.865zM3.132 2.213h6.865v1.491H3.132zM10.222 2.222h6.865v1.491h-6.865z"/><path fill="red" stroke-width=".08" d="M3.901 3.892v5.103H2.397V3.892zM10.868 3.919v5.103H9.364V3.919zM17.856 3.901v5.103h-1.504V3.901z"/></g><g transform="rotate(-90 5164.342 4135.656) scale(393.7)" stroke="#000"><path d="M19.24 12.79H.19V.19h19.05z" fill="#0a0a0a" fill-rule="evenodd" stroke-width=".093"/><circle transform="scale(1 -1)" cx="2.336" cy="-11.472" r=".75" fill="red" stroke-width=".093"/><path fill="red" stroke-width=".093" d="M3.132 9.189h6.865v1.491H3.132zM10.222 9.197h6.865v1.491h-6.865zM3.132 2.213h6.865v1.491H3.132zM10.222 2.222h6.865v1.491h-6.865z"/><path fill="red" stroke-width=".08" d="M3.901 3.892v5.103H2.397V3.892zM10.868 3.919v5.103H9.364V3.919zM17.856 3.901v5.103h-1.504V3.901z"/></g></svg>