<svg width="276" height="264" viewBox="119480000 31975000 48698000 46798286" xmlns="http://www.w3.org/2000/svg" xmlns:xlink="http://www.w3.org/1999/xlink"><defs><mask id="c"><path d="M137410000 53077999v-2523998h1523998v2523998z" fill-rule="evenodd" fill="#fff" stroke="#fff" stroke-linecap="round" stroke-linejoin="round"/><g fill="#fff" fill-opacity="0" stroke="#fff" stroke-linecap="round" stroke-linejoin="round" stroke-width="1524000"><path d="M140720000 51316000v1000000M143260000 51316000v1000000M145800000 51316000v1000000M148340000 51316000v1000000M148340000 36076000v1000000M145800000 36076000v1000000M143260000 36076000v1000000M140720000 36076000v1000000M138180000 36076000v1000000"/></g><g fill="#fff" stroke="#fff" stroke-linecap="round" stroke-linejoin="round"><path d="M165270000 35341999v-1700000h1700000v1700000z" fill-rule="evenodd"/><circle cx="166120000" cy="37032000" r="850000"/><circle cx="166120000" cy="39572000" r="850000"/><circle cx="166120000" cy="42112000" r="850000"/><circle cx="166120000" cy="44652000" r="850000"/><circle cx="166120000" cy="47192000" r="850000"/><circle cx="166120000" cy="49732000" r="850000"/><circle cx="166120000" cy="52272000" r="850000"/><circle cx="166120000" cy="54812000" r="850000"/><circle cx="166120000" cy="57352000" r="850000"/><circle cx="157120000" cy="34492000" r="700000"/><circle cx="162200000" cy="34492000" r="700000"/><circle cx="157120000" cy="36992000" r="700000"/><circle cx="162200000" cy="36992000" r="700000"/><circle cx="157120000" cy="39492000" r="700000"/><circle cx="162200000" cy="39492000" r="700000"/><circle cx="157120000" cy="41992000" r="700000"/><circle cx="162200000" cy="41992000" r="700000"/><circle cx="157120000" cy="44492000" r="700000"/><circle cx="162200000" cy="44492000" r="700000"/><circle cx="157120000" cy="46992000" r="700000"/><circle cx="162200000" cy="46992000" r="700000"/><circle cx="157120000" cy="49612000" r="700000"/><circle cx="162200000" cy="49612000" r="700000"/><circle cx="157120000" cy="51992000" r="700000"/><circle cx="162200000" cy="51992000" r="700000"/></g></mask><mask id="d"><path fill="#fff" d="M119480000 31975000h48698000v46798286h-48698000z"/><path d="M137410000 53077999v-2523998h1523998v2523998z" fill-rule="evenodd" stroke="#000" stroke-linecap="round" stroke-linejoin="round"/><g fill-opacity="0" stroke="#000" stroke-linecap="round" stroke-linejoin="round" stroke-width="1524000"><path d="M140720000 51316000v1000000M143260000 51316000v1000000M145800000 51316000v1000000M148340000 51316000v1000000M148340000 36076000v1000000M145800000 36076000v1000000M143260000 36076000v1000000M140720000 36076000v1000000M138180000 36076000v1000000"/></g><g stroke="#000" stroke-linecap="round" stroke-linejoin="round"><path d="M165270000 35341999v-1700000h1700000v1700000z" fill-rule="evenodd"/><circle cx="166120000" cy="37032000" r="850000"/><circle cx="166120000" cy="39572000" r="850000"/><circle cx="166120000" cy="42112000" r="850000"/><circle cx="166120000" cy="44652000" r="850000"/><circle cx="166120000" cy="47192000" r="850000"/><circle cx="166120000" cy="49732000" r="850000"/><circle cx="166120000" cy="52272000" r="850000"/><circle cx="166120000" cy="54812000" r="850000"/><circle cx="166120000" cy="57352000" r="850000"/><circle cx="157120000" cy="34492000" r="700000"/><circle cx="162200000" cy="34492000" r="700000"/><circle cx="157120000" cy="36992000" r="700000"/><circle cx="162200000" cy="36992000" r="700000"/><circle cx="157120000" cy="39492000" r="700000"/><circle cx="162200000" cy="39492000" r="700000"/><circle cx="157120000" cy="41992000" r="700000"/><circle cx="162200000" cy="41992000" r="700000"/><circle cx="157120000" cy="44492000" r="700000"/><circle cx="162200000" cy="44492000" r="700000"/><circle cx="157120000" cy="46992000" r="700000"/><circle cx="162200000" cy="46992000" r="700000"/><circle cx="157120000" cy="49612000" r="700000"/><circle cx="162200000" cy="49612000" r="700000"/><circle cx="157120000" cy="51992000" r="700000"/><circle cx="162200000" cy="51992000" r="700000"/></g></mask><mask id="b"><path fill="#fff" d="M119480000 31975000h48698000v46798286h-48698000z"/><path stroke="#000" stroke-linecap="round" stroke-width="800000" d="M138180000 51816000h0M140720000 51816000h0M143260000 51816000h0M145800000 51816000h0M148340000 51816000h0M148340000 36576000h0M145800000 36576000h0M143260000 36576000h0M140720000 36576000h0M138180000 36576000h0"/><path stroke="#000" stroke-linecap="round" stroke-width="1000000" d="M166120000 34492000h0M166120000 37032000h0M166120000 39572000h0M166120000 42112000h0M166120000 44652000h0M166120000 47192000h0M166120000 49732000h0M166120000 52272000h0M166120000 54812000h0M166120000 57352000h0"/><path stroke="#000" stroke-linecap="round" stroke-width="700000" d="M157120000 34492000h0M162200000 34492000h0M157120000 36992000h0M162200000 36992000h0M157120000 39492000h0M162200000 39492000h0M157120000 41992000h0M162200000 41992000h0M157120000 44492000h0M162200000 44492000h0M157120000 46992000h0M162200000 46992000h0M157120000 49612000h0M162200000 49612000h0M157120000 51992000h0M162200000 51992000h0"/></mask><clipPath id="a"><path d="M168150000 78740000h-48648000V32000000h48648000v46740000" fill-rule="evenodd"/></clipPath></defs><g clip-path="url(#a)" mask="url(#b)"><g fill="#313d63" stroke="#313d63"><path d="M168150000 78740000h-48648000V32000000h48648000v46740000" fill-rule="evenodd"/><g fill-opacity="0" stroke-linecap="round" stroke-linejoin="round" stroke-width="50000" fill="none" stroke="#000"><path d="M119500000 32000000h48648000M168150000 32000000v46740000M119500000 78740000V32000000M119500000 78740000h48648000"/></g></g><g stroke-linecap="round" stroke-linejoin="round" fill="#9c6b28" stroke="#9c6b28"><path d="M137410000 53077999v-2523998h1523998v2523998z" fill-rule="evenodd"/><g fill-opacity="0" stroke-width="1524000" fill="none"><path d="M140720000 51316000v1000000M143260000 51316000v1000000M145800000 51316000v1000000M148340000 51316000v1000000M148340000 36076000v1000000M145800000 36076000v1000000M143260000 36076000v1000000M140720000 36076000v1000000M138180000 36076000v1000000"/></g><path d="M165270000 35341999v-1700000h1700000v1700000z" fill-rule="evenodd"/><circle cx="166120000" cy="37032000" r="850000"/><circle cx="166120000" cy="39572000" r="850000"/><circle cx="166120000" cy="42112000" r="850000"/><circle cx="166120000" cy="44652000" r="850000"/><circle cx="166120000" cy="47192000" r="850000"/><circle cx="166120000" cy="49732000" r="850000"/><circle cx="166120000" cy="52272000" r="850000"/><circle cx="166120000" cy="54812000" r="850000"/><circle cx="166120000" cy="57352000" r="850000"/><circle cx="157120000" cy="34492000" r="700000"/><circle cx="162200000" cy="34492000" r="700000"/><circle cx="157120000" cy="36992000" r="700000"/><circle cx="162200000" cy="36992000" r="700000"/><circle cx="157120000" cy="39492000" r="700000"/><circle cx="162200000" cy="39492000" r="700000"/><circle cx="157120000" cy="41992000" r="700000"/><circle cx="162200000" cy="41992000" r="700000"/><circle cx="157120000" cy="44492000" r="700000"/><circle cx="162200000" cy="44492000" r="700000"/><circle cx="157120000" cy="46992000" r="700000"/><circle cx="162200000" cy="46992000" r="700000"/><circle cx="157120000" cy="49612000" r="700000"/><circle cx="162200000" cy="49612000" r="700000"/><circle cx="157120000" cy="51992000" r="700000"/><circle cx="162200000" cy="51992000" r="700000"/></g><g fill="#212d53" stroke="#212d53" stroke-linecap="round" stroke-linejoin="round"><path d="M137410000 53077999v-2523998h1523998v2523998z" fill-rule="evenodd"/><g fill-opacity="0" stroke-width="1524000" fill="none"><path d="M140720000 51316000v1000000M143260000 51316000v1000000M145800000 51316000v1000000M148340000 51316000v1000000M148340000 36076000v1000000M145800000 36076000v1000000M143260000 36076000v1000000M140720000 36076000v1000000M138180000 36076000v1000000"/></g><path d="M165270000 35341999v-1700000h1700000v1700000z" fill-rule="evenodd"/><circle cx="166120000" cy="37032000" r="850000"/><circle cx="166120000" cy="39572000" r="850000"/><circle cx="166120000" cy="42112000" r="850000"/><circle cx="166120000" cy="44652000" r="850000"/><circle cx="166120000" cy="47192000" r="850000"/><circle cx="166120000" cy="49732000" r="850000"/><circle cx="166120000" cy="52272000" r="850000"/><circle cx="166120000" cy="54812000" r="850000"/><circle cx="166120000" cy="57352000" r="850000"/><circle cx="157120000" cy="34492000" r="700000"/><circle cx="162200000" cy="34492000" r="700000"/><circle cx="157120000" cy="36992000" r="700000"/><circle cx="162200000" cy="36992000" r="700000"/><circle cx="157120000" cy="39492000" r="700000"/><circle cx="162200000" cy="39492000" r="700000"/><circle cx="157120000" cy="41992000" r="700000"/><circle cx="162200000" cy="41992000" r="700000"/><circle cx="157120000" cy="44492000" r="700000"/><circle cx="162200000" cy="44492000" r="700000"/><circle cx="157120000" cy="46992000" r="700000"/><circle cx="162200000" cy="46992000" r="700000"/><circle cx="157120000" cy="49612000" r="700000"/><circle cx="162200000" cy="49612000" r="700000"/><circle cx="157120000" cy="51992000" r="700000"/><circle cx="162200000" cy="51992000" r="700000"/><circle cx="140720000" cy="49276000" r="400000"/><circle cx="140720000" cy="42164000" r="400000"/><circle cx="143260000" cy="48260000" r="400000"/><circle cx="143260000" cy="40640000" r="400000"/><circle cx="145800000" cy="39624000" r="400000"/><circle cx="145800000" cy="49784000" r="400000"/><circle cx="141730000" cy="45720000" r="400000"/><circle cx="141730000" cy="39116000" r="400000"/><circle cx="139190000" cy="40132000" r="400000"/><circle cx="139190000" cy="46736000" r="400000"/><g fill-opacity="0" stroke-width="500000" fill="none"><path d="M140720000 45720000v-3556000M140720000 45720000v3556000M143260000 40640000v7620000M145800000 39624000v10160000M141730000 45720000v-6604000M139190000 46736000v-6604000"/></g><g><circle cx="140720000" cy="49276000" r="175000"/><circle cx="140720000" cy="42164000" r="175000"/><circle cx="143260000" cy="48260000" r="175000"/><circle cx="143260000" cy="40640000" r="175000"/><circle cx="145800000" cy="39624000" r="175000"/><circle cx="145800000" cy="49784000" r="175000"/><circle cx="141730000" cy="45720000" r="175000"/><circle cx="141730000" cy="39116000" r="175000"/><circle cx="139190000" cy="40132000" r="175000"/><circle cx="139190000" cy="46736000" r="175000"/><circle cx="138180000" cy="51816000" r="175000"/><circle cx="140720000" cy="51816000" r="175000"/><circle cx="143260000" cy="51816000" r="175000"/><circle cx="145800000" cy="51816000" r="175000"/><circle cx="148340000" cy="51816000" r="175000"/><circle cx="148340000" cy="36576000" r="175000"/><circle cx="145800000" cy="36576000" r="175000"/><circle cx="143260000" cy="36576000" r="175000"/><circle cx="140720000" cy="36576000" r="175000"/><circle cx="138180000" cy="36576000" r="175000"/><circle cx="166120000" cy="34492000" r="175000"/><circle cx="166120000" cy="37032000" r="175000"/><circle cx="166120000" cy="39572000" r="175000"/><circle cx="166120000" cy="42112000" r="175000"/><circle cx="166120000" cy="44652000" r="175000"/><circle cx="166120000" cy="47192000" r="175000"/><circle cx="166120000" cy="49732000" r="175000"/><circle cx="166120000" cy="52272000" r="175000"/><circle cx="166120000" cy="54812000" r="175000"/><circle cx="166120000" cy="57352000" r="175000"/><circle cx="157120000" cy="34492000" r="175000"/><circle cx="162200000" cy="34492000" r="175000"/><circle cx="157120000" cy="36992000" r="175000"/><circle cx="162200000" cy="36992000" r="175000"/><circle cx="157120000" cy="39492000" r="175000"/><circle cx="162200000" cy="39492000" r="175000"/><circle cx="157120000" cy="41992000" r="175000"/><circle cx="162200000" cy="41992000" r="175000"/><circle cx="157120000" cy="44492000" r="175000"/><circle cx="162200000" cy="44492000" r="175000"/><circle cx="157120000" cy="46992000" r="175000"/><circle cx="162200000" cy="46992000" r="175000"/><circle cx="157120000" cy="49612000" r="175000"/><circle cx="162200000" cy="49612000" r="175000"/><circle cx="157120000" cy="51992000" r="175000"/><circle cx="162200000" cy="51992000" r="175000"/></g></g><g fill="#b5ae30" mask="url(#c)" stroke="#b5ae30" stroke-linecap="round" stroke-linejoin="round"><path d="M137410000 53077999v-2523998h1523998v2523998z" fill-rule="evenodd"/><g fill-opacity="0" stroke-width="1524000" fill="none"><path d="M140720000 51316000v1000000M143260000 51316000v1000000M145800000 51316000v1000000M148340000 51316000v1000000M148340000 36076000v1000000M145800000 36076000v1000000M143260000 36076000v1000000M140720000 36076000v1000000M138180000 36076000v1000000"/></g><path d="M165270000 35341999v-1700000h1700000v1700000z" fill-rule="evenodd"/><circle cx="166120000" cy="37032000" r="850000"/><circle cx="166120000" cy="39572000" r="850000"/><circle cx="166120000" cy="42112000" r="850000"/><circle cx="166120000" cy="44652000" r="850000"/><circle cx="166120000" cy="47192000" r="850000"/><circle cx="166120000" cy="49732000" r="850000"/><circle cx="166120000" cy="52272000" r="850000"/><circle cx="166120000" cy="54812000" r="850000"/><circle cx="166120000" cy="57352000" r="850000"/><circle cx="157120000" cy="34492000" r="700000"/><circle cx="162200000" cy="34492000" r="700000"/><circle cx="157120000" cy="36992000" r="700000"/><circle cx="162200000" cy="36992000" r="700000"/><circle cx="157120000" cy="39492000" r="700000"/><circle cx="162200000" cy="39492000" r="700000"/><circle cx="157120000" cy="41992000" r="700000"/><circle cx="162200000" cy="41992000" r="700000"/><circle cx="157120000" cy="44492000" r="700000"/><circle cx="162200000" cy="44492000" r="700000"/><circle cx="157120000" cy="46992000" r="700000"/><circle cx="162200000" cy="46992000" r="700000"/><circle cx="157120000" cy="49612000" r="700000"/><circle cx="162200000" cy="49612000" r="700000"/><circle cx="157120000" cy="51992000" r="700000"/><circle cx="162200000" cy="51992000" r="700000"/><circle cx="140720000" cy="49276000" r="400000"/><circle cx="140720000" cy="42164000" r="400000"/><circle cx="143260000" cy="48260000" r="400000"/><circle cx="143260000" cy="40640000" r="400000"/><circle cx="145800000" cy="39624000" r="400000"/><circle cx="145800000" cy="49784000" r="400000"/><circle cx="141730000" cy="45720000" r="400000"/><circle cx="141730000" cy="39116000" r="400000"/><circle cx="139190000" cy="40132000" r="400000"/><circle cx="139190000" cy="46736000" r="400000"/><g fill-opacity="0" stroke-width="500000" fill="none"><path d="M140720000 45720000v-3556000M140720000 45720000v3556000M143260000 40640000v7620000M145800000 39624000v10160000M141730000 45720000v-6604000M139190000 46736000v-6604000"/></g><g><circle cx="140720000" cy="49276000" r="175000"/><circle cx="140720000" cy="42164000" r="175000"/><circle cx="143260000" cy="48260000" r="175000"/><circle cx="143260000" cy="40640000" r="175000"/><circle cx="145800000" cy="39624000" r="175000"/><circle cx="145800000" cy="49784000" r="175000"/><circle cx="141730000" cy="45720000" r="175000"/><circle cx="141730000" cy="39116000" r="175000"/><circle cx="139190000" cy="40132000" r="175000"/><circle cx="139190000" cy="46736000" r="175000"/><circle cx="138180000" cy="51816000" r="175000"/><circle cx="140720000" cy="51816000" r="175000"/><circle cx="143260000" cy="51816000" r="175000"/><circle cx="145800000" cy="51816000" r="175000"/><circle cx="148340000" cy="51816000" r="175000"/><circle cx="148340000" cy="36576000" r="175000"/><circle cx="145800000" cy="36576000" r="175000"/><circle cx="143260000" cy="36576000" r="175000"/><circle cx="140720000" cy="36576000" r="175000"/><circle cx="138180000" cy="36576000" r="175000"/><circle cx="166120000" cy="34492000" r="175000"/><circle cx="166120000" cy="37032000" r="175000"/><circle cx="166120000" cy="39572000" r="175000"/><circle cx="166120000" cy="42112000" r="175000"/><circle cx="166120000" cy="44652000" r="175000"/><circle cx="166120000" cy="47192000" r="175000"/><circle cx="166120000" cy="49732000" r="175000"/><circle cx="166120000" cy="52272000" r="175000"/><circle cx="166120000" cy="54812000" r="175000"/><circle cx="166120000" cy="57352000" r="175000"/><circle cx="157120000" cy="34492000" r="175000"/><circle cx="162200000" cy="34492000" r="175000"/><circle cx="157120000" cy="36992000" r="175000"/><circle cx="162200000" cy="36992000" r="175000"/><circle cx="157120000" cy="39492000" r="175000"/><circle cx="162200000" cy="39492000" r="175000"/><circle cx="157120000" cy="41992000" r="175000"/><circle cx="162200000" cy="41992000" r="175000"/><circle cx="157120000" cy="44492000" r="175000"/><circle cx="162200000" cy="44492000" r="175000"/><circle cx="157120000" cy="46992000" r="175000"/><circle cx="162200000" cy="46992000" r="175000"/><circle cx="157120000" cy="49612000" r="175000"/><circle cx="162200000" cy="49612000" r="175000"/><circle cx="157120000" cy="51992000" r="175000"/><circle cx="162200000" cy="51992000" r="175000"/></g></g><g fill="#f0f0f0" mask="url(#d)" stroke="#f0f0f0" stroke-linecap="round" stroke-linejoin="round"><g fill-opacity="0" stroke-width="375000"><g class="stroked-text"><path d="M127180000 76427750h-1500000M126250000 76427750l-71429-142858v-285714l71429-142857 71428-71429 142857-71428h428572l142857 71428 71428 71429 71429 142857v285714l-71429 142858" fill="none"/></g><g class="stroked-text"><path d="M137180000 75784892h-1500000M137110000 75784892l71429 142858v285714l-71429 142857-71428 71429-142857 71428h-428572l-142857-71428-71428-71429-71429-142857v-285714l71429-142858" fill="none"/></g><g class="stroked-text"><path d="M146180000 76142035v-571428M147180000 75927750h-1285714l-142857-71429-71429-142857v-142857" fill="none"/></g><g class="stroked-text"><path d="M157180000 77142035h-1500000M157110000 77142035l71429 142857v285715l-71429 142857-71428 71428-142857 71429h-428572l-142857-71429-71428-71428-71429-142857v-285715l71429-142857M156180000 76427750h1500000M156250000 76427750l-71429-142858v-285714l71429-142857 71428-71429 142857-71428h428572l142857 71428 71428 71429 71429 142857v285714l-71429 142858" fill="none"/></g><g class="stroked-text"><path d="M122180000 75784892h-785714l-142857 71429-71429 142857v285714l71429 142858" fill="none"/><path d="M122110000 75784892l71429 142858v357142l-71429 142858-142857 71428h-142857l-142857-71428-71429-142858v-357142l-71428-142858" fill="none"/></g><g class="stroked-text"><path d="M151180000 75784892h1214286l142857 71429 71428 71429 71429 142857v214285l-71429 142858" fill="none"/><path d="M152110000 75784892l71429 142858v285714l-71429 142857-71428 71429-142857 71428h-428572l-142857-71428-71428-71429-71429-142857v-285714l71429-142858" fill="none"/></g><g class="stroked-text"><path d="M142110000 75784892l71429 142858v285714l-71429 142857-142857 71429h-571428l-142857-71429-71429-142857v-285714l71429-142858 142857-71428h142857l142857 714286" fill="none"/></g><g class="stroked-text"><path d="M162040000 77427750l71428 71428 71429 214286v142857l-71429 214286-142857 142857-142857 71428-285714 71429h-214286l-285714-71429-142857-71428-142857-142857-71429-214286v-142857l71429-214286 71428-71428M162180000 76784892h-1500000l1071429-500000-1071429-500000h1500000" fill="none"/></g><g class="stroked-text"><path d="M132110000 75713464l71429 142857v285714l-71429 142857-71428 71429-142857 71429h-428572l-142857-71429-71428-71429-71429-142857v-285714l71429-142857" fill="none"/></g></g><g fill-opacity="0" stroke-width="120000" fill="none"><path d="M145260000 49196000l1000000-5000000M149670000 49911000V38481000M140260000 39196000h7000000M138260000 49196000h7000000M146260000 44196000h-7000000M137960000 53831000h11600000M139260000 44196000l-1000000 5000000M147260000 39196000l-1000000 5000000M140260000 39196000l-1000000 5000000M149560000 34561000h-12600000M136850000 49911000V38481000"/><circle cx="147260000" cy="49196000" r="447214"/><path d="M164790000 35762000v22920000M164790000 35762000h2660000M167450000 33162000v1330000M167450000 35762000v22920000M164790000 58682000h2660000M166120000 33162000h1330000M157740000 35412000h3840000M157740000 33572000h3840000M157740000 36072000h3840000M157740000 37912000h3840000M157740000 38572000h3840000M157740000 40412000h3840000M157740000 41072000h3840000M157740000 42912000h3840000M157740000 43572000h3840000M157740000 45412000h3840000M157740000 47912000h3840000M157740000 46072000h3840000M157740000 50532000h3840000M157740000 48692000h3840000M157740000 51072000h3840000M157740000 52912000h3840000"/></g><circle cx="140720000" cy="49276000" r="175000"/><circle cx="140720000" cy="42164000" r="175000"/><circle cx="143260000" cy="48260000" r="175000"/><circle cx="143260000" cy="40640000" r="175000"/><circle cx="145800000" cy="39624000" r="175000"/><circle cx="145800000" cy="49784000" r="175000"/><circle cx="141730000" cy="45720000" r="175000"/><circle cx="141730000" cy="39116000" r="175000"/><circle cx="139190000" cy="40132000" r="175000"/><circle cx="139190000" cy="46736000" r="175000"/><circle cx="138180000" cy="51816000" r="175000"/><circle cx="140720000" cy="51816000" r="175000"/><circle cx="143260000" cy="51816000" r="175000"/><circle cx="145800000" cy="51816000" r="175000"/><circle cx="148340000" cy="51816000" r="175000"/><circle cx="148340000" cy="36576000" r="175000"/><circle cx="145800000" cy="36576000" r="175000"/><circle cx="143260000" cy="36576000" r="175000"/><circle cx="140720000" cy="36576000" r="175000"/><circle cx="138180000" cy="36576000" r="175000"/><circle cx="166120000" cy="34492000" r="175000"/><circle cx="166120000" cy="37032000" r="175000"/><circle cx="166120000" cy="39572000" r="175000"/><circle cx="166120000" cy="42112000" r="175000"/><circle cx="166120000" cy="44652000" r="175000"/><circle cx="166120000" cy="47192000" r="175000"/><circle cx="166120000" cy="49732000" r="175000"/><circle cx="166120000" cy="52272000" r="175000"/><circle cx="166120000" cy="54812000" r="175000"/><circle cx="166120000" cy="57352000" r="175000"/><circle cx="157120000" cy="34492000" r="175000"/><circle cx="162200000" cy="34492000" r="175000"/><circle cx="157120000" cy="36992000" r="175000"/><circle cx="162200000" cy="36992000" r="175000"/><circle cx="157120000" cy="39492000" r="175000"/><circle cx="162200000" cy="39492000" r="175000"/><circle cx="157120000" cy="41992000" r="175000"/><circle cx="162200000" cy="41992000" r="175000"/><circle cx="157120000" cy="44492000" r="175000"/><circle cx="162200000" cy="44492000" r="175000"/><circle cx="157120000" cy="46992000" r="175000"/><circle cx="162200000" cy="46992000" r="175000"/><circle cx="157120000" cy="49612000" r="175000"/><circle cx="162200000" cy="49612000" r="175000"/><circle cx="157120000" cy="51992000" r="175000"/><circle cx="162200000" cy="51992000" r="175000"/></g><g fill-opacity="0" stroke-linecap="round" stroke-linejoin="round" stroke-width="50000" fill="none" stroke="#000"><path d="M119500000 32000000h48648000M168150000 32000000v46740000M119500000 78740000V32000000M119500000 78740000h48648000"/></g></g><g stroke="#000"><path d="M149559500 34671500v19050000h-12600000V34671500z" fill="#0a0a0a" fill-rule="evenodd" stroke-width="93000"/><g fill="red"><g stroke-width=".093" transform="rotate(-90 95340500 -41429000) scale(1000000)"><circle transform="scale(1 -1)" cx="2.336" cy="-11.472" r=".75"/><path d="M3.132 9.189h6.865v1.491H3.132zM10.222 9.197h6.865v1.491h-6.865zM3.132 2.213h6.865v1.491H3.132zM10.222 2.222h6.865v1.491h-6.865z"/></g><g stroke-width=".08"><path d="M140661500 50010500h5103000v1504000h-5103000zM140688500 43043500h5103000v1504000h-5103000zM140670500 36055500h5103000v1504000h-5103000z" stroke-width="80000"/></g></g></g><g stroke="#000" stroke-width=".093"><path d="M167390000 33222000h-2540000v25400000h2540000V33222000z" fill="#1a1a1a" fill-rule="evenodd" stroke-width="93000"/><path d="M166720000 57951600v-1200000h-1200000v1200000z" fill="#666" fill-rule="evenodd" stroke-width="93000"/><g fill="none"><path d="M165520000 56751600l299000 299000M165520000 57951600l299000-299000M165819000 57050600v602000M166720000 56751600l-299000 299000M166421000 57050600h-602000M166720000 57951600l-299000-299000M166421000 57652600v-602000M165819000 57652600h602000" stroke-width="93000"/></g><path d="M166420000 57651600v-600000h-600000v600000z" fill="olive" fill-rule="evenodd" stroke-width="93000"/><g fill="none"><path d="M166020000 57101600v-50000M166020000 57601600v-500000M166020000 57651600v-50000M166220000 57651600v-50000M166020000 57601600h200000M166220000 57601600v-500000M166220000 57101600v-50000M166020000 57101600h200000" stroke-width="93000"/></g><g><path d="M166720000 55411600v-1200000h-1200000v1200000z" fill="#666" fill-rule="evenodd" stroke-width="93000"/><g fill="none"><path d="M165520000 54211600l299000 299000M165520000 55411600l299000-299000M165819000 54510600v602000M166720000 54211600l-299000 299000M166421000 54510600h-602000M166720000 55411600l-299000-299000M166421000 55112600v-602000M165819000 55112600h602000" stroke-width="93000"/></g><path d="M166420000 55111600v-600000h-600000v600000z" fill="olive" fill-rule="evenodd" stroke-width="93000"/><g fill="none"><path d="M166020000 54561600v-50000M166020000 55061600v-500000M166020000 55111600v-50000M166220000 55111600v-50000M166020000 55061600h200000M166220000 55061600v-500000M166220000 54561600v-50000M166020000 54561600h200000" stroke-width="93000"/></g><path d="M166720000 52871600v-1200000h-1200000v1200000z" fill="#666" fill-rule="evenodd" stroke-width="93000"/><g fill="none"><path d="M165520000 51671600l299000 299000M165520000 52871600l299000-299000M165819000 51970600v602000M166720000 51671600l-299000 299000M166421000 51970600h-602000M166720000 52871600l-299000-299000M166421000 52572600v-602000M165819000 52572600h602000" stroke-width="93000"/></g><path d="M166420000 52571600v-600000h-600000v600000z" fill="olive" fill-rule="evenodd" stroke-width="93000"/><g fill="none"><path d="M166020000 52021600v-50000M166020000 52521600v-500000M166020000 52571600v-50000M166220000 52571600v-50000M166020000 52521600h200000M166220000 52521600v-500000M166220000 52021600v-50000M166020000 52021600h200000" stroke-width="93000"/></g><path d="M166720000 50331600v-1200000h-1200000v1200000z" fill="#666" fill-rule="evenodd" stroke-width="93000"/><g fill="none"><path d="M165520000 49131600l299000 299000M165520000 50331600l299000-299000M165819000 49430600v602000M166720000 49131600l-299000 299000M166421000 49430600h-602000M166720000 50331600l-299000-299000M166421000 50032600v-602000M165819000 50032600h602000" stroke-width="93000"/></g><path d="M166420000 50031600v-600000h-600000v600000z" fill="olive" fill-rule="evenodd" stroke-width="93000"/><g fill="none"><path d="M166020000 49481600v-50000M166020000 49981600v-500000M166020000 50031600v-50000M166220000 50031600v-50000M166020000 49981600h200000M166220000 49981600v-500000M166220000 49481600v-50000M166020000 49481600h200000" stroke-width="93000"/></g><g><path d="M166720000 47791600v-1200000h-1200000v1200000z" fill="#666" fill-rule="evenodd" stroke-width="93000"/><g fill="none"><path d="M165520000 46591600l299000 299000M165520000 47791600l299000-299000M165819000 46890600v602000M166720000 46591600l-299000 299000M166421000 46890600h-602000M166720000 47791600l-299000-299000M166421000 47492600v-602000M165819000 47492600h602000" stroke-width="93000"/></g><path d="M166420000 47491600v-600000h-600000v600000z" fill="olive" fill-rule="evenodd" stroke-width="93000"/><g fill="none"><path d="M166020000 46941600v-50000M166020000 47441600v-500000M166020000 47491600v-50000M166220000 47491600v-50000M166020000 47441600h200000M166220000 47441600v-500000M166220000 46941600v-50000M166020000 46941600h200000" stroke-width="93000"/></g></g><g><path d="M166720000 45251600v-1200000h-1200000v1200000z" fill="#666" fill-rule="evenodd" stroke-width="93000"/><g fill="none"><path d="M165520000 44051600l299000 299000M165520000 45251600l299000-299000M165819000 44350600v602000M166720000 44051600l-299000 299000M166421000 44350600h-602000M166720000 45251600l-299000-299000M166421000 44952600v-602000M165819000 44952600h602000" stroke-width="93000"/></g><path d="M166420000 44951600v-600000h-600000v600000z" fill="olive" fill-rule="evenodd" stroke-width="93000"/><g fill="none"><path d="M166020000 44401600v-50000M166020000 44901600v-500000M166020000 44951600v-50000M166220000 44951600v-50000M166020000 44901600h200000M166220000 44901600v-500000M166220000 44401600v-50000M166020000 44401600h200000" stroke-width="93000"/></g></g><g><path d="M166720000 42711600v-1200000h-1200000v1200000z" fill="#666" fill-rule="evenodd" stroke-width="93000"/><g fill="none"><path d="M165520000 41511600l299000 299000M165520000 42711600l299000-299000M165819000 41810600v602000M166720000 41511600l-299000 299000M166421000 41810600h-602000M166720000 42711600l-299000-299000M166421000 42412600v-602000M165819000 42412600h602000" stroke-width="93000"/></g><path d="M166420000 42411600v-600000h-600000v600000z" fill="olive" fill-rule="evenodd" stroke-width="93000"/><g fill="none"><path d="M166020000 41861600v-50000M166020000 42361600v-500000M166020000 42411600v-50000M166220000 42411600v-50000M166020000 42361600h200000M166220000 42361600v-500000M166220000 41861600v-50000M166020000 41861600h200000" stroke-width="93000"/></g></g><g><path d="M166720000 40171600v-1200000h-1200000v1200000z" fill="#666" fill-rule="evenodd" stroke-width="93000"/><g fill="none"><path d="M165520000 38971600l299000 299000M165520000 40171600l299000-299000M165819000 39270600v602000M166720000 38971600l-299000 299000M166421000 39270600h-602000M166720000 40171600l-299000-299000M166421000 39872600v-602000M165819000 39872600h602000" stroke-width="93000"/></g><path d="M166420000 39871600v-600000h-600000v600000z" fill="olive" fill-rule="evenodd" stroke-width="93000"/><g fill="none"><path d="M166020000 39321600v-50000M166020000 39821600v-500000M166020000 39871600v-50000M166220000 39871600v-50000M166020000 39821600h200000M166220000 39821600v-500000M166220000 39321600v-50000M166020000 39321600h200000" stroke-width="93000"/></g></g><g><path d="M166720000 37631600v-1200000h-1200000v1200000z" fill="#666" fill-rule="evenodd" stroke-width="93000"/><g fill="none"><path d="M165520000 36431600l299000 299000M165520000 37631600l299000-299000M165819000 36730600v602000M166720000 36431600l-299000 299000M166421000 36730600h-602000M166720000 37631600l-299000-299000M166421000 37332600v-602000M165819000 37332600h602000" stroke-width="93000"/></g><path d="M166420000 37331600v-600000h-600000v600000z" fill="olive" fill-rule="evenodd" stroke-width="93000"/><g fill="none"><path d="M166020000 36781600v-50000M166020000 37281600v-500000M166020000 37331600v-50000M166220000 37331600v-50000M166020000 37281600h200000M166220000 37281600v-500000M166220000 36781600v-50000M166020000 36781600h200000" stroke-width="93000"/></g></g><g><path d="M166720000 35091600v-1200000h-1200000v1200000z" fill="#666" fill-rule="evenodd" stroke-width="93000"/><g fill="none"><path d="M165520000 33891600l299000 299000M165520000 35091600l299000-299000M165819000 34190600v602000M166720000 33891600l-299000 299000M166421000 34190600h-602000M166720000 35091600l-299000-299000M166421000 34792600v-602000M165819000 34792600h602000" stroke-width="93000"/></g><path d="M166420000 34791600v-600000h-600000v600000z" fill="olive" fill-rule="evenodd" stroke-width="93000"/><g fill="none"><path d="M166020000 34241600v-50000M166020000 34741600v-500000M166020000 34791600v-50000M166220000 34791600v-50000M166020000 34741600h200000M166220000 34741600v-500000M166220000 34241600v-50000M166020000 34241600h200000" stroke-width="93000"/></g></g></g></g><g transform="translate(156816060 33436200) scale(1000000)"><g id="e"><g transform="matrix(1 0 0 -1 .304 1.056)" fill="#faa" stroke-width=".093"><path d="M1.14.8V-.8M3.94.8V-.8M1.14-.8c-.24.021-.374.155-.4.4v.8c0 .22.18.4.4.4h.5V-.8zM3.44-.8V.8h.5a.4.4 0 0 0 .4-.4v-.8c-.026-.245-.16-.379-.4-.4z" fill-rule="evenodd" stroke="#191919"/><path d="M4.34.25h.74c.333 0 .333-.5 0-.5h-.74 0z" fill="#999" fill-rule="evenodd" stroke="#191919"/></g><path d="M1.044.806v.5h-.74c-.333 0-.333-.5 0-.5z" fill="#999" stroke="#1a1a1a" stroke-width=".093"/><path d="M3.744.336v1.44h-1.8V.336h1.8z" fill="#e9afaf" stroke="#1a1a1a" stroke-width=".093"/><path fill="#500" opacity=".997" stroke="#1a1a1a" stroke-width=".092" d="M2.186.339h.182v1.432h-.182z"/><path opacity=".997" stroke="#1a1a1a" stroke-width=".092" d="M2.552.344h.182v1.432h-.182z"/><path fill="red" opacity=".997" stroke="#1a1a1a" stroke-width=".092" d="M2.923.345h.182v1.432h-.182z"/><path fill="olive" opacity=".997" stroke="#1a1a1a" stroke-width=".092" d="M3.419.339h.182v1.432h-.182z"/></g></g><use xlink:href="#e" transform="translate(156816060 35936200) scale(1000000)"/><use xlink:href="#e" transform="translate(156816060 38436200) scale(1000000)"/><use xlink:href="#e" transform="translate(156816060 40936200) scale(1000000)"/><use xlink:href="#e" transform="translate(156816060 43436200) scale(1000000)"/><use xlink:href="#e" transform="translate(156816060 45936200) scale(1000000)"/><use xlink:href="#e" transform="translate(156816060 48556200) scale(1000000)"/><use xlink:href="#e" transform="translate(156816060 50936200) scale(1000000)"/></svg>