<svg width="277" height="245" version="1.1" viewBox="0 0 22277 19734" xmlns="http://www.w3.org/2000/svg">
 <g transform="translate(-38766,-17898)" fill="#313d63" stroke="#313d63">
  <path d="m38750 17900v19700h22250v-19700h-22250" fill-rule="evenodd"/>
  <g fill="none" fill-opacity="0" stroke="#000" stroke-linecap="round" stroke-linejoin="round" stroke-width="19.685">
   <path d="m61000 17900h-22250m22250 19700v-19700m-22250 19700h22250m-22250-19700v19700"/>
  </g>
 </g>
 <g fill="none" fill-opacity="0" stroke-linecap="round" stroke-linejoin="round">
  <g transform="translate(-38766,-17898)" stroke="#212d53" stroke-width="98.425">
   <path d="m57295 23712v83l205 205h2500m-3276-276v500m-12-512 12 12m-20-12h8m12 512 1526 1526h2e3l250-250m0-2e3 -500-500m500 2500v-2e3m-3402-713h197m2705-787h-2500m-205 204v583m205-787-205 204m-591 583h197m0 364 99 99m-99-463v364m0 197v364m99-462-99 98m0 555v-191m1097 1288-1097-1097m3099 1097h-2002"/>
  </g>
  <g stroke="#f0f0f0">
   <g transform="translate(-38766,-17898)" stroke-width="147.64">
    <path d="m40902 33926h337m-169 591v-591m366 281h197m84 310h-281v-591h281m253 591v-591l197 422 197-422v591m281 0v-591h225l56 28 29 28 28 57v84l-28 56-29 28-56 28h-225m4978 282-197-282m-141 282v-591h225l56 28 29 28 28 57v84l-28 56-29 28-56 28h-225m591 282v-591m0 281h337m0 310v-591"/>
   </g>
   <g transform="translate(-38766,-17898)" stroke-width="295.28">
    <path d="m51719 20228 168 56h282l112-56 56-57 56-112v-113l-56-112-56-56-112-57-225-56-113-56-56-56-56-113v-112l56-113 56-56 113-56h281l168 56m507 1125v-1181m0 562h675m0 619v-1181m393 0h675m-337 1181v-1181m618 0h732l-394 450h169l112 56 56 56 57 113v281l-57 112-56 57-112 56h-338l-112-56-57-57m1125-1068 788 1181m0-1181-788 1181"/>
   </g>
   <g transform="translate(-38766,-17898)" stroke-width="47.244">
    <path d="m56566 23250v-394m867 787v-787m2567-1380h523v524m0 500v3023m-1047 0h1047m-1047-3023v3023m0-3023h1047"/>
   </g>
  </g>
  <g transform="translate(-38766,-17898)" stroke="#000" stroke-width="19.685">
   <path d="m61000 17900h-22250m22250 19700v-19700m-22250 19700h22250m-22250-19700v19700"/>
  </g>
 </g>
 <g transform="matrix(0,-393.6,393.63,0,17832,5753.3)" stroke="#000" stroke-width=".093">
  <path d="m0.02 0.395h0.01m0-0.25h-0.01v0.25" fill="none"/>
  <path d="m2.01 0.03v1.98h-1.98v-1.98z" fill="#1a1a1a" fill-rule="evenodd"/>
  <path d="m2.02 0.145h-0.01m0 0.25h0.01m0 0.25h-0.01m-1.98 0h-0.01m1.99 0.25h0.01m-2 0h0.01m1.99 0.25h-0.01m-1.98 0h-0.01m1.99 0.25h0.01m-2 0h0.01m1.99 0.25h-0.01m-1.98 0h-0.01m1.99 0.25h0.01m-2 0h0.01" fill="none"/>
  <circle transform="scale(1,-1)" cx=".5" cy="-.5" r=".2" fill="#333"/>
  <path d="m0.02 1.645v0.25m0-1.25v0.25m0 0.25v0.25m2-1v-0.25m0 1.75v-0.25m0-0.75v-0.25m0 0.75v-0.25" fill="none"/>
 </g>
 <g stroke-width=".093">
  <g transform="matrix(393.7 0 0 -393.69 21234 4101.8)" stroke="#000">
   <g fill-rule="evenodd">
    <path d="m-1.27-8.89h2.54v10.16h-2.54z" fill="#1a1a1a"/>
    <path d="m-0.6-1.94v-1.2h1.2v1.2z" fill="#333"/>
    <path d="m-0.6-5.68h1.2v1.2h-1.2zm0 5.08h1.2v1.2h-1.2zm1.2-6.42h-1.2v-1.2h1.2z" fill="#4d4d4d"/>
   </g>
   <path d="m-0.6-1.94 0.299-0.299m-0.299-0.901 0.299 0.299m0 0.602v-0.602m0.901 0.901-0.299-0.299h-0.602m0.901-0.901-0.299 0.299v0.602m-0.602-0.602h0.602m0.299-1.639-0.299-0.299m-0.901 0.299 0.299-0.299m0.602 0h-0.602m0.901-0.901-0.299 0.299v0.602m-0.901-0.901 0.299 0.299h0.602m-0.602 0.602v-0.602m-0.299 4.781 0.299 0.299m0.901-0.299-0.299 0.299m-0.602 0h0.602m-0.901 0.901 0.299-0.299v-0.602m0.901 0.901-0.299-0.299h-0.602m0.602-0.602v0.602m-0.901-8.521 0.299 0.299m0.901-0.299-0.299 0.299m-0.602 0h0.602m-0.901 0.901 0.299-0.299v-0.602m0.901 0.901-0.299-0.299h-0.602m0.602-0.602v0.602" fill="none"/>
   <path d="m-0.3-2.84h0.6v0.6h-0.6zm0.6-2.54v0.6h-0.6v-0.6zm0 5.08v0.6h-0.6v-0.6zm0-7.62v0.6h-0.6v-0.6z" fill="#808000" fill-rule="evenodd"/>
   <path d="m-0.1-2.29v0.05m0-0.55v0.5m0-0.55v0.05m0.2-0.05v0.05m-0.2 0h0.2v0.55m-0.2-0.05h0.2m-0.2-2.54v0.05m0-0.55v0.5m0-0.55v0.05m0.2-0.05v0.05m-0.2 0h0.2v0.55m-0.2-0.05h0.2m-0.2 5.08v0.05m0-0.55v0.5m0-0.55v0.05m0.2-0.05v0.05m-0.2 0h0.2v0.55m-0.2-0.05h0.2m-0.2-7.62v0.05m0-0.55v0.5m0-0.55v0.05m0.2-0.05v0.05m-0.2 0h0.2v0.55m-0.2-0.05h0.2" fill="none"/>
  </g>
 </g>
</svg>
