<svg width="183" height="245" version="1.1" viewBox="0 0 14753 19734" xmlns="http://www.w3.org/2000/svg">
 <g transform="translate(-44798,-17910)" fill="#313d63" stroke="#313d63">
  <path d="m44800 17900v19700h14700v-19700h-14700" fill-rule="evenodd"/>
  <g fill="none" fill-opacity="0" stroke="#000" stroke-linecap="round" stroke-linejoin="round" stroke-width="19.685">
   <path d="m59500 17900h-14700m14700 19700v-19700m-14700 19700h14700m-14700-19700v19700"/>
  </g>
 </g>
 <path d="m8808 5340h2644m0 0 1e3 1e3m750 0 250 250m-1e3 -250h750m-3607-1375h2482m625 625h750m-1375-625 625 625m-3233 250 126-126m-1393 126h1267m-1517-250 250 250m-250-1e3v750m500-1250-500 500m1750-500h-1250m1500 250-250-250m3750 250h-3500" fill="none" stroke="#212d53" stroke-linecap="round" stroke-linejoin="round" stroke-width="196.85"/>
 <g transform="translate(-44798,-17910)" fill="#b5ae30" fill-rule="evenodd" stroke-linecap="round" stroke-linejoin="round" stroke-width="0">
  <path d="m53784 23092v315h-354.4v-315zm787-374v315h-354.4v-315zm0 748v315h-354.4v-315z"/>
 </g>
 <g stroke="#f0f0f0" stroke-linecap="round" stroke-linejoin="round">
  <g transform="translate(-44798,-17910)" fill="none" fill-opacity="0" stroke-width="295.28">
   <path d="m52618 19665h-393m0 619v-1181h562m450 1181v-1181l394 843 394-843v1181m1124-1181h-562l-56 562 56-56 112-56h282l112 56 56 56 57 113v281l-57 112-56 57-112 56h-282l-112-56-56-57m1406-1068h112l113 56 56 56 56 113 56 225v281l-56 225-56 112-56 57-113 56h-112l-113-56-56-57-56-112-56-225v-281l56-225 56-113 56-56 113-56"/>
  </g>
  <g transform="translate(-44798,-17910)" fill-opacity="0" stroke-width="147.64">
   <path d="m56876 37362v-366l225 197v-84l28-57 28-28 57-28h140l56 28 29 28 28 57v168l-28 57-29 28m-168-619v-450m-338-590-28 56v84l28 85 56 56 57 28 112 28h85l112-28 56-28 57-56 28-85v-56l-28-84-29-28h-196v112m253-366h-591l591-337h-591m591-281h-591v-141l28-84 56-56 57-29 112-28h85l112 28 56 29 57 56 28 84v141m-3335 2474-28-28-28-56v-141l28-56 28-28 57-28h56l84 28 338 338v-366m-225-253v-450m-366-394v-112l28-56 56-57 113-28h197l112 28 57 57 28 56v112l-28 57-57 56-112 28h-197l-113-28-56-56-28-57m0-506h478l56-28 29-28 28-56v-113l-28-56-29-28-56-28h-478m0-197v-338m591 169h-591m-2209 2306v337m0-168h-591l84 56 57 56 28 56m197-590v-450m-366-197 591-197-591-197m534-534 29 28 28 85v56l-28 84-57 56-56 29-112 28h-85l-112-28-57-29-56-56-28-84v-56l28-85 28-28m478-590 29 28 28 84v56l-28 85-57 56-56 28-112 28h-85l-112-28-57-28-56-56-28-85v-56l28-84 28-28" fill="none"/>
  </g>
  <path d="m8902 4717v367m0 878v-367m0 367h851m-851-1245h575m3451 373h1047m-1047 0v2023h1047m0-2023v2023m0-3047v524m-523-524h523" fill="none" stroke-width="47.244"/>
 </g>
 <g transform="translate(-44798,-17910)" fill="none" fill-opacity="0" stroke="#000" stroke-linecap="round" stroke-linejoin="round" stroke-width="19.685">
  <path d="m59500 17900h-14700m14700 19700v-19700m-14700 19700h14700m-14700-19700v19700"/>
 </g>
 <g stroke="#000" stroke-width=".093">
  <path transform="matrix(-393.33,0,0,-393.44,9703.1,5939.8)" d="m0.67 0.025h1.21l0.095 0.095m-0.095-0.095-0.013 0.025m-1.185 0h1.185m-1.197-0.025 0.013 0.025m-0.108 0.07 0.095-0.095m1.305 0.095v1.205m0 0.4v1.205l-0.095 0.095h-1.21l-0.095-0.095v-0.255m0-2.3v-0.255m0 2.155v-1.5m1.4-0.655-0.025 0.013m-0.083-0.083 0.083 0.083m-0.083-0.083-0.033 0.067m-1.152-0.067 0.034 0.067m-0.116 0.016 0.083-0.083m-0.108 0.07 0.025 0.013m1.35 0v1.192m0.025 1.605-0.025-0.013m0-1.192v1.192m-0.07 0.108-0.012-0.025m0.082-0.083-0.083 0.083m-1.197 0.025 0.012-0.025m1.185 0h-1.185m-0.107-0.07 0.025-0.013m0.082 0.083-0.082-0.083v-0.242m0-2.3v-0.242m0 2.142v-1.5m1.35-0.642-0.067 0.033" fill="none"/>
  <path transform="matrix(-393.33,0,0,-393.44,9703.1,5939.8)" d="m1.883 0.166v2.718l-0.049 0.05h-1.118l-0.05-0.05v-2.718l0.05-0.05h1.118z" fill="#1a1a1a" fill-rule="evenodd"/>
  <path transform="matrix(-393.33,0,0,-393.44,9703.1,5939.8)" d="m0.6 0.133 0.067 0.033m1.283 1.159v0.4m0 1.192-0.067-0.033m-0.016 0.116-0.033-0.067m-1.152 0.067 0.034-0.067m-0.116-0.016 0.067-0.033m-0.067-0.209v-0.4m0-1.5v-0.4" fill="none"/>
  <path transform="matrix(-393.33,0,0,-393.44,9703.1,5939.8)" d="m2.525 1.325v0.4h-0.55v-0.4h0.35z" fill="#808080" fill-rule="evenodd"/>
  <path transform="matrix(-393.33,0,0,-393.44,9703.1,5939.8)" d="m2.225 1.325v0.4m0.1-0.4v0.4m-0.35-0.4h-0.025m0.025 0.4h-0.025m-1.375 0.95h0.025m-0.025-2.3h0.025m-0.025 1.9h0.025m-0.025-1.5h0.025" fill="none"/>
  <path transform="matrix(393.33 0 0 393.44 8690.3 4366)" d="m2.525 1.325v0.4h-0.55v-0.4h0.35z" fill="#808080" fill-rule="evenodd"/>
  <path transform="matrix(393.33 0 0 393.44 8690.3 4366)" d="m2.225 1.325v0.4m0.1-0.4v0.4" fill="none"/>
  <path transform="matrix(393.33 0 0 393.44 8690.3 5113.6)" d="m2.525 1.325v0.4h-0.55v-0.4h0.35z" fill="#808080" fill-rule="evenodd"/>
  <path transform="matrix(393.33 0 0 393.44 8690.3 5113.6)" d="m2.225 1.325v0.4m0.1-0.4v0.4" fill="none"/>
 </g>
 <g stroke="#000" stroke-width="36.614">
  <path d="m13952 7089.8v-3e3h-1e3v3e3z" fill="#1a1a1a" fill-rule="evenodd"/>
  <path d="m13688 4825.9v-472.44h-472.44v472.44z" fill="#666" fill-rule="evenodd"/>
  <path d="m13216 4353.4 117.72 117.72m-117.72 354.72 117.72-117.72m0-237.01v237.01m354.72-354.72-117.72 117.72h-237.01m354.72 354.72-117.72-117.72v-237.01m-237.01 237.01h237.01" fill="none"/>
  <path d="m13570 4707.8v-236.22h-236.22v236.22z" fill="#808000" fill-rule="evenodd"/>
  <path d="m13413 4491.2v-19.685m0 216.54v-196.85m0 216.54v-19.685m78.74 19.685v-19.685m-78.74 0h78.74v-216.54m-78.74 19.685h78.74" fill="none"/>
  <path d="m13688 5825.9v-472.44h-472.44v472.44z" fill="#666" fill-rule="evenodd"/>
  <path d="m13216 5353.4 117.72 117.72m-117.72 354.72 117.72-117.72m0-237.01v237.01m354.72-354.72-117.72 117.72h-237.01m354.72 354.72-117.72-117.72v-237.01m-237.01 237.01h237.01" fill="none"/>
  <path d="m13570 5707.8v-236.22h-236.22v236.22z" fill="#808000" fill-rule="evenodd"/>
  <path d="m13413 5491.2v-19.686m0 216.54v-196.85m0 216.54v-19.686m78.74 19.686v-19.686m-78.74 1e-3h78.74v-216.54m-78.74 19.686h78.74" fill="none"/>
  <path d="m13688 6825.9v-472.44h-472.44v472.44z" fill="#666" fill-rule="evenodd"/>
  <path d="m13216 6353.4 117.72 117.72m-117.72 354.72 117.72-117.72m0-237.01v237.01m354.72-354.72-117.72 117.72h-237.01m354.72 354.72-117.72-117.72v-237.01m-237.01 237.01h237.01" fill="none"/>
  <path d="m13570 6707.7v-236.22h-236.22v236.22z" fill="#808000" fill-rule="evenodd"/>
  <path d="m13413 6491.2v-19.685m0 216.54v-196.85m0 216.53v-19.685m78.74 19.685v-19.685m-78.74 0h78.74v-216.54m-78.74 19.685h78.74" fill="none"/>
 </g>
</svg>
