<svg width="484" height="242" version="1.1" viewBox="0 0 128.06 64.029" xmlns="http://www.w3.org/2000/svg">
 <rect x="-3.474" y="-11.332" width="109.25%" height="136.21%" fill="#f0f0f0"/>
 <path d="m14.937 0.739h109.41v62.781h-109.41z" fill="#313d63" stroke="#313d63" stroke-width="1.25"/>
 <g stroke="#000">
  <g stroke-width=".13913">
   <path d="m98.744 13.57h2.107l0.142 0.143m-0.142-0.142-0.018 0.037m-2.07 0h2.07m-2.089-0.037 0.019 0.037m-0.16 0.105 0.141-0.142m2.25 0.142v0.231m0 3.586v0.232m0-3.07v2.091m0 0.979-0.143 0.142h-2.107l-0.142-0.142v-0.232m0-3.586v-0.231m0 3.07v-0.672m0-0.747v-0.673m2.391-0.978-0.037 0.018m-0.124-0.123 0.124 0.123m-0.124-0.123-0.068 0.137m-2.001-0.137 0.068 0.137m-0.191-0.014 0.123-0.123m-0.16 0.105 0.037 0.018m2.316 0v0.213m0.037 3.818-0.037-0.019m0-0.213v0.213m0-3.052v2.092m-0.105 1.12-0.018-0.036m0.123-0.124-0.123 0.124m-2.089 0.037 0.019-0.037m2.07 0h-2.07m-0.16-0.105 0.037-0.019m0.123 0.124-0.123-0.124v-0.213m-0.112 0h0.074m0.038-3.586v-0.213m-0.112 3.052h0.074m0.038 0v-0.672m0-0.747v-0.673m2.316-0.96-0.137 0.069m-0.055-0.055 0.055 0.055m0 3.875-0.055 0.055" fill="none"/>
   <path d="m100.76 17.73h-1.933l-0.055-0.055v-3.875l0.055-0.055h1.933l0.055 0.055v3.875z" fill="#1a1a1a" fill-rule="evenodd"/>
   <path d="m98.832 17.73-0.055-0.055m0-3.875 0.055-0.055m-0.192-0.013 0.137 0.068m2.18 3.944-0.137-0.069m0.013 0.192-0.068-0.137m-2.002 0.137 0.069-0.137m-0.192 0.014 0.137-0.069m-0.137-0.144v-0.747" fill="none"/>
   <path d="m97.706 17.53v-0.748h0.822v0.747h-0.523z" fill="#808080" fill-rule="evenodd"/>
   <path d="m98.154 17.53v-0.748m-0.15 0.747v-0.747m0.598 0.747h0.038m-0.038-0.747h0.038m0-0.672v-0.747" fill="none"/>
   <path d="m97.706 16.11v-0.747h0.822v0.747h-0.523z" fill="#808080" fill-rule="evenodd"/>
   <path d="m98.154 16.11v-0.747m-0.15 0.747v-0.747m0.636-0.673v-0.747" fill="none"/>
   <path d="m97.706 14.69v-0.747h0.822v0.747h-0.523z" fill="#808080" fill-rule="evenodd"/>
   <path d="m98.154 14.69v-0.747m-0.15 0.747v-0.747m2.952 2.838v0.748" fill="none"/>
   <path d="m101.89 16.781v0.748h-0.822v-0.748h0.523z" fill="#808080" fill-rule="evenodd"/>
   <path d="m101.44 16.781v0.748m0.15-0.748v0.748m-0.636-3.586v0.747" fill="none"/>
   <path d="m101.89 13.943v0.747h-0.822v-0.747h0.523z" fill="#808080" fill-rule="evenodd"/>
   <path d="m101.44 13.943v0.747m0.15-0.747v0.747" fill="none"/>
   <path d="m80.111 13.784h2.107l0.142 0.142m-0.142-0.142-0.018 0.037m-2.07 0h2.07m-2.089-0.037 0.019 0.037m-0.16 0.105 0.141-0.142m2.25 0.142v0.231m0 3.586v0.232m0-3.07v2.091m0 0.979-0.143 0.142h-2.107l-0.142-0.142v-0.232m0-3.586v-0.231m0 3.07v-0.672m0-0.747v-0.673m2.391-0.978-0.037 0.018m-0.124-0.123 0.124 0.123m-0.124-0.123-0.068 0.137m-2.001-0.137 0.068 0.137m-0.191-0.014 0.123-0.123m-0.16 0.105 0.037 0.018m2.316 0v0.213m0.037 3.818-0.037-0.019m0-0.213v0.213m0-3.052v2.092m-0.105 1.12-0.018-0.036m0.123-0.124-0.123 0.124m-2.089 0.037 0.019-0.037m2.07 0h-2.07m-0.16-0.105 0.037-0.019m0.123 0.124-0.123-0.124v-0.213m-0.112 0h0.074m0.038-3.586v-0.213m-0.112 3.052h0.074m0.038 0v-0.672m0-0.747v-0.673m2.316-0.96-0.137 0.069m-0.055-0.055 0.055 0.055m0 3.875-0.055 0.055" fill="none"/>
   <path d="m82.131 17.943h-1.933l-0.055-0.055v-3.875l0.055-0.055h1.933l0.055 0.055v3.875z" fill="#1a1a1a" fill-rule="evenodd"/>
   <path d="m80.199 17.943-0.055-0.055m0-3.875 0.055-0.055m-0.192-0.013 0.137 0.068m2.18 3.944-0.137-0.069m0.013 0.192-0.068-0.137m-2.002 0.137 0.069-0.137m-0.192 0.014 0.137-0.069m-0.137-0.144v-0.747" fill="none"/>
   <path d="m79.073 17.742v-0.747h0.822v0.747h-0.523z" fill="#808080" fill-rule="evenodd"/>
   <path d="m79.521 17.742v-0.747m-0.15 0.747v-0.747m0.598 0.747h0.038m-0.038-0.747h0.038m0-0.672v-0.747" fill="none"/>
   <path d="m79.073 16.323v-0.747h0.822v0.747h-0.523z" fill="#808080" fill-rule="evenodd"/>
   <path d="m79.521 16.323v-0.747m-0.15 0.747v-0.747m0.636-0.673v-0.747" fill="none"/>
   <path d="m79.073 14.903v-0.747h0.822v0.747h-0.523z" fill="#808080" fill-rule="evenodd"/>
   <path d="m79.521 14.903v-0.747m-0.15 0.747v-0.747m2.952 2.838v0.748" fill="none"/>
   <path d="m83.257 16.994v0.748h-0.822v-0.748h0.523z" fill="#808080" fill-rule="evenodd"/>
   <path d="m82.809 16.994v0.748m0.15-0.748v0.748m-0.636-3.586v0.747" fill="none"/>
   <path d="m83.257 14.156v0.747h-0.822v-0.747h0.523z" fill="#808080" fill-rule="evenodd"/>
   <path d="m82.809 14.156v0.747m0.15-0.747v0.747" fill="none"/>
  </g>
  <g stroke-width=".13896">
   <path d="m86.644 37.91h-1.145v-2.638h1.145v1.771z" fill="#808080" fill-rule="evenodd"/>
   <path d="m77.779 35.295h0.847m8.018 0h0.847m-7.72 0h2.292m1.144 0h2.293m1.992 0v-5.23h-3.138m-3.436 0h-3.138v5.23l0.022-0.023m9.69 0.023-0.022-0.023m-0.825 0h0.825v-5.184h-3.116" fill="none"/>
   <path d="m79.77 37.91v-2.638h-1.145v2.638z" fill="#808080" fill-rule="evenodd"/>
   <path d="m79.77 35.272h2.293" fill="none"/>
   <path d="m83.207 36.744v1.166h-1.144v-2.638h1.144v1.472h-1.144" fill="#808080" fill-rule="evenodd"/>
   <path d="m83.207 35.272h2.293m1.992-5.207-0.022 0.023" fill="none"/>
   <path d="m84.353 30.088h-3.436v-2.638h3.436v2.615z" fill="#808080" fill-rule="evenodd"/>
   <path d="m77.779 30.065 0.022 0.023m3.116 0h-3.117v5.184h0.825m8.843 0-0.14-0.139m-9.528 0.14 0.14-0.14m1.83 1.611h-1.146m8.019 0h-1.145m1.97-6.656-0.14 0.139" fill="none"/>
   <path d="m87.33 35.132v-4.905h-9.39v4.906z" fill="#1a1a1a" fill-rule="evenodd"/>
   <path d="m77.801 30.088 0.14 0.139m2.976-1.611h3.436m-4.582 7.426h-1.146m1.146 1.001h-1.146m8.019-1.001h-1.145m1.145 1.001h-1.145m-2.292-1.001h-1.144m1.144 1.001h-1.144m-1.146-7.725h3.436m-3.436-1.001h3.436m-5.727 6.978v-0.023m8.018 0.023v-0.023m-6.873 0.023v-0.023m2.292 0.023v-0.023m1.144 0.023v-0.023m2.292 0.023v-0.023m-1.146-5.207v0.023m-3.436-0.023v0.023" fill="none"/>
  </g>
 </g>
 <path d="m0.601 11.794h71.032v42.072h-71.032z" fill="#1b234d" stroke="#1b234d" stroke-width=".383"/>
 <path d="m15.603 14.199h41.288v36.813h-41.288z" fill="#999" stroke="#999" stroke-width=".383"/>
 <path d="m13.033 49.981-11.498-6e-3v-4.945h6.565v-5.674h-6.893v-5.529h6.758v-5.633h-6.343v-5.34h11.658v0.183" fill="none" stroke="#ffc000" stroke-width=".965"/>
 <g stroke="#000">
  <g stroke-width=".139">
   <path d="m124.95 27.662v10.34h0.747v-10.34h-0.663z" fill="#666"/>
   <path d="m124.95 29.604v-2.54h-13v11.535h13v-2.54" fill="#808080" fill-rule="evenodd"/>
   <path d="m124.95 30.664h0.075m0.224 0h-0.224m0.224-0.448h-0.224m-0.075 0h0.075m-0.075 4.034h0.075m0.224 0h-0.224m-0.075-0.448h0.075m0.224 0h-0.224m-0.075-0.747h0.075m0.224 0h-0.224m-0.075-0.448h0.075m0.224 0h-0.224m-0.075-0.748h0.075m0.224 0h-0.224m-0.075-0.447h0.075m0.224 0h-0.224m-0.075 4.033h0.075m0.224 0h-0.224m-0.075-0.447h0.075m0.224 0h-0.224m0.523-7.486h-0.598m0.598 0v0.149m-0.598 10.489h0.598m0-0.149v0.149m-6.816-4.572h0.07m-0.655 0h0.1m-0.1-1.494h0.1m0.485 0h0.07m6.447-2.48v6.455m0.448-6.455h-0.747m0.747 6.455h-0.747" fill="none"/>
   <path d="m115.24 26.972v-1.313c0-0.124 0.1-0.224 0.224-0.224h0.224c0.124 0 0.224 0.1 0.224 0.224v0.15c0 0.123 0.1 0.224 0.225 0.224h0.597c0.124 0 0.224-0.1 0.224-0.224v-0.15c0-0.124 0.1-0.224 0.224-0.224h0.075c0.124 0 0.224 0.1 0.224 0.224v1.33l-2e-3 0.083-2.239-8e-3z" fill="#ccc" fill-rule="evenodd"/>
   <path d="m125.7 27.064v-1.405c0-0.123-0.1-0.224-0.224-0.224h-0.15c-0.123 0-0.224 0.1-0.224 0.224v0.15c0 0.124-0.1 0.224-0.224 0.224h-0.597a0.224 0.224 0 0 1-0.225-0.224v-0.15c0-0.123-0.1-0.224-0.224-0.224h-0.15c-0.123 0-0.223 0.1-0.223 0.224v0.807l9e-3 0.592-0.01-0.069 0.01 0.07 1.485 5e-3h0.745zm-1.42 12.566h0.598c0.124 0 0.224 0.1 0.224 0.224v0.15c0 0.123 0.1 0.224 0.224 0.224h0.15c0.124 0 0.224-0.1 0.224-0.224v-1.405h-0.747l-1.497-0.02 2e-3 0.095v1.33c0 0.123 0.1 0.224 0.225 0.224h0.149c0.124 0 0.224-0.1 0.224-0.225v-0.149c0-0.124 0.1-0.224 0.224-0.224z" fill="#b3b3b3" fill-rule="evenodd"/>
   <path d="m123.46 26.989v-0.523" fill="none"/>
   <path d="m117.48 40.004v-1.33l1e-3 -0.118-2.243 0.043v1.405c0 0.124 0.1 0.224 0.225 0.224h0.224c0.123 0 0.224-0.1 0.224-0.224v-0.15c0-0.123 0.1-0.223 0.224-0.223h0.598c0.123 0 0.224 0.1 0.224 0.224v0.15c0 0.123 0.1 0.223 0.224 0.223h0.075c0.123 0 0.224-0.1 0.224-0.224z" fill="#b3b3b3" fill-rule="evenodd"/>
   <path d="m117.18 40.228h0.075" fill="none"/>
   <path d="m114.37 35.79h-0.354v0.747h4.96c0.498 0 0.498 0.747 0 0.747h-5.156a0.374 0.374 0 0 1-0.373-0.373v-1.495c0-0.206 0.167-0.373 0.373-0.373h5.156c0.498 0 0.498 0.747 0 0.747zm-0.55-7.411a0.374 0.374 0 0 0-0.373 0.373v1.494c0 0.207 0.167 0.374 0.374 0.374h5.155c0.498 0 0.498-0.747 0-0.747h-4.96v-0.747h4.96c0.498 0 0.498-0.747 0-0.747zm9.04 2.585v-0.747c0-0.3 0.449-0.3 0.449 0v1.867a0.374 0.374 0 0 1-0.374 0.374h-1.045c-0.499 0-0.499 0.747 0 0.747h1.045c0.207 0 0.374 0.167 0.374 0.373v1.868c0 0.299-0.448 0.299-0.448 0v-0.746a0.374 0.374 0 0 0-0.374-0.374h-1.046a0.374 0.374 0 0 1-0.373-0.373v-2.243c0-0.207 0.167-0.374 0.373-0.374h1.046a0.374 0.374 0 0 0 0.374-0.373z" fill="#1a1a1a" fill-rule="evenodd"/>
   <path d="m125.02 30.217v0.448m0 3.138v0.448m0-1.643v0.447m0-1.643v0.448m0 3.138v0.448m-13.074 2.554h13m-13-10.34h13m-6.147 5.92v-1.495m-0.071 1.495v-1.495m-0.485 1.495v-1.495m-0.1 1.495v-1.495m-0.444 1.495v-1.495m7.695-5.02v0.448m0 10.64v0.448" fill="none"/>
   <path d="m115.24 39.197h2.241" fill="#b3b3b3" fill-rule="evenodd"/>
   <path d="m123.46 39.197h2.241" fill="none"/>
   <path d="m115.24 26.466h2.241" fill="#b3b3b3" fill-rule="evenodd"/>
   <path d="m123.46 26.466h2.241m-9.42 9.324v0.747m0.605-0.747v0.747m-0.873-0.747v0.747m-1.398-0.747v0.747m-0.243-0.747v0.747m0-7.411v0.747m0.243-0.747v0.747m1.398-0.747v0.747m0.268-0.747v0.747m0.605-0.747v0.747" fill="none"/>
   <path d="m113.67 31.337h6.724c0.206 0 0.373 0.167 0.373 0.374v2.24a0.374 0.374 0 0 1-0.373 0.374h-6.724c-0.498 0-0.498-0.747 0-0.747h5.555v-1.494h-5.555c-0.498 0-0.498-0.747 0-0.747z" fill="#1a1a1a" fill-rule="evenodd"/>
   <path d="m125.7 38.599h-0.752v-0.442l5e-3 -6e-3h0.747z" fill="#b3b3b3" opacity=".99"/>
   <path d="m125.7 27.064h-0.724l-0.014 4e-3v0.441l-0.01 3e-3h0.748z" fill="#b3b3b3"/>
  </g>
  <g stroke-width=".13913">
   <path d="m111.98 30.537h2.107l0.142 0.142m-0.142-0.142-0.018 0.037m-2.07 0h2.07m-2.089-0.037 0.019 0.037m-0.16 0.105 0.141-0.142m2.25 0.142v0.231m0 3.586v0.232m0-3.07v2.091m0 0.979-0.143 0.142h-2.107l-0.142-0.142v-0.232m0-3.586v-0.231m0 3.07v-0.672m0-0.747v-0.673m2.391-0.978-0.037 0.018m-0.124-0.123 0.124 0.123m-0.124-0.123-0.068 0.137m-2.001-0.137 0.068 0.137m-0.191-0.014 0.123-0.123m-0.16 0.105 0.037 0.018m2.316 0v0.213m0.037 3.818-0.037-0.019m0-0.213v0.213m0-3.052v2.092m-0.105 1.12-0.018-0.036m0.123-0.124-0.123 0.124m-2.089 0.037 0.019-0.037m2.07 0h-2.07m-0.16-0.105 0.037-0.019m0.123 0.124-0.123-0.124v-0.213m-0.112 0h0.074m0.038-3.586v-0.213m-0.112 3.052h0.074m0.038 0v-0.672m0-0.747v-0.673m2.316-0.96-0.137 0.069m-0.055-0.055 0.055 0.055m0 3.875-0.055 0.055" fill="none"/>
   <path d="m114 34.696h-1.933l-0.055-0.055v-3.875l0.055-0.055h1.933l0.055 0.055v3.875z" fill="#1a1a1a" fill-rule="evenodd"/>
   <path d="m112.06 34.696-0.055-0.055m0-3.875 0.055-0.055m-0.192-0.013 0.137 0.068m2.18 3.944-0.137-0.069m0.013 0.192-0.068-0.137m-2.002 0.137 0.069-0.137m-0.192 0.014 0.137-0.069m-0.137-0.144v-0.747" fill="none"/>
   <path d="m110.94 34.495v-0.747h0.822v0.747h-0.523z" fill="#808080" fill-rule="evenodd"/>
   <path d="m111.38 34.495v-0.747m-0.15 0.747v-0.747m0.598 0.747h0.038m-0.038-0.747h0.038m0-0.672v-0.747" fill="none"/>
   <path d="m110.94 33.076v-0.747h0.822v0.747h-0.523z" fill="#808080" fill-rule="evenodd"/>
   <path d="m111.38 33.076v-0.747m-0.15 0.747v-0.747m0.636-0.673v-0.747" fill="none"/>
   <path d="m110.94 31.656v-0.747h0.822v0.747h-0.523z" fill="#808080" fill-rule="evenodd"/>
   <path d="m111.38 31.656v-0.747m-0.15 0.747v-0.747m2.952 2.838v0.748" fill="none"/>
   <path d="m115.12 33.747v0.748h-0.821v-0.748h0.523z" fill="#808080" fill-rule="evenodd"/>
   <path d="m114.67 33.747v0.748m0.15-0.748v0.748m-0.636-3.586v0.747" fill="none"/>
   <path d="m115.12 30.909v0.747h-0.821v-0.747h0.523z" fill="#808080" fill-rule="evenodd"/>
   <path d="m114.67 30.909v0.747m0.15-0.747v0.747" fill="none"/>
  </g>
  <g stroke-width=".139">
   <path d="m71.493 59.592v3.796h37.953v-3.796z" fill="#1a1a1a" fill-rule="evenodd"/>
   <path d="m108.44 60.593h-1.793v1.793h1.793z" fill="#666" fill-rule="evenodd"/>
   <path d="m106.65 62.386 0.447-0.446m1.346 0.446-0.446-0.446m-0.9 0h0.9m-1.346-1.347 0.447 0.447v0.9m1.346-1.347-0.447 0.447h-0.9m0.9 0.9v-0.9" fill="none"/>
   <path d="m108 61.041h-0.897v0.897h0.897z" fill="#808000" fill-rule="evenodd"/>
   <path d="m107.17 61.64h-0.075m0.822 0h-0.747m0.822 0h-0.075m0.075-0.3h-0.075m0 0.3v-0.3h-0.822m0.075 0.3v-0.3" fill="none"/>
   <path d="m104.65 60.593h-1.793v1.793h1.793z" fill="#666" fill-rule="evenodd"/>
   <path d="m102.86 62.386 0.447-0.446m1.346 0.446-0.447-0.446m-0.9 0h0.9m-1.346-1.347 0.447 0.447v0.9m1.346-1.347-0.447 0.447h-0.9m0.9 0.9v-0.9" fill="none"/>
   <path d="m104.2 61.041h-0.897v0.897h0.897z" fill="#808000" fill-rule="evenodd"/>
   <path d="m103.38 61.64h-0.075m0.822 0h-0.747m0.822 0h-0.075m0.075-0.3h-0.075m0 0.3v-0.3h-0.822m0.075 0.3v-0.3" fill="none"/>
   <path d="m100.85 60.593h-1.793v1.793h1.793z" fill="#666" fill-rule="evenodd"/>
   <path d="m99.062 62.386 0.447-0.446m1.346 0.446-0.447-0.446m-0.9 0h0.9m-1.346-1.347 0.447 0.447v0.9m1.346-1.347-0.447 0.447h-0.9m0.9 0.9v-0.9" fill="none"/>
   <path d="m100.41 61.041h-0.897v0.897h0.897z" fill="#808000" fill-rule="evenodd"/>
   <path d="m99.582 61.64h-0.075m0.822 0h-0.747m0.822 0h-0.075m0.075-0.3h-0.075m0 0.3v-0.3h-0.822m0.075 0.3v-0.3" fill="none"/>
   <path d="m97.058 60.593h-1.793v1.793h1.793z" fill="#666" fill-rule="evenodd"/>
   <path d="m95.267 62.386 0.447-0.446m1.346 0.446-0.447-0.446m-0.9 0h0.9m-1.346-1.347 0.447 0.447v0.9m1.346-1.347-0.447 0.447h-0.9m0.9 0.9v-0.9" fill="none"/>
   <path d="m96.611 61.041h-0.897v0.897h0.897z" fill="#808000" fill-rule="evenodd"/>
   <path d="m95.787 61.64h-0.075m0.822 0h-0.747m0.822 0h-0.075m0.075-0.3h-0.075m0 0.3v-0.3h-0.822m0.075 0.3v-0.3" fill="none"/>
   <path d="m93.263 60.593h-1.793v1.793h1.793z" fill="#666" fill-rule="evenodd"/>
   <path d="m91.472 62.386 0.447-0.446m1.346 0.446-0.447-0.446m-0.9 0h0.9m-1.346-1.347 0.447 0.447v0.9m1.346-1.347-0.447 0.447h-0.9m0.9 0.9v-0.9" fill="none"/>
   <path d="m92.815 61.041h-0.897v0.897h0.897z" fill="#808000" fill-rule="evenodd"/>
   <path d="m91.992 61.64h-0.075m0.822 0h-0.747m0.822 0h-0.075m0.075-0.3h-0.075m0 0.3v-0.3h-0.822m0.075 0.3v-0.3" fill="none"/>
   <path d="m89.468 60.593h-1.793v1.793h1.793z" fill="#666" fill-rule="evenodd"/>
   <path d="m87.676 62.386 0.447-0.446m1.346 0.446-0.447-0.446m-0.9 0h0.9m-1.346-1.347 0.447 0.447v0.9m1.346-1.347-0.447 0.447h-0.9m0.9 0.9v-0.9" fill="none"/>
   <path d="m89.02 61.041h-0.897v0.897h0.897z" fill="#808000" fill-rule="evenodd"/>
   <path d="m88.196 61.64h-0.075m0.822 0h-0.747m0.822 0h-0.075m0.075-0.3h-0.075m0 0.3v-0.3h-0.822m0.075 0.3v-0.3" fill="none"/>
   <path d="m85.673 60.593h-1.793v1.793h1.793z" fill="#666" fill-rule="evenodd"/>
   <path d="m83.881 62.386 0.447-0.446m1.346 0.446-0.447-0.446m-0.9 0h0.9m-1.346-1.347 0.447 0.447v0.9m1.346-1.347-0.447 0.447h-0.9m0.9 0.9v-0.9" fill="none"/>
   <path d="m85.225 61.041h-0.897v0.897h0.897z" fill="#808000" fill-rule="evenodd"/>
   <path d="m84.401 61.64h-0.075m0.822 0h-0.747m0.822 0h-0.075m0.075-0.3h-0.075m0 0.3v-0.3h-0.822m0.075 0.3v-0.3" fill="none"/>
   <path d="m81.877 60.593h-1.793v1.793h1.793z" fill="#666" fill-rule="evenodd"/>
   <path d="m80.086 62.386 0.447-0.446m1.346 0.446-0.447-0.446m-0.9 0h0.9m-1.346-1.347 0.447 0.447v0.9m1.346-1.347-0.447 0.447h-0.9m0.9 0.9v-0.9" fill="none"/>
   <path d="m81.429 61.041h-0.897v0.897h0.897z" fill="#808000" fill-rule="evenodd"/>
   <path d="m80.606 61.64h-0.075m0.822 0h-0.747m0.822 0h-0.075m0.075-0.3h-0.075m0 0.3v-0.3h-0.822m0.075 0.3v-0.3" fill="none"/>
   <path d="m78.082 60.593h-1.793v1.793h1.793z" fill="#666" fill-rule="evenodd"/>
   <path d="m76.289 62.386 0.447-0.446m1.346 0.446-0.447-0.446m-0.9 0h0.9m-1.346-1.347 0.447 0.447v0.9m1.346-1.347-0.447 0.447h-0.9m0.9 0.9v-0.9" fill="none"/>
   <path d="m77.634 61.041h-0.897v0.897h0.897z" fill="#808000" fill-rule="evenodd"/>
   <path d="m76.812 61.64h-0.075m0.822 0h-0.747m0.822 0h-0.075m0.075-0.3h-0.075m0 0.3v-0.3h-0.822m0.075 0.3v-0.3" fill="none"/>
   <path d="m74.287 60.593h-1.793v1.793h1.793z" fill="#666" fill-rule="evenodd"/>
   <path d="m72.494 62.386 0.447-0.446m1.346 0.446-0.447-0.446m-0.9 0h0.9m-1.346-1.347 0.447 0.447v0.9m1.346-1.347-0.447 0.447h-0.9m0.9 0.9v-0.9" fill="none"/>
   <path d="m73.839 61.041h-0.897v0.897h0.897z" fill="#808000" fill-rule="evenodd"/>
   <path d="m73.017 61.64h-0.075m0.822 0h-0.747m0.822 0h-0.075m0.075-0.3h-0.075m0 0.3v-0.3h-0.822m0.075 0.3v-0.3" fill="none"/>
   <path d="m33.54 59.592v3.796h37.954v-3.796z" fill="#1a1a1a" fill-rule="evenodd"/>
   <path d="m70.492 60.593h-1.793v1.793h1.793z" fill="#666" fill-rule="evenodd"/>
   <path d="m68.7 62.386 0.447-0.446m1.347 0.446-0.447-0.446m-0.9 0h0.9m-1.347-1.347 0.446 0.447v0.9m1.347-1.347-0.447 0.447h-0.9m0.9 0.9v-0.9" fill="none"/>
   <path d="m70.044 61.041h-0.897v0.897h0.897z" fill="#808000" fill-rule="evenodd"/>
   <path d="m69.22 61.64h-0.074m0.822 0h-0.747m0.821 0h-0.074m0.074-0.3h-0.074m0 0.3v-0.3h-0.822m0.075 0.3v-0.3" fill="none"/>
   <path d="m66.697 60.593h-1.793v1.793h1.793z" fill="#666" fill-rule="evenodd"/>
   <path d="m64.906 62.386 0.446-0.446m1.347 0.446-0.447-0.446m-0.9 0h0.9m-1.346-1.347 0.446 0.447v0.9m1.347-1.347-0.447 0.447h-0.9m0.9 0.9v-0.9" fill="none"/>
   <path d="m66.249 61.041h-0.897v0.897h0.897z" fill="#808000" fill-rule="evenodd"/>
   <path d="m65.426 61.64h-0.075m0.822 0h-0.747m0.821 0h-0.074m0.074-0.3h-0.074m0 0.3v-0.3h-0.822m0.075 0.3v-0.3" fill="none"/>
   <path d="m62.902 60.593h-1.793v1.793h1.793z" fill="#666" fill-rule="evenodd"/>
   <path d="m61.11 62.386 0.446-0.446m1.347 0.446-0.447-0.446m-0.9 0h0.9m-1.346-1.347 0.446 0.447v0.9m1.347-1.347-0.447 0.447h-0.9m0.9 0.9v-0.9" fill="none"/>
   <path d="m62.454 61.041h-0.897v0.897h0.897z" fill="#808000" fill-rule="evenodd"/>
   <path d="m61.63 61.64h-0.075m0.822 0h-0.747m0.821 0h-0.074m0.074-0.3h-0.074m0 0.3v-0.3h-0.822m0.075 0.3v-0.3" fill="none"/>
   <path d="m59.106 60.593h-1.793v1.793h1.793z" fill="#666" fill-rule="evenodd"/>
   <path d="m57.315 62.386 0.446-0.446m1.347 0.446-0.447-0.446m-0.9 0h0.9m-1.346-1.347 0.446 0.447v0.9m1.347-1.347-0.447 0.447h-0.9m0.9 0.9v-0.9" fill="none"/>
   <path d="m58.659 61.041h-0.897v0.897h0.897z" fill="#808000" fill-rule="evenodd"/>
   <path d="m57.835 61.64h-0.075m0.822 0h-0.747m0.821 0h-0.074m0.074-0.3h-0.074m0 0.3v-0.3h-0.822m0.075 0.3v-0.3" fill="none"/>
   <path d="m55.31 60.593h-1.792v1.793h1.793z" fill="#666" fill-rule="evenodd"/>
   <path d="m53.52 62.386 0.446-0.446m1.347 0.446-0.447-0.446m-0.9 0h0.9m-1.346-1.347 0.446 0.447v0.9m1.347-1.347-0.447 0.447h-0.9m0.9 0.9v-0.9" fill="none"/>
   <path d="m54.863 61.041h-0.897v0.897h0.897z" fill="#808000" fill-rule="evenodd"/>
   <path d="m54.04 61.64h-0.075m0.822 0h-0.747m0.821 0h-0.074m0.074-0.3h-0.074m0 0.3v-0.3h-0.822m0.075 0.3v-0.3" fill="none"/>
   <path d="m51.516 60.593h-1.793v1.793h1.793z" fill="#666" fill-rule="evenodd"/>
   <path d="m49.724 62.386 0.446-0.446m1.347 0.446-0.447-0.446m-0.9 0h0.9m-1.346-1.347 0.446 0.447v0.9m1.347-1.347-0.447 0.447h-0.9m0.9 0.9v-0.9" fill="none"/>
   <path d="m51.068 61.041h-0.897v0.897h0.897z" fill="#808000" fill-rule="evenodd"/>
   <path d="m50.244 61.64h-0.075m0.822 0h-0.747m0.821 0h-0.074m0.074-0.3h-0.074m0 0.3v-0.3h-0.822m0.075 0.3v-0.3" fill="none"/>
   <path d="m47.72 60.593h-1.792v1.793h1.793z" fill="#666" fill-rule="evenodd"/>
   <path d="m45.929 62.386 0.446-0.446m1.347 0.446-0.447-0.446m-0.9 0h0.9m-1.346-1.347 0.446 0.447v0.9m1.347-1.347-0.447 0.447h-0.9m0.9 0.9v-0.9" fill="none"/>
   <path d="m47.273 61.041h-0.897v0.897h0.897z" fill="#808000" fill-rule="evenodd"/>
   <path d="m46.449 61.64h-0.075m0.822 0h-0.747m0.821 0h-0.074m0.074-0.3h-0.074m0 0.3v-0.3h-0.822m0.075 0.3v-0.3" fill="none"/>
   <path d="m43.925 60.593h-1.793v1.793h1.793z" fill="#666" fill-rule="evenodd"/>
   <path d="m42.134 62.386 0.446-0.446m1.347 0.446-0.447-0.446m-0.9 0h0.9m-1.346-1.347 0.446 0.447v0.9m1.347-1.347-0.447 0.447h-0.9m0.9 0.9v-0.9" fill="none"/>
   <path d="m43.477 61.041h-0.897v0.897h0.897z" fill="#808000" fill-rule="evenodd"/>
   <path d="m42.654 61.64h-0.075m0.822 0h-0.747m0.821 0h-0.074m0.074-0.3h-0.074m0 0.3v-0.3h-0.822m0.075 0.3v-0.3" fill="none"/>
   <path d="m40.13 60.593h-1.793v1.793h1.793z" fill="#666" fill-rule="evenodd"/>
   <path d="m38.337 62.386 0.446-0.446m1.347 0.446-0.447-0.446m-0.9 0h0.9m-1.346-1.347 0.446 0.447v0.9m1.347-1.347-0.447 0.447h-0.9m0.9 0.9v-0.9" fill="none"/>
   <path d="m39.682 61.041h-0.897v0.897h0.897z" fill="#808000" fill-rule="evenodd"/>
   <path d="m38.86 61.64h-0.075m0.822 0h-0.747m0.821 0h-0.074m0.074-0.3h-0.074m0 0.3v-0.3h-0.822m0.075 0.3v-0.3" fill="none"/>
   <path d="m36.335 60.593h-1.793v1.793h1.793z" fill="#666" fill-rule="evenodd"/>
   <path d="m34.542 62.386 0.446-0.446m1.347 0.446-0.447-0.446m-0.9 0h0.9m-1.346-1.347 0.446 0.447v0.9m1.347-1.347-0.447 0.447h-0.9m0.9 0.9v-0.9" fill="none"/>
   <path d="m35.887 61.041h-0.897v0.897h0.897z" fill="#808000" fill-rule="evenodd"/>
   <path d="m35.065 61.64h-0.075m0.822 0h-0.747m0.821 0h-0.074m0.074-0.3h-0.074m0 0.3v-0.3h-0.822m0.075 0.3v-0.3" fill="none"/>
   <path d="m71.421 1.918v3.795h37.953v-3.795z" fill="#1a1a1a" fill-rule="evenodd"/>
   <path d="m108.37 2.919h-1.793v1.793h1.793z" fill="#666" fill-rule="evenodd"/>
   <path d="m106.58 4.712 0.447-0.447m1.346 0.447-0.447-0.447m-0.9 0h0.9m-1.346-1.346 0.447 0.447v0.9m1.346-1.347-0.447 0.447h-0.9m0.9 0.9v-0.9" fill="none"/>
   <path d="m107.92 3.367h-0.897v0.897h0.897z" fill="#808000" fill-rule="evenodd"/>
   <path d="m107.1 3.965h-0.075m0.822 0h-0.747m0.822 0h-0.075m0.075-0.299h-0.075m0 0.299v-0.299h-0.822m0.075 0.299v-0.299" fill="none"/>
   <path d="m104.58 2.919h-1.793v1.793h1.793z" fill="#666" fill-rule="evenodd"/>
   <path d="m102.79 4.712 0.447-0.447m1.346 0.447-0.447-0.447m-0.9 0h0.9m-1.346-1.346 0.447 0.447v0.9m1.346-1.347-0.447 0.447h-0.9m0.9 0.9v-0.9" fill="none"/>
   <path d="m104.13 3.367h-0.897v0.897h0.897z" fill="#808000" fill-rule="evenodd"/>
   <path d="m103.31 3.965h-0.075m0.822 0h-0.747m0.822 0h-0.075m0.075-0.299h-0.075m0 0.299v-0.299h-0.822m0.075 0.299v-0.299" fill="none"/>
   <path d="m100.78 2.919h-1.793v1.793h1.793z" fill="#666" fill-rule="evenodd"/>
   <path d="m98.99 4.712 0.447-0.447m1.346 0.447-0.447-0.447m-0.9 0h0.9m-1.346-1.345 0.447 0.447v0.9m1.346-1.347-0.447 0.447h-0.9m0.9 0.9v-0.9" fill="none"/>
   <path d="m100.33 3.367h-0.897v0.897h0.897z" fill="#808000" fill-rule="evenodd"/>
   <path d="m99.51 3.965h-0.075m0.822 0h-0.747m0.822 0h-0.075m0.075-0.299h-0.075m0 0.299v-0.299h-0.822m0.075 0.299v-0.299" fill="none"/>
   <path d="m96.986 2.919h-1.793v1.793h1.793z" fill="#666" fill-rule="evenodd"/>
   <path d="m95.195 4.712 0.447-0.447m1.346 0.447-0.447-0.447m-0.9 0h0.9m-1.346-1.345 0.447 0.447v0.9m1.346-1.347-0.447 0.447h-0.9m0.9 0.9v-0.9" fill="none"/>
   <path d="m96.539 3.367h-0.897v0.897h0.897z" fill="#808000" fill-rule="evenodd"/>
   <path d="m95.715 3.965h-0.075m0.822 0h-0.747m0.822 0h-0.075m0.075-0.299h-0.075m0 0.299v-0.299h-0.822m0.075 0.299v-0.299" fill="none"/>
   <path d="m93.191 2.919h-1.793v1.793h1.793z" fill="#666" fill-rule="evenodd"/>
   <path d="m91.4 4.712 0.447-0.447m1.346 0.447-0.447-0.447m-0.9 0h0.9m-1.346-1.345 0.447 0.447v0.9m1.346-1.347-0.447 0.447h-0.9m0.9 0.9v-0.9" fill="none"/>
   <path d="m92.743 3.367h-0.897v0.897h0.897z" fill="#808000" fill-rule="evenodd"/>
   <path d="m91.92 3.965h-0.075m0.822 0h-0.747m0.822 0h-0.075m0.075-0.299h-0.075m0 0.299v-0.299h-0.822m0.075 0.299v-0.299" fill="none"/>
   <path d="m89.396 2.919h-1.793v1.793h1.793z" fill="#666" fill-rule="evenodd"/>
   <path d="m87.604 4.712 0.447-0.447m1.346 0.447-0.447-0.447m-0.9 0h0.9m-1.346-1.345 0.447 0.447v0.9m1.346-1.347-0.447 0.447h-0.9m0.9 0.9v-0.9" fill="none"/>
   <path d="m88.948 3.367h-0.897v0.897h0.897z" fill="#808000" fill-rule="evenodd"/>
   <path d="m88.124 3.965h-0.075m0.822 0h-0.747m0.822 0h-0.075m0.075-0.299h-0.075m0 0.299v-0.299h-0.822m0.075 0.299v-0.299" fill="none"/>
   <path d="m85.601 2.919h-1.793v1.793h1.793z" fill="#666" fill-rule="evenodd"/>
   <path d="m83.809 4.712 0.447-0.447m1.346 0.447-0.447-0.447m-0.9 0h0.9m-1.345-1.345 0.447 0.447v0.9m1.346-1.347-0.447 0.447h-0.9m0.9 0.9v-0.9" fill="none"/>
   <path d="m85.153 3.367h-0.897v0.897h0.897z" fill="#808000" fill-rule="evenodd"/>
   <path d="m84.329 3.965h-0.075m0.822 0h-0.747m0.822 0h-0.075m0.075-0.299h-0.075m0 0.299v-0.299h-0.822m0.075 0.299v-0.299" fill="none"/>
   <path d="m81.805 2.919h-1.793v1.793h1.793z" fill="#666" fill-rule="evenodd"/>
   <path d="m80.014 4.712 0.447-0.447m1.346 0.447-0.447-0.447m-0.9 0h0.9m-1.346-1.345 0.447 0.447v0.9m1.346-1.347-0.447 0.447h-0.9m0.9 0.9v-0.9" fill="none"/>
   <path d="m81.357 3.367h-0.897v0.897h0.897z" fill="#808000" fill-rule="evenodd"/>
   <path d="m80.534 3.965h-0.075m0.822 0h-0.747m0.822 0h-0.075m0.075-0.299h-0.075m0 0.299v-0.299h-0.822m0.075 0.299v-0.299" fill="none"/>
   <path d="m78.01 2.919h-1.793v1.793h1.793z" fill="#666" fill-rule="evenodd"/>
   <path d="m76.217 4.712 0.447-0.447m1.346 0.447-0.447-0.447m-0.9 0h0.9m-1.346-1.345 0.447 0.447v0.9m1.346-1.347-0.447 0.447h-0.9m0.9 0.9v-0.9" fill="none"/>
   <path d="m77.562 3.367h-0.897v0.897h0.897z" fill="#808000" fill-rule="evenodd"/>
   <path d="m76.74 3.965h-0.075m0.822 0h-0.747m0.822 0h-0.075m0.075-0.299h-0.075m0 0.299v-0.299h-0.822m0.075 0.299v-0.299" fill="none"/>
   <path d="m74.215 2.919h-1.793v1.793h1.793z" fill="#666" fill-rule="evenodd"/>
   <path d="m72.422 4.712 0.447-0.447m1.346 0.447-0.447-0.447m-0.9 0h0.9m-1.346-1.345 0.447 0.447v0.9m1.346-1.347-0.447 0.447h-0.9m0.9 0.9v-0.9" fill="none"/>
   <path d="m73.767 3.367h-0.897v0.897h0.897z" fill="#808000" fill-rule="evenodd"/>
   <path d="m72.945 3.965h-0.075m0.822 0h-0.747m0.822 0h-0.075m0.075-0.299h-0.075m0 0.299v-0.299h-0.822m0.075 0.299v-0.299" fill="none"/>
   <path d="m33.468 1.918v3.795h37.953v-3.795z" fill="#1a1a1a" fill-rule="evenodd"/>
   <path d="m70.419 2.919h-1.793v1.793h1.793z" fill="#666" fill-rule="evenodd"/>
   <path d="m68.628 4.712 0.447-0.447m1.346 0.447-0.447-0.447m-0.9 0h0.9m-1.346-1.345 0.447 0.447v0.9m1.346-1.347-0.447 0.447h-0.9m0.9 0.9v-0.9" fill="none"/>
   <path d="m69.971 3.367h-0.897v0.897h0.897z" fill="#808000" fill-rule="evenodd"/>
   <path d="m69.148 3.965h-0.075m0.822 0h-0.747m0.822 0h-0.075m0.075-0.299h-0.075m0 0.299v-0.299h-0.822m0.075 0.299v-0.299" fill="none"/>
   <path d="m66.624 2.919h-1.793v1.793h1.793z" fill="#666" fill-rule="evenodd"/>
   <path d="m64.833 4.712 0.447-0.447m1.346 0.447-0.447-0.447m-0.9 0h0.9m-1.346-1.345 0.447 0.447v0.9m1.346-1.347-0.447 0.447h-0.9m0.9 0.9v-0.9" fill="none"/>
   <path d="m66.176 3.367h-0.897v0.897h0.897z" fill="#808000" fill-rule="evenodd"/>
   <path d="m65.353 3.965h-0.075m0.822 0h-0.747m0.822 0h-0.075m0.075-0.299h-0.075m0 0.299v-0.299h-0.822m0.075 0.299v-0.299" fill="none"/>
   <path d="m62.829 2.919h-1.793v1.793h1.793z" fill="#666" fill-rule="evenodd"/>
   <path d="m61.037 4.712 0.447-0.447m1.346 0.447-0.447-0.447m-0.9 0h0.9m-1.346-1.345 0.447 0.447v0.9m1.346-1.347-0.447 0.447h-0.9m0.9 0.9v-0.9" fill="none"/>
   <path d="m62.381 3.367h-0.897v0.897h0.897z" fill="#808000" fill-rule="evenodd"/>
   <path d="m61.557 3.965h-0.075m0.822 0h-0.747m0.822 0h-0.075m0.075-0.299h-0.075m0 0.299v-0.299h-0.822m0.075 0.299v-0.299" fill="none"/>
   <path d="m59.033 2.919h-1.793v1.793h1.793z" fill="#666" fill-rule="evenodd"/>
   <path d="m57.242 4.712 0.447-0.447m1.346 0.447-0.447-0.447m-0.9 0h0.9m-1.346-1.345 0.447 0.447v0.9m1.346-1.347-0.447 0.447h-0.9m0.9 0.9v-0.9" fill="none"/>
   <path d="m58.586 3.367h-0.897v0.897h0.897z" fill="#808000" fill-rule="evenodd"/>
   <path d="m57.762 3.965h-0.075m0.822 0h-0.747m0.822 0h-0.075m0.075-0.299h-0.075m0 0.299v-0.299h-0.822m0.075 0.299v-0.299" fill="none"/>
   <path d="m55.238 2.919h-1.793v1.793h1.793z" fill="#666" fill-rule="evenodd"/>
   <path d="m53.447 4.712 0.447-0.447m1.346 0.447-0.447-0.447m-0.9 0h0.9m-1.346-1.345 0.447 0.447v0.9m1.346-1.347-0.447 0.447h-0.9m0.9 0.9v-0.9" fill="none"/>
   <path d="m54.79 3.367h-0.897v0.897h0.897z" fill="#808000" fill-rule="evenodd"/>
   <path d="m53.967 3.965h-0.075m0.822 0h-0.747m0.822 0h-0.075m0.075-0.299h-0.075m0 0.299v-0.299h-0.822m0.075 0.299v-0.299" fill="none"/>
   <path d="m51.443 2.919h-1.793v1.793h1.793z" fill="#666" fill-rule="evenodd"/>
   <path d="m49.651 4.712 0.447-0.447m1.346 0.447-0.447-0.447m-0.9 0h0.9m-1.346-1.345 0.447 0.447v0.9m1.346-1.347-0.447 0.447h-0.9m0.9 0.9v-0.9" fill="none"/>
   <path d="m50.995 3.367h-0.897v0.897h0.897z" fill="#808000" fill-rule="evenodd"/>
   <path d="m50.171 3.965h-0.075m0.822 0h-0.747m0.822 0h-0.075m0.075-0.299h-0.075m0 0.299v-0.299h-0.822m0.075 0.299v-0.299" fill="none"/>
   <path d="m47.648 2.919h-1.793v1.793h1.793z" fill="#666" fill-rule="evenodd"/>
   <path d="m45.856 4.712 0.447-0.447m1.346 0.447-0.447-0.447m-0.9 0h0.9m-1.346-1.345 0.447 0.447v0.9m1.346-1.347-0.447 0.447h-0.9m0.9 0.9v-0.9" fill="none"/>
   <path d="m47.2 3.367h-0.897v0.897h0.897z" fill="#808000" fill-rule="evenodd"/>
   <path d="m46.376 3.965h-0.075m0.822 0h-0.747m0.822 0h-0.075m0.075-0.299h-0.075m0 0.299v-0.299h-0.822m0.075 0.299v-0.299" fill="none"/>
   <path d="m43.852 2.919h-1.793v1.793h1.793z" fill="#666" fill-rule="evenodd"/>
   <path d="m42.061 4.712 0.447-0.447m1.346 0.447-0.447-0.447m-0.9 0h0.9m-1.346-1.345 0.447 0.447v0.9m1.346-1.347-0.447 0.447h-0.9m0.9 0.9v-0.9" fill="none"/>
   <path d="m43.404 3.367h-0.897v0.897h0.897z" fill="#808000" fill-rule="evenodd"/>
   <path d="m42.581 3.965h-0.075m0.822 0h-0.747m0.822 0h-0.075m0.075-0.299h-0.075m0 0.299v-0.299h-0.822m0.075 0.299v-0.299" fill="none"/>
   <path d="m40.057 2.919h-1.793v1.793h1.793z" fill="#666" fill-rule="evenodd"/>
   <path d="m38.264 4.712 0.447-0.447m1.346 0.447-0.447-0.447m-0.9 0h0.9m-1.346-1.345 0.447 0.447v0.9m1.346-1.347-0.447 0.447h-0.9m0.9 0.9v-0.9" fill="none"/>
   <path d="m39.609 3.367h-0.897v0.897h0.897z" fill="#808000" fill-rule="evenodd"/>
   <path d="m38.787 3.965h-0.075m0.822 0h-0.747m0.822 0h-0.075m0.075-0.299h-0.075m0 0.299v-0.299h-0.822m0.075 0.299v-0.299" fill="none"/>
   <path d="m36.262 2.919h-1.793v1.793h1.793z" fill="#666" fill-rule="evenodd"/>
   <path d="m34.469 4.712 0.447-0.447m1.346 0.447-0.447-0.447m-0.9 0h0.9m-1.345-1.345 0.447 0.447v0.9m1.346-1.347-0.447 0.447h-0.9m0.9 0.9v-0.9" fill="none"/>
   <path d="m35.814 3.367h-0.897v0.897h0.897z" fill="#808000" fill-rule="evenodd"/>
   <path d="m34.992 3.965h-0.075m0.822 0h-0.747m0.822 0h-0.075m0.075-0.299h-0.075m0 0.299v-0.299h-0.822m0.075 0.299v-0.299" fill="none"/>
  </g>
  <g transform="matrix(1.3917,0,0,1.3917,91.933,27.017)" stroke-width=".093">
   <path d="m7.45 1.165h-6.147l-0.138 0.138v6.574l0.138 0.138h6.574l0.138-0.138v-6.575l-0.138-0.137z" fill="#333"/>
   <path d="m7.792 7.836h-6.404l-0.044-0.044v-6.404l0.044-0.044h6.404l0.044 0.044v6.404z" fill="#1a1a1a" fill-rule="evenodd"/>
   <path d="m1.265 1.09h0.465m0.22 0h0.28m5.22 0h0.465m-0.965 0h0.28m-4.78 0h0.28m3.72 0h0.28m-3.78 0h0.28m2.72 0h0.28m-2.78 0h0.28m1.72 0h0.28m-1.78 0h0.28m0.72 0h0.28m-0.78 0h0.28m-3.64 0.175 0.175-0.175 0.037 0.075m6.576 0-0.065 0.13m-6.446 0h6.446m-6.511-0.13 0.065 0.13m0.583-0.13h0.28m0.22 0h0.28m0.22 0h0.28m0.22 0h0.28m0.22 0h0.28m0.22 0h0.28m0.22 0h0.28m0.22 0h0.28m0.22 0h0.28m0.22 0h0.28m0.22 0h0.28m0.685-0.075 0.175 0.175m-0.175-0.175-0.037 0.075m-6.788 0.1 0.075 0.037m-0.075 0.428v-0.465m6.925 0.037-0.13 0.065m-0.072-0.072 0.072 0.072m-6.518-0.072 0.02 0.049m6.426-0.049-0.02 0.049m-6.498 0.023 0.072-0.072m-0.202 7e-3 0.13 0.065m6.795-0.102v0.465m0 5.72v0.465m0-5.965v0.28m0 4.72v0.28m0-4.78v0.28m0 3.72v0.28m0-3.78v0.28m0 2.72v0.28m0-2.78v0.28m0 1.72v0.28m0-1.78v0.28m0 0.72v0.28m0-0.78v0.28m0 3.185-0.175 0.175h-0.465m-5.72 0h-0.465m5.965 0h-0.28m-4.72 0h-0.28m4.78 0h-0.28m-3.72 0h-0.28m3.78 0h-0.28m-2.72 0h-0.28m2.78 0h-0.28m-1.72 0h-0.28m1.78 0h-0.28m-0.72 0h-0.28m0.78 0h-0.28m-3.185 0-0.175-0.175v-0.465m0-0.22v-0.28m0-4.72v-0.28m0 4.78v-0.28m0-3.72v-0.28m0 3.78v-0.28m0-2.72v-0.28m0 2.78v-0.28m0-1.72v-0.28m0 1.78v-0.28m0-0.72v-0.28m0 0.78v-0.28m7-3.185-0.075 0.037m0 6.576-0.13-0.065m0-6.446v6.446m0.13-5.863v0.28m0 0.22v0.28m0 0.22v0.28m0 0.22v0.28m0 0.22v0.28m0 0.22v0.28m0 0.22v0.28m0 0.22v0.28m0 0.22v0.28m0 0.22v0.28m0 0.22v0.28m-0.13-5.863-0.049 0.02m-6.541-0.02 0.049 0.02m-0.049 6.426v-6.446m-0.13 6.511 0.13-0.065m-0.13-0.583v-0.28m0-0.22v-0.28m0-0.22v-0.28m0-0.22v-0.28m0-0.22v-0.28m0-0.22v-0.28m0-0.22v-0.28m0-0.22v-0.28m0-0.22v-0.28m0-0.22v-0.28m0-0.22v-0.28m6.925 5.965-0.075-0.037m-0.1 0.212-0.037-0.075m-6.613 0.075 0.037-0.075m5.928 0h-0.28m-4.72 0h-0.28m4.78 0h-0.28m-3.72 0h-0.28m3.78 0h-0.28m-2.72 0h-0.28m2.78 0h-0.28m-1.72 0h-0.28m1.78 0h-0.28m-0.72 0h-0.28m0.78 0h-0.28m-3.36-0.1 0.075-0.037m6.713 0.137-0.065-0.13m0.072-0.072-0.072 0.072m0.072-0.072-0.049-0.02m-6.541 0.02 0.049-0.02m0.023 0.092 0.02-0.049m-0.02 0.049-0.072-0.072m6.518 0.072-0.02-0.049m0.02 0.049h-6.446m-0.065 0.13 0.065-0.13m6.425-6.541 0.044 0.044m-6.492 0 0.044-0.044m0 6.492-0.044-0.044m6.492 0-0.044 0.044" fill="none"/>
   <circle transform="scale(1,-1)" cx="2.003" cy="-2.003" r=".25" fill="#333"/>
   <path d="m9.165 7.45h-1.075v-0.22h1.075z" fill="#808080" fill-rule="evenodd"/>
   <path d="m8.565 7.23v0.22m-0.2-0.22v0.22m0.3-0.22v0.22" fill="none"/>
   <path d="m9.165 6.95h-1.075v-0.22h1.075z" fill="#808080" fill-rule="evenodd"/>
   <path d="m8.565 6.73v0.22m-0.2-0.22v0.22m0.3-0.22v0.22" fill="none"/>
   <path d="m9.165 6.45h-1.075v-0.22h1.075z" fill="#808080" fill-rule="evenodd"/>
   <path d="m8.565 6.23v0.22m-0.2-0.22v0.22m0.3-0.22v0.22" fill="none"/>
   <path d="m9.165 5.95h-1.075v-0.22h1.075z" fill="#808080" fill-rule="evenodd"/>
   <path d="m8.565 5.73v0.22m-0.2-0.22v0.22m0.3-0.22v0.22" fill="none"/>
   <path d="m9.165 5.45h-1.075v-0.22h1.075z" fill="#808080" fill-rule="evenodd"/>
   <path d="m8.565 5.23v0.22m-0.2-0.22v0.22m0.3-0.22v0.22" fill="none"/>
   <path d="m9.165 4.95h-1.075v-0.22h1.075z" fill="#808080" fill-rule="evenodd"/>
   <path d="m8.565 4.73v0.22m-0.2-0.22v0.22m0.3-0.22v0.22" fill="none"/>
   <path d="m9.165 4.45h-1.075v-0.22h1.075z" fill="#808080" fill-rule="evenodd"/>
   <path d="m8.565 4.23v0.22m-0.2-0.22v0.22m0.3-0.22v0.22" fill="none"/>
   <path d="m9.165 3.95h-1.075v-0.22h1.075z" fill="#808080" fill-rule="evenodd"/>
   <path d="m8.565 3.73v0.22m-0.2-0.22v0.22m0.3-0.22v0.22" fill="none"/>
   <path d="m9.165 3.45h-1.075v-0.22h1.075z" fill="#808080" fill-rule="evenodd"/>
   <path d="m8.565 3.23v0.22m-0.2-0.22v0.22m0.3-0.22v0.22" fill="none"/>
   <path d="m9.165 2.95h-1.075v-0.22h1.075z" fill="#808080" fill-rule="evenodd"/>
   <path d="m8.565 2.73v0.22m-0.2-0.22v0.22m0.3-0.22v0.22" fill="none"/>
   <path d="m9.165 2.45h-1.075v-0.22h1.075z" fill="#808080" fill-rule="evenodd"/>
   <path d="m8.565 2.23v0.22m-0.2-0.22v0.22m0.3-0.22v0.22" fill="none"/>
   <path d="m9.165 1.95h-1.075v-0.22h1.075z" fill="#808080" fill-rule="evenodd"/>
   <path d="m8.565 1.73v0.22m-0.2-0.22v0.22m0.3-0.22v0.22" fill="none"/>
   <path d="m5.95 9.165h-0.22v-1.075h0.22v0.575z" fill="#808080" fill-rule="evenodd"/>
   <path d="m5.95 8.565h-0.22m0.22-0.2h-0.22m0.22 0.3h-0.22" fill="none"/>
   <path d="m6.45 9.165h-0.22v-1.075h0.22v0.575z" fill="#808080" fill-rule="evenodd"/>
   <path d="m6.45 8.565h-0.22m0.22-0.2h-0.22m0.22 0.3h-0.22" fill="none"/>
   <path d="m6.95 9.165h-0.22v-1.075h0.22v0.575z" fill="#808080" fill-rule="evenodd"/>
   <path d="m6.95 8.565h-0.22m0.22-0.2h-0.22m0.22 0.3h-0.22" fill="none"/>
   <path d="m7.45 9.165h-0.22v-1.075h0.22v0.575z" fill="#808080" fill-rule="evenodd"/>
   <path d="m7.45 8.565h-0.22m0.22-0.2h-0.22m0.22 0.3h-0.22" fill="none"/>
   <path d="m3.95 9.165h-0.22v-1.075h0.22v0.575z" fill="#808080" fill-rule="evenodd"/>
   <path d="m3.95 8.565h-0.22m0.22-0.2h-0.22m0.22 0.3h-0.22" fill="none"/>
   <path d="m4.45 9.165h-0.22v-1.075h0.22v0.575z" fill="#808080" fill-rule="evenodd"/>
   <path d="m4.45 8.565h-0.22m0.22-0.2h-0.22m0.22 0.3h-0.22" fill="none"/>
   <path d="m4.95 9.165h-0.22v-1.075h0.22v0.575z" fill="#808080" fill-rule="evenodd"/>
   <path d="m4.95 8.565h-0.22m0.22-0.2h-0.22m0.22 0.3h-0.22" fill="none"/>
   <path d="m5.45 9.165h-0.22v-1.075h0.22v0.575z" fill="#808080" fill-rule="evenodd"/>
   <path d="m5.45 8.565h-0.22m0.22-0.2h-0.22m0.22 0.3h-0.22" fill="none"/>
   <path d="m1.95 9.165h-0.22v-1.075h0.22v0.575z" fill="#808080" fill-rule="evenodd"/>
   <path d="m1.95 8.565h-0.22m0.22-0.2h-0.22m0.22 0.3h-0.22" fill="none"/>
   <path d="m2.45 9.165h-0.22v-1.075h0.22v0.575z" fill="#808080" fill-rule="evenodd"/>
   <path d="m2.45 8.565h-0.22m0.22-0.2h-0.22m0.22 0.3h-0.22" fill="none"/>
   <path d="m2.95 9.165h-0.22v-1.075h0.22v0.575z" fill="#808080" fill-rule="evenodd"/>
   <path d="m2.95 8.565h-0.22m0.22-0.2h-0.22m0.22 0.3h-0.22" fill="none"/>
   <path d="m3.45 9.165h-0.22v-1.075h0.22v0.575z" fill="#808080" fill-rule="evenodd"/>
   <path d="m3.45 8.565h-0.22m0.22-0.2h-0.22m0.22 0.3h-0.22" fill="none"/>
   <path d="m0.015 5.95v-0.22h1.075v0.22h-0.575z" fill="#808080" fill-rule="evenodd"/>
   <path d="m0.615 5.95v-0.22m0.2 0.22v-0.22m-0.3 0.22v-0.22" fill="none"/>
   <path d="m0.015 6.45v-0.22h1.075v0.22h-0.575z" fill="#808080" fill-rule="evenodd"/>
   <path d="m0.615 6.45v-0.22m0.2 0.22v-0.22m-0.3 0.22v-0.22" fill="none"/>
   <path d="m0.015 6.95v-0.22h1.075v0.22h-0.575z" fill="#808080" fill-rule="evenodd"/>
   <path d="m0.615 6.95v-0.22m0.2 0.22v-0.22m-0.3 0.22v-0.22" fill="none"/>
   <path d="m0.015 7.45v-0.22h1.075v0.22h-0.575z" fill="#808080" fill-rule="evenodd"/>
   <path d="m0.615 7.45v-0.22m0.2 0.22v-0.22m-0.3 0.22v-0.22" fill="none"/>
   <path d="m0.015 3.95v-0.22h1.075v0.22h-0.575z" fill="#808080" fill-rule="evenodd"/>
   <path d="m0.615 3.95v-0.22m0.2 0.22v-0.22m-0.3 0.22v-0.22" fill="none"/>
   <path d="m0.015 4.45v-0.22h1.075v0.22h-0.575z" fill="#808080" fill-rule="evenodd"/>
   <path d="m0.615 4.45v-0.22m0.2 0.22v-0.22m-0.3 0.22v-0.22" fill="none"/>
   <path d="m0.015 4.95v-0.22h1.075v0.22h-0.575z" fill="#808080" fill-rule="evenodd"/>
   <path d="m0.615 4.95v-0.22m0.2 0.22v-0.22m-0.3 0.22v-0.22" fill="none"/>
   <path d="m0.015 5.45v-0.22h1.075v0.22h-0.575z" fill="#808080" fill-rule="evenodd"/>
   <path d="m0.615 5.45v-0.22m0.2 0.22v-0.22m-0.3 0.22v-0.22" fill="none"/>
   <path d="m0.015 1.95v-0.22h1.075v0.22h-0.575z" fill="#808080" fill-rule="evenodd"/>
   <path d="m0.615 1.95v-0.22m0.2 0.22v-0.22m-0.3 0.22v-0.22" fill="none"/>
   <path d="m0.015 2.45v-0.22h1.075v0.22h-0.575z" fill="#808080" fill-rule="evenodd"/>
   <path d="m0.615 2.45v-0.22m0.2 0.22v-0.22m-0.3 0.22v-0.22" fill="none"/>
   <path d="m0.015 2.95v-0.22h1.075v0.22h-0.575z" fill="#808080" fill-rule="evenodd"/>
   <path d="m0.615 2.95v-0.22m0.2 0.22v-0.22m-0.3 0.22v-0.22" fill="none"/>
   <path d="m0.015 3.45v-0.22h1.075v0.22h-0.575z" fill="#808080" fill-rule="evenodd"/>
   <path d="m0.615 3.45v-0.22m0.2 0.22v-0.22m-0.3 0.22v-0.22" fill="none"/>
   <path d="m3.23 0.015h0.22v1.075h-0.22v-0.575z" fill="#808080" fill-rule="evenodd"/>
   <path d="m3.23 0.615h0.22m-0.22 0.2h0.22m-0.22-0.3h0.22" fill="none"/>
   <path d="m2.73 0.015h0.22v1.075h-0.22v-0.575z" fill="#808080" fill-rule="evenodd"/>
   <path d="m2.73 0.615h0.22m-0.22 0.2h0.22m-0.22-0.3h0.22" fill="none"/>
   <path d="m2.23 0.015h0.22v1.075h-0.22v-0.575z" fill="#808080" fill-rule="evenodd"/>
   <path d="m2.23 0.615h0.22m-0.22 0.2h0.22m-0.22-0.3h0.22" fill="none"/>
   <path d="m1.73 0.015h0.22v1.075h-0.22v-0.575z" fill="#808080" fill-rule="evenodd"/>
   <path d="m1.73 0.615h0.22m-0.22 0.2h0.22m-0.22-0.3h0.22" fill="none"/>
   <path d="m5.23 0.015h0.22v1.075h-0.22v-0.575z" fill="#808080" fill-rule="evenodd"/>
   <path d="m5.23 0.615h0.22m-0.22 0.2h0.22m-0.22-0.3h0.22" fill="none"/>
   <path d="m4.73 0.015h0.22v1.075h-0.22v-0.575z" fill="#808080" fill-rule="evenodd"/>
   <path d="m4.73 0.615h0.22m-0.22 0.2h0.22m-0.22-0.3h0.22" fill="none"/>
   <path d="m4.23 0.015h0.22v1.075h-0.22v-0.575z" fill="#808080" fill-rule="evenodd"/>
   <path d="m4.23 0.615h0.22m-0.22 0.2h0.22m-0.22-0.3h0.22" fill="none"/>
   <path d="m3.73 0.015h0.22v1.075h-0.22v-0.575z" fill="#808080" fill-rule="evenodd"/>
   <path d="m3.73 0.615h0.22m-0.22 0.2h0.22m-0.22-0.3h0.22" fill="none"/>
   <path d="m7.23 0.015h0.22v1.075h-0.22v-0.575z" fill="#808080" fill-rule="evenodd"/>
   <path d="m7.23 0.615h0.22m-0.22 0.2h0.22m-0.22-0.3h0.22" fill="none"/>
   <path d="m6.73 0.015h0.22v1.075h-0.22v-0.575z" fill="#808080" fill-rule="evenodd"/>
   <path d="m6.73 0.615h0.22m-0.22 0.2h0.22m-0.22-0.3h0.22" fill="none"/>
   <path d="m6.23 0.015h0.22v1.075h-0.22v-0.575z" fill="#808080" fill-rule="evenodd"/>
   <path d="m6.23 0.615h0.22m-0.22 0.2h0.22m-0.22-0.3h0.22" fill="none"/>
   <path d="m5.73 0.015h0.22v1.075h-0.22v-0.575z" fill="#808080" fill-rule="evenodd"/>
   <path d="m5.73 0.615h0.22m-0.22 0.2h0.22m-0.22-0.3h0.22" fill="none"/>
  </g>
 </g>
 <g transform="scale(.26458)" fill="#fff" style="shape-inside:url(#rect23815);white-space:pre" aria-label="PICSimLab">
  <path d="m290.22 192.24h6.656q2.969 0 4.552 1.323 1.594 1.312 1.594 3.75 0 2.448-1.594 3.77-1.583 1.313-4.552 1.313h-2.646v5.396h-4.01zm4.01 2.906v4.344h2.22q1.166 0 1.801-0.563 0.636-0.573 0.636-1.614 0-1.042-0.636-1.604-0.635-0.563-1.802-0.563zm11.63-2.906h4.01v15.552h-4.01zm20.27 14.7q-1.104 0.573-2.302 0.865-1.198 0.291-2.5 0.291-3.885 0-6.156-2.166-2.271-2.178-2.271-5.896 0-3.73 2.27-5.896 2.271-2.177 6.157-2.177 1.302 0 2.5 0.292 1.198 0.291 2.302 0.864v3.219q-1.115-0.76-2.198-1.115-1.083-0.354-2.281-0.354-2.146 0-3.375 1.375-1.23 1.375-1.23 3.792 0 2.406 1.23 3.78 1.23 1.376 3.375 1.376 1.198 0 2.281-0.354t2.198-1.115zm14.54-14.21v3.292q-1.281-0.573-2.5-0.865t-2.302-0.292q-1.438 0-2.125 0.396-0.688 0.396-0.688 1.23 0 0.624 0.459 0.979 0.468 0.343 1.687 0.593l1.709 0.344q2.593 0.521 3.687 1.583t1.094 3.021q0 2.573-1.531 3.834-1.521 1.25-4.657 1.25-1.479 0-2.968-0.282t-2.98-0.833v-3.385q1.49 0.791 2.875 1.197 1.396 0.396 2.688 0.396 1.312 0 2.01-0.437 0.698-0.438 0.698-1.25 0-0.73-0.479-1.125-0.469-0.396-1.885-0.709l-1.552-0.343q-2.334-0.5-3.417-1.594-1.073-1.094-1.073-2.948 0-2.323 1.5-3.573t4.312-1.25q1.282 0 2.636 0.198 1.354 0.188 2.802 0.573zm4.37 3.4h3.73v11.667h-3.73zm0-4.542h3.73v3.042h-3.73zm18.13 6.472q0.708-1.083 1.677-1.646 0.98-0.573 2.146-0.573 2.01 0 3.062 1.24t1.053 3.604v7.104h-3.75v-6.083q0.01-0.135 0.01-0.281 0.01-0.146 0.01-0.417 0-1.24-0.364-1.792-0.365-0.562-1.177-0.562-1.063 0-1.646 0.875-0.573 0.875-0.594 2.531v5.73h-3.75v-6.084q0-1.938-0.333-2.49-0.334-0.562-1.188-0.562-1.073 0-1.656 0.885-0.583 0.875-0.583 2.51v5.74h-3.75v-11.667h3.75v1.709q0.687-0.99 1.573-1.49 0.895-0.5 1.968-0.5 1.209 0 2.136 0.583 0.927 0.584 1.406 1.636zm11.58-5.82h4.01v12.521h7.042v3.031h-11.052zm18.66 10.3q-1.167 0-1.76 0.396-0.584 0.396-0.584 1.167 0 0.708 0.469 1.114 0.48 0.396 1.323 0.396 1.052 0 1.77-0.75 0.72-0.76 0.72-1.896v-0.427zm5.698-1.406v6.656h-3.76v-1.73q-0.75 1.063-1.688 1.553-0.938 0.48-2.281 0.48-1.813 0-2.948-1.053-1.125-1.063-1.125-2.75 0-2.052 1.406-3.01 1.417-0.959 4.438-0.959h2.198v-0.291q0-0.886-0.698-1.292-0.698-0.417-2.178-0.417-1.197 0-2.229 0.24-1.03 0.24-1.916 0.719v-2.844q1.197-0.292 2.406-0.438 1.208-0.156 2.416-0.156 3.157 0 4.553 1.25 1.406 1.24 1.406 4.042zm9.672 4.256q1.198 0 1.823-0.875 0.635-0.875 0.635-2.542 0-1.666-0.635-2.541-0.625-0.875-1.823-0.875t-1.844 0.885q-0.635 0.875-0.635 2.531t0.635 2.542q0.646 0.875 1.844 0.875zm-2.48-7.552q0.772-1.02 1.71-1.5 0.937-0.49 2.155-0.49 2.156 0 3.542 1.72 1.385 1.707 1.385 4.405t-1.385 4.417q-1.385 1.708-3.542 1.708-1.218 0-2.156-0.479-0.937-0.49-1.708-1.51v1.687h-3.73v-16.208h3.73z"/>
 </g>
 <g transform="matrix(.26458 0 0 .26458 8.104 7.884)" style="shape-inside:url(#rect33801);white-space:pre" aria-label="ESP32 WROOM">
  <path d="m51.417 89.147h6.764v1.895h-4.257v1.81h4.003v1.894h-4.003v2.226h4.4v1.895h-6.907zm15.873 0.306v2.057q-0.8-0.358-1.563-0.54t-1.438-0.182q-0.899 0-1.328 0.247-0.43 0.247-0.43 0.768 0 0.39 0.286 0.612 0.293 0.215 1.055 0.371l1.068 0.215q1.62 0.326 2.304 0.99t0.684 1.888q0 1.608-0.957 2.396-0.95 0.78-2.91 0.78-0.925 0-1.856-0.175-0.93-0.176-1.862-0.52v-2.117q0.931 0.495 1.797 0.749 0.873 0.247 1.68 0.247 0.82 0 1.257-0.273t0.436-0.781q0-0.456-0.3-0.703-0.293-0.248-1.178-0.443l-0.97-0.215q-1.459-0.312-2.136-0.996-0.67-0.684-0.67-1.842 0-1.452 0.937-2.234 0.938-0.78 2.696-0.78 0.8 0 1.647 0.123 0.846 0.117 1.751 0.358zm2.838-0.306h4.16q1.856 0 2.845 0.827 0.996 0.82 0.996 2.344 0 1.53-0.996 2.356-0.99 0.82-2.845 0.82h-1.653v3.373h-2.507zm2.506 1.816v2.715h1.387q0.73 0 1.127-0.351 0.397-0.358 0.397-1.01t-0.397-1.002q-0.398-0.352-1.127-0.352zm12.253 2.663q0.983 0.254 1.49 0.885 0.515 0.625 0.515 1.595 0 1.446-1.107 2.2-1.106 0.75-3.229 0.75-0.748 0-1.504-0.124-0.748-0.117-1.484-0.358v-1.934q0.703 0.352 1.393 0.534 0.697 0.176 1.367 0.176 0.996 0 1.524-0.345 0.534-0.345 0.534-0.99 0-0.664-0.547-1.002-0.54-0.345-1.602-0.345h-1.003v-1.615h1.055q0.944 0 1.406-0.293 0.463-0.3 0.463-0.905 0-0.56-0.45-0.866-0.449-0.306-1.27-0.306-0.605 0-1.223 0.137t-1.23 0.404v-1.836q0.742-0.209 1.47-0.313 0.73-0.104 1.433-0.104 1.895 0 2.832 0.625 0.944 0.618 0.944 1.869 0 0.852-0.45 1.4-0.448 0.54-1.327 0.76zm6.908 3.399h4.277v1.842h-7.064v-1.842l3.549-3.131q0.475-0.43 0.703-0.84t0.228-0.853q0-0.684-0.463-1.1-0.455-0.417-1.217-0.417-0.586 0-1.282 0.254-0.697 0.247-1.491 0.742v-2.135q0.846-0.28 1.673-0.424 0.827-0.15 1.62-0.15 1.746 0 2.71 0.769 0.97 0.768 0.97 2.142 0 0.794-0.41 1.484-0.411 0.684-1.726 1.836zm10.475-7.878h2.402l1.68 7.064 1.667-7.064h2.415l1.667 7.064 1.68-7.064h2.382l-2.291 9.72h-2.891l-1.764-7.39-1.745 7.39h-2.89zm19.1 4.31q0.788 0 1.126-0.293 0.345-0.293 0.345-0.964 0-0.664-0.345-0.95-0.338-0.286-1.126-0.286h-1.055v2.493zm-1.055 1.732v3.678h-2.506v-9.72h3.828q1.92 0 2.812 0.645 0.899 0.644 0.899 2.038 0 0.963-0.469 1.582-0.462 0.618-1.4 0.911 0.515 0.117 0.918 0.534 0.41 0.41 0.827 1.25l1.36 2.76h-2.668l-1.185-2.415q-0.358-0.73-0.73-0.996-0.364-0.267-0.976-0.267zm12.195-4.401q-1.146 0-1.777 0.846t-0.632 2.383q0 1.53 0.632 2.376t1.777 0.847q1.152 0 1.784-0.847t0.631-2.376q0-1.536-0.631-2.383t-1.784-0.846zm0-1.816q2.344 0 3.672 1.34 1.328 1.342 1.328 3.705 0 2.357-1.328 3.698t-3.672 1.341q-2.337 0-3.672-1.341-1.328-1.341-1.328-3.698 0-2.363 1.328-3.704 1.335-1.341 3.672-1.341zm11.34 1.816q-1.146 0-1.777 0.846t-0.632 2.383q0 1.53 0.632 2.376t1.777 0.847q1.152 0 1.784-0.847t0.631-2.376q0-1.536-0.631-2.383t-1.784-0.846zm0-1.816q2.344 0 3.672 1.34 1.328 1.342 1.328 3.705 0 2.357-1.328 3.698t-3.672 1.341q-2.337 0-3.672-1.341-1.328-1.341-1.328-3.698 0-2.363 1.328-3.704 1.335-1.341 3.672-1.341zm6.89 0.175h3.19l2.214 5.202 2.226-5.202h3.184v9.72h-2.37v-7.11l-2.24 5.243h-1.588l-2.24-5.241v7.109h-2.376z"/>
 </g>
</svg>
