<svg width="280" height="124" viewBox="0 0 22419 9919" xmlns="http://www.w3.org/2000/svg"><g clip-path="url(#a)" mask="url(#b)" transform="translate(-39891 -35891)"><defs><clipPath id="a"><path d="M62300 35900H39900v9900h22400v-9900" fill-rule="evenodd"/></clipPath></defs><g fill="#313d63" stroke="#313d63"><path d="M62300 35900H39900v9900h22400v-9900" fill-rule="evenodd"/><g fill-opacity="0" stroke-linecap="round" stroke-linejoin="round" stroke-width="19.685" fill="none" stroke="#000"><path d="M62300 45800v-100M39900 35900v9900M62300 45700v-9800M62300 45800H39900M39900 35900h22400"/></g></g><g stroke-linecap="round" stroke-linejoin="round" stroke-width="0" stroke="none" fill="#9c6b28"><circle cx="59211" cy="40045" r="300"/><circle cx="55204" cy="40026" r="300"/><circle cx="58243" cy="37384" r="300"/><circle cx="57263" cy="37392" r="300"/><path d="M55943 37680v-600h600v600z" fill-rule="evenodd"/><circle cx="54365" cy="40035" r="300"/><circle cx="50357" cy="40016" r="300"/><circle cx="53396" cy="37374" r="300"/><circle cx="52416" cy="37382" r="300"/><path d="M51096 37670v-600h600v600z" fill-rule="evenodd"/><g><circle cx="49365" cy="40035" r="300"/><circle cx="45357" cy="40016" r="300"/><circle cx="48396" cy="37374" r="300"/><circle cx="47416" cy="37382" r="300"/></g><path d="M46096 37670v-600h600v600z" fill-rule="evenodd"/><g><circle cx="44365" cy="40035" r="300"/><circle cx="40357" cy="40016" r="300"/><circle cx="43396" cy="37374" r="300"/><circle cx="42416" cy="37382" r="300"/></g><path d="M41096 37670v-600h600v600z" fill-rule="evenodd"/><g><circle cx="60900" cy="43700" r="334.65"/><circle cx="60900" cy="42700" r="334.65"/><circle cx="60900" cy="41700" r="334.65"/><circle cx="60900" cy="40700" r="334.65"/><circle cx="60900" cy="39700" r="334.65"/><path d="M60565 39035v-669.2h669.2v669.2z" fill-rule="evenodd"/></g></g><g fill="#212d53" stroke="none" stroke-linecap="round" stroke-linejoin="round" stroke-width="0"><circle cx="59211" cy="40045" r="300"/><circle cx="55204" cy="40026" r="300"/><circle cx="58243" cy="37384" r="300"/><circle cx="57263" cy="37392" r="300"/><path d="M55943 37680v-600h600v600z" fill-rule="evenodd"/><circle cx="54365" cy="40035" r="300"/><circle cx="50357" cy="40016" r="300"/><circle cx="53396" cy="37374" r="300"/><circle cx="52416" cy="37382" r="300"/><path d="M51096 37670v-600h600v600z" fill-rule="evenodd"/><circle cx="49365" cy="40035" r="300"/><circle cx="45357" cy="40016" r="300"/><circle cx="48396" cy="37374" r="300"/><circle cx="47416" cy="37382" r="300"/><path d="M46096 37670v-600h600v600z" fill-rule="evenodd"/><circle cx="44365" cy="40035" r="300"/><circle cx="40357" cy="40016" r="300"/><circle cx="43396" cy="37374" r="300"/><circle cx="42416" cy="37382" r="300"/><path d="M41096 37670v-600h600v600z" fill-rule="evenodd"/><circle cx="60900" cy="43700" r="334.65"/><circle cx="60900" cy="42700" r="334.65"/><circle cx="60900" cy="41700" r="334.65"/><circle cx="60900" cy="40700" r="334.65"/><circle cx="60900" cy="39700" r="334.65"/><path d="M60565 39035v-669.2h669.2v669.2z" fill-rule="evenodd"/><circle cx="59211" cy="40045" r="68.898"/><circle cx="55204" cy="40026" r="68.898"/><circle cx="58243" cy="37384" r="68.898"/><circle cx="57263" cy="37392" r="68.898"/><circle cx="56243" cy="37380" r="68.898"/><circle cx="54365" cy="40035" r="68.898"/><circle cx="50357" cy="40016" r="68.898"/><circle cx="53396" cy="37374" r="68.898"/><circle cx="52416" cy="37382" r="68.898"/><circle cx="51396" cy="37370" r="68.898"/><circle cx="49365" cy="40035" r="68.898"/><circle cx="45357" cy="40016" r="68.898"/><circle cx="48396" cy="37374" r="68.898"/><circle cx="47416" cy="37382" r="68.898"/><circle cx="46396" cy="37370" r="68.898"/><circle cx="44365" cy="40035" r="68.898"/><circle cx="40357" cy="40016" r="68.898"/><circle cx="43396" cy="37374" r="68.898"/><circle cx="42416" cy="37382" r="68.898"/><circle cx="41396" cy="37370" r="68.898"/><circle cx="60900" cy="43700" r="68.898"/><circle cx="60900" cy="42700" r="68.898"/><circle cx="60900" cy="41700" r="68.898"/><circle cx="60900" cy="40700" r="68.898"/><circle cx="60900" cy="39700" r="68.898"/><circle cx="60900" cy="38700" r="68.898"/></g><g fill="#b5ae30" mask="url(#c)" stroke="none" stroke-linecap="round" stroke-linejoin="round" stroke-width="0"><circle cx="59211" cy="40045" r="300"/><circle cx="55204" cy="40026" r="300"/><circle cx="58243" cy="37384" r="300"/><circle cx="57263" cy="37392" r="300"/><path d="M55943 37680v-600h600v600z" fill-rule="evenodd"/><circle cx="54365" cy="40035" r="300"/><circle cx="50357" cy="40016" r="300"/><circle cx="53396" cy="37374" r="300"/><circle cx="52416" cy="37382" r="300"/><path d="M51096 37670v-600h600v600z" fill-rule="evenodd"/><circle cx="49365" cy="40035" r="300"/><circle cx="45357" cy="40016" r="300"/><circle cx="48396" cy="37374" r="300"/><circle cx="47416" cy="37382" r="300"/><path d="M46096 37670v-600h600v600z" fill-rule="evenodd"/><circle cx="44365" cy="40035" r="300"/><circle cx="40357" cy="40016" r="300"/><circle cx="43396" cy="37374" r="300"/><circle cx="42416" cy="37382" r="300"/><path d="M41096 37670v-600h600v600z" fill-rule="evenodd"/><circle cx="60900" cy="43700" r="334.65"/><circle cx="60900" cy="42700" r="334.65"/><circle cx="60900" cy="41700" r="334.65"/><circle cx="60900" cy="40700" r="334.65"/><circle cx="60900" cy="39700" r="334.65"/><path d="M60565 39035v-669.2h669.2v669.2z" fill-rule="evenodd"/><circle cx="59211" cy="40045" r="68.898"/><circle cx="55204" cy="40026" r="68.898"/><circle cx="58243" cy="37384" r="68.898"/><circle cx="57263" cy="37392" r="68.898"/><circle cx="56243" cy="37380" r="68.898"/><circle cx="54365" cy="40035" r="68.898"/><circle cx="50357" cy="40016" r="68.898"/><circle cx="53396" cy="37374" r="68.898"/><circle cx="52416" cy="37382" r="68.898"/><circle cx="51396" cy="37370" r="68.898"/><circle cx="49365" cy="40035" r="68.898"/><circle cx="45357" cy="40016" r="68.898"/><circle cx="48396" cy="37374" r="68.898"/><circle cx="47416" cy="37382" r="68.898"/><circle cx="46396" cy="37370" r="68.898"/><circle cx="44365" cy="40035" r="68.898"/><circle cx="40357" cy="40016" r="68.898"/><circle cx="43396" cy="37374" r="68.898"/><circle cx="42416" cy="37382" r="68.898"/><circle cx="41396" cy="37370" r="68.898"/><circle cx="60900" cy="43700" r="68.898"/><circle cx="60900" cy="42700" r="68.898"/><circle cx="60900" cy="41700" r="68.898"/><circle cx="60900" cy="40700" r="68.898"/><circle cx="60900" cy="39700" r="68.898"/><circle cx="60900" cy="38700" r="68.898"/></g><defs><mask id="c"><g stroke="#fff" stroke-linecap="round" stroke-linejoin="round" fill="#fff" stroke-width="0"><circle cx="59211" cy="40045" r="300"/><circle cx="55204" cy="40026" r="300"/><circle cx="58243" cy="37384" r="300"/><circle cx="57263" cy="37392" r="300"/><path d="M55943 37680v-600h600v600z" fill-rule="evenodd"/><circle cx="54365" cy="40035" r="300"/><circle cx="50357" cy="40016" r="300"/><circle cx="53396" cy="37374" r="300"/><circle cx="52416" cy="37382" r="300"/><g><path d="M51096 37670v-600h600v600z" fill-rule="evenodd"/></g><g><circle cx="49365" cy="40035" r="300"/><circle cx="45357" cy="40016" r="300"/><circle cx="48396" cy="37374" r="300"/><circle cx="47416" cy="37382" r="300"/></g><g><path d="M46096 37670v-600h600v600z" fill-rule="evenodd"/></g><g><circle cx="44365" cy="40035" r="300"/><circle cx="40357" cy="40016" r="300"/><circle cx="43396" cy="37374" r="300"/><circle cx="42416" cy="37382" r="300"/></g><g><path d="M41096 37670v-600h600v600z" fill-rule="evenodd"/></g><g><circle cx="60900" cy="43700" r="334.65"/><circle cx="60900" cy="42700" r="334.65"/><circle cx="60900" cy="41700" r="334.65"/><circle cx="60900" cy="40700" r="334.65"/><circle cx="60900" cy="39700" r="334.65"/><path d="M60565 39035v-669.2h669.2v669.2z" fill-rule="evenodd"/></g></g></mask></defs><defs><mask id="d"><g stroke="#000" stroke-linecap="round" stroke-linejoin="round" stroke-width="0"><circle cx="59211" cy="40045" r="300"/><circle cx="55204" cy="40026" r="300"/><circle cx="58243" cy="37384" r="300"/><circle cx="57263" cy="37392" r="300"/><path d="M55943 37680v-600h600v600z" fill-rule="evenodd"/><circle cx="54365" cy="40035" r="300"/><circle cx="50357" cy="40016" r="300"/><circle cx="53396" cy="37374" r="300"/><circle cx="52416" cy="37382" r="300"/><g><path d="M51096 37670v-600h600v600z" fill-rule="evenodd"/></g><g><circle cx="49365" cy="40035" r="300"/><circle cx="45357" cy="40016" r="300"/><circle cx="48396" cy="37374" r="300"/><circle cx="47416" cy="37382" r="300"/></g><g><path d="M46096 37670v-600h600v600z" fill-rule="evenodd"/></g><g><circle cx="44365" cy="40035" r="300"/><circle cx="40357" cy="40016" r="300"/><circle cx="43396" cy="37374" r="300"/><circle cx="42416" cy="37382" r="300"/></g><g><path d="M41096 37670v-600h600v600z" fill-rule="evenodd"/></g><g><circle cx="60900" cy="43700" r="334.65"/><circle cx="60900" cy="42700" r="334.65"/><circle cx="60900" cy="41700" r="334.65"/><circle cx="60900" cy="40700" r="334.65"/><circle cx="60900" cy="39700" r="334.65"/><path d="M60565 39035v-669.2h669.2v669.2z" fill-rule="evenodd"/></g></g><path fill="#fff" d="M39890 35890h22419v9919H39890z"/></mask></defs><g fill="none" fill-opacity="0" mask="url(#d)" stroke="#f0f0f0" stroke-linecap="round" stroke-linejoin="round"><g stroke-width="62.992"><path d="M55280 42275h3899M59179 42275v-4759M59179 37516h-3899M55280 37516v4759"/><circle cx="57239" cy="40042" r="1316.5"/><path d="M50433 42265h3900M54333 42265v-4758M54333 37507h-3900M50433 37507v4758"/><circle cx="52392" cy="40032" r="1316.5"/><path d="M45433 42265h3900M49333 42265v-4758M49333 37507h-3900M45433 37507v4758"/><circle cx="47392" cy="40032" r="1316.5"/><path d="M40433 42265h3900M44333 42265v-4758M44333 37507h-3900M40433 37507v4758"/><circle cx="42392" cy="40032" r="1316.5"/></g><g stroke-width="47.244"><path d="M60900 38176h523M61423 38176v524M61423 39200v5023M60376 44223h1047M60376 39200v5023M60376 39200h1047"/></g></g><g fill-opacity="0" stroke-linecap="round" stroke-linejoin="round" stroke-width="19.685" fill="none" stroke="#000"><path d="M62300 45800v-100M39900 35900v9900M62300 45700v-9800M62300 45800H39900M39900 35900h22400"/></g><defs><mask id="b"><path fill="#fff" d="M39890 35890h22419v9919H39890z"/><path stroke="#000" stroke-linecap="round" stroke-width="300" d="M59211 40045h0M55203 40025h0M58242 37383h0M57262 37391h0M56242 37379h0M54364 40035h0M50356 40015h0M53396 37374h0M52415 37381h0M51396 37370h0M49364 40035h0M45356 40015h0M48396 37374h0M47415 37381h0M46396 37370h0M44364 40035h0M40356 40015h0M43396 37374h0M42415 37381h0M41396 37370h0"/><path stroke="#000" stroke-linecap="round" stroke-width="393" d="M60900 43700h0M60900 42700h0M60900 41700h0M60900 40700h0M60900 39700h0M60900 38700h0"/></mask></defs></g><g stroke-width=".093"><g transform="translate(15082 1278) scale(393.7)" stroke="#000"><path d="M5.024.913h1.5v-.8h-1.5v.6z" fill="#b3b3b3"/><path d="M1.625 12.713H10.075a.2.2 0 0 0 .2-.2v-.05h-.1.5v-10.5h-.4v-.65a.4.4 0 0 0-.4-.4h-8.2a.4.4 0 0 0-.4.4v.65h-.4v10.5h.5-.1v.05c0 .11.089.2.2.2z" fill="#1a1a1a"/><path d="M1.375 5.713v-3.75l.25-.25h8.3l.25.25v10.5l-.25.25h-8.3l-.25-.25v-3.75z" fill="#426df6" fill-rule="evenodd"/><path d="M7.774 1.713v-.7M3.775 1.013v.7" fill="none"/><circle transform="scale(1 -1)" cx="9.024" cy="-11.513" r=".6" fill="#1a1a1a"/><circle transform="scale(1 -1)" cx="2.525" cy="-2.913" r=".6" fill="#1a1a1a"/><path d="M3.775.913v.1M1.274 5.713v3M1.274 12.463v.05M10.275 12.513v-.05M10.275 8.713v-3M7.774 1.013v-.1" fill="none"/><circle transform="scale(1 -1)" cx="5.774" cy="-7.213" r="3.4" fill="#ececec"/><path d="M1.274 8.713v-3" fill="none"/><path d="M.875 5.713h.5v3h-.5v-.5H.113v-2h.762z" fill="#426df6" fill-rule="evenodd"/><path d="M1.375 1.963h-.5M.875 8.213H.858M.875 6.213H.858M.197 6.213H.113M.197 8.213H.113M10.275 5.713v3M10.675 1.963h-.5" fill="none"/><path d="M10.175 8.713h.5v-.5h.761v-2h-.761v-.5h-.5v0z" fill="#426df6" fill-rule="evenodd"/><path d="M10.675 6.213h.017M10.675 8.213h.017M11.352 8.213h.084M11.352 6.213h.084" fill="none"/><path d="M2.525.713v.2h1.5v-.8h-1.5v.533zM7.524.113h1.5v.8h0-1.5 0V.117z" fill="#b3b3b3" fill-rule="evenodd"/><path d="M4.036 5.416a2100.058 2100.058 0 0 0-.128-.176l-.1-.138M4.036 5.416l.298.41M3.808 5.102l.046.063M4.603 5.005a2100.058 2100.058 0 0 0-.128-.176l-.1-.138M4.42 4.754l-.045-.063M4.9 5.414l-.297-.41M4.036 5.416a2.5 2.5 0 0 1 .567-.411M4.503 4.718l-.055-.011-.073-.016M4.375 4.691l.128.027M4.375 4.691l-.168-.036M4.207 4.655l-.078.293M4.129 4.948l-.303-.016M3.826 4.932l-.018.17M3.795 5.233l.013-.13M3.795 5.233a102.837 102.837 0 0 1 .013-.13" fill="none"/><path d="M4.036 5.416a2.5 2.5 0 1 0 .567-.411M3.795 5.233l-.045.005-.046.005-.048.005-.069.007-.094.01M3.51 5.567l-.003-.044-.003-.052-.004-.088-.007-.118M3.51 5.567l-.044.012-.045.012-.046.012-.067.018-.091.025M3.28 5.942L3.27 5.9l-.01-.05-.019-.087-.024-.116M3.28 5.942l-.04.018-.044.02-.043.019-.064.028-.086.038M3.112 6.348l-.016-.041-.019-.049-.032-.082-.042-.11M3.112 6.348l-.038.024-.039.026-.04.026-.058.038-.08.05M3.009 6.775l-.022-.038-.026-.045-.044-.077-.06-.102M3.009 6.775l-.04.036-.035.031-.06.055-.09.08M2.974 7.213l-.027-.034-.033-.04-.056-.07-.074-.091M2.974 7.213l-.027.035-.033.04-.056.069-.074.092" fill="none"/><path d="M3.009 7.651l-.033-.03-.038-.034-.066-.06-.088-.078M3.009 7.651l-.022.039-.026.044-.044.077-.06.103M3.112 8.079l-.038-.025-.043-.028-.074-.048-.1-.064M3.112 8.079l-.016.041-.019.048-.032.083-.042.11" fill="none"/><path d="M3.28 8.484l-.04-.018-.048-.02-.081-.037-.108-.048M3.28 8.484l-.01.044-.01.05-.019.087-.024.116M3.51 8.859l-.044-.011-.05-.014-.085-.023-.114-.03M3.51 8.859l-.003.044c0 .018-.002.035-.003.052l-.004.088-.007.119M3.795 9.193l-.045-.005-.051-.005-.088-.01-.118-.011M3.795 9.193l.004.044.006.052.009.088.012.117M4.129 9.479l-.045.002-.051.003-.089.004-.118.006M4.129 9.479l.011.042.014.05.022.086.031.114M4.503 9.708l-.043.01-.05.01-.087.018-.116.025M4.503 9.708l.018.04.021.048.036.08.048.109M4.91 9.876l-.042.016-.048.019-.083.031-.11.043M4.91 9.876l.023.037.029.044.048.074.064.1M5.337 9.979L5.298 10l-.04.024-.042.023-.06.035-.082.047M5.337 9.979l.03.033a98.608 98.608 0 0 1 .063.07l.046.052.063.07M5.774 10.013l-.034.028-.036.03-.038.03-.054.043-.073.06M5.774 10.013l.035.028.036.03.038.03.054.043.073.06" fill="none"/><path d="M6.213 9.979l-.03.033a98.608 98.608 0 0 0-.064.07l-.046.052-.063.07M6.213 9.979L6.25 10l.04.024.042.023.06.035.082.047M6.64 9.876l-.024.037-.026.04-.026.04-.038.058-.051.08M6.64 9.876l.041.016.044.017.045.017.064.025.089.034M7.046 9.708l-.018.04-.02.043-.019.044-.028.064-.038.086M7.046 9.708l.061.013.058.012.08.018.097.02M7.42 9.479l-.011.042-.012.046-.013.046-.018.067-.024.091M7.42 9.479l.045.002.047.002.047.003.07.003.094.005M7.754 9.193l-.006.063a134.171 134.171 0 0 0-.025.238M7.754 9.193l.045-.005.046-.004.048-.005.069-.008.094-.01" fill="none"/><path d="M8.04 8.859l.002.044.003.047.002.048.004.07.005.094M8.04 8.859l.043-.011.045-.013.046-.012.067-.018.091-.024M8.27 8.484c.002.015.005.03.009.044l.01.046.01.046.014.068.02.093M8.27 8.484l.04-.018.043-.019.043-.02.064-.027.086-.039M8.438 8.079l.015.041.019.048.032.083.042.11M8.438 8.079l.037-.025.04-.025.04-.026.057-.038.08-.051M8.54 7.651l.022.039.026.044.044.077.06.103M8.54 7.651l.033-.03.035-.03.035-.033.052-.046.07-.063M8.575 7.213l.027.035.033.04.056.069.074.092M8.575 7.213l.027-.034.03-.037.03-.037.044-.054.06-.073M8.54 6.775l.033.03.038.034.066.06.088.079M8.54 6.775l.022-.038.024-.04.024-.042.034-.06.048-.082M8.438 6.348l.037.024.043.028.074.048.1.065M8.438 6.348l.015-.041.017-.044.017-.045.025-.065.034-.088M8.27 5.942l.04.018.047.021.081.036.108.048M8.27 5.942c.002-.014.005-.029.009-.043l.01-.046.01-.047.014-.068.02-.092M8.04 5.567l.043.012.05.013.085.023.114.03M8.04 5.567l.002-.044.003-.047.002-.047.004-.07.005-.094M7.754 5.233l.045.005.051.005.088.01.118.012M7.754 5.233L7.75 5.19l-.005-.047-.005-.047-.007-.07-.01-.093M7.42 4.948l.045-.002.051-.003.089-.005.118-.006M7.42 4.948l-.011-.043-.012-.045-.013-.046-.018-.067-.024-.092M7.046 4.718l.043-.009.05-.01.087-.019.116-.025M7.046 4.718l-.018-.04-.02-.043-.019-.044c-.01-.02-.019-.042-.028-.063l-.038-.086M6.64 4.55l.041-.016.048-.018.083-.032.11-.042M6.64 4.55l-.024-.037-.026-.04-.026-.04-.038-.058-.051-.079M6.213 4.448l.038-.023.04-.023.042-.024.06-.035.082-.047M6.213 4.448l-.03-.033-.032-.035-.032-.036-.046-.051-.063-.07M5.774 4.413l.035-.028.04-.032.069-.056.092-.075M5.774 4.413l-.034-.028-.036-.03-.038-.03-.054-.043-.073-.06" fill="none"/><path d="M5.337 4.448l.03-.033c.01-.013.022-.026.034-.039l.059-.066.08-.088M5.337 4.448l-.039-.023-.04-.023-.042-.024-.06-.035-.082-.047M4.91 4.55l.023-.037.029-.043.048-.075.064-.099M4.91 4.55l-.042-.016-.044-.016L4.78 4.5l-.065-.025c-.03-.01-.06-.022-.089-.033M4.503 4.718l.018-.04.021-.047.036-.081.048-.108M4.334 5.826l.566-.412M4.503 4.718l.123-.276" fill="none"/><path d="M4.627 4.442a3 3 0 0 0-.42.213M4.207 4.655a3 3 0 0 0-.38.277M3.826 4.932a3 3 0 0 0-.333.333M3.51 5.567l-.017-.302M3.28 5.942l-.063-.296M3.112 6.348l-.11-.283M3.009 6.775l-.152-.262M2.784 6.978l.225-.203M2.974 7.213l-.19-.235M2.784 7.449l.19-.236M3.009 7.651l-.225-.202M2.857 7.914l.152-.263M3.112 8.079l-.255-.165M3.003 8.361l.109-.283M3.28 8.484l-.277-.123M3.217 8.78l.063-.296M3.51 8.859l-.293-.078M3.493 9.162l.016-.303M3.795 9.193l-.302-.031M3.826 9.494l-.031-.3M4.129 9.479l-.303.015M4.207 9.771l-.078-.293M4.503 9.708l-.296.063M4.627 9.985l-.124-.277M4.91 9.876l-.284.109M5.074 10.13l-.165-.254M5.337 9.979l-.263.151M5.774 10.013l-.235.19M6.213 9.979l-.203.225M6.64 9.876l-.165.254M7.046 9.708l-.123.277M7.42 9.479l-.078.292M7.754 9.193l-.031.301M8.04 8.859l.016.303M8.27 8.484l.062.297M8.438 8.079l.108.282M8.54 7.651l.152.263M8.575 7.213l.19.236M8.54 6.775l.225.203M8.438 6.348l.254.165M8.27 5.942l.276.123M8.04 5.567l.292.079M7.754 5.233l.302.032M7.42 4.948l.303-.016M7.046 4.718l.296-.063M6.64 4.55l.283-.108M6.213 4.448l.262-.152M5.774 4.413l.236-.19M5.337 4.448l.202-.226M4.91 4.55l.164-.254M8.765 7.449a3 3 0 0 0 .01-.236M8.692 7.914a3 3 0 0 0 .073-.465M8.546 8.361a3 3 0 0 0 .146-.447M8.332 8.78a3 3 0 0 0 .214-.419M8.056 9.162a3 3 0 0 0 .276-.381M7.723 9.494a3 3 0 0 0 .333-.332M7.342 9.771a3 3 0 0 0 .38-.277M6.923 9.985a3 3 0 0 0 .42-.214M6.475 10.13a3 3 0 0 0 .448-.145M6.01 10.204a3 3 0 0 0 .465-.074M5.54 10.204a3 3 0 0 0 .47 0M5.074 10.13a3 3 0 0 0 .465.074M4.627 9.985a3 3 0 0 0 .447.145M4.207 9.771a3 3 0 0 0 .42.214M3.826 9.494a3 3 0 0 0 .381.277M3.493 9.162a3 3 0 0 0 .333.332M3.217 8.78a3 3 0 0 0 .276.382M3.003 8.361a3 3 0 0 0 .214.42M2.857 7.914a3 3 0 0 0 .146.447M2.784 7.449a3 3 0 0 0 .073.465M2.784 6.978a3 3 0 0 0 0 .47M2.857 6.513a3 3 0 0 0-.073.465M3.003 6.065a3 3 0 0 0-.146.448M3.217 5.646a3 3 0 0 0-.214.42M3.493 5.265a3 3 0 0 0-.276.38M5.074 4.296a3 3 0 0 0-.448.146M5.54 4.223a3 3 0 0 0-.466.073M6.01 4.223a3 3 0 0 0-.47 0M6.475 4.296a3 3 0 0 0-.465-.074M6.923 4.442a3 3 0 0 0-.448-.146M7.342 4.655a3 3 0 0 0-.42-.213M7.723 4.932a3 3 0 0 0-.38-.277" fill="none"/><path d="M8.056 5.265a3 3 0 0 0-.333-.333M8.332 5.646a3 3 0 0 0-.276-.381M8.546 6.065a3 3 0 0 0-.214-.42M8.692 6.513a3 3 0 0 0-.146-.448M8.765 6.978a3 3 0 0 0-.073-.465M8.774 7.213a3 3 0 0 0-.009-.235M.197 6.213H.113h.015M.197 8.213H.113h.015M11.352 8.213h.084-.015M11.352 6.213h.084-.015M3.775 1.013h-2.1M1.675 1.013a.3.3 0 0 0-.3.3M1.375 1.313v.65M1.375 12.463v.05M1.375 12.513a.1.1 0 0 0 .1.1M1.474 12.613h.05M10.025 12.613h.05M10.075 12.613a.1.1 0 0 0 .1-.1M10.175 12.513v-.05M10.175 1.963v-.65M10.175 1.313a.3.3 0 0 0-.3-.3M9.874 1.013h-2.1M1.675.913v.1M1.274 1.313h.1M1.274 12.513h.1M1.474 12.713v-.1M10.075 12.713v-.1M10.275 12.513h-.1M10.275 1.313h-.1M9.874.913v.1" fill="none"/><circle transform="scale(1 -1)" cx="5.774" cy="-7.213" r="3.6" fill="none"/><path d="M.858 6.213v2M.197 6.213v2M10.691 8.213v-2M11.352 8.213v-2M6.524.713h-1.5M4.024.713h-1.5M9.024.713h-1.5M9.175 7.213h.2" fill="none"/></g><g transform="translate(10236 1269) scale(393.7)" stroke="#000"><path d="M5.024.913h1.5v-.8h-1.5v.6z" fill="#b3b3b3"/><path d="M1.625 12.713H10.075a.2.2 0 0 0 .2-.2v-.05h-.1.5v-10.5h-.4v-.65a.4.4 0 0 0-.4-.4h-8.2a.4.4 0 0 0-.4.4v.65h-.4v10.5h.5-.1v.05c0 .11.089.2.2.2z" fill="#1a1a1a"/><path d="M1.375 5.713v-3.75l.25-.25h8.3l.25.25v10.5l-.25.25h-8.3l-.25-.25v-3.75z" fill="#426df6" fill-rule="evenodd"/><path d="M7.774 1.713v-.7M3.775 1.013v.7" fill="none"/><circle transform="scale(1 -1)" cx="9.024" cy="-11.513" r=".6" fill="#1a1a1a"/><circle transform="scale(1 -1)" cx="2.525" cy="-2.913" r=".6" fill="#1a1a1a"/><path d="M3.775.913v.1M1.274 5.713v3M1.274 12.463v.05M10.275 12.513v-.05M10.275 8.713v-3M7.774 1.013v-.1" fill="none"/><circle transform="scale(1 -1)" cx="5.774" cy="-7.213" r="3.4" fill="#ececec"/><path d="M1.274 8.713v-3" fill="none"/><path d="M.875 5.713h.5v3h-.5v-.5H.113v-2h.762z" fill="#426df6" fill-rule="evenodd"/><path d="M1.375 1.963h-.5M.875 8.213H.858M.875 6.213H.858M.197 6.213H.113M.197 8.213H.113M10.275 5.713v3M10.675 1.963h-.5" fill="none"/><path d="M10.175 8.713h.5v-.5h.761v-2h-.761v-.5h-.5v0z" fill="#426df6" fill-rule="evenodd"/><path d="M10.675 6.213h.017M10.675 8.213h.017M11.352 8.213h.084M11.352 6.213h.084" fill="none"/><path d="M2.525.713v.2h1.5v-.8h-1.5v.533zM7.524.113h1.5v.8h0-1.5 0V.117z" fill="#b3b3b3" fill-rule="evenodd"/><path d="M4.036 5.416a2100.058 2100.058 0 0 0-.128-.176l-.1-.138M4.036 5.416l.298.41M3.808 5.102l.046.063M4.603 5.005a2100.058 2100.058 0 0 0-.128-.176l-.1-.138M4.42 4.754l-.045-.063M4.9 5.414l-.297-.41M4.036 5.416a2.5 2.5 0 0 1 .567-.411M4.503 4.718l-.055-.011-.073-.016M4.375 4.691l.128.027M4.375 4.691l-.168-.036M4.207 4.655l-.078.293M4.129 4.948l-.303-.016M3.826 4.932l-.018.17M3.795 5.233l.013-.13M3.795 5.233a102.837 102.837 0 0 1 .013-.13" fill="none"/><path d="M4.036 5.416a2.5 2.5 0 1 0 .567-.411M3.795 5.233l-.045.005-.046.005-.048.005-.069.007-.094.01M3.51 5.567l-.003-.044-.003-.052-.004-.088-.007-.118M3.51 5.567l-.044.012-.045.012-.046.012-.067.018-.091.025M3.28 5.942L3.27 5.9l-.01-.05-.019-.087-.024-.116M3.28 5.942l-.04.018-.044.02-.043.019-.064.028-.086.038M3.112 6.348l-.016-.041-.019-.049-.032-.082-.042-.11M3.112 6.348l-.038.024-.039.026-.04.026-.058.038-.08.05M3.009 6.775l-.022-.038-.026-.045-.044-.077-.06-.102M3.009 6.775l-.04.036-.035.031-.06.055-.09.08M2.974 7.213l-.027-.034-.033-.04-.056-.07-.074-.091M2.974 7.213l-.027.035-.033.04-.056.069-.074.092" fill="none"/><path d="M3.009 7.651l-.033-.03-.038-.034-.066-.06-.088-.078M3.009 7.651l-.022.039-.026.044-.044.077-.06.103M3.112 8.079l-.038-.025-.043-.028-.074-.048-.1-.064M3.112 8.079l-.016.041-.019.048-.032.083-.042.11" fill="none"/><path d="M3.28 8.484l-.04-.018-.048-.02-.081-.037-.108-.048M3.28 8.484l-.01.044-.01.05-.019.087-.024.116M3.51 8.859l-.044-.011-.05-.014-.085-.023-.114-.03M3.51 8.859l-.003.044c0 .018-.002.035-.003.052l-.004.088-.007.119M3.795 9.193l-.045-.005-.051-.005-.088-.01-.118-.011M3.795 9.193l.004.044.006.052.009.088.012.117M4.129 9.479l-.045.002-.051.003-.089.004-.118.006M4.129 9.479l.011.042.014.05.022.086.031.114M4.503 9.708l-.043.01-.05.01-.087.018-.116.025M4.503 9.708l.018.04.021.048.036.08.048.109M4.91 9.876l-.042.016-.048.019-.083.031-.11.043M4.91 9.876l.023.037.029.044.048.074.064.1M5.337 9.979L5.298 10l-.04.024-.042.023-.06.035-.082.047M5.337 9.979l.03.033a98.608 98.608 0 0 1 .063.07l.046.052.063.07M5.774 10.013l-.034.028-.036.03-.038.03-.054.043-.073.06M5.774 10.013l.035.028.036.03.038.03.054.043.073.06" fill="none"/><path d="M6.213 9.979l-.03.033a98.608 98.608 0 0 0-.064.07l-.046.052-.063.07M6.213 9.979L6.25 10l.04.024.042.023.06.035.082.047M6.64 9.876l-.024.037-.026.04-.026.04-.038.058-.051.08M6.64 9.876l.041.016.044.017.045.017.064.025.089.034M7.046 9.708l-.018.04-.02.043-.019.044-.028.064-.038.086M7.046 9.708l.061.013.058.012.08.018.097.02M7.42 9.479l-.011.042-.012.046-.013.046-.018.067-.024.091M7.42 9.479l.045.002.047.002.047.003.07.003.094.005M7.754 9.193l-.006.063a134.171 134.171 0 0 0-.025.238M7.754 9.193l.045-.005.046-.004.048-.005.069-.008.094-.01" fill="none"/><path d="M8.04 8.859l.002.044.003.047.002.048.004.07.005.094M8.04 8.859l.043-.011.045-.013.046-.012.067-.018.091-.024M8.27 8.484c.002.015.005.03.009.044l.01.046.01.046.014.068.02.093M8.27 8.484l.04-.018.043-.019.043-.02.064-.027.086-.039M8.438 8.079l.015.041.019.048.032.083.042.11M8.438 8.079l.037-.025.04-.025.04-.026.057-.038.08-.051M8.54 7.651l.022.039.026.044.044.077.06.103M8.54 7.651l.033-.03.035-.03.035-.033.052-.046.07-.063M8.575 7.213l.027.035.033.04.056.069.074.092M8.575 7.213l.027-.034.03-.037.03-.037.044-.054.06-.073M8.54 6.775l.033.03.038.034.066.06.088.079M8.54 6.775l.022-.038.024-.04.024-.042.034-.06.048-.082M8.438 6.348l.037.024.043.028.074.048.1.065M8.438 6.348l.015-.041.017-.044.017-.045.025-.065.034-.088M8.27 5.942l.04.018.047.021.081.036.108.048M8.27 5.942c.002-.014.005-.029.009-.043l.01-.046.01-.047.014-.068.02-.092M8.04 5.567l.043.012.05.013.085.023.114.03M8.04 5.567l.002-.044.003-.047.002-.047.004-.07.005-.094M7.754 5.233l.045.005.051.005.088.01.118.012M7.754 5.233L7.75 5.19l-.005-.047-.005-.047-.007-.07-.01-.093M7.42 4.948l.045-.002.051-.003.089-.005.118-.006M7.42 4.948l-.011-.043-.012-.045-.013-.046-.018-.067-.024-.092M7.046 4.718l.043-.009.05-.01.087-.019.116-.025M7.046 4.718l-.018-.04-.02-.043-.019-.044c-.01-.02-.019-.042-.028-.063l-.038-.086M6.64 4.55l.041-.016.048-.018.083-.032.11-.042M6.64 4.55l-.024-.037-.026-.04-.026-.04-.038-.058-.051-.079M6.213 4.448l.038-.023.04-.023.042-.024.06-.035.082-.047M6.213 4.448l-.03-.033-.032-.035-.032-.036-.046-.051-.063-.07M5.774 4.413l.035-.028.04-.032.069-.056.092-.075M5.774 4.413l-.034-.028-.036-.03-.038-.03-.054-.043-.073-.06" fill="none"/><path d="M5.337 4.448l.03-.033c.01-.013.022-.026.034-.039l.059-.066.08-.088M5.337 4.448l-.039-.023-.04-.023-.042-.024-.06-.035-.082-.047M4.91 4.55l.023-.037.029-.043.048-.075.064-.099M4.91 4.55l-.042-.016-.044-.016L4.78 4.5l-.065-.025c-.03-.01-.06-.022-.089-.033M4.503 4.718l.018-.04.021-.047.036-.081.048-.108M4.334 5.826l.566-.412M4.503 4.718l.123-.276" fill="none"/><path d="M4.627 4.442a3 3 0 0 0-.42.213M4.207 4.655a3 3 0 0 0-.38.277M3.826 4.932a3 3 0 0 0-.333.333M3.51 5.567l-.017-.302M3.28 5.942l-.063-.296M3.112 6.348l-.11-.283M3.009 6.775l-.152-.262M2.784 6.978l.225-.203M2.974 7.213l-.19-.235M2.784 7.449l.19-.236M3.009 7.651l-.225-.202M2.857 7.914l.152-.263M3.112 8.079l-.255-.165M3.003 8.361l.109-.283M3.28 8.484l-.277-.123M3.217 8.78l.063-.296M3.51 8.859l-.293-.078M3.493 9.162l.016-.303M3.795 9.193l-.302-.031M3.826 9.494l-.031-.3M4.129 9.479l-.303.015M4.207 9.771l-.078-.293M4.503 9.708l-.296.063M4.627 9.985l-.124-.277M4.91 9.876l-.284.109M5.074 10.13l-.165-.254M5.337 9.979l-.263.151M5.774 10.013l-.235.19M6.213 9.979l-.203.225M6.64 9.876l-.165.254M7.046 9.708l-.123.277M7.42 9.479l-.078.292M7.754 9.193l-.031.301M8.04 8.859l.016.303M8.27 8.484l.062.297M8.438 8.079l.108.282M8.54 7.651l.152.263M8.575 7.213l.19.236M8.54 6.775l.225.203M8.438 6.348l.254.165M8.27 5.942l.276.123M8.04 5.567l.292.079M7.754 5.233l.302.032M7.42 4.948l.303-.016M7.046 4.718l.296-.063M6.64 4.55l.283-.108M6.213 4.448l.262-.152M5.774 4.413l.236-.19M5.337 4.448l.202-.226M4.91 4.55l.164-.254M8.765 7.449a3 3 0 0 0 .01-.236M8.692 7.914a3 3 0 0 0 .073-.465M8.546 8.361a3 3 0 0 0 .146-.447M8.332 8.78a3 3 0 0 0 .214-.419M8.056 9.162a3 3 0 0 0 .276-.381M7.723 9.494a3 3 0 0 0 .333-.332M7.342 9.771a3 3 0 0 0 .38-.277M6.923 9.985a3 3 0 0 0 .42-.214M6.475 10.13a3 3 0 0 0 .448-.145M6.01 10.204a3 3 0 0 0 .465-.074M5.54 10.204a3 3 0 0 0 .47 0M5.074 10.13a3 3 0 0 0 .465.074M4.627 9.985a3 3 0 0 0 .447.145M4.207 9.771a3 3 0 0 0 .42.214M3.826 9.494a3 3 0 0 0 .381.277M3.493 9.162a3 3 0 0 0 .333.332M3.217 8.78a3 3 0 0 0 .276.382M3.003 8.361a3 3 0 0 0 .214.42M2.857 7.914a3 3 0 0 0 .146.447M2.784 7.449a3 3 0 0 0 .073.465M2.784 6.978a3 3 0 0 0 0 .47M2.857 6.513a3 3 0 0 0-.073.465M3.003 6.065a3 3 0 0 0-.146.448M3.217 5.646a3 3 0 0 0-.214.42M3.493 5.265a3 3 0 0 0-.276.38M5.074 4.296a3 3 0 0 0-.448.146M5.54 4.223a3 3 0 0 0-.466.073M6.01 4.223a3 3 0 0 0-.47 0M6.475 4.296a3 3 0 0 0-.465-.074M6.923 4.442a3 3 0 0 0-.448-.146M7.342 4.655a3 3 0 0 0-.42-.213M7.723 4.932a3 3 0 0 0-.38-.277" fill="none"/><path d="M8.056 5.265a3 3 0 0 0-.333-.333M8.332 5.646a3 3 0 0 0-.276-.381M8.546 6.065a3 3 0 0 0-.214-.42M8.692 6.513a3 3 0 0 0-.146-.448M8.765 6.978a3 3 0 0 0-.073-.465M8.774 7.213a3 3 0 0 0-.009-.235M.197 6.213H.113h.015M.197 8.213H.113h.015M11.352 8.213h.084-.015M11.352 6.213h.084-.015M3.775 1.013h-2.1M1.675 1.013a.3.3 0 0 0-.3.3M1.375 1.313v.65M1.375 12.463v.05M1.375 12.513a.1.1 0 0 0 .1.1M1.474 12.613h.05M10.025 12.613h.05M10.075 12.613a.1.1 0 0 0 .1-.1M10.175 12.513v-.05M10.175 1.963v-.65M10.175 1.313a.3.3 0 0 0-.3-.3M9.874 1.013h-2.1M1.675.913v.1M1.274 1.313h.1M1.274 12.513h.1M1.474 12.713v-.1M10.075 12.713v-.1M10.275 12.513h-.1M10.275 1.313h-.1M9.874.913v.1" fill="none"/><circle transform="scale(1 -1)" cx="5.774" cy="-7.213" r="3.6" fill="none"/><path d="M.858 6.213v2M.197 6.213v2M10.691 8.213v-2M11.352 8.213v-2M6.524.713h-1.5M4.024.713h-1.5M9.024.713h-1.5M9.175 7.213h.2" fill="none"/></g><g transform="translate(5236 1269) scale(393.7)" stroke="#000"><path d="M5.024.913h1.5v-.8h-1.5v.6z" fill="#b3b3b3"/><path d="M1.625 12.713H10.075a.2.2 0 0 0 .2-.2v-.05h-.1.5v-10.5h-.4v-.65a.4.4 0 0 0-.4-.4h-8.2a.4.4 0 0 0-.4.4v.65h-.4v10.5h.5-.1v.05c0 .11.089.2.2.2z" fill="#1a1a1a"/><path d="M1.375 5.713v-3.75l.25-.25h8.3l.25.25v10.5l-.25.25h-8.3l-.25-.25v-3.75z" fill="#426df6" fill-rule="evenodd"/><path d="M7.774 1.713v-.7M3.775 1.013v.7" fill="none"/><circle transform="scale(1 -1)" cx="9.024" cy="-11.513" r=".6" fill="#1a1a1a"/><circle transform="scale(1 -1)" cx="2.525" cy="-2.913" r=".6" fill="#1a1a1a"/><path d="M3.775.913v.1M1.274 5.713v3M1.274 12.463v.05M10.275 12.513v-.05M10.275 8.713v-3M7.774 1.013v-.1" fill="none"/><circle transform="scale(1 -1)" cx="5.774" cy="-7.213" r="3.4" fill="#ececec"/><path d="M1.274 8.713v-3" fill="none"/><path d="M.875 5.713h.5v3h-.5v-.5H.113v-2h.762z" fill="#426df6" fill-rule="evenodd"/><path d="M1.375 1.963h-.5M.875 8.213H.858M.875 6.213H.858M.197 6.213H.113M.197 8.213H.113M10.275 5.713v3M10.675 1.963h-.5" fill="none"/><path d="M10.175 8.713h.5v-.5h.761v-2h-.761v-.5h-.5v0z" fill="#426df6" fill-rule="evenodd"/><path d="M10.675 6.213h.017M10.675 8.213h.017M11.352 8.213h.084M11.352 6.213h.084" fill="none"/><path d="M2.525.713v.2h1.5v-.8h-1.5v.533zM7.524.113h1.5v.8h0-1.5 0V.117z" fill="#b3b3b3" fill-rule="evenodd"/><path d="M4.036 5.416a2100.058 2100.058 0 0 0-.128-.176l-.1-.138M4.036 5.416l.298.41M3.808 5.102l.046.063M4.603 5.005a2100.058 2100.058 0 0 0-.128-.176l-.1-.138M4.42 4.754l-.045-.063M4.9 5.414l-.297-.41M4.036 5.416a2.5 2.5 0 0 1 .567-.411M4.503 4.718l-.055-.011-.073-.016M4.375 4.691l.128.027M4.375 4.691l-.168-.036M4.207 4.655l-.078.293M4.129 4.948l-.303-.016M3.826 4.932l-.018.17M3.795 5.233l.013-.13M3.795 5.233a102.837 102.837 0 0 1 .013-.13" fill="none"/><path d="M4.036 5.416a2.5 2.5 0 1 0 .567-.411M3.795 5.233l-.045.005-.046.005-.048.005-.069.007-.094.01M3.51 5.567l-.003-.044-.003-.052-.004-.088-.007-.118M3.51 5.567l-.044.012-.045.012-.046.012-.067.018-.091.025M3.28 5.942L3.27 5.9l-.01-.05-.019-.087-.024-.116M3.28 5.942l-.04.018-.044.02-.043.019-.064.028-.086.038M3.112 6.348l-.016-.041-.019-.049-.032-.082-.042-.11M3.112 6.348l-.038.024-.039.026-.04.026-.058.038-.08.05M3.009 6.775l-.022-.038-.026-.045-.044-.077-.06-.102M3.009 6.775l-.04.036-.035.031-.06.055-.09.08M2.974 7.213l-.027-.034-.033-.04-.056-.07-.074-.091M2.974 7.213l-.027.035-.033.04-.056.069-.074.092" fill="none"/><path d="M3.009 7.651l-.033-.03-.038-.034-.066-.06-.088-.078M3.009 7.651l-.022.039-.026.044-.044.077-.06.103M3.112 8.079l-.038-.025-.043-.028-.074-.048-.1-.064M3.112 8.079l-.016.041-.019.048-.032.083-.042.11" fill="none"/><path d="M3.28 8.484l-.04-.018-.048-.02-.081-.037-.108-.048M3.28 8.484l-.01.044-.01.05-.019.087-.024.116M3.51 8.859l-.044-.011-.05-.014-.085-.023-.114-.03M3.51 8.859l-.003.044c0 .018-.002.035-.003.052l-.004.088-.007.119M3.795 9.193l-.045-.005-.051-.005-.088-.01-.118-.011M3.795 9.193l.004.044.006.052.009.088.012.117M4.129 9.479l-.045.002-.051.003-.089.004-.118.006M4.129 9.479l.011.042.014.05.022.086.031.114M4.503 9.708l-.043.01-.05.01-.087.018-.116.025M4.503 9.708l.018.04.021.048.036.08.048.109M4.91 9.876l-.042.016-.048.019-.083.031-.11.043M4.91 9.876l.023.037.029.044.048.074.064.1M5.337 9.979L5.298 10l-.04.024-.042.023-.06.035-.082.047M5.337 9.979l.03.033a98.608 98.608 0 0 1 .063.07l.046.052.063.07M5.774 10.013l-.034.028-.036.03-.038.03-.054.043-.073.06M5.774 10.013l.035.028.036.03.038.03.054.043.073.06" fill="none"/><path d="M6.213 9.979l-.03.033a98.608 98.608 0 0 0-.064.07l-.046.052-.063.07M6.213 9.979L6.25 10l.04.024.042.023.06.035.082.047M6.64 9.876l-.024.037-.026.04-.026.04-.038.058-.051.08M6.64 9.876l.041.016.044.017.045.017.064.025.089.034M7.046 9.708l-.018.04-.02.043-.019.044-.028.064-.038.086M7.046 9.708l.061.013.058.012.08.018.097.02M7.42 9.479l-.011.042-.012.046-.013.046-.018.067-.024.091M7.42 9.479l.045.002.047.002.047.003.07.003.094.005M7.754 9.193l-.006.063a134.171 134.171 0 0 0-.025.238M7.754 9.193l.045-.005.046-.004.048-.005.069-.008.094-.01" fill="none"/><path d="M8.04 8.859l.002.044.003.047.002.048.004.07.005.094M8.04 8.859l.043-.011.045-.013.046-.012.067-.018.091-.024M8.27 8.484c.002.015.005.03.009.044l.01.046.01.046.014.068.02.093M8.27 8.484l.04-.018.043-.019.043-.02.064-.027.086-.039M8.438 8.079l.015.041.019.048.032.083.042.11M8.438 8.079l.037-.025.04-.025.04-.026.057-.038.08-.051M8.54 7.651l.022.039.026.044.044.077.06.103M8.54 7.651l.033-.03.035-.03.035-.033.052-.046.07-.063M8.575 7.213l.027.035.033.04.056.069.074.092M8.575 7.213l.027-.034.03-.037.03-.037.044-.054.06-.073M8.54 6.775l.033.03.038.034.066.06.088.079M8.54 6.775l.022-.038.024-.04.024-.042.034-.06.048-.082M8.438 6.348l.037.024.043.028.074.048.1.065M8.438 6.348l.015-.041.017-.044.017-.045.025-.065.034-.088M8.27 5.942l.04.018.047.021.081.036.108.048M8.27 5.942c.002-.014.005-.029.009-.043l.01-.046.01-.047.014-.068.02-.092M8.04 5.567l.043.012.05.013.085.023.114.03M8.04 5.567l.002-.044.003-.047.002-.047.004-.07.005-.094M7.754 5.233l.045.005.051.005.088.01.118.012M7.754 5.233L7.75 5.19l-.005-.047-.005-.047-.007-.07-.01-.093M7.42 4.948l.045-.002.051-.003.089-.005.118-.006M7.42 4.948l-.011-.043-.012-.045-.013-.046-.018-.067-.024-.092M7.046 4.718l.043-.009.05-.01.087-.019.116-.025M7.046 4.718l-.018-.04-.02-.043-.019-.044c-.01-.02-.019-.042-.028-.063l-.038-.086M6.64 4.55l.041-.016.048-.018.083-.032.11-.042M6.64 4.55l-.024-.037-.026-.04-.026-.04-.038-.058-.051-.079M6.213 4.448l.038-.023.04-.023.042-.024.06-.035.082-.047M6.213 4.448l-.03-.033-.032-.035-.032-.036-.046-.051-.063-.07M5.774 4.413l.035-.028.04-.032.069-.056.092-.075M5.774 4.413l-.034-.028-.036-.03-.038-.03-.054-.043-.073-.06" fill="none"/><path d="M5.337 4.448l.03-.033c.01-.013.022-.026.034-.039l.059-.066.08-.088M5.337 4.448l-.039-.023-.04-.023-.042-.024-.06-.035-.082-.047M4.91 4.55l.023-.037.029-.043.048-.075.064-.099M4.91 4.55l-.042-.016-.044-.016L4.78 4.5l-.065-.025c-.03-.01-.06-.022-.089-.033M4.503 4.718l.018-.04.021-.047.036-.081.048-.108M4.334 5.826l.566-.412M4.503 4.718l.123-.276" fill="none"/><path d="M4.627 4.442a3 3 0 0 0-.42.213M4.207 4.655a3 3 0 0 0-.38.277M3.826 4.932a3 3 0 0 0-.333.333M3.51 5.567l-.017-.302M3.28 5.942l-.063-.296M3.112 6.348l-.11-.283M3.009 6.775l-.152-.262M2.784 6.978l.225-.203M2.974 7.213l-.19-.235M2.784 7.449l.19-.236M3.009 7.651l-.225-.202M2.857 7.914l.152-.263M3.112 8.079l-.255-.165M3.003 8.361l.109-.283M3.28 8.484l-.277-.123M3.217 8.78l.063-.296M3.51 8.859l-.293-.078M3.493 9.162l.016-.303M3.795 9.193l-.302-.031M3.826 9.494l-.031-.3M4.129 9.479l-.303.015M4.207 9.771l-.078-.293M4.503 9.708l-.296.063M4.627 9.985l-.124-.277M4.91 9.876l-.284.109M5.074 10.13l-.165-.254M5.337 9.979l-.263.151M5.774 10.013l-.235.19M6.213 9.979l-.203.225M6.64 9.876l-.165.254M7.046 9.708l-.123.277M7.42 9.479l-.078.292M7.754 9.193l-.031.301M8.04 8.859l.016.303M8.27 8.484l.062.297M8.438 8.079l.108.282M8.54 7.651l.152.263M8.575 7.213l.19.236M8.54 6.775l.225.203M8.438 6.348l.254.165M8.27 5.942l.276.123M8.04 5.567l.292.079M7.754 5.233l.302.032M7.42 4.948l.303-.016M7.046 4.718l.296-.063M6.64 4.55l.283-.108M6.213 4.448l.262-.152M5.774 4.413l.236-.19M5.337 4.448l.202-.226M4.91 4.55l.164-.254M8.765 7.449a3 3 0 0 0 .01-.236M8.692 7.914a3 3 0 0 0 .073-.465M8.546 8.361a3 3 0 0 0 .146-.447M8.332 8.78a3 3 0 0 0 .214-.419M8.056 9.162a3 3 0 0 0 .276-.381M7.723 9.494a3 3 0 0 0 .333-.332M7.342 9.771a3 3 0 0 0 .38-.277M6.923 9.985a3 3 0 0 0 .42-.214M6.475 10.13a3 3 0 0 0 .448-.145M6.01 10.204a3 3 0 0 0 .465-.074M5.54 10.204a3 3 0 0 0 .47 0M5.074 10.13a3 3 0 0 0 .465.074M4.627 9.985a3 3 0 0 0 .447.145M4.207 9.771a3 3 0 0 0 .42.214M3.826 9.494a3 3 0 0 0 .381.277M3.493 9.162a3 3 0 0 0 .333.332M3.217 8.78a3 3 0 0 0 .276.382M3.003 8.361a3 3 0 0 0 .214.42M2.857 7.914a3 3 0 0 0 .146.447M2.784 7.449a3 3 0 0 0 .073.465M2.784 6.978a3 3 0 0 0 0 .47M2.857 6.513a3 3 0 0 0-.073.465M3.003 6.065a3 3 0 0 0-.146.448M3.217 5.646a3 3 0 0 0-.214.42M3.493 5.265a3 3 0 0 0-.276.38M5.074 4.296a3 3 0 0 0-.448.146M5.54 4.223a3 3 0 0 0-.466.073M6.01 4.223a3 3 0 0 0-.47 0M6.475 4.296a3 3 0 0 0-.465-.074M6.923 4.442a3 3 0 0 0-.448-.146M7.342 4.655a3 3 0 0 0-.42-.213M7.723 4.932a3 3 0 0 0-.38-.277" fill="none"/><path d="M8.056 5.265a3 3 0 0 0-.333-.333M8.332 5.646a3 3 0 0 0-.276-.381M8.546 6.065a3 3 0 0 0-.214-.42M8.692 6.513a3 3 0 0 0-.146-.448M8.765 6.978a3 3 0 0 0-.073-.465M8.774 7.213a3 3 0 0 0-.009-.235M.197 6.213H.113h.015M.197 8.213H.113h.015M11.352 8.213h.084-.015M11.352 6.213h.084-.015M3.775 1.013h-2.1M1.675 1.013a.3.3 0 0 0-.3.3M1.375 1.313v.65M1.375 12.463v.05M1.375 12.513a.1.1 0 0 0 .1.1M1.474 12.613h.05M10.025 12.613h.05M10.075 12.613a.1.1 0 0 0 .1-.1M10.175 12.513v-.05M10.175 1.963v-.65M10.175 1.313a.3.3 0 0 0-.3-.3M9.874 1.013h-2.1M1.675.913v.1M1.274 1.313h.1M1.274 12.513h.1M1.474 12.713v-.1M10.075 12.713v-.1M10.275 12.513h-.1M10.275 1.313h-.1M9.874.913v.1" fill="none"/><circle transform="scale(1 -1)" cx="5.774" cy="-7.213" r="3.6" fill="none"/><path d="M.858 6.213v2M.197 6.213v2M10.691 8.213v-2M11.352 8.213v-2M6.524.713h-1.5M4.024.713h-1.5M9.024.713h-1.5M9.175 7.213h.2" fill="none"/></g><g transform="translate(236 1269) scale(393.7)" stroke="#000"><path d="M5.024.913h1.5v-.8h-1.5v.6z" fill="#b3b3b3"/><path d="M1.625 12.713H10.075a.2.2 0 0 0 .2-.2v-.05h-.1.5v-10.5h-.4v-.65a.4.4 0 0 0-.4-.4h-8.2a.4.4 0 0 0-.4.4v.65h-.4v10.5h.5-.1v.05c0 .11.089.2.2.2z" fill="#1a1a1a"/><path d="M1.375 5.713v-3.75l.25-.25h8.3l.25.25v10.5l-.25.25h-8.3l-.25-.25v-3.75z" fill="#426df6" fill-rule="evenodd"/><path d="M7.774 1.713v-.7M3.775 1.013v.7" fill="none"/><circle transform="scale(1 -1)" cx="9.024" cy="-11.513" r=".6" fill="#1a1a1a"/><circle transform="scale(1 -1)" cx="2.525" cy="-2.913" r=".6" fill="#1a1a1a"/><path d="M3.775.913v.1M1.274 5.713v3M1.274 12.463v.05M10.275 12.513v-.05M10.275 8.713v-3M7.774 1.013v-.1" fill="none"/><circle transform="scale(1 -1)" cx="5.774" cy="-7.213" r="3.4" fill="#ececec"/><path d="M1.274 8.713v-3" fill="none"/><path d="M.875 5.713h.5v3h-.5v-.5H.113v-2h.762z" fill="#426df6" fill-rule="evenodd"/><path d="M1.375 1.963h-.5M.875 8.213H.858M.875 6.213H.858M.197 6.213H.113M.197 8.213H.113M10.275 5.713v3M10.675 1.963h-.5" fill="none"/><path d="M10.175 8.713h.5v-.5h.761v-2h-.761v-.5h-.5v0z" fill="#426df6" fill-rule="evenodd"/><path d="M10.675 6.213h.017M10.675 8.213h.017M11.352 8.213h.084M11.352 6.213h.084" fill="none"/><path d="M2.525.713v.2h1.5v-.8h-1.5v.533zM7.524.113h1.5v.8h0-1.5 0V.117z" fill="#b3b3b3" fill-rule="evenodd"/><path d="M4.036 5.416a2100.058 2100.058 0 0 0-.128-.176l-.1-.138M4.036 5.416l.298.41M3.808 5.102l.046.063M4.603 5.005a2100.058 2100.058 0 0 0-.128-.176l-.1-.138M4.42 4.754l-.045-.063M4.9 5.414l-.297-.41M4.036 5.416a2.5 2.5 0 0 1 .567-.411M4.503 4.718l-.055-.011-.073-.016M4.375 4.691l.128.027M4.375 4.691l-.168-.036M4.207 4.655l-.078.293M4.129 4.948l-.303-.016M3.826 4.932l-.018.17M3.795 5.233l.013-.13M3.795 5.233a102.837 102.837 0 0 1 .013-.13" fill="none"/><path d="M4.036 5.416a2.5 2.5 0 1 0 .567-.411M3.795 5.233l-.045.005-.046.005-.048.005-.069.007-.094.01M3.51 5.567l-.003-.044-.003-.052-.004-.088-.007-.118M3.51 5.567l-.044.012-.045.012-.046.012-.067.018-.091.025M3.28 5.942L3.27 5.9l-.01-.05-.019-.087-.024-.116M3.28 5.942l-.04.018-.044.02-.043.019-.064.028-.086.038M3.112 6.348l-.016-.041-.019-.049-.032-.082-.042-.11M3.112 6.348l-.038.024-.039.026-.04.026-.058.038-.08.05M3.009 6.775l-.022-.038-.026-.045-.044-.077-.06-.102M3.009 6.775l-.04.036-.035.031-.06.055-.09.08M2.974 7.213l-.027-.034-.033-.04-.056-.07-.074-.091M2.974 7.213l-.027.035-.033.04-.056.069-.074.092" fill="none"/><path d="M3.009 7.651l-.033-.03-.038-.034-.066-.06-.088-.078M3.009 7.651l-.022.039-.026.044-.044.077-.06.103M3.112 8.079l-.038-.025-.043-.028-.074-.048-.1-.064M3.112 8.079l-.016.041-.019.048-.032.083-.042.11" fill="none"/><path d="M3.28 8.484l-.04-.018-.048-.02-.081-.037-.108-.048M3.28 8.484l-.01.044-.01.05-.019.087-.024.116M3.51 8.859l-.044-.011-.05-.014-.085-.023-.114-.03M3.51 8.859l-.003.044c0 .018-.002.035-.003.052l-.004.088-.007.119M3.795 9.193l-.045-.005-.051-.005-.088-.01-.118-.011M3.795 9.193l.004.044.006.052.009.088.012.117M4.129 9.479l-.045.002-.051.003-.089.004-.118.006M4.129 9.479l.011.042.014.05.022.086.031.114M4.503 9.708l-.043.01-.05.01-.087.018-.116.025M4.503 9.708l.018.04.021.048.036.08.048.109M4.91 9.876l-.042.016-.048.019-.083.031-.11.043M4.91 9.876l.023.037.029.044.048.074.064.1M5.337 9.979L5.298 10l-.04.024-.042.023-.06.035-.082.047M5.337 9.979l.03.033a98.608 98.608 0 0 1 .063.07l.046.052.063.07M5.774 10.013l-.034.028-.036.03-.038.03-.054.043-.073.06M5.774 10.013l.035.028.036.03.038.03.054.043.073.06" fill="none"/><path d="M6.213 9.979l-.03.033a98.608 98.608 0 0 0-.064.07l-.046.052-.063.07M6.213 9.979L6.25 10l.04.024.042.023.06.035.082.047M6.64 9.876l-.024.037-.026.04-.026.04-.038.058-.051.08M6.64 9.876l.041.016.044.017.045.017.064.025.089.034M7.046 9.708l-.018.04-.02.043-.019.044-.028.064-.038.086M7.046 9.708l.061.013.058.012.08.018.097.02M7.42 9.479l-.011.042-.012.046-.013.046-.018.067-.024.091M7.42 9.479l.045.002.047.002.047.003.07.003.094.005M7.754 9.193l-.006.063a134.171 134.171 0 0 0-.025.238M7.754 9.193l.045-.005.046-.004.048-.005.069-.008.094-.01" fill="none"/><path d="M8.04 8.859l.002.044.003.047.002.048.004.07.005.094M8.04 8.859l.043-.011.045-.013.046-.012.067-.018.091-.024M8.27 8.484c.002.015.005.03.009.044l.01.046.01.046.014.068.02.093M8.27 8.484l.04-.018.043-.019.043-.02.064-.027.086-.039M8.438 8.079l.015.041.019.048.032.083.042.11M8.438 8.079l.037-.025.04-.025.04-.026.057-.038.08-.051M8.54 7.651l.022.039.026.044.044.077.06.103M8.54 7.651l.033-.03.035-.03.035-.033.052-.046.07-.063M8.575 7.213l.027.035.033.04.056.069.074.092M8.575 7.213l.027-.034.03-.037.03-.037.044-.054.06-.073M8.54 6.775l.033.03.038.034.066.06.088.079M8.54 6.775l.022-.038.024-.04.024-.042.034-.06.048-.082M8.438 6.348l.037.024.043.028.074.048.1.065M8.438 6.348l.015-.041.017-.044.017-.045.025-.065.034-.088M8.27 5.942l.04.018.047.021.081.036.108.048M8.27 5.942c.002-.014.005-.029.009-.043l.01-.046.01-.047.014-.068.02-.092M8.04 5.567l.043.012.05.013.085.023.114.03M8.04 5.567l.002-.044.003-.047.002-.047.004-.07.005-.094M7.754 5.233l.045.005.051.005.088.01.118.012M7.754 5.233L7.75 5.19l-.005-.047-.005-.047-.007-.07-.01-.093M7.42 4.948l.045-.002.051-.003.089-.005.118-.006M7.42 4.948l-.011-.043-.012-.045-.013-.046-.018-.067-.024-.092M7.046 4.718l.043-.009.05-.01.087-.019.116-.025M7.046 4.718l-.018-.04-.02-.043-.019-.044c-.01-.02-.019-.042-.028-.063l-.038-.086M6.64 4.55l.041-.016.048-.018.083-.032.11-.042M6.64 4.55l-.024-.037-.026-.04-.026-.04-.038-.058-.051-.079M6.213 4.448l.038-.023.04-.023.042-.024.06-.035.082-.047M6.213 4.448l-.03-.033-.032-.035-.032-.036-.046-.051-.063-.07M5.774 4.413l.035-.028.04-.032.069-.056.092-.075M5.774 4.413l-.034-.028-.036-.03-.038-.03-.054-.043-.073-.06" fill="none"/><path d="M5.337 4.448l.03-.033c.01-.013.022-.026.034-.039l.059-.066.08-.088M5.337 4.448l-.039-.023-.04-.023-.042-.024-.06-.035-.082-.047M4.91 4.55l.023-.037.029-.043.048-.075.064-.099M4.91 4.55l-.042-.016-.044-.016L4.78 4.5l-.065-.025c-.03-.01-.06-.022-.089-.033M4.503 4.718l.018-.04.021-.047.036-.081.048-.108M4.334 5.826l.566-.412M4.503 4.718l.123-.276" fill="none"/><path d="M4.627 4.442a3 3 0 0 0-.42.213M4.207 4.655a3 3 0 0 0-.38.277M3.826 4.932a3 3 0 0 0-.333.333M3.51 5.567l-.017-.302M3.28 5.942l-.063-.296M3.112 6.348l-.11-.283M3.009 6.775l-.152-.262M2.784 6.978l.225-.203M2.974 7.213l-.19-.235M2.784 7.449l.19-.236M3.009 7.651l-.225-.202M2.857 7.914l.152-.263M3.112 8.079l-.255-.165M3.003 8.361l.109-.283M3.28 8.484l-.277-.123M3.217 8.78l.063-.296M3.51 8.859l-.293-.078M3.493 9.162l.016-.303M3.795 9.193l-.302-.031M3.826 9.494l-.031-.3M4.129 9.479l-.303.015M4.207 9.771l-.078-.293M4.503 9.708l-.296.063M4.627 9.985l-.124-.277M4.91 9.876l-.284.109M5.074 10.13l-.165-.254M5.337 9.979l-.263.151M5.774 10.013l-.235.19M6.213 9.979l-.203.225M6.64 9.876l-.165.254M7.046 9.708l-.123.277M7.42 9.479l-.078.292M7.754 9.193l-.031.301M8.04 8.859l.016.303M8.27 8.484l.062.297M8.438 8.079l.108.282M8.54 7.651l.152.263M8.575 7.213l.19.236M8.54 6.775l.225.203M8.438 6.348l.254.165M8.27 5.942l.276.123M8.04 5.567l.292.079M7.754 5.233l.302.032M7.42 4.948l.303-.016M7.046 4.718l.296-.063M6.64 4.55l.283-.108M6.213 4.448l.262-.152M5.774 4.413l.236-.19M5.337 4.448l.202-.226M4.91 4.55l.164-.254M8.765 7.449a3 3 0 0 0 .01-.236M8.692 7.914a3 3 0 0 0 .073-.465M8.546 8.361a3 3 0 0 0 .146-.447M8.332 8.78a3 3 0 0 0 .214-.419M8.056 9.162a3 3 0 0 0 .276-.381M7.723 9.494a3 3 0 0 0 .333-.332M7.342 9.771a3 3 0 0 0 .38-.277M6.923 9.985a3 3 0 0 0 .42-.214M6.475 10.13a3 3 0 0 0 .448-.145M6.01 10.204a3 3 0 0 0 .465-.074M5.54 10.204a3 3 0 0 0 .47 0M5.074 10.13a3 3 0 0 0 .465.074M4.627 9.985a3 3 0 0 0 .447.145M4.207 9.771a3 3 0 0 0 .42.214M3.826 9.494a3 3 0 0 0 .381.277M3.493 9.162a3 3 0 0 0 .333.332M3.217 8.78a3 3 0 0 0 .276.382M3.003 8.361a3 3 0 0 0 .214.42M2.857 7.914a3 3 0 0 0 .146.447M2.784 7.449a3 3 0 0 0 .073.465M2.784 6.978a3 3 0 0 0 0 .47M2.857 6.513a3 3 0 0 0-.073.465M3.003 6.065a3 3 0 0 0-.146.448M3.217 5.646a3 3 0 0 0-.214.42M3.493 5.265a3 3 0 0 0-.276.38M5.074 4.296a3 3 0 0 0-.448.146M5.54 4.223a3 3 0 0 0-.466.073M6.01 4.223a3 3 0 0 0-.47 0M6.475 4.296a3 3 0 0 0-.465-.074M6.923 4.442a3 3 0 0 0-.448-.146M7.342 4.655a3 3 0 0 0-.42-.213M7.723 4.932a3 3 0 0 0-.38-.277" fill="none"/><path d="M8.056 5.265a3 3 0 0 0-.333-.333M8.332 5.646a3 3 0 0 0-.276-.381M8.546 6.065a3 3 0 0 0-.214-.42M8.692 6.513a3 3 0 0 0-.146-.448M8.765 6.978a3 3 0 0 0-.073-.465M8.774 7.213a3 3 0 0 0-.009-.235M.197 6.213H.113h.015M.197 8.213H.113h.015M11.352 8.213h.084-.015M11.352 6.213h.084-.015M3.775 1.013h-2.1M1.675 1.013a.3.3 0 0 0-.3.3M1.375 1.313v.65M1.375 12.463v.05M1.375 12.513a.1.1 0 0 0 .1.1M1.474 12.613h.05M10.025 12.613h.05M10.075 12.613a.1.1 0 0 0 .1-.1M10.175 12.513v-.05M10.175 1.963v-.65M10.175 1.313a.3.3 0 0 0-.3-.3M9.874 1.013h-2.1M1.675.913v.1M1.274 1.313h.1M1.274 12.513h.1M1.474 12.713v-.1M10.075 12.713v-.1M10.275 12.513h-.1M10.275 1.313h-.1M9.874.913v.1" fill="none"/><circle transform="scale(1 -1)" cx="5.774" cy="-7.213" r="3.6" fill="none"/><path d="M.858 6.213v2M.197 6.213v2M10.691 8.213v-2M11.352 8.213v-2M6.524.713h-1.5M4.024.713h-1.5M9.024.713h-1.5M9.175 7.213h.2" fill="none"/></g><g transform="matrix(393.7 0 0 -393.7 21008.999 2808.999)"><path d="M1.27-13.97V1.27h-2.54v-15.24z" fill="#1a1a1a" fill-rule="evenodd" stroke="#000"/><path d="M-.6.6V-.6H.6V.6z" fill="gray" fill-rule="evenodd" stroke="#000"/><path d="M.6-3.14v1.2H-.6v-1.2zM.6-5.68v1.2H-.6v-1.2zM-.6-13.3H.6v1.2H-.6zM-.6-10.76H.6v1.2H-.6zM-.6-8.22H.6v1.2H-.6z" fill="#666" fill-rule="evenodd" stroke="#000"/><path d="M-.6.6l.299-.299M-.6-.6l.299.299M-.301.301v-.602M.6.6L.301.301M.301.301h-.602M.6-.6l-.299.299M.301-.301v.602M-.301-.301h.602M-.6-3.14l.299.299M.6-3.14l-.299.299M-.301-2.841h.602M-.6-1.94l.299-.299M-.301-2.239v-.602M.6-1.94l-.299-.299M.301-2.239h-.602M.301-2.841v.602M.6-5.68l-.299.299M.6-4.48l-.299-.299M.301-5.381v.602M-.6-5.68l.299.299M-.301-5.381h.602M-.6-4.48l.299-.299M-.301-4.779v-.602M.301-4.779h-.602M-.6-12.1l.299-.299M-.6-13.3l.299.299M-.301-12.399v-.602M.6-12.1l-.299-.299M.301-12.399h-.602M.6-13.3l-.299.299M.301-13.001v.602M-.301-13.001h.602M-.6-10.76l.299.299M.6-10.76l-.299.299M-.301-10.461h.602M-.6-9.56l.299-.299M-.301-9.859v-.602M.6-9.56l-.299-.299M.301-9.859h-.602M.301-10.461v.602M.6-8.22l-.299.299M.6-7.02l-.299-.299M.301-7.921v.602M-.6-8.22l.299.299M-.301-7.921h.602M-.6-7.02l.299-.299M-.301-7.319v-.602M.301-7.319h-.602" fill="none" stroke="#000"/><path d="M.3-.3v.6h-.6v-.6zM-.3-2.84h.6v.6h-.6zM.3-5.38v.6h-.6v-.6zM.3-13v.6h-.6v-.6zM-.3-10.46h.6v.6h-.6zM.3-7.92v.6h-.6v-.6z" fill="olive" fill-rule="evenodd" stroke="#000"/><path d="M-.1.25V.3M-.1-.25v.5M-.1-.3v.05M.1-.3v.05M-.1-.25h.2M.1-.25v.5M.1.25V.3M-.1.25h.2M-.1-2.29v.05M-.1-2.79v.5M-.1-2.84v.05" fill="none" stroke="#000"/><path d="M.1-2.84v.05" fill="olive" fill-rule="evenodd" stroke="#000"/><path d="M-.1-2.79h.2M.1-2.79v.5M.1-2.29v.05M-.1-2.29h.2M-.1-4.83v.05M-.1-5.33v.5M-.1-5.38v.05M.1-5.38v.05M-.1-5.33h.2M.1-5.33v.5M.1-4.83v.05M-.1-4.83h.2M-.1-12.45v.05M-.1-12.95v.5M-.1-13v.05M.1-13v.05M-.1-12.95h.2M.1-12.95v.5M.1-12.45v.05M-.1-12.45h.2M-.1-9.91v.05M-.1-10.41v.5M-.1-10.46v.05M.1-10.46v.05M-.1-10.41h.2M.1-10.41v.5M.1-9.91v.05M-.1-9.91h.2M-.1-7.37v.05M-.1-7.87v.5M-.1-7.92v.05M.1-7.92v.05M-.1-7.87h.2M.1-7.87v.5M.1-7.37v.05M-.1-7.37h.2" fill="none" stroke="#000"/></g></g></svg>