<?xml version="1.0" encoding="UTF-8" standalone="no"?>
<svg
   width="581"
   height="112"
   viewBox="0 0 46598 9016.9"
   version="1.1"
   id="svg1514"
   sodipodi:docname="part.svg"
   inkscape:version="1.2.2 (b0a8486541, 2022-12-01)"
   xmlns:inkscape="http://www.inkscape.org/namespaces/inkscape"
   xmlns:sodipodi="http://sodipodi.sourceforge.net/DTD/sodipodi-0.dtd"
   xmlns="http://www.w3.org/2000/svg"
   xmlns:svg="http://www.w3.org/2000/svg">
  <defs
     id="defs1518">
    <mask
       maskUnits="userSpaceOnUse"
       id="mask7851">
      <g
         id="g7877"
         transform="translate(41785,12097)">
        <g
           id="g7875">
          <path
             fill="#ffffff"
             d="M -105,-17 H 46734 V 9644 H -105 Z"
             id="path7853" />
          <path
             stroke="#000000"
             stroke-linecap="round"
             stroke-width="393"
             d="m 45215,4203 v 0 m -1000,0 v 0 m 1000,1000 v 0 m -1000,0 v 0 m 1000,1000 v 0 m -1000,0 v 0 m 1000,1000 v 0 m -1000,0 v 0 m 1000,1000 v 0 m -1000,0 v 0"
             id="path7855" />
          <path
             stroke="#000000"
             stroke-linecap="round"
             stroke-width="433"
             d="m 24274,2580 v 0 m 1,1771 v 0 M 21715,2579 v 0 m 0,1772 v 0 m 7600,-1748 v 0 m 0,1772 v 0 M 26755,2603 v 0 m 0,1772 v 0 m 7520,-1772 v 0 m -1,1771 v 0 M 31715,2603 v 0 m 0,1772 v 0"
             id="path7857" />
          <path
             stroke="#000000"
             stroke-linecap="round"
             stroke-width="275"
             d="m 25615,603 v 0 m 0,2000 v 0 M 30615,603 v 0 m 0,2000 v 0"
             id="path7859" />
          <path
             stroke="#000000"
             stroke-linecap="round"
             stroke-width="433"
             d="m 39174,2580 v 0 m 1,1771 v 0 M 36615,2579 v 0 m 0,1772 v 0 M 19215,2579 v 0 m 0,1772 v 0 M 16655,2579 v 0 m 0,1772 v 0"
             id="path7861" />
          <path
             stroke="#000000"
             stroke-linecap="round"
             stroke-width="275"
             d="m 20615,603 v 0 m 0,2000 v 0 M 5515,603 v 0 m 0,2000 v 0"
             id="path7863" />
          <path
             stroke="#000000"
             stroke-linecap="round"
             stroke-width="354"
             d="m 41047,1303 v 0 m 984,0 v 0 m 984,0 v 0 m -1968,1300 v 0 m 984,0 v 0 m 984,0 v 0"
             id="path7865" />
          <path
             stroke="#000000"
             stroke-linecap="round"
             stroke-width="433"
             d="m 4215,2603 v 0 m 0,1772 v 0 M 1655,2603 v 0 m 0,1772 v 0"
             id="path7867" />
          <path
             stroke="#000000"
             stroke-linecap="round"
             stroke-width="275"
             d="m 35515,603 v 0 m 0,2000 v 0"
             id="path7869" />
          <path
             stroke="#000000"
             stroke-linecap="round"
             stroke-width="433"
             d="m 14174,2580 v 0 m 1,1771 v 0 M 11615,2579 v 0 m 0,1772 v 0 M 9215,2579 v 0 m 0,1772 v 0 M 6655,2579 v 0 m 0,1772 v 0"
             id="path7871" />
          <path
             stroke="#000000"
             stroke-linecap="round"
             stroke-width="275"
             d="m 515,603 v 0 m 0,2000 v 0 M 10515,603 v 0 m 0,2000 v 0 M 15515,603 v 0 m 0,2000 v 0"
             id="path7873" />
        </g>
      </g>
    </mask>
    <clipPath
       clipPathUnits="userSpaceOnUse"
       id="clipPath7907">
      <g
         id="g7913"
         transform="translate(41785,12097)">
        <g
           id="g7911">
          <path
             d="M 46715,3 H -85 V 9003 H 46715 V 3"
             fill-rule="evenodd"
             id="path7909" />
        </g>
      </g>
    </clipPath>
  </defs>
  <sodipodi:namedview
     id="namedview1516"
     pagecolor="#ffffff"
     bordercolor="#666666"
     borderopacity="1.0"
     inkscape:showpageshadow="2"
     inkscape:pageopacity="0.0"
     inkscape:pagecheckerboard="0"
     inkscape:deskcolor="#d1d1d1"
     showgrid="false"
     inkscape:zoom="2.1071429"
     inkscape:cx="251.76271"
     inkscape:cy="55.999999"
     inkscape:window-width="1920"
     inkscape:window-height="1025"
     inkscape:window-x="0"
     inkscape:window-y="0"
     inkscape:window-maximized="1"
     inkscape:current-layer="svg1514" />
  <rect
     style="fill:#313d63;fill-opacity:1;stroke:#000000;stroke-width:1.3927;stroke-dasharray:none"
     id="rect8030"
     width="46748.02"
     height="9015.5068"
     x="-62.130016"
     y="0.69635189" />
  <g
     fill-opacity="0"
     stroke-linecap="round"
     stroke-linejoin="round"
     stroke-width="39.37"
     fill="none"
     stroke="#000000"
     id="g11"
     transform="translate(-41785,-12097)"
     mask="url(#mask7851)"
     clip-path="url(#clipPath7907)" />
  <rect
     style="fill:#ffffff;stroke:#000000;stroke-width:0.588305;stroke-dasharray:none"
     id="rect7976"
     width="6577.9277"
     height="3188.6836"
     x="37671.254"
     y="815.65051" />
</svg>
