<svg width="183" height="245" version="1.1" viewBox="0 0 14753 19734" xmlns="http://www.w3.org/2000/svg">
 <g transform="translate(-44798,-17909)" fill="#313d63" stroke="#313d63">
  <path d="m44800 17900v19700h14700v-19700h-14700" fill-rule="evenodd"/>
  <g fill="none" fill-opacity="0" stroke="#000" stroke-linecap="round" stroke-linejoin="round" stroke-width="19.685">
   <path d="m59500 17900h-14700m14700 19700v-19700m-14700 19700h14700m-14700-19700v19700"/>
  </g>
 </g>
 <g fill-opacity="0" stroke-linecap="round" stroke-linejoin="round">
  <g stroke="#f0f0f0">
   <g transform="translate(-44798,-17909)" fill="none" stroke-width="295.28">
    <path d="m52815 20284h-562v-1181m956 1181v-1181l394 843 393-843v1181m450-1181h732l-394 450h169l112 56 56 56 57 113v281l-57 112-56 57-112 56h-338l-112-56-57-57m1800-1068h-562l-57 562 57-56 112-56h281l113 56 56 56 56 113v281l-56 112-56 57-113 56h-281l-112-56-57-57"/>
   </g>
   <g transform="translate(-44798,-17909)" stroke-width="147.64">
    <path d="m56876 37362v-366l225 197v-84l28-57 28-28 57-28h140l56 28 29 28 28 57v168l-28 57-29 28m-168-619v-450m-338-590-28 56v84l28 85 56 56 57 28 112 28h85l112-28 56-28 57-56 28-85v-56l-28-84-29-28h-196v112m253-366h-591l591-337h-591m591-281h-591v-141l28-84 56-56 57-29 112-28h85l112 28 56 29 57 56 28 84v141m-3335 2474-28-28-28-56v-141l28-56 28-28 57-28h56l84 28 338 338v-366m-225-253v-450m-366-394v-112l28-56 56-57 113-28h197l112 28 57 57 28 56v112l-28 57-57 56-112 28h-197l-113-28-56-56-28-57m0-506h478l56-28 29-28 28-56v-113l-28-56-29-28-56-28h-478m0-197v-338m591 169h-591m-2209 2306v337m0-168h-591l84 56 57 56 28 56m197-590v-450m-366-197 591-197-591-197m534-534 29 28 28 85v56l-28 84-57 56-56 29-112 28h-85l-112-28-57-29-56-56-28-84v-56l28-85 28-28m478-590 29 28 28 84v56l-28 85-57 56-56 28-112 28h-85l-112-28-57-28-56-56-28-85v-56l28-84 28-28" fill="none"/>
   </g>
   <g transform="translate(-44798,-17909)" fill="none" stroke-width="47.244">
    <path d="m53021 22541v1417m5 16a1023.6 1023.6 0 0 0 1747.4-723.8m0.6-0.2a1023.6 1023.6 0 0 0-1747.4-723.8m4699.4 473.8h1047m-1047 0v2023h1047m0-2023v2023m0-3047v524m-523-524h523"/>
   </g>
  </g>
  <g transform="translate(-44798,-17909)" fill="none" stroke="#000" stroke-width="19.685">
   <path d="m59500 17900h-14700m14700 19700v-19700m-14700 19700h14700m-14700-19700v19700"/>
  </g>
 </g>
 <g fill-rule="evenodd" stroke="#000">
  <path d="m8428.9 4547.4v1586.8c631.96 416.98 1473.9-36.273 1473.9-793.39 0-757.12-841.98-1210.4-1473.9-793.39z" fill="#1a1a1a" stroke-width="36.448"/>
  <path d="m13952 7090.9v-3e3h-1e3v3e3z" fill="#1a1a1a" stroke-width="36.458"/>
  <path d="m13688 4826.9v-472.44h-472.44v472.44z" fill="#666" stroke-width="36.614"/>
 </g>
 <g stroke="#000" stroke-width="36.614">
  <path d="m13216 4354.5 117.72 117.72m-117.72 354.72 117.72-117.72m0-237.01v237.01m354.72-354.72-117.72 117.72h-237.01m354.72 354.72-117.72-117.72v-237.01m-237.01 237.01h237.01" fill="none"/>
  <path d="m13570 4708.8v-236.22h-236.22v236.22z" fill="#808000" fill-rule="evenodd"/>
  <path d="m13413 4492.3v-19.685m0 216.54v-196.85m0 216.54v-19.685m78.74 19.685v-19.685m-78.74 0h78.74v-216.54m-78.74 19.685h78.74" fill="none"/>
  <path d="m13688 5826.9v-472.44h-472.44v472.44z" fill="#666" fill-rule="evenodd"/>
  <path d="m13216 5354.5 117.72 117.72m-117.72 354.72 117.72-117.72m0-237.01v237.01m354.72-354.72-117.72 117.72h-237.01m354.72 354.72-117.72-117.72v-237.01m-237.01 237.01h237.01" fill="none"/>
  <path d="m13570 5708.8v-236.22h-236.22v236.22z" fill="#808000" fill-rule="evenodd"/>
  <path d="m13413 5492.3v-19.685m0 216.54v-196.85m0 216.54v-19.685m78.74 19.685v-19.685m-78.74 0h78.74v-216.54m-78.74 19.685h78.74" fill="none"/>
  <path d="m13688 6826.9v-472.44h-472.44v472.44z" fill="#666" fill-rule="evenodd"/>
  <path d="m13216 6354.5 117.72 117.72m-117.72 354.72 117.72-117.72m0-237.01v237.01m354.72-354.72-117.72 117.72h-237.01m354.72 354.72-117.72-117.72v-237.01m-237.01 237.01h237.01" fill="none"/>
  <path d="m13570 6708.8v-236.22h-236.22v236.22z" fill="#808000" fill-rule="evenodd"/>
  <path d="m13413 6492.3v-19.685m0 216.54v-196.85m0 216.54v-19.685m78.74 19.685v-19.685m-78.74 0h78.74v-216.54m-78.74 19.685h78.74" fill="none"/>
 </g>
</svg>
