<svg width="271" height="197" viewBox="0 0 21751 15809" xmlns="http://www.w3.org/2000/svg"><g clip-path="url(#a)" mask="url(#b)" transform="translate(-35626 -15351)"><defs><clipPath id="a"><path d="M35629 31102V15354h21654v15748H35629" fill-rule="evenodd"/></clipPath></defs><g fill="#313d63" stroke="#313d63"><path d="M35629 31102V15354h21654v15748H35629" fill-rule="evenodd"/><g fill-opacity="0" stroke-linecap="round" stroke-linejoin="round" stroke-width="19.685" fill="none" stroke="#000"><path d="M57283 31102H35629M57283 15354v15748M35629 15354h21654M35629 31102V15354"/></g></g><g fill-opacity="1" stroke="none" stroke-linecap="round" stroke-linejoin="round" stroke-width="0" fill="#9c6b28"><circle cx="52165" cy="29724" r="393.7"/><circle cx="52165" cy="27953" r="393.7"/><circle cx="54724" cy="29724" r="393.7"/><circle cx="54724" cy="27953" r="393.7"/><circle cx="41264" cy="22236" r="300"/><circle cx="41280" cy="24264" r="300"/><circle cx="36287" cy="22232" r="300"/><circle cx="36280" cy="24244" r="300"/><circle cx="51106" cy="22236" r="300"/><circle cx="51122" cy="24264" r="300"/><circle cx="46130" cy="22232" r="300"/><circle cx="46122" cy="24244" r="300"/><circle cx="41216" cy="29142" r="300"/><circle cx="41201" cy="27114" r="300"/><circle cx="46193" cy="29146" r="300"/><circle cx="46201" cy="27134" r="300"/><circle cx="41216" cy="19299" r="300"/><circle cx="41201" cy="17272" r="300"/><circle cx="46193" cy="19303" r="300"/><circle cx="46201" cy="17291" r="300"/><circle cx="50197" cy="27724" r="275.59"/><circle cx="50197" cy="29724" r="275.59"/><circle cx="44685" cy="25032" r="275.59"/><circle cx="44685" cy="23032" r="275.59"/><circle cx="43504" cy="23000" r="275.59"/><circle cx="43504" cy="25000" r="275.59"/><circle cx="42323" cy="21228" r="275.59"/><circle cx="42323" cy="23228" r="275.59"/><circle cx="52787" cy="16339" r="275.59"/><circle cx="50787" cy="16339" r="275.59"/><circle cx="54331" cy="16339" r="334.65"/><circle cx="55331" cy="16339" r="334.65"/><path d="M55996 16004h669.3v669.3H55996z" fill-rule="evenodd"/></g><g fill="#212d53" stroke="#212d53" stroke-linecap="round" stroke-linejoin="round" stroke-width="0"><g fill-opacity="1" stroke="none"><circle cx="52165" cy="29724" r="393.7"/><circle cx="52165" cy="27953" r="393.7"/><circle cx="54724" cy="29724" r="393.7"/><circle cx="54724" cy="27953" r="393.7"/><circle cx="41264" cy="22236" r="300"/><circle cx="41280" cy="24264" r="300"/><circle cx="36287" cy="22232" r="300"/><circle cx="36280" cy="24244" r="300"/><circle cx="51106" cy="22236" r="300"/><circle cx="51122" cy="24264" r="300"/><circle cx="46130" cy="22232" r="300"/><circle cx="46122" cy="24244" r="300"/><circle cx="41216" cy="29142" r="300"/><circle cx="41201" cy="27114" r="300"/><circle cx="46193" cy="29146" r="300"/><circle cx="46201" cy="27134" r="300"/><circle cx="41216" cy="19299" r="300"/><circle cx="41201" cy="17272" r="300"/><circle cx="46193" cy="19303" r="300"/><circle cx="46201" cy="17291" r="300"/><circle cx="50197" cy="27724" r="275.59"/><circle cx="50197" cy="29724" r="275.59"/><circle cx="44685" cy="25032" r="275.59"/><circle cx="44685" cy="23032" r="275.59"/><circle cx="43504" cy="23000" r="275.59"/><circle cx="43504" cy="25000" r="275.59"/><circle cx="42323" cy="21228" r="275.59"/><circle cx="42323" cy="23228" r="275.59"/><circle cx="52787" cy="16339" r="275.59"/><circle cx="50787" cy="16339" r="275.59"/><circle cx="54331" cy="16339" r="334.65"/><circle cx="55331" cy="16339" r="334.65"/><path d="M55996 16004h669.3v669.3H55996z" fill-rule="evenodd"/></g><g stroke="none"><circle cx="52165" cy="29724" r="68.898"/><circle cx="52165" cy="27953" r="68.898"/><circle cx="54724" cy="29724" r="68.898"/><circle cx="54724" cy="27953" r="68.898"/><circle cx="41264" cy="22236" r="68.898"/><circle cx="41280" cy="24264" r="68.898"/><circle cx="36287" cy="22232" r="68.898"/><circle cx="36280" cy="24244" r="68.898"/><circle cx="51106" cy="22236" r="68.898"/><circle cx="51122" cy="24264" r="68.898"/><circle cx="46130" cy="22232" r="68.898"/><circle cx="46122" cy="24244" r="68.898"/><circle cx="41216" cy="29142" r="68.898"/><circle cx="41201" cy="27114" r="68.898"/><circle cx="46193" cy="29146" r="68.898"/><circle cx="46201" cy="27134" r="68.898"/><circle cx="41216" cy="19299" r="68.898"/><circle cx="41201" cy="17272" r="68.898"/><circle cx="46193" cy="19303" r="68.898"/><circle cx="46201" cy="17291" r="68.898"/><circle cx="50197" cy="27724" r="68.898"/><circle cx="50197" cy="29724" r="68.898"/><circle cx="44685" cy="25032" r="68.898"/><circle cx="44685" cy="23032" r="68.898"/><circle cx="43504" cy="23000" r="68.898"/><circle cx="43504" cy="25000" r="68.898"/><circle cx="42323" cy="21228" r="68.898"/><circle cx="42323" cy="23228" r="68.898"/><circle cx="52787" cy="16339" r="68.898"/><circle cx="50787" cy="16339" r="68.898"/><circle cx="54331" cy="16339" r="68.898"/><circle cx="55331" cy="16339" r="68.898"/><circle cx="56331" cy="16339" r="68.898"/></g></g><g fill="#b5ae30" mask="url(#c)" stroke="#b5ae30" stroke-linecap="round" stroke-linejoin="round" stroke-width="0"><g fill-opacity="1" stroke="none"><circle cx="52165" cy="29724" r="393.7"/><circle cx="52165" cy="27953" r="393.7"/><circle cx="54724" cy="29724" r="393.7"/><circle cx="54724" cy="27953" r="393.7"/><circle cx="41264" cy="22236" r="300"/><circle cx="41280" cy="24264" r="300"/><circle cx="36287" cy="22232" r="300"/><circle cx="36280" cy="24244" r="300"/><circle cx="51106" cy="22236" r="300"/><circle cx="51122" cy="24264" r="300"/><circle cx="46130" cy="22232" r="300"/><circle cx="46122" cy="24244" r="300"/><circle cx="41216" cy="29142" r="300"/><circle cx="41201" cy="27114" r="300"/><circle cx="46193" cy="29146" r="300"/><circle cx="46201" cy="27134" r="300"/><circle cx="41216" cy="19299" r="300"/><circle cx="41201" cy="17272" r="300"/><circle cx="46193" cy="19303" r="300"/><circle cx="46201" cy="17291" r="300"/><circle cx="50197" cy="27724" r="275.59"/><circle cx="50197" cy="29724" r="275.59"/><circle cx="44685" cy="25032" r="275.59"/><circle cx="44685" cy="23032" r="275.59"/><circle cx="43504" cy="23000" r="275.59"/><circle cx="43504" cy="25000" r="275.59"/><circle cx="42323" cy="21228" r="275.59"/><circle cx="42323" cy="23228" r="275.59"/><circle cx="52787" cy="16339" r="275.59"/><circle cx="50787" cy="16339" r="275.59"/><circle cx="54331" cy="16339" r="334.65"/><circle cx="55331" cy="16339" r="334.65"/><path d="M55996 16004h669.3v669.3H55996z" fill-rule="evenodd"/></g><g stroke="none"><circle cx="52165" cy="29724" r="68.898"/><circle cx="52165" cy="27953" r="68.898"/><circle cx="54724" cy="29724" r="68.898"/><circle cx="54724" cy="27953" r="68.898"/><circle cx="41264" cy="22236" r="68.898"/><circle cx="41280" cy="24264" r="68.898"/><circle cx="36287" cy="22232" r="68.898"/><circle cx="36280" cy="24244" r="68.898"/><circle cx="51106" cy="22236" r="68.898"/><circle cx="51122" cy="24264" r="68.898"/><circle cx="46130" cy="22232" r="68.898"/><circle cx="46122" cy="24244" r="68.898"/><circle cx="41216" cy="29142" r="68.898"/><circle cx="41201" cy="27114" r="68.898"/><circle cx="46193" cy="29146" r="68.898"/><circle cx="46201" cy="27134" r="68.898"/><circle cx="41216" cy="19299" r="68.898"/><circle cx="41201" cy="17272" r="68.898"/><circle cx="46193" cy="19303" r="68.898"/><circle cx="46201" cy="17291" r="68.898"/><circle cx="50197" cy="27724" r="68.898"/><circle cx="50197" cy="29724" r="68.898"/><circle cx="44685" cy="25032" r="68.898"/><circle cx="44685" cy="23032" r="68.898"/><circle cx="43504" cy="23000" r="68.898"/><circle cx="43504" cy="25000" r="68.898"/><circle cx="42323" cy="21228" r="68.898"/><circle cx="42323" cy="23228" r="68.898"/><circle cx="52787" cy="16339" r="68.898"/><circle cx="50787" cy="16339" r="68.898"/><circle cx="54331" cy="16339" r="68.898"/><circle cx="55331" cy="16339" r="68.898"/><circle cx="56331" cy="16339" r="68.898"/></g></g><defs><mask id="c"><g fill="#fff" fill-opacity="1" stroke="#fff" stroke-linecap="round" stroke-linejoin="round" stroke-width="0"><circle cx="52165" cy="29724" r="393.7"/><circle cx="52165" cy="27953" r="393.7"/><circle cx="54724" cy="29724" r="393.7"/><circle cx="54724" cy="27953" r="393.7"/><circle cx="41264" cy="22236" r="300"/><circle cx="41280" cy="24264" r="300"/><circle cx="36287" cy="22232" r="300"/><circle cx="36280" cy="24244" r="300"/><circle cx="51106" cy="22236" r="300"/><circle cx="51122" cy="24264" r="300"/><circle cx="46130" cy="22232" r="300"/><circle cx="46122" cy="24244" r="300"/><circle cx="41216" cy="29142" r="300"/><circle cx="41201" cy="27114" r="300"/><circle cx="46193" cy="29146" r="300"/><circle cx="46201" cy="27134" r="300"/><circle cx="41216" cy="19299" r="300"/><circle cx="41201" cy="17272" r="300"/><circle cx="46193" cy="19303" r="300"/><circle cx="46201" cy="17291" r="300"/><circle cx="50197" cy="27724" r="275.59"/><circle cx="50197" cy="29724" r="275.59"/><circle cx="44685" cy="25032" r="275.59"/><circle cx="44685" cy="23032" r="275.59"/><circle cx="43504" cy="23000" r="275.59"/><circle cx="43504" cy="25000" r="275.59"/><circle cx="42323" cy="21228" r="275.59"/><circle cx="42323" cy="23228" r="275.59"/><circle cx="52787" cy="16339" r="275.59"/><circle cx="50787" cy="16339" r="275.59"/><circle cx="54331" cy="16339" r="334.65"/><circle cx="55331" cy="16339" r="334.65"/><path d="M55996 16004h669.3v669.3H55996z" fill-rule="evenodd"/></g></mask></defs><defs><mask id="d"><g fill-opacity="1" stroke="#000" stroke-linecap="round" stroke-linejoin="round" stroke-width="0"><circle cx="52165" cy="29724" r="393.7"/><circle cx="52165" cy="27953" r="393.7"/><circle cx="54724" cy="29724" r="393.7"/><circle cx="54724" cy="27953" r="393.7"/><circle cx="41264" cy="22236" r="300"/><circle cx="41280" cy="24264" r="300"/><circle cx="36287" cy="22232" r="300"/><circle cx="36280" cy="24244" r="300"/><circle cx="51106" cy="22236" r="300"/><circle cx="51122" cy="24264" r="300"/><circle cx="46130" cy="22232" r="300"/><circle cx="46122" cy="24244" r="300"/><circle cx="41216" cy="29142" r="300"/><circle cx="41201" cy="27114" r="300"/><circle cx="46193" cy="29146" r="300"/><circle cx="46201" cy="27134" r="300"/><circle cx="41216" cy="19299" r="300"/><circle cx="41201" cy="17272" r="300"/><circle cx="46193" cy="19303" r="300"/><circle cx="46201" cy="17291" r="300"/><circle cx="50197" cy="27724" r="275.59"/><circle cx="50197" cy="29724" r="275.59"/><circle cx="44685" cy="25032" r="275.59"/><circle cx="44685" cy="23032" r="275.59"/><circle cx="43504" cy="23000" r="275.59"/><circle cx="43504" cy="25000" r="275.59"/><circle cx="42323" cy="21228" r="275.59"/><circle cx="42323" cy="23228" r="275.59"/><circle cx="52787" cy="16339" r="275.59"/><circle cx="50787" cy="16339" r="275.59"/><circle cx="54331" cy="16339" r="334.65"/><circle cx="55331" cy="16339" r="334.65"/><path d="M55996 16004h669.3v669.3H55996z" fill-rule="evenodd"/></g><path fill="#fff" d="M35620 15206h22152v16050H35620z"/></mask></defs><g fill="none" fill-opacity="0" mask="url(#d)" stroke="#f0f0f0" stroke-linecap="round" stroke-linejoin="round"><g stroke-width="147.64"><path d="M52376 19980l-56-28h-85l-84 28-56 56-29 56-28 113v84l28 113 29 56 56 56 84 28h56l85-28 28-28v-197h-113M52657 20149v393M52657 20205l28-28 56-28h85l56 28 28 56v309M53444 20542v-590M53444 20514l-56 28h-112l-57-28-28-28-28-56v-169l28-56 28-28 57-28h112l56 28M52052 18180l197 591 197-591M52896 18742l-56 29h-113l-56-29-28-28-28-56v-169l28-56 28-28 56-28h113l56 28M53402 18742l-56 29h-113l-56-29-28-28-28-56v-169l28-56 28-28 56-28h113l56 28"/></g><g stroke-width="47.244"><path d="M54330 27559h-1771M54822 29133v-590M52559 30118h1771M52066 28543v590"/></g><g stroke-width="62.992"><circle cx="38790" cy="23217" r="2509.8"/><path d="M36381 20892v4705M41156 20892h-4775M41156 25597v-4705M36381 25597h4775"/><circle cx="48633" cy="23217" r="2509.8"/><path d="M46224 20892v4705M50999 20892h-4775M50999 25597v-4705M46224 25597h4775M46098 25780h-4775M41323 25780v4705M41323 30485h4775M46098 30485v-4705"/><circle cx="43690" cy="28161" r="2509.8"/><path d="M46098 15937h-4775M41323 15937v4705M41323 20642h4775M46098 20642v-4705"/><circle cx="43690" cy="18318" r="2509.8"/></g><g stroke-width="47.244"><path d="M49834 29480v-1512M50559 29480v-1512M45047 23275v1512M44322 23275v1512M43141 24755v-1511M43866 24755v-1511M41960 22984v-1512M42685 22984v-1512M51031 15976h1512M51031 16700h1512M55830 15814v1048M55830 15814h-2023M53807 15814v1048M55830 16862h-2023M56854 16862h-524M56854 16338v524"/></g></g><g fill-opacity="0" stroke-linecap="round" stroke-linejoin="round" stroke-width="19.685" fill="none" stroke="#000"><path d="M57283 31102H35629M57283 15354v15748M35629 15354h21654M35629 31102V15354"/></g><defs><mask id="b"><path fill="#fff" d="M35620 15206h22152v16050H35620z"/><path stroke="#000" stroke-linecap="round" stroke-width="433" d="M52164 29724h0M52164 27952h0M54724 29724h0M54724 27952h0"/><path stroke="#000" stroke-linecap="round" stroke-width="300" d="M41263 22236h0M41279 24263h0M36287 22232h0M36279 24244h0M51106 22236h0M51122 24263h0M46129 22232h0M46122 24244h0M41216 29140h0M41200 27114h0M46192 29144h0M46200 27132h0M41216 19299h0M41200 17271h0M46192 19303h0M46200 17291h0"/><path stroke="#000" stroke-linecap="round" stroke-width="275" d="M50196 27724h0M50196 29724h0M44685 25031h0M44685 23031h0M43504 23000h0M43503.5 25000.5h0M42322 21228h0M42322 23228h0M52787 16338h0M50787 16338h0"/><path stroke="#000" stroke-linecap="round" stroke-width="393" d="M54330 16338h0M55330 16338h0M56330 16338h0"/></mask></defs></g><g stroke-width=".093"><g transform="matrix(-393.7 0 0 393.7 19097.615 14373.072)"><path d="M.45.75h5.4a.3.3 0 0 0 .3-.3v-5.4a.3.3 0 0 0-.3-.3H.45a.3.3 0 0 0-.3.3v5.4a.3.3 0 0 0 .3.3z" fill="#666" fill-rule="evenodd" stroke="#191919"/><circle cx="1.15" cy="-4.25" r=".5" fill="#1a1a1a" stroke="#191919"/><circle cx="5.15" cy="-4.25" r=".5" fill="#1a1a1a" stroke="#191919"/><circle cx="1.15" cy="-.25" r=".5" fill="#1a1a1a" stroke="#191919"/><circle cx="5.15" cy="-.25" r=".5" fill="#1a1a1a" stroke="#191919"/><circle cx="3.15" cy="-2.25" r="1.75" fill="none" stroke="#191919"/><path d="M-.425.35h-.012M.14.35h.01M-.162.35h.012M.14-.35h.01" fill="none" stroke="#191919"/><path d="M-.162-.35h-.275v.7h.275z" fill="#ccc" fill-rule="evenodd" stroke="#191919"/><path d="M-.425-.35h-.012" fill="none" stroke="#191919"/><path d="M-.15-.35h.29v.7h-.29" fill="#ccc" fill-rule="evenodd" stroke="#191919"/><path d="M-.162-.35h.012M-.425-4.85h-.012M.14-4.85h.01M-.162-4.85h.012M-.425-4.15h-.012M.14-4.15h.01M-.162-4.15h.012M6.725-4.85h.012M6.16-4.85h-.01" fill="none" stroke="#191919"/><path d="M6.45-4.85h-.29v.7h.577v-.7h-.275z" fill="#ccc" fill-rule="evenodd" stroke="#191919"/><path d="M6.462-4.85H6.45M6.16-4.15h-.01M6.725-4.15h.012M6.462-4.15H6.45M6.725.35h.012M6.16.35h-.01" fill="none" stroke="#191919"/><path d="M6.45.35h-.29v-.7h.577v.7h-.275z" fill="#ccc" fill-rule="evenodd" stroke="#191919"/><path d="M6.462.35H6.45M6.725-.35h.012M6.16-.35h-.01M6.462-.35H6.45M-.15-.35v.7M-.15-4.85v.7M6.45-4.85v.7M6.45-.35v.7" fill="none" stroke="#191919"/><circle cx="3.15" cy="-2.25" r="1.75" fill="none" stroke="#191919"/><circle cx="3.15" cy="-2.25" r="1.65" fill="#1a1a1a" stroke="#191919"/><path d="M-.425-.35v.7M-.425-4.85v.7M6.462-4.85v.7M6.725-4.85v.7M6.462-.35v.7M6.725-.35v.7M4.8-2.25h.1" fill="none" stroke="#191919"/><path d="M-.437-4.85v.7H.14v-.7h-.565z" fill="#ccc" fill-rule="evenodd" stroke="#191919"/><path d="M-.162-4.85v.7" fill="none" stroke="#191919"/></g></g><g transform="translate(459 5267) scale(393.7)" stroke="#000" stroke-width=".093"><path d="M9.325 12.636h-7.41l-1.08-1.079V9.112h0V4.146h0V1.701L1.915.62h9.856l1.079 1.08v9.856l-1.08 1.079H9.326z" fill="#1a1a1a"/><path d="M1.783 11.576v-.866M1.783 2.549v-.867M11.902 11.576h-.843M2.626 11.576h-.843M11.902 1.682v.867M11.902 10.709v.866M1.783 1.682h.843M11.059 1.682h.843" fill="none"/><path d="M.134 4.622H.66l.175.004v-1.02H.158h0-.024v1.016zM.134 9.652h.701V8.636H.66v0H.158h0-.024V9.65zM13.527 4.622h-.502v0l-.175-.002V3.606H13.55v1.016h-.024zM13.386 8.636h.165v1.016h-.024 0-.677v-1.02l.175.004v0h.361z" fill="#ccc" fill-rule="evenodd"/><circle transform="scale(1 -1)" cx="6.842" cy="-6.629" r="6.5" fill="#000079"/><circle transform="scale(1 -1)" cx="6.842" cy="-6.629" r="6" fill="#00008b"/><path d="M.3 4.622V3.606M.3 9.652V8.636M13.386 3.606v1.016M13.386 8.636v1.016M.158 3.606v1.016M.158 8.636v1.016M13.527 3.606v1.016M13.527 8.636v1.016" fill="none"/><circle transform="scale(1 -1)" cx="6.842" cy="-6.629" r="5.75" fill="#0000b3"/><circle transform="scale(1 -1)" cx="6.842" cy="-6.629" r="4.75" fill="#0000d6"/></g><g transform="translate(10302 5267) scale(393.7)" stroke="#000" stroke-width=".093"><path d="M9.325 12.636h-7.41l-1.08-1.079V9.112h0V4.146h0V1.701L1.915.62h9.856l1.079 1.08v9.856l-1.08 1.079H9.326z" fill="#1a1a1a"/><path d="M1.783 11.576v-.866M1.783 2.549v-.867M11.902 11.576h-.843M2.626 11.576h-.843M11.902 1.682v.867M11.902 10.709v.866M1.783 1.682h.843M11.059 1.682h.843" fill="none"/><path d="M.134 4.622H.66l.175.004v-1.02H.158h0-.024v1.016zM.134 9.652h.701V8.636H.66v0H.158h0-.024V9.65zM13.527 4.622h-.502v0l-.175-.002V3.606H13.55v1.016h-.024zM13.386 8.636h.165v1.016h-.024 0-.677v-1.02l.175.004v0h.361z" fill="#ccc" fill-rule="evenodd"/><circle transform="scale(1 -1)" cx="6.842" cy="-6.629" r="6.5" fill="#000079"/><circle transform="scale(1 -1)" cx="6.842" cy="-6.629" r="6" fill="#00008b"/><path d="M.3 4.622V3.606M.3 9.652V8.636M13.386 3.606v1.016M13.386 8.636v1.016M.158 3.606v1.016M.158 8.636v1.016M13.527 3.606v1.016M13.527 8.636v1.016" fill="none"/><circle transform="scale(1 -1)" cx="6.842" cy="-6.629" r="5.75" fill="#0000b3"/><circle transform="scale(1 -1)" cx="6.842" cy="-6.629" r="4.75" fill="#0000d6"/></g><g transform="rotate(180 5384 7704) scale(393.7)" stroke="#000" stroke-width=".093"><path d="M9.325 12.636h-7.41l-1.08-1.079V9.112h0V4.146h0V1.701L1.915.62h9.856l1.079 1.08v9.856l-1.08 1.079H9.326z" fill="#1a1a1a"/><path d="M1.783 11.576v-.866M1.783 2.549v-.867M11.902 11.576h-.843M2.626 11.576h-.843M11.902 1.682v.867M11.902 10.709v.866M1.783 1.682h.843M11.059 1.682h.843" fill="none"/><path d="M.134 4.622H.66l.175.004v-1.02H.158h0-.024v1.016zM.134 9.652h.701V8.636H.66v0H.158h0-.024V9.65zM13.527 4.622h-.502v0l-.175-.002V3.606H13.55v1.016h-.024zM13.386 8.636h.165v1.016h-.024 0-.677v-1.02l.175.004v0h.361z" fill="#ccc" fill-rule="evenodd"/><circle transform="scale(1 -1)" cx="6.842" cy="-6.629" r="6.5" fill="#989800"/><circle transform="scale(1 -1)" cx="6.842" cy="-6.629" r="6" fill="#aeae00"/><path d="M.3 4.622V3.606M.3 9.652V8.636M13.386 3.606v1.016M13.386 8.636v1.016M.158 3.606v1.016M.158 8.636v1.016M13.527 3.606v1.016M13.527 8.636v1.016" fill="none"/><circle transform="scale(1 -1)" cx="6.842" cy="-6.629" r="5.75" fill="#c7c700"/><circle transform="scale(1 -1)" cx="6.842" cy="-6.629" r="4.75" fill="#f4f400"/></g><g transform="rotate(180 5384 2783) scale(393.7)" stroke="#000" stroke-width=".093"><path d="M9.325 12.636h-7.41l-1.08-1.079V9.112h0V4.146h0V1.701L1.915.62h9.856l1.079 1.08v9.856l-1.08 1.079H9.326z" fill="#1a1a1a"/><path d="M1.783 11.576v-.866M1.783 2.549v-.867M11.902 11.576h-.843M2.626 11.576h-.843M11.902 1.682v.867M11.902 10.709v.866M1.783 1.682h.843M11.059 1.682h.843" fill="none"/><path d="M.134 4.622H.66l.175.004v-1.02H.158h0-.024v1.016zM.134 9.652h.701V8.636H.66v0H.158h0-.024V9.65zM13.527 4.622h-.502v0l-.175-.002V3.606H13.55v1.016h-.024zM13.386 8.636h.165v1.016h-.024 0-.677v-1.02l.175.004v0h.361z" fill="#ccc" fill-rule="evenodd"/><circle transform="scale(1 -1)" cx="6.842" cy="-6.629" r="6.5" fill="#989800"/><circle transform="scale(1 -1)" cx="6.842" cy="-6.629" r="6" fill="#aeae00"/><path d="M.3 4.622V3.606M.3 9.652V8.636M13.386 3.606v1.016M13.386 8.636v1.016M.158 3.606v1.016M.158 8.636v1.016M13.527 3.606v1.016M13.527 8.636v1.016" fill="none"/><circle transform="scale(1 -1)" cx="6.842" cy="-6.629" r="5.75" fill="#c7c700"/><circle transform="scale(1 -1)" cx="6.842" cy="-6.629" r="4.75" fill="#f4f400"/></g><g transform="scale(393.7) rotate(-90 36.758 -.25)" fill="#faa" stroke-width=".093"><path d="M1.14.8V-.8M3.94.8V-.8M1.14-.8c-.24.021-.374.155-.4.4v.8c0 .22.18.4.4.4h.5V-.8zM3.44-.8V.8h.5a.4.4 0 0 0 .4-.4v-.8c-.026-.245-.16-.379-.4-.4z" fill-rule="evenodd" stroke="#191919"/><path d="M4.34.25h.74c.333 0 .333-.5 0-.5h-.74 0z" fill="#999" fill-rule="evenodd" stroke="#191919"/></g><path d="M14471.228 14082.017h196.85v291.338c0 131.232-196.85 131.232-196.85 0z" fill="#999" stroke="#1a1a1a" stroke-width="36.6141"/><path d="M14286.189 13019.027h566.928v708.66h-566.928z" fill="#e9afaf" stroke="#1a1a1a" stroke-width="36.6141"/><path fill="#500" opacity=".997" stroke="#1a1a1a" stroke-width="36.2204" d="M14287.464 13632.372v-71.654h563.779v71.654z"/><path opacity=".997" stroke="#1a1a1a" stroke-width="36.2204" d="M14289.433 13488.278v-71.654h563.778v71.654z"/><path fill="red" opacity=".997" stroke="#1a1a1a" stroke-width="36.2204" d="M14289.826 13342.215v-71.654h563.779v71.654z"/><path fill="olive" opacity=".997" stroke="#1a1a1a" stroke-width="36.2204" d="M14287.464 13146.94v-71.654h563.779v71.654z"/><g><g transform="matrix(0 393.7 393.7 0 9059.332 7679.661)" fill="#faa" stroke-width=".093"><path d="M1.14.8V-.8M3.94.8V-.8M1.14-.8c-.24.021-.374.155-.4.4v.8c0 .22.18.4.4.4h.5V-.8zM3.44-.8V.8h.5a.4.4 0 0 0 .4-.4v-.8c-.026-.245-.16-.379-.4-.4z" fill-rule="evenodd" stroke="#191919"/><path d="M4.34.25h.74c.333 0 .333-.5 0-.5h-.74 0z" fill="#999" fill-rule="evenodd" stroke="#191919"/></g><path d="M9157.772 7970.983h-196.85v-291.338c0-131.232 196.85-131.232 196.85 0z" fill="#999" stroke="#1a1a1a" stroke-width="36.6141"/><path d="M9342.811 9033.973h-566.928v-708.66h566.928z" fill="#e9afaf" stroke="#1a1a1a" stroke-width="36.6141"/><path fill="#500" opacity=".997" stroke="#1a1a1a" stroke-width="36.2204" d="M9341.536 8420.628v71.654h-563.779v-71.654z"/><path opacity=".997" stroke="#1a1a1a" stroke-width="36.2204" d="M9339.567 8564.722v71.654H8775.79v-71.654z"/><path fill="red" opacity=".997" stroke="#1a1a1a" stroke-width="36.2204" d="M9339.174 8710.785v71.654h-563.779v-71.654z"/><path fill="olive" opacity=".997" stroke="#1a1a1a" stroke-width="36.2204" d="M9341.536 8906.06v71.654h-563.779v-71.654z"/></g><g><g transform="scale(393.7) rotate(-90 22.258 2.251)" fill="#faa" stroke-width=".093"><path d="M1.14.8V-.8M3.94.8V-.8M1.14-.8c-.24.021-.374.155-.4.4v.8c0 .22.18.4.4.4h.5V-.8zM3.44-.8V.8h.5a.4.4 0 0 0 .4-.4v-.8c-.026-.245-.16-.379-.4-.4z" fill-rule="evenodd" stroke="#191919"/><path d="M4.34.25h.74c.333 0 .333-.5 0-.5h-.74 0z" fill="#999" fill-rule="evenodd" stroke="#191919"/></g><path d="M7778.228 9358.017h196.85v291.338c0 131.232-196.85 131.232-196.85 0z" fill="#999" stroke="#1a1a1a" stroke-width="36.6141"/><path d="M7593.189 8295.027h566.928v708.66h-566.928z" fill="#e9afaf" stroke="#1a1a1a" stroke-width="36.6141"/><path fill="#500" opacity=".997" stroke="#1a1a1a" stroke-width="36.2204" d="M7594.464 8908.372v-71.654h563.779v71.654z"/><path opacity=".997" stroke="#1a1a1a" stroke-width="36.2204" d="M7596.433 8764.278v-71.654h563.778v71.654z"/><path fill="red" opacity=".997" stroke="#1a1a1a" stroke-width="36.2204" d="M7596.827 8618.215v-71.654h563.778v71.654z"/><path fill="olive" opacity=".997" stroke="#1a1a1a" stroke-width="36.2204" d="M7594.464 8422.94v-71.654h563.779v71.654z"/></g><g><g transform="scale(393.7) rotate(-90 18.508 1.5)" fill="#faa" stroke-width=".093"><path d="M1.14.8V-.8M3.94.8V-.8M1.14-.8c-.24.021-.374.155-.4.4v.8c0 .22.18.4.4.4h.5V-.8zM3.44-.8V.8h.5a.4.4 0 0 0 .4-.4v-.8c-.026-.245-.16-.379-.4-.4z" fill-rule="evenodd" stroke="#191919"/><path d="M4.34.25h.74c.333 0 .333-.5 0-.5h-.74 0z" fill="#999" fill-rule="evenodd" stroke="#191919"/></g><path d="M6597.228 7586.017h196.85v291.338c0 131.232-196.85 131.232-196.85 0z" fill="#999" stroke="#1a1a1a" stroke-width="36.6141"/><path d="M6412.189 6523.027h566.928v708.66h-566.928z" fill="#e9afaf" stroke="#1a1a1a" stroke-width="36.6141"/><path fill="#500" opacity=".997" stroke="#1a1a1a" stroke-width="36.2204" d="M6413.464 7136.372v-71.654h563.779v71.654z"/><path opacity=".997" stroke="#1a1a1a" stroke-width="36.2204" d="M6415.433 6992.278v-71.654h563.778v71.654z"/><path fill="red" opacity=".997" stroke="#1a1a1a" stroke-width="36.2204" d="M6415.827 6846.215v-71.654h563.778v71.654z"/><path fill="olive" opacity=".997" stroke="#1a1a1a" stroke-width="36.2204" d="M6413.464 6650.94v-71.654h563.779v71.654z"/></g><g><g transform="matrix(393.7 0 0 -393.7 15160.661 986.668)" fill="#faa" stroke-width=".093"><path d="M1.14.8V-.8M3.94.8V-.8M1.14-.8c-.24.021-.374.155-.4.4v.8c0 .22.18.4.4.4h.5V-.8zM3.44-.8V.8h.5a.4.4 0 0 0 .4-.4v-.8c-.026-.245-.16-.379-.4-.4z" fill-rule="evenodd" stroke="#191919"/><path d="M4.34.25h.74c.333 0 .333-.5 0-.5h-.74 0z" fill="#999" fill-rule="evenodd" stroke="#191919"/></g><path d="M15451.983 888.228v196.85h-291.338c-131.232 0-131.232-196.85 0-196.85z" fill="#999" stroke="#1a1a1a" stroke-width="36.6141"/><path d="M16514.973 703.189v566.928h-708.66V703.189z" fill="#e9afaf" stroke="#1a1a1a" stroke-width="36.6141"/><path fill="#500" opacity=".997" stroke="#1a1a1a" stroke-width="36.2204" d="M15901.628 704.464h71.654v563.779h-71.654z"/><path opacity=".997" stroke="#1a1a1a" stroke-width="36.2204" d="M16045.722 706.433h71.654v563.778h-71.654z"/><path fill="red" opacity=".997" stroke="#1a1a1a" stroke-width="36.2204" d="M16191.785 706.827h71.654v563.778h-71.654z"/><path fill="olive" opacity=".997" stroke="#1a1a1a" stroke-width="36.2204" d="M16387.06 704.464h71.654v563.779h-71.654z"/></g><g stroke-width=".093"><path d="M18204.006 1486.998H21204V487h-2999.994z" fill="#1a1a1a" fill-rule="evenodd" stroke="#000" stroke-width="36.6141"/><g stroke="#000"><path d="M20467.939 1223.219h472.44v-472.44h-472.44z" fill="#666" fill-rule="evenodd" stroke-width="36.6141"/><path d="M20940.378 750.779l-117.716 117.716M20467.939 750.779l117.716 117.716M20822.662 868.495h-237.007M20940.378 1223.219l-117.716-117.716M20822.662 1105.503V868.495M20467.939 1223.219l117.716-117.716M20585.655 1105.503h237.007M20585.655 868.495v237.008" fill="none" stroke-width="36.6141"/><path d="M20586.049 1105.109h236.22v-236.22h-236.22z" fill="olive" fill-rule="evenodd" stroke-width="36.6141"/><path d="M20802.584 947.629h19.685M20605.734 947.629h196.85M20586.049 947.629h19.685M20586.049 1026.369h19.685M20605.734 947.629v78.74M20605.734 1026.369h196.85M20802.584 1026.369h19.685M20802.584 947.629v78.74" fill="none" stroke-width="36.6141"/></g><g stroke="#000"><path d="M19467.94 1223.219h472.44v-472.44h-472.44z" fill="#666" fill-rule="evenodd" stroke-width="36.6141"/><path d="M19940.38 750.779l-117.716 117.716M19467.94 750.779l117.717 117.716M19822.664 868.495h-237.007M19940.38 1223.219l-117.716-117.716M19822.664 1105.503V868.495M19467.94 1223.219l117.717-117.716M19585.657 1105.503h237.007M19585.657 868.495v237.008" fill="none" stroke-width="36.6141"/><path d="M19586.05 1105.109h236.22v-236.22h-236.22z" fill="olive" fill-rule="evenodd" stroke-width="36.6141"/><path d="M19802.586 947.629h19.685M19605.736 947.629h196.85M19586.05 947.629h19.686M19586.05 1026.369h19.686M19605.736 947.629v78.74M19605.736 1026.369h196.85M19802.586 1026.369h19.685M19802.586 947.629v78.74" fill="none" stroke-width="36.6141"/></g><g stroke="#000"><path d="M18467.943 1223.219h472.44v-472.44h-472.44z" fill="#666" fill-rule="evenodd" stroke-width="36.6141"/><path d="M18940.382 750.779l-117.716 117.716M18467.943 750.779l117.716 117.716M18822.666 868.495h-237.007M18940.382 1223.219l-117.716-117.716M18822.666 1105.503V868.495M18467.943 1223.219l117.716-117.716M18585.659 1105.503h237.007M18585.659 868.495v237.008" fill="none" stroke-width="36.6141"/><path d="M18586.053 1105.109h236.22v-236.22h-236.22z" fill="olive" fill-rule="evenodd" stroke-width="36.6141"/><path d="M18802.588 947.629h19.685M18605.738 947.629h196.85M18586.053 947.629h19.685M18586.053 1026.369h19.685M18605.738 947.629v78.74M18605.738 1026.369h196.85M18802.588 1026.369h19.685M18802.588 947.629v78.74" fill="none" stroke-width="36.6141"/></g></g></svg>