<svg width="104" height="169" viewBox="108180000 60935000 21390000 34490000" xmlns="http://www.w3.org/2000/svg"><g fill="#313d63" stroke="#313d63"><path d="M108200000 90800000V60960000h21340000v34440000h-21340000v-4600000" fill-rule="evenodd" transform="matrix(1.0002 0 0 1.0059 -22863 -456572)"/><path d="M108200000 95400000v-4600000m21340000 4600000h-21340000m0-34440000h21340000v34440000m-21340000-4600000V60960000" fill="none" stroke-linecap="round" stroke-linejoin="round" stroke-width="50000" transform="matrix(1.0002 0 0 1.0059 -22863 -456572)"/></g><g transform="matrix(1.0008 0 0 1.0081 -92076 -630919)" fill="#9c6b28" stroke="#9c6b28" stroke-linecap="round" stroke-linejoin="round"><path d="M118720000 64940000v-1000000h1500000v1000000zm0 3200000v-1000000h1500000v1000000zm4900000 0v-1000000h1500000v1000000zm0-3200000v-1000000h1500000v1000000zm-12710000 1950000v-1700000h1700000v1700000z" fill-rule="evenodd"/><circle cx="111760000" cy="68580000" r="850000"/><circle cx="111760000" cy="71120000" r="850000"/><circle cx="111760000" cy="73660000" r="850000"/></g><g transform="matrix(1.0008 0 0 1.0081 -92076 -630919)" fill="#212d53" stroke="#212d53" stroke-linecap="round" stroke-linejoin="round"><path d="M118720000 64940000v-1000000h1500000v1000000zm0 3200000v-1000000h1500000v1000000zm4900000 0v-1000000h1500000v1000000zm0-3200000v-1000000h1500000v1000000zm-12710000 1950000v-1700000h1700000v1700000z" fill-rule="evenodd"/><circle cx="111760000" cy="68580000" r="850000"/><circle cx="111760000" cy="71120000" r="850000"/><circle cx="111760000" cy="73660000" r="850000"/><path d="M111760000 66040000h2540000m1600000-1600000h3570000m-5170000 1600000l1600000-1600000m-4140000 4140000h6770000l940000-940000m-7710000 3480000h9130000l3480000-3480000m2630000-1600000l-1600000-1600000m-13640000 9220000h12700000m2540000-2540000v-5080000m-2540000 7620000l2540000-2540000m-1600000-6680000h-1030000" fill="none" stroke-width="250000"/><circle cx="111760000" cy="66040000" r="175000"/><circle cx="111760000" cy="68580000" r="175000"/><circle cx="111760000" cy="71120000" r="175000"/><circle cx="111760000" cy="73660000" r="175000"/></g><g fill="#b5ae30" stroke="#b5ae30" stroke-linecap="round" stroke-linejoin="round" stroke-width="1.004"><ellipse cx="111760000" cy="68503672" rx="850699" ry="856874"/><ellipse cx="111760000" cy="71064216" rx="850699" ry="856874"/><ellipse cx="111760000" cy="73624752" rx="850699" ry="856874"/><ellipse cx="111760000" cy="65943132" rx="175144" ry="176415"/><ellipse cx="111760000" cy="68503672" rx="175144" ry="176415"/><ellipse cx="111760000" cy="71064216" rx="175144" ry="176415"/><ellipse cx="111760000" cy="73624752" rx="175144" ry="176415"/></g><g stroke-linecap="round" stroke-linejoin="round"><g fill="none" fill-opacity="0" stroke="#f0f0f0"><path d="M112810000 93813392v857143m0-428571h-1500000l214290 142857 142850 142857 71430 142857m501430-1500000v-1142857m-930000-500000l1500000-500000-1500000-500000m1500000-500000h-1500000v-357143l71430-214285 142860-142858 142850-71428 285720-71429h214280l285720 71429 142860 71428 142850 142858 71430 214285v357143m0-1500000h-1500000v-357143l71430-214285 142860-142858 142850-71428 285720-71429h214280l285720 71429 142860 71428 142850 142858 71430 214285v357143m3480000 6142857l-71430-71428-71430-142857v-357143l71430-142857 71430-71429 142860-71429h142850l214290 71429 857140 857143v-928572m-577140-642857v-1142857m570000-714286h-1500000v-357142l71430-214286 142860-142857 142850-71429 285720-71428h214280l285720 71428 142860 71429 142850 142857 71430 214286v357142m-1500000-1785714v-285714l71430-142857 142860-142857 285710-71429h500000l285720 71429 142850 142857 71430 142857v285714l-71430 142857-142850 142857-285720 71429h-500000l-285710-71429-142860-142857-71430-142857m0-1285714h1214290l142850-71429 71430-71428 71430-142857v-285715l-71430-142857-71430-71428-142850-71429h-1214290m0-500000v-857143m1500000 428572h-1500000m4830000 8285714v-928572l571430 500000v-214285l71430-142857 71430-71429 142850-71429h357150l142850 71429 71430 71429 71430 142857v428571l-71430 142857-71430 71429m-427140-1571429v-1142857m-930000-500000l1500000-500000-1500000-500000m1430000-428571l71430-214286v-357143l-71430-142857-71430-71429-142850-71428h-142860l-142860 71428-71430 71429-71420 142857-71430 285714-71430 142858-71430 71428-142860 71429h-142850l-142860-71429-71430-71428-71430-142858v-357142l71430-214286m1357140-571429l71430-214285v-357143l-71430-142857-71430-71429-142850-71429h-142860l-142860 71429-71430 71429-71420 142857-71430 285714-71430 142857-71430 71429-142860 71428h-142850l-142860-71428-71430-71429-71430-142857v-357143l71430-214286m5257140 6142858h1000000m-1570000 357142l1071430 357143v-928571m-71430-571429v-1142857m570000-714286h-1500000v-357142l71430-214286 142860-142857 142850-71429 285720-71428h214280l285720 71428 142860 71429 142850 142857 71430 214286v357142m0-1500000h-1500000m1500000-714285h-1500000l1500000-857143h-1500000" transform="matrix(1.0008 0 0 1.0081 -92076 -630919)" stroke-width="375000"/><path d="M111760000 64710000h1330000v1330000m-2660000 8950000h2660000m-2660000-7680000v7680000m0-7680000h2660000v7680000" stroke-width="120000" transform="matrix(1.0008 0 0 1.0081 -92076 -630919)"/></g><g transform="matrix(1.0008 0 0 1.0081 -92076 -630919)" fill="#f0f0f0" stroke="#f0f0f0"><circle cx="111760000" cy="66040000" r="175000"/><circle cx="111760000" cy="68580000" r="175000"/><circle cx="111760000" cy="71120000" r="175000"/><circle cx="111760000" cy="73660000" r="175000"/></g><path d="M108200000 95540562v-4637200m21357540 4637200h-21357540m0-34718510h21357540v34718510m-21357540-4637200V60822052" fill="none" stroke="#313d63" stroke-width="50222"/></g><g stroke="#191919"><g fill="#999" fill-rule="evenodd"><path d="M124570000 67240000h-150000v900000h200000v-900000zm0-2400000h50000v-900000h-200000v900000zm-5150000-900000h-200000v900000h200000z" stroke-width="13000"/><path d="M119430000 68138300l-2630-898330h-200000v900000h200000z" stroke-width="15000"/></g><g transform="translate(119170000 63486000) scale(1000000)" stroke-width=".013"><path d="M5.254 4.019V.054h-5v5h3.964" fill="#f9f9f9" fill-rule="evenodd"/><circle transform="scale(1 -1)" cx="2.754" cy="-2.554" r="1.967" fill="#e6e6e6"/><circle transform="scale(1 -1)" cx="2.754" cy="-2.554" r="1.667" fill="#b3b3b3"/></g><g stroke-width="13000"><path d="M123360000 68465000l3480 8400 3430 8290 3350 8080 3220 7770 3050 7360 2840 6860 2600 6270 2320 5600 2020 4870 1690 4070 1330 3220 960 2330 590 1410 190 470m30 0l1035500-1035500m-75000-31100l8400 3480 8290 3430 8080 3350 15130 6270 6860 2840 6270 2600 5600 2320 4870 2020 4070 1690 3220 1330 3740 1548 470 188m-5000000 1035534l75000-75002m4925000-4924998l-75000 75000m-4925000-75000l75000 75002" fill="none"/><path d="M123390000 68540000h1035500v-1035500" fill="#f2f2f2" fill-rule="evenodd"/><path d="M123360000 68465000l991600-991600v-3858400h-4850000v4850000h3858400m1216600-3625000v-900000m0 4200000v-900000" fill="none"/><path d="M119270000 67240000v900000" fill="#b3b3b3" fill-rule="evenodd"/><path d="M119270000 63940000v900000" fill="none"/></g></g><g stroke="#000" stroke-width="93000"><g fill-rule="evenodd"><path d="M110490000 74930000h2540000V64770000h-2540000z" fill="#1a1a1a"/><path d="M111160000 67980000v1200000h1200000v-1200000z" fill="#333"/><path d="M111160000 71720000h1200000v-1200000h-1200000zm0-5080000h1200000v-1200000h-1200000zm1200000 6420000h-1200000v1200000h1200000z" fill="#4d4d4d"/></g><path d="M111160000 67980000l299000 299000m-299000 901000l299000-299000m0-602000v602000m901000-901000l-299000 299000h-602000m901000 901000l-299000-299000v-602000m-602000 602000h602000m299000 1639000l-299000 299000m-901000-299000l299000 299000m602000 0h-602000m901000 901000l-299000-299000v-602000m-901000 901000l299000-299000h602000m-602000-602000v602000m-299000-4781000l299000-299000m901000 299000l-299000-299000m-602000 0h602000m-901000-901000l299000 299000v602000m901000-901000l-299000 299000h-602000m602000 602000v-602000m-901000 8521000l299000-299000m901000 299000l-299000-299000m-602000 0h602000m-901000-901000l299000 299000v602000m901000-901000l-299000 299000h-602000m602000 602000v-602000" fill="none"/><path d="M111460000 68880000h600000v-600000h-600000zm600000 2540000v-600000h-600000v600000zm0-5080000v-600000h-600000v600000zm0 7620000v-600000h-600000v600000z" fill="olive" fill-rule="evenodd"/><path d="M111660000 68330000v-50000m0 550000v-500000m0 550000v-50000m200000 50000v-50000m-200000 0h200000v-550000m-200000 50000h200000m-200000 2540000v-50000m0 550000v-500000m0 550000v-50000m200000 50000v-50000m-200000 0h200000v-550000m-200000 50000h200000m-200000-5080000v-50000m0 550000v-500000m0 550000v-50000m200000 50000v-50000m-200000 0h200000v-550000m-200000 50000h200000m-200000 7620000v-50000m0 550000v-500000m0 550000v-50000m200000 50000v-50000m-200000 0h200000v-550000m-200000 50000h200000" fill="none"/></g></svg>