<svg width="429" height="181" viewBox="0 0 34429 14507" xmlns="http://www.w3.org/2000/svg"><g clip-path="url(#a)" mask="url(#b)" transform="translate(-38495 -21802)"><defs><clipPath id="a"><path d="M72913 36299H38503V21811h34410v14488" fill-rule="evenodd"/></clipPath></defs><g fill="#313d63" stroke="#313d63"><path d="M72913 36299H38503V21811h34410v14488" fill-rule="evenodd"/><g fill-opacity="0" stroke-linecap="round" stroke-linejoin="round" stroke-width="19.685" fill="none" stroke="#000"><path d="M38503 36299V21811M72913 21811H38503M72913 36299V21811M38503 36299h34410"/></g></g><g fill-opacity="1" stroke="none" stroke-linecap="round" stroke-linejoin="round" stroke-width="0" fill="#9c6b28"><circle cx="52441" cy="23063" r="314.96"/><circle cx="59441" cy="26063" r="314.96"/><circle cx="53441" cy="23063" r="314.96"/><circle cx="58441" cy="26063" r="314.96"/><circle cx="54441" cy="23063" r="314.96"/><circle cx="57441" cy="26063" r="314.96"/><circle cx="55441" cy="23063" r="314.96"/><circle cx="56441" cy="26063" r="314.96"/><circle cx="56441" cy="23063" r="314.96"/><circle cx="55441" cy="26063" r="314.96"/><circle cx="57441" cy="23063" r="314.96"/><circle cx="54441" cy="26063" r="314.96"/><circle cx="58441" cy="23063" r="314.96"/><circle cx="53441" cy="26063" r="314.96"/><circle cx="59441" cy="23063" r="314.96"/><path d="M52756 26378h-629.9v-630h629.9z" fill-rule="evenodd"/></g><g fill="#212d53" stroke="#212d53" stroke-linecap="round" stroke-linejoin="round" stroke-width="0"><g fill-opacity="1" stroke="none"><circle cx="52441" cy="23063" r="314.96"/><circle cx="59441" cy="26063" r="314.96"/><circle cx="53441" cy="23063" r="314.96"/><circle cx="58441" cy="26063" r="314.96"/><circle cx="54441" cy="23063" r="314.96"/><circle cx="57441" cy="26063" r="314.96"/><circle cx="55441" cy="23063" r="314.96"/><circle cx="56441" cy="26063" r="314.96"/><circle cx="56441" cy="23063" r="314.96"/><circle cx="55441" cy="26063" r="314.96"/><circle cx="57441" cy="23063" r="314.96"/><circle cx="54441" cy="26063" r="314.96"/><circle cx="58441" cy="23063" r="314.96"/><circle cx="53441" cy="26063" r="314.96"/><circle cx="59441" cy="23063" r="314.96"/><path d="M52756 26378h-629.9v-630h629.9z" fill-rule="evenodd"/></g><g stroke="none"><circle cx="52441" cy="23063" r="68.898"/><circle cx="59441" cy="26063" r="68.898"/><circle cx="53441" cy="23063" r="68.898"/><circle cx="58441" cy="26063" r="68.898"/><circle cx="54441" cy="23063" r="68.898"/><circle cx="57441" cy="26063" r="68.898"/><circle cx="55441" cy="23063" r="68.898"/><circle cx="56441" cy="26063" r="68.898"/><circle cx="56441" cy="23063" r="68.898"/><circle cx="55441" cy="26063" r="68.898"/><circle cx="57441" cy="23063" r="68.898"/><circle cx="54441" cy="26063" r="68.898"/><circle cx="58441" cy="23063" r="68.898"/><circle cx="53441" cy="26063" r="68.898"/><circle cx="59441" cy="23063" r="68.898"/><circle cx="52441" cy="26063" r="68.898"/></g></g><g fill="#b5ae30" mask="url(#c)" stroke="#b5ae30" stroke-linecap="round" stroke-linejoin="round" stroke-width="0"><g fill-opacity="1" stroke="none"><circle cx="52441" cy="23063" r="314.96"/><circle cx="59441" cy="26063" r="314.96"/><circle cx="53441" cy="23063" r="314.96"/><circle cx="58441" cy="26063" r="314.96"/><circle cx="54441" cy="23063" r="314.96"/><circle cx="57441" cy="26063" r="314.96"/><circle cx="55441" cy="23063" r="314.96"/><circle cx="56441" cy="26063" r="314.96"/><circle cx="56441" cy="23063" r="314.96"/><circle cx="55441" cy="26063" r="314.96"/><circle cx="57441" cy="23063" r="314.96"/><circle cx="54441" cy="26063" r="314.96"/><circle cx="58441" cy="23063" r="314.96"/><circle cx="53441" cy="26063" r="314.96"/><circle cx="59441" cy="23063" r="314.96"/><path d="M52756 26378h-629.9v-630h629.9z" fill-rule="evenodd"/></g><g stroke="none"><circle cx="52441" cy="23063" r="68.898"/><circle cx="59441" cy="26063" r="68.898"/><circle cx="53441" cy="23063" r="68.898"/><circle cx="58441" cy="26063" r="68.898"/><circle cx="54441" cy="23063" r="68.898"/><circle cx="57441" cy="26063" r="68.898"/><circle cx="55441" cy="23063" r="68.898"/><circle cx="56441" cy="26063" r="68.898"/><circle cx="56441" cy="23063" r="68.898"/><circle cx="55441" cy="26063" r="68.898"/><circle cx="57441" cy="23063" r="68.898"/><circle cx="54441" cy="26063" r="68.898"/><circle cx="58441" cy="23063" r="68.898"/><circle cx="53441" cy="26063" r="68.898"/><circle cx="59441" cy="23063" r="68.898"/><circle cx="52441" cy="26063" r="68.898"/></g></g><defs><mask id="c"><g fill="#fff" fill-opacity="1" stroke="#fff" stroke-linecap="round" stroke-linejoin="round" stroke-width="0"><circle cx="52441" cy="23063" r="314.96"/><circle cx="59441" cy="26063" r="314.96"/><circle cx="53441" cy="23063" r="314.96"/><circle cx="58441" cy="26063" r="314.96"/><circle cx="54441" cy="23063" r="314.96"/><circle cx="57441" cy="26063" r="314.96"/><circle cx="55441" cy="23063" r="314.96"/><circle cx="56441" cy="26063" r="314.96"/><circle cx="56441" cy="23063" r="314.96"/><circle cx="55441" cy="26063" r="314.96"/><circle cx="57441" cy="23063" r="314.96"/><circle cx="54441" cy="26063" r="314.96"/><circle cx="58441" cy="23063" r="314.96"/><circle cx="53441" cy="26063" r="314.96"/><circle cx="59441" cy="23063" r="314.96"/><path d="M52756 26378h-629.9v-630h629.9z" fill-rule="evenodd"/></g></mask></defs><defs><mask id="d"><g fill-opacity="1" stroke="#000" stroke-linecap="round" stroke-linejoin="round" stroke-width="0"><circle cx="52441" cy="23063" r="314.96"/><circle cx="59441" cy="26063" r="314.96"/><circle cx="53441" cy="23063" r="314.96"/><circle cx="58441" cy="26063" r="314.96"/><circle cx="54441" cy="23063" r="314.96"/><circle cx="57441" cy="26063" r="314.96"/><circle cx="55441" cy="23063" r="314.96"/><circle cx="56441" cy="26063" r="314.96"/><circle cx="56441" cy="23063" r="314.96"/><circle cx="55441" cy="26063" r="314.96"/><circle cx="57441" cy="23063" r="314.96"/><circle cx="54441" cy="26063" r="314.96"/><circle cx="58441" cy="23063" r="314.96"/><circle cx="53441" cy="26063" r="314.96"/><circle cx="59441" cy="23063" r="314.96"/><path d="M52756 26378h-629.9v-630h629.9z" fill-rule="evenodd"/></g><path fill="#fff" d="M38494 21801h34429v14507H38494z"/></mask></defs><g fill="#f0f0f0" fill-opacity="0" mask="url(#d)" stroke="#f0f0f0" stroke-linecap="round" stroke-linejoin="round"><g stroke-width="147.64"><path d="M40355 35168v338M40355 35337h-590l84 56 56 56 28 57M40130 34915v-450M41888 35506l-28-28-28-57v-140l28-57 28-28 56-28h56l85 28 337 338v-366M42197 34915v-450M43899 35534v-366l225 197v-84l28-57 28-28 56-28h141l56 28 28 28 28 57v168l-28 57-28 28M44264 34915v-450M46162 35224h394M45937 35365l422 141v-366M46331 34915v-450M48032 35196v282l282 28-29-28-28-57v-140l28-57 29-28 56-28h140l57 28 28 28 28 57v140l-28 57-28 28M48398 34915v-450M50099 35224v113l28 56 29 28 84 57 112 28h225l57-28 28-29 28-56v-112l-28-57-28-28-57-28h-140l-56 28-29 28-28 57v112l28 56 29 29 56 28M50465 34915v-450M52166 35534v-394l591 253M52532 34915v-450M54486 35393l-28 56-28 29-56 28h-28l-57-28-28-29-28-56v-112l28-57 28-28 57-28h28l56 28 28 28 28 57v112l28 56 29 29 56 28h112l56-28 29-29 28-56v-112l-28-57-29-28-56-28h-112l-56 28-29 28-28 57M54599 34915v-450M56891 35449v-112l-28-56-29-28-84-57-112-28h-225l-57 28-28 28-28 57v112l28 56 28 29 57 28h140l56-28 29-29 28-56v-112l-28-57-29-28-56-28M56666 34915v-450M58958 35674v338M58958 35843h-591l84 56 57 57 28 56M58367 35309v-56l28-57 28-28 57-28 112-28h141l112 28 56 28 28 28 29 57v56l-29 56-28 28-56 28-112 28h-141l-112-28-57-28-28-28-28-56M58733 34859v-450M61025 35674v338M61025 35843h-591l84 56 57 57 28 56M61025 35112v337M61025 35281h-591l84 56 57 56 28 56M60800 34859v-450M63091 35674v338M63091 35843h-590l84 56 57 57 28 56M62557 35449l-28-28-28-56v-141l28-56 28-28 56-28h57l84 28 337 338v-366M62866 34859v-450M65158 35674v338M65158 35843h-590l84 56 56 57 29 56M64568 35478v-366l225 197v-85l28-56 28-28 56-28h141l56 28 28 28 28 56v169l-28 56-28 29M64933 34859v-450M67225 35674v338M67225 35843h-590l84 56 56 57 28 56M66832 35168h393M66607 35309l421 140v-365M67000 34859v-450M69292 35674v338M69292 35843h-590l84 56 56 57 28 56M68702 35140v281l281 28-28-28-28-56v-141l28-56 28-28 56-28h141l56 28 28 28 28 56v141l-28 56-28 28M69067 34859v-450M71359 35674v338M71359 35843h-590l84 56 56 57 28 56M70769 35168v113l28 56 28 28 84 56 113 28h225l56-28 28-28 28-56v-113l-28-56-28-28-56-28h-141l-56 28-28 28-28 56v113l28 56 28 28 56 28M71134 34859v-450" fill="none"/></g><g stroke-width="47.244" fill="none"><path d="M51917 24956v650M51917 25606h8047M59964 25606v-2087M59964 23519h-8047M51917 23519v650M51917 24957a393.7 393.7 0 0 0 0-787.4"/></g></g><g fill-opacity="0" stroke-linecap="round" stroke-linejoin="round" stroke-width="19.685" fill="none" stroke="#000"><path d="M38503 36299V21811M72913 21811H38503M72913 36299V21811M38503 36299h34410"/></g><defs><mask id="b"><path fill="#fff" d="M38494 21801h34429v14507H38494z"/><path stroke="#000" stroke-linecap="round" stroke-width="314" d="M52440 23062h0M59440 26062h0M53440 23062h0M58440 26062h0M54440 23062h0M57440 26062h0M55440 23062h0M56440 26062h0M56440 23062h0M55440 26062h0M57440 23062h0M54440 26062h0M58440 23062h0M53440 26062h0M59440 23062h0M52440 26062h0"/></mask></defs></g><g stroke="#000" stroke-width=".093"><path d="M21034.552 1539.549h-7179.907 0-155.511v2440.94h7490.929v-2440.94z" fill="#333" stroke-width="36.6141"/><path d="M21219.59 1510.021h-185.038M13854.74 1510.021h-185.04M20644.789 1510.021h-400M14644.683 1510.021h-400M19644.79 1510.021h-399.998M15644.68 1510.021h-399.998M18644.793 1510.021h-400M16644.679 1510.021h-400M17644.795 1510.021h-400M13669.7 1510.021v2499.995M13669.7 4010h185.04M21034.552 4010h185.039M14244.684 4010h399.999M20244.79 4010h399.999M15244.682 4010h399.999M19244.792 4010h399.999M16244.68 4010h399.999M18244.794 4010h399.999M17244.678 4010h399.999M21219.59 4010V1510.007M21219.59 1510.021l-29.527 29.528M13669.7 1510.021l29.528 29.528M20644.789 1539.549h-400M14644.683 1539.549h-400M19644.79 1539.549h-399.998M15644.68 1539.549h-399.998M18644.793 1539.549h-400M16644.679 1539.549h-400M17644.795 1539.549h-400M13669.7 4010l29.528-29.527M21219.59 4010l-29.527-29.527M14244.684 3980.473h399.999M20244.79 3980.473h399.999M15244.682 3980.473h399.999M19244.792 3980.473h399.999M16244.68 3980.473h399.999M18244.794 3980.473h399.999M17244.678 3980.473h399.999M13699.228 1539.549l127.449 127.448M21190.063 1539.549l-127.448 127.448M13699.228 3980.473l127.449-127.448M13784.838 3055.018l41.842-1.224M13784.838 3055.018V2464.98M13784.838 2464.98l41.842 1.225" fill="none" stroke-width="36.6141"/><path d="M13826.677 1666.99v799.21c150.881 15.165 265.747 142.154 265.747 293.795h0c0 151.642-114.866 278.63-265.748 293.795h0v799.211h7236.206V1666.943z" fill="#1a1a1a" fill-rule="evenodd" stroke-width="36.6141"/><path d="M21190.063 3980.473l-127.448-127.448M13792.94 3055.255a295.275 295.275 0 0 1-8.105-.226M13784.838 2464.98a295.275 295.275 0 0 1 8.105-.225" fill="none" stroke-width="36.6141"/><path d="M16244.798 4260v150h-600v-429.527h600z" fill="#ccc" fill-rule="evenodd" stroke-width="36.6141"/><path d="M16244.798 4260h-600" fill="none" stroke-width="36.6141"/><path d="M17244.796 4260v150h-600v-429.527h600z" fill="#ccc" fill-rule="evenodd" stroke-width="36.6141"/><path d="M17244.796 4260h-600" fill="none" stroke-width="36.6141"/><path d="M15244.8 4260.016v150h-600v-429.527h600z" fill="#ccc" fill-rule="evenodd" stroke-width="36.6141"/><path d="M15244.8 4260.016h-600" fill="none" stroke-width="36.6141"/><path d="M14244.802 4260v150h-600v-429.527h600z" fill="#ccc" fill-rule="evenodd" stroke-width="36.6141"/><path d="M14244.802 4260h-600" fill="none" stroke-width="36.6141"/><path d="M20244.79 4260v150h-600v-429.527h600z" fill="#ccc" fill-rule="evenodd" stroke-width="36.6141"/><path d="M20244.79 4260h-600" fill="none" stroke-width="36.6141"/><path d="M21244.788 4260v150h-600v-429.527h600z" fill="#ccc" fill-rule="evenodd" stroke-width="36.6141"/><path d="M21244.788 4260h-600" fill="none" stroke-width="36.6141"/><g><path d="M19244.792 4260.016v150h-600v-429.527h600z" fill="#ccc" fill-rule="evenodd" stroke-width="36.6141"/><path d="M19244.792 4260.016h-600" fill="none" stroke-width="36.6141"/></g><g><path d="M18244.794 4260v150h-600v-429.527h600z" fill="#ccc" fill-rule="evenodd" stroke-width="36.6141"/><path d="M18244.794 4260h-600" fill="none" stroke-width="36.6141"/></g><g><path d="M19644.79 1260.022v-150.02.02h600v-.02 429.527h-600z" fill="#ccc" fill-rule="evenodd" stroke-width="36.6141"/><path d="M19644.79 1260.022h600" fill="none" stroke-width="36.6141"/></g><g><path d="M20644.789 1260.022v-150.04.04h599.999v-.04 429.567h-600z" fill="#ccc" fill-rule="evenodd" stroke-width="36.6141"/><path d="M20644.789 1260.022h599.999" fill="none" stroke-width="36.6141"/><path d="M18644.793 1260.022v-150.04.04h599.999v-.04 429.567h-600z" fill="#ccc" fill-rule="evenodd" stroke-width="36.6141"/><path d="M18644.793 1260.022h599.999" fill="none" stroke-width="36.6141"/><path d="M17644.795 1260.022v-150.04.04h599.999v-.04 429.567h-600z" fill="#ccc" fill-rule="evenodd" stroke-width="36.6141"/><path d="M17644.795 1260.022h599.999" fill="none" stroke-width="36.6141"/></g><g><path d="M15644.799 1260.022v-150.02.02h599.999v-.02 429.527h-600z" fill="#ccc" fill-rule="evenodd" stroke-width="36.6141"/><path d="M15644.799 1260.022h599.999" fill="none" stroke-width="36.6141"/><path d="M16644.797 1260.022v-150.04.04h599.999v-.04 429.567h-600z" fill="#ccc" fill-rule="evenodd" stroke-width="36.6141"/><path d="M16644.797 1260.022h599.999" fill="none" stroke-width="36.6141"/><path d="M14644.8 1260.022v-150.04.04h600v-.04 429.567h-600z" fill="#ccc" fill-rule="evenodd" stroke-width="36.6141"/><path d="M14644.8 1260.022h600" fill="none" stroke-width="36.6141"/><path d="M13644.803 1260.022v-150.04.04h599.999v-.04 429.567h-600z" fill="#ccc" fill-rule="evenodd" stroke-width="36.6141"/><path d="M13644.803 1260.022h599.999" fill="none" stroke-width="36.6141"/></g></g></svg>