<svg width="212" height="315" viewBox="106660000 29439000 43230000 64058000" xmlns="http://www.w3.org/2000/svg"><defs><mask id="c"><g fill="#fff" fill-opacity="1" stroke="#fff" stroke-linecap="round" stroke-linejoin="round" stroke-width="1"><path d="M118410000 65560000h-1600000v-1600000h1600000z" fill-rule="evenodd"/><circle cx="120150000" cy="64760000" r="800000"/><circle cx="122690000" cy="64760000" r="800000"/><circle cx="125230000" cy="64760000" r="800000"/><circle cx="127770000" cy="64760000" r="800000"/><circle cx="130310000" cy="64760000" r="800000"/><circle cx="132850000" cy="64760000" r="800000"/><circle cx="135390000" cy="64760000" r="800000"/><circle cx="137930000" cy="64760000" r="800000"/><circle cx="137930000" cy="57140000" r="800000"/><circle cx="135390000" cy="57140000" r="800000"/><circle cx="132850000" cy="57140000" r="800000"/><circle cx="130310000" cy="57140000" r="800000"/><circle cx="127770000" cy="57140000" r="800000"/><circle cx="125230000" cy="57140000" r="800000"/><circle cx="122690000" cy="57140000" r="800000"/><circle cx="120150000" cy="57140000" r="800000"/><circle cx="117610000" cy="57140000" r="800000"/></g></mask><mask id="d"><path fill="#fff" d="M106660000 29439000h43230000v64058000h-43230000z"/><g fill-opacity="1" stroke="#000" stroke-linecap="round" stroke-linejoin="round" stroke-width="1"><path d="M118410000 65560000h-1600000v-1600000h1600000z" fill-rule="evenodd"/><circle cx="120150000" cy="64760000" r="800000"/><circle cx="122690000" cy="64760000" r="800000"/><circle cx="125230000" cy="64760000" r="800000"/><circle cx="127770000" cy="64760000" r="800000"/><circle cx="130310000" cy="64760000" r="800000"/><circle cx="132850000" cy="64760000" r="800000"/><circle cx="135390000" cy="64760000" r="800000"/><circle cx="137930000" cy="64760000" r="800000"/><circle cx="137930000" cy="57140000" r="800000"/><circle cx="135390000" cy="57140000" r="800000"/><circle cx="132850000" cy="57140000" r="800000"/><circle cx="130310000" cy="57140000" r="800000"/><circle cx="127770000" cy="57140000" r="800000"/><circle cx="125230000" cy="57140000" r="800000"/><circle cx="122690000" cy="57140000" r="800000"/><circle cx="120150000" cy="57140000" r="800000"/><circle cx="117610000" cy="57140000" r="800000"/></g></mask><mask id="b"><path fill="#fff" d="M106660000 29439000h43230000v64058000h-43230000z"/><path stroke="#000" stroke-linecap="round" stroke-width="800000" d="M117610000 64760000h0M120150000 64760000h0M122690000 64760000h0M125230000 64760000h0M127770000 64760000h0M130310000 64760000h0M132850000 64760000h0M135390000 64760000h0M137930000 64760000h0M137930000 57140000h0M135390000 57140000h0M132850000 57140000h0M130310000 57140000h0M127770000 57140000h0M125230000 57140000h0M122690000 57140000h0M120150000 57140000h0M117610000 57140000h0"/></mask><clipPath id="a"><path d="M106680000 29464000h43180000v64008000h-43180000V29464000" fill-rule="evenodd"/></clipPath></defs><g clip-path="url(#a)" mask="url(#b)" transform="translate(.001)"><g fill="#313d63" stroke="#313d63"><path d="M106680000 29464000h43180000v64008000h-43180000V29464000" fill-rule="evenodd"/><g fill-opacity="0" stroke-linecap="round" stroke-linejoin="round" stroke-width="50000" fill="none" stroke="#000"><path d="M149860000 29464000v64008000M149860000 93472000h-43180000M106680000 93472000V29464000M106680000 29464000h43180000"/></g></g><g fill-opacity="1" stroke-linecap="round" stroke-linejoin="round" stroke-width="1" fill="#9c6b28" stroke="#9c6b28"><path d="M118410000 65560000h-1600000v-1600000h1600000z" fill-rule="evenodd"/><circle cx="120150000" cy="64760000" r="800000"/><circle cx="122690000" cy="64760000" r="800000"/><circle cx="125230000" cy="64760000" r="800000"/><circle cx="127770000" cy="64760000" r="800000"/><circle cx="130310000" cy="64760000" r="800000"/><circle cx="132850000" cy="64760000" r="800000"/><circle cx="135390000" cy="64760000" r="800000"/><circle cx="137930000" cy="64760000" r="800000"/><circle cx="137930000" cy="57140000" r="800000"/><circle cx="135390000" cy="57140000" r="800000"/><circle cx="132850000" cy="57140000" r="800000"/><circle cx="130310000" cy="57140000" r="800000"/><circle cx="127770000" cy="57140000" r="800000"/><circle cx="125230000" cy="57140000" r="800000"/><circle cx="122690000" cy="57140000" r="800000"/><circle cx="120150000" cy="57140000" r="800000"/><circle cx="117610000" cy="57140000" r="800000"/></g><g fill="#212d53" stroke="#212d53"><g fill-opacity="1" stroke-linecap="round" stroke-linejoin="round" stroke-width="1"><path d="M118410000 65560000h-1600000v-1600000h1600000z" fill-rule="evenodd"/><circle cx="120150000" cy="64760000" r="800000"/><circle cx="122690000" cy="64760000" r="800000"/><circle cx="125230000" cy="64760000" r="800000"/><circle cx="127770000" cy="64760000" r="800000"/><circle cx="130310000" cy="64760000" r="800000"/><circle cx="132850000" cy="64760000" r="800000"/><circle cx="135390000" cy="64760000" r="800000"/><circle cx="137930000" cy="64760000" r="800000"/><circle cx="137930000" cy="57140000" r="800000"/><circle cx="135390000" cy="57140000" r="800000"/><circle cx="132850000" cy="57140000" r="800000"/><circle cx="130310000" cy="57140000" r="800000"/><circle cx="127770000" cy="57140000" r="800000"/><circle cx="125230000" cy="57140000" r="800000"/><circle cx="122690000" cy="57140000" r="800000"/><circle cx="120150000" cy="57140000" r="800000"/><circle cx="117610000" cy="57140000" r="800000"/></g><g stroke-linecap="round" stroke-linejoin="round"><circle cx="117610000" cy="64760000" r="175000"/><circle cx="120150000" cy="64760000" r="175000"/><circle cx="122690000" cy="64760000" r="175000"/><circle cx="125230000" cy="64760000" r="175000"/><circle cx="127770000" cy="64760000" r="175000"/><circle cx="130310000" cy="64760000" r="175000"/><circle cx="132850000" cy="64760000" r="175000"/><circle cx="135390000" cy="64760000" r="175000"/><circle cx="137930000" cy="64760000" r="175000"/><circle cx="137930000" cy="57140000" r="175000"/><circle cx="135390000" cy="57140000" r="175000"/><circle cx="132850000" cy="57140000" r="175000"/><circle cx="130310000" cy="57140000" r="175000"/><circle cx="127770000" cy="57140000" r="175000"/><circle cx="125230000" cy="57140000" r="175000"/><circle cx="122690000" cy="57140000" r="175000"/><circle cx="120150000" cy="57140000" r="175000"/><circle cx="117610000" cy="57140000" r="175000"/></g></g><g fill="#b5ae30" mask="url(#c)" stroke="#b5ae30"><g fill-opacity="1" stroke-linecap="round" stroke-linejoin="round" stroke-width="1"><path d="M118410000 65560000h-1600000v-1600000h1600000z" fill-rule="evenodd"/><circle cx="120150000" cy="64760000" r="800000"/><circle cx="122690000" cy="64760000" r="800000"/><circle cx="125230000" cy="64760000" r="800000"/><circle cx="127770000" cy="64760000" r="800000"/><circle cx="130310000" cy="64760000" r="800000"/><circle cx="132850000" cy="64760000" r="800000"/><circle cx="135390000" cy="64760000" r="800000"/><circle cx="137930000" cy="64760000" r="800000"/><circle cx="137930000" cy="57140000" r="800000"/><circle cx="135390000" cy="57140000" r="800000"/><circle cx="132850000" cy="57140000" r="800000"/><circle cx="130310000" cy="57140000" r="800000"/><circle cx="127770000" cy="57140000" r="800000"/><circle cx="125230000" cy="57140000" r="800000"/><circle cx="122690000" cy="57140000" r="800000"/><circle cx="120150000" cy="57140000" r="800000"/><circle cx="117610000" cy="57140000" r="800000"/></g><g stroke-linecap="round" stroke-linejoin="round"><circle cx="117610000" cy="64760000" r="175000"/><circle cx="120150000" cy="64760000" r="175000"/><circle cx="122690000" cy="64760000" r="175000"/><circle cx="125230000" cy="64760000" r="175000"/><circle cx="127770000" cy="64760000" r="175000"/><circle cx="130310000" cy="64760000" r="175000"/><circle cx="132850000" cy="64760000" r="175000"/><circle cx="135390000" cy="64760000" r="175000"/><circle cx="137930000" cy="64760000" r="175000"/><circle cx="137930000" cy="57140000" r="175000"/><circle cx="135390000" cy="57140000" r="175000"/><circle cx="132850000" cy="57140000" r="175000"/><circle cx="130310000" cy="57140000" r="175000"/><circle cx="127770000" cy="57140000" r="175000"/><circle cx="125230000" cy="57140000" r="175000"/><circle cx="122690000" cy="57140000" r="175000"/><circle cx="120150000" cy="57140000" r="175000"/><circle cx="117610000" cy="57140000" r="175000"/></g></g><g fill="#f0f0f0" mask="url(#d)" stroke="#f0f0f0" stroke-linecap="round" stroke-linejoin="round"><g fill-opacity="0" stroke-width="375000"><g class="stroked-text"><path d="M109720000 53514285v857143M109720000 53942857h-1500000l214290 142857 142850 142857 71430 142857M108870000 52657142l-71430 142858-71430 71428-142860 71429h-71420l-142860-71429-71430-71428-71430-142858v-285714l71430-142857 71430-71429 142860-71428h71420l142860 71428 71430 71429 71430 142857v285714l71430 142858 71430 71428 142850 71429h285720l142850-71429 71430-71428 71430-142858v-285714l-71430-142857-71430-71429-142850-71428h-285720l-142850 71428-71430 71429-71430 142857M109150000 51442857v-1142857" fill="none"/></g><g class="stroked-text"><path d="M114550000 53514285v857143M114550000 53942857h-1500000l214290 142857 142850 142857 71430 142857M113050000 53014285v-1000000l1500000 642857M113980000 51442857v-1142857" fill="none"/></g><g class="stroked-text"><path d="M119380000 53514285v857143M119380000 53942857h-1500000l214290 142857 142850 142857 71430 142857M117880000 52228571v285714l71430 142857 71430 71429 214280 142857 285720 71429h571430l142850-71429 71430-71428 71430-142858v-285714l-71430-142857-71430-71429-142850-71428h-357150l-142850 71428-71430 71429-71430 142857v285714l71430 142858 71430 71428 142850 71429M118810000 51442857v-1142857" fill="none"/></g><g class="stroked-text"><path d="M124210000 53514285v857143M124210000 53942857h-1500000l214290 142857 142850 142857 71430 142857M122710000 52157142v714286l714290 71429-71430-71429-71430-142857v-357143l71430-142857 71430-71429 142850-71428h357150l142850 71428 71430 71429 71430 142857v357143l-71430 142857-71430 71429M123640000 51442857v-1142857" fill="none"/></g><g class="stroked-text"><path d="M129040000 53514285v857143M129040000 53942857h-1500000l214290 142857 142850 142857 71430 142857M128040000 52228571h1000000M127470000 52585714l1071430 357143v-928572M128470000 51442857v-1142857" fill="none"/></g><g class="stroked-text"><path d="M133870000 53514285v857143M133870000 53942857h-1500000l214290 142857 142850 142857 71430 142857M132370000 53014285v-928571l571430 500000v-214286l71430-142857 71430-71429 142850-71428h357150l142850 71428 71430 71429 71430 142857v428572l-71430 142857-71430 71428M133300000 51442857v-1142857" fill="none"/></g><g class="stroked-text"><path d="M138700000 53514285v857143M138700000 53942857h-1500000l214290 142857 142850 142857 71430 142857M137350000 52942857l-71430-71429-71430-142857v-357143l71430-142857 71430-71429 142860-71428h142850l214290 71428 857140 857143v-928571M138130000 51442857v-1142857" fill="none"/></g><g class="stroked-text"><path d="M143530000 53514285v857143M143530000 53942857h-1500000l214290 142857 142850 142857 71430 142857M143530000 52085714v857143M143530000 52514285h-1500000l214290 142857 142850 142858 71430 142857M142960000 51442857v-1142857" fill="none"/></g><g class="stroked-text"><path d="M148360000 53514285v857143M148360000 53942857h-1500000l214290 142857 142850 142857 71430 142857M146860000 52585714v-142857l71430-142857 71430-71429 142860-71429 285710-71428h357140l285720 71428 142850 71429 71430 71429 71430 142857v142857l-71430 142857-71430 71429-142850 71428-285720 71429h-357140l-285710-71429-142860-71428-71430-71429-71430-142857M147790000 51442857v-1142857" fill="none"/></g><g class="stroked-text"><path d="M109370000 90300000v857142M109370000 90728571h-1500000l214290 142857 142850 142857 71430 142857M108800000 89657142v-1142857" fill="none"/></g><g class="stroked-text"><path d="M112850000 91157142l-71430-71428-71430-142857v-357143l71430-142857 71430-71429 142860-71428h142850l214290 71428 857140 857143v-928571M113630000 89657142v-1142857" fill="none"/></g><g class="stroked-text"><path d="M117530000 91228571v-928571l571430 500000v-214286l71430-142857 71430-71429 142850-71428h357150l142850 71428 71430 71429 71430 142857v428571l-71430 142857-71430 71429M118460000 89657142v-1142857" fill="none"/></g><g class="stroked-text"><path d="M122860000 90442857h1000000M122290000 90800000l1071430 357142v-928571M123290000 89657142v-1142857" fill="none"/></g><g class="stroked-text"><path d="M127190000 90371428v714286l714290 71428-71430-71428-71430-142857v-357143l71430-142857 71430-71429 142850-71428h357150l142850 71428 71430 71429 71430 142857v357143l-71430 142857-71430 71428M128120000 89657142v-1142857" fill="none"/></g><g class="stroked-text"><path d="M132020000 90442857v285714l71430 142857 71430 71429 214280 142857 285720 71428h571430l142850-71428 71430-71429 71430-142857v-285714l-71430-142857-71430-71429-142850-71428h-357150l-142850 71428-71430 71429-71430 142857v285714l71430 142857 71430 71429 142850 71428M132950000 89657142v-1142857" fill="none"/></g><g class="stroked-text"><path d="M136850000 91228571v-1000000l1500000 642857M137780000 89657142v-1142857" fill="none"/></g><g class="stroked-text"><path d="M142330000 90871428l-71430 142857-71430 71429-142860 71428h-71420l-142860-71428-71430-71429-71430-142857v-285714l71430-142857 71430-71429 142860-71428h71420l142860 71428 71430 71429 71430 142857v285714l71430 142857 71430 71429 142850 71428h285720l142850-71428 71430-71429 71430-142857v-285714l-71430-142857-71430-71429-142850-71428h-285720l-142850 71428-71430 71429-71430 142857M142610000 89657142v-1142857" fill="none"/></g><g class="stroked-text"><path d="M148010000 91014285v-285714l-71430-142857-71430-71429-214280-142857-285720-71428h-571420l-142860 71428-71430 71429-71430 142857v285714l71430 142857 71430 71429 142860 71428h357140l142860-71428 71420-71429 71430-142857v-285714l-71430-142857-71420-71429-142860-71428M147440000 89657142v-1142857" fill="none"/></g></g><g fill-opacity="0" stroke-width="120000" fill="none"><path d="M139260000 63600000v-5300000M139260000 58300000h-22980000M116280000 63600000h22980000M116280000 58300000v1650000M116280000 61950000v1650000M116280000 61950000a1000000 1000000 0 0 0 0-2000000"/></g><circle cx="117610000" cy="64760000" r="175000"/><circle cx="120150000" cy="64760000" r="175000"/><circle cx="122690000" cy="64760000" r="175000"/><circle cx="125230000" cy="64760000" r="175000"/><circle cx="127770000" cy="64760000" r="175000"/><circle cx="130310000" cy="64760000" r="175000"/><circle cx="132850000" cy="64760000" r="175000"/><circle cx="135390000" cy="64760000" r="175000"/><circle cx="137930000" cy="64760000" r="175000"/><circle cx="137930000" cy="57140000" r="175000"/><circle cx="135390000" cy="57140000" r="175000"/><circle cx="132850000" cy="57140000" r="175000"/><circle cx="130310000" cy="57140000" r="175000"/><circle cx="127770000" cy="57140000" r="175000"/><circle cx="125230000" cy="57140000" r="175000"/><circle cx="122690000" cy="57140000" r="175000"/><circle cx="120150000" cy="57140000" r="175000"/><circle cx="117610000" cy="57140000" r="175000"/></g><g fill-opacity="0" stroke-linecap="round" stroke-linejoin="round" stroke-width="50000" fill="none" stroke="#000"><path d="M149860000 29464000v64008000M149860000 93472000h-43180000M106680000 93472000V29464000M106680000 29464000h43180000"/></g></g><g stroke="#000" stroke-width=".093"><path d="M138157000.001 57850040h-20777000v.1h-966500v6200000h22710000v-6200000z" fill="#333" stroke-width="93000"/><g fill="none"><path d="M139199000.001 57775040h-1041500M117380200.001 57775040h-1041500M137167000.001 57775040h-1016000M119386700.001 57775040h-1016000M134627000.001 57775040h-1016000M121926700.001 57775040h-1016000M132087000.001 57775040h-1016000M124466700.001 57775040h-1016000M129547000.001 57775040h-1016000M127007000.001 57775040h-1016000M116338740.001 57775040v6350000M116338740.001 64125000h1041500M138157000.001 64125000h1041500M118370700.001 64125000h1016000M136151000.001 64125000h1016000M120910700.001 64125000h1016000M133611000.001 64125000h1016000M123450700.001 64125000h1016000M131071000.001 64125000h1016000M125990700.001 64125000h1016000M128531000.001 64125000h1016000M139199000.001 64125000v-6350000M139199000.001 57775040l-75000 75000M116338740.001 57775040l75000 75000M137167000.001 57850040h-1016000M119386700.001 57850040h-1016000M134627000.001 57850040h-1016000M121926700.001 57850040h-1016000M132087000.001 57850040h-1016000M124466700.001 57850040h-1016000M129547000.001 57850040h-1016000M127007000.001 57850040h-1016000M116338740.001 64125000l75000-75000M139199000.001 64125000l-75000-75000M118370700.001 64050000h1016000M136151000.001 64050000h1016000M120910700.001 64050000h1016000M133611000.001 64050000h1016000M123450700.001 64050000h1016000M131071000.001 64050000h1016000M125990700.001 64050000h1016000M128531000.001 64050000h1016000M116413740.001 57850040l323720 323720M139124000.001 57850040l-323720 323720M116413740.001 64050000l323720-323720M116631190.001 61699340l106280-3110M116631190.001 61699340v-1498700M116631190.001 60200640l106280 3110" stroke-width="93000"/></g><path d="M116737460.001 58173740v2030000c383240 38517 675000 361070 675000 746240h-.4c-.3 385170-291760 707720-675000 746240l-.36.6v2030000h22063000v-5552600z" fill="#1a1a1a" fill-rule="evenodd" stroke-width="93000"/><g fill="none"><path d="M139124000.001 64050000l-323720-323720M116651770.001 61699940a750000 750000 0 0 1-20587-573.8M116631190.001 60200640a750000 750000 0 0 1 20587-572.5" stroke-width="93000"/></g><path d="M134627000.001 57140040v-381050 50h1524000v-50 1091000h-1524000z" fill="#ccc" fill-rule="evenodd" stroke-width="93000"/><path d="M134627000.001 57140040h1524000" fill="none" stroke-width="93000"/><path d="M137167000.001 57140040v-381100 100h1524000v-100 1091100h-1524000z" fill="#ccc" fill-rule="evenodd" stroke-width="93000"/><path d="M137167000.001 57140040h1524000" fill="none" stroke-width="93000"/><path d="M132087000.001 57140040v-381100 100h1524000v-100 1091100h-1524000z" fill="#ccc" fill-rule="evenodd" stroke-width="93000"/><path d="M132087000.001 57140040h1524000" fill="none" stroke-width="93000"/><path d="M129547000.001 57140040v-381100 100h1524000v-100 1091100h-1524000z" fill="#ccc" fill-rule="evenodd" stroke-width="93000"/><path d="M129547000.001 57140040h1524000" fill="none" stroke-width="93000"/><path d="M124467000.001 57140040v-381050 50h1524000v-50 1091000h-1524000z" fill="#ccc" fill-rule="evenodd" stroke-width="93000"/><path d="M124467000.001 57140040h1524000" fill="none" stroke-width="93000"/><path d="M127007000.001 57140040v-381100 100h1524000v-100 1091100h-1524000z" fill="#ccc" fill-rule="evenodd" stroke-width="93000"/><path d="M127007000.001 57140040h1524000" fill="none" stroke-width="93000"/><path d="M121927000.001 57140040v-381100 100h1524000v-100 1091100h-1524000z" fill="#ccc" fill-rule="evenodd" stroke-width="93000"/><path d="M121927000.001 57140040h1524000" fill="none" stroke-width="93000"/><path d="M119387000.001 57140040v-381100 100h1524000v-100 1091100h-1524000z" fill="#ccc" fill-rule="evenodd" stroke-width="93000"/><path d="M119387000.001 57140040h1524000" fill="none" stroke-width="93000"/><g><path d="M116847000.001 57140040v-381100 100h1524000v-100 1091100h-1524000z" fill="#ccc" fill-rule="evenodd" stroke-width="93000"/><path d="M116847000.001 57140040h1524000" fill="none" stroke-width="93000"/></g><g><path d="M123451000.001 64760000v381000h-1524000v-1091000h1524000z" fill="#ccc" fill-rule="evenodd" stroke-width="93000"/><path d="M123451000.001 64760000h-1524000" fill="none" stroke-width="93000"/><path d="M125991000.001 64760000v381000h-1524000v-1091000h1524000z" fill="#ccc" fill-rule="evenodd" stroke-width="93000"/><path d="M125991000.001 64760000h-1524000" fill="none" stroke-width="93000"/></g><g><path d="M120911000.001 64760040v381000h-1524000v-1091000h1524000z" fill="#ccc" fill-rule="evenodd" stroke-width="93000"/><path d="M120911000.001 64760040h-1524000" fill="none" stroke-width="93000"/></g><g><path d="M118371000.001 64760000v381000h-1524000v-1091000h1524000z" fill="#ccc" fill-rule="evenodd" stroke-width="93000"/><path d="M118371000.001 64760000h-1524000" fill="none" stroke-width="93000"/></g><g><path d="M133611000.001 64760000v381000h-1524000v-1091000h1524000z" fill="#ccc" fill-rule="evenodd" stroke-width="93000"/><path d="M133611000.001 64760000h-1524000" fill="none" stroke-width="93000"/><path d="M136151000.001 64760000v381000h-1524000v-1091000h1524000z" fill="#ccc" fill-rule="evenodd" stroke-width="93000"/><path d="M136151000.001 64760000h-1524000" fill="none" stroke-width="93000"/></g><g><path d="M131071000.001 64760000v381000h-1524000v-1091000h1524000z" fill="#ccc" fill-rule="evenodd" stroke-width="93000"/><path d="M131071000.001 64760000h-1524000" fill="none" stroke-width="93000"/></g><g><path d="M128531000.001 64760000v381000h-1524000v-1091000h1524000z" fill="#ccc" fill-rule="evenodd" stroke-width="93000"/><path d="M128531000.001 64760000h-1524000" fill="none" stroke-width="93000"/></g><g><path d="M138691000.001 64760000v381000h-1524000v-1091000h1524000z" fill="#ccc" fill-rule="evenodd" stroke-width="93000"/><path d="M138691000.001 64760000h-1524000" fill="none" stroke-width="93000"/></g></g></svg>