<svg width="250" height="315" viewBox="103610000 29439000 50850000 64136000" xmlns="http://www.w3.org/2000/svg"><defs><mask id="c"><g fill="#fff" fill-opacity="1" stroke="#fff" stroke-linecap="round" stroke-linejoin="round" stroke-width="1"><path d="M118410000 65560000h-1600000v-1600000h1600000z" fill-rule="evenodd"/><circle cx="120150000" cy="64760000" r="800000"/><circle cx="122690000" cy="64760000" r="800000"/><circle cx="125230000" cy="64760000" r="800000"/><circle cx="127770000" cy="64760000" r="800000"/><circle cx="130310000" cy="64760000" r="800000"/><circle cx="132850000" cy="64760000" r="800000"/><circle cx="135390000" cy="64760000" r="800000"/><circle cx="137930000" cy="64760000" r="800000"/><circle cx="140470000" cy="64760000" r="800000"/><circle cx="140470000" cy="57140000" r="800000"/><circle cx="137930000" cy="57140000" r="800000"/><circle cx="135390000" cy="57140000" r="800000"/><circle cx="132850000" cy="57140000" r="800000"/><circle cx="130310000" cy="57140000" r="800000"/><circle cx="127770000" cy="57140000" r="800000"/><circle cx="125230000" cy="57140000" r="800000"/><circle cx="122690000" cy="57140000" r="800000"/><circle cx="120150000" cy="57140000" r="800000"/><circle cx="117610000" cy="57140000" r="800000"/></g></mask><mask id="d"><path fill="#fff" d="M103610000 29439000h50850000v64136000h-50850000z"/><g fill-opacity="1" stroke="#000" stroke-linecap="round" stroke-linejoin="round" stroke-width="1"><path d="M118410000 65560000h-1600000v-1600000h1600000z" fill-rule="evenodd"/><circle cx="120150000" cy="64760000" r="800000"/><circle cx="122690000" cy="64760000" r="800000"/><circle cx="125230000" cy="64760000" r="800000"/><circle cx="127770000" cy="64760000" r="800000"/><circle cx="130310000" cy="64760000" r="800000"/><circle cx="132850000" cy="64760000" r="800000"/><circle cx="135390000" cy="64760000" r="800000"/><circle cx="137930000" cy="64760000" r="800000"/><circle cx="140470000" cy="64760000" r="800000"/><circle cx="140470000" cy="57140000" r="800000"/><circle cx="137930000" cy="57140000" r="800000"/><circle cx="135390000" cy="57140000" r="800000"/><circle cx="132850000" cy="57140000" r="800000"/><circle cx="130310000" cy="57140000" r="800000"/><circle cx="127770000" cy="57140000" r="800000"/><circle cx="125230000" cy="57140000" r="800000"/><circle cx="122690000" cy="57140000" r="800000"/><circle cx="120150000" cy="57140000" r="800000"/><circle cx="117610000" cy="57140000" r="800000"/></g></mask><mask id="b"><path fill="#fff" d="M103610000 29439000h50850000v64136000h-50850000z"/><path stroke="#000" stroke-linecap="round" stroke-width="800000" d="M117610000 64760000h0M120150000 64760000h0M122690000 64760000h0M125230000 64760000h0M127770000 64760000h0M130310000 64760000h0M132850000 64760000h0M135390000 64760000h0M137930000 64760000h0M140470000 64760000h0M140470000 57140000h0M137930000 57140000h0M135390000 57140000h0M132850000 57140000h0M130310000 57140000h0M127770000 57140000h0M125230000 57140000h0M122690000 57140000h0M120150000 57140000h0M117610000 57140000h0"/></mask><clipPath id="a"><path d="M103630000 29464000h50800000v64086000h-50800000V29464000" fill-rule="evenodd"/></clipPath></defs><g clip-path="url(#a)" mask="url(#b)" transform="translate(.002)"><g fill="#313d63" stroke="#313d63"><path d="M103630000 29464000h50800000v64086000h-50800000V29464000" fill-rule="evenodd"/><g fill-opacity="0" stroke-linecap="round" stroke-linejoin="round" stroke-width="50000" fill="none" stroke="#000"><path d="M154430000 29464000v64086000M154430000 93550000h-50800000M103630000 93550000V29464000M103630000 29464000h50800000"/></g></g><g fill-opacity="1" stroke-linecap="round" stroke-linejoin="round" stroke-width="1" fill="#9c6b28" stroke="#9c6b28"><path d="M118410000 65560000h-1600000v-1600000h1600000z" fill-rule="evenodd"/><circle cx="120150000" cy="64760000" r="800000"/><circle cx="122690000" cy="64760000" r="800000"/><circle cx="125230000" cy="64760000" r="800000"/><circle cx="127770000" cy="64760000" r="800000"/><circle cx="130310000" cy="64760000" r="800000"/><circle cx="132850000" cy="64760000" r="800000"/><circle cx="135390000" cy="64760000" r="800000"/><circle cx="137930000" cy="64760000" r="800000"/><circle cx="140470000" cy="64760000" r="800000"/><circle cx="140470000" cy="57140000" r="800000"/><circle cx="137930000" cy="57140000" r="800000"/><circle cx="135390000" cy="57140000" r="800000"/><circle cx="132850000" cy="57140000" r="800000"/><circle cx="130310000" cy="57140000" r="800000"/><circle cx="127770000" cy="57140000" r="800000"/><circle cx="125230000" cy="57140000" r="800000"/><circle cx="122690000" cy="57140000" r="800000"/><circle cx="120150000" cy="57140000" r="800000"/><circle cx="117610000" cy="57140000" r="800000"/></g><g fill="#212d53" stroke="#212d53"><g fill-opacity="1" stroke-linecap="round" stroke-linejoin="round" stroke-width="1"><path d="M118410000 65560000h-1600000v-1600000h1600000z" fill-rule="evenodd"/><circle cx="120150000" cy="64760000" r="800000"/><circle cx="122690000" cy="64760000" r="800000"/><circle cx="125230000" cy="64760000" r="800000"/><circle cx="127770000" cy="64760000" r="800000"/><circle cx="130310000" cy="64760000" r="800000"/><circle cx="132850000" cy="64760000" r="800000"/><circle cx="135390000" cy="64760000" r="800000"/><circle cx="137930000" cy="64760000" r="800000"/><circle cx="140470000" cy="64760000" r="800000"/><circle cx="140470000" cy="57140000" r="800000"/><circle cx="137930000" cy="57140000" r="800000"/><circle cx="135390000" cy="57140000" r="800000"/><circle cx="132850000" cy="57140000" r="800000"/><circle cx="130310000" cy="57140000" r="800000"/><circle cx="127770000" cy="57140000" r="800000"/><circle cx="125230000" cy="57140000" r="800000"/><circle cx="122690000" cy="57140000" r="800000"/><circle cx="120150000" cy="57140000" r="800000"/><circle cx="117610000" cy="57140000" r="800000"/></g><g stroke-linecap="round" stroke-linejoin="round"><circle cx="117610000" cy="64760000" r="175000"/><circle cx="120150000" cy="64760000" r="175000"/><circle cx="122690000" cy="64760000" r="175000"/><circle cx="125230000" cy="64760000" r="175000"/><circle cx="127770000" cy="64760000" r="175000"/><circle cx="130310000" cy="64760000" r="175000"/><circle cx="132850000" cy="64760000" r="175000"/><circle cx="135390000" cy="64760000" r="175000"/><circle cx="137930000" cy="64760000" r="175000"/><circle cx="140470000" cy="64760000" r="175000"/><circle cx="140470000" cy="57140000" r="175000"/><circle cx="137930000" cy="57140000" r="175000"/><circle cx="135390000" cy="57140000" r="175000"/><circle cx="132850000" cy="57140000" r="175000"/><circle cx="130310000" cy="57140000" r="175000"/><circle cx="127770000" cy="57140000" r="175000"/><circle cx="125230000" cy="57140000" r="175000"/><circle cx="122690000" cy="57140000" r="175000"/><circle cx="120150000" cy="57140000" r="175000"/><circle cx="117610000" cy="57140000" r="175000"/></g></g><g fill="#b5ae30" mask="url(#c)" stroke="#b5ae30"><g fill-opacity="1" stroke-linecap="round" stroke-linejoin="round" stroke-width="1"><path d="M118410000 65560000h-1600000v-1600000h1600000z" fill-rule="evenodd"/><circle cx="120150000" cy="64760000" r="800000"/><circle cx="122690000" cy="64760000" r="800000"/><circle cx="125230000" cy="64760000" r="800000"/><circle cx="127770000" cy="64760000" r="800000"/><circle cx="130310000" cy="64760000" r="800000"/><circle cx="132850000" cy="64760000" r="800000"/><circle cx="135390000" cy="64760000" r="800000"/><circle cx="137930000" cy="64760000" r="800000"/><circle cx="140470000" cy="64760000" r="800000"/><circle cx="140470000" cy="57140000" r="800000"/><circle cx="137930000" cy="57140000" r="800000"/><circle cx="135390000" cy="57140000" r="800000"/><circle cx="132850000" cy="57140000" r="800000"/><circle cx="130310000" cy="57140000" r="800000"/><circle cx="127770000" cy="57140000" r="800000"/><circle cx="125230000" cy="57140000" r="800000"/><circle cx="122690000" cy="57140000" r="800000"/><circle cx="120150000" cy="57140000" r="800000"/><circle cx="117610000" cy="57140000" r="800000"/></g><g stroke-linecap="round" stroke-linejoin="round"><circle cx="117610000" cy="64760000" r="175000"/><circle cx="120150000" cy="64760000" r="175000"/><circle cx="122690000" cy="64760000" r="175000"/><circle cx="125230000" cy="64760000" r="175000"/><circle cx="127770000" cy="64760000" r="175000"/><circle cx="130310000" cy="64760000" r="175000"/><circle cx="132850000" cy="64760000" r="175000"/><circle cx="135390000" cy="64760000" r="175000"/><circle cx="137930000" cy="64760000" r="175000"/><circle cx="140470000" cy="64760000" r="175000"/><circle cx="140470000" cy="57140000" r="175000"/><circle cx="137930000" cy="57140000" r="175000"/><circle cx="135390000" cy="57140000" r="175000"/><circle cx="132850000" cy="57140000" r="175000"/><circle cx="130310000" cy="57140000" r="175000"/><circle cx="127770000" cy="57140000" r="175000"/><circle cx="125230000" cy="57140000" r="175000"/><circle cx="122690000" cy="57140000" r="175000"/><circle cx="120150000" cy="57140000" r="175000"/><circle cx="117610000" cy="57140000" r="175000"/></g></g><g fill="#f0f0f0" mask="url(#d)" stroke="#f0f0f0" stroke-linecap="round" stroke-linejoin="round"><g fill-opacity="0" stroke-width="375000"><g class="stroked-text"><path d="M105950000 54371428l-71430-71428-71430-142858v-357142l71430-142858 71430-71428 142860-71429h142850l214290 71429 857140 857143v-928572M105810000 52585714v-142857l71430-142857 71430-71429 142860-71429 285710-71428h357140l285720 71428 142850 71429 71430 71429 71430 142857v142857l-71430 142857-71430 71429-142850 71428-285720 71429h-357140l-285710-71429-142860-71428-71430-71429-71430-142857M106740000 51442857v-1142857" fill="none"/></g><g class="stroked-text"><path d="M112140000 53514285v857143M112140000 53942857h-1500000l214290 142857 142850 142857 71430 142857M112140000 52800000v-285715l-71430-142857-71430-71428-214280-142858-285720-71428h-571420l-142860 71428-71430 71429-71430 142857v285714l71430 142858 71430 71428 142860 71429h357140l142860-71429 71420-71428 71430-142858v-285714l-71430-142857-71420-71429-142860-71428M111570000 51442857v-1142857" fill="none"/></g><g class="stroked-text"><path d="M116970000 53514285v857143M116970000 53942857h-1500000l214290 142857 142850 142857 71430 142857M116110000 52657142l-71430 142858-71430 71428-142860 71429h-71420l-142860-71429-71430-71428-71430-142858v-285714l71430-142857 71430-71429 142860-71428h71420l142860 71428 71430 71429 71430 142857v285714l71430 142858 71430 71428 142850 71429h285720l142850-71429 71430-71428 71430-142858v-285714l-71430-142857-71430-71429-142850-71428h-285720l-142850 71428-71430 71429-71430 142857M116400000 51442857v-1142857" fill="none"/></g><g class="stroked-text"><path d="M121800000 53514285v857143M121800000 53942857h-1500000l214290 142857 142850 142857 71430 142857M120300000 53014285v-1000000l1500000 642857M121230000 51442857v-1142857" fill="none"/></g><g class="stroked-text"><path d="M126630000 53514285v857143M126630000 53942857h-1500000l214290 142857 142850 142857 71430 142857M125130000 52228571v285714l71430 142857 71430 71429 214280 142857 285720 71429h571430l142850-71429 71430-71428 71430-142858v-285714l-71430-142857-71430-71429-142850-71428h-357150l-142850 71428-71430 71429-71430 142857v285714l71430 142858 71430 71428 142850 71429M126060000 51442857v-1142857" fill="none"/></g><g class="stroked-text"><path d="M131460000 53514285v857143M131460000 53942857h-1500000l214290 142857 142850 142857 71430 142857M129960000 52157142v714286l714290 71429-71430-71429-71430-142857v-357143l71430-142857 71430-71429 142850-71428h357150l142850 71428 71430 71429 71430 142857v357143l-71430 142857-71430 71429M130890000 51442857v-1142857" fill="none"/></g><g class="stroked-text"><path d="M136290000 53514285v857143M136290000 53942857h-1500000l214290 142857 142850 142857 71430 142857M135290000 52228571h1000000M134720000 52585714l1071430 357143v-928572M135720000 51442857v-1142857" fill="none"/></g><g class="stroked-text"><path d="M141120000 53514285v857143M141120000 53942857h-1500000l214290 142857 142850 142857 71430 142857M139620000 53014285v-928571l571430 500000v-214286l71430-142857 71430-71429 142850-71428h357150l142850 71428 71430 71429 71430 142857v428572l-71430 142857-71430 71428M140550000 51442857v-1142857" fill="none"/></g><g class="stroked-text"><path d="M145950000 53514285v857143M145950000 53942857h-1500000l214290 142857 142850 142857 71430 142857M144590000 52942857l-71430-71429-71430-142857v-357143l71430-142857 71430-71429 142860-71428h142850l214290 71428 857140 857143v-928571M145380000 51442857v-1142857" fill="none"/></g><g class="stroked-text"><path d="M150780000 53514285v857143M150780000 53942857h-1500000l214290 142857 142850 142857 71430 142857M150780000 52085714v857143M150780000 52514285h-1500000l214290 142857 142850 142858 71430 142857M150210000 51442857v-1142857" fill="none"/></g><g class="stroked-text"><path d="M106960000 89728571v857143M106960000 90157142h-1500000l214290 142858 142850 142857 71430 142857M106390000 89085714v-1142857" fill="none"/></g><g class="stroked-text"><path d="M110430000 90585714l-71430-71429-71430-142857v-357143l71430-142857 71430-71428 142860-71429h142850l214290 71429 857140 857142v-928571M111220000 89085714v-1142857" fill="none"/></g><g class="stroked-text"><path d="M115120000 90657142v-928571l571430 500000v-214286l71430-142857 71430-71428 142850-71429h357150l142850 71429 71430 71428 71430 142857v428572l-71430 142857-71430 71428M116050000 89085714v-1142857" fill="none"/></g><g class="stroked-text"><path d="M120450000 89871428h1000000M119880000 90228571l1071430 357143v-928572M120880000 89085714v-1142857" fill="none"/></g><g class="stroked-text"><path d="M124780000 89800000v714285l714290 71429-71430-71429-71430-142857v-357143l71430-142857 71430-71428 142850-71429h357150l142850 71429 71430 71428 71430 142857v357143l-71430 142857-71430 71429M125710000 89085714v-1142857" fill="none"/></g><g class="stroked-text"><path d="M129610000 89871428v285714l71430 142858 71430 71428 214280 142857 285720 71429h571430l142850-71429 71430-71428 71430-142857v-285715l-71430-142857-71430-71428-142850-71429h-357150l-142850 71429-71430 71428-71430 142857v285715l71430 142857 71430 71428 142850 71429M130540000 89085714v-1142857" fill="none"/></g><g class="stroked-text"><path d="M134440000 90657142v-1000000l1500000 642858M135370000 89085714v-1142857" fill="none"/></g><g class="stroked-text"><path d="M139910000 90300000l-71430 142857-71430 71428-142860 71429h-71420l-142860-71429-71430-71428-71430-142857v-285715l71430-142857 71430-71428 142860-71429h71420l142860 71429 71430 71428 71430 142857v285715l71430 142857 71430 71428 142850 71429h285720l142850-71429 71430-71428 71430-142857v-285715l-71430-142857-71430-71428-142850-71429h-285720l-142850 71429-71430 71428-71430 142857M140200000 89085714v-1142857" fill="none"/></g><g class="stroked-text"><path d="M145600000 90442857v-285715l-71430-142857-71430-71428-214280-142857-285720-71429h-571420l-142860 71429-71430 71428-71430 142857v285715l71430 142857 71430 71428 142860 71429h357140l142860-71429 71420-71428 71430-142857v-285715l-71430-142857-71420-71428-142860-71429M145030000 89085714v-1142857" fill="none"/></g><g class="stroked-text"><path d="M150430000 91014285v857143M150430000 91442857h-1500000l214290 142857 142850 142857 71430 142857M148930000 90085714v-142857l71430-142857 71430-71429 142860-71429 285710-71428h357140l285720 71428 142850 71429 71430 71429 71430 142857v142857l-71430 142857-71430 71429-142850 71428-285720 71429h-357140l-285710-71429-142860-71428-71430-71429-71430-142857M149860000 88942857v-1142857" fill="none"/></g></g><g fill-opacity="0" stroke-width="120000" fill="none"><path d="M116280000 63600000h25520000M116280000 58300000v1650000M141800000 58300000h-25520000M116280000 61950000v1650000M141800000 63600000v-5300000M116280000 61950000a1000000 1000000 0 0 0 0-2000000"/></g><circle cx="117610000" cy="64760000" r="175000"/><circle cx="120150000" cy="64760000" r="175000"/><circle cx="122690000" cy="64760000" r="175000"/><circle cx="125230000" cy="64760000" r="175000"/><circle cx="127770000" cy="64760000" r="175000"/><circle cx="130310000" cy="64760000" r="175000"/><circle cx="132850000" cy="64760000" r="175000"/><circle cx="135390000" cy="64760000" r="175000"/><circle cx="137930000" cy="64760000" r="175000"/><circle cx="140470000" cy="64760000" r="175000"/><circle cx="140470000" cy="57140000" r="175000"/><circle cx="137930000" cy="57140000" r="175000"/><circle cx="135390000" cy="57140000" r="175000"/><circle cx="132850000" cy="57140000" r="175000"/><circle cx="130310000" cy="57140000" r="175000"/><circle cx="127770000" cy="57140000" r="175000"/><circle cx="125230000" cy="57140000" r="175000"/><circle cx="122690000" cy="57140000" r="175000"/><circle cx="120150000" cy="57140000" r="175000"/><circle cx="117610000" cy="57140000" r="175000"/></g><g fill-opacity="0" stroke-linecap="round" stroke-linejoin="round" stroke-width="50000" fill="none" stroke="#000"><path d="M154430000 29464000v64086000M154430000 93550000h-50800000M103630000 93550000V29464000M103630000 29464000h50800000"/></g></g><g stroke-width=".093" stroke="#000"><path d="M142046000.002 64050000v-6200000h-1347500v-.1h-23317000v.1h-1347500v6200000h24664000z" fill="#333" fill-rule="evenodd" stroke-width="93000"/><g fill="none"><path d="M142121000.002 57775040h-1422500M117381200.002 57775040h-1422500M139708000.002 57775040h-1016000M119387700.002 57775040h-1016000M137168000.002 57775040h-1016000M121927700.002 57775040h-1016000M134628000.002 57775040h-1016000M124467700.002 57775040h-1016000M132088000.002 57775040h-1016000M127008000.002 57775040h-1016000M129548000.002 57775040h-1016000M115958740.002 57775040v6350000M115958740.002 64125000h1422500M140698000.002 64125000h1422500M118371700.002 64125000h1016000M138692000.002 64125000h1016000M120911700.002 64125000h1016000M136152000.002 64125000h1016000M123451700.002 64125000h1016000M133612000.002 64125000h1016000M125992000.002 64125000h1016000M131072000.002 64125000h1016000M128532000.002 64125000h1016000M142121000.002 64125000v-6350000M142121000.002 57775040l-75000 75000M115958740.002 57775040l75000 75000M139708000.002 57850040h-1016000M119387700.002 57850040h-1016000M137168000.002 57850040h-1016000M121927700.002 57850040h-1016000M134628000.002 57850040h-1016000M124467700.002 57850040h-1016000M132088000.002 57850040h-1016000M127008000.002 57850040h-1016000M129548000.002 57850040h-1016000M115958740.002 64125000l75000-75000M142121000.002 64125000l-75000-75000M118371700.002 64050000h1016000M138692000.002 64050000h1016000M120911700.002 64050000h1016000M136152000.002 64050000h1016000M123451700.002 64050000h1016000M133612000.002 64050000h1016000M125992000.002 64050000h1016000M131072000.002 64050000h1016000M128532000.002 64050000h1016000M116033740.002 57850040l323720 323720M142046000.002 57850040l-323720 323720M116033740.002 64050000l323720-323720M116251190.002 61699340l106280-3110M116251190.002 61699340v-1498700M116251190.002 60200640l106280 3110" stroke-width="93000"/></g><path d="M116357460.002 58173740v2030000c383240 38517 675000 361070 675000 746240h-.4c-.5 385170-291760 707720-675000 746240l3.6.6v2030000h25365000v-5552600z" fill="#1a1a1a" fill-rule="evenodd" stroke-width="93000"/><g fill="none"><path d="M142046000.002 64050000l-323720-323720M116271770.002 61699940a750000 750000 0 0 1-20582-573.8M116251190.002 60200640a750000 750000 0 0 1 20585-572.5" stroke-width="93000"/></g><path d="M138692000.002 64760000v381000h-1524000v-1091000h1524000z" fill="#ccc" fill-rule="evenodd" stroke-width="93000"/><path d="M138692000.002 64760000h-1524000" fill="none" stroke-width="93000"/><path d="M141232000.002 64760000v381000h-1524000v-1091000h1524000z" fill="#ccc" fill-rule="evenodd" stroke-width="93000"/><path d="M141232000.002 64760000h-1524000" fill="none" stroke-width="93000"/><path d="M136152000.002 64760040v381000h-1524000v-1091000h1524000z" fill="#ccc" fill-rule="evenodd" stroke-width="93000"/><path d="M136152000.002 64760040h-1524000" fill="none" stroke-width="93000"/><path d="M133612000.002 64760000v381000h-1524000v-1091000h1524000z" fill="#ccc" fill-rule="evenodd" stroke-width="93000"/><path d="M133612000.002 64760000h-1524000" fill="none" stroke-width="93000"/><path d="M128532000.002 64760000v381000h-1524000v-1091000h1524000z" fill="#ccc" fill-rule="evenodd" stroke-width="93000"/><path d="M128532000.002 64760000h-1524000" fill="none" stroke-width="93000"/><path d="M131072000.002 64760000v381000h-1524000v-1091000h1524000z" fill="#ccc" fill-rule="evenodd" stroke-width="93000"/><path d="M131072000.002 64760000h-1524000" fill="none" stroke-width="93000"/><g><path d="M125992000.002 64760040v381000h-1524000v-1091000h1524000z" fill="#ccc" fill-rule="evenodd" stroke-width="93000"/><path d="M125992000.002 64760040h-1524000" fill="none" stroke-width="93000"/></g><g><path d="M123452000.002 64760000v381000h-1524000v-1091000h1524000z" fill="#ccc" fill-rule="evenodd" stroke-width="93000"/><path d="M123452000.002 64760000h-1524000" fill="none" stroke-width="93000"/></g><g><path d="M118372000.002 64760000v381000h-1524000v-1091000h1524000z" fill="#ccc" fill-rule="evenodd" stroke-width="93000"/><path d="M118372000.002 64760000h-1524000" fill="none" stroke-width="93000"/><path d="M120912000.002 64760000v381000h-1524000v-1091000h1524000z" fill="#ccc" fill-rule="evenodd" stroke-width="93000"/><path d="M120912000.002 64760000h-1524000" fill="none" stroke-width="93000"/></g><g><path d="M121928000.002 57140040v-381050 50h1524000v-50 1091000h-1524000z" fill="#ccc" fill-rule="evenodd" stroke-width="93000"/><path d="M121928000.002 57140040h1524000" fill="none" stroke-width="93000"/><path d="M124468000.002 57140040v-381100 100h1524000v-100 1091100h-1524000z" fill="#ccc" fill-rule="evenodd" stroke-width="93000"/><path d="M124468000.002 57140040h1524000" fill="none" stroke-width="93000"/><path d="M119388000.002 57140040v-381100 100h1524000v-100 1091100h-1524000z" fill="#ccc" fill-rule="evenodd" stroke-width="93000"/><path d="M119388000.002 57140040h1524000" fill="none" stroke-width="93000"/><path d="M116848000.002 57140040v-381100 100h1524000v-100 1091100h-1524000z" fill="#ccc" fill-rule="evenodd" stroke-width="93000"/><path d="M116848000.002 57140040h1524000" fill="none" stroke-width="93000"/></g><g><path d="M132088000.002 57140040v-381050 50h1524000v-50 1091000h-1524000z" fill="#ccc" fill-rule="evenodd" stroke-width="93000"/><path d="M132088000.002 57140040h1524000" fill="none" stroke-width="93000"/><path d="M134628000.002 57140040v-381100 100h1524000v-100 1091100h-1524000z" fill="#ccc" fill-rule="evenodd" stroke-width="93000"/><path d="M134628000.002 57140040h1524000" fill="none" stroke-width="93000"/><path d="M129548000.002 57140040v-381100 100h1524000v-100 1091100h-1524000z" fill="#ccc" fill-rule="evenodd" stroke-width="93000"/><path d="M129548000.002 57140040h1524000" fill="none" stroke-width="93000"/><path d="M127008000.002 57140040v-381100 100h1524000v-100 1091100h-1524000z" fill="#ccc" fill-rule="evenodd" stroke-width="93000"/><path d="M127008000.002 57140040h1524000" fill="none" stroke-width="93000"/></g><g><path d="M139708000.002 57140040v-381100 100h1524000v-100 1091100h-1524000z" fill="#ccc" fill-rule="evenodd" stroke-width="93000"/><path d="M139708000.002 57140040h1524000" fill="none" stroke-width="93000"/><path d="M137168000.002 57140040v-381100 100h1524000v-100 1091100h-1524000z" fill="#ccc" fill-rule="evenodd" stroke-width="93000"/><path d="M137168000.002 57140040h1524000" fill="none" stroke-width="93000"/></g></g></svg>