<svg width="382" height="312" viewBox="0 0 30649 25019" xmlns="http://www.w3.org/2000/svg"><g clip-path="url(#a)" mask="url(#b)" transform="translate(-40739 -11821)"><defs><clipPath id="a"><path d="M71377 36830H40748V11830h30629v25000" fill-rule="evenodd"/></clipPath></defs><g fill="#313d63" stroke="#313d63"><path d="M71377 36830H40748V11830h30629v25000" fill-rule="evenodd"/><g fill-opacity="0" stroke-linecap="round" stroke-linejoin="round" stroke-width="19.685" fill="none" stroke="#000"><path d="M71377 11830v25000M40748 11830h30629M40748 36830V11830M71377 36830H40748"/></g></g><g fill-opacity="1" stroke="none" stroke-linecap="round" stroke-linejoin="round" stroke-width="0" fill="#9c6b28"><circle cx="49232" cy="22807" r="314.96"/><circle cx="62232" cy="25807" r="314.96"/><circle cx="50232" cy="22807" r="314.96"/><circle cx="61232" cy="25807" r="314.96"/><circle cx="51232" cy="22807" r="314.96"/><circle cx="60232" cy="25807" r="314.96"/><circle cx="52232" cy="22807" r="314.96"/><circle cx="59232" cy="25807" r="314.96"/><circle cx="53232" cy="22807" r="314.96"/><circle cx="58232" cy="25807" r="314.96"/><circle cx="54232" cy="22807" r="314.96"/><circle cx="57232" cy="25807" r="314.96"/><circle cx="55232" cy="22807" r="314.96"/><circle cx="56232" cy="25807" r="314.96"/><circle cx="56232" cy="22807" r="314.96"/><circle cx="55232" cy="25807" r="314.96"/><circle cx="57232" cy="22807" r="314.96"/><circle cx="54232" cy="25807" r="314.96"/><circle cx="58232" cy="22807" r="314.96"/><circle cx="53232" cy="25807" r="314.96"/><circle cx="59232" cy="22807" r="314.96"/><circle cx="52232" cy="25807" r="314.96"/><circle cx="60232" cy="22807" r="314.96"/><circle cx="51232" cy="25807" r="314.96"/><circle cx="61232" cy="22807" r="314.96"/><circle cx="50232" cy="25807" r="314.96"/><circle cx="62232" cy="22807" r="314.96"/><path d="M49547 26122h-629.9v-629.9h629.9z" fill-rule="evenodd"/></g><g fill="#212d53" stroke="#212d53" stroke-linecap="round" stroke-linejoin="round" stroke-width="0"><g fill-opacity="1" stroke="none"><circle cx="49232" cy="22807" r="314.96"/><circle cx="62232" cy="25807" r="314.96"/><circle cx="50232" cy="22807" r="314.96"/><circle cx="61232" cy="25807" r="314.96"/><circle cx="51232" cy="22807" r="314.96"/><circle cx="60232" cy="25807" r="314.96"/><circle cx="52232" cy="22807" r="314.96"/><circle cx="59232" cy="25807" r="314.96"/><circle cx="53232" cy="22807" r="314.96"/><circle cx="58232" cy="25807" r="314.96"/><circle cx="54232" cy="22807" r="314.96"/><circle cx="57232" cy="25807" r="314.96"/><circle cx="55232" cy="22807" r="314.96"/><circle cx="56232" cy="25807" r="314.96"/><circle cx="56232" cy="22807" r="314.96"/><circle cx="55232" cy="25807" r="314.96"/><circle cx="57232" cy="22807" r="314.96"/><circle cx="54232" cy="25807" r="314.96"/><circle cx="58232" cy="22807" r="314.96"/><circle cx="53232" cy="25807" r="314.96"/><circle cx="59232" cy="22807" r="314.96"/><circle cx="52232" cy="25807" r="314.96"/><circle cx="60232" cy="22807" r="314.96"/><circle cx="51232" cy="25807" r="314.96"/><circle cx="61232" cy="22807" r="314.96"/><circle cx="50232" cy="25807" r="314.96"/><circle cx="62232" cy="22807" r="314.96"/><path d="M49547 26122h-629.9v-629.9h629.9z" fill-rule="evenodd"/></g><g stroke="none"><circle cx="49232" cy="22807" r="68.898"/><circle cx="62232" cy="25807" r="68.898"/><circle cx="50232" cy="22807" r="68.898"/><circle cx="61232" cy="25807" r="68.898"/><circle cx="51232" cy="22807" r="68.898"/><circle cx="60232" cy="25807" r="68.898"/><circle cx="52232" cy="22807" r="68.898"/><circle cx="59232" cy="25807" r="68.898"/><circle cx="53232" cy="22807" r="68.898"/><circle cx="58232" cy="25807" r="68.898"/><circle cx="54232" cy="22807" r="68.898"/><circle cx="57232" cy="25807" r="68.898"/><circle cx="55232" cy="22807" r="68.898"/><circle cx="56232" cy="25807" r="68.898"/><circle cx="56232" cy="22807" r="68.898"/><circle cx="55232" cy="25807" r="68.898"/><circle cx="57232" cy="22807" r="68.898"/><circle cx="54232" cy="25807" r="68.898"/><circle cx="58232" cy="22807" r="68.898"/><circle cx="53232" cy="25807" r="68.898"/><circle cx="59232" cy="22807" r="68.898"/><circle cx="52232" cy="25807" r="68.898"/><circle cx="60232" cy="22807" r="68.898"/><circle cx="51232" cy="25807" r="68.898"/><circle cx="61232" cy="22807" r="68.898"/><circle cx="50232" cy="25807" r="68.898"/><circle cx="62232" cy="22807" r="68.898"/><circle cx="49232" cy="25807" r="68.898"/></g></g><g fill="#b5ae30" mask="url(#c)" stroke="#b5ae30" stroke-linecap="round" stroke-linejoin="round" stroke-width="0"><g fill-opacity="1" stroke="none"><circle cx="49232" cy="22807" r="314.96"/><circle cx="62232" cy="25807" r="314.96"/><circle cx="50232" cy="22807" r="314.96"/><circle cx="61232" cy="25807" r="314.96"/><circle cx="51232" cy="22807" r="314.96"/><circle cx="60232" cy="25807" r="314.96"/><circle cx="52232" cy="22807" r="314.96"/><circle cx="59232" cy="25807" r="314.96"/><circle cx="53232" cy="22807" r="314.96"/><circle cx="58232" cy="25807" r="314.96"/><circle cx="54232" cy="22807" r="314.96"/><circle cx="57232" cy="25807" r="314.96"/><circle cx="55232" cy="22807" r="314.96"/><circle cx="56232" cy="25807" r="314.96"/><circle cx="56232" cy="22807" r="314.96"/><circle cx="55232" cy="25807" r="314.96"/><circle cx="57232" cy="22807" r="314.96"/><circle cx="54232" cy="25807" r="314.96"/><circle cx="58232" cy="22807" r="314.96"/><circle cx="53232" cy="25807" r="314.96"/><circle cx="59232" cy="22807" r="314.96"/><circle cx="52232" cy="25807" r="314.96"/><circle cx="60232" cy="22807" r="314.96"/><circle cx="51232" cy="25807" r="314.96"/><circle cx="61232" cy="22807" r="314.96"/><circle cx="50232" cy="25807" r="314.96"/><circle cx="62232" cy="22807" r="314.96"/><path d="M49547 26122h-629.9v-629.9h629.9z" fill-rule="evenodd"/></g><g stroke="none"><circle cx="49232" cy="22807" r="68.898"/><circle cx="62232" cy="25807" r="68.898"/><circle cx="50232" cy="22807" r="68.898"/><circle cx="61232" cy="25807" r="68.898"/><circle cx="51232" cy="22807" r="68.898"/><circle cx="60232" cy="25807" r="68.898"/><circle cx="52232" cy="22807" r="68.898"/><circle cx="59232" cy="25807" r="68.898"/><circle cx="53232" cy="22807" r="68.898"/><circle cx="58232" cy="25807" r="68.898"/><circle cx="54232" cy="22807" r="68.898"/><circle cx="57232" cy="25807" r="68.898"/><circle cx="55232" cy="22807" r="68.898"/><circle cx="56232" cy="25807" r="68.898"/><circle cx="56232" cy="22807" r="68.898"/><circle cx="55232" cy="25807" r="68.898"/><circle cx="57232" cy="22807" r="68.898"/><circle cx="54232" cy="25807" r="68.898"/><circle cx="58232" cy="22807" r="68.898"/><circle cx="53232" cy="25807" r="68.898"/><circle cx="59232" cy="22807" r="68.898"/><circle cx="52232" cy="25807" r="68.898"/><circle cx="60232" cy="22807" r="68.898"/><circle cx="51232" cy="25807" r="68.898"/><circle cx="61232" cy="22807" r="68.898"/><circle cx="50232" cy="25807" r="68.898"/><circle cx="62232" cy="22807" r="68.898"/><circle cx="49232" cy="25807" r="68.898"/></g></g><defs><mask id="c"><g fill="#fff" fill-opacity="1" stroke="#fff" stroke-linecap="round" stroke-linejoin="round" stroke-width="0"><circle cx="49232" cy="22807" r="314.96"/><circle cx="62232" cy="25807" r="314.96"/><circle cx="50232" cy="22807" r="314.96"/><circle cx="61232" cy="25807" r="314.96"/><circle cx="51232" cy="22807" r="314.96"/><circle cx="60232" cy="25807" r="314.96"/><circle cx="52232" cy="22807" r="314.96"/><circle cx="59232" cy="25807" r="314.96"/><circle cx="53232" cy="22807" r="314.96"/><circle cx="58232" cy="25807" r="314.96"/><circle cx="54232" cy="22807" r="314.96"/><circle cx="57232" cy="25807" r="314.96"/><circle cx="55232" cy="22807" r="314.96"/><circle cx="56232" cy="25807" r="314.96"/><circle cx="56232" cy="22807" r="314.96"/><circle cx="55232" cy="25807" r="314.96"/><circle cx="57232" cy="22807" r="314.96"/><circle cx="54232" cy="25807" r="314.96"/><circle cx="58232" cy="22807" r="314.96"/><circle cx="53232" cy="25807" r="314.96"/><circle cx="59232" cy="22807" r="314.96"/><circle cx="52232" cy="25807" r="314.96"/><circle cx="60232" cy="22807" r="314.96"/><circle cx="51232" cy="25807" r="314.96"/><circle cx="61232" cy="22807" r="314.96"/><circle cx="50232" cy="25807" r="314.96"/><circle cx="62232" cy="22807" r="314.96"/><path d="M49547 26122h-629.9v-629.9h629.9z" fill-rule="evenodd"/></g></mask></defs><defs><mask id="d"><g fill-opacity="1" stroke="#000" stroke-linecap="round" stroke-linejoin="round" stroke-width="0"><circle cx="49232" cy="22807" r="314.96"/><circle cx="62232" cy="25807" r="314.96"/><circle cx="50232" cy="22807" r="314.96"/><circle cx="61232" cy="25807" r="314.96"/><circle cx="51232" cy="22807" r="314.96"/><circle cx="60232" cy="25807" r="314.96"/><circle cx="52232" cy="22807" r="314.96"/><circle cx="59232" cy="25807" r="314.96"/><circle cx="53232" cy="22807" r="314.96"/><circle cx="58232" cy="25807" r="314.96"/><circle cx="54232" cy="22807" r="314.96"/><circle cx="57232" cy="25807" r="314.96"/><circle cx="55232" cy="22807" r="314.96"/><circle cx="56232" cy="25807" r="314.96"/><circle cx="56232" cy="22807" r="314.96"/><circle cx="55232" cy="25807" r="314.96"/><circle cx="57232" cy="22807" r="314.96"/><circle cx="54232" cy="25807" r="314.96"/><circle cx="58232" cy="22807" r="314.96"/><circle cx="53232" cy="25807" r="314.96"/><circle cx="59232" cy="22807" r="314.96"/><circle cx="52232" cy="25807" r="314.96"/><circle cx="60232" cy="22807" r="314.96"/><circle cx="51232" cy="25807" r="314.96"/><circle cx="61232" cy="22807" r="314.96"/><circle cx="50232" cy="25807" r="314.96"/><circle cx="62232" cy="22807" r="314.96"/><path d="M49547 26122h-629.9v-629.9h629.9z" fill-rule="evenodd"/></g><path fill="#fff" d="M40738 11820h30649v25019H40738z"/></mask></defs><g fill="#f0f0f0" fill-opacity="0" mask="url(#d)" stroke="#f0f0f0" stroke-linecap="round" stroke-linejoin="round"><g stroke-width="147.64"><path d="M42026 21406l-28-29-29-56v-140l29-57 28-28 56-28h56l85 28 337 338v-366M42223 20731l-29 56-28 28-56 28h-28l-56-28-28-28-29-56v-113l29-56 28-28 56-28h28l56 28 28 28 29 56v113l28 56 28 28 56 28h112l57-28 28-28 28-56v-113l-28-56-28-28-57-28h-112l-56 28-28 28-28 56M42335 20253v-450M44093 21406l-29-29-28-56v-140l28-57 29-28 56-28h56l84 28 338 338v-366M44036 20871v-393l591 253M44402 20253v-450M46160 21406l-29-29-28-56v-140l28-57 29-28 56-28h56l84 28 338 338v-366M46103 20562v112l28 57 29 28 84 56 112 28h225l57-28 28-28 28-56v-113l-28-56-28-28-57-28h-140l-57 28-28 28-28 56v113l28 56 28 28 57 28M46469 20253v-450M48226 21406l-28-29-28-56v-140l28-57 28-28 57-28h56l84 28 338 338v-366M48170 20534v281l281 28-28-28-28-56v-141l28-56 28-28 57-28h140l57 28 28 28 28 56v141l-28 56-28 28M48536 20253v-450M50293 21406l-28-29-28-56v-140l28-57 28-28 57-28h56l84 28 338 338v-366M50434 20562h394M50209 20703l422 140v-365M50603 20253v-450M52360 21406l-28-29-28-56v-140l28-57 28-28 57-28h56l84 28 338 338v-366M52304 20871v-365l225 197v-85l28-56 28-28 57-28h140l56 28 28 28 29 56v169l-29 56-28 28M52670 20253v-450M54427 21406l-28-29-28-56v-140l28-57 28-28 56-28h57l84 28 338 338v-366M54427 20843l-28-28-28-56v-141l28-56 28-28 56-28h57l84 28 338 337v-365M54737 20253v-450M56494 21406l-28-29-28-56v-140l28-57 28-28 56-28h57l84 28 337 338v-366M57028 20506v337M57028 20674h-590l84 57 57 56 28 56M56803 20253v-450M58561 21406l-28-29-28-56v-140l28-57 28-28 56-28h57l84 28 337 338v-366M58505 20703v-57l28-56 28-28 56-28 113-28h140l113 28 56 28 28 28 28 56v57l-28 56-28 28-56 28-113 28h-140l-113-28-56-28-28-28-28-56M58870 20253v-450M61162 21068v338M61162 21237h-590l84 56 56 56 29 57M61162 20787v-113l-28-56-28-28-84-56-113-28h-225l-56 28-28 28-28 56v113l28 56 28 28 56 28h141l56-28 28-28 28-56v-113l-28-56-28-28-56-28M60937 20253v-450M63229 21068v338M63229 21237h-590l84 56 56 56 28 57M62892 20731l-28 56-28 28-57 28h-28l-56-28-28-28-28-56v-113l28-56 28-28 56-28h28l57 28 28 28 28 56v113l28 56 28 28 56 28h113l56-28 28-28 28-56v-113l-28-56-28-28-56-28h-113l-56 28-28 28-28 56M63004 20253v-450M65296 21068v338M65296 21237h-590l84 56 56 56 28 57M64706 20871v-393l590 253M65071 20253v-450M67363 21068v338M67363 21237h-590l84 56 56 56 28 57M66773 20562v112l28 57 28 28 84 56 113 28h225l56-28 28-28 28-56v-113l-28-56-28-28-56-28h-141l-56 28-28 28-28 56v113l28 56 28 28 56 28M67138 20253v-450M69430 21068v338M69430 21237h-591l85 56 56 56 28 57M68839 20534v281l282 28-28-28-29-56v-141l29-56 28-28 56-28h141l56 28 28 28 28 56v141l-28 56-28 28M69205 20253v-450M42422 35326v337M42422 35494h-590l84 57 56 56 28 56M42197 35073v-450M43955 35663l-28-28-28-56v-141l28-56 28-28 56-28h56l85 28 337 337v-365M44264 35073v-450M45965 35691v-365l225 197v-85l29-56 28-28 56-28h141l56 28 28 28 28 56v169l-28 56-28 28M46331 35073v-450M48229 35382h394M48004 35523l422 140v-365M48398 35073v-450M50099 35354v281l282 28-29-28-28-56v-141l28-56 29-28 56-28h140l57 28 28 28 28 56v141l-28 56-28 28M50465 35073v-450M52166 35382v112l28 57 29 28 84 56 112 28h225l57-28 28-28 28-56v-113l-28-56-28-28-57-28h-140l-57 28-28 28-28 56v113l28 56 28 28 57 28M52532 35073v-450M54233 35691v-393l591 253M54599 35073v-450M56553 35551l-28 56-28 28-56 28h-28l-57-28-28-28-28-56v-113l28-56 28-28 57-28h28l56 28 28 28 28 56v113l28 56 28 28 57 28h112l56-28 29-28 28-56v-113l-28-56-29-28-56-28h-112l-57 28-28 28-28 56M56666 35073v-450M58958 35607v-113l-29-56-28-28-84-56-112-28h-225l-57 28-28 28-28 56v113l28 56 28 28 57 28h140l56-28 29-28 28-56v-113l-28-56-29-28-56-28M58733 35073v-450M61025 35832v337M61025 36001h-591l84 56 57 56 28 56M60434 35466v-56l28-56 28-28 56-28 113-29h141l112 29 56 28 28 28 29 56v56l-29 57-28 28-56 28-112 28h-141l-113-28-56-28-28-28-28-57M60800 35016v-450M63091 35832v337M63091 36001h-590l84 56 57 56 28 56M63091 35269v338M63091 35438h-590l84 56 57 57 28 56M62866 35016v-450M65158 35832v337M65158 36001h-590l84 56 56 56 29 56M64624 35607l-28-28-28-56v-141l28-56 28-28 56-29h57l84 29 337 337v-366M64933 35016v-450M67225 35832v337M67225 36001h-590l84 56 56 56 28 56M66635 35635v-366l225 197v-84l28-56 28-28 56-29h141l56 29 28 28 28 56v169l-28 56-28 28M67000 35016v-450M69292 35832v337M69292 36001h-590l84 56 56 56 28 56M68899 35326h393M68674 35466l421 141v-366M69067 35016v-450" fill="none"/></g><g stroke-width="47.244" fill="none"><path d="M48708 24700v650M48708 25350h14047M62755 25350v-2087M62755 23263H48708M48708 23263v650M48709 24701a393.7 393.7 0 0 0 0-787.4"/></g></g><g fill-opacity="0" stroke-linecap="round" stroke-linejoin="round" stroke-width="19.685" fill="none" stroke="#000"><path d="M71377 11830v25000M40748 11830h30629M40748 36830V11830M71377 36830H40748"/></g><defs><mask id="b"><path fill="#fff" d="M40738 11820h30649v25019H40738z"/><path stroke="#000" stroke-linecap="round" stroke-width="314" d="M49232 22808h0M62232 25808h0M50232 22808h0M61232 25808h0M51232 22808h0M60232 25808h0M52232 22808h0M59232 25808h0M53232 22808h0M58232 25808h0M54232 22808h0M57232 25808h0M55232 22808h0M56232 25808h0M56232 22808h0M55232 25808h0M57232 22808h0M54232 25808h0M58232 22808h0M53232 25808h0M59232 22808h0M52232 25808h0M60232 22808h0M51232 25808h0M61232 22808h0M50232 25808h0M62232 22808h0M49232 25808h0"/></mask></defs></g><path d="M21963 11266H8022v2440.9h13941z" fill="#333" fill-rule="evenodd" stroke="#000" stroke-width="36.458"/><path d="M21993 11236h-410.04M8403 11236h-410.04M21193 11236h-400M9193 11236h-400M20193 11236h-400M10193 11236h-400M19193 11236h-400M11193 11236h-400M18193 11236h-400M12193 11236h-400M17193 11236h-400M13193 11236h-400M16193 11236h-400M14193 11236h-400M15193 11236h-400M7993 11236v2500M7993 13736h410.04M21583 13736h410.04M8793 13736h400M20793 13736h400M9793 13736h400M19793 13736h400M10793 13736h400M18793 13736h400M11793 13736h400M17793 13736h400M12793 13736h400M16793 13736h400M13793 13736h400M15793 13736h400M14793 13736h400M21993 13736v-2500M21993 11236l-29.527 29.528M7993 11236l29.528 29.528M21193 11266h-400M9193 11266h-400M20193 11266h-400M10193 11266h-400M19193 11266h-400M11193 11266h-400M18193 11266h-400M12193 11266h-400M17193 11266h-400M13193 11266h-400M16193 11266h-400M14193 11266h-400M15193 11266h-400M7993 13736l29.528-29.528M21993 13736l-29.527-29.528M8793 13706h400M20793 13706h400M9793 13706h400M19793 13706h400M10793 13706h400M18793 13706h400M11793 13706h400M17793 13706h400M12793 13706h400M16793 13706h400M13793 13706h400M15793 13706h400M14793 13706h400M8022.5 11266l127.45 127.45M21963 11266l-127.45 127.45M8022.5 13706l127.45-127.45M8108.1 12781l41.842-1.225M8108.1 12781v-590.04M8108.1 12191l41.842 1.225" fill="none" stroke="#000" stroke-width="36.458"/><path d="M8150 11393v799.23c150.88 15.165 265.75 142.15 265.75 293.8h0c0 151.64-114.87 278.63-265.75 293.8h0v799.23h13686v-2186z" fill="#1a1a1a" fill-rule="evenodd" stroke="#000" stroke-width="36.458"/><path d="M21963 13706l-127.45-127.45M8116.2 12781a295.28 295.28 0 0 1-8.105-.226M8108.1 12191a295.28 295.28 0 0 1 8.105-.225" fill="none" stroke="#000" stroke-width="36.458"/><g stroke="#000" stroke-width=".093"><path d="M20192.987 10985.988v-150.019.02h599.999v-.02 429.527h-599.999z" fill="#ccc" fill-rule="evenodd" stroke-width="36.6141"/><path d="M20192.987 10985.988h599.999" fill="none" stroke-width="36.6141"/></g><g stroke="#000" stroke-width=".093"><path d="M21192.985 10985.988v-150.039.04h599.999v-.04 429.566h-599.999z" fill="#ccc" fill-rule="evenodd" stroke-width="36.6141"/><path d="M21192.985 10985.988h599.999" fill="none" stroke-width="36.6141"/><path d="M19192.99 10985.988v-150.039.04h599.998v-.04 429.566h-599.999z" fill="#ccc" fill-rule="evenodd" stroke-width="36.6141"/><path d="M19192.99 10985.988h599.998" fill="none" stroke-width="36.6141"/><path d="M18192.991 10985.988v-150.039.04h599.999v-.04 429.566h-599.999z" fill="#ccc" fill-rule="evenodd" stroke-width="36.6141"/><path d="M18192.991 10985.988h599.999" fill="none" stroke-width="36.6141"/></g><g stroke="#000" stroke-width=".093"><path d="M16192.987 10985.988v-150.019.02h599.999v-.02 429.527h-599.999z" fill="#ccc" fill-rule="evenodd" stroke-width="36.6141"/><path d="M16192.987 10985.988h599.999" fill="none" stroke-width="36.6141"/></g><g stroke="#000" stroke-width=".093"><path d="M17192.985 10985.988v-150.039.04h599.999v-.04 429.566h-599.999z" fill="#ccc" fill-rule="evenodd" stroke-width="36.6141"/><path d="M17192.985 10985.988h599.999" fill="none" stroke-width="36.6141"/><path d="M15192.99 10985.988v-150.039.04h599.998v-.04 429.566h-599.999z" fill="#ccc" fill-rule="evenodd" stroke-width="36.6141"/><path d="M15192.99 10985.988h599.998" fill="none" stroke-width="36.6141"/><path d="M14192.991 10985.988v-150.039.04h599.999v-.04 429.566h-599.999z" fill="#ccc" fill-rule="evenodd" stroke-width="36.6141"/><path d="M14192.991 10985.988h599.999" fill="none" stroke-width="36.6141"/></g><g stroke="#000" stroke-width=".093"><path d="M12192.987 10985.988v-150.019.02h599.999v-.02 429.527h-599.999z" fill="#ccc" fill-rule="evenodd" stroke-width="36.6141"/><path d="M12192.987 10985.988h599.999" fill="none" stroke-width="36.6141"/></g><g stroke="#000" stroke-width=".093"><path d="M13192.985 10985.988v-150.039.04h599.999v-.04 429.566h-599.999z" fill="#ccc" fill-rule="evenodd" stroke-width="36.6141"/><path d="M13192.985 10985.988h599.999" fill="none" stroke-width="36.6141"/><path d="M11192.99 10985.988v-150.039.04h599.998v-.04 429.566h-599.999z" fill="#ccc" fill-rule="evenodd" stroke-width="36.6141"/><path d="M11192.99 10985.988h599.998" fill="none" stroke-width="36.6141"/><path d="M10192.991 10985.988v-150.039.04h599.999v-.04 429.566h-599.999z" fill="#ccc" fill-rule="evenodd" stroke-width="36.6141"/><path d="M10192.991 10985.988h599.999" fill="none" stroke-width="36.6141"/></g><g stroke="#000" stroke-width=".093"><path d="M8192.987 10985.988v-150.019.02h599.999v-.02 429.527h-599.999z" fill="#ccc" fill-rule="evenodd" stroke-width="36.6141"/><path d="M8192.987 10985.988h599.999" fill="none" stroke-width="36.6141"/></g><g stroke="#000" stroke-width=".093"><path d="M9192.985 10985.988v-150.039.04h599.999v-.04 429.566h-599.999z" fill="#ccc" fill-rule="evenodd" stroke-width="36.6141"/><path d="M9192.985 10985.988h599.999" fill="none" stroke-width="36.6141"/></g><g stroke="#000" stroke-width=".093"><path d="M10792.986 13986v150h-599.999v-429.527h599.999z" fill="#ccc" fill-rule="evenodd" stroke-width="36.6141"/><path d="M10792.986 13986h-599.999" fill="none" stroke-width="36.6141"/><path d="M11792.984 13986v150h-599.999v-429.527h599.999z" fill="#ccc" fill-rule="evenodd" stroke-width="36.6141"/><path d="M11792.984 13986h-599.999" fill="none" stroke-width="36.6141"/></g><g stroke="#000" stroke-width=".093"><path d="M9792.988 13985.528v150h-599.999V13706h599.999z" fill="#ccc" fill-rule="evenodd" stroke-width="36.6141"/><path d="M9792.988 13985.528h-599.999" fill="none" stroke-width="36.6141"/></g><g stroke="#000" stroke-width=".093"><path d="M8792.99 13986v150H8192.99v-429.527h599.999z" fill="#ccc" fill-rule="evenodd" stroke-width="36.6141"/><path d="M8792.99 13986H8192.99" fill="none" stroke-width="36.6141"/></g><g stroke="#000" stroke-width=".093"><path d="M14792.986 13986v150h-599.999v-429.527h599.999z" fill="#ccc" fill-rule="evenodd" stroke-width="36.6141"/><path d="M14792.986 13986h-599.999" fill="none" stroke-width="36.6141"/><path d="M15792.984 13986v150h-599.999v-429.527h599.999z" fill="#ccc" fill-rule="evenodd" stroke-width="36.6141"/><path d="M15792.984 13986h-599.999" fill="none" stroke-width="36.6141"/></g><g stroke="#000" stroke-width=".093"><path d="M13792.988 13985.528v150h-599.999V13706h599.999z" fill="#ccc" fill-rule="evenodd" stroke-width="36.6141"/><path d="M13792.988 13985.528h-599.999" fill="none" stroke-width="36.6141"/></g><g stroke="#000" stroke-width=".093"><path d="M12792.99 13986v150h-599.999v-429.527h599.999z" fill="#ccc" fill-rule="evenodd" stroke-width="36.6141"/><path d="M12792.99 13986h-599.999" fill="none" stroke-width="36.6141"/></g><g stroke="#000" stroke-width=".093"><path d="M18792.962 13986v150h-599.999v-429.527h599.999z" fill="#ccc" fill-rule="evenodd" stroke-width="36.6141"/><path d="M18792.962 13986h-599.999" fill="none" stroke-width="36.6141"/><path d="M19792.96 13986v150h-599.999v-429.527h599.999z" fill="#ccc" fill-rule="evenodd" stroke-width="36.6141"/><path d="M19792.96 13986h-599.999" fill="none" stroke-width="36.6141"/></g><g stroke="#000" stroke-width=".093"><path d="M17792.964 13985.528v150h-599.999V13706h599.999z" fill="#ccc" fill-rule="evenodd" stroke-width="36.6141"/><path d="M17792.964 13985.528h-599.999" fill="none" stroke-width="36.6141"/></g><g stroke="#000" stroke-width=".093"><path d="M16792.966 13986v150h-599.999v-429.527h599.999z" fill="#ccc" fill-rule="evenodd" stroke-width="36.6141"/><path d="M16792.966 13986h-599.999" fill="none" stroke-width="36.6141"/></g><g stroke="#000" stroke-width=".093"><path d="M21792.988 13985.528v150h-599.999V13706h599.999z" fill="#ccc" fill-rule="evenodd" stroke-width="36.6141"/><path d="M21792.988 13985.528h-599.999" fill="none" stroke-width="36.6141"/></g><g stroke="#000" stroke-width=".093"><path d="M20792.99 13986v150h-599.999v-429.527h599.999z" fill="#ccc" fill-rule="evenodd" stroke-width="36.6141"/><path d="M20792.99 13986h-599.999" fill="none" stroke-width="36.6141"/></g></svg>