<svg width="205" height="181" viewBox="0 0 16555 14507" xmlns="http://www.w3.org/2000/svg"><g clip-path="url(#a)" mask="url(#b)" transform="translate(-47628 -21802)"><defs><clipPath id="a"><path d="M64173 36299H47637V21811h16536v14488" fill-rule="evenodd"/></clipPath></defs><g fill="#313d63" stroke="#313d63"><path d="M64173 36299H47637V21811h16536v14488" fill-rule="evenodd"/><g fill-opacity="0" stroke-linecap="round" stroke-linejoin="round" stroke-width="19.685" fill="none" stroke="#000"><path d="M47637 36299V21811M64173 21811H47637M64173 36299V21811M47637 36299h16536"/></g></g><g fill-opacity="1" stroke="none" stroke-linecap="round" stroke-linejoin="round" stroke-width="0" fill="#9c6b28"><circle cx="54433" cy="23457" r="314.96"/><circle cx="57433" cy="26457" r="314.96"/><circle cx="55433" cy="23457" r="314.96"/><circle cx="56433" cy="26457" r="314.96"/><circle cx="56433" cy="23457" r="314.96"/><circle cx="55433" cy="26457" r="314.96"/><circle cx="57433" cy="23457" r="314.96"/><path d="M54748 26772h-629.9v-630h629.9z" fill-rule="evenodd"/></g><g fill="#212d53" stroke="#212d53" stroke-linecap="round" stroke-linejoin="round" stroke-width="0"><g fill-opacity="1" stroke="none"><circle cx="54433" cy="23457" r="314.96"/><circle cx="57433" cy="26457" r="314.96"/><circle cx="55433" cy="23457" r="314.96"/><circle cx="56433" cy="26457" r="314.96"/><circle cx="56433" cy="23457" r="314.96"/><circle cx="55433" cy="26457" r="314.96"/><circle cx="57433" cy="23457" r="314.96"/><path d="M54748 26772h-629.9v-630h629.9z" fill-rule="evenodd"/></g><g stroke="none"><circle cx="54433" cy="23457" r="68.898"/><circle cx="57433" cy="26457" r="68.898"/><circle cx="55433" cy="23457" r="68.898"/><circle cx="56433" cy="26457" r="68.898"/><circle cx="56433" cy="23457" r="68.898"/><circle cx="55433" cy="26457" r="68.898"/><circle cx="57433" cy="23457" r="68.898"/><circle cx="54433" cy="26457" r="68.898"/></g></g><g fill="#b5ae30" mask="url(#c)" stroke="#b5ae30" stroke-linecap="round" stroke-linejoin="round" stroke-width="0"><g fill-opacity="1" stroke="none"><circle cx="54433" cy="23457" r="314.96"/><circle cx="57433" cy="26457" r="314.96"/><circle cx="55433" cy="23457" r="314.96"/><circle cx="56433" cy="26457" r="314.96"/><circle cx="56433" cy="23457" r="314.96"/><circle cx="55433" cy="26457" r="314.96"/><circle cx="57433" cy="23457" r="314.96"/><path d="M54748 26772h-629.9v-630h629.9z" fill-rule="evenodd"/></g><g stroke="none"><circle cx="54433" cy="23457" r="68.898"/><circle cx="57433" cy="26457" r="68.898"/><circle cx="55433" cy="23457" r="68.898"/><circle cx="56433" cy="26457" r="68.898"/><circle cx="56433" cy="23457" r="68.898"/><circle cx="55433" cy="26457" r="68.898"/><circle cx="57433" cy="23457" r="68.898"/><circle cx="54433" cy="26457" r="68.898"/></g></g><defs><mask id="c"><g fill="#fff" fill-opacity="1" stroke="#fff" stroke-linecap="round" stroke-linejoin="round" stroke-width="0"><circle cx="54433" cy="23457" r="314.96"/><circle cx="57433" cy="26457" r="314.96"/><circle cx="55433" cy="23457" r="314.96"/><circle cx="56433" cy="26457" r="314.96"/><circle cx="56433" cy="23457" r="314.96"/><circle cx="55433" cy="26457" r="314.96"/><circle cx="57433" cy="23457" r="314.96"/><path d="M54748 26772h-629.9v-630h629.9z" fill-rule="evenodd"/></g></mask></defs><defs><mask id="d"><g fill-opacity="1" stroke="#000" stroke-linecap="round" stroke-linejoin="round" stroke-width="0"><circle cx="54433" cy="23457" r="314.96"/><circle cx="57433" cy="26457" r="314.96"/><circle cx="55433" cy="23457" r="314.96"/><circle cx="56433" cy="26457" r="314.96"/><circle cx="56433" cy="23457" r="314.96"/><circle cx="55433" cy="26457" r="314.96"/><circle cx="57433" cy="23457" r="314.96"/><path d="M54748 26772h-629.9v-630h629.9z" fill-rule="evenodd"/></g><path fill="#fff" d="M47627 21801h16555v14507H47627z"/></mask></defs><g fill="#f0f0f0" fill-opacity="0" mask="url(#d)" stroke="#f0f0f0" stroke-linecap="round" stroke-linejoin="round"><g stroke-width="147.64"><path d="M48623 35551v337M48623 35719h-591l85 57 56 56 28 56M48398 35298v-450M50156 35888l-29-28-28-56v-141l28-56 29-28 56-28h56l84 28 338 337v-365M50465 35298v-450M52166 35916v-365l225 197v-85l28-56 28-28 57-28h140l57 28 28 28 28 56v169l-28 56-28 28M52532 35298v-450M54430 35607h394M54205 35748l422 140v-365M54599 35298v-450M56300 35579v281l281 28-28-28-28-56v-141l28-56 28-28 57-28h140l56 28 29 28 28 56v141l-28 56-29 28M56666 35298v-450M58367 35607v112l28 57 28 28 85 56 112 28h225l56-28 28-28 29-56v-113l-29-56-28-28-56-28h-140l-57 28-28 28-28 56v113l28 56 28 28 57 28M58733 35298v-450M60434 35916v-393l591 253M60800 35298v-450M62754 35776l-28 56-28 28-56 28h-29l-56-28-28-28-28-56v-113l28-56 28-28 56-28h29l56 28 28 28 28 56v113l28 56 28 28 56 28h113l56-28 28-28 28-56v-113l-28-56-28-28-56-28h-113l-56 28-28 28-28 56M62866 35298v-450" fill="none"/></g><g stroke-width="47.244" fill="none"><path d="M53909 23913v649M57956 23913h-4047M57956 26000v-2087M53909 26000h4047M53909 25350v650M53909 25350a393.7 393.7 0 0 0 0-787.4"/></g></g><g fill-opacity="0" stroke-linecap="round" stroke-linejoin="round" stroke-width="19.685" fill="none" stroke="#000"><path d="M47637 36299V21811M64173 21811H47637M64173 36299V21811M47637 36299h16536"/></g><defs><mask id="b"><path fill="#fff" d="M47627 21801h16555v14507H47627z"/><path stroke="#000" stroke-linecap="round" stroke-width="314" d="M54432 23456h0M57432 26456h0M55432 23456h0M56432 26456h0M56432 23456h0M55432 26456h0M57432 23456h0M54432 26456h0"/></mask></defs></g><g stroke="#000" stroke-width=".093"><path d="M9894.639 1933.549H6714.724h0-205.315v2440.94h3590.544v-2440.94z" fill="#333" stroke-width="36.6141"/><path d="M10129.48 1904.021H9894.64M6714.74 1904.021h-234.843M9504.679 1904.021h-400M7504.683 1904.021h-400M8504.68 1904.021h-399.998M6479.897 1904.021v2499.995M6479.897 4404h234.842M9894.639 4404h234.842M7104.684 4404h399.999M9104.68 4404h399.999M8104.682 4404h399.999M10129.48 4404V1904.007M10129.48 1904.021l-29.527 29.528M6479.897 1904.021l29.528 29.528M9504.679 1933.549h-400M7504.683 1933.549h-400M8504.68 1933.549h-399.998M6479.897 4404l29.528-29.527M10129.48 4404l-29.527-29.527M7104.684 4374.473h399.999M9104.68 4374.473h399.999M8104.682 4374.473h399.999M6509.425 1933.549l127.449 127.448" fill="none" stroke-width="36.6141"/><path d="M9972.513 2060.99H6636.85v799.21c150.881 15.165 265.747 142.154 265.747 293.795h0c0 151.642-114.866 278.63-265.747 293.795h0v799.211h3335.662z" fill="#1a1a1a" fill-rule="evenodd" stroke-width="36.6141"/><path d="M10099.953 1933.549l-127.448 127.448M6509.425 4374.473l127.449-127.448M6595.035 3449.018l41.842-1.224M6595.035 3449.018V2858.98M6595.035 2858.98l41.842 1.225M10099.953 4374.473l-127.448-127.448M6603.137 3449.255a295.275 295.275 0 0 1-8.105-.226M6595.035 2858.98a295.275 295.275 0 0 1 8.105-.225" fill="none" stroke-width="36.6141"/><path d="M9104.798 4654v150h-600v-429.527h600z" fill="#ccc" fill-rule="evenodd" stroke-width="36.6141"/><path d="M9104.798 4654h-600" fill="none" stroke-width="36.6141"/><path d="M10104.796 4654v150h-600v-429.527h600z" fill="#ccc" fill-rule="evenodd" stroke-width="36.6141"/><path d="M10104.796 4654h-600" fill="none" stroke-width="36.6141"/><g><path d="M8104.8 4654.016v150h-600v-429.527h600z" fill="#ccc" fill-rule="evenodd" stroke-width="36.6141"/><path d="M8104.8 4654.016h-600" fill="none" stroke-width="36.6141"/></g><g><path d="M7104.802 4654v150h-600v-429.527h600z" fill="#ccc" fill-rule="evenodd" stroke-width="36.6141"/><path d="M7104.802 4654h-600" fill="none" stroke-width="36.6141"/></g><g><path d="M8504.799 1654.022v-150.02.02h599.999v-.02 429.527h-600z" fill="#ccc" fill-rule="evenodd" stroke-width="36.6141"/><path d="M8504.799 1654.022h599.999" fill="none" stroke-width="36.6141"/><path d="M9504.797 1654.022v-150.04.04h599.999v-.04 429.567h-600z" fill="#ccc" fill-rule="evenodd" stroke-width="36.6141"/><path d="M9504.797 1654.022h599.999" fill="none" stroke-width="36.6141"/><path d="M7504.8 1654.022v-150.04.04h600v-.04 429.567h-600z" fill="#ccc" fill-rule="evenodd" stroke-width="36.6141"/><path d="M7504.8 1654.022h600" fill="none" stroke-width="36.6141"/><path d="M6504.803 1654.022v-150.04.04h599.999v-.04 429.567h-600z" fill="#ccc" fill-rule="evenodd" stroke-width="36.6141"/><path d="M6504.803 1654.022h599.999" fill="none" stroke-width="36.6141"/></g></g></svg>