<svg width="100" height="100" viewBox="0 0 26.458 26.458" xmlns="http://www.w3.org/2000/svg"><path fill="#fff" stroke="red" stroke-width="3.443" d="M1.722 1.722h23.015v23.015H1.722z"/><g transform="matrix(.09249 0 0 .10284 -4.053 -4.75)" style="shape-inside:url(#rect3558);white-space:pre" aria-label="Image not found!"><path d="M100.3 84.811h10.026v38.88H100.3zM146.76 99.368q1.77-2.708 4.193-4.115 2.448-1.432 5.364-1.432 5.026 0 7.656 3.1 2.63 3.098 2.63 9.01v17.76h-9.374v-15.208q.026-.339.026-.704.026-.364.026-1.041 0-3.1-.912-4.48-.911-1.406-2.942-1.406-2.657 0-4.115 2.188-1.432 2.187-1.484 6.328v14.323h-9.375v-15.208q0-4.844-.834-6.224-.833-1.406-2.968-1.406-2.683 0-4.141 2.213-1.458 2.188-1.458 6.276v14.35h-9.375V94.523h9.375v4.271q1.718-2.474 3.932-3.724 2.24-1.25 4.922-1.25 3.02 0 5.338 1.458 2.318 1.459 3.516 4.089zM188.37 110.57q-2.917 0-4.401.99-1.458.99-1.458 2.916 0 1.771 1.172 2.787 1.197.99 3.307.99 2.63 0 4.427-1.876 1.797-1.9 1.797-4.74v-1.067zm14.245-3.516v16.641h-9.401v-4.323q-1.875 2.657-4.219 3.88-2.344 1.199-5.703 1.199-4.531 0-7.37-2.63-2.812-2.657-2.812-6.876 0-5.13 3.515-7.526 3.542-2.395 11.094-2.395h5.495v-.73q0-2.213-1.745-3.229-1.744-1.041-5.442-1.041-2.995 0-5.573.598-2.578.6-4.792 1.797V95.31q2.995-.73 6.016-1.094 3.02-.39 6.041-.39 7.891 0 11.38 3.125 3.516 3.099 3.516 10.104zM231.13 118.74q-1.927 2.552-4.245 3.75-2.317 1.198-5.364 1.198-5.339 0-8.828-4.193-3.49-4.219-3.49-10.729 0-6.536 3.49-10.703 3.49-4.193 8.828-4.193 3.047 0 5.364 1.198 2.318 1.198 4.245 3.776v-4.323h9.375v26.224q0 7.032-4.453 10.73-4.427 3.723-12.865 3.723-2.735 0-5.287-.416-2.552-.417-5.13-1.276v-7.266q2.448 1.406 4.792 2.084 2.344.703 4.713.703 4.584 0 6.72-2.006t2.135-6.276zm-6.146-18.151q-2.89 0-4.505 2.135-1.615 2.136-1.615 6.042 0 4.01 1.563 6.094 1.562 2.057 4.557 2.057 2.917 0 4.531-2.135 1.615-2.136 1.615-6.016 0-3.906-1.615-6.042-1.614-2.135-4.53-2.135zM278.58 109.03v2.656h-21.797q.339 3.281 2.37 4.922 2.031 1.64 5.677 1.64 2.943 0 6.015-.859 3.1-.885 6.355-2.656v7.188q-3.308 1.25-6.615 1.875-3.307.65-6.615.65-7.916 0-12.318-4.01-4.375-4.036-4.375-11.302 0-7.135 4.297-11.224 4.323-4.088 11.875-4.088 6.875 0 10.99 4.14 4.141 4.141 4.141 11.068zm-9.583-3.099q0-2.656-1.563-4.27-1.536-1.641-4.036-1.641-2.709 0-4.401 1.536-1.693 1.51-2.11 4.375zM172.03 172.6v17.76h-9.375v-13.594q0-3.776-.182-5.208-.157-1.433-.573-2.11-.547-.911-1.485-1.406-.937-.52-2.135-.52-2.917 0-4.583 2.265-1.667 2.24-1.667 6.224v14.349h-9.323v-29.167h9.323v4.27q2.11-2.551 4.48-3.75 2.369-1.223 5.234-1.223 5.052 0 7.656 3.099 2.63 3.099 2.63 9.01zM194.56 167.15q-3.099 0-4.74 2.24-1.614 2.213-1.614 6.406t1.614 6.432q1.641 2.214 4.74 2.214 3.047 0 4.662-2.214 1.614-2.24 1.614-6.432 0-4.193-1.615-6.406-1.614-2.24-4.661-2.24zm0-6.667q7.526 0 11.745 4.063 4.245 4.062 4.245 11.25 0 7.187-4.245 11.25-4.219 4.062-11.745 4.062-7.552 0-11.823-4.062-4.245-4.063-4.245-11.25 0-7.188 4.245-11.25 4.27-4.063 11.823-4.063zM227.5 152.91v8.281h9.61v6.667h-9.61v12.37q0 2.031.807 2.76.808.703 3.203.703h4.792v6.667h-7.995q-5.52 0-7.838-2.292-2.292-2.317-2.292-7.838v-12.37h-4.635v-6.667h4.635v-8.281zM112.81 216.5v6.12h-5.156q-1.98 0-2.76.729-.782.703-.782 2.474v2.031h7.969v6.667h-7.969v22.5H94.79v-22.5h-4.635v-6.667h4.635v-2.031q0-4.766 2.656-7.031 2.657-2.292 8.23-2.292zM130.7 233.82q-3.099 0-4.74 2.24-1.614 2.213-1.614 6.406 0 4.192 1.614 6.432 1.641 2.214 4.74 2.214 3.047 0 4.662-2.214 1.614-2.24 1.614-6.432 0-4.193-1.615-6.406-1.614-2.24-4.661-2.24zm0-6.667q7.526 0 11.745 4.063 4.245 4.062 4.245 11.25 0 7.187-4.245 11.25-4.219 4.062-11.745 4.062-7.552 0-11.823-4.062-4.245-4.063-4.245-11.25 0-7.188 4.245-11.25 4.27-4.063 11.823-4.063zM153.15 245.67v-17.812h9.375v2.917q0 2.37-.026 5.963-.026 3.568-.026 4.766 0 3.515.182 5.078.183 1.536.625 2.24.573.911 1.485 1.406.937.494 2.135.494 2.917 0 4.583-2.24 1.667-2.239 1.667-6.223v-14.401h9.323v29.167h-9.323v-4.219q-2.11 2.552-4.48 3.776-2.343 1.198-5.181 1.198-5.053 0-7.709-3.099-2.63-3.099-2.63-9.01zM220.75 239.26v17.76h-9.375v-13.594q0-3.776-.182-5.208-.157-1.433-.573-2.11-.547-.911-1.485-1.406-.937-.52-2.135-.52-2.917 0-4.583 2.265-1.667 2.24-1.667 6.224v14.349h-9.323v-29.167h9.323v4.27q2.11-2.551 4.48-3.75 2.369-1.223 5.234-1.223 5.052 0 7.656 3.099 2.63 3.099 2.63 9.01zM249.24 232.13v-15.625h9.375v40.521h-9.375v-4.219q-1.927 2.578-4.245 3.776-2.317 1.198-5.364 1.198-5.391 0-8.855-4.27-3.463-4.298-3.463-11.043 0-6.744 3.463-11.016 3.464-4.297 8.855-4.297 3.02 0 5.338 1.224 2.344 1.198 4.27 3.75zm-6.146 18.88q2.995 0 4.558-2.188 1.588-2.187 1.588-6.354 0-4.166-1.589-6.354-1.562-2.187-4.557-2.187-2.968 0-4.557 2.187-1.563 2.188-1.563 6.354 0 4.167 1.563 6.355 1.588 2.187 4.557 2.187zM270.57 218.14h9.375v14.922l-1.328 10.885h-6.719l-1.328-10.885zm0 29.609h9.375v9.27h-9.375z"/></g></svg>