<svg width="152" height="83" viewBox="0 0 12224 6712" xmlns="http://www.w3.org/2000/svg"><g clip-path="url(#a)" mask="url(#b)" transform="translate(-46250 -21644)"><defs><clipPath id="a"><path d="M46259 21653h12205v6693H46259v-6693" fill-rule="evenodd"/></clipPath></defs><g fill="#313d63" stroke="#313d63"><path d="M46259 21653h12205v6693H46259v-6693" fill-rule="evenodd"/><g fill-opacity="0" stroke-linecap="round" stroke-linejoin="round" stroke-width="19.685" fill="none" stroke="#000"><path d="M46259 28346v-984M58464 28346H46259M58464 27362v984M46259 27362v-5709M58464 21653v5709M46259 21653h12205"/></g></g><g stroke-linecap="round" stroke-linejoin="round" stroke-width="0" stroke="none" fill="#9c6b28"><circle cx="50327" cy="27756" r="275.59"/><circle cx="48327" cy="27756" r="275.59"/><circle cx="52559" cy="27673" r="354.33"/><path d="M52205 26319h708.7v708.7H52205z" fill-rule="evenodd"/><g><circle cx="52559" cy="23213" r="334.65"/><path d="M52894 23878v669.2h-669.3V23878z" fill-rule="evenodd"/><circle cx="49213" cy="25787" r="314.96"/></g><path d="M48898 22913h630v629.9h-630z" fill-rule="evenodd"/></g><g fill="#212d53" stroke="none" stroke-linecap="round" stroke-linejoin="round" stroke-width="0"><circle cx="50327" cy="27756" r="275.59"/><circle cx="48327" cy="27756" r="275.59"/><circle cx="52559" cy="27673" r="354.33"/><path d="M52205 26319h708.7v708.7H52205z" fill-rule="evenodd"/><circle cx="52559" cy="23213" r="334.65"/><path d="M52894 23878v669.2h-669.3V23878z" fill-rule="evenodd"/><circle cx="49213" cy="25787" r="314.96"/><path d="M48898 22913h630v629.9h-630z" fill-rule="evenodd"/><circle cx="50327" cy="27756" r="68.898"/><circle cx="48327" cy="27756" r="68.898"/><circle cx="52559" cy="27673" r="68.898"/><circle cx="52559" cy="26673" r="68.898"/><circle cx="52559" cy="23213" r="68.898"/><circle cx="52559" cy="24213" r="68.898"/><circle cx="49213" cy="25787" r="68.898"/><circle cx="49213" cy="23228" r="68.898"/></g><g fill="#b5ae30" mask="url(#c)" stroke="none" stroke-linecap="round" stroke-linejoin="round" stroke-width="0"><circle cx="50327" cy="27756" r="275.59"/><circle cx="48327" cy="27756" r="275.59"/><circle cx="52559" cy="27673" r="354.33"/><path d="M52205 26319h708.7v708.7H52205z" fill-rule="evenodd"/><circle cx="52559" cy="23213" r="334.65"/><path d="M52894 23878v669.2h-669.3V23878z" fill-rule="evenodd"/><circle cx="49213" cy="25787" r="314.96"/><path d="M48898 22913h630v629.9h-630z" fill-rule="evenodd"/><circle cx="50327" cy="27756" r="68.898"/><circle cx="48327" cy="27756" r="68.898"/><circle cx="52559" cy="27673" r="68.898"/><circle cx="52559" cy="26673" r="68.898"/><circle cx="52559" cy="23213" r="68.898"/><circle cx="52559" cy="24213" r="68.898"/><circle cx="49213" cy="25787" r="68.898"/><circle cx="49213" cy="23228" r="68.898"/></g><defs><mask id="c"><g stroke="#fff" stroke-linecap="round" stroke-linejoin="round" fill="#fff" stroke-width="0"><circle cx="50327" cy="27756" r="275.59"/><circle cx="48327" cy="27756" r="275.59"/><circle cx="52559" cy="27673" r="354.33"/><path d="M52205 26319h708.7v708.7H52205z" fill-rule="evenodd"/><g><circle cx="52559" cy="23213" r="334.65"/><path d="M52894 23878v669.2h-669.3V23878z" fill-rule="evenodd"/><circle cx="49213" cy="25787" r="314.96"/></g><g><path d="M48898 22913h630v629.9h-630z" fill-rule="evenodd"/></g></g></mask></defs><defs><mask id="d"><g stroke="#000" stroke-linecap="round" stroke-linejoin="round" stroke-width="0"><circle cx="50327" cy="27756" r="275.59"/><circle cx="48327" cy="27756" r="275.59"/><circle cx="52559" cy="27673" r="354.33"/><path d="M52205 26319h708.7v708.7H52205z" fill-rule="evenodd"/><g><circle cx="52559" cy="23213" r="334.65"/><path d="M52894 23878v669.2h-669.3V23878z" fill-rule="evenodd"/><circle cx="49213" cy="25787" r="314.96"/></g><g><path d="M48898 22913h630v629.9h-630z" fill-rule="evenodd"/></g></g><path fill="#fff" d="M46249 21643h12224v6712H46249z"/></mask></defs><g fill="#f0f0f0" fill-opacity="0" mask="url(#d)" stroke="#f0f0f0" stroke-linecap="round" stroke-linejoin="round"><g stroke-width="47.244" fill="none"><path d="M48570 27393h1512M48570 28118h1512M53045 26559h-61M52133 26559h-61M52134 26763a590.55 590.55 0 0 0 0 819.7M52984 27583a590.55 590.55 0 0 0 .1-819.7"/><path d="M52073 26559a783.46 783.46 0 0 0 61.8 1272.5M52984 27832a783.46 783.46 0 0 0 61.8-1272.5M53082 23712h-1047M53082 23712v-1024M53082 22688h-1047M52035 23712v-1024M52035 24736v-524M52559 24736h-524"/><circle cx="49213" cy="24508" r="2401.6"/></g><g stroke-width="59.055"><path d="M49949 23378v-300M50099 23228h-300" fill="none"/></g></g><g fill-opacity="0" stroke-linecap="round" stroke-linejoin="round" stroke-width="19.685" fill="none" stroke="#000"><path d="M46259 28346v-984M58464 28346H46259M58464 27362v984M46259 27362v-5709M58464 21653v5709M46259 21653h12205"/></g><defs><mask id="b"><path fill="#fff" d="M46249 21643h12224v6712H46249z"/><path stroke="#000" stroke-linecap="round" stroke-width="275" d="M50326 27755h0M48326 27755h0"/><path stroke="#000" stroke-linecap="round" stroke-width="354" d="M52559 27673h0M52559 26673h0"/><path stroke="#000" stroke-linecap="round" stroke-width="393" d="M52559 23212h0M52559 24212h0M49212 25787h0M49212 23228h0"/></mask></defs></g><g transform="matrix(393.7 0 0 -393.7 2076 6111)" fill="#faa" stroke-width=".093"><path d="M1.14.8V-.8M3.94.8V-.8M1.14-.8c-.24.021-.374.155-.4.4v.8c0 .22.18.4.4.4h.5V-.8zM3.44-.8V.8h.5a.4.4 0 0 0 .4-.4v-.8c-.026-.245-.16-.379-.4-.4z" fill-rule="evenodd" stroke="#191919"/><path d="M4.34.25h.74c.333 0 .333-.5 0-.5h-.74 0z" fill="#999" fill-rule="evenodd" stroke="#191919"/></g><path d="M2367.322 6012.56v196.85h-291.338c-131.232 0-131.232-196.85 0-196.85z" fill="#999" stroke="#1a1a1a" stroke-width="36.6141"/><path d="M3430.312 5827.52v566.928h-708.66V5827.52h708.66z" fill="#e9afaf" stroke="#1a1a1a" stroke-width="36.6141"/><path fill="#500" opacity=".997" stroke="#1a1a1a" stroke-width="36.2204" d="M2816.967 5828.796h71.653v563.778h-71.653z"/><path opacity=".997" stroke="#1a1a1a" stroke-width="36.2204" d="M2961.061 5830.764h71.654v563.779h-71.654z"/><path fill="red" opacity=".997" stroke="#1a1a1a" stroke-width="36.2204" d="M3107.124 5831.158h71.653v563.778h-71.653z"/><path fill="olive" opacity=".997" stroke="#1a1a1a" stroke-width="36.2204" d="M3302.4 5828.796h71.653v563.778h-71.654z"/><g stroke-width=".093"><g transform="matrix(0 393.7 393.7 0 6309 5029)"><path d="M-.23-1.166C.88-2.595 3.17-1.81 3.17 0c0 1.81-2.29 2.595-3.4 1.166v0-2.332z" fill="maroon" fill-rule="evenodd" stroke="#191919"/><circle cx="1.27" r="1.5" fill="red" stroke="#191919"/></g></g><g stroke-width=".093"><g transform="matrix(-393.7 0 0 393.7 6309 2568)"><path d="M-1.27-3.81h2.54v5.08h-2.54z" fill="#1a1a1a" fill-rule="evenodd" stroke="#000"/><path d="M-.6-3.14H.6v1.2H-.6zM-.6.6V-.6H.6V.6z" fill="#333" fill-rule="evenodd" stroke="#000"/><path d="M-.6-3.14l.299.299M.6-3.14l-.299.299M-.301-2.841h.602M-.6-1.94l.299-.299M-.301-2.239v-.602M.6-1.94l-.299-.299M.301-2.239h-.602M.301-2.841v.602M.6-.6l-.299.299M.6.6L.301.301M.301-.301v.602M-.6-.6l.299.299M-.301-.301h.602M-.6.6l.299-.299M-.301.301v-.602M.301.301h-.602" fill="none" stroke="#000"/><path d="M-.3-2.84h.6v.6h-.6zM-.3-.3h.6v.6h-.6z" fill="olive" fill-rule="evenodd" stroke="#000"/><path d="M-.1-2.29v.05M-.1-2.79v.5M-.1-2.84v.05" fill="none" stroke="#000"/><path d="M.1-2.84v.05" fill="olive" fill-rule="evenodd" stroke="#000"/><path d="M-.1-2.79h.2M.1-2.79v.5M.1-2.29v.05M-.1-2.29h.2M-.1.25V.3M-.1-.25v.5M-.1-.3v.05M.1-.3v.05M-.1-.25h.2M.1-.25v.5M.1.25V.3M-.1.25h.2" fill="none" stroke="#000"/></g></g><g stroke="#000" stroke-width=".093"><g transform="matrix(0 393.7 393.7 0 2962 1584)"><circle cx="3.25" r="6" fill="#4d4d4d"/><circle cx="3.25" r="6" fill="none"/><circle cx="3.25" r="1.15" fill="#1a1a1a"/><circle cx="3.25" r="5.7" fill="none"/><path d="M9.25 0h-.3" fill="none"/></g></g></svg>