<svg width="362" height="171" viewBox="0 0 95.779 45.244" xmlns="http://www.w3.org/2000/svg"><defs><linearGradient id="a" x1="-267.88" x2="-253.58" y1="-465.35" y2="-465.35" gradientTransform="matrix(1.0474 0 0 -1.0474 314.25 -588.03)" gradientUnits="userSpaceOnUse"><stop stop-color="#333" offset="0"/><stop stop-color="#3C3C3C" offset="1"/></linearGradient></defs><g transform="translate(-77.817 -118.84)"><path fill="#f0f0f0" fill-rule="evenodd" style="paint-order:fill markers stroke" d="M77.802 118.7h95.672v45.252H77.802z"/><text transform="scale(1.0024 .99764)" x="374.352" y="86.316" fill="#1a1a1a" font-family="Ubuntu" font-size="3.845" font-weight="bold" stroke-width=".115" word-spacing="0" style="line-height:1.25" xml:space="preserve"/><g fill="#fff" word-spacing="0"><text transform="scale(1.0024 .99764)" x="422.903" y="172.988" font-family="Ubuntu" font-size="3.086" font-weight="bold" stroke-width=".093" style="line-height:1.25" xml:space="preserve"/></g><rect x="96.657" y="118.9" width="76.817" height="45.05" rx="0" ry="0" fill="#2c8240" style="paint-order:fill markers stroke"/><g fill="#848400"><g stroke="none" stroke-linecap="round" stroke-linejoin="round" stroke-width="0" transform="matrix(.0038 0 0 .0038 74.516 117)"><circle cx="14260" cy="10334" r="330"/><circle cx="14260" cy="11334" r="330"/><circle cx="9650.2" cy="1526.1" r="590.55"/><circle cx="25005" cy="1526.1" r="590.55"/><circle cx="25005" cy="11369" r="590.55"/><circle cx="9650.2" cy="11369" r="590.55"/><circle cx="7008.5" cy="7365.7" r="216.54"/><circle cx="7008.5" cy="5594" r="216.54"/><circle cx="7047.9" cy="4196.4" r="633.07"/><circle cx="7047.9" cy="8763.3" r="633.07"/><circle cx="7992.8" cy="7857.8" r="370"/><circle cx="7992.8" cy="6923.5" r="370"/><circle cx="7992.8" cy="6036.1" r="370"/><circle cx="7992.8" cy="5101.9" r="370"/><circle cx="9600.4" cy="8367.8" r="370"/><circle cx="12600" cy="8367.8" r="370"/><circle cx="9561.5" cy="4682" r="370"/><circle cx="12562" cy="4682" r="370"/><circle cx="15210" cy="3633.9" r="330"/><circle cx="14210" cy="3633.9" r="330"/><circle cx="13107" cy="6050.5" r="370"/><circle cx="9106.9" cy="6050.5" r="370"/><circle cx="13132" cy="7217.8" r="370"/><circle cx="9131.5" cy="7217.8" r="370"/><circle cx="9131.5" cy="9533.9" r="370"/><circle cx="13132" cy="9533.9" r="370"/><circle cx="16260" cy="10334" r="330"/><circle cx="16260" cy="11334" r="330"/><circle cx="15526" cy="8717.8" r="370"/><circle cx="15526" cy="4717.8" r="370"/><circle cx="12628" cy="3563.3" r="370"/><circle cx="9628.2" cy="3563.3" r="370"/><circle cx="14280" cy="8717.8" r="370"/><circle cx="14280" cy="4717.8" r="370"/><circle cx="23948" cy="2921.8" r="370"/><circle cx="23948" cy="3921.8" r="370"/><circle cx="23948" cy="4921.8" r="370"/><circle cx="23948" cy="5921.8" r="370"/><circle cx="23948" cy="6921.8" r="370"/><circle cx="23948" cy="7921.8" r="370"/><circle cx="23948" cy="8921.8" r="370"/><circle cx="23948" cy="9921.8" r="370"/><circle cx="14079" cy="1345" r="370"/><circle cx="15079" cy="1345" r="370"/><circle cx="16079" cy="1345" r="370"/></g><g fill-opacity="0" stroke="#e6e6e6" stroke-linecap="round" stroke-linejoin="round" fill="none"><g stroke-width="600"><path d="M22240 3123h-600M19680 3123h-600M22240 1343h-600M19680 1343h-600" transform="matrix(.0038 0 0 .0038 74.516 117)"/></g><g stroke-width="598.42"><path d="M10960 2175v-583M12960 2175v-583M11960 2175v-583" transform="matrix(.0038 0 0 .0038 74.516 117)"/></g><g stroke-width="629.92"><path d="M22060 7776v315M19060 4776v315M21060 7776v315M20060 4776v315M20060 7776v315M21060 4776v315M19060 7776v315" transform="matrix(.0038 0 0 .0038 74.516 117)"/></g></g><g stroke-width="0"><path d="M157.351 133.914h2.4v3.583h-2.4z" fill-rule="evenodd"/><circle cx="17260" cy="4418.2" r="314.96" stroke-linecap="round" stroke-linejoin="round" transform="matrix(.0038 0 0 .0038 74.516 117)"/><path d="M139.066 128.822h2.4v2.389h-2.4z" fill-rule="evenodd"/></g></g><g fill="none" fill-opacity="0" stroke="#fff" stroke-linecap="round" stroke-linejoin="round" stroke-width="200"><path d="M20180 1343h1760M19380 1343h800M19380 3123h2560" transform="matrix(.0038 0 0 .0038 74.516 117)"/></g><g fill="#fff" stroke-width="0"><g transform="matrix(.0038 0 0 .0038 74.516 117)" stroke="none" stroke-linecap="round" stroke-linejoin="round"><circle cx="14260" cy="10334" r="160"/><circle cx="14260" cy="11334" r="160"/><circle cx="9650.2" cy="1526.1" r="590.55"/></g><ellipse cx="169.77" cy="122.78" rx="2.25" ry="2.239"/><g transform="matrix(.0038 0 0 .0038 74.516 117)" stroke-linecap="round" stroke-linejoin="round"><g stroke="none"><circle cx="25005" cy="11369" r="590.55"/><circle cx="9650.2" cy="11369" r="590.55"/><circle cx="7008.5" cy="7365.7" r="216.54"/><circle cx="7008.5" cy="5594" r="216.54"/><circle cx="7047.9" cy="4196.4" r="433.07"/><circle cx="7047.9" cy="8763.3" r="433.07"/><circle cx="7992.8" cy="7857.8" r="180"/><circle cx="7992.8" cy="6923.5" r="180"/><circle cx="7992.8" cy="6036.1" r="180"/><circle cx="7992.8" cy="5101.9" r="180"/><circle cx="9600.4" cy="8367.8" r="177.16"/><circle cx="12600" cy="8367.8" r="177.16"/><circle cx="9561.5" cy="4682" r="177.16"/><circle cx="12562" cy="4682" r="177.16"/><circle cx="15210" cy="3633.9" r="160"/><circle cx="14210" cy="3633.9" r="160"/><circle cx="13107" cy="6050.5" r="177.16"/><circle cx="9106.9" cy="6050.5" r="177.16"/><circle cx="13132" cy="7217.8" r="177.16"/><circle cx="9131.5" cy="7217.8" r="177.16"/></g><circle cx="9131.5" cy="9533.9" r="177.16"/><g stroke="none"><circle cx="13132" cy="9533.9" r="177.16"/><circle cx="16260" cy="10334" r="160"/><circle cx="16260" cy="11334" r="160"/><circle cx="15526" cy="8717.8" r="177.16"/><circle cx="15526" cy="4717.8" r="177.16"/><circle cx="12628" cy="3563.3" r="177.16"/><circle cx="9628.2" cy="3563.3" r="177.16"/><circle cx="14280" cy="8717.8" r="177.16"/><circle cx="14280" cy="4717.8" r="177.16"/><circle cx="23948" cy="2921.8" r="200"/><circle cx="23948" cy="3921.8" r="200"/><circle cx="23948" cy="4921.8" r="200"/><circle cx="23948" cy="5921.8" r="200"/><circle cx="23948" cy="6921.8" r="200"/><circle cx="23948" cy="7921.8" r="200"/><circle cx="23948" cy="8921.8" r="200"/><circle cx="23948" cy="9921.8" r="200"/></g><g stroke="none"><circle cx="14079" cy="1345" r="200"/><circle cx="15079" cy="1345" r="200"/><circle cx="16079" cy="1345" r="200"/></g><circle cx="21940" cy="3123.9" r="200"/><circle cx="19380" cy="3123.9" r="200"/></g><ellipse cx="158.1" cy="122.09" rx=".762" ry=".758"/><g transform="matrix(.0038 0 0 .0038 74.516 117)" stroke="none" stroke-linecap="round" stroke-linejoin="round"><circle cx="19380" cy="1343.9" r="200"/><circle cx="10960" cy="1883.9" r="157.48"/><circle cx="12960" cy="1883.9" r="157.48"/><circle cx="11960" cy="1883.9" r="157.48"/><circle cx="22060" cy="7933.9" r="157.48"/><circle cx="19060" cy="4933.9" r="157.48"/><circle cx="21060" cy="7933.9" r="157.48"/><circle cx="20060" cy="4933.9" r="157.48"/><circle cx="20060" cy="7933.9" r="157.48"/><circle cx="21060" cy="4933.9" r="157.48"/><circle cx="19060" cy="7933.9" r="157.48"/><circle cx="22060" cy="4933.9" r="157.48"/><circle cx="17260" cy="4418.2" r="157.48"/><circle cx="17260" cy="3433.9" r="157.48"/></g></g><g fill-opacity="0" stroke="#fff" stroke-linecap="round" stroke-linejoin="round" fill="none"><g stroke-width=".228"><path d="M170.17 138.86v1.194M170.35 151.43h-1.029M98.108 154.39v-1.494M98.108 153.47l.14-.072h.287l.144.072.069.072.072.14v.429l-.072.14-.069.072-.144.072h-.286l-.141-.072M99.319 153.4l.358.997M100.04 153.4l-.358.997-.141.353-.072.072-.145.072M98.607 156.08h-.499M98.108 156.86v-1.494h.712M100.04 156.86v-.781l-.072-.144-.141-.068h-.286l-.145.068"/><path d="M100.04 156.79l-.145.072h-.354l-.145-.072-.072-.14v-.144l.072-.14.145-.073h.354l.145-.072M99.822 155.3l-.217.212M100.75 156.86v-1.494M100.75 155.93l.145-.068h.285l.141.068.073.072.072.144v.425l-.072.144-.073.068-.14.072h-.286l-.145-.072M102.1 156.86v-.993M102.1 155.37l-.069.072.069.072.072-.072-.072-.072v.144M103.03 156.86l-.14-.072-.073-.068-.073-.144v-.425l.073-.144.072-.072.141-.068h.213l.145.068.072.072.07.144v.425l-.07.144-.072.068-.145.072h-.213M105.25 156.79l.217.072h.354l.145-.072.073-.068.068-.144v-.14l-.068-.145-.073-.072-.145-.068-.285-.072-.141-.072-.073-.072-.072-.14v-.145l.072-.14.073-.072.14-.072h.359l.213.072M106.96 156.86l-.14-.072-.073-.068-.073-.144v-.425l.073-.144.072-.072.141-.068h.217l.141.068.072.072.073.144v.425l-.073.144-.072.068-.14.072h-.218M108.75 155.87v.993M108.1 155.87v.781l.072.14.141.072h.217l.141-.072.073-.068M109.32 155.87h.785l-.785.993h.785M111.32 156.86v-.781l-.072-.144-.141-.068h-.286l-.145.068"/><path d="M111.32 156.79l-.145.072h-.354l-.145-.072-.072-.14v-.144l.072-.14.145-.073h.354l.145-.072"/></g><g stroke-width="78.74"><path d="M23163 11233h-100M23163 10333h-100M23163 11233v-900M21863 10333h1200M21863 11233h1200M21863 10333v900" transform="matrix(.0038 0 0 .0038 74.516 117)"/></g><g stroke-width="118.11"><path d="M22066 11042v-472h113l67 22 45 45 23 45 22 90v68l-22 90-23 45-45 45-67 22h-113M22539 11042v-472M22854 10817v225M22696 10570l158 247 157-247" transform="matrix(.0038 0 0 .0038 74.516 117)"/></g><g stroke-width="72"><path d="M6312 2938l-15 15-45 15h-30l-45-15-30-30-15-30-15-60v-45l15-60 15-30 30-30 45-15h30l45 15 15 15M6627 2938l-15 15-45 15h-30l-45-15-30-30-15-30-15-60v-45l15-60 15-30 30-30 45-15h30l45 15 15 15M7107 2803l44 15 15 15 15 30v45l-15 30-15 15-29 15h-120v-315h105l30 15 14 15 15 30v30l-15 30-14 15-30 15h-105M7376 2818v150M7271 2653l105 165 105-165M7586 2848h240M7961 2953l45 15h75l30-15 15-15 15-30v-30l-15-30-15-15-30-15-60-15-30-15-15-15-15-30v-30l15-30 15-15 30-15h75l45 15M8261 2878h150M8231 2968l105-315 105 315M8921 2758v210M8846 2638l-75 225h195M9086 2938l15 15-15 15-15-15 15-15v30M9296 2653h30l30 15 15 15 15 30 15 60v75l-15 60-15 30-15 15-30 15h-30l-30-15-15-15-15-30-15-60v-75l15-60 15-30 15-15 30-15" transform="matrix(.0038 0 0 .0038 74.516 117)"/></g><g stroke-width=".228"><path d="M168.16 131.27l.503 1.49.499-1.49M170.52 132.62l-.072.072-.214.068h-.14l-.218-.068-.14-.144-.073-.14-.073-.285v-.216l.073-.284.072-.14.141-.144.217-.069h.141l.214.069.072.072M170.26 134.48h-.857l-.084.853.084-.087.171-.084h.43l.172.084.084.087.088.17v.425l-.088.171-.084.087-.171.084h-.43l-.172-.084-.084-.087M169.74 138.18l-.427 1.282h1.113M169.23 142.06h1.116l-.602.682h.26l.17.084.085.087.087.17v.425l-.087.171-.084.087-.172.084h-.514l-.171-.084-.088-.087M169.32 146.02l.084-.087.171-.084h.43l.172.084.084.087.088.17v.171l-.088.254-1.029 1.024h1.117M169.83 151.43v-1.79l-.171.254-.172.171-.171.087M172.02 132.62l-.072.072-.214.068h-.145l-.213-.068-.14-.144-.073-.14-.073-.285v-.216l.073-.284.072-.14.141-.144.213-.069h.145l.213.069.073.072M169.74 153.91h.171l.172.084.087.087.084.17.088.342v.424l-.088.341-.084.171-.087.087-.172.084h-.171l-.171-.084-.084-.087-.088-.17-.084-.342v-.424l.084-.342.088-.17.084-.088.171-.083M99.224 159.54l.503 1.494.499-1.494M100.65 159.68l.072-.068.145-.072h.354l.145.072.073.068.068.144v.14l-.068.216-.858.854h.926M103.01 161.03l-.499-.713M102.15 161.03v-1.494h.571l.141.072.073.069.072.144v.212l-.072.144-.073.068-.14.072h-.572M103.44 159.54l.503 1.494.499-1.494M136.48 161.99l.343 1.194.343-.853.343.853.342-1.194M138.37 161.99l.343 1.194.343-.853.343.853.342-1.194M140.25 161.99l.343 1.194.343-.853.343.853.342-1.194M142.31 163.02l.088.087-.088.084-.084-.084.084-.087v.17M142.91 161.99h.686M143.17 163.19v-1.536l.088-.17.171-.084h.171M144.19 163.19v-1.194M144.19 162.33l.088-.17.083-.084.172-.087h.171M146.08 163.19v-.936l-.084-.171-.171-.087h-.343l-.171.087"/><path d="M146.08 163.1l-.171.084h-.427l-.171-.084-.088-.17v-.171l.087-.17.172-.088h.427l.171-.084M146.94 161.99v1.194M146.94 162.16l.084-.084.171-.087h.26l.17.088.084.17v.937M148.39 161.99h.945l-.945 1.194h.945M150.02 163.19v-1.194M150.02 161.4l-.088.084.088.087.084-.088-.084-.083v.17M150.88 161.99v1.194M150.88 162.16l.084-.084.171-.087h.26l.17.088.084.17v.937M152.51 163.19v-1.194M152.51 161.4l-.084.084.084.087.088-.088-.088-.083v.17M153.36 161.99v1.194M153.36 162.16l.088-.084.171-.087h.255l.172.088.087.17v.937M154.99 163.19v-1.79M155.76 163.19v-.936l-.084-.171-.171-.087h-.26l-.17.087-.084.083M156.88 163.19l-.171-.084-.088-.087-.084-.17v-.512l.084-.17.088-.084.171-.087h.255l.172.087.087.083.084.17v.513l-.084.17-.087.088-.172.083h-.255M158.25 163.02l.084.087-.084.084-.088-.084.088-.087v.17M159.88 163.1l-.171.084h-.343l-.172-.084-.083-.087-.088-.17v-.513l.088-.17.083-.084.172-.087h.343l.171.087M160.91 163.19l-.171-.084-.084-.087-.088-.17v-.512l.088-.17.084-.084.171-.087h.259l.171.087.084.083.088.17v.513l-.088.17-.084.088-.171.083h-.259M162.28 163.19v-1.194M162.28 162.16l.084-.084.171-.087h.26l.17.088.084.17v.937M163.05 162.25l.088-.17.171-.088h.255l.172.087.087.171v.936M164.68 163.02l.084.087-.084.084-.088-.084.088-.087v.17M165.53 163.19v-1.79M165.53 162.08l.171-.087h.343l.172.087.083.084.088.17v.512l-.088.17-.083.088-.172.083h-.343l-.171-.083M167.16 163.19v-1.194M167.16 162.33l.088-.17.083-.084.172-.087h.171M135.22 128.6l1.5-.497-1.5-.5M136.58 126.25l.072.072.073.212v.144l-.072.213-.141.14-.145.072-.286.072h-.213l-.286-.072-.145-.072-.14-.14-.073-.213v-.144l.072-.212.073-.072M136.58 124.76l.072.072.073.212v.144l-.072.213-.141.144-.145.068-.286.072h-.213l-.286-.072-.145-.068-.14-.144-.073-.213v-.144l.072-.212.073-.072M127.27 127.64l1.5-.497-1.5-.5M128.77 126.14h-1.5M128.77 125.44h-1.5l1.5-.853h-1.5"/></g></g><g fill="#008484" fill-opacity="0" stroke-linecap="round" stroke-linejoin="round"><g stroke="#fff" fill="none"><g stroke-width="50"><path d="M13740 11713h-310M13580 11853v-290" transform="matrix(.0038 0 0 .0038 74.516 117)"/></g><g stroke-width="100"><path d="M14657 11528a800 800 0 0 0 403-694.6" transform="matrix(.0038 0 0 .0038 74.516 117)"/><path d="M15060 10834a800 800 0 0 0-283.2-610.7M13460 10834a800 800 0 0 0 423.6 705.9M13748 10219a800 800 0 0 0-287.9 614.5" transform="matrix(.0038 0 0 .0038 74.516 117)"/></g><g stroke-width="60"><path d="M14629 11308a600 600 0 0 0 231.6-473.7M14860 10834a600 600 0 0 0-231.6-473.6M13660 10834a600 600 0 0 0 240 480M13912 10346a600 600 0 0 0-251.3 488.2" transform="matrix(.0038 0 0 .0038 74.516 117)"/></g><g stroke-width="80"><path d="M7441 8054V4905M5866 8842h394M5866 4117h394M5866 4117v4725M10350 8617v-500M12100 8367h100M10100 8367h-100M12100 8367v300M12100 8067v300M10100 8067h2000M10100 8367v-300M10100 8667v-300M12100 8667h-2000M10311 4932v-500M12061 4682h100M10061 4682h-100M12061 4682v300M12061 4382v300M10061 4382h2000M10061 4682v-300M10061 4982v-300M12061 4982h-2000" transform="matrix(.0038 0 0 .0038 74.516 117)"/></g></g><path d="M14610 3633h-50" fill="none" transform="matrix(.0038 0 0 .0038 74.516 117)" stroke="#000" stroke-width="60"/><g stroke="#fff" fill="none"><g stroke-width="100"><path d="M14610 3633v300M14610 3333v300M14810 3633v300M14810 3633v-300" transform="matrix(.0038 0 0 .0038 74.516 117)"/></g><g stroke-width="60"><path d="M14860 3633h-50M13760 4033.9a100 100 0 0 0 100 100M15560 4133.9a100 100 0 0 0 100-100M13860 3133.9a100 100 0 0 0-100 100M15660 3233.9a100 100 0 0 0-100-100M13760 3233v800M15660 3233v800M15560 4133h-1700M13860 3133h1700" transform="matrix(.0038 0 0 .0038 74.516 117)"/></g><g stroke-width="80"><path d="M12347 6522H9866M12347 5578v944M9866 5578h2481M9866 6522v-944M12371 7690H9891M12371 6745v945M9891 6745h2480M9891 7690v-945M9891 9061h2480M9891 10006v-945M12371 10006H9891M12371 9061v945" transform="matrix(.0038 0 0 .0038 74.516 117)"/></g><g stroke-width="50"><path d="M15740 11713h-310M15580 11853v-290" transform="matrix(.0038 0 0 .0038 74.516 117)"/></g><g stroke-width="100"><path d="M16657 11528a800 800 0 0 0 403-694.6" transform="matrix(.0038 0 0 .0038 74.516 117)"/><path d="M17060 10834a800 800 0 0 0-283.2-610.7M15460 10834a800 800 0 0 0 423.6 705.9M15748 10219a800 800 0 0 0-287.9 614.5" transform="matrix(.0038 0 0 .0038 74.516 117)"/></g><g stroke-width="60"><path d="M16629 11308a600 600 0 0 0 231.6-473.7M16860 10834a600 600 0 0 0-231.6-473.6M15660 10834a600 600 0 0 0 240 480M15912 10346a600 600 0 0 0-251.3 488.2" transform="matrix(.0038 0 0 .0038 74.516 117)"/></g></g></g><g fill-opacity="0" stroke="#fff" stroke-linecap="round" stroke-linejoin="round" stroke-width=".304" fill="none"><path d="M131.86 147.16v-9.403M135.46 147.16h-3.6M135.46 137.76v9.403M131.86 137.76h3.6M119.76 129.56v1.896M113.1 130.5h-.38M120.72 130.5h.38M113.1 130.5v-1.137M113.1 131.64v-1.137M120.72 131.64h-7.619M120.72 130.5v1.137M120.72 129.37v1.137M113.1 129.37h7.619M127.11 147.16v-9.403M130.71 147.16h-3.6M130.71 137.76v9.403M127.11 137.76h3.6"/></g><g fill-opacity="0" stroke="#fff" stroke-linecap="round" stroke-linejoin="round" stroke-width="80" fill="none"><path d="M24448 2671v500M24198 3421l250-250M23448 3171l250 250M24198 2421l250 250M23698 2421h500M23448 2671l250-250M23448 3171v-500M24448 9671v500M24198 10421l250-250M23448 10171l250 250M23698 10421h500M24448 9171l-250 250M24448 8671v500M24198 8421l250 250M23448 8671l250-250M23448 9171v-500M23698 9421l-250-250M24198 9421l250 250M23448 9671l250-250M23448 10171v-500M24448 6671v500M24198 7421l250-250M23448 7171l250 250M24448 8171l-250 250M24448 7671v500M24198 7421l250 250M23448 7671l250-250M23448 8171v-500M23698 8421l-250-250M24448 6171l-250 250M24448 5671v500M24198 5421l250 250M23448 5671l250-250M23448 6171v-500M23698 6421l-250-250M24198 6421l250 250M23448 6671l250-250M23448 7171v-500M24448 3671v500M24198 4421l250-250M23448 4171l250 250M24448 5171l-250 250M24448 4671v500M24198 4421l250 250M23448 4671l250-250M23448 5171v-500M23698 5421l-250-250M24198 3421l250 250M23448 3671l250-250M23448 4171v-500" transform="matrix(.0038 0 0 .0038 74.516 117)"/></g><path d="M104.683 125.944l.377-.197.945.766.643-.645-.765-.936.323-.781 1.212-.125v-.91l-1.212-.122-.13-.405-.193-.376.765-.94-.643-.64-.945.765-.377-.197-.408-.129-.122-1.202h-.914l-.122 1.202-.408.129-.38.197-.941-.766-.648.641.77.94-.324.781-1.212.122v.91l1.212.125.323.78-.77.937.649.645.94-.766.187.106.194.091.537-1.293-.293-.178-.232-.254-.149-.307-.05-.341.035-.277.099-.262.16-.227.206-.19.247-.129.275-.072h.278l.274.06.251.13.214.182.164.224.102.261.038.277-.026.277-.092.261-.156.235-.445.33z" fill-rule="evenodd" fill="#fff" stroke-width="0"/><g stroke-linecap="round" stroke-linejoin="round"><g fill="none" fill-opacity="0" stroke="#fff" stroke-width="80" transform="matrix(.0038 0 0 .0038 74.516 117)"><path d="M13579 1595v-500M15829 845h500M16579 1095l-250-250M16329 1845l250-250M16579 1595v-500M15329 845l250 250M14829 845h500M14579 1095l250-250M14829 1845l-250-250M15329 1845h-500M15579 1595l-250 250M15579 1095l250-250M15829 1845l-250-250M16329 1845h-500M14329 845l250 250M13829 845h500M13579 1095l250-250M13829 1845l-250-250M14329 1845h-500M14579 1595l-250 250M19810 3433h1700M21510 1033h-1700M19460 2626v-793M21860 2638v-805"/><circle cx="20660" cy="2233.9" r="700"/></g><g fill="none" fill-opacity="0" stroke="#fff" stroke-width="47.244"><path d="M12669 2612.3a1016.2 1016.2 0 0 0 129.6-153.95M12803 1302.7a1023.6 1023.6 0 0 0-842.6-442.38M11960 860.32a1023.6 1023.6 0 0 0-842.6 442.38M11126 2463.8a1016.2 1016.2 0 0 0 125.9 148.48M11251 2612h1417M22607 8500V4367M18513 8500h4094M18513 4367v4133M22607 4367h-4094M22583 7319v-492M18536 7319h4047M18536 5548v1771M22583 5548h-4047M22583 6040v-492M22584 6040.2a393.7 393.7 0 0 0 0 787.4" transform="matrix(.0038 0 0 .0038 74.516 117)"/></g><g fill="#fff" fill-rule="evenodd" stroke="#000" stroke-width="3.937"><path d="M17773 9685l36 25 16 37-9 44-11 20-26 22-39 9h-66v-167h45zM18357 9745l14 25 18 46 2 4 16 49 12 38 5 20v1l-13 6-32 4-25 1-39-1-25-2-5-2 4-14 25-75 15-44 13-37 7-19zM23018 9694l35 21 17 17 21 23 12 23 6 30 2 45v88l-4 36-8 24-16 20-17 16-53 32-58 9-56-14-15-9-37-40-24-59-10-68v-5l9-77 29-59 45-40 60-17 17-1z" transform="matrix(.0038 0 0 .0038 74.516 117)"/><path d="M23218 9492l42 34 37 42 4 7 12 20 8 20 6 25 3 34 2 49 1 67v185l-1 67-2 49-3 35-6 26-8 20-11 19-1 1-33 42-43 36-7 5-51 32-2979 2-342 1h-631l-289-1h-519l-229-1-208-1h-186l-163-1-140-1-115-1-90-2-64-1-38-1-11-1-52-28-50-45-15-22h4961l146-8 4-122 4-121h249v250h153v-313h94l8 85 27 78 46 66 24 23 79 46 87 22 91-2 88-28 10-4 65-48 51-67 32-80 14-87-6-88-28-85-3-6-50-70-66-52-78-31-85-9-86 14-77 35-62 54-44 69-28 80-9 85h-94v-326h-153v250h-249l-4-122-4-121-146-8v641h-4961l-24-34-16-39-6-40-4-63-1-82v-96l3-85 2-62 4-45 5-32 8-24 12-21 3-6 9-11h8v639h153v-250h208v-125h-208v-139h222v-125h97v639h153v-238l38 4 21 7 21 17 25 32 33 52 7 12 70 114 318-7 21-67 20-66 112 4 111 4 38 132h84l47-2 24-4 6-10-7-21-15-41-21-58-26-73-29-83-17-47-107-300h295v639h139l1-438 142 219 142 218h80l80 1v-29h70l6 18 2 2 16 3 40 2 58 2 72 1 78 1h255v-125h-153l-61-1-50-1-32-3-10-2 8-13 22-32 33-47 41-58 48-66 1-1 60-85 44-65 30-49 15-33 4-18v-40h83v639h153v-639h125v639h153v-424l139 212 140 212h151v-639h139v639h153v-639h125v639h153v-424l276 424h154v-639h-138l-4 209-4 210-136-210-137-209h-720v424l-279-424h-1026v124l293 8-160 214-63 85-46 66-30 51-17 36-4 26h-70v-610h-153l-1 205v205l-134-205-135-205h-543l-51 2-29 5-14 12-3 5-7 21-16 41-21 59-26 72-29 79-1 3-29 80-27 73-22 61-17 45-8 23-7 14-9 2-14-13-22-31-28-43-35-50-32-45-26-31-26-26v-10l18-7 28-16 31-29 5-6 24-37 10-43 1-31-6-60-20-47-36-33-55-22-76-13-101-4h-644l25-31 42-37 7-4 52-32h6000zM17212 7168l23 4 25 7 50 18 21 11 16 9 7 5 4 2 5 2 8 6 11 9 12 11 13 12 12 13 12 12 10 11 7 8 1 3 6 8 5 7 6 8 7 12 8 16 8 17 8 18 6 16 4 11 6 22 5 21 2 20 2 22v26l-1 16-1 26-2 22-3 18-3 12-4 8-3-1-7-5-9-8-21-21-16-15-16-14-14-12-12-11-11-10-9-7-5-5v-1l-6-4-8-7-6-4-10-8-13-10-11-9-15-11-19-13-22-15-23-15-24-15-22-14-20-11-15-9-10-5-7-4-42-21-16-7-15-8-14-6-12-6-3-1-21-9-27-11-30-11-25-9-17-5-14-5-11-5-7-2-3-1 1-3 6-6 9-8 11-8 14-10 28-18 11-6 44-20 46-14 48-8 49-1zM16841 7345l7 2 8 4 9 3 10 3 13 3 33 11 17 6 15 5 10 4 7 3 10 4 12 5h1l9 4 13 5 16 7 17 8 16 8 15 7 13 6 12 6 8 5 12 7 13 7 11 7 7 3 10 5 9 6 1 1 6 3 9 6 12 9 15 10 12 7 38 27 33 25 31 24 20 17 11 10 10 9 8 7 3 2 7 6 55 55 9 11 8 7 4 5v1l-2 4-5 8-8 11-9 11-9 12-10 10-3 4-14 14-17 14-16 14-16 11-7 4-27 16-31 13-30 11-29 8-7 1-13 2-17 2-19 1-18 1-17 1h-13l-16-2-11-1-13-2h-3l-15-3-18-4-16-5-2-1-13-5-30-12-13-6-10-6-4-2-5-4-7-5-3-2-10-6-11-7-1-1-7-6-10-8-34-34-9-10-7-7-1-2-13-19-9-15-8-12-7-12-8-16-3-8-2-4v-1l-1-4-3-7-2-4-7-21-4-16-3-14-7-47-1-47 5-47 12-47 17-45 7-15 6-10 4-5 3-2z" transform="matrix(.0038 0 0 .0038 74.516 117)"/><path d="M18132 8152h-1941v-619h174l8 7 6 5 10 8 11 8 5 4 12 8 11 9 12 8 7 5 22 16 4 3 13 9 15 12 16 11 6 5 12 8 9 7 7 4 6 3 3 3 7 6 10 7 12 9 13 9 6 5 6 4 10 7 12 9 14 10 4 3 18 13 38 28 16 11 11 9 11 8 12 8 13 10 15 11 18 13 21 15 26 19 11 9 11 7 8 6 1 1 7 5 10 7 11 8 2 1 10 7 9 7 6 4v1l5 4 9 6 7 5 11 7 15 12 7 4 10 8 13 9 13 10 3 2 16 12 57 42 5 3 14 10 13 9 10 7 7 4 2 1 5-1 7-5 2-1 7-5 10-7 24-18 14-10 13-9 11-9 7-5 5-4 6-4 8-6 10-7 13-9 36-27 21-14 10-8 12-9 5-3 20-15 14-10 12-8 41-30 37-27 32-23 28-20 22-17 19-13 13-10 10-7 5-4 8-6 11-8 12-9 5-3 13-10 15-11 17-12 11-8 14-11 15-10 14-10 9-6 11-8 10-7 8-6 14-11 17-12 20-15 16-11 12-9 13-9 14-10 12-9 15-12 8-7-8-6-6-5-11-7-13-10-14-11-15-11-15-10-12-9-6-4-10-7-7-5-10-8-7-5-8-5-10-8-12-8-12-9-9-7-5-3-4-4-9-6-11-8-6-5-12-9-11-7-9-6-3-3-6-4-10-7-11-9-7-5-12-8-10-7-8-6-3-2-5-4-9-6-11-8-2-2-12-9-10-7-8-6-1-1-18-12-13-10-9-6-6-5-4-2v-1l-6-4-8-6-7-5-5-3-5-4-7-6-11-7-10-8-10-7-1-1-11-7-14-11-34-24-10-8-11-8-15-11-16-11-14-11-15-10-16-12-13-10-11-7-28-21-24-17-19-14-14-11-11-7-3-2-13-9-14 9-8 5-11 8-13 10-10 8-13 9-11 8-9 6-4 3-5 3-8 7-12 8-14 11-16 11-1 1-30 22-13 9-9 7-5 4-7 4-10 8-11 8-6 4-11 8-15 11-16 12-18 12-10 8-16 12-17 12-16 11-13 10-6 4-22 16-9 6-2 2-7 5-10 7-12 9-5 4-12 9-11 8-12 8-7 6-11 8-12 8-5 4-12 9-10 7-10 8-12 8-14 10-13 9-13 10-16 11-13 10-11 8-10 8-8 5-1 1-7 5-5 3-1 1-3 2-8 6-10 8-13 9-22 16-19 14-17 12-13 9-8 7-2 1-6 5h-174v-618h1941z" transform="matrix(.0038 0 0 .0038 74.516 117)"/></g><g fill="none" fill-opacity="0" stroke="#fff" stroke-width="47.244"><path d="M17516 2804h-512M17260 2567v473M17399 4934h-279M17480 4918h-440M17538 4902h-557M17586 4887h-653M17628 4871h-736M17665 4855h-810M17698 4839h-876M17728 4824h-936M17756 4808h-993M16874 4792h-137M17782 4792h-136M16874 4776h-161M17807 4776h-161M16874 4761h-184M17830 4761h-184M16874 4745h-206M17852 4745h-206M16874 4729h-227M17872 4729h-226M16874 4713h-246M17892 4713h-246M16874 4698h-265M17911 4698h-265M16874 4682h-283M17929 4682h-283M16874 4666h-300M17946 4666h-300M16874 4650h-316M17962 4650h-316M16874 4635h-332M17978 4635h-332M16874 4619h-347M17993 4619h-347M16874 4603h-361M18007 4603h-361M16874 4587h-375M18020 4587h-374M16874 4572h-388M18033 4572h-387M16874 4556h-400M18046 4556h-400M16874 4540h-413M18058 4540h-412M16874 4524h-424M18070 4524h-424M16874 4509h-435M18081 4509h-435M16874 4493h-446M18092 4493h-446M16874 4477h-457M18102 4477h-456M16874 4461h-467M18112 4461h-466M16874 4446h-476M18122 4446h-476M16874 4430h-485M18131 4430h-485M16874 4414h-494M18139 4414h-493M16874 4398h-502M18148 4398h-502M16874 4383h-510M18156 4383h-510M16874 4367h-518M18164 4367h-518M16874 4351h-526M18171 4351h-525M16874 4335h-533M18178 4335h-532M16874 4320h-539M18185 4320h-539M16874 4304h-546M18191 4304h-545M16874 4288h-552M18198 4288h-552M16874 4272h-557M18203 4272h-557M16874 4257h-563M18209 4257h-563M16874 4241h-568M18214 4241h-568M16874 4225h-573M18219 4225h-573M16874 4209h-578M18224 4209h-578M16874 4193h-583M18228 4193h-582M16874 4178h-587M18232 4178h-586M16874 4162h-591M18236 4162h-590M16874 4146h-594M18240 4146h-594M16874 4130h-598M18243 4130h-597M16874 4115h-601M18246 4115h-600M16874 4099h-604M18249 4099h-603M16874 4083h-606M18252 4083h-606M16874 4067h-608M18254 4067h-608M16874 4052h-611M18256 4052h-610M16874 4036h-612M18258 4036h-612M18259 4020h-1999M18261 4004h-2002M18262 3989h-2005M18263 3973h-2006M18263 3957h-2007M18264 3941h-2008M18264 3926h-2008M16796 4833.8a1019.7 1019.7 0 0 0 929-.06" transform="matrix(.0038 0 0 .0038 74.516 117)"/><path d="M16796 3018.4a1019.7 1019.7 0 0 0 .1 1815.5M17725 4833.8a1019.7 1019.7 0 0 0 .1-1815.5" transform="matrix(.0038 0 0 .0038 74.516 117)"/></g></g><g fill="#fff" fill-rule="evenodd"><path d="M171.83 127.81l.122.076.095.106.023.042.027.094-.016.088-.026.049-.088.11-.122.087-.13.034h-.011l-.035-.007-.019-.03-.012-.068-.004-.122v-.3l.007-.105.012-.057.023-.023.034-.007z"/><path d="M171.01 127.13h.347l.323.004.301.007.263.004.214.007.163.007.1.012.026.004.069.038.05.053.037.072.027.106.015.152.007.2.004.266v.072l-.004.285-.004.216-.015.163-.023.114-.034.08-.05.056-.06.038-.02.007-.06.012-.13.012-.187.007-.24.007-.278.004-.312.004-.336.004h-1.066l-.343-.004-.328-.004-.3-.007-.263-.004-.218-.007-.163-.012-.103-.012-.03-.007-.065-.038-.046-.05-.034-.071-.023-.103-.016-.14-.007-.193-.004-.254v-.004h.545l.057.185.103.148.141.099.054.015.106.019.141.004.149-.004.08-.012h1.748l.35-.004.191-.012.156-.019.1-.027.006-.004.088-.056.084-.08.057-.08.015-.057c-.004-.023.014-.044.02-.06l.037-.068v-.106l-.03-.13-.061-.132-.08-.117-.034-.035-.054-.045-.06-.027-.084-.019-.126-.012-.18-.007-.395-.015v1.111h-1.75l.054-.004.091-.023.02-.011.053-.023.02.007.011-.023.012-.08.004-.124v-.33h-.571v.106l.007.072.034.027.088-.007h.004l.087-.004.038.022.007.076v.015l-.004.08-.03.03-.076-.007-.027-.004-.156-.053-.115-.095-.06-.121v-.137l.022-.064.061-.095.061-.064.103-.046.137-.012.133.027.061.034.088.057.046-.004.019-.069.004-.064-.007-.087-.03-.06-.065-.035-.073-.012h.404v1.1h.305v-.368l.004-.167.004-.099.012-.041.015.007.015.026.042.08.069.121.083.137.023.034.084.133.06.08.05.04.061.016h.24v-1.1h-.266v.49l-.004.09-.012.035-.016-.012-.03-.05v-.003l-.053-.091-.077-.126-.068-.113-.141-.216-.4-.004h-.404l-.046-.007-.156-.007-.24.015-.194.068-.137.125-.084.17-.02.08-.003.205h-.545v-.371l.007-.22.012-.163.023-.114.034-.084.046-.053.065-.041.022-.012.061-.007.126-.012.19-.007.237-.007.278-.004.312-.004.335-.004h.709z"/><path d="M131.57 124.95l.08-.121.103-.091.046-.027.095-.026.084.019.053.022.11.087.084.126.038.125v.012l-.007.034-.03.019-.072.012-.122.004h-.298l-.106-.004-.057-.016-.027-.022-.004-.034z" stroke="#fff" stroke-linecap="round" stroke-linejoin="round" stroke-width=".015"/><path d="M130.89 125.77l.004-.341.004-.326.004-.296.004-.262.007-.216.012-.163.007-.098.007-.027.038-.068.05-.05.072-.037.11-.027.15-.015.201-.007.27-.004h.073l.282.004.217.007.164.012.114.023.084.034.053.049.042.065.007.015.012.064.007.125.007.19.007.235.007.277.004.31v.334l.004.35v.355l-.004.357-.004.345-.004.322-.004.3-.007.261-.007.216-.007.167-.012.103-.007.026-.042.065-.05.045-.072.035-.099.026-.144.012-.195.007-.255.004h-.004v-.542l.187-.053.148-.103.1-.144.018-.053.016-.106.007-.136-.007-.148-.007-.084v-1.74l-.007-.349-.007-.19-.02-.151-.026-.102-.004-.007-.061-.088-.08-.08-.08-.056-.057-.02-.007.005-.042-.007-.012-.012-.065-.042h-.106l-.134.035-.133.057-.118.083-.034.034-.042.053-.03.06-.02.084-.007.126-.007.174-.015.394h1.116v1.74l-.007-.049-.019-.09-.012-.023-.023-.054.007-.018-.022-.012-.084-.007-.126-.007h-.328v.568h.107l.069-.004.026-.038-.004-.083v-.007l-.007-.087.027-.038.073-.007h.015l.08.007.03.026-.004.076-.004.03-.057.152-.095.114-.122.06h-.133l-.065-.022-.095-.06-.069-.058-.046-.106-.007-.136.027-.13.034-.06.058-.09-.004-.046-.073-.02-.06-.003-.092.007-.057.03-.035.068-.012.069v-.402h1.105v-.304h-.373l-.168-.004-.1-.004-.041-.007.007-.015.03-.019.08-.038.118-.072.138-.083.034-.02.133-.087.08-.056.042-.054.015-.06.004-.076v-.163h-1.104v.265h.331l.16.004.092.004.034.007-.015.02-.05.026v0l-.091.053-.13.076-.114.072-.217.136v.8l-.007.05-.013.151.016.243.072.19.122.14.175.083.077.016.205.004v.542h-.373l-.217-.007-.164-.012-.118-.023-.08-.034-.057-.046-.042-.064-.007-.02-.012-.06-.007-.129-.007-.185-.007-.24-.007-.276-.004-.31-.004-.335v-.705z" stroke="#fff" stroke-linecap="round" stroke-linejoin="round" stroke-width=".015"/><path d="M122.5 156.07l.072.057.096.083.103.103.099.106.091.098.069.088.038.06.004.02-.027.033-.065.073-.103.102-.133.133-.156.155-.18.174-.19.186-.004.007-.236.224-.194.186-.156.144-.118.11-.092.072-.057.042-.034.015h-.007l-.042.004-.073.049-.103.087-.057.057-.118.11-.103.08-.106.06-.137.06-.061.028-.133.049-.111.045-.076.03-.023.008-.042-.012-.015-.02.004-.045.023-.09.012-.031h.14l.008.015.015-.004.038-.015.08-.034.11-.042.02-.012.144-.064.122-.08.126-.11.034-.038.202-.2-.156-.16-.156-.155-.198.193-.118.129-.088.117-.068.137-.023.053-.054.136-.03.088-.007.045h-.141l.03-.09.046-.118.061-.156.057-.113.061-.095.08-.091.091-.095.103-.106.061-.076.027-.046-.007-.03v-.004l-.012-.012-.004-.015.007-.023.004-.004h.137l.229.228.095.095.08.08.053.045.016.012.026-.023.065-.06.1-.095.125-.122.148-.148.164-.159.05-.05.659-.655-.24-.24-.24-.234-.667.663-.663.664h-.137l.016-.027.038-.049.06-.064.084-.091.11-.114.146-.148.182-.182.218-.224.106-.106.172-.17.16-.156.08-.076h.179l.236.235.236.24.073-.07.049-.052.023-.034v-.004l-.023-.027-.06-.06-.088-.084-.069-.065-.24-.216-.137.137h-.18l.062-.057.114-.11.088-.076.05-.038.006-.004z"/><path d="M120.35 156.01l.06.065.085.102.106.133.118.148.038.049.145.19.107.143.072.11.042.073.007.045-.015.02-.02.003-.03-.023-.057-.068-.087-.098-.103-.125-.118-.148-.004-.004-.114-.148-.107-.125-.084-.107-.057-.068-.027-.026-.03.019-.073.049-.106.08-.13.098-.152.117-.168.13-.167.128-.168.133-.156.125-.137.11-.115.091-.08.069-.038.037-.004.004.016.03.053.073.08.098.103.122.06.072.123.14.091.099.065.064.046.034.038.016h.038l.027-.004h.13l.106.049.076.083.042.103.004.11-.035.106-.083.087-.05.03-.122.042-.099-.004-.095-.06-.023-.02-.08-.11-.015-.068h.11l.039.072.068.053.084.02.087-.027.035-.027.05-.08.003-.09-.038-.088-.068-.057-.069-.012-.076.023-.06.038-.054.087v.087h-.11l-.013-.068.027-.121v-.034l-.02-.05-.04-.068-.077-.095-.114-.132-.042-.05-.11-.125-.1-.106-.08-.08-.05-.045-.011-.004-.034.019-.073.05-.099.071-.118.084-.118.09-.11.092-.092.076-.065.053-.019.026.015.03.054.073.084.106.106.136.122.152.061.076.18.216.14.163.11.113.073.065.023.012.06.004.062-.034.065-.06.076-.073.072-.03.095-.007.115.012.076.037.019.023.076.114.02.125-.035.114-.072.095-.111.06-.118.02-.11-.027-.096-.069-.06-.09-.005-.016-.03-.057-.057-.026-.054-.004-.038-.007-.038-.015-.026-.016h.354l.015.08.053.072.077.042.083.007.084-.038.015-.012.035-.069.015-.075-.027-.091-.064-.061-.088-.023-.092.02-.068.06-.038.087h-.354l-.02-.012-.053-.05-.072-.079-.092-.106-.126-.148-.114-.136-.133-.163-.118-.144-.1-.121-.076-.091-.045-.05-.007-.012-.035.007-.064.038-.084.06-.084.065-.076.065-.05.05-.007.018.02.03.056.072.092.114.114.144.141.175.16.197.172.216.122.152.872 1.073.625-.512v-.11h.133l.042.083.023.02.095.04.087-.022.077-.072.042-.068.004-.05-.03-.056-.07-.069-.091-.03-.091.015-.042.03-.046.084v.095h-.134v-.038l.007-.103.027-.068.057-.06.004-.004.126-.069.125-.012.118.053.046.038.069.11.026.13-.026.12-.023.046-.088.072-.114.042h-.118l-.027-.012-.072-.023-.042-.007-.03.02-.073.049-.091.068-.222.174-.102.08-.08.068-.02.015.008.034.041.065.061.087.076.095.077.091.068.076.05.045.019.004.03-.019.076-.057.11-.079.142-.106.164-.125.183-.14.004-.005.205-.155.156-.121.122-.095.084-.076.057-.053.035-.042.019-.034.004-.034v-.012l-.012-.08-.05-.037-.004-.004-.072-.05-.05-.095-.026-.113h.118l.026.087.027.038.08.049h.095l.084-.042.02-.022.045-.099-.015-.09-.042-.058-.088-.049-.087-.004-.076.038-.05.064-.02.088h-.117l.004-.088.042-.106.084-.068.13-.057.121.007.114.068.012.012.069.076.03.076.004.064-.026.137-.08.106-.088.05-.053.049-.03.098v.004l-.013.038-.015.038-.027.038-.046.049-.068.064-.1.084-.136.106-.175.137-.141.11-.183.14-.164.129-.141.114-.11.09-.073.061-.027.03.02.046.053.072.068.084.073.08.068.06.046.034h.007l.034-.023.077-.053.114-.083.152-.11.176-.133.201-.148.218-.16.224-.166.236-.174.233-.175.228-.17.218-.164.198-.147.179-.137.148-.114.118-.087.08-.064.035-.027-.02-.03-.053-.068-.08-.11-.106-.137-.126-.16-.137-.174-.168-.216-.133-.17-.095-.13-.065-.098-.034-.068-.012-.045.007-.027.022-.007.027.019.057.064.088.103.103.125.118.148.13.163.129.163.125.163.119.155.099.133.08.11.049.076.02.034-.028.023-.068.06-.11.088-.145.11-.176.136-.201.152-.218.163-.228.174-.24.182-.244.178-.236.182-.233.17-.217.16-.198.148-.171.125-.145.103-.11.08-.069.045-.023.012-.023-.023-.06-.072-.092-.11-.122-.148-.152-.178-.172-.213-.194-.235-.213-.257-.221-.273-.153-.186-.232-.285-.217-.273-.206-.25-.187-.231-.16-.205-.14-.174-.111-.14-.076-.103-.046-.06-.007-.016.027-.022.068-.061.107-.091.145-.114.171-.14.194-.16.217-.17.229-.182.236-.186.236-.19.24-.185.229-.182.217-.167.198-.155.175-.137.149-.114.114-.083.073-.057.034-.019zM114.36 163.03h-.697v-.224h.697zM126.65 162.3l.149.027.106.053.084.08.061.102.057.163.02.19-.016.189-.054.167-.007.015-.068.106-.08.072-.107.046-.144.022-.195.007h-.167l-.103-.007-.073-.015-.06-.026-.043-.027-.106-.095-.073-.121-.034-.16-.004-.178h.217l.015.182.039.125.068.08.076.03.141.016h.153l.137-.016.084-.022.083-.046.054-.064.03-.095.007-.137.004-.053-.004-.125-.015-.083-.027-.061-.034-.038-.038-.042-.042-.026-.057-.015-.092-.004-.133-.004-.137.004-.095.007-.061.015-.046.026-.027.023-.041.046-.027.053-.012.072-.004.114v.038h-.217v-.039l.012-.144.015-.102.03-.073.027-.049.08-.09.092-.065.114-.038.156-.015.137-.004zM124.55 162.81h.792v-.504h.225v1.232h-.225v-.504h-.792v.504h-.22v-1.232h.22zM123 162.34l.099.087.137.133.149.152.137.136.122.117.095.099.069.064.034.03.004-.03.004-.079.004-.121v-.152l.004-.042v-.428h.19l-.007.61-.004.24-.007.177-.015.122-.03.064-.046.012-.076-.041-.1-.095-.14-.14-.134-.14-.13-.137-.114-.118-.095-.09-.064-.061-.03-.023-.008.03-.007.08-.004.121-.004.152v.47h-.19v-.842l.004-.182.012-.129.026-.068.046-.015zM122.55 163.54h-.221v-1.232h.221zM120.96 162.3l.038.023.061.049.08.076.11.114.15.151.011.012.438.451v-.432l.004-.436h.221l-.007.61-.004.236-.007.178-.015.121-.027.068-.05.016-.072-.038-.103-.087-.133-.133-.168-.17-.426-.437v.436l-.004.432h-.221v-.963l.004-.106.007-.072.012-.045.015-.027.023-.015.007-.007.026-.007zM120.58 163.54h-.22v-1.232h.22zM119.77 162.3l.152.004.103.007.069.012.038.015.007.007.015.023.007.026-.012.034-.034.054-.057.072-.092.102-.122.14-.076.084-.118.133-.103.113-.08.091-.046.057-.011.02.03.006.08.004.118.004.137.004h.366v.22h-.743l-.164-.007-.107-.012-.057-.015-.004-.004-.034-.053-.004-.023.02-.038.056-.072.088-.102.106-.125.111-.125.377-.417-.758-.02v-.22h.533zM117.73 162.29l.065.06.095.095.122.114.133.137.023.026.446.448v-.433l.004-.436h.22v.751l-.003.167-.004.136-.007.091-.004.038-.027.042-.042.012-.06-.023-.084-.057-.111-.102-.145-.144-.099-.103-.13-.136-.114-.118-.095-.09-.065-.061-.03-.023-.007.03-.012.08-.004.121-.004.152v.47h-.19v-.819l.004-.17.007-.122.015-.08.019-.045.03-.023.023-.004zM117.2 162.31l.076.015.023.012.015.023.016.05.007.083.004.121.004.17v.751h-.221v-.314h-.793v.314h-.224v-.383l.007-.223.004-.05h.213v.118h.792v-.474h-.255l-.21.015-.156.046-.103.076-.057.11-.012.11h-.213l.015-.122.038-.132.061-.103.088-.083.05-.035.06-.037.061-.027.073-.015.099-.007.144-.007.069-.004h.19zM115.42 162.3l.133.004.096.004.064.012.042.015.03.023.027.022.046.05.023.05.007.071-.004.11-.004.027-.007.117-.015.08-.03.057-.054.053-.007.007-.088.06-.091.046-.02.004-.095.019.137.114.19.167.039.034.095.087h-.16l-.076-.004-.061-.012-.065-.03-.076-.057-.107-.087-.015-.015-.148-.118-.107-.068-.069-.02-.057-.006-.022-.038-.004-.065v-.113h.3l.164-.004.115-.016.068-.03.038-.057.012-.087.004-.046v-.14h-.796v1.012h-.22v-.811l.006-.174.007-.118.012-.072.012-.019.042-.015.095-.012.153-.007.21-.004h.041z"/><path d="M114.46 162.52h-.888v1.012h-.224v-.576l.004-.235.004-.174.007-.118.015-.072.007-.019.042-.015.095-.012.149-.007.21-.004h.578z"/></g><g stroke-linecap="round" stroke-linejoin="round" fill="none"><g fill-opacity="0" stroke="#fff" stroke-width="60"><path d="M13883 9311h90l45 22 45 45 23 90v158l-23 90-45 45-45 22h-90l-45-22-45-45-22-90v-158l22-90 45-45 45-22M14288 9783v-472l270 472v-472M10646 8568v-393h94l56 18 37 38 19 37 19 75v57l-19 75-19 37-37 38-56 18h-94M11021 8212l19-19 37-18h94l37 18 19 19 19 38v37l-19 56-225 225h244M10726 4868v-393h94l56 18 37 38 19 37 19 75v57l-19 75-19 37-37 38-56 18h-94M11326 4868h-225M11213 4868v-393l-37 56-38 37-37 19M13308 4352l-19 18-56 19h-37l-57-19-37-37-19-38-19-75v-56l19-75 19-37 37-38 57-19h37l56 19 19 19M13683 4389h-225M13571 4389v-394l-38 57-37 37-38 19M11081 6211l-157-225M10811 6211v-473h180l45 23 23 22 22 45v68l-22 45-23 22-45 23h-180M11531 6211h-270M11396 6211v-473l-45 68-45 45-45 22M11081 7411l-157-225M10811 7411v-473h180l45 23 23 22 22 45v68l-22 45-23 22-45 23h-180M11261 6983l23-22 45-23h112l45 23 23 22 22 45v45l-22 68-270 270h292M11081 9811l-157-225M10811 9811v-473h180l45 23 23 22 22 45v68l-22 45-23 22-45 23h-180M11239 9338h292l-157 180h67l45 23 23 22 22 45v113l-22 45-23 22-45 23h-135l-45-23-22-22M15876 9783h-225v-472M16033 9536h158M16258 9783h-225v-472h225M16461 9783v-472h112l68 22 45 45 22 45 23 90v68l-23 90-22 45-45 45-68 22h-112M15810 6912l-225 158M15810 7182h-473v-180l23-45 22-22 45-23h68l45 23 22 22 23 45v180M15337 6485v225l225 22-22-22-23-45v-113l23-45 22-22 45-23h113l45 23 22 22 23 45v113l-23 45-22 22M10893 3755v-394h93l57 19 37 37 19 38 19 75v56l-19 75-19 37-37 38-57 19h-93M11249 3361h243l-131 150h57l37 19 19 18 18 38v94l-18 37-19 19-37 19h-113l-37-19-19-19M14550 6832l-225 158M14550 7102h-473v-180l23-45 22-22 45-23h68l45 23 22 22 23 45v180M14235 6427h315M14055 6540l337 112v-292M16852 1215v281l-19 56-37 38-56 18h-38M17246 1608h-225M17133 1608v-393l-37 56-38 37-37 19M23232 2737l-226 158M23232 3008h-475v-181l23-45 22-23 46-22h68l45 22 22 23 23 45v181M22983 2533v-158M23232 2307v226h-475v-226M23210 2126l22-68v-113l-22-45-23-23-45-22h-45l-46 22-22 23-23 45-23 91-22 45-23 22-45 23h-45l-46-23-22-22-23-45v-114l23-67M22983 1651v-158M23232 1425v226h-475v-226M22757 1289v-271M23232 1153h-475" transform="matrix(.0038 0 0 .0038 74.516 117)"/></g><g fill-opacity="0" stroke="#fff" stroke-width="59.055"><path d="M9980 2378v319l19 37 18 19 38 19h75l37-19 19-19 19-37v-319M10599 2772h-225M10486 2772v-394l-37 56-38 38-37 18M20878 6838h-394M20840 6425l19 19 19 56v38l-19 56-37 38-38 18-75 19h-56l-75-19-38-18-37-38-19-56v-38l19-56 19-19M20878 6050v225M20878 6163h-394l56 37 38 38 19 37M17294 5574l-19 19-56 19h-37l-57-19-37-38-19-37-19-75v-56l19-75 19-38 37-37 57-19h37l56 19 19 18M17444 5255l19-18 37-19h94l38 19 18 18 19 38v37l-19 57-225 225h244" transform="matrix(.0038 0 0 .0038 74.516 117)"/></g><g stroke="#2c8240" stroke-width="59.06"><path d="M5872 12385h20105M25977 12385V562M25977 562H5872M5872 562v11823" transform="matrix(.0038 0 0 .0038 74.516 117)"/></g></g><g fill="none"><path d="M109.013 152.717h.38v.377h-.38zM124.524 152.717h.379v.377h-.38z"/><g stroke="#8c8c8c" stroke-width=".739"><path stroke-linecap="round" d="M83.527 155.86h.37M93.689 155.86h-.37" transform="matrix(1.4924 0 0 1.4854 -15.28 -78.248)"/><path d="M83.527 155.86h10.007" transform="matrix(1.4924 0 0 1.4854 -15.28 -78.248)"/></g></g><g stroke-width=".254" transform="matrix(1.4924 0 0 1.4854 -15.28 -78.248)"><path d="M86.773 154.75a1.384 1.384 0 0 0-.485-.104h-.701a.255.255 0 0 0-.254.254v1.89c0 .14.114.253.254.253h.7c.14 0 .359-.048.486-.104l.025-.012c.127-.059.346-.104.486-.104h2.534c.14 0 .358.048.485.104l.026.012c.127.059.345.104.485.104h.701c.14 0 .254-.114.254-.254v-1.89a.254.254 0 0 0-.254-.253h-.7c-.141 0-.359.048-.486.104l-.026.013a1.382 1.382 0 0 1-.485.104h-2.534c-.14 0-.359-.048-.486-.104z" fill="#d9b477"/><path fill="#ad9f4e" d="M90.925 154.65h.248v2.397h-.248z"/><path fill="#c40808" d="M88.863 154.87h.653v1.953h-.653z"/><path fill="green" d="M87.557 154.87h.653v1.953h-.653z"/><path d="M86.907 154.81a.768.768 0 0 1-.11-.04l-.025-.013a1.389 1.389 0 0 0-.485-.104h-.03v2.397h.03c.14 0 .358-.048.485-.104l.026-.013a.682.682 0 0 1 .109-.04z" fill="#8a3d06"/><path d="M91.522 156.02c0 .134-.046.247-.104.247h-.678c-.134 0-.345-.02-.47-.044l-.026-.006a3.092 3.092 0 0 0-.47-.043h-2.451c-.135 0-.346.02-.47.043l-.025.005a3.045 3.045 0 0 1-.47.044h-.574c-.135 0-.247.103-.247.227v.204c0 .127.112.228.247.228h.571c.135 0 .346-.043.47-.094l.025-.01a1.5 1.5 0 0 1 .47-.094h2.45c.135 0 .346.044.472.094l.026.01c.121.051.333.094.47.094h.785c.134 0 .247-.104.247-.227v-1.185c-.098.038-.248.145-.248.506z" opacity=".3"/><path opacity=".4" d="M90.925 155.81h.248v1.112h-.248z"/><path d="M90.125 154.96a.657.657 0 0 0 .234-.061c.07-.028.203-.05.34-.05h.516c.08 0 .08.086.08.131 0 .046-.006.135-.08.135h-1.08c-.037 0-.08-.04-.08-.08.001-.03.027-.075.07-.075z" fill="#fff" opacity=".25"/><circle cx="85.627" cy="154.98" r=".152" fill="#fff" opacity=".35"/><path fill="#ff3" opacity=".5" d="M90.925 154.73h.248v.572h-.248z"/><path fill="#fff" opacity=".5" d="M90.925 154.86h.248v.264h-.248z"/></g><path d="M-13.051 266.6c.222-.602-1.756-1.16-2.82-1.088-.945.063-2.924.61-2.213 1.282 1.211 1.147 4.604.967 5.033-.194z" fill="#f60" stroke="#f60" stroke-width=".224" transform="matrix(1.4998 0 0 1.4927 154.2 -267.02)"/><path d="M-14.443 266.03c.103-.206-.81-.397-1.3-.373-.437.022-1.35.209-1.022.44.56.392 2.124.331 2.322-.067z" stroke="#000" stroke-width=".089" transform="matrix(1.4998 0 0 1.4927 154.2 -267.02)"/><g transform="matrix(1.4924 0 0 1.4854 -17.851 -75.401)"><path d="M97.443 155.73a1.536 1.582 0 0 0-.61 1.26 1.536 1.582 0 0 0 1.536 1.582 1.536 1.582 0 0 0 1.535-1.581 1.536 1.582 0 0 0-.612-1.261z" fill="#00d300" opacity=".94" stroke="#00d200" stroke-width=".265"/><circle cx="98.363" cy="157.05" r="1.204" fill="#0f0" opacity=".94" stroke="#0f0" stroke-width=".292"/><path d="M98.206 157.84a.89.89 0 0 0 .386.007l.073.355c-.08.016-.165.025-.25.025a1.82 1.82 0 0 1-.32-.036zm-.357.251a1.244 1.244 0 0 1-.655-1.352l.354.08a.882.882 0 0 0 .439.935z" fill="#fff" opacity=".6"/></g><g transform="matrix(1.4924 0 0 1.4854 -17.747 -75.28)"><path d="M102.44 155.76a1.536 1.582 0 0 0-.61 1.26 1.536 1.582 0 0 0 1.536 1.582 1.536 1.582 0 0 0 1.535-1.581 1.536 1.582 0 0 0-.612-1.261z" fill="#dbdb00" opacity=".94" stroke="#dcdc00" stroke-width=".265"/><circle cx="103.36" cy="157.09" r="1.204" fill="#ff0" opacity=".94" stroke="#ff0" stroke-width=".292"/><path d="M103.2 157.88a.89.89 0 0 0 .386.007l.073.355c-.08.016-.165.025-.25.025a1.82 1.82 0 0 1-.32-.036zm-.357.251a1.244 1.244 0 0 1-.655-1.352l.354.08a.882.882 0 0 0 .439.935z" fill="#fff" opacity=".6"/></g><g transform="matrix(.36768 0 0 .38632 162.27 81.34)" stroke-width=".696"><ellipse cx="-115.08" cy="107.58" rx="10.243" ry="9.565" fill="#1a1a1a"/><path d="M-125.26 107.73h20.319v9.373h-20.319z"/><ellipse cx="-115.33" cy="110.02" rx="9.36" ry="4.707"/></g><g stroke-width=".802"><path d="M130.02 123.174v-2.31l-.89-.887h-2.32l-.89.887v2.31l.89.886h2.32z"/><path fill="#8d8c8c" d="M127.316 121.367h1.308v1.304h-1.308z"/><path fill="#8c8663" d="M127.634 121.683h.673v.671h-.673z"/><path fill="#b8af82" d="M127.634 121.683h.672l.318-.316h-1.308z"/><path fill="#80795b" d="M128.306 121.683l.318-.316v1.304l-.318-.317z"/><path fill="#5e5b43" d="M128.306 122.354l.318.317h-1.308l.318-.317z"/><path fill="#9a916c" d="M127.634 121.683v.67l-.318.318v-1.304z"/><g><path d="M130.897 119.977l-.89.887v2.31l.89.886h2.32l.891-.886v-2.31l-.89-.887z"/></g><g><path fill="#8d8c8c" d="M131.403 121.367h1.309v1.304h-1.309z"/><path fill="#8c8663" d="M131.72 121.683h.674v.671h-.673z"/><path fill="#b8af82" d="M131.403 121.367l.318.316h.673l.318-.316z"/><path fill="#80795b" d="M132.394 122.354v-.67l.318-.317v1.304z"/><path fill="#5e5b43" d="M131.72 122.354h.674l.318.317h-1.309z"/><path fill="#9a916c" d="M131.403 121.367l.318.316v.67l-.318.318z"/></g><g><path d="M134.918 119.977l-.89.887v2.31l.89.886h2.32l.891-.886v-2.31l-.89-.887z"/></g><g><path fill="#8d8c8c" d="M135.424 121.367h1.309v1.304h-1.309z"/><path fill="#8c8663" d="M135.742 121.683h.673v.671h-.673z"/><path fill="#b8af82" d="M135.424 121.367l.318.316h.673l.318-.316z"/><path fill="#80795b" d="M136.415 122.354v-.67l.318-.317v1.304z"/><path fill="#5e5b43" d="M135.742 122.354h.673l.318.317h-1.309z"/><path fill="#9a916c" d="M135.424 121.367l.318.316v.67l-.318.318z"/></g></g><g stroke-width=".941"><g fill="none"><path d="M166.554 126.63v1.514h-1.594v-1.513z"/><path d="M166.404 126.8v1.173h-1.293v-1.174zM166.554 130.546v1.513h-1.594v-1.513z"/><path d="M166.404 130.714v1.174h-1.293v-1.174zM166.554 134.461v1.513h-1.594v-1.513z"/><path d="M166.404 134.63v1.173h-1.293v-1.173zM166.554 138.376v1.513h-1.594v-1.513z"/><path d="M166.404 138.545v1.173h-1.293v-1.173zM166.554 142.291v1.513h-1.594v-1.513z"/><path d="M166.404 142.46v1.173h-1.293v-1.173zM166.554 146.206v1.514h-1.594v-1.514z"/><path d="M166.404 146.375v1.173h-1.293v-1.173zM166.554 150.121v1.514h-1.594v-1.514z"/><path d="M166.404 150.29v1.173h-1.293v-1.173zM166.554 154.036v1.514h-1.594v-1.514z"/><path d="M166.404 154.205v1.173h-1.293v-1.173z"/></g><path fill="#404040" d="M167.82 125.43v31.32h-4.125v-31.32z"/><path d="M166.554 126.632v1.512h-1.593v-1.512z"/><path fill="#2a2a29" d="M166.554 126.63v1.514l.588.558v-2.628z"/><path fill="#474747" d="M166.553 128.144h-1.594l-.586.558h2.769z"/><path fill="#595959" d="M164.959 128.144v-1.513l-.586-.557v2.627z"/><path fill="#373737" d="M164.96 126.63h1.594l.588-.557h-2.77z"/><path d="M166.554 130.547v1.512h-1.593v-1.512z"/><path fill="#2a2a29" d="M166.554 130.546v1.513l.588.558v-2.628z"/><path fill="#474747" d="M166.553 132.06h-1.594l-.586.557h2.769z"/><path fill="#595959" d="M164.959 132.059v-1.513l-.586-.557v2.627z"/><path fill="#373737" d="M164.96 130.546h1.594l.588-.558h-2.77z"/><path d="M166.554 134.462v1.512h-1.593v-1.512z"/><path fill="#2a2a29" d="M166.554 134.461v1.513l.588.558v-2.628z"/><path fill="#474747" d="M166.553 135.974h-1.594l-.586.558h2.769z"/><path fill="#595959" d="M164.959 135.974v-1.513l-.586-.557v2.627z"/><path fill="#373737" d="M164.96 134.461h1.594l.588-.558h-2.77z"/><path d="M166.554 138.377v1.512h-1.593v-1.512z"/><path fill="#2a2a29" d="M166.554 138.376v1.513l.588.558v-2.628z"/><path fill="#474747" d="M166.553 139.89h-1.594l-.586.557h2.769z"/><path fill="#595959" d="M164.959 139.889v-1.513l-.586-.557v2.627z"/><path fill="#373737" d="M164.96 138.376h1.594l.588-.558h-2.77z"/><path d="M166.554 142.292v1.512h-1.593v-1.512z"/><path fill="#2a2a29" d="M166.554 142.291v1.513l.588.558v-2.628z"/><path fill="#474747" d="M166.553 143.804h-1.594l-.586.558h2.769z"/><path fill="#595959" d="M164.959 143.804v-1.513l-.586-.557v2.627z"/><path fill="#373737" d="M164.96 142.291h1.594l.588-.558h-2.77z"/><path d="M166.554 146.207v1.513h-1.593v-1.513z"/><path fill="#2a2a29" d="M166.554 146.206v1.514l.588.557v-2.628z"/><path fill="#474747" d="M166.553 147.72h-1.594l-.586.557h2.769z"/><path fill="#595959" d="M164.959 147.719v-1.513l-.586-.557v2.627z"/><path fill="#373737" d="M164.96 146.206h1.594l.588-.558h-2.77z"/><path d="M166.554 150.122v1.513h-1.593v-1.513z"/><path fill="#2a2a29" d="M166.554 150.121v1.514l.588.557v-2.628z"/><path fill="#474747" d="M166.553 151.635h-1.594l-.586.557h2.769z"/><path fill="#595959" d="M164.959 151.634v-1.513l-.586-.557v2.627z"/><path fill="#373737" d="M164.96 150.121h1.594l.588-.558h-2.77z"/><path d="M166.554 154.037v1.513h-1.593v-1.513z"/><path fill="#2a2a29" d="M166.554 154.036v1.514l.588.557v-2.627z"/><path fill="#474747" d="M166.553 155.55h-1.594l-.586.557h2.769z"/><path fill="#595959" d="M164.959 155.55v-1.514l-.586-.556v2.626z"/><path fill="#373737" d="M164.96 154.036h1.594l.588-.558h-2.77z"/></g><g stroke-width="1.164"><g fill="#ccc"><path d="M101.79 135.528h1.475l.223.88h1.8v.52h-3.513z"/><path d="M101.791 137.819h1.475l.223-.886h1.798v-.523h-3.51z"/></g><g fill="#ccc"><path d="M101.787 145.492h1.475l.223.88h1.8v.52h-3.513z"/><path d="M101.787 147.58h1.474l.223-.885h1.799v-.524h-3.511zM101.787 138.745h1.475l.223.88h1.8v.52h-3.513z"/><path d="M101.787 140.833h1.474l.223-.885h1.799v-.524h-3.511z"/><g><path d="M101.787 142.157h1.475l.223.88h1.8v.52h-3.513z"/><path d="M101.787 144.245h1.474l.223-.885h1.799v-.524h-3.511z"/></g></g><path fill="gray" d="M77.822 133.961h24.014v15.307H77.822z"/><path fill="#ccc" d="M77.82 133.961h22.71v13.942H77.82z"/><g fill="#999"><path d="M81.754 135.707h2.198v3.046h-2.198zM81.754 143.593h2.198v3.046h-2.198zM95.318 140.81h1.06v1.293h-1.06z"/></g></g><g transform="matrix(-.53735 0 0 -.51574 160.6 147.35)"><g fill="#8c8c8c"><path d="M2.521 20.643h2.16v3.125h-2.16zM9.721 20.643h2.16v3.125h-2.16zM16.92 20.643h2.16v3.125h-2.16zM24.121 20.643h2.158v3.125h-2.158zM24.121.008h2.158v3.125h-2.158zM16.92.008h2.16v3.125h-2.16zM9.721.008h2.16v3.125h-2.16zM2.521.008h2.16v3.125h-2.16z"/><path d="M2.521 21.607h2.16v2.16h-2.16zM9.721 21.607h2.16v2.16h-2.16zM16.92 21.607h2.16v2.16h-2.16zM24.121 21.607h2.158v2.16h-2.158zM24.121.008h2.158v2.16h-2.158zM16.92.008h2.16v2.16h-2.16zM9.721.008h2.16v2.16h-2.16zM2.521.008h2.16v2.16h-2.16z"/></g><g fill="#8c8c8c"><path d="M2.521 18.958h2.16v4.81h-2.16zM9.721 18.958h2.16v4.81h-2.16zM16.92 18.958h2.16v4.81h-2.16zM24.121 18.958h2.158v4.81h-2.158zM2.521.008h2.16v4.81h-2.16zM9.721.008h2.16v4.81h-2.16zM16.92.008h2.16v4.81h-2.16zM24.121.008h2.158v4.81h-2.158z"/></g><path fill="#3d3d3d" d="M0 2.168h28.801l-.541 6.119H0z"/><path d="M0 15.487h28.26l.541 6.12H0z"/><g fill="#8c8c8c"><path d="M2.521 1.692v1.441h3.6v-.779l-1.44-.662zM11.88 1.692H9.721l-1.441.662v.779h5.04v-.779zM22.682 2.354v.779h3.597V1.692h-2.158zM19.08 1.692h-2.16l-1.44.662v.779h5.041v-.779zM6.121 21.42v-.777h-3.6v1.44h2.16zM26.279 22.083v-1.44h-3.597v.777l1.439.663zM9.721 22.083h2.159l1.44-.663v-.777H8.28v.777zM16.92 22.083h2.16l1.441-.663v-.777H15.48v.777z"/></g><path fill="#141414" d="M27.255 3.938v15.891l1.005.007.541 1.771V2.168l-.541 1.77z"/><path fill="#1f1f1f" d="M0 2.168l.541 1.77v4.349h3.06v7.2H.541v4.349L0 21.607z"/><path fill="#1c1c1c" d="M.404 11.88h3.197V8.287l-3.06-.028-.137 1.526z"/><path fill="#383838" d="M.404 11.88v2.11l.137 1.533h3.06V11.88z"/><path d="M.541 3.938v4.313a3.697 3.697 0 0 1 3.017 3.628 3.702 3.702 0 0 1-3.017 3.637v4.313H28.26V3.938z" fill="#303030"/><path d="M.404 9.785v4.195a2.116 2.116 0 0 0 1.886-2.1A2.107 2.107 0 0 0 .404 9.785z" fill="#262626"/><circle cx="4.681" cy="16.906" r="1.483" fill="#212121"/><g fill="#8c8c8c"><path d="M26.27 3.177h-2.158V-.001h2.159zM19.077 3.177h-2.159V-.001h2.16zM11.877 3.177H9.718V-.001h2.16zM4.678 3.177h-2.16V-.001h2.16zM22.679 20.669v.777l1.438.661h2.16V20.67z"/><path d="M26.27 3.177V1.738h-2.158l-1.439.661v.778zM6.116 3.177v-.778l-1.438-.66h-2.16v1.438zM15.479 2.4v.777h5.037v-.778l-1.439-.66h-2.159zM8.28 2.4v.777h5.036v-.778l-1.439-.66H9.718zM2.519 20.67v1.438h2.159l1.438-.662v-.776zM22.679 20.669v.777l1.438.661h2.16V20.67zM13.316 21.446v-.776H8.28v.776l1.439.662h2.158zM20.516 21.446v-.776h-5.037v.776l1.439.662h2.16z"/></g><g fill="#f2f2f2" aria-label="attiny85"><path d="M24.814 16.091q.463 0 .641-.106.179-.105.179-.36 0-.204-.133-.324-.135-.118-.365-.118-.318 0-.509.224-.193.226-.193.6v.084zm-.761.158v-1.326h.381v.353q.131-.212.326-.313.195-.1.477-.1.357 0 .569.2.21.2.21.537 0 .392-.262.59-.264.2-.784.2h-.536v.037q0 .264.175.407.172.145.485.145.2 0 .388-.047t.363-.144v.353q-.21.081-.406.12-.198.042-.384.042-.504 0-.753-.261t-.25-.793zM22.886 17.907v-.66H22.1v-.297h.786V15.69q0-.284-.076-.365-.08-.081-.318-.081H22.1v-.32h.392q.442 0 .61.164.168.166.168.602v1.261h.28v.297h-.28v.66zM21.218 17.907v-.66h-.786v-.297h.786V15.69q0-.284-.077-.365-.078-.081-.317-.081h-.392v-.32h.392q.442 0 .61.164.168.166.168.602v1.261h.28v.297h-.28v.66zM19.928 17.247h-.382v-2.324h.382zm0 .905h-.382v-.484h.382zM16.817 16.326v-1.403h.382v1.39q0 .33.129.494.128.164.386.164.309 0 .487-.197.179-.197.179-.537v-1.314h.384v2.324h-.384v-.361q-.137.21-.322.313-.187.104-.43.104-.4 0-.605-.249-.206-.247-.206-.728zM15.085 14.707q.161-.415.315-.541t.41-.127h.306v.32h-.224q-.158 0-.245.074-.087.075-.193.353l-.069.174.94 2.287h-.404l-.726-1.818-.727 1.818h-.404zM12.587 16.394q.298 0 .47-.16.17-.16.17-.44t-.17-.44q-.172-.16-.47-.16t-.471.16q-.173.163-.173.44 0 .28.173.44.17.16.47.16zm.419.179q.27.066.421.25.15.185.15.451 0 .371-.264.587-.266.216-.726.216-.463 0-.727-.216-.263-.216-.263-.587 0-.266.151-.45.15-.185.417-.251-.303-.07-.47-.276-.17-.206-.17-.502 0-.45.275-.691.274-.241.787-.241t.788.24q.274.241.274.692 0 .296-.17.502t-.473.276zm.153.662q0-.241-.15-.376t-.422-.135q-.27 0-.422.135-.153.135-.153.376t.153.375q.152.135.422.135.271 0 .423-.135.15-.135.15-.375zM10.774 18.02H9.128v-.352h1.262v-.76q-.092.032-.183.046-.091.017-.182.017-.52 0-.822-.284-.303-.284-.303-.77 0-.5.311-.778.311-.276.878-.276.195 0 .398.033.202.033.417.1v.42q-.186-.1-.386-.15-.199-.05-.42-.05-.36 0-.57.188-.209.19-.209.513t.21.512q.21.19.568.19.168 0 .336-.038.166-.037.34-.116z"/></g><g fill="#8c8c8c"><path d="M26.276 23.79h-2.159v-3.14h2.16zM4.678 23.792h-2.16v-3.14h2.16zM19.077 23.792h-2.159v-3.14h2.16zM11.877 23.792H9.72v-3.14h2.158z"/></g><g fill="none"><path d="M4.702 3.178H2.534V-.001h2.168zM4.693 23.772H2.537v-3.178h2.156zM11.876 23.792H9.718v-3.178h2.158zM19.077 23.792h-2.159v-3.178h2.159zM26.28 23.792h-2.159v-3.178h2.159zM26.271 3.178h-2.159V-.001h2.159zM19.077 3.178h-2.159V-.001h2.159zM11.877 3.178H9.718V-.001h2.159z"/></g></g><g stroke-width="1.047"><g fill="none"><path d="M159.19 128.143v.988h-1.462v-.988zM149.302 128.143v.988h-1.462v-.988zM159.19 121.56v.987h-1.462v-.988zM149.302 121.56v.987h-1.462v-.988z"/><path d="M159.19 128.143v.988h-1.032v-.988zM148.872 128.143v.988h-1.032v-.988zM159.19 121.56v.987h-1.032v-.988zM148.872 121.56v.987h-1.032v-.988z"/></g><g transform="matrix(0 .3292 -.34392 0 159.19 121.36)"><g fill="#8c8c8c"><path d="M20.586 21.487h3v11.492h-3zM.586.001h2.998v11.492H.586zM20.586 0h3v11.494h-3zM.587 21.487h2.999v11.494H.587z"/></g><path d="M.012 4.232H24.53v24.52H.012z"/><path d="M24.529 26.752a2.002 2.002 0 0 1-2 1.999H2.011a2.003 2.003 0 0 1-1.999-1.999V6.23c0-1.1.898-1.998 1.999-1.998h20.521a2 2 0 0 1 1.997 1.998z" fill="#999"/><circle cx="3.583" cy="7.803" r="2.124"/><circle cx="21.018" cy="7.84" r="2.124"/><circle cx="20.981" cy="25.275" r="2.124"/><circle cx="3.546" cy="25.236" r="2.124"/><circle cx="12.27" cy="16.491" r="7.15" fill="#3f3f3f"/><circle cx="12.27" cy="16.491" r="7.15" fill="url(#a)"/><circle cx="12.395" cy="17.341" r="6.292" opacity=".6"/><circle cx="12.279" cy="16.533" r="6.132" fill="#735348"/><g fill="#fff"><path d="M3.308 7.692a.306.306 0 0 1 .228-.196l-.21-1.338c-.08.013-.165.002-.244.026l-.002-.006a1.667 1.667 0 0 0-1.054.993zM20.741 7.728a.299.299 0 0 1 .229-.197l-.207-1.338c-.082.015-.166.002-.245.026l-.003-.007a1.665 1.665 0 0 0-1.053.993zM20.707 25.163c.041-.102.116-.18.227-.197l-.207-1.337c-.082.015-.166.002-.246.026l-.002-.01a1.66 1.66 0 0 0-1.053.994zM3.271 25.126a.298.298 0 0 1 .229-.195l-.21-1.339c-.082.017-.166.002-.245.027l-.002-.007c-.495.15-.865.521-1.056.992z" opacity=".5"/><path d="M14.473 10.818a5.99 5.99 0 0 0-1.504-.378 6.107 6.107 0 0 0-3.653.742l-.134.348a6.946 6.946 0 0 1 4.062-.778c.448.052.884.152 1.301.284z" opacity=".6"/></g></g></g><g transform="matrix(1.4924 0 0 1.4854 -11.104 -74.949)"><circle transform="rotate(-90)" cx="-139.27" cy="101.4" r="2.75"/><circle transform="rotate(-90)" cx="-139.25" cy="101.42" r="1.75" fill="#b2b2b2"/><path d="M101.46 140.99c-.436.003-.675-.09-1.113-.356l-.293 1.03c.408.23.862.355 1.32.36.448.007.994-.128 1.418-.38l-.26-1.035c-.432.264-.564.377-1.072.381z" fill="#fff"/></g><g fill="none"><path d="M123.264 131.011h-.429v-.5h.43zM112.311 131.011h-.429v-.5h.43z"/><path stroke="#8c8c8c" stroke-linecap="round" stroke-width=".701" d="M55.095 257.05h-.351" transform="matrix(1.4998 0 0 1.4927 40.204 -253.21)"/><path stroke="#8c8c8c" stroke-linecap="round" stroke-width=".704" d="M47.452 257.05h-.354" transform="matrix(1.4998 0 0 1.4927 40.204 -253.21)"/></g><g stroke-width=".309"><path fill="#8c8c8c" d="M122.372 131.011h-11.005v-1.046h11.005z"/><path d="M119.345 132.295h.925c.203 0 .168-3.593 0-3.593h-6.779c-.22 0-.24 3.593 0 3.593h5.854z" fill="#ff2a2a"/><path fill="#fff" opacity=".74" d="M119.077 132.295h-.853v-3.593h.853z"/><path d="M120.146 132.116h-6.496c-.152 0-.49-.18.152-.18H120.148c.152 0 .305.18-.002.18z" fill="#fff" opacity=".4"/><path d="M113.492 128.712c.311-.007.616 0 .923 0h5.855c.04 0 .087.361.078.361H113.392c-.01 0 .037-.36.1-.36z" opacity=".4"/></g><g fill="none"><path d="M110.35 135.281h.429v-.5h-.43zM121.303 135.281h.429v-.5h-.43z"/><path stroke="#8c8c8c" stroke-linecap="round" stroke-width=".701" d="M55.095 257.05h-.351" transform="matrix(-1.4998 0 0 1.4927 193.41 -248.94)"/><path stroke="#8c8c8c" stroke-linecap="round" stroke-width=".704" d="M47.452 257.05h-.354" transform="matrix(-1.4998 0 0 1.4927 193.41 -248.94)"/></g><g stroke-width=".309"><path fill="#8c8c8c" d="M111.242 135.281h11.005v-1.046h-11.005z"/><path d="M114.269 136.565h-.925c-.203 0-.168-3.593 0-3.593h6.779c.22 0 .24 3.593 0 3.593h-5.854z" fill="#ff2a2a"/><path fill="#fff" opacity=".74" d="M114.537 136.565h.853v-3.593h-.853z"/><path d="M113.468 136.386h6.496c.152 0 .49-.18-.152-.18H113.466c-.152 0-.305.18.002.18z" fill="#fff" opacity=".4"/><path d="M120.122 132.982c-.311-.007-.616 0-.923 0h-5.855c-.04 0-.087.361-.078.361H120.222c.01 0-.037-.36-.1-.36z" opacity=".4"/></g><g fill="none"><path d="M108.829 139.354h.379v.377h-.38zM124.34 139.354h.378v.377h-.379z"/><g stroke="#8c8c8c" stroke-width=".739"><path stroke-linecap="round" d="M80.944 146.11h.37M91.106 146.11h-.369" transform="matrix(1.4924 0 0 1.4854 -11.611 -77.128)"/><path d="M80.944 146.11h10.007" transform="matrix(1.4924 0 0 1.4854 -11.611 -77.128)"/></g></g><g stroke-width=".254" transform="matrix(1.4924 0 0 1.4854 -11.611 -77.128)"><path d="M84.19 145.01a1.384 1.384 0 0 0-.485-.104h-.701a.255.255 0 0 0-.254.254v1.89c0 .14.114.253.254.253h.7c.14 0 .359-.048.486-.104l.025-.012c.127-.059.346-.104.486-.104h2.534c.14 0 .358.048.485.104l.026.012c.127.059.345.104.485.104h.701c.14 0 .254-.114.254-.254v-1.89a.254.254 0 0 0-.254-.253h-.7c-.141 0-.359.048-.486.104l-.026.013a1.382 1.382 0 0 1-.485.104h-2.534c-.14 0-.359-.048-.486-.104z" fill="#d9b477"/><path fill="#ad9f4e" d="M88.343 144.9h.248v2.397h-.248z"/><path d="M86.28 145.12h.653v1.953h-.653z"/><path fill="#b3b3b3" d="M84.975 145.12h.653v1.953h-.653z"/><path d="M84.324 145.06a.768.768 0 0 1-.11-.04l-.025-.013a1.389 1.389 0 0 0-.485-.104h-.03v2.397h.03c.14 0 .358-.048.485-.104l.026-.013a.682.682 0 0 1 .109-.04z" fill="#00f"/><path d="M88.939 146.27c0 .134-.046.247-.104.247h-.678c-.134 0-.345-.02-.47-.044l-.026-.006a3.092 3.092 0 0 0-.47-.043H84.74c-.135 0-.346.02-.47.043l-.025.005a3.045 3.045 0 0 1-.47.044H83.2c-.135 0-.247.103-.247.227v.204c0 .127.112.228.247.228h.571c.135 0 .346-.043.47-.094l.025-.01a1.5 1.5 0 0 1 .47-.094h2.45c.135 0 .346.044.472.094l.026.01c.121.051.333.094.47.094h.785c.134 0 .247-.104.247-.227v-1.185c-.098.038-.248.145-.248.506z" opacity=".3"/><path opacity=".4" d="M88.343 146.06h.248v1.112h-.248z"/><path d="M87.542 145.21a.657.657 0 0 0 .234-.061c.07-.028.203-.05.34-.05h.516c.08 0 .08.086.08.131 0 .046-.006.135-.08.135h-1.08c-.037 0-.08-.04-.08-.08.001-.03.027-.075.07-.075z" fill="#fff" opacity=".25"/><circle cx="83.044" cy="145.23" r=".152" fill="#fff" opacity=".35"/><path fill="#ff3" opacity=".5" d="M88.343 144.98h.248v.572h-.248z"/><path fill="#fff" opacity=".5" d="M88.343 145.11h.248v.264h-.248z"/></g><g><g fill="none"><path d="M108.89 143.884h.38v.377h-.38zM124.401 143.884h.38v.377h-.38z"/><g stroke="#8c8c8c" stroke-width=".739"><path stroke-linecap="round" d="M80.944 146.11h.37M91.106 146.11h-.369" transform="matrix(1.4924 0 0 1.4854 -11.549 -72.598)"/><path d="M80.944 146.11h10.007" transform="matrix(1.4924 0 0 1.4854 -11.549 -72.598)"/></g></g><g stroke-width=".254" transform="matrix(1.4924 0 0 1.4854 -11.549 -72.598)"><path d="M84.19 145.01a1.384 1.384 0 0 0-.485-.104h-.701a.255.255 0 0 0-.254.254v1.89c0 .14.114.253.254.253h.7c.14 0 .359-.048.486-.104l.025-.012c.127-.059.346-.104.486-.104h2.534c.14 0 .358.048.485.104l.026.012c.127.059.345.104.485.104h.701c.14 0 .254-.114.254-.254v-1.89a.254.254 0 0 0-.254-.253h-.7c-.141 0-.359.048-.486.104l-.026.013a1.382 1.382 0 0 1-.485.104h-2.534c-.14 0-.359-.048-.486-.104z" fill="#d9b477"/><path fill="#ad9f4e" d="M88.343 144.9h.248v2.397h-.248z"/><path d="M86.28 145.12h.653v1.953h-.653z"/><path fill="#b3b3b3" d="M84.975 145.12h.653v1.953h-.653z"/><path d="M84.324 145.06a.768.768 0 0 1-.11-.04l-.025-.013a1.389 1.389 0 0 0-.485-.104h-.03v2.397h.03c.14 0 .358-.048.485-.104l.026-.013a.682.682 0 0 1 .109-.04z" fill="#00f"/><path d="M88.939 146.27c0 .134-.046.247-.104.247h-.678c-.134 0-.345-.02-.47-.044l-.026-.006a3.092 3.092 0 0 0-.47-.043H84.74c-.135 0-.346.02-.47.043l-.025.005a3.045 3.045 0 0 1-.47.044H83.2c-.135 0-.247.103-.247.227v.204c0 .127.112.228.247.228h.571c.135 0 .346-.043.47-.094l.025-.01a1.5 1.5 0 0 1 .47-.094h2.45c.135 0 .346.044.472.094l.026.01c.121.051.333.094.47.094h.785c.134 0 .247-.104.247-.227v-1.185c-.098.038-.248.145-.248.506z" opacity=".3"/><path opacity=".4" d="M88.343 146.06h.248v1.112h-.248z"/><path d="M87.542 145.21a.657.657 0 0 0 .234-.061c.07-.028.203-.05.34-.05h.516c.08 0 .08.086.08.131 0 .046-.006.135-.08.135h-1.08c-.037 0-.08-.04-.08-.08.001-.03.027-.075.07-.075z" fill="#fff" opacity=".25"/><circle cx="83.044" cy="145.23" r=".152" fill="#fff" opacity=".35"/><path fill="#ff3" opacity=".5" d="M88.343 144.98h.248v.572h-.248z"/><path fill="#fff" opacity=".5" d="M88.343 145.11h.248v.264h-.248z"/></g></g><g><g fill="none"><path d="M110.33 149.321h.429v-.5h-.43zM121.283 149.321h.429v-.5h-.43z"/><path stroke="#8c8c8c" stroke-linecap="round" stroke-width=".701" d="M55.095 257.05h-.351" transform="matrix(-1.4998 0 0 1.4927 193.39 -234.9)"/><path stroke="#8c8c8c" stroke-linecap="round" stroke-width=".704" d="M47.452 257.05h-.354" transform="matrix(-1.4998 0 0 1.4927 193.39 -234.9)"/></g><g stroke-width=".309"><path fill="#8c8c8c" d="M111.222 149.321h11.005v-1.046h-11.005z"/><path d="M114.249 150.605h-.925c-.203 0-.168-3.593 0-3.593h6.779c.22 0 .24 3.593 0 3.593h-5.854z" fill="#ff2a2a"/><path fill="#fff" opacity=".74" d="M114.517 150.605h.853v-3.593h-.853z"/><path d="M113.448 150.426h6.496c.152 0 .49-.18-.152-.18H113.446c-.152 0-.305.18.002.18z" fill="#fff" opacity=".4"/><path d="M120.102 147.022c-.311-.007-.616 0-.923 0h-5.855c-.04 0-.087.361-.078.361H120.202c.01 0-.037-.36-.1-.36z" opacity=".4"/></g></g><g><g fill="none"><path d="M129.525 134.486v.377h-.379v-.377zM129.525 149.92v.377h-.379v-.378z"/><g stroke="#8c8c8c" stroke-width=".739"><path stroke-linecap="round" d="M93.903 142.77v.37M93.903 152.93v-.37" transform="matrix(1.4924 0 0 1.4854 -11.168 -77.228)"/><path d="M93.903 142.77v10.007" transform="matrix(1.4924 0 0 1.4854 -11.168 -77.228)"/></g></g><path d="M130.625 139.67c.087-.189.155-.513.155-.72v-1.042a.38.38 0 0 0-.379-.377h-2.82a.38.38 0 0 0-.379.377v1.041c0 .208.072.532.156.721l.018.038c.087.188.156.513.156.72v3.766c0 .208-.072.531-.156.72l-.018.038a2.044 2.044 0 0 0-.156.72v1.042c0 .208.17.377.38.377h2.82c.208 0 .378-.169.378-.377v-1.041a2.13 2.13 0 0 0-.155-.72l-.019-.039a2.044 2.044 0 0 1-.155-.72v-3.766c0-.207.072-.532.155-.72z" fill="#d9b477"/><path fill="#ad9f4e" d="M130.783 145.835v.368h-3.577v-.368z"/><g stroke-width=".254"><path fill="#c40808" d="M130.45 142.775v.97h-2.914v-.97z"/><path fill="#1a1a1a" d="M130.45 140.829v.97h-2.914v-.97z"/><path d="M130.549 139.863c.019-.06.038-.117.06-.162l.02-.038c.086-.188.155-.513.155-.72v-.046h-3.578v.046c0 .207.071.532.155.72l.019.038c.023.045.042.102.06.162z" fill="#8a3d06"/></g><g stroke-width=".254" transform="matrix(1.4924 0 0 1.4854 -11.168 -77.228)"><path d="M93.742 150.76c-.134 0-.247-.046-.247-.104v-.678c0-.134.02-.345.044-.47l.005-.026c.023-.122.043-.335.043-.47v-2.451c0-.135-.02-.346-.043-.47l-.005-.025a3.044 3.044 0 0 1-.043-.47v-.574c0-.135-.104-.247-.228-.247h-.204c-.127 0-.228.112-.228.247v.571c0 .135.043.346.095.47l.01.025c.05.122.093.336.093.47v2.45c0 .135-.044.346-.094.472l-.01.026a1.455 1.455 0 0 0-.094.47v.785c0 .134.104.247.228.247h1.184c-.038-.098-.145-.248-.506-.248z" opacity=".3"/><path opacity=".4" d="M93.956 150.17v.248h-1.112v-.248z"/><path d="M94.802 149.37c0 .081.036.173.061.234.028.07.05.203.05.34v.516c0 .08-.086.08-.131.08s-.135-.006-.135-.08v-1.08c0-.037.04-.08.079-.08.03.001.076.027.076.07z" fill="#fff" opacity=".25"/><circle transform="rotate(90)" cx="144.87" cy="-94.784" r=".152" fill="#fff" opacity=".35"/><path fill="#ff3" opacity=".5" d="M95.035 150.17v.248h-.572v-.248z"/><path fill="#fff" opacity=".5" d="M94.908 150.17v.248h-.264v-.248z"/></g></g><g><g fill="none"><path d="M134.19 134.486v.377h-.379v-.377zM134.19 149.92v.377h-.379v-.378z"/><g stroke="#8c8c8c" stroke-width=".739"><path stroke-linecap="round" d="M93.903 142.77v.37M93.903 152.93v-.37" transform="matrix(1.4924 0 0 1.4854 -6.503 -77.228)"/><path d="M93.903 142.77v10.007" transform="matrix(1.4924 0 0 1.4854 -6.503 -77.228)"/></g></g><path d="M135.29 139.67c.088-.189.156-.513.156-.72v-1.042a.38.38 0 0 0-.38-.377h-2.82a.38.38 0 0 0-.378.377v1.041c0 .208.071.532.155.721l.019.038c.087.188.155.513.155.72v3.766c0 .208-.071.531-.155.72l-.019.038a2.044 2.044 0 0 0-.155.72v1.042c0 .208.17.377.379.377h2.82c.208 0 .379-.169.379-.377v-1.041a2.13 2.13 0 0 0-.156-.72l-.019-.039a2.044 2.044 0 0 1-.155-.72v-3.766c0-.207.072-.532.155-.72z" fill="#d9b477"/><path fill="#ad9f4e" d="M135.449 145.835v.368h-3.578v-.368z"/><g stroke-width=".254"><path fill="#c40808" d="M135.116 142.775v.97H132.2v-.97z"/><path fill="#1a1a1a" d="M135.116 140.829v.97H132.2v-.97z"/><path d="M135.214 139.863c.02-.06.038-.117.061-.162l.019-.038c.087-.188.155-.513.155-.72v-.046h-3.578v.046c0 .207.072.532.156.72l.018.038c.024.045.042.102.061.162z" fill="#8a3d06"/></g><g stroke-width=".254" transform="matrix(1.4924 0 0 1.4854 -6.503 -77.228)"><path d="M93.742 150.76c-.134 0-.247-.046-.247-.104v-.678c0-.134.02-.345.044-.47l.005-.026c.023-.122.043-.335.043-.47v-2.451c0-.135-.02-.346-.043-.47l-.005-.025a3.044 3.044 0 0 1-.043-.47v-.574c0-.135-.104-.247-.228-.247h-.204c-.127 0-.228.112-.228.247v.571c0 .135.043.346.095.47l.01.025c.05.122.093.336.093.47v2.45c0 .135-.044.346-.094.472l-.01.026a1.455 1.455 0 0 0-.094.47v.785c0 .134.104.247.228.247h1.184c-.038-.098-.145-.248-.506-.248z" opacity=".3"/><path opacity=".4" d="M93.956 150.17v.248h-1.112v-.248z"/><path d="M94.802 149.37c0 .081.036.173.061.234.028.07.05.203.05.34v.516c0 .08-.086.08-.131.08s-.135-.006-.135-.08v-1.08c0-.037.04-.08.079-.08.03.001.076.027.076.07z" fill="#fff" opacity=".25"/><circle transform="rotate(90)" cx="144.87" cy="-94.784" r=".152" fill="#fff" opacity=".35"/><path fill="#ff3" opacity=".5" d="M95.035 150.17v.248h-.572v-.248z"/><path fill="#fff" opacity=".5" d="M94.908 150.17v.248h-.264v-.248z"/></g></g><text transform="scale(1.0024 .99764)" x="104.28" y="161.481" fill="#fff" font-family="sans-serif" font-size="2.639" letter-spacing="0" stroke-width=".396" word-spacing="0" style="line-height:1.25" xml:space="preserve"><tspan x="104.28" y="161.481" font-size="2.375">2</tspan></text></g></svg>