<svg width="241.327" height="114.35" viewBox="0 0 63.851 30.255" xmlns="http://www.w3.org/2000/svg"><defs><linearGradient id="a" x1="-267.88" x2="-253.58" y1="-465.35" y2="-465.35" gradientTransform="matrix(1.0474 0 0 -1.0474 314.25 -588.03)" gradientUnits="userSpaceOnUse"><stop stop-color="#333" offset="0"/><stop stop-color="#3C3C3C" offset="1"/></linearGradient></defs><g transform="translate(-77.817 -118.84)"><path fill="#fff" fill-rule="evenodd" style="paint-order:fill markers stroke" d="M77.817 118.84h63.791v30.315H77.817z"/><text x="276.123" y="96.869" fill="#1a1a1a" font-family="Ubuntu" font-size="2.57" font-weight="bold" stroke-width=".077" word-spacing="0" style="line-height:1.25" xml:space="preserve"/><text x="308.571" y="154.795" fill="#fff" font-family="Ubuntu" font-size="2.063" font-weight="bold" stroke-width=".062" word-spacing="0" style="line-height:1.25" xml:space="preserve"/><rect x="90.374" y="118.84" width="51.219" height="30.18" rx="0" ry="0" fill="#2c8240" style="paint-order:fill markers stroke"/><g transform="translate(75.611 117.56) scale(.00254)" fill="#848400" stroke="none" stroke-linecap="round" stroke-linejoin="round" stroke-width="0"><circle cx="14260" cy="10334" r="330"/><circle cx="14260" cy="11334" r="330"/><circle cx="9650.2" cy="1526.1" r="590.55"/><circle cx="25005" cy="1526.1" r="590.55"/><circle cx="25005" cy="11369" r="590.55"/><circle cx="9650.2" cy="11369" r="590.55"/><circle cx="7008.5" cy="7365.7" r="216.54"/><circle cx="7008.5" cy="5594" r="216.54"/><circle cx="7047.9" cy="4196.4" r="633.07"/><circle cx="7047.9" cy="8763.3" r="633.07"/><circle cx="7992.8" cy="7857.8" r="370"/><circle cx="7992.8" cy="6923.5" r="370"/><circle cx="7992.8" cy="6036.1" r="370"/><circle cx="7992.8" cy="5101.9" r="370"/><circle cx="9600.4" cy="8367.8" r="370"/><circle cx="12600" cy="8367.8" r="370"/><circle cx="9561.5" cy="4682" r="370"/><circle cx="12562" cy="4682" r="370"/><circle cx="15210" cy="3633.9" r="330"/><circle cx="14210" cy="3633.9" r="330"/><circle cx="13107" cy="6050.5" r="370"/><circle cx="9106.9" cy="6050.5" r="370"/><circle cx="13132" cy="7217.8" r="370"/><circle cx="9131.5" cy="7217.8" r="370"/><circle cx="9131.5" cy="9533.9" r="370"/><circle cx="13132" cy="9533.9" r="370"/><circle cx="16260" cy="10334" r="330"/><circle cx="16260" cy="11334" r="330"/><circle cx="15526" cy="8717.8" r="370"/><circle cx="15526" cy="4717.8" r="370"/><circle cx="12628" cy="3563.3" r="370"/><circle cx="9628.2" cy="3563.3" r="370"/><circle cx="14280" cy="8717.8" r="370"/><circle cx="14280" cy="4717.8" r="370"/><circle cx="23948" cy="2921.8" r="370"/><circle cx="23948" cy="3921.8" r="370"/><circle cx="23948" cy="4921.8" r="370"/><circle cx="23948" cy="5921.8" r="370"/><circle cx="23948" cy="6921.8" r="370"/><circle cx="23948" cy="7921.8" r="370"/><circle cx="23948" cy="8921.8" r="370"/><circle cx="23948" cy="9921.8" r="370"/><circle cx="14079" cy="1345" r="370"/><circle cx="15079" cy="1345" r="370"/><circle cx="16079" cy="1345" r="370"/></g><g fill="none" fill-opacity="0" stroke="#e6e6e6" stroke-linecap="round" stroke-linejoin="round" stroke-width="600"><path d="M132.1 125.492h-1.523M125.598 125.492h-1.524M132.1 120.971h-1.523M125.598 120.971h-1.524" stroke-width="1.524"/></g><g fill="none" fill-opacity="0" stroke="#e6e6e6" stroke-linecap="round" stroke-linejoin="round" stroke-width="598.42"><path d="M103.45 123.085v-1.481M108.53 123.085v-1.481M105.99 123.085v-1.481" stroke-width="1.5199868"/></g><g fill="none" fill-opacity="0" stroke="#e6e6e6" stroke-linecap="round" stroke-linejoin="round" stroke-width="629.92"><path d="M131.643 137.311v.8M124.023 129.691v.8M129.103 137.311v.8M126.563 129.691v.8M126.563 137.311v.8M129.103 129.691v.8M124.023 137.311v.8" stroke-width="1.5999968"/></g><path d="M130.843 128.89h1.6v2.401h-1.6z" fill-rule="evenodd" fill="#848400" stroke-width="0"/><circle cx="17260" cy="4418.2" r="314.96" transform="translate(75.611 117.56) scale(.00254)" fill="#848400" stroke-linecap="round" stroke-linejoin="round" stroke-width="0"/><path d="M118.651 125.48h1.6v1.6h-1.6z" fill-rule="evenodd" fill="#848400" stroke-width="0"/><g fill="none" fill-opacity="0" stroke="#fff" stroke-linecap="round" stroke-linejoin="round" stroke-width="200"><path d="M126.868 120.971h4.47M124.836 120.971h2.032M124.836 125.492h6.503" stroke-width=".508"/></g><g transform="translate(75.611 117.56) scale(.00254)" fill="#fff" stroke="none" stroke-linecap="round" stroke-linejoin="round" stroke-width="0"><circle cx="14260" cy="10334" r="160"/><circle cx="14260" cy="11334" r="160"/><circle cx="9650.2" cy="1526.1" r="590.55"/></g><circle cx="139.12" cy="121.43" r="1.5" fill="#fff"/><g transform="translate(75.611 117.56) scale(.00254)" fill="#fff" stroke-linecap="round" stroke-linejoin="round" stroke-width="0"><circle cx="25005" cy="11369" r="590.55"/><circle cx="9650.2" cy="11369" r="590.55"/><circle cx="7008.5" cy="7365.7" r="216.54"/><circle cx="7008.5" cy="5594" r="216.54"/><circle cx="7047.9" cy="4196.4" r="433.07"/><circle cx="7047.9" cy="8763.3" r="433.07"/><circle cx="7992.8" cy="7857.8" r="180"/><circle cx="7992.8" cy="6923.5" r="180"/><circle cx="7992.8" cy="6036.1" r="180"/><circle cx="7992.8" cy="5101.9" r="180"/><circle cx="9600.4" cy="8367.8" r="177.16"/><circle cx="12600" cy="8367.8" r="177.16"/><circle cx="9561.5" cy="4682" r="177.16"/><circle cx="12562" cy="4682" r="177.16"/><circle cx="15210" cy="3633.9" r="160"/><circle cx="14210" cy="3633.9" r="160"/><circle cx="13107" cy="6050.5" r="177.16"/><circle cx="9106.9" cy="6050.5" r="177.16"/><circle cx="13132" cy="7217.8" r="177.16"/><circle cx="9131.5" cy="7217.8" r="177.16"/><circle cx="9131.5" cy="9533.9" r="177.16"/><circle cx="13132" cy="9533.9" r="177.16"/><circle cx="16260" cy="10334" r="160"/><circle cx="16260" cy="11334" r="160"/><circle cx="15526" cy="8717.8" r="177.16"/><circle cx="15526" cy="4717.8" r="177.16"/><circle cx="12628" cy="3563.3" r="177.16"/><circle cx="9628.2" cy="3563.3" r="177.16"/><circle cx="14280" cy="8717.8" r="177.16"/><circle cx="14280" cy="4717.8" r="177.16"/><circle cx="23948" cy="2921.8" r="200"/><circle cx="23948" cy="3921.8" r="200"/><circle cx="23948" cy="4921.8" r="200"/><circle cx="23948" cy="5921.8" r="200"/><circle cx="23948" cy="6921.8" r="200"/><circle cx="23948" cy="7921.8" r="200"/><circle cx="23948" cy="8921.8" r="200"/><circle cx="23948" cy="9921.8" r="200"/><circle cx="14079" cy="1345" r="200"/><circle cx="15079" cy="1345" r="200"/><circle cx="16079" cy="1345" r="200"/><circle cx="21940" cy="3123.9" r="200"/><circle cx="19380" cy="3123.9" r="200"/></g><circle cx="131.34" cy="120.97" r=".508" fill="#fff"/><g transform="translate(75.611 117.56) scale(.00254)" fill="#fff" stroke="none" stroke-linecap="round" stroke-linejoin="round" stroke-width="0"><circle cx="19380" cy="1343.9" r="200"/><circle cx="10960" cy="1883.9" r="157.48"/><circle cx="12960" cy="1883.9" r="157.48"/><circle cx="11960" cy="1883.9" r="157.48"/><circle cx="22060" cy="7933.9" r="157.48"/><circle cx="19060" cy="4933.9" r="157.48"/><circle cx="21060" cy="7933.9" r="157.48"/><circle cx="20060" cy="4933.9" r="157.48"/><circle cx="20060" cy="7933.9" r="157.48"/><circle cx="21060" cy="4933.9" r="157.48"/><circle cx="19060" cy="7933.9" r="157.48"/><circle cx="22060" cy="4933.9" r="157.48"/><circle cx="17260" cy="4418.2" r="157.48"/><circle cx="17260" cy="3433.9" r="157.48"/></g><path d="M139.39 132.21v.8M139.51 140.63h-.686M91.341 142.61v-1M91.341 141.99l.094-.048h.19l.097.048.046.048.048.094v.287l-.048.094-.046.049-.097.048h-.19l-.094-.048M92.149 141.94l.239.668M92.627 141.94l-.239.668-.094.236-.048.049-.097.048M91.674 143.74h-.333M91.341 144.26v-1h.475M92.627 144.26v-.523l-.048-.097-.094-.045h-.19l-.097.045" stroke="#fff" stroke-linecap="round" stroke-linejoin="round" stroke-width=".152" fill="none"/><path d="M92.627 144.22l-.097.048h-.236l-.096-.048-.049-.094v-.097l.049-.093.096-.049h.236l.097-.048M92.484 143.22l-.145.142M93.102 144.26v-1M93.102 143.64l.097-.046h.19l.094.046.048.048.049.097v.284l-.049.097-.048.045-.094.049h-.19l-.097-.049M94.006 144.26v-.665M94.006 143.26l-.046.048.046.049.048-.049-.048-.048v.097M94.626 144.26l-.094-.048-.048-.046-.048-.097v-.284l.048-.096.048-.049.094-.045h.142l.097.045.048.049.046.096v.284l-.046.097-.048.046-.097.048h-.142M96.101 144.22l.145.048h.236l.097-.048.048-.046.046-.096v-.094l-.046-.097-.048-.048-.097-.046-.19-.048-.094-.048-.049-.049-.048-.094v-.096l.048-.094.049-.048.094-.049h.238l.142.049M97.244 144.26l-.094-.048-.048-.046-.049-.097v-.284l.049-.096.048-.049.094-.045h.145l.094.045.048.049.048.096v.284l-.048.097-.048.046-.094.048h-.145M98.436 143.6v.665M98.006 143.6v.523l.048.094.094.049h.145l.094-.049.048-.045M98.817 143.6h.523l-.523.665h.523M100.15 144.26v-.523l-.048-.097-.094-.045h-.19l-.097.045" stroke="#fff" stroke-linecap="round" stroke-linejoin="round" stroke-width=".152" fill="none"/><path d="M100.15 144.22l-.097.048h-.236l-.096-.048-.049-.094v-.097l.049-.093.096-.049h.237l.096-.048" stroke="#fff" stroke-linecap="round" stroke-linejoin="round" stroke-width=".152" fill="none"/><g fill="none" fill-opacity="0" stroke="#fff" stroke-linecap="round" stroke-linejoin="round" stroke-width="78.74"><path d="M134.445 146.092h-.254M134.445 143.806h-.254M134.445 146.092v-2.286M131.143 143.806h3.048M131.143 146.092h3.048M131.143 143.806v2.286" stroke-width=".1999996"/></g><g fill="none" fill-opacity="0" stroke="#fff" stroke-linecap="round" stroke-linejoin="round" stroke-width="118.11"><path d="M131.659 145.607v-1.2h.287l.17.057.114.114.059.114.055.229v.173l-.055.228-.059.114-.114.115-.17.056h-.287M132.86 145.607v-1.2M133.66 145.035v.572M133.259 144.408l.401.627.399-.627" stroke-width=".2999994"/></g><g fill="none" fill-opacity="0" stroke="#fff" stroke-linecap="round" stroke-linejoin="round" stroke-width="72"><path d="M91.643 125.023l-.038.038-.114.038h-.076l-.114-.038-.077-.077-.038-.076-.038-.152v-.114l.038-.153.038-.076.077-.076.114-.038h.076l.114.038.038.038M92.444 125.023l-.039.038-.114.038h-.076l-.114-.038-.077-.077-.038-.076-.038-.152v-.114l.038-.153.038-.076.077-.076.114-.038h.076l.114.038.039.038M93.663 124.68l.112.038.038.038.038.076v.114l-.038.077-.038.038-.074.038h-.305v-.8h.267l.076.038.036.038.038.076v.076l-.038.076-.036.039-.076.038h-.267M94.346 124.718v.38M94.08 124.299l.266.419.267-.42M94.88 124.794h.609M95.832 125.06l.114.039h.19l.077-.038.038-.038.038-.077v-.076l-.038-.076-.038-.038-.076-.038-.153-.038-.076-.038-.038-.039-.038-.076v-.076l.038-.076.038-.038.076-.038h.19l.115.038M96.594 124.87h.38M96.518 125.099l.266-.8.267.8M98.27 124.565v.534M98.08 124.26l-.19.572h.495M98.69 125.023l.038.038-.039.038-.038-.038.038-.038v.076M99.223 124.299h.076l.076.038.038.038.038.076.039.152v.19l-.039.153-.038.077-.038.038-.076.038h-.076l-.076-.038-.038-.038-.039-.077-.038-.152v-.19l.038-.153.039-.076.038-.038.076-.038" stroke-width=".18288000000000001"/></g><path d="M138.05 127.12l.335.998.333-.998M139.62 128.03l-.048.048-.143.046h-.094l-.144-.046-.094-.096-.049-.094-.048-.19v-.145l.048-.191.049-.094.094-.096.144-.046h.094l.143.046.048.048M139.45 129.27h-.572l-.055.572.055-.059.115-.056h.287l.114.056.056.059.058.114v.284l-.058.115-.056.058-.114.056h-.287l-.115-.056-.055-.058M139.11 131.75l-.284.859h.741M138.76 134.35h.744l-.401.457h.173l.114.056.056.059.058.114v.284l-.058.115-.056.058-.114.056h-.343l-.115-.056-.058-.058M138.82 137l.056-.058.114-.056h.287l.115.056.055.058.059.114v.115l-.059.17-.685.686h.744M139.16 140.63v-1.199l-.114.17-.115.115-.114.058M140.63 128.03l-.048.048-.143.046h-.096l-.142-.046-.094-.096-.049-.094-.048-.19v-.145l.048-.191.049-.094.094-.096.142-.046h.096l.143.046.048.048M139.11 142.29h.114l.115.056.058.058.056.115.058.228v.285l-.058.228-.056.115-.058.058-.115.056h-.114l-.114-.056-.056-.058-.059-.115-.055-.228v-.285l.055-.228.059-.115.056-.058.114-.056M92.086 146.06l.335 1 .333-1M93.038 146.15l.048-.046.097-.048h.236l.097.048.048.046.046.097v.093l-.046.145-.572.572h.617M94.61 147.06l-.333-.478M94.039 147.06v-1h.381l.094.048.048.045.049.097v.142l-.049.096-.048.046-.094.048h-.381M94.895 146.06l.335 1 .333-1M116.93 147.7l.229.8.228-.571.229.571.228-.8M118.18 147.7l.229.8.228-.571.229.571.228-.8M119.44 147.7l.229.8.228-.571.229.571.228-.8M120.81 148.39l.058.058-.058.056-.056-.056.056-.058v.114M121.21 147.7h.457M121.38 148.5v-1.029l.058-.114.115-.056h.114M122.07 148.5v-.8M122.07 147.93l.058-.114.056-.056.115-.059h.114M123.33 148.5v-.627l-.056-.115-.114-.058h-.229l-.114.058" stroke="#fff" stroke-linecap="round" stroke-linejoin="round" stroke-width=".152" fill="none"/><path d="M123.33 148.45l-.114.056h-.285l-.114-.056-.058-.114v-.115l.058-.114.114-.058h.285l.114-.056M123.9 147.7v.8M123.9 147.82l.056-.056.114-.058h.173l.114.058.056.114v.628M124.87 147.7h.63l-.63.8h.63M125.96 148.5v-.8M125.96 147.3l-.058.056.058.058.056-.058-.056-.056v.114M126.53 147.7v.8M126.53 147.82l.056-.056.114-.058h.173l.114.058.056.114v.628M127.61 148.5v-.8M127.61 147.3l-.056.056.056.058.058-.058-.058-.056v.114M128.18 147.7v.8M128.18 147.82l.058-.056.115-.058h.17l.114.058.059.114v.628M129.27 148.5v-1.199M129.78 148.5v-.627l-.056-.115-.114-.058h-.173l-.114.058-.056.056M130.53 148.5l-.114-.056-.059-.058-.056-.115v-.342l.056-.115.059-.056.114-.058h.17l.114.058.059.056.056.115v.342l-.056.115-.059.058-.114.056h-.17M131.44 148.39l.056.058-.056.056-.058-.056.058-.058v.114M132.53 148.45l-.114.056h-.229l-.114-.056-.056-.058-.058-.115v-.343l.058-.114.056-.056.114-.058h.229l.114.058M133.21 148.5l-.114-.056-.056-.058-.059-.115v-.342l.059-.115.056-.056.114-.058h.173l.114.058.056.056.058.115v.342l-.058.115-.056.058-.114.056h-.173M134.13 148.5v-.8M134.13 147.82l.056-.056.114-.058h.173l.114.058.056.114v.628" stroke="#fff" stroke-linecap="round" stroke-linejoin="round" stroke-width=".152" fill="none"/><path d="M134.64 147.88l.058-.114.115-.059h.17l.114.059.059.114v.627M135.73 148.39l.056.058-.056.056-.058-.056.058-.058v.114M136.3 148.5v-1.199M136.3 147.76l.114-.058h.229l.114.058.056.056.059.114v.343l-.059.114-.056.059-.114.056h-.229l-.114-.056M137.38 148.5v-.8M137.38 147.93l.058-.114.056-.056.115-.059h.114M116.09 125.33l1-.333-1-.335M116.99 123.76l.048.048.049.143v.096l-.049.142-.094.094-.096.049-.19.048h-.143l-.19-.048-.097-.049-.094-.094-.048-.142v-.096l.048-.143.048-.048M116.99 122.76l.048.048.049.143v.096l-.049.142-.094.097-.096.045-.19.049h-.143l-.19-.049-.097-.045-.094-.097-.048-.142v-.096l.048-.143.048-.048M110.78 124.69l1-.333-1-.335M111.78 123.69h-1M111.78 123.21h-1l1-.572h-1" stroke="#fff" stroke-linecap="round" stroke-linejoin="round" stroke-width=".152" fill="none"/><g fill="none" fill-opacity="0" stroke="#fff" stroke-linecap="round" stroke-linejoin="round" stroke-width="50"><path d="M110.51 147.311h-.787M110.104 147.667v-.737" stroke-width=".127"/></g><g fill="none" fill-opacity="0" stroke="#fff" stroke-linecap="round" stroke-linejoin="round" stroke-width="100"><path d="M112.84 146.841a2.032 2.032 0 0 0 1.023-1.764" stroke-width=".254"/><path d="M113.863 145.078a2.032 2.032 0 0 0-.719-1.55M109.8 145.078a2.032 2.032 0 0 0 1.075 1.793M110.53 143.516a2.032 2.032 0 0 0-.73 1.561" stroke-width=".254"/></g><g fill="none" fill-opacity="0" stroke="#fff" stroke-linecap="round" stroke-linejoin="round" stroke-width="60"><path d="M112.769 146.282a1.524 1.524 0 0 0 .588-1.203M113.355 145.078a1.524 1.524 0 0 0-.588-1.203M110.307 145.078a1.524 1.524 0 0 0 .61 1.22M110.947 143.839a1.524 1.524 0 0 0-.638 1.24" stroke-width=".1524"/></g><g fill="none" fill-opacity="0" stroke="#fff" stroke-linecap="round" stroke-linejoin="round" stroke-width="80"><path d="M94.511 138.017v-7.998M90.51 140.019h1.001M90.51 128.017h1.001M90.51 128.017v12.002M101.9 139.447v-1.27M106.345 138.812h.254M101.265 138.812h-.254M106.345 138.812v.762M106.345 138.05v.762M101.265 138.05h5.08M101.265 138.812v-.762M101.265 139.574v-.762M106.345 139.574h-5.08M101.8 130.087v-1.27M106.246 129.452h.254M101.166 129.452h-.254M106.246 129.452v.762M106.246 128.69v.762M101.166 128.69h5.08M101.166 129.452v-.762M101.166 130.214v-.762M106.246 130.214h-5.08" stroke-width=".20320000000000002"/></g><path d="M112.72 126.788h-.127" fill="none" fill-opacity="0" stroke="#000" stroke-linecap="round" stroke-linejoin="round" stroke-width=".1524"/><g fill="none" fill-opacity="0" stroke="#fff" stroke-linecap="round" stroke-linejoin="round" stroke-width="100"><path d="M112.72 126.788v.762M112.72 126.026v.762M113.228 126.788v.762M113.228 126.788v-.762" stroke-width=".254"/></g><g fill="none" fill-opacity="0" stroke="#fff" stroke-linecap="round" stroke-linejoin="round" stroke-width="60"><path d="M113.355 126.788h-.127M110.561 127.806a.254.254 0 0 0 .254.254M115.133 128.06a.254.254 0 0 0 .254-.254M110.815 125.52a.254.254 0 0 0-.254.254M115.387 125.774a.254.254 0 0 0-.254-.254M110.561 125.772v2.032M115.387 125.772v2.032M115.133 128.058h-4.318M110.815 125.518h4.318" stroke-width=".1524"/></g><g fill="none" fill-opacity="0" stroke="#fff" stroke-linecap="round" stroke-linejoin="round" stroke-width="80"><path d="M106.972 134.126h-6.301M106.972 131.728v2.398M100.67 131.728h6.302M100.67 134.126v-2.398M107.033 137.093h-6.299M107.033 134.692v2.4M100.734 134.692h6.3M100.734 137.093v-2.4M100.734 140.575h6.3M100.734 142.975v-2.4M107.033 142.975h-6.299M107.033 140.575v2.4" stroke-width=".20320000000000002"/></g><g fill="none" fill-opacity="0" stroke="#fff" stroke-linecap="round" stroke-linejoin="round" stroke-width="50"><path d="M115.59 147.311h-.787M115.184 147.667v-.737" stroke-width=".127"/></g><g fill="none" fill-opacity="0" stroke="#fff" stroke-linecap="round" stroke-linejoin="round" stroke-width="100"><path d="M117.92 146.841a2.032 2.032 0 0 0 1.023-1.764" stroke-width=".254"/><path d="M118.943 145.078a2.032 2.032 0 0 0-.719-1.55M114.88 145.078a2.032 2.032 0 0 0 1.075 1.793M115.61 143.516a2.032 2.032 0 0 0-.73 1.561" stroke-width=".254"/></g><g fill="none" fill-opacity="0" stroke="#fff" stroke-linecap="round" stroke-linejoin="round" stroke-width="60"><path d="M117.849 146.282a1.524 1.524 0 0 0 .588-1.203M118.435 145.078a1.524 1.524 0 0 0-.588-1.203M115.387 145.078a1.524 1.524 0 0 0 .61 1.22M116.027 143.839a1.524 1.524 0 0 0-.638 1.24" stroke-width=".1524"/></g><path d="M113.85 137.77v-6.3M116.25 137.77h-2.4M116.25 131.47v6.3M113.85 131.47h2.4M105.78 125.97v1.27M101.34 126.61h-.254M106.42 126.61h.254M101.34 126.61v-.762M101.34 127.37v-.762M106.42 127.37h-5.08M106.42 126.61v.762M106.42 125.85v.762M101.34 125.85h5.08M110.68 137.77v-6.3M113.08 137.77h-2.4M113.08 131.47v6.3M110.68 131.47h2.4" stroke="#fff" stroke-linecap="round" stroke-linejoin="round" stroke-width=".203" fill="none"/><g fill-opacity="0" stroke="#fff" stroke-linecap="round" stroke-linejoin="round" stroke-width="80" fill="none"><path d="M137.709 124.344v1.27M137.074 126.25l.635-.636M135.169 125.614l.635.635M137.074 123.71l.635.634M135.804 123.71h1.27M135.169 124.344l.635-.635M135.169 125.614v-1.27M137.709 142.124v1.27M137.074 144.03l.635-.636M135.169 143.394l.635.635M135.804 144.03h1.27M137.709 140.854l-.635.635M137.709 139.584v1.27M137.074 138.95l.635.634M135.169 139.584l.635-.635M135.169 140.854v-1.27M135.804 141.49l-.635-.636M137.074 141.49l.635.634M135.169 142.124l.635-.635M135.169 143.394v-1.27M137.709 134.504v1.27M137.074 136.41l.635-.636M135.169 135.774l.635.635M137.709 138.314l-.635.635M137.709 137.044v1.27M137.074 136.41l.635.634M135.169 137.044l.635-.635M135.169 138.314v-1.27M135.804 138.95l-.635-.636M137.709 133.234l-.635.635M137.709 131.964v1.27M137.074 131.33l.635.634M135.169 131.964l.635-.635M135.169 133.234v-1.27M135.804 133.87l-.635-.636M137.074 133.87l.635.634M135.169 134.504l.635-.635M135.169 135.774v-1.27M137.709 126.884v1.27M137.074 128.79l.635-.636M135.169 128.154l.635.635M137.709 130.694l-.635.635M137.709 129.424v1.27M137.074 128.79l.635.634M135.169 129.424l.635-.635M135.169 130.694v-1.27M135.804 131.33l-.635-.636M137.074 126.25l.635.634M135.169 126.884l.635-.635M135.169 128.154v-1.27" stroke-width=".20320000000000002"/></g><path d="M95.725 123.552l.252-.132.63.513.429-.432-.51-.627.215-.524.808-.083v-.61l-.808-.081-.086-.272-.13-.252.51-.63-.428-.429-.63.513-.252-.132-.272-.086-.08-.805h-.61l-.082.805-.271.086-.254.132-.628-.513-.432.43.513.63-.215.523-.808.081v.61l.808.083.215.524-.513.627.432.432.628-.513.124.07.13.062.358-.866-.196-.12-.155-.17-.099-.206-.033-.228.023-.186.066-.175.107-.152.137-.127.165-.087.183-.048h.185l.183.04.168.087.142.122.11.15.068.175.025.186-.018.185-.06.175-.105.158-.297.22z" fill-rule="evenodd" fill="#fff" stroke-width="0"/><g transform="translate(75.611 117.56) scale(.00254)" fill="none" fill-opacity="0" stroke="#fff" stroke-linecap="round" stroke-linejoin="round" stroke-width="80"><path d="M13579 1595v-500M15829 845h500M16579 1095l-250-250M16329 1845l250-250M16579 1595v-500M15329 845l250 250M14829 845h500M14579 1095l250-250M14829 1845l-250-250M15329 1845h-500M15579 1595l-250 250M15579 1095l250-250M15829 1845l-250-250M16329 1845h-500M14329 845l250 250M13829 845h500M13579 1095l250-250M13829 1845l-250-250M14329 1845h-500M14579 1595l-250 250M19810 3433h1700M21510 1033h-1700M19460 2626v-793M21860 2638v-805"/><circle cx="20660" cy="2233.9" r="700"/></g><g fill="none" fill-opacity="0" stroke="#fff" stroke-linecap="round" stroke-linejoin="round" stroke-width="47.244"><path d="M107.79 124.195a2.581 2.581 0 0 0 .33-.39M108.13 120.869a2.6 2.6 0 0 0-2.14-1.124M105.99 119.745a2.6 2.6 0 0 0-2.14 1.124M103.871 123.818a2.581 2.581 0 0 0 .32.377M104.189 124.194h3.599M133.033 139.15v-10.498M122.634 139.15h10.399M122.634 128.652v10.498M133.033 128.652h-10.399M132.972 136.15v-1.25M122.692 136.15h10.28M122.692 131.652v4.498M132.972 131.652h-10.28M132.972 132.902v-1.25M132.974 132.902a1 1 0 0 0 0 2" stroke-width=".11999976000000001"/></g><g fill="#fff" fill-rule="evenodd" stroke="#000" stroke-linecap="round" stroke-linejoin="round" stroke-width="3.937"><path d="M120.754 142.16l.092.063.04.094-.022.112-.028.05-.066.057-.1.023h-.167v-.424h.114zM122.238 142.312l.035.064.046.117.005.01.04.124.031.097.013.05v.003l-.033.015-.081.01-.064.003-.099-.002-.063-.006-.013-.005.01-.035.064-.19.038-.112.033-.094.017-.049zM134.077 142.183l.089.053.043.043.053.059.03.058.016.076.005.115v.223l-.01.092-.02.06-.041.051-.043.041-.135.081-.147.023-.143-.035-.038-.023-.094-.102-.06-.15-.026-.172v-.013l.023-.196.074-.15.114-.101.152-.043.043-.003z" stroke-width=".00999998"/><path d="M134.585 141.67l.106.086.094.107.01.018.031.05.02.051.016.064.007.086.005.124.003.17v.47l-.003.17-.005.125-.007.089-.016.066-.02.05-.028.05-.002.002-.084.106-.11.092-.017.013-.13.08-7.566.006-.87.002h-1.602l-.734-.002h-1.318l-.582-.003-.528-.002h-.473l-.414-.003-.355-.002-.292-.003-.229-.005-.163-.002-.096-.003-.028-.003-.132-.07-.127-.115-.038-.056h12.6l.372-.02.01-.31.01-.307h.632v.635h.389v-.795h.239l.02.215.069.199.117.167.06.059.201.117.221.055.231-.005.224-.07.025-.011.165-.122.13-.17.081-.203.036-.221-.016-.224-.07-.216-.008-.015-.127-.178-.168-.132-.198-.079-.216-.022-.218.035-.196.09-.157.136-.112.175-.071.204-.023.216h-.239v-.828h-.389v.635h-.632l-.01-.31-.01-.308-.371-.02v1.628h-12.601l-.061-.086-.04-.1-.016-.1-.01-.16-.003-.21v-.243l.008-.216.005-.157.01-.115.013-.081.02-.06.03-.054.008-.016.023-.027h.02v1.623h.39v-.635h.527v-.318h-.528v-.353h.564v-.317h.246v1.623h.389v-.605l.096.01.054.018.053.043.064.081.083.133.018.03.178.29.808-.018.053-.17.05-.168.285.01.282.01.097.336h.213l.12-.005.06-.01.016-.026-.018-.053-.038-.104-.053-.148-.066-.185-.074-.211-.043-.12-.272-.761h.75v1.623h.352l.003-1.113.36.556.361.554h.203l.204.003v-.074h.177l.016.046.005.005.04.007.102.005.147.006.183.002.198.003h.648v-.318h-.389l-.155-.002-.127-.003-.08-.008-.026-.005.02-.033.056-.081.084-.12.104-.147.122-.167.002-.003.153-.216.112-.165.076-.124.038-.084.01-.046v-.101h.21v1.623h.39v-1.623h.317v1.623h.389v-1.077l.353.538.355.539h.384v-1.623h.353v1.623h.388v-1.623h.318v1.623h.389v-1.077l.7 1.077h.392v-1.623h-.35l-.011.53-.01.534-.346-.534-.348-.53h-1.828v1.077l-.709-1.077h-2.606v.315l.744.02-.406.543-.16.216-.117.168-.076.13-.043.09-.01.067h-.178v-1.55h-.389l-.003.521v.521l-.34-.52-.343-.521h-1.38l-.129.005-.073.012-.036.03-.007.014-.018.053-.04.104-.054.15-.066.183-.074.2-.002.008-.074.203-.069.186-.056.155-.043.114-.02.058-.018.036-.023.005-.035-.033-.056-.079-.071-.109-.09-.127-.08-.114-.066-.08-.067-.065v-.026l.046-.017.071-.04.08-.075.012-.015.06-.094.026-.109.003-.079-.016-.152-.05-.12-.092-.083-.14-.056-.193-.033-.256-.01h-1.636l.064-.08.106-.093.018-.01.132-.082h15.24zM119.33 135.767l.058.01.063.018.127.045.054.028.04.023.018.013.01.005.013.005.02.015.028.023.03.028.034.03.03.034.03.03.026.028.018.02.002.008.016.02.012.018.016.02.017.03.02.041.021.044.02.045.016.041.01.028.015.056.013.053.005.051.005.056v.066l-.003.04-.002.067-.005.055-.008.046-.008.03-.01.021-.007-.003-.018-.012-.023-.02-.053-.054-.04-.038-.042-.036-.035-.03-.03-.028-.029-.025-.022-.018-.013-.013v-.002l-.015-.01-.02-.018-.016-.01-.025-.02-.033-.026-.028-.023-.038-.028-.049-.033-.055-.038-.059-.038-.06-.038-.057-.036-.05-.028-.039-.023-.025-.012-.018-.01-.107-.054-.04-.018-.038-.02-.036-.015-.03-.015-.008-.003-.053-.023-.069-.028-.076-.028-.064-.023-.043-.012-.035-.013-.028-.013-.018-.005-.008-.002.003-.008.015-.015.023-.02.028-.02.036-.026.07-.046.029-.015.111-.051.117-.036.122-.02.125-.002zM118.387 136.216l.018.005.02.01.023.008.026.008.033.007.083.028.044.016.038.012.025.01.018.008.025.01.03.013h.003l.023.01.033.013.04.018.044.02.04.02.039.018.033.015.03.015.02.013.031.018.033.018.028.017.018.008.025.013.023.015.002.003.016.007.023.015.03.023.038.026.03.017.097.07.084.063.079.06.05.044.028.025.026.023.02.018.008.005.018.015.14.14.022.028.02.017.01.013v.003l-.004.01-.013.02-.02.028-.023.028-.023.03-.026.026-.007.01-.036.036-.043.035-.04.036-.041.028-.018.01-.069.04-.078.034-.077.028-.073.02-.018.002-.033.005-.043.006-.048.002-.046.003-.043.002h-.033l-.041-.005-.028-.002-.033-.006h-.008l-.038-.007-.045-.01-.041-.013-.005-.003-.033-.012-.076-.03-.033-.016-.026-.015-.01-.005-.013-.01-.017-.013-.008-.005-.025-.015-.028-.018-.003-.003-.018-.015-.025-.02-.086-.087-.023-.025-.018-.018-.003-.005-.033-.048-.022-.038-.02-.03-.019-.031-.02-.04-.008-.021-.005-.01v-.003l-.002-.01-.008-.018-.005-.01-.018-.053-.01-.041-.007-.036-.018-.119-.003-.12.013-.119.03-.12.044-.113.017-.039.016-.025.01-.013.007-.005z" stroke-width=".00999998"/><path d="M121.666 138.266h-4.93v-1.572h.442l.02.018.016.012.025.02.028.02.013.011.03.02.028.023.03.02.018.013.056.04.01.009.033.022.039.03.04.029.015.013.03.02.024.018.018.01.015.007.007.008.018.015.026.018.03.023.033.023.015.012.016.01.025.018.03.023.036.026.01.007.046.033.096.071.041.028.028.023.028.02.03.02.033.026.039.028.045.033.054.038.066.049.028.022.028.018.02.015.002.003.018.013.026.017.027.02.006.003.025.018.023.018.015.01v.003l.013.01.023.015.017.013.028.017.038.031.018.01.026.02.033.023.033.026.007.005.04.03.146.107.012.008.036.025.033.023.025.018.018.01.005.002.013-.002.018-.013.005-.002.018-.013.025-.018.06-.046.037-.025.033-.023.027-.023.018-.012.013-.01.015-.01.02-.016.026-.018.033-.023.091-.068.054-.036.025-.02.03-.023.013-.008.051-.038.036-.025.03-.02.104-.077.094-.068.082-.059.07-.05.057-.044.048-.033.033-.025.025-.018.013-.01.02-.015.028-.02.03-.023.013-.008.033-.025.038-.028.044-.03.028-.021.035-.028.038-.026.036-.025.023-.015.028-.02.025-.018.02-.015.036-.028.043-.03.05-.039.042-.028.03-.023.033-.023.036-.025.03-.023.038-.03.02-.018-.02-.015-.015-.013-.028-.018-.033-.025-.036-.028-.038-.028-.038-.026-.03-.022-.016-.01-.025-.018-.018-.013-.025-.02-.018-.013-.02-.013-.026-.02-.03-.02-.03-.023-.023-.018-.013-.008-.01-.01-.023-.015-.028-.02-.015-.013-.03-.023-.029-.018-.023-.015-.007-.008-.015-.01-.026-.018-.028-.022-.018-.013-.03-.02-.025-.018-.02-.015-.008-.006-.013-.01-.023-.015-.028-.02-.005-.005-.03-.023-.026-.018-.02-.015-.003-.003-.045-.03-.033-.026-.023-.015-.016-.013-.01-.005v-.002l-.015-.01-.02-.016-.018-.012-.013-.008-.012-.01-.018-.015-.028-.018-.026-.02-.025-.018-.003-.003-.027-.018-.036-.027-.086-.061-.026-.02-.028-.021-.038-.028-.04-.028-.036-.028-.038-.025-.04-.03-.034-.026-.028-.018-.07-.053-.062-.043-.048-.036-.036-.028-.028-.018-.007-.005-.033-.023-.036.023-.02.013-.028.02-.033.026-.025.02-.033.023-.028.02-.023.015-.01.008-.013.008-.02.017-.03.02-.036.029-.041.028-.003.002-.076.056-.033.023-.023.018-.012.01-.018.01-.026.02-.028.02-.015.01-.028.021-.038.028-.04.03-.046.031-.026.02-.04.03-.043.031-.041.028-.033.026-.015.01-.056.04-.023.016-.005.005-.018.012-.025.018-.03.023-.014.01-.03.023-.028.02-.03.02-.018.016-.028.02-.03.02-.013.01-.03.024-.026.017-.026.02-.03.021-.036.025-.033.023-.033.026-.04.028-.033.025-.028.02-.026.02-.02.013-.003.003-.017.013-.013.007-.003.003-.007.005-.02.015-.026.02-.033.023-.056.04-.048.036-.043.03-.033.024-.02.018-.006.002-.015.013h-.442v-1.57h4.93z" stroke-width=".00999998"/></g><g fill="none" fill-opacity="0" stroke="#fff" stroke-linecap="round" stroke-linejoin="round" stroke-width="47.244"><path d="M120.102 124.682h-1.3M119.451 124.08v1.202M119.804 130.092h-.708M120.01 130.052h-1.117M120.158 130.011h-1.415M120.28 129.973h-1.66M120.386 129.932h-1.87M120.48 129.892h-2.057M120.564 129.851h-2.225M120.64 129.813h-2.377M120.711 129.772h-2.522M118.471 129.732h-.348M120.777 129.732h-.345M118.471 129.691h-.409M120.84 129.691h-.408M118.471 129.653h-.467M120.9 129.653h-.468M118.471 129.612h-.523M120.955 129.612h-.523M118.471 129.572h-.577M121.006 129.572h-.574M118.471 129.531h-.625M121.057 129.531h-.625M118.471 129.493h-.673M121.105 129.493h-.673M118.471 129.452h-.719M121.15 129.452h-.718M118.471 129.412h-.762M121.194 129.412h-.762M118.471 129.371h-.803M121.234 129.371h-.802M118.471 129.333h-.843M121.275 129.333h-.843M118.471 129.292h-.881M121.313 129.292h-.881M118.471 129.252h-.917M121.349 129.252h-.917M118.471 129.211h-.953M121.382 129.211h-.95M118.471 129.173h-.986M121.415 129.173h-.983M118.471 129.132h-1.016M121.448 129.132h-1.016M118.471 129.092h-1.05M121.478 129.092h-1.046M118.471 129.051h-1.077M121.509 129.051h-1.077M118.471 129.013h-1.105M121.537 129.013h-1.105M118.471 128.972h-1.133M121.565 128.972h-1.133M118.471 128.932h-1.16M121.59 128.932h-1.158M118.471 128.89h-1.186M121.615 128.89h-1.183M118.471 128.853h-1.21M121.64 128.853h-1.208M118.471 128.812h-1.232M121.664 128.812h-1.232M118.471 128.772h-1.255M121.684 128.772h-1.252M118.471 128.73h-1.275M121.707 128.73h-1.275M118.471 128.693h-1.295M121.727 128.693h-1.295M118.471 128.652h-1.316M121.748 128.652h-1.316M118.471 128.612h-1.336M121.765 128.612h-1.333M118.471 128.57h-1.354M121.783 128.57h-1.351M118.471 128.533h-1.37M121.8 128.533h-1.368M118.471 128.492h-1.387M121.816 128.492h-1.384M118.471 128.452h-1.402M121.834 128.452h-1.402M118.471 128.41h-1.415M121.847 128.41h-1.415M118.471 128.373h-1.43M121.862 128.373h-1.43M118.471 128.332h-1.443M121.875 128.332h-1.443M118.471 128.292h-1.455M121.887 128.292h-1.455M118.471 128.25h-1.468M121.9 128.25h-1.468M118.471 128.21h-1.48M121.91 128.21h-1.478M118.471 128.172h-1.491M121.92 128.172h-1.488M118.471 128.131h-1.501M121.93 128.131h-1.498M118.471 128.09h-1.509M121.94 128.09h-1.508M118.471 128.05h-1.519M121.948 128.05h-1.516M118.471 128.012h-1.527M121.956 128.012h-1.524M118.471 127.971h-1.534M121.963 127.971h-1.531M118.471 127.93h-1.54M121.971 127.93h-1.54M118.471 127.89h-1.544M121.976 127.89h-1.544M118.471 127.852h-1.552M121.981 127.852h-1.55M118.471 127.811h-1.555M121.986 127.811h-1.554M121.989 127.77h-5.078M121.994 127.73h-5.085M121.996 127.692h-5.092M121.999 127.651h-5.095M121.999 127.61h-5.098M122.002 127.57h-5.1M122.002 127.532h-5.1M118.273 129.838a2.59 2.59 0 0 0 2.36 0M118.273 125.227a2.59 2.59 0 0 0 0 4.611M120.633 129.838a2.59 2.59 0 0 0 0-4.612" stroke-width=".11999976000000001"/></g><path d="M140.5 124.8l.081.05.064.072.015.028.018.063-.01.059-.018.033-.059.073-.08.059-.087.023h-.008l-.023-.005-.013-.02-.008-.046-.003-.082v-.2l.005-.071.008-.038.015-.016.023-.005z" fill="#fff" fill-rule="evenodd"/><path d="M139.95 124.35h.231l.216.003.2.005.176.003.142.005.11.005.065.008.018.003.046.025.033.036.025.048.018.071.01.102.005.135.003.177v.049l-.003.19-.003.145-.01.11-.015.075-.023.054-.033.038-.04.025-.013.005-.04.008-.087.008-.125.005-.16.005-.185.003-.208.003-.224.003h-.711l-.229-.003-.218-.003-.2-.005-.176-.003-.145-.005-.11-.008-.068-.008-.02-.005-.043-.025-.03-.033-.024-.048-.015-.07-.01-.093-.005-.13-.003-.17v-.003h.363l.038.125.069.099.094.066.035.01.072.013.094.003.099-.003.053-.008h1.166l.234-.003.127-.008.104-.013.066-.018.005-.003.058-.038.056-.053.038-.054.01-.038c-.003-.015.01-.03.013-.04l.025-.046v-.071l-.02-.086-.04-.09-.054-.078-.023-.023-.035-.03-.04-.018-.057-.013-.084-.008-.119-.005-.264-.01v.744h-1.166l.036-.003.06-.015.013-.008.036-.015.013.005.008-.016.008-.053.003-.084v-.22h-.381v.07l.005.049.022.018.059-.005h.003l.058-.003.026.015.005.05v.01l-.003.054-.02.02-.051-.005-.018-.003-.104-.035-.077-.064-.04-.081v-.091l.015-.044.04-.063.041-.043.069-.03.091-.009.09.018.04.023.058.038.03-.003.013-.046.003-.043-.005-.058-.02-.04-.043-.024-.048-.008h.269v.737h.203v-.247l.003-.111.003-.066.008-.028.01.005.01.018.028.053.046.081.056.092.015.022.056.09.04.053.034.028.04.01h.16v-.737h-.178v.328l-.003.06-.008.024-.01-.008-.02-.033v-.003l-.036-.061-.05-.084-.046-.076-.094-.145-.267-.003h-.27l-.03-.005-.104-.005-.16.01-.13.046-.09.084-.057.114-.012.053-.003.137h-.364v-.249l.005-.147.008-.11.016-.075.023-.056.03-.036.043-.028.015-.008.041-.005.084-.008.127-.005.157-.005.186-.003.208-.003.224-.003h.472z" fill="#fff" fill-rule="evenodd"/><path d="M113.66 122.88l.053-.081.069-.061.03-.018.064-.018.056.013.035.015.074.058.056.084.025.084v.008l-.005.023-.02.013-.048.008-.082.003h-.198l-.07-.003-.039-.01-.018-.016-.003-.023z" fill="#fff" fill-rule="evenodd" stroke="#fff" stroke-linecap="round" stroke-linejoin="round" stroke-width=".01"/><path d="M113.2 123.44l.003-.229.003-.218.003-.198.003-.175.005-.145.008-.11.005-.065.005-.018.025-.046.033-.033.049-.025.073-.018.1-.01.134-.005.18-.003h.049l.188.003.144.005.11.008.076.015.056.023.035.033.028.043.005.01.008.043.005.084.005.127.005.158.005.185.003.208v.224l.003.234v.238l-.003.24-.003.23-.003.216-.003.2-.005.176-.005.145-.005.112-.008.068-.005.018-.028.043-.033.03-.048.024-.066.017-.096.008-.13.005-.17.003h-.003v-.363l.124-.035.1-.069.065-.097.013-.035.01-.071.005-.092-.005-.099-.005-.056v-1.166l-.005-.233-.005-.127-.012-.102-.018-.068-.003-.005-.04-.059-.054-.053-.053-.038-.038-.013-.005.003-.028-.005-.008-.008-.044-.028h-.07l-.09.023-.088.038-.08.056-.022.023-.028.036-.02.04-.013.056-.005.084-.005.117-.01.264h.744v1.166l-.005-.033-.013-.061-.008-.015-.015-.036.005-.013-.015-.008-.056-.005-.084-.005h-.218v.381h.07l.047-.003.017-.025-.003-.056v-.005l-.005-.058.018-.026.049-.005h.01l.053.005.02.018-.003.05-.003.021-.038.102-.063.076-.082.04h-.088l-.044-.015-.063-.04-.046-.038-.03-.072-.005-.09.017-.087.023-.04.038-.062-.003-.03-.048-.013-.04-.003-.061.005-.039.02-.022.046-.008.046v-.27h.736v-.203h-.249l-.112-.003-.066-.003-.027-.005.005-.01.02-.013.053-.025.079-.048.091-.056.023-.013.089-.058.053-.039.028-.035.01-.04.003-.052v-.109h-.736v.178h.22l.107.003.061.003.023.005-.01.013-.033.018v0l-.06.035-.087.05-.076.05-.145.09v.537l-.005.033-.008.101.01.163.048.127.082.094.116.056.051.01.137.003v.363h-.248l-.145-.005-.11-.008-.078-.015-.053-.023-.039-.03-.027-.044-.005-.012-.008-.041-.005-.086-.005-.125-.005-.16-.005-.185-.003-.209-.003-.223v-.473z" fill="#fff" fill-rule="evenodd" stroke="#fff" stroke-linecap="round" stroke-linejoin="round" stroke-width=".01"/><path d="M107.61 143.74l.048.038.064.056.068.069.066.07.061.067.046.058.026.04.003.013-.018.023-.043.049-.262.261-.12.117-.127.125-.003.005-.157.15-.13.124-.104.096-.078.074-.061.048-.038.028-.023.01h-.005l-.028.003-.049.033-.068.059-.038.038-.079.074-.069.053-.07.04-.092.041-.04.018-.09.033-.073.03-.051.02-.015.006-.028-.008-.01-.013.003-.03.015-.061.008-.02h.094l.005.01.01-.004.025-.01.054-.023.073-.028.013-.008.097-.043.08-.053.085-.074.023-.025.134-.135-.104-.106-.104-.105-.132.13-.079.086-.058.08-.046.09-.015.036-.036.091-.02.059-.005.03h-.094l.02-.06.03-.08.041-.103.038-.077.041-.063.053-.061.061-.064.069-.07.04-.052.018-.03-.005-.02v-.003l-.008-.008-.003-.01.005-.016.003-.003h.092l.269.27.036.03.01.008.018-.015.043-.04.066-.064.084-.082.099-.099.109-.106.472-.473-.16-.16-.16-.157-.444.444-.442.445h-.092l.01-.018.026-.033.04-.043.057-.061.073-.077.097-.099.122-.122.144-.15.186-.185.106-.104.054-.05h.12l.157.157.157.16.048-.046.033-.036.016-.023v-.003l-.016-.017-.04-.04-.059-.057-.045-.043-.16-.145-.092.092h-.12l.042-.038.076-.074.058-.051.033-.025.005-.003z" fill="#fff" fill-rule="evenodd"/><path d="M106.17 143.69l.04.043.057.069.07.089.08.099.025.033.096.127.071.096.049.074.028.048.004.03-.01.013-.012.003-.02-.015-.039-.045-.058-.066-.069-.084-.079-.1-.003-.002-.076-.1-.07-.083-.057-.071-.038-.046-.018-.018-.02.013-.048.033-.071.053-.087.066-.101.079-.224.173-.112.089-.104.083-.091.074-.076.061-.054.046-.028.028.01.02.036.049.053.066.069.081.04.048.082.094.06.066.044.044.03.023.026.01h.025l.018-.003h.086l.071.033.051.056.028.068.003.074-.023.071-.056.058-.033.02-.081.029-.066-.003-.064-.041-.015-.013-.053-.073-.01-.046h.073l.026.048.046.036.055.013.059-.018.023-.018.033-.053.003-.061-.026-.059-.045-.038-.046-.008-.05.015-.041.026-.036.058v.059h-.074l-.008-.046.018-.082v-.022l-.013-.033-.028-.046-.05-.064-.077-.089-.027-.033-.074-.083-.066-.071-.053-.054-.033-.03-.008-.003-.023.013-.049.033-.066.048-.078.056-.079.06-.074.062-.06.05-.044.036-.013.018.01.02.036.049.056.07.071.092.081.102.041.05.12.145.093.11.074.076.048.043.016.008.04.003.04-.023.044-.04.05-.049.05-.02.063-.005.076.008.05.025.013.015.051.077.013.083-.023.077-.048.063-.074.04-.079.013-.073-.017-.064-.046-.04-.061-.004-.01-.02-.038-.038-.018-.036-.003-.025-.005-.025-.01-.018-.01h.236l.01.053.036.048.05.028.057.005.055-.026.01-.008.024-.045.01-.051-.018-.061-.043-.04-.059-.016-.06.013-.046.04-.026.059h-.236l-.013-.008-.035-.033-.049-.053-.06-.072-.084-.099-.077-.091-.088-.11-.08-.096-.065-.081-.05-.061-.031-.033-.005-.008-.023.005-.044.025-.055.04-.056.044-.051.043-.033.033-.005.013.013.02.038.049.06.076.077.096.094.117.107.132.114.145.081.102.582.718.416-.342v-.074h.09l.027.056.015.012.064.028.058-.015.051-.048.028-.046.003-.033-.02-.038-.046-.046-.061-.02-.061.01-.028.02-.03.056v.064h-.09v-.025l.006-.07.017-.045.039-.04.003-.003.083-.046.084-.008.079.036.03.025.046.074.018.086-.018.081-.015.03-.059.05-.076.027h-.078l-.018-.008-.049-.015-.027-.005-.02.013-.049.033-.061.045-.147.117-.069.053-.053.046-.013.01.005.023.028.043.04.059.051.063.051.061.046.051.033.03.012.004.02-.013.052-.038.073-.054.094-.07.11-.084.121-.094.003-.003.138-.105.104-.08.081-.064.056-.051.038-.036.023-.028.013-.023.003-.023v-.008l-.008-.053-.033-.025-.003-.003-.049-.033-.033-.064-.018-.076h.08l.017.058.018.026.053.033h.064l.055-.028.013-.015.03-.066-.01-.061-.027-.038-.059-.033-.058-.003-.051.025-.033.043-.013.059h-.078l.003-.059.027-.07.056-.047.087-.038.081.005.076.046.008.008.046.05.02.052.003.043-.018.091-.053.071-.058.033-.036.033-.02.066v.003l-.008.026-.01.025-.018.026-.03.033-.046.043-.066.056-.092.07-.117.092-.094.074-.121.094-.11.086-.094.076-.073.061-.049.041-.017.02.012.03.036.05.046.055.048.053.046.041.03.023h.005l.023-.015.05-.036.077-.056.102-.074.116-.088.135-.1.145-.106.15-.112.157-.117.155-.117.152-.114.145-.11.132-.098.12-.092.099-.076.078-.058.054-.043.023-.018-.013-.02-.036-.046-.053-.074-.071-.091-.084-.107-.091-.117-.112-.145-.089-.114-.063-.086-.044-.066-.022-.046-.008-.03.005-.018.015-.005.018.012.038.044.058.068.069.084.078.099.173.218.084.11.079.104.066.089.053.073.033.051.013.023-.018.015-.046.04-.074.06-.096.073-.117.091-.135.102-.144.11-.153.116-.16.122-.162.12-.158.121-.155.115-.145.106-.132.1-.114.083-.096.069-.074.053-.046.03-.015.009-.015-.016-.04-.048-.062-.074-.081-.099-.102-.12-.114-.141-.13-.158-.142-.173-.147-.182-.102-.125-.155-.19-.144-.183-.138-.168-.124-.155-.107-.137-.094-.117-.073-.094-.051-.068-.03-.041-.006-.01.018-.015.046-.041.07-.061.097-.076.115-.094.13-.107.144-.114.152-.122.158-.125.157-.127.16-.124.153-.122.145-.112.132-.104.116-.091.1-.076.076-.056.048-.038.023-.013zM102.18 148.4h-.465v-.15h.465zM110.37 147.91l.1.018.07.035.056.054.04.068.039.11.013.127-.01.127-.036.111-.005.01-.046.072-.053.048-.071.03-.097.016-.13.005h-.111l-.069-.005-.048-.01-.04-.018-.029-.018-.07-.064-.049-.081-.023-.107-.003-.12h.145l.01.123.025.084.046.053.05.02.095.01h.102l.09-.01.057-.015.056-.03.035-.044.02-.063.006-.092.003-.035-.003-.084-.01-.056-.018-.04-.023-.026-.026-.028-.028-.018-.038-.01-.06-.003-.09-.003-.091.003-.063.005-.041.01-.03.018-.018.015-.028.03-.018.037-.008.048-.003.076v.025h-.145v-.025l.008-.097.01-.068.02-.049.018-.033.054-.06.06-.044.077-.025.104-.01.091-.004zM108.97 148.25h.528v-.338h.15v.826h-.15v-.338h-.528v.338h-.147v-.826h.147zM107.94 147.93l.066.058.091.09.1.1.09.092.082.079.064.066.045.043.023.02.003-.02.003-.053.003-.081v-.102l.003-.028v-.287h.127l-.005.409-.003.16-.005.12-.01.08-.02.044-.03.008-.051-.028-.067-.063-.093-.094-.09-.094-.086-.092-.076-.079-.063-.06-.044-.041-.02-.015-.005.02-.005.053-.003.082-.003.101v.315h-.127v-.564l.003-.122.008-.086.018-.046.03-.01zM107.64 148.74h-.147v-.826h.147zM106.58 147.91l.025.015.041.033.053.051.074.076.1.102.007.008.292.302v-.29l.003-.292h.148l-.005.41-.003.157-.005.12-.01.08-.018.046-.033.01-.049-.025-.068-.058-.09-.09-.111-.114-.285-.292v.292l-.003.29h-.147v-.645l.003-.071.005-.049.008-.03.01-.018.016-.01.005-.005.017-.005zM106.33 148.74h-.147v-.826h.147zM105.78 147.91l.102.003.068.005.046.008.025.01.005.005.01.015.006.018-.009.023-.022.036-.038.048-.062.069-.08.094-.052.055-.078.09-.069.076-.053.06-.03.039-.009.012.02.005.054.003.079.003.091.003h.244v.148h-.495l-.11-.005-.07-.008-.039-.01-.003-.003-.023-.036-.003-.015.013-.026.038-.048.058-.069.072-.083.073-.084.252-.28-.506-.012v-.148h.356zM104.42 147.9l.043.04.064.064.081.076.089.092.015.018.297.3v-.29l.003-.292h.148v.502l-.003.112-.003.092-.005.06-.003.026-.018.028-.028.008-.04-.015-.057-.038-.073-.069-.097-.096-.066-.07-.086-.09-.076-.08-.064-.06-.043-.04-.02-.016-.005.02-.008.054-.003.08-.003.103v.315h-.127v-.55l.003-.113.005-.082.01-.053.012-.03.02-.016.016-.003zM104.07 147.92l.05.01.016.008.01.015.01.033.005.056.003.082.003.114v.503h-.147v-.211h-.528v.21h-.15v-.256l.005-.15.003-.033h.142v.08h.528v-.318h-.17l-.14.01-.104.03-.068.051-.038.074-.008.074h-.143l.01-.082.026-.089.04-.068.06-.056.032-.023.04-.025.041-.018.049-.01.066-.005.096-.005.046-.003h.127zM102.88 147.91l.089.003.063.003.044.008.028.01.02.015.018.016.03.033.015.033.005.048-.003.074-.003.017-.005.08-.01.052-.02.038-.04.041-.06.04-.06.031-.013.003-.063.013.091.076.127.112.025.023.064.058h-.107l-.05-.003-.041-.008-.043-.02-.051-.038-.071-.059-.01-.01-.1-.079-.07-.045-.046-.013-.038-.005-.016-.025-.003-.044v-.076h.201l.11-.003.075-.01.046-.02.025-.038.008-.059.003-.03v-.094h-.53v.678h-.148v-.544l.005-.116.005-.08.008-.047.008-.013.028-.01.064-.008.101-.005.14-.003h.028z" fill="#fff" fill-rule="evenodd"/><path d="M102.24 148.06h-.592v.678h-.15v-.386l.003-.157.003-.117.005-.079.01-.048.006-.013.027-.01.064-.008.099-.005.14-.003h.386z" fill="#fff" fill-rule="evenodd"/><g fill="none" fill-opacity="0" stroke="#fff" stroke-linecap="round" stroke-linejoin="round" stroke-width="60"><path d="M110.874 141.21h.228l.115.056.114.114.058.229v.401l-.058.229-.114.114-.115.056h-.228l-.114-.056-.115-.114-.056-.229v-.401l.056-.229.115-.114.114-.056M111.903 142.409v-1.2l.685 1.2v-1.2M102.652 139.323v-.999h.239l.142.046.094.097.048.094.048.19v.145l-.048.19-.048.094-.094.097-.142.046h-.24M103.604 138.418l.049-.048.094-.046h.238l.094.046.049.048.048.097v.094l-.048.142-.572.572h.62M102.855 129.925v-.999h.239l.142.046.094.097.048.094.049.19v.145l-.049.19-.048.094-.094.097-.142.046h-.239M104.379 129.925h-.571M104.092 129.925v-.999l-.094.143-.096.094-.094.048M109.413 128.614l-.048.046-.142.048h-.094l-.145-.048-.094-.094-.048-.097-.048-.19v-.142l.048-.19.048-.095.094-.096.145-.049h.094l.142.049.048.048M110.366 128.708h-.572M110.081 128.708v-1l-.096.144-.094.094-.097.048M103.757 133.336l-.399-.572M103.07 133.336v-1.201h.458l.114.058.059.056.056.114v.173l-.056.114-.059.056-.114.058h-.457M104.9 133.336h-.686M104.557 133.336v-1.201l-.114.172-.115.115-.114.055M103.757 136.384l-.399-.572M103.07 136.384v-1.201h.458l.114.058.059.056.056.114v.173l-.056.114-.059.056-.114.058h-.457M104.214 135.297l.058-.056.115-.058h.284l.114.058.059.056.056.114v.114l-.056.173-.686.686h.742M103.757 142.48l-.399-.572M103.07 142.48v-1.201h.458l.114.058.059.056.056.114v.173l-.056.114-.059.056-.114.058h-.457M104.158 141.279h.742l-.399.457h.17l.114.058.059.056.056.114v.287l-.056.115-.059.056-.114.058h-.343l-.114-.058-.056-.056M115.936 142.409h-.571v-1.2M116.335 141.781h.401M116.906 142.409h-.571v-1.2h.571M117.422 142.409v-1.2h.284l.173.057.114.114.056.114.059.229v.173l-.059.228-.056.115-.114.114-.173.056h-.284M115.768 135.116l-.571.402M115.768 135.802h-1.201v-.457l.058-.114.056-.056.115-.059h.172l.115.059.055.056.059.114v.457M114.567 134.032v.571l.571.056-.055-.056-.059-.114v-.287l.059-.114.055-.056.115-.059h.287l.114.059.056.056.058.114v.287l-.058.114-.056.056M103.28 127.098v-1.001h.235l.145.048.094.094.048.097.049.19v.142l-.049.19-.048.095-.094.096-.145.049h-.236M104.183 126.097h.618l-.333.38h.145l.094.05.048.045.046.096v.24l-.046.093-.048.048-.094.049h-.287l-.094-.049-.049-.048M112.568 134.913l-.571.402M112.568 135.6h-1.201v-.458l.058-.114.056-.056.114-.059h.173l.114.059.056.056.059.114v.457M111.768 133.885h.8M111.31 134.172l.857.284v-.742M118.415 120.646v.714l-.048.142-.094.097-.142.045h-.097M119.416 121.644h-.572M119.129 121.644v-.998l-.094.142-.097.094-.094.049M134.62 124.512l-.574.401M134.62 125.2h-1.206v-.46l.058-.114.056-.058.117-.056h.173l.114.056.056.058.058.115v.46M133.988 123.994v-.402M134.62 123.42v.574h-1.206v-.574M134.564 122.96l.056-.173v-.287l-.056-.114-.058-.058-.114-.056h-.115l-.116.056-.056.058-.059.114-.058.231-.056.115-.058.056-.115.058h-.114l-.117-.058-.056-.056-.058-.115v-.29l.058-.17M133.988 121.754v-.402M134.62 121.18v.574h-1.206v-.575M133.414 120.834v-.688M134.62 120.489h-1.206" stroke-width=".1524"/></g><g fill="none" fill-opacity="0" stroke="#fff" stroke-linecap="round" stroke-linejoin="round" stroke-width="59.055"><path d="M100.96 123.6v.81l.048.094.046.049.097.048h.19l.094-.048.048-.049.049-.094v-.81M102.532 124.6h-.571M102.245 124.6v-1l-.094.142-.096.097-.094.046M128.641 134.929h-1M128.545 133.88l.048.048.048.142v.097l-.048.142-.094.096-.097.046-.19.048h-.142l-.19-.048-.097-.046-.094-.096-.049-.142v-.097l.049-.142.048-.048M128.641 132.927v.572M128.641 133.214h-1l.142.094.096.097.048.093M119.538 131.718l-.048.048-.143.048h-.094l-.144-.048-.094-.096-.049-.094-.048-.19v-.143l.048-.19.049-.097.094-.094.144-.048h.094l.143.048.048.046M119.919 130.908l.048-.046.094-.048h.239l.096.048.046.046.048.096v.094l-.048.145-.571.571h.62" stroke-width=".1499997"/></g><g fill="none" stroke="#2c8240" stroke-linecap="round" stroke-linejoin="round" stroke-width="59.06"><path d="M5872 12385h20105M25977 12385V562M25977 562H5872M5872 562v11823" transform="translate(75.611 117.56) scale(.00254)"/></g><g transform="translate(15.738 -13.24) scale(.99509)"><path fill="none" d="M83.284 155.49h.254v.254h-.254zM93.677 155.49h.254v.254h-.254z"/><path fill="none" stroke="#8c8c8c" stroke-linecap="round" stroke-width=".739" d="M83.527 155.86h.37M93.689 155.86h-.37"/><path d="M83.527 155.86h10.007" fill="none" stroke="#8c8c8c" stroke-width=".739"/><path d="M86.773 154.75a1.384 1.384 0 0 0-.485-.104h-.701a.255.255 0 0 0-.254.254v1.89c0 .14.114.253.254.253h.7c.14 0 .359-.048.486-.104l.025-.012c.127-.059.346-.104.486-.104h2.534c.14 0 .358.048.485.104l.026.012c.127.059.345.104.485.104h.701c.14 0 .254-.114.254-.254v-1.89a.254.254 0 0 0-.254-.253h-.7c-.141 0-.359.048-.486.104l-.026.013a1.382 1.382 0 0 1-.485.104h-2.534c-.14 0-.359-.048-.486-.104z" fill="#d9b477"/><path fill="#ad9f4e" d="M90.925 154.65h.248v2.397h-.248z"/><path fill="#c40808" d="M88.863 154.87h.653v1.953h-.653z"/><path fill="green" d="M87.557 154.87h.653v1.953h-.653z"/><path d="M86.907 154.81a.768.768 0 0 1-.11-.04l-.025-.013a1.389 1.389 0 0 0-.485-.104h-.03v2.397h.03c.14 0 .358-.048.485-.104l.026-.013a.682.682 0 0 1 .109-.04z" fill="#8a3d06"/><path d="M91.522 156.02c0 .134-.046.247-.104.247h-.678c-.134 0-.345-.02-.47-.044l-.026-.006a3.092 3.092 0 0 0-.47-.043h-2.451c-.135 0-.346.02-.47.043l-.025.005a3.045 3.045 0 0 1-.47.044h-.574c-.135 0-.247.103-.247.227v.204c0 .127.112.228.247.228h.571c.135 0 .346-.043.47-.094l.025-.01a1.5 1.5 0 0 1 .47-.094h2.45c.135 0 .346.044.472.094l.026.01c.121.051.333.094.47.094h.785c.134 0 .247-.104.247-.227v-1.185c-.098.038-.248.145-.248.506z" opacity=".3"/><path opacity=".4" d="M90.925 155.81h.248v1.112h-.248z"/><path d="M90.125 154.96a.657.657 0 0 0 .234-.061c.07-.028.203-.05.34-.05h.516c.08 0 .08.086.08.131 0 .046-.006.135-.08.135h-1.08c-.037 0-.08-.04-.08-.08.001-.03.027-.075.07-.075z" fill="#fff" opacity=".25"/><circle cx="85.627" cy="154.98" r=".152" fill="#fff" opacity=".35"/><path fill="#ff3" opacity=".5" d="M90.925 154.73h.248v.572h-.248z"/><path fill="#fff" opacity=".5" d="M90.925 154.86h.248v.264h-.248z"/></g><path d="M115.689 126.9c.222-.602-1.756-1.16-2.82-1.088-.945.063-2.924.61-2.213 1.282 1.211 1.147 4.604.967 5.033-.194z" fill="#f60" stroke="#f60" stroke-width=".224"/><path d="M114.297 126.33c.103-.206-.81-.397-1.3-.373-.437.022-1.35.209-1.022.44.56.392 2.124.331 2.322-.067z" stroke="#000" stroke-width=".089"/><g transform="translate(14.024 -11.334) scale(.99509)"><path d="M97.443 155.73a1.536 1.582 0 0 0-.61 1.26 1.536 1.582 0 0 0 1.536 1.582 1.536 1.582 0 0 0 1.535-1.581 1.536 1.582 0 0 0-.612-1.261z" fill="#00d300" opacity=".94" stroke="#00d200" stroke-width=".265"/><circle cx="98.363" cy="157.05" r="1.204" fill="#0f0" opacity=".94" stroke="#0f0" stroke-width=".292"/><path d="M98.206 157.84a.89.89 0 0 0 .386.007l.073.355c-.08.016-.165.025-.25.025a1.82 1.82 0 0 1-.32-.036zm-.357.251a1.244 1.244 0 0 1-.655-1.352l.354.08a.882.882 0 0 0 .439.935z" fill="#fff" opacity=".6"/></g><g transform="translate(14.093 -11.253) scale(.99509)"><path d="M102.44 155.76a1.536 1.582 0 0 0-.61 1.26 1.536 1.582 0 0 0 1.536 1.582 1.536 1.582 0 0 0 1.535-1.581 1.536 1.582 0 0 0-.612-1.261z" fill="#dbdb00" opacity=".94" stroke="#dcdc00" stroke-width=".265"/><circle cx="103.36" cy="157.09" r="1.204" fill="#ff0" opacity=".94" stroke="#ff0" stroke-width=".292"/><path d="M103.2 157.88a.89.89 0 0 0 .386.007l.073.355c-.08.016-.165.025-.25.025a1.82 1.82 0 0 1-.32-.036zm-.357.251a1.244 1.244 0 0 1-.655-1.352l.354.08a.882.882 0 0 0 .439.935z" fill="#fff" opacity=".6"/></g><g stroke-width=".696"><ellipse cx="-115.08" cy="107.58" rx="10.243" ry="9.565" fill="#1a1a1a" transform="matrix(.24516 0 0 .25881 134.12 93.672)"/><path d="M103.411 121.554h4.982v2.425h-4.982z"/></g><ellipse cx="105.85" cy="122.15" rx="2.295" ry="1.218"/><g stroke-width=".802"><path d="M112.012 122.296l.594-.594v-1.547l-.594-.594h-1.547l-.594.594v1.547l.594.594z"/><path fill="#8d8c8c" d="M110.802 120.491h.873v.874h-.873z"/><path fill="#8c8663" d="M111.014 120.703h.45v.45h-.45z"/><path fill="#b8af82" d="M110.802 120.491l.212.212h.45l.211-.212z"/><path fill="#80795b" d="M111.463 121.152v-.449l.212-.212v.874z"/><path fill="#5e5b43" d="M111.014 121.152h.45l.211.213h-.873z"/><path fill="#9a916c" d="M110.802 120.491l.212.212v.45l-.212.212z"/><g><path d="M115.331 120.155l-.594-.594h-1.547l-.594.594v1.547l.594.594h1.547l.594-.594z"/></g><g><path fill="#8d8c8c" d="M113.528 120.491h.872v.874h-.872z"/><path fill="#8c8663" d="M113.74 120.703h.449v.45h-.45z"/><path fill="#b8af82" d="M114.188 120.703l.212-.212h-.872l.212.212z"/><path fill="#80795b" d="M114.4 120.491v.874l-.212-.213v-.449z"/><path fill="#5e5b43" d="M114.4 121.365h-.872l.212-.213h.448z"/><path fill="#9a916c" d="M113.74 121.152l-.212.213v-.874l.212.212z"/></g><g><path d="M118.012 120.155l-.594-.594h-1.547l-.594.594v1.547l.594.594h1.547l.594-.594z"/></g><g><path fill="#8d8c8c" d="M116.209 120.491h.872v.874h-.872z"/><path fill="#8c8663" d="M116.42 120.703h.45v.45h-.45z"/><path fill="#b8af82" d="M116.87 120.703l.211-.212h-.872l.212.212z"/><path fill="#80795b" d="M117.081 120.491v.874l-.212-.213v-.449z"/><path fill="#5e5b43" d="M117.081 121.365h-.872l.212-.213h.448z"/><path fill="#9a916c" d="M116.42 121.152l-.211.213v-.874l.212.212z"/></g></g><g stroke-width=".941"><path fill="none" d="M136.976 124.014v1.014h-1.063v-1.014z"/><path fill="none" d="M136.876 124.127v.787h-.862v-.787zM136.976 126.637v1.014h-1.063v-1.014z"/><path fill="none" d="M136.876 126.75v.786h-.862v-.786zM136.976 129.26v1.014h-1.063v-1.014z"/><path fill="none" d="M136.876 129.373v.786h-.862v-.786zM136.976 131.883v1.014h-1.063v-1.014z"/><path fill="none" d="M136.876 131.996v.786h-.862v-.786zM136.976 134.506v1.013h-1.063v-1.013z"/><path fill="none" d="M136.876 134.618v.787h-.862v-.787zM136.976 137.128v1.014h-1.063v-1.014z"/><path fill="none" d="M136.876 137.241v.786h-.862v-.786zM136.976 139.751v1.014h-1.063v-1.014z"/><path fill="none" d="M136.876 139.864v.786h-.862v-.786zM136.976 142.374v1.014h-1.063v-1.014z"/><path fill="none" d="M136.876 142.487v.786h-.862v-.786z"/><path fill="#404040" d="M137.82 123.21v20.982h-2.75V123.21z"/><path d="M136.976 124.015v1.013h-1.063v-1.013z"/><path fill="#2a2a29" d="M136.976 125.028l.392.374v-1.76l-.392.372z"/><path fill="#474747" d="M135.912 125.028l-.39.374h1.846l-.393-.374z"/><path fill="#595959" d="M135.912 124.014l-.39-.373v1.76l.39-.373z"/><path fill="#373737" d="M136.976 124.014l.392-.373h-1.847l.392.373z"/><path d="M136.976 126.638v1.013h-1.063v-1.013z"/><path fill="#2a2a29" d="M136.976 127.651l.392.373v-1.76l-.392.373z"/><path fill="#474747" d="M135.912 127.651l-.39.373h1.846l-.393-.373z"/><path fill="#595959" d="M135.912 126.637l-.39-.373v1.76l.39-.373z"/><path fill="#373737" d="M136.976 126.637l.392-.373h-1.847l.392.373z"/><path d="M136.976 129.26v1.014h-1.063v-1.013z"/><path fill="#2a2a29" d="M136.976 130.274l.392.373v-1.76l-.392.373z"/><path fill="#474747" d="M135.912 130.274l-.39.373h1.846l-.393-.373z"/><path fill="#595959" d="M135.912 129.26l-.39-.373v1.76l.39-.374z"/><path fill="#373737" d="M136.976 129.26l.392-.374h-1.847l.392.374z"/><path d="M136.976 131.884v1.013h-1.063v-1.013z"/><path fill="#2a2a29" d="M136.976 132.897l.392.373v-1.76l-.392.373z"/><path fill="#474747" d="M135.912 132.897l-.39.373h1.846l-.393-.373z"/><path fill="#595959" d="M135.912 131.883l-.39-.373v1.76l.39-.374z"/><path fill="#373737" d="M136.976 131.883l.392-.374h-1.847l.392.374z"/><path d="M136.976 134.506v1.013h-1.063v-1.013z"/><path fill="#2a2a29" d="M136.976 135.52l.392.373v-1.76l-.392.373z"/><path fill="#474747" d="M135.912 135.52l-.39.373h1.846l-.393-.374z"/><path fill="#595959" d="M135.912 134.506l-.39-.373v1.76l.39-.374z"/><path fill="#373737" d="M136.976 134.506l.392-.374h-1.847l.392.374z"/><path d="M136.976 137.13v1.012h-1.063v-1.013z"/><path fill="#2a2a29" d="M136.976 138.142l.392.374v-1.76l-.392.372z"/><path fill="#474747" d="M135.912 138.142l-.39.374h1.846l-.393-.374z"/><path fill="#595959" d="M135.912 137.128l-.39-.373v1.76l.39-.373z"/><path fill="#373737" d="M136.976 137.128l.392-.373h-1.847l.392.373z"/><path d="M136.976 139.752v1.013h-1.063v-1.013z"/><path fill="#2a2a29" d="M136.976 140.765l.392.373v-1.76l-.392.373z"/><path fill="#474747" d="M135.912 140.765l-.39.373h1.846l-.393-.373z"/><path fill="#595959" d="M135.912 139.751l-.39-.373v1.76l.39-.373z"/><path fill="#373737" d="M136.976 139.751l.392-.374h-1.847l.392.374z"/><path d="M136.976 142.375v1.013h-1.063v-1.013z"/><path fill="#2a2a29" d="M136.976 143.388l.392.373v-1.76l-.392.373z"/><path fill="#474747" d="M135.912 143.388l-.39.373h1.846l-.393-.373z"/><path fill="#595959" d="M135.912 142.374l-.39-.373v1.76l.39-.374z"/><path fill="#373737" d="M136.976 142.374l.392-.374h-1.847l.392.374z"/></g><g stroke-width="1.164"><g fill="#ccc"><path d="M93.8 129.972h.983l.149.589h1.2v.348h-2.343z"/><path d="M93.8 131.506h.984l.149-.593h1.199v-.35H93.79z"/></g><g fill="#ccc"><path d="M93.797 136.647h.984l.149.589h1.2v.348h-2.343z"/><path d="M93.797 138.046h.984l.148-.594h1.2v-.35h-2.342z"/></g><g fill="#ccc"><path d="M93.797 132.127h.984l.149.589h1.2v.348h-2.343z"/><path d="M93.797 133.526h.984l.148-.594h1.2v-.35h-2.342z"/></g><g fill="#ccc"><path d="M93.797 134.413h.984l.149.589h1.2v.348h-2.343z"/><path d="M93.797 135.811h.984l.148-.593h1.2v-.35h-2.342z"/></g><path fill="gray" d="M77.819 128.922H93.83v10.254H77.819z"/><path fill="#ccc" d="M77.817 128.922H92.96v9.34H77.817z"/><g fill="#999"><path d="M80.44 130.091h1.466v2.041H80.44zM80.44 135.374h1.466v2.041H80.44zM89.484 133.51h.707v.866h-.707z"/></g></g><g transform="matrix(-.35829 0 0 -.34551 133.01 137.89)"><path fill="#8c8c8c" d="M2.521 20.643h2.16v3.125h-2.16zM9.721 20.643h2.16v3.125h-2.16zM16.92 20.643h2.16v3.125h-2.16zM24.121 20.643h2.158v3.125h-2.158zM24.121.008h2.158v3.125h-2.158zM16.92.008h2.16v3.125h-2.16zM9.721.008h2.16v3.125h-2.16zM2.521.008h2.16v3.125h-2.16z"/><path fill="#8c8c8c" d="M2.521 21.607h2.16v2.16h-2.16zM9.721 21.607h2.16v2.16h-2.16zM16.92 21.607h2.16v2.16h-2.16zM24.121 21.607h2.158v2.16h-2.158zM24.121.008h2.158v2.16h-2.158zM16.92.008h2.16v2.16h-2.16zM9.721.008h2.16v2.16h-2.16zM2.521.008h2.16v2.16h-2.16z"/><path fill="#8c8c8c" d="M2.521 18.958h2.16v4.81h-2.16zM9.721 18.958h2.16v4.81h-2.16zM16.92 18.958h2.16v4.81h-2.16zM24.121 18.958h2.158v4.81h-2.158zM2.521.008h2.16v4.81h-2.16zM9.721.008h2.16v4.81h-2.16zM16.92.008h2.16v4.81h-2.16zM24.121.008h2.158v4.81h-2.158z"/><path fill="#3d3d3d" d="M0 8.287V2.168h28.801l-.541 6.119z"/><path d="M0 21.607v-6.12h28.26l.541 6.12z"/><path fill="#8c8c8c" d="M4.681 1.692h-2.16v1.441h3.6v-.779zM13.32 2.354l-1.44-.662H9.721l-1.441.662v.779h5.04zM24.121 1.692l-1.439.662v.779h3.597V1.692zM20.521 2.354l-1.441-.662h-2.16l-1.44.662v.779h5.041zM4.681 22.083l1.44-.663v-.777h-3.6v1.44zM24.121 22.083h2.158v-1.44h-3.597v.777zM8.28 21.42l1.441.663h2.159l1.44-.663v-.777H8.28zM15.48 21.42l1.44.663h2.16l1.441-.663v-.777H15.48z"/><path fill="#141414" d="M28.26 3.938h-1.005v15.891l1.005.007.541 1.771V2.168z"/><path fill="#1f1f1f" d="M0 21.607V2.168l.541 1.77v4.349h3.06v7.2H.541v4.349z"/><path fill="#1c1c1c" d="M.404 9.785v2.095h3.197V8.287l-3.06-.028z"/><path fill="#383838" d="M3.601 11.88H.404v2.11l.137 1.533h3.06z"/><path d="M.541 3.938v4.313a3.697 3.697 0 0 1 3.017 3.628 3.702 3.702 0 0 1-3.017 3.637v4.313H28.26V3.938z" fill="#303030"/><path d="M.404 9.785v4.195a2.116 2.116 0 0 0 1.886-2.1A2.107 2.107 0 0 0 .404 9.785z" fill="#262626"/><circle cx="4.681" cy="16.906" r="1.483" fill="#212121"/></g><path fill="#8c8c8c" d="M123.595 136.793h.774v1.098h-.774zM126.173 136.793h.773v1.098h-.773zM128.753 136.793h.773v1.098h-.773zM131.332 136.793h.774v1.098h-.774zM124.882 130.75v-.27l-.515-.228h-.774v.497z"/><path fill="#8c8c8c" d="M123.595 136.793v.497h.774l.515-.229v-.268zM130.817 136.793v.268l.515.229h.774v-.497zM127.462 137.061v-.268h-1.804v.268l.515.229h.773zM130.042 137.061v-.268h-1.805v.268l.516.229h.773zM132.106 130.749v-.497h-.774l-.515.228v.269zM124.882 130.75v-.27l-.515-.228h-.774v.497zM128.237 130.48v.269h1.805v-.269l-.516-.228h-.773zM125.658 130.48v.269h1.804v-.269l-.516-.228h-.773z"/><g fill="#f2f2f2" aria-label="attiny85"><path d="M124.117 132.33q-.165 0-.23.037t-.063.125q0 .07.047.112.049.04.131.04.114 0 .182-.077.07-.078.07-.207v-.03zm.273-.054v.458h-.137v-.122q-.046.074-.116.109-.07.034-.171.034-.128 0-.204-.069-.075-.07-.075-.185 0-.136.094-.205.094-.069.28-.069h.192v-.012q0-.092-.062-.141-.062-.05-.174-.05-.071 0-.139.016t-.13.05v-.122q.075-.028.146-.042.07-.014.137-.014.18 0 .27.09t.09.274zM124.808 131.703v.228h.282v.103h-.282v.436q0 .098.028.126.028.028.113.028h.14v.11h-.14q-.158 0-.218-.056-.06-.058-.06-.208v-.436h-.1v-.103h.1v-.228zM125.406 131.703v.228h.282v.103h-.282v.436q0 .098.027.126.029.028.114.028h.14v.11h-.14q-.158 0-.219-.056-.06-.058-.06-.208v-.436h-.1v-.103h.1v-.228zM125.868 131.931h.137v.803h-.137zm0-.312h.137v.167h-.137zM126.983 132.25v.484h-.137v-.48q0-.114-.046-.17t-.139-.057q-.11 0-.174.068t-.064.185v.454h-.138v-.803h.138v.125q.049-.072.115-.108.067-.036.154-.036.143 0 .217.086.074.085.074.252zM127.603 132.809q-.058.143-.113.187t-.147.044h-.11v-.11h.081q.057 0 .088-.027t.069-.121l.025-.06-.337-.79h.145l.26.627.26-.628h.145zM128.498 132.226q-.107 0-.168.055-.061.055-.061.152t.06.152q.062.055.17.055t.168-.055q.062-.056.062-.152 0-.097-.062-.152-.06-.055-.169-.055zm-.15-.062q-.096-.023-.15-.086-.054-.064-.054-.156 0-.128.094-.203.095-.074.26-.074.166 0 .26.074.095.075.095.203 0 .092-.054.156-.054.063-.15.086.109.025.169.096.061.07.061.173 0 .156-.099.239-.098.083-.282.083t-.282-.083q-.098-.083-.098-.239 0-.102.06-.173t.17-.096zm-.055-.228q0 .083.054.13.054.046.151.046t.151-.047q.055-.046.055-.13t-.055-.13q-.054-.046-.15-.046-.098 0-.152.047-.054.047-.054.13zM129.148 131.664h.59v.122h-.453v.262q.033-.01.066-.016.033-.005.065-.005.186 0 .295.098.108.098.108.266 0 .173-.111.269-.112.095-.315.095-.07 0-.142-.011-.073-.012-.15-.035v-.145q.067.035.138.052.072.017.151.017.129 0 .204-.065t.075-.177-.075-.177q-.075-.065-.204-.065-.06 0-.12.012-.06.013-.122.04z"/></g><path fill="#8c8c8c" d="M123.593 129.67h.774v1.086h-.774zM131.332 129.67h.774v1.085h-.774zM126.173 129.67h.773v1.085h-.773zM128.753 129.67h.773v1.085h-.773z"/><path fill="none" d="M131.323 136.792h.777v1.099h-.777zM131.327 129.677h.772v1.098h-.772zM128.753 129.67h.773v1.098h-.773zM126.173 129.67h.773v1.098h-.773zM123.592 129.67h.774v1.098h-.774zM123.595 136.792h.774v1.099h-.774zM126.173 136.792h.773v1.099h-.773zM128.753 136.792h.773v1.099h-.773z"/><g stroke-width="1.047"><path fill="none" d="M132.07 125.024v.662h-.975v-.662zM125.477 125.024v.662h-.975v-.662zM132.07 120.614v.661h-.975v-.661zM125.477 120.614v.661h-.975v-.661z"/><path fill="none" d="M132.07 125.024v.662h-.688v-.662zM125.19 125.024v.662h-.688v-.662zM132.07 120.614v.661h-.688v-.661zM125.19 120.614v.661h-.688v-.661z"/><g transform="matrix(0 .22054 -.22931 0 132.07 120.48)"><path fill="#8c8c8c" d="M20.586 21.487h3v11.492h-3zM.586.001h2.998v11.492H.586zM20.586 0h3v11.494h-3zM.587 21.487h2.999v11.494H.587z"/><path d="M.012 4.232H24.53v24.52H.012z"/><path d="M24.529 26.752a2.002 2.002 0 0 1-2 1.999H2.011a2.003 2.003 0 0 1-1.999-1.999V6.23c0-1.1.898-1.998 1.999-1.998h20.521a2 2 0 0 1 1.997 1.998z" fill="#999"/><circle cx="3.583" cy="7.803" r="2.124"/><circle cx="21.018" cy="7.84" r="2.124"/><circle cx="20.981" cy="25.275" r="2.124"/><circle cx="3.546" cy="25.236" r="2.124"/><circle cx="12.27" cy="16.491" r="7.15" fill="#3f3f3f"/><circle cx="12.27" cy="16.491" r="7.15" fill="url(#a)"/><circle cx="12.395" cy="17.341" r="6.292" opacity=".6"/><circle cx="12.279" cy="16.533" r="6.132" fill="#735348"/><path d="M3.308 7.692a.306.306 0 0 1 .228-.196l-.21-1.338c-.08.013-.165.002-.244.026l-.002-.006a1.667 1.667 0 0 0-1.054.993zM20.741 7.728a.299.299 0 0 1 .229-.197l-.207-1.338c-.082.015-.166.002-.245.026l-.003-.007a1.665 1.665 0 0 0-1.053.993zM20.707 25.163c.041-.102.116-.18.227-.197l-.207-1.337c-.082.015-.166.002-.246.026l-.002-.01a1.66 1.66 0 0 0-1.053.994zM3.271 25.126a.298.298 0 0 1 .229-.195l-.21-1.339c-.082.017-.166.002-.245.027l-.002-.007c-.495.15-.865.521-1.056.992z" fill="#fff" opacity=".5"/><path d="M14.473 10.818a5.99 5.99 0 0 0-1.504-.378 6.107 6.107 0 0 0-3.653.742l-.134.348a6.946 6.946 0 0 1 4.062-.778c.448.052.884.152 1.301.284z" fill="#fff" opacity=".6"/></g></g><g transform="translate(18.522 -11.031) scale(.99509)"><circle transform="rotate(-90)" cx="-139.27" cy="101.4" r="2.75"/><circle transform="rotate(-90)" cx="-139.25" cy="101.42" r="1.75" fill="#b2b2b2"/><path d="M101.46 140.99c-.436.003-.675-.09-1.113-.356l-.293 1.03c.408.23.862.355 1.32.36.448.007.994-.128 1.418-.38l-.26-1.035c-.432.264-.564.377-1.072.381z" fill="#fff"/></g><g><path fill="none" d="M108.114 126.95h-.286v-.335h.286zM100.811 126.95h-.286v-.335h.286z"/><path fill="none" stroke="#8c8c8c" stroke-linecap="round" stroke-width=".701" d="M107.828 126.6h-.351"/><path fill="none" stroke="#8c8c8c" stroke-linecap="round" stroke-width=".704" d="M100.185 126.6h-.354"/><path fill="#8c8c8c" d="M107.519 126.95h-7.338v-.701h7.338z"/><path d="M105.501 127.81h.616c.136 0 .112-2.407 0-2.407h-4.52c-.147 0-.159 2.407 0 2.407h.617z" fill="#ff2a2a"/><path fill="#fff" opacity=".74" d="M105.322 127.81h-.569v-2.407h.569z"/><path d="M106.035 127.69h-4.331c-.102 0-.328-.12.1-.12h4.232c.101 0 .203.12-.001.12z" fill="#fff" opacity=".4"/><path d="M101.598 125.41c.208-.005.41 0 .616 0h3.904c.026 0 .057.242.052.242h-4.639c-.006 0 .025-.241.067-.242z" opacity=".4"/></g><g><path fill="none" d="M99.499 129.81h.286v-.335h-.286zM106.802 129.81h.286v-.335h-.286z"/><path fill="none" stroke="#8c8c8c" stroke-linecap="round" stroke-width=".701" d="M99.785 129.46h.351"/><path fill="none" stroke="#8c8c8c" stroke-linecap="round" stroke-width=".704" d="M107.428 129.46h.354"/><path fill="#8c8c8c" d="M100.094 129.81h7.338v-.701h-7.338z"/><path d="M102.112 130.67h-.616c-.136 0-.112-2.407 0-2.407h4.52c.147 0 .159 2.407 0 2.407h-.617z" fill="#ff2a2a"/><path fill="#fff" opacity=".74" d="M102.291 130.67h.569v-2.407h-.569z"/><path d="M101.578 130.55h4.331c.102 0 .328-.12-.1-.12h-4.232c-.101 0-.203.12.001.12z" fill="#fff" opacity=".4"/><path d="M106.015 128.27c-.208-.005-.41 0-.616 0h-3.904c-.026 0-.057.242-.052.242h4.639c.006 0-.025-.241-.067-.242z" opacity=".4"/></g><g transform="translate(18.184 -12.491) scale(.99509)"><path fill="none" d="M80.702 145.74h.254v.254h-.254zM91.095 145.74h.254v.254h-.254z"/><path fill="none" stroke="#8c8c8c" stroke-linecap="round" stroke-width=".739" d="M80.944 146.11h.37M91.106 146.11h-.369"/><path d="M80.944 146.11h10.007" fill="none" stroke="#8c8c8c" stroke-width=".739"/><path d="M84.19 145.01a1.384 1.384 0 0 0-.485-.104h-.701a.255.255 0 0 0-.254.254v1.89c0 .14.114.253.254.253h.7c.14 0 .359-.048.486-.104l.025-.012c.127-.059.346-.104.486-.104h2.534c.14 0 .358.048.485.104l.026.012c.127.059.345.104.485.104h.701c.14 0 .254-.114.254-.254v-1.89a.254.254 0 0 0-.254-.253h-.7c-.141 0-.359.048-.486.104l-.026.013a1.382 1.382 0 0 1-.485.104h-2.534c-.14 0-.359-.048-.486-.104z" fill="#d9b477"/><path fill="#ad9f4e" d="M88.343 144.9h.248v2.397h-.248z"/><path d="M86.28 145.12h.653v1.953h-.653z"/><path fill="#b3b3b3" d="M84.975 145.12h.653v1.953h-.653z"/><path d="M84.324 145.06a.768.768 0 0 1-.11-.04l-.025-.013a1.389 1.389 0 0 0-.485-.104h-.03v2.397h.03c.14 0 .358-.048.485-.104l.026-.013a.682.682 0 0 1 .109-.04z" fill="#00f"/><path d="M88.939 146.27c0 .134-.046.247-.104.247h-.678c-.134 0-.345-.02-.47-.044l-.026-.006a3.092 3.092 0 0 0-.47-.043H84.74c-.135 0-.346.02-.47.043l-.025.005a3.045 3.045 0 0 1-.47.044H83.2c-.135 0-.247.103-.247.227v.204c0 .127.112.228.247.228h.571c.135 0 .346-.043.47-.094l.025-.01a1.5 1.5 0 0 1 .47-.094h2.45c.135 0 .346.044.472.094l.026.01c.121.051.333.094.47.094h.785c.134 0 .247-.104.247-.227v-1.185c-.098.038-.248.145-.248.506z" opacity=".3"/><path opacity=".4" d="M88.343 146.06h.248v1.112h-.248z"/><path d="M87.542 145.21a.657.657 0 0 0 .234-.061c.07-.028.203-.05.34-.05h.516c.08 0 .08.086.08.131 0 .046-.006.135-.08.135h-1.08c-.037 0-.08-.04-.08-.08.001-.03.027-.075.07-.075z" fill="#fff" opacity=".25"/><circle cx="83.044" cy="145.23" r=".152" fill="#fff" opacity=".35"/><path fill="#ff3" opacity=".5" d="M88.343 144.98h.248v.572h-.248z"/><path fill="#fff" opacity=".5" d="M88.343 145.11h.248v.264h-.248z"/></g><g transform="translate(18.225 -9.456) scale(.99509)"><path fill="none" d="M80.702 145.74h.254v.254h-.254zM91.095 145.74h.254v.254h-.254z"/><path fill="none" stroke="#8c8c8c" stroke-linecap="round" stroke-width=".739" d="M80.944 146.11h.37M91.106 146.11h-.369"/><path d="M80.944 146.11h10.007" fill="none" stroke="#8c8c8c" stroke-width=".739"/><path d="M84.19 145.01a1.384 1.384 0 0 0-.485-.104h-.701a.255.255 0 0 0-.254.254v1.89c0 .14.114.253.254.253h.7c.14 0 .359-.048.486-.104l.025-.012c.127-.059.346-.104.486-.104h2.534c.14 0 .358.048.485.104l.026.012c.127.059.345.104.485.104h.701c.14 0 .254-.114.254-.254v-1.89a.254.254 0 0 0-.254-.253h-.7c-.141 0-.359.048-.486.104l-.026.013a1.382 1.382 0 0 1-.485.104h-2.534c-.14 0-.359-.048-.486-.104z" fill="#d9b477"/><path fill="#ad9f4e" d="M88.343 144.9h.248v2.397h-.248z"/><path d="M86.28 145.12h.653v1.953h-.653z"/><path fill="#b3b3b3" d="M84.975 145.12h.653v1.953h-.653z"/><path d="M84.324 145.06a.768.768 0 0 1-.11-.04l-.025-.013a1.389 1.389 0 0 0-.485-.104h-.03v2.397h.03c.14 0 .358-.048.485-.104l.026-.013a.682.682 0 0 1 .109-.04z" fill="#00f"/><path d="M88.939 146.27c0 .134-.046.247-.104.247h-.678c-.134 0-.345-.02-.47-.044l-.026-.006a3.092 3.092 0 0 0-.47-.043H84.74c-.135 0-.346.02-.47.043l-.025.005a3.045 3.045 0 0 1-.47.044H83.2c-.135 0-.247.103-.247.227v.204c0 .127.112.228.247.228h.571c.135 0 .346-.043.47-.094l.025-.01a1.5 1.5 0 0 1 .47-.094h2.45c.135 0 .346.044.472.094l.026.01c.121.051.333.094.47.094h.785c.134 0 .247-.104.247-.227v-1.185c-.098.038-.248.145-.248.506z" opacity=".3"/><path opacity=".4" d="M88.343 146.06h.248v1.112h-.248z"/><path d="M87.542 145.21a.657.657 0 0 0 .234-.061c.07-.028.203-.05.34-.05h.516c.08 0 .08.086.08.131 0 .046-.006.135-.08.135h-1.08c-.037 0-.08-.04-.08-.08.001-.03.027-.075.07-.075z" fill="#fff" opacity=".25"/><circle cx="83.044" cy="145.23" r=".152" fill="#fff" opacity=".35"/><path fill="#ff3" opacity=".5" d="M88.343 144.98h.248v.572h-.248z"/><path fill="#fff" opacity=".5" d="M88.343 145.11h.248v.264h-.248z"/></g><g><path fill="none" d="M99.489 139.21h.286v-.335h-.286zM106.792 139.21h.286v-.335h-.286z"/><path fill="none" stroke="#8c8c8c" stroke-linecap="round" stroke-width=".701" d="M99.775 138.86h.351"/><path fill="none" stroke="#8c8c8c" stroke-linecap="round" stroke-width=".704" d="M107.418 138.86h.354"/><path fill="#8c8c8c" d="M100.084 139.21h7.338v-.701h-7.338z"/><path d="M102.102 140.07h-.616c-.136 0-.112-2.407 0-2.407h4.52c.147 0 .159 2.407 0 2.407h-.617z" fill="#ff2a2a"/><path fill="#fff" opacity=".74" d="M102.281 140.07h.569v-2.407h-.569z"/><path d="M101.568 139.95h4.331c.102 0 .328-.12-.1-.12h-4.232c-.101 0-.203.12.001.12z" fill="#fff" opacity=".4"/><path d="M106.005 137.67c-.208-.005-.41 0-.616 0h-3.904c-.026 0-.057.242-.052.242h4.639c.006 0-.025-.241-.067-.242z" opacity=".4"/></g><g transform="translate(18.479 -12.557) scale(.99509)"><path fill="none" d="M94.273 142.53v.254h-.254v-.254zM94.273 152.92v.254h-.254v-.254z"/><path fill="none" stroke="#8c8c8c" stroke-linecap="round" stroke-width=".739" d="M93.903 142.77v.37M93.903 152.93v-.37"/><path d="M93.903 142.77v10.007" fill="none" stroke="#8c8c8c" stroke-width=".739"/><path d="M95.01 146.02c.058-.127.104-.345.104-.485v-.701a.255.255 0 0 0-.254-.254h-1.89a.255.255 0 0 0-.253.254v.7c0 .14.048.359.104.486l.012.025c.059.127.104.346.104.486v2.534c0 .14-.048.358-.104.485l-.012.026a1.382 1.382 0 0 0-.104.485v.701c0 .14.114.254.254.254h1.89c.139 0 .253-.114.253-.254v-.7c0-.141-.048-.359-.104-.486l-.013-.026a1.381 1.381 0 0 1-.104-.485v-2.534c0-.14.048-.359.104-.486z" fill="#d9b477"/><path fill="#ad9f4e" d="M95.116 150.17v.248h-2.397v-.248z"/><path fill="#c40808" d="M94.893 148.11v.653H92.94v-.653z"/><path fill="#1a1a1a" d="M94.893 146.8v.653H92.94v-.653z"/><path d="M94.959 146.15a.767.767 0 0 1 .04-.11l.013-.025a1.39 1.39 0 0 0 .104-.485v-.03H92.72v.03c0 .14.048.358.104.485l.013.026c.015.03.028.068.04.109z" fill="#8a3d06"/><path d="M93.742 150.76c-.134 0-.247-.046-.247-.104v-.678c0-.134.02-.345.044-.47l.005-.026c.023-.122.043-.335.043-.47v-2.451c0-.135-.02-.346-.043-.47l-.005-.025a3.044 3.044 0 0 1-.043-.47v-.574c0-.135-.104-.247-.228-.247h-.204c-.127 0-.228.112-.228.247v.571c0 .135.043.346.095.47l.01.025c.05.122.093.336.093.47v2.45c0 .135-.044.346-.094.472l-.01.026a1.455 1.455 0 0 0-.094.47v.785c0 .134.104.247.228.247h1.184c-.038-.098-.145-.248-.506-.248z" opacity=".3"/><path opacity=".4" d="M93.956 150.17v.248h-1.112v-.248z"/><path d="M94.802 149.37c0 .081.036.173.061.234.028.07.05.203.05.34v.516c0 .08-.086.08-.131.08s-.135-.006-.135-.08v-1.08c0-.037.04-.08.079-.08.03.001.076.027.076.07z" fill="#fff" opacity=".25"/><circle transform="rotate(90)" cx="144.87" cy="-94.784" r=".152" fill="#fff" opacity=".35"/><path fill="#ff3" opacity=".5" d="M95.035 150.17v.248h-.572v-.248z"/><path fill="#fff" opacity=".5" d="M94.908 150.17v.248h-.264v-.248z"/></g><g transform="translate(21.59 -12.558) scale(.99509)"><path fill="none" d="M94.273 142.53v.254h-.254v-.254zM94.273 152.92v.254h-.254v-.254z"/><path fill="none" stroke="#8c8c8c" stroke-linecap="round" stroke-width=".739" d="M93.903 142.77v.37M93.903 152.93v-.37"/><path d="M93.903 142.77v10.007" fill="none" stroke="#8c8c8c" stroke-width=".739"/><path d="M95.01 146.02c.058-.127.104-.345.104-.485v-.701a.255.255 0 0 0-.254-.254h-1.89a.255.255 0 0 0-.253.254v.7c0 .14.048.359.104.486l.012.025c.059.127.104.346.104.486v2.534c0 .14-.048.358-.104.485l-.012.026a1.382 1.382 0 0 0-.104.485v.701c0 .14.114.254.254.254h1.89c.139 0 .253-.114.253-.254v-.7c0-.141-.048-.359-.104-.486l-.013-.026a1.381 1.381 0 0 1-.104-.485v-2.534c0-.14.048-.359.104-.486z" fill="#d9b477"/><path fill="#ad9f4e" d="M95.116 150.17v.248h-2.397v-.248z"/><path fill="#c40808" d="M94.893 148.11v.653H92.94v-.653z"/><path fill="#1a1a1a" d="M94.893 146.8v.653H92.94v-.653z"/><path d="M94.959 146.15a.767.767 0 0 1 .04-.11l.013-.025a1.39 1.39 0 0 0 .104-.485v-.03H92.72v.03c0 .14.048.358.104.485l.013.026c.015.03.028.068.04.109z" fill="#8a3d06"/><path d="M93.742 150.76c-.134 0-.247-.046-.247-.104v-.678c0-.134.02-.345.044-.47l.005-.026c.023-.122.043-.335.043-.47v-2.451c0-.135-.02-.346-.043-.47l-.005-.025a3.044 3.044 0 0 1-.043-.47v-.574c0-.135-.104-.247-.228-.247h-.204c-.127 0-.228.112-.228.247v.571c0 .135.043.346.095.47l.01.025c.05.122.093.336.093.47v2.45c0 .135-.044.346-.094.472l-.01.026a1.455 1.455 0 0 0-.094.47v.785c0 .134.104.247.228.247h1.184c-.038-.098-.145-.248-.506-.248z" opacity=".3"/><path opacity=".4" d="M93.956 150.17v.248h-1.112v-.248z"/><path d="M94.802 149.37c0 .081.036.173.061.234.028.07.05.203.05.34v.516c0 .08-.086.08-.131.08s-.135-.006-.135-.08v-1.08c0-.037.04-.08.079-.08.03.001.076.027.076.07z" fill="#fff" opacity=".25"/><circle transform="rotate(90)" cx="144.87" cy="-94.784" r=".152" fill="#fff" opacity=".35"/><path fill="#ff3" opacity=".5" d="M95.035 150.17v.248h-.572v-.248z"/><path fill="#fff" opacity=".5" d="M94.908 150.17v.248h-.264v-.248z"/></g><text x="95.621" y="147.105" fill="#fff" font-family="sans-serif" font-size="1.764" letter-spacing="0" stroke-width=".265" word-spacing="0" style="line-height:1.25" xml:space="preserve"><tspan x="95.621" y="147.105" font-size="1.587">2</tspan></text></g></svg>