<svg width="375" height="174" viewBox="0 0 26042 12083" xmlns="http://www.w3.org/2000/svg"><g clip-path="url(#a)" mask="url(#b)" transform="translate(-42540 -35284)"><defs><clipPath id="a"><path d="M48412 35428v11823h20105V35428H48412" fill-rule="evenodd"/></clipPath></defs><g fill="#313d63" stroke="#313d63"><path d="M48412 35428v11823h20105V35428H48412" fill-rule="evenodd"/><g fill-opacity="0" stroke-linecap="round" stroke-linejoin="round" stroke-width="59.055" fill="none" stroke="#000"><path d="M48412 47251h20105M68517 47251V35428M68517 35428H48412M48412 35428v11823"/></g></g><g stroke-linecap="round" stroke-linejoin="round" fill="#9c6b28" stroke="#9c6b28"><g stroke-width="0" stroke="none"><circle cx="56800" cy="45200" r="370"/><circle cx="56800" cy="46200" r="370"/><circle cx="52190" cy="36392" r="669.29"/><circle cx="67544" cy="36392" r="669.29"/><circle cx="67544" cy="46235" r="669.29"/><circle cx="52190" cy="46235" r="669.29"/><circle cx="49548" cy="42232" r="295.28"/><circle cx="49548" cy="40460" r="295.28"/><circle cx="49588" cy="39062" r="673.07"/><circle cx="49588" cy="43629" r="673.07"/><circle cx="50532" cy="42724" r="410"/><circle cx="50532" cy="41790" r="410"/><circle cx="50532" cy="40902" r="410"/><circle cx="50532" cy="39968" r="410"/><circle cx="52140" cy="43234" r="410"/><circle cx="55140" cy="43234" r="410"/><circle cx="52101" cy="39548" r="410"/><circle cx="55101" cy="39548" r="410"/><circle cx="57750" cy="38500" r="370"/><circle cx="56750" cy="38500" r="370"/><circle cx="55647" cy="40917" r="410"/><circle cx="51647" cy="40917" r="410"/><circle cx="55671" cy="42084" r="410"/><circle cx="51671" cy="42084" r="410"/><circle cx="51671" cy="44400" r="410"/><circle cx="55671" cy="44400" r="410"/><circle cx="58800" cy="45200" r="370"/><circle cx="58800" cy="46200" r="370"/><circle cx="58065" cy="43584" r="410"/><circle cx="58065" cy="39584" r="410"/><circle cx="55168" cy="38429" r="410"/><circle cx="52168" cy="38429" r="410"/><circle cx="56819" cy="43584" r="410"/><circle cx="56819" cy="39584" r="410"/><circle cx="66488" cy="37788" r="410"/><circle cx="66488" cy="38788" r="410"/><circle cx="66488" cy="39788" r="410"/><circle cx="66488" cy="40788" r="410"/><circle cx="66488" cy="41788" r="410"/><circle cx="66488" cy="42788" r="410"/><circle cx="66488" cy="43788" r="410"/><circle cx="66488" cy="44788" r="410"/><circle cx="56619" cy="36211" r="410"/><circle cx="57619" cy="36211" r="410"/><circle cx="58619" cy="36211" r="410"/></g><g fill-opacity="0" stroke-width="680" fill="none"><path d="M64780 37990h-600M62220 37990h-600M64780 36210h-600M62220 36210h-600"/></g><g fill-opacity="0" stroke-width="755.91" fill="none"><path d="M53500 37041v-583M55500 37041v-583M54500 37041v-583"/></g><g fill-opacity="0" stroke-width="787.4" fill="none"><path d="M64600 42642v315M61600 39642v315M63600 42642v315M62600 39642v315M62600 42642v315M63600 39642v315M61600 42642v315"/></g><path d="M64923 39249l7.6 1.1 7.5 1.9 7.3 2.6 7 3.3 6.6 4 6.2 4.6 5.7 5.2 5.2 5.7 4.6 6.2 4 6.6 3.3 7 2.6 7.3 1.9 7.5 1.1 7.6.4 7.8v944.8l-.4 7.8-1.1 7.6-1.9 7.5-2.6 7.3-3.3 7-4 6.6-4.6 6.2-5.2 5.7-5.7 5.2-6.2 4.6-6.6 4-7 3.3-7.3 2.6-7.5 1.9-7.6 1.1-7.7.4h-630l-7.7-.4-7.6-1.1-7.5-1.9-7.3-2.6-7-3.3-6.6-4-6.2-4.6-5.7-5.2-5.2-5.7-4.6-6.2-4-6.6-3.3-7-2.6-7.3-1.9-7.5-1.1-7.6-.4-7.8v-944.8l.4-7.8 1.1-7.6 1.9-7.5 2.6-7.3 3.3-7 4-6.6 4.6-6.2 5.2-5.7 5.7-5.2 6.2-4.6 6.6-4 7-3.3 7.3-2.6 7.5-1.9 7.6-1.1 7.7-.4h630z" fill-rule="evenodd" stroke="none" stroke-width="0"/><circle cx="59800" cy="39284" r="393.7" stroke="none" stroke-width="0"/><path d="M60123 37907l7.6 1.1 7.5 1.9 7.3 2.6 7 3.3 6.6 4 6.2 4.6 5.7 5.2 5.2 5.7 4.6 6.2 4 6.6 3.3 7 2.6 7.3 1.9 7.5 1.1 7.6.4 7.7v630l-.4 7.7-1.1 7.6-1.9 7.5-2.6 7.3-3.3 7-4 6.6-4.6 6.2-5.2 5.7-5.7 5.2-6.2 4.6-6.6 4-7 3.3-7.3 2.6-7.5 1.9-7.6 1.1-7.7.4h-630l-7.7-.4-7.6-1.1-7.5-1.9-7.3-2.6-7-3.3-6.6-4-6.2-4.6-5.7-5.2-5.2-5.7-4.6-6.2-4-6.6-3.3-7-2.6-7.3-1.9-7.5-1.1-7.6-.4-7.7v-630l.4-7.7 1.1-7.6 1.9-7.5 2.6-7.3 3.3-7 4-6.6 4.6-6.2 5.2-5.7 5.7-5.2 6.2-4.6 6.6-4 7-3.3 7.3-2.6 7.5-1.9 7.6-1.1 7.7-.4h630z" fill-rule="evenodd" stroke="none" stroke-width="0"/></g><g fill="#212d53" stroke="#212d53" stroke-linecap="round" stroke-linejoin="round"><g stroke-width="0" stroke="none"><circle cx="56800" cy="45200" r="330"/><circle cx="56800" cy="46200" r="330"/><circle cx="52190" cy="36392" r="590.55"/><circle cx="67544" cy="36392" r="590.55"/><circle cx="67544" cy="46235" r="590.55"/><circle cx="52190" cy="46235" r="590.55"/><circle cx="49548" cy="42232" r="216.54"/><circle cx="49548" cy="40460" r="216.54"/><circle cx="49588" cy="39062" r="633.07"/><circle cx="49588" cy="43629" r="633.07"/><circle cx="50532" cy="42724" r="370"/><circle cx="50532" cy="41790" r="370"/><circle cx="50532" cy="40902" r="370"/><circle cx="50532" cy="39968" r="370"/><circle cx="52140" cy="43234" r="370"/><circle cx="55140" cy="43234" r="370"/><circle cx="52101" cy="39548" r="370"/><circle cx="55101" cy="39548" r="370"/><circle cx="57750" cy="38500" r="330"/><circle cx="56750" cy="38500" r="330"/><circle cx="55647" cy="40917" r="370"/><circle cx="51647" cy="40917" r="370"/><circle cx="55671" cy="42084" r="370"/><circle cx="51671" cy="42084" r="370"/><circle cx="51671" cy="44400" r="370"/><circle cx="55671" cy="44400" r="370"/><circle cx="58800" cy="45200" r="330"/><circle cx="58800" cy="46200" r="330"/><circle cx="58065" cy="43584" r="370"/><circle cx="58065" cy="39584" r="370"/><circle cx="55168" cy="38429" r="370"/><circle cx="52168" cy="38429" r="370"/><circle cx="56819" cy="43584" r="370"/><circle cx="56819" cy="39584" r="370"/><circle cx="66488" cy="37788" r="370"/><circle cx="66488" cy="38788" r="370"/><circle cx="66488" cy="39788" r="370"/><circle cx="66488" cy="40788" r="370"/><circle cx="66488" cy="41788" r="370"/><circle cx="66488" cy="42788" r="370"/><circle cx="66488" cy="43788" r="370"/><circle cx="66488" cy="44788" r="370"/><circle cx="56619" cy="36211" r="370"/><circle cx="57619" cy="36211" r="370"/><circle cx="58619" cy="36211" r="370"/></g><g fill-opacity="0" stroke-width="600" fill="none"><path d="M64780 37990h-600M62220 37990h-600M64780 36210h-600M62220 36210h-600"/></g><g fill-opacity="0" stroke-width="598.42" fill="none"><path d="M53500 37041v-583M55500 37041v-583M54500 37041v-583"/></g><g fill-opacity="0" stroke-width="629.92" fill="none"><path d="M64600 42642v315M61600 39642v315M63600 42642v315M62600 39642v315M62600 42642v315M63600 39642v315M61600 42642v315"/></g><path d="M64285 39328h630v944.8h-630z" fill-rule="evenodd" stroke="none" stroke-width="0"/><circle cx="59800" cy="39284" r="314.96" stroke="none" stroke-width="0"/><path d="M59485 37985h630v630h-630z" fill-rule="evenodd" stroke="none" stroke-width="0"/><g fill-opacity="0" stroke-width="200" fill="none"><path d="M62720 36210h1760M61920 36210h800M61920 37990h2560"/></g><g stroke-width="0" stroke="none"><circle cx="56800" cy="45200" r="68.898"/><circle cx="56800" cy="46200" r="68.898"/><circle cx="52190" cy="36392" r="68.898"/><circle cx="67544" cy="36392" r="68.898"/><circle cx="67544" cy="46235" r="68.898"/><circle cx="52190" cy="46235" r="68.898"/><circle cx="49548" cy="42232" r="68.898"/><circle cx="49548" cy="40460" r="68.898"/><circle cx="49588" cy="39062" r="68.898"/><circle cx="49588" cy="43629" r="68.898"/><circle cx="50532" cy="42724" r="68.898"/><circle cx="50532" cy="41790" r="68.898"/><circle cx="50532" cy="40902" r="68.898"/><circle cx="50532" cy="39968" r="68.898"/><circle cx="52140" cy="43234" r="68.898"/><circle cx="55140" cy="43234" r="68.898"/><circle cx="52101" cy="39548" r="68.898"/><circle cx="55101" cy="39548" r="68.898"/><circle cx="57750" cy="38500" r="68.898"/><circle cx="56750" cy="38500" r="68.898"/><circle cx="55647" cy="40917" r="68.898"/><circle cx="51647" cy="40917" r="68.898"/><circle cx="55671" cy="42084" r="68.898"/><circle cx="51671" cy="42084" r="68.898"/><circle cx="51671" cy="44400" r="68.898"/><circle cx="55671" cy="44400" r="68.898"/><circle cx="58800" cy="45200" r="68.898"/><circle cx="58800" cy="46200" r="68.898"/><circle cx="58065" cy="43584" r="68.898"/><circle cx="58065" cy="39584" r="68.898"/><circle cx="55168" cy="38429" r="68.898"/><circle cx="52168" cy="38429" r="68.898"/><circle cx="56819" cy="43584" r="68.898"/><circle cx="56819" cy="39584" r="68.898"/><circle cx="66488" cy="37788" r="68.898"/><circle cx="66488" cy="38788" r="68.898"/><circle cx="66488" cy="39788" r="68.898"/><circle cx="66488" cy="40788" r="68.898"/><circle cx="66488" cy="41788" r="68.898"/><circle cx="66488" cy="42788" r="68.898"/><circle cx="66488" cy="43788" r="68.898"/><circle cx="66488" cy="44788" r="68.898"/><circle cx="56619" cy="36211" r="68.898"/><circle cx="57619" cy="36211" r="68.898"/><circle cx="58619" cy="36211" r="68.898"/><circle cx="64480" cy="37990" r="68.898"/><circle cx="61920" cy="37990" r="68.898"/><circle cx="64480" cy="36210" r="68.898"/><circle cx="61920" cy="36210" r="68.898"/><circle cx="53500" cy="36750" r="68.898"/><circle cx="55500" cy="36750" r="68.898"/><circle cx="54500" cy="36750" r="68.898"/><circle cx="64600" cy="42800" r="68.898"/><circle cx="61600" cy="39800" r="68.898"/><circle cx="63600" cy="42800" r="68.898"/><circle cx="62600" cy="39800" r="68.898"/><circle cx="62600" cy="42800" r="68.898"/><circle cx="63600" cy="39800" r="68.898"/><circle cx="61600" cy="42800" r="68.898"/><circle cx="64600" cy="39800" r="68.898"/><circle cx="59800" cy="39284" r="68.898"/><circle cx="59800" cy="38300" r="68.898"/></g></g><g fill="#b5ae30" mask="url(#c)" stroke="#b5ae30" stroke-linecap="round" stroke-linejoin="round"><g stroke-width="0" stroke="none"><circle cx="56800" cy="45200" r="330"/><circle cx="56800" cy="46200" r="330"/><circle cx="52190" cy="36392" r="590.55"/><circle cx="67544" cy="36392" r="590.55"/><circle cx="67544" cy="46235" r="590.55"/><circle cx="52190" cy="46235" r="590.55"/><circle cx="49548" cy="42232" r="216.54"/><circle cx="49548" cy="40460" r="216.54"/><circle cx="49588" cy="39062" r="633.07"/><circle cx="49588" cy="43629" r="633.07"/><circle cx="50532" cy="42724" r="370"/><circle cx="50532" cy="41790" r="370"/><circle cx="50532" cy="40902" r="370"/><circle cx="50532" cy="39968" r="370"/><circle cx="52140" cy="43234" r="370"/><circle cx="55140" cy="43234" r="370"/><circle cx="52101" cy="39548" r="370"/><circle cx="55101" cy="39548" r="370"/><circle cx="57750" cy="38500" r="330"/><circle cx="56750" cy="38500" r="330"/><circle cx="55647" cy="40917" r="370"/><circle cx="51647" cy="40917" r="370"/><circle cx="55671" cy="42084" r="370"/><circle cx="51671" cy="42084" r="370"/><circle cx="51671" cy="44400" r="370"/><circle cx="55671" cy="44400" r="370"/><circle cx="58800" cy="45200" r="330"/><circle cx="58800" cy="46200" r="330"/><circle cx="58065" cy="43584" r="370"/><circle cx="58065" cy="39584" r="370"/><circle cx="55168" cy="38429" r="370"/><circle cx="52168" cy="38429" r="370"/><circle cx="56819" cy="43584" r="370"/><circle cx="56819" cy="39584" r="370"/><circle cx="66488" cy="37788" r="370"/><circle cx="66488" cy="38788" r="370"/><circle cx="66488" cy="39788" r="370"/><circle cx="66488" cy="40788" r="370"/><circle cx="66488" cy="41788" r="370"/><circle cx="66488" cy="42788" r="370"/><circle cx="66488" cy="43788" r="370"/><circle cx="66488" cy="44788" r="370"/><circle cx="56619" cy="36211" r="370"/><circle cx="57619" cy="36211" r="370"/><circle cx="58619" cy="36211" r="370"/></g><g fill-opacity="0" stroke-width="600" fill="none"><path d="M64780 37990h-600M62220 37990h-600M64780 36210h-600M62220 36210h-600"/></g><g fill-opacity="0" stroke-width="598.42" fill="none"><path d="M53500 37041v-583M55500 37041v-583M54500 37041v-583"/></g><g fill-opacity="0" stroke-width="629.92" fill="none"><path d="M64600 42642v315M61600 39642v315M63600 42642v315M62600 39642v315M62600 42642v315M63600 39642v315M61600 42642v315"/></g><path d="M64285 39328h630v944.8h-630z" fill-rule="evenodd" stroke="none" stroke-width="0"/><circle cx="59800" cy="39284" r="314.96" stroke="none" stroke-width="0"/><path d="M59485 37985h630v630h-630z" fill-rule="evenodd" stroke="none" stroke-width="0"/><g fill-opacity="0" stroke-width="200" fill="none"><path d="M62720 36210h1760M61920 36210h800M61920 37990h2560"/></g><g stroke-width="0" stroke="none"><circle cx="56800" cy="45200" r="68.898"/><circle cx="56800" cy="46200" r="68.898"/><circle cx="52190" cy="36392" r="68.898"/><circle cx="67544" cy="36392" r="68.898"/><circle cx="67544" cy="46235" r="68.898"/><circle cx="52190" cy="46235" r="68.898"/><circle cx="49548" cy="42232" r="68.898"/><circle cx="49548" cy="40460" r="68.898"/><circle cx="49588" cy="39062" r="68.898"/><circle cx="49588" cy="43629" r="68.898"/><circle cx="50532" cy="42724" r="68.898"/><circle cx="50532" cy="41790" r="68.898"/><circle cx="50532" cy="40902" r="68.898"/><circle cx="50532" cy="39968" r="68.898"/><circle cx="52140" cy="43234" r="68.898"/><circle cx="55140" cy="43234" r="68.898"/><circle cx="52101" cy="39548" r="68.898"/><circle cx="55101" cy="39548" r="68.898"/><circle cx="57750" cy="38500" r="68.898"/><circle cx="56750" cy="38500" r="68.898"/><circle cx="55647" cy="40917" r="68.898"/><circle cx="51647" cy="40917" r="68.898"/><circle cx="55671" cy="42084" r="68.898"/><circle cx="51671" cy="42084" r="68.898"/><circle cx="51671" cy="44400" r="68.898"/><circle cx="55671" cy="44400" r="68.898"/><circle cx="58800" cy="45200" r="68.898"/><circle cx="58800" cy="46200" r="68.898"/><circle cx="58065" cy="43584" r="68.898"/><circle cx="58065" cy="39584" r="68.898"/><circle cx="55168" cy="38429" r="68.898"/><circle cx="52168" cy="38429" r="68.898"/><circle cx="56819" cy="43584" r="68.898"/><circle cx="56819" cy="39584" r="68.898"/><circle cx="66488" cy="37788" r="68.898"/><circle cx="66488" cy="38788" r="68.898"/><circle cx="66488" cy="39788" r="68.898"/><circle cx="66488" cy="40788" r="68.898"/><circle cx="66488" cy="41788" r="68.898"/><circle cx="66488" cy="42788" r="68.898"/><circle cx="66488" cy="43788" r="68.898"/><circle cx="66488" cy="44788" r="68.898"/><circle cx="56619" cy="36211" r="68.898"/><circle cx="57619" cy="36211" r="68.898"/><circle cx="58619" cy="36211" r="68.898"/><circle cx="64480" cy="37990" r="68.898"/><circle cx="61920" cy="37990" r="68.898"/><circle cx="64480" cy="36210" r="68.898"/><circle cx="61920" cy="36210" r="68.898"/><circle cx="53500" cy="36750" r="68.898"/><circle cx="55500" cy="36750" r="68.898"/><circle cx="54500" cy="36750" r="68.898"/><circle cx="64600" cy="42800" r="68.898"/><circle cx="61600" cy="39800" r="68.898"/><circle cx="63600" cy="42800" r="68.898"/><circle cx="62600" cy="39800" r="68.898"/><circle cx="62600" cy="42800" r="68.898"/><circle cx="63600" cy="39800" r="68.898"/><circle cx="61600" cy="42800" r="68.898"/><circle cx="64600" cy="39800" r="68.898"/><circle cx="59800" cy="39284" r="68.898"/><circle cx="59800" cy="38300" r="68.898"/></g></g><defs><mask id="c"><g stroke="#fff" stroke-linecap="round" stroke-linejoin="round" fill="#fff"><g stroke-width="0"><circle cx="56800" cy="45200" r="370"/><circle cx="56800" cy="46200" r="370"/><circle cx="52190" cy="36392" r="669.29"/><circle cx="67544" cy="36392" r="669.29"/><circle cx="67544" cy="46235" r="669.29"/><circle cx="52190" cy="46235" r="669.29"/><circle cx="49548" cy="42232" r="295.28"/><circle cx="49548" cy="40460" r="295.28"/><circle cx="49588" cy="39062" r="673.07"/><circle cx="49588" cy="43629" r="673.07"/><circle cx="50532" cy="42724" r="410"/><circle cx="50532" cy="41790" r="410"/><circle cx="50532" cy="40902" r="410"/><circle cx="50532" cy="39968" r="410"/><circle cx="52140" cy="43234" r="410"/><circle cx="55140" cy="43234" r="410"/><circle cx="52101" cy="39548" r="410"/><circle cx="55101" cy="39548" r="410"/><circle cx="57750" cy="38500" r="370"/><circle cx="56750" cy="38500" r="370"/><circle cx="55647" cy="40917" r="410"/><circle cx="51647" cy="40917" r="410"/><circle cx="55671" cy="42084" r="410"/><circle cx="51671" cy="42084" r="410"/><circle cx="51671" cy="44400" r="410"/><circle cx="55671" cy="44400" r="410"/><circle cx="58800" cy="45200" r="370"/><circle cx="58800" cy="46200" r="370"/><circle cx="58065" cy="43584" r="410"/><circle cx="58065" cy="39584" r="410"/><circle cx="55168" cy="38429" r="410"/><circle cx="52168" cy="38429" r="410"/><circle cx="56819" cy="43584" r="410"/><circle cx="56819" cy="39584" r="410"/><circle cx="66488" cy="37788" r="410"/><circle cx="66488" cy="38788" r="410"/><circle cx="66488" cy="39788" r="410"/><circle cx="66488" cy="40788" r="410"/><circle cx="66488" cy="41788" r="410"/><circle cx="66488" cy="42788" r="410"/><circle cx="66488" cy="43788" r="410"/><circle cx="66488" cy="44788" r="410"/><circle cx="56619" cy="36211" r="410"/><circle cx="57619" cy="36211" r="410"/><circle cx="58619" cy="36211" r="410"/></g><g fill-opacity="0" stroke-width="680"><path d="M64780 37990h-600M62220 37990h-600M64780 36210h-600M62220 36210h-600"/></g><g fill-opacity="0" stroke-width="755.91"><path d="M53500 37041v-583M55500 37041v-583M54500 37041v-583"/></g><g fill-opacity="0" stroke-width="787.4"><path d="M64600 42642v315M61600 39642v315M63600 42642v315M62600 39642v315M62600 42642v315M63600 39642v315M61600 42642v315"/></g><path d="M64923 39249l7.6 1.1 7.5 1.9 7.3 2.6 7 3.3 6.6 4 6.2 4.6 5.7 5.2 5.2 5.7 4.6 6.2 4 6.6 3.3 7 2.6 7.3 1.9 7.5 1.1 7.6.4 7.8v944.8l-.4 7.8-1.1 7.6-1.9 7.5-2.6 7.3-3.3 7-4 6.6-4.6 6.2-5.2 5.7-5.7 5.2-6.2 4.6-6.6 4-7 3.3-7.3 2.6-7.5 1.9-7.6 1.1-7.7.4h-630l-7.7-.4-7.6-1.1-7.5-1.9-7.3-2.6-7-3.3-6.6-4-6.2-4.6-5.7-5.2-5.2-5.7-4.6-6.2-4-6.6-3.3-7-2.6-7.3-1.9-7.5-1.1-7.6-.4-7.8v-944.8l.4-7.8 1.1-7.6 1.9-7.5 2.6-7.3 3.3-7 4-6.6 4.6-6.2 5.2-5.7 5.7-5.2 6.2-4.6 6.6-4 7-3.3 7.3-2.6 7.5-1.9 7.6-1.1 7.7-.4h630z" fill-rule="evenodd" stroke-width="0"/><circle cx="59800" cy="39284" r="393.7" stroke-width="0"/><path d="M60123 37907l7.6 1.1 7.5 1.9 7.3 2.6 7 3.3 6.6 4 6.2 4.6 5.7 5.2 5.2 5.7 4.6 6.2 4 6.6 3.3 7 2.6 7.3 1.9 7.5 1.1 7.6.4 7.7v630l-.4 7.7-1.1 7.6-1.9 7.5-2.6 7.3-3.3 7-4 6.6-4.6 6.2-5.2 5.7-5.7 5.2-6.2 4.6-6.6 4-7 3.3-7.3 2.6-7.5 1.9-7.6 1.1-7.7.4h-630l-7.7-.4-7.6-1.1-7.5-1.9-7.3-2.6-7-3.3-6.6-4-6.2-4.6-5.7-5.2-5.2-5.7-4.6-6.2-4-6.6-3.3-7-2.6-7.3-1.9-7.5-1.1-7.6-.4-7.7v-630l.4-7.7 1.1-7.6 1.9-7.5 2.6-7.3 3.3-7 4-6.6 4.6-6.2 5.2-5.7 5.7-5.2 6.2-4.6 6.6-4 7-3.3 7.3-2.6 7.5-1.9 7.6-1.1 7.7-.4h630z" fill-rule="evenodd" stroke-width="0"/></g></mask></defs><defs><mask id="d"><g stroke="#000" stroke-linecap="round" stroke-linejoin="round"><g stroke-width="0"><circle cx="56800" cy="45200" r="370"/><circle cx="56800" cy="46200" r="370"/><circle cx="52190" cy="36392" r="669.29"/><circle cx="67544" cy="36392" r="669.29"/><circle cx="67544" cy="46235" r="669.29"/><circle cx="52190" cy="46235" r="669.29"/><circle cx="49548" cy="42232" r="295.28"/><circle cx="49548" cy="40460" r="295.28"/><circle cx="49588" cy="39062" r="673.07"/><circle cx="49588" cy="43629" r="673.07"/><circle cx="50532" cy="42724" r="410"/><circle cx="50532" cy="41790" r="410"/><circle cx="50532" cy="40902" r="410"/><circle cx="50532" cy="39968" r="410"/><circle cx="52140" cy="43234" r="410"/><circle cx="55140" cy="43234" r="410"/><circle cx="52101" cy="39548" r="410"/><circle cx="55101" cy="39548" r="410"/><circle cx="57750" cy="38500" r="370"/><circle cx="56750" cy="38500" r="370"/><circle cx="55647" cy="40917" r="410"/><circle cx="51647" cy="40917" r="410"/><circle cx="55671" cy="42084" r="410"/><circle cx="51671" cy="42084" r="410"/><circle cx="51671" cy="44400" r="410"/><circle cx="55671" cy="44400" r="410"/><circle cx="58800" cy="45200" r="370"/><circle cx="58800" cy="46200" r="370"/><circle cx="58065" cy="43584" r="410"/><circle cx="58065" cy="39584" r="410"/><circle cx="55168" cy="38429" r="410"/><circle cx="52168" cy="38429" r="410"/><circle cx="56819" cy="43584" r="410"/><circle cx="56819" cy="39584" r="410"/><circle cx="66488" cy="37788" r="410"/><circle cx="66488" cy="38788" r="410"/><circle cx="66488" cy="39788" r="410"/><circle cx="66488" cy="40788" r="410"/><circle cx="66488" cy="41788" r="410"/><circle cx="66488" cy="42788" r="410"/><circle cx="66488" cy="43788" r="410"/><circle cx="66488" cy="44788" r="410"/><circle cx="56619" cy="36211" r="410"/><circle cx="57619" cy="36211" r="410"/><circle cx="58619" cy="36211" r="410"/></g><g fill-opacity="0" stroke-width="680"><path d="M64780 37990h-600M62220 37990h-600M64780 36210h-600M62220 36210h-600"/></g><g fill-opacity="0" stroke-width="755.91"><path d="M53500 37041v-583M55500 37041v-583M54500 37041v-583"/></g><g fill-opacity="0" stroke-width="787.4"><path d="M64600 42642v315M61600 39642v315M63600 42642v315M62600 39642v315M62600 42642v315M63600 39642v315M61600 42642v315"/></g><path d="M64923 39249l7.6 1.1 7.5 1.9 7.3 2.6 7 3.3 6.6 4 6.2 4.6 5.7 5.2 5.2 5.7 4.6 6.2 4 6.6 3.3 7 2.6 7.3 1.9 7.5 1.1 7.6.4 7.8v944.8l-.4 7.8-1.1 7.6-1.9 7.5-2.6 7.3-3.3 7-4 6.6-4.6 6.2-5.2 5.7-5.7 5.2-6.2 4.6-6.6 4-7 3.3-7.3 2.6-7.5 1.9-7.6 1.1-7.7.4h-630l-7.7-.4-7.6-1.1-7.5-1.9-7.3-2.6-7-3.3-6.6-4-6.2-4.6-5.7-5.2-5.2-5.7-4.6-6.2-4-6.6-3.3-7-2.6-7.3-1.9-7.5-1.1-7.6-.4-7.8v-944.8l.4-7.8 1.1-7.6 1.9-7.5 2.6-7.3 3.3-7 4-6.6 4.6-6.2 5.2-5.7 5.7-5.2 6.2-4.6 6.6-4 7-3.3 7.3-2.6 7.5-1.9 7.6-1.1 7.7-.4h630z" fill-rule="evenodd" stroke-width="0"/><circle cx="59800" cy="39284" r="393.7" stroke-width="0"/><path d="M60123 37907l7.6 1.1 7.5 1.9 7.3 2.6 7 3.3 6.6 4 6.2 4.6 5.7 5.2 5.2 5.7 4.6 6.2 4 6.6 3.3 7 2.6 7.3 1.9 7.5 1.1 7.6.4 7.7v630l-.4 7.7-1.1 7.6-1.9 7.5-2.6 7.3-3.3 7-4 6.6-4.6 6.2-5.2 5.7-5.7 5.2-6.2 4.6-6.6 4-7 3.3-7.3 2.6-7.5 1.9-7.6 1.1-7.7.4h-630l-7.7-.4-7.6-1.1-7.5-1.9-7.3-2.6-7-3.3-6.6-4-6.2-4.6-5.7-5.2-5.2-5.7-4.6-6.2-4-6.6-3.3-7-2.6-7.3-1.9-7.5-1.1-7.6-.4-7.7v-630l.4-7.7 1.1-7.6 1.9-7.5 2.6-7.3 3.3-7 4-6.6 4.6-6.2 5.2-5.7 5.7-5.2 6.2-4.6 6.6-4 7-3.3 7.3-2.6 7.5-1.9 7.6-1.1 7.7-.4h630z" fill-rule="evenodd" stroke-width="0"/></g><path fill="#fff" d="M42539 34866h26736v12416H42539z"/></mask></defs><g fill="#f0f0f0" mask="url(#d)" stroke="#f0f0f0"><g fill-opacity="0" stroke-linecap="round" stroke-linejoin="round" stroke-width="60" fill="none"><path d="M67673 39477h-225l-22 225 22-23 45-22h113l45 22 22 23 23 45v112l-23 45-22 23-45 22h-113l-45-22-22-23M67651 40634v315M67538 40455l-112 337h292M67403 41477h293l-158 180h68l45 22 22 23 23 45v112l-23 45-22 23-45 22h-135l-45-22-23-23M67426 42522l22-22 45-23h113l45 23 22 22 23 45v45l-23 67-270 270h293M67696 43949h-270M67561 43949v-472l-45 67-45 45-45 23M48732 44730v-394M48732 44486l38-19h75l37 19 19 19 19 37v113l-19 37-19 19-37 19h-75l-38-19M49051 44467l94 263M49238 44467l-93 263-38 93-19 19-37 19M48863 45174h-131M48732 45380v-393h188M49238 45380v-206l-18-38-38-18h-75l-37 18"/><path d="M49238 45361l-37 19h-94l-37-19-19-37v-38l19-37 37-19h94l37-19M49182 44968l-56 56M49426 45380v-393M49426 45136l37-18h75l38 18 19 19 18 38v112l-18 38-19 18-38 19h-75l-37-19M49782 45380v-262M49782 44987l-19 18 19 19 19-19-19-18v37M50026 45380l-38-19-18-18-19-38v-112l19-38 18-19 38-18h56l38 18 18 19 19 38v112l-19 38-18 18-38 19h-56M50607 45361l56 19h94l37-19 19-18 19-38v-37l-19-38-19-19-37-18-75-19-38-19-18-19-19-37v-38l19-37 18-19 38-18h94l56 18M51057 45380l-38-19-18-18-19-38v-112l19-38 18-19 38-18h56l38 18 18 19 19 38v112l-19 38-18 18-38 19h-56M51526 45118v262M51357 45118v206l19 37 37 19h56l38-19 19-18M51676 45118h206l-206 262h206M52201 45380v-206l-19-38-38-18h-75l-37 18"/><path d="M52201 45361l-38 19h-94l-37-19-19-37v-38l19-37 37-19h94l38-19"/></g><g fill-opacity="0" stroke-linecap="round" stroke-linejoin="round" stroke-width="78.74" fill="none"><path d="M65703 46100h-100M65703 45200h-100M65703 46100v-900M64403 45200h1200M64403 46100h1200M64403 45200v900"/></g><g fill-opacity="0" stroke-linecap="round" stroke-linejoin="round" stroke-width="118.11" fill="none"><path d="M64606 45908v-472h112l68 22 45 45 22 45 23 90v68l-23 90-22 45-45 45-68 22h-112M65078 45908v-472M65393 45683v225M65236 45436l157 247 158-247"/></g><g fill-opacity="0" stroke-linecap="round" stroke-linejoin="round" stroke-width="72" fill="none"><path d="M48851 37805l-15 15-45 15h-30l-45-15-30-30-15-30-15-60v-45l15-60 15-30 30-30 45-15h30l45 15 15 15M49166 37805l-15 15-45 15h-30l-45-15-30-30-15-30-15-60v-45l15-60 15-30 30-30 45-15h30l45 15 15 15M49646 37670l45 15 15 15 15 30v45l-15 30-15 15-30 15h-120v-315h105l30 15 15 15 15 30v30l-15 30-15 15-30 15h-105M49916 37685v150M49811 37520l105 165 105-165M50126 37715h240M50501 37820l45 15h75l30-15 15-15 15-30v-30l-15-30-15-15-30-15-60-15-30-15-15-15-15-30v-30l15-30 15-15 30-15h75l45 15M50801 37745h150M50771 37835l105-315 105 315M51461 37625v210M51386 37505l-75 225h195M51626 37805l15 15-15 15-15-15 15-15v30M51836 37520h30l30 15 15 15 15 30 15 60v75l-15 60-15 30-15 15-30 15h-30l-30-15-15-15-15-30-15-60v-75l15-60 15-30 15-15 30-15"/></g><g fill-opacity="0" stroke-linecap="round" stroke-linejoin="round" stroke-width="60"><path d="M67123 38631l131 393 132-393M67742 38987l-19 19-56 18h-38l-56-18-37-38-19-37-19-75v-57l19-75 19-37 37-37 56-19h38l56 19 19 18M68136 38987l-19 19-56 18h-38l-56-18-38-38-18-37-19-75v-57l19-75 18-37 38-37 56-19h38l56 19 19 18M67538 44602h45l45 23 23 22 22 45 23 90v112l-23 90-22 45-23 23-45 22h-45l-45-22-22-23-23-45-22-90v-112l22-90 23-45 22-22 45-23M49026 46087l131 394 131-394M49401 46125l19-19 37-19h94l37 19 19 19 19 37v38l-19 56-225 225h244M50020 46481l-132-188M49795 46481v-394h150l37 19 19 19 19 37v56l-19 38-19 19-37 18h-150M50132 46087l131 394 132-394M50507 46125l19-19 37-19h94l38 19 18 19 19 37v38l-19 56-225 225h244M58806 46734l90 315 90-225 90 225 90-315M59301 46734l90 315 90-225 90 225 90-315M59796 46734l90 315 90-225 90 225 90-315M60336 47004l22 23-22 22-23-22 23-23v45M60493 46734h180M60561 47049v-405l22-44 45-23h45M60831 47049v-315M60831 46824l22-45 23-22 45-23h45M61326 47049v-247l-23-45-45-23h-90l-45 23" fill="none"/><path d="M61326 47027l-45 22h-113l-45-22-22-45v-45l22-45 45-23h113l45-22M61551 46734v315M61551 46779l22-22 45-23h68l45 23 22 45v247M61933 46734h248l-248 315h248M62361 47049v-315M62361 46577l-23 23 23 22 22-22-22-23v45M62586 46734v315M62586 46779l22-22 45-23h68l44 23 23 45v247M63013 47049v-315M63013 46577l-23 23 23 22 22-22-22-23v45M63238 46734v315M63238 46779l22-22 45-23h68l45 23 22 45v247M63665 47049v-472M63868 47049v-247l-23-45-45-23h-67l-45 23-23 22M64160 47049l-45-22-22-23-23-45v-135l23-45 22-22 45-23h68l45 23 22 22 23 45v135l-23 45-22 23-45 22h-68M64520 47004l23 23-23 22-22-22 22-23v45M64948 47027l-45 22h-90l-45-22-23-23-22-45v-135l22-45 23-22 45-23h90l45 23M65218 47049l-45-22-23-23-22-45v-135l22-45 23-22 45-23h67l45 23 23 22 22 45v135l-22 45-23 23-45 22h-67M65578 47049v-315M65578 46779l22-22 45-23h68l45 23 22 45v247M65780 46802l23-45 45-23h67l45 23 23 45v247M66208 47004l22 23-22 22-23-22 23-23v45M66433 47049v-472M66433 46757l45-23h90l45 23 22 22 23 45v135l-23 45-22 23-45 22h-90l-45-22M66860 47049v-315M66860 46824l22-45 23-22 45-23h45M58475 37926l393-131-393-132M58831 37307l19 19 18 56v38l-18 56-38 37-37 19-75 19h-56l-75-19-38-19-37-37-19-56v-38l19-56 18-19M58831 36913l19 19 18 56v38l-18 56-38 38-37 18-75 19h-56l-75-19-38-18-37-38-19-56v-38l19-56 18-19M56387 37673l394-131-394-131M56781 37279h-394M56781 37092h-394l394-225h-394" fill="none"/></g><g fill-opacity="0" stroke-linecap="round" stroke-linejoin="round" stroke-width="50" fill="none"><path d="M56120 46720v-290M56280 46580h-310"/></g><g fill-opacity="0" stroke-linecap="round" stroke-linejoin="round" stroke-width="100" fill="none"><path d="M57197 46395a800 800 0 0 0 403.1-694.6M57600 45700a800 800 0 0 0-283.2-610.7M56000 45700a800 800 0 0 0 423.5 705.9M56288 45085a800 800 0 0 0-287.8 614.6"/></g><g fill-opacity="0" stroke-linecap="round" stroke-linejoin="round" stroke-width="60" fill="none"><path d="M57168 46174a600 600 0 0 0 231.7-473.6M57400 45700a600 600 0 0 0-231.7-473.6M56200 45700a600 600 0 0 0 240 480M56451 45212a600 600 0 0 0-251.3 488.2"/></g><g fill-opacity="0" stroke-linecap="round" stroke-linejoin="round" stroke-width="80" fill="none"><path d="M48406 38983v4725M48406 38983h394M48406 43708h394M49981 42920v-3149M54640 43533h-2000M52640 43533v-300M52640 43233v-300M52640 42933h2000M54640 42933v300M54640 43233v300M52640 43233h-100M54640 43233h100M52890 43483v-500M54601 39848h-2000M52601 39848v-300M52601 39548v-300M52601 39248h2000M54601 39248v300M54601 39548v300M52601 39548h-100M54601 39548h100M52851 39798v-500"/></g><g fill-opacity="0" stroke-linecap="round" stroke-linejoin="round" stroke-width="60" fill="none"><path d="M56400 38000h1700M58100 39000h-1700M58200 38100v800M56300 38100v800M57400 38500h-50"/></g><g fill-opacity="0" stroke-linecap="round" stroke-linejoin="round" stroke-width="100" fill="none"><path d="M57350 38500v-300M57350 38500v300M57150 38200v300M57150 38500v300"/></g><g fill-opacity="0" stroke-linecap="round" stroke-linejoin="round" stroke-width="60" fill="none"><path d="M57150 38500h-50M56300 38900a100 100 0 0 0 100 100M58100 39000a100 100 0 0 0 100-100M56400 38000a100 100 0 0 0-100 100M58200 38100a100 100 0 0 0-100-100"/></g><g fill-opacity="0" stroke-linecap="round" stroke-linejoin="round" stroke-width="80" fill="none"><path d="M52406 41389v-945M52406 40444h2480M54886 40444v945M54886 41389h-2480M52431 42556v-945M52431 41611h2480M54911 41611v945M54911 42556h-2480M54911 43927v945M54911 44872h-2480M52431 44872v-945M52431 43927h2480"/></g><g fill-opacity="0" stroke-linecap="round" stroke-linejoin="round" stroke-width="50" fill="none"><path d="M58120 46720v-290M58280 46580h-310"/></g><g fill-opacity="0" stroke-linecap="round" stroke-linejoin="round" stroke-width="100" fill="none"><path d="M59197 46395a800 800 0 0 0 403.1-694.6M59600 45700a800 800 0 0 0-283.2-610.7M58000 45700a800 800 0 0 0 423.5 705.9M58288 45085a800 800 0 0 0-287.8 614.6"/></g><g fill-opacity="0" stroke-linecap="round" stroke-linejoin="round" stroke-width="60" fill="none"><path d="M59168 46174a600 600 0 0 0 231.7-473.6M59400 45700a600 600 0 0 0-231.7-473.6M58200 45700a600 600 0 0 0 240 480M58451 45212a600 600 0 0 0-251.3 488.2"/></g><g fill-opacity="0" stroke-linecap="round" stroke-linejoin="round" stroke-width="80" fill="none"><path d="M57592 40343h945M58537 40343v2481M58537 42824h-945M57592 42824v-2481M52667 38129h2000M54667 38129v300M54667 38429v300M54667 38729h-2000M52667 38729v-300M52667 38429v-300M54667 38429h100M52667 38429h-100M54417 38179v500M56346 40343h945M57291 40343v2481M57291 42824h-945M56346 42824v-2481M65988 39037v-500M65988 38537l250-250M66738 38287l250 250M66238 40287l-250-250M65988 40037v-500M65988 39537l250-250M66738 39287l250 250M66988 39537v500M66988 40037l-250 250M65988 39037l250 250M66738 39287l250-250M66988 38537v500M65988 42037v-500M65988 41537l250-250M66738 41287l250 250M66238 41287l-250-250M65988 41037v-500M65988 40537l250-250M66738 40287l250 250M66988 40537v500M66988 41037l-250 250M66238 43287l-250-250M65988 43037v-500M65988 42537l250-250M66738 42287l250 250M66988 42537v500M66988 43037l-250 250M65988 42037l250 250M66738 42287l250-250M66988 41537v500M65988 45037v-500M65988 44537l250-250M66738 44287l250 250M66238 44287l-250-250M65988 44037v-500M65988 43537l250-250M66738 43287l250 250M66988 43537v500M66988 44037l-250 250M66238 45287h500M65988 45037l250 250M66738 45287l250-250M66988 44537v500M65988 38037v-500M65988 37537l250-250M66238 37287h500M66738 37287l250 250M65988 38037l250 250M66738 38287l250-250M66988 37537v500"/></g><path d="M50459 37225l99.6-51.3 247.4 201.7 169.6-169.6-201.7-247.4 85.4-206.4 317.6-32.2v-240l-317.6-32.2-34.1-106.7-51.3-99.7 201.7-247.4-169.6-169.6-247.4 201.7-99.7-51.3-106.7-34.1-32.2-317.6h-240l-32.2 317.6-106.7 34.1-99.7 51.3-247.4-201.7-169.6 169.6 201.7 247.4-85.4 206.4-317.6 32.2v240l317.6 32.2 85.4 206.4-201.7 247.4 169.6 169.6 247.4-201.7 48.8 27.7 50.8 23.6 141.3-341-77.4-46.4-60.7-66.9-38.6-81.6-13.2-89.3 8.8-73.1 26-68.9 41.5-60.8 54.9-49.2 64.9-34.7 71.3-18.3 73.7-.8 71.7 16.8 65.7 33.2 55.9 48 42.9 59.8 27.4 68.4 10.4 72.9-7.2 73.3-24.4 69.4-40.3 61.7-117.9 86.5" fill-rule="evenodd" stroke="none" stroke-width="0"/><g fill-opacity="0" stroke-linecap="round" stroke-linejoin="round" stroke-width="80" fill="none"><path d="M57119 36461l-250 250M56869 36711h-500M56369 36711l-250-250M56119 35961l250-250M56369 35711h500M56869 35711l250 250M58869 36711h-500M58369 36711l-250-250M58119 35961l250-250M58119 36461l-250 250M57869 36711h-500M57369 36711l-250-250M57119 35961l250-250M57369 35711h500M57869 35711l250 250M59119 36461v-500M58869 36711l250-250M59119 35961l-250-250M58369 35711h500M56119 36461v-500"/><circle cx="63200" cy="37100" r="700"/><path d="M64400 37504v-804M62000 37492v-792M64050 35900h-1700M62350 38300h1700"/></g><g fill-opacity="0" stroke-linecap="round" stroke-linejoin="round" stroke-width="47.244" fill="none"><path d="M53791 37478h1417M55209 37478a1016.2 1016.2 0 0 0 129.6-153.9M55343 36169a1023.6 1023.6 0 0 0-842.6-442.4M54500 35726a1023.6 1023.6 0 0 0-842.6 442.4M53666 37330a1016.2 1016.2 0 0 0 125.8 148.4M65123 40906v-492M65123 40414h-4047M61076 40414v1771M61076 42185h4047M65123 42185v-492M65147 39233h-4095M61052 39233v4133M61052 43366h4095M65147 43366v-4133M65124 40906a393.7 393.7 0 0 0 0 787.4"/></g><g fill-rule="evenodd" stroke-linecap="round" stroke-linejoin="round" stroke-width="3.937"><path d="M65758 44358l42 34 36.7 42.3 4.7 7.1 11.2 19.5 8.3 20.1 5.7 25.1 3.7 34.6 2 48.7.8 67.3.2 90.5v2.5l-.2 91.1-.8 67.8-2 49.1-3.6 34.9-5.6 25.3-8.2 20.1-11.2 19.5-.3.5-34 42-42.3 36.7-7.1 4.7-51.4 31.9-2979.1 2.3-341.4.2-324.5.1-307-.1-288.6-.2-269.5-.3-249.8-.4-229.2-.6-207.8-.7-185.9-.8-163-.9-139.5-1-115.2-1.1-90.2-1.2-64.4-1.3-37.9-1.5-10.3-1-52.8-27.1-49.8-45.7-14.9-21.4h4961.1l72.9-4.2 73-4.2 4-121.5 4-121.6h248.9v250h152.8v-312.5h93.9l8.4 84.5 26.9 78.2 45.8 66.4 24.5 22.5 78.5 46 87.6 22.2 91-2.4 88.2-27.3 9.1-4.5 65.9-48.4 50.1-66.7 32.8-79.6 14-86.8-6.4-88.8-28.1-85.1-2.5-5.1-50.3-70.8-66.5-51.5-77.9-30.9-84.3-9.2-85.8 14-77.8 35.3-61.6 53.2-44.6 69.5-27.4 80.1-9.6 85.2h-93.9v-326.3h-152.8v250h-248.9l-4-121.6-4-121.5-73-4.2-72.9-4.2v641.8h-4961.1l-23.8-34.1-15.7-39-6.1-39.8-4-63.2-1.7-82.3.8-96.1 2.1-84.9 2.6-62.3 3.7-44.5 5.5-31.8 8-24.1 11.2-21.4 3.5-5.7 9-11.1h7.7v638.8h152.8v-250h208.3v-125h-208.3v-138.8h222.2v-125h97.2v638.8h152.8v-237.9l38 4.4 21.1 6.4 21.1 17.2 25.2 32.2 33.2 51.7 7.1 11.7 69.6 114.8 318.1-7.4 41.2-133 111.6 4 111.5 4 18.6 66 18.6 65.9h84l47.5-1.3 24.4-5 5.7-9.5-.8-3.2-6.7-18.1-14.5-40.3-21-58.5-26-72.8-29.7-83.1-16.7-46.6-107.2-300.4h295.5v638.8h138.9l.7-437.5 284 436.6 79.9.5 79.9.4v-28.7h70l6.9 17.5 1.8 2 16.2 2.9 39.4 2.6 58.1 2 72.2 1.3 78 .4h254.6v-125h-152.8l-61.4-.6-49.6-1.6-32.2-2.4-9.6-2.4 7.8-12.9 21.7-31.7 33-46.9 41.7-58.4 48-66.3.6-.8 60.4-84.6 44.1-65.4 29.1-48.4 15.6-33.8 3.6-17.8v-39.8h83.3v638.8h152.8v-638.8h125v638.8h152.8l.3-211.8.2-211.8 278.6 423.6h151.4v-638.8h138.9v638.8h152.8v-638.8h125v638.8h152.8l.4-423.6 276.4 423.6h153.7v-638.8h-138.1l-3.9 209.5-3.8 209.5-273.6-419h-719.5l-.5 423.6-278.6-423.6h-1026.4v124l293.4 7.9-160.6 214.2-62.5 84.9-45.9 66.2-30.6 50.3-16.8 36.8-4.2 25.8h-70v-610.1h-152.8l-.3 204.8-.4 204.9-134.4-204.9-134.4-204.8h-543.4l-50.3 1.5-29.2 5.8-14.4 11.7-2.6 5.3-7.6 20.2-15.4 41.9-21.6 58.9-26.1 71.4-28.9 79.5-.9 2.4-29.2 80.3-26.7 73.1-22.3 61.3-16.4 44.6-8.6 23.3v.1l-6.9 13.9-8.7 1.9-13.9-13.2-22.4-31.1-28-42.4-34.4-50.6-32.6-44.5-25.3-30.9-6-6.1-20.4-20.4-.4-9.7 18.6-7.4 27.4-16.3 31-28.6 5.3-6.1 24.1-37.1 10.1-43.2 1.1-30.5-6-60.5-19.7-46.2-36.2-33.4-55.1-22.2-76.6-12.5-100.8-4.2h-643.8l25-30.9 42.3-36.7 7.1-4.7 51.3-31.9h6000z"/><path d="M65558 44561l35.1 20.5 17.5 16.7 20.5 23.4 12.2 22.7 6 30 1.9 45.5.2 32.4-.6 55.9-3.2 36-8.3 23.9-15.6 19.7-17.7 16.3-53 31.7-58.3 9.3-55.5-13.9-15.4-9.2-36.1-40.4-24.9-58.4-10-67.9v-5.1l9.8-77.3 28.3-59.5 45.2-39.4 60.3-17.5 16.6-.7zM60898 44612l13.8 24.7 18 46.1 1.4 4.2 16.2 48.5 11.8 38.1 5.1 20.2.1.9-12.5 6.4-32 4-25 .8-39.6-.9-25.1-2.2-4.7-1.7 4.1-14.6 10.6-32.6 14.2-42.3 15-43.7 13-37 7.3-19.5zM60314 44551l36.2 25.6 15.2 37-8.5 44.1-11.4 19.6-25.4 22.5-39.4 8.1-11.5.2h-54.8v-166.6h45.5zM60672 43019h-1940.7v-618.8h173.5l8.3 7 6.3 5 9.7 7.4 11.4 8.4 4.8 3.4 12 8.7 11.3 8.2 8.9 6.4 2.3 1.7 7.5 5.5 10.6 7.8 11.8 8.5 3.5 2.6 13 9.4 15.4 11.2 15.4 11.3 6.5 4.8 11.4 8.2 9.7 6.6 6.7 4.2 2.5 1.2 3.6 2.2.1.2 2.9 2.8 7 5.6 10 7.6 11.9 8.8 12.8 9.1 6.4 4.5 5.9 4.1 9.7 7.1 12.4 9 13.7 10.1 4.5 3.3 17.2 12.7 19.3 14.1 19 13.9 15.8 11.5 11.3 8.2 11.1 8 11.6 8.5 13 9.5 15.1 10.9 17.9 13.1 21.4 15.6 25.7 18.7.2.1 11.4 8.4 10.4 7.7 7.7 5.8 1.8 1.4 6.6 4.9 9.9 7 11.1 7.7 1.7 1.1 10.5 7.3 8.9 6.4 5.7 4.3.6.5 5 4 8.3 6 7.3 5.2 10.7 7.4 10.4 7.4 5.4 3.9 6.4 4.8 10.2 7.5 12.6 9.2 13.8 10.1 2.8 2.1 15.8 11.5 18.8 13.8 19.6 14.4 18.5 13.6 4.9 3.5 14.3 10.4 12.7 8.9 10.2 6.8 6.8 4.1 2.3 1 5-1.6 7.2-4.3 1.9-1.2 6.4-4.8 10.1-7.4 12.3-9 12.4-9 13.5-9.9 13.1-9.5 11-8.1 6.8-5 5.4-3.9 6.2-4.6 7.7-5.6 9.8-7.2 12.7-9.2 16.2-11.7 20.3-14.8 8.5-6.1 12.1-8.8 10.7-7.8 8-5.8 3.6-2.6 4.5-3.2 8.6-6.3 11.8-8.5 13.9-10 11.7-8.5 41.9-30.3 36.9-26.7 32.1-23.2 27.3-19.8 22.7-16.6 18.2-13.2 13.8-10.1 9.4-7 5-3.8 8-6.1 11.2-8.3 12.4-8.9 4.5-3.3 12.9-9.1 15.5-11.3 16.2-11.8 11.2-8.3 14.6-10.7 15-10.8 13.6-9.7 8.7-6 11.2-7.8 10.4-7.5 7.6-5.6.4-.3 13.5-10.2 17.2-12.7 19.8-14.2 16-11.4 12.1-8.7 13.4-9.7 13.4-10 12.3-9.1 9.6-7.4 5.5-4.4 7.9-6.6-7.9-6.1-6.4-4.8-10.3-7.7-13.1-9.6-14.6-10.6-15.1-11-14.3-10.2-12.3-8.9-6.2-4.3-9.5-6.8-7.6-5.7-4.2-3.4-5-3.9-7.3-5-.6-.4-7.4-5.1-10.5-7.4-11.9-8.7-11.6-8.5-9.4-7.1-4.4-3.5-4.7-3.7-8.5-6.2-10.7-7.7-6.9-5-12-8.5-11-7.9-8.4-6-2.9-2-6.3-4.6-9.8-7.1-11.6-8.4-6.7-4.9-11.6-8.5-10.4-7.5-7.7-5.5-2.6-1.9-5.7-4.1-8.9-6.5-10.5-7.8-2.7-2-11.3-8.3-10.7-7.9-8.2-5.9-1-.7-17.4-12.3-12.9-9.2-9.1-6.6-6.1-4.4-3.6-2.9-.3-.2-5.9-4.5-7.7-5.4-.4-.2-7.1-4.8-5.1-3.7-.2-.2-4.3-3.4-7.9-5.9-10-7.4-10.8-7.8-10.1-7.3-.5-.4-11-7.8-14.4-10.5-16.5-12-17-12.5-10.1-7.4-11.3-8.3-14.6-10.6-15.8-11.4-14.6-10.5-15-10.8-15.4-11-13.8-10.1-10.5-7.6-28.4-20.9-23.6-17.3-19-13.9-14.6-10.5-10.4-7.4-3.2-2.2-13.2-9-13.3 9-7.9 5.6-11.4 8.1-13.1 9.5-10.5 7.7-12.4 9.1-11.1 8.2-8.6 6.2-4.4 3.1-4.6 3.2-8.7 6.3-11.9 8.7-14.2 10.4-15.6 11.5-.7.4-15.8 11.7-14.6 10.7-12.5 9.1-9.4 6.9-5.4 3.8-6.5 4.6-9.8 7.1-11.6 8.4-5.5 4.1-11.1 8-14.7 10.6-16.7 12.1-17.3 12.5-10.1 7.4-16.7 12-16.9 12.3-15.6 11.2-12.8 9.4-6.1 4.4-11.6 8.4-11 8-8.4 6.1-1.8 1.3-7 5.1-10.3 7.5-11.8 8.7-5 3.7-12 8.8-11.5 8.4-9.1 6.5-2.6 1.9-7.6 5.4-10.7 7.8-12.1 8.8-4.9 3.6-11.8 8.7-10.3 7.5-10.1 7.4-11.5 8.3-14.1 10.2-12.6 9.1-13.7 10-15.4 11.3-13.1 9.7-11.1 8.2-10.4 7.4-7.7 5.4-1.1.7-7.2 4.8-5 3.7-.3.2-3.6 2.8-7.7 5.7-10.5 7.6-12.3 8.9-.3.2-21.8 15.8-19.5 14.1-16.5 12.1-12.9 9.6-8.6 6.5-1.4 1.1-6.8 5.5h-173.5v-618.8H60672z"/><path d="M59381 42211l.4.1 7.2 2.2 3.8 1.9 4.4 1.9 8.7 2.7 10.3 3 12.3 3.5 15.7 5 17.4 5.7 17.1 5.9 14.8 5.4 10.2 4 6.8 2.7 10.4 4.1 11.9 4.7.6.2 9.7 4 13.1 5.7 15.5 6.8 16.6 7.6 16.4 7.6 15.1 7.1 12.6 6.1 8.8 4.5 3.2 1.7 8.4 5.1 11.7 6.8 12.9 7.2 11.8 6.5 6.6 3.4 9.8 5.3 8.9 5.3 1.6 1.1 5.2 3.5 9.3 6.3 12.5 8.4 14.5 9.7 11.8 7.9 38.1 26.3 33.7 24.8 30.5 24.4 19.8 16.9 11 9.7 10.4 9.1 8.1 7.1 2.5 2.2 6.8 6.2 9.2 8.9 11 10.8 11.9 11.9 12 12.2 11.1 11.5 9.6 10.2 7.3 7.8 3.9 4.7.5.9-1.9 4.4-5.2 7.8-7.5 10.3-9.1 11.6-9.7 11.6-9.4 10.6-3.2 3.4-14.4 13.9-16.4 14.5-16.7 13.6-15.2 11.2-6.9 4.5-27.9 15.3-30.2 13.5-30.4 11.1-28.5 7.6-7.3 1.4-13.5 2-16.8 1.7-18.4 1.4-18.5 1-16.8.6h-13.6l-7.8-.6-7.6-1-11.5-1.6-13.1-1.8-2.1-.3-15.7-2.8-17.8-4.3-16.3-4.8-1.2-.4-13.6-5.1-15-6.1-14.8-6.5-13.2-6.2-9.9-5.2-4.4-2.8-4.4-3.1-7.4-5-13.2-8.8-10.1-6.9-1.6-1.1-6.8-5.5-9.7-8.6-11.3-10.6-11.9-11.6-11.2-11.2-9.3-9.8-6.4-7.2-1.3-1.8-12.6-18.8-9.8-15.2-7.7-12.6-6.4-11.6-3.1-6-5.1-10.2-3.7-8.1-1.6-4.3v-.2l-1.3-4-3.1-7.5-1.9-4.1-3.1-8.4-3.8-12.7-3.9-15.2-3.3-14.4-6.8-47.1-.7-47.3 5.4-47 11.5-46.4 17.4-45.2 7-14.6 5.4-10.2 4-5.6 3.6-2.1zM59752 42034l22.8 4.4 24.9 6.8 25.5 8.7 24.3 9.8 21.3 10.5 15.8 9.6 6.7 4.4 4.3 2.2h.4l4.7 2.2 8 5.9 10.6 8.8 12.1 10.9 12.9 12.2 12.7 12.5 11.7 12.2 9.8 10.9 7 8.7 1.7 2.6 5.8 8.4 5.1 6.4 5.7 8.1 7.1 12.5 7.9 15.7 8.1 17.3 7.6 17.6 6.4 16.5 3.5 10.4 6.4 22.7 4.6 20.6 2.8 20.4 1.3 21.9.1 25.4-.4 15.8-1.4 26.1-2.1 22.2-2.8 17.8-3.3 12.7-3.9 7.1-3.2-.9-6.6-4.9-9-8-9-8.7-12.6-12.3-15.4-14.4-16.1-14.7-13.7-12.1-12.4-10.7-11-9.6-8.6-7.6-5.1-4.7-.6-.6-5.2-4.5-8.1-6.5-6.4-4.8-10.1-7.6-12.4-9.5-11.6-9-14.8-11-18.9-13.3-21.8-14.6-23.3-15.3-23.6-14.9-22.6-13.9-20.2-11.9-14.9-8.2-9.5-5.2-7.7-4.3-3.1-1.8-4-2.2-8.5-4.2-11.9-5.8-14.2-6.8-15.4-7.3-15.3-7.3-14.2-6.7-11.9-5.5-3-1.4-21.2-9.1-26.4-10.3-30.6-11.3-41.5-14.5-14.4-5.1-11.3-4.1-7.1-2.7-2-.9.8-3.1 5.4-5.7 8.9-7.6 11.6-8.9 13.4-9.5 14.3-9.4 14.3-8.8 11.3-6.3 43.8-19.7 45.8-13.7 47.4-7.7 49-1.8z"/></g><g fill-opacity="0" stroke-linecap="round" stroke-linejoin="round" stroke-width="47.244" fill="none"><path d="M60803 38792h-2007M60803 38807h-2007M60803 38823h-2007M60803 38839h-2007M60802 38855h-2005M60801 38870h-2003M60799 38886h-1999M60798 38902h-613M59414 38902h-613M60796 38918h-611M59414 38918h-611M60794 38933h-609M59414 38933h-609M60791 38949h-606M59414 38949h-606M60789 38965h-604M59414 38965h-604M60786 38981h-601M59414 38981h-601M60783 38996h-598M59414 38996h-598M60779 39012h-594M59414 39012h-594M60776 39028h-591M59414 39028h-591M60772 39044h-587M59414 39044h-587M60768 39059h-583M59414 39059h-583M60763 39075h-578M59414 39075h-578M60759 39091h-574M59414 39091h-574M60754 39107h-569M59414 39107h-569M60748 39123h-563M59414 39123h-563M60743 39138h-558M59414 39138h-558M60737 39154h-552M59414 39154h-552M60731 39170h-546M59414 39170h-546M60725 39186h-540M59414 39186h-540M60718 39201h-533M59414 39201h-533M60711 39217h-526M59414 39217h-526M60703 39233h-518M59414 39233h-518M60696 39249h-511M59414 39249h-511M60688 39264h-503M59414 39264h-503M60679 39280h-494M59414 39280h-494M60670 39296h-485M59414 39296h-485M60661 39312h-476M59414 39312h-476M60652 39327h-467M59414 39327h-467M60642 39343h-457M59414 39343h-457M60631 39359h-446M59414 39359h-446M60621 39375h-436M59414 39375h-436M60610 39390h-425M59414 39390h-425M60598 39406h-413M59414 39406h-413M60586 39422h-401M59414 39422h-401M60573 39438h-388M59414 39438h-388M60560 39453h-375M59414 39453h-375M60546 39469h-361M59414 39469h-361M60532 39485h-347M59414 39485h-347M60517 39501h-332M59414 39501h-332M60501 39516h-316M59414 39516h-316M60485 39532h-300M59414 39532h-300M60468 39548h-283M59414 39548h-283M60451 39564h-266M59414 39564h-266M60432 39579h-247M59414 39579h-247M60412 39595h-227M59414 39595h-227M60392 39611h-207M59414 39611h-207M60370 39627h-185M59414 39627h-185M60347 39642h-162M59414 39642h-162M60322 39658h-137M59414 39658h-137M60296 39674h-993M60268 39690h-937M60237 39705h-875M60204 39721h-809M60167 39737h-735M60126 39753h-653M60078 39768h-557M60020 39784h-441M59939 39800h-279M59800 37433v473M60055 37670h-511M59336 39700a1019.7 1019.7 0 0 0 929.1-.1M59335 37884a1019.7 1019.7 0 0 0 .1 1815.5"/><path d="M60264 39700a1019.7 1019.7 0 0 0 .1-1815.5"/></g><g fill-rule="evenodd" stroke-linecap="round" stroke-linejoin="round" stroke-width="3.937"><path d="M67869 37539l90.7.6 85.7.9 78.4 1.2 68.8 1.6 56.9 1.9 42.7 2.2 26.3 2.6 6.7 1.5 17.8 10 13.5 13.4 9.8 19.3 6.7 28.1 4.1 39.4 2.1 53.5.7 70.1v19.3l-.4 74.5-1.8 57.1-3.5 42.5-6 30.5-9.1 21.2-12.5 14.5-16.8 10.6-4.6 2.2-16.4 2.9-33.9 2.5-49.3 2.1-62.4 1.8-73.2 1.4-81.8 1-88.1.7-92.2.3-93.9-.1-93.5-.4-90.8-.7-85.8-1.1-78.5-1.5-69.1-1.7-57.3-2.1-43.2-2.5-27-2.7-7.8-2-16.6-10.7-12.5-13.2-9-18.5-6.1-26.6-3.8-37.4-1.9-51-.8-67.4v-.6h143.3l14.1 48.5 27 39.2 37.8 26 13.6 4.8 27.9 4.3 36.7 1.3 39.1-1.4 21-2.3h459.1l92.5-1.7 49.7-2.5 40.7-5 26.5-6.8 2.2-1 22.8-15.7 21.3-20.9 15.2-20.8 4.5-15.2-.7-1.9 2-11.8 3.1-2.6 10.3-17.1.2-28.2-8.5-34.3-15.7-35.1-21.4-31-9-9.2-14-11.3-15.8-7.5-22.1-4.7-33-3-46.4-2-104.4-3.8v293.1h-459.1l13.8-1.5 24.1-5.8 5.2-2.9 14.4-5.9 5 1.9 3.1-6 2.3-21.6 1.1-33.1.1-9.4v-76.7h-150v28l1.8 18.5 9.2 6.6 22.8-1.1 1.2-.1 23.4-1.4 9.6 6.5 2 19.5v3.7l-1.2 21.1-7.6 7.8-19.9-1.2-7.5-1.2-40.5-14.1-29.7-25.2-16.2-32.2-.3-35.3 6.5-17.1 15.7-25 15.5-17.7 27.6-12 35.8-2.4 34.5 7.3 16.1 8.8 23.2 15 12.6-1 4.9-18.4.5-16.7-1.8-23.4-7.9-15.3-17.6-9-18.5-3h105.8v290h80l.5-97.5.4-43.8 1.3-26.3 2.5-11 4.1 1.8 4.2 7.8 10.9 20.7 18.2 31.5 22.1 36.3 5.6 9 22.2 34.8 15.8 21.1 13.6 10.9 15.6 4.1 20.3.6h42.7v-290h-70l-.1 87.5-.2 41.4-.9 24-2.4 9.1-4.5-3.4-7.4-13.3-.2-.3-13.7-24.3-20-33.3-18.7-29.8-36.9-57.4-105-.2h-105.8l-12.4-2-40.2-2.5-63.9 4-50.3 18.3-36.5 32.3-22.1 45.9-4.4 20.5-.7 54.1h-143.3v-23.6l.2-74.8 1.6-57.4 3.4-42.8 5.9-30.7 8.8-21.4 12.3-14.7 16.5-10.6 5.6-2.7 16-2.7 33.8-2.4 49.2-2.1 62.3-1.8 73.3-1.4 81.8-1.1 88.2-.7 92.2-.5 94.1-.1z"/><path d="M68086 37718l31.9 20.6 24.8 27.3 6.2 11.7 7.1 25.2-4.3 22.5-6.3 13.3-23.3 29.1-32.5 22.2-33.6 9.8-3.2.1-8.4-2-5.3-8.3-2.9-18.4-1.2-32.1-.2-34.2.3-44.2 1.4-27.8 3.4-15.3 6-6.4 8.9-1.3zM57339 37181l.6-90.7.9-85.7 1.2-78.4 1.6-68.8 1.9-56.9 2.2-42.7 2.6-26.3 1.5-6.7 10-17.8 13.4-13.5 19.3-9.8 28.1-6.7 39.4-4.1 53.5-2.1 70.1-.7h19.3l74.5.4 57.1 1.8 42.5 3.5 30.5 6 21.2 9.1 14.5 12.5 10.6 16.8 2.2 4.6 2.9 16.4 2.5 33.9 2.1 49.3 1.8 62.4 1.4 73.2 1 81.8.7 88.1.3 92.2-.1 93.9-.4 93.5-.7 90.8-1.1 85.8-1.5 78.5-1.7 69.1-2.1 57.3-2.5 43.2-2.7 27-2 7.8-10.7 16.6-13.2 12.5-18.5 9-26.6 6.1-37.4 3.8-51 1.9-67.4.8h-.6v-143.3l48.5-14.1 39.2-27 26-37.8 4.8-13.6 4.3-27.9 1.3-36.7-1.4-39.1-2.3-21v-459.1l-1.7-92.5-2.5-49.7-5-40.7-6.8-26.5-1-2.2-15.7-22.8-20.9-21.3-20.8-15.2-15.2-4.5-1.9.7-11.8-2-2.6-3.1-17.1-10.3-28.2-.2-34.3 8.5-35.1 15.7-31 21.4-9.2 9-11.3 14-7.5 15.8-4.7 22.1-3 33-2 46.4-3.8 104.4h293.1v459.1l-1.5-13.8-5.8-24.1-2.9-5.2-5.9-14.4 1.9-5-6-3.1-21.6-2.3-33.1-1.1-9.4-.1h-76.7v150h28l18.5-1.8 6.6-9.2-1.1-22.8-.1-1.2-1.4-23.4 6.5-9.6 19.5-2h3.7l21.1 1.2 7.8 7.6-1.2 19.9-1.2 7.5-14.1 40.5-25.2 29.7-32.2 16.2-35.3.3-17.1-6.5-25-15.7-17.7-15.5-12-27.6-2.4-35.8 7.3-34.5 8.8-16.1 15-23.2-1-12.6-18.4-4.9-16.7-.5-23.4 1.8-15.3 7.9-9 17.6-3 18.5v-105.8h290v-80l-97.5-.5-43.8-.4-26.3-1.3-11-2.5 1.8-4.1 7.8-4.2 20.7-10.9 31.5-18.2 36.3-22.1 9-5.6 34.8-22.2 21.1-15.8 10.9-13.6 4.1-15.6.6-20.3v-42.7h-290v70l87.5.1 41.4.2 24 .9 9.1 2.4-3.4 4.5-13.3 7.4-.3.2-24.3 13.7-33.3 20-29.8 18.7-57.4 36.9-.2 105v105.8l-2 12.4-2.5 40.2 4 63.9 18.3 50.3 32.3 36.5 45.9 22.1 20.5 4.4 54.1.7v143.3h-23.6l-74.8-.2-57.4-1.6-42.8-3.4-30.7-5.9-21.4-8.8-14.7-12.3-10.6-16.5-2.7-5.6-2.7-16-2.4-33.8-2.1-49.2-1.8-62.3-1.4-73.3-1.1-81.8-.7-88.2-.5-92.2-.1-94.1z"/><path d="M57518 36964l20.6-31.9 27.3-24.8 11.7-6.2 25.2-7.1 22.5 4.3 13.3 6.3 29.1 23.3 22.2 32.5 9.8 33.6.1 3.2-2 8.4-8.3 5.3-18.4 2.9-32.1 1.2-34.2.2-44.2-.3-27.8-1.4-15.3-3.4-6.4-6-1.3-8.9zM53025 46875h-233.3v266.7h-58.4v-152.5l.5-61.5 1.3-46 2.3-31.5 3.3-18.3 2.6-5.2 11.3-4.3 24.7-3 39-1.9 54.4-.8h152.3zM53277 46817l35.8.5 24.7 1.4 16.6 2.5 11.1 4.1 8.6 6.1 7 6.7 11.2 12.7 6 13.2 2 18.7-.9 29.4-.3 6.2-2.5 31.8-4.2 20.6-8 14.7-13.7 14.1-2.1 1.9-23.2 16.7-23.6 11.2-5.2 1.4-24.8 4.9 35.5 30.2 25.6 22 25 21.9 10.1 8.9 25.1 22.7-42.3.2-20.2-.5-16.2-3.3-16.2-7.9-20.2-14.8-28.1-23.5-4.6-3.9-38.5-30.8-28.5-18-17.8-5.4-14.6-2-5.9-9.5-1.1-17.6v-29.2h78.6l43.6-1 29.7-4 18.3-8.6 9.5-14.9 3.4-22.6.3-12v-36.9h-208.4v266.7h-58.3v-152.5l.4-61.5 1.3-46 2.3-31.5 3.3-18.3 2.7-5.2 11.5-4.4 25.1-3 39.6-1.9 55.2-.7h10.6zM53745 46819l20.6 3.6 5.8 2.9 4.5 6.7 3.2 13 2.3 21.4 1.3 32.2.7 44.9.1 45v153.2h-58.3v-83.4h-208.3v83.4h-58.4v-101.6l1.6-58.8 1.5-12.8h55.3v31.5h208.3v-125h-67.1l-54.9 3.8-40.8 11.7-27.4 20.2-14.8 29.1-3.3 28.7h-55.3l3.9-32.4 10.2-34.7 16.2-26.9 22.9-22.2 12.8-9.1 15.9-9.7 15.5-6.5 19.1-4.2 26.5-2.6 37.8-1.6 17.9-.6 50-.6zM53884 46814l17.3 15.9 25.2 24.2 31.2 30.8 35.3 35.6 6.5 6.6 116.6 118.7.2-114.6.3-114.5h58.3v149.3l-.3 48.9-.7 43.8-1.2 35.5-1.4 24.4-1.5 9.9-7.2 11.3-10.9 3.2-15.7-6-21.9-15.8-29.3-26.6-37.9-38.2-26-27.2-33.9-35.6-30.2-30.9-24.7-24.4-17.1-16-7.6-5.6-2.8 7.8-2.2 21.4-1.7 32.1-.8 39.6v124.1h-50V46985l.3-59.4 1.1-44.7 2.2-32 3.6-21.3 5.3-12.5 7.2-5.7 6.8-1.1zM54420 46817l39.6 1 27.4 1.8 17.5 2.8 9.7 4 2.5 2.2 4.3 6.2 1.3 6.8-3 9.1-8.5 13.3-15.4 19.3-23.4 27.1-32.7 36.7-20.1 22.4-31 34.8-26.7 30.4-20.5 23.9-12.6 15.3-3 4.6 7.8 1.9 21.1 1.5 31.3 1 35.6.3h95.9v58.4h-135.9l-58.5-.5-42.8-1.6-28.3-2.8-14.5-3.9-1.7-1.2-8.9-14.6-1.1-5.9 5.3-9.4 14.9-19.4 22.5-27.3 28.4-33 28.6-32.2 99.8-110.7-199.5-4.7v-57.8h140.6zM54633 47142h-58.3v-325h58.3zM54733 46815l10.7 6.1 15.2 12.5 21.4 20.3 29.3 29.6 38.9 40.2 2.6 2.7 115.1 119.7.3-114.6.3-114.5h58.7l-2.3 160.4-.9 62.5-1.8 47.1-4 32.2-7.6 17.7-12.5 3.7-19-9.8-26.7-22.8-35.9-35.5-43.5-44.5-112.2-115.2-.3 114.6-.4 114.6h-58.3v-158.1l.1-55 .4-40.7.9-28.7 1.8-19.1 2.8-11.8 4.1-6.9 5.8-4.3 2-1.1 7-2.4zM55150 47142h-58.3v-325h58.3zM55267 46826l26.6 22.8 35.9 35.3 39 39.6 35.7 36.1 31.6 31.6 25.8 25.4 18 17.4 8.5 7.7.4.2 1.1-7.9 1-21.4.7-32.1.4-39.6v-124h50.3l-2.2 160.4-1 63.1-1.8 47.2-4 31.9-7.7 17.2-12.6 2.8-19.1-11-26.9-24.2-36.1-37.1-35.4-37.4-34-35.6-30.3-30.9-24.6-24.5-17.1-16.1-7.6-5.8-2.4 7.8-2 21.4-1.5 32.1-.7 39.6v124.1h-50v-222l.9-48.6 3.3-33.1 7-18.2 12.2-4zM55675 46950h208.3v-133.3h58.4v325h-58.4v-133.4H55675v133.4h-58.3v-325h58.3zM56226 46814l38.4 7.1 28.5 13.6 21.8 21.6 16 26.4 14.6 43.4 5.2 49.9-4.1 50.1-13.5 43.5-2.4 4.8-17.6 27.3-21.3 19.1-28.1 12-38 6.4-51.1 2h-4.1l-39.6-.5-27.2-1.7-19.2-3.9-15.5-6.7-11.6-7.3-28-25.2-18.1-32.2-9.2-41.9-1.1-47h57l3.4 47.9 10.4 33.8 18 20.7 20.5 8.1 36.6 4.1h39.7l36.2-4 22.3-6 22-12.2 13.9-16.8 7.5-25 2.7-36.7.2-13.2-.9-33.1-3.6-21.9-7.5-16.2-8.1-10.6-10.5-11.1-10.9-6.9-15.4-3.7-24.1-1.4-34.3-.3-36.7.5-24.2 1.8-16.2 4.2-12.2 7.4-7.3 6.3-11 12-6.5 13.2-3 19.2-.9 30-.1 9.9h-57l-.2-7.2.1-2.7 2.5-38.1 4.5-26.4 7.5-19.7 7.9-12.6 20.8-24.4 23.8-16.5 30.3-9.8 40.6-4.6 35.9-.8z"/><path d="M53000 47008h-183.3v-58.3h183.3zM54572 45156l15.3 17.6 22.3 26.9 27.6 34.3 31.3 39.8 9.7 12.5 38.4 50 28.3 38.6 19 28.3 10.4 19.4 2.7 11.8-4.5 5.4-5.3.8-7.2-6.3-15.7-17.4-22.4-26.4-27.5-33.5-30.8-38.6-.6-.7-30.7-38.8-27.4-33.9-22.2-27.1-15.4-18.1-6.9-7.1-7.7 4.4-18.8 13.4-27.8 20.7-34.8 26.5-40.1 30.8-43.2 33.6-44.4 34.8-43.7 34.5-41 32.6-36.3 29.2-29.6 24.3-21.1 17.8-10.5 9.8-.9 1.2 4.4 8.5 13.6 18.6 21 26.4 26.7 31.8 16.4 19.1 32.2 36.8 23.6 26 16.9 16.8 12.5 9.5 10.2 3.8h10l6.6-1.1 34 .4 27.6 12.6 20 21.6 11.3 27.1 1.4 29.2-9.5 28-21.5 23.4-13.6 7.9-31.6 11.1-25.7-1.8-25.4-15.2-5.7-4.9-21.6-29.5-3.3-18.4h28.8l10.1 19.7 17.5 13.8 22 4.9 23.5-7.2 9-6.8 13-21.1.6-24.2-9.9-22.2-18.4-15.1-17.2-3.6-20.4 5.8-15.8 10.9-13.7 22.5-.3 22.6h-28.8l-3.1-17 6.6-32.9.6-9.1-5-12.5-11.8-18-20.1-25.5-29.7-35-10.8-12.4-29.4-33.1-26-28.1-20.5-20.9-12.8-11.6-2.9-1.5-9.5 4.8-19.3 13.1-26.1 18.9-30.1 22.6-31.1 24-29.1 23.2-24.4 20-16.5 14.7-5.8 6.9 4.9 8.1 14 19 21.5 28.1 27.7 35.2 32.2 40.3 16.5 20.6 46.6 56.6 37.5 43.4 28.3 30 19 16.6 6.5 3.4 15.8.5 15.9-8.8 16.6-16 20.3-18.7 18.8-8.6 25.5-2.1h.3l29.3 3.1 20.1 10.6 5.3 5.1 19.4 30.9 5 32.3-8 30.3-19.5 25-29.5 16.4-30.5 4.7-28.7-7-25.4-18-16-24.2-1.4-4.4-7.1-14.4-15.2-6.8-13.9-1.8-10.6-1.6-10.1-3.7-6.8-4.6h93.4l3.9 21.8 13.6 18.1 19.8 11.5 22.7 2 22-10.2 3.5-3.2 9.7-17.8 3.4-19.5-6.8-24.2-17.1-15.8-22.9-6-23.8 5.1-18.7 15.5-9.3 22.7h-93.4l-4.6-3.1-14.3-13-18.7-20.1-24.7-28.7-32.4-38.9-29.9-36.2-34.8-42.4-31.5-38.1-26.4-31.9-19.8-23.8-11.6-13.8-2.3-2.6-8.5 2.1-17.1 10.2-21.9 15.3-22.6 17.5-19.7 16.6-12.7 12.9-2.6 5.5 5.5 7.7 15 19.2 23.3 29.5 30.5 38.4 36.7 45.9 41.8 52.2 45.8 57 32 39.6 228.3 283.2 164.2-134.4v-29h34.9l11.5 22 5.7 4.9 25.1 10.5 23.1-6 19.5-19.2 11.1-17.2 1-13-7.3-15.6-18.1-18.2-24.3-7.6-24.2 4-11.1 7.7-12 22.1v25.6h-34.9v-10.8l1.7-26.6 7.2-17.7 15.7-16.2 1-.8 32.6-18.5 32.9-2.4 31.3 13.8 11.6 9.9 18.6 28.9 6.3 33.7-6.7 32.6-6.4 11.3-22.5 19.4-30.4 10.7-30.8-.2-7.3-2.2-18.8-6.2-11-2.4-8.3 4.9-18.1 13-24.8 18.8-28.6 22.1-29.1 23-26.7 21.7-21 17.8-4.9 4.3 2 8.5 10.5 17.4 16.5 22.9 19.6 25.2 20.2 24 18 19.5 13.1 11.7 4.7 1.7 8.2-5.5 19.7-14.4 29.3-21.8 37.1-28 43.1-32.8 47.5-36.3 1.2-1 53.6-41.2 41.6-32.5 31.4-25.1 22.4-19.1 15-14.5 9-11 4.5-9.1 1.5-8.4.1-3.1-3.6-21.3-12.3-10.3-1.2-.4-18.8-13.8-13.7-24.8-6.4-30.2v-.1h30.6l7.2 23.6 7 9.4 21.5 13 24.9.8 21.8-11.2 5.1-5.9 11.8-26.5-4.4-23.8-11.1-14.5-22.7-13.9-22.7-.5-19.8 9.9-13.8 17.5-4.8 22.1h-30.6l1.2-22.1 11.1-28 21.3-18.7 34.4-14.3 31.6 1.8 30.6 18.1 2.6 2.2 18.4 20 7.6 20.7 1 17-7.2 35.9-20.5 27.5-22.8 13.4-14.6 12.9-8.2 26.4-.1.4-2.1 10.1-4 9.8-7.3 10.6-12.1 13-18.4 16.7-26.1 21.8-35.4 28.3-46.2 36.1-37.3 28.9-47.7 37.3-43 34-36.7 29.6-28.7 23.6-19.1 16.4-7.7 7.8-.1.3 5.7 12 13.6 18.7 18.1 21.8 19.4 21.1 17.2 16.6 11.9 8.5 2.4.3 8.6-5.6 20.3-14.5 30.5-22.3 39.3-28.8 46.6-34.5 52.5-38.9 56.8-42.3 59.8-44.6 61.3-45.8 61.2-45.9 59.9-44.9 56.9-42.8 52.6-39.6 46.7-35.4 39.5-30 30.7-23.6 20.5-16.1 8.9-7.4.3-.3-4.9-7.4-13.8-18.8-21.5-28.3-27.9-36.1-32.8-42.3-36.3-46.3-44-56.3-34.2-44.9-25.1-34.6-17-25.7-9.6-18.1-3-11.8 2.7-6.8 5.2-2.6 7.1 5.7 15.5 17 22.3 26.4 27.6 33.7 31.3 39 33.5 42.3 34 43.6 33.1 42.9 30.5 40.2 26.4 35.4 20.7 28.8 13.4 20 4.6 9.1-6.4 6.4-18.5 15.3-29 23-38.2 29.8-45.9 35.4-52.2 40-57.2 43.6-60.7 46-62.7 47.4-63.5 47.8-62.7 47-60.5 45.2-57 42.4-52 38.4-45.6 33.5-37.9 27.4-28.6 20.3-17.9 12.2-5.8 3.1-6.1-6.3-15.8-18.3-24.4-29.1-32.4-39-39.4-47.7-45.6-55.5-50.8-62.1-55.3-67.8-58.9-72.5-39.8-49-60.7-75-57.6-71.4-53.5-66.7-48.6-60.8-42.8-54-36.3-46-28.9-37-20.5-27-11.5-15.7-2.1-3.8 6.3-6.5 18.1-15.7 28.5-23.8 37.5-30.8 45.2-36.7 51.4-41.5 56.3-45.2 59.9-47.9 62-49.4 62.8-49.8 62.2-49.2 60.3-47.6 56.9-44.7 52.2-40.7 46.2-35.9 38.7-29.7 29.9-22.5 19.7-14.3 8.1-5z"/><path d="M55137 45172l19.5 15.4 24.5 22.2 26.9 26.5 26.6 27.9 23.7 26.6 18.2 22.6 10.1 15.9 1 5.3-7 8.6-17.5 18.8-26.9 27.6-34.7 35.1-41.3 41.1-46.5 45.8-50.2 49.1-1.4 1.3-61.8 59.8-50.9 48.6-40.8 38.2-31.7 28.4-23.3 19.5-15.7 11.2-8.9 3.6-1.3-.2-11.7 1.7-18.7 12.1-27.1 23.7-15.3 14.7-30.9 29-26.6 20.7-28.2 16.5-35.9 16-16.4 6.6-34.4 13.5-29 11.5-19.9 7.9-6.2 2.4-11.5-2.7-3.6-5.3 1.1-12.3 6.4-24 2.5-7.4h36.9l2.6 3.6 3.1-.9 10.3-4.2 21.5-8.8 28.4-11.4 5.6-2.3 37.6-17.4 32-21 32.9-29.1 9.6-9.5 52.7-53.2-82.3-83.5-52 51.6-31.3 33.6-22.3 31.3-18.2 36.3-5.6 13.4-14.2 36.2-8 23.1-2.4 12.2h-36.9l8.2-24.6 11.5-30.5 16.8-40.8 14.9-30.2 16-24.9 20.7-24.5 23.8-24.9 27.1-28.3 16.1-19.4 6.7-12.5-1.5-7.8-.7-.8-2.6-3.1-.9-3.9 1.8-5.7 1.1-1.8h35.7l60.1 60.6 25.5 25.2 21.1 20.1 13.9 12.4 4.1 2.8 6.8-5.6 17.1-16.1 25.7-24.9 33.1-32.4 38.8-38.3 43-42.8 12.9-12.9 172.9-173.1-62.6-62.2-62.7-62.2-174.8 174.7-174.9 174.7h-35.7l4.3-6.8 10-12.5 15.5-17.5 22.1-23.5 29.5-30.7 38-38.9 47.4-48.1 57.7-58.5 27.5-27.8 45.1-45.1 41.7-41.1 20.8-20h47.2l62 62.3 61.9 62.3 19.1-17.9 13.3-14.1 5.8-9.2v-.1l-5.8-7.6-15.7-15.9-23-21.7-18.7-17.1-63.1-56.7-35.8 35.7h-47.2l16.1-15.5 30.5-28.5 22.5-20 13.1-10.1 2.2-.9z"/><path d="M54996 45411l.4 1-.5 8.4-7.5 13.3-15.7 19.7-25.1 27.5-35.7 36.9-13 13.1-42.1 42.1-32.1 31.3-23.6 21.7-16.6 13.3-11.1 6.1-7.2.1-4.5-4.4 3.8-8.7 14.5-18.8 24-27.1 32-34.1 37.3-38 41-40.6 30.9-29.7 22.2-20 14.9-11.4 9.1-4zM55093 45315l.3.4 3.6 9-6.7 13.1-15.2 17.1-24.6 21.7-17.8 7.2-10.9-6.7 3-9.2 12.5-16.2 13.1-13.8 20.6-18.5 13.2-6.9z"/></g><g fill-opacity="0" stroke-linecap="round" stroke-linejoin="round" stroke-width="60" fill="none"><path d="M53621 44677l-158-225M53351 44677v-472h180l45 22 22 23 23 45v67l-23 45-22 23-45 22h-180M53778 44205h293l-158 180h68l45 22 22 23 23 45v112l-23 45-22 23-45 22h-135l-45-22-23-23"/></g></g><g fill-opacity="0" stroke-linecap="round" stroke-linejoin="round" stroke-width="59.055" fill="none" stroke="#000"><path d="M48412 47251h20105M68517 47251V35428M68517 35428H48412M48412 35428v11823"/></g><defs><mask id="b"><path fill="#fff" d="M42539 34866h26736v12416H42539z"/><path stroke="#000" stroke-linecap="round" stroke-width="320" d="M56800 45200h0M56800 46200h0"/><path stroke="#000" stroke-linecap="round" stroke-width="1181" d="M52189 36392h0M67544 36392h0M67544 46234h0M52189 46234h0"/><path stroke="#000" stroke-linecap="round" stroke-width="433" d="M49548 42231h0M49548 40460h0"/><path stroke="#000" stroke-linecap="round" stroke-width="866" d="M49586.5 39061.5h0M49587 43629h0"/><path stroke="#000" stroke-linecap="round" stroke-width="360" d="M50532.5 42723.5h0M50531.5 41788.5h0M50532 40902h0M50532.5 39967.5h0"/><path stroke="#000" stroke-linecap="round" stroke-width="354" d="M52140 43232h0M55140 43232h0M52100 39548h0M55100 39548h0"/><path stroke="#000" stroke-linecap="round" stroke-width="320" d="M57750 38500h0M56750 38500h0"/><path stroke="#000" stroke-linecap="round" stroke-width="354" d="M55646 40916h0M51646 40916h0M55671 42083h0M51671 42083h0M51672 44400h0M55672 44400h0"/><path stroke="#000" stroke-linecap="round" stroke-width="320" d="M58800 45200h0M58800 46200h0"/><path stroke="#000" stroke-linecap="round" stroke-width="354" d="M58065 43583h0M58065 39583h0M55167 38429h0M52167 38429h0M56819 43583h0M56819 39583h0"/><path stroke="#000" stroke-linecap="round" stroke-width="400" d="M66488 37788h0M66488 38788h0M66488 39788h0M66488 40788h0M66488 41788h0M66488 42788h0M66488 43788h0M66488 44788h0M56619 36211h0M57619 36211h0M58619 36211h0M64480 37990h0M61920 37990h0M64480 36210h0M61920 36210h0"/><path stroke="#000" stroke-linecap="round" stroke-width="314" d="M53500 36750h0M55500 36750h0M54500 36750h0M64600 42800h0M61600 39800h0M63600 42800h0M62600 39800h0M62600 42800h0M63600 39800h0M61600 42800h0M64600 39800h0M59800 39284h0M59800 38300h0"/></mask></defs></g></svg>