<svg width="160" height="89" viewBox="0 0 12835 7110.9" xmlns="http://www.w3.org/2000/svg"><g clip-path="url(#a)" mask="url(#b)" transform="translate(-57471 -23633)"><defs><clipPath id="a"><path d="M70275 23622H57480v7086h12795v-7086" fill-rule="evenodd"/></clipPath></defs><g fill="#313d63" stroke="#313d63"><path d="M70275 23622H57480v7086h12795v-7086" fill-rule="evenodd"/><g fill-opacity="0" stroke-linecap="round" stroke-linejoin="round" stroke-width="19.685" fill="none" stroke="#000"><path d="M70275 30708v-7086M57480 30708h12795M57480 23622v7086M70275 23622H57480"/></g></g><g stroke-linecap="round" stroke-linejoin="round" stroke-width="0" stroke="none" fill="#9c6b28"><g fill-rule="evenodd"><path d="M64817 24917h-882v-380.7h882zM64785 25596h-850.3v-361.7h850.3zM64817 26294h-875.6v-380.8h875.6zM59987 24900h-880.4v-387.1h880.4zM59982 25610h-884.7v-404.1h884.7zM59982 26299h-884.7v-399.8h884.7z"/></g><circle cx="65716" cy="26378" r="275.59"/><circle cx="67716" cy="26378" r="275.59"/><circle cx="65748" cy="25591" r="275.59"/><circle cx="67748" cy="25591" r="275.59"/><circle cx="65716" cy="24803" r="275.59"/><circle cx="67716" cy="24803" r="275.59"/><circle cx="69291" cy="29803" r="334.65"/><circle cx="69291" cy="28803" r="334.65"/><circle cx="69291" cy="27803" r="334.65"/><circle cx="69291" cy="26803" r="334.65"/><circle cx="69291" cy="25803" r="334.65"/><path d="M68957 25138v-669.3h669.3v669.3z" fill-rule="evenodd"/></g><g fill="#212d53" stroke="#212d53" stroke-linecap="round" stroke-linejoin="round"><g fill-rule="evenodd" stroke-width="0" stroke="none"><path d="M64817 24917h-882v-380.7h882zM64785 25596h-850.3v-361.7h850.3zM64817 26294h-875.6v-380.8h875.6zM59987 24900h-880.4v-387.1h880.4zM59982 25610h-884.7v-404.1h884.7zM59982 26299h-884.7v-399.8h884.7z"/></g><g stroke-width="0" stroke="none"><circle cx="65716" cy="26378" r="275.59"/><circle cx="67716" cy="26378" r="275.59"/><circle cx="65748" cy="25591" r="275.59"/><circle cx="67748" cy="25591" r="275.59"/><circle cx="65716" cy="24803" r="275.59"/><circle cx="67716" cy="24803" r="275.59"/><circle cx="69291" cy="29803" r="334.65"/><circle cx="69291" cy="28803" r="334.65"/><circle cx="69291" cy="27803" r="334.65"/><circle cx="69291" cy="26803" r="334.65"/><circle cx="69291" cy="25803" r="334.65"/><path d="M68957 25138v-669.3h669.3v669.3z" fill-rule="evenodd"/><circle cx="58661" cy="26378" r="157.48"/><circle cx="58268" cy="25591" r="157.48"/><circle cx="57874" cy="24803" r="157.48"/></g><g fill-opacity="0" stroke-width="196.85" fill="none"><path d="M65640 24726l76 77M64376 24726h1264M64360 25415h818M65354 25590h394M65178 25415l176 175M64379 26103h700M65354 26377h362M65079 26103l275 274M58940 26099l-279 278M59540 26099h-600M58450 25407l-183 183M59540 25407h-1090M57970 24706l-96 97M59546 24706h-1576"/></g><g stroke-width="0" stroke="none"><circle cx="58661" cy="26378" r="68.898"/><circle cx="58268" cy="25591" r="68.898"/><circle cx="57874" cy="24803" r="68.898"/><circle cx="65716" cy="26378" r="68.898"/><circle cx="67716" cy="26378" r="68.898"/><circle cx="65748" cy="25591" r="68.898"/><circle cx="67748" cy="25591" r="68.898"/><circle cx="65716" cy="24803" r="68.898"/><circle cx="67716" cy="24803" r="68.898"/><circle cx="69291" cy="29803" r="68.898"/><circle cx="69291" cy="28803" r="68.898"/><circle cx="69291" cy="27803" r="68.898"/><circle cx="69291" cy="26803" r="68.898"/><circle cx="69291" cy="25803" r="68.898"/><circle cx="69291" cy="24803" r="68.898"/></g></g><g fill="#b5ae30" mask="url(#c)" stroke="#b5ae30" stroke-linecap="round" stroke-linejoin="round"><g fill-rule="evenodd" stroke-width="0" stroke="none"><path d="M64817 24917h-882v-380.7h882zM64785 25596h-850.3v-361.7h850.3zM64817 26294h-875.6v-380.8h875.6zM59987 24900h-880.4v-387.1h880.4zM59982 25610h-884.7v-404.1h884.7zM59982 26299h-884.7v-399.8h884.7z"/></g><g stroke-width="0" stroke="none"><circle cx="65716" cy="26378" r="275.59"/><circle cx="67716" cy="26378" r="275.59"/><circle cx="65748" cy="25591" r="275.59"/><circle cx="67748" cy="25591" r="275.59"/><circle cx="65716" cy="24803" r="275.59"/><circle cx="67716" cy="24803" r="275.59"/><circle cx="69291" cy="29803" r="334.65"/><circle cx="69291" cy="28803" r="334.65"/><circle cx="69291" cy="27803" r="334.65"/><circle cx="69291" cy="26803" r="334.65"/><circle cx="69291" cy="25803" r="334.65"/><path d="M68957 25138v-669.3h669.3v669.3z" fill-rule="evenodd"/><circle cx="58661" cy="26378" r="157.48"/><circle cx="58268" cy="25591" r="157.48"/><circle cx="57874" cy="24803" r="157.48"/></g><g fill-opacity="0" stroke-width="196.85" fill="none"><path d="M65640 24726l76 77M64376 24726h1264M64360 25415h818M65354 25590h394M65178 25415l176 175M64379 26103h700M65354 26377h362M65079 26103l275 274M58940 26099l-279 278M59540 26099h-600M58450 25407l-183 183M59540 25407h-1090M57970 24706l-96 97M59546 24706h-1576"/></g><g stroke-width="0" stroke="none"><circle cx="58661" cy="26378" r="68.898"/><circle cx="58268" cy="25591" r="68.898"/><circle cx="57874" cy="24803" r="68.898"/><circle cx="65716" cy="26378" r="68.898"/><circle cx="67716" cy="26378" r="68.898"/><circle cx="65748" cy="25591" r="68.898"/><circle cx="67748" cy="25591" r="68.898"/><circle cx="65716" cy="24803" r="68.898"/><circle cx="67716" cy="24803" r="68.898"/><circle cx="69291" cy="29803" r="68.898"/><circle cx="69291" cy="28803" r="68.898"/><circle cx="69291" cy="27803" r="68.898"/><circle cx="69291" cy="26803" r="68.898"/><circle cx="69291" cy="25803" r="68.898"/><circle cx="69291" cy="24803" r="68.898"/></g></g><defs><mask id="c"><g fill-opacity="1" stroke="#fff" stroke-linecap="round" stroke-linejoin="round" stroke-width="0" fill="#fff"><path d="M64817 24917h-882v-380.7h882zM64785 25596h-850.3v-361.7h850.3zM64817 26294h-875.6v-380.8h875.6zM59987 24900h-880.4v-387.1h880.4zM59982 25610h-884.7v-404.1h884.7zM59982 26299h-884.7v-399.8h884.7z" fill-rule="evenodd"/><circle cx="65716" cy="26378" r="275.59"/><circle cx="67716" cy="26378" r="275.59"/><circle cx="65748" cy="25591" r="275.59"/><circle cx="67748" cy="25591" r="275.59"/><circle cx="65716" cy="24803" r="275.59"/><circle cx="67716" cy="24803" r="275.59"/><circle cx="69291" cy="29803" r="334.65"/><circle cx="69291" cy="28803" r="334.65"/><circle cx="69291" cy="27803" r="334.65"/><circle cx="69291" cy="26803" r="334.65"/><circle cx="69291" cy="25803" r="334.65"/><path d="M68957 25138v-669.3h669.3v669.3z" fill-rule="evenodd"/></g></mask></defs><defs><mask id="d"><g fill-opacity="1" stroke="#000" stroke-linecap="round" stroke-linejoin="round" stroke-width="0"><path d="M64817 24917h-882v-380.7h882zM64785 25596h-850.3v-361.7h850.3zM64817 26294h-875.6v-380.8h875.6zM59987 24900h-880.4v-387.1h880.4zM59982 25610h-884.7v-404.1h884.7zM59982 26299h-884.7v-399.8h884.7z" fill-rule="evenodd"/><circle cx="65716" cy="26378" r="275.59"/><circle cx="67716" cy="26378" r="275.59"/><circle cx="65748" cy="25591" r="275.59"/><circle cx="67748" cy="25591" r="275.59"/><circle cx="65716" cy="24803" r="275.59"/><circle cx="67716" cy="24803" r="275.59"/><circle cx="69291" cy="29803" r="334.65"/><circle cx="69291" cy="28803" r="334.65"/><circle cx="69291" cy="27803" r="334.65"/><circle cx="69291" cy="26803" r="334.65"/><circle cx="69291" cy="25803" r="334.65"/><path d="M68957 25138v-669.3h669.3v669.3z" fill-rule="evenodd"/></g><path fill="#fff" d="M57470 23414h14840v7830H57470z"/></mask></defs><g fill="none" fill-opacity="0" mask="url(#d)" stroke="#f0f0f0" stroke-linecap="round" stroke-linejoin="round"><g stroke-width="62.992"><circle cx="61949" cy="25406" r="1181.1"/><path d="M63877 25897v394M63877 25208v394M63877 24519v394M60492 24807v1196M63405 26003v-1196M59094 24519h886M60646 24519h-587M60059 24913h433M60646 26291h-587M59094 26291h886M60059 25897h433M59094 24913h886M60019 24913v-394M59094 25208h886M60059 25208h433M60059 25602h433M59094 25602h886M60019 25602v-394M59094 25897h886M60019 26291v-394M59094 24913v-394M59094 25602v-394M59094 26291v-394M63250 24519h588M64803 24519h-886M63838 24913h-433M64803 26291h-886M63250 26291h588M63838 25897h-433M64803 24913h-886M63838 25208h-433M64803 25208h-886M63838 25602h-433M64803 25602h-886M64803 25897h-886M64803 24913v-394M64803 25602v-394M64803 26291v-394M60059 24519v394M60059 25897v394M60059 25208v394M59980 24913v-394M59980 25602v-394M59980 26291v-394M63838 24913v-394M63838 26291v-394M63838 25602v-394M63917 24519v394M63917 25208v394M63917 25897v394M63406 24807a1574.8 1574.8 0 0 0-2913.4.1M60492 26004a1574.8 1574.8 0 0 0 2913.5-.1"/></g><g stroke-width="47.244"><path d="M67472 26015h-1512M67472 26740h-1512M67503 25952h-1511M67503 25228h-1511M67472 25165h-1512M67472 24440h-1512M68767 25303h1047M68767 25303v5023M68767 30326h1047M69814 25303v5023M69814 24279v524M69291 24279h523"/></g></g><g fill-opacity="0" stroke-linecap="round" stroke-linejoin="round" stroke-width="19.685" fill="none" stroke="#000"><path d="M70275 30708v-7086M57480 30708h12795M57480 23622v7086M70275 23622H57480"/></g><defs><mask id="b"><path fill="#fff" d="M57470 23414h14840v7830H57470z"/><path stroke="#000" stroke-linecap="round" stroke-width="275" d="M65716 26376h0M67716 26376h0M65748 25590h0M67748 25590h0M65716 24804h0M67716 24804h0"/><path stroke="#000" stroke-linecap="round" stroke-width="393" d="M69291 29803h0M69291 28803h0M69291 27803h0M69291 26803h0M69291 25803h0M69291 24803h0"/></mask></defs></g><g transform="rotate(-90 2482 890) scale(393.7)" stroke-width=".093"><path d="M5.313.08v3.55l1 .392V.08z" fill="#ccc" stroke="#000"/><path d="M3.563.08h1v3.55h-1zM2.813.08h-1v3.942l1-.392z" fill="#ccc" fill-rule="evenodd" stroke="#191919"/><path d="M5.313 14.58v-3.55l1-.393v3.943z" fill="#ccc" stroke="#000"/><path d="M2.813 14.58h-1v-3.943l1 .393z" fill="#ccc" fill-rule="evenodd" stroke="#191919"/><path d="M3.563 14.58v-3.55h1v3.55z" fill="#ccc" stroke="#000"/><circle transform="scale(1 -1)" cx="4.063" cy="-7.33" r="3" fill="none" stroke="#191919"/><path d="M2.813 12.23h-1M4.563 12.23h-1M6.313 12.23h-1" fill="none" stroke="#191919"/><path d="M2.543 11.03h3.04c3.307-1.358 3.307-6.042 0-7.4h-3.04c-3.306 1.358-3.306 6.042 0 7.4z" fill="#ffffe0" fill-rule="evenodd" stroke="#191919"/><path d="M6.313 2.43h-1M5.313 2.43h1M4.563 2.43h-1M3.563 2.43h1M2.813 2.43h-1M1.813 2.43h1" fill="none" stroke="#191919"/><circle transform="scale(1 -1)" cx="4.063" cy="-7.33" r="3" fill="#f9f9f9" stroke="#191919"/><path d="M6.313 2.53h-1M2.813 2.53h-1M4.563 2.53h-1M5.313 2.33h1M3.563 2.33h1M1.813 2.33h1M5.313 12.13h1M1.813 12.13h1M3.563 12.13h1M6.313 12.33h-1M4.563 12.33h-1M2.813 12.33h-1" fill="none" stroke="#191919"/></g><g transform="matrix(-393.7 0 0 393.7 10245.339 2744.332)" fill="#faa" stroke-width=".093"><path d="M1.14.8V-.8M3.94.8V-.8M1.14-.8c-.24.021-.374.155-.4.4v.8c0 .22.18.4.4.4h.5V-.8zM3.44-.8V.8h.5a.4.4 0 0 0 .4-.4v-.8c-.026-.245-.16-.379-.4-.4z" fill-rule="evenodd" stroke="#191919"/><path d="M4.34.25h.74c.333 0 .333-.5 0-.5h-.74 0z" fill="#999" fill-rule="evenodd" stroke="#191919"/></g><path d="M9954.017 2842.772v-196.85h291.338c131.232 0 131.232 196.85 0 196.85z" fill="#999" stroke="#1a1a1a" stroke-width="36.6141"/><path d="M8891.027 3027.811v-566.928h708.66v566.928z" fill="#e9afaf" stroke="#1a1a1a" stroke-width="36.6141"/><path fill="#500" opacity=".997" stroke="#1a1a1a" stroke-width="36.2204" d="M9504.372 3026.536h-71.654v-563.779h71.654z"/><path opacity=".997" stroke="#1a1a1a" stroke-width="36.2204" d="M9360.278 3024.567h-71.654V2460.79h71.654z"/><path fill="red" opacity=".997" stroke="#1a1a1a" stroke-width="36.2204" d="M9214.215 3024.173h-71.654v-563.778h71.654z"/><path fill="olive" opacity=".997" stroke="#1a1a1a" stroke-width="36.2204" d="M9018.94 3026.536h-71.654v-563.779h71.654z"/><g><g transform="matrix(-393.7 0 0 393.7 10277.339 1957.332)" fill="#faa" stroke-width=".093"><path d="M1.14.8V-.8M3.94.8V-.8M1.14-.8c-.24.021-.374.155-.4.4v.8c0 .22.18.4.4.4h.5V-.8zM3.44-.8V.8h.5a.4.4 0 0 0 .4-.4v-.8c-.026-.245-.16-.379-.4-.4z" fill-rule="evenodd" stroke="#191919"/><path d="M4.34.25h.74c.333 0 .333-.5 0-.5h-.74 0z" fill="#999" fill-rule="evenodd" stroke="#191919"/></g><path d="M9986.017 2055.772v-196.85h291.338c131.232 0 131.232 196.85 0 196.85z" fill="#999" stroke="#1a1a1a" stroke-width="36.6141"/><path d="M8923.027 2240.811v-566.928h708.66v566.928z" fill="#e9afaf" stroke="#1a1a1a" stroke-width="36.6141"/><path fill="#500" opacity=".997" stroke="#1a1a1a" stroke-width="36.2204" d="M9536.372 2239.536h-71.654v-563.779h71.654z"/><path opacity=".997" stroke="#1a1a1a" stroke-width="36.2204" d="M9392.278 2237.567h-71.654V1673.79h71.654z"/><path fill="red" opacity=".997" stroke="#1a1a1a" stroke-width="36.2204" d="M9246.215 2237.173h-71.654v-563.778h71.654z"/><path fill="olive" opacity=".997" stroke="#1a1a1a" stroke-width="36.2204" d="M9050.94 2239.536h-71.654v-563.779h71.654z"/></g><g><g transform="matrix(-393.7 0 0 393.7 10245.339 1170.332)" fill="#faa" stroke-width=".093"><path d="M1.14.8V-.8M3.94.8V-.8M1.14-.8c-.24.021-.374.155-.4.4v.8c0 .22.18.4.4.4h.5V-.8zM3.44-.8V.8h.5a.4.4 0 0 0 .4-.4v-.8c-.026-.245-.16-.379-.4-.4z" fill-rule="evenodd" stroke="#191919"/><path d="M4.34.25h.74c.333 0 .333-.5 0-.5h-.74 0z" fill="#999" fill-rule="evenodd" stroke="#191919"/></g><path d="M9954.017 1268.772v-196.85h291.338c131.232 0 131.232 196.85 0 196.85z" fill="#999" stroke="#1a1a1a" stroke-width="36.6141"/><path d="M8891.027 1453.811V886.883h708.66v566.928z" fill="#e9afaf" stroke="#1a1a1a" stroke-width="36.6141"/><path fill="#500" opacity=".997" stroke="#1a1a1a" stroke-width="36.2204" d="M9504.372 1452.536h-71.654V888.757h71.654z"/><path opacity=".997" stroke="#1a1a1a" stroke-width="36.2204" d="M9360.278 1450.567h-71.654V886.79h71.654z"/><path fill="red" opacity=".997" stroke="#1a1a1a" stroke-width="36.2204" d="M9214.215 1450.174h-71.654V886.395h71.654z"/><path fill="olive" opacity=".997" stroke="#1a1a1a" stroke-width="36.2204" d="M9018.94 1452.536h-71.654V888.757h71.654z"/></g><g stroke-width=".093"><g transform="matrix(393.7 0 0 -393.7 11819.999 1169.999)"><path d="M1.27-13.97V1.27h-2.54v-15.24z" fill="#1a1a1a" fill-rule="evenodd" stroke="#000"/><path d="M-.6.6V-.6H.6V.6z" fill="gray" fill-rule="evenodd" stroke="#000"/><path d="M.6-3.14v1.2H-.6v-1.2zM.6-5.68v1.2H-.6v-1.2zM-.6-13.3H.6v1.2H-.6zM-.6-10.76H.6v1.2H-.6zM-.6-8.22H.6v1.2H-.6z" fill="#666" fill-rule="evenodd" stroke="#000"/><path d="M-.6.6l.299-.299M-.6-.6l.299.299M-.301.301v-.602M.6.6L.301.301M.301.301h-.602M.6-.6l-.299.299M.301-.301v.602M-.301-.301h.602M-.6-3.14l.299.299M.6-3.14l-.299.299M-.301-2.841h.602M-.6-1.94l.299-.299M-.301-2.239v-.602M.6-1.94l-.299-.299M.301-2.239h-.602M.301-2.841v.602M.6-5.68l-.299.299M.6-4.48l-.299-.299M.301-5.381v.602M-.6-5.68l.299.299M-.301-5.381h.602M-.6-4.48l.299-.299M-.301-4.779v-.602M.301-4.779h-.602M-.6-12.1l.299-.299M-.6-13.3l.299.299M-.301-12.399v-.602M.6-12.1l-.299-.299M.301-12.399h-.602M.6-13.3l-.299.299M.301-13.001v.602M-.301-13.001h.602M-.6-10.76l.299.299M.6-10.76l-.299.299M-.301-10.461h.602M-.6-9.56l.299-.299M-.301-9.859v-.602M.6-9.56l-.299-.299M.301-9.859h-.602M.301-10.461v.602M.6-8.22l-.299.299M.6-7.02l-.299-.299M.301-7.921v.602M-.6-8.22l.299.299M-.301-7.921h.602M-.6-7.02l.299-.299M-.301-7.319v-.602M.301-7.319h-.602" fill="none" stroke="#000"/><path d="M.3-.3v.6h-.6v-.6zM-.3-2.84h.6v.6h-.6zM.3-5.38v.6h-.6v-.6zM.3-13v.6h-.6v-.6zM-.3-10.46h.6v.6h-.6zM.3-7.92v.6h-.6v-.6z" fill="olive" fill-rule="evenodd" stroke="#000"/><path d="M-.1.25V.3M-.1-.25v.5M-.1-.3v.05M.1-.3v.05M-.1-.25h.2M.1-.25v.5M.1.25V.3M-.1.25h.2M-.1-2.29v.05M-.1-2.79v.5M-.1-2.84v.05" fill="none" stroke="#000"/><path d="M.1-2.84v.05" fill="olive" fill-rule="evenodd" stroke="#000"/><path d="M-.1-2.79h.2M.1-2.79v.5M.1-2.29v.05M-.1-2.29h.2M-.1-4.83v.05M-.1-5.33v.5M-.1-5.38v.05M.1-5.38v.05M-.1-5.33h.2M.1-5.33v.5M.1-4.83v.05M-.1-4.83h.2M-.1-12.45v.05M-.1-12.95v.5M-.1-13v.05M.1-13v.05M-.1-12.95h.2M.1-12.95v.5M.1-12.45v.05M-.1-12.45h.2M-.1-9.91v.05M-.1-10.41v.5M-.1-10.46v.05M.1-10.46v.05M-.1-10.41h.2M.1-10.41v.5M.1-9.91v.05M-.1-9.91h.2M-.1-7.37v.05M-.1-7.87v.5M-.1-7.92v.05M.1-7.92v.05M-.1-7.87h.2M.1-7.87v.5M.1-7.37v.05M-.1-7.37h.2" fill="none" stroke="#000"/></g></g></svg>