<svg width="650" height="506" viewBox="0 0 42303 32933" xmlns="http://www.w3.org/2000/svg"><g transform="translate(-34006 -14164)" clip-path="url(#a)" mask="url(#b)"><defs><clipPath id="a"><path d="M34015 47086V14173h42284v32913H34015" fill-rule="evenodd"/></clipPath></defs><g fill="#313d63" stroke="#313d63"><path d="M34015 47086V14173h42284v32913H34015" fill-rule="evenodd"/><path d="M76299 47086H34015m42284-32913v32913M34015 14173h42284M34015 47086V14173" fill="none" fill-opacity="0" stroke="#000" stroke-linecap="round" stroke-linejoin="round" stroke-width="19.685"/></g><g fill="#9c6b28" stroke-linecap="round" stroke-linejoin="round" stroke-width="0"><circle cx="40543" cy="31063" r="334.65"/><circle cx="41543" cy="31063" r="334.65"/><circle cx="41543" cy="32063" r="334.65"/><circle cx="40543" cy="30063" r="334.65"/><circle cx="40543" cy="29063" r="334.65"/><circle cx="41543" cy="19063" r="334.65"/><circle cx="40543" cy="33063" r="334.65"/><circle cx="41543" cy="33063" r="334.65"/><circle cx="40543" cy="34063" r="334.65"/><circle cx="41543" cy="34063" r="334.65"/><circle cx="40543" cy="35063" r="334.65"/><circle cx="41543" cy="35063" r="334.65"/><circle cx="40543" cy="28063" r="334.65"/><circle cx="40543" cy="17063" r="334.65"/><path d="M40209 16398v-669.3h669.3v669.3z" fill-rule="evenodd"/><circle cx="40543" cy="24063" r="334.65"/><circle cx="41543" cy="30063" r="334.65"/><circle cx="40543" cy="19063" r="334.65"/><circle cx="41543" cy="18063" r="334.65"/><circle cx="40543" cy="27063" r="334.65"/><circle cx="40543" cy="18063" r="334.65"/><circle cx="41543" cy="26063" r="334.65"/><circle cx="41543" cy="23063" r="334.65"/><circle cx="41543" cy="17063" r="334.65"/><circle cx="40543" cy="21063" r="334.65"/><circle cx="41543" cy="24063" r="334.65"/><circle cx="40543" cy="20063" r="334.65"/><circle cx="41543" cy="25063" r="334.65"/><circle cx="41543" cy="20063" r="334.65"/><circle cx="41543" cy="21063" r="334.65"/><circle cx="40543" cy="26063" r="334.65"/><circle cx="41543" cy="16063" r="334.65"/><circle cx="40543" cy="23063" r="334.65"/><circle cx="40543" cy="25063" r="334.65"/><circle cx="41543" cy="22063" r="334.65"/><circle cx="40543" cy="22063" r="334.65"/><circle cx="41543" cy="27063" r="334.65"/><circle cx="40543" cy="32063" r="334.65"/><circle cx="41543" cy="29063" r="334.65"/><circle cx="41543" cy="28063" r="334.65"/></g><g fill="#212d53" stroke-linecap="round" stroke-linejoin="round" stroke-width="0"><circle cx="40543" cy="31063" r="334.65"/><circle cx="41543" cy="31063" r="334.65"/><circle cx="41543" cy="32063" r="334.65"/><circle cx="40543" cy="30063" r="334.65"/><circle cx="40543" cy="29063" r="334.65"/><circle cx="41543" cy="19063" r="334.65"/><circle cx="40543" cy="33063" r="334.65"/><circle cx="41543" cy="33063" r="334.65"/><circle cx="40543" cy="34063" r="334.65"/><circle cx="41543" cy="34063" r="334.65"/><circle cx="40543" cy="35063" r="334.65"/><circle cx="41543" cy="35063" r="334.65"/><circle cx="40543" cy="28063" r="334.65"/><circle cx="40543" cy="17063" r="334.65"/><path d="M40209 16398v-669.3h669.3v669.3z" fill-rule="evenodd"/><circle cx="40543" cy="24063" r="334.65"/><circle cx="41543" cy="30063" r="334.65"/><circle cx="40543" cy="19063" r="334.65"/><circle cx="41543" cy="18063" r="334.65"/><circle cx="40543" cy="27063" r="334.65"/><circle cx="40543" cy="18063" r="334.65"/><circle cx="41543" cy="26063" r="334.65"/><circle cx="41543" cy="23063" r="334.65"/><circle cx="41543" cy="17063" r="334.65"/><circle cx="40543" cy="21063" r="334.65"/><circle cx="41543" cy="24063" r="334.65"/><circle cx="40543" cy="20063" r="334.65"/><circle cx="41543" cy="25063" r="334.65"/><circle cx="41543" cy="20063" r="334.65"/><circle cx="41543" cy="21063" r="334.65"/><circle cx="40543" cy="26063" r="334.65"/><circle cx="41543" cy="16063" r="334.65"/><circle cx="40543" cy="23063" r="334.65"/><circle cx="40543" cy="25063" r="334.65"/><circle cx="41543" cy="22063" r="334.65"/><circle cx="40543" cy="22063" r="334.65"/><circle cx="41543" cy="27063" r="334.65"/><circle cx="40543" cy="32063" r="334.65"/><circle cx="41543" cy="29063" r="334.65"/><circle cx="41543" cy="28063" r="334.65"/><circle cx="40543" cy="31063" r="68.898"/><circle cx="41543" cy="31063" r="68.898"/><circle cx="41543" cy="32063" r="68.898"/><circle cx="40543" cy="30063" r="68.898"/><circle cx="40543" cy="29063" r="68.898"/><circle cx="41543" cy="19063" r="68.898"/><circle cx="40543" cy="33063" r="68.898"/><circle cx="41543" cy="33063" r="68.898"/><circle cx="40543" cy="34063" r="68.898"/><circle cx="41543" cy="34063" r="68.898"/><circle cx="40543" cy="35063" r="68.898"/><circle cx="41543" cy="35063" r="68.898"/><circle cx="40543" cy="28063" r="68.898"/><circle cx="40543" cy="17063" r="68.898"/><circle cx="40543" cy="16063" r="68.898"/><circle cx="40543" cy="24063" r="68.898"/><circle cx="41543" cy="30063" r="68.898"/><circle cx="40543" cy="19063" r="68.898"/><circle cx="41543" cy="18063" r="68.898"/><circle cx="40543" cy="27063" r="68.898"/><circle cx="40543" cy="18063" r="68.898"/><circle cx="41543" cy="26063" r="68.898"/><circle cx="41543" cy="23063" r="68.898"/><circle cx="41543" cy="17063" r="68.898"/><circle cx="40543" cy="21063" r="68.898"/><circle cx="41543" cy="24063" r="68.898"/><circle cx="40543" cy="20063" r="68.898"/><circle cx="41543" cy="25063" r="68.898"/><circle cx="41543" cy="20063" r="68.898"/><circle cx="41543" cy="21063" r="68.898"/><circle cx="40543" cy="26063" r="68.898"/><circle cx="41543" cy="16063" r="68.898"/><circle cx="40543" cy="23063" r="68.898"/><circle cx="40543" cy="25063" r="68.898"/><circle cx="41543" cy="22063" r="68.898"/><circle cx="40543" cy="22063" r="68.898"/><circle cx="41543" cy="27063" r="68.898"/><circle cx="40543" cy="32063" r="68.898"/><circle cx="41543" cy="29063" r="68.898"/><circle cx="41543" cy="28063" r="68.898"/></g><g fill="#b5ae30" mask="url(#c)" stroke-linecap="round" stroke-linejoin="round" stroke-width="0"><circle cx="40543" cy="31063" r="334.65"/><circle cx="41543" cy="31063" r="334.65"/><circle cx="41543" cy="32063" r="334.65"/><circle cx="40543" cy="30063" r="334.65"/><circle cx="40543" cy="29063" r="334.65"/><circle cx="41543" cy="19063" r="334.65"/><circle cx="40543" cy="33063" r="334.65"/><circle cx="41543" cy="33063" r="334.65"/><circle cx="40543" cy="34063" r="334.65"/><circle cx="41543" cy="34063" r="334.65"/><circle cx="40543" cy="35063" r="334.65"/><circle cx="41543" cy="35063" r="334.65"/><circle cx="40543" cy="28063" r="334.65"/><circle cx="40543" cy="17063" r="334.65"/><path d="M40209 16398v-669.3h669.3v669.3z" fill-rule="evenodd"/><circle cx="40543" cy="24063" r="334.65"/><circle cx="41543" cy="30063" r="334.65"/><circle cx="40543" cy="19063" r="334.65"/><circle cx="41543" cy="18063" r="334.65"/><circle cx="40543" cy="27063" r="334.65"/><circle cx="40543" cy="18063" r="334.65"/><circle cx="41543" cy="26063" r="334.65"/><circle cx="41543" cy="23063" r="334.65"/><circle cx="41543" cy="17063" r="334.65"/><circle cx="40543" cy="21063" r="334.65"/><circle cx="41543" cy="24063" r="334.65"/><circle cx="40543" cy="20063" r="334.65"/><circle cx="41543" cy="25063" r="334.65"/><circle cx="41543" cy="20063" r="334.65"/><circle cx="41543" cy="21063" r="334.65"/><circle cx="40543" cy="26063" r="334.65"/><circle cx="41543" cy="16063" r="334.65"/><circle cx="40543" cy="23063" r="334.65"/><circle cx="40543" cy="25063" r="334.65"/><circle cx="41543" cy="22063" r="334.65"/><circle cx="40543" cy="22063" r="334.65"/><circle cx="41543" cy="27063" r="334.65"/><circle cx="40543" cy="32063" r="334.65"/><circle cx="41543" cy="29063" r="334.65"/><circle cx="41543" cy="28063" r="334.65"/><circle cx="40543" cy="31063" r="68.898"/><circle cx="41543" cy="31063" r="68.898"/><circle cx="41543" cy="32063" r="68.898"/><circle cx="40543" cy="30063" r="68.898"/><circle cx="40543" cy="29063" r="68.898"/><circle cx="41543" cy="19063" r="68.898"/><circle cx="40543" cy="33063" r="68.898"/><circle cx="41543" cy="33063" r="68.898"/><circle cx="40543" cy="34063" r="68.898"/><circle cx="41543" cy="34063" r="68.898"/><circle cx="40543" cy="35063" r="68.898"/><circle cx="41543" cy="35063" r="68.898"/><circle cx="40543" cy="28063" r="68.898"/><circle cx="40543" cy="17063" r="68.898"/><circle cx="40543" cy="16063" r="68.898"/><circle cx="40543" cy="24063" r="68.898"/><circle cx="41543" cy="30063" r="68.898"/><circle cx="40543" cy="19063" r="68.898"/><circle cx="41543" cy="18063" r="68.898"/><circle cx="40543" cy="27063" r="68.898"/><circle cx="40543" cy="18063" r="68.898"/><circle cx="41543" cy="26063" r="68.898"/><circle cx="41543" cy="23063" r="68.898"/><circle cx="41543" cy="17063" r="68.898"/><circle cx="40543" cy="21063" r="68.898"/><circle cx="41543" cy="24063" r="68.898"/><circle cx="40543" cy="20063" r="68.898"/><circle cx="41543" cy="25063" r="68.898"/><circle cx="41543" cy="20063" r="68.898"/><circle cx="41543" cy="21063" r="68.898"/><circle cx="40543" cy="26063" r="68.898"/><circle cx="41543" cy="16063" r="68.898"/><circle cx="40543" cy="23063" r="68.898"/><circle cx="40543" cy="25063" r="68.898"/><circle cx="41543" cy="22063" r="68.898"/><circle cx="40543" cy="22063" r="68.898"/><circle cx="41543" cy="27063" r="68.898"/><circle cx="40543" cy="32063" r="68.898"/><circle cx="41543" cy="29063" r="68.898"/><circle cx="41543" cy="28063" r="68.898"/></g><defs><mask id="c"><g fill="#fff" stroke="#fff" stroke-linecap="round" stroke-linejoin="round" stroke-width="0"><circle cx="40543" cy="31063" r="334.65"/><circle cx="41543" cy="31063" r="334.65"/><circle cx="41543" cy="32063" r="334.65"/><circle cx="40543" cy="30063" r="334.65"/><circle cx="40543" cy="29063" r="334.65"/><circle cx="41543" cy="19063" r="334.65"/><circle cx="40543" cy="33063" r="334.65"/><circle cx="41543" cy="33063" r="334.65"/><circle cx="40543" cy="34063" r="334.65"/><circle cx="41543" cy="34063" r="334.65"/><circle cx="40543" cy="35063" r="334.65"/><circle cx="41543" cy="35063" r="334.65"/><circle cx="40543" cy="28063" r="334.65"/><circle cx="40543" cy="17063" r="334.65"/><path d="M40209 16398v-669.3h669.3v669.3z" fill-rule="evenodd"/><circle cx="40543" cy="24063" r="334.65"/><circle cx="41543" cy="30063" r="334.65"/><circle cx="40543" cy="19063" r="334.65"/><circle cx="41543" cy="18063" r="334.65"/><circle cx="40543" cy="27063" r="334.65"/><circle cx="40543" cy="18063" r="334.65"/><circle cx="41543" cy="26063" r="334.65"/><circle cx="41543" cy="23063" r="334.65"/><circle cx="41543" cy="17063" r="334.65"/><circle cx="40543" cy="21063" r="334.65"/><circle cx="41543" cy="24063" r="334.65"/><circle cx="40543" cy="20063" r="334.65"/><circle cx="41543" cy="25063" r="334.65"/><circle cx="41543" cy="20063" r="334.65"/><circle cx="41543" cy="21063" r="334.65"/><circle cx="40543" cy="26063" r="334.65"/><circle cx="41543" cy="16063" r="334.65"/><circle cx="40543" cy="23063" r="334.65"/><circle cx="40543" cy="25063" r="334.65"/><circle cx="41543" cy="22063" r="334.65"/><circle cx="40543" cy="22063" r="334.65"/><circle cx="41543" cy="27063" r="334.65"/><circle cx="40543" cy="32063" r="334.65"/><circle cx="41543" cy="29063" r="334.65"/><circle cx="41543" cy="28063" r="334.65"/></g></mask></defs><defs><mask id="d"><g stroke="#000" stroke-linecap="round" stroke-linejoin="round" stroke-width="0"><circle cx="40543" cy="31063" r="334.65"/><circle cx="41543" cy="31063" r="334.65"/><circle cx="41543" cy="32063" r="334.65"/><circle cx="40543" cy="30063" r="334.65"/><circle cx="40543" cy="29063" r="334.65"/><circle cx="41543" cy="19063" r="334.65"/><circle cx="40543" cy="33063" r="334.65"/><circle cx="41543" cy="33063" r="334.65"/><circle cx="40543" cy="34063" r="334.65"/><circle cx="41543" cy="34063" r="334.65"/><circle cx="40543" cy="35063" r="334.65"/><circle cx="41543" cy="35063" r="334.65"/><circle cx="40543" cy="28063" r="334.65"/><circle cx="40543" cy="17063" r="334.65"/><path d="M40209 16398v-669.3h669.3v669.3z" fill-rule="evenodd"/><circle cx="40543" cy="24063" r="334.65"/><circle cx="41543" cy="30063" r="334.65"/><circle cx="40543" cy="19063" r="334.65"/><circle cx="41543" cy="18063" r="334.65"/><circle cx="40543" cy="27063" r="334.65"/><circle cx="40543" cy="18063" r="334.65"/><circle cx="41543" cy="26063" r="334.65"/><circle cx="41543" cy="23063" r="334.65"/><circle cx="41543" cy="17063" r="334.65"/><circle cx="40543" cy="21063" r="334.65"/><circle cx="41543" cy="24063" r="334.65"/><circle cx="40543" cy="20063" r="334.65"/><circle cx="41543" cy="25063" r="334.65"/><circle cx="41543" cy="20063" r="334.65"/><circle cx="41543" cy="21063" r="334.65"/><circle cx="40543" cy="26063" r="334.65"/><circle cx="41543" cy="16063" r="334.65"/><circle cx="40543" cy="23063" r="334.65"/><circle cx="40543" cy="25063" r="334.65"/><circle cx="41543" cy="22063" r="334.65"/><circle cx="40543" cy="22063" r="334.65"/><circle cx="41543" cy="27063" r="334.65"/><circle cx="40543" cy="32063" r="334.65"/><circle cx="41543" cy="29063" r="334.65"/><circle cx="41543" cy="28063" r="334.65"/></g><path d="M34005 14163h42303v32933H34005z" fill="#fff"/></mask></defs><g fill="none" fill-opacity="0" mask="url(#d)" stroke="#f0f0f0" stroke-linecap="round" stroke-linejoin="round"><g stroke-width="147.64"><path d="M35828 45775v338m0-169h-591l84 56 57 57 28 56m197-591v-450m-338-590l-28 56v84l28 85 56 56 57 28 112 28h85l112-28 56-28 57-56 28-85v-56l-28-84-29-28h-196v112m253-366h-591l591-337h-591m591-281h-591v-141l28-84 56-56 57-29 112-28h85l112 28 56 29 57 56 28 84v141m1532 2531l-28-28-28-57v-140l28-56 28-29 57-28h56l84 28 338 338v-366m-225-253v-450m-366-197l591-196-591-197m534-535l28 29 29 84v56l-29 84-56 57-56 28-112 28h-85l-112-28-57-28-56-57-28-84v-56l28-84 28-29m478-590l28 28 29 84v57l-29 84-56 56-56 28-112 28h-85l-112-28-57-28-56-56-28-84v-57l28-84 28-28m2011 2784v-366l225 197v-84l28-56 28-29 56-28h141l56 28 28 29 29 56v169l-29 56-28 28m-168-619v-450m-394-703l759 506m-731-646l591-141-422-112 422-113-591-141m591-562l-282 197m282 140h-591v-225l28-56 28-28 56-28h85l56 28 28 28 28 56v225m1955 2335h393m-618 140l422 141v-366m-29-225v-450m-393-703l759 506m-141-1040l-281 197m281 140h-590v-225l28-56 28-28 56-28h85l56 28 28 28 28 56v225m281-590h-590v-141l28-84 56-56 57-29 112-28h84l113 28 56 29 56 56 28 84v141m1477 2221v282l281 28-28-28-28-57v-140l28-56 28-29 56-28h141l56 28 28 29 28 56v140l-28 57-28 28m-169-591v-450m-393-703l759 506m-141-1040l-281 197m281 140h-590v-225l28-56 28-28 56-28h85l56 28 28 28 28 56v225m-28-590v-197m309-84v281h-590v-281m562-225l28-85v-140l-28-57-28-28-56-28h-56l-57 28-28 28-28 57-28 112-28 56-28 29-56 28h-57l-56-28-28-29-28-56v-140l28-85m2039 3094v112l28 56 28 28 84 57 113 28h225l56-28 28-28 28-57v-112l-28-56-28-29-56-28h-141l-56 28-28 29-28 56v112l28 57 28 28 56 28m28-591v-450m225-281h-590v-141l28-84 56-56 56-28 113-28h84l113 28 56 28 56 56 28 84v141m-56-928l28 28 28 85v56l-28 84-56 56-56 28-113 29h-84l-113-29-56-28-56-56-28-84v-56l28-85 28-28m2011 2278v-394l590 253m-225-478v-450m-393-703l759 506m-197-1040l28 28 28 84v57l-28 84-56 56-56 28-113 28h-84l-113-28-56-28-56-56-28-84v-57l28-84 28-28m506-225l28-84v-141l-28-56-28-28-56-29h-56l-57 29-28 28-28 56-28 112-28 57-28 28-57 28h-56l-56-28-28-28-28-57v-140l28-85m2292 2728l-28 57-29 28-56 28h-28l-56-28-28-28-28-57v-112l28-56 28-29 56-28h28l56 28 29 29 28 56v112l28 57 28 28 56 28h113l56-28 28-28 28-57v-112l-28-56-28-29-56-28h-113l-56 28-28 29-28 56m112-366v-450m225-281h-590v-141l28-84 56-56 56-28 113-28h84l113 28 56 28 56 56 28 84v141m-309-787l28-85 28-28 56-28h85l56 28 28 28 28 57v224h-590v-196l28-57 28-28 56-28h56l57 28 28 28 28 57v196m-281-703v-56l28-56 28-28 56-28 113-28h140l113 28 56 28 28 28 28 56v56l-28 57-28 28-56 28-113 28h-140l-113-28-56-28-28-28-28-57m2657 2560v-113l-28-56-28-28-84-57-113-28h-225l-56 28-28 29-28 56v112l28 57 28 28 56 28h141l56-28 28-28 28-57v-112l-28-56-28-29-56-28m112-253v-450m225-281h-590v-141l28-84 56-56 56-28 113-28h84l113 28 56 28 56 56 28 84v141m-309-787l28-85 28-28 56-28h85l56 28 28 28 28 57v224h-590v-196l28-57 28-28 56-28h56l57 28 28 28 28 57v196m309-899v337m0-169h-590l84 57 56 56 28 56m2489 2587v338m0-169h-591l85 56 56 56 28 57m-169-703v-57l29-56 28-28 56-28 112-28h141l113 28 56 28 28 28 28 56v57l-28 56-28 28-56 28-113 28h-141l-112-28-56-28-28-28-29-56m366-450v-450m225-281h-591v-141l29-84 56-57 56-28 113-28h84l112 28 57 28 56 57 28 84v141m-309-788l28-84 28-28 56-28h85l56 28 28 28 28 56v225h-591v-197l29-56 28-28 56-28h56l56 28 29 28 28 56v197m-225-562l-28-29-29-56v-140l29-57 28-28 56-28h56l85 28 337 338v-366m2067 3037v338m0-169h-591l85 56 56 56 28 57m422-900v337m0-168h-591l85 56 56 56 28 56m197-590v-450m225-281h-591v-141l29-84 56-57 56-28 113-28h84l112 28 57 28 56 57 28 84v141m-309-788l28-84 28-28 56-28h84l57 28 28 28 28 56v225h-591v-197l29-56 28-28 56-28h56l56 28 29 28 28 56v197m-282-534v-366l225 197v-84l29-57 28-28 56-28h140l57 28 28 28 28 57v168l-28 57-28 28m2123 2671v338m0-169h-591l85 56 56 56 28 57m-112-563l-29-28-28-56v-141l28-56 29-28 56-28h56l84 28 338 337v-365m-225-253v-450m225-281h-591v-141l28-84 57-57 56-28 112-28h85l112 28 57 28 56 57 28 84v141m-309-788l28-84 28-28 56-28h84l57 28 28 28 28 56v225h-591v-197l28-56 29-28 56-28h56l56 28 28 28 29 56v197m-85-844h394m-619 141l422 141v-366m2264 3065v338m0-169h-591l85 56 56 56 28 57m-169-535v-365l225 197v-85l28-56 28-28 57-28h140l57 28 28 28 28 56v169l-28 56-28 28m-169-618v-450m225-281h-591v-141l28-84 57-57 56-28 112-28h85l112 28 56 28 57 57 28 84v141m-310-788l29-84 28-28 56-28h84l57 28 28 28 28 56v225h-591v-197l28-56 29-28 56-28h56l56 28 28 28 28 56v197m-281-872v281l281 29-28-29-28-56v-140l28-57 28-28 57-28h140l57 28 28 28 28 57v140l-28 56-28 29m2123 2699v338m0-169h-591l85 56 56 56 28 57m28-844h394m-619 141l422 140v-365m-28-225v-450m225-281h-591v-141l28-84 57-57 56-28 112-28h85l112 28 56 28 57 57 28 84v141m-310-788l29-84 28-28 56-28h84l57 28 28 28 28 56v225h-591v-197l28-56 28-28 57-28h56l56 28 28 28 28 56v197m-281-844v113l28 56 28 28 85 56 112 29h225l57-29 28-28 28-56v-112l-28-57-28-28-57-28h-140l-57 28-28 28-28 57v112l28 56 28 28 57 29m2320 2699v338m0-169h-591l84 56 57 56 28 57m-169-872v281l281 28-28-28-28-56v-141l28-56 28-28 57-28h140l56 28 29 28 28 56v141l-28 56-29 28m-168-590v-450m225-281h-591v-141l28-84 56-57 57-28 112-28h85l112 28 56 28 57 57 28 84v141m-310-788l28-84 29-28 56-28h84l56 28 29 28 28 56v225h-591v-197l28-56 28-28 57-28h56l56 28 28 28 28 56v197m-281-534v-394l591 253m1532 3150l-28-28-28-57v-140l28-57 28-28 57-28h56l84 28 338 338v-366m-591-365v-57l28-56 28-28 57-28 112-28h141l112 28 56 28 28 28 29 56v57l-29 56-28 28-56 28-112 28h-141l-112-28-57-28-28-28-28-56m366-450v-450m168-619l28 28 29 85v56l-29 84-56 56-56 29-112 28h-85l-112-28-57-29-56-56-28-84v-56l28-85 28-28m535-534v281h-591m591-478h-591m591-338l-338 254m-253-254l338 338m1785 2953l-28-28-28-57v-140l28-57 28-28 56-28h57l84 28 338 338v-366m0-562v337m0-168h-591l84 56 57 56 28 56m197-590v-450m168-619l28 28 29 85v56l-29 84-56 56-56 29-113 28h-84l-112-28-57-29-56-56-28-84v-56l28-85 28-28m506-225l29-84v-141l-29-56-28-28-56-28h-56l-56 28-29 28-28 56-28 113-28 56-28 28-56 28h-57l-56-28-28-28-28-56v-141l28-84m2095 2784l-28-28-28-57v-140l28-57 28-28 56-28h57l84 28 337 338v-366m-534-225l-28-28-28-56v-141l28-56 28-28 56-28h57l84 28 337 337v-365m-224-253v-450m224-281h-590m590-282h-590l590-337h-590m2123 2503l-28-28-28-57v-140l28-57 28-28 56-28h57l84 28 337 338v-366m-590-197v-365l225 197v-85l28-56 28-28 56-28h141l56 28 28 28 28 56v169l-28 56-28 28m-169-618v-450m-365-394v-112l28-57 56-56 113-28h197l112 28 56 56 28 57v112l-28 56-56 57-112 28h-197l-113-28-56-57-28-56m0-506h478l56-28 28-28 28-57v-112l-28-56-28-28-56-29h-478m0-196v-338m590 169h-590m2123 3206l-28-28-28-57v-140l28-57 28-28 56-28h57l84 28 337 338v-366m-393-506h393m-618 141l421 140v-365m-28-225v-450m225-281h-590m590-619l-281 197m281 140h-590v-225l28-56 28-28 56-28h85l56 28 28 28 28 56v225m338-984l-29 56-56 57-84 84-28 56v56"/><path d="M75099 43694l-28 57-56 56-113 28h-196l-113-28-56-56-28-57v-112l28-56 56-57 113-28h196l113 28 56 57 28 56v112"/></g><g stroke-width="62.992"><circle cx="68906" cy="18368" r="596.06"/><circle cx="68906" cy="32803" r="659.45"/><circle cx="43066" cy="32865" r="643.7"/><circle cx="43066" cy="18416" r="631.1"/><path d="M70284 36039V15051m-7 0H39472m-4 4v20992h30813"/></g><path d="M42066 15539v20047m-2047-20047h524m-524 20047h2047m-2047-19524v-523m0 1023h1024m-1024 0v19024m1024-20047h1023m-1023 1023v-1023" stroke-width="47.244"/></g><path d="M76299 47086H34015m42284-32913v32913M34015 14173h42284M34015 47086V14173" fill="none" fill-opacity="0" stroke="#000" stroke-linecap="round" stroke-linejoin="round" stroke-width="19.685"/><defs><mask id="b"><path d="M34005 14163h42303v32933H34005z" fill="#fff"/><path d="M40543 31062h0m1000 0h0m0 1000h0m-1000-2000h0m0-1000h0m1000-10000h0m-1000 14000h0m1000 0h0m-1000 1000h0m1000 0h0m-1000 1000h0m1000 0h0m-1000-7000h0m0-11000h0m0-1000h0m0 8000h0m1000 6000h0m-1000-11000h0m1000-1000h0m-1000 9000h0m0-9000h0m1000 8000h0m0-3000h0m0-6000h0m-1000 4000h0m1000 3000h0m-1000-4000h0m1000 5000h0m0-5000h0m0 1000h0m-1000 5000h0m1000-10000h0m-1000 7000h0m0 2000h0m1000-3000h0m-1000 0h0m1000 5000h0m-1000 5000h0m1000-3000h0m0-1000h0" stroke="#000" stroke-linecap="round" stroke-width="393"/></mask></defs></g><path d="M36099 1314.2v20195H5577v-20195z" fill="#e9343f" fill-rule="evenodd" stroke="#000" stroke-width="39.764"/><circle transform="matrix(0 -1 -1 0 0 0)" cx="-18651" cy="-8910.1" r="836.22" fill="#821419" stroke="#000" stroke-width="36.614"/><circle transform="matrix(0 -1 -1 0 0 0)" cx="-4201.2" cy="-8910.1" r="836.22" fill="#821419" stroke="#000" stroke-width="36.614"/><circle transform="matrix(0 -1 -1 0 0 0)" cx="-4201.2" cy="-34885" r="836.22" fill="#a00" stroke="#000" stroke-width="36.614"/><circle transform="matrix(0 -1 -1 0 0 0)" cx="-18651" cy="-34885" r="836.22" fill="#821419" stroke="#000" stroke-width="36.614"/><path d="M9899.8 7613.4v-4550h23760v16770h-23760v-4550z" fill="#f2f2f2" fill-rule="evenodd" stroke="#000" stroke-width="36.614"/><path d="M12640 19423V3284l3.937-.787h-2003.9v3508.7h-740.16v11101h740.16v1720.5h1999.2v-16160h.787z" fill="#333" fill-rule="evenodd" stroke="#000" stroke-width="36.614"/><circle transform="matrix(0 -1 -1 0 0 0)" cx="-18651" cy="-8910.1" r="635.04" fill="#f2f2f2" stroke="#000" stroke-width="36.614"/><circle transform="matrix(0 -1 -1 0 0 0)" cx="-4201.2" cy="-8910.1" r="635.04" fill="#f2f2f2" stroke="#000" stroke-width="36.614"/><circle transform="matrix(0 -1 -1 0 0 0)" cx="-4201.2" cy="-34885" r="635.04" fill="#f2f2f2" stroke="#000" stroke-width="36.614"/><circle transform="matrix(0 -1 -1 0 0 0)" cx="-18651" cy="-34885" r="635.04" fill="#f2f2f2" stroke="#000" stroke-width="36.614"/><path d="M20810 3033.5v29.921z" fill="#ccc" fill-rule="evenodd" stroke="#000" stroke-width="36.614"/><path d="M8694.7 4798.5a138.58 138.58 0 0 0-59.842-25.197m25519 13878a731.49 731.49 0 1 1 731.5 731.49m-.394 0a731.49 731.49 0 0 1-731.5-731.49m.394-14450a731.49 731.49 0 1 1 731.5 731.49m-.394-.394a731.49 731.49 0 0 1-731.5-731.49m-25975 .394a731.49 731.49 0 1 1 731.49 731.49" fill="none" stroke="#000" stroke-width="36.614"/><path d="M8910.1 4932.3a731.49 731.49 0 0 1-731.49-731.49m0 14450a731.49 731.49 0 1 1 731.49 731.49 731.49 731.49 0 0 1-731.49-731.49m3050.4-13995h1264.2" fill="none" stroke="#000" stroke-width="36.614"/><path d="M20810 19863v-29.922z" fill="#ccc" fill-rule="evenodd" stroke="#000" stroke-width="36.614"/><path d="M12493 17733h-1264.2m0 1879.9V15283m0-7670.1V3453.1m274.8 4159.8V15283m989.37 0h-989.37" fill="none" stroke="#000" stroke-width="36.614"/><path d="M12640 15283h-1.181zm-1.181-7670.1h1.181z" fill="#333" fill-rule="evenodd" stroke="#000" stroke-width="36.614"/><path d="M11504 7613.4h989.37m-1264.2-4159.8h1264.2m21197 11410V8033.7m0 6829.9v4340.1m0 659.84v-659.84m0-15510v-659.84m0 5000v-4340.1m0-659.84h-12880m12220 16830h659.84m-659.84 0h-12220m12220-16800v-29.921m659.84 659.84h-29.921m0 4340.1h29.921m0 11170h-29.921m0-4340.1h29.921m-659.84 4970.1v29.922" fill="none" stroke="#000" stroke-width="36.614"/><path d="M12639 3283.5h20801v16330H12639z" fill-rule="evenodd" stroke="#000" stroke-width="40.157"/><path d="M12493 3453.6h145.67m-2739 4159.8h1603.9m0 7670.1h-1603.9" fill="none" stroke="#000" stroke-width="36.614"/><path d="M9778.2 7613.4h-32.283 154.33v7670.1h-154.72 153.94-153.94V7613.4z" fill="#b4894f" fill-rule="evenodd" stroke="#000" stroke-width="36.614"/><path d="M12493 3453.6v16160" fill="none" stroke="#000" stroke-width="36.614"/><path d="M6774.6 21335H5749.8V1532h1024.8-100 1024.8v19804H6674.6z" fill="#1a1a1a" fill-rule="evenodd" stroke="#000" stroke-width="36.614"/><circle transform="matrix(0 -1 -1 0 0 0)" cx="-1904" cy="-6262.4" r="250" fill="#b3b3b3" stroke="#000" stroke-width="36.614"/><circle transform="matrix(0 -1 -1 0 0 0)" cx="-2904" cy="-6262.4" r="250" fill="#b3b3b3" stroke="#000" stroke-width="36.614"/><circle transform="matrix(0 -1 -1 0 0 0)" cx="-3904" cy="-6262.4" r="250" fill="#b3b3b3" stroke="#000" stroke-width="36.614"/><circle transform="matrix(0 -1 -1 0 0 0)" cx="-4904" cy="-6262.4" r="250" fill="#b3b3b3" stroke="#000" stroke-width="36.614"/><circle transform="matrix(0 -1 -1 0 0 0)" cx="-5904" cy="-6262.4" r="250" fill="#b3b3b3" stroke="#000" stroke-width="36.614"/><circle transform="matrix(0 -1 -1 0 0 0)" cx="-6904" cy="-6262.4" r="250" fill="#b3b3b3" stroke="#000" stroke-width="36.614"/><circle transform="matrix(0 -1 -1 0 0 0)" cx="-7904" cy="-6262.4" r="250" fill="#b3b3b3" stroke="#000" stroke-width="36.614"/><circle transform="matrix(0 -1 -1 0 0 0)" cx="-9904" cy="-6262.4" r="250" fill="#b3b3b3" stroke="#000" stroke-width="36.614"/><circle transform="matrix(0 -1 -1 0 0 0)" cx="-10904" cy="-6262.4" r="250" fill="#b3b3b3" stroke="#000" stroke-width="36.614"/><circle transform="matrix(0 -1 -1 0 0 0)" cx="-11904" cy="-6262.4" r="250" fill="#b3b3b3" stroke="#000" stroke-width="36.614"/><circle transform="matrix(0 -1 -1 0 0 0)" cx="-12904" cy="-6262.4" r="250" fill="#b3b3b3" stroke="#000" stroke-width="36.614"/><circle transform="matrix(0 -1 -1 0 0 0)" cx="-13904" cy="-6262.4" r="250" fill="#b3b3b3" stroke="#000" stroke-width="36.614"/><circle transform="matrix(0 -1 -1 0 0 0)" cx="-14904" cy="-6262.4" r="250" fill="#b3b3b3" stroke="#000" stroke-width="36.614"/><path d="M6724.6 2376.4h-924.8" fill="none" stroke="#000" stroke-width="36.614"/><path d="M6400.2 2043.3v-279.92h-279.92v279.92zm-279.92 1000h279.53v-279.92h-279.53zm279.92 720.08h-279.92v279.92h279.53v-279.92zm0 1279.9v-279.92h-279.92v279.92zm-279.92 1000h279.53v-279.92h-279.53zm0 1000h279.53v-279.92h-279.53zm279.92 720.08h-279.92v279.92h279.53z" fill="olive" fill-rule="evenodd" stroke="#000" stroke-width="36.614"/><circle transform="matrix(0 -1 -1 0 0 0)" cx="-8904" cy="-6262.4" r="250" fill="#999" stroke="#000" stroke-width="36.614"/><path d="M6400.2 9043.3v-279.92h-279.92v279.92zm-279.92 720.08v279.92h279.53v-279.92zm0 1279.9h279.53v-279.92h-279.53zm0 1000h279.53v-279.92h-279.53zm0 720.08v279.92h279.53v-279.92zm279.92 1279.9v-279.92h-279.92v279.92zm0 720.08h-279.92v279.92h279.53z" fill="olive" fill-rule="evenodd" stroke="#000" stroke-width="36.614"/><circle transform="matrix(0 -1 -1 0 0 0)" cx="-15904" cy="-6262.4" r="250" fill="#b3b3b3" stroke="#000" stroke-width="36.614"/><circle transform="matrix(0 -1 -1 0 0 0)" cx="-16904" cy="-6262.4" r="250" fill="#b3b3b3" stroke="#000" stroke-width="36.614"/><circle transform="matrix(0 -1 -1 0 0 0)" cx="-17904" cy="-6262.4" r="250" fill="#b3b3b3" stroke="#000" stroke-width="36.614"/><circle transform="matrix(0 -1 -1 0 0 0)" cx="-18904" cy="-6262.4" r="250" fill="#b3b3b3" stroke="#000" stroke-width="36.614"/><circle transform="matrix(0 -1 -1 0 0 0)" cx="-19904" cy="-6262.4" r="250" fill="#b3b3b3" stroke="#000" stroke-width="36.614"/><circle transform="matrix(0 -1 -1 0 0 0)" cx="-20904" cy="-6262.4" r="250" fill="#b3b3b3" stroke="#000" stroke-width="36.614"/><path d="M6120.3 16043h279.53v-279.92H6120.3zm0 720.08V17043h279.53v-279.92zm279.92 1279.9v-279.92H6120.3v279.92zm-279.92 720.08v279.92h279.53v-279.92zm0 1279.9h279.53v-279.92H6120.3zm0 720.08v279.92h279.53v-279.92z" fill="olive" fill-rule="evenodd" stroke="#000" stroke-width="36.614"/><circle transform="matrix(0 -1 -1 0 0 0)" cx="-1904" cy="-7187.2" r="250" fill="#b3b3b3" stroke="#000" stroke-width="36.614"/><circle transform="matrix(0 -1 -1 0 0 0)" cx="-2904" cy="-7187.2" r="250" fill="#b3b3b3" stroke="#000" stroke-width="36.614"/><circle transform="matrix(0 -1 -1 0 0 0)" cx="-3904" cy="-7187.2" r="250" fill="#b3b3b3" stroke="#000" stroke-width="36.614"/><circle transform="matrix(0 -1 -1 0 0 0)" cx="-4904" cy="-7187.2" r="250" fill="#b3b3b3" stroke="#000" stroke-width="36.614"/><circle transform="matrix(0 -1 -1 0 0 0)" cx="-5904" cy="-7187.2" r="250" fill="#b3b3b3" stroke="#000" stroke-width="36.614"/><circle transform="matrix(0 -1 -1 0 0 0)" cx="-6904" cy="-7187.2" r="250" fill="#b3b3b3" stroke="#000" stroke-width="36.614"/><circle transform="matrix(0 -1 -1 0 0 0)" cx="-7904" cy="-7187.2" r="250" fill="#b3b3b3" stroke="#000" stroke-width="36.614"/><circle transform="matrix(0 -1 -1 0 0 0)" cx="-9904" cy="-7187.2" r="250" fill="#b3b3b3" stroke="#000" stroke-width="36.614"/><circle transform="matrix(0 -1 -1 0 0 0)" cx="-10904" cy="-7187.2" r="250" fill="#b3b3b3" stroke="#000" stroke-width="36.614"/><circle transform="matrix(0 -1 -1 0 0 0)" cx="-11904" cy="-7187.2" r="250" fill="#b3b3b3" stroke="#000" stroke-width="36.614"/><circle transform="matrix(0 -1 -1 0 0 0)" cx="-12904" cy="-7187.2" r="250" fill="#b3b3b3" stroke="#000" stroke-width="36.614"/><circle transform="matrix(0 -1 -1 0 0 0)" cx="-13904" cy="-7187.2" r="250" fill="#b3b3b3" stroke="#000" stroke-width="36.614"/><circle transform="matrix(0 -1 -1 0 0 0)" cx="-14904" cy="-7187.2" r="250" fill="#b3b3b3" stroke="#000" stroke-width="36.614"/><path d="M7325 1763.4h-280.31v279.92H7325zm0 1000h-280.31v279.92H7325zm-280.31 1279.9H7325v-279.92h-280.31zm0 1000H7325v-279.92h-280.31zM7325 5763.38h-280.31v279.92H7325zm0 1279.9v-279.92h-280.31v279.92zm-280.31 1000H7325v-279.92h-280.31z" fill="olive" fill-rule="evenodd" stroke="#000" stroke-width="36.614"/><circle transform="matrix(0 -1 -1 0 0 0)" cx="-8904" cy="-7187.2" r="250" fill="#b3b3b3" stroke="#000" stroke-width="36.614"/><path d="M7044.7 9043.3h280.31v-279.92H7044.7zm0 1000h280.31v-279.92H7044.7zm0 1000h280.31v-279.92H7044.7zm0 1000h280.31v-279.92H7044.7zm280.31 1000v-279.92H7044.7v279.92zm0 720.08H7044.7v279.92h280.31zm0 1000H7044.7v279.92h280.31z" fill="olive" fill-rule="evenodd" stroke="#000" stroke-width="36.614"/><circle transform="matrix(0 -1 -1 0 0 0)" cx="-15904" cy="-7187.2" r="250" fill="#b3b3b3" stroke="#000" stroke-width="36.614"/><circle transform="matrix(0 -1 -1 0 0 0)" cx="-16904" cy="-7187.2" r="250" fill="#b3b3b3" stroke="#000" stroke-width="36.614"/><circle transform="matrix(0 -1 -1 0 0 0)" cx="-17904" cy="-7187.2" r="250" fill="#b3b3b3" stroke="#000" stroke-width="36.614"/><circle transform="matrix(0 -1 -1 0 0 0)" cx="-18904" cy="-7187.2" r="250" fill="#b3b3b3" stroke="#000" stroke-width="36.614"/><circle transform="matrix(0 -1 -1 0 0 0)" cx="-19904" cy="-7187.2" r="250" fill="#b3b3b3" stroke="#000" stroke-width="36.614"/><circle transform="matrix(0 -1 -1 0 0 0)" cx="-20904" cy="-7187.2" r="250" fill="#b3b3b3" stroke="#000" stroke-width="36.614"/><path d="M7044.7 15763v279.92h280.31V15763zm0 1279.9h280.31v-279.92H7044.7zm280.31 720.08H7044.7v279.92h280.31zm-280.31 1279.9h280.31v-279.92H7044.7zm0 1000h280.31v-279.92H7044.7zm280.31 1000v-279.92H7044.7v279.92z" fill="olive" fill-rule="evenodd" stroke="#000" stroke-width="36.614"/><path d="M6724.6 1581.9v794.09m-924.8 58.268v-852.36h1849.6v19704l-925.2-5.906h-924.01v-18844z" fill="none" stroke="#000" stroke-width="36.614"/></svg>