<svg width="496" height="506" viewBox="0 0 32303 32933" xmlns="http://www.w3.org/2000/svg"><g fill="#313d63" stroke="#313d63"><path d="M9 32765V9h32283v32913H9v-157" fill-rule="evenodd"/><path d="M9 32922v-157m32283 157H9M32292 9v32913M9 9h32283M9 32765V9" fill="none" fill-opacity="0" stroke="#000" stroke-linecap="round" stroke-linejoin="round" stroke-width="19.685"/></g><g transform="translate(-38731 -14164)" fill="#9c6b28" stroke-linecap="round" stroke-linejoin="round" stroke-width="0"><circle cx="40543" cy="31063" r="334.65"/><circle cx="41543" cy="31063" r="334.65"/><circle cx="41543" cy="32063" r="334.65"/><circle cx="40543" cy="30063" r="334.65"/><circle cx="40543" cy="29063" r="334.65"/><circle cx="41543" cy="19063" r="334.65"/><circle cx="40543" cy="33063" r="334.65"/><circle cx="41543" cy="33063" r="334.65"/><circle cx="40543" cy="34063" r="334.65"/><circle cx="41543" cy="34063" r="334.65"/><circle cx="40543" cy="35063" r="334.65"/><circle cx="41543" cy="35063" r="334.65"/><circle cx="40543" cy="28063" r="334.65"/><circle cx="40543" cy="17063" r="334.65"/><path d="M40209 16398v-669.3h669.3v669.3z" fill-rule="evenodd"/><circle cx="40543" cy="24063" r="334.65"/><circle cx="41543" cy="30063" r="334.65"/><circle cx="40543" cy="19063" r="334.65"/><circle cx="41543" cy="18063" r="334.65"/><circle cx="40543" cy="27063" r="334.65"/><circle cx="40543" cy="18063" r="334.65"/><circle cx="41543" cy="26063" r="334.65"/><circle cx="41543" cy="23063" r="334.65"/><circle cx="41543" cy="17063" r="334.65"/><circle cx="40543" cy="21063" r="334.65"/><circle cx="41543" cy="24063" r="334.65"/><circle cx="40543" cy="20063" r="334.65"/><circle cx="41543" cy="25063" r="334.65"/><circle cx="41543" cy="20063" r="334.65"/><circle cx="41543" cy="21063" r="334.65"/><circle cx="40543" cy="26063" r="334.65"/><circle cx="41543" cy="16063" r="334.65"/><circle cx="40543" cy="23063" r="334.65"/><circle cx="40543" cy="25063" r="334.65"/><circle cx="41543" cy="22063" r="334.65"/><circle cx="40543" cy="22063" r="334.65"/><circle cx="41543" cy="27063" r="334.65"/><circle cx="40543" cy="32063" r="334.65"/><circle cx="41543" cy="29063" r="334.65"/><circle cx="41543" cy="28063" r="334.65"/></g><g fill="#212d53" stroke-linecap="round" stroke-linejoin="round" stroke-width="0"><g transform="translate(-38731 -14164)"><circle cx="40543" cy="31063" r="334.65"/><circle cx="41543" cy="31063" r="334.65"/><circle cx="41543" cy="32063" r="334.65"/><circle cx="40543" cy="30063" r="334.65"/><circle cx="40543" cy="29063" r="334.65"/><circle cx="41543" cy="19063" r="334.65"/><circle cx="40543" cy="33063" r="334.65"/><circle cx="41543" cy="33063" r="334.65"/><circle cx="40543" cy="34063" r="334.65"/><circle cx="41543" cy="34063" r="334.65"/><circle cx="40543" cy="35063" r="334.65"/><circle cx="41543" cy="35063" r="334.65"/><circle cx="40543" cy="28063" r="334.65"/><circle cx="40543" cy="17063" r="334.65"/><path d="M40209 16398v-669.3h669.3v669.3z" fill-rule="evenodd"/><circle cx="40543" cy="24063" r="334.65"/><circle cx="41543" cy="30063" r="334.65"/><circle cx="40543" cy="19063" r="334.65"/><circle cx="41543" cy="18063" r="334.65"/><circle cx="40543" cy="27063" r="334.65"/><circle cx="40543" cy="18063" r="334.65"/><circle cx="41543" cy="26063" r="334.65"/><circle cx="41543" cy="23063" r="334.65"/><circle cx="41543" cy="17063" r="334.65"/><circle cx="40543" cy="21063" r="334.65"/><circle cx="41543" cy="24063" r="334.65"/><circle cx="40543" cy="20063" r="334.65"/><circle cx="41543" cy="25063" r="334.65"/><circle cx="41543" cy="20063" r="334.65"/><circle cx="41543" cy="21063" r="334.65"/><circle cx="40543" cy="26063" r="334.65"/><circle cx="41543" cy="16063" r="334.65"/><circle cx="40543" cy="23063" r="334.65"/><circle cx="40543" cy="25063" r="334.65"/><circle cx="41543" cy="22063" r="334.65"/><circle cx="40543" cy="22063" r="334.65"/><circle cx="41543" cy="27063" r="334.65"/><circle cx="40543" cy="32063" r="334.65"/><circle cx="41543" cy="29063" r="334.65"/><circle cx="41543" cy="28063" r="334.65"/></g><g transform="translate(-38731 -14164)"><circle cx="40543" cy="31063" r="68.898"/><circle cx="41543" cy="31063" r="68.898"/><circle cx="41543" cy="32063" r="68.898"/><circle cx="40543" cy="30063" r="68.898"/><circle cx="40543" cy="29063" r="68.898"/><circle cx="41543" cy="19063" r="68.898"/><circle cx="40543" cy="33063" r="68.898"/><circle cx="41543" cy="33063" r="68.898"/><circle cx="40543" cy="34063" r="68.898"/><circle cx="41543" cy="34063" r="68.898"/><circle cx="40543" cy="35063" r="68.898"/><circle cx="41543" cy="35063" r="68.898"/><circle cx="40543" cy="28063" r="68.898"/><circle cx="40543" cy="17063" r="68.898"/><circle cx="40543" cy="16063" r="68.898"/><circle cx="40543" cy="24063" r="68.898"/><circle cx="41543" cy="30063" r="68.898"/><circle cx="40543" cy="19063" r="68.898"/><circle cx="41543" cy="18063" r="68.898"/><circle cx="40543" cy="27063" r="68.898"/><circle cx="40543" cy="18063" r="68.898"/><circle cx="41543" cy="26063" r="68.898"/><circle cx="41543" cy="23063" r="68.898"/><circle cx="41543" cy="17063" r="68.898"/><circle cx="40543" cy="21063" r="68.898"/><circle cx="41543" cy="24063" r="68.898"/><circle cx="40543" cy="20063" r="68.898"/><circle cx="41543" cy="25063" r="68.898"/><circle cx="41543" cy="20063" r="68.898"/><circle cx="41543" cy="21063" r="68.898"/><circle cx="40543" cy="26063" r="68.898"/><circle cx="41543" cy="16063" r="68.898"/><circle cx="40543" cy="23063" r="68.898"/><circle cx="40543" cy="25063" r="68.898"/><circle cx="41543" cy="22063" r="68.898"/><circle cx="40543" cy="22063" r="68.898"/><circle cx="41543" cy="27063" r="68.898"/><circle cx="40543" cy="32063" r="68.898"/><circle cx="41543" cy="29063" r="68.898"/><circle cx="41543" cy="28063" r="68.898"/></g></g><g transform="translate(-38731 -14164)" fill="#b5ae30" mask="url(#pads-mask)" stroke-linecap="round" stroke-linejoin="round" stroke-width="0"><circle cx="40543" cy="31063" r="334.65"/><circle cx="41543" cy="31063" r="334.65"/><circle cx="41543" cy="32063" r="334.65"/><circle cx="40543" cy="30063" r="334.65"/><circle cx="40543" cy="29063" r="334.65"/><circle cx="41543" cy="19063" r="334.65"/><circle cx="40543" cy="33063" r="334.65"/><circle cx="41543" cy="33063" r="334.65"/><circle cx="40543" cy="34063" r="334.65"/><circle cx="41543" cy="34063" r="334.65"/><circle cx="40543" cy="35063" r="334.65"/><circle cx="41543" cy="35063" r="334.65"/><circle cx="40543" cy="28063" r="334.65"/><circle cx="40543" cy="17063" r="334.65"/><path d="M40209 16398v-669.3h669.3v669.3z" fill-rule="evenodd"/><circle cx="40543" cy="24063" r="334.65"/><circle cx="41543" cy="30063" r="334.65"/><circle cx="40543" cy="19063" r="334.65"/><circle cx="41543" cy="18063" r="334.65"/><circle cx="40543" cy="27063" r="334.65"/><circle cx="40543" cy="18063" r="334.65"/><circle cx="41543" cy="26063" r="334.65"/><circle cx="41543" cy="23063" r="334.65"/><circle cx="41543" cy="17063" r="334.65"/><circle cx="40543" cy="21063" r="334.65"/><circle cx="41543" cy="24063" r="334.65"/><circle cx="40543" cy="20063" r="334.65"/><circle cx="41543" cy="25063" r="334.65"/><circle cx="41543" cy="20063" r="334.65"/><circle cx="41543" cy="21063" r="334.65"/><circle cx="40543" cy="26063" r="334.65"/><circle cx="41543" cy="16063" r="334.65"/><circle cx="40543" cy="23063" r="334.65"/><circle cx="40543" cy="25063" r="334.65"/><circle cx="41543" cy="22063" r="334.65"/><circle cx="40543" cy="22063" r="334.65"/><circle cx="41543" cy="27063" r="334.65"/><circle cx="40543" cy="32063" r="334.65"/><circle cx="41543" cy="29063" r="334.65"/><circle cx="41543" cy="28063" r="334.65"/><circle cx="40543" cy="31063" r="68.898"/><circle cx="41543" cy="31063" r="68.898"/><circle cx="41543" cy="32063" r="68.898"/><circle cx="40543" cy="30063" r="68.898"/><circle cx="40543" cy="29063" r="68.898"/><circle cx="41543" cy="19063" r="68.898"/><circle cx="40543" cy="33063" r="68.898"/><circle cx="41543" cy="33063" r="68.898"/><circle cx="40543" cy="34063" r="68.898"/><circle cx="41543" cy="34063" r="68.898"/><circle cx="40543" cy="35063" r="68.898"/><circle cx="41543" cy="35063" r="68.898"/><circle cx="40543" cy="28063" r="68.898"/><circle cx="40543" cy="17063" r="68.898"/><circle cx="40543" cy="16063" r="68.898"/><circle cx="40543" cy="24063" r="68.898"/><circle cx="41543" cy="30063" r="68.898"/><circle cx="40543" cy="19063" r="68.898"/><circle cx="41543" cy="18063" r="68.898"/><circle cx="40543" cy="27063" r="68.898"/><circle cx="40543" cy="18063" r="68.898"/><circle cx="41543" cy="26063" r="68.898"/><circle cx="41543" cy="23063" r="68.898"/><circle cx="41543" cy="17063" r="68.898"/><circle cx="40543" cy="21063" r="68.898"/><circle cx="41543" cy="24063" r="68.898"/><circle cx="40543" cy="20063" r="68.898"/><circle cx="41543" cy="25063" r="68.898"/><circle cx="41543" cy="20063" r="68.898"/><circle cx="41543" cy="21063" r="68.898"/><circle cx="40543" cy="26063" r="68.898"/><circle cx="41543" cy="16063" r="68.898"/><circle cx="40543" cy="23063" r="68.898"/><circle cx="40543" cy="25063" r="68.898"/><circle cx="41543" cy="22063" r="68.898"/><circle cx="40543" cy="22063" r="68.898"/><circle cx="41543" cy="27063" r="68.898"/><circle cx="40543" cy="32063" r="68.898"/><circle cx="41543" cy="29063" r="68.898"/><circle cx="41543" cy="28063" r="68.898"/></g><path d="M1713 31375v337m0-168h-591l84 56 57 56 28 56m197-590v-450m-338-591l-28 57v84l28 84 56 57 57 28 112 28h85l112-28 56-28 56-57 29-84v-56l-29-85-28-28h-196v113m253-366h-591l591-337h-591m591-282h-591v-140l28-85 56-56 57-28 112-28h85l112 28 56 28 56 56 29 85v140m1532 2531l-28-28-28-56v-141l28-56 28-28 56-28h57l84 28 338 337v-365m-225-253v-450m-366-197l591-197-591-197m534-534l28 28 29 84v57l-29 84-56 56-56 28-113 29h-84l-112-29-57-28-56-56-28-84v-57l28-84 28-28m478-591l28 29 29 84v56l-29 85-56 56-56 28-113 28h-84l-112-28-57-28-56-56-28-85v-56l28-84 28-29m2011 2784v-365l225 197v-85l28-56 28-28 56-28h141l56 28 28 28 28 56v169l-28 56-28 28m-169-618v-450m169-619l28 28 28 85v56l-28 84-56 57-56 28-113 28h-84l-112-28-57-28-56-57-28-84v-56l28-85 28-28m534-534v281h-590m590-478h-590m590-337l-337 253m-253-253l337 337m1927 2109h393m-618 141l422 140v-365m-29-225v-450m225-281h-590v-141l28-84 56-57 56-28 113-28h84l113 28 56 28 56 57 28 84v141m0-591h-590m590-281h-590l590-338h-590m2067 2222v281l281 28-28-28-28-56v-141l28-56 28-28 56-28h141l56 28 28 28 28 56v141l-28 56-28 28m-169-590v-450m-393-703l759 506m-141-1040l-281 196m281 141h-590v-225l28-56 28-28 56-28h85l56 28 28 28 28 56v225m-28-591v-196m309-85v281h-590v-281m562-225l28-84v-141l-28-56-28-28-56-28h-56l-57 28-28 28-28 56-28 113-28 56-28 28-56 28h-57l-56-28-28-28-28-56v-141l28-84m2039 3093v113l28 56 28 28 84 56 113 28h225l56-28 28-28 28-56v-113l-28-56-28-28-56-28h-141l-56 28-28 28-28 56v113l28 56 28 28 56 28m28-590v-450m225-281h-590v-141l28-84 56-57 56-28 113-28h84l113 28 56 28 56 57 28 84v141m-56-928l28 28 28 84v56l-28 85-56 56-56 28-113 28h-84l-113-28-56-28-56-56-28-85v-56l28-84 28-28m2011 2277v-393l590 253m-225-478v-450m-393-703l759 506m-197-1040l28 28 28 84v56l-28 85-56 56-56 28-113 28h-84l-113-28-56-28-56-56-28-85v-56l28-84 28-28m506-225l28-85v-140l-28-57-28-28-56-28h-57l-56 28-28 28-28 57-28 112-28 56-28 28-57 29h-56l-56-29-28-28-28-56v-141l28-84m2095 3290l-28-28-28-56v-141l28-56 28-28 56-28h56l85 28 337 337v-365m-590-366v-56l28-56 28-28 56-28 113-29h140l113 29 56 28 28 28 28 56v56l-28 56-28 29-56 28-113 28h-140l-113-28-56-28-28-29-28-56m365-450v-450m169-618l28 28 28 84v56l-28 85-56 56-56 28-113 28h-84l-113-28-56-28-56-56-28-85v-56l28-84 28-28m534-535v282h-590m590-478h-590m590-338l-337 253m-253-253l337 338m1786 2952l-28-28-29-56v-141l29-56 28-28 56-28h56l85 28 337 337v-365m0-563v338m0-169h-591l85 56 56 57 28 56m197-591v-450m169-618l28 28 28 84v56l-28 85-56 56-57 28-112 28h-84l-113-28-56-28-56-56-29-85v-56l29-84 28-28m506-225l28-85v-140l-28-56-28-29-56-28h-57l-56 28-28 29-28 56-28 112-28 56-29 29-56 28h-56l-56-28-28-29-29-56v-140l29-85m2095 2784l-28-28-29-56v-141l29-56 28-28 56-28h56l85 28 337 337v-365m-534-225l-28-28-29-57v-140l29-56 28-28 56-29h56l85 29 337 337v-366m-225-253v-450m225-281h-591m591-281h-591l591-338h-591m2124 2503l-29-28-28-56v-141l28-56 29-28 56-28h56l84 28 338 337v-365m-591-197v-366l225 197v-84l28-56 29-28 56-29h140l57 29 28 28 28 56v169l-28 56-28 28m-169-619v-450m-366-393v-113l28-56 57-56 112-28h197l113 28 56 56 28 56v113l-28 56-56 56-113 28h-197l-112-28-57-56-28-56m0-507h478l57-28 28-28 28-56v-112l-28-57-28-28-57-28h-478m0-197v-337m591 168h-591m2124 3206l-29-28-28-56v-141l28-56 29-28 56-28h56l84 28 338 337v-365m-394-506h394m-619 140l422 141v-366m-28-225v-450m225-281h-591m591-619l-281 197m281 141h-591v-225l28-56 29-28 56-29h84l56 29 28 28 29 56v225m337-984l-28 56-141 141-28 56v56" fill="none" stroke="#f0f0f0" stroke-linecap="round" stroke-linejoin="round" stroke-width="147.64"/><path d="M24449 29294l-28 56-57 56-112 29h-197l-112-29-57-56-28-56v-113l28-56 57-56 112-28h197l112 28 57 56 28 56v113" fill="none" stroke="#f0f0f0" stroke-linecap="round" stroke-linejoin="round" stroke-width="147.64"/><g transform="translate(-38731 -14164)" fill="none" fill-opacity="0" stroke="#f0f0f0" stroke-linecap="round" stroke-linejoin="round" stroke-width="62.992"><circle cx="68906" cy="18368" r="596.06"/><circle cx="68906" cy="32803" r="659.45"/><circle cx="43066" cy="32865" r="643.7"/><circle cx="43066" cy="18416" r="631.1"/><path d="M70284 36039V15051m-7 0H39472m-4 4v20992h30813"/></g><path d="M3335 1375v20047M1288 1375h524m-524 20047h2047M1288 1898v-523m0 1023h1024m-1024 0v19024M2312 1375h1023M2312 2398V1375" fill="none" fill-opacity="0" stroke="#f0f0f0" stroke-linecap="round" stroke-linejoin="round" stroke-width="47.244"/><path d="M9 32922v-157m32283 157H9M32292 9v32913M9 9h32283M9 32765V9" fill="none" fill-opacity="0" stroke="#000" stroke-linecap="round" stroke-linejoin="round" stroke-width="19.685"/><path d="M31374 1314.2v20195H852v-20195z" fill="#e9343f" fill-rule="evenodd" stroke="#000" stroke-width="39.764"/><circle transform="matrix(0 -1 -1 0 0 0)" cx="-18651" cy="-4185.1" r="836.22" fill="#821419" stroke="#000" stroke-width="36.614"/><circle transform="matrix(0 -1 -1 0 0 0)" cx="-4201.2" cy="-4185.1" r="836.22" fill="#821419" stroke="#000" stroke-width="36.614"/><circle transform="matrix(0 -1 -1 0 0 0)" cx="-4201.2" cy="-30160" r="836.22" fill="#a00" stroke="#000" stroke-width="36.614"/><circle transform="matrix(0 -1 -1 0 0 0)" cx="-18651" cy="-30160" r="836.22" fill="#821419" stroke="#000" stroke-width="36.614"/><path d="M5174.8 7613.4v-4550h23760v16770h-23760v-4550z" fill="#f2f2f2" fill-rule="evenodd" stroke="#000" stroke-width="36.614"/><path d="M7915 19423V3284l3.937-.787h-2003.9v3508.7h-740.16v11101h740.16v1720.5h1999.2v-16160h.787z" fill="#333" fill-rule="evenodd" stroke="#000" stroke-width="36.614"/><circle transform="matrix(0 -1 -1 0 0 0)" cx="-18651" cy="-4185.1" r="635.04" fill="#f2f2f2" stroke="#000" stroke-width="36.614"/><circle transform="matrix(0 -1 -1 0 0 0)" cx="-4201.2" cy="-4185.1" r="635.04" fill="#f2f2f2" stroke="#000" stroke-width="36.614"/><circle transform="matrix(0 -1 -1 0 0 0)" cx="-4201.2" cy="-30160" r="635.04" fill="#f2f2f2" stroke="#000" stroke-width="36.614"/><circle transform="matrix(0 -1 -1 0 0 0)" cx="-18651" cy="-30160" r="635.04" fill="#f2f2f2" stroke="#000" stroke-width="36.614"/><path d="M16085 3033.5v29.921z" fill="#ccc" fill-rule="evenodd" stroke="#000" stroke-width="36.614"/><path d="M3969.7 4798.5a138.58 138.58 0 0 0-59.842-25.197m25519 13878a731.49 731.49 0 1 1 731.49 731.49m-.393 0a731.49 731.49 0 0 1-731.5-731.49m.394-14450a731.49 731.49 0 1 1 731.49 731.49m-.393-.394a731.49 731.49 0 0 1-731.5-731.49m-25975 .394a731.49 731.49 0 1 1 731.49 731.49" fill="none" stroke="#000" stroke-width="36.614"/><path d="M4185.1 4932.3a731.49 731.49 0 0 1-731.49-731.49m0 14450a731.49 731.49 0 1 1 731.49 731.49 731.49 731.49 0 0 1-731.49-731.49m3050.4-13995h1264.2" fill="none" stroke="#000" stroke-width="36.614"/><path d="M16085 19863v-29.922z" fill="#ccc" fill-rule="evenodd" stroke="#000" stroke-width="36.614"/><path d="M7768.1 17733H6503.9m0 1879.9V15283m0-7670.1V3453.1m274.8 4159.8V15283m989.37 0H6778.7" fill="none" stroke="#000" stroke-width="36.614"/><path d="M7915 15283h-1.181zm-1.181-7670.1H7915z" fill="#333" fill-rule="evenodd" stroke="#000" stroke-width="36.614"/><path d="M6778.8 7613.4h989.37m-1264.2-4159.8h1264.2m21197 11410V8033.7m0 6829.9v4340.1m0 659.84v-659.84m0-15510v-659.84m0 5000v-4340.1m0-659.84h-12880m12220 16830h659.84m-659.84 0h-12220m12220-16800v-29.921m659.84 659.84h-29.921m0 4340.1h29.921m0 11170h-29.921m0-4340.1h29.921m-659.84 4970.1v29.922" fill="none" stroke="#000" stroke-width="36.614"/><path d="M7913.8 3283.5h20801v16330h-20801z" fill-rule="evenodd" stroke="#000" stroke-width="40.157"/><path d="M7768.1 3453.6h145.67m-2739 4159.8h1603.9m0 7670.1h-1603.9" fill="none" stroke="#000" stroke-width="36.614"/><path d="M5053.2 7613.4h-32.283 154.33v7670.1h-154.72 153.94-153.94V7613.4z" fill="#b4894f" fill-rule="evenodd" stroke="#000" stroke-width="36.614"/><path d="M7768.1 3453.6v16160" fill="none" stroke="#000" stroke-width="36.614"/><path d="M2049.6 21335H1024.8V1532h1024.8-100 1024.8v19804H1949.6z" fill="#1a1a1a" fill-rule="evenodd" stroke="#000" stroke-width="36.614"/><circle transform="matrix(0 -1 -1 0 0 0)" cx="-1904" cy="-1537.4" r="250" fill="#b3b3b3" stroke="#000" stroke-width="36.614"/><circle transform="matrix(0 -1 -1 0 0 0)" cx="-2904" cy="-1537.4" r="250" fill="#b3b3b3" stroke="#000" stroke-width="36.614"/><circle transform="matrix(0 -1 -1 0 0 0)" cx="-3904" cy="-1537.4" r="250" fill="#b3b3b3" stroke="#000" stroke-width="36.614"/><circle transform="matrix(0 -1 -1 0 0 0)" cx="-4904" cy="-1537.4" r="250" fill="#b3b3b3" stroke="#000" stroke-width="36.614"/><circle transform="matrix(0 -1 -1 0 0 0)" cx="-5904" cy="-1537.4" r="250" fill="#b3b3b3" stroke="#000" stroke-width="36.614"/><circle transform="matrix(0 -1 -1 0 0 0)" cx="-6904" cy="-1537.4" r="250" fill="#b3b3b3" stroke="#000" stroke-width="36.614"/><circle transform="matrix(0 -1 -1 0 0 0)" cx="-7904" cy="-1537.4" r="250" fill="#b3b3b3" stroke="#000" stroke-width="36.614"/><circle transform="matrix(0 -1 -1 0 0 0)" cx="-9904" cy="-1537.4" r="250" fill="#b3b3b3" stroke="#000" stroke-width="36.614"/><circle transform="matrix(0 -1 -1 0 0 0)" cx="-10904" cy="-1537.4" r="250" fill="#b3b3b3" stroke="#000" stroke-width="36.614"/><circle transform="matrix(0 -1 -1 0 0 0)" cx="-11904" cy="-1537.4" r="250" fill="#b3b3b3" stroke="#000" stroke-width="36.614"/><circle transform="matrix(0 -1 -1 0 0 0)" cx="-12904" cy="-1537.4" r="250" fill="#b3b3b3" stroke="#000" stroke-width="36.614"/><circle transform="matrix(0 -1 -1 0 0 0)" cx="-13904" cy="-1537.4" r="250" fill="#b3b3b3" stroke="#000" stroke-width="36.614"/><circle transform="matrix(0 -1 -1 0 0 0)" cx="-14904" cy="-1537.4" r="250" fill="#b3b3b3" stroke="#000" stroke-width="36.614"/><path d="M1999.6 2376.4h-924.8" fill="none" stroke="#000" stroke-width="36.614"/><path d="M1675.2 2043.3v-279.92h-279.92v279.92zm-279.92 1000h279.53v-279.92h-279.53zm279.92 720.08h-279.92v279.92h279.53v-279.92zm0 1279.9v-279.92h-279.92v279.92zm-279.92 1000h279.53v-279.92h-279.53zm0 1000h279.53v-279.92h-279.53zm279.92 720.08h-279.92v279.92h279.53z" fill="olive" fill-rule="evenodd" stroke="#000" stroke-width="36.614"/><circle transform="matrix(0 -1 -1 0 0 0)" cx="-8904" cy="-1537.4" r="250" fill="#999" stroke="#000" stroke-width="36.614"/><path d="M1675.2 9043.3v-279.92h-279.92v279.92zm-279.92 720.08v279.92h279.53v-279.92zm0 1279.9h279.53v-279.92h-279.53zm0 1000h279.53v-279.92h-279.53zm0 720.08v279.92h279.53v-279.92zm279.92 1279.9v-279.92h-279.92v279.92zm0 720.08h-279.92v279.92h279.53z" fill="olive" fill-rule="evenodd" stroke="#000" stroke-width="36.614"/><circle transform="matrix(0 -1 -1 0 0 0)" cx="-15904" cy="-1537.4" r="250" fill="#b3b3b3" stroke="#000" stroke-width="36.614"/><circle transform="matrix(0 -1 -1 0 0 0)" cx="-16904" cy="-1537.4" r="250" fill="#b3b3b3" stroke="#000" stroke-width="36.614"/><circle transform="matrix(0 -1 -1 0 0 0)" cx="-17904" cy="-1537.4" r="250" fill="#b3b3b3" stroke="#000" stroke-width="36.614"/><circle transform="matrix(0 -1 -1 0 0 0)" cx="-18904" cy="-1537.4" r="250" fill="#b3b3b3" stroke="#000" stroke-width="36.614"/><circle transform="matrix(0 -1 -1 0 0 0)" cx="-19904" cy="-1537.4" r="250" fill="#b3b3b3" stroke="#000" stroke-width="36.614"/><circle transform="matrix(0 -1 -1 0 0 0)" cx="-20904" cy="-1537.4" r="250" fill="#b3b3b3" stroke="#000" stroke-width="36.614"/><path d="M1395.3 16043h279.53v-279.92H1395.3zm0 720.08V17043h279.53v-279.92zm279.92 1279.9v-279.92H1395.3v279.92zm-279.92 720.08v279.92h279.53v-279.92zm0 1279.9h279.53v-279.92H1395.3zm0 720.08v279.92h279.53v-279.92z" fill="olive" fill-rule="evenodd" stroke="#000" stroke-width="36.614"/><circle transform="matrix(0 -1 -1 0 0 0)" cx="-1904" cy="-2462.2" r="250" fill="#b3b3b3" stroke="#000" stroke-width="36.614"/><circle transform="matrix(0 -1 -1 0 0 0)" cx="-2904" cy="-2462.2" r="250" fill="#b3b3b3" stroke="#000" stroke-width="36.614"/><circle transform="matrix(0 -1 -1 0 0 0)" cx="-3904" cy="-2462.2" r="250" fill="#b3b3b3" stroke="#000" stroke-width="36.614"/><circle transform="matrix(0 -1 -1 0 0 0)" cx="-4904" cy="-2462.2" r="250" fill="#b3b3b3" stroke="#000" stroke-width="36.614"/><circle transform="matrix(0 -1 -1 0 0 0)" cx="-5904" cy="-2462.2" r="250" fill="#b3b3b3" stroke="#000" stroke-width="36.614"/><circle transform="matrix(0 -1 -1 0 0 0)" cx="-6904" cy="-2462.2" r="250" fill="#b3b3b3" stroke="#000" stroke-width="36.614"/><circle transform="matrix(0 -1 -1 0 0 0)" cx="-7904" cy="-2462.2" r="250" fill="#b3b3b3" stroke="#000" stroke-width="36.614"/><circle transform="matrix(0 -1 -1 0 0 0)" cx="-9904" cy="-2462.2" r="250" fill="#b3b3b3" stroke="#000" stroke-width="36.614"/><circle transform="matrix(0 -1 -1 0 0 0)" cx="-10904" cy="-2462.2" r="250" fill="#b3b3b3" stroke="#000" stroke-width="36.614"/><circle transform="matrix(0 -1 -1 0 0 0)" cx="-11904" cy="-2462.2" r="250" fill="#b3b3b3" stroke="#000" stroke-width="36.614"/><circle transform="matrix(0 -1 -1 0 0 0)" cx="-12904" cy="-2462.2" r="250" fill="#b3b3b3" stroke="#000" stroke-width="36.614"/><circle transform="matrix(0 -1 -1 0 0 0)" cx="-13904" cy="-2462.2" r="250" fill="#b3b3b3" stroke="#000" stroke-width="36.614"/><circle transform="matrix(0 -1 -1 0 0 0)" cx="-14904" cy="-2462.2" r="250" fill="#b3b3b3" stroke="#000" stroke-width="36.614"/><path d="M2600 1763.4h-280.31v279.92H2600zm0 1000h-280.31v279.92H2600zm-280.31 1279.9H2600v-279.92h-280.31zm0 1000H2600v-279.92h-280.31zM2600 5763.38h-280.31v279.92H2600zm0 1279.9v-279.92h-280.31v279.92zm-280.31 1000H2600v-279.92h-280.31z" fill="olive" fill-rule="evenodd" stroke="#000" stroke-width="36.614"/><circle transform="matrix(0 -1 -1 0 0 0)" cx="-8904" cy="-2462.2" r="250" fill="#b3b3b3" stroke="#000" stroke-width="36.614"/><path d="M2319.7 9043.3h280.31v-279.92H2319.7zm0 1000h280.31v-279.92H2319.7zm0 1000h280.31v-279.92H2319.7zm0 1000h280.31v-279.92H2319.7zm280.31 1000v-279.92H2319.7v279.92zm0 720.08H2319.7v279.92h280.31zm0 1000H2319.7v279.92h280.31z" fill="olive" fill-rule="evenodd" stroke="#000" stroke-width="36.614"/><circle transform="matrix(0 -1 -1 0 0 0)" cx="-15904" cy="-2462.2" r="250" fill="#b3b3b3" stroke="#000" stroke-width="36.614"/><circle transform="matrix(0 -1 -1 0 0 0)" cx="-16904" cy="-2462.2" r="250" fill="#b3b3b3" stroke="#000" stroke-width="36.614"/><circle transform="matrix(0 -1 -1 0 0 0)" cx="-17904" cy="-2462.2" r="250" fill="#b3b3b3" stroke="#000" stroke-width="36.614"/><circle transform="matrix(0 -1 -1 0 0 0)" cx="-18904" cy="-2462.2" r="250" fill="#b3b3b3" stroke="#000" stroke-width="36.614"/><circle transform="matrix(0 -1 -1 0 0 0)" cx="-19904" cy="-2462.2" r="250" fill="#b3b3b3" stroke="#000" stroke-width="36.614"/><circle transform="matrix(0 -1 -1 0 0 0)" cx="-20904" cy="-2462.2" r="250" fill="#b3b3b3" stroke="#000" stroke-width="36.614"/><path d="M2319.7 15763v279.92h280.31V15763zm0 1279.9h280.31v-279.92H2319.7zm280.31 720.08H2319.7v279.92h280.31zm-280.31 1279.9h280.31v-279.92H2319.7zm0 1000h280.31v-279.92H2319.7zm280.31 1000v-279.92H2319.7v279.92z" fill="olive" fill-rule="evenodd" stroke="#000" stroke-width="36.614"/><path d="M1999.6 1581.9v794.09m-924.8 58.268v-852.36h1849.6v19704l-925.2-5.906h-924.01v-18844z" fill="none" stroke="#000" stroke-width="36.614"/></svg>