<svg width="586" height="457" viewBox="0 0 40709 31746" xmlns="http://www.w3.org/2000/svg"><path d="M40651 31743H9V9h40642v31734" fill="#313d63" fill-rule="evenodd" stroke="#313d63" stroke-width="1.237"/><g fill-opacity="0" stroke-linecap="round" stroke-linejoin="round" stroke-width="19.685" fill="none" stroke="#000"><path d="M69291 16141v25197M35826 16141h33465M35826 41338V16141M69291 41338H35826" transform="matrix(1.2141 0 0 1.2585 -43487 -20303)"/></g><g fill-opacity="0" stroke="#000" stroke-linecap="round" stroke-linejoin="round" stroke-width="19.685" fill="none"><path d="M69291 16141v25197M35826 16141h33465M35826 41338V16141M69291 41338H35826" transform="matrix(1.2142 0 0 1.2588 -43491 -20308)"/></g><path d="M16892 22007h22561V1284H1133v20723z" fill="#5f6d9a" stroke="#000" stroke-width="48.626"/><path d="M35894 21987h-212.6M34894 21987h-212.6M33894 21987h-212.6M32894 21987h-212.6M31894 21987h-212.6M30894 21987h-212.6M29894 21987h-212.6M28894 21987h-212.6M27894 21987h-212.6M26894 21987h-212.6M25894 21987h-212.6M24894 21987h-212.6M23894 21987h-212.6M22894 21987h-212.6M21894 21987h-212.6" fill="none" stroke="#000" stroke-width="36.458"/><circle transform="scale(1 -1)" cx="2117.6" cy="-2268" r="492.13" fill="#1a1a1a" stroke="#000" stroke-width="36.458"/><path d="M2865.7 12977a157.48 157.48 0 0 1-157.48-157.48M37585 17919a157.48 157.48 0 0 1-157.48 157.48" fill="none" stroke="#000" stroke-width="36.458"/><circle transform="scale(1 -1)" cx="38175" cy="-2268" r="492.13" fill="#1a1a1a" stroke="#000" stroke-width="36.458"/><circle transform="scale(1 -1)" cx="38175" cy="-21003" r="492.13" fill="#1a1a1a" stroke="#000" stroke-width="36.458"/><circle transform="scale(1 -1)" cx="2117.6" cy="-21003" r="492.13" fill="#1a1a1a" stroke="#000" stroke-width="36.458"/><path d="M37074 18636H3342l-21.767-1.53-21.494-4.533-20.95-7.505-20.143-10.369-19.082-13.111-17.781-15.686-16.257-18.061-14.528-20.213-12.616-22.103-10.546-23.724-8.343-25.04-6.036-26.043-3.65-26.721-1.225-27.062v-320.25h-243.02l-21.768-1.511-21.495-4.532-20.95-7.505-20.143-10.37-19.082-13.111-17.781-15.686-16.257-18.062-14.528-20.211-12.616-22.104-10.546-23.724-8.344-25.04-6.036-26.043-3.65-26.721-1.224-27.081v-13596l1.224-27.061 3.65-26.722 6.036-26.045 8.344-25.042 10.546-23.722 12.616-22.105 14.528-20.21 16.257-18.061 17.78-15.685 19.083-13.111 20.143-10.373 20.95-7.504 21.495-4.538 21.768-1.522h243.02v-302.13l1.225-27.062 3.65-26.722 6.036-26.045 8.343-25.042 10.546-23.722 12.616-22.105 14.528-20.21 16.257-18.061 17.781-15.684 19.082-13.111 20.143-10.373 20.95-7.504 21.494-4.538 21.767-1.521h33732c107.38 0 194.42 108.21 194.42 241.7v302.13h243.02l21.77 1.522 21.494 4.538 20.949 7.504 20.142 10.373 19.082 13.111 17.779 15.685 16.259 18.061 14.527 20.21 12.619 22.105 10.547 23.722 8.345 25.042 6.037 26.045 3.646 26.722 1.225 27.061v13596l-1.216 27.081-3.645 26.721-6.037 26.043-8.345 25.04-10.547 23.724-12.619 22.104-14.527 20.211-16.259 18.062-17.779 15.686-19.082 13.111-20.143 10.37-20.958 7.505-21.494 4.532-21.77 1.511h-243.02v320.25c0 133.49-87.044 241.7-194.42 241.7z" fill="#1a1a1a" fill-rule="evenodd" stroke="#000" stroke-width="50.186"/><path d="M37268 3805.4h-157.48M37268 18074h-157.48" fill="none" stroke="#000" stroke-width="36.458"/><path d="M37111 3608.6H3148" fill="none" stroke="#000" stroke-width="40.531"/><path d="M37111 3608.6v-157.48M37111 3608.6h157.47M37111 3805.4v-196.85" fill="none" stroke="#000" stroke-width="36.458"/><path d="M2861.4 4001.1v14067" fill="none" stroke="#000" stroke-width="45.148"/><path d="M37111 18352H3148" fill="none" stroke="#000" stroke-width="40.531"/><path d="M37109 18074v207.02" fill="none" stroke="#000" stroke-width="36.315"/><path d="M37511 3995v14079" fill="none" stroke="#000" stroke-width="45.167"/><path d="M37111 18352h157.47" fill="none" stroke="#000" stroke-width="36.458"/><path d="M37111 18283v325.21" fill="none" stroke="#000" stroke-width="52.394"/><path d="M35894 21003c0-524.93 787.4-524.93 787.4 0v984.25H35894z" fill="#b3b3b3" fill-rule="evenodd" stroke="#000" stroke-width="36.458"/><path d="M36485 21003c0-262.47-393.7-262.47-393.7 0s393.7 262.47 393.7 0z" fill-rule="evenodd" stroke="#000" stroke-width="36.458"/><path d="M35894 21003a393.7 393.7 0 0 0 787.4 0M36091 21003h-196.85M36682 21003h-196.85" fill="none" stroke="#000" stroke-width="36.458"/><path d="M36122 16593H4136c-135.89 0-246.05-159.11-246.05-355.39v-10662c0-196.27 110.16-355.39 246.05-355.39h31986c135.89 0 246.05 159.11 246.05 355.39v10662c0 196.28-110.16 355.39-246.05 355.39z" fill="#008200" fill-rule="evenodd" stroke="#000" stroke-width="54.767"/><path d="M33894 21003c0-524.93 787.4-524.93 787.4 0v984.25H33894z" fill="#b3b3b3" fill-rule="evenodd" stroke="#000" stroke-width="36.458"/><path d="M34485 21003c0-262.47-393.7-262.47-393.7 0s393.7 262.47 393.7 0z" fill-rule="evenodd" stroke="#000" stroke-width="36.458"/><path d="M33894 21003a393.7 393.7 0 0 0 787.4 0M34091 21003h-196.85M34682 21003h-196.85" fill="none" stroke="#000" stroke-width="36.458"/><path d="M34894 21003c0-524.93 787.4-524.93 787.4 0v984.25H34894z" fill="#b3b3b3" fill-rule="evenodd" stroke="#000" stroke-width="36.458"/><path d="M35485 21003c0-262.47-393.7-262.47-393.7 0s393.7 262.47 393.7 0z" fill-rule="evenodd" stroke="#000" stroke-width="36.458"/><path d="M34894 21003a393.7 393.7 0 0 0 787.4 0M35091 21003h-196.85M35682 21003h-196.85" fill="none" stroke="#000" stroke-width="36.458"/><path d="M32894 21003c0-524.93 787.4-524.93 787.4 0v984.25H32894z" fill="#b3b3b3" fill-rule="evenodd" stroke="#000" stroke-width="36.458"/><path d="M33485 21003c0-262.47-393.7-262.47-393.7 0s393.7 262.47 393.7 0z" fill-rule="evenodd" stroke="#000" stroke-width="36.458"/><path d="M32894 21003a393.7 393.7 0 0 0 787.4 0M33091 21003h-196.85M33682 21003h-196.85" fill="none" stroke="#000" stroke-width="36.458"/><path d="M31894 21003c0-524.93 787.4-524.93 787.4 0v984.25H31894z" fill="#b3b3b3" fill-rule="evenodd" stroke="#000" stroke-width="36.458"/><path d="M32485 21003c0-262.47-393.7-262.47-393.7 0s393.7 262.47 393.7 0z" fill-rule="evenodd" stroke="#000" stroke-width="36.458"/><path d="M31894 21003a393.7 393.7 0 0 0 787.4 0M32091 21003h-196.85M32682 21003h-196.85" fill="none" stroke="#000" stroke-width="36.458"/><path d="M29894 21003c0-524.93 787.4-524.93 787.4 0v984.25H29894z" fill="#b3b3b3" fill-rule="evenodd" stroke="#000" stroke-width="36.458"/><path d="M30485 21003c0-262.47-393.7-262.47-393.7 0s393.7 262.47 393.7 0z" fill-rule="evenodd" stroke="#000" stroke-width="36.458"/><path d="M29894 21003a393.7 393.7 0 0 0 787.4 0M30091 21003h-196.85M30682 21003h-196.85" fill="none" stroke="#000" stroke-width="36.458"/><path d="M30894 21003c0-524.93 787.4-524.93 787.4 0v984.25H30894z" fill="#b3b3b3" fill-rule="evenodd" stroke="#000" stroke-width="36.458"/><path d="M31485 21003c0-262.47-393.7-262.47-393.7 0s393.7 262.47 393.7 0z" fill-rule="evenodd" stroke="#000" stroke-width="36.458"/><path d="M30894 21003a393.7 393.7 0 0 0 787.4 0M31091 21003h-196.85M31682 21003h-196.85" fill="none" stroke="#000" stroke-width="36.458"/><path d="M28894 21003c0-524.93 787.4-524.93 787.4 0v984.25H28894z" fill="#b3b3b3" fill-rule="evenodd" stroke="#000" stroke-width="36.458"/><path d="M29485 21003c0-262.47-393.7-262.47-393.7 0s393.7 262.47 393.7 0z" fill-rule="evenodd" stroke="#000" stroke-width="36.458"/><path d="M28894 21003a393.7 393.7 0 0 0 787.4 0M29091 21003h-196.85M29682 21003h-196.85" fill="none" stroke="#000" stroke-width="36.458"/><path d="M27894 21003c0-524.93 787.4-524.93 787.4 0v984.25H27894z" fill="#b3b3b3" fill-rule="evenodd" stroke="#000" stroke-width="36.458"/><path d="M28485 21003c0-262.47-393.7-262.47-393.7 0s393.7 262.47 393.7 0z" fill-rule="evenodd" stroke="#000" stroke-width="36.458"/><path d="M27894 21003a393.7 393.7 0 0 0 787.4 0M28091 21003h-196.85M28682 21003h-196.85" fill="none" stroke="#000" stroke-width="36.458"/><path d="M23894 21003c0-524.93 787.4-524.93 787.4 0v984.25H23894z" fill="#b3b3b3" fill-rule="evenodd" stroke="#000" stroke-width="36.458"/><path d="M24485 21003c0-262.47-393.7-262.47-393.7 0s393.7 262.47 393.7 0z" fill-rule="evenodd" stroke="#000" stroke-width="36.458"/><path d="M23894 21003a393.7 393.7 0 0 0 787.4 0M24091 21003h-196.85M24682 21003h-196.85" fill="none" stroke="#000" stroke-width="36.458"/><path d="M24894 21003c0-524.93 787.4-524.93 787.4 0v984.25H24894z" fill="#b3b3b3" fill-rule="evenodd" stroke="#000" stroke-width="36.458"/><path d="M25485 21003c0-262.47-393.7-262.47-393.7 0s393.7 262.47 393.7 0z" fill="#1a1a1a" fill-rule="evenodd" stroke="#000" stroke-width="36.458"/><path d="M24894 21003a393.7 393.7 0 0 0 787.4 0M25091 21003h-196.85M25682 21003h-196.85" fill="none" stroke="#000" stroke-width="36.458"/><path d="M25894 21003c0-524.93 787.4-524.93 787.4 0v984.25H25894z" fill="#b3b3b3" fill-rule="evenodd" stroke="#000" stroke-width="36.458"/><path d="M26485 21003c0-262.47-393.7-262.47-393.7 0s393.7 262.47 393.7 0z" fill-rule="evenodd" stroke="#000" stroke-width="36.458"/><path d="M25894 21003a393.7 393.7 0 0 0 787.4 0M26091 21003h-196.85M26682 21003h-196.85" fill="none" stroke="#000" stroke-width="36.458"/><path d="M26894 21003c0-524.93 787.4-524.93 787.4 0v984.25H26894z" fill="#b3b3b3" fill-rule="evenodd" stroke="#000" stroke-width="36.458"/><path d="M27485 21003c0-262.47-393.7-262.47-393.7 0s393.7 262.47 393.7 0z" fill-rule="evenodd" stroke="#000" stroke-width="36.458"/><path d="M26894 21003a393.7 393.7 0 0 0 787.4 0M27091 21003h-196.85M27682 21003h-196.85" fill="none" stroke="#000" stroke-width="36.458"/><path d="M20894 21003c0-524.93 787.4-524.93 787.4 0v984.25H20894z" fill="#b3b3b3" fill-rule="evenodd" stroke="#000" stroke-width="36.458"/><path d="M21485 21003c0-262.47-393.7-262.47-393.7 0s393.7 262.47 393.7 0z" fill="#1a1a1a" fill-rule="evenodd" stroke="#000" stroke-width="36.458"/><path d="M20894 21003a393.7 393.7 0 0 0 787.4 0M21091 21003h-196.85M21682 21003h-196.85" fill="none" stroke="#000" stroke-width="36.458"/><path d="M21894 21003c0-524.93 787.4-524.93 787.4 0v984.25H21894z" fill="#b3b3b3" fill-rule="evenodd" stroke="#000" stroke-width="36.458"/><path d="M22485 21003c0-262.47-393.7-262.47-393.7 0s393.7 262.47 393.7 0z" fill-rule="evenodd" stroke="#000" stroke-width="36.458"/><path d="M21894 21003a393.7 393.7 0 0 0 787.4 0M22091 21003h-196.85M22682 21003h-196.85" fill="none" stroke="#000" stroke-width="36.458"/><path d="M22894 21003c0-524.93 787.4-524.93 787.4 0v984.25H22894z" fill="#b3b3b3" fill-rule="evenodd" stroke="#000" stroke-width="36.458"/><path d="M23485 21003c0-262.47-393.7-262.47-393.7 0s393.7 262.47 393.7 0z" fill-rule="evenodd" stroke="#000" stroke-width="36.458"/><path d="M22894 21003a393.7 393.7 0 0 0 787.4 0M23091 21003h-196.85M23682 21003h-196.85" fill="none" stroke="#000" stroke-width="36.458"/><path d="M32164.558 30937.987v337m0-168h-590l84 56 56 56 28 56m28-843h394m-618 140l421 141v-366m-28-225v-449m225-282h-590v-140l28-85 56-56 56-28 113-28h84l113 28 56 28 56 56 28 85v140m-590-534v-394l590 253m-2257 2222v337m0-168h-591l85 56 56 56 28 56m-169-534v-365l225 196v-84l28-56 28-28 57-28h140l56 28 29 28 28 56v169l-28 56-29 28m-168-619v-449m225-282h-591v-140l28-85 57-56 56-28 112-28h85l112 28 56 28 57 56 28 85v140m-591-843v112l28 56 28 29 85 56 112 28h225l56-28 29-28 28-57v-112l-28-56-29-28-56-29h-140l-57 29-28 28-28 56v112l28 57 28 28 57 28m-9196 1940v-112l-28-56-28-29-85-56-112-28h-225l-56 28-29 28-28 57v112l28 56 29 28 56 29h140l57-29 28-28 28-56v-112l-28-57-28-28-57-28m113-253v-450m225-281h-591v-141l28-84 57-56 56-29 112-28h85l112 28 57 29 56 56 28 84v141m-534-563l-29-28-28-56v-141l28-56 29-28 56-28h56l84 28 338 337v-365m6982 2334v337m0-168h-591l85 56 56 56 28 56m-113-562l-28-28-28-56v-141l28-56 28-28 57-28h56l84 28 338 337v-365m-225-254v-449m225-282h-591v-140l28-85 57-56 56-28 112-28h85l112 28 56 28 57 56 28 85v140m-591-871v281l281 28-28-28-28-56v-141l28-56 28-28 57-29h140l57 29 28 28 28 56v141l-28 56-28 28m-9626 1884l-28 56-28 28-56 29h-28l-57-29-28-28-28-56v-112l28-57 28-28 57-28h28l56 28 28 28 28 57v112l28 56 28 28 57 29h112l56-29 29-28 28-56v-112l-28-57-29-28-56-28h-112l-57 28-28 28-28 57m113-366v-450m225-281h-591v-141l28-84 56-56 57-29 112-28h85l112 28 56 29 57 56 28 84v141m0-900v337m0-168h-591l84 56 57 56 28 56m-2531 1913v-394l590 253m-224-478v-450m224-281h-590v-141l28-84 56-56 57-29 112-28h84l113 28 56 29 56 56 28 84v141m-590-703v-56l28-57 28-28 56-28 113-28h141l112 28 56 28 28 28 28 57v56l-28 56-28 28-56 28-112 28h-141l-113-28-56-28-28-28-28-56m7572 2137v337m0-168h-590l84 56 56 56 29 56m-169-703v-56l28-56 28-28 56-28 113-28h140l113 28 56 28 28 28 28 56v56l-28 57-28 28-56 28-113 28h-140l-113-28-56-28-28-28-28-57m365-450v-449m225-282h-590v-140l28-85 56-56 56-28 113-28h84l113 28 56 28 56 56 28 85v140m-590-534v-366l225 197v-84l28-56 28-28 56-29h141l56 29 28 28 28 56v169l-28 56-28 28m2419 2081v337m0-168h-591l84 56 57 56 28 56m422-899v337m0-169h-591l84 57 57 56 28 56m197-591v-449m225-282h-591v-140l28-85 56-56 57-28 112-28h84l113 28 56 28 56 56 29 85v140m-394-843h394m-619 140l422 141v-366m-11811 2081v113l28 56 28 28 84 56 113 29h225l56-29 28-28 28-56v-112l-28-57-28-28-56-28h-141l-56 28-28 28-28 57v112l28 56 28 28 56 29m28-591v-450m-84-281v-197m309-84v281h-590v-281m590-254h-590l590-337h-590m-2363 1884v281l282 29-28-29-29-56v-140l29-57 28-28 56-28h141l56 28 28 28 28 57v140l-28 56-28 29m-169-591v-450m225-619l-281 197m281 141h-591v-225l29-56 28-29 56-28h84l57 28 28 29 28 56v225m-310-535l591-140-422-113 422-112-591-141m-2165 2081h394m-619 141l422 141v-366m-28-225v-450m225-619l-281 197m281 141h-591v-225l28-56 29-29 56-28h84l56 28 29 29 28 56v225m253-563l28-84v-141l-28-56-28-28-57-28h-56l-56 28-28 28-28 56-28 113-29 56-28 28-56 28h-56l-56-28-29-28-28-56v-141l28-84m-2285 2250v-366l225 197v-84l28-57 28-28 56-28h141l56 28 28 28 28 57v168l-28 57-28 28m-169-619v-450m-365-197l590-197-590-197m562-421l28 56v112l-28 57-56 28h-225l-56-28-28-57v-112l28-56 56-28h56l57 281m168-760l28 57v112l-28 56-56 29h-225l-56-29-28-56v-112l28-57 56-28h56l57 282m-2700 2306l-28-29-28-56v-140l28-57 28-28 56-28h56l85 28 337 338v-366m-225-253v-450m-365-197l590-197-590-197m562-449l28 56v112l-28 56-28 29-56 28h-169l-56-28-28-29-29-56v-112l29-56m337-507l28 57v112l-28 56-28 28-56 29h-169l-56-29-28-28-29-56v-112l29-57m-1997 2250v338m0-169h-591l85 56 56 56 28 57m197-591v-450m-366-197l591-197-591-197m563-168l28-57v-112l-28-56-56-28h-29l-56 28-28 56v84l-28 57-56 28h-28l-57-28-28-57v-84l28-56m338-253l28-57v-112l-28-56-56-28h-29l-56 28-28 56v84l-28 57-56 28h-28l-57-28-28-57v-84l28-56" fill="none" fill-opacity="0" stroke="#f0f0f0" stroke-linecap="round" stroke-linejoin="round" stroke-width="147.64"/><path d="M30638 3451v157.54H3148" fill="none" stroke="#000" stroke-width="36.627"/></svg>