<svg width="586" height="363" viewBox="0 0 40709 25216" xmlns="http://www.w3.org/2000/svg"><path d="M40651 25206H9V9h40642v25197" fill="#313d63" fill-rule="evenodd" stroke="#313d63" stroke-width="1.102"/><g fill-opacity="0" stroke-linecap="round" stroke-linejoin="round" stroke-width="19.685" fill="none" stroke="#000"><path d="M69291 16141v25197M35826 16141h33465M35826 41338V16141M69291 41338H35826" transform="matrix(1.2142 0 0 1 -43491 -16132)"/></g><g fill="#f0f0f0" fill-opacity="0" stroke="#f0f0f0" stroke-linecap="round" stroke-linejoin="round" stroke-width="147.64"><path d="M32166 24409v337M32166 24578h-590l84 56 56 56 28 56M31772 23903h394M31548 24043l421 141v-366M31941 23593v-449M32166 22862h-590v-140l28-85 56-56 56-28 113-28h84l113 28 56 28 56 56 28 85v140M31576 22328v-394l590 253M29909 24409v337M29909 24578h-591l85 56 56 56 28 56M29318 24212v-365l225 196v-84l28-56 28-28 57-28h140l56 28 29 28 28 56v169l-28 56-29 28M29684 23593v-449M29909 22862h-591v-140l28-85 57-56 56-28 112-28h85l112 28 56 28 57 56 28 85v140M29318 22019v112l28 56 28 29 85 56 112 28h225l56-28 29-28 28-57v-112l-28-56-29-28-56-29h-140l-57 29-28 28-28 56v112l28 57 28 28 57 28M20460 24240v-112l-28-56-28-29-85-56-112-28h-225l-56 28-29 28-28 57v112l28 56 29 28 56 29h140l57-29 28-28 28-56v-112l-28-57-28-28-57-28M20235 23706v-450M20460 22975h-591v-141l28-84 57-56 56-29 112-28h85l112 28 57 29 56 56 28 84v141M19926 22412l-29-28-28-56v-141l28-56 29-28 56-28h56l84 28 338 337v-365M27442 24409v337M27442 24578h-591l85 56 56 56 28 56M26907 24184l-28-28-28-56v-141l28-56 28-28 57-28h56l84 28 338 337v-365M27217 23593v-449M27442 22862h-591v-140l28-85 57-56 56-28 112-28h85l112 28 56 28 57 56 28 85v140M26851 21991v281l281 28-28-28-28-56v-141l28-56 28-28 57-29h140l57 29 28 28 28 56v141l-28 56-28 28M17760 24184l-28 56-28 28-56 29h-28l-57-29-28-28-28-56v-112l28-57 28-28 57-28h28l56 28 28 28 28 57v112l28 56 28 28 57 29h112l56-29 29-28 28-56v-112l-28-57-29-28-56-28h-112l-57 28-28 28-28 57M17873 23706v-450M18098 22975h-591v-141l28-84 56-56 57-29 112-28h85l112 28 56 29 57 56 28 84v141M18098 22075v337M18098 22244h-591l84 56 57 56 28 56M15145 24325v-394l590 253M15511 23706v-450M15735 22975h-590v-141l28-84 56-56 57-29 112-28h84l113 28 56 29 56 56 28 84v141M15145 22272v-56l28-57 28-28 56-28 113-28h141l112 28 56 28 28 28 28 57v56l-28 56-28 28-56 28-112 28h-141l-113-28-56-28-28-28-28-56M22717 24409v337M22717 24578h-590l84 56 56 56 29 56M22127 24043v-56l28-56 28-28 56-28 113-28h140l113 28 56 28 28 28 28 56v56l-28 57-28 28-56 28-113 28h-140l-113-28-56-28-28-28-28-57M22492 23593v-449M22717 22862h-590v-140l28-85 56-56 56-28 113-28h84l113 28 56 28 56 56 28 85v140M22127 22328v-366l225 197v-84l28-56 28-28 56-29h141l56 29 28 28 28 56v169l-28 56-28 28M25080 24409v337M25080 24578h-591l84 56 57 56 28 56M25080 23847v337M25080 24015h-591l84 57 57 56 28 56M24855 23593v-449M25080 22862h-591v-140l28-85 56-56 57-28 112-28h84l113 28 56 28 56 56 29 85v140M24686 22019h394M24461 22159l422 141v-366M13072 24015v113l28 56 28 28 84 56 113 29h225l56-29 28-28 28-56v-112l-28-57-28-28-56-28h-141l-56 28-28 28-28 57v112l28 56 28 28 56 29M13437 23706v-450M13353 22975v-197M13662 22694v281h-590v-281M13662 22440h-590l590-337h-590M10709 23987v281l282 29-28-29-29-56v-140l29-57 28-28 56-28h141l56 28 28 28 28 57v140l-28 56-28 29M11075 23706v-450M11300 22637l-281 197M11300 22975h-591v-225l29-56 28-29 56-28h84l57 28 28 29 28 56v225M10709 22440l591-140-422-113 422-112-591-141M8544 24015h394M8319 24156l422 141v-366M8713 23706v-450M8938 22637l-281 197M8938 22975h-591v-225l28-56 29-29 56-28h84l56 28 29 29 28 56v225M8910 22412l28-84v-141l-28-56-28-28-57-28h-56l-56 28-28 28-28 56-28 113-29 56-28 28-56 28h-56l-56-28-29-28-28-56v-141l28-84M6090 24325v-366l225 197v-84l28-57 28-28 56-28h141l56 28 28 28 28 57v168l-28 57-28 28M6455 23706v-450M6090 23059l590-197-590-197M6652 22244l28 56v112l-28 57-56 28h-225l-56-28-28-57v-112l28-56 56-28h56l57 281M6652 21737l28 57v112l-28 56-56 29h-225l-56-29-28-56v-112l28-57 56-28h56l57 282M3784 24297l-28-29-28-56v-140l28-57 28-28 56-28h56l85 28 337 338v-366M4093 23706v-450M3728 23059l590-197-590-197M4290 22216l28 56v112l-28 56-28 29-56 28h-169l-56-28-28-29-29-56v-112l29-56M4290 21709l28 57v112l-28 56-28 28-56 29h-169l-56-29-28-28-29-56v-112l29-57M1956 23959v338M1956 24128h-591l85 56 56 56 28 57M1731 23706v-450M1365 23059l591-197-591-197M1928 22497l28-57v-112l-28-56-56-28h-29l-56 28-28 56v84l-28 57-56 28h-28l-57-28-28-57v-84l28-56M1928 22019l28-57v-112l-28-56-56-28h-29l-56 28-28 56v84l-28 57-56 28h-28l-57-28-28-57v-84l28-56" fill="none"/></g><g fill-opacity="0" stroke="#000" stroke-linecap="round" stroke-linejoin="round" stroke-width="19.685" fill="none"><path d="M69291 16141v25197M35826 16141h33465M35826 41338V16141M69291 41338H35826" transform="matrix(1.2143 0 0 1 -43495 -16132)"/></g><path d="M16892 15457h22561V1284H1133v14173z" fill="#5f6d9a" stroke="#000" stroke-width="40.214"/><path d="M35894 15457h-212.6M34894 15457h-212.6M33894 15457h-212.6M32894 15457h-212.6M31894 15457h-212.6M30894 15457h-212.6M29894 15457h-212.6M28894 15457h-212.6M27894 15457h-212.6M26894 15457h-212.6M25894 15457h-212.6M24894 15457h-212.6M23894 15457h-212.6M22894 15457h-212.6M21894 15457h-212.6" fill="none" stroke="#000" stroke-width="36.458"/><circle transform="scale(1 -1)" cx="2117.6" cy="-2268" r="492.13" fill="#1a1a1a" stroke="#000" stroke-width="36.458"/><path d="M2865.7 3803.4a157.48 157.48 0 0 0-157.48 157.48M2865.7 12977a157.48 157.48 0 0 1-157.48-157.48M37585 12819a157.48 157.48 0 0 1-157.48 157.48M37427 3803.4a157.48 157.48 0 0 1 157.48 157.48" fill="none" stroke="#000" stroke-width="36.458"/><circle transform="scale(1 -1)" cx="38175" cy="-2268" r="492.13" fill="#1a1a1a" stroke="#000" stroke-width="36.458"/><circle transform="scale(1 -1)" cx="38175" cy="-14473" r="492.13" fill="#1a1a1a" stroke="#000" stroke-width="36.458"/><circle transform="scale(1 -1)" cx="2117.6" cy="-14473" r="492.13" fill="#1a1a1a" stroke="#000" stroke-width="36.458"/><path d="M37074 13341H3342l-21.767-.996-21.494-2.952-20.95-4.888-20.143-6.753-19.082-8.539-17.781-10.216-16.257-11.763-14.528-13.164-12.616-14.395-10.546-15.451-8.343-16.308-6.036-16.961-3.65-17.403-1.225-17.625v-208.58h-243.02l-21.768-.984-21.495-2.951-20.95-4.888-20.143-6.754-19.082-8.539-17.781-10.216-16.257-11.763-14.528-13.163-12.616-14.396-10.546-15.451-8.344-16.308-6.036-16.961-3.65-17.403-1.224-17.637v-8854.6l1.224-17.624 3.65-17.403 6.036-16.963 8.344-16.309 10.546-15.45 12.616-14.397 14.528-13.163 16.257-11.763 17.78-10.215 19.083-8.539 20.143-6.755 20.95-4.887 21.495-2.956 21.768-.992h243.02v-196.77l1.225-17.625 3.65-17.403 6.036-16.963 8.343-16.309 10.546-15.45 12.616-14.397 14.528-13.163 16.257-11.763 17.781-10.215 19.082-8.538 20.143-6.756 20.95-4.887 21.494-2.955 21.767-.991h33732c107.38 0 194.42 70.477 194.42 157.41v196.77h243.02l21.77.991 21.494 2.956 20.949 4.887 20.142 6.755 19.082 8.54 17.779 10.214 16.259 11.763 14.527 13.163 12.619 14.397 10.547 15.45 8.345 16.31 6.037 16.962 3.646 17.403 1.225 17.624v8854.6l-1.216 17.637-3.645 17.403-6.037 16.961-8.345 16.308-10.547 15.451-12.619 14.396-14.527 13.163-16.259 11.763-17.779 10.216-19.082 8.54-20.143 6.753-20.958 4.888-21.494 2.951-21.77.984h-243.02v208.58c0 86.937-87.044 157.41-194.42 157.41z" fill="#1a1a1a" fill-rule="evenodd" stroke="#000" stroke-width="40.501"/><path d="M37268 3805.4h-157.48M37268 12975h-157.48" fill="none" stroke="#000" stroke-width="36.458"/><path d="M37111 3608.6H3148" fill="none" stroke="#000" stroke-width="40.531"/><path d="M37111 3608.6v-157.48M37111 3608.6h157.47M37111 3805.4v-196.85M2865.7 3803.4v9173.2" fill="none" stroke="#000" stroke-width="36.458"/><path d="M37111 13183H3148" fill="none" stroke="#000" stroke-width="40.531"/><path d="M37111 12975v208.66M37511 3805.4v9173.2M37111 13183h157.47M37111 13183v157.47" fill="none" stroke="#000" stroke-width="36.458"/><path d="M35894 14473c0-524.93 787.4-524.93 787.4 0v984.25H35894z" fill="#b3b3b3" fill-rule="evenodd" stroke="#000" stroke-width="36.458"/><path d="M36485 14473c0-262.47-393.7-262.47-393.7 0s393.7 262.47 393.7 0z" fill-rule="evenodd" stroke="#000" stroke-width="36.458"/><path d="M35894 14473a393.7 393.7 0 0 0 787.4 0M36091 14473h-196.85M36682 14473h-196.85" fill="none" stroke="#000" stroke-width="36.458"/><path d="M36122 11520H4136c-135.89 0-246.05-88.133-246.05-196.85v-5905.5c0-108.72 110.16-196.85 246.05-196.85h31986c135.89 0 246.05 88.133 246.05 196.85v5905.5c0 108.72-110.16 196.85-246.05 196.85z" fill="#008200" fill-rule="evenodd" stroke="#000" stroke-width="40.76"/><path d="M33894 14473c0-524.93 787.4-524.93 787.4 0v984.25H33894z" fill="#b3b3b3" fill-rule="evenodd" stroke="#000" stroke-width="36.458"/><path d="M34485 14473c0-262.47-393.7-262.47-393.7 0s393.7 262.47 393.7 0z" fill-rule="evenodd" stroke="#000" stroke-width="36.458"/><path d="M33894 14473a393.7 393.7 0 0 0 787.4 0M34091 14473h-196.85M34682 14473h-196.85" fill="none" stroke="#000" stroke-width="36.458"/><path d="M34894 14473c0-524.93 787.4-524.93 787.4 0v984.25H34894z" fill="#b3b3b3" fill-rule="evenodd" stroke="#000" stroke-width="36.458"/><path d="M35485 14473c0-262.47-393.7-262.47-393.7 0s393.7 262.47 393.7 0z" fill-rule="evenodd" stroke="#000" stroke-width="36.458"/><path d="M34894 14473a393.7 393.7 0 0 0 787.4 0M35091 14473h-196.85M35682 14473h-196.85" fill="none" stroke="#000" stroke-width="36.458"/><path d="M32894 14473c0-524.93 787.4-524.93 787.4 0v984.25H32894z" fill="#b3b3b3" fill-rule="evenodd" stroke="#000" stroke-width="36.458"/><path d="M33485 14473c0-262.47-393.7-262.47-393.7 0s393.7 262.47 393.7 0z" fill-rule="evenodd" stroke="#000" stroke-width="36.458"/><path d="M32894 14473a393.7 393.7 0 0 0 787.4 0M33091 14473h-196.85M33682 14473h-196.85" fill="none" stroke="#000" stroke-width="36.458"/><path d="M31894 14473c0-524.93 787.4-524.93 787.4 0v984.25H31894z" fill="#b3b3b3" fill-rule="evenodd" stroke="#000" stroke-width="36.458"/><path d="M32485 14473c0-262.47-393.7-262.47-393.7 0s393.7 262.47 393.7 0z" fill-rule="evenodd" stroke="#000" stroke-width="36.458"/><path d="M31894 14473a393.7 393.7 0 0 0 787.4 0M32091 14473h-196.85M32682 14473h-196.85" fill="none" stroke="#000" stroke-width="36.458"/><path d="M29894 14473c0-524.93 787.4-524.93 787.4 0v984.25H29894z" fill="#b3b3b3" fill-rule="evenodd" stroke="#000" stroke-width="36.458"/><path d="M30485 14473c0-262.47-393.7-262.47-393.7 0s393.7 262.47 393.7 0z" fill-rule="evenodd" stroke="#000" stroke-width="36.458"/><path d="M29894 14473a393.7 393.7 0 0 0 787.4 0M30091 14473h-196.85M30682 14473h-196.85" fill="none" stroke="#000" stroke-width="36.458"/><path d="M30894 14473c0-524.93 787.4-524.93 787.4 0v984.25H30894z" fill="#b3b3b3" fill-rule="evenodd" stroke="#000" stroke-width="36.458"/><path d="M31485 14473c0-262.47-393.7-262.47-393.7 0s393.7 262.47 393.7 0z" fill-rule="evenodd" stroke="#000" stroke-width="36.458"/><path d="M30894 14473a393.7 393.7 0 0 0 787.4 0M31091 14473h-196.85M31682 14473h-196.85" fill="none" stroke="#000" stroke-width="36.458"/><path d="M28894 14473c0-524.93 787.4-524.93 787.4 0v984.25H28894z" fill="#b3b3b3" fill-rule="evenodd" stroke="#000" stroke-width="36.458"/><path d="M29485 14473c0-262.47-393.7-262.47-393.7 0s393.7 262.47 393.7 0z" fill-rule="evenodd" stroke="#000" stroke-width="36.458"/><path d="M28894 14473a393.7 393.7 0 0 0 787.4 0M29091 14473h-196.85M29682 14473h-196.85" fill="none" stroke="#000" stroke-width="36.458"/><path d="M27894 14473c0-524.93 787.4-524.93 787.4 0v984.25H27894z" fill="#b3b3b3" fill-rule="evenodd" stroke="#000" stroke-width="36.458"/><path d="M28485 14473c0-262.47-393.7-262.47-393.7 0s393.7 262.47 393.7 0z" fill-rule="evenodd" stroke="#000" stroke-width="36.458"/><path d="M27894 14473a393.7 393.7 0 0 0 787.4 0M28091 14473h-196.85M28682 14473h-196.85" fill="none" stroke="#000" stroke-width="36.458"/><path d="M23894 14473c0-524.93 787.4-524.93 787.4 0v984.25H23894z" fill="#b3b3b3" fill-rule="evenodd" stroke="#000" stroke-width="36.458"/><path d="M24485 14473c0-262.47-393.7-262.47-393.7 0s393.7 262.47 393.7 0z" fill-rule="evenodd" stroke="#000" stroke-width="36.458"/><path d="M23894 14473a393.7 393.7 0 0 0 787.4 0M24091 14473h-196.85M24682 14473h-196.85" fill="none" stroke="#000" stroke-width="36.458"/><path d="M24894 14473c0-524.93 787.4-524.93 787.4 0v984.25H24894z" fill="#b3b3b3" fill-rule="evenodd" stroke="#000" stroke-width="36.458"/><path d="M25485 14473c0-262.47-393.7-262.47-393.7 0s393.7 262.47 393.7 0z" fill="#1a1a1a" fill-rule="evenodd" stroke="#000" stroke-width="36.458"/><path d="M24894 14473a393.7 393.7 0 0 0 787.4 0M25091 14473h-196.85M25682 14473h-196.85" fill="none" stroke="#000" stroke-width="36.458"/><path d="M25894 14473c0-524.93 787.4-524.93 787.4 0v984.25H25894z" fill="#b3b3b3" fill-rule="evenodd" stroke="#000" stroke-width="36.458"/><path d="M26485 14473c0-262.47-393.7-262.47-393.7 0s393.7 262.47 393.7 0z" fill-rule="evenodd" stroke="#000" stroke-width="36.458"/><path d="M25894 14473a393.7 393.7 0 0 0 787.4 0M26091 14473h-196.85M26682 14473h-196.85" fill="none" stroke="#000" stroke-width="36.458"/><path d="M26894 14473c0-524.93 787.4-524.93 787.4 0v984.25H26894z" fill="#b3b3b3" fill-rule="evenodd" stroke="#000" stroke-width="36.458"/><path d="M27485 14473c0-262.47-393.7-262.47-393.7 0s393.7 262.47 393.7 0z" fill-rule="evenodd" stroke="#000" stroke-width="36.458"/><path d="M26894 14473a393.7 393.7 0 0 0 787.4 0M27091 14473h-196.85M27682 14473h-196.85" fill="none" stroke="#000" stroke-width="36.458"/><path d="M20894 14473c0-524.93 787.4-524.93 787.4 0v984.25H20894z" fill="#b3b3b3" fill-rule="evenodd" stroke="#000" stroke-width="36.458"/><path d="M21485 14473c0-262.47-393.7-262.47-393.7 0s393.7 262.47 393.7 0z" fill="#1a1a1a" fill-rule="evenodd" stroke="#000" stroke-width="36.458"/><path d="M20894 14473a393.7 393.7 0 0 0 787.4 0M21091 14473h-196.85M21682 14473h-196.85" fill="none" stroke="#000" stroke-width="36.458"/><path d="M21894 14473c0-524.93 787.4-524.93 787.4 0v984.25H21894z" fill="#b3b3b3" fill-rule="evenodd" stroke="#000" stroke-width="36.458"/><path d="M22485 14473c0-262.47-393.7-262.47-393.7 0s393.7 262.47 393.7 0z" fill-rule="evenodd" stroke="#000" stroke-width="36.458"/><path d="M21894 14473a393.7 393.7 0 0 0 787.4 0M22091 14473h-196.85M22682 14473h-196.85" fill="none" stroke="#000" stroke-width="36.458"/><path d="M22894 14473c0-524.93 787.4-524.93 787.4 0v984.25H22894z" fill="#b3b3b3" fill-rule="evenodd" stroke="#000" stroke-width="36.458"/><path d="M23485 14473c0-262.47-393.7-262.47-393.7 0s393.7 262.47 393.7 0z" fill-rule="evenodd" stroke="#000" stroke-width="36.458"/><path d="M22894 14473a393.7 393.7 0 0 0 787.4 0M23091 14473h-196.85M23682 14473h-196.85" fill="none" stroke="#000" stroke-width="36.458"/></svg>