<svg width="302" height="310" viewBox="0 0 20413 20833" xmlns="http://www.w3.org/2000/svg"><g clip-path="url(#a)" mask="url(#b)" transform="translate(-48101 -19912)"><defs><clipPath id="a"><path d="M68503 40629H48110V19921h20393v20708" fill-rule="evenodd"/></clipPath></defs><g fill="#313d63" stroke="#313d63"><path d="M68503 40629H48110V19921h20393v20708" fill-rule="evenodd"/><g fill-opacity="0" stroke-linecap="round" stroke-linejoin="round" stroke-width="19.685" fill="none" stroke="#000"><path d="M48188 40629h-78M48110 19921v20708M68503 19921H48110M68503 40629V19921M48188 40629h20315"/></g></g><g fill-opacity="1" stroke="none" stroke-linecap="round" stroke-linejoin="round" stroke-width="0" fill="#9c6b28"><circle cx="67638" cy="30929" r="334.65"/><circle cx="67638" cy="29929" r="334.65"/><circle cx="67638" cy="28929" r="334.65"/><circle cx="67638" cy="27929" r="334.65"/><circle cx="67638" cy="26929" r="334.65"/><circle cx="67638" cy="25929" r="334.65"/><circle cx="67638" cy="24929" r="334.65"/><circle cx="67638" cy="23929" r="334.65"/><circle cx="67638" cy="22929" r="334.65"/><path d="M67303 22264v-669.3h669.3v669.3z" fill-rule="evenodd"/><circle cx="62591" cy="31240" r="300"/><circle cx="61587" cy="31240" r="300"/><circle cx="60587" cy="31240" r="300"/><circle cx="59587" cy="31240" r="300"/><circle cx="58587" cy="31240" r="300"/><circle cx="57587" cy="31240" r="300"/><circle cx="56587" cy="31240" r="300"/><circle cx="55587" cy="31240" r="300"/><circle cx="54587" cy="31244" r="300"/><circle cx="53587" cy="31244" r="300"/></g><g fill="#212d53" stroke="#212d53" stroke-linecap="round" stroke-linejoin="round" stroke-width="0"><g fill-opacity="1" stroke="none"><circle cx="67638" cy="30929" r="334.65"/><circle cx="67638" cy="29929" r="334.65"/><circle cx="67638" cy="28929" r="334.65"/><circle cx="67638" cy="27929" r="334.65"/><circle cx="67638" cy="26929" r="334.65"/><circle cx="67638" cy="25929" r="334.65"/><circle cx="67638" cy="24929" r="334.65"/><circle cx="67638" cy="23929" r="334.65"/><circle cx="67638" cy="22929" r="334.65"/><path d="M67303 22264v-669.3h669.3v669.3z" fill-rule="evenodd"/><circle cx="62591" cy="31240" r="300"/><circle cx="61587" cy="31240" r="300"/><circle cx="60587" cy="31240" r="300"/><circle cx="59587" cy="31240" r="300"/><circle cx="58587" cy="31240" r="300"/><circle cx="57587" cy="31240" r="300"/><circle cx="56587" cy="31240" r="300"/><circle cx="55587" cy="31240" r="300"/><circle cx="54587" cy="31244" r="300"/><circle cx="53587" cy="31244" r="300"/></g><g stroke="none"><circle cx="67638" cy="30929" r="68.898"/><circle cx="67638" cy="29929" r="68.898"/><circle cx="67638" cy="28929" r="68.898"/><circle cx="67638" cy="27929" r="68.898"/><circle cx="67638" cy="26929" r="68.898"/><circle cx="67638" cy="25929" r="68.898"/><circle cx="67638" cy="24929" r="68.898"/><circle cx="67638" cy="23929" r="68.898"/><circle cx="67638" cy="22929" r="68.898"/><circle cx="67638" cy="21929" r="68.898"/><circle cx="62591" cy="31240" r="68.898"/><circle cx="61587" cy="31240" r="68.898"/><circle cx="60587" cy="31240" r="68.898"/><circle cx="59587" cy="31240" r="68.898"/><circle cx="58587" cy="31240" r="68.898"/><circle cx="57587" cy="31240" r="68.898"/><circle cx="56587" cy="31240" r="68.898"/><circle cx="55587" cy="31240" r="68.898"/><circle cx="54587" cy="31244" r="68.898"/><circle cx="53587" cy="31244" r="68.898"/></g></g><g fill="#b5ae30" mask="url(#c)" stroke="#b5ae30" stroke-linecap="round" stroke-linejoin="round" stroke-width="0"><g fill-opacity="1" stroke="none"><circle cx="67638" cy="30929" r="334.65"/><circle cx="67638" cy="29929" r="334.65"/><circle cx="67638" cy="28929" r="334.65"/><circle cx="67638" cy="27929" r="334.65"/><circle cx="67638" cy="26929" r="334.65"/><circle cx="67638" cy="25929" r="334.65"/><circle cx="67638" cy="24929" r="334.65"/><circle cx="67638" cy="23929" r="334.65"/><circle cx="67638" cy="22929" r="334.65"/><path d="M67303 22264v-669.3h669.3v669.3z" fill-rule="evenodd"/><circle cx="62591" cy="31240" r="300"/><circle cx="61587" cy="31240" r="300"/><circle cx="60587" cy="31240" r="300"/><circle cx="59587" cy="31240" r="300"/><circle cx="58587" cy="31240" r="300"/><circle cx="57587" cy="31240" r="300"/><circle cx="56587" cy="31240" r="300"/><circle cx="55587" cy="31240" r="300"/><circle cx="54587" cy="31244" r="300"/><circle cx="53587" cy="31244" r="300"/></g><g stroke="none"><circle cx="67638" cy="30929" r="68.898"/><circle cx="67638" cy="29929" r="68.898"/><circle cx="67638" cy="28929" r="68.898"/><circle cx="67638" cy="27929" r="68.898"/><circle cx="67638" cy="26929" r="68.898"/><circle cx="67638" cy="25929" r="68.898"/><circle cx="67638" cy="24929" r="68.898"/><circle cx="67638" cy="23929" r="68.898"/><circle cx="67638" cy="22929" r="68.898"/><circle cx="67638" cy="21929" r="68.898"/><circle cx="62591" cy="31240" r="68.898"/><circle cx="61587" cy="31240" r="68.898"/><circle cx="60587" cy="31240" r="68.898"/><circle cx="59587" cy="31240" r="68.898"/><circle cx="58587" cy="31240" r="68.898"/><circle cx="57587" cy="31240" r="68.898"/><circle cx="56587" cy="31240" r="68.898"/><circle cx="55587" cy="31240" r="68.898"/><circle cx="54587" cy="31244" r="68.898"/><circle cx="53587" cy="31244" r="68.898"/></g></g><defs><mask id="c"><g fill="#fff" fill-opacity="1" stroke="#fff" stroke-linecap="round" stroke-linejoin="round" stroke-width="0"><circle cx="67638" cy="30929" r="334.65"/><circle cx="67638" cy="29929" r="334.65"/><circle cx="67638" cy="28929" r="334.65"/><circle cx="67638" cy="27929" r="334.65"/><circle cx="67638" cy="26929" r="334.65"/><circle cx="67638" cy="25929" r="334.65"/><circle cx="67638" cy="24929" r="334.65"/><circle cx="67638" cy="23929" r="334.65"/><circle cx="67638" cy="22929" r="334.65"/><path d="M67303 22264v-669.3h669.3v669.3z" fill-rule="evenodd"/><circle cx="62591" cy="31240" r="300"/><circle cx="61587" cy="31240" r="300"/><circle cx="60587" cy="31240" r="300"/><circle cx="59587" cy="31240" r="300"/><circle cx="58587" cy="31240" r="300"/><circle cx="57587" cy="31240" r="300"/><circle cx="56587" cy="31240" r="300"/><circle cx="55587" cy="31240" r="300"/><circle cx="54587" cy="31244" r="300"/><circle cx="53587" cy="31244" r="300"/></g></mask></defs><defs><mask id="d"><g fill-opacity="1" stroke="#000" stroke-linecap="round" stroke-linejoin="round" stroke-width="0"><circle cx="67638" cy="30929" r="334.65"/><circle cx="67638" cy="29929" r="334.65"/><circle cx="67638" cy="28929" r="334.65"/><circle cx="67638" cy="27929" r="334.65"/><circle cx="67638" cy="26929" r="334.65"/><circle cx="67638" cy="25929" r="334.65"/><circle cx="67638" cy="24929" r="334.65"/><circle cx="67638" cy="23929" r="334.65"/><circle cx="67638" cy="22929" r="334.65"/><path d="M67303 22264v-669.3h669.3v669.3z" fill-rule="evenodd"/><circle cx="62591" cy="31240" r="300"/><circle cx="61587" cy="31240" r="300"/><circle cx="60587" cy="31240" r="300"/><circle cx="59587" cy="31240" r="300"/><circle cx="58587" cy="31240" r="300"/><circle cx="57587" cy="31240" r="300"/><circle cx="56587" cy="31240" r="300"/><circle cx="55587" cy="31240" r="300"/><circle cx="54587" cy="31244" r="300"/><circle cx="53587" cy="31244" r="300"/></g><path fill="#fff" d="M48100 19911h20413v20833H48100z"/></mask></defs><g fill="#f0f0f0" fill-opacity="0" mask="url(#d)" stroke="#f0f0f0" stroke-linecap="round" stroke-linejoin="round"><g stroke-width="118.11"><path d="M49656 39617v338M49656 39786h-590l84 56 56 56 29 57M49431 39364v-450M49066 38717l590-197-590-197M49656 38127h-590v-141l28-84 56-57 56-28 113-28h84l113 28 56 28 56 57 28 84v141M49656 37536h-590v-141l28-84 56-56 56-28 113-28h84l113 28 56 28 56 56 28 84v141M49656 36946h-590M51130 40123l-28-28-28-56v-141l28-56 28-28 56-28h56l85 28 337 337v-365M51439 39533v-450M51046 38380l759 506M51664 37845l-281 197M51664 38183h-590v-225l28-56 28-28 56-29h85l56 29 28 28 28 56v225M51355 37592v-197M51664 37311v281h-590v-281M51636 37086l28-84v-141l-28-56-28-28-56-28h-56l-57 28-28 28-28 56-28 113-28 56-28 28-57 28h-56l-56-28-28-28-28-56v-141l28-84M53082 39772v-366l225 197v-84l28-57 28-28 56-28h141l56 28 28 28 28 57v168l-28 57-28 28M53447 39153v-450M53672 38422h-590v-141l28-84 56-56 56-28 113-29h84l113 29 56 28 56 56 28 84v141M53503 37859v-281M53672 37916l-590-197 590-197M53082 37410v-338M53672 37241h-590M55286 39519h394M55061 39659l422 141v-366M55455 39209v-450M55624 38141l28 28 28 84v56l-28 85-56 56-57 28-112 28h-84l-113-28-56-28-56-56-29-85v-56l29-84 28-28M55680 37606v282h-591M55680 37410h-591M55680 37072l-337 253M55089 37072l338 338M57097 39547v281l282 28-29-28-28-56v-141l28-56 29-28 56-28h140l57 28 28 28 28 56v141l-28 56-28 28M57463 39266v-450M57069 38113l760 506M57632 37578l28 28 28 85v56l-28 84-56 57-57 28-112 28h-85l-112-28-56-28-57-57-28-84v-56l28-85 29-28M57660 37353l28-84v-141l-28-56-28-28-57-28h-56l-56 28-28 28-28 56-28 113-29 56-28 28-56 28h-56l-56-28-29-28-28-56v-141l28-84M59105 39533v112l28 56 28 29 85 56 112 28h225l57-28 28-28 28-57v-112l-28-56-28-28-57-29h-140l-57 29-28 28-28 56v112l28 57 28 28 57 28M59471 39223v-450M59105 38577l591-197-591-197M59696 37986h-591v-141l28-84 57-56 56-28 112-28h85l112 28 56 28 57 56 28 84v141M59696 37395h-591v-140l28-85 57-56 56-28 112-28h85l112 28 56 28 57 56 28 85v140M61113 39603v-394l591 253M61479 38984v-450M61704 38253h-591l591-337h-591M61647 37297l29 28 28 85v56l-28 84-57 56-56 28-112 29h-85l-112-29-57-28-56-56-28-84v-56l28-85 28-28M63374 39758l-28 56-28 28-56 28h-29l-56-28-28-28-28-56v-113l28-56 28-28 56-28h29l56 28 28 28 28 56v113l28 56 28 28 57 28h112l56-28 28-28 29-56v-113l-29-56-28-28-56-28h-112l-57 28-28 28-28 56M63487 39280v-450M63149 38239l-28 56v85l28 84 56 56 57 28 112 29h84l113-29 56-28 56-56 29-84v-57l-29-84-28-28h-197v112M63712 37958h-591l591-338h-591M63712 37339h-591v-140l28-85 56-56 57-28 112-28h84l113 28 56 28 56 56 29 85v140M65719 39772v-113l-28-56-28-28-84-56-113-28h-225l-56 28-28 28-28 56v112l28 57 28 28 56 28h141l56-28 28-28 28-57v-112l-28-56-28-28-56-28M65494 39237v-450M65129 38591l590-197-590-197M65719 37719v281h-590M65494 37522v-450M67727 39997v337M67727 40165h-590l84 57 56 56 28 56M67137 39631v-56l28-56 28-28 56-29 113-28h140l113 28 56 29 28 28 28 56v56l-28 56-28 28-56 29-113 28h-140l-113-28-56-29-28-28-28-56M67502 39181v-450M67137 38534l590-196-590-197M67727 37663v281h-590M67502 37466v-450M67727 37241h-450" fill="none"/></g><g stroke-width="47.244" fill="none"><path d="M67637 21405h524M68161 21405v524M68161 22429v9023M67114 31452h1047M67114 22429v9023M67114 22429h1047"/></g><g stroke-width="62.992" fill="none"><path d="M52823 32354h10438M63261 32354V20743M63261 20743H52823M52823 20743v11611"/></g></g><g fill-opacity="0" stroke-linecap="round" stroke-linejoin="round" stroke-width="19.685" fill="none" stroke="#000"><path d="M48188 40629h-78M48110 19921v20708M68503 19921H48110M68503 40629V19921M48188 40629h20315"/></g><defs><mask id="b"><path fill="#fff" d="M48100 19911h20413v20833H48100z"/><path stroke="#000" stroke-linecap="round" stroke-width="393" d="M67637 30929h0M67637 29929h0M67637 28929h0M67637 27929h0M67637 26929h0M67637 25929h0M67637 24929h0M67637 23929h0M67637 22929h0M67637 21929h0"/><path stroke="#000" stroke-linecap="round" stroke-width="300" d="M62590 31240h0M61586 31240h0M60586 31240h0M59586 31240h0M58586 31240h0M57586 31240h0M56586 31240h0M55586 31240h0M54586 31244h0M53586 31244h0"/></mask></defs></g><g stroke="#000" stroke-width=".093"><path d="M20035.999 1517.001h-999.998v9999.98h999.998v-9999.98z" fill="#1a1a1a" fill-rule="evenodd" stroke-width="36.6141"/><path d="M19772.22 11253.045v-472.44h-472.44v472.44z" fill="#666" fill-rule="evenodd" stroke-width="36.6141"/><path d="M19299.78 10780.605l117.716 117.716M19299.78 11253.045l117.716-117.717M19417.496 10898.32v237.008M19772.22 10780.605l-117.716 117.716M19654.504 10898.32h-237.008M19772.22 11253.045l-117.716-117.717M19654.504 11135.328v-237.007M19417.496 11135.328h237.008" fill="none" stroke-width="36.6141"/><path d="M19654.11 11134.935v-236.22h-236.22v236.22z" fill="olive" fill-rule="evenodd" stroke-width="36.6141"/><path d="M19496.63 10918.4v-19.685M19496.63 11115.25v-196.85M19496.63 11134.935v-19.685M19575.37 11134.935v-19.685M19496.63 11115.25h78.74M19575.37 11115.25v-196.85M19575.37 10918.4v-19.685M19496.63 10918.4h78.74" fill="none" stroke-width="36.6141"/><g><path d="M19772.22 10253.047v-472.44h-472.44v472.44z" fill="#666" fill-rule="evenodd" stroke-width="36.6141"/><path d="M19299.78 9780.607l117.716 117.716M19299.78 10253.047l117.716-117.717M19417.496 9898.323v237.007M19772.22 9780.607l-117.716 117.716M19654.504 9898.323h-237.008M19772.22 10253.047l-117.716-117.717M19654.504 10135.33v-237.007M19417.496 10135.33h237.008" fill="none" stroke-width="36.6141"/><path d="M19654.11 10134.937v-236.22h-236.22v236.22z" fill="olive" fill-rule="evenodd" stroke-width="36.6141"/><path d="M19496.63 9918.402v-19.685M19496.63 10115.252v-196.85M19496.63 10134.937v-19.685M19575.37 10134.937v-19.685M19496.63 10115.252h78.74M19575.37 10115.252v-196.85M19575.37 9918.402v-19.685M19496.63 9918.402h78.74" fill="none" stroke-width="36.6141"/></g><g><path d="M19772.22 9253.049v-472.44h-472.44v472.44z" fill="#666" fill-rule="evenodd" stroke-width="36.6141"/><path d="M19299.78 8780.609l117.716 117.716M19299.78 9253.049l117.716-117.717M19417.496 8898.325v237.007M19772.22 8780.609l-117.716 117.716M19654.504 8898.325h-237.008M19772.22 9253.049l-117.716-117.717M19654.504 9135.332v-237.007M19417.496 9135.332h237.008" fill="none" stroke-width="36.6141"/><path d="M19654.11 9134.939v-236.22h-236.22v236.22z" fill="olive" fill-rule="evenodd" stroke-width="36.6141"/><path d="M19496.63 8918.404v-19.685M19496.63 9115.254v-196.85M19496.63 9134.939v-19.685M19575.37 9134.939v-19.685M19496.63 9115.254h78.74M19575.37 9115.254v-196.85M19575.37 8918.404v-19.685M19496.63 8918.404h78.74" fill="none" stroke-width="36.6141"/></g><g><path d="M19772.22 8253.05v-472.44h-472.44v472.44z" fill="#666" fill-rule="evenodd" stroke-width="36.6141"/><path d="M19299.78 7780.61l117.716 117.717M19299.78 8253.05l117.716-117.716M19417.496 7898.327v237.007M19772.22 7780.61l-117.716 117.717M19654.504 7898.327h-237.008M19772.22 8253.05l-117.716-117.716M19654.504 8135.334v-237.007M19417.496 8135.334h237.008" fill="none" stroke-width="36.6141"/><path d="M19654.11 8134.94v-236.22h-236.22v236.22z" fill="olive" fill-rule="evenodd" stroke-width="36.6141"/><path d="M19496.63 7918.406v-19.685M19496.63 8115.256v-196.85M19496.63 8134.94v-19.684M19575.37 8134.94v-19.684M19496.63 8115.256h78.74M19575.37 8115.256v-196.85M19575.37 7918.406v-19.685M19496.63 7918.406h78.74" fill="none" stroke-width="36.6141"/></g><g><path d="M19772.22 7253.053v-472.44h-472.44v472.44z" fill="#666" fill-rule="evenodd" stroke-width="36.6141"/><path d="M19299.78 6780.613l117.716 117.716M19299.78 7253.053l117.716-117.717M19417.496 6898.329v237.007M19772.22 6780.613l-117.716 117.716M19654.504 6898.329h-237.008M19772.22 7253.053l-117.716-117.717M19654.504 7135.336V6898.33M19417.496 7135.336h237.008" fill="none" stroke-width="36.6141"/><path d="M19654.11 7134.943v-236.22h-236.22v236.22z" fill="olive" fill-rule="evenodd" stroke-width="36.6141"/><path d="M19496.63 6918.408v-19.685M19496.63 7115.258v-196.85M19496.63 7134.943v-19.685M19575.37 7134.943v-19.685M19496.63 7115.258h78.74M19575.37 7115.258v-196.85M19575.37 6918.408v-19.685M19496.63 6918.408h78.74" fill="none" stroke-width="36.6141"/></g><g><path d="M19772.22 6253.055v-472.44h-472.44v472.44z" fill="#666" fill-rule="evenodd" stroke-width="36.6141"/><path d="M19299.78 5780.615l117.716 117.716M19299.78 6253.055l117.716-117.717M19417.496 5898.33v237.008M19772.22 5780.615l-117.716 117.716M19654.504 5898.33h-237.008M19772.22 6253.055l-117.716-117.717M19654.504 6135.338v-237.007M19417.496 6135.338h237.008" fill="none" stroke-width="36.6141"/><path d="M19654.11 6134.945v-236.22h-236.22v236.22z" fill="olive" fill-rule="evenodd" stroke-width="36.6141"/><path d="M19496.63 5918.41v-19.685M19496.63 6115.26v-196.85M19496.63 6134.945v-19.685M19575.37 6134.945v-19.685M19496.63 6115.26h78.74M19575.37 6115.26v-196.85M19575.37 5918.41v-19.685M19496.63 5918.41h78.74" fill="none" stroke-width="36.6141"/></g><g><path d="M19772.22 5253.057v-472.44h-472.44v472.44z" fill="#666" fill-rule="evenodd" stroke-width="36.6141"/><path d="M19299.78 4780.617l117.716 117.716M19299.78 5253.057l117.716-117.717M19417.496 4898.333v237.007M19772.22 4780.617l-117.716 117.716M19654.504 4898.333h-237.008M19772.22 5253.057l-117.716-117.717M19654.504 5135.34v-237.007M19417.496 5135.34h237.008" fill="none" stroke-width="36.6141"/><path d="M19654.11 5134.947v-236.22h-236.22v236.22z" fill="olive" fill-rule="evenodd" stroke-width="36.6141"/><path d="M19496.63 4918.412v-19.685M19496.63 5115.262v-196.85M19496.63 5134.947v-19.685M19575.37 5134.947v-19.685M19496.63 5115.262h78.74M19575.37 5115.262v-196.85M19575.37 4918.412v-19.685M19496.63 4918.412h78.74" fill="none" stroke-width="36.6141"/></g><g><path d="M19772.22 4253.059v-472.44h-472.44v472.44z" fill="#666" fill-rule="evenodd" stroke-width="36.6141"/><path d="M19299.78 3780.619l117.716 117.716M19299.78 4253.059l117.716-117.717M19417.496 3898.335v237.007M19772.22 3780.619l-117.716 117.716M19654.504 3898.335h-237.008M19772.22 4253.059l-117.716-117.717M19654.504 4135.342v-237.007M19417.496 4135.342h237.008" fill="none" stroke-width="36.6141"/><path d="M19654.11 4134.949v-236.22h-236.22v236.22z" fill="olive" fill-rule="evenodd" stroke-width="36.6141"/><path d="M19496.63 3918.414v-19.685M19496.63 4115.264v-196.85M19496.63 4134.949v-19.685M19575.37 4134.949v-19.685M19496.63 4115.264h78.74M19575.37 4115.264v-196.85M19575.37 3918.414v-19.685M19496.63 3918.414h78.74" fill="none" stroke-width="36.6141"/></g><g><path d="M19772.22 3253.06v-472.44h-472.44v472.44z" fill="#666" fill-rule="evenodd" stroke-width="36.6141"/><path d="M19299.78 2780.62l117.716 117.717M19299.78 3253.06l117.716-117.716M19417.496 2898.337v237.007M19772.22 2780.62l-117.716 117.717M19654.504 2898.337h-237.008M19772.22 3253.06l-117.716-117.716M19654.504 3135.344v-237.007M19417.496 3135.344h237.008" fill="none" stroke-width="36.6141"/><path d="M19654.11 3134.95v-236.22h-236.22v236.22z" fill="olive" fill-rule="evenodd" stroke-width="36.6141"/><path d="M19496.63 2918.416v-19.685M19496.63 3115.266v-196.85M19496.63 3134.95v-19.684M19575.37 3134.95v-19.684M19496.63 3115.266h78.74M19575.37 3115.266v-196.85M19575.37 2918.416v-19.685M19496.63 2918.416h78.74" fill="none" stroke-width="36.6141"/></g><g><path d="M19772.22 2253.063v-472.44h-472.44v472.44z" fill="#666" fill-rule="evenodd" stroke-width="36.6141"/><path d="M19299.78 1780.623l117.716 117.716M19299.78 2253.063l117.716-117.717M19417.496 1898.339v237.007M19772.22 1780.623l-117.716 117.716M19654.504 1898.339h-237.008M19772.22 2253.063l-117.716-117.717M19654.504 2135.346V1898.34M19417.496 2135.346h237.008" fill="none" stroke-width="36.6141"/><path d="M19654.11 2134.953v-236.22h-236.22v236.22z" fill="olive" fill-rule="evenodd" stroke-width="36.6141"/><path d="M19496.63 1918.418v-19.685M19496.63 2115.268v-196.85M19496.63 2134.953v-19.685M19575.37 2134.953v-19.685M19496.63 2115.268h78.74M19575.37 2115.268v-196.85M19575.37 1918.418v-19.685M19496.63 1918.418h78.74" fill="none" stroke-width="36.6141"/></g><g><path d="M14365.03 12367.87h-115M5495.206 12249.76v118.354M4795.2 12249.76h699.998M4795.2 12367.87v-118.354M5495.206 12367.87h-699.999M5610.205 12367.87h-115M15065.03 12367.87h-700M15065.03 12249.76v118.354M14365.03 12249.76h700M14365.03 12249.76v118.354M5500.324 12378.107a100 100 0 0 1 2.559-10" fill="none" stroke-width="36.6141"/><path d="M15095.344 847.964v11549.977h-10329.9V847.964z" fill="#f2f2f2" fill-rule="evenodd" stroke-width="36.6141"/><path d="M4785.2 12378.107h824.998M14250.07 12378.107h824.998" fill="none" stroke-width="36.6141"/><path d="M15055.187 887.964v9979.902H4805.207V887.964z" fill="#333" fill-rule="evenodd" stroke-width="36.6141"/><path d="M5190.876 10887.165v1296.139M5190.876 12183.225h419.33M5610.205 12183.225v214.65M14250.07 12397.792v-214.65M14250.07 12183.225h419.33M14669.36 12183.225v-1296.139" fill="none" stroke-width="36.6141"/><path d="M12970.151 11247.794H6890.242h6079.91v280h-6079.91v-280z" fill="#0d151c" fill-rule="evenodd" stroke-width="36.6141"/><path d="M6959.14 11458.817l-7.718 7.717-15.05 15.05-7.142 7.142-13.07 13.067-5.765 5.764-5.15 5.15-4.474 4.472-3.74 3.74-2.957 2.953-2.142 2.126-1.295 1.3-.433.432M6959.14 11316.691l-7.718-7.716-15.05-15.051-7.142-7.142-6.766-6.764-6.304-6.303-5.765-5.764-5.15-5.15-4.474-4.472-3.74-3.74-2.957-2.953-2.142-2.126-1.295-1.299-.433-.433M12901.254 11316.691l29.91-29.909 6.767-6.764 32.24-32.24M12901.254 11458.817l29.91 29.91 6.767 6.763 32.24 32.24" fill="none" stroke-width="36.6141"/><path d="M5323.907 10505.276v-9212.58h9212.58v9212.58z" fill="#040706" fill-rule="evenodd" stroke-width="36.6141"/><path d="M12901.254 11458.817H6959.14M12901.254 11316.691v142.13M6959.14 11316.691h5942.114M6959.14 11458.817v-142.13" fill="none" stroke-width="36.6141"/><path d="M14125.267 12979.68h-8390.14v-581.888h0l8390.14.003v581.889z" fill="#b6650e" fill-rule="evenodd" stroke-width="36.6141"/></g></g></svg>