<svg width="600" height="188" color-interpolation="auto" font-family="Dialog" font-size="12" stroke="#000" stroke-linecap="square" stroke-miterlimit="10" xmlns="http://www.w3.org/2000/svg" xmlns:xlink="http://www.w3.org/1999/xlink"><defs><linearGradient id="a" x1="50" x2="50" y1="70" y2="90" gradientUnits="userSpaceOnUse" spreadMethod="reflect" xlink:href="#linearGradient1"/><linearGradient id="b" x1="580" x2="580" y1="130" y2="150" gradientUnits="userSpaceOnUse" spreadMethod="reflect" xlink:href="#linearGradient2"/></defs><path d="M.26.269h599.43v187.4H.26z" fill="#f9f9f9" stroke-width=".357"/><path transform="translate(-45.312 -21.543)" d="M50 80l12-10h25l13 10-13 10H62z" fill="url(#a)" stroke="none"/><path d="M4.688 58.457l12-10h25l13 10-13 10h-25z" fill="none" stroke-width=".5"/><path d="M54.688 62.457v-8l8 4z" stroke="none"/><path d="M54.688 62.457v-8l8 4z" fill="none" stroke-width=".5"/><path transform="translate(-45.312 -21.543)" d="M617 130l13 10-13 10h-25l-12-10 12-10z" fill="url(#b)" stroke="none"/><path d="M571.69 108.46l13 10-13 10h-25l-12-10 12-10z" fill="none" stroke-width=".5"/><path d="M526.69 122.46v-8l8 4z" stroke="none"/><path d="M526.69 122.46v-8l8 4z" fill="none" stroke-width=".5"/><g fill="#dcdcdc"><path d="M394.69 128.46v-60l60 30z" stroke="none"/><path d="M394.69 128.46v-60l60 30z" stroke-width=".5"/></g><path d="M386.69 102.46v-8l8 4z" stroke="none"/><path d="M386.69 102.46v-8l8 4z" fill="none" stroke-width=".5"/><path d="M454.69 102.46v-8l8 4z" stroke="none"/><path d="M454.69 102.46v-8l8 4z" fill="none" stroke-width=".5"/><g transform="translate(-45.312 -21.543)" fill="#dcdcdc"><rect x="50" y="150" width="50" height="40" rx="4" ry="4" stroke="none"/><rect x="50" y="150" width="50" height="40" rx="4" ry="4" stroke-width=".5"/><rect x="50" y="150" width="50" height="40" rx="4" ry="4" stroke="none"/><rect x="50" y="150" width="50" height="40" rx="4" ry="4" stroke-width=".5"/></g><path d="M54.688 152.46v-8l8 4z" stroke="none"/><path d="M54.688 152.46v-8l8 4z" fill="none" stroke-width=".5"/><g transform="translate(-45.312 -21.543)" fill="#dcdcdc"><rect x="430" y="160" width="50" height="40" rx="4" ry="4" stroke="none"/><rect x="430" y="160" width="50" height="40" rx="4" ry="4" stroke-width=".5"/><rect x="430" y="160" width="50" height="40" rx="4" ry="4" stroke="none"/><rect x="430" y="160" width="50" height="40" rx="4" ry="4" stroke-width=".5"/></g><path d="M434.69 162.46v-8l8 4z" stroke="none"/><path d="M434.69 162.46v-8l8 4z" fill="none" stroke-width=".5"/><g transform="matrix(1.2352 0 0 1.0691 -123.06 -26.39)" fill="#dcdcdc"><rect x="310" y="30" width="40" height="40" rx="3" ry="3" stroke="none"/><rect x="310" y="30" width="40" height="40" rx="3" ry="3" stroke-width=".5"/></g><path transform="matrix(1.2352 0 0 1.0691 -67.092 -3.36)" d="M272.09 11.357h25.2m-29.7 11.7h34.2m-32.4 11.7h29.7m-27 10.8h25.2m-25.2-34.2l-4.5 11.7 1.8 11.7 2.7 10.8m25.2-34.2l4.5 11.7-1.8 11.7-2.7 10.8" fill="none" image-rendering="optimizeSpeed" stroke="#c00" stroke-linecap="round" stroke-linejoin="round" stroke-miterlimit="4" stroke-width="1.8"/><ellipse cx="284.57" cy="39.571" rx="5.559" ry="4.811" fill="none" image-rendering="optimizeSpeed" stroke="#c00" stroke-linecap="butt" stroke-miterlimit="4" stroke-width=".517"/><ellipse cx="284.57" cy="39.571" rx=".834" ry=".722" image-rendering="optimizeSpeed" stroke="none"/><path transform="matrix(1.2352 0 0 1.0691 -67.092 -3.36)" d="M284.69 40.157l-1.8-1.8m1.8 1.8l2.7-2.7" fill="none" image-rendering="optimizeSpeed" stroke-linecap="round" stroke-linejoin="round" stroke-miterlimit="4" stroke-width=".45"/><g fill="red" stroke="red"><path d="M280.69 48.452h8l-4 8z" stroke="none"/><path d="M280.69 48.452h8l-4 8z" fill="none" stroke-width=".5"/></g><g transform="translate(-45.312 -21.543)" fill="#dcdcdc"><circle cx="120" cy="120" r="10" stroke="none"/><circle cx="120" cy="120" r="10" stroke-width=".5"/></g><path transform="translate(66.337 85.549)" d="M9.203 6.453v5.453h5.438v1.656H9.203V19h-1.64v-5.438H2.124v-1.656h5.437V6.453z" clip-path="url(#clipPath2)" stroke="none"/><path d="M78.692 116.45h-8l4-8z" stroke="none"/><path d="M78.692 116.45h-8l4-8z" fill="none" stroke-width=".5"/><path d="M70.692 80.452h8l-4 8z" stroke="none"/><path d="M70.692 80.452h8l-4 8z" fill="none" stroke-width=".5"/><path d="M84.688 102.46v-8l8 4z" stroke="none"/><path d="M84.688 102.46v-8l8 4z" fill="none" stroke-width=".5"/><g transform="translate(-45.312 -21.543)" fill="#dcdcdc"><circle cx="540" cy="140" r="10" stroke="none"/><circle cx="540" cy="140" r="10" stroke-width=".5"/></g><path transform="translate(486.37 105.58)" d="M9.203 6.453v5.453h5.438v1.656H9.203V19h-1.64v-5.438H2.124v-1.656h5.437V6.453z" clip-path="url(#clipPath2)" stroke="none"/><path d="M498.69 136.45h-8l4-8z" stroke="none"/><path d="M498.69 136.45h-8l4-8z" fill="none" stroke-width=".5"/><path d="M490.69 100.45h8l-4 8z" stroke="none"/><path d="M490.69 100.45h8l-4 8z" fill="none" stroke-width=".5"/><path d="M504.69 114.46l8 4-8 4z" stroke="none"/><path d="M504.69 114.46l8 4-8 4z" fill="none" stroke-width=".5"/><g transform="translate(-45.312 -21.543)" fill="#dcdcdc"><rect x="240" y="90" width="180" height="60" rx="13.5" ry="13.5" stroke="none"/><rect x="240" y="90" width="180" height="60" rx="13.5" ry="13.5" stroke-width=".5"/><rect x="240" y="90" width="180" height="60" rx="13.5" ry="13.5" stroke="none"/><rect x="240" y="90" width="180" height="60" rx="13.5" ry="13.5" stroke-width=".5"/></g><path d="M186.69 102.46v-8l8 4z" stroke="none"/><path d="M186.69 102.46v-8l8 4z" fill="none" stroke-width=".5"/><path d="M374.69 102.46v-8l8 4z" stroke="none"/><path d="M374.69 102.46v-8l8 4z" fill="none" stroke-width=".5"/><g fill="red" stroke="red"><path d="M280.69 60.452h8l-4 8z" stroke="none"/><path d="M280.69 60.452h8l-4 8z" fill="none" stroke-width=".5"/></g><g fill="#dcdcdc"><path d="M114.69 68.457l60 30-60 30z" stroke="none"/><path d="M114.69 68.457l60 30-60 30z" stroke-width=".5"/></g><path d="M114.69 98.457l-8 4v-8z" stroke="none"/><path d="M114.69 98.457l-8 4v-8z" fill="none" stroke-width=".5"/><path d="M174.69 102.46v-8l8 4z" stroke="none"/><path d="M174.69 102.46v-8l8 4z" fill="none" stroke-width=".5"/><path d="M284.69 54.957v7" fill="none" stroke="red"/><path d="M24.116 54.262h1.052v7.776h-1.052zm3.146 0h1.417l3.448 6.505v-6.505h1.02v7.776h-1.416l-3.448-6.505v6.505h-1.021z" aria-label="IN"/><path d="M551.64 115.34q-1.146 0-1.823.854-.672.854-.672 2.328 0 1.47.672 2.323.677.854 1.823.854t1.813-.854q.671-.854.671-2.323 0-1.474-.672-2.328-.666-.854-1.812-.854zm0-.854q1.635 0 2.615 1.099.979 1.094.979 2.937 0 1.839-.98 2.938-.979 1.094-2.614 1.094-1.64 0-2.625-1.094-.98-1.094-.98-2.938t.98-2.937q.984-1.1 2.625-1.1zm5.12.134h1.057v4.724q0 1.25.453 1.802.454.547 1.47.547 1.01 0 1.463-.547.453-.552.453-1.802v-4.724h1.057v4.854q0 1.521-.755 2.297-.75.776-2.219.776-1.474 0-2.23-.776-.75-.776-.75-2.297zm6.85 0h6.578v.885h-2.76v6.891h-1.057v-6.89h-2.76z" aria-label="OUT"/><path d="M512.69 118.46h2.707l10.793-.003h.237M442.69 158.46h51.949l.05-23.503M462.69 98.46l32-.003v3.5m-402-3.497h13.927m-43.927 50h11.897l.105-33.503m-12.002-56.5h12.002v23.5m108 16.503h3.81m196.19 0h4.206" fill="none" stroke="#2e2efe" stroke-linecap="butt"/><path d="M199.55 102.46H369.8" fill="none" stroke-linecap="butt" stroke-width=".923"/></svg>