<svg width="482" height="363" viewBox="0 0 33484 25216" xmlns="http://www.w3.org/2000/svg"><g clip-path="url(#a)" mask="url(#b)" transform="translate(-35817 -16132)"><defs><clipPath id="a"><path d="M69291 41338H35826V16141h33465v25197" fill-rule="evenodd"/></clipPath></defs><g fill="#313d63" stroke="#313d63"><path d="M69291 41338H35826V16141h33465v25197" fill-rule="evenodd"/><g fill-opacity="0" stroke-linecap="round" stroke-linejoin="round" stroke-width="19.685" fill="none" stroke="#000"><path d="M69291 16141v25197M35826 16141h33465M35826 41338V16141M69291 41338H35826"/></g></g><g stroke-linecap="round" stroke-linejoin="round" stroke-width="0" stroke="none" fill="#9c6b28"><circle cx="65301" cy="30609" r="300"/><circle cx="64293" cy="30601" r="300"/><circle cx="63293" cy="30597" r="300"/><circle cx="62297" cy="30601" r="300"/><circle cx="61281" cy="30605" r="300"/><circle cx="60301" cy="30605" r="300"/><circle cx="59301" cy="30605" r="300"/><circle cx="58305" cy="30609" r="300"/><circle cx="57293" cy="30601" r="300"/><circle cx="56293" cy="30609" r="300"/><circle cx="55305" cy="30593" r="300"/><circle cx="54301" cy="30605" r="300"/><circle cx="53309" cy="30605" r="300"/><circle cx="52316" cy="30593" r="300"/><circle cx="51301" cy="30577" r="300"/><path d="M49993 30893v-600h600v600z" fill-rule="evenodd"/></g><g fill="#212d53" stroke="none" stroke-linecap="round" stroke-linejoin="round" stroke-width="0"><circle cx="65301" cy="30609" r="300"/><circle cx="64293" cy="30601" r="300"/><circle cx="63293" cy="30597" r="300"/><circle cx="62297" cy="30601" r="300"/><circle cx="61281" cy="30605" r="300"/><circle cx="60301" cy="30605" r="300"/><circle cx="59301" cy="30605" r="300"/><circle cx="58305" cy="30609" r="300"/><circle cx="57293" cy="30601" r="300"/><circle cx="56293" cy="30609" r="300"/><circle cx="55305" cy="30593" r="300"/><circle cx="54301" cy="30605" r="300"/><circle cx="53309" cy="30605" r="300"/><circle cx="52316" cy="30593" r="300"/><circle cx="51301" cy="30577" r="300"/><path d="M49993 30893v-600h600v600z" fill-rule="evenodd"/><circle cx="65301" cy="30609" r="68.898"/><circle cx="64293" cy="30601" r="68.898"/><circle cx="63293" cy="30597" r="68.898"/><circle cx="62297" cy="30601" r="68.898"/><circle cx="61281" cy="30605" r="68.898"/><circle cx="60301" cy="30605" r="68.898"/><circle cx="59301" cy="30605" r="68.898"/><circle cx="58305" cy="30609" r="68.898"/><circle cx="57293" cy="30601" r="68.898"/><circle cx="56293" cy="30609" r="68.898"/><circle cx="55305" cy="30593" r="68.898"/><circle cx="54301" cy="30605" r="68.898"/><circle cx="53309" cy="30605" r="68.898"/><circle cx="52316" cy="30593" r="68.898"/><circle cx="51301" cy="30577" r="68.898"/><circle cx="50293" cy="30593" r="68.898"/></g><g fill="#b5ae30" mask="url(#c)" stroke="none" stroke-linecap="round" stroke-linejoin="round" stroke-width="0"><circle cx="65301" cy="30609" r="300"/><circle cx="64293" cy="30601" r="300"/><circle cx="63293" cy="30597" r="300"/><circle cx="62297" cy="30601" r="300"/><circle cx="61281" cy="30605" r="300"/><circle cx="60301" cy="30605" r="300"/><circle cx="59301" cy="30605" r="300"/><circle cx="58305" cy="30609" r="300"/><circle cx="57293" cy="30601" r="300"/><circle cx="56293" cy="30609" r="300"/><circle cx="55305" cy="30593" r="300"/><circle cx="54301" cy="30605" r="300"/><circle cx="53309" cy="30605" r="300"/><circle cx="52316" cy="30593" r="300"/><circle cx="51301" cy="30577" r="300"/><path d="M49993 30893v-600h600v600z" fill-rule="evenodd"/><circle cx="65301" cy="30609" r="68.898"/><circle cx="64293" cy="30601" r="68.898"/><circle cx="63293" cy="30597" r="68.898"/><circle cx="62297" cy="30601" r="68.898"/><circle cx="61281" cy="30605" r="68.898"/><circle cx="60301" cy="30605" r="68.898"/><circle cx="59301" cy="30605" r="68.898"/><circle cx="58305" cy="30609" r="68.898"/><circle cx="57293" cy="30601" r="68.898"/><circle cx="56293" cy="30609" r="68.898"/><circle cx="55305" cy="30593" r="68.898"/><circle cx="54301" cy="30605" r="68.898"/><circle cx="53309" cy="30605" r="68.898"/><circle cx="52316" cy="30593" r="68.898"/><circle cx="51301" cy="30577" r="68.898"/><circle cx="50293" cy="30593" r="68.898"/></g><defs><mask id="c"><g stroke="#fff" stroke-linecap="round" stroke-linejoin="round" fill="#fff" stroke-width="0"><circle cx="65301" cy="30609" r="300"/><circle cx="64293" cy="30601" r="300"/><circle cx="63293" cy="30597" r="300"/><circle cx="62297" cy="30601" r="300"/><circle cx="61281" cy="30605" r="300"/><circle cx="60301" cy="30605" r="300"/><circle cx="59301" cy="30605" r="300"/><circle cx="58305" cy="30609" r="300"/><circle cx="57293" cy="30601" r="300"/><circle cx="56293" cy="30609" r="300"/><circle cx="55305" cy="30593" r="300"/><circle cx="54301" cy="30605" r="300"/><circle cx="53309" cy="30605" r="300"/><circle cx="52316" cy="30593" r="300"/><circle cx="51301" cy="30577" r="300"/><g><path d="M49993 30893v-600h600v600z" fill-rule="evenodd"/></g></g></mask></defs><defs><mask id="d"><g stroke="#000" stroke-linecap="round" stroke-linejoin="round" stroke-width="0"><circle cx="65301" cy="30609" r="300"/><circle cx="64293" cy="30601" r="300"/><circle cx="63293" cy="30597" r="300"/><circle cx="62297" cy="30601" r="300"/><circle cx="61281" cy="30605" r="300"/><circle cx="60301" cy="30605" r="300"/><circle cx="59301" cy="30605" r="300"/><circle cx="58305" cy="30609" r="300"/><circle cx="57293" cy="30601" r="300"/><circle cx="56293" cy="30609" r="300"/><circle cx="55305" cy="30593" r="300"/><circle cx="54301" cy="30605" r="300"/><circle cx="53309" cy="30605" r="300"/><circle cx="52316" cy="30593" r="300"/><circle cx="51301" cy="30577" r="300"/><g><path d="M49993 30893v-600h600v600z" fill-rule="evenodd"/></g></g><path fill="#fff" d="M35816 16131h33484v25216H35816z"/></mask></defs><g fill="#f0f0f0" fill-opacity="0" mask="url(#d)" stroke="#f0f0f0" stroke-linecap="round" stroke-linejoin="round"><g stroke-width="147.64"><path d="M67983 40541v337M67983 40710h-590l84 56 56 56 28 56M67589 40035h394M67365 40175l421 141v-366M67758 39725v-449M67983 38994h-590v-140l28-85 56-56 56-28 113-28h84l113 28 56 28 56 56 28 85v140M67393 38460v-394l590 253M65726 40541v337M65726 40710h-591l85 56 56 56 28 56M65135 40344v-365l225 196v-84l28-56 28-28 57-28h140l56 28 29 28 28 56v169l-28 56-29 28M65501 39725v-449M65726 38994h-591v-140l28-85 57-56 56-28 112-28h85l112 28 56 28 57 56 28 85v140M65135 38151v112l28 56 28 29 85 56 112 28h225l56-28 29-28 28-57v-112l-28-56-29-28-56-29h-140l-57 29-28 28-28 56v112l28 57 28 28 57 28M56277 40372v-112l-28-56-28-29-85-56-112-28h-225l-56 28-29 28-28 57v112l28 56 29 28 56 29h140l57-29 28-28 28-56v-112l-28-57-28-28-57-28M56052 39838v-450M56277 39107h-591v-141l28-84 57-56 56-29 112-28h85l112 28 57 29 56 56 28 84v141M55743 38544l-29-28-28-56v-141l28-56 29-28 56-28h56l84 28 338 337v-365M63259 40541v337M63259 40710h-591l85 56 56 56 28 56M62724 40316l-28-28-28-56v-141l28-56 28-28 57-28h56l84 28 338 337v-365M63034 39725v-449M63259 38994h-591v-140l28-85 57-56 56-28 112-28h85l112 28 56 28 57 56 28 85v140M62668 38123v281l281 28-28-28-28-56v-141l28-56 28-28 57-29h140l57 29 28 28 28 56v141l-28 56-28 28M53577 40316l-28 56-28 28-56 29h-28l-57-29-28-28-28-56v-112l28-57 28-28 57-28h28l56 28 28 28 28 57v112l28 56 28 28 57 29h112l56-29 29-28 28-56v-112l-28-57-29-28-56-28h-112l-57 28-28 28-28 57M53690 39838v-450M53915 39107h-591v-141l28-84 56-56 57-29 112-28h85l112 28 56 29 57 56 28 84v141M53915 38207v337M53915 38376h-591l84 56 57 56 28 56M50962 40457v-394l590 253M51328 39838v-450M51552 39107h-590v-141l28-84 56-56 57-29 112-28h84l113 28 56 29 56 56 28 84v141M50962 38404v-56l28-57 28-28 56-28 113-28h141l112 28 56 28 28 28 28 57v56l-28 56-28 28-56 28-112 28h-141l-113-28-56-28-28-28-28-56M58534 40541v337M58534 40710h-590l84 56 56 56 29 56M57944 40175v-56l28-56 28-28 56-28 113-28h140l113 28 56 28 28 28 28 56v56l-28 57-28 28-56 28-113 28h-140l-113-28-56-28-28-28-28-57M58309 39725v-449M58534 38994h-590v-140l28-85 56-56 56-28 113-28h84l113 28 56 28 56 56 28 85v140M57944 38460v-366l225 197v-84l28-56 28-28 56-29h141l56 29 28 28 28 56v169l-28 56-28 28M60897 40541v337M60897 40710h-591l84 56 57 56 28 56M60897 39979v337M60897 40147h-591l84 57 57 56 28 56M60672 39725v-449M60897 38994h-591v-140l28-85 56-56 57-28 112-28h84l113 28 56 28 56 56 29 85v140M60503 38151h394M60278 38291l422 141v-366M48889 40147v113l28 56 28 28 84 56 113 29h225l56-29 28-28 28-56v-112l-28-57-28-28-56-28h-141l-56 28-28 28-28 57v112l28 56 28 28 56 29M49254 39838v-450M49170 39107v-197M49479 38826v281h-590v-281M49479 38572h-590l590-337h-590M46526 40119v281l282 29-28-29-29-56v-140l29-57 28-28 56-28h141l56 28 28 28 28 57v140l-28 56-28 29M46892 39838v-450M47117 38769l-281 197M47117 39107h-591v-225l29-56 28-29 56-28h84l57 28 28 29 28 56v225M46526 38572l591-140-422-113 422-112-591-141M44361 40147h394M44136 40288l422 141v-366M44530 39838v-450M44755 38769l-281 197M44755 39107h-591v-225l28-56 29-29 56-28h84l56 28 29 29 28 56v225M44727 38544l28-84v-141l-28-56-28-28-57-28h-56l-56 28-28 28-28 56-28 113-29 56-28 28-56 28h-56l-56-28-29-28-28-56v-141l28-84M41907 40457v-366l225 197v-84l28-57 28-28 56-28h141l56 28 28 28 28 57v168l-28 57-28 28M42272 39838v-450M41907 39191l590-197-590-197M42469 38376l28 56v112l-28 57-56 28h-225l-56-28-28-57v-112l28-56 56-28h56l57 281M42469 37869l28 57v112l-28 56-56 29h-225l-56-29-28-56v-112l28-57 56-28h56l57 282M39601 40429l-28-29-28-56v-140l28-57 28-28 56-28h56l85 28 337 338v-366M39910 39838v-450M39545 39191l590-197-590-197M40107 38348l28 56v112l-28 56-28 29-56 28h-169l-56-28-28-29-29-56v-112l29-56M40107 37841l28 57v112l-28 56-28 28-56 29h-169l-56-29-28-28-29-56v-112l29-57M37773 40091v338M37773 40260h-591l85 56 56 56 28 57M37548 39838v-450M37182 39191l591-197-591-197M37745 38629l28-57v-112l-28-56-56-28h-29l-56 28-28 56v84l-28 57-56 28h-28l-57-28-28-57v-84l28-56M37745 38151l28-57v-112l-28-56-56-28h-29l-56 28-28 56v84l-28 57-56 28h-28l-57-28-28-57v-84l28-56" fill="none"/></g><g stroke-width="62.992" fill="none"><path d="M64903 30604v984M65690 31588h-787M65690 30604v984M68446 17415v14173M68446 31588h-2756M64903 31588h-213M63903 31588h-213M62903 31588h-213M61903 31588h-213M60903 31588h-213M59903 31588h-213M58903 31588h-213M57903 31588h-213M56903 31588h-213M55903 31588h-213M54903 31588h-213M53903 31588h-213M52903 31588h-213M51903 31588h-213M50903 31588h-213M49903 31588H36950M36950 31588V17415M36950 17415h31496"/><circle cx="37935" cy="18400" r="492.13"/><path d="M66517 29108v209M66871 20092v8859M66517 19738v197"/><circle cx="67462" cy="18400" r="492.13"/><circle cx="67462" cy="30605" r="492.13"/><circle cx="37935" cy="30605" r="492.13"/><path d="M49903 30604v984M50690 30604v984M50903 30604v984M51690 30604v984M51903 30604v984M52690 30604v984M52903 30604v984M53690 30604v984M53903 30604v984M54690 30604v984M54903 30604v984M55690 30604v984M55903 30604v984M56690 30604v984M56903 30604v984M57690 30604v984M57903 30604v984M58690 30604v984M58903 30604v984M59690 30604v984M59903 30604v984M60690 30604v984M60903 30604v984M61690 30604v984M61903 30604v984M62690 30604v984M62903 30604v984M63690 30604v984M63903 30604v984M64690 30604v984M66359 19581H39037M66517 19935v-197M66714 19935h-197M66517 19935h-158M66871 20092v8859M66714 29108h-197M66517 29108h-158M66517 29108v209M66359 29474H39037M38879 29108v209M38879 29108h-197M38525 20092v8859M38879 19935h-197M38879 19738v197M50690 31588h-787M64690 31588h-787M51690 31588h-787M63690 31588h-787M52690 31588h-787M62690 31588h-787M53690 31588h-787M61690 31588h-787M54690 31588h-787M60690 31588h-787M55690 31588h-787M59690 31588h-787M56690 31588h-787M58690 31588h-787M57690 31588h-787M66359 19738H38879M66359 19935v-197M38682 19935v9173M66359 29317H38879M66359 29108v209M66714 19935v9173M65100 30604h-197M65690 30604h-197M50100 30604h-197M50690 30604h-197M51100 30604h-197M51690 30604h-197M52100 30604h-197M52690 30604h-197M53100 30604h-197M53690 30604h-197M54100 30604h-197M54690 30604h-197M55100 30604h-197M55690 30604h-197M56100 30604h-197M56690 30604h-197M57100 30604h-197M57690 30604h-197M58100 30604h-197M58690 30604h-197M59100 30604h-197M59690 30604h-197M60100 30604h-197M60690 30604h-197M61100 30604h-197M61690 30604h-197M62100 30604h-197M62690 30604h-197M63100 30604h-197M63690 30604h-197M64100 30604h-197M64690 30604h-197M39706 21549v5906M65493 21352H39903M65690 21549v5906M65493 27651H39903M65494 27652a196.85 196.85 0 0 0 196.9-196.9M65691 21550a196.85 196.85 0 0 0-196.9-196.8M39903 21353a196.85 196.85 0 0 0-196.8 196.8M39706 27455a196.85 196.85 0 0 0 196.8 196.9M63903 30605a393.75 393.75 0 0 0 787.5 0M62903 30605a393.75 393.75 0 0 0 787.5 0M61903 30605a393.75 393.75 0 0 0 787.5 0M60903 30605a393.75 393.75 0 0 0 787.5 0M59903 30605a393.75 393.75 0 0 0 787.5 0M58903 30605a393.75 393.75 0 0 0 787.5 0M57903 30605a393.75 393.75 0 0 0 787.5 0M56903 30605a393.75 393.75 0 0 0 787.5 0M55903 30605a393.75 393.75 0 0 0 787.5 0M54903 30605a393.75 393.75 0 0 0 787.5 0M53903 30605a393.75 393.75 0 0 0 787.5 0M52903 30605a393.75 393.75 0 0 0 787.5 0M51903 30605a393.75 393.75 0 0 0 787.5 0M50903 30605a393.75 393.75 0 0 0 787.5 0M49903 30605a393.75 393.75 0 0 0 787.5 0M64903 30605a393.75 393.75 0 0 0 787.5 0M66360 29475a157.48 157.48 0 0 0 157.5-157.5M66517 19739a157.48 157.48 0 0 0-157.5-157.5"/><path d="M64100 30605a196.85 196.85 0 0 0 393.7 0M63100 30605a196.85 196.85 0 0 0 393.7 0M62100 30605a196.85 196.85 0 0 0 393.7 0M61100 30605a196.85 196.85 0 0 0 393.7 0M60100 30605a196.85 196.85 0 0 0 393.7 0M59100 30605a196.85 196.85 0 0 0 393.7 0M58100 30605a196.85 196.85 0 0 0 393.7 0M57100 30605a196.85 196.85 0 0 0 393.7 0M56100 30605a196.85 196.85 0 0 0 393.7 0M55100 30605a196.85 196.85 0 0 0 393.7 0M54100 30605a196.85 196.85 0 0 0 393.7 0M53100 30605a196.85 196.85 0 0 0 393.7 0M52100 30605a196.85 196.85 0 0 0 393.7 0M51100 30605a196.85 196.85 0 0 0 393.7 0M50100 30605a196.85 196.85 0 0 0 393.7 0M66360 29475a157.48 157.48 0 0 0 157.5-157.5M66517 19739a157.48 157.48 0 0 0-157.5-157.5M64494 30605a196.85 196.85 0 0 0-393.7 0M63494 30605a196.85 196.85 0 0 0-393.7 0M62494 30605a196.85 196.85 0 0 0-393.7 0M61494 30605a196.85 196.85 0 0 0-393.7 0M60494 30605a196.85 196.85 0 0 0-393.7 0M59494 30605a196.85 196.85 0 0 0-393.7 0M58494 30605a196.85 196.85 0 0 0-393.7 0M57494 30605a196.85 196.85 0 0 0-393.7 0M56494 30605a196.85 196.85 0 0 0-393.7 0M55494 30605a196.85 196.85 0 0 0-393.7 0M54494 30605a196.85 196.85 0 0 0-393.7 0M53494 30605a196.85 196.85 0 0 0-393.7 0M52494 30605a196.85 196.85 0 0 0-393.7 0M51494 30605a196.85 196.85 0 0 0-393.7 0M50494 30605a196.85 196.85 0 0 0-393.7 0"/><path d="M64691 30605a393.75 393.75 0 0 0-787.5 0M63691 30605a393.75 393.75 0 0 0-787.5 0M62691 30605a393.75 393.75 0 0 0-787.5 0M61691 30605a393.75 393.75 0 0 0-787.5 0M60691 30605a393.75 393.75 0 0 0-787.5 0M59691 30605a393.75 393.75 0 0 0-787.5 0M58691 30605a393.75 393.75 0 0 0-787.5 0M57691 30605a393.75 393.75 0 0 0-787.5 0M56691 30605a393.75 393.75 0 0 0-787.5 0M55691 30605a393.75 393.75 0 0 0-787.5 0M54691 30605a393.75 393.75 0 0 0-787.5 0M53691 30605a393.75 393.75 0 0 0-787.5 0M52691 30605a393.75 393.75 0 0 0-787.5 0M51691 30605a393.75 393.75 0 0 0-787.5 0M50691 30605a393.75 393.75 0 0 0-787.5 0M65494 30605a196.85 196.85 0 0 0-393.7 0M66517 19739a157.48 157.48 0 0 0-157.5-157.5M66872 20093a157.48 157.48 0 0 0-157.5-157.5M66714 29109a157.48 157.48 0 0 0 157.5-157.5M66360 29475a157.48 157.48 0 0 0 157.5-157.5M38880 29317a157.48 157.48 0 0 0 157.5 157.5M38525 28951a157.48 157.48 0 0 0 157.5 157.5M38683 19935a157.48 157.48 0 0 0-157.5 157.5M39037 19581a157.48 157.48 0 0 0-157.5 157.5"/><path d="M65691 30605a393.75 393.75 0 0 0-787.5 0M65100 30605a196.85 196.85 0 0 0 393.7 0"/></g></g><g fill-opacity="0" stroke-linecap="round" stroke-linejoin="round" stroke-width="19.685" fill="none" stroke="#000"><path d="M69291 16141v25197M35826 16141h33465M35826 41338V16141M69291 41338H35826"/></g><defs><mask id="b"><path fill="#fff" d="M35816 16131h33484v25216H35816z"/><path stroke="#000" stroke-linecap="round" stroke-width="300" d="M65300 30608h0M64292 30600h0M63292 30596h0M62296 30600h0M61281 30604h0M60300 30604h0M59300 30604h0M58304 30608h0M57292 30600h0M56292 30608h0M55304 30592h0M54300 30604h0M53308 30604h0M52316 30592h0M51300 30577h0M50292 30592h0"/></mask></defs></g><g transform="translate(818 969) scale(393.7)" stroke="#000" stroke-width=".093"><path d="M33.7 36.8h47.1V.8H.8v36z" fill="#5f6d9a"/><path d="M71.8 36.8h-.54M69.26 36.8h-.54M66.72 36.8h-.54M64.18 36.8h-.54M61.64 36.8h-.54M59.1 36.8h-.54M56.56 36.8h-.54M54.02 36.8h-.54M51.48 36.8h-.54M48.94 36.8h-.54M46.4 36.8h-.54M43.86 36.8h-.54M41.32 36.8h-.54M38.78 36.8h-.54M36.24 36.8h-.54" fill="none"/><circle transform="scale(1 -1)" cx="3.3" cy="-3.3" r="1.25" fill="#1a1a1a"/><path d="M6.1 6.3a.4.4 0 0 0-.4.4M5.2 7.2a.4.4 0 0 0-.4.4M5.2 30.5a.4.4 0 0 1-.4-.4M6.1 31.43a.4.4 0 0 1-.4-.4M76.8 30.1a.4.4 0 0 1-.4.4M76.4 7.2a.4.4 0 0 1 .4.4" fill="none"/><circle transform="scale(1 -1)" cx="78.3" cy="-3.3" r="1.25" fill="#1a1a1a"/><circle transform="scale(1 -1)" cx="78.3" cy="-34.3" r="1.25" fill="#1a1a1a"/><circle transform="scale(1 -1)" cx="3.3" cy="-34.3" r="1.25" fill="#1a1a1a"/><path d="M75.5 31.43H6.1l-.045-.003-.044-.007-.043-.012-.042-.018-.039-.021-.036-.026-.034-.03-.03-.034-.026-.036-.021-.04-.018-.04-.012-.044-.007-.044-.003-.045v-.53h-.5l-.045-.003-.044-.007-.043-.012-.042-.018-.039-.021-.036-.026-.034-.03-.03-.034-.026-.036-.021-.04-.018-.04-.012-.044-.007-.044L4.8 30.1V7.6l.003-.045.007-.044.012-.043.018-.042.021-.039.026-.036.03-.034.034-.03.036-.026.04-.021.04-.018.044-.012.044-.007L5.2 7.2h.5v-.5l.003-.045.007-.044.012-.043.018-.042.021-.039.026-.036.03-.034.034-.03.036-.026.04-.021.04-.018.044-.012.044-.007L6.1 6.3h69.4c.22 0 .4.18.4.4v.5h.5l.045.003.044.007.043.012.042.018.039.021.036.026.034.03.03.034.026.036.021.04.018.04.012.044.007.044.003.045v22.5l-.003.045-.007.044-.012.043-.018.042-.021.039-.026.036-.03.034-.034.03-.036.026-.04.021-.04.018-.044.012-.044.007-.045.003h-.5v.53a.4.4 0 0 1-.4.4z" fill="#1a1a1a" fill-rule="evenodd"/><path d="M75.9 7.2h-.4M75.9 30.5h-.4M75.5 6.7H5.7M75.5 6.7v-.4M75.5 6.7h.4M75.5 7.2v-.5M5.2 7.2v23.3M75.5 31.03H5.7M75.5 30.5v.53M76.4 7.2v23.3M75.5 31.03h.4M75.5 31.03v.4" fill="none"/><path d="M71.8 34.3c0-1.333 2-1.333 2 0v2.5h-2z" fill="#b3b3b3" fill-rule="evenodd"/><path d="M73.3 34.3c0-.667-1-.667-1 0s1 .667 1 0z" fill-rule="evenodd"/><path d="M71.8 34.3a1 1 0 0 0 2 0M72.3 34.3h-.5M73.8 34.3h-.5" fill="none"/><path d="M73.3 26.8h-65a.5.5 0 0 1-.5-.5v-15a.5.5 0 0 1 .5-.5h65a.5.5 0 0 1 .5.5v15a.5.5 0 0 1-.5.5z" fill="#008200" fill-rule="evenodd"/><path d="M66.72 34.3c0-1.333 2-1.333 2 0v2.5h-2z" fill="#b3b3b3" fill-rule="evenodd"/><path d="M68.22 34.3c0-.667-1-.667-1 0s1 .667 1 0z" fill-rule="evenodd"/><path d="M66.72 34.3a1 1 0 0 0 2 0M67.22 34.3h-.5M68.72 34.3h-.5" fill="none"/><path d="M69.26 34.3c0-1.333 2-1.333 2 0v2.5h-2z" fill="#b3b3b3" fill-rule="evenodd"/><path d="M70.76 34.3c0-.667-1-.667-1 0s1 .667 1 0z" fill-rule="evenodd"/><path d="M69.26 34.3a1 1 0 0 0 2 0M69.76 34.3h-.5M71.26 34.3h-.5" fill="none"/><path d="M64.18 34.3c0-1.333 2-1.333 2 0v2.5h-2z" fill="#b3b3b3" fill-rule="evenodd"/><path d="M65.68 34.3c0-.667-1-.667-1 0s1 .667 1 0z" fill-rule="evenodd"/><path d="M64.18 34.3a1 1 0 0 0 2 0M64.68 34.3h-.5M66.18 34.3h-.5" fill="none"/><path d="M61.64 34.3c0-1.333 2-1.333 2 0v2.5h-2z" fill="#b3b3b3" fill-rule="evenodd"/><path d="M63.14 34.3c0-.667-1-.667-1 0s1 .667 1 0z" fill-rule="evenodd"/><path d="M61.64 34.3a1 1 0 0 0 2 0M62.14 34.3h-.5M63.64 34.3h-.5" fill="none"/><path d="M56.56 34.3c0-1.333 2-1.333 2 0v2.5h-2z" fill="#b3b3b3" fill-rule="evenodd"/><path d="M58.06 34.3c0-.667-1-.667-1 0s1 .667 1 0z" fill-rule="evenodd"/><path d="M56.56 34.3a1 1 0 0 0 2 0M57.06 34.3h-.5M58.56 34.3h-.5" fill="none"/><path d="M59.1 34.3c0-1.333 2-1.333 2 0v2.5h-2z" fill="#b3b3b3" fill-rule="evenodd"/><path d="M60.6 34.3c0-.667-1-.667-1 0s1 .667 1 0z" fill-rule="evenodd"/><path d="M59.1 34.3a1 1 0 0 0 2 0M59.6 34.3h-.5M61.1 34.3h-.5" fill="none"/><path d="M54.02 34.3c0-1.333 2-1.333 2 0v2.5h-2z" fill="#b3b3b3" fill-rule="evenodd"/><path d="M55.52 34.3c0-.667-1-.667-1 0s1 .667 1 0z" fill-rule="evenodd"/><path d="M54.02 34.3a1 1 0 0 0 2 0M54.52 34.3h-.5M56.02 34.3h-.5" fill="none"/><path d="M51.48 34.3c0-1.333 2-1.333 2 0v2.5h-2z" fill="#b3b3b3" fill-rule="evenodd"/><path d="M52.98 34.3c0-.667-1-.667-1 0s1 .667 1 0z" fill-rule="evenodd"/><path d="M51.48 34.3a1 1 0 0 0 2 0M51.98 34.3h-.5M53.48 34.3h-.5" fill="none"/><path d="M41.32 34.3c0-1.333 2-1.333 2 0v2.5h-2z" fill="#b3b3b3" fill-rule="evenodd"/><path d="M42.82 34.3c0-.667-1-.667-1 0s1 .667 1 0z" fill-rule="evenodd"/><path d="M41.32 34.3a1 1 0 0 0 2 0M41.82 34.3h-.5M43.32 34.3h-.5" fill="none"/><path d="M43.86 34.3c0-1.333 2-1.333 2 0v2.5h-2z" fill="#b3b3b3" fill-rule="evenodd"/><path d="M45.36 34.3c0-.667-1-.667-1 0s1 .667 1 0z" fill="#1a1a1a" fill-rule="evenodd"/><path d="M43.86 34.3a1 1 0 0 0 2 0M44.36 34.3h-.5M45.86 34.3h-.5" fill="none"/><path d="M46.4 34.3c0-1.333 2-1.333 2 0v2.5h-2z" fill="#b3b3b3" fill-rule="evenodd"/><path d="M47.9 34.3c0-.667-1-.667-1 0s1 .667 1 0z" fill-rule="evenodd"/><path d="M46.4 34.3a1 1 0 0 0 2 0M46.9 34.3h-.5M48.4 34.3h-.5" fill="none"/><path d="M48.94 34.3c0-1.333 2-1.333 2 0v2.5h-2z" fill="#b3b3b3" fill-rule="evenodd"/><path d="M50.44 34.3c0-.667-1-.667-1 0s1 .667 1 0z" fill-rule="evenodd"/><path d="M48.94 34.3a1 1 0 0 0 2 0M49.44 34.3h-.5M50.94 34.3h-.5" fill="none"/><path d="M33.7 34.3c0-1.333 2-1.333 2 0v2.5h-2z" fill="#b3b3b3" fill-rule="evenodd"/><path d="M35.2 34.3c0-.667-1-.667-1 0s1 .667 1 0z" fill="#1a1a1a" fill-rule="evenodd"/><path d="M33.7 34.3a1 1 0 0 0 2 0M34.2 34.3h-.5M35.7 34.3h-.5" fill="none"/><path d="M36.24 34.3c0-1.333 2-1.333 2 0v2.5h-2z" fill="#b3b3b3" fill-rule="evenodd"/><path d="M37.74 34.3c0-.667-1-.667-1 0s1 .667 1 0z" fill-rule="evenodd"/><path d="M36.24 34.3a1 1 0 0 0 2 0M36.74 34.3h-.5M38.24 34.3h-.5" fill="none"/><path d="M38.78 34.3c0-1.333 2-1.333 2 0v2.5h-2z" fill="#b3b3b3" fill-rule="evenodd"/><path d="M40.28 34.3c0-.667-1-.667-1 0s1 .667 1 0z" fill-rule="evenodd"/><path d="M38.78 34.3a1 1 0 0 0 2 0M39.28 34.3h-.5M40.78 34.3h-.5" fill="none"/></g></svg>