<svg width="315" height="245" viewBox="0 0 25366 19734" xmlns="http://www.w3.org/2000/svg" xmlns:xlink="http://www.w3.org/1999/xlink"><g clip-path="url(#a)" mask="url(#b)" transform="translate(-44796 -17904)"><defs><clipPath id="a"><path d="M44800 17900v19700h25300V17900H44800" fill-rule="evenodd"/></clipPath></defs><g fill="#313d63" stroke="#313d63"><path d="M44800 17900v19700h25300V17900H44800" fill-rule="evenodd"/><g fill-opacity="0" stroke-linecap="round" stroke-linejoin="round" stroke-width="19.685" fill="none" stroke="#000"><path d="M70100 17900H44800M70100 37600V17900M44800 37600h25300M44800 17900v19700"/></g></g><g stroke-linecap="round" stroke-linejoin="round" stroke-width="0" stroke="none" fill="#9c6b28"><circle cx="49454" cy="20953" r="300"/><circle cx="49498" cy="30957" r="300"/><circle cx="46061" cy="21406" r="300"/><circle cx="46104" cy="30547" r="300"/><circle cx="48482" cy="32732" r="300"/><circle cx="47096" cy="19244" r="300"/><path d="M47428 33024h-600v-600h600z" fill-rule="evenodd"/><g><circle cx="61532" cy="26231" r="300"/><circle cx="60532" cy="26239" r="300"/><circle cx="59472" cy="26239" r="300"/></g><path d="M58184 26550v-600h600v600z" fill-rule="evenodd"/></g><g fill="#212d53" stroke="none" stroke-linecap="round" stroke-linejoin="round" stroke-width="0"><circle cx="49454" cy="20953" r="300"/><circle cx="49498" cy="30957" r="300"/><circle cx="46061" cy="21406" r="300"/><circle cx="46104" cy="30547" r="300"/><circle cx="48482" cy="32732" r="300"/><circle cx="47096" cy="19244" r="300"/><path d="M47428 33024h-600v-600h600z" fill-rule="evenodd"/><circle cx="61532" cy="26231" r="300"/><circle cx="60532" cy="26239" r="300"/><circle cx="59472" cy="26239" r="300"/><path d="M58184 26550v-600h600v600z" fill-rule="evenodd"/><circle cx="49454" cy="20953" r="68.898"/><circle cx="49498" cy="30957" r="68.898"/><circle cx="46061" cy="21406" r="68.898"/><circle cx="46104" cy="30547" r="68.898"/><circle cx="48482" cy="32732" r="68.898"/><circle cx="47096" cy="19244" r="68.898"/><circle cx="47128" cy="32724" r="68.898"/><circle cx="61532" cy="26231" r="68.898"/><circle cx="60532" cy="26239" r="68.898"/><circle cx="59472" cy="26239" r="68.898"/><circle cx="58484" cy="26250" r="68.898"/></g><g fill="#b5ae30" mask="url(#c)" stroke="none" stroke-linecap="round" stroke-linejoin="round" stroke-width="0"><circle cx="49454" cy="20953" r="300"/><circle cx="49498" cy="30957" r="300"/><circle cx="46061" cy="21406" r="300"/><circle cx="46104" cy="30547" r="300"/><circle cx="48482" cy="32732" r="300"/><circle cx="47096" cy="19244" r="300"/><path d="M47428 33024h-600v-600h600z" fill-rule="evenodd"/><circle cx="61532" cy="26231" r="300"/><circle cx="60532" cy="26239" r="300"/><circle cx="59472" cy="26239" r="300"/><path d="M58184 26550v-600h600v600z" fill-rule="evenodd"/><circle cx="49454" cy="20953" r="68.898"/><circle cx="49498" cy="30957" r="68.898"/><circle cx="46061" cy="21406" r="68.898"/><circle cx="46104" cy="30547" r="68.898"/><circle cx="48482" cy="32732" r="68.898"/><circle cx="47096" cy="19244" r="68.898"/><circle cx="47128" cy="32724" r="68.898"/><circle cx="61532" cy="26231" r="68.898"/><circle cx="60532" cy="26239" r="68.898"/><circle cx="59472" cy="26239" r="68.898"/><circle cx="58484" cy="26250" r="68.898"/></g><defs><mask id="c"><g stroke="#fff" stroke-linecap="round" stroke-linejoin="round" fill="#fff" stroke-width="0"><circle cx="49454" cy="20953" r="300"/><circle cx="49498" cy="30957" r="300"/><circle cx="46061" cy="21406" r="300"/><circle cx="46104" cy="30547" r="300"/><circle cx="48482" cy="32732" r="300"/><circle cx="47096" cy="19244" r="300"/><g><path d="M47428 33024h-600v-600h600z" fill-rule="evenodd"/></g><g><circle cx="61532" cy="26231" r="300"/><circle cx="60532" cy="26239" r="300"/><circle cx="59472" cy="26239" r="300"/></g><g><path d="M58184 26550v-600h600v600z" fill-rule="evenodd"/></g></g></mask></defs><defs><mask id="d"><g stroke="#000" stroke-linecap="round" stroke-linejoin="round" stroke-width="0"><circle cx="49454" cy="20953" r="300"/><circle cx="49498" cy="30957" r="300"/><circle cx="46061" cy="21406" r="300"/><circle cx="46104" cy="30547" r="300"/><circle cx="48482" cy="32732" r="300"/><circle cx="47096" cy="19244" r="300"/><g><path d="M47428 33024h-600v-600h600z" fill-rule="evenodd"/></g><g><circle cx="61532" cy="26231" r="300"/><circle cx="60532" cy="26239" r="300"/><circle cx="59472" cy="26239" r="300"/></g><g><path d="M58184 26550v-600h600v600z" fill-rule="evenodd"/></g></g><path fill="#fff" d="M44501 9901h25608v27708H44501z"/></mask></defs><g fill="#f0f0f0" fill-opacity="0" mask="url(#d)" stroke="#f0f0f0" stroke-linecap="round" stroke-linejoin="round"><g stroke-width="147.64"><path d="M62873 37052h394M62648 37193l422 141v-366M63042 36743v-450M62704 35703l-28 56v84l28 85 56 56 57 28 112 28h85l112-28 56-28 57-56 28-85v-56l-28-84-29-28h-196v112M63267 35421h-591l591-337h-591M63267 34803h-591v-141l28-84 56-56 57-29 112-28h85l112 28 56 29 57 56 28 84v141M59876 37334v-366l225 197v-84l28-57 28-28 57-28h140l56 28 29 28 28 57v168l-28 57-29 28M60242 36715v-450M60157 35984v-197M60467 35703v281h-591v-281M60410 35112l29 28 28 85v56l-28 84-57 56-56 29-112 28h-85l-112-28-57-29-56-56-28-84v-56l28-85 28-28M60467 34859h-591M60157 34859v-337M60467 34522h-591M57132 37390l-28-28-28-56v-141l28-56 28-28 57-29h56l84 29 338 337v-366M57442 36799v-450M57076 36153v-338M57667 35984h-591M57667 35281l-282 197M57667 35618h-591v-225l28-56 28-28 57-28h84l56 28 28 28 28 56v225M57667 35028h-591M57104 34437l-28 56v85l28 84 56 56 57 29 112 28h85l112-28 56-29 57-56 28-84v-56l-28-85-29-28h-196v113M54867 36940v337M54867 37109h-591l84 56 57 56 28 56M54642 36687v-450M54276 36040l591-197-591-197M54810 35112l29 28 28 85v56l-28 84-57 56-56 29-112 28h-85l-112-28-57-29-56-56-28-84v-56l28-85 28-28M54810 34522l29 28 28 84v56l-28 85-57 56-56 28-112 28h-85l-112-28-57-28-56-56-28-85v-56l28-84 28-28" fill="none"/></g><g stroke-width="62.992" fill="none"><path d="M47165 31172h1222M47165 20806v10366M48387 20806h-1222M48387 31172V20806M45944 32921h3730M45944 18958v13963M49674 18958h-3730M49674 32921V18958"/><circle cx="54905" cy="22779" r="3285.4"/><path d="M51035 18783v8181M68983 18783H51035M68983 26964v-8181M51035 26964h17948"/><circle cx="65020" cy="22779" r="3208.3"/></g></g><g fill-opacity="0" stroke-linecap="round" stroke-linejoin="round" stroke-width="19.685" fill="none" stroke="#000"><path d="M70100 17900H44800M70100 37600V17900M44800 37600h25300M44800 17900v19700"/></g><defs><mask id="b"><path fill="#fff" d="M44501 9901h25608v27708H44501z"/><path stroke="#000" stroke-linecap="round" stroke-width="300" d="M49454 20952h0M49496.5 30955.5h0M46060 21404h0M46103 30547h0M48480.5 32731.5h0M47096 19244h0M47127.5 32724.5h0M61531 26230h0M60531 26238h0M59472 26238h0M58484 26250h0"/></mask></defs></g><g stroke="#000" stroke-width=".093"><path d="M4769.934 1810.24v-710.314H1718.759v.63h-295.271l-.004-.63h-196.85v13779.5h3543.3V1592.05" fill="#b3b3b3" fill-rule="evenodd" stroke-width="36.6141"/><path d="M3588.834 2871.26h-1181.1v10236.2h1181.1zM4573.084 14485.529v196.85h-196.85c-.01-108.717 88.118-196.858 196.834-196.866z" fill="#1a1a1a" fill-rule="evenodd" stroke-width="36.6141"/><path d="M4573.084 1493.31v-196.85" fill="none" stroke-width="36.6141"/><path d="M4573.084 1296.46h-196.85c.01 108.705 88.13 196.823 196.834 196.835l.015.017V1304.34z" fill="#1a1a1a" fill-rule="evenodd" stroke-width="36.6141"/><path d="M2702.89 7596.842a78.74 78.74 0 0 0 59.056-76.24" fill="none" stroke-width="36.6141"/><path d="M2998.166 2221.656c445.865-.32 445.865-669.645 0-669.29v.017c-442.992 3.189-442.992 666.101 0 669.29zM2998.166 14426.474c445.865-.32 445.865-669.645 0-669.29v.017c-442.992 3.19-442.992 666.101 0 669.29z" fill="#1a1a1a" fill-rule="evenodd" stroke-width="36.6141"/><path d="M1718.64 1157.485v139.511M1620.216 1157.878v139.2M4573.084 1493.31h139.2M4376.234 1099.61v57.666M4573.084 14485.529h139.2M4376.234 14821.575v-139.2M1620.216 14821.575v-139.2M1423.366 14485.529h-139.193M1423.366 1494.098h-139.193M1226.516 14682.379h196.85" fill="none" stroke-width="36.6141"/><path d="M1423.366 14485.529c108.724 0 196.857 88.141 196.85 196.866h-196.85v-196.85z" fill="#1a1a1a" fill-rule="evenodd" stroke-width="36.6141"/><path d="M1620.216 14879.229v-57.665M1284.193 14485.529h-57.662M1226.516 14674.505h196.85M1226.516 1099.61v.63M1226.516 14674.505v7.874M1284.193 1494.098h-57.662" fill="none" stroke-width="36.6141"/><path d="M1620.216 1297.248c.004 108.72-88.13 196.858-196.85 196.858v-197.5h196.85z" fill="#1a1a1a" fill-rule="evenodd" stroke-width="36.6141"/><path d="M4376.234 14879.229v-57.665M4769.934 14682.379h-196.85M4712.06 14485.529h57.661M4769.934 14674.505h-196.85M4376.234 1157.485v139.2M4769.934 1296.46h-196.85M4769.934 1304.335h-196.85M4769.934 1304.335v-7.874M1226.516 1297.248h196.85M1620.216 1100.398v57.665M1226.516 1305.122h196.85M1718.64 1099.61v57.666M1423.366 1100.398v-.63M1226.516 1304.335h196.85M1718.64 1296.46h2209.09M1620.216 1297.248h98.425M4573.084 1810.24v-316.618M4573.084 1810.24v12675.564M1620.216 14682.379h2755.9M1423.366 14485.529V1494.216M1423.366 14879.229v-196.85M4573.084 14879.229v-196.85M4376.234 1296.46h-448.385M4573.084 1099.61v196.85M1423.366 1100.398v196.208M1718.64 1157.485h2209.09M1620.216 1157.878h98.425M4712.06 1493.31v316.618M4376.234 1157.485h-448.385M4712.06 1810.24v12675.564M4376.234 14821.575h-2755.9M1284.193 14485.529V1494.216" fill="none" stroke-width="36.6141"/></g><g transform="translate(6088 756) scale(393.7)"><defs><pattern id="g" width="2" height="2" patternTransform="scale(10)" patternUnits="userSpaceOnUse"><path d="M0 0h1v1H0zM1 1h1v1H1z"/></pattern><pattern id="h" width="2" height="2" patternTransform="scale(10)" patternUnits="userSpaceOnUse"><path d="M0 0h1v1H0zM1 1h1v1H1z"/></pattern><radialGradient id="f" cx="276.31" cy="-89.243" r="38.73" gradientUnits="userSpaceOnUse" xlink:href="#e"/><linearGradient id="e"><stop stop-color="#777" offset="0"/><stop stop-color="#b9b9b9" offset="1"/></linearGradient></defs><path d="M45.854 20.764V.454H.454v20.31z" fill="#073080" fill-rule="evenodd" stroke="#191919" stroke-width=".093"/><circle transform="scale(1 -1)" cx="26.799" cy="-19.044" r="1.087" fill="#ccc" stroke="#191919" stroke-width=".093"/><circle transform="scale(1 -1)" cx="24.369" cy="-19.044" r="1.087" fill="#ccc" stroke="#191919" stroke-width=".093"/><circle transform="scale(1 -1)" cx="21.939" cy="-19.044" r="1.087" fill="#ccc" stroke="#191919" stroke-width=".093"/><circle transform="scale(1 -1)" cx="19.509" cy="-19.044" r="1.087" fill="#ccc" stroke="#191919" stroke-width=".093"/><path d="M45.154 19.264c0 1.067-1.6 1.067-1.6 0s1.6-1.067 1.6 0zM45.154 1.954c0 1.067-1.6 1.067-1.6 0s1.6-1.067 1.6 0zM2.754 19.264c0 1.067-1.6 1.067-1.6 0s1.6-1.067 1.6 0zM2.754 1.954c0 1.067-1.6 1.067-1.6 0s1.6-1.067 1.6 0z" fill="#1a1a1a" fill-rule="evenodd" stroke="#191919" stroke-width=".093"/><path d="M18.809 19.044a.7.7 0 0 0 1.4 0M20.209 19.044a.7.7 0 0 0-1.4 0M21.239 19.044a.7.7 0 0 0 1.4 0M22.639 19.044a.7.7 0 0 0-1.4 0M23.669 19.044a.7.7 0 0 0 1.4 0M25.069 19.044a.7.7 0 0 0-1.4 0M26.099 19.044a.7.7 0 0 0 1.4 0M27.499 19.044a.7.7 0 0 0-1.4 0" fill="none" stroke="#191919" stroke-width=".093"/><circle transform="scale(1 -1)" cx="26.799" cy="-19.044" r=".336" fill="#ccc" stroke="#191919" stroke-width=".093"/><circle transform="scale(1 -1)" cx="24.369" cy="-19.044" r=".336" fill="none" stroke="#191919" stroke-width=".093"/><circle transform="scale(1 -1)" cx="21.939" cy="-19.044" r=".336" fill="none" stroke="#191919" stroke-width=".093"/><circle transform="scale(1 -1)" cx="19.509" cy="-19.044" r=".336" fill="none" stroke="#191919" stroke-width=".093"/><path d="M19.994.949c-2.987 0-2.987 4.48 0 4.48h6.32c2.987 0 2.987-4.48 0-4.48z" fill="#999" fill-rule="evenodd" stroke="#191919" stroke-width=".093"/><path d="M26.314 1.279h-6.32M26.314 5.099a1.91 1.91 0 0 0 0-3.82M19.994 5.099h6.32M19.994 1.279a1.91 1.91 0 0 0 0 3.82" fill="none" stroke="#191919" stroke-width=".093"/><path d="M26.314 4.799c2.147 0 2.147-3.22 0-3.22h-6.32c-2.147 0-2.147 3.22 0 3.22z" fill="#ccc" fill-rule="evenodd" stroke="#191919" stroke-width=".093"/><path d="M19.994 5.129a1.94 1.94 0 0 1 0-3.88M26.314 5.129h-6.32M26.314 1.249a1.94 1.94 0 0 1 0 3.88M19.994 1.249h6.32" fill="none" stroke="#191919" stroke-width=".093"/><path d="M19.994 4.499a1.31 1.31 0 0 1 0-2.62M26.314 4.499h-6.32M26.314 1.879a1.31 1.31 0 0 1 0 2.62M19.994 1.879h6.32" fill="none" stroke="#191919" stroke-width=".093"/><g transform="translate(-13.447 18.183) scale(.08503)"><circle cx="276.31" cy="-89.147" r="92.979" fill="#dcdcdc"/><circle cx="276.31" cy="-89.147" r="77.446" fill="#222"/><circle cx="276.31" cy="-89.147" r="59.733" fill="#777" fill-opacity=".992"/><circle cx="276.31" cy="-89.243" r="38.73" fill="url(#f)"/><circle cx="276.41" cy="-89.243" r="2.987" fill="#777" fill-opacity=".818"/><circle cx="276.31" cy="-89.147" r="59.733" fill="url(#g)" opacity=".397"/></g><g transform="translate(12.754 18.167) scale(.08503)"><circle cx="276.31" cy="-89.147" r="92.979" fill="#dcdcdc"/><circle cx="276.31" cy="-89.147" r="77.446" fill="#222"/><circle cx="276.31" cy="-89.147" r="59.733" fill="#777" fill-opacity=".992"/><circle cx="276.31" cy="-89.243" r="38.73" fill="url(#f)"/><circle cx="276.41" cy="-89.243" r="2.987" fill="#777" fill-opacity=".818"/><circle cx="276.31" cy="-89.147" r="59.733" fill="url(#h)" opacity=".397"/></g><path d="M2.977 17.18h1.74v.234h-.73v1.823h-.28v-1.823h-.73z" fill="#f9f9f9" stroke-width=".265" aria-label="T"/><text x="41.206" y="19.06" font-family="sans-serif" font-size="9.878" font-weight="bold" letter-spacing="0" stroke-width=".265" word-spacing="0" style="line-height:1.25" xml:space="preserve">               </text><path d="M42.084 18.542q.09.03.174.13.085.099.17.272l.283.563h-.299l-.263-.528q-.102-.207-.199-.274-.095-.068-.26-.068h-.303v.87h-.279v-2.058h.629q.353 0 .526.148.174.147.174.445 0 .194-.091.322-.09.128-.262.178zm-.697-.864v.73h.35q.2 0 .303-.092.103-.094.103-.274 0-.18-.103-.272-.102-.092-.303-.092z" fill="#f9f9f9" stroke-width=".265" aria-label="R"/><g fill="#f9f9f9" stroke-width=".265" aria-label="HC-SR04"><path d="M17.973 6.365h.244v.738h.885v-.738h.243v1.8h-.243v-.857h-.885v.858h-.244zM21.178 6.504v.257q-.123-.115-.263-.171-.139-.057-.295-.057-.309 0-.473.19-.164.187-.164.544 0 .356.164.545.164.188.473.188.156 0 .295-.056.14-.057.263-.172v.255q-.128.087-.271.13-.143.044-.302.044-.409 0-.644-.25-.235-.25-.235-.684 0-.434.235-.683.235-.251.644-.251.162 0 .304.043.144.042.269.128zM21.432 7.39h.65v.198h-.65zM23.524 6.424v.238q-.139-.066-.262-.099t-.237-.032q-.2 0-.308.077-.107.077-.107.22 0 .119.071.18.073.06.273.098l.147.03q.272.052.401.183.13.13.13.35 0 .261-.176.396-.174.136-.513.136-.128 0-.273-.03-.143-.028-.298-.085v-.25q.149.082.291.125.142.042.28.042.208 0 .322-.082.113-.082.113-.234 0-.133-.082-.208-.08-.074-.266-.112l-.149-.029q-.272-.054-.394-.17-.122-.115-.122-.322 0-.238.168-.376.169-.137.464-.137.127 0 .258.023t.269.068zM24.866 7.322q.078.026.152.113.075.087.15.239l.247.492h-.262l-.23-.462q-.09-.181-.174-.24-.083-.06-.228-.06h-.265v.762h-.244v-1.8h.55q.309 0 .46.128.153.13.153.39 0 .17-.08.282-.078.112-.229.156zm-.61-.757v.64h.306q.176 0 .265-.081.09-.082.09-.24 0-.158-.09-.238-.089-.08-.265-.08zM26.271 6.526q-.188 0-.283.185-.094.185-.094.556 0 .37.094.556.095.185.283.185.19 0 .283-.185.096-.186.096-.556 0-.371-.096-.556-.094-.185-.283-.185zm0-.193q.303 0 .462.24.16.238.16.694 0 .455-.16.695-.16.239-.462.239t-.463-.24q-.16-.24-.16-.694 0-.456.16-.694.16-.24.463-.24zM27.99 6.578l-.615.96h.615zm-.064-.213h.306V7.54h.257v.202h-.257v.425h-.242V7.74h-.813v-.235z"/></g><g fill="#f9f9f9" stroke-width=".265" aria-label="Vcc"><path d="M20.164 17.299l-1.286.49v-.18l1.083-.408-1.083-.408v-.181l1.286.49zM19.236 15.737h.148q-.037.067-.055.135-.019.067-.019.136 0 .154.098.24.098.085.274.085.177 0 .275-.085.097-.086.097-.24 0-.069-.018-.136-.019-.068-.056-.135h.147q.03.066.046.138.016.07.016.15 0 .218-.137.347t-.37.128q-.236 0-.371-.13t-.135-.355q0-.073.015-.143.015-.07.045-.135zM19.236 14.767h.148q-.037.067-.055.135-.019.067-.019.136 0 .154.098.24.098.085.274.085.177 0 .275-.085.097-.086.097-.24 0-.069-.018-.136-.019-.068-.056-.135h.147q.03.066.046.138.016.07.016.15 0 .218-.137.347t-.37.128q-.236 0-.371-.13t-.135-.355q0-.073.015-.143.015-.07.045-.135z"/></g><g fill="#f9f9f9" stroke-width=".265" aria-label="Trig"><path d="M21.269 17.781v-1.088h.146v.457h1.14v.175h-1.14v.456z"/><path d="M21.739 16.233q-.016.027-.022.059-.008.03-.008.068 0 .135.088.207.087.072.25.072h.508v.159h-.964v-.16h.15q-.088-.05-.13-.13-.043-.08-.043-.194l.002-.036.006-.044zM21.591 16.066v-.158h.965v.158zm-.376 0v-.158h.201v.158zM22.062 14.942q-.172 0-.267.071-.095.071-.095.2 0 .127.095.198.095.071.267.071.171 0 .266-.07.095-.072.095-.2t-.095-.199q-.095-.071-.266-.071zm.374-.158q.246 0 .366.109.12.11.12.335 0 .083-.013.158-.012.074-.037.143h-.155q.038-.07.056-.137.018-.068.018-.14 0-.155-.081-.232-.081-.078-.246-.078h-.078q.085.05.127.126.042.076.042.183 0 .178-.135.286t-.358.109q-.224 0-.36-.109t-.134-.286q0-.107.042-.183.042-.077.127-.126h-.146v-.158z"/></g><g fill="#f9f9f9" stroke-width=".265" aria-label="Ech"><path d="M23.757 17.672v-.813h.146v.639h.381v-.612h.147v.612h.465v-.655h.147v.829zM24.115 15.87h.148q-.037.067-.055.135-.019.067-.019.136 0 .154.098.24.098.085.274.085.177 0 .275-.085.097-.086.097-.24 0-.069-.018-.136-.019-.068-.056-.135h.147q.03.066.046.138.016.07.016.15 0 .218-.137.347-.137.128-.37.128-.236 0-.371-.13t-.135-.355q0-.073.015-.143.015-.07.045-.135zM24.461 14.793h.582v.158h-.577q-.137 0-.205.054-.068.053-.068.16 0 .128.082.202t.223.075h.545v.159h-1.34v-.16h.526q-.087-.056-.13-.133-.044-.077-.044-.178 0-.166.104-.252.102-.085.302-.085z"/></g><g fill="#f9f9f9" stroke-width=".265" aria-label="Gnd"><path d="M27.296 16.745h-.345v.284h-.143v-.456h.552q.071.1.108.222.036.121.036.26 0 .3-.175.471-.177.17-.491.17-.315 0-.491-.17-.177-.17-.177-.472 0-.126.031-.238.031-.114.092-.21h.185q-.082.097-.123.205-.042.109-.042.229 0 .236.132.354t.393.118q.26 0 .392-.118.131-.118.131-.354 0-.093-.015-.165-.016-.072-.05-.13zM26.897 15.46h.582v.158h-.577q-.137 0-.205.054-.068.053-.068.16 0 .128.082.202.082.075.223.075h.545v.159h-.964v-.16h.15q-.088-.056-.13-.133-.044-.077-.044-.178 0-.166.104-.252.102-.085.302-.085zM26.661 14.509h-.522v-.158h1.34v.158h-.145q.087.05.129.127.041.075.041.182 0 .175-.14.285-.139.11-.366.11-.228 0-.367-.11-.14-.11-.14-.285 0-.107.042-.182.042-.077.128-.127zm.337.54q.175 0 .275-.071.099-.073.099-.199 0-.125-.1-.198-.1-.072-.274-.072-.175 0-.274.072-.1.073-.1.198 0 .126.1.199.099.071.274.071z"/></g></g></svg>