<svg width="288" height="223" viewBox="0 0 23166 17918" xmlns="http://www.w3.org/2000/svg"><g fill="#313d63" stroke="#313d63"><path d="M42440 41830V23937h23150v17893H42440" fill-rule="evenodd" transform="matrix(1 0 0 1.0024 -42432 -24000)"/><g fill-opacity="0" stroke-linecap="round" stroke-linejoin="round" stroke-width="19.685" fill="none" stroke="#000"><path d="M65590 41830H42440M65590 23937v17893M42440 23937h23150M42440 41830V23937" transform="matrix(1 0 0 1.0024 -42432 -24000)"/></g></g><g stroke-linecap="round" stroke-linejoin="round" stroke-width="0" stroke="none" fill="#9c6b28"><g transform="matrix(1 0 0 1.0024 -42432 -24000)"><circle cx="56461" cy="26870" r="300"/><circle cx="56504" cy="36874" r="300"/><circle cx="53067" cy="27323" r="300"/><circle cx="53110" cy="36465" r="300"/><circle cx="55488" cy="38650" r="300"/><circle cx="54102" cy="25161" r="300"/></g><path d="M12002 15035.46h-600v-601.44h600z" fill-rule="evenodd"/><g transform="matrix(1 0 0 1.0024 -42432 -24000)"><circle cx="51626" cy="26882" r="300"/><circle cx="51669" cy="36886" r="300"/><circle cx="48232" cy="27335" r="300"/><circle cx="48276" cy="36476" r="300"/><circle cx="50654" cy="38661" r="300"/><circle cx="49268" cy="25173" r="300"/></g><path d="M7167 15047.49h-600v-601.44h600z" fill-rule="evenodd"/><g transform="matrix(1 0 0 1.0024 -42432 -24000)"><circle cx="46744" cy="26858" r="300"/><circle cx="46787" cy="36862" r="300"/><circle cx="43350" cy="27311" r="300"/><circle cx="43394" cy="36453" r="300"/><circle cx="45772" cy="38638" r="300"/><circle cx="44386" cy="25150" r="300"/></g><path d="M2285 15023.432h-600v-601.44h600z" fill-rule="evenodd"/><g transform="matrix(1 0 0 1.0024 -42432 -24000)"><circle cx="58012" cy="35591" r="334.65"/><circle cx="58012" cy="34591" r="334.65"/><path d="M57677 33925v-669.3h669.3v669.3z" fill-rule="evenodd"/></g></g><g transform="matrix(1 0 0 1.0024 -42432 -24000)" fill="#212d53" stroke="none" stroke-linecap="round" stroke-linejoin="round" stroke-width="0"><circle cx="56461" cy="26870" r="300"/><circle cx="56504" cy="36874" r="300"/><circle cx="53067" cy="27323" r="300"/><circle cx="53110" cy="36465" r="300"/><circle cx="55488" cy="38650" r="300"/><circle cx="54102" cy="25161" r="300"/><path d="M54434 38942h-600v-600h600z" fill-rule="evenodd"/><circle cx="51626" cy="26882" r="300"/><circle cx="51669" cy="36886" r="300"/><circle cx="48232" cy="27335" r="300"/><circle cx="48276" cy="36476" r="300"/><circle cx="50654" cy="38661" r="300"/><circle cx="49268" cy="25173" r="300"/><path d="M49599 38954h-600v-600h600z" fill-rule="evenodd"/><circle cx="46744" cy="26858" r="300"/><circle cx="46787" cy="36862" r="300"/><circle cx="43350" cy="27311" r="300"/><circle cx="43394" cy="36453" r="300"/><circle cx="45772" cy="38638" r="300"/><circle cx="44386" cy="25150" r="300"/><path d="M44717 38930h-600v-600h600z" fill-rule="evenodd"/><circle cx="58012" cy="35591" r="334.65"/><circle cx="58012" cy="34591" r="334.65"/><path d="M57677 33925v-669.3h669.3v669.3z" fill-rule="evenodd"/><circle cx="56461" cy="26870" r="68.898"/><circle cx="56504" cy="36874" r="68.898"/><circle cx="53067" cy="27323" r="68.898"/><circle cx="53110" cy="36465" r="68.898"/><circle cx="55488" cy="38650" r="68.898"/><circle cx="54102" cy="25161" r="68.898"/><circle cx="54134" cy="38642" r="68.898"/><circle cx="51626" cy="26882" r="68.898"/><circle cx="51669" cy="36886" r="68.898"/><circle cx="48232" cy="27335" r="68.898"/><circle cx="48276" cy="36476" r="68.898"/><circle cx="50654" cy="38661" r="68.898"/><circle cx="49268" cy="25173" r="68.898"/><circle cx="49299" cy="38654" r="68.898"/><circle cx="46744" cy="26858" r="68.898"/><circle cx="46787" cy="36862" r="68.898"/><circle cx="43350" cy="27311" r="68.898"/><circle cx="43394" cy="36453" r="68.898"/><circle cx="45772" cy="38638" r="68.898"/><circle cx="44386" cy="25150" r="68.898"/><circle cx="44417" cy="38630" r="68.898"/><circle cx="58012" cy="35591" r="68.898"/><circle cx="58012" cy="34591" r="68.898"/><circle cx="58012" cy="33591" r="68.898"/></g><g transform="matrix(1 0 0 1.0024 -42432 -24000)" fill="#b5ae30" mask="url(#pads-mask)" stroke="none" stroke-linecap="round" stroke-linejoin="round" stroke-width="0"><circle cx="56461" cy="26870" r="300"/><circle cx="56504" cy="36874" r="300"/><circle cx="53067" cy="27323" r="300"/><circle cx="53110" cy="36465" r="300"/><circle cx="55488" cy="38650" r="300"/><circle cx="54102" cy="25161" r="300"/><path d="M54434 38942h-600v-600h600z" fill-rule="evenodd"/><circle cx="51626" cy="26882" r="300"/><circle cx="51669" cy="36886" r="300"/><circle cx="48232" cy="27335" r="300"/><circle cx="48276" cy="36476" r="300"/><circle cx="50654" cy="38661" r="300"/><circle cx="49268" cy="25173" r="300"/><path d="M49599 38954h-600v-600h600z" fill-rule="evenodd"/><circle cx="46744" cy="26858" r="300"/><circle cx="46787" cy="36862" r="300"/><circle cx="43350" cy="27311" r="300"/><circle cx="43394" cy="36453" r="300"/><circle cx="45772" cy="38638" r="300"/><circle cx="44386" cy="25150" r="300"/><path d="M44717 38930h-600v-600h600z" fill-rule="evenodd"/><circle cx="58012" cy="35591" r="334.65"/><circle cx="58012" cy="34591" r="334.65"/><path d="M57677 33925v-669.3h669.3v669.3z" fill-rule="evenodd"/><circle cx="56461" cy="26870" r="68.898"/><circle cx="56504" cy="36874" r="68.898"/><circle cx="53067" cy="27323" r="68.898"/><circle cx="53110" cy="36465" r="68.898"/><circle cx="55488" cy="38650" r="68.898"/><circle cx="54102" cy="25161" r="68.898"/><circle cx="54134" cy="38642" r="68.898"/><circle cx="51626" cy="26882" r="68.898"/><circle cx="51669" cy="36886" r="68.898"/><circle cx="48232" cy="27335" r="68.898"/><circle cx="48276" cy="36476" r="68.898"/><circle cx="50654" cy="38661" r="68.898"/><circle cx="49268" cy="25173" r="68.898"/><circle cx="49299" cy="38654" r="68.898"/><circle cx="46744" cy="26858" r="68.898"/><circle cx="46787" cy="36862" r="68.898"/><circle cx="43350" cy="27311" r="68.898"/><circle cx="43394" cy="36453" r="68.898"/><circle cx="45772" cy="38638" r="68.898"/><circle cx="44386" cy="25150" r="68.898"/><circle cx="44417" cy="38630" r="68.898"/><circle cx="58012" cy="35591" r="68.898"/><circle cx="58012" cy="34591" r="68.898"/><circle cx="58012" cy="33591" r="68.898"/></g><path d="M10658 15913h-196M10462 16223v-592.39h281M10968 16223v-394.93M10968 15941l28-57.134 28-28.066 56-28.066h56M11558 16195l-56 28.065h-112l-57-28.065-28-57.135v-224.53l28-57.134 57-28.066h112l56 28.066 28 57.134v56.131l-281 56.132M12093 15828v592.39M12093 16195l-57 28.065h-112l-56-28.065-28-28.066-29-57.134v-168.4l29-57.134 28-28.066 56-28.066h112l57 28.066M12627 15828v394.93M12374 15828v309.73l28 57.135 56 28.065h85l56-28.065 28-28.066M13133 16195l-56 28.065h-113l-56-28.065-28-57.135v-224.53l28-57.134 56-28.066h113l56 28.066 28 57.134v56.131l-281 56.132M13414 15828v394.93M13414 15884l28-28.066 57-28.066h84l56 28.066 28 57.134v309.73M14202 16195l-57 28.065h-112l-56-28.065-28-28.066-29-57.134v-168.4l29-57.134 28-28.066 56-28.066h112l57 28.066M14399 15828l140 394.93M14680 15828l-141 394.93-56 140.33-28 29.068-56 28.066M5591.5 16094h281M5535.5 16262l197-591.39 196 591.39M6125.5 16262v-393.92M6125.5 15924l28-28.066 57-28.066h84l56 28.066 28 56.131v309.73M6378.5 15952l28-56.131 57-28.066h84l56 28.066 28 56.131v309.73M6913.5 15868v591.39M6913.5 15896l56-28.066h112l57 28.066 28 28.066 28 56.131v169.4l-28 56.131-28 28.066-57 28.066h-112l-56-28.066M7531.5 16262l-56-28.066-28-56.131v-507.19M7756.5 16262v-393.92M7756.5 15671l-28 28.065 28 28.066 28-28.066-28-28.065v56.131M7953.5 15868h225M8037.5 15671v507.19l29 56.131 56 28.066h56M8628.5 15868v393.92M8375.5 15868v309.73l28 56.131 56 28.066h85l56-28.066 28-28.066M9162.5 16262v-591.39M9162.5 16234l-56 28.066h-112l-57-28.066-28-28.066-28-56.131v-169.4l28-56.131 28-28.066 57-28.066h112l56 28.066M9669.5 16234l-57 28.066h-112l-56-28.066-29-56.131v-225.53l29-56.131 56-28.066h112l57 28.066 28 56.131v56.132l-282 56.132M1519.5 15651h112l57 28.065 56 56.132 28 113.27v197.46l-28 112.26-56 56.131-57 29.068h-112l-56-29.068-57-56.131-28-112.26v-197.46l28-113.27 57-56.132 56-28.065M1941.5 15848h225M2025.5 16243v-508.19l28-56.132 56-28.065h57M2278.5 15848h225M2363.5 16243v-508.19l28-56.132 56-28.065h56M2672.5 16214l56 29.068h113l56-29.068 28-56.131v-28.066l-28-56.132-56-28.066h-85l-56-28.066-28-57.134v-28.066l28-56.131 56-28.066h85l56 28.066M3403.5 16214l-56 29.068h-113l-56-29.068-28-56.131v-225.53l28-56.131 56-28.066h113l56 28.066 28 56.131v56.132l-281 57.134M3600.5 15848h225M3684.5 15651v507.19l28 56.131 57 29.068h56" stroke="#f0f0f0" stroke-linecap="round" stroke-linejoin="round" stroke-width="147.81" fill="none"/><g fill="none" fill-opacity="0" stroke="#f0f0f0" stroke-linecap="round" stroke-linejoin="round" stroke-width="62.992"><path d="M56680 38838V24875M56680 24875h-3730M52950 24875v13963M52950 38838h3730M55393 37089V26724M55393 26724h-1221M54172 26724v10365M54172 37089h1221M51846 38850V24887M51846 24887h-3730M48116 24887v13963M48116 38850h3730M50558 37101V26735M50558 26735h-1221M49337 26735v10366M49337 37101h1221M46964 38827V24863M46964 24863h-3730M43234 24863v13964M43234 38827h3730M45676 37077V26712M45676 26712h-1221M44455 26712v10365M44455 37077h1221" transform="matrix(1 0 0 1.0024 -42432 -24000)"/></g><g fill="none" fill-opacity="0" stroke="#f0f0f0" stroke-linecap="round" stroke-linejoin="round" stroke-width="47.244"><path d="M58011 33066h524M58535 33066v524M58535 34090v2024M57488 36114h1047M57488 34090v2024M57488 34090h1047" transform="matrix(1 0 0 1.0024 -42432 -24000)"/></g><g fill-opacity="0" stroke-linecap="round" stroke-linejoin="round" stroke-width="19.685" fill="none" stroke="#000"><path d="M65590 41830H42440M65590 23937v17893M42440 23937h23150M42440 41830V23937" transform="matrix(1 0 0 1.0024 -42432 -24000)"/></g><path d="M14140 1687V976.68h-3051.2v.63h-295.27v-.63h-196.85v13780h3543.3v-13287" fill="#b3b3b3" fill-rule="evenodd" stroke="#000" stroke-width="36.458"/><path d="M12959 2748.4h-1181.1v10236H12959zM13943 14363v196.85h-196.85c0-108.72 88.117-196.86 196.84-196.87z" fill="#1a1a1a" fill-rule="evenodd" stroke="#000" stroke-width="36.458"/><path d="M13943 1370.4v-196.85" fill="none" stroke="#000" stroke-width="36.458"/><path d="M13943 1173.6h-196.85c0 108.7 88.13 196.82 196.84 196.83l.01.017v-188.97zM12368 2098.8c445.88-.32 445.88-669.63 0-669.31v.017c-442.98 3.189-442.98 666.09 0 669.27zM12368 14303c445.88-.32 445.88-669.63 0-669.31v.02c-442.98 3.189-442.98 666.09 0 669.27z" fill="#1a1a1a" fill-rule="evenodd" stroke="#000" stroke-width="36.458"/><path d="M11089 1034.4v139.51M10990 1035v139.2M13943 1370.4h139.2M13746 976.72v57.664M13943 14363h139.2M13746 14699v-139.2M10990 14699v-139.2M10793 14363h-139.19M10793 1371.1h-139.19M10597 14559h196.85" fill="none" stroke="#000" stroke-width="36.458"/><path d="M10793 14363c108.72 0 196.86 88.144 196.85 196.87H10793v-196.85z" fill="#1a1a1a" fill-rule="evenodd" stroke="#000" stroke-width="36.458"/><path d="M10990 14756v-57.663M10654 14363h-57.66M10597 14552h196.85M10597 976.72v.63M10597 14552v7.874M10654 1371.1h-57.66" fill="none" stroke="#000" stroke-width="36.458"/><path d="M10990 1174.2c0 108.72-88.13 196.86-196.85 196.86v-197.5H10990z" fill="#1a1a1a" fill-rule="evenodd" stroke="#000" stroke-width="36.458"/><path d="M13746 14756v-57.663M14140 14559h-196.85M14082 14363h57.66M14140 14552h-196.85M13746 1034.4v139.2M14140 1173.6h-196.85M14140 1181.4h-196.85M14140 1181.4v-7.874M10597 1174.2h196.85M10990 977.36v57.664M10597 1182.1h196.85M11089 976.72v57.664M10793 977.36v-.63M10597 1181.4h196.85M11089 1173.6h2209.1M10990 1174.2h98.425M13943 1687v-316.62M13943 1687v12676M10990 14559h2755.9M10793 14363V1372M10793 14756v-196.85M13943 14756v-196.85M13746 1173.6h-448.39M13943 976.72v196.85M10793 977.36v196.21M11089 1034.4h2209.1M10990 1035h98.425M14082 1370.4v316.62M13746 1034.4h-448.39M14082 1687v12676M13746 14699h-2755.9M10654 14363V1372" fill="none" stroke="#000" stroke-width="36.458"/><path d="M9304.8 1699V988.68H6253.6v.63h-295.27v-.63h-196.85v13780h3543.3v-13287" fill="#b3b3b3" fill-rule="evenodd" stroke="#000" stroke-width="36.458"/><path d="M8123.7 2760.4H6942.6v10236h1181.1zM9108 14375v196.85h-196.85c-.01-108.72 88.117-196.86 196.84-196.87z" fill="#1a1a1a" fill-rule="evenodd" stroke="#000" stroke-width="36.458"/><path d="M9108 1382.4v-196.85" fill="none" stroke="#000" stroke-width="36.458"/><path d="M9108 1185.6h-196.85c.01 108.7 88.13 196.82 196.84 196.83l.015.017v-188.97z" fill="#1a1a1a" fill-rule="evenodd" stroke="#000" stroke-width="36.458"/><path d="M7237.9 7485.8a78.74 78.74 0 0 0 59.055-76.241" fill="none" stroke="#000" stroke-width="36.458"/><path d="M7533.2 2110.8c445.88-.32 445.88-669.63 0-669.31v.017c-442.98 3.189-442.98 666.09 0 669.27zM7533.2 14315c445.88-.32 445.88-669.63 0-669.31v.02c-442.98 3.189-442.98 666.09 0 669.27z" fill="#1a1a1a" fill-rule="evenodd" stroke="#000" stroke-width="36.458"/><path d="M6253.6 1046.4v139.51M6155.2 1047v139.2M9108 1382.4h139.2M8911.1 988.72v57.664M9108 14375h139.2M8911.1 14711v-139.2M6155.2 14711v-139.2M5958.4 14375h-139.19M5958.4 1383.1h-139.19M5761.5 14571h196.85" fill="none" stroke="#000" stroke-width="36.458"/><path d="M5958.4 14375c108.72 0 196.86 88.144 196.85 196.87H5958.4v-196.85z" fill="#1a1a1a" fill-rule="evenodd" stroke="#000" stroke-width="36.458"/><path d="M6155.2 14768v-57.663M5819.2 14375h-57.66M5761.5 14564h196.85M5761.5 988.72v.63M5761.5 14564v7.874M5819.2 1383.1h-57.66" fill="none" stroke="#000" stroke-width="36.458"/><path d="M6155.2 1186.2c0 108.72-88.129 196.86-196.85 196.86v-197.5h196.85z" fill="#1a1a1a" fill-rule="evenodd" stroke="#000" stroke-width="36.458"/><path d="M8911.1 14768v-57.663M9304.8 14571h-196.85M9247.2 14375h57.66M9304.8 14564h-196.85M8911.1 1046.4v139.2M9304.8 1185.6h-196.85M9304.8 1193.4h-196.85M9304.8 1193.4v-7.874M5761.5 1186.2h196.85M6155.2 989.36v57.664M5761.5 1194.1h196.85M6253.6 988.72v57.664M5958.4 989.36v-.63M5761.5 1193.4h196.85M6253.6 1185.6h2209.1M6155.2 1186.2h98.425M9108 1699v-316.62M9108 1699v12676M6155.2 14571h2755.9M5958.4 14375V1384M5958.4 14768v-196.85M9108 14768v-196.85M8911.1 1185.6h-448.39M9108 988.72v196.85M5958.4 989.36v196.21M6253.6 1046.4h2209.1M6155.2 1047h98.425M9247.2 1382.4v316.62M8911.1 1046.4h-448.39M9247.2 1699v12676M8911.1 14711H6155.2M5819.2 14375V1384" fill="none" stroke="#000" stroke-width="36.458"/><path d="M4422.8 1675V964.68H1371.6v.63h-295.27v-.63H879.48v13780h3543.3v-13287" fill="#b3b3b3" fill-rule="evenodd" stroke="#000" stroke-width="36.458"/><path d="M3241.7 2736.4H2060.6v10236h1181.1zM4226 14351v196.85h-196.85c-.01-108.72 88.117-196.86 196.84-196.87z" fill="#1a1a1a" fill-rule="evenodd" stroke="#000" stroke-width="36.458"/><path d="M4226 1358.4v-196.85" fill="none" stroke="#000" stroke-width="36.458"/><path d="M4226 1161.6h-196.85c.01 108.7 88.13 196.82 196.84 196.83l.015.017v-188.97z" fill="#1a1a1a" fill-rule="evenodd" stroke="#000" stroke-width="36.458"/><path d="M2355.9 7461.8a78.74 78.74 0 0 0 59.055-76.241" fill="none" stroke="#000" stroke-width="36.458"/><path d="M2651.2 2086.8c445.88-.32 445.88-669.63 0-669.31v.017c-442.98 3.189-442.98 666.09 0 669.27zM2651.2 14291c445.88-.32 445.88-669.63 0-669.31v.02c-442.98 3.189-442.98 666.09 0 669.27z" fill="#1a1a1a" fill-rule="evenodd" stroke="#000" stroke-width="36.458"/><path d="M1371.6 1022.4v139.51M1273.2 1023v139.2M4226 1358.4h139.2M4029.1 964.72v57.664M4226 14351h139.2M4029.1 14687v-139.2M1273.2 14687v-139.2M1076.4 14351H937.21M1076.4 1359.1H937.21M879.52 14547h196.85" fill="none" stroke="#000" stroke-width="36.458"/><path d="M1076.4 14351c108.72 0 196.86 88.144 196.85 196.87H1076.4v-196.85z" fill="#1a1a1a" fill-rule="evenodd" stroke="#000" stroke-width="36.458"/><path d="M1273.2 14744v-57.663M937.17 14351h-57.66M879.52 14540h196.85M879.52 964.72v.63M879.52 14540v7.874M937.17 1359.1h-57.66" fill="none" stroke="#000" stroke-width="36.458"/><path d="M1273.2 1162.2c0 108.72-88.129 196.86-196.85 196.86v-197.5h196.85z" fill="#1a1a1a" fill-rule="evenodd" stroke="#000" stroke-width="36.458"/><path d="M4029.1 14744v-57.663M4422.8 14547h-196.85M4365.2 14351h57.66M4422.8 14540h-196.85M4029.1 1022.4v139.2M4422.8 1161.6h-196.85M4422.8 1169.4h-196.85M4422.8 1169.4v-7.874M879.52 1162.2h196.85M1273.2 965.36v57.664M879.52 1170.1h196.85M1371.6 964.72v57.664M1076.4 965.36v-.63M879.52 1169.4h196.85M1371.6 1161.6h2209.1M1273.2 1162.2h98.425M4226 1675v-316.62M4226 1675v12676M1273.2 14547h2755.9M1076.4 14351V1360M1076.4 14744v-196.85M4226 14744v-196.85M4029.1 1161.6h-448.39M4226 964.72v196.85M1076.4 965.36v196.21M1371.6 1022.4h2209.1M1273.2 1023h98.425M4365.2 1358.4v316.62M4029.1 1022.4h-448.39M4365.2 1675v12676M4029.1 14687H1273.2M937.17 14351V1360" fill="none" stroke="#000" stroke-width="36.458"/><g stroke-width=".093"><path d="M16078.998 12145.994V9146H15079v2999.994z" fill="#1a1a1a" fill-rule="evenodd" stroke="#000" stroke-width="36.6141"/><g stroke="#000"><path d="M15815.219 9882.061v-472.44h-472.44v472.44z" fill="#666" fill-rule="evenodd" stroke-width="36.6141"/><path d="M15342.779 9409.621l117.716 117.717M15342.779 9882.061l117.716-117.716M15460.495 9527.338v237.007M15815.219 9409.621l-117.716 117.717M15697.503 9527.338h-237.008M15815.219 9882.061l-117.716-117.716M15697.503 9764.345v-237.007M15460.495 9764.345h237.008" fill="none" stroke-width="36.6141"/><path d="M15697.109 9763.951v-236.22h-236.22v236.22z" fill="olive" fill-rule="evenodd" stroke-width="36.6141"/><path d="M15539.629 9547.416v-19.684M15539.629 9744.266v-196.85M15539.629 9763.951v-19.684M15618.369 9763.951v-19.684M15539.629 9744.266h78.74M15618.369 9744.266v-196.85M15618.369 9547.416v-19.684M15539.629 9547.416h78.74" fill="none" stroke-width="36.6141"/></g><g stroke="#000"><path d="M15815.219 10882.06v-472.44h-472.44v472.44z" fill="#666" fill-rule="evenodd" stroke-width="36.6141"/><path d="M15342.779 10409.62l117.716 117.716M15342.779 10882.06l117.716-117.717M15460.495 10527.336v237.007M15815.219 10409.62l-117.716 117.716M15697.503 10527.336h-237.008M15815.219 10882.06l-117.716-117.717M15697.503 10764.343v-237.007M15460.495 10764.343h237.008" fill="none" stroke-width="36.6141"/><path d="M15697.109 10763.95v-236.22h-236.22v236.22z" fill="olive" fill-rule="evenodd" stroke-width="36.6141"/><path d="M15539.629 10547.414v-19.685M15539.629 10744.265v-196.85M15539.629 10763.95v-19.686M15618.369 10763.95v-19.686M15539.629 10744.265h78.74M15618.369 10744.265v-196.85M15618.369 10547.414v-19.685M15539.629 10547.414h78.74" fill="none" stroke-width="36.6141"/></g><g stroke="#000"><path d="M15815.219 11882.057v-472.44h-472.44v472.44z" fill="#666" fill-rule="evenodd" stroke-width="36.6141"/><path d="M15342.779 11409.618l117.716 117.716M15342.779 11882.057l117.716-117.716M15460.495 11527.334v237.007M15815.219 11409.618l-117.716 117.716M15697.503 11527.334h-237.008M15815.219 11882.057l-117.716-117.716M15697.503 11764.341v-237.007M15460.495 11764.341h237.008" fill="none" stroke-width="36.6141"/><path d="M15697.109 11763.947v-236.22h-236.22v236.22z" fill="olive" fill-rule="evenodd" stroke-width="36.6141"/><path d="M15539.629 11547.412v-19.685M15539.629 11744.263v-196.85M15539.629 11763.947v-19.685M15618.369 11763.947v-19.685M15539.629 11744.263h78.74M15618.369 11744.263v-196.85M15618.369 11547.412v-19.685M15539.629 11547.412h78.74" fill="none" stroke-width="36.6141"/></g></g></svg>