<svg width="183" height="245" viewBox="0 0 14753 19734" xmlns="http://www.w3.org/2000/svg"><g clip-path="url(#a)" mask="url(#b)" transform="translate(-44798 -17910)"><defs><clipPath id="a"><path d="M44800 17900v19700h14700V17900H44800" fill-rule="evenodd"/></clipPath></defs><g fill="#313d63" stroke="#313d63"><path d="M44800 17900v19700h14700V17900H44800" fill-rule="evenodd"/><g fill-opacity="0" stroke-linecap="round" stroke-linejoin="round" stroke-width="19.685" fill="none" stroke="#000"><path d="M59500 17900H44800M59500 37600V17900M44800 37600h14700M44800 17900v19700"/></g></g><g stroke-linecap="round" stroke-linejoin="round" stroke-width="0" stroke="none" fill="#9c6b28"><g fill-rule="evenodd"><path d="M53784 23092v315h-354.4v-315zM54571 22718v315h-354.4v-315zM54571 23466v315h-354.4v-315z"/></g><circle cx="58250" cy="24500" r="334.65"/><circle cx="58250" cy="23500" r="334.65"/><path d="M57915 22835v-669.2h669.2v669.2z" fill-rule="evenodd"/><circle cx="49454" cy="20953" r="300"/><circle cx="49498" cy="30957" r="300"/><circle cx="46061" cy="21406" r="300"/><circle cx="46104" cy="30547" r="300"/><circle cx="48482" cy="32732" r="300"/><circle cx="47096" cy="19244" r="300"/><path d="M47428 33024h-600v-600h600z" fill-rule="evenodd"/></g><g fill="#212d53" stroke="#212d53" stroke-linecap="round" stroke-linejoin="round"><g fill-rule="evenodd" stroke-width="0" stroke="none"><path d="M53784 23092v315h-354.4v-315zM54571 22718v315h-354.4v-315zM54571 23466v315h-354.4v-315z"/></g><g stroke-width="0" stroke="none"><circle cx="58250" cy="24500" r="334.65"/><circle cx="58250" cy="23500" r="334.65"/><path d="M57915 22835v-669.2h669.2v669.2z" fill-rule="evenodd"/><circle cx="49454" cy="20953" r="300"/><circle cx="49498" cy="30957" r="300"/><circle cx="46061" cy="21406" r="300"/><circle cx="46104" cy="30547" r="300"/><circle cx="48482" cy="32732" r="300"/><circle cx="47096" cy="19244" r="300"/></g><path d="M47428 33024h-600v-600h600z" fill-rule="evenodd" stroke="none" stroke-width="0"/><g fill-opacity="0" stroke-width="196.85" fill="none"><path d="M53606 23250h2644M56250 23250l1000 1000M58000 24250l250 250M57250 24250h750M54393 22875h2482M57500 23500h750M56875 22875l625 625M54267 23750l126-126M53000 23750h1267M52750 23500l250 250M52750 22750v750M53250 22250l-500 500M54500 22250h-1250M54750 22500l-250-250M58250 22500h-3500"/></g><g stroke-width="0" stroke="none"><circle cx="58250" cy="24500" r="68.898"/><circle cx="58250" cy="23500" r="68.898"/><circle cx="58250" cy="22500" r="68.898"/><circle cx="49454" cy="20953" r="68.898"/><circle cx="49498" cy="30957" r="68.898"/><circle cx="46061" cy="21406" r="68.898"/><circle cx="46104" cy="30547" r="68.898"/><circle cx="48482" cy="32732" r="68.898"/><circle cx="47096" cy="19244" r="68.898"/><circle cx="47128" cy="32724" r="68.898"/></g></g><g fill="#b5ae30" mask="url(#c)" stroke="#b5ae30" stroke-linecap="round" stroke-linejoin="round"><g fill-rule="evenodd" stroke-width="0" stroke="none"><path d="M53784 23092v315h-354.4v-315zM54571 22718v315h-354.4v-315zM54571 23466v315h-354.4v-315z"/></g><g stroke-width="0" stroke="none"><circle cx="58250" cy="24500" r="334.65"/><circle cx="58250" cy="23500" r="334.65"/><path d="M57915 22835v-669.2h669.2v669.2z" fill-rule="evenodd"/><circle cx="49454" cy="20953" r="300"/><circle cx="49498" cy="30957" r="300"/><circle cx="46061" cy="21406" r="300"/><circle cx="46104" cy="30547" r="300"/><circle cx="48482" cy="32732" r="300"/><circle cx="47096" cy="19244" r="300"/></g><path d="M47428 33024h-600v-600h600z" fill-rule="evenodd" stroke="none" stroke-width="0"/><g fill-opacity="0" stroke-width="196.85" fill="none"><path d="M53606 23250h2644M56250 23250l1000 1000M58000 24250l250 250M57250 24250h750M54393 22875h2482M57500 23500h750M56875 22875l625 625M54267 23750l126-126M53000 23750h1267M52750 23500l250 250M52750 22750v750M53250 22250l-500 500M54500 22250h-1250M54750 22500l-250-250M58250 22500h-3500"/></g><g stroke-width="0" stroke="none"><circle cx="58250" cy="24500" r="68.898"/><circle cx="58250" cy="23500" r="68.898"/><circle cx="58250" cy="22500" r="68.898"/><circle cx="49454" cy="20953" r="68.898"/><circle cx="49498" cy="30957" r="68.898"/><circle cx="46061" cy="21406" r="68.898"/><circle cx="46104" cy="30547" r="68.898"/><circle cx="48482" cy="32732" r="68.898"/><circle cx="47096" cy="19244" r="68.898"/><circle cx="47128" cy="32724" r="68.898"/></g></g><defs><mask id="c"><g fill-opacity="1" stroke="#fff" stroke-linecap="round" stroke-linejoin="round" stroke-width="0" fill="#fff"><path d="M53784 23092v315h-354.4v-315zM54571 22718v315h-354.4v-315zM54571 23466v315h-354.4v-315z" fill-rule="evenodd"/><circle cx="58250" cy="24500" r="334.65"/><circle cx="58250" cy="23500" r="334.65"/><path d="M57915 22835v-669.2h669.2v669.2z" fill-rule="evenodd"/><circle cx="49454" cy="20953" r="300"/><circle cx="49498" cy="30957" r="300"/><circle cx="46061" cy="21406" r="300"/><circle cx="46104" cy="30547" r="300"/><circle cx="48482" cy="32732" r="300"/><circle cx="47096" cy="19244" r="300"/><g><path d="M47428 33024h-600v-600h600z" fill-rule="evenodd"/></g></g></mask></defs><defs><mask id="d"><path fill="#fff" d="M44501 9901h16768v27708H44501z"/><g fill-opacity="1" stroke="#000" stroke-linecap="round" stroke-linejoin="round" stroke-width="0"><path d="M53784 23092v315h-354.4v-315zM54571 22718v315h-354.4v-315zM54571 23466v315h-354.4v-315z" fill-rule="evenodd"/><circle cx="58250" cy="24500" r="334.65"/><circle cx="58250" cy="23500" r="334.65"/><path d="M57915 22835v-669.2h669.2v669.2z" fill-rule="evenodd"/><circle cx="49454" cy="20953" r="300"/><circle cx="49498" cy="30957" r="300"/><circle cx="46061" cy="21406" r="300"/><circle cx="46104" cy="30547" r="300"/><circle cx="48482" cy="32732" r="300"/><circle cx="47096" cy="19244" r="300"/><g><path d="M47428 33024h-600v-600h600z" fill-rule="evenodd"/></g></g></mask></defs><g fill="#f0f0f0" fill-opacity="0" mask="url(#d)" stroke="#f0f0f0" stroke-linecap="round" stroke-linejoin="round"><g stroke-width="295.28" fill="none"><path d="M52618 19665h-393M52225 20284v-1181h562M53237 20284v-1181l394 843 394-843v1181M55149 19103h-562l-56 562 56-56 112-56h282l112 56 56 56 57 113v281l-57 112-56 57-112 56h-282l-112-56-56-57M55937 19103h112l113 56 56 56 56 113 56 225v281l-56 225-56 112-56 57-113 56h-112l-113-56-56-57-56-112-56-225v-281l56-225 56-113 56-56 113-56"/></g><g stroke-width="147.64"><path d="M56876 37362v-366l225 197v-84l28-57 28-28 57-28h140l56 28 29 28 28 57v168l-28 57-29 28M57242 36743v-450M56904 35703l-28 56v84l28 85 56 56 57 28 112 28h85l112-28 56-28 57-56 28-85v-56l-28-84-29-28h-196v112M57467 35421h-591l591-337h-591M57467 34803h-591v-141l28-84 56-56 57-29 112-28h85l112 28 56 29 57 56 28 84v141M54132 37277l-28-28-28-56v-141l28-56 28-28 57-28h56l84 28 338 338v-366M54442 36687v-450M54076 35843v-112l28-56 56-57 113-28h197l112 28 57 57 28 56v112l-28 57-57 56-112 28h-197l-113-28-56-56-28-57M54076 35337h478l56-28 29-28 28-56v-113l-28-56-29-28-56-28h-478M54076 34803v-338M54667 34634h-591M51867 36940v337M51867 37109h-591l84 56 57 56 28 56M51642 36687v-450M51276 36040l591-197-591-197M51810 35112l29 28 28 85v56l-28 84-57 56-56 29-112 28h-85l-112-28-57-29-56-56-28-84v-56l28-85 28-28M51810 34522l29 28 28 84v56l-28 85-57 56-56 28-112 28h-85l-112-28-57-28-56-56-28-85v-56l28-84 28-28" fill="none"/></g><g stroke-width="47.244" fill="none"><path d="M53700 22627v367M53700 23872v-367M53700 23872h851M53700 22627h575M57726 23000h1047M57726 23000v2023M57726 25023h1047M58773 23000v2023M58773 21976v524M58250 21976h523"/></g><g stroke-width="62.992" fill="none"><path d="M47165 31172h1222M47165 20806v10366M48387 20806h-1222M48387 31172V20806M45944 32921h3730M45944 18958v13963M49674 18958h-3730M49674 32921V18958"/></g></g><g fill-opacity="0" stroke-linecap="round" stroke-linejoin="round" stroke-width="19.685" fill="none" stroke="#000"><path d="M59500 17900H44800M59500 37600V17900M44800 37600h14700M44800 17900v19700"/></g><defs><mask id="b"><path fill="#fff" d="M44501 9901h16768v27708H44501z"/><path stroke="#000" stroke-linecap="round" stroke-width="393" d="M58250 24500h0M58250 23500h0M58250 22500h0"/><path stroke="#000" stroke-linecap="round" stroke-width="300" d="M49454 20952h0M49496.5 30955.5h0M46060 21404h0M46103 30547h0M48480.5 32731.5h0M47096 19244h0M47127.5 32724.5h0"/></mask></defs></g><g stroke="#000" stroke-width=".093"><path d="M.67.025h1.21M1.88.025l.095.095M1.88.025L1.867.05M.682.05h1.185M.67.025L.683.05M.575.12L.67.025M1.975.12v1.205M1.975 1.725V2.93M1.975 2.93l-.095.095M1.88 3.025H.67M.67 3.025L.575 2.93M.575 2.93v-.255M.575.375V.12M.575 2.275v-1.5M1.975.12L1.95.133M1.867.05l.083.083M1.867.05l-.033.067M.682.05l.034.067M.6.133L.683.05M.575.12L.6.133M1.95.133v1.192M1.975 2.93l-.025-.013M1.95 1.725v1.192M1.88 3.025L1.868 3M1.95 2.917L1.867 3M.67 3.025L.682 3M1.867 3H.682M.575 2.93L.6 2.917M.682 3L.6 2.917M.6 2.917v-.242M.6.375V.133M.6 2.275v-1.5M1.95.133l-.067.033" fill="none" transform="matrix(-393.33 0 0 -393.44 9703.1 5939.8)"/><path d="M1.883.166v2.718l-.049.05h0H.716l-.05-.05h0V.166l.05-.05h1.118z" fill="#1a1a1a" fill-rule="evenodd" transform="matrix(-393.33 0 0 -393.44 9703.1 5939.8)"/><path d="M.6.133l.067.033M1.95 1.325v.4M1.95 2.917l-.067-.033M1.867 3l-.033-.067M.682 3l.034-.067M.6 2.917l.067-.033M.6 2.675v-.4M.6.775v-.4" fill="none" transform="matrix(-393.33 0 0 -393.44 9703.1 5939.8)"/><path d="M2.525 1.325v.4h-.55v-.4h.35z" fill="gray" fill-rule="evenodd" transform="matrix(-393.33 0 0 -393.44 9703.1 5939.8)"/><path d="M2.225 1.325v.4M2.325 1.325v.4M1.975 1.325H1.95M1.975 1.725H1.95M.575 2.675H.6M.575.375H.6M.575 2.275H.6M.575.775H.6" fill="none" transform="matrix(-393.33 0 0 -393.44 9703.1 5939.8)"/><g><path d="M2.525 1.325v.4h-.55v-.4h.35z" fill="gray" fill-rule="evenodd" transform="matrix(393.33 0 0 393.44 8690.275 4366.04)"/><path d="M2.225 1.325v.4M2.325 1.325v.4" fill="none" transform="matrix(393.33 0 0 393.44 8690.275 4366.04)"/></g><g><path d="M2.525 1.325v.4h-.55v-.4h.35z" fill="gray" fill-rule="evenodd" transform="matrix(393.33 0 0 393.44 8690.275 5113.576)"/><path d="M2.225 1.325v.4M2.325 1.325v.4" fill="none" transform="matrix(393.33 0 0 393.44 8690.275 5113.576)"/></g></g><g stroke-width=".093"><path d="M13951.998 7089.794V4089.8H12952v2999.994z" fill="#1a1a1a" fill-rule="evenodd" stroke="#000" stroke-width="36.6141"/><g stroke="#000"><path d="M13688.219 4825.861v-472.44h-472.44v472.44z" fill="#666" fill-rule="evenodd" stroke-width="36.6141"/><path d="M13215.779 4353.421l117.716 117.717M13215.779 4825.861l117.716-117.716M13333.495 4471.138v237.007M13688.219 4353.421l-117.716 117.717M13570.503 4471.138h-237.008M13688.219 4825.861l-117.716-117.716M13570.503 4708.145v-237.007M13333.495 4708.145h237.008" fill="none" stroke-width="36.6141"/><path d="M13570.109 4707.751v-236.22h-236.22v236.22z" fill="olive" fill-rule="evenodd" stroke-width="36.6141"/><path d="M13412.629 4491.216v-19.685M13412.629 4688.066v-196.85M13412.629 4707.751v-19.685M13491.369 4707.751v-19.685M13412.629 4688.066h78.74M13491.369 4688.066v-196.85M13491.369 4491.216v-19.685M13412.629 4491.216h78.74" fill="none" stroke-width="36.6141"/></g><g stroke="#000"><path d="M13688.219 5825.86v-472.44h-472.44v472.44z" fill="#666" fill-rule="evenodd" stroke-width="36.6141"/><path d="M13215.779 5353.42l117.716 117.716M13215.779 5825.86l117.716-117.717M13333.495 5471.136v237.007M13688.219 5353.42l-117.716 117.716M13570.503 5471.136h-237.008M13688.219 5825.86l-117.716-117.717M13570.503 5708.143v-237.007M13333.495 5708.143h237.008" fill="none" stroke-width="36.6141"/><path d="M13570.109 5707.75v-236.22h-236.22v236.22z" fill="olive" fill-rule="evenodd" stroke-width="36.6141"/><path d="M13412.629 5491.215v-19.686M13412.629 5688.065v-196.85M13412.629 5707.75v-19.686M13491.369 5707.75v-19.686M13412.629 5688.065h78.74M13491.369 5688.065v-196.85M13491.369 5491.215v-19.686M13412.629 5491.215h78.74" fill="none" stroke-width="36.6141"/></g><g stroke="#000"><path d="M13688.219 6825.858v-472.44h-472.44v472.44z" fill="#666" fill-rule="evenodd" stroke-width="36.6141"/><path d="M13215.779 6353.417l117.716 117.717M13215.779 6825.858l117.716-117.717M13333.495 6471.134v237.007M13688.219 6353.417l-117.716 117.717M13570.503 6471.134h-237.008M13688.219 6825.858l-117.716-117.717M13570.503 6708.141v-237.007M13333.495 6708.141h237.008" fill="none" stroke-width="36.6141"/><path d="M13570.109 6707.747v-236.22h-236.22v236.22z" fill="olive" fill-rule="evenodd" stroke-width="36.6141"/><path d="M13412.629 6491.212v-19.685M13412.629 6688.063v-196.85M13412.629 6707.747v-19.685M13491.369 6707.747v-19.685M13412.629 6688.063h78.74M13491.369 6688.063v-196.85M13491.369 6491.212v-19.685M13412.629 6491.212h78.74" fill="none" stroke-width="36.6141"/></g></g><path d="M4766.9 1802.8v-710.24H1715.8v.63h-295.27v-.63h-196.85v13778h3543.2v-13286" fill="#b3b3b3" fill-rule="evenodd" stroke="#000" stroke-width="36.456"/><path d="M3585.8 2864H2404.7v10235h1181.1zM4570.1 14477v196.83h-196.85c-.01-108.71 88.115-196.84 196.83-196.85z" fill="#1a1a1a" fill-rule="evenodd" stroke="#000" stroke-width="36.456"/><path d="M4570.1 1486.2v-196.83" fill="none" stroke="#000" stroke-width="36.456"/><path d="M4570.1 1289.4h-196.85c.01 108.69 88.128 196.8 196.83 196.81l.015.017v-188.95zM2995.3 2214.5c445.88-.32 445.88-669.56 0-669.24v.017c-442.97 3.189-442.97 666.02 0 669.2zM2995.3 14418c445.88-.321 445.88-669.56 0-669.24v.02c-442.97 3.188-442.97 666.02 0 669.2z" fill="#1a1a1a" fill-rule="evenodd" stroke="#000" stroke-width="36.456"/><path d="M1715.8 1150.2v139.5M1617.4 1150.8v139.19M4570.1 1486.2h139.2M4373.2 1092.6v57.658M4570.1 14477h139.2M4373.2 14813v-139.19M1617.4 14813v-139.19M1420.5 14477h-139.19M1420.5 1486.9h-139.19M1223.7 14674h196.85" fill="none" stroke="#000" stroke-width="36.456"/><path d="M1420.5 14477c108.72 0 196.86 88.134 196.85 196.85H1420.5v-196.83z" fill="#1a1a1a" fill-rule="evenodd" stroke="#000" stroke-width="36.456"/><path d="M1617.4 14871v-57.658M1281.3 14477h-57.659M1223.7 14666h196.85M1223.7 1092.6v.63M1223.7 14666v7.873M1281.3 1486.9h-57.659" fill="none" stroke="#000" stroke-width="36.456"/><path d="M1617.4 1290c0 108.71-88.128 196.84-196.85 196.84v-197.48h196.85z" fill="#1a1a1a" fill-rule="evenodd" stroke="#000" stroke-width="36.456"/><path d="M4373.2 14871v-57.658M4766.9 14674h-196.85M4709.3 14477h57.659M4766.9 14666h-196.85M4373.2 1150.2v139.19M4766.9 1289.4h-196.85M4766.9 1297.3h-196.85M4766.9 1297.3v-7.873M1223.7 1290h196.85M1617.4 1093.2v57.658M1223.7 1297.9h196.85M1715.8 1092.6v57.658M1420.5 1093.2v-.63M1223.7 1297.3h196.85M1715.8 1289.4h2209M1617.4 1290h98.423M4570.1 1802.8v-316.59M4570.1 1802.8v12674M1617.4 14674h2755.8M1420.5 14477V1487M1420.5 14871v-196.83M4570.1 14871v-196.83M4373.2 1289.4h-448.38M4570.1 1092.6v196.83M1420.5 1093.2v196.19M1715.8 1150.2h2209M1617.4 1150.8h98.423M4709.3 1486.2v316.59M4373.2 1150.2h-448.38M4709.3 1802.8v12674M4373.2 14813H1617.4M1281.3 14477V1487" fill="none" stroke="#000" stroke-width="36.456"/></svg>