<svg width="365" height="305" viewBox="0 0 29281 24455" xmlns="http://www.w3.org/2000/svg"><g clip-path="url(#a)" mask="url(#b)" transform="translate(-46764 -28544) scale(1.0019)"><defs><clipPath id="a"><path d="M46700 52900h29200V28500H46700v24400" fill-rule="evenodd"/></clipPath></defs><g fill="#313d63" stroke="#313d63"><path d="M46700 52900h29200V28500H46700v24400" fill-rule="evenodd"/><g fill-opacity="0" stroke-linecap="round" stroke-linejoin="round" stroke-width="19.685" fill="none" stroke="#000"><path d="M46700 28500v24400M75900 28500H46700M75900 52900V28500M46700 52900h29200"/></g></g><g stroke-linecap="round" stroke-linejoin="round" fill="#9c6b28" stroke="#9c6b28"><path d="M54593 47956v-511.8h413.4v511.8z" fill-rule="evenodd" stroke="none" stroke-width="0"/><g fill-opacity="0" stroke-width="413.39" fill="none"><path d="M56800 47650v99M55800 47650v99"/></g><g stroke-width="0" stroke="none"><circle cx="60119" cy="50400" r="472.44"/><circle cx="51300" cy="50400" r="472.44"/><circle cx="63400" cy="52000" r="275.59"/><circle cx="61400" cy="52000" r="275.59"/><circle cx="63500" cy="48800" r="275.59"/><circle cx="61500" cy="48800" r="275.59"/><circle cx="66700" cy="31000" r="275.59"/><circle cx="68700" cy="31000" r="275.59"/><circle cx="60400" cy="29400" r="275.59"/><circle cx="62400" cy="29400" r="275.59"/></g><path d="M60707 35044v511.8h-413.4V35044z" fill-rule="evenodd" stroke="none" stroke-width="0"/><g fill-opacity="0" stroke-width="413.39" fill="none"><path d="M58500 35349v-99M59500 35349v-99"/></g><path d="M61293 50656v-511.8h413.4v511.8z" fill-rule="evenodd" stroke="none" stroke-width="0"/><g fill-opacity="0" stroke-width="413.39" fill="none"><path d="M63500 50350v99M62500 50350v99"/></g><path d="M61293 47856v-511.8h413.4v511.8z" fill-rule="evenodd" stroke="none" stroke-width="0"/><g fill-opacity="0" stroke-width="413.39" fill="none"><path d="M63500 47550v99M62500 47550v99"/></g><circle cx="62879" cy="40311" r="300" stroke="none" stroke-width="0"/><path d="M62587 39117h600v600h-600z" fill-rule="evenodd" stroke="none" stroke-width="0"/><g stroke-width="0" stroke="none"><circle cx="68500" cy="29600" r="334.65"/><circle cx="69500" cy="29600" r="334.65"/><circle cx="70500" cy="29600" r="334.65"/><circle cx="71500" cy="29600" r="334.65"/><circle cx="72500" cy="29600" r="334.65"/><path d="M73165 29265h669.2v669.2H73165z" fill-rule="evenodd"/><circle cx="62400" cy="31900" r="354.33"/></g><path d="M61046 32254v-708.6h708.6v708.6z" fill-rule="evenodd" stroke="none" stroke-width="0"/></g><g fill="#212d53" stroke="#212d53" stroke-linecap="round" stroke-linejoin="round"><path d="M54593 47956v-511.8h413.4v511.8z" fill-rule="evenodd" stroke="none" stroke-width="0"/><g fill-opacity="0" stroke-width="413.39" fill="none"><path d="M56800 47650v99M55800 47650v99"/></g><g stroke-width="0" stroke="none"><circle cx="60119" cy="50400" r="472.44"/><circle cx="51300" cy="50400" r="472.44"/><circle cx="63400" cy="52000" r="275.59"/><circle cx="61400" cy="52000" r="275.59"/><circle cx="63500" cy="48800" r="275.59"/><circle cx="61500" cy="48800" r="275.59"/><circle cx="66700" cy="31000" r="275.59"/><circle cx="68700" cy="31000" r="275.59"/><circle cx="60400" cy="29400" r="275.59"/><circle cx="62400" cy="29400" r="275.59"/></g><path d="M60707 35044v511.8h-413.4V35044z" fill-rule="evenodd" stroke="none" stroke-width="0"/><g fill-opacity="0" stroke-width="413.39" fill="none"><path d="M58500 35349v-99M59500 35349v-99"/></g><path d="M61293 50656v-511.8h413.4v511.8z" fill-rule="evenodd" stroke="none" stroke-width="0"/><g fill-opacity="0" stroke-width="413.39" fill="none"><path d="M63500 50350v99M62500 50350v99"/></g><path d="M61293 47856v-511.8h413.4v511.8z" fill-rule="evenodd" stroke="none" stroke-width="0"/><g fill-opacity="0" stroke-width="413.39" fill="none"><path d="M63500 47550v99M62500 47550v99"/></g><circle cx="62879" cy="40311" r="300" stroke="none" stroke-width="0"/><path d="M62587 39117h600v600h-600z" fill-rule="evenodd" stroke="none" stroke-width="0"/><g stroke-width="0" stroke="none"><circle cx="68500" cy="29600" r="334.65"/><circle cx="69500" cy="29600" r="334.65"/><circle cx="70500" cy="29600" r="334.65"/><circle cx="71500" cy="29600" r="334.65"/><circle cx="72500" cy="29600" r="334.65"/><path d="M73165 29265h669.2v669.2H73165z" fill-rule="evenodd"/><circle cx="62400" cy="31900" r="354.33"/></g><path d="M61046 32254v-708.6h708.6v708.6z" fill-rule="evenodd" stroke="none" stroke-width="0"/><g stroke-width="0" stroke="none"><circle cx="54800" cy="47700" r="68.898"/><circle cx="56800" cy="47700" r="68.898"/><circle cx="55800" cy="47700" r="68.898"/><circle cx="60119" cy="50400" r="68.898"/><circle cx="51300" cy="50400" r="68.898"/><circle cx="63400" cy="52000" r="68.898"/><circle cx="61400" cy="52000" r="68.898"/><circle cx="63500" cy="48800" r="68.898"/><circle cx="61500" cy="48800" r="68.898"/><circle cx="66700" cy="31000" r="68.898"/><circle cx="68700" cy="31000" r="68.898"/><circle cx="60400" cy="29400" r="68.898"/><circle cx="62400" cy="29400" r="68.898"/><circle cx="60500" cy="35300" r="68.898"/><circle cx="58500" cy="35300" r="68.898"/><circle cx="59500" cy="35300" r="68.898"/><circle cx="61500" cy="50400" r="68.898"/><circle cx="63500" cy="50400" r="68.898"/><circle cx="62500" cy="50400" r="68.898"/><circle cx="61500" cy="47600" r="68.898"/><circle cx="63500" cy="47600" r="68.898"/><circle cx="62500" cy="47600" r="68.898"/><circle cx="62879" cy="40311" r="68.898"/><circle cx="62887" cy="39417" r="68.898"/><circle cx="68500" cy="29600" r="68.898"/><circle cx="69500" cy="29600" r="68.898"/><circle cx="70500" cy="29600" r="68.898"/><circle cx="71500" cy="29600" r="68.898"/><circle cx="72500" cy="29600" r="68.898"/><circle cx="73500" cy="29600" r="68.898"/><circle cx="62400" cy="31900" r="68.898"/><circle cx="61400" cy="31900" r="68.898"/></g></g><g fill="#b5ae30" mask="url(#c)" stroke="#b5ae30" stroke-linecap="round" stroke-linejoin="round"><path d="M54593 47956v-511.8h413.4v511.8z" fill-rule="evenodd" stroke="none" stroke-width="0"/><g fill-opacity="0" stroke-width="413.39" fill="none"><path d="M56800 47650v99M55800 47650v99"/></g><g stroke-width="0" stroke="none"><circle cx="60119" cy="50400" r="472.44"/><circle cx="51300" cy="50400" r="472.44"/><circle cx="63400" cy="52000" r="275.59"/><circle cx="61400" cy="52000" r="275.59"/><circle cx="63500" cy="48800" r="275.59"/><circle cx="61500" cy="48800" r="275.59"/><circle cx="66700" cy="31000" r="275.59"/><circle cx="68700" cy="31000" r="275.59"/><circle cx="60400" cy="29400" r="275.59"/><circle cx="62400" cy="29400" r="275.59"/></g><path d="M60707 35044v511.8h-413.4V35044z" fill-rule="evenodd" stroke="none" stroke-width="0"/><g fill-opacity="0" stroke-width="413.39" fill="none"><path d="M58500 35349v-99M59500 35349v-99"/></g><path d="M61293 50656v-511.8h413.4v511.8z" fill-rule="evenodd" stroke="none" stroke-width="0"/><g fill-opacity="0" stroke-width="413.39" fill="none"><path d="M63500 50350v99M62500 50350v99"/></g><path d="M61293 47856v-511.8h413.4v511.8z" fill-rule="evenodd" stroke="none" stroke-width="0"/><g fill-opacity="0" stroke-width="413.39" fill="none"><path d="M63500 47550v99M62500 47550v99"/></g><circle cx="62879" cy="40311" r="300" stroke="none" stroke-width="0"/><path d="M62587 39117h600v600h-600z" fill-rule="evenodd" stroke="none" stroke-width="0"/><g stroke-width="0" stroke="none"><circle cx="68500" cy="29600" r="334.65"/><circle cx="69500" cy="29600" r="334.65"/><circle cx="70500" cy="29600" r="334.65"/><circle cx="71500" cy="29600" r="334.65"/><circle cx="72500" cy="29600" r="334.65"/><path d="M73165 29265h669.2v669.2H73165z" fill-rule="evenodd"/><circle cx="62400" cy="31900" r="354.33"/></g><path d="M61046 32254v-708.6h708.6v708.6z" fill-rule="evenodd" stroke="none" stroke-width="0"/><g stroke-width="0" stroke="none"><circle cx="54800" cy="47700" r="68.898"/><circle cx="56800" cy="47700" r="68.898"/><circle cx="55800" cy="47700" r="68.898"/><circle cx="60119" cy="50400" r="68.898"/><circle cx="51300" cy="50400" r="68.898"/><circle cx="63400" cy="52000" r="68.898"/><circle cx="61400" cy="52000" r="68.898"/><circle cx="63500" cy="48800" r="68.898"/><circle cx="61500" cy="48800" r="68.898"/><circle cx="66700" cy="31000" r="68.898"/><circle cx="68700" cy="31000" r="68.898"/><circle cx="60400" cy="29400" r="68.898"/><circle cx="62400" cy="29400" r="68.898"/><circle cx="60500" cy="35300" r="68.898"/><circle cx="58500" cy="35300" r="68.898"/><circle cx="59500" cy="35300" r="68.898"/><circle cx="61500" cy="50400" r="68.898"/><circle cx="63500" cy="50400" r="68.898"/><circle cx="62500" cy="50400" r="68.898"/><circle cx="61500" cy="47600" r="68.898"/><circle cx="63500" cy="47600" r="68.898"/><circle cx="62500" cy="47600" r="68.898"/><circle cx="62879" cy="40311" r="68.898"/><circle cx="62887" cy="39417" r="68.898"/><circle cx="68500" cy="29600" r="68.898"/><circle cx="69500" cy="29600" r="68.898"/><circle cx="70500" cy="29600" r="68.898"/><circle cx="71500" cy="29600" r="68.898"/><circle cx="72500" cy="29600" r="68.898"/><circle cx="73500" cy="29600" r="68.898"/><circle cx="62400" cy="31900" r="68.898"/><circle cx="61400" cy="31900" r="68.898"/></g></g><defs><mask id="c"><g stroke="#fff" stroke-linecap="round" stroke-linejoin="round" fill="#fff"><path d="M54593 47956v-511.8h413.4v511.8z" fill-rule="evenodd" stroke-width="0"/><g fill-opacity="0" stroke-width="413.39"><path d="M56800 47650v99M55800 47650v99"/></g><g stroke-width="0"><circle cx="60119" cy="50400" r="472.44"/><circle cx="51300" cy="50400" r="472.44"/><circle cx="63400" cy="52000" r="275.59"/><circle cx="61400" cy="52000" r="275.59"/><circle cx="63500" cy="48800" r="275.59"/><circle cx="61500" cy="48800" r="275.59"/><circle cx="66700" cy="31000" r="275.59"/><circle cx="68700" cy="31000" r="275.59"/><circle cx="60400" cy="29400" r="275.59"/><circle cx="62400" cy="29400" r="275.59"/></g><path d="M60707 35044v511.8h-413.4V35044z" fill-rule="evenodd" stroke-width="0"/><g fill-opacity="0" stroke-width="413.39"><path d="M58500 35349v-99M59500 35349v-99"/></g><path d="M61293 50656v-511.8h413.4v511.8z" fill-rule="evenodd" stroke-width="0"/><g fill-opacity="0" stroke-width="413.39"><path d="M63500 50350v99M62500 50350v99"/></g><path d="M61293 47856v-511.8h413.4v511.8z" fill-rule="evenodd" stroke-width="0"/><g fill-opacity="0" stroke-width="413.39"><path d="M63500 47550v99M62500 47550v99"/></g><circle cx="62879" cy="40311" r="300" stroke-width="0"/><path d="M62587 39117h600v600h-600z" fill-rule="evenodd" stroke-width="0"/><g stroke-width="0"><circle cx="68500" cy="29600" r="334.65"/><circle cx="69500" cy="29600" r="334.65"/><circle cx="70500" cy="29600" r="334.65"/><circle cx="71500" cy="29600" r="334.65"/><circle cx="72500" cy="29600" r="334.65"/><path d="M73165 29265h669.2v669.2H73165z" fill-rule="evenodd"/><circle cx="62400" cy="31900" r="354.33"/></g><path d="M61046 32254v-708.6h708.6v708.6z" fill-rule="evenodd" stroke-width="0"/></g></mask></defs><defs><mask id="d"><g stroke="#000" stroke-linecap="round" stroke-linejoin="round"><path d="M54593 47956v-511.8h413.4v511.8z" fill-rule="evenodd" stroke-width="0"/><g fill-opacity="0" stroke-width="413.39"><path d="M56800 47650v99M55800 47650v99"/></g><g stroke-width="0"><circle cx="60119" cy="50400" r="472.44"/><circle cx="51300" cy="50400" r="472.44"/><circle cx="63400" cy="52000" r="275.59"/><circle cx="61400" cy="52000" r="275.59"/><circle cx="63500" cy="48800" r="275.59"/><circle cx="61500" cy="48800" r="275.59"/><circle cx="66700" cy="31000" r="275.59"/><circle cx="68700" cy="31000" r="275.59"/><circle cx="60400" cy="29400" r="275.59"/><circle cx="62400" cy="29400" r="275.59"/></g><path d="M60707 35044v511.8h-413.4V35044z" fill-rule="evenodd" stroke-width="0"/><g fill-opacity="0" stroke-width="413.39"><path d="M58500 35349v-99M59500 35349v-99"/></g><path d="M61293 50656v-511.8h413.4v511.8z" fill-rule="evenodd" stroke-width="0"/><g fill-opacity="0" stroke-width="413.39"><path d="M63500 50350v99M62500 50350v99"/></g><path d="M61293 47856v-511.8h413.4v511.8z" fill-rule="evenodd" stroke-width="0"/><g fill-opacity="0" stroke-width="413.39"><path d="M63500 47550v99M62500 47550v99"/></g><circle cx="62879" cy="40311" r="300" stroke-width="0"/><path d="M62587 39117h600v600h-600z" fill-rule="evenodd" stroke-width="0"/><g stroke-width="0"><circle cx="68500" cy="29600" r="334.65"/><circle cx="69500" cy="29600" r="334.65"/><circle cx="70500" cy="29600" r="334.65"/><circle cx="71500" cy="29600" r="334.65"/><circle cx="72500" cy="29600" r="334.65"/><path d="M73165 29265h669.2v669.2H73165z" fill-rule="evenodd"/><circle cx="62400" cy="31900" r="354.33"/></g><path d="M61046 32254v-708.6h708.6v708.6z" fill-rule="evenodd" stroke-width="0"/></g><path fill="#fff" d="M43018 26086h32891v27021H43018z"/></mask></defs><g fill="none" fill-opacity="0" mask="url(#d)" stroke="#f0f0f0" stroke-linecap="round" stroke-linejoin="round"><g stroke-width="147.64"><path d="M64889 41576h-112l-57 28-28 28-56 85-28 112v225l28 56 28 29 56 28h113l56-28 28-29 28-56v-140l-28-57-28-28-56-28h-113l-56 28-28 28-28 57M65199 41942h449M66239 41604l-56-28h-85l-84 28-56 56-28 57-28 112v85l28 112 28 56 56 57 84 28h57l84-28 28-29v-196h-112M66520 41773v394M66520 41829l28-28 57-28h84l56 28 28 56v310M67308 42167v-591M67308 42139l-57 28h-112l-56-28-28-29-29-56v-169l29-56 28-28 56-28h112l57 28M64917 39976h-281l-28 281 28-28 56-28h141l56 28 28 28 28 57v140l-28 56-28 29-56 28h-141l-56-28-28-29M65199 40342h449M65845 39976l197 591 197-591M66689 40539l-56 28h-113l-56-28-28-29-28-56v-169l28-56 28-28 56-28h113l56 28M67195 40539l-56 28h-113l-56-28-28-29-28-56v-169l28-56 28-28 56-28h113l56 28M64889 38473v394M64749 38248l-141 422h366M65199 38642h449M65845 38276h338M66014 38867v-591M66633 38867v-310l-28-56-57-28h-112l-56 28"/><path d="M66633 38839l-57 28h-140l-56-28-29-57v-56l29-56 56-28h140l57-28M67167 38839l-56 28h-113l-56-28-28-29-28-56v-169l28-56 28-28 56-28h113l56 28M67420 38867v-591M67673 38867v-310l-28-56-56-28h-85l-56 28-28 28M64680 36576h365l-196 225h84l56 28 28 28 28 57v140l-28 56-28 29-56 28h-169l-56-28-28-29M65299 36942h449M65945 36576h338M66114 37167v-591M66705 37139l-57 28h-112l-56-28-29-57v-225l29-56 56-28h112l57 28 28 56v57l-282 56M66986 37167v-394M66986 36829l28-28 56-28h85l56 28 28 56v310M67239 36857l28-56 56-28h85l56 28 28 56v310M67773 36773v591M67773 36801l56-28h113l56 28 28 28 28 56v169l-28 56-28 29-56 28h-113l-56-28M68308 37110l28 29-28 28-29-28 29-29v57M64708 34932l28-28 56-28h141l56 28 28 28 28 57v56l-28 84-337 338h365M65299 35242h449M66367 35410l-28 29-84 28h-57l-84-28-56-57-28-56-28-112v-85l28-112 28-57 56-56 84-28h57l84 28 28 28M66705 35467l-57-28-28-29-28-56v-169l28-56 28-28 57-28h84l56 28 28 28 28 56v169l-28 56-28 29-56 28h-84M67239 35467l-56-28-28-29-29-56v-169l29-56 28-28 56-28h84l56 28 29 28 28 56v169l-28 56-29 29-56 28h-84M67773 35467l-56-28-28-57v-506M68223 35439l-56 28h-113l-56-28-28-57v-225l28-56 56-28h113l56 28 28 56v57l-281 56M68504 35467v-394M68504 35185l28-56 29-28 56-28h56M65045 33767h-337M64877 33767v-591l-57 84-56 57-56 28M65299 33542h449M66030 33767v-591M66030 33457h337M66367 33767v-591M66873 33739l-56 28h-112l-57-28-28-57v-225l28-56 57-28h112l56 28 28 56v57l-281 56M67408 33767v-310l-29-56-56-28h-112l-56 28"/><path d="M67408 33739l-57 28h-140l-56-28-29-57v-56l29-56 56-28h140l57-28M67604 33373h225M67689 33176v506l28 57 56 28h56M68251 33739l-56 28h-112l-57-28-28-57v-225l28-56 57-28h112l56 28 28 56v57l-281 56M68532 33767v-394M68532 33485l29-56 28-28 56-28h56"/></g><g stroke-width="47.244"><path d="M55221 47070l-146 354M56382 47070h-1161M56512 47424l-130-354M56559 48034l12-59M55044 48034h1515M51725 49833v-741M51725 49092h7968M59693 49092v741M51725 50966v741M51725 51707h7968M59693 51707v-741M61644 51637h1511M61644 52362h1511M61744 48437h1511M61744 49162h1511M68455 31362h-1511M68455 30637h-1511M62155 29762h-1511M62155 29037h-1511M60078 35929l146-354M58917 35929h1161M58787 35575l130 354M58740 34965l-12 59M60255 34965h-1515M61921 49770l-146 354M63082 49770h-1161M63212 50124l-130-354M63259 50734l12-59M61744 50734h1515M61921 46970l-146 354M63082 46970h-1161M63212 47324l-130-354M63259 47934l12-59M61744 47934h1515"/></g><g stroke-width="62.992"><circle cx="61818" cy="31947" r="830.71"/><circle cx="61834" cy="44591" r="794.49"/><circle cx="49213" cy="44578" r="796.85"/><circle cx="49187" cy="31989" r="797.24"/><path d="M47657 30390v15802M47657 46192h15703M63360 46192V30390M63360 30390H47657"/></g><g stroke-width="47.244"><path d="M73000 29076v1047M73000 29076h-5024M67976 29076v1047M73000 30123h-5024M74023 30123h-523M74023 29600v523M61285 31413v61M61285 32325v61M61490 32325a590.55 590.55 0 0 0 819.7-.1M62310 31475a590.55 590.55 0 0 0-819.7-.1"/><path d="M61286 32386a783.46 783.46 0 0 0 1272.6-61.8M62558 31475a783.46 783.46 0 0 0-1272.6-61.8"/></g></g><g fill-opacity="0" stroke-linecap="round" stroke-linejoin="round" stroke-width="19.685" fill="none" stroke="#000"><path d="M46700 28500v24400M75900 28500H46700M75900 52900V28500M46700 52900h29200"/></g><defs><mask id="b"><path fill="#fff" d="M43018 26086h32891v27021H43018z"/><path stroke="#000" stroke-linecap="round" stroke-width="295" d="M54800 47700h0M56800 47700h0M55800 47700h0"/><path stroke="#000" stroke-linecap="round" stroke-width="472" d="M60118 50400h0M51300 50400h0"/><path stroke="#000" stroke-linecap="round" stroke-width="275" d="M63400 52000h0M61400 52000h0M63500 48800h0M61500 48800h0M66700 31000h0M68700 31000h0M60400 29400h0M62400 29400h0"/><path stroke="#000" stroke-linecap="round" stroke-width="295" d="M60500 35300h0M58500 35300h0M59500 35300h0M61500 50400h0M63500 50400h0M62500 50400h0M61500 47600h0M63500 47600h0M62500 47600h0"/><path stroke="#000" stroke-linecap="round" stroke-width="300" d="M62878 40310h0M62886 39418h0"/><path stroke="#000" stroke-linecap="round" stroke-width="393" d="M68500 29600h0M69500 29600h0M70500 29600h0M71500 29600h0M72500 29600h0M73500 29600h0"/><path stroke="#000" stroke-linecap="round" stroke-width="354" d="M62400 31900h0M61400 31900h0"/></mask></defs></g><g stroke="#000" stroke-width=".093"><g transform="matrix(393.7 0 0 -393.7 8123.993 19211.266)"><path d="M1.11 1.54h2.86L4.54 0 4.4-.77H.68L.54 0z" fill="#1a1a1a" fill-rule="evenodd"/><path d="M5.33-.19h-.825 0L4.47.19h.86z" fill="#b3b3b3" fill-rule="evenodd"/></g><path d="M8350.194 19286.07l14.086-149.607h0-338.708v149.606z" fill="#b3b3b3" stroke-width="36.6141"/></g><g stroke-width=".093"><path d="M5096.377 23170.979h7874v-2519.68h-7874z" fill="#476e48" fill-rule="evenodd" stroke="#191919" stroke-width="36.6141"/><path d="M12970.377 22068.619v-314.96h472.44c209.972 0 209.972 314.96 0 314.96zM4623.945 22068.619c-209.972 0-209.972-314.96 0-314.96h472.44v314.96z" fill="#b3b3b3" stroke="#000" stroke-width="36.6141"/></g><g transform="matrix(393.7 0 0 -393.7 14723.661 23510.668)" fill="#faa" stroke-width=".093"><path d="M1.14.8V-.8M3.94.8V-.8M1.14-.8c-.24.021-.374.155-.4.4v.8c0 .22.18.4.4.4h.5V-.8zM3.44-.8V.8h.5a.4.4 0 0 0 .4-.4v-.8c-.026-.245-.16-.379-.4-.4z" fill-rule="evenodd" stroke="#191919"/><path d="M4.34.25h.74c.333 0 .333-.5 0-.5h-.74 0z" fill="#999" fill-rule="evenodd" stroke="#191919"/></g><path d="M15014.983 23412.228v196.85h-291.338c-131.232 0-131.232-196.85 0-196.85z" fill="#999" stroke="#1a1a1a" stroke-width="36.6141"/><path d="M16077.973 23227.189v566.928h-708.66v-566.928z" fill="#e9afaf" stroke="#1a1a1a" stroke-width="36.6141"/><path fill="#500" opacity=".997" stroke="#1a1a1a" stroke-width="36.2204" d="M15464.628 23228.464h71.654v563.779h-71.654z"/><path opacity=".997" stroke="#1a1a1a" stroke-width="36.2204" d="M15608.722 23230.433h71.654v563.778h-71.654z"/><path fill="red" opacity=".997" stroke="#1a1a1a" stroke-width="36.2204" d="M15754.785 23230.826h71.654v563.779h-71.654z"/><path fill="olive" opacity=".997" stroke="#1a1a1a" stroke-width="36.2204" d="M15950.06 23228.464h71.654v563.779h-71.654z"/><g transform="matrix(393.7 0 0 -393.7 14823.661 20310.668)" fill="#faa" stroke-width=".093"><path d="M1.14.8V-.8M3.94.8V-.8M1.14-.8c-.24.021-.374.155-.4.4v.8c0 .22.18.4.4.4h.5V-.8zM3.44-.8V.8h.5a.4.4 0 0 0 .4-.4v-.8c-.026-.245-.16-.379-.4-.4z" fill-rule="evenodd" stroke="#191919"/><path d="M4.34.25h.74c.333 0 .333-.5 0-.5h-.74 0z" fill="#999" fill-rule="evenodd" stroke="#191919"/></g><path d="M15114.983 20212.228v196.85h-291.338c-131.232 0-131.232-196.85 0-196.85z" fill="#999" stroke="#1a1a1a" stroke-width="36.6141"/><path d="M16177.973 20027.189v566.928h-708.66v-566.928z" fill="#e9afaf" stroke="#1a1a1a" stroke-width="36.6141"/><path fill="#500" opacity=".997" stroke="#1a1a1a" stroke-width="36.2204" d="M15564.628 20028.464h71.654v563.779h-71.654z"/><path opacity=".997" stroke="#1a1a1a" stroke-width="36.2204" d="M15708.722 20030.433h71.654v563.778h-71.654z"/><path fill="red" opacity=".997" stroke="#1a1a1a" stroke-width="36.2204" d="M15854.785 20030.826h71.654v563.779h-71.654z"/><path fill="olive" opacity=".997" stroke="#1a1a1a" stroke-width="36.2204" d="M16050.06 20028.464h71.654v563.779h-71.654z"/><g><g transform="matrix(-393.7 0 0 393.7 22024.339 2511.032)" fill="#faa" stroke-width=".093"><path d="M1.14.8V-.8M3.94.8V-.8M1.14-.8c-.24.021-.374.155-.4.4v.8c0 .22.18.4.4.4h.5V-.8zM3.44-.8V.8h.5a.4.4 0 0 0 .4-.4v-.8c-.026-.245-.16-.379-.4-.4z" fill-rule="evenodd" stroke="#191919"/><path d="M4.34.25h.74c.333 0 .333-.5 0-.5h-.74 0z" fill="#999" fill-rule="evenodd" stroke="#191919"/></g><path d="M21733.017 2609.472v-196.85h291.338c131.232 0 131.232 196.85 0 196.85z" fill="#999" stroke="#1a1a1a" stroke-width="36.6141"/><path d="M20670.027 2794.511v-566.928h708.66v566.928z" fill="#e9afaf" stroke="#1a1a1a" stroke-width="36.6141"/><path fill="#500" opacity=".997" stroke="#1a1a1a" stroke-width="36.2204" d="M21283.372 2793.236h-71.654v-563.779h71.654z"/><path opacity=".997" stroke="#1a1a1a" stroke-width="36.2204" d="M21139.278 2791.267h-71.654V2227.49h71.654z"/><path fill="red" opacity=".997" stroke="#1a1a1a" stroke-width="36.2204" d="M20993.215 2790.873h-71.654v-563.778h71.654z"/><path fill="olive" opacity=".997" stroke="#1a1a1a" stroke-width="36.2204" d="M20797.94 2793.236h-71.654v-563.779h71.654z"/></g><g><g transform="matrix(-393.7 0 0 393.7 15724.339 911.032)" fill="#faa" stroke-width=".093"><path d="M1.14.8V-.8M3.94.8V-.8M1.14-.8c-.24.021-.374.155-.4.4v.8c0 .22.18.4.4.4h.5V-.8zM3.44-.8V.8h.5a.4.4 0 0 0 .4-.4v-.8c-.026-.245-.16-.379-.4-.4z" fill-rule="evenodd" stroke="#191919"/><path d="M4.34.25h.74c.333 0 .333-.5 0-.5h-.74 0z" fill="#999" fill-rule="evenodd" stroke="#191919"/></g><path d="M15433.017 1009.472v-196.85h291.338c131.232 0 131.232 196.85 0 196.85z" fill="#999" stroke="#1a1a1a" stroke-width="36.6141"/><path d="M14370.027 1194.511V627.583h708.66v566.928z" fill="#e9afaf" stroke="#1a1a1a" stroke-width="36.6141"/><path fill="#500" opacity=".997" stroke="#1a1a1a" stroke-width="36.2204" d="M14983.372 1193.236h-71.654V629.457h71.654z"/><path opacity=".997" stroke="#1a1a1a" stroke-width="36.2204" d="M14839.278 1191.267h-71.654V627.49h71.654z"/><path fill="red" opacity=".997" stroke="#1a1a1a" stroke-width="36.2204" d="M14693.215 1190.874h-71.654V627.095h71.654z"/><path fill="olive" opacity=".997" stroke="#1a1a1a" stroke-width="36.2204" d="M14497.94 1193.236h-71.654V629.457h71.654z"/></g><g stroke="#000" stroke-width=".093"><g transform="matrix(-393.7 0 0 393.7 13823.607 6811.134)"><path d="M1.11 1.54h2.86L4.54 0 4.4-.77H.68L.54 0z" fill="#1a1a1a" fill-rule="evenodd"/><path d="M5.33-.19h-.825 0L4.47.19h.86z" fill="#b3b3b3" fill-rule="evenodd"/></g><path d="M13597.406 6736.33l-14.086 149.607h338.708V6736.33z" fill="#b3b3b3" stroke-width="36.6141"/></g><g stroke="#000" stroke-width=".093"><g transform="matrix(393.7 0 0 -393.7 14824.393 21911.266)"><path d="M1.11 1.54h2.86L4.54 0 4.4-.77H.68L.54 0z" fill="#1a1a1a" fill-rule="evenodd"/><path d="M5.33-.19h-.825 0L4.47.19h.86z" fill="#b3b3b3" fill-rule="evenodd"/></g><path d="M15050.594 21986.07l14.086-149.607h0-338.708v149.606z" fill="#b3b3b3" stroke-width="36.6141"/></g><g stroke="#000" stroke-width=".093"><g transform="matrix(393.7 0 0 -393.7 14824.393 19111.266)"><path d="M1.11 1.54h2.86L4.54 0 4.4-.77H.68L.54 0z" fill="#1a1a1a" fill-rule="evenodd"/><path d="M5.33-.19h-.825 0L4.47.19h.86z" fill="#b3b3b3" fill-rule="evenodd"/></g><path d="M15050.594 19186.07l14.086-149.607h0-338.708v149.606z" fill="#b3b3b3" stroke-width="36.6141"/></g><g transform="rotate(90 9555.3 7369.7) scale(393.7)"><ellipse cx="30.533" cy="20.34" rx="19.947" ry="19.373" fill="#313d63"/><path d="M14.433.445a3.96 3.96 0 0 0-3.97 3.969v32.048a3.96 3.96 0 0 0 3.97 3.969h32.186a3.96 3.96 0 0 0 3.968-3.969V4.414A3.96 3.96 0 0 0 46.62.444zm16.074.835a19.187 19.187 0 0 1 .014 0 19.187 19.187 0 0 1 19.187 19.187 19.187 19.187 0 0 1-19.187 19.187 19.187 19.187 0 0 1-19.187-19.187A19.187 19.187 0 0 1 30.507 1.28z" fill="#333" stroke="#000" stroke-width=".09233841999999999"/><path d="M35.896 1.242l-.01.008H25.033l-.004.005A19.989 19.989 0 0 0 11.208 15.3l.012 10.341a19.985 19.985 0 0 0 14.21 14.112l10.175.046c9.738-2.668 14.174-12.336 14.164-13.954l-.06-10.75A19.99 19.99 0 0 0 35.896 1.241zm-5.39.038a19.187 19.187 0 0 1 .014 0 19.187 19.187 0 0 1 19.187 19.187A19.187 19.187 0 0 1 30.52 39.654a19.187 19.187 0 0 1-19.187-19.187A19.187 19.187 0 0 1 30.506 1.28z" fill="#1a1a1a" stroke="#000" stroke-width=".09260299999999999"/><g fill="#1a1a1a" stroke="#000" stroke-width=".093"><ellipse cx="30.636" cy="20.521" rx="11.12" ry="11.286"/><path d="M23.611 11.784L33.992 1.235l2.223.545-9.378 9.885zM39.207 14.254l10.549 10.381-.545 2.223-9.885-9.378zM21.834 27.307L11.285 16.926l.545-2.223 9.885 9.378zM37.048 29.178L26.667 39.727l-2.223-.545 9.378-9.885z"/></g><path d="M35.887 39.75H25.036" fill="none" stroke="#191919" stroke-width=".093"/><circle cx="14.458" cy="4.495" r="2.176" fill="#1a1a1a" stroke="#000" stroke-width=".093"/><circle cx="14.493" cy="36.526" r="2.176" fill="#1a1a1a" stroke="#000" stroke-width=".093"/><circle cx="46.464" cy="36.545" r="2.176" fill="#1a1a1a" stroke="#000" stroke-width=".093"/><circle cx="46.512" cy="4.529" r="2.176" fill="#1a1a1a" stroke="#000" stroke-width=".093"/><g stroke="#000"><path d="M40.268 15.516l-5.473-5.128h0l5.14-5.487.302.187 1.105.76.06.044.162.13-.222-.175.835.659.211.18.49.438.06.056.781.777.414.453.245.282.446.547h0l.123.16.462.63-5.141 5.487zM40.471 25.06l.615-7.475h0l7.494.616.04.354.093 1.337.002.074-.002.208v-.282l.003 1.063-.01.278-.039.655-.006.083-.124 1.094-.097.605-.07.368-.15.69h0l-.048.195-.207.753-7.494-.616zM33.153 31.192l6.201-4.218v0l4.23 6.217-.25.254-.982.911-.056.049-.163.13.22-.179-.826.67-.222.168-.535.381-.068.047-.929.592-.532.305-.33.177-.63.315h0l-.183.086-.716.312-4.229-6.217zM23.775 29.284l7.169 2.205h0l-2.21 7.187-.355-.036-1.325-.197-.073-.014-.203-.046.276.06-1.04-.225-.269-.07-.631-.178-.08-.024-1.042-.356-.57-.224-.344-.147-.642-.296h0l-.18-.088-.691-.364 2.21-7.187zM19.425 20.664l2.78 6.966h0l-6.985 2.787-.194-.299-.678-1.156-.035-.065-.091-.187.126.252-.476-.95-.115-.253-.257-.604-.031-.077-.377-1.035-.183-.585-.102-.36-.171-.685h0l-.045-.196-.15-.767 6.984-2.786zM23.424 12.05l-3.784 6.475v0l-6.492-3.794.115-.336.495-1.245.03-.068.092-.188-.122.256.457-.96.128-.247.319-.574.042-.072.584-.934.349-.503.221-.302.434-.556h0l.128-.156.512-.59 6.492 3.794zM32.616 9.805l-7.432 1.01h0l-1.012-7.451.336-.116 1.286-.378.072-.018.204-.043-.276.061 1.037-.232.274-.05.648-.103.082-.012 1.096-.115.612-.036.373-.011h.706V2.31l.201.005.78.04 1.013 7.45z" fill="#333" stroke-width=".093"/><circle cx="30.443" cy="20.374" r="10.988" fill="#4d4d4d" stroke-width=".118"/></g></g><g stroke-width=".093"><g transform="matrix(0 393.7 393.7 0 26824.001 1111.079)"><path d="M1.27-13.97V1.27h-2.54v-15.24z" fill="#1a1a1a" fill-rule="evenodd" stroke="#000"/><path d="M-.6.6V-.6H.6V.6z" fill="gray" fill-rule="evenodd" stroke="#000"/><path d="M.6-3.14v1.2H-.6v-1.2zM.6-5.68v1.2H-.6v-1.2zM-.6-13.3H.6v1.2H-.6zM-.6-10.76H.6v1.2H-.6zM-.6-8.22H.6v1.2H-.6z" fill="#666" fill-rule="evenodd" stroke="#000"/><path d="M-.6.6l.299-.299M-.6-.6l.299.299M-.301.301v-.602M.6.6L.301.301M.301.301h-.602M.6-.6l-.299.299M.301-.301v.602M-.301-.301h.602M-.6-3.14l.299.299M.6-3.14l-.299.299M-.301-2.841h.602M-.6-1.94l.299-.299M-.301-2.239v-.602M.6-1.94l-.299-.299M.301-2.239h-.602M.301-2.841v.602M.6-5.68l-.299.299M.6-4.48l-.299-.299M.301-5.381v.602M-.6-5.68l.299.299M-.301-5.381h.602M-.6-4.48l.299-.299M-.301-4.779v-.602M.301-4.779h-.602M-.6-12.1l.299-.299M-.6-13.3l.299.299M-.301-12.399v-.602M.6-12.1l-.299-.299M.301-12.399h-.602M.6-13.3l-.299.299M.301-13.001v.602M-.301-13.001h.602M-.6-10.76l.299.299M.6-10.76l-.299.299M-.301-10.461h.602M-.6-9.56l.299-.299M-.301-9.859v-.602M.6-9.56l-.299-.299M.301-9.859h-.602M.301-10.461v.602M.6-8.22l-.299.299M.6-7.02l-.299-.299M.301-7.921v.602M-.6-8.22l.299.299M-.301-7.921h.602M-.6-7.02l.299-.299M-.301-7.319v-.602M.301-7.319h-.602" fill="none" stroke="#000"/><path d="M.3-.3v.6h-.6v-.6zM-.3-2.84h.6v.6h-.6zM.3-5.38v.6h-.6v-.6zM.3-13v.6h-.6v-.6zM-.3-10.46h.6v.6h-.6zM.3-7.92v.6h-.6v-.6z" fill="olive" fill-rule="evenodd" stroke="#000"/><path d="M-.1.25V.3M-.1-.25v.5M-.1-.3v.05M.1-.3v.05M-.1-.25h.2M.1-.25v.5M.1.25V.3M-.1.25h.2M-.1-2.29v.05M-.1-2.79v.5M-.1-2.84v.05" fill="none" stroke="#000"/><path d="M.1-2.84v.05" fill="olive" fill-rule="evenodd" stroke="#000"/><path d="M-.1-2.79h.2M.1-2.79v.5M.1-2.29v.05M-.1-2.29h.2M-.1-4.83v.05M-.1-5.33v.5M-.1-5.38v.05M.1-5.38v.05M-.1-5.33h.2M.1-5.33v.5M.1-4.83v.05M-.1-4.83h.2M-.1-12.45v.05M-.1-12.95v.5M-.1-13v.05M.1-13v.05M-.1-12.95h.2M.1-12.95v.5M.1-12.45v.05M-.1-12.45h.2M-.1-9.91v.05M-.1-10.41v.5M-.1-10.46v.05M.1-10.46v.05M-.1-10.41h.2M.1-10.41v.5M.1-9.91v.05M-.1-9.91h.2M-.1-7.37v.05M-.1-7.87v.5M-.1-7.92v.05M.1-7.92v.05M-.1-7.87h.2M.1-7.87v.5M.1-7.37v.05M-.1-7.37h.2" fill="none" stroke="#000"/></g></g></svg>