<svg width="391" height="304" viewBox="9804400 3352800 7970600 6197600" xmlns="http://www.w3.org/2000/svg" xmlns:xlink="http://www.w3.org/1999/xlink"><defs><mask id="c"><g fill="#fff" fill-opacity="1" stroke="#fff" stroke-linecap="round" stroke-linejoin="round" stroke-width=".1"><path d="M15365000 4810000v-170000h170000v170000z" fill-rule="evenodd"/><circle cx="15450000" cy="4979000" r="85000"/><circle cx="15450000" cy="5233000" r="85000"/><circle cx="15450000" cy="5487000" r="85000"/><circle cx="15450000" cy="5741000" r="85000"/><circle cx="15450000" cy="5995000" r="85000"/><path d="m16307500 4752000 1141.8-5740.3 3251.6-4866.3 4866.3-3251.6 5740.3-1141.8h165000l5740.3 1141.8 4866.3 3251.6 3251.6 4866.3 1141.8 5740.3v30000l-1141.8 5740.3-3251.6 4866.3-4866.3 3251.6-5740.3 1141.8h-165000l-5740.3-1141.8-4866.3-3251.6-3251.6-4866.3-1141.8-5740.3zM16307500 4879000l1141.8-5740.3 3251.6-4866.3 4866.3-3251.6 5740.3-1141.8h165000l5740.3 1141.8 4866.3 3251.6 3251.6 4866.3 1141.8 5740.3v30000l-1141.8 5740.3-3251.6 4866.3-4866.3 3251.6-5740.3 1141.8h-165000l-5740.3-1141.8-4866.3-3251.6-3251.6-4866.3-1141.8-5740.3zM16307500 5006000l1141.8-5740.3 3251.6-4866.3 4866.3-3251.6 5740.3-1141.8h165000l5740.3 1141.8 4866.3 3251.6 3251.6 4866.3 1141.8 5740.3v30000l-1141.8 5740.3-3251.6 4866.3-4866.3 3251.6-5740.3 1141.8h-165000l-5740.3-1141.8-4866.3-3251.6-3251.6-4866.3-1141.8-5740.3zM16307500 5133000l1141.8-5740.3 3251.6-4866.3 4866.3-3251.6 5740.3-1141.8h165000l5740.3 1141.8 4866.3 3251.6 3251.6 4866.3 1141.8 5740.3v30000l-1141.8 5740.3-3251.6 4866.3-4866.3 3251.6-5740.3 1141.8h-165000l-5740.3-1141.8-4866.3-3251.6-3251.6-4866.3-1141.8-5740.3zM16307500 5260000l1141.8-5740.3 3251.6-4866.3 4866.3-3251.6 5740.3-1141.8h165000l5740.3 1141.8 4866.3 3251.6 3251.6 4866.3 1141.8 5740.3v30000l-1141.8 5740.3-3251.6 4866.3-4866.3 3251.6-5740.3 1141.8h-165000l-5740.3-1141.8-4866.3-3251.6-3251.6-4866.3-1141.8-5740.3zM16307500 5387000l1141.8-5740.3 3251.6-4866.3 4866.3-3251.6 5740.3-1141.8h165000l5740.3 1141.8 4866.3 3251.6 3251.6 4866.3 1141.8 5740.3v30000l-1141.8 5740.3-3251.6 4866.3-4866.3 3251.6-5740.3 1141.8h-165000l-5740.3-1141.8-4866.3-3251.6-3251.6-4866.3-1141.8-5740.3zM16307500 5514000l1141.8-5740.3 3251.6-4866.3 4866.3-3251.6 5740.3-1141.8h165000l5740.3 1141.8 4866.3 3251.6 3251.6 4866.3 1141.8 5740.3v30000l-1141.8 5740.3-3251.6 4866.3-4866.3 3251.6-5740.3 1141.8h-165000l-5740.3-1141.8-4866.3-3251.6-3251.6-4866.3-1141.8-5740.3zM16307500 5641000l1141.8-5740.3 3251.6-4866.3 4866.3-3251.6 5740.3-1141.8h165000l5740.3 1141.8 4866.3 3251.6 3251.6 4866.3 1141.8 5740.3v30000l-1141.8 5740.3-3251.6 4866.3-4866.3 3251.6-5740.3 1141.8h-165000l-5740.3-1141.8-4866.3-3251.6-3251.6-4866.3-1141.8-5740.3zM16802500 5641000l1141.8-5740.3 3251.6-4866.3 4866.3-3251.6 5740.3-1141.8h165000l5740.3 1141.8 4866.3 3251.6 3251.6 4866.3 1141.8 5740.3v30000l-1141.8 5740.3-3251.6 4866.3-4866.3 3251.6-5740.3 1141.8h-165000l-5740.3-1141.8-4866.3-3251.6-3251.6-4866.3-1141.8-5740.3zM16802500 5514000l1141.8-5740.3 3251.6-4866.3 4866.3-3251.6 5740.3-1141.8h165000l5740.3 1141.8 4866.3 3251.6 3251.6 4866.3 1141.8 5740.3v30000l-1141.8 5740.3-3251.6 4866.3-4866.3 3251.6-5740.3 1141.8h-165000l-5740.3-1141.8-4866.3-3251.6-3251.6-4866.3-1141.8-5740.3zM16802500 5387000l1141.8-5740.3 3251.6-4866.3 4866.3-3251.6 5740.3-1141.8h165000l5740.3 1141.8 4866.3 3251.6 3251.6 4866.3 1141.8 5740.3v30000l-1141.8 5740.3-3251.6 4866.3-4866.3 3251.6-5740.3 1141.8h-165000l-5740.3-1141.8-4866.3-3251.6-3251.6-4866.3-1141.8-5740.3zM16802500 5260000l1141.8-5740.3 3251.6-4866.3 4866.3-3251.6 5740.3-1141.8h165000l5740.3 1141.8 4866.3 3251.6 3251.6 4866.3 1141.8 5740.3v30000l-1141.8 5740.3-3251.6 4866.3-4866.3 3251.6-5740.3 1141.8h-165000l-5740.3-1141.8-4866.3-3251.6-3251.6-4866.3-1141.8-5740.3zM16802500 5133000l1141.8-5740.3 3251.6-4866.3 4866.3-3251.6 5740.3-1141.8h165000l5740.3 1141.8 4866.3 3251.6 3251.6 4866.3 1141.8 5740.3v30000l-1141.8 5740.3-3251.6 4866.3-4866.3 3251.6-5740.3 1141.8h-165000l-5740.3-1141.8-4866.3-3251.6-3251.6-4866.3-1141.8-5740.3zM16802500 5006000l1141.8-5740.3 3251.6-4866.3 4866.3-3251.6 5740.3-1141.8h165000l5740.3 1141.8 4866.3 3251.6 3251.6 4866.3 1141.8 5740.3v30000l-1141.8 5740.3-3251.6 4866.3-4866.3 3251.6-5740.3 1141.8h-165000l-5740.3-1141.8-4866.3-3251.6-3251.6-4866.3-1141.8-5740.3zM16802500 4879000l1141.8-5740.3 3251.6-4866.3 4866.3-3251.6 5740.3-1141.8h165000l5740.3 1141.8 4866.3 3251.6 3251.6 4866.3 1141.8 5740.3v30000l-1141.8 5740.3-3251.6 4866.3-4866.3 3251.6-5740.3 1141.8h-165000l-5740.3-1141.8-4866.3-3251.6-3251.6-4866.3-1141.8-5740.3zM16802500 4752000l1141.8-5740.3 3251.6-4866.3 4866.3-3251.6 5740.3-1141.8h165000l5740.3 1141.8 4866.3 3251.6 3251.6 4866.3 1141.8 5740.3v30000l-1141.8 5740.3-3251.6 4866.3-4866.3 3251.6-5740.3 1141.8h-165000l-5740.3-1141.8-4866.3-3251.6-3251.6-4866.3-1141.8-5740.3zM15940000 6014500l-3826.8-761.2-3244.3-2167.7-2167.7-3244.3-761.2-3826.8v-26000l761.2-3826.8 2167.7-3244.3 3244.3-2167.7 3826.8-761.2h20000l3826.8 761.2 3244.3 2167.7 2167.7 3244.3 761.2 3826.8v26000l-761.2 3826.8-2167.7 3244.3-3244.3 2167.7-3826.8 761.2zM15940000 5950500l-3826.8-761.2-3244.3-2167.7-2167.7-3244.3-761.2-3826.8v-26000l761.2-3826.8 2167.7-3244.3 3244.3-2167.7 3826.8-761.2h20000l3826.8 761.2 3244.3 2167.7 2167.7 3244.3 761.2 3826.8v26000l-761.2 3826.8-2167.7 3244.3-3244.3 2167.7-3826.8 761.2zM15910000 5529500l-3826.8-761.2-3244.3-2167.7-2167.7-3244.3-761.2-3826.8v-26000l761.2-3826.8 2167.7-3244.3 3244.3-2167.7 3826.8-761.2h20000l3826.8 761.2 3244.3 2167.7 2167.7 3244.3 761.2 3826.8v26000l-761.2 3826.8-2167.7 3244.3-3244.3 2167.7-3826.8 761.2zM15910000 5465500l-3826.8-761.2-3244.3-2167.7-2167.7-3244.3-761.2-3826.8v-26000l761.2-3826.8 2167.7-3244.3 3244.3-2167.7 3826.8-761.2h20000l3826.8 761.2 3244.3 2167.7 2167.7 3244.3 761.2 3826.8v26000l-761.2 3826.8-2167.7 3244.3-3244.3 2167.7-3826.8 761.2zM15788750 4640000l1141.8-5740.3 3251.6-4866.3 4866.3-3251.6 5740.3-1141.8h117500l5740.3 1141.8 4866.3 3251.6 3251.6 4866.3 1141.8 5740.3v30000l-1141.8 5740.3-3251.6 4866.3-4866.3 3251.6-5740.3 1141.8h-117500l-5740.3-1141.8-4866.3-3251.6-3251.6-4866.3-1141.8-5740.3zM15788750 4830000l1141.8-5740.3 3251.6-4866.3 4866.3-3251.6 5740.3-1141.8h117500l5740.3 1141.8 4866.3 3251.6 3251.6 4866.3 1141.8 5740.3v30000l-1141.8 5740.3-3251.6 4866.3-4866.3 3251.6-5740.3 1141.8h-117500l-5740.3-1141.8-4866.3-3251.6-3251.6-4866.3-1141.8-5740.3zM15976250 4735000l1141.8-5740.3 3251.6-4866.3 4866.3-3251.6 5740.3-1141.8h117500l5740.3 1141.8 4866.3 3251.6 3251.6 4866.3 1141.8 5740.3v30000l-1141.8 5740.3-3251.6 4866.3-4866.3 3251.6-5740.3 1141.8h-117500l-5740.3-1141.8-4866.3-3251.6-3251.6-4866.3-1141.8-5740.3zM15695000 5990000l761.2-3826.8 2167.7-3244.3 3244.3-2167.7 3826.8-761.2h26000l3826.8 761.2 3244.3 2167.7 2167.7 3244.3 761.2 3826.8v20000l-761.2 3826.8-2167.7 3244.3-3244.3 2167.7-3826.8 761.2h-26000l-3826.8-761.2-3244.3-2167.7-2167.7-3244.3-761.2-3826.8zM15759000 5990000l761.2-3826.8 2167.7-3244.3 3244.3-2167.7 3826.8-761.2h26000l3826.8 761.2 3244.3 2167.7 2167.7 3244.3 761.2 3826.8v20000l-761.2 3826.8-2167.7 3244.3-3244.3 2167.7-3826.8 761.2h-26000l-3826.8-761.2-3244.3-2167.7-2167.7-3244.3-761.2-3826.8zM17135000 4785500l3826.8 761.2 3244.3 2167.7 2167.7 3244.3 761.2 3826.8v26000l-761.2 3826.8-2167.7 3244.3-3244.3 2167.7-3826.8 761.2h-20000l-3826.8-761.2-3244.3-2167.7-2167.7-3244.3-761.2-3826.8v-26000l761.2-3826.8 2167.7-3244.3 3244.3-2167.7 3826.8-761.2zM17135000 4849500l3826.8 761.2 3244.3 2167.7 2167.7 3244.3 761.2 3826.8v26000l-761.2 3826.8-2167.7 3244.3-3244.3 2167.7-3826.8 761.2h-20000l-3826.8-761.2-3244.3-2167.7-2167.7-3244.3-761.2-3826.8v-26000l761.2-3826.8 2167.7-3244.3 3244.3-2167.7 3826.8-761.2zM16165000 5380000l-3826.8-761.2-3244.3-2167.7-2167.7-3244.3-761.2-3826.8v-26000l761.2-3826.8 2167.7-3244.3 3244.3-2167.7 3826.8-761.2h20000l3826.8 761.2 3244.3 2167.7 2167.7 3244.3 761.2 3826.8v26000l-761.2 3826.8-2167.7 3244.3-3244.3 2167.7-3826.8 761.2zM16165000 5316000l-3826.8-761.2-3244.3-2167.7-2167.7-3244.3-761.2-3826.8v-26000l761.2-3826.8 2167.7-3244.3 3244.3-2167.7 3826.8-761.2h20000l3826.8 761.2 3244.3 2167.7 2167.7 3244.3 761.2 3826.8v26000l-761.2 3826.8-2167.7 3244.3-3244.3 2167.7-3826.8 761.2zM17417500 4955000v-170000h170000v170000z" fill-rule="evenodd"/><circle cx="17502500" cy="5124000" r="85000"/><circle cx="17502500" cy="5378000" r="85000"/><circle cx="17502500" cy="5632000" r="85000"/><path d="m15685500 5490000 761.2-3826.8 2167.7-3244.3 3244.3-2167.7 3826.8-761.2h26000l3826.8 761.2 3244.3 2167.7 2167.7 3244.3 761.2 3826.8v20000l-761.2 3826.8-2167.7 3244.3-3244.3 2167.7-3826.8 761.2h-26000l-3826.8-761.2-3244.3-2167.7-2167.7-3244.3-761.2-3826.8zM15750000 5490000l761.2-3826.8 2167.7-3244.3 3244.3-2167.7 3826.8-761.2h26000l3826.8 761.2 3244.3 2167.7 2167.7 3244.3 761.2 3826.8v20000l-761.2 3826.8-2167.7 3244.3-3244.3 2167.7-3826.8 761.2h-26000l-3826.8-761.2-3244.3-2167.7-2167.7-3244.3-761.2-3826.8zM15810000 4995000l3826.8 761.2 3244.3 2167.7 2167.7 3244.3 761.2 3826.8v26000l-761.2 3826.8-2167.7 3244.3-3244.3 2167.7-3826.8 761.2h-20000l-3826.8-761.2-3244.3-2167.7-2167.7-3244.3-761.2-3826.8v-26000l761.2-3826.8 2167.7-3244.3 3244.3-2167.7 3826.8-761.2zM15810000 5059000l3826.8 761.2 3244.3 2167.7 2167.7 3244.3 761.2 3826.8v26000l-761.2 3826.8-2167.7 3244.3-3244.3 2167.7-3826.8 761.2h-20000l-3826.8-761.2-3244.3-2167.7-2167.7-3244.3-761.2-3826.8v-26000l761.2-3826.8 2167.7-3244.3 3244.3-2167.7 3826.8-761.2zM16110000 5015000l761.2-3826.8 2167.7-3244.3 3244.3-2167.7 3826.8-761.2h26000l3826.8 761.2 3244.3 2167.7 2167.7 3244.3 761.2 3826.8v20000l-761.2 3826.8-2167.7 3244.3-3244.3 2167.7-3826.8 761.2h-26000l-3826.8-761.2-3244.3-2167.7-2167.7-3244.3-761.2-3826.8zM16174500 5015000l761.2-3826.8 2167.7-3244.3 3244.3-2167.7 3826.8-761.2h26000l3826.8 761.2 3244.3 2167.7 2167.7 3244.3 761.2 3826.8v20000l-761.2 3826.8-2167.7 3244.3-3244.3 2167.7-3826.8 761.2h-26000l-3826.8-761.2-3244.3-2167.7-2167.7-3244.3-761.2-3826.8zM15920000 5015000l761.2-3826.8 2167.7-3244.3 3244.3-2167.7 3826.8-761.2h26000l3826.8 761.2 3244.3 2167.7 2167.7 3244.3 761.2 3826.8v20000l-761.2 3826.8-2167.7 3244.3-3244.3 2167.7-3826.8 761.2h-26000l-3826.8-761.2-3244.3-2167.7-2167.7-3244.3-761.2-3826.8zM15984000 5015000l761.2-3826.8 2167.7-3244.3 3244.3-2167.7 3826.8-761.2h26000l3826.8 761.2 3244.3 2167.7 2167.7 3244.3 761.2 3826.8v20000l-761.2 3826.8-2167.7 3244.3-3244.3 2167.7-3826.8 761.2h-26000l-3826.8-761.2-3244.3-2167.7-2167.7-3244.3-761.2-3826.8z" fill-rule="evenodd"/></g></mask><mask id="d"><path fill="#fff" d="M9801900 3350300h7975600v6202600H9801900z"/><g fill-opacity="1" stroke="#000" stroke-linecap="round" stroke-linejoin="round" stroke-width=".1"><path d="M15365000 4810000v-170000h170000v170000z" fill-rule="evenodd"/><circle cx="15450000" cy="4979000" r="85000"/><circle cx="15450000" cy="5233000" r="85000"/><circle cx="15450000" cy="5487000" r="85000"/><circle cx="15450000" cy="5741000" r="85000"/><circle cx="15450000" cy="5995000" r="85000"/><path d="m16307500 4752000 1141.8-5740.3 3251.6-4866.3 4866.3-3251.6 5740.3-1141.8h165000l5740.3 1141.8 4866.3 3251.6 3251.6 4866.3 1141.8 5740.3v30000l-1141.8 5740.3-3251.6 4866.3-4866.3 3251.6-5740.3 1141.8h-165000l-5740.3-1141.8-4866.3-3251.6-3251.6-4866.3-1141.8-5740.3zM16307500 4879000l1141.8-5740.3 3251.6-4866.3 4866.3-3251.6 5740.3-1141.8h165000l5740.3 1141.8 4866.3 3251.6 3251.6 4866.3 1141.8 5740.3v30000l-1141.8 5740.3-3251.6 4866.3-4866.3 3251.6-5740.3 1141.8h-165000l-5740.3-1141.8-4866.3-3251.6-3251.6-4866.3-1141.8-5740.3zM16307500 5006000l1141.8-5740.3 3251.6-4866.3 4866.3-3251.6 5740.3-1141.8h165000l5740.3 1141.8 4866.3 3251.6 3251.6 4866.3 1141.8 5740.3v30000l-1141.8 5740.3-3251.6 4866.3-4866.3 3251.6-5740.3 1141.8h-165000l-5740.3-1141.8-4866.3-3251.6-3251.6-4866.3-1141.8-5740.3zM16307500 5133000l1141.8-5740.3 3251.6-4866.3 4866.3-3251.6 5740.3-1141.8h165000l5740.3 1141.8 4866.3 3251.6 3251.6 4866.3 1141.8 5740.3v30000l-1141.8 5740.3-3251.6 4866.3-4866.3 3251.6-5740.3 1141.8h-165000l-5740.3-1141.8-4866.3-3251.6-3251.6-4866.3-1141.8-5740.3zM16307500 5260000l1141.8-5740.3 3251.6-4866.3 4866.3-3251.6 5740.3-1141.8h165000l5740.3 1141.8 4866.3 3251.6 3251.6 4866.3 1141.8 5740.3v30000l-1141.8 5740.3-3251.6 4866.3-4866.3 3251.6-5740.3 1141.8h-165000l-5740.3-1141.8-4866.3-3251.6-3251.6-4866.3-1141.8-5740.3zM16307500 5387000l1141.8-5740.3 3251.6-4866.3 4866.3-3251.6 5740.3-1141.8h165000l5740.3 1141.8 4866.3 3251.6 3251.6 4866.3 1141.8 5740.3v30000l-1141.8 5740.3-3251.6 4866.3-4866.3 3251.6-5740.3 1141.8h-165000l-5740.3-1141.8-4866.3-3251.6-3251.6-4866.3-1141.8-5740.3zM16307500 5514000l1141.8-5740.3 3251.6-4866.3 4866.3-3251.6 5740.3-1141.8h165000l5740.3 1141.8 4866.3 3251.6 3251.6 4866.3 1141.8 5740.3v30000l-1141.8 5740.3-3251.6 4866.3-4866.3 3251.6-5740.3 1141.8h-165000l-5740.3-1141.8-4866.3-3251.6-3251.6-4866.3-1141.8-5740.3zM16307500 5641000l1141.8-5740.3 3251.6-4866.3 4866.3-3251.6 5740.3-1141.8h165000l5740.3 1141.8 4866.3 3251.6 3251.6 4866.3 1141.8 5740.3v30000l-1141.8 5740.3-3251.6 4866.3-4866.3 3251.6-5740.3 1141.8h-165000l-5740.3-1141.8-4866.3-3251.6-3251.6-4866.3-1141.8-5740.3zM16802500 5641000l1141.8-5740.3 3251.6-4866.3 4866.3-3251.6 5740.3-1141.8h165000l5740.3 1141.8 4866.3 3251.6 3251.6 4866.3 1141.8 5740.3v30000l-1141.8 5740.3-3251.6 4866.3-4866.3 3251.6-5740.3 1141.8h-165000l-5740.3-1141.8-4866.3-3251.6-3251.6-4866.3-1141.8-5740.3zM16802500 5514000l1141.8-5740.3 3251.6-4866.3 4866.3-3251.6 5740.3-1141.8h165000l5740.3 1141.8 4866.3 3251.6 3251.6 4866.3 1141.8 5740.3v30000l-1141.8 5740.3-3251.6 4866.3-4866.3 3251.6-5740.3 1141.8h-165000l-5740.3-1141.8-4866.3-3251.6-3251.6-4866.3-1141.8-5740.3zM16802500 5387000l1141.8-5740.3 3251.6-4866.3 4866.3-3251.6 5740.3-1141.8h165000l5740.3 1141.8 4866.3 3251.6 3251.6 4866.3 1141.8 5740.3v30000l-1141.8 5740.3-3251.6 4866.3-4866.3 3251.6-5740.3 1141.8h-165000l-5740.3-1141.8-4866.3-3251.6-3251.6-4866.3-1141.8-5740.3zM16802500 5260000l1141.8-5740.3 3251.6-4866.3 4866.3-3251.6 5740.3-1141.8h165000l5740.3 1141.8 4866.3 3251.6 3251.6 4866.3 1141.8 5740.3v30000l-1141.8 5740.3-3251.6 4866.3-4866.3 3251.6-5740.3 1141.8h-165000l-5740.3-1141.8-4866.3-3251.6-3251.6-4866.3-1141.8-5740.3zM16802500 5133000l1141.8-5740.3 3251.6-4866.3 4866.3-3251.6 5740.3-1141.8h165000l5740.3 1141.8 4866.3 3251.6 3251.6 4866.3 1141.8 5740.3v30000l-1141.8 5740.3-3251.6 4866.3-4866.3 3251.6-5740.3 1141.8h-165000l-5740.3-1141.8-4866.3-3251.6-3251.6-4866.3-1141.8-5740.3zM16802500 5006000l1141.8-5740.3 3251.6-4866.3 4866.3-3251.6 5740.3-1141.8h165000l5740.3 1141.8 4866.3 3251.6 3251.6 4866.3 1141.8 5740.3v30000l-1141.8 5740.3-3251.6 4866.3-4866.3 3251.6-5740.3 1141.8h-165000l-5740.3-1141.8-4866.3-3251.6-3251.6-4866.3-1141.8-5740.3zM16802500 4879000l1141.8-5740.3 3251.6-4866.3 4866.3-3251.6 5740.3-1141.8h165000l5740.3 1141.8 4866.3 3251.6 3251.6 4866.3 1141.8 5740.3v30000l-1141.8 5740.3-3251.6 4866.3-4866.3 3251.6-5740.3 1141.8h-165000l-5740.3-1141.8-4866.3-3251.6-3251.6-4866.3-1141.8-5740.3zM16802500 4752000l1141.8-5740.3 3251.6-4866.3 4866.3-3251.6 5740.3-1141.8h165000l5740.3 1141.8 4866.3 3251.6 3251.6 4866.3 1141.8 5740.3v30000l-1141.8 5740.3-3251.6 4866.3-4866.3 3251.6-5740.3 1141.8h-165000l-5740.3-1141.8-4866.3-3251.6-3251.6-4866.3-1141.8-5740.3zM15940000 6014500l-3826.8-761.2-3244.3-2167.7-2167.7-3244.3-761.2-3826.8v-26000l761.2-3826.8 2167.7-3244.3 3244.3-2167.7 3826.8-761.2h20000l3826.8 761.2 3244.3 2167.7 2167.7 3244.3 761.2 3826.8v26000l-761.2 3826.8-2167.7 3244.3-3244.3 2167.7-3826.8 761.2zM15940000 5950500l-3826.8-761.2-3244.3-2167.7-2167.7-3244.3-761.2-3826.8v-26000l761.2-3826.8 2167.7-3244.3 3244.3-2167.7 3826.8-761.2h20000l3826.8 761.2 3244.3 2167.7 2167.7 3244.3 761.2 3826.8v26000l-761.2 3826.8-2167.7 3244.3-3244.3 2167.7-3826.8 761.2zM15910000 5529500l-3826.8-761.2-3244.3-2167.7-2167.7-3244.3-761.2-3826.8v-26000l761.2-3826.8 2167.7-3244.3 3244.3-2167.7 3826.8-761.2h20000l3826.8 761.2 3244.3 2167.7 2167.7 3244.3 761.2 3826.8v26000l-761.2 3826.8-2167.7 3244.3-3244.3 2167.7-3826.8 761.2zM15910000 5465500l-3826.8-761.2-3244.3-2167.7-2167.7-3244.3-761.2-3826.8v-26000l761.2-3826.8 2167.7-3244.3 3244.3-2167.7 3826.8-761.2h20000l3826.8 761.2 3244.3 2167.7 2167.7 3244.3 761.2 3826.8v26000l-761.2 3826.8-2167.7 3244.3-3244.3 2167.7-3826.8 761.2zM15788750 4640000l1141.8-5740.3 3251.6-4866.3 4866.3-3251.6 5740.3-1141.8h117500l5740.3 1141.8 4866.3 3251.6 3251.6 4866.3 1141.8 5740.3v30000l-1141.8 5740.3-3251.6 4866.3-4866.3 3251.6-5740.3 1141.8h-117500l-5740.3-1141.8-4866.3-3251.6-3251.6-4866.3-1141.8-5740.3zM15788750 4830000l1141.8-5740.3 3251.6-4866.3 4866.3-3251.6 5740.3-1141.8h117500l5740.3 1141.8 4866.3 3251.6 3251.6 4866.3 1141.8 5740.3v30000l-1141.8 5740.3-3251.6 4866.3-4866.3 3251.6-5740.3 1141.8h-117500l-5740.3-1141.8-4866.3-3251.6-3251.6-4866.3-1141.8-5740.3zM15976250 4735000l1141.8-5740.3 3251.6-4866.3 4866.3-3251.6 5740.3-1141.8h117500l5740.3 1141.8 4866.3 3251.6 3251.6 4866.3 1141.8 5740.3v30000l-1141.8 5740.3-3251.6 4866.3-4866.3 3251.6-5740.3 1141.8h-117500l-5740.3-1141.8-4866.3-3251.6-3251.6-4866.3-1141.8-5740.3zM15695000 5990000l761.2-3826.8 2167.7-3244.3 3244.3-2167.7 3826.8-761.2h26000l3826.8 761.2 3244.3 2167.7 2167.7 3244.3 761.2 3826.8v20000l-761.2 3826.8-2167.7 3244.3-3244.3 2167.7-3826.8 761.2h-26000l-3826.8-761.2-3244.3-2167.7-2167.7-3244.3-761.2-3826.8zM15759000 5990000l761.2-3826.8 2167.7-3244.3 3244.3-2167.7 3826.8-761.2h26000l3826.8 761.2 3244.3 2167.7 2167.7 3244.3 761.2 3826.8v20000l-761.2 3826.8-2167.7 3244.3-3244.3 2167.7-3826.8 761.2h-26000l-3826.8-761.2-3244.3-2167.7-2167.7-3244.3-761.2-3826.8zM17135000 4785500l3826.8 761.2 3244.3 2167.7 2167.7 3244.3 761.2 3826.8v26000l-761.2 3826.8-2167.7 3244.3-3244.3 2167.7-3826.8 761.2h-20000l-3826.8-761.2-3244.3-2167.7-2167.7-3244.3-761.2-3826.8v-26000l761.2-3826.8 2167.7-3244.3 3244.3-2167.7 3826.8-761.2zM17135000 4849500l3826.8 761.2 3244.3 2167.7 2167.7 3244.3 761.2 3826.8v26000l-761.2 3826.8-2167.7 3244.3-3244.3 2167.7-3826.8 761.2h-20000l-3826.8-761.2-3244.3-2167.7-2167.7-3244.3-761.2-3826.8v-26000l761.2-3826.8 2167.7-3244.3 3244.3-2167.7 3826.8-761.2zM16165000 5380000l-3826.8-761.2-3244.3-2167.7-2167.7-3244.3-761.2-3826.8v-26000l761.2-3826.8 2167.7-3244.3 3244.3-2167.7 3826.8-761.2h20000l3826.8 761.2 3244.3 2167.7 2167.7 3244.3 761.2 3826.8v26000l-761.2 3826.8-2167.7 3244.3-3244.3 2167.7-3826.8 761.2zM16165000 5316000l-3826.8-761.2-3244.3-2167.7-2167.7-3244.3-761.2-3826.8v-26000l761.2-3826.8 2167.7-3244.3 3244.3-2167.7 3826.8-761.2h20000l3826.8 761.2 3244.3 2167.7 2167.7 3244.3 761.2 3826.8v26000l-761.2 3826.8-2167.7 3244.3-3244.3 2167.7-3826.8 761.2zM17417500 4955000v-170000h170000v170000z" fill-rule="evenodd"/><circle cx="17502500" cy="5124000" r="85000"/><circle cx="17502500" cy="5378000" r="85000"/><circle cx="17502500" cy="5632000" r="85000"/><path d="m15685500 5490000 761.2-3826.8 2167.7-3244.3 3244.3-2167.7 3826.8-761.2h26000l3826.8 761.2 3244.3 2167.7 2167.7 3244.3 761.2 3826.8v20000l-761.2 3826.8-2167.7 3244.3-3244.3 2167.7-3826.8 761.2h-26000l-3826.8-761.2-3244.3-2167.7-2167.7-3244.3-761.2-3826.8zM15750000 5490000l761.2-3826.8 2167.7-3244.3 3244.3-2167.7 3826.8-761.2h26000l3826.8 761.2 3244.3 2167.7 2167.7 3244.3 761.2 3826.8v20000l-761.2 3826.8-2167.7 3244.3-3244.3 2167.7-3826.8 761.2h-26000l-3826.8-761.2-3244.3-2167.7-2167.7-3244.3-761.2-3826.8zM15810000 4995000l3826.8 761.2 3244.3 2167.7 2167.7 3244.3 761.2 3826.8v26000l-761.2 3826.8-2167.7 3244.3-3244.3 2167.7-3826.8 761.2h-20000l-3826.8-761.2-3244.3-2167.7-2167.7-3244.3-761.2-3826.8v-26000l761.2-3826.8 2167.7-3244.3 3244.3-2167.7 3826.8-761.2zM15810000 5059000l3826.8 761.2 3244.3 2167.7 2167.7 3244.3 761.2 3826.8v26000l-761.2 3826.8-2167.7 3244.3-3244.3 2167.7-3826.8 761.2h-20000l-3826.8-761.2-3244.3-2167.7-2167.7-3244.3-761.2-3826.8v-26000l761.2-3826.8 2167.7-3244.3 3244.3-2167.7 3826.8-761.2zM16110000 5015000l761.2-3826.8 2167.7-3244.3 3244.3-2167.7 3826.8-761.2h26000l3826.8 761.2 3244.3 2167.7 2167.7 3244.3 761.2 3826.8v20000l-761.2 3826.8-2167.7 3244.3-3244.3 2167.7-3826.8 761.2h-26000l-3826.8-761.2-3244.3-2167.7-2167.7-3244.3-761.2-3826.8zM16174500 5015000l761.2-3826.8 2167.7-3244.3 3244.3-2167.7 3826.8-761.2h26000l3826.8 761.2 3244.3 2167.7 2167.7 3244.3 761.2 3826.8v20000l-761.2 3826.8-2167.7 3244.3-3244.3 2167.7-3826.8 761.2h-26000l-3826.8-761.2-3244.3-2167.7-2167.7-3244.3-761.2-3826.8zM15920000 5015000l761.2-3826.8 2167.7-3244.3 3244.3-2167.7 3826.8-761.2h26000l3826.8 761.2 3244.3 2167.7 2167.7 3244.3 761.2 3826.8v20000l-761.2 3826.8-2167.7 3244.3-3244.3 2167.7-3826.8 761.2h-26000l-3826.8-761.2-3244.3-2167.7-2167.7-3244.3-761.2-3826.8zM15984000 5015000l761.2-3826.8 2167.7-3244.3 3244.3-2167.7 3826.8-761.2h26000l3826.8 761.2 3244.3 2167.7 2167.7 3244.3 761.2 3826.8v20000l-761.2 3826.8-2167.7 3244.3-3244.3 2167.7-3826.8 761.2h-26000l-3826.8-761.2-3244.3-2167.7-2167.7-3244.3-761.2-3826.8z" fill-rule="evenodd"/></g></mask><mask id="b"><path fill="#fff" d="M9801900 3350300h7975600v6202600H9801900z"/><path stroke="#000" stroke-linecap="round" stroke-width="100000" d="M15450000 4725000h0M15450000 4979000h0M15450000 5233000h0M15450000 5487000h0M15450000 5741000h0M15450000 5995000h0M17502500 4870000h0M17502500 5124000h0M17502500 5378000h0M17502500 5632000h0"/></mask><clipPath id="a"><path d="M9804400 3352800v6197600h7970600V3352800H9804400" fill-rule="evenodd"/></clipPath></defs><g clip-path="url(#a)" mask="url(#b)"><g fill="#313d63" stroke="#313d63"><path d="M9804400 3352800v6197600h7970600V3352800H9804400" fill-rule="evenodd" stroke-width="40774"/><g fill-opacity="0" stroke-linecap="round" stroke-linejoin="round" stroke-width="5000" fill="none"><path d="M17775000 3352800H9804400M9804400 9550400h7970600M17775000 9550400V3352800M9804400 3352800v6197600"/></g></g><g fill-opacity="1" stroke-linecap="round" stroke-linejoin="round" stroke-width=".1" fill="#9c6b28" stroke="#9c6b28"><path d="M15365000 4810000v-170000h170000v170000z" fill-rule="evenodd"/><circle cx="15450000" cy="4979000" r="85000"/><circle cx="15450000" cy="5233000" r="85000"/><circle cx="15450000" cy="5487000" r="85000"/><circle cx="15450000" cy="5741000" r="85000"/><circle cx="15450000" cy="5995000" r="85000"/><g fill-rule="evenodd"><path d="m16307500 4752000 1141.8-5740.3 3251.6-4866.3 4866.3-3251.6 5740.3-1141.8h165000l5740.3 1141.8 4866.3 3251.6 3251.6 4866.3 1141.8 5740.3v30000l-1141.8 5740.3-3251.6 4866.3-4866.3 3251.6-5740.3 1141.8h-165000l-5740.3-1141.8-4866.3-3251.6-3251.6-4866.3-1141.8-5740.3zM16307500 4879000l1141.8-5740.3 3251.6-4866.3 4866.3-3251.6 5740.3-1141.8h165000l5740.3 1141.8 4866.3 3251.6 3251.6 4866.3 1141.8 5740.3v30000l-1141.8 5740.3-3251.6 4866.3-4866.3 3251.6-5740.3 1141.8h-165000l-5740.3-1141.8-4866.3-3251.6-3251.6-4866.3-1141.8-5740.3zM16307500 5006000l1141.8-5740.3 3251.6-4866.3 4866.3-3251.6 5740.3-1141.8h165000l5740.3 1141.8 4866.3 3251.6 3251.6 4866.3 1141.8 5740.3v30000l-1141.8 5740.3-3251.6 4866.3-4866.3 3251.6-5740.3 1141.8h-165000l-5740.3-1141.8-4866.3-3251.6-3251.6-4866.3-1141.8-5740.3zM16307500 5133000l1141.8-5740.3 3251.6-4866.3 4866.3-3251.6 5740.3-1141.8h165000l5740.3 1141.8 4866.3 3251.6 3251.6 4866.3 1141.8 5740.3v30000l-1141.8 5740.3-3251.6 4866.3-4866.3 3251.6-5740.3 1141.8h-165000l-5740.3-1141.8-4866.3-3251.6-3251.6-4866.3-1141.8-5740.3zM16307500 5260000l1141.8-5740.3 3251.6-4866.3 4866.3-3251.6 5740.3-1141.8h165000l5740.3 1141.8 4866.3 3251.6 3251.6 4866.3 1141.8 5740.3v30000l-1141.8 5740.3-3251.6 4866.3-4866.3 3251.6-5740.3 1141.8h-165000l-5740.3-1141.8-4866.3-3251.6-3251.6-4866.3-1141.8-5740.3zM16307500 5387000l1141.8-5740.3 3251.6-4866.3 4866.3-3251.6 5740.3-1141.8h165000l5740.3 1141.8 4866.3 3251.6 3251.6 4866.3 1141.8 5740.3v30000l-1141.8 5740.3-3251.6 4866.3-4866.3 3251.6-5740.3 1141.8h-165000l-5740.3-1141.8-4866.3-3251.6-3251.6-4866.3-1141.8-5740.3zM16307500 5514000l1141.8-5740.3 3251.6-4866.3 4866.3-3251.6 5740.3-1141.8h165000l5740.3 1141.8 4866.3 3251.6 3251.6 4866.3 1141.8 5740.3v30000l-1141.8 5740.3-3251.6 4866.3-4866.3 3251.6-5740.3 1141.8h-165000l-5740.3-1141.8-4866.3-3251.6-3251.6-4866.3-1141.8-5740.3zM16307500 5641000l1141.8-5740.3 3251.6-4866.3 4866.3-3251.6 5740.3-1141.8h165000l5740.3 1141.8 4866.3 3251.6 3251.6 4866.3 1141.8 5740.3v30000l-1141.8 5740.3-3251.6 4866.3-4866.3 3251.6-5740.3 1141.8h-165000l-5740.3-1141.8-4866.3-3251.6-3251.6-4866.3-1141.8-5740.3zM16802500 5641000l1141.8-5740.3 3251.6-4866.3 4866.3-3251.6 5740.3-1141.8h165000l5740.3 1141.8 4866.3 3251.6 3251.6 4866.3 1141.8 5740.3v30000l-1141.8 5740.3-3251.6 4866.3-4866.3 3251.6-5740.3 1141.8h-165000l-5740.3-1141.8-4866.3-3251.6-3251.6-4866.3-1141.8-5740.3zM16802500 5514000l1141.8-5740.3 3251.6-4866.3 4866.3-3251.6 5740.3-1141.8h165000l5740.3 1141.8 4866.3 3251.6 3251.6 4866.3 1141.8 5740.3v30000l-1141.8 5740.3-3251.6 4866.3-4866.3 3251.6-5740.3 1141.8h-165000l-5740.3-1141.8-4866.3-3251.6-3251.6-4866.3-1141.8-5740.3zM16802500 5387000l1141.8-5740.3 3251.6-4866.3 4866.3-3251.6 5740.3-1141.8h165000l5740.3 1141.8 4866.3 3251.6 3251.6 4866.3 1141.8 5740.3v30000l-1141.8 5740.3-3251.6 4866.3-4866.3 3251.6-5740.3 1141.8h-165000l-5740.3-1141.8-4866.3-3251.6-3251.6-4866.3-1141.8-5740.3zM16802500 5260000l1141.8-5740.3 3251.6-4866.3 4866.3-3251.6 5740.3-1141.8h165000l5740.3 1141.8 4866.3 3251.6 3251.6 4866.3 1141.8 5740.3v30000l-1141.8 5740.3-3251.6 4866.3-4866.3 3251.6-5740.3 1141.8h-165000l-5740.3-1141.8-4866.3-3251.6-3251.6-4866.3-1141.8-5740.3zM16802500 5133000l1141.8-5740.3 3251.6-4866.3 4866.3-3251.6 5740.3-1141.8h165000l5740.3 1141.8 4866.3 3251.6 3251.6 4866.3 1141.8 5740.3v30000l-1141.8 5740.3-3251.6 4866.3-4866.3 3251.6-5740.3 1141.8h-165000l-5740.3-1141.8-4866.3-3251.6-3251.6-4866.3-1141.8-5740.3zM16802500 5006000l1141.8-5740.3 3251.6-4866.3 4866.3-3251.6 5740.3-1141.8h165000l5740.3 1141.8 4866.3 3251.6 3251.6 4866.3 1141.8 5740.3v30000l-1141.8 5740.3-3251.6 4866.3-4866.3 3251.6-5740.3 1141.8h-165000l-5740.3-1141.8-4866.3-3251.6-3251.6-4866.3-1141.8-5740.3zM16802500 4879000l1141.8-5740.3 3251.6-4866.3 4866.3-3251.6 5740.3-1141.8h165000l5740.3 1141.8 4866.3 3251.6 3251.6 4866.3 1141.8 5740.3v30000l-1141.8 5740.3-3251.6 4866.3-4866.3 3251.6-5740.3 1141.8h-165000l-5740.3-1141.8-4866.3-3251.6-3251.6-4866.3-1141.8-5740.3zM16802500 4752000l1141.8-5740.3 3251.6-4866.3 4866.3-3251.6 5740.3-1141.8h165000l5740.3 1141.8 4866.3 3251.6 3251.6 4866.3 1141.8 5740.3v30000l-1141.8 5740.3-3251.6 4866.3-4866.3 3251.6-5740.3 1141.8h-165000l-5740.3-1141.8-4866.3-3251.6-3251.6-4866.3-1141.8-5740.3zM15940000 6014500l-3826.8-761.2-3244.3-2167.7-2167.7-3244.3-761.2-3826.8v-26000l761.2-3826.8 2167.7-3244.3 3244.3-2167.7 3826.8-761.2h20000l3826.8 761.2 3244.3 2167.7 2167.7 3244.3 761.2 3826.8v26000l-761.2 3826.8-2167.7 3244.3-3244.3 2167.7-3826.8 761.2zM15940000 5950500l-3826.8-761.2-3244.3-2167.7-2167.7-3244.3-761.2-3826.8v-26000l761.2-3826.8 2167.7-3244.3 3244.3-2167.7 3826.8-761.2h20000l3826.8 761.2 3244.3 2167.7 2167.7 3244.3 761.2 3826.8v26000l-761.2 3826.8-2167.7 3244.3-3244.3 2167.7-3826.8 761.2zM15910000 5529500l-3826.8-761.2-3244.3-2167.7-2167.7-3244.3-761.2-3826.8v-26000l761.2-3826.8 2167.7-3244.3 3244.3-2167.7 3826.8-761.2h20000l3826.8 761.2 3244.3 2167.7 2167.7 3244.3 761.2 3826.8v26000l-761.2 3826.8-2167.7 3244.3-3244.3 2167.7-3826.8 761.2zM15910000 5465500l-3826.8-761.2-3244.3-2167.7-2167.7-3244.3-761.2-3826.8v-26000l761.2-3826.8 2167.7-3244.3 3244.3-2167.7 3826.8-761.2h20000l3826.8 761.2 3244.3 2167.7 2167.7 3244.3 761.2 3826.8v26000l-761.2 3826.8-2167.7 3244.3-3244.3 2167.7-3826.8 761.2zM15788750 4640000l1141.8-5740.3 3251.6-4866.3 4866.3-3251.6 5740.3-1141.8h117500l5740.3 1141.8 4866.3 3251.6 3251.6 4866.3 1141.8 5740.3v30000l-1141.8 5740.3-3251.6 4866.3-4866.3 3251.6-5740.3 1141.8h-117500l-5740.3-1141.8-4866.3-3251.6-3251.6-4866.3-1141.8-5740.3zM15788750 4830000l1141.8-5740.3 3251.6-4866.3 4866.3-3251.6 5740.3-1141.8h117500l5740.3 1141.8 4866.3 3251.6 3251.6 4866.3 1141.8 5740.3v30000l-1141.8 5740.3-3251.6 4866.3-4866.3 3251.6-5740.3 1141.8h-117500l-5740.3-1141.8-4866.3-3251.6-3251.6-4866.3-1141.8-5740.3zM15976250 4735000l1141.8-5740.3 3251.6-4866.3 4866.3-3251.6 5740.3-1141.8h117500l5740.3 1141.8 4866.3 3251.6 3251.6 4866.3 1141.8 5740.3v30000l-1141.8 5740.3-3251.6 4866.3-4866.3 3251.6-5740.3 1141.8h-117500l-5740.3-1141.8-4866.3-3251.6-3251.6-4866.3-1141.8-5740.3zM15695000 5990000l761.2-3826.8 2167.7-3244.3 3244.3-2167.7 3826.8-761.2h26000l3826.8 761.2 3244.3 2167.7 2167.7 3244.3 761.2 3826.8v20000l-761.2 3826.8-2167.7 3244.3-3244.3 2167.7-3826.8 761.2h-26000l-3826.8-761.2-3244.3-2167.7-2167.7-3244.3-761.2-3826.8zM15759000 5990000l761.2-3826.8 2167.7-3244.3 3244.3-2167.7 3826.8-761.2h26000l3826.8 761.2 3244.3 2167.7 2167.7 3244.3 761.2 3826.8v20000l-761.2 3826.8-2167.7 3244.3-3244.3 2167.7-3826.8 761.2h-26000l-3826.8-761.2-3244.3-2167.7-2167.7-3244.3-761.2-3826.8zM17135000 4785500l3826.8 761.2 3244.3 2167.7 2167.7 3244.3 761.2 3826.8v26000l-761.2 3826.8-2167.7 3244.3-3244.3 2167.7-3826.8 761.2h-20000l-3826.8-761.2-3244.3-2167.7-2167.7-3244.3-761.2-3826.8v-26000l761.2-3826.8 2167.7-3244.3 3244.3-2167.7 3826.8-761.2zM17135000 4849500l3826.8 761.2 3244.3 2167.7 2167.7 3244.3 761.2 3826.8v26000l-761.2 3826.8-2167.7 3244.3-3244.3 2167.7-3826.8 761.2h-20000l-3826.8-761.2-3244.3-2167.7-2167.7-3244.3-761.2-3826.8v-26000l761.2-3826.8 2167.7-3244.3 3244.3-2167.7 3826.8-761.2zM16165000 5380000l-3826.8-761.2-3244.3-2167.7-2167.7-3244.3-761.2-3826.8v-26000l761.2-3826.8 2167.7-3244.3 3244.3-2167.7 3826.8-761.2h20000l3826.8 761.2 3244.3 2167.7 2167.7 3244.3 761.2 3826.8v26000l-761.2 3826.8-2167.7 3244.3-3244.3 2167.7-3826.8 761.2zM16165000 5316000l-3826.8-761.2-3244.3-2167.7-2167.7-3244.3-761.2-3826.8v-26000l761.2-3826.8 2167.7-3244.3 3244.3-2167.7 3826.8-761.2h20000l3826.8 761.2 3244.3 2167.7 2167.7 3244.3 761.2 3826.8v26000l-761.2 3826.8-2167.7 3244.3-3244.3 2167.7-3826.8 761.2zM17417500 4955000v-170000h170000v170000z"/></g><circle cx="17502500" cy="5124000" r="85000"/><circle cx="17502500" cy="5378000" r="85000"/><circle cx="17502500" cy="5632000" r="85000"/><g fill-rule="evenodd"><path d="m15685500 5490000 761.2-3826.8 2167.7-3244.3 3244.3-2167.7 3826.8-761.2h26000l3826.8 761.2 3244.3 2167.7 2167.7 3244.3 761.2 3826.8v20000l-761.2 3826.8-2167.7 3244.3-3244.3 2167.7-3826.8 761.2h-26000l-3826.8-761.2-3244.3-2167.7-2167.7-3244.3-761.2-3826.8zM15750000 5490000l761.2-3826.8 2167.7-3244.3 3244.3-2167.7 3826.8-761.2h26000l3826.8 761.2 3244.3 2167.7 2167.7 3244.3 761.2 3826.8v20000l-761.2 3826.8-2167.7 3244.3-3244.3 2167.7-3826.8 761.2h-26000l-3826.8-761.2-3244.3-2167.7-2167.7-3244.3-761.2-3826.8zM15810000 4995000l3826.8 761.2 3244.3 2167.7 2167.7 3244.3 761.2 3826.8v26000l-761.2 3826.8-2167.7 3244.3-3244.3 2167.7-3826.8 761.2h-20000l-3826.8-761.2-3244.3-2167.7-2167.7-3244.3-761.2-3826.8v-26000l761.2-3826.8 2167.7-3244.3 3244.3-2167.7 3826.8-761.2zM15810000 5059000l3826.8 761.2 3244.3 2167.7 2167.7 3244.3 761.2 3826.8v26000l-761.2 3826.8-2167.7 3244.3-3244.3 2167.7-3826.8 761.2h-20000l-3826.8-761.2-3244.3-2167.7-2167.7-3244.3-761.2-3826.8v-26000l761.2-3826.8 2167.7-3244.3 3244.3-2167.7 3826.8-761.2zM16110000 5015000l761.2-3826.8 2167.7-3244.3 3244.3-2167.7 3826.8-761.2h26000l3826.8 761.2 3244.3 2167.7 2167.7 3244.3 761.2 3826.8v20000l-761.2 3826.8-2167.7 3244.3-3244.3 2167.7-3826.8 761.2h-26000l-3826.8-761.2-3244.3-2167.7-2167.7-3244.3-761.2-3826.8zM16174500 5015000l761.2-3826.8 2167.7-3244.3 3244.3-2167.7 3826.8-761.2h26000l3826.8 761.2 3244.3 2167.7 2167.7 3244.3 761.2 3826.8v20000l-761.2 3826.8-2167.7 3244.3-3244.3 2167.7-3826.8 761.2h-26000l-3826.8-761.2-3244.3-2167.7-2167.7-3244.3-761.2-3826.8zM15920000 5015000l761.2-3826.8 2167.7-3244.3 3244.3-2167.7 3826.8-761.2h26000l3826.8 761.2 3244.3 2167.7 2167.7 3244.3 761.2 3826.8v20000l-761.2 3826.8-2167.7 3244.3-3244.3 2167.7-3826.8 761.2h-26000l-3826.8-761.2-3244.3-2167.7-2167.7-3244.3-761.2-3826.8zM15984000 5015000l761.2-3826.8 2167.7-3244.3 3244.3-2167.7 3826.8-761.2h26000l3826.8 761.2 3244.3 2167.7 2167.7 3244.3 761.2 3826.8v20000l-761.2 3826.8-2167.7 3244.3-3244.3 2167.7-3826.8 761.2h-26000l-3826.8-761.2-3244.3-2167.7-2167.7-3244.3-761.2-3826.8z"/></g></g><g stroke-linecap="round" stroke-linejoin="round" fill="#212d53" stroke="#212d53"><g stroke-width=".1"><path d="M15365000 4810000v-170000h170000v170000z" fill-rule="evenodd"/><circle cx="15450000" cy="4979000" r="85000"/><circle cx="15450000" cy="5233000" r="85000"/><circle cx="15450000" cy="5487000" r="85000"/><circle cx="15450000" cy="5741000" r="85000"/><circle cx="15450000" cy="5995000" r="85000"/><g fill-rule="evenodd"><path d="m16307500 4752000 1141.8-5740.3 3251.6-4866.3 4866.3-3251.6 5740.3-1141.8h165000l5740.3 1141.8 4866.3 3251.6 3251.6 4866.3 1141.8 5740.3v30000l-1141.8 5740.3-3251.6 4866.3-4866.3 3251.6-5740.3 1141.8h-165000l-5740.3-1141.8-4866.3-3251.6-3251.6-4866.3-1141.8-5740.3zM16307500 4879000l1141.8-5740.3 3251.6-4866.3 4866.3-3251.6 5740.3-1141.8h165000l5740.3 1141.8 4866.3 3251.6 3251.6 4866.3 1141.8 5740.3v30000l-1141.8 5740.3-3251.6 4866.3-4866.3 3251.6-5740.3 1141.8h-165000l-5740.3-1141.8-4866.3-3251.6-3251.6-4866.3-1141.8-5740.3zM16307500 5006000l1141.8-5740.3 3251.6-4866.3 4866.3-3251.6 5740.3-1141.8h165000l5740.3 1141.8 4866.3 3251.6 3251.6 4866.3 1141.8 5740.3v30000l-1141.8 5740.3-3251.6 4866.3-4866.3 3251.6-5740.3 1141.8h-165000l-5740.3-1141.8-4866.3-3251.6-3251.6-4866.3-1141.8-5740.3zM16307500 5133000l1141.8-5740.3 3251.6-4866.3 4866.3-3251.6 5740.3-1141.8h165000l5740.3 1141.8 4866.3 3251.6 3251.6 4866.3 1141.8 5740.3v30000l-1141.8 5740.3-3251.6 4866.3-4866.3 3251.6-5740.3 1141.8h-165000l-5740.3-1141.8-4866.3-3251.6-3251.6-4866.3-1141.8-5740.3zM16307500 5260000l1141.8-5740.3 3251.6-4866.3 4866.3-3251.6 5740.3-1141.8h165000l5740.3 1141.8 4866.3 3251.6 3251.6 4866.3 1141.8 5740.3v30000l-1141.8 5740.3-3251.6 4866.3-4866.3 3251.6-5740.3 1141.8h-165000l-5740.3-1141.8-4866.3-3251.6-3251.6-4866.3-1141.8-5740.3zM16307500 5387000l1141.8-5740.3 3251.6-4866.3 4866.3-3251.6 5740.3-1141.8h165000l5740.3 1141.8 4866.3 3251.6 3251.6 4866.3 1141.8 5740.3v30000l-1141.8 5740.3-3251.6 4866.3-4866.3 3251.6-5740.3 1141.8h-165000l-5740.3-1141.8-4866.3-3251.6-3251.6-4866.3-1141.8-5740.3zM16307500 5514000l1141.8-5740.3 3251.6-4866.3 4866.3-3251.6 5740.3-1141.8h165000l5740.3 1141.8 4866.3 3251.6 3251.6 4866.3 1141.8 5740.3v30000l-1141.8 5740.3-3251.6 4866.3-4866.3 3251.6-5740.3 1141.8h-165000l-5740.3-1141.8-4866.3-3251.6-3251.6-4866.3-1141.8-5740.3zM16307500 5641000l1141.8-5740.3 3251.6-4866.3 4866.3-3251.6 5740.3-1141.8h165000l5740.3 1141.8 4866.3 3251.6 3251.6 4866.3 1141.8 5740.3v30000l-1141.8 5740.3-3251.6 4866.3-4866.3 3251.6-5740.3 1141.8h-165000l-5740.3-1141.8-4866.3-3251.6-3251.6-4866.3-1141.8-5740.3zM16802500 5641000l1141.8-5740.3 3251.6-4866.3 4866.3-3251.6 5740.3-1141.8h165000l5740.3 1141.8 4866.3 3251.6 3251.6 4866.3 1141.8 5740.3v30000l-1141.8 5740.3-3251.6 4866.3-4866.3 3251.6-5740.3 1141.8h-165000l-5740.3-1141.8-4866.3-3251.6-3251.6-4866.3-1141.8-5740.3zM16802500 5514000l1141.8-5740.3 3251.6-4866.3 4866.3-3251.6 5740.3-1141.8h165000l5740.3 1141.8 4866.3 3251.6 3251.6 4866.3 1141.8 5740.3v30000l-1141.8 5740.3-3251.6 4866.3-4866.3 3251.6-5740.3 1141.8h-165000l-5740.3-1141.8-4866.3-3251.6-3251.6-4866.3-1141.8-5740.3zM16802500 5387000l1141.8-5740.3 3251.6-4866.3 4866.3-3251.6 5740.3-1141.8h165000l5740.3 1141.8 4866.3 3251.6 3251.6 4866.3 1141.8 5740.3v30000l-1141.8 5740.3-3251.6 4866.3-4866.3 3251.6-5740.3 1141.8h-165000l-5740.3-1141.8-4866.3-3251.6-3251.6-4866.3-1141.8-5740.3zM16802500 5260000l1141.8-5740.3 3251.6-4866.3 4866.3-3251.6 5740.3-1141.8h165000l5740.3 1141.8 4866.3 3251.6 3251.6 4866.3 1141.8 5740.3v30000l-1141.8 5740.3-3251.6 4866.3-4866.3 3251.6-5740.3 1141.8h-165000l-5740.3-1141.8-4866.3-3251.6-3251.6-4866.3-1141.8-5740.3zM16802500 5133000l1141.8-5740.3 3251.6-4866.3 4866.3-3251.6 5740.3-1141.8h165000l5740.3 1141.8 4866.3 3251.6 3251.6 4866.3 1141.8 5740.3v30000l-1141.8 5740.3-3251.6 4866.3-4866.3 3251.6-5740.3 1141.8h-165000l-5740.3-1141.8-4866.3-3251.6-3251.6-4866.3-1141.8-5740.3zM16802500 5006000l1141.8-5740.3 3251.6-4866.3 4866.3-3251.6 5740.3-1141.8h165000l5740.3 1141.8 4866.3 3251.6 3251.6 4866.3 1141.8 5740.3v30000l-1141.8 5740.3-3251.6 4866.3-4866.3 3251.6-5740.3 1141.8h-165000l-5740.3-1141.8-4866.3-3251.6-3251.6-4866.3-1141.8-5740.3zM16802500 4879000l1141.8-5740.3 3251.6-4866.3 4866.3-3251.6 5740.3-1141.8h165000l5740.3 1141.8 4866.3 3251.6 3251.6 4866.3 1141.8 5740.3v30000l-1141.8 5740.3-3251.6 4866.3-4866.3 3251.6-5740.3 1141.8h-165000l-5740.3-1141.8-4866.3-3251.6-3251.6-4866.3-1141.8-5740.3zM16802500 4752000l1141.8-5740.3 3251.6-4866.3 4866.3-3251.6 5740.3-1141.8h165000l5740.3 1141.8 4866.3 3251.6 3251.6 4866.3 1141.8 5740.3v30000l-1141.8 5740.3-3251.6 4866.3-4866.3 3251.6-5740.3 1141.8h-165000l-5740.3-1141.8-4866.3-3251.6-3251.6-4866.3-1141.8-5740.3zM15940000 6014500l-3826.8-761.2-3244.3-2167.7-2167.7-3244.3-761.2-3826.8v-26000l761.2-3826.8 2167.7-3244.3 3244.3-2167.7 3826.8-761.2h20000l3826.8 761.2 3244.3 2167.7 2167.7 3244.3 761.2 3826.8v26000l-761.2 3826.8-2167.7 3244.3-3244.3 2167.7-3826.8 761.2zM15940000 5950500l-3826.8-761.2-3244.3-2167.7-2167.7-3244.3-761.2-3826.8v-26000l761.2-3826.8 2167.7-3244.3 3244.3-2167.7 3826.8-761.2h20000l3826.8 761.2 3244.3 2167.7 2167.7 3244.3 761.2 3826.8v26000l-761.2 3826.8-2167.7 3244.3-3244.3 2167.7-3826.8 761.2zM15910000 5529500l-3826.8-761.2-3244.3-2167.7-2167.7-3244.3-761.2-3826.8v-26000l761.2-3826.8 2167.7-3244.3 3244.3-2167.7 3826.8-761.2h20000l3826.8 761.2 3244.3 2167.7 2167.7 3244.3 761.2 3826.8v26000l-761.2 3826.8-2167.7 3244.3-3244.3 2167.7-3826.8 761.2zM15910000 5465500l-3826.8-761.2-3244.3-2167.7-2167.7-3244.3-761.2-3826.8v-26000l761.2-3826.8 2167.7-3244.3 3244.3-2167.7 3826.8-761.2h20000l3826.8 761.2 3244.3 2167.7 2167.7 3244.3 761.2 3826.8v26000l-761.2 3826.8-2167.7 3244.3-3244.3 2167.7-3826.8 761.2zM15788750 4640000l1141.8-5740.3 3251.6-4866.3 4866.3-3251.6 5740.3-1141.8h117500l5740.3 1141.8 4866.3 3251.6 3251.6 4866.3 1141.8 5740.3v30000l-1141.8 5740.3-3251.6 4866.3-4866.3 3251.6-5740.3 1141.8h-117500l-5740.3-1141.8-4866.3-3251.6-3251.6-4866.3-1141.8-5740.3zM15788750 4830000l1141.8-5740.3 3251.6-4866.3 4866.3-3251.6 5740.3-1141.8h117500l5740.3 1141.8 4866.3 3251.6 3251.6 4866.3 1141.8 5740.3v30000l-1141.8 5740.3-3251.6 4866.3-4866.3 3251.6-5740.3 1141.8h-117500l-5740.3-1141.8-4866.3-3251.6-3251.6-4866.3-1141.8-5740.3zM15976250 4735000l1141.8-5740.3 3251.6-4866.3 4866.3-3251.6 5740.3-1141.8h117500l5740.3 1141.8 4866.3 3251.6 3251.6 4866.3 1141.8 5740.3v30000l-1141.8 5740.3-3251.6 4866.3-4866.3 3251.6-5740.3 1141.8h-117500l-5740.3-1141.8-4866.3-3251.6-3251.6-4866.3-1141.8-5740.3zM15695000 5990000l761.2-3826.8 2167.7-3244.3 3244.3-2167.7 3826.8-761.2h26000l3826.8 761.2 3244.3 2167.7 2167.7 3244.3 761.2 3826.8v20000l-761.2 3826.8-2167.7 3244.3-3244.3 2167.7-3826.8 761.2h-26000l-3826.8-761.2-3244.3-2167.7-2167.7-3244.3-761.2-3826.8zM15759000 5990000l761.2-3826.8 2167.7-3244.3 3244.3-2167.7 3826.8-761.2h26000l3826.8 761.2 3244.3 2167.7 2167.7 3244.3 761.2 3826.8v20000l-761.2 3826.8-2167.7 3244.3-3244.3 2167.7-3826.8 761.2h-26000l-3826.8-761.2-3244.3-2167.7-2167.7-3244.3-761.2-3826.8zM17135000 4785500l3826.8 761.2 3244.3 2167.7 2167.7 3244.3 761.2 3826.8v26000l-761.2 3826.8-2167.7 3244.3-3244.3 2167.7-3826.8 761.2h-20000l-3826.8-761.2-3244.3-2167.7-2167.7-3244.3-761.2-3826.8v-26000l761.2-3826.8 2167.7-3244.3 3244.3-2167.7 3826.8-761.2zM17135000 4849500l3826.8 761.2 3244.3 2167.7 2167.7 3244.3 761.2 3826.8v26000l-761.2 3826.8-2167.7 3244.3-3244.3 2167.7-3826.8 761.2h-20000l-3826.8-761.2-3244.3-2167.7-2167.7-3244.3-761.2-3826.8v-26000l761.2-3826.8 2167.7-3244.3 3244.3-2167.7 3826.8-761.2zM16165000 5380000l-3826.8-761.2-3244.3-2167.7-2167.7-3244.3-761.2-3826.8v-26000l761.2-3826.8 2167.7-3244.3 3244.3-2167.7 3826.8-761.2h20000l3826.8 761.2 3244.3 2167.7 2167.7 3244.3 761.2 3826.8v26000l-761.2 3826.8-2167.7 3244.3-3244.3 2167.7-3826.8 761.2zM16165000 5316000l-3826.8-761.2-3244.3-2167.7-2167.7-3244.3-761.2-3826.8v-26000l761.2-3826.8 2167.7-3244.3 3244.3-2167.7 3826.8-761.2h20000l3826.8 761.2 3244.3 2167.7 2167.7 3244.3 761.2 3826.8v26000l-761.2 3826.8-2167.7 3244.3-3244.3 2167.7-3826.8 761.2zM17417500 4955000v-170000h170000v170000z"/></g><circle cx="17502500" cy="5124000" r="85000"/><circle cx="17502500" cy="5378000" r="85000"/><circle cx="17502500" cy="5632000" r="85000"/><g fill-rule="evenodd"><path d="m15685500 5490000 761.2-3826.8 2167.7-3244.3 3244.3-2167.7 3826.8-761.2h26000l3826.8 761.2 3244.3 2167.7 2167.7 3244.3 761.2 3826.8v20000l-761.2 3826.8-2167.7 3244.3-3244.3 2167.7-3826.8 761.2h-26000l-3826.8-761.2-3244.3-2167.7-2167.7-3244.3-761.2-3826.8zM15750000 5490000l761.2-3826.8 2167.7-3244.3 3244.3-2167.7 3826.8-761.2h26000l3826.8 761.2 3244.3 2167.7 2167.7 3244.3 761.2 3826.8v20000l-761.2 3826.8-2167.7 3244.3-3244.3 2167.7-3826.8 761.2h-26000l-3826.8-761.2-3244.3-2167.7-2167.7-3244.3-761.2-3826.8zM15810000 4995000l3826.8 761.2 3244.3 2167.7 2167.7 3244.3 761.2 3826.8v26000l-761.2 3826.8-2167.7 3244.3-3244.3 2167.7-3826.8 761.2h-20000l-3826.8-761.2-3244.3-2167.7-2167.7-3244.3-761.2-3826.8v-26000l761.2-3826.8 2167.7-3244.3 3244.3-2167.7 3826.8-761.2zM15810000 5059000l3826.8 761.2 3244.3 2167.7 2167.7 3244.3 761.2 3826.8v26000l-761.2 3826.8-2167.7 3244.3-3244.3 2167.7-3826.8 761.2h-20000l-3826.8-761.2-3244.3-2167.7-2167.7-3244.3-761.2-3826.8v-26000l761.2-3826.8 2167.7-3244.3 3244.3-2167.7 3826.8-761.2zM16110000 5015000l761.2-3826.8 2167.7-3244.3 3244.3-2167.7 3826.8-761.2h26000l3826.8 761.2 3244.3 2167.7 2167.7 3244.3 761.2 3826.8v20000l-761.2 3826.8-2167.7 3244.3-3244.3 2167.7-3826.8 761.2h-26000l-3826.8-761.2-3244.3-2167.7-2167.7-3244.3-761.2-3826.8zM16174500 5015000l761.2-3826.8 2167.7-3244.3 3244.3-2167.7 3826.8-761.2h26000l3826.8 761.2 3244.3 2167.7 2167.7 3244.3 761.2 3826.8v20000l-761.2 3826.8-2167.7 3244.3-3244.3 2167.7-3826.8 761.2h-26000l-3826.8-761.2-3244.3-2167.7-2167.7-3244.3-761.2-3826.8zM15920000 5015000l761.2-3826.8 2167.7-3244.3 3244.3-2167.7 3826.8-761.2h26000l3826.8 761.2 3244.3 2167.7 2167.7 3244.3 761.2 3826.8v20000l-761.2 3826.8-2167.7 3244.3-3244.3 2167.7-3826.8 761.2h-26000l-3826.8-761.2-3244.3-2167.7-2167.7-3244.3-761.2-3826.8zM15984000 5015000l761.2-3826.8 2167.7-3244.3 3244.3-2167.7 3826.8-761.2h26000l3826.8 761.2 3244.3 2167.7 2167.7 3244.3 761.2 3826.8v20000l-761.2 3826.8-2167.7 3244.3-3244.3 2167.7-3826.8 761.2h-26000l-3826.8-761.2-3244.3-2167.7-2167.7-3244.3-761.2-3826.8z"/></g></g><g fill-opacity="0" stroke-width="25000" fill="none"><path d="M17125000 4808500h316000M16900000 4767000h-495000M17083500 4767000l41500 41500M15862500 4655000h430500M16293000 4655000l112000 112000M16900000 4767000h183500M17441000 4808500l61500 61500M17125000 4872500h-203500M17380000 5000000h260000M16900000 4894000v127000M17640000 5000000l80000 80000M17720000 5080000v480000M17720000 5560000l-72000 72000M17648000 5632000h-145500M17125000 4872500h127500M17252500 4872500l127500 127500M16921500 4872500l-21500 21500M15920000 5506500l149500 149500M16070000 5656000h335500M15772500 5500000h141000M15913500 5500000l6500 6500M16405000 5529000h-216000M15922500 5440000l-2500 2500M15710000 5233000l209500 209500M15450000 5233000h260500M16100000 5440000h-177500M16189000 5529000l-89000-89000M15950000 5991500h-159500M17080000 5560000l-31000-31000M17049000 5529000h-149000M15950000 5991500h858500M15790000 5991500l-8500 8500M17080000 5720000v-160000M16808500 5991500l271500-271500M15763500 5741000l186500 186500M15950000 5927500h462500M16684000 5656000h216000M15450000 5741000h313500M16412500 5927500l271500-271500M16105000 4845000l92500 92500M16197500 4937500v87500M15742500 4725000l120000 120000M15800000 4907500l62500-62500M15862500 4845000h242500M15800000 5018000v-110500M15450000 4725000h292500M16201500 5021000l-4000 4000M16405000 5021000h-203500M16060000 5140000l120000 120000M16038895 5140000h21105M15943000 5044104l95895 95896M15722000 5082000h78000M16193000 5275000l-18000 18000M16405000 5275000h-212000M16180000 5260000v28000M16180000 5288000l-5000 5000M15619000 4979000l103000 103000M15800000 5082000h86000M15943000 5025000v19104M15450000 4979000h169000M15886000 5082000l57000-57000M16220000 5402000l-45000-45000M16405000 5402000h-185000M15695500 5487000h-245500M15708500 5500000l-13000-13000M15713000 5995000h-263000M15718000 6000000l-5000-5000M17360000 5500000h260000M16900000 5402000h362000M17618500 5240000l-116000-116000M17660000 5260000l-20000-20000M17620000 5500000l40000-40000M17262000 5402000l98000 98000M17660000 5460000v-200000M17640000 5240000h-21500M16900000 5275000h499500M17400000 5275000l103000 103000M16050000 4750000h60000M16110000 4750000l144000 144000M16254000 4894000h151000M16133500 5025000h-126500M16133500 5113500l34500 34500M16133500 5025000v88500M16168000 5148000h237000"/></g></g><g stroke-linecap="round" stroke-linejoin="round" fill="#b5ae30" mask="url(#c)" stroke="#b5ae30"><g stroke-width=".1"><path d="M15365000 4810000v-170000h170000v170000z" fill-rule="evenodd"/><circle cx="15450000" cy="4979000" r="85000"/><circle cx="15450000" cy="5233000" r="85000"/><circle cx="15450000" cy="5487000" r="85000"/><circle cx="15450000" cy="5741000" r="85000"/><circle cx="15450000" cy="5995000" r="85000"/><g fill-rule="evenodd"><path d="m16307500 4752000 1141.8-5740.3 3251.6-4866.3 4866.3-3251.6 5740.3-1141.8h165000l5740.3 1141.8 4866.3 3251.6 3251.6 4866.3 1141.8 5740.3v30000l-1141.8 5740.3-3251.6 4866.3-4866.3 3251.6-5740.3 1141.8h-165000l-5740.3-1141.8-4866.3-3251.6-3251.6-4866.3-1141.8-5740.3zM16307500 4879000l1141.8-5740.3 3251.6-4866.3 4866.3-3251.6 5740.3-1141.8h165000l5740.3 1141.8 4866.3 3251.6 3251.6 4866.3 1141.8 5740.3v30000l-1141.8 5740.3-3251.6 4866.3-4866.3 3251.6-5740.3 1141.8h-165000l-5740.3-1141.8-4866.3-3251.6-3251.6-4866.3-1141.8-5740.3zM16307500 5006000l1141.8-5740.3 3251.6-4866.3 4866.3-3251.6 5740.3-1141.8h165000l5740.3 1141.8 4866.3 3251.6 3251.6 4866.3 1141.8 5740.3v30000l-1141.8 5740.3-3251.6 4866.3-4866.3 3251.6-5740.3 1141.8h-165000l-5740.3-1141.8-4866.3-3251.6-3251.6-4866.3-1141.8-5740.3zM16307500 5133000l1141.8-5740.3 3251.6-4866.3 4866.3-3251.6 5740.3-1141.8h165000l5740.3 1141.8 4866.3 3251.6 3251.6 4866.3 1141.8 5740.3v30000l-1141.8 5740.3-3251.6 4866.3-4866.3 3251.6-5740.3 1141.8h-165000l-5740.3-1141.8-4866.3-3251.6-3251.6-4866.3-1141.8-5740.3zM16307500 5260000l1141.8-5740.3 3251.6-4866.3 4866.3-3251.6 5740.3-1141.8h165000l5740.3 1141.8 4866.3 3251.6 3251.6 4866.3 1141.8 5740.3v30000l-1141.8 5740.3-3251.6 4866.3-4866.3 3251.6-5740.3 1141.8h-165000l-5740.3-1141.8-4866.3-3251.6-3251.6-4866.3-1141.8-5740.3zM16307500 5387000l1141.8-5740.3 3251.6-4866.3 4866.3-3251.6 5740.3-1141.8h165000l5740.3 1141.8 4866.3 3251.6 3251.6 4866.3 1141.8 5740.3v30000l-1141.8 5740.3-3251.6 4866.3-4866.3 3251.6-5740.3 1141.8h-165000l-5740.3-1141.8-4866.3-3251.6-3251.6-4866.3-1141.8-5740.3zM16307500 5514000l1141.8-5740.3 3251.6-4866.3 4866.3-3251.6 5740.3-1141.8h165000l5740.3 1141.8 4866.3 3251.6 3251.6 4866.3 1141.8 5740.3v30000l-1141.8 5740.3-3251.6 4866.3-4866.3 3251.6-5740.3 1141.8h-165000l-5740.3-1141.8-4866.3-3251.6-3251.6-4866.3-1141.8-5740.3zM16307500 5641000l1141.8-5740.3 3251.6-4866.3 4866.3-3251.6 5740.3-1141.8h165000l5740.3 1141.8 4866.3 3251.6 3251.6 4866.3 1141.8 5740.3v30000l-1141.8 5740.3-3251.6 4866.3-4866.3 3251.6-5740.3 1141.8h-165000l-5740.3-1141.8-4866.3-3251.6-3251.6-4866.3-1141.8-5740.3zM16802500 5641000l1141.8-5740.3 3251.6-4866.3 4866.3-3251.6 5740.3-1141.8h165000l5740.3 1141.8 4866.3 3251.6 3251.6 4866.3 1141.8 5740.3v30000l-1141.8 5740.3-3251.6 4866.3-4866.3 3251.6-5740.3 1141.8h-165000l-5740.3-1141.8-4866.3-3251.6-3251.6-4866.3-1141.8-5740.3zM16802500 5514000l1141.8-5740.3 3251.6-4866.3 4866.3-3251.6 5740.3-1141.8h165000l5740.3 1141.8 4866.3 3251.6 3251.6 4866.3 1141.8 5740.3v30000l-1141.8 5740.3-3251.6 4866.3-4866.3 3251.6-5740.3 1141.8h-165000l-5740.3-1141.8-4866.3-3251.6-3251.6-4866.3-1141.8-5740.3zM16802500 5387000l1141.8-5740.3 3251.6-4866.3 4866.3-3251.6 5740.3-1141.8h165000l5740.3 1141.8 4866.3 3251.6 3251.6 4866.3 1141.8 5740.3v30000l-1141.8 5740.3-3251.6 4866.3-4866.3 3251.6-5740.3 1141.8h-165000l-5740.3-1141.8-4866.3-3251.6-3251.6-4866.3-1141.8-5740.3zM16802500 5260000l1141.8-5740.3 3251.6-4866.3 4866.3-3251.6 5740.3-1141.8h165000l5740.3 1141.8 4866.3 3251.6 3251.6 4866.3 1141.8 5740.3v30000l-1141.8 5740.3-3251.6 4866.3-4866.3 3251.6-5740.3 1141.8h-165000l-5740.3-1141.8-4866.3-3251.6-3251.6-4866.3-1141.8-5740.3zM16802500 5133000l1141.8-5740.3 3251.6-4866.3 4866.3-3251.6 5740.3-1141.8h165000l5740.3 1141.8 4866.3 3251.6 3251.6 4866.3 1141.8 5740.3v30000l-1141.8 5740.3-3251.6 4866.3-4866.3 3251.6-5740.3 1141.8h-165000l-5740.3-1141.8-4866.3-3251.6-3251.6-4866.3-1141.8-5740.3zM16802500 5006000l1141.8-5740.3 3251.6-4866.3 4866.3-3251.6 5740.3-1141.8h165000l5740.3 1141.8 4866.3 3251.6 3251.6 4866.3 1141.8 5740.3v30000l-1141.8 5740.3-3251.6 4866.3-4866.3 3251.6-5740.3 1141.8h-165000l-5740.3-1141.8-4866.3-3251.6-3251.6-4866.3-1141.8-5740.3zM16802500 4879000l1141.8-5740.3 3251.6-4866.3 4866.3-3251.6 5740.3-1141.8h165000l5740.3 1141.8 4866.3 3251.6 3251.6 4866.3 1141.8 5740.3v30000l-1141.8 5740.3-3251.6 4866.3-4866.3 3251.6-5740.3 1141.8h-165000l-5740.3-1141.8-4866.3-3251.6-3251.6-4866.3-1141.8-5740.3zM16802500 4752000l1141.8-5740.3 3251.6-4866.3 4866.3-3251.6 5740.3-1141.8h165000l5740.3 1141.8 4866.3 3251.6 3251.6 4866.3 1141.8 5740.3v30000l-1141.8 5740.3-3251.6 4866.3-4866.3 3251.6-5740.3 1141.8h-165000l-5740.3-1141.8-4866.3-3251.6-3251.6-4866.3-1141.8-5740.3zM15940000 6014500l-3826.8-761.2-3244.3-2167.7-2167.7-3244.3-761.2-3826.8v-26000l761.2-3826.8 2167.7-3244.3 3244.3-2167.7 3826.8-761.2h20000l3826.8 761.2 3244.3 2167.7 2167.7 3244.3 761.2 3826.8v26000l-761.2 3826.8-2167.7 3244.3-3244.3 2167.7-3826.8 761.2zM15940000 5950500l-3826.8-761.2-3244.3-2167.7-2167.7-3244.3-761.2-3826.8v-26000l761.2-3826.8 2167.7-3244.3 3244.3-2167.7 3826.8-761.2h20000l3826.8 761.2 3244.3 2167.7 2167.7 3244.3 761.2 3826.8v26000l-761.2 3826.8-2167.7 3244.3-3244.3 2167.7-3826.8 761.2zM15910000 5529500l-3826.8-761.2-3244.3-2167.7-2167.7-3244.3-761.2-3826.8v-26000l761.2-3826.8 2167.7-3244.3 3244.3-2167.7 3826.8-761.2h20000l3826.8 761.2 3244.3 2167.7 2167.7 3244.3 761.2 3826.8v26000l-761.2 3826.8-2167.7 3244.3-3244.3 2167.7-3826.8 761.2zM15910000 5465500l-3826.8-761.2-3244.3-2167.7-2167.7-3244.3-761.2-3826.8v-26000l761.2-3826.8 2167.7-3244.3 3244.3-2167.7 3826.8-761.2h20000l3826.8 761.2 3244.3 2167.7 2167.7 3244.3 761.2 3826.8v26000l-761.2 3826.8-2167.7 3244.3-3244.3 2167.7-3826.8 761.2zM15788750 4640000l1141.8-5740.3 3251.6-4866.3 4866.3-3251.6 5740.3-1141.8h117500l5740.3 1141.8 4866.3 3251.6 3251.6 4866.3 1141.8 5740.3v30000l-1141.8 5740.3-3251.6 4866.3-4866.3 3251.6-5740.3 1141.8h-117500l-5740.3-1141.8-4866.3-3251.6-3251.6-4866.3-1141.8-5740.3zM15788750 4830000l1141.8-5740.3 3251.6-4866.3 4866.3-3251.6 5740.3-1141.8h117500l5740.3 1141.8 4866.3 3251.6 3251.6 4866.3 1141.8 5740.3v30000l-1141.8 5740.3-3251.6 4866.3-4866.3 3251.6-5740.3 1141.8h-117500l-5740.3-1141.8-4866.3-3251.6-3251.6-4866.3-1141.8-5740.3zM15976250 4735000l1141.8-5740.3 3251.6-4866.3 4866.3-3251.6 5740.3-1141.8h117500l5740.3 1141.8 4866.3 3251.6 3251.6 4866.3 1141.8 5740.3v30000l-1141.8 5740.3-3251.6 4866.3-4866.3 3251.6-5740.3 1141.8h-117500l-5740.3-1141.8-4866.3-3251.6-3251.6-4866.3-1141.8-5740.3zM15695000 5990000l761.2-3826.8 2167.7-3244.3 3244.3-2167.7 3826.8-761.2h26000l3826.8 761.2 3244.3 2167.7 2167.7 3244.3 761.2 3826.8v20000l-761.2 3826.8-2167.7 3244.3-3244.3 2167.7-3826.8 761.2h-26000l-3826.8-761.2-3244.3-2167.7-2167.7-3244.3-761.2-3826.8zM15759000 5990000l761.2-3826.8 2167.7-3244.3 3244.3-2167.7 3826.8-761.2h26000l3826.8 761.2 3244.3 2167.7 2167.7 3244.3 761.2 3826.8v20000l-761.2 3826.8-2167.7 3244.3-3244.3 2167.7-3826.8 761.2h-26000l-3826.8-761.2-3244.3-2167.7-2167.7-3244.3-761.2-3826.8zM17135000 4785500l3826.8 761.2 3244.3 2167.7 2167.7 3244.3 761.2 3826.8v26000l-761.2 3826.8-2167.7 3244.3-3244.3 2167.7-3826.8 761.2h-20000l-3826.8-761.2-3244.3-2167.7-2167.7-3244.3-761.2-3826.8v-26000l761.2-3826.8 2167.7-3244.3 3244.3-2167.7 3826.8-761.2zM17135000 4849500l3826.8 761.2 3244.3 2167.7 2167.7 3244.3 761.2 3826.8v26000l-761.2 3826.8-2167.7 3244.3-3244.3 2167.7-3826.8 761.2h-20000l-3826.8-761.2-3244.3-2167.7-2167.7-3244.3-761.2-3826.8v-26000l761.2-3826.8 2167.7-3244.3 3244.3-2167.7 3826.8-761.2zM16165000 5380000l-3826.8-761.2-3244.3-2167.7-2167.7-3244.3-761.2-3826.8v-26000l761.2-3826.8 2167.7-3244.3 3244.3-2167.7 3826.8-761.2h20000l3826.8 761.2 3244.3 2167.7 2167.7 3244.3 761.2 3826.8v26000l-761.2 3826.8-2167.7 3244.3-3244.3 2167.7-3826.8 761.2zM16165000 5316000l-3826.8-761.2-3244.3-2167.7-2167.7-3244.3-761.2-3826.8v-26000l761.2-3826.8 2167.7-3244.3 3244.3-2167.7 3826.8-761.2h20000l3826.8 761.2 3244.3 2167.7 2167.7 3244.3 761.2 3826.8v26000l-761.2 3826.8-2167.7 3244.3-3244.3 2167.7-3826.8 761.2zM17417500 4955000v-170000h170000v170000z"/></g><circle cx="17502500" cy="5124000" r="85000"/><circle cx="17502500" cy="5378000" r="85000"/><circle cx="17502500" cy="5632000" r="85000"/><g fill-rule="evenodd"><path d="m15685500 5490000 761.2-3826.8 2167.7-3244.3 3244.3-2167.7 3826.8-761.2h26000l3826.8 761.2 3244.3 2167.7 2167.7 3244.3 761.2 3826.8v20000l-761.2 3826.8-2167.7 3244.3-3244.3 2167.7-3826.8 761.2h-26000l-3826.8-761.2-3244.3-2167.7-2167.7-3244.3-761.2-3826.8zM15750000 5490000l761.2-3826.8 2167.7-3244.3 3244.3-2167.7 3826.8-761.2h26000l3826.8 761.2 3244.3 2167.7 2167.7 3244.3 761.2 3826.8v20000l-761.2 3826.8-2167.7 3244.3-3244.3 2167.7-3826.8 761.2h-26000l-3826.8-761.2-3244.3-2167.7-2167.7-3244.3-761.2-3826.8zM15810000 4995000l3826.8 761.2 3244.3 2167.7 2167.7 3244.3 761.2 3826.8v26000l-761.2 3826.8-2167.7 3244.3-3244.3 2167.7-3826.8 761.2h-20000l-3826.8-761.2-3244.3-2167.7-2167.7-3244.3-761.2-3826.8v-26000l761.2-3826.8 2167.7-3244.3 3244.3-2167.7 3826.8-761.2zM15810000 5059000l3826.8 761.2 3244.3 2167.7 2167.7 3244.3 761.2 3826.8v26000l-761.2 3826.8-2167.7 3244.3-3244.3 2167.7-3826.8 761.2h-20000l-3826.8-761.2-3244.3-2167.7-2167.7-3244.3-761.2-3826.8v-26000l761.2-3826.8 2167.7-3244.3 3244.3-2167.7 3826.8-761.2zM16110000 5015000l761.2-3826.8 2167.7-3244.3 3244.3-2167.7 3826.8-761.2h26000l3826.8 761.2 3244.3 2167.7 2167.7 3244.3 761.2 3826.8v20000l-761.2 3826.8-2167.7 3244.3-3244.3 2167.7-3826.8 761.2h-26000l-3826.8-761.2-3244.3-2167.7-2167.7-3244.3-761.2-3826.8zM16174500 5015000l761.2-3826.8 2167.7-3244.3 3244.3-2167.7 3826.8-761.2h26000l3826.8 761.2 3244.3 2167.7 2167.7 3244.3 761.2 3826.8v20000l-761.2 3826.8-2167.7 3244.3-3244.3 2167.7-3826.8 761.2h-26000l-3826.8-761.2-3244.3-2167.7-2167.7-3244.3-761.2-3826.8zM15920000 5015000l761.2-3826.8 2167.7-3244.3 3244.3-2167.7 3826.8-761.2h26000l3826.8 761.2 3244.3 2167.7 2167.7 3244.3 761.2 3826.8v20000l-761.2 3826.8-2167.7 3244.3-3244.3 2167.7-3826.8 761.2h-26000l-3826.8-761.2-3244.3-2167.7-2167.7-3244.3-761.2-3826.8zM15984000 5015000l761.2-3826.8 2167.7-3244.3 3244.3-2167.7 3826.8-761.2h26000l3826.8 761.2 3244.3 2167.7 2167.7 3244.3 761.2 3826.8v20000l-761.2 3826.8-2167.7 3244.3-3244.3 2167.7-3826.8 761.2h-26000l-3826.8-761.2-3244.3-2167.7-2167.7-3244.3-761.2-3826.8z"/></g></g><g fill-opacity="0" stroke-width="25000" fill="none"><path d="M17125000 4808500h316000M16900000 4767000h-495000M17083500 4767000l41500 41500M15862500 4655000h430500M16293000 4655000l112000 112000M16900000 4767000h183500M17441000 4808500l61500 61500M17125000 4872500h-203500M17380000 5000000h260000M16900000 4894000v127000M17640000 5000000l80000 80000M17720000 5080000v480000M17720000 5560000l-72000 72000M17648000 5632000h-145500M17125000 4872500h127500M17252500 4872500l127500 127500M16921500 4872500l-21500 21500M15920000 5506500l149500 149500M16070000 5656000h335500M15772500 5500000h141000M15913500 5500000l6500 6500M16405000 5529000h-216000M15922500 5440000l-2500 2500M15710000 5233000l209500 209500M15450000 5233000h260500M16100000 5440000h-177500M16189000 5529000l-89000-89000M15950000 5991500h-159500M17080000 5560000l-31000-31000M17049000 5529000h-149000M15950000 5991500h858500M15790000 5991500l-8500 8500M17080000 5720000v-160000M16808500 5991500l271500-271500M15763500 5741000l186500 186500M15950000 5927500h462500M16684000 5656000h216000M15450000 5741000h313500M16412500 5927500l271500-271500M16105000 4845000l92500 92500M16197500 4937500v87500M15742500 4725000l120000 120000M15800000 4907500l62500-62500M15862500 4845000h242500M15800000 5018000v-110500M15450000 4725000h292500M16201500 5021000l-4000 4000M16405000 5021000h-203500M16060000 5140000l120000 120000M16038895 5140000h21105M15943000 5044104l95895 95896M15722000 5082000h78000M16193000 5275000l-18000 18000M16405000 5275000h-212000M16180000 5260000v28000M16180000 5288000l-5000 5000M15619000 4979000l103000 103000M15800000 5082000h86000M15943000 5025000v19104M15450000 4979000h169000M15886000 5082000l57000-57000M16220000 5402000l-45000-45000M16405000 5402000h-185000M15695500 5487000h-245500M15708500 5500000l-13000-13000M15713000 5995000h-263000M15718000 6000000l-5000-5000M17360000 5500000h260000M16900000 5402000h362000M17618500 5240000l-116000-116000M17660000 5260000l-20000-20000M17620000 5500000l40000-40000M17262000 5402000l98000 98000M17660000 5460000v-200000M17640000 5240000h-21500M16900000 5275000h499500M17400000 5275000l103000 103000M16050000 4750000h60000M16110000 4750000l144000 144000M16254000 4894000h151000M16133500 5025000h-126500M16133500 5113500l34500 34500M16133500 5025000v88500M16168000 5148000h237000"/></g></g><g fill="#f0f0f0" fill-opacity="0" mask="url(#d)" stroke="#f0f0f0" stroke-linecap="round" stroke-linejoin="round"><g class="stroked-text" stroke-width="75000"><path d="M10772857 3945714v-300000M10772857 3788571h171428M10944285 3945714v-300000M11058571 3645714l200000 300000M11258571 3645714l-200000 300000M11344285 3645714h200000l-128571 300000M11815714 3945714h-171429M11730000 3945714v-300000l-28572 42857-28571 28571-28572 14286M12101428 3945714h-171428M12015714 3945714v-300000l-28572 42857-28571 28571-28571 14286" fill="none"/></g><g class="stroked-text" stroke-width="37500"><path d="m10396303 8617357 35714 150000 28572-107143 28571 107143 35715-150000M10639160 8760214l-14285 7143h-28572l-14286-7143-7142-14286v-57143l7142-14285 14286-7143h28572l14285 7143 7143 14285v14286l-71428 14286M10710589 8767357v-100000M10710589 8617357l-7143 7143 7143 7142 7143-7142-7143-7143v14285M10846303 8667357v121428l-7143 14286-7143 7143-14285 7143h-21429l-14286-7143" fill="none"/><path d="m10846303 8760214-14286 7143h-28571l-14286-7143-7143-7143-7142-14286v-42857l7142-14286 7143-7142 14286-7143h28571l14286 7143M10917732 8767357v-150000M10982017 8767357v-78572l-7142-14285-14286-7143h-21429l-14285 7143-7143 7142M11032017 8667357h57143M11053446 8617357v128571l7143 14286 14286 7143h14285M11253446 8767357v-150000M11267732 8710214l42857 57143M11310589 8667357l-57143 57143M11439160 8667357v121428l-7143 14286-7142 7143-14286 7143h-21429l-14285-7143" fill="none"/><path d="m11439160 8760214-14285 7143h-28572l-14286-7143-7142-7143-7143-14286v-42857l7143-14286 7142-7142 14286-7143h28572l14285 7143" fill="none"/></g><g stroke-width="12000" fill="none"><path d="M15450000 4592000h133000M15583000 4592000v133000M15583000 4852000v1276000M15317000 4852000h266000M15317000 6128000h266000M15317000 4852000v1276000M16652500 5717500h-195000M16652500 4705500h-345000M16652500 4705500h195000M16652500 5717500h195000M15956250 4906000h65000M15956250 4594000h65000M15956250 4906000h-65000M15956250 4594000h-167500M17635500 4997000v768000M17370000 5765000h266000M17635500 4737000v133000M17370000 4997000h266000M17502500 4737000h133000M17370000 4997000v768000"/></g></g><g stroke="#000" stroke-width="15000"><g fill-opacity="0" stroke-linecap="round" stroke-linejoin="round" fill="none"><path d="M17775000 3352800H9804400M9804400 9550400h7970600M17775000 9550400V3352800M9804400 3352800v6197600"/></g><path d="M15400000 4725000a50000 50000 0 1 1 100000 0 50000 50000 0 1 1-100000 0zM15400000 4979000a50000 50000 0 1 1 100000 0 50000 50000 0 1 1-100000 0zM15400000 5233000a50000 50000 0 1 1 100000 0 50000 50000 0 1 1-100000 0zM15400000 5487000a50000 50000 0 1 1 100000 0 50000 50000 0 1 1-100000 0zM15400000 5741000a50000 50000 0 1 1 100000 0 50000 50000 0 1 1-100000 0zM15400000 5995000a50000 50000 0 1 1 100000 0 50000 50000 0 1 1-100000 0zM17452500 4870000a50000 50000 0 1 1 100000 0 50000 50000 0 1 1-100000 0zM17452500 5124000a50000 50000 0 1 1 100000 0 50000 50000 0 1 1-100000 0zM17452500 5378000a50000 50000 0 1 1 100000 0 50000 50000 0 1 1-100000 0zM17452500 5632000a50000 50000 0 1 1 100000 0 50000 50000 0 1 1-100000 0z"/></g></g><g stroke-width=".093"><g transform="matrix(100000 0 0 -100000 15450000 4725000)"><path d="M1.27-13.97V1.27h-2.54v-15.24z" fill="#1a1a1a" fill-rule="evenodd" stroke="#000"/><path d="M-.6.6V-.6H.6V.6z" fill="gray" fill-rule="evenodd" stroke="#000"/><g fill="#666" fill-rule="evenodd" stroke="#000"><path d="M.6-3.14v1.2H-.6v-1.2zM.6-5.68v1.2H-.6v-1.2zM-.6-13.3H.6v1.2H-.6zM-.6-10.76H.6v1.2H-.6zM-.6-8.22H.6v1.2H-.6z"/></g><g fill="none" stroke="#000"><path d="m-.6.6.299-.299M-.6-.6l.299.299M-.301.301v-.602M.6.6.301.301M.301.301h-.602M.6-.6l-.299.299M.301-.301v.602M-.301-.301h.602M-.6-3.14l.299.299M.6-3.14l-.299.299M-.301-2.841h.602M-.6-1.94l.299-.299M-.301-2.239v-.602M.6-1.94l-.299-.299M.301-2.239h-.602M.301-2.841v.602M.6-5.68l-.299.299M.6-4.48l-.299-.299M.301-5.381v.602M-.6-5.68l.299.299M-.301-5.381h.602M-.6-4.48l.299-.299M-.301-4.779v-.602M.301-4.779h-.602M-.6-12.1l.299-.299M-.6-13.3l.299.299M-.301-12.399v-.602M.6-12.1l-.299-.299M.301-12.399h-.602M.6-13.3l-.299.299M.301-13.001v.602M-.301-13.001h.602M-.6-10.76l.299.299M.6-10.76l-.299.299M-.301-10.461h.602M-.6-9.56l.299-.299M-.301-9.859v-.602M.6-9.56l-.299-.299M.301-9.859h-.602M.301-10.461v.602M.6-8.22l-.299.299M.6-7.02l-.299-.299M.301-7.921v.602M-.6-8.22l.299.299M-.301-7.921h.602M-.6-7.02l.299-.299M-.301-7.319v-.602M.301-7.319h-.602"/></g><g fill="olive" fill-rule="evenodd" stroke="#000"><path d="M.3-.3v.6h-.6v-.6zM-.3-2.84h.6v.6h-.6zM.3-5.38v.6h-.6v-.6zM.3-13v.6h-.6v-.6zM-.3-10.46h.6v.6h-.6zM.3-7.92v.6h-.6v-.6z"/></g><g fill="none" stroke="#000"><path d="M-.1.25V.3M-.1-.25v.5M-.1-.3v.05M.1-.3v.05M-.1-.25h.2M.1-.25v.5M.1.25V.3M-.1.25h.2M-.1-2.29v.05M-.1-2.79v.5M-.1-2.84v.05"/></g><path d="M.1-2.84v.05" fill="olive" fill-rule="evenodd" stroke="#000"/><g fill="none" stroke="#000"><path d="M-.1-2.79h.2M.1-2.79v.5M.1-2.29v.05M-.1-2.29h.2M-.1-4.83v.05M-.1-5.33v.5M-.1-5.38v.05M.1-5.38v.05M-.1-5.33h.2M.1-5.33v.5M.1-4.83v.05M-.1-4.83h.2M-.1-12.45v.05M-.1-12.95v.5M-.1-13v.05M.1-13v.05M-.1-12.95h.2M.1-12.95v.5M.1-12.45v.05M-.1-12.45h.2M-.1-9.91v.05M-.1-10.41v.5M-.1-10.46v.05M.1-10.46v.05M-.1-10.41h.2M.1-10.41v.5M.1-9.91v.05M-.1-9.91h.2M-.1-7.37v.05M-.1-7.87v.5M-.1-7.92v.05M.1-7.92v.05M-.1-7.87h.2M.1-7.87v.5M.1-7.37v.05M-.1-7.37h.2"/></g></g></g><g stroke="#000" stroke-width=".093" transform="translate(16346500 4710500) scale(100000)"><path d="M5.01.36v9.425l-.175.175h-3.55l-.175-.175V.235L1.285.06h3.55l.175.175z" fill="#1a1a1a"/><g fill="none"><path d="m5.01.235-.075.037M4.935.273V.36M4.935.77v.86M4.935 2.04v.86M4.935 3.31v.86M4.935 4.58v.86M4.935 5.85v.86M4.935 7.12v.86M4.935 8.39v.86M4.935 9.66v.087M4.935 9.748 4.82 9.69M4.82.33v9.36M4.935.273 4.82.33M5.01 9.785l-.075-.037M4.835.06l-.037.075M4.74.25l.08.08M4.798.135 4.74.25M1.38.25h3.36M1.3.33l.08-.08M1.3 9.69V.33M1.38 9.77l-.08-.08M4.74 9.77H1.38M4.82 9.69l-.08.08"/></g><circle transform="scale(1 -1)" cx="2.1" cy="-1.05" r=".3" fill="#333"/><g fill="none"><path d="m4.935 9.748-.138.137M4.798 9.885 4.74 9.77M4.835 9.96l-.037-.075M1.323.135h3.474M1.285.06l.037.075M1.323.135 1.38.25M1.185.273l.138-.138M1.185.273 1.3.33M1.185 9.748V9.66M1.185 9.25v-.86M1.185 7.98v-.86M1.185 6.71v-.86M1.185 5.44v-.86M1.185 4.17v-.86M1.185 2.9v-.86M1.185 1.63V.77M1.185.36V.273M1.185 9.748 1.3 9.69M1.323 9.885l-.138-.138M1.323 9.885l.057-.115M4.798 9.885H1.323M1.285 9.96l.037-.075M1.11 9.785l.075-.037M1.11.235l.075.037"/></g><path d="M6.06 9.25v.41H4.935v-.41h.725z" fill="gray" fill-rule="evenodd"/><g fill="none"><path d="M5.56 9.25v.41M5.26 9.25v.41M5.66 9.25v.41"/></g><path d="M.06 9.66v-.41h1.125v.41H.46z" fill="gray" fill-rule="evenodd"/><g fill="none"><path d="M.56 9.66v-.41M.86 9.66v-.41M.46 9.66v-.41"/></g><path d="M6.06 7.98v.41H4.935v-.41h.725z" fill="gray" fill-rule="evenodd"/><g fill="none"><path d="M5.56 7.98v.41M5.26 7.98v.41M5.66 7.98v.41"/></g><path d="M6.06 6.71v.41H4.935v-.41h.725z" fill="gray" fill-rule="evenodd"/><g fill="none"><path d="M5.56 6.71v.41M5.26 6.71v.41M5.66 6.71v.41"/></g><path d="M6.06 5.44v.41H4.935v-.41h.725z" fill="gray" fill-rule="evenodd"/><g fill="none"><path d="M5.56 5.44v.41M5.26 5.44v.41M5.66 5.44v.41"/></g><path d="M6.06 4.17v.41H4.935v-.41h.725z" fill="gray" fill-rule="evenodd"/><g fill="none"><path d="M5.56 4.17v.41M5.26 4.17v.41M5.66 4.17v.41"/></g><path d="M6.06 2.9v.41H4.935V2.9h.725z" fill="gray" fill-rule="evenodd"/><g fill="none"><path d="M5.56 2.9v.41M5.26 2.9v.41M5.66 2.9v.41"/></g><path d="M6.06 1.63v.41H4.935v-.41h.725z" fill="gray" fill-rule="evenodd"/><g fill="none"><path d="M5.56 1.63v.41M5.26 1.63v.41M5.66 1.63v.41"/></g><path d="M6.06.36v.41H4.935V.36h.725z" fill="gray" fill-rule="evenodd"/><g fill="none"><path d="M5.56.36v.41M5.26.36v.41M5.66.36v.41"/></g><path d="M.06 8.39v-.41h1.125v.41H.46z" fill="gray" fill-rule="evenodd"/><g fill="none"><path d="M.56 8.39v-.41M.86 8.39v-.41M.46 8.39v-.41"/></g><path d="M.06 7.12v-.41h1.125v.41H.46z" fill="gray" fill-rule="evenodd"/><g fill="none"><path d="M.56 7.12v-.41M.86 7.12v-.41M.46 7.12v-.41"/></g><path d="M.06 5.85v-.41h1.125v.41H.46z" fill="gray" fill-rule="evenodd"/><g fill="none"><path d="M.56 5.85v-.41M.86 5.85v-.41M.46 5.85v-.41"/></g><path d="M.06 4.58v-.41h1.125v.41H.46z" fill="gray" fill-rule="evenodd"/><g fill="none"><path d="M.56 4.58v-.41M.86 4.58v-.41M.46 4.58v-.41"/></g><path d="M.06 3.31V2.9h1.125v.41H.46z" fill="gray" fill-rule="evenodd"/><g fill="none"><path d="M.56 3.31V2.9M.86 3.31V2.9M.46 3.31V2.9"/></g><path d="M.06 2.04v-.41h1.125v.41H.46z" fill="gray" fill-rule="evenodd"/><g fill="none"><path d="M.56 2.04v-.41M.86 2.04v-.41M.46 2.04v-.41"/></g><path d="M.06.77V.36h1.125v.41H.46z" fill="gray" fill-rule="evenodd"/><g fill="none"><path d="M.56.77V.36M.86.77V.36M.46.77V.36"/></g></g><g transform="rotate(-90 10919750 -4928950) scale(100000)"><g id="e" stroke-width=".013"><path d="M.163 1.148v-.27h.3v.27h-.3z" fill="#f95" stroke="#000"/><g transform="matrix(1 0 0 -1 .313 1.013)"><path d="M-.3.15h.15v-.3H-.3v.3zM.15-.15H.3v.3H.15v-.3z" fill="#b3b3b3" fill-rule="evenodd" stroke="#191919"/><path d="M-.3-.135h.15M-.3.135h.15M-.15.12h.3M-.15-.12h.3M.15-.135H.3M.15.135H.3" fill="none" stroke="#191919"/></g></g></g><use xlink:href="#e" transform="rotate(-90 10662250 -5156450) scale(100000)"/><g stroke="#000" stroke-width=".093"><g fill="none"><path d="M15895750 4600000h121000M16016750 4600000l9500 9500M16016750 4600000l-1250 2500M15897000 4602500h118500M15895750 4600000l1250 2500M15886250 4609500l9500-9500M16026250 4609500v120500M16026250 4770000v120500M16026250 4890500l-9500 9500M16016750 4900000h-121000M15895750 4900000l-9500-9500M15886250 4890500v-25500M15886250 4635000v-25500M15886250 4825000v-150000M16026250 4609500l-2500 1250M16015500 4602500l8250 8250M16015500 4602500l-3337.8 6675.7M15897000 4602500l3337.8 6675.7M15888750 4610750l8250-8250M15886250 4609500l2500 1250M16023750 4610750v119250M16026250 4890500l-2500-1250M16023750 4770000v119250M16016750 4900000l-1250-2500M16023750 4889250l-8250 8250M15895750 4900000l1250-2500M16015500 4897500h-118500M15886250 4890500l2500-1250M15897000 4897500l-8250-8250M15888750 4889250v-24250M15888750 4635000v-24250M15888750 4825000v-150000M16023750 4610750l-6675.7 3337.8" stroke-width="9300"/></g><path d="M16017070 4614088v271820l-4912.2 4912.2.04-.05h-111820l-4912.2-4912.2.005.05v-271820l4912.2-4912.2-.005.05h111820l4912.2 4912.2z" fill="#1a1a1a" fill-rule="evenodd" stroke-width="9300"/><g fill="none"><path d="m15888750 4610750 6675.7 3337.8M16023750 4730000v40000M16023750 4889250l-6675.7-3337.8M16015500 4897500l-3337.8-6675.7M15897000 4897500l3337.8-6675.7M15888750 4889250l6675.7-3337.8M15888750 4865000v-40000M15888750 4675000v-40000" stroke-width="9300"/></g><path d="M16081250 4730000v40000h-55000v-40000h35000z" fill="gray" fill-rule="evenodd" stroke-width="9300"/><path d="M16051250 4730000v40000M16061250 4730000v40000" fill="none" stroke-width="9300"/><g fill="none"><path d="M16026250 4730000h-2500M16026250 4770000h-2500M15886250 4865000h2500M15886250 4635000h2500M15886250 4825000h2500M15886250 4675000h2500" stroke-width="9300"/></g><path d="M15833750 4865000v-40000h55000v40000h-35000z" fill="gray" fill-rule="evenodd" stroke-width="9300"/><path d="M15863750 4865000v-40000M15853750 4865000v-40000" fill="none" stroke-width="9300"/><path d="M15833750 4675000v-40000h55000v40000h-35000z" fill="gray" fill-rule="evenodd" stroke-width="9300"/><path d="M15863750 4675000v-40000M15853750 4675000v-40000" fill="none" stroke-width="9300"/></g><g transform="translate(15718700 5898700) scale(100000)"><g transform="matrix(1 0 0 -1 .313 1.013)" stroke-width=".013" id="g"><path d="M-.2-.15h-.1v.3h.1zM.2-.15h.1v.3H.2z" fill="#999" fill-rule="evenodd" stroke="#191919"/><path d="M-.2.15h.4v-.3h-.4z" fill="#333" fill-rule="evenodd" stroke="#191919"/><path d="M-.277-.15v.3M-.223-.15v.3M.277-.15v.3M.223-.15v.3" fill="none" stroke="#191919"/></g></g><g transform="rotate(90 6208550 11017750) scale(100000)"><g id="f" stroke-width=".013"><path d="M.163 1.148v-.27h.3v.27h-.3z" fill="#f95" stroke="#000"/><g transform="matrix(1 0 0 -1 .313 1.013)"><path d="M-.3.15h.15v-.3H-.3v.3zM.15-.15H.3v.3H.15v-.3z" fill="#b3b3b3" fill-rule="evenodd" stroke="#191919"/><path d="M-.3-.135h.15M-.3.135h.15M-.15.12h.3M-.15-.12h.3M.15-.135H.3M.15.135H.3" fill="none" stroke="#191919"/></g></g></g><use xlink:href="#f" transform="rotate(-90 10715000 -5358700) scale(100000)"/><g stroke-width=".093"><g transform="matrix(100000 0 0 -100000 17502500 4870000)"><path d="M-1.27-8.89h2.54V1.27h-2.54z" fill="#1a1a1a" fill-rule="evenodd" stroke="#000"/><path d="M-.6-1.94v-1.2H.6v1.2z" fill="#333" fill-rule="evenodd" stroke="#000"/><g fill="#4d4d4d" fill-rule="evenodd" stroke="#000"><path d="M-.6-5.68H.6v1.2H-.6zM-.6-.6H.6V.6H-.6zM.6-7.02H-.6v-1.2H.6z"/></g><g fill="none" stroke="#000"><path d="m-.6-1.94.299-.299M-.6-3.14l.299.299M-.301-2.239v-.602M.6-1.94l-.299-.299M.301-2.239h-.602M.6-3.14l-.299.299M.301-2.841v.602M-.301-2.841h.602M.6-4.48l-.299-.299M-.6-4.48l.299-.299M.301-4.779h-.602M.6-5.68l-.299.299M.301-5.381v.602M-.6-5.68l.299.299M-.301-5.381h.602M-.301-4.779v-.602M-.6-.6l.299.299M.6-.6l-.299.299M-.301-.301h.602M-.6.6l.299-.299M-.301.301v-.602M.6.6.301.301M.301.301h-.602M.301-.301v.602M-.6-8.22l.299.299M.6-8.22l-.299.299M-.301-7.921h.602M-.6-7.02l.299-.299M-.301-7.319v-.602M.6-7.02l-.299-.299M.301-7.319h-.602M.301-7.921v.602"/></g><g fill="olive" fill-rule="evenodd" stroke="#000"><path d="M-.3-2.84h.6v.6h-.6zM.3-5.38v.6h-.6v-.6zM.3-.3v.6h-.6v-.6zM.3-7.92v.6h-.6v-.6z"/></g><g fill="none" stroke="#000"><path d="M-.1-2.29v.05M-.1-2.79v.5M-.1-2.84v.05M.1-2.84v.05M-.1-2.79h.2M.1-2.79v.5M.1-2.29v.05M-.1-2.29h.2M-.1-4.83v.05M-.1-5.33v.5M-.1-5.38v.05M.1-5.38v.05M-.1-5.33h.2M.1-5.33v.5M.1-4.83v.05M-.1-4.83h.2M-.1.25V.3M-.1-.25v.5M-.1-.3v.05M.1-.3v.05M-.1-.25h.2M.1-.25v.5M.1.25V.3M-.1.25h.2M-.1-7.37v.05M-.1-7.87v.5M-.1-7.92v.05M.1-7.92v.05M-.1-7.87h.2M.1-7.87v.5M.1-7.37v.05M-.1-7.37h.2"/></g></g></g><use xlink:href="#g" transform="translate(15708700 5398700) scale(100000)"/><use xlink:href="#f" transform="rotate(90 5441300 10460000) scale(100000)"/><g transform="matrix(100000 0 0 -100000 16165500 5025000)" stroke-width=".013"><g fill-rule="evenodd" stroke="#191919"><path d="M-.2-.15h-.1v.3h.1zM.2-.15h.1v.3H.2z" fill="#999"/><path d="M-.2.15h.4v-.3h-.4z" fill="#333"/></g><g fill="none" stroke="#191919"><path d="M-.277-.15v.3M-.223-.15v.3M.277-.15v.3M.223-.15v.3"/></g></g><g transform="matrix(100000 0 0 -100000 15975000 5025000)" stroke-width=".013"><g fill-rule="evenodd" stroke="#191919"><path d="M-.2-.15h-.1v.3h.1zM.2-.15h.1v.3H.2z" fill="#999"/><path d="M-.2.15h.4v-.3h-.4z" fill="#333"/></g><g fill="none" stroke="#191919"><path d="M-.277-.15v.3M-.223-.15v.3M.277-.15v.3M.223-.15v.3"/></g></g><path d="M72.545 56.161h68.74a54.275 54.275 45 0 1 54.275 54.275v66.647a52.931 52.931 135 0 1-52.931 52.931H71.824a50.928 50.928 45 0 1-50.928-50.928v-71.277a51.648 51.648 135 0 1 51.648-51.648z" fill="gray" stroke="#000" stroke-width=".1" transform="matrix(0 13280 -13553 0 15581244 3287888)"/><g transform="matrix(0 13280 -13553 0 15581244 3287888)"><g stroke="#000"><path d="m77.919 93.054-20.463.033a22.259 22.259 134.89 0 0-22.223 22.308l.14 63.739c.044 20.054 16.337 36.396 36.39 36.39 22.916-.006 52.335-.122 74.855-.583 18.961-.388 35.165-17.499 35.146-36.5-.02-20.107-.305-44.855-.544-62.252-.165-11.978-10.038-21.798-22.017-21.934l-21.767-.246a9.305 9.305 135.43 0 0-9.41 9.269l-.189 49.767a8.684 8.684 44.797 0 0 8.778 8.715h.037a8.851 8.851 134.51 0 0 8.754-8.907l-.293-45.941a3.236 3.236 134.82 0 1 3.235-3.256h6.622a8.347 8.347 45 0 1 8.347 8.347v70.858c0 8.757-7.099 15.899-15.856 15.944-20.783.107-57.059.264-78.109.193-9.059-.03-16.4-7.63-16.4-16.695v-68.062c0-6.192 5.016-11.585 11.205-11.468 1.765.034 3.412.12 4.65.294 1.32.185 2.192 2.088 2.186 3.498-.04 8.068.06 32.84.12 46.23.02 4.865 3.981 8.632 8.843 8.414l1.152-.052a6.558 6.558 133.82 0 0 6.264-6.528l.19-51.912a9.628 9.628 45.059 0 0-9.643-9.663z" fill="#313d63" stroke-width=".265"/><path fill="#666" stroke-width=".101" d="M128.06 108.05h17.15v40.046h-17.15z"/><circle cx="155.76" cy="126.94" r="12.59" fill="#4d4d4d" stroke-width=".1"/><path fill="#666" stroke-width=".099" d="M71.178 108.05h16.271v40.049H71.178z"/></g><circle cx="62.366" cy="126.41" r="12.59" fill="#4d4d4d" stroke="#1a1a1a" stroke-width=".1"/></g><path d="M72.545 56.161h68.74a54.275 54.275 45 0 1 54.275 54.275v66.647a52.931 52.931 135 0 1-52.931 52.931H71.824a50.928 50.928 45 0 1-50.928-50.928v-71.277a51.648 51.648 135 0 1 51.648-51.648z" fill="gray" stroke="#000" stroke-width=".1" transform="matrix(0 13280 -13553 0 15575560 5700083)"/><g transform="matrix(0 13280 -13553 0 15575560 5700083)"><g stroke="#000"><path d="m77.919 93.054-20.463.033a22.259 22.259 134.89 0 0-22.223 22.308l.14 63.739c.044 20.054 16.337 36.396 36.39 36.39 22.916-.006 52.335-.122 74.855-.583 18.961-.388 35.165-17.499 35.146-36.5-.02-20.107-.305-44.855-.544-62.252-.165-11.978-10.038-21.798-22.017-21.934l-21.767-.246a9.305 9.305 135.43 0 0-9.41 9.269l-.189 49.767a8.684 8.684 44.797 0 0 8.778 8.715h.037a8.851 8.851 134.51 0 0 8.754-8.907l-.293-45.941a3.236 3.236 134.82 0 1 3.235-3.256h6.622a8.347 8.347 45 0 1 8.347 8.347v70.858c0 8.757-7.099 15.899-15.856 15.944-20.783.107-57.059.264-78.109.193-9.059-.03-16.4-7.63-16.4-16.695v-68.062c0-6.192 5.016-11.585 11.205-11.468 1.765.034 3.412.12 4.65.294 1.32.185 2.192 2.088 2.186 3.498-.04 8.068.06 32.84.12 46.23.02 4.865 3.981 8.632 8.843 8.414l1.152-.052a6.558 6.558 133.82 0 0 6.264-6.528l.19-51.912a9.628 9.628 45.059 0 0-9.643-9.663z" fill="#313d63" stroke-width=".265"/><path fill="#666" stroke-width=".101" d="M128.06 108.05h17.15v40.046h-17.15z"/><circle cx="155.76" cy="126.94" r="12.59" fill="#4d4d4d" stroke-width=".1"/><path fill="#666" stroke-width=".099" d="M71.178 108.05h16.271v40.049H71.178z"/></g><circle cx="62.366" cy="126.41" r="12.59" fill="#4d4d4d" stroke="#1a1a1a" stroke-width=".1"/></g><g fill="none" stroke-width="40774"><path d="m15452985 4729683-226949 1155.8 1254-204896h-407678" stroke="#f9f9f9"/><path d="m14811858 6940894 415973-536.2-1458-2217764" stroke="#fff"/><path d="m15450000 4977326-400863 383.8-694-244652-227207-384.6M15048751 4977653v2215950h-227944" stroke="#000"/><path d="M15444749 5224396h-499617v-240939l-123701-201.4M15456055 5480812h-333109v1881310l-307686 320.1" stroke="red"/></g></svg>