<svg width="376" height="149" version="1.1" viewBox="1.1551e8 88708500 45286411 11107861" xmlns="http://www.w3.org/2000/svg" xmlns:xlink="http://www.w3.org/1999/xlink">
 <defs>
  <mask id="c">
   <g fill="#fff" stroke="#fff" stroke-linecap="round" stroke-linejoin="round">
    <path d="m1.515e8 1.0462e8 7610-38270 21680-32440 32440-21680 38270-7610h2.6e5l38270 7610 32440 21680 21680 32440 7610 38270v2e5l-7610 38270-21680 32440-32440 21680-38270 7610h-2.6e5l-38270-7610-32440-21680-21680-32440-7610-38270zm6.4e5 0 7610-38270 21680-32440 32440-21680 38270-7610h2.6e5l38270 7610 32440 21680 21680 32440 7610 38270v2e5l-7610 38270-21680 32440-32440 21680-38270 7610h-2.6e5l-38270-7610-32440-21680-21680-32440-7610-38270zm-6.4e5 -2.93e6 7610-38270 21680-32440 32440-21680 38270-7610h2.6e5l38270 7610 32440 21680 21680 32440 7610 38270v2e5l-7610 38270-21680 32440-32440 21680-38270 7610h-2.6e5l-38270-7610-32440-21680-21680-32440-7610-38270zm6.4e5 0 7610-38270 21680-32440 32440-21680 38270-7610h2.6e5l38270 7610 32440 21680 21680 32440 7610 38270v2e5l-7610 38270-21680 32440-32440 21680-38270 7610h-2.6e5l-38270-7610-32440-21680-21680-32440-7610-38270zm-1.169e7 -3.41e6 388910 388909-1131370 1131371-388910-388909zm-5.6e5 -566130 388910 388909-1131370 1131371-388910-388909zm-5.7e5 -565686 388910 388909-1131370 1131371-388910-388909zm-5.6e5 -565685 388910 388909-1131370 1131371-388910-388909zm-5.7e5 -565686 388910 388909-1131370 1131371-388910-388909zm-5.6e5 -565685 388910 388909-1131370 1131371-388910-388909zm-5.7e5 -565685 388910 388909-1131370 1131371-388910-388909zm-5.7e5 -565443 388910 388909-1131380 1131371-388900-388909zm-3.18e6 388666 388900-388909 1131380 1131371-388910 388909zm-5.6e5 565686 388910-388909 1131370 1131371-388910 388909zm-5.7e5 565648 388910-388909 1131370 1131371-388900 388909zm-5.6e5 565722 388910-388909 1131370 1131371-388910 388909zm-5.7e5 565686 388910-388909 1131370 1131371-388910 388909zm-5.7e5 565685 388910-388909 1131370 1131371-388910 388909zm-5.6e5 565686 388910-388909 1131370 1131371-388910 388909zm-5.7e5 565685 388910-388909 1131370 1131371-388910 388909zm1.13e6 1661536 388910 388900-1131370 1131380-388910-388910zm5.7e5 5.7e5 388910 388910-1131370 1131370-388910-388910zm5.7e5 5.6e5 388910 388910-1131370 1131370-388910-388910zm5.6e5 5.7e5 388910 388910-1131370 1131370-388910-388910zm5.7e5 5.6e5 388910 388910-1131370 1131370-388910-388910zm5.6e5 5.7e5 388900 388910-1131370 1131370-388910-388910zm5.7e5 5.6e5 388910 388910-1131370 1131370-388910-388910zm5.6e5 5.7e5 388910 388910-1131380 1131370-388900-388910zm9.2e5 3.9e5 388900-388910 1131380 1131370-388910 388910zm5.7e5 -5.7e5 388910-388910 1131370 1131370-388910 388910zm5.6e5 -5.6e5 388910-388910 1131370 1131370-388910 388910zm5.7e5 -5.7e5 388910-388910 1131370 1131370-388910 388910zm5.7e5 -5.6e5 388910-388910 1131370 1131370-388910 388910zm5.6e5 -5.7e5 388910-388910 1131370 1131370-388910 388910zm5.7e5 -5.7e5 388910-388910 1131370 1131370-388910 388910zm5.6e5 -5.6e5 388910-388900 1131370 1131370-388910 388910zm1.808e7 3.82e6 -19030 95670-54190 81110-81110 54190-95670 19030h-7.5e5l-95670-19030-81110-54190-54190-81110-19030-95670v-1.25e6l19030-95670 54190-81110 81110-54190 95670-19030h7.5e5l95670 19030 81110 54190 54190 81110 19030 95670zm-2.8e6 0-19030 95670-54190 81110-81110 54190-95670 19030h-7.5e5l-95670-19030-81110-54190-54190-81110-19030-95670v-1.25e6l19030-95670 54190-81110 81110-54190 95670-19030h7.5e5l95670 19030 81110 54190 54190 81110 19030 95670zm2.8e6 -2.85e6 -19030 95670-54190 81110-81110 54190-95670 19030h-7.5e5l-95670-19030-81110-54190-54190-81110-19030-95670v-1.25e6l19030-95670 54190-81110 81110-54190 95670-19030h7.5e5l95670 19030 81110 54190 54190 81110 19030 95670zm-2.8e6 0-19030 95670-54190 81110-81110 54190-95670 19030h-7.5e5l-95670-19030-81110-54190-54190-81110-19030-95670v-1.25e6l19030-95670 54190-81110 81110-54190 95670-19030h7.5e5l95670 19030 81110 54190 54190 81110 19030 95670zm3.95e6 -3365000v-1.7e6h1.7e6v1.7e6z" fill-rule="evenodd"/>
    <circle cx="1.6194e8" cy="97475000" r="8.5e5"/>
    <circle cx="1.594e8" cy="1.0002e8" r="8.5e5"/>
    <circle cx="1.6194e8" cy="1.0002e8" r="8.5e5"/>
    <circle cx="1.594e8" cy="1.0256e8" r="8.5e5"/>
    <circle cx="1.6194e8" cy="1.0256e8" r="8.5e5"/>
    <circle cx="1.6198e8" cy="1.0766e8" r="825500"/>
    <circle cx="1.2134e8" cy="9.242e7" r="825500"/>
    <path d="m1.5742e8 99015000-19030 95671-54190 81106-81110 54193-95670 19030h-7.5e5l-95670-19030-81110-54193-54190-81106-19030-95671v-1.25e6l19030-95671 54190-81106 81110-54193 95670-19030h7.5e5l95670 19030 81110 54193 54190 81106 19030 95671zm-2.8e6 0-19030 95671-54190 81106-81110 54193-95670 19030h-7.5e5l-95670-19030-81110-54193-54190-81106-19030-95671v-1.25e6l19030-95671 54190-81106 81110-54193 95670-19030h7.5e5l95670 19030 81110 54193 54190 81106 19030 95671zm-3.12e6 25000 7610-38268 21680-32443 32440-21677 38270-7612h2.6e5l38270 7612 32440 21677 21680 32443 7610 38268v2e5l-7610 38268-21680 32443-32440 21677-38270 7612h-2.6e5l-38270-7612-32440-21677-21680-32443-7610-38268zm6.4e5 0 7610-38268 21680-32443 32440-21677 38270-7612h2.6e5l38270 7612 32440 21677 21680 32443 7610 38268v2e5l-7610 38268-21680 32443-32440 21677-38270 7612h-2.6e5l-38270-7612-32440-21677-21680-32443-7610-38268z" fill-rule="evenodd"/>
    <circle cx="1.2392e8" cy="9.784e7" r="5e5"/>
    <circle cx="1.2392e8" cy="1.0224e8" r="5e5"/>
    <path d="m1.2562e8 9.819e7h2e6v5e5h-2e6zm0 8e5h2e6v5e5h-2e6zm0 8e5h2e6v5e5h-2e6zm0 8e5h2e6v5e5h-2e6zm0 8e5h2e6v5e5h-2e6zm5e4 -6.8e6h1.7e6v2e6h-1.7e6zm-5.45e6 0h1.7e6v2e6h-1.7e6zm5.45e6 8.9e6h1.7e6v2e6h-1.7e6zm-5.45e6 0h1.7e6v2e6h-1.7e6z" fill-rule="evenodd"/>
    <circle cx="1.6198e8" cy="9.242e7" r="825500"/>
    <circle cx="1.4957e8" cy="96815000" r="1e6"/>
    <circle cx="1.4957e8" cy="1.0332e8" r="1e6"/>
    <circle cx="1.4507e8" cy="96815000" r="1e6"/>
    <circle cx="1.4507e8" cy="1.0332e8" r="1e6"/>
    <path d="m1.5742e8 9.624e7 -19030 95671-54190 81106-81110 54193-95670 19030h-7.5e5l-95670-19030-81110-54193-54190-81106-19030-95671v-1.25e6l19030-95671 54190-81106 81110-54193 95670-19030h7.5e5l95670 19030 81110 54193 54190 81106 19030 95671zm-2.8e6 0-19030 95671-54190 81106-81110 54193-95670 19030h-7.5e5l-95670-19030-81110-54193-54190-81106-19030-95671v-1.25e6l19030-95671 54190-81106 81110-54193 95670-19030h7.5e5l95670 19030 81110 54193 54190 81106 19030 95671zm-3.05e6 5e4 7610-38268 21680-32443 32440-21677 38270-7612h2.6e5l38270 7612 32440 21677 21680 32443 7610 38268v2e5l-7610 38268-21680 32443-32440 21677-38270 7612h-2.6e5l-38270-7612-32440-21677-21680-32443-7610-38268zm6.4e5 0 7610-38268 21680-32443 32440-21677 38270-7612h2.6e5l38270 7612 32440 21677 21680 32443 7610 38268v2e5l-7610 38268-21680 32443-32440 21677-38270 7612h-2.6e5l-38270-7612-32440-21677-21680-32443-7610-38268zm-1.243e7 -747498 1343500-1343503 282850 282843-1343510 1343503zm8.5e5 848528 1343500-1343503 282840 282843-1343500 1343503zm8.5e5 848970 1343500-1343503 282840 282843-1343500 1343503z" fill-rule="evenodd"/>
    <circle cx="1.2134e8" cy="1.0766e8" r="825500"/>
    <path d="m1.2303e8 9.157e7h1.7e6v1.7e6h-1.7e6z" fill-rule="evenodd"/>
    <circle cx="1.2642e8" cy="9.242e7" r="8.5e5"/>
    <circle cx="1.2896e8" cy="9.242e7" r="8.5e5"/>
    <circle cx="1.315e8" cy="9.242e7" r="8.5e5"/>
    <circle cx="1.3404e8" cy="9.242e7" r="8.5e5"/>
    <circle cx="1.3658e8" cy="9.242e7" r="8.5e5"/>
    <circle cx="1.3912e8" cy="9.242e7" r="8.5e5"/>
    <circle cx="1.4166e8" cy="9.242e7" r="8.5e5"/>
    <circle cx="1.442e8" cy="9.242e7" r="8.5e5"/>
    <circle cx="1.4674e8" cy="9.242e7" r="8.5e5"/>
    <circle cx="1.4928e8" cy="9.242e7" r="8.5e5"/>
    <circle cx="1.5182e8" cy="9.242e7" r="8.5e5"/>
    <circle cx="1.5436e8" cy="9.242e7" r="8.5e5"/>
    <circle cx="1.569e8" cy="9.242e7" r="8.5e5"/>
    <circle cx="1.5944e8" cy="9.242e7" r="8.5e5"/>
    <path d="m1.2303e8 1.0681e8h1.7e6v1.7e6h-1.7e6z" fill-rule="evenodd"/>
    <circle cx="1.2642e8" cy="1.0766e8" r="8.5e5"/>
    <circle cx="1.2896e8" cy="1.0766e8" r="8.5e5"/>
    <circle cx="1.315e8" cy="1.0766e8" r="8.5e5"/>
    <circle cx="1.3404e8" cy="1.0766e8" r="8.5e5"/>
    <circle cx="1.3658e8" cy="1.0766e8" r="8.5e5"/>
    <circle cx="1.3912e8" cy="1.0766e8" r="8.5e5"/>
    <circle cx="1.4166e8" cy="1.0766e8" r="8.5e5"/>
    <circle cx="1.442e8" cy="1.0766e8" r="8.5e5"/>
    <circle cx="1.4674e8" cy="1.0766e8" r="8.5e5"/>
    <circle cx="1.4928e8" cy="1.0766e8" r="8.5e5"/>
    <circle cx="1.5182e8" cy="1.0766e8" r="8.5e5"/>
    <circle cx="1.5436e8" cy="1.0766e8" r="8.5e5"/>
    <circle cx="1.569e8" cy="1.0766e8" r="8.5e5"/>
    <circle cx="1.5944e8" cy="1.0766e8" r="8.5e5"/>
   </g>
  </mask>
  <mask id="d">
   <path d="m1.1551e8 88708496h48417928v22663000h-48417928z" fill="#fff"/>
   <g stroke="#000" stroke-linecap="round" stroke-linejoin="round">
    <path d="m1.515e8 1.0462e8 7610-38270 21680-32440 32440-21680 38270-7610h2.6e5l38270 7610 32440 21680 21680 32440 7610 38270v2e5l-7610 38270-21680 32440-32440 21680-38270 7610h-2.6e5l-38270-7610-32440-21680-21680-32440-7610-38270zm6.4e5 0 7610-38270 21680-32440 32440-21680 38270-7610h2.6e5l38270 7610 32440 21680 21680 32440 7610 38270v2e5l-7610 38270-21680 32440-32440 21680-38270 7610h-2.6e5l-38270-7610-32440-21680-21680-32440-7610-38270zm-6.4e5 -2.93e6 7610-38270 21680-32440 32440-21680 38270-7610h2.6e5l38270 7610 32440 21680 21680 32440 7610 38270v2e5l-7610 38270-21680 32440-32440 21680-38270 7610h-2.6e5l-38270-7610-32440-21680-21680-32440-7610-38270zm6.4e5 0 7610-38270 21680-32440 32440-21680 38270-7610h2.6e5l38270 7610 32440 21680 21680 32440 7610 38270v2e5l-7610 38270-21680 32440-32440 21680-38270 7610h-2.6e5l-38270-7610-32440-21680-21680-32440-7610-38270zm-1.169e7 -3.41e6 388910 388909-1131370 1131371-388910-388909zm-5.6e5 -566130 388910 388909-1131370 1131371-388910-388909zm-5.7e5 -565686 388910 388909-1131370 1131371-388910-388909zm-5.6e5 -565685 388910 388909-1131370 1131371-388910-388909zm-5.7e5 -565686 388910 388909-1131370 1131371-388910-388909zm-5.6e5 -565685 388910 388909-1131370 1131371-388910-388909zm-5.7e5 -565685 388910 388909-1131370 1131371-388910-388909zm-5.7e5 -565443 388910 388909-1131380 1131371-388900-388909zm-3.18e6 388666 388900-388909 1131380 1131371-388910 388909zm-5.6e5 565686 388910-388909 1131370 1131371-388910 388909zm-5.7e5 565648 388910-388909 1131370 1131371-388900 388909zm-5.6e5 565722 388910-388909 1131370 1131371-388910 388909zm-5.7e5 565686 388910-388909 1131370 1131371-388910 388909zm-5.7e5 565685 388910-388909 1131370 1131371-388910 388909zm-5.6e5 565686 388910-388909 1131370 1131371-388910 388909zm-5.7e5 565685 388910-388909 1131370 1131371-388910 388909zm1.13e6 1661536 388910 388900-1131370 1131380-388910-388910zm5.7e5 5.7e5 388910 388910-1131370 1131370-388910-388910zm5.7e5 5.6e5 388910 388910-1131370 1131370-388910-388910zm5.6e5 5.7e5 388910 388910-1131370 1131370-388910-388910zm5.7e5 5.6e5 388910 388910-1131370 1131370-388910-388910zm5.6e5 5.7e5 388900 388910-1131370 1131370-388910-388910zm5.7e5 5.6e5 388910 388910-1131370 1131370-388910-388910zm5.6e5 5.7e5 388910 388910-1131380 1131370-388900-388910zm9.2e5 3.9e5 388900-388910 1131380 1131370-388910 388910zm5.7e5 -5.7e5 388910-388910 1131370 1131370-388910 388910zm5.6e5 -5.6e5 388910-388910 1131370 1131370-388910 388910zm5.7e5 -5.7e5 388910-388910 1131370 1131370-388910 388910zm5.7e5 -5.6e5 388910-388910 1131370 1131370-388910 388910zm5.6e5 -5.7e5 388910-388910 1131370 1131370-388910 388910zm5.7e5 -5.7e5 388910-388910 1131370 1131370-388910 388910zm5.6e5 -5.6e5 388910-388900 1131370 1131370-388910 388910zm1.808e7 3.82e6 -19030 95670-54190 81110-81110 54190-95670 19030h-7.5e5l-95670-19030-81110-54190-54190-81110-19030-95670v-1.25e6l19030-95670 54190-81110 81110-54190 95670-19030h7.5e5l95670 19030 81110 54190 54190 81110 19030 95670zm-2.8e6 0-19030 95670-54190 81110-81110 54190-95670 19030h-7.5e5l-95670-19030-81110-54190-54190-81110-19030-95670v-1.25e6l19030-95670 54190-81110 81110-54190 95670-19030h7.5e5l95670 19030 81110 54190 54190 81110 19030 95670zm2.8e6 -2.85e6 -19030 95670-54190 81110-81110 54190-95670 19030h-7.5e5l-95670-19030-81110-54190-54190-81110-19030-95670v-1.25e6l19030-95670 54190-81110 81110-54190 95670-19030h7.5e5l95670 19030 81110 54190 54190 81110 19030 95670zm-2.8e6 0-19030 95670-54190 81110-81110 54190-95670 19030h-7.5e5l-95670-19030-81110-54190-54190-81110-19030-95670v-1.25e6l19030-95670 54190-81110 81110-54190 95670-19030h7.5e5l95670 19030 81110 54190 54190 81110 19030 95670zm3.95e6 -3365000v-1.7e6h1.7e6v1.7e6z" fill-rule="evenodd"/>
    <circle cx="1.6194e8" cy="97475000" r="8.5e5"/>
    <circle cx="1.594e8" cy="1.0002e8" r="8.5e5"/>
    <circle cx="1.6194e8" cy="1.0002e8" r="8.5e5"/>
    <circle cx="1.594e8" cy="1.0256e8" r="8.5e5"/>
    <circle cx="1.6194e8" cy="1.0256e8" r="8.5e5"/>
    <circle cx="1.6198e8" cy="1.0766e8" r="825500"/>
    <circle cx="1.2134e8" cy="9.242e7" r="825500"/>
    <path d="m1.5742e8 99015000-19030 95671-54190 81106-81110 54193-95670 19030h-7.5e5l-95670-19030-81110-54193-54190-81106-19030-95671v-1.25e6l19030-95671 54190-81106 81110-54193 95670-19030h7.5e5l95670 19030 81110 54193 54190 81106 19030 95671zm-2.8e6 0-19030 95671-54190 81106-81110 54193-95670 19030h-7.5e5l-95670-19030-81110-54193-54190-81106-19030-95671v-1.25e6l19030-95671 54190-81106 81110-54193 95670-19030h7.5e5l95670 19030 81110 54193 54190 81106 19030 95671zm-3.12e6 25000 7610-38268 21680-32443 32440-21677 38270-7612h2.6e5l38270 7612 32440 21677 21680 32443 7610 38268v2e5l-7610 38268-21680 32443-32440 21677-38270 7612h-2.6e5l-38270-7612-32440-21677-21680-32443-7610-38268zm6.4e5 0 7610-38268 21680-32443 32440-21677 38270-7612h2.6e5l38270 7612 32440 21677 21680 32443 7610 38268v2e5l-7610 38268-21680 32443-32440 21677-38270 7612h-2.6e5l-38270-7612-32440-21677-21680-32443-7610-38268z" fill-rule="evenodd"/>
    <circle cx="1.2392e8" cy="9.784e7" r="5e5"/>
    <circle cx="1.2392e8" cy="1.0224e8" r="5e5"/>
    <path d="m1.2562e8 9.819e7h2e6v5e5h-2e6zm0 8e5h2e6v5e5h-2e6zm0 8e5h2e6v5e5h-2e6zm0 8e5h2e6v5e5h-2e6zm0 8e5h2e6v5e5h-2e6zm5e4 -6.8e6h1.7e6v2e6h-1.7e6zm-5.45e6 0h1.7e6v2e6h-1.7e6zm5.45e6 8.9e6h1.7e6v2e6h-1.7e6zm-5.45e6 0h1.7e6v2e6h-1.7e6z" fill-rule="evenodd"/>
    <circle cx="1.6198e8" cy="9.242e7" r="825500"/>
    <circle cx="1.4957e8" cy="96815000" r="1e6"/>
    <circle cx="1.4957e8" cy="1.0332e8" r="1e6"/>
    <circle cx="1.4507e8" cy="96815000" r="1e6"/>
    <circle cx="1.4507e8" cy="1.0332e8" r="1e6"/>
    <path d="m1.5742e8 9.624e7 -19030 95671-54190 81106-81110 54193-95670 19030h-7.5e5l-95670-19030-81110-54193-54190-81106-19030-95671v-1.25e6l19030-95671 54190-81106 81110-54193 95670-19030h7.5e5l95670 19030 81110 54193 54190 81106 19030 95671zm-2.8e6 0-19030 95671-54190 81106-81110 54193-95670 19030h-7.5e5l-95670-19030-81110-54193-54190-81106-19030-95671v-1.25e6l19030-95671 54190-81106 81110-54193 95670-19030h7.5e5l95670 19030 81110 54193 54190 81106 19030 95671zm-3.05e6 5e4 7610-38268 21680-32443 32440-21677 38270-7612h2.6e5l38270 7612 32440 21677 21680 32443 7610 38268v2e5l-7610 38268-21680 32443-32440 21677-38270 7612h-2.6e5l-38270-7612-32440-21677-21680-32443-7610-38268zm6.4e5 0 7610-38268 21680-32443 32440-21677 38270-7612h2.6e5l38270 7612 32440 21677 21680 32443 7610 38268v2e5l-7610 38268-21680 32443-32440 21677-38270 7612h-2.6e5l-38270-7612-32440-21677-21680-32443-7610-38268zm-1.243e7 -747498 1343500-1343503 282850 282843-1343510 1343503zm8.5e5 848528 1343500-1343503 282840 282843-1343500 1343503zm8.5e5 848970 1343500-1343503 282840 282843-1343500 1343503z" fill-rule="evenodd"/>
    <circle cx="1.2134e8" cy="1.0766e8" r="825500"/>
    <path d="m1.2303e8 9.157e7h1.7e6v1.7e6h-1.7e6z" fill-rule="evenodd"/>
    <circle cx="1.2642e8" cy="9.242e7" r="8.5e5"/>
    <circle cx="1.2896e8" cy="9.242e7" r="8.5e5"/>
    <circle cx="1.315e8" cy="9.242e7" r="8.5e5"/>
    <circle cx="1.3404e8" cy="9.242e7" r="8.5e5"/>
    <circle cx="1.3658e8" cy="9.242e7" r="8.5e5"/>
    <circle cx="1.3912e8" cy="9.242e7" r="8.5e5"/>
    <circle cx="1.4166e8" cy="9.242e7" r="8.5e5"/>
    <circle cx="1.442e8" cy="9.242e7" r="8.5e5"/>
    <circle cx="1.4674e8" cy="9.242e7" r="8.5e5"/>
    <circle cx="1.4928e8" cy="9.242e7" r="8.5e5"/>
    <circle cx="1.5182e8" cy="9.242e7" r="8.5e5"/>
    <circle cx="1.5436e8" cy="9.242e7" r="8.5e5"/>
    <circle cx="1.569e8" cy="9.242e7" r="8.5e5"/>
    <circle cx="1.5944e8" cy="9.242e7" r="8.5e5"/>
    <path d="m1.2303e8 1.0681e8h1.7e6v1.7e6h-1.7e6z" fill-rule="evenodd"/>
    <circle cx="1.2642e8" cy="1.0766e8" r="8.5e5"/>
    <circle cx="1.2896e8" cy="1.0766e8" r="8.5e5"/>
    <circle cx="1.315e8" cy="1.0766e8" r="8.5e5"/>
    <circle cx="1.3404e8" cy="1.0766e8" r="8.5e5"/>
    <circle cx="1.3658e8" cy="1.0766e8" r="8.5e5"/>
    <circle cx="1.3912e8" cy="1.0766e8" r="8.5e5"/>
    <circle cx="1.4166e8" cy="1.0766e8" r="8.5e5"/>
    <circle cx="1.442e8" cy="1.0766e8" r="8.5e5"/>
    <circle cx="1.4674e8" cy="1.0766e8" r="8.5e5"/>
    <circle cx="1.4928e8" cy="1.0766e8" r="8.5e5"/>
    <circle cx="1.5182e8" cy="1.0766e8" r="8.5e5"/>
    <circle cx="1.5436e8" cy="1.0766e8" r="8.5e5"/>
    <circle cx="1.569e8" cy="1.0766e8" r="8.5e5"/>
    <circle cx="1.5944e8" cy="1.0766e8" r="8.5e5"/>
   </g>
  </mask>
  <mask id="b">
   <path d="m1.1551e8 88708496h48417928v22663000h-48417928z" fill="#fff"/>
   <path d="m1.594e8 97475000h0m2.54e6 0h0m-2.54e6 2545000h0m2.54e6 0h0m-2.54e6 2.54e6h0m2.54e6 0h0" stroke="#000" stroke-linecap="round" stroke-width="1e6"/>
   <path d="m1.6198e8 1.0766e8h0m-4.064e7 -1.524e7h0" stroke="#000" stroke-linecap="round" stroke-width="1651000"/>
   <path d="m1.2392e8 97838500h0m0 4.4e6h0" stroke="#000" stroke-linecap="round" stroke-width="1e6"/>
   <path d="m1.6198e8 9.242e7h0" stroke="#000" stroke-linecap="round" stroke-width="1651000"/>
   <path d="m1.4957e8 96815000h0m0 6505000h0m-4.5e6 -6505000h0m0 6505000h0" stroke="#000" stroke-linecap="round" stroke-width="1.1e6"/>
   <path d="m1.2134e8 1.0766e8h0" stroke="#000" stroke-linecap="round" stroke-width="1651000"/>
   <path d="m1.2388e8 92421500h0m2.54e6 0h0m2.54e6 0h0m2.54e6 0h0m2.54e6 0h0m2.54e6 0h0m2.54e6 0h0m2.54e6 0h0m2.54e6 0h0m2.54e6 0h0m2.54e6 0h0m2.54e6 0h0m2.54e6 0h0m2.54e6 0h0m2.54e6 0h0m-3.556e7 1.524e7h0m2.54e6 0h0m2.54e6 0h0m2.54e6 0h0m2.54e6 0h0m2.54e6 0h0m2.54e6 0h0m2.54e6 0h0m2.54e6 0h0m2.54e6 0h0m2.54e6 0h0m2.54e6 0h0m2.54e6 0h0m2.54e6 0h0m2.54e6 0h0" stroke="#000" stroke-linecap="round" stroke-width="1e6"/>
  </mask>
  <clipPath id="a">
   <path d="m1.2007e8 1.0893e8v-1.778e7h4.318e7v1.778e7h-4.318e7" fill-rule="evenodd"/>
  </clipPath>
 </defs>
 <rect x="1.204e8" y="85733864" width="37371544" height="17288434" fill="#1a1a1a" stroke="#000" stroke-width="35862"/>
 <g transform="translate(-2509663 -5745927)" clip-path="url(#a)" mask="url(#b)">
  <g fill="#313d63" stroke="#313d63">
   <path d="m1.2007e8 1.0893e8v-1.778e7h4.318e7v1.778e7h-4.318e7" fill-rule="evenodd"/>
   <path d="m1.2007e8 9.115e7h4.318e7m0 0v1.778e7m0 0h-4.318e7m0 0v-1.778e7" fill="none" fill-opacity="0" stroke="#000" stroke-linecap="round" stroke-linejoin="round" stroke-width="1e5"/>
  </g>
  <g stroke-linecap="round" stroke-linejoin="round">
   <g fill="#9c6b28" stroke="#9c6b28">
    <path d="m1.515e8 1.0462e8 7610-38270 21680-32440 32440-21680 38270-7610h2.6e5l38270 7610 32440 21680 21680 32440 7610 38270v2e5l-7610 38270-21680 32440-32440 21680-38270 7610h-2.6e5l-38270-7610-32440-21680-21680-32440-7610-38270zm6.4e5 0 7610-38270 21680-32440 32440-21680 38270-7610h2.6e5l38270 7610 32440 21680 21680 32440 7610 38270v2e5l-7610 38270-21680 32440-32440 21680-38270 7610h-2.6e5l-38270-7610-32440-21680-21680-32440-7610-38270zm-6.4e5 -2.93e6 7610-38270 21680-32440 32440-21680 38270-7610h2.6e5l38270 7610 32440 21680 21680 32440 7610 38270v2e5l-7610 38270-21680 32440-32440 21680-38270 7610h-2.6e5l-38270-7610-32440-21680-21680-32440-7610-38270zm6.4e5 0 7610-38270 21680-32440 32440-21680 38270-7610h2.6e5l38270 7610 32440 21680 21680 32440 7610 38270v2e5l-7610 38270-21680 32440-32440 21680-38270 7610h-2.6e5l-38270-7610-32440-21680-21680-32440-7610-38270zm-1.169e7 -3.41e6 388910 388909-1131370 1131371-388910-388909zm-5.6e5 -566130 388910 388909-1131370 1131371-388910-388909zm-5.7e5 -565686 388910 388909-1131370 1131371-388910-388909zm-5.6e5 -565685 388910 388909-1131370 1131371-388910-388909zm-5.7e5 -565686 388910 388909-1131370 1131371-388910-388909zm-5.6e5 -565685 388910 388909-1131370 1131371-388910-388909zm-5.7e5 -565685 388910 388909-1131370 1131371-388910-388909zm-5.7e5 -565443 388910 388909-1131380 1131371-388900-388909zm-3.18e6 388666 388900-388909 1131380 1131371-388910 388909zm-5.6e5 565686 388910-388909 1131370 1131371-388910 388909zm-5.7e5 565648 388910-388909 1131370 1131371-388900 388909zm-5.6e5 565722 388910-388909 1131370 1131371-388910 388909zm-5.7e5 565686 388910-388909 1131370 1131371-388910 388909zm-5.7e5 565685 388910-388909 1131370 1131371-388910 388909zm-5.6e5 565686 388910-388909 1131370 1131371-388910 388909zm-5.7e5 565685 388910-388909 1131370 1131371-388910 388909zm1.13e6 1661536 388910 388900-1131370 1131380-388910-388910zm5.7e5 5.7e5 388910 388910-1131370 1131370-388910-388910zm5.7e5 5.6e5 388910 388910-1131370 1131370-388910-388910zm5.6e5 5.7e5 388910 388910-1131370 1131370-388910-388910zm5.7e5 5.6e5 388910 388910-1131370 1131370-388910-388910zm5.6e5 5.7e5 388900 388910-1131370 1131370-388910-388910zm5.7e5 5.6e5 388910 388910-1131370 1131370-388910-388910zm5.6e5 5.7e5 388910 388910-1131380 1131370-388900-388910zm9.2e5 3.9e5 388900-388910 1131380 1131370-388910 388910zm5.7e5 -5.7e5 388910-388910 1131370 1131370-388910 388910zm5.6e5 -5.6e5 388910-388910 1131370 1131370-388910 388910zm5.7e5 -5.7e5 388910-388910 1131370 1131370-388910 388910zm5.7e5 -5.6e5 388910-388910 1131370 1131370-388910 388910zm5.6e5 -5.7e5 388910-388910 1131370 1131370-388910 388910zm5.7e5 -5.7e5 388910-388910 1131370 1131370-388910 388910zm5.6e5 -5.6e5 388910-388900 1131370 1131370-388910 388910zm1.808e7 3.82e6 -19030 95670-54190 81110-81110 54190-95670 19030h-7.5e5l-95670-19030-81110-54190-54190-81110-19030-95670v-1.25e6l19030-95670 54190-81110 81110-54190 95670-19030h7.5e5l95670 19030 81110 54190 54190 81110 19030 95670zm-2.8e6 0-19030 95670-54190 81110-81110 54190-95670 19030h-7.5e5l-95670-19030-81110-54190-54190-81110-19030-95670v-1.25e6l19030-95670 54190-81110 81110-54190 95670-19030h7.5e5l95670 19030 81110 54190 54190 81110 19030 95670zm2.8e6 -2.85e6 -19030 95670-54190 81110-81110 54190-95670 19030h-7.5e5l-95670-19030-81110-54190-54190-81110-19030-95670v-1.25e6l19030-95670 54190-81110 81110-54190 95670-19030h7.5e5l95670 19030 81110 54190 54190 81110 19030 95670zm-2.8e6 0-19030 95670-54190 81110-81110 54190-95670 19030h-7.5e5l-95670-19030-81110-54190-54190-81110-19030-95670v-1.25e6l19030-95670 54190-81110 81110-54190 95670-19030h7.5e5l95670 19030 81110 54190 54190 81110 19030 95670zm3.95e6 -3365000v-1.7e6h1.7e6v1.7e6z" fill-rule="evenodd"/>
    <circle cx="1.6194e8" cy="97475000" r="8.5e5"/>
    <circle cx="1.594e8" cy="1.0002e8" r="8.5e5"/>
    <circle cx="1.6194e8" cy="1.0002e8" r="8.5e5"/>
    <circle cx="1.594e8" cy="1.0256e8" r="8.5e5"/>
    <circle cx="1.6194e8" cy="1.0256e8" r="8.5e5"/>
    <circle cx="1.6198e8" cy="1.0766e8" r="825500"/>
    <circle cx="1.2134e8" cy="9.242e7" r="825500"/>
    <path d="m1.5742e8 99015000-19030 95671-54190 81106-81110 54193-95670 19030h-7.5e5l-95670-19030-81110-54193-54190-81106-19030-95671v-1.25e6l19030-95671 54190-81106 81110-54193 95670-19030h7.5e5l95670 19030 81110 54193 54190 81106 19030 95671zm-2.8e6 0-19030 95671-54190 81106-81110 54193-95670 19030h-7.5e5l-95670-19030-81110-54193-54190-81106-19030-95671v-1.25e6l19030-95671 54190-81106 81110-54193 95670-19030h7.5e5l95670 19030 81110 54193 54190 81106 19030 95671zm-3.12e6 25000 7610-38268 21680-32443 32440-21677 38270-7612h2.6e5l38270 7612 32440 21677 21680 32443 7610 38268v2e5l-7610 38268-21680 32443-32440 21677-38270 7612h-2.6e5l-38270-7612-32440-21677-21680-32443-7610-38268zm6.4e5 0 7610-38268 21680-32443 32440-21677 38270-7612h2.6e5l38270 7612 32440 21677 21680 32443 7610 38268v2e5l-7610 38268-21680 32443-32440 21677-38270 7612h-2.6e5l-38270-7612-32440-21677-21680-32443-7610-38268z" fill-rule="evenodd"/>
    <circle cx="1.2392e8" cy="9.784e7" r="5e5"/>
    <circle cx="1.2392e8" cy="1.0224e8" r="5e5"/>
    <path d="m1.2562e8 9.819e7h2e6v5e5h-2e6zm0 8e5h2e6v5e5h-2e6zm0 8e5h2e6v5e5h-2e6zm0 8e5h2e6v5e5h-2e6zm0 8e5h2e6v5e5h-2e6zm5e4 -6.8e6h1.7e6v2e6h-1.7e6zm-5.45e6 0h1.7e6v2e6h-1.7e6zm5.45e6 8.9e6h1.7e6v2e6h-1.7e6zm-5.45e6 0h1.7e6v2e6h-1.7e6z" fill-rule="evenodd"/>
    <circle cx="1.6198e8" cy="9.242e7" r="825500"/>
    <circle cx="1.4957e8" cy="96815000" r="1e6"/>
    <circle cx="1.4957e8" cy="1.0332e8" r="1e6"/>
    <circle cx="1.4507e8" cy="96815000" r="1e6"/>
    <circle cx="1.4507e8" cy="1.0332e8" r="1e6"/>
    <path d="m1.5742e8 9.624e7 -19030 95671-54190 81106-81110 54193-95670 19030h-7.5e5l-95670-19030-81110-54193-54190-81106-19030-95671v-1.25e6l19030-95671 54190-81106 81110-54193 95670-19030h7.5e5l95670 19030 81110 54193 54190 81106 19030 95671zm-2.8e6 0-19030 95671-54190 81106-81110 54193-95670 19030h-7.5e5l-95670-19030-81110-54193-54190-81106-19030-95671v-1.25e6l19030-95671 54190-81106 81110-54193 95670-19030h7.5e5l95670 19030 81110 54193 54190 81106 19030 95671zm-3.05e6 5e4 7610-38268 21680-32443 32440-21677 38270-7612h2.6e5l38270 7612 32440 21677 21680 32443 7610 38268v2e5l-7610 38268-21680 32443-32440 21677-38270 7612h-2.6e5l-38270-7612-32440-21677-21680-32443-7610-38268zm6.4e5 0 7610-38268 21680-32443 32440-21677 38270-7612h2.6e5l38270 7612 32440 21677 21680 32443 7610 38268v2e5l-7610 38268-21680 32443-32440 21677-38270 7612h-2.6e5l-38270-7612-32440-21677-21680-32443-7610-38268zm-1.243e7 -747498 1343500-1343503 282850 282843-1343510 1343503zm8.5e5 848528 1343500-1343503 282840 282843-1343500 1343503zm8.5e5 848970 1343500-1343503 282840 282843-1343500 1343503z" fill-rule="evenodd"/>
    <circle cx="1.2134e8" cy="1.0766e8" r="825500"/>
    <path d="m1.2303e8 9.157e7h1.7e6v1.7e6h-1.7e6z" fill-rule="evenodd"/>
    <circle cx="1.2642e8" cy="9.242e7" r="8.5e5"/>
    <circle cx="1.2896e8" cy="9.242e7" r="8.5e5"/>
    <circle cx="1.315e8" cy="9.242e7" r="8.5e5"/>
    <circle cx="1.3404e8" cy="9.242e7" r="8.5e5"/>
    <circle cx="1.3658e8" cy="9.242e7" r="8.5e5"/>
    <circle cx="1.3912e8" cy="9.242e7" r="8.5e5"/>
    <circle cx="1.4166e8" cy="9.242e7" r="8.5e5"/>
    <circle cx="1.442e8" cy="9.242e7" r="8.5e5"/>
    <circle cx="1.4674e8" cy="9.242e7" r="8.5e5"/>
    <circle cx="1.4928e8" cy="9.242e7" r="8.5e5"/>
    <circle cx="1.5182e8" cy="9.242e7" r="8.5e5"/>
    <circle cx="1.5436e8" cy="9.242e7" r="8.5e5"/>
    <circle cx="1.569e8" cy="9.242e7" r="8.5e5"/>
    <circle cx="1.5944e8" cy="9.242e7" r="8.5e5"/>
    <path d="m1.2303e8 1.0681e8h1.7e6v1.7e6h-1.7e6z" fill-rule="evenodd"/>
    <circle cx="1.2642e8" cy="1.0766e8" r="8.5e5"/>
    <circle cx="1.2896e8" cy="1.0766e8" r="8.5e5"/>
    <circle cx="1.315e8" cy="1.0766e8" r="8.5e5"/>
    <circle cx="1.3404e8" cy="1.0766e8" r="8.5e5"/>
    <circle cx="1.3658e8" cy="1.0766e8" r="8.5e5"/>
    <circle cx="1.3912e8" cy="1.0766e8" r="8.5e5"/>
    <circle cx="1.4166e8" cy="1.0766e8" r="8.5e5"/>
    <circle cx="1.442e8" cy="1.0766e8" r="8.5e5"/>
    <circle cx="1.4674e8" cy="1.0766e8" r="8.5e5"/>
    <circle cx="1.4928e8" cy="1.0766e8" r="8.5e5"/>
    <circle cx="1.5182e8" cy="1.0766e8" r="8.5e5"/>
    <circle cx="1.5436e8" cy="1.0766e8" r="8.5e5"/>
    <circle cx="1.569e8" cy="1.0766e8" r="8.5e5"/>
    <circle cx="1.5944e8" cy="1.0766e8" r="8.5e5"/>
   </g>
   <g fill="#212d53" stroke="#212d53">
    <path d="m1.515e8 1.0462e8 7610-38270 21680-32440 32440-21680 38270-7610h2.6e5l38270 7610 32440 21680 21680 32440 7610 38270v2e5l-7610 38270-21680 32440-32440 21680-38270 7610h-2.6e5l-38270-7610-32440-21680-21680-32440-7610-38270zm6.4e5 0 7610-38270 21680-32440 32440-21680 38270-7610h2.6e5l38270 7610 32440 21680 21680 32440 7610 38270v2e5l-7610 38270-21680 32440-32440 21680-38270 7610h-2.6e5l-38270-7610-32440-21680-21680-32440-7610-38270zm-6.4e5 -2.93e6 7610-38270 21680-32440 32440-21680 38270-7610h2.6e5l38270 7610 32440 21680 21680 32440 7610 38270v2e5l-7610 38270-21680 32440-32440 21680-38270 7610h-2.6e5l-38270-7610-32440-21680-21680-32440-7610-38270zm6.4e5 0 7610-38270 21680-32440 32440-21680 38270-7610h2.6e5l38270 7610 32440 21680 21680 32440 7610 38270v2e5l-7610 38270-21680 32440-32440 21680-38270 7610h-2.6e5l-38270-7610-32440-21680-21680-32440-7610-38270zm-1.169e7 -3.41e6 388910 388909-1131370 1131371-388910-388909zm-5.6e5 -566130 388910 388909-1131370 1131371-388910-388909zm-5.7e5 -565686 388910 388909-1131370 1131371-388910-388909zm-5.6e5 -565685 388910 388909-1131370 1131371-388910-388909zm-5.7e5 -565686 388910 388909-1131370 1131371-388910-388909zm-5.6e5 -565685 388910 388909-1131370 1131371-388910-388909zm-5.7e5 -565685 388910 388909-1131370 1131371-388910-388909zm-5.7e5 -565443 388910 388909-1131380 1131371-388900-388909zm-3.18e6 388666 388900-388909 1131380 1131371-388910 388909zm-5.6e5 565686 388910-388909 1131370 1131371-388910 388909zm-5.7e5 565648 388910-388909 1131370 1131371-388900 388909zm-5.6e5 565722 388910-388909 1131370 1131371-388910 388909zm-5.7e5 565686 388910-388909 1131370 1131371-388910 388909zm-5.7e5 565685 388910-388909 1131370 1131371-388910 388909zm-5.6e5 565686 388910-388909 1131370 1131371-388910 388909zm-5.7e5 565685 388910-388909 1131370 1131371-388910 388909zm1.13e6 1661536 388910 388900-1131370 1131380-388910-388910zm5.7e5 5.7e5 388910 388910-1131370 1131370-388910-388910zm5.7e5 5.6e5 388910 388910-1131370 1131370-388910-388910zm5.6e5 5.7e5 388910 388910-1131370 1131370-388910-388910zm5.7e5 5.6e5 388910 388910-1131370 1131370-388910-388910zm5.6e5 5.7e5 388900 388910-1131370 1131370-388910-388910zm5.7e5 5.6e5 388910 388910-1131370 1131370-388910-388910zm5.6e5 5.7e5 388910 388910-1131380 1131370-388900-388910zm9.2e5 3.9e5 388900-388910 1131380 1131370-388910 388910zm5.7e5 -5.7e5 388910-388910 1131370 1131370-388910 388910zm5.6e5 -5.6e5 388910-388910 1131370 1131370-388910 388910zm5.7e5 -5.7e5 388910-388910 1131370 1131370-388910 388910zm5.7e5 -5.6e5 388910-388910 1131370 1131370-388910 388910zm5.6e5 -5.7e5 388910-388910 1131370 1131370-388910 388910zm5.7e5 -5.7e5 388910-388910 1131370 1131370-388910 388910zm5.6e5 -5.6e5 388910-388900 1131370 1131370-388910 388910zm1.808e7 3.82e6 -19030 95670-54190 81110-81110 54190-95670 19030h-7.5e5l-95670-19030-81110-54190-54190-81110-19030-95670v-1.25e6l19030-95670 54190-81110 81110-54190 95670-19030h7.5e5l95670 19030 81110 54190 54190 81110 19030 95670zm-2.8e6 0-19030 95670-54190 81110-81110 54190-95670 19030h-7.5e5l-95670-19030-81110-54190-54190-81110-19030-95670v-1.25e6l19030-95670 54190-81110 81110-54190 95670-19030h7.5e5l95670 19030 81110 54190 54190 81110 19030 95670zm2.8e6 -2.85e6 -19030 95670-54190 81110-81110 54190-95670 19030h-7.5e5l-95670-19030-81110-54190-54190-81110-19030-95670v-1.25e6l19030-95670 54190-81110 81110-54190 95670-19030h7.5e5l95670 19030 81110 54190 54190 81110 19030 95670zm-2.8e6 0-19030 95670-54190 81110-81110 54190-95670 19030h-7.5e5l-95670-19030-81110-54190-54190-81110-19030-95670v-1.25e6l19030-95670 54190-81110 81110-54190 95670-19030h7.5e5l95670 19030 81110 54190 54190 81110 19030 95670zm3.95e6 -3365000v-1.7e6h1.7e6v1.7e6z" fill-rule="evenodd"/>
    <circle cx="1.6194e8" cy="97475000" r="8.5e5"/>
    <circle cx="1.594e8" cy="1.0002e8" r="8.5e5"/>
    <circle cx="1.6194e8" cy="1.0002e8" r="8.5e5"/>
    <circle cx="1.594e8" cy="1.0256e8" r="8.5e5"/>
    <circle cx="1.6194e8" cy="1.0256e8" r="8.5e5"/>
    <path d="m1.5742e8 99015000-19030 95671-54190 81106-81110 54193-95670 19030h-7.5e5l-95670-19030-81110-54193-54190-81106-19030-95671v-1.25e6l19030-95671 54190-81106 81110-54193 95670-19030h7.5e5l95670 19030 81110 54193 54190 81106 19030 95671zm-2.8e6 0-19030 95671-54190 81106-81110 54193-95670 19030h-7.5e5l-95670-19030-81110-54193-54190-81106-19030-95671v-1.25e6l19030-95671 54190-81106 81110-54193 95670-19030h7.5e5l95670 19030 81110 54193 54190 81106 19030 95671zm-3.12e6 25000 7610-38268 21680-32443 32440-21677 38270-7612h2.6e5l38270 7612 32440 21677 21680 32443 7610 38268v2e5l-7610 38268-21680 32443-32440 21677-38270 7612h-2.6e5l-38270-7612-32440-21677-21680-32443-7610-38268zm6.4e5 0 7610-38268 21680-32443 32440-21677 38270-7612h2.6e5l38270 7612 32440 21677 21680 32443 7610 38268v2e5l-7610 38268-21680 32443-32440 21677-38270 7612h-2.6e5l-38270-7612-32440-21677-21680-32443-7610-38268zm-2.652e7 -8.5e5h2e6v5e5h-2e6zm0 8e5h2e6v5e5h-2e6zm0 8e5h2e6v5e5h-2e6zm0 8e5h2e6v5e5h-2e6zm0 8e5h2e6v5e5h-2e6zm5e4 -6.8e6h1.7e6v2e6h-1.7e6zm-5.45e6 0h1.7e6v2e6h-1.7e6zm5.45e6 8.9e6h1.7e6v2e6h-1.7e6zm-5.45e6 0h1.7e6v2e6h-1.7e6z" fill-rule="evenodd"/>
    <circle cx="1.4957e8" cy="96815000" r="1e6"/>
    <circle cx="1.4957e8" cy="1.0332e8" r="1e6"/>
    <circle cx="1.4507e8" cy="96815000" r="1e6"/>
    <circle cx="1.4507e8" cy="1.0332e8" r="1e6"/>
    <path d="m1.5742e8 9.624e7 -19030 95671-54190 81106-81110 54193-95670 19030h-7.5e5l-95670-19030-81110-54193-54190-81106-19030-95671v-1.25e6l19030-95671 54190-81106 81110-54193 95670-19030h7.5e5l95670 19030 81110 54193 54190 81106 19030 95671zm-2.8e6 0-19030 95671-54190 81106-81110 54193-95670 19030h-7.5e5l-95670-19030-81110-54193-54190-81106-19030-95671v-1.25e6l19030-95671 54190-81106 81110-54193 95670-19030h7.5e5l95670 19030 81110 54193 54190 81106 19030 95671zm-3.05e6 5e4 7610-38268 21680-32443 32440-21677 38270-7612h2.6e5l38270 7612 32440 21677 21680 32443 7610 38268v2e5l-7610 38268-21680 32443-32440 21677-38270 7612h-2.6e5l-38270-7612-32440-21677-21680-32443-7610-38268zm6.4e5 0 7610-38268 21680-32443 32440-21677 38270-7612h2.6e5l38270 7612 32440 21677 21680 32443 7610 38268v2e5l-7610 38268-21680 32443-32440 21677-38270 7612h-2.6e5l-38270-7612-32440-21677-21680-32443-7610-38268zm-1.243e7 -747498 1343500-1343503 282850 282843-1343510 1343503zm8.5e5 848528 1343500-1343503 282840 282843-1343500 1343503zm8.5e5 848970 1343500-1343503 282840 282843-1343500 1343503zm-1.845e7 -5.67e6h1.7e6v1.7e6h-1.7e6z" fill-rule="evenodd"/>
    <circle cx="1.2642e8" cy="9.242e7" r="8.5e5"/>
    <circle cx="1.2896e8" cy="9.242e7" r="8.5e5"/>
    <circle cx="1.315e8" cy="9.242e7" r="8.5e5"/>
    <circle cx="1.3404e8" cy="9.242e7" r="8.5e5"/>
    <circle cx="1.3658e8" cy="9.242e7" r="8.5e5"/>
    <circle cx="1.3912e8" cy="9.242e7" r="8.5e5"/>
    <circle cx="1.4166e8" cy="9.242e7" r="8.5e5"/>
    <circle cx="1.442e8" cy="9.242e7" r="8.5e5"/>
    <circle cx="1.4674e8" cy="9.242e7" r="8.5e5"/>
    <circle cx="1.4928e8" cy="9.242e7" r="8.5e5"/>
    <circle cx="1.5182e8" cy="9.242e7" r="8.5e5"/>
    <circle cx="1.5436e8" cy="9.242e7" r="8.5e5"/>
    <circle cx="1.569e8" cy="9.242e7" r="8.5e5"/>
    <circle cx="1.5944e8" cy="9.242e7" r="8.5e5"/>
    <path d="m1.2303e8 1.0681e8h1.7e6v1.7e6h-1.7e6z" fill-rule="evenodd"/>
    <circle cx="1.2642e8" cy="1.0766e8" r="8.5e5"/>
    <circle cx="1.2896e8" cy="1.0766e8" r="8.5e5"/>
    <circle cx="1.315e8" cy="1.0766e8" r="8.5e5"/>
    <circle cx="1.3404e8" cy="1.0766e8" r="8.5e5"/>
    <circle cx="1.3658e8" cy="1.0766e8" r="8.5e5"/>
    <circle cx="1.3912e8" cy="1.0766e8" r="8.5e5"/>
    <circle cx="1.4166e8" cy="1.0766e8" r="8.5e5"/>
    <circle cx="1.442e8" cy="1.0766e8" r="8.5e5"/>
    <circle cx="1.4674e8" cy="1.0766e8" r="8.5e5"/>
    <circle cx="1.4928e8" cy="1.0766e8" r="8.5e5"/>
    <circle cx="1.5182e8" cy="1.0766e8" r="8.5e5"/>
    <circle cx="1.5436e8" cy="1.0766e8" r="8.5e5"/>
    <circle cx="1.569e8" cy="1.0766e8" r="8.5e5"/>
    <circle cx="1.5944e8" cy="1.0766e8" r="8.5e5"/>
    <circle cx="1.2189e8" cy="1.0236e8" r="3e5"/>
    <circle cx="1.4308e8" cy="1.0644e8" r="3e5"/>
    <circle cx="1.2503e8" cy="1.0097e8" r="3e5"/>
    <circle cx="1.5261e8" cy="97978800" r="3e5"/>
    <circle cx="1.3531e8" cy="9.951e7" r="3e5"/>
    <circle cx="1.5284e8" cy="1.0097e8" r="3e5"/>
    <circle cx="1.5328e8" cy="1.0644e8" r="3e5"/>
    <circle cx="1.3809e8" cy="99003296" r="3e5"/>
    <circle cx="1.5795e8" cy="98552704" r="3e5"/>
    <circle cx="1.2521e8" cy="1.022e8" r="3e5"/>
    <circle cx="1.4759e8" cy="1.0541e8" r="3e5"/>
    <circle cx="1.3088e8" cy="1.0372e8" r="3e5"/>
    <circle cx="1.2987e8" cy="1.0591e8" r="3e5"/>
    <circle cx="1.3289e8" cy="94391800" r="3e5"/>
    <circle cx="1.3571e8" cy="94386896" r="3e5"/>
    <circle cx="1.4371e8" cy="1.0065e8" r="3e5"/>
    <circle cx="1.3769e8" cy="1.0065e8" r="3e5"/>
    <circle cx="1.4025e8" cy="1.0404e8" r="3e5"/>
    <circle cx="1.6076e8" cy="96700600" r="3e5"/>
    <circle cx="1.3165e8" cy="1.0553e8" r="3e5"/>
    <circle cx="1.4754e8" cy="1.0142e8" r="3e5"/>
    <circle cx="1.3375e8" cy="1.0016e8" r="3e5"/>
    <circle cx="1.3069e8" cy="1.056e8" r="3e5"/>
    <circle cx="1.2095e8" cy="1.0233e8" r="3e5"/>
    <circle cx="1.3782e8" cy="1.015e8" r="3e5"/>
    <circle cx="1.2925e8" cy="1.002e8" r="3e5"/>
    <circle cx="1.2813e8" cy="99555296" r="3e5"/>
    <circle cx="1.4204e8" cy="1.0394e8" r="3e5"/>
    <circle cx="1.4094e8" cy="1.0211e8" r="3e5"/>
    <circle cx="1.4455e8" cy="98841800" r="3e5"/>
    <circle cx="1.4486e8" cy="1.0108e8" r="3e5"/>
    <circle cx="1.387e8" cy="9.471e7" r="3e5"/>
    <circle cx="1.3772e8" cy="93927904" r="3e5"/>
    <path d="m1.5318e8 9.242e7v786300m-4.96e6 11453700 1348200-1348200m3611800-10105500-3608700 3608700m-10391300 6765000v266800m0 3200 813300 813300m15536700 2686700 3618800-3618800m-4788800-11311200h-1175300m5965300 1.131e7h246900m-19396900 9.3e5h8229800m6130200 3e6h1175300m3864700-5.1e6v1175300m-2.101e7 -945300 795700 795700m16344300 4074300v-310900m-1.885e7 -9210800h907100m14212900 926700-75000 75000m1265000 7.59e6 287000-287000m-967000-5473000h533500m-21333500-1.4e5 -828900 828900m-5651100-688900h-1754100m13404100-2831700v-907100m1.512e7 747600v1086200m-7e4 2475000 574300-574300m-504300-4575700v1588800m-1.649e7 1531200-1316900 1316900m-10713100 143100-1387700 1387700m29927700 5302300h1175300m-1265300-5.87e6v-248300m-1.448e7 -5330400-795700 795700m16535700 10653000v-929600m-1.9e7 -5900400h-2486900m21776900 5.61e6h-10197800m9527800-8461200h-807000m-16493000 1531200 1371900-1371900m-1900-906900-224200-224200m1934200 335600-795700 795700m2155700-1025700v-18300m2.02e7 4285700 807900 807900m-35457900-547900v473600m3.546e7 76400v367400m-2.213e7 -6576100h-18300m21108300 2669400h-1673900m-20226100-1873700 795700-795700m13204300-3561300h-1175300m-12554700 6284000h68500m23781500 3856000h-1175300m-814700-1.18e6 618500-618500m-35268500 1348500-87600 87600m13507600-4061800-568200 568200m12488200-5973100-4084000 4084000m-9826000 2188400h1362200m-11472200 2636700h-1325300m12795300-2636700v-299300m-4.92e6 3856000 3554000-3554000m21326000-355300-98000-98000m-11392000-1737800h-1484700m11774700 7145100-1443900 1443900m-16456100-7495600 795700-795700m4300-18300-1113000-1113000m21933000 4778700v-1261700m-3.48e6 1881700-314700-314700m314700 2664700-239700 239700m-6210300-1.155e7v310900m6.45e6 8649100h2867100m-27577100 1.97e6 795700-795700m11894300-5739400v100m1.202e7 4565000v2345600m-1.69e6 1684400h-7811800m12981800-5.91e6 -848800-848800m-21001200-515400 227500-227500m-7367500 8571700 1133100-1133100m796900-866900-795800 795800m-4200 74200v-71400m-1.21e6 2381400v-1175300m0-4700h81100m2458900 1.18e6v-1175300m-3.5e5 -344700h-121000m1e3 0-289700-289800m789700-800200-795600 795600m765600 634400-349200-349200m2429200-1080800 795700 795600m-335700 1814400v-1175300m0-294700 342000-342000m-342000 632000v-297000m2.54e6 297000h-427700m427700 1.18e6v-1175300m-4.3e5 -4700-2000300-2000300m-6819700 2260300v-835500m-9.1e5 1755500 915900-915900m1004100-3024100 930500-930500m8669500 4360500-3227000-3227000m3227000 3737000v-514300m1.18e6 514300h-1175300m2535300-3.7e5v367400m1.18e6 2600h-1175300m-2184700-2.55e6 2179100 2179100m-3439100-2179100h1261700m-3021700-1.76e6 1760500 1760500m-8570500-11032500v2468900m8e5 795700-795700-795700m485700-4126900v1175300l-482700 482700m1132700 1057200 743400-743400m46600 1819500-795700-795700m5700 0v-280400m1.92e6 -55200 693000-693000m7e3 -100h940700m8489300-1966900v1444000l-3814200 3814200m-865800 795800 795800-795800m64200 0h-69600m8969600-5258200h-1175300m-814700 1175300h-905500m1715500-807900-807900 807900m-7212100 6304700v1189800m8.02e6 -8669800v367400m-1.71e6 807900-6305200 6305200m16715200-2460500v950400m1.48e6 -2436700-1485900 1485900m-17274100 4220400-795600-795700m16595600-1000700h-2847800m5807800-5115200v1205300m-1.977e7 4696300h-817100m21747100-8.23e6v1175300l-1153100 1153100m-14376900 5701600-200800 200800m-4989200 209200-211800-211700m13381800-198300h-7982000m8572000-586400-587400 587400m4907400-2061000-1473600 1473600m-15376400 3356400-998200-998200m2608200-311800 1916100-1916100m-3226100 3226100h459500m-459500 0v818000m1.665e7 -11618000v1836000m-3.89e6 99000h3792200m-13322200 5638700h4862800m8457200-5638700v1.26e6m1e5 -1359000-99000 99000m-15241000 8015000v-459500m6.78e6 -1916800 2829200-2829200m800 0v-975900m-1.046e7 7031400 850600-850600m9609400-6180800 1833600-1833600m-12753600 8865000h-304100m-10065900-3321900-2982800-2982800m-377200-1325300v890900m3.36e6 3999100v-578700m-8.81e6 -4311300h4559100m1260900 1325300h-371500m671500 6244700 2687900-2687900m-3357900-3991200v434400m0 6244700h666400m-6116400 1.33e6h5.45e6v-1325300m-8.9e5 -7574700 890900 890900m35419100 3539100v-1175300m-3.552e7 -6424700v1175300m3.434e7 4436500 807900 807900m2100 300h367400m-33637400-2.74e6v-1694800m-8.1e5 -809900h-1077700m1887700 809900-809900-809900m3.327e7 3105300v1331200m-3.008e7 442200-2374000-2374000m1924000 7.13e6 1012000-1012000m408000 3312000-1416700-1416700m-3300-3300v-879000m-1.2e5 -2141000 934900-934900m-5994900 7114900 1458000-1458000m4542000-5652000h2700900m21619100 4.2e5 728800-728800m1951200-5e3 168800 168800m-6048800 2545000h2216200m983800-9.9e5v-990100m-2.886e7 5240100h999200m24220800-2.83e6 433900-433900m3936100-2709900h1952100m-30102100 3403800 2164500-2164500m29285500-1065500h-1175300m-6494700 2.97e6v1726100m-2.668e7 2943900v-385700m2.46e6 -1454300 438900-438900m19591100-3961100h2627700m-26287700 6.24e6h1175300m29324700-5.1e6 989900-989900m-2.742e7 3809900v-2122600m2.222e7 -1837400 1564500 1564500m-25314500 4675500h1175300m2014700-2.38e6h763300m6700 0 316800 316800m-3106800 2063200v-355100m0-4900 2021600-2021600m-1761600-8497300 2258600 2258600m-6228600-6619700h1175300m-5300 514200 1111400 1111400m1688600 546300v2189200m-1.69e6 -2735500h1144300m5700 0 546300 546300m-2806300-2171900v514200m-1.82e6 7115800h437500m2500 0 1609600-1609600m-4329600 3889600 2284800-2284800m2045200-1605200h1343100m25746900 3.35e6h875000m5e3 0 725000-725000m-1535000-4675000h7.8e5l775000-775000m-1625000 3525000h8.8e5l7.5e5 -7.5e5m5e4 5.57e6h-925000m-5e3 0-7.5e5 7.5e5m-1.701e7 -3.21e6h2457000m-4877000 2.42e6 2417900-2417900m-6397900-5881100v-3201000m2.28e6 5488300-2287300-2287300m-2332700 4419000 155000 155000m5e3 5e3h2473200m-1303200-829400v-130600m-1.33e6 0h1325300m184700 315300-184700-184700m12994700 2739400v-212000m3.06e6 -3056200h553800m-3613800 3058200 3056400-3056400m863600 2236400-2820300 2820300m300-300v46200m-4.07e6 -9393000 692100-692100m-882100 692100h192900m3467100 1307500 901800-901800m-1091800-1097800 487100 487100m2900 6700 604100 604000m-3674100-1097800h2587900m482100 487100v6700m-5.05e6 1290700 1092400-1092400m1907600 1360700-236700-236600m1146700-665100-901700 901700m-1978300-1986000h-439900m2179900 1749400v-212200l-754900-754900m-1425100-782300-1152000 1152000" fill="none" fill-opacity="0" stroke-width="2.5e5"/>
    <circle cx="1.2189e8" cy="1.0236e8" r="175000"/>
    <circle cx="1.4308e8" cy="1.0644e8" r="175000"/>
    <circle cx="1.2503e8" cy="1.0097e8" r="175000"/>
    <circle cx="1.5261e8" cy="97978800" r="175000"/>
    <circle cx="1.3531e8" cy="9.951e7" r="175000"/>
    <circle cx="1.5284e8" cy="1.0097e8" r="175000"/>
    <circle cx="1.5328e8" cy="1.0644e8" r="175000"/>
    <circle cx="1.3809e8" cy="99003296" r="175000"/>
    <circle cx="1.5795e8" cy="98552704" r="175000"/>
    <circle cx="1.2521e8" cy="1.022e8" r="175000"/>
    <circle cx="1.4759e8" cy="1.0541e8" r="175000"/>
    <circle cx="1.3088e8" cy="1.0372e8" r="175000"/>
    <circle cx="1.2987e8" cy="1.0591e8" r="175000"/>
    <circle cx="1.3289e8" cy="94391800" r="175000"/>
    <circle cx="1.3571e8" cy="94386896" r="175000"/>
    <circle cx="1.4371e8" cy="1.0065e8" r="175000"/>
    <circle cx="1.3769e8" cy="1.0065e8" r="175000"/>
    <circle cx="1.4025e8" cy="1.0404e8" r="175000"/>
    <circle cx="1.6076e8" cy="96700600" r="175000"/>
    <circle cx="1.3165e8" cy="1.0553e8" r="175000"/>
    <circle cx="1.4754e8" cy="1.0142e8" r="175000"/>
    <circle cx="1.3375e8" cy="1.0016e8" r="175000"/>
    <circle cx="1.3069e8" cy="1.056e8" r="175000"/>
    <circle cx="1.2095e8" cy="1.0233e8" r="175000"/>
    <circle cx="1.3782e8" cy="1.015e8" r="175000"/>
    <circle cx="1.2925e8" cy="1.002e8" r="175000"/>
    <circle cx="1.2813e8" cy="99555296" r="175000"/>
    <circle cx="1.4204e8" cy="1.0394e8" r="175000"/>
    <circle cx="1.4094e8" cy="1.0211e8" r="175000"/>
    <circle cx="1.4455e8" cy="98841800" r="175000"/>
    <circle cx="1.4486e8" cy="1.0108e8" r="175000"/>
    <circle cx="1.387e8" cy="9.471e7" r="175000"/>
    <circle cx="1.3772e8" cy="93927904" r="175000"/>
    <circle cx="1.594e8" cy="97475000" r="175000"/>
    <circle cx="1.6194e8" cy="97475000" r="175000"/>
    <circle cx="1.594e8" cy="1.0002e8" r="175000"/>
    <circle cx="1.6194e8" cy="1.0002e8" r="175000"/>
    <circle cx="1.594e8" cy="1.0256e8" r="175000"/>
    <circle cx="1.6194e8" cy="1.0256e8" r="175000"/>
    <circle cx="1.6198e8" cy="1.0766e8" r="175000"/>
    <circle cx="1.2134e8" cy="9.242e7" r="175000"/>
    <circle cx="1.2392e8" cy="9.784e7" r="175000"/>
    <circle cx="1.2392e8" cy="1.0224e8" r="175000"/>
    <circle cx="1.6198e8" cy="9.242e7" r="175000"/>
    <circle cx="1.4957e8" cy="96815000" r="175000"/>
    <circle cx="1.4957e8" cy="1.0332e8" r="175000"/>
    <circle cx="1.4507e8" cy="96815000" r="175000"/>
    <circle cx="1.4507e8" cy="1.0332e8" r="175000"/>
    <circle cx="1.2134e8" cy="1.0766e8" r="175000"/>
    <circle cx="1.2388e8" cy="9.242e7" r="175000"/>
    <circle cx="1.2642e8" cy="9.242e7" r="175000"/>
    <circle cx="1.2896e8" cy="9.242e7" r="175000"/>
    <circle cx="1.315e8" cy="9.242e7" r="175000"/>
    <circle cx="1.3404e8" cy="9.242e7" r="175000"/>
    <circle cx="1.3658e8" cy="9.242e7" r="175000"/>
    <circle cx="1.3912e8" cy="9.242e7" r="175000"/>
    <circle cx="1.4166e8" cy="9.242e7" r="175000"/>
    <circle cx="1.442e8" cy="9.242e7" r="175000"/>
    <circle cx="1.4674e8" cy="9.242e7" r="175000"/>
    <circle cx="1.4928e8" cy="9.242e7" r="175000"/>
    <circle cx="1.5182e8" cy="9.242e7" r="175000"/>
    <circle cx="1.5436e8" cy="9.242e7" r="175000"/>
    <circle cx="1.569e8" cy="9.242e7" r="175000"/>
    <circle cx="1.5944e8" cy="9.242e7" r="175000"/>
    <circle cx="1.2388e8" cy="1.0766e8" r="175000"/>
    <circle cx="1.2642e8" cy="1.0766e8" r="175000"/>
    <circle cx="1.2896e8" cy="1.0766e8" r="175000"/>
    <circle cx="1.315e8" cy="1.0766e8" r="175000"/>
    <circle cx="1.3404e8" cy="1.0766e8" r="175000"/>
    <circle cx="1.3658e8" cy="1.0766e8" r="175000"/>
    <circle cx="1.3912e8" cy="1.0766e8" r="175000"/>
    <circle cx="1.4166e8" cy="1.0766e8" r="175000"/>
    <circle cx="1.442e8" cy="1.0766e8" r="175000"/>
    <circle cx="1.4674e8" cy="1.0766e8" r="175000"/>
    <circle cx="1.4928e8" cy="1.0766e8" r="175000"/>
    <circle cx="1.5182e8" cy="1.0766e8" r="175000"/>
    <circle cx="1.5436e8" cy="1.0766e8" r="175000"/>
    <circle cx="1.569e8" cy="1.0766e8" r="175000"/>
    <circle cx="1.5944e8" cy="1.0766e8" r="175000"/>
   </g>
   <g fill="#b5ae30" mask="url(#c)" stroke="#b5ae30">
    <path d="m1.515e8 1.0462e8 7610-38270 21680-32440 32440-21680 38270-7610h2.6e5l38270 7610 32440 21680 21680 32440 7610 38270v2e5l-7610 38270-21680 32440-32440 21680-38270 7610h-2.6e5l-38270-7610-32440-21680-21680-32440-7610-38270zm6.4e5 0 7610-38270 21680-32440 32440-21680 38270-7610h2.6e5l38270 7610 32440 21680 21680 32440 7610 38270v2e5l-7610 38270-21680 32440-32440 21680-38270 7610h-2.6e5l-38270-7610-32440-21680-21680-32440-7610-38270zm-6.4e5 -2.93e6 7610-38270 21680-32440 32440-21680 38270-7610h2.6e5l38270 7610 32440 21680 21680 32440 7610 38270v2e5l-7610 38270-21680 32440-32440 21680-38270 7610h-2.6e5l-38270-7610-32440-21680-21680-32440-7610-38270zm6.4e5 0 7610-38270 21680-32440 32440-21680 38270-7610h2.6e5l38270 7610 32440 21680 21680 32440 7610 38270v2e5l-7610 38270-21680 32440-32440 21680-38270 7610h-2.6e5l-38270-7610-32440-21680-21680-32440-7610-38270zm-1.169e7 -3.41e6 388910 388909-1131370 1131371-388910-388909zm-5.6e5 -566130 388910 388909-1131370 1131371-388910-388909zm-5.7e5 -565686 388910 388909-1131370 1131371-388910-388909zm-5.6e5 -565685 388910 388909-1131370 1131371-388910-388909zm-5.7e5 -565686 388910 388909-1131370 1131371-388910-388909zm-5.6e5 -565685 388910 388909-1131370 1131371-388910-388909zm-5.7e5 -565685 388910 388909-1131370 1131371-388910-388909zm-5.7e5 -565443 388910 388909-1131380 1131371-388900-388909zm-3.18e6 388666 388900-388909 1131380 1131371-388910 388909zm-5.6e5 565686 388910-388909 1131370 1131371-388910 388909zm-5.7e5 565648 388910-388909 1131370 1131371-388900 388909zm-5.6e5 565722 388910-388909 1131370 1131371-388910 388909zm-5.7e5 565686 388910-388909 1131370 1131371-388910 388909zm-5.7e5 565685 388910-388909 1131370 1131371-388910 388909zm-5.6e5 565686 388910-388909 1131370 1131371-388910 388909zm-5.7e5 565685 388910-388909 1131370 1131371-388910 388909zm1.13e6 1661536 388910 388900-1131370 1131380-388910-388910zm5.7e5 5.7e5 388910 388910-1131370 1131370-388910-388910zm5.7e5 5.6e5 388910 388910-1131370 1131370-388910-388910zm5.6e5 5.7e5 388910 388910-1131370 1131370-388910-388910zm5.7e5 5.6e5 388910 388910-1131370 1131370-388910-388910zm5.6e5 5.7e5 388900 388910-1131370 1131370-388910-388910zm5.7e5 5.6e5 388910 388910-1131370 1131370-388910-388910zm5.6e5 5.7e5 388910 388910-1131380 1131370-388900-388910zm9.2e5 3.9e5 388900-388910 1131380 1131370-388910 388910zm5.7e5 -5.7e5 388910-388910 1131370 1131370-388910 388910zm5.6e5 -5.6e5 388910-388910 1131370 1131370-388910 388910zm5.7e5 -5.7e5 388910-388910 1131370 1131370-388910 388910zm5.7e5 -5.6e5 388910-388910 1131370 1131370-388910 388910zm5.6e5 -5.7e5 388910-388910 1131370 1131370-388910 388910zm5.7e5 -5.7e5 388910-388910 1131370 1131370-388910 388910zm5.6e5 -5.6e5 388910-388900 1131370 1131370-388910 388910zm1.808e7 3.82e6 -19030 95670-54190 81110-81110 54190-95670 19030h-7.5e5l-95670-19030-81110-54190-54190-81110-19030-95670v-1.25e6l19030-95670 54190-81110 81110-54190 95670-19030h7.5e5l95670 19030 81110 54190 54190 81110 19030 95670zm-2.8e6 0-19030 95670-54190 81110-81110 54190-95670 19030h-7.5e5l-95670-19030-81110-54190-54190-81110-19030-95670v-1.25e6l19030-95670 54190-81110 81110-54190 95670-19030h7.5e5l95670 19030 81110 54190 54190 81110 19030 95670zm2.8e6 -2.85e6 -19030 95670-54190 81110-81110 54190-95670 19030h-7.5e5l-95670-19030-81110-54190-54190-81110-19030-95670v-1.25e6l19030-95670 54190-81110 81110-54190 95670-19030h7.5e5l95670 19030 81110 54190 54190 81110 19030 95670zm-2.8e6 0-19030 95670-54190 81110-81110 54190-95670 19030h-7.5e5l-95670-19030-81110-54190-54190-81110-19030-95670v-1.25e6l19030-95670 54190-81110 81110-54190 95670-19030h7.5e5l95670 19030 81110 54190 54190 81110 19030 95670zm3.95e6 -3365000v-1.7e6h1.7e6v1.7e6z" fill-rule="evenodd"/>
    <circle cx="1.6194e8" cy="97475000" r="8.5e5"/>
    <circle cx="1.594e8" cy="1.0002e8" r="8.5e5"/>
    <circle cx="1.6194e8" cy="1.0002e8" r="8.5e5"/>
    <circle cx="1.594e8" cy="1.0256e8" r="8.5e5"/>
    <circle cx="1.6194e8" cy="1.0256e8" r="8.5e5"/>
    <path d="m1.5742e8 99015000-19030 95671-54190 81106-81110 54193-95670 19030h-7.5e5l-95670-19030-81110-54193-54190-81106-19030-95671v-1.25e6l19030-95671 54190-81106 81110-54193 95670-19030h7.5e5l95670 19030 81110 54193 54190 81106 19030 95671zm-2.8e6 0-19030 95671-54190 81106-81110 54193-95670 19030h-7.5e5l-95670-19030-81110-54193-54190-81106-19030-95671v-1.25e6l19030-95671 54190-81106 81110-54193 95670-19030h7.5e5l95670 19030 81110 54193 54190 81106 19030 95671zm-3.12e6 25000 7610-38268 21680-32443 32440-21677 38270-7612h2.6e5l38270 7612 32440 21677 21680 32443 7610 38268v2e5l-7610 38268-21680 32443-32440 21677-38270 7612h-2.6e5l-38270-7612-32440-21677-21680-32443-7610-38268zm6.4e5 0 7610-38268 21680-32443 32440-21677 38270-7612h2.6e5l38270 7612 32440 21677 21680 32443 7610 38268v2e5l-7610 38268-21680 32443-32440 21677-38270 7612h-2.6e5l-38270-7612-32440-21677-21680-32443-7610-38268zm-2.652e7 -8.5e5h2e6v5e5h-2e6zm0 8e5h2e6v5e5h-2e6zm0 8e5h2e6v5e5h-2e6zm0 8e5h2e6v5e5h-2e6zm0 8e5h2e6v5e5h-2e6zm5e4 -6.8e6h1.7e6v2e6h-1.7e6zm-5.45e6 0h1.7e6v2e6h-1.7e6zm5.45e6 8.9e6h1.7e6v2e6h-1.7e6zm-5.45e6 0h1.7e6v2e6h-1.7e6z" fill-rule="evenodd"/>
    <circle cx="1.4957e8" cy="96815000" r="1e6"/>
    <circle cx="1.4957e8" cy="1.0332e8" r="1e6"/>
    <circle cx="1.4507e8" cy="96815000" r="1e6"/>
    <circle cx="1.4507e8" cy="1.0332e8" r="1e6"/>
    <path d="m1.5742e8 9.624e7 -19030 95671-54190 81106-81110 54193-95670 19030h-7.5e5l-95670-19030-81110-54193-54190-81106-19030-95671v-1.25e6l19030-95671 54190-81106 81110-54193 95670-19030h7.5e5l95670 19030 81110 54193 54190 81106 19030 95671zm-2.8e6 0-19030 95671-54190 81106-81110 54193-95670 19030h-7.5e5l-95670-19030-81110-54193-54190-81106-19030-95671v-1.25e6l19030-95671 54190-81106 81110-54193 95670-19030h7.5e5l95670 19030 81110 54193 54190 81106 19030 95671zm-3.05e6 5e4 7610-38268 21680-32443 32440-21677 38270-7612h2.6e5l38270 7612 32440 21677 21680 32443 7610 38268v2e5l-7610 38268-21680 32443-32440 21677-38270 7612h-2.6e5l-38270-7612-32440-21677-21680-32443-7610-38268zm6.4e5 0 7610-38268 21680-32443 32440-21677 38270-7612h2.6e5l38270 7612 32440 21677 21680 32443 7610 38268v2e5l-7610 38268-21680 32443-32440 21677-38270 7612h-2.6e5l-38270-7612-32440-21677-21680-32443-7610-38268zm-1.243e7 -747498 1343500-1343503 282850 282843-1343510 1343503zm8.5e5 848528 1343500-1343503 282840 282843-1343500 1343503zm8.5e5 848970 1343500-1343503 282840 282843-1343500 1343503zm-1.845e7 -5.67e6h1.7e6v1.7e6h-1.7e6z" fill-rule="evenodd"/>
    <circle cx="1.2642e8" cy="9.242e7" r="8.5e5"/>
    <circle cx="1.2896e8" cy="9.242e7" r="8.5e5"/>
    <circle cx="1.315e8" cy="9.242e7" r="8.5e5"/>
    <circle cx="1.3404e8" cy="9.242e7" r="8.5e5"/>
    <circle cx="1.3658e8" cy="9.242e7" r="8.5e5"/>
    <circle cx="1.3912e8" cy="9.242e7" r="8.5e5"/>
    <circle cx="1.4166e8" cy="9.242e7" r="8.5e5"/>
    <circle cx="1.442e8" cy="9.242e7" r="8.5e5"/>
    <circle cx="1.4674e8" cy="9.242e7" r="8.5e5"/>
    <circle cx="1.4928e8" cy="9.242e7" r="8.5e5"/>
    <circle cx="1.5182e8" cy="9.242e7" r="8.5e5"/>
    <circle cx="1.5436e8" cy="9.242e7" r="8.5e5"/>
    <circle cx="1.569e8" cy="9.242e7" r="8.5e5"/>
    <circle cx="1.5944e8" cy="9.242e7" r="8.5e5"/>
    <path d="m1.2303e8 1.0681e8h1.7e6v1.7e6h-1.7e6z" fill-rule="evenodd"/>
    <circle cx="1.2642e8" cy="1.0766e8" r="8.5e5"/>
    <circle cx="1.2896e8" cy="1.0766e8" r="8.5e5"/>
    <circle cx="1.315e8" cy="1.0766e8" r="8.5e5"/>
    <circle cx="1.3404e8" cy="1.0766e8" r="8.5e5"/>
    <circle cx="1.3658e8" cy="1.0766e8" r="8.5e5"/>
    <circle cx="1.3912e8" cy="1.0766e8" r="8.5e5"/>
    <circle cx="1.4166e8" cy="1.0766e8" r="8.5e5"/>
    <circle cx="1.442e8" cy="1.0766e8" r="8.5e5"/>
    <circle cx="1.4674e8" cy="1.0766e8" r="8.5e5"/>
    <circle cx="1.4928e8" cy="1.0766e8" r="8.5e5"/>
    <circle cx="1.5182e8" cy="1.0766e8" r="8.5e5"/>
    <circle cx="1.5436e8" cy="1.0766e8" r="8.5e5"/>
    <circle cx="1.569e8" cy="1.0766e8" r="8.5e5"/>
    <circle cx="1.5944e8" cy="1.0766e8" r="8.5e5"/>
    <circle cx="1.2189e8" cy="1.0236e8" r="3e5"/>
    <circle cx="1.4308e8" cy="1.0644e8" r="3e5"/>
    <circle cx="1.2503e8" cy="1.0097e8" r="3e5"/>
    <circle cx="1.5261e8" cy="97978800" r="3e5"/>
    <circle cx="1.3531e8" cy="9.951e7" r="3e5"/>
    <circle cx="1.5284e8" cy="1.0097e8" r="3e5"/>
    <circle cx="1.5328e8" cy="1.0644e8" r="3e5"/>
    <circle cx="1.3809e8" cy="99003296" r="3e5"/>
    <circle cx="1.5795e8" cy="98552704" r="3e5"/>
    <circle cx="1.2521e8" cy="1.022e8" r="3e5"/>
    <circle cx="1.4759e8" cy="1.0541e8" r="3e5"/>
    <circle cx="1.3088e8" cy="1.0372e8" r="3e5"/>
    <circle cx="1.2987e8" cy="1.0591e8" r="3e5"/>
    <circle cx="1.3289e8" cy="94391800" r="3e5"/>
    <circle cx="1.3571e8" cy="94386896" r="3e5"/>
    <circle cx="1.4371e8" cy="1.0065e8" r="3e5"/>
    <circle cx="1.3769e8" cy="1.0065e8" r="3e5"/>
    <circle cx="1.4025e8" cy="1.0404e8" r="3e5"/>
    <circle cx="1.6076e8" cy="96700600" r="3e5"/>
    <circle cx="1.3165e8" cy="1.0553e8" r="3e5"/>
    <circle cx="1.4754e8" cy="1.0142e8" r="3e5"/>
    <circle cx="1.3375e8" cy="1.0016e8" r="3e5"/>
    <circle cx="1.3069e8" cy="1.056e8" r="3e5"/>
    <circle cx="1.2095e8" cy="1.0233e8" r="3e5"/>
    <circle cx="1.3782e8" cy="1.015e8" r="3e5"/>
    <circle cx="1.2925e8" cy="1.002e8" r="3e5"/>
    <circle cx="1.2813e8" cy="99555296" r="3e5"/>
    <circle cx="1.4204e8" cy="1.0394e8" r="3e5"/>
    <circle cx="1.4094e8" cy="1.0211e8" r="3e5"/>
    <circle cx="1.4455e8" cy="98841800" r="3e5"/>
    <circle cx="1.4486e8" cy="1.0108e8" r="3e5"/>
    <circle cx="1.387e8" cy="9.471e7" r="3e5"/>
    <circle cx="1.3772e8" cy="93927904" r="3e5"/>
    <path d="m1.5318e8 9.242e7v786300m-4.96e6 11453700 1348200-1348200m3611800-10105500-3608700 3608700m-10391300 6765000v266800m0 3200 813300 813300m15536700 2686700 3618800-3618800m-4788800-11311200h-1175300m5965300 1.131e7h246900m-19396900 9.3e5h8229800m6130200 3e6h1175300m3864700-5.1e6v1175300m-2.101e7 -945300 795700 795700m16344300 4074300v-310900m-1.885e7 -9210800h907100m14212900 926700-75000 75000m1265000 7.59e6 287000-287000m-967000-5473000h533500m-21333500-1.4e5 -828900 828900m-5651100-688900h-1754100m13404100-2831700v-907100m1.512e7 747600v1086200m-7e4 2475000 574300-574300m-504300-4575700v1588800m-1.649e7 1531200-1316900 1316900m-10713100 143100-1387700 1387700m29927700 5302300h1175300m-1265300-5.87e6v-248300m-1.448e7 -5330400-795700 795700m16535700 10653000v-929600m-1.9e7 -5900400h-2486900m21776900 5.61e6h-10197800m9527800-8461200h-807000m-16493000 1531200 1371900-1371900m-1900-906900-224200-224200m1934200 335600-795700 795700m2155700-1025700v-18300m2.02e7 4285700 807900 807900m-35457900-547900v473600m3.546e7 76400v367400m-2.213e7 -6576100h-18300m21108300 2669400h-1673900m-20226100-1873700 795700-795700m13204300-3561300h-1175300m-12554700 6284000h68500m23781500 3856000h-1175300m-814700-1.18e6 618500-618500m-35268500 1348500-87600 87600m13507600-4061800-568200 568200m12488200-5973100-4084000 4084000m-9826000 2188400h1362200m-11472200 2636700h-1325300m12795300-2636700v-299300m-4.92e6 3856000 3554000-3554000m21326000-355300-98000-98000m-11392000-1737800h-1484700m11774700 7145100-1443900 1443900m-16456100-7495600 795700-795700m4300-18300-1113000-1113000m21933000 4778700v-1261700m-3.48e6 1881700-314700-314700m314700 2664700-239700 239700m-6210300-1.155e7v310900m6.45e6 8649100h2867100m-27577100 1.97e6 795700-795700m11894300-5739400v100m1.202e7 4565000v2345600m-1.69e6 1684400h-7811800m12981800-5.91e6 -848800-848800m-21001200-515400 227500-227500m-7367500 8571700 1133100-1133100m796900-866900-795800 795800m-4200 74200v-71400m-1.21e6 2381400v-1175300m0-4700h81100m2458900 1.18e6v-1175300m-3.5e5 -344700h-121000m1e3 0-289700-289800m789700-800200-795600 795600m765600 634400-349200-349200m2429200-1080800 795700 795600m-335700 1814400v-1175300m0-294700 342000-342000m-342000 632000v-297000m2.54e6 297000h-427700m427700 1.18e6v-1175300m-4.3e5 -4700-2000300-2000300m-6819700 2260300v-835500m-9.1e5 1755500 915900-915900m1004100-3024100 930500-930500m8669500 4360500-3227000-3227000m3227000 3737000v-514300m1.18e6 514300h-1175300m2535300-3.7e5v367400m1.18e6 2600h-1175300m-2184700-2.55e6 2179100 2179100m-3439100-2179100h1261700m-3021700-1.76e6 1760500 1760500m-8570500-11032500v2468900m8e5 795700-795700-795700m485700-4126900v1175300l-482700 482700m1132700 1057200 743400-743400m46600 1819500-795700-795700m5700 0v-280400m1.92e6 -55200 693000-693000m7e3 -100h940700m8489300-1966900v1444000l-3814200 3814200m-865800 795800 795800-795800m64200 0h-69600m8969600-5258200h-1175300m-814700 1175300h-905500m1715500-807900-807900 807900m-7212100 6304700v1189800m8.02e6 -8669800v367400m-1.71e6 807900-6305200 6305200m16715200-2460500v950400m1.48e6 -2436700-1485900 1485900m-17274100 4220400-795600-795700m16595600-1000700h-2847800m5807800-5115200v1205300m-1.977e7 4696300h-817100m21747100-8.23e6v1175300l-1153100 1153100m-14376900 5701600-200800 200800m-4989200 209200-211800-211700m13381800-198300h-7982000m8572000-586400-587400 587400m4907400-2061000-1473600 1473600m-15376400 3356400-998200-998200m2608200-311800 1916100-1916100m-3226100 3226100h459500m-459500 0v818000m1.665e7 -11618000v1836000m-3.89e6 99000h3792200m-13322200 5638700h4862800m8457200-5638700v1.26e6m1e5 -1359000-99000 99000m-15241000 8015000v-459500m6.78e6 -1916800 2829200-2829200m800 0v-975900m-1.046e7 7031400 850600-850600m9609400-6180800 1833600-1833600m-12753600 8865000h-304100m-10065900-3321900-2982800-2982800m-377200-1325300v890900m3.36e6 3999100v-578700m-8.81e6 -4311300h4559100m1260900 1325300h-371500m671500 6244700 2687900-2687900m-3357900-3991200v434400m0 6244700h666400m-6116400 1.33e6h5.45e6v-1325300m-8.9e5 -7574700 890900 890900m35419100 3539100v-1175300m-3.552e7 -6424700v1175300m3.434e7 4436500 807900 807900m2100 300h367400m-33637400-2.74e6v-1694800m-8.1e5 -809900h-1077700m1887700 809900-809900-809900m3.327e7 3105300v1331200m-3.008e7 442200-2374000-2374000m1924000 7.13e6 1012000-1012000m408000 3312000-1416700-1416700m-3300-3300v-879000m-1.2e5 -2141000 934900-934900m-5994900 7114900 1458000-1458000m4542000-5652000h2700900m21619100 4.2e5 728800-728800m1951200-5e3 168800 168800m-6048800 2545000h2216200m983800-9.9e5v-990100m-2.886e7 5240100h999200m24220800-2.83e6 433900-433900m3936100-2709900h1952100m-30102100 3403800 2164500-2164500m29285500-1065500h-1175300m-6494700 2.97e6v1726100m-2.668e7 2943900v-385700m2.46e6 -1454300 438900-438900m19591100-3961100h2627700m-26287700 6.24e6h1175300m29324700-5.1e6 989900-989900m-2.742e7 3809900v-2122600m2.222e7 -1837400 1564500 1564500m-25314500 4675500h1175300m2014700-2.38e6h763300m6700 0 316800 316800m-3106800 2063200v-355100m0-4900 2021600-2021600m-1761600-8497300 2258600 2258600m-6228600-6619700h1175300m-5300 514200 1111400 1111400m1688600 546300v2189200m-1.69e6 -2735500h1144300m5700 0 546300 546300m-2806300-2171900v514200m-1.82e6 7115800h437500m2500 0 1609600-1609600m-4329600 3889600 2284800-2284800m2045200-1605200h1343100m25746900 3.35e6h875000m5e3 0 725000-725000m-1535000-4675000h7.8e5l775000-775000m-1625000 3525000h8.8e5l7.5e5 -7.5e5m5e4 5.57e6h-925000m-5e3 0-7.5e5 7.5e5m-1.701e7 -3.21e6h2457000m-4877000 2.42e6 2417900-2417900m-6397900-5881100v-3201000m2.28e6 5488300-2287300-2287300m-2332700 4419000 155000 155000m5e3 5e3h2473200m-1303200-829400v-130600m-1.33e6 0h1325300m184700 315300-184700-184700m12994700 2739400v-212000m3.06e6 -3056200h553800m-3613800 3058200 3056400-3056400m863600 2236400-2820300 2820300m300-300v46200m-4.07e6 -9393000 692100-692100m-882100 692100h192900m3467100 1307500 901800-901800m-1091800-1097800 487100 487100m2900 6700 604100 604000m-3674100-1097800h2587900m482100 487100v6700m-5.05e6 1290700 1092400-1092400m1907600 1360700-236700-236600m1146700-665100-901700 901700m-1978300-1986000h-439900m2179900 1749400v-212200l-754900-754900m-1425100-782300-1152000 1152000" fill="none" fill-opacity="0" stroke-width="2.5e5"/>
    <circle cx="1.2189e8" cy="1.0236e8" r="175000"/>
    <circle cx="1.4308e8" cy="1.0644e8" r="175000"/>
    <circle cx="1.2503e8" cy="1.0097e8" r="175000"/>
    <circle cx="1.5261e8" cy="97978800" r="175000"/>
    <circle cx="1.3531e8" cy="9.951e7" r="175000"/>
    <circle cx="1.5284e8" cy="1.0097e8" r="175000"/>
    <circle cx="1.5328e8" cy="1.0644e8" r="175000"/>
    <circle cx="1.3809e8" cy="99003296" r="175000"/>
    <circle cx="1.5795e8" cy="98552704" r="175000"/>
    <circle cx="1.2521e8" cy="1.022e8" r="175000"/>
    <circle cx="1.4759e8" cy="1.0541e8" r="175000"/>
    <circle cx="1.3088e8" cy="1.0372e8" r="175000"/>
    <circle cx="1.2987e8" cy="1.0591e8" r="175000"/>
    <circle cx="1.3289e8" cy="94391800" r="175000"/>
    <circle cx="1.3571e8" cy="94386896" r="175000"/>
    <circle cx="1.4371e8" cy="1.0065e8" r="175000"/>
    <circle cx="1.3769e8" cy="1.0065e8" r="175000"/>
    <circle cx="1.4025e8" cy="1.0404e8" r="175000"/>
    <circle cx="1.6076e8" cy="96700600" r="175000"/>
    <circle cx="1.3165e8" cy="1.0553e8" r="175000"/>
    <circle cx="1.4754e8" cy="1.0142e8" r="175000"/>
    <circle cx="1.3375e8" cy="1.0016e8" r="175000"/>
    <circle cx="1.3069e8" cy="1.056e8" r="175000"/>
    <circle cx="1.2095e8" cy="1.0233e8" r="175000"/>
    <circle cx="1.3782e8" cy="1.015e8" r="175000"/>
    <circle cx="1.2925e8" cy="1.002e8" r="175000"/>
    <circle cx="1.2813e8" cy="99555296" r="175000"/>
    <circle cx="1.4204e8" cy="1.0394e8" r="175000"/>
    <circle cx="1.4094e8" cy="1.0211e8" r="175000"/>
    <circle cx="1.4455e8" cy="98841800" r="175000"/>
    <circle cx="1.4486e8" cy="1.0108e8" r="175000"/>
    <circle cx="1.387e8" cy="9.471e7" r="175000"/>
    <circle cx="1.3772e8" cy="93927904" r="175000"/>
    <circle cx="1.594e8" cy="97475000" r="175000"/>
    <circle cx="1.6194e8" cy="97475000" r="175000"/>
    <circle cx="1.594e8" cy="1.0002e8" r="175000"/>
    <circle cx="1.6194e8" cy="1.0002e8" r="175000"/>
    <circle cx="1.594e8" cy="1.0256e8" r="175000"/>
    <circle cx="1.6194e8" cy="1.0256e8" r="175000"/>
    <circle cx="1.6198e8" cy="1.0766e8" r="175000"/>
    <circle cx="1.2134e8" cy="9.242e7" r="175000"/>
    <circle cx="1.2392e8" cy="9.784e7" r="175000"/>
    <circle cx="1.2392e8" cy="1.0224e8" r="175000"/>
    <circle cx="1.6198e8" cy="9.242e7" r="175000"/>
    <circle cx="1.4957e8" cy="96815000" r="175000"/>
    <circle cx="1.4957e8" cy="1.0332e8" r="175000"/>
    <circle cx="1.4507e8" cy="96815000" r="175000"/>
    <circle cx="1.4507e8" cy="1.0332e8" r="175000"/>
    <circle cx="1.2134e8" cy="1.0766e8" r="175000"/>
    <circle cx="1.2388e8" cy="9.242e7" r="175000"/>
    <circle cx="1.2642e8" cy="9.242e7" r="175000"/>
    <circle cx="1.2896e8" cy="9.242e7" r="175000"/>
    <circle cx="1.315e8" cy="9.242e7" r="175000"/>
    <circle cx="1.3404e8" cy="9.242e7" r="175000"/>
    <circle cx="1.3658e8" cy="9.242e7" r="175000"/>
    <circle cx="1.3912e8" cy="9.242e7" r="175000"/>
    <circle cx="1.4166e8" cy="9.242e7" r="175000"/>
    <circle cx="1.442e8" cy="9.242e7" r="175000"/>
    <circle cx="1.4674e8" cy="9.242e7" r="175000"/>
    <circle cx="1.4928e8" cy="9.242e7" r="175000"/>
    <circle cx="1.5182e8" cy="9.242e7" r="175000"/>
    <circle cx="1.5436e8" cy="9.242e7" r="175000"/>
    <circle cx="1.569e8" cy="9.242e7" r="175000"/>
    <circle cx="1.5944e8" cy="9.242e7" r="175000"/>
    <circle cx="1.2388e8" cy="1.0766e8" r="175000"/>
    <circle cx="1.2642e8" cy="1.0766e8" r="175000"/>
    <circle cx="1.2896e8" cy="1.0766e8" r="175000"/>
    <circle cx="1.315e8" cy="1.0766e8" r="175000"/>
    <circle cx="1.3404e8" cy="1.0766e8" r="175000"/>
    <circle cx="1.3658e8" cy="1.0766e8" r="175000"/>
    <circle cx="1.3912e8" cy="1.0766e8" r="175000"/>
    <circle cx="1.4166e8" cy="1.0766e8" r="175000"/>
    <circle cx="1.442e8" cy="1.0766e8" r="175000"/>
    <circle cx="1.4674e8" cy="1.0766e8" r="175000"/>
    <circle cx="1.4928e8" cy="1.0766e8" r="175000"/>
    <circle cx="1.5182e8" cy="1.0766e8" r="175000"/>
    <circle cx="1.5436e8" cy="1.0766e8" r="175000"/>
    <circle cx="1.569e8" cy="1.0766e8" r="175000"/>
    <circle cx="1.5944e8" cy="1.0766e8" r="175000"/>
   </g>
   <g fill="#f0f0f0" mask="url(#d)" stroke="#f0f0f0">
    <g fill-opacity="0">
     <g stroke-width="1.5e5">
      <path class="stroked-text" d="m1.5922e8 1.0529e8v-1e6m1.05e6 9.1e5 -47620 47620-142860 47620h-95240l-142850-47620-95240-95240-47620-95230-47620-190480v-142860l47620-190470 47620-95240 95240-95240 142850-47620h95240l142860 47620 47620 47620m3.8e5 849520 142860 47620h238090l95240-47620 47620-47620 47620-95240v-95230l-47620-95240-47620-47620-95240-47620-190470-47620-95240-47620-47620-47620-47620-95230v-95240l47620-95240 47620-47620 95240-47620h238090l142860 47620m428570 954760v-1e6h380950l95240 47620 47620 47620 47620 95240v142850l-47620 95240-47620 47620-95240 47620h-380950m-1.031e7 -7371430h571420m-291420 1e6v-1e6m5.3e5 0 666670 1e6m-6670-1e6 -666670 1e6" fill="none"/>
     </g>
     <g fill="none">
      <g class="stroked-text" stroke-width="3.5e5">
       <path d="m1.4006e8 1.0637e8v-1.4e6h533340l133330 66670 66670 66670 66660 133330v2e5l-66660 133330-66670 66670-133330 66670h-533340m1.4e6 666660v-1.4e6m1.46e6 1.27e6 -66670 66670-2e5 66660h-133330l-2e5 -66660-133330-133340-66670-133330-66670-266670v-2e5l66670-266660 66670-133340 133330-133330 2e5 -66670h133330l2e5 66670 66670 66670m5.4e5 1203330 2e5 66660h333340l133330-66660 66670-66670 66660-133330v-133340l-66660-133330-66670-66670-133330-66660-266670-66670-133330-66670-66670-66660-66670-133340v-133330l66670-133330 66670-66670 133330-66670h333330l2e5 66670m6e5 1326670v-933330m0-466670-66660 66670 66660 66670 66670-66670-66670-66670v133340m6.6e5 1266660v-933330m0 133330 66670-66660 133330-66670h2e5l133330 66670 66670 133330v733330m0-7.3e5 66670-133330 133330-66670h2e5l133330 66670 66670 133330v733330m1.34e6 -3330h-666660v-1.4e6m1726660 1.4e6v-733330l-66670-133330-133330-66670h-266670l-133330 66670"/>
       <path d="m1.4912e8 1.0631e8 -133330 66660h-333340l-133330-66660-66670-133340v-133330l66670-133330 133330-66670h333340l133330-66670m6.7e5 593340v-1.4e6m0 5.4e5 133330-66670h266670l133330 66670 66670 66660 66660 133340v4e5l-66660 133330-66670 66670-133330 66660h-266670l-133330-66660"/>
      </g>
      <g stroke-width="1.5e5">
       <path class="stroked-text" d="m1.5243e8 1.0407e8h-476190v-1e6m-113810-1.9e6v-1e6h380950l95240 47620 47610 47620 47620 95240v142850l-47620 95240-47610 47620-95240 47620h-380950m-6.02e6 -5701430-333330-476190m-236670 476190v-1e6h380950l95240 47620 47620 47619 47620 95238v142857l-47620 95238-47620 47619-95240 47619h-380950m1e6 -47619h333330m146670 523809h-476190v-1e6h476190m3.8e5 952381 142860 47619h238100l95230-47619 47620-47619 47620-95238v-95238l-47620-95238-47620-47619-95230-47619-190480-47619-95240-47619-47620-47619-47620-95238v-95238l47620-95238 47620-47619 95240-47620h238090l142860 47620m428570 428571h333340m136660 523809h-476190v-1e6h476190m2.9e5 0h571430m-291430 1e6v-1e6m2.78e6 1.7e6 -333330-476190m-236670 476190v-1e6h380960l95240 47620 47610 47619 47620 95238v142857l-47620 95238-47610 47619-95240 47619h-380960m9e5 -523810 666660 1e6m3340-1e6 -666660 1e6"/>
       <path d="m1.4022e8 1.0006e8 -159090-159099m-4960910 5289099-229810-229810m-4900190-4900190 229810-229810m-229810 229810 229810 229810m4900190 4900190 229810-229810m-229810-10021714-229810 229810m229810-229810 229810 229810m4740190 4737615 1007620-1007627m-857620 1161726-229810 229810"/>
      </g>
      <path d="m1.5766e8 1.0278e8h-3885000m3885000 2.27e6v-2.27e6m-3.89e6 2.27e6h3885000m5e3 -5.12e6h-3885000m-5e3 2.27e6h3885000m5e3 0v-2.27e6m5.61e6 -3785000v7.74e6m-5.2e6 -7.74e6h1.33e6m-1.33e6 2.6e6v5.14e6m0-6.41e6v-1.33e6m0 2.6e6h2.6e6m0-2.6e6h2.6e6m-5.2e6 7735000h5.2e6m-2.6e6 -5135000v-2.6e6m-2.99e6 1.11e6h-3885000m3885000 2.27e6v-2.27e6m-3.88e6 2.27e6h3885000m-35505000-3395000h3.23e6m-3.23e6 7.82e6h3.23e6m-7.4e6 0h1.95e6m7.37e6 -7.1e6v1.08e6m-9.32e6 -1.8e6h1.95e6m7.37e6 6.02e6v1.08e6m0-5.3e6h4.3e5m-9.75e6 6.02e6v-7.82e6m3.256e7 6.19e6v-4.5e6m-4e6 5.74e6h1.5e6m-4e6 -5745000v4.5e6m4e6 -5.75e6h-1.5e6m7.23e6 185000h3885000m-5e3 0v-2.27e6h-3885000m-11925000 3502020-565680-565685m-1844320-2404163-282840 282843m3822840 424264 565680 565685m-3535680-141421-282850 282842m2402850 1272793-282850 282842m-847150-4242640 707100 707106m-847100-848528-1414220 1414214m144220 141421-282840 282843m4242840 848528-1414210 1414214m-2545790-2545585 1414220-1414213m-994220 2404163-707110-707107" stroke-width="1.2e5"/>
     </g>
    </g>
    <circle cx="1.2189e8" cy="1.0236e8" r="175000"/>
    <circle cx="1.4308e8" cy="1.0644e8" r="175000"/>
    <circle cx="1.2503e8" cy="1.0097e8" r="175000"/>
    <circle cx="1.5261e8" cy="97978800" r="175000"/>
    <circle cx="1.3531e8" cy="9.951e7" r="175000"/>
    <circle cx="1.5284e8" cy="1.0097e8" r="175000"/>
    <circle cx="1.5328e8" cy="1.0644e8" r="175000"/>
    <circle cx="1.3809e8" cy="99003296" r="175000"/>
    <circle cx="1.5795e8" cy="98552704" r="175000"/>
    <circle cx="1.2521e8" cy="1.022e8" r="175000"/>
    <circle cx="1.4759e8" cy="1.0541e8" r="175000"/>
    <circle cx="1.3088e8" cy="1.0372e8" r="175000"/>
    <circle cx="1.2987e8" cy="1.0591e8" r="175000"/>
    <circle cx="1.3289e8" cy="94391800" r="175000"/>
    <circle cx="1.3571e8" cy="94386896" r="175000"/>
    <circle cx="1.4371e8" cy="1.0065e8" r="175000"/>
    <circle cx="1.3769e8" cy="1.0065e8" r="175000"/>
    <circle cx="1.4025e8" cy="1.0404e8" r="175000"/>
    <circle cx="1.6076e8" cy="96700600" r="175000"/>
    <circle cx="1.3165e8" cy="1.0553e8" r="175000"/>
    <circle cx="1.4754e8" cy="1.0142e8" r="175000"/>
    <circle cx="1.3375e8" cy="1.0016e8" r="175000"/>
    <circle cx="1.3069e8" cy="1.056e8" r="175000"/>
    <circle cx="1.2095e8" cy="1.0233e8" r="175000"/>
    <circle cx="1.3782e8" cy="1.015e8" r="175000"/>
    <circle cx="1.2925e8" cy="1.002e8" r="175000"/>
    <circle cx="1.2813e8" cy="99555296" r="175000"/>
    <circle cx="1.4204e8" cy="1.0394e8" r="175000"/>
    <circle cx="1.4094e8" cy="1.0211e8" r="175000"/>
    <circle cx="1.4455e8" cy="98841800" r="175000"/>
    <circle cx="1.4486e8" cy="1.0108e8" r="175000"/>
    <circle cx="1.387e8" cy="9.471e7" r="175000"/>
    <circle cx="1.3772e8" cy="93927904" r="175000"/>
    <circle cx="1.594e8" cy="97475000" r="175000"/>
    <circle cx="1.6194e8" cy="97475000" r="175000"/>
    <circle cx="1.594e8" cy="1.0002e8" r="175000"/>
    <circle cx="1.6194e8" cy="1.0002e8" r="175000"/>
    <circle cx="1.594e8" cy="1.0256e8" r="175000"/>
    <circle cx="1.6194e8" cy="1.0256e8" r="175000"/>
    <circle cx="1.6198e8" cy="1.0766e8" r="175000"/>
    <circle cx="1.2134e8" cy="9.242e7" r="175000"/>
    <circle cx="1.2392e8" cy="9.784e7" r="175000"/>
    <circle cx="1.2392e8" cy="1.0224e8" r="175000"/>
    <circle cx="1.6198e8" cy="9.242e7" r="175000"/>
    <circle cx="1.4957e8" cy="96815000" r="175000"/>
    <circle cx="1.4957e8" cy="1.0332e8" r="175000"/>
    <circle cx="1.4507e8" cy="96815000" r="175000"/>
    <circle cx="1.4507e8" cy="1.0332e8" r="175000"/>
    <circle cx="1.2134e8" cy="1.0766e8" r="175000"/>
    <circle cx="1.2388e8" cy="9.242e7" r="175000"/>
    <circle cx="1.2642e8" cy="9.242e7" r="175000"/>
    <circle cx="1.2896e8" cy="9.242e7" r="175000"/>
    <circle cx="1.315e8" cy="9.242e7" r="175000"/>
    <circle cx="1.3404e8" cy="9.242e7" r="175000"/>
    <circle cx="1.3658e8" cy="9.242e7" r="175000"/>
    <circle cx="1.3912e8" cy="9.242e7" r="175000"/>
    <circle cx="1.4166e8" cy="9.242e7" r="175000"/>
    <circle cx="1.442e8" cy="9.242e7" r="175000"/>
    <circle cx="1.4674e8" cy="9.242e7" r="175000"/>
    <circle cx="1.4928e8" cy="9.242e7" r="175000"/>
    <circle cx="1.5182e8" cy="9.242e7" r="175000"/>
    <circle cx="1.5436e8" cy="9.242e7" r="175000"/>
    <circle cx="1.569e8" cy="9.242e7" r="175000"/>
    <circle cx="1.5944e8" cy="9.242e7" r="175000"/>
    <circle cx="1.2388e8" cy="1.0766e8" r="175000"/>
    <circle cx="1.2642e8" cy="1.0766e8" r="175000"/>
    <circle cx="1.2896e8" cy="1.0766e8" r="175000"/>
    <circle cx="1.315e8" cy="1.0766e8" r="175000"/>
    <circle cx="1.3404e8" cy="1.0766e8" r="175000"/>
    <circle cx="1.3658e8" cy="1.0766e8" r="175000"/>
    <circle cx="1.3912e8" cy="1.0766e8" r="175000"/>
    <circle cx="1.4166e8" cy="1.0766e8" r="175000"/>
    <circle cx="1.442e8" cy="1.0766e8" r="175000"/>
    <circle cx="1.4674e8" cy="1.0766e8" r="175000"/>
    <circle cx="1.4928e8" cy="1.0766e8" r="175000"/>
    <circle cx="1.5182e8" cy="1.0766e8" r="175000"/>
    <circle cx="1.5436e8" cy="1.0766e8" r="175000"/>
    <circle cx="1.569e8" cy="1.0766e8" r="175000"/>
    <circle cx="1.5944e8" cy="1.0766e8" r="175000"/>
   </g>
   <path d="m1.2007e8 9.115e7h4.318e7v1.778e7h-4.318e7v-1.778e7" fill="none" fill-opacity="0" stroke="#000" stroke-width="1e5"/>
  </g>
 </g>
 <g transform="translate(1.4923e8 97956072) scale(1e6)">
  <g id="e" stroke="#191919" stroke-width=".013">
   <path d="M.113 1.163h-.1v-.3h.1zm.4 0h.1v-.3h-.1z" fill="#999" fill-rule="evenodd"/>
   <path d="M.113.863h.4v.3h-.4z" fill="#333" fill-rule="evenodd"/>
   <path d="M.036 1.163v-.3m.054.3v-.3m.5.3v-.3m-.054.3v-.3" fill="none"/>
  </g>
 </g>
 <use transform="translate(1.4923e8 95031072) scale(1e6)" width="100%" height="100%" xlink:href="#e"/>
 <g transform="matrix(-707107 707107 -707107 -707107 1.3908e8 94319072)" stroke="#191919" stroke-width=".1">
  <path d="m7.814 1.301.065.065v6.448l-.065.065H1.366l-.065-.065V1.366l.065-.065z" fill="#1a1a1a" fill-rule="evenodd"/>
  <path d="M1.265 1.09h.34m.37 0h.43m5.17 0h.34m-1.14 0h.43m-4.43 0h.43m2.77 0h.43m-2.83 0h.43m1.17 0h.43m-1.23 0h.43m-3.715.175.175-.175m0 0 .037.075m0 0h.303m6.273 0-.044.087m-6.488 0h6.488m-6.532-.087.044.087m.629-.087h.43m.37 0h.43m.37 0h.43m.37 0h.43m.37 0h.43m.37 0h.43m.37 0h.43m.37 0h.302m.038-.075.175.175m-.175-.175-.037.075m-6.713.137.138-.137m-.213.1.075.037m-.075.303v-.34m6.925.037-.087.044m-.094-.094.094.094m-.05-.181.137.138m-6.669-.051.02.05m6.468-.05-.02.05m-6.562.044.094-.094m-.181.05.087.044m6.838-.081v.34m0 5.97v.34m0-5.94v.43m0 4.37v.43m0-4.43v.43m0 2.77v.43m0-2.83v.43m0 1.17v.43m0-1.23v.43m0 3.11-.175.175m0 0h-.34m-5.97 0h-.34m5.94 0h-.43m-4.37 0h-.43m4.43 0h-.43m-2.77 0h-.43m2.83 0h-.43m-1.17 0h-.43m1.23 0h-.43m-3.11 0-.175-.175m0 0v-.34m0-.37v-.43m0-4.37v-.43m0 4.43v-.43m0-2.77v-.43m0 2.83v-.43m0-1.17v-.43m0 1.23v-.43m7-3.11-.075.037m-6.85.303v-.302m6.85 6.575-.087-.044m0-6.488v6.488m.087-6.532v.303m0 .37v.43m0 .37v.43m0 .37v.43m0 .37v.43m0 .37v.43m0 .37v.43m0 .37v.43m0 .37v.302m-.087-6.531-.05.02m-6.626-.02.05.02" fill="none"/>
  <circle transform="scale(1 -1)" cx="1.961" cy="-1.961" r=".25" fill="#333"/>
  <path d="M1.252 7.834V1.346m-.087 6.532.087-.044m-.087.044v-.303m0-.37v-.43m0-.37v-.43m0-.37v-.43m0-.37v-.43m0-.37v-.43m0-.37v-.43m0-.37v-.43m6.925 5.94-.075-.037m-.1.212-.037-.075m.137-.137-.138.137m.001 0h-.303m-6.31.075.037-.075m.303 0h-.302m5.902 0h-.43m-4.37 0h-.43m4.43 0h-.43m-2.77 0h-.43m2.83 0h-.43m-1.17 0h-.43m1.23 0h-.43m-3.285-.1.075-.037m.137.137-.137-.138m6.713.138-.044-.087m.094-.094-.094.094m.094-.094-.05-.02m-6.626.02.05-.02m.044.114.02-.05m-.02.05-.094-.094m6.582.094-.02-.05m.02.05H1.346m-.044.087.044-.087" fill="none"/>
  <path d="M8.09 7.205h-.075v.37H9.09v-.37h-.8zm.4 0v.37m-.2-.37v.37m.3-.37v.37M8.09 6.405h-.075v.37H9.09v-.37h-.8zm.4 0v.37m-.2-.37v.37m.3-.37v.37m-.5-1.17h-.075v.37H9.09v-.37h-.8zm.4 0v.37m-.2-.37v.37m.3-.37v.37m-.5-1.17h-.075v.37H9.09v-.37h-.8zm.4 0v.37m-.2-.37v.37m.3-.37v.37m-.5-1.17h-.075v.37H9.09v-.37h-.8zm.4 0v.37m-.2-.37v.37m.3-.37v.37m-.5-1.17h-.075v.37H9.09v-.37h-.8zm.4 0v.37m-.2-.37v.37m.3-.37v.37m-.5-1.17h-.075v.37H9.09v-.37h-.8zm.4 0v.37m-.2-.37v.37m.3-.37v.37m-.5-1.17h-.075v.37H9.09v-.37h-.8zm.4 0v.37m-.2-.37v.37m.3-.37v.37M1.975 8.09v-.075h-.37V9.09h.37v-.8zm0 .4h-.37m.37-.2h-.37m.37.3h-.37m1.17-.5v-.075h-.37V9.09h.37v-.8zm0 .4h-.37m.37-.2h-.37m.37.3h-.37m1.17-.5v-.075h-.37V9.09h.37v-.8zm0 .4h-.37m.37-.2h-.37m.37.3h-.37m1.17-.5v-.075h-.37V9.09h.37v-.8zm0 .4h-.37m.37-.2h-.37m.37.3h-.37m1.17-.5v-.075h-.37V9.09h.37v-.8zm0 .4h-.37m.37-.2h-.37m.37.3h-.37m1.17-.5v-.075h-.37V9.09h.37v-.8zm0 .4h-.37m.37-.2h-.37m.37.3h-.37m1.17-.5v-.075h-.37V9.09h.37v-.8zm0 .4h-.37m.37-.2h-.37m.37.3h-.37m1.17-.5v-.075h-.37V9.09h.37v-.8zm0 .4h-.37m.37-.2h-.37m.37.3h-.37M1.09 1.975h.075v-.37H.09v.37h.8zm-.4 0v-.37m.2.37v-.37m-.3.37v-.37m.5 1.17h.075v-.37H.09v.37h.8zm-.4 0v-.37m.2.37v-.37m-.3.37v-.37m.5 1.17h.075v-.37H.09v.37h.8zm-.4 0v-.37m.2.37v-.37m-.3.37v-.37m.5 1.17h.075v-.37H.09v.37h.8zm-.4 0v-.37m.2.37v-.37m-.3.37v-.37m.5 1.17h.075v-.37H.09v.37h.8zm-.4 0v-.37m.2.37v-.37m-.3.37v-.37m.5 1.17h.075v-.37H.09v.37h.8zm-.4 0v-.37m.2.37v-.37m-.3.37v-.37m.5 1.17h.075v-.37H.09v.37h.8zm-.4 0v-.37m.2.37v-.37m-.3.37v-.37m.5 1.17h.075v-.37H.09v.37h.8zm-.4 0v-.37m.2.37v-.37m-.3.37v-.37M7.205 1.09v.075h.37V.09h-.37v.8zm0-.4h.37m-.37.2h.37m-.37-.3h.37m-1.17.5v.075h.37V.09h-.37v.8zm0-.4h.37m-.37.2h.37m-.37-.3h.37m-1.17.5v.075h.37V.09h-.37v.8zm0-.4h.37m-.37.2h.37m-.37-.3h.37m-1.17.5v.075h.37V.09h-.37v.8zm0-.4h.37m-.37.2h.37m-.37-.3h.37m-1.17.5v.075h.37V.09h-.37v.8zm0-.4h.37m-.37.2h.37m-.37-.3h.37m-1.17.5v.075h.37V.09h-.37v.8zm0-.4h.37m-.37.2h.37m-.37-.3h.37m-1.17.5v.075h.37V.09h-.37v.8zm0-.4h.37m-.37.2h.37m-.37-.3h.37m-1.17.5v.075h.37V.09h-.37v.8zm0-.4h.37m-.37.2h.37m-.37-.3h.37" fill="gray" fill-rule="evenodd"/>
 </g>
 <g transform="rotate(180 7.725e7 49600536) scale(1e6)">
  <g id="f" stroke-width=".013">
   <g stroke="#191919">
    <path d="m0.632 0.232v1.6m2-0.2v0.2m0-1.4v1.2m0-1.4v0.2" fill="none"/>
    <path d="M2.532.232h.7v1.6h-.7z" fill="gray" fill-rule="evenodd"/>
    <path d="M.572.432h.06m-.06 1.2h.06" fill="none"/>
    <path d="M.732.232v1.6h-.7v-1.6h.6z" fill="gray" fill-rule="evenodd"/>
    <path d="M2.632 1.632h.06m-.06-1.2h.06m-2.51 0h.39m-.39-.2v.2m.39 1.2h-.39m0 0v.2m2.9-1.4v-.2m-.39.2h.39m0 1.2h-.39m.39.2v-.2m-2.51 0v-1.2m2.12 1.2v-1.2m-2.6 1.4v-1.6m3.08 1.6v-1.6" fill="none"/>
   </g>
   <path d="M2.532.232h-1.8v1.6h1.8z" fill="#ccc" stroke="#000"/>
  </g>
 </g>
 <use transform="rotate(180 7.725e7 48175536) scale(1e6)" width="100%" height="100%" xlink:href="#f"/>
 <g stroke="#000" stroke-width="93000">
  <path d="m1.6045e8 98079072 254000-254000v-2032000l-254000-254000 254000-254000v-2032000l-254000-254000 254000-254000v-2032000l-254000-254000h-4572000l-254000 254000v2032000l254000 254000-254000 254000v2032000l254000 254000-254000 254000v2032000l254000 254000z" fill="#1a1a1a" fill-rule="evenodd"/>
  <path d="m1.5721e8 97129072v-6.4e5h-6.4e5v6.4e5z" fill="olive" fill-rule="evenodd"/>
  <path d="m1.5721e8 97129072-1.6e5 -1.6e5m1.6e5 -4.8e5 -1.6e5 1.6e5m0 3.2e5v-3.2e5m-4.8e5 -1.6e5 1.6e5 1.6e5h3.2e5m-4.8e5 4.8e5 1.6e5 -1.6e5v-3.2e5m0 3.2e5h3.2e5" fill="none"/>
  <path d="m1.5975e8 97129072v-6.4e5h-6.4e5v6.4e5z" fill="olive" fill-rule="evenodd"/>
  <path d="m1.5975e8 97129072-1.6e5 -1.6e5m1.6e5 -4.8e5 -1.6e5 1.6e5m0 3.2e5v-3.2e5m-4.8e5 -1.6e5 1.6e5 1.6e5h3.2e5m-4.8e5 4.8e5 1.6e5 -1.6e5v-3.2e5m0 3.2e5h3.2e5" fill="none"/>
  <path d="m1.5721e8 94589072v-6.4e5h-6.4e5v6.4e5z" fill="olive" fill-rule="evenodd"/>
  <path d="m1.5721e8 94589072-1.6e5 -1.6e5m1.6e5 -4.8e5 -1.6e5 1.6e5m0 3.2e5v-3.2e5m-4.8e5 -1.6e5 1.6e5 1.6e5h3.2e5m-4.8e5 4.8e5 1.6e5 -1.6e5v-3.2e5m0 3.2e5h3.2e5" fill="none"/>
  <path d="m1.5975e8 94589072v-6.4e5h-6.4e5v6.4e5z" fill="olive" fill-rule="evenodd"/>
  <path d="m1.5975e8 94589072-1.6e5 -1.6e5m1.6e5 -4.8e5 -1.6e5 1.6e5m0 3.2e5v-3.2e5m-4.8e5 -1.6e5 1.6e5 1.6e5h3.2e5m-4.8e5 4.8e5 1.6e5 -1.6e5v-3.2e5m0 3.2e5h3.2e5" fill="none"/>
  <path d="m1.5721e8 92049072v-6.4e5h-6.4e5v6.4e5z" fill="olive" fill-rule="evenodd"/>
  <path d="m1.5721e8 92049072-1.6e5 -1.6e5m1.6e5 -4.8e5 -1.6e5 1.6e5m0 3.2e5v-3.2e5m-4.8e5 -1.6e5 1.6e5 1.6e5h3.2e5m-4.8e5 4.8e5 1.6e5 -1.6e5v-3.2e5m0 3.2e5h3.2e5" fill="none"/>
  <path d="m1.5975e8 92049072v-6.4e5h-6.4e5v6.4e5z" fill="olive" fill-rule="evenodd"/>
  <path d="m1.5975e8 92049072-1.6e5 -1.6e5m1.6e5 -4.8e5 -1.6e5 1.6e5m0 3.2e5v-3.2e5m-4.8e5 -1.6e5 1.6e5 1.6e5h3.2e5m-4.8e5 4.8e5 1.6e5 -1.6e5v-3.2e5m0 3.2e5h3.2e5" fill="none"/>
 </g>
 <use transform="rotate(180 7.726e7 46838036) scale(1e6)" width="100%" height="100%" xlink:href="#f"/>
 <use transform="translate(1.4923e8 92381072) scale(1e6)" width="100%" height="100%" xlink:href="#e"/>
 <g stroke="#000" stroke-width="93000">
  <path d="m1.2431e8 90834072v1.3e6l-0.01 0.1v4.32e6l0.01-0.1v1.3e6l-0.01 0.1h5e5v-6.92e6h-444020z" fill="#666"/>
  <path d="m1.2431e8 92134072v-1.7e6h-8.7e6v7.72e6h8.7e6v-1.7e6" fill="gray" fill-rule="evenodd"/>
  <path d="m1.2431e8 92843872h5e4m1.5e5 0h-1.5e5m1.5e5 -299600h-1.5e5m-5e4 0h5e4m-5e4 2699600h5e4m1.5e5 0h-1.5e5m-5e4 -299600h5e4m1.5e5 0h-1.5e5m-5e4 -500400h5e4m1.5e5 0h-1.5e5m-5e4 -299600h5e4m1.5e5 0h-1.5e5m-5e4 -500400h5e4m1.5e5 0h-1.5e5m-5e4 -299600h5e4m1.5e5 0h-1.5e5m-5e4 2699600h5e4m1.5e5 0h-1.5e5m-5e4 -299600h5e4m1.5e5 0h-1.5e5m3.5e5 -5009700h-4e5m4e5 0v99500m-4e5 7019500h4e5m0-99500v99515m-4561600-3059515h47407m-438907 0h67016m-67016-1e6h67016m324484 0h47407m4314193-1.66e6v4.32e6m3e5 -4.32e6h-5e5m5e5 4.32e6h-5e5" fill="none"/>
  <g fill-rule="evenodd">
   <path d="m1.1781e8 90372772v-878690c0-82843 67157-1.5e5 1.5e5 -1.5e5h1.5e5c82843 0 1.5e5 67157 1.5e5 1.5e5v1e5 -0.2c-0.1 82843 67157 1.5e5 1.5e5 1.5e5h4e5c82843-0.1 1.5e5 -67157 1.5e5 -1.5e5l0.2 0.1v-1e5l-0.2-0.1c0-82843 67157-1.5e5 1.5e5 -1.5e5h5e4 -0.3c82843 0 1.5e5 67157 1.5e5 1.5e5v8.9e5l-1380 55640-1498600-5640z" fill="#ccc"/>
   <path d="m1.2481e8 90434072v-9.4e5c0-82843-67157-1.5e5 -1.5e5 -1.5e5h-1e5c-82843 0-1.5e5 67157-1.5e5 1.5e5l-0.3 0.2v1e5l0.3-0.2c0 82843-67157 1.5e5 -1.5e5 1.5e5h-4e5c-82843-0.1-1.5e5 -67157-1.5e5 -1.5e5v0.2-1e5c0.1-82843-67157-1.5e5 -1.5e5 -1.5e5h0.1-1e5c-82843-0.1-1.5e5 67157-1.5e5 1.5e5v5.4e5l5740 396210-5740-46207 5740 46207 994260 3793h498740zm-9.5e5 8.41e6h4e5c82843 0.1 1.5e5 67157 1.5e5 1.5e5l-0.3-0.2v1e5l0.3 0.2c0 82843 67157 1.5e5 1.5e5 1.5e5h1e5c82843 0 1.5e5 -67157 1.5e5 -1.5e5v-9.4e5h-5e5l-2.3 0.8-1001500-13936 1480 63935v8.9e5c0 82843 67157 1.5e5 1.5e5 1.5e5h1e5 -0.1c82843 0.1 1.5e5 -67157 1.5e5 -1.5e5v-1e5 0.2c-0.1-82843 67157-1.5e5 1.5e5 -1.5e5z" fill="#b3b3b3"/>
  </g>
  <path d="m1.2331e8 90384072v-3.5e5" fill="none"/>
  <path d="m1.1931e8 99094072v-8.9e5l899.6-79432-1500900 29432-2.5 0.2v9.4e5c0 82843 67157 1.5e5 1.5e5 1.5e5h1.5e5c82843 0 1.5e5 -67157 1.5e5 -1.5e5v-1e5 0.2c-0.1-82843 67157-1.5e5 1.5e5 -1.5e5h4e5c82843 0.1 1.5e5 67157 1.5e5 1.5e5l0.2-0.1v1e5l-0.2 0.1c0 82843 67157 1.5e5 1.5e5 1.5e5h5e4c82843 0 1.5e5 -67157 1.5e5 -1.5e5z" fill="#b3b3b3" fill-rule="evenodd"/>
  <path d="m1.1911e8 99244072h5e4" fill="none"/>
  <path d="m1.1723e8 96274072h-237240v5e5h237240-3 1682400-0.7 1.4e6 -1c333330 0 333330 5e5 0 5e5h-3.45e6c-138070 0-2.5e5 -111930-2.5e5 -2.5e5v-1e6c0-138070 111930-2.5e5 2.5e5 -2.5e5h3.45e6c333330-0.7 333330 5e5 1 5e5h-1.4e6 0.7-1682400zm-367600-4.96e6c-138070 0.2-2.5e5 111930-2.5e5 2.5e5v1e6c0 138070 111930 2.5e5 2.5e5 2.5e5h3.45e6c333330 1.7 333340-5e5 2.6-5e5h-3082400 2-237240v-5e5h237240-2 3082400c333330 1.7 333340-5e5 2.5-5e5zm6.05e6 1.73e6v-5e5c0-2e5 3e5 -2e5 3e5 0v1.25e6c0 138070-111930 2.5e5 -2.5e5 2.5e5h-7e5c-333330 0-333330 5e5 0 5e5h7e5c138070 0 2.5e5 111930 2.5e5 2.5e5v1.25e6c0 2e5 -3e5 2e5 -3e5 0v-5e5c0-138070-111930-2.5e5 -2.5e5 -2.5e5h-7e5c-138070 0-2.5e5 -111930-2.5e5 -2.5e5v-1.5e6c0-138070 111930-2.5e5 2.5e5 -2.5e5h7e5c138070 0 2.5e5 -111930 2.5e5 -2.5e5z" fill="#1a1a1a" fill-rule="evenodd"/>
  <path d="m1.2436e8 92544272v299500m0 2100500v299500m0-1099500v299500m0-1099500v299500m0 2100500v299500m-8.75e6 1710300h8.7e6m-8.7e6 -6.92e6h8.7e6m-4114100 3.96e6v-1e6m-47500 1e6v-1e6m-324500 1e6v-1e6m-67000 1e6v-1e6m-296900 1e6v-1e6m5.15e6 -3.36e6v3e5m0 7.12e6v3e5" fill="none"/>
  <path d="m1.1781e8 98554072h1.5e6" fill="#b3b3b3" fill-rule="evenodd"/>
  <path d="m1.2331e8 98554072h1.5e6" fill="none"/>
  <path d="m1.1781e8 90034072h1.5e6" fill="#b3b3b3" fill-rule="evenodd"/>
  <path d="m1.2331e8 90034072h1.5e6m-6304800 6.24e6v5e5m404800-5e5v5e5m-584000-5e5v5e5m-935700-5e5v5e5m-162700-5e5v5e5m0-4.96e6v5e5m162700-5e5v5e5m935700-5e5v5e5m179200-5e5v5e5m404800-5e5v5e5" fill="none"/>
  <path d="m1.1676e8 93294072h4.5e6c138070 0 2.5e5 111930 2.5e5 2.5e5v1.5e6c0 138070-111930 2.5e5 -2.5e5 2.5e5h-4.5e6c-333330 0-333330-5e5 0-5e5h3717900v-1e6h-3717900c-333330 0-333330-5e5 0-5e5z" fill="#1a1a1a" fill-rule="evenodd"/>
  <path d="m1.2481e8 98154072h-503490v-295600l3494-4400 0.08 0.8h5e5z" fill="#b3b3b3" opacity=".99"/>
  <path d="m1.2481e8 90434072h-484700l-9259 2480v295510l-6041 2010-0.33-4.8h5e5z" fill="#b3b3b3"/>
 </g>
 <g transform="matrix(0 1e6 -1e6 0 1.4254e8 91197572)" stroke="#191919" stroke-width=".093">
  <path d="m0.45 0.75h5.4a0.3 0.3 0 0 0 0.3-0.3v-5.4a0.3 0.3 0 0 0-0.3-0.3h-5.4a0.3 0.3 0 0 0-0.3 0.3v5.4a0.3 0.3 0 0 0 0.3 0.3z" fill="#666" fill-rule="evenodd"/>
  <g fill="#1a1a1a">
   <circle cx="1.15" cy="-4.25" r=".5"/>
   <circle cx="5.15" cy="-4.25" r=".5"/>
   <circle cx="1.15" cy="-.25" r=".5"/>
   <circle cx="5.15" cy="-.25" r=".5"/>
  </g>
  <g fill="none">
   <circle cx="3.15" cy="-2.25" r="1.75"/>
   <path d="m-0.425 0.35h-0.012m0.577 0h0.01m-0.312 0h0.012m0.29-0.7h0.01"/>
  </g>
  <path d="m-0.162-0.35h-0.275v0.7h0.275z" fill="#ccc" fill-rule="evenodd"/>
  <path d="m-0.425-0.35h-0.012" fill="none"/>
  <path d="m-0.15-0.35h0.29v0.7h-0.29" fill="#ccc" fill-rule="evenodd"/>
  <path d="m-0.162-0.35h0.012m-0.275-4.5h-0.012m0.577 0h0.01m-0.312 0h0.012m-0.275 0.7h-0.012m0.577 0h0.01m-0.312 0h0.012m6.875-0.7h0.012m-0.577 0h-0.01" fill="none"/>
  <path d="m6.45-4.85h-0.29v0.7h0.577v-0.7h-0.275z" fill="#ccc" fill-rule="evenodd"/>
  <path d="m6.462-4.85h-0.012m-0.29 0.7h-0.01m0.575 0h0.012m-0.275 0h-0.012m0.275 4.5h0.012m-0.577 0h-0.01" fill="none"/>
  <path d="m6.45 0.35h-0.29v-0.7h0.577v0.7h-0.275z" fill="#ccc" fill-rule="evenodd"/>
  <g fill="none">
   <path d="m6.462 0.35h-0.012m0.275-0.7h0.012m-0.577 0h-0.01m0.312 0h-0.012m-6.6 0v0.7m0-5.2v0.7m6.6-0.7v0.7m0 3.8v0.7"/>
   <circle cx="3.15" cy="-2.25" r="1.75"/>
  </g>
  <circle cx="3.15" cy="-2.25" r="1.65" fill="#1a1a1a"/>
  <path d="m-0.425-0.35v0.7m0-5.2v0.7m6.887-0.7v0.7m0.263-0.7v0.7m-0.263 3.8v0.7m0.263-0.7v0.7m-1.925-2.6h0.1" fill="none"/>
  <path d="m-0.437-4.85v0.7h0.577v-0.7h-0.565z" fill="#ccc" fill-rule="evenodd"/>
  <path d="m-0.162-4.85v0.7" fill="none"/>
 </g>
 <use transform="rotate(180 7.726e7 45450536) scale(1e6)" width="100%" height="100%" xlink:href="#f"/>
 <use transform="translate(1.493e8 89631072) scale(1e6)" width="100%" height="100%" xlink:href="#e"/>
 <g stroke-width="13000">
  <path d="m1.3745e8 89549087 2156676 2156676 919239-919239-106066-106066 7e-3 -7e-3 -2050610-2050610-7e-3 7e-3 -106066-106066-919239 919239z" fill="#666" stroke="#000"/>
  <g stroke="#191919">
   <path d="m1.3948e8 91617375 88388-88388-353554-353554-88388 88388z" fill="#999" fill-rule="evenodd"/>
   <path d="m1.3957e8 91528987-353554-353554m353554 353554 35355 35355m-883884-883884 494975 494975m-1343503-1343503 494975 494975m282843 424264 494975 494975m1237437-459620-35355-35355m-2050610-2050610-35355-35355m-459620 1237437 494975 494975m1308148 1166727v-101030m-2121321-2020291h101030" fill="none"/>
   <path d="m1.4038e8 90786525-2121321-2121321-777818 777818 2121321 2121321z" fill="#b3b3b3" fill-rule="evenodd"/>
   <path d="m1.3915e8 89549087-494975-494975m1343503 1343503-494975-494975m883884 883884-635.14 0.021-1896.5 1.414-3137.4-2.12-4338.1-3.536-5476.5 3.535-6558.4-3.535-7549.8-2.122-8445 2.122-9236.9 2.12-9914.3 0.708h-10465l-33369-6.364m-2020299-2121313-0.021 635.14-1.414 1896.5 2.12 3137.4 3.536 4338.1-3.535 5476.5 3.535 6558.4 2.122 7549.8-4.243 17682-0.707 9914.3v10465l2.121 10887 4.243 22482m1803115 1560679-494975-494975m-353554-353554-494975-494975m-1136441 459641 2020275 2020275m49.497 49.497 676800-676800m-2020304-2020346-676800 676800m2697125 1343525-2020275-2020275" fill="none"/>
   <path d="m1.3863e8 90768847 88388-88388-353554-353554-88388 88388zm-848528-848528 88388-88388-353554-353554-88388 88388zm866206-866206 88388-88388-353554-353554-88388 88388zm848528 848528 88388-88388-353554-353554-88388 88388zm848528 848528 88388-88388-353554-353554-88388 88388z" fill="#999" fill-rule="evenodd"/>
  </g>
 </g>
 <use transform="translate(1.3548e8 96206072) scale(1e6)" width="100%" height="100%" xlink:href="#e"/>
 <use transform="rotate(180 68065000 49953536) scale(1e6)" width="100%" height="100%" xlink:href="#e"/>
 <path d="M21228 14212h218.58l34.494-98.761h140.52l-200.79 542.1h-166.66l-200.79-542.1h140.52zm183.72 100.58h-148.5l74.071 215.68zM21104 14656h-499.62v-105.66h179.73v-436.44h139.79v436.44h180.09zm-572 0h-177.92l-123.45-290.11-124.18 290.11h-177.55v-542.1h132.17v396.5l124.9-292.29h88.595l124.9 292.29v-396.5h132.53zm-740 0h-377.25v-105.66h237.46v-100.94h-223.3v-105.66h223.3v-124.18h-245.45v-105.66H19792zm-995-502q52.285-25.416 108.56-38.125 56.279-12.708 116.19-12.708 135.43 0 214.59 75.524 79.155 75.886 79.155 205.51 0 131.08-80.607 206.24t-220.76 75.16q-54.101 0-103.48-10.167-49.744-10.166-93.678-30.136v-112.2q45.387 25.78 90.41 38.488 44.661 12.708 89.684 12.708 83.512 0 128.9-46.839 45.024-46.476 45.024-133.26 0-86.053-43.571-132.89-43.572-46.839-123.82-46.839-21.786 0-40.303 2.542-18.881 2.905-33.768 8.714v105.3h85.327v93.678h-217.86zm-452 58h218.58l34.494-98.761h140.52l-200.79 542.1h-166.66l-200.79-542.1h140.52zm183.72 100.58h-148.5l74.071 215.68zM17820 14406q-54.827-14.161-83.148-49.381-28.684-34.857-28.684-88.958 0-80.606 61.726-122.72 61.725-41.756 180.09-41.756 41.755 0 83.874 6.899 41.756 6.536 82.785 19.97v107.84q-39.214-19.607-77.702-29.774-38.851-9.803-76.249-9.803-55.553 0-84.964 19.243-29.773 19.244-29.773 55.191 0 37.035 30.499 55.916 30.137 19.244 89.321 19.244h55.916v90.047h-58.821q-52.648 0-78.428 16.339-25.779 16.702-25.779 50.47 0 31.226 25.053 48.291 25.054 17.066 70.803 17.066 33.768 0 68.262-7.625t68.624-22.512v102.39q-41.392 11.619-82.059 17.428-40.666 5.81-79.88 5.81-105.66 0-157.94-34.857-52.649-34.494-52.649-104.21 0-47.565 25.054-78.065 25.053-30.136 74.07-42.481zm-385-190h-238.55v-102.76h393.96V14216l-197.89 174.65q-26.506 23.964-39.214 46.839t-12.708 47.565q0 38.125 25.779 61.363 25.417 23.238 67.899 23.238 32.678 0 71.529-14.161 38.851-13.798 83.148-41.393v119.1q-47.202 15.613-93.315 23.601-46.112 8.351-90.41 8.351-97.308 0-151.05-42.845-54.101-42.845-54.101-119.46 0-44.297 22.875-82.785 22.875-38.124 96.219-102.39zm-562 140q39.214 0 60.274-21.423 21.059-21.422 21.059-61.362t-21.059-61.363q-21.06-21.059-60.274-21.059-38.851 0-59.547 21.059-20.696 21.423-20.696 61.363 0 40.303 20.696 61.362 20.696 21.423 59.547 21.423zm102.03 46.113q49.381 14.887 74.434 45.749 25.054 30.863 25.054 76.976 0 68.625-51.196 104.57t-150.32 35.946q-98.398 0-149.59-35.946-51.196-35.583-51.196-104.57 0-46.113 25.417-76.976 25.053-30.862 74.434-45.749-55.191-15.25-83.149-49.744-28.321-34.131-28.321-86.416 0-80.607 53.738-122 53.374-41.03 158.67-41.03 105.66 0 159.76 41.03 53.738 41.392 53.738 122 0 52.285-27.958 86.416-28.321 34.494-83.512 49.744zm-32.678 108.56q0-32.315-17.791-49.743-18.155-17.429-51.56-17.429-32.678 0-50.47 17.429-17.791 17.428-17.791 49.743 0 32.316 17.791 49.381 17.792 17.429 50.47 17.429 33.405 0 51.56-17.429 17.791-17.428 17.791-49.381zM16546 14656h-232.02q-103.48 0-158.67-46.112-55.553-45.75-55.553-130.71 0-85.327 55.553-131.44 55.19-45.75 158.67-45.75h92.225v-188.08h139.79zm-139.79-101.3v-151.41h-77.339q-40.666 0-62.815 19.607-22.148 19.97-22.148 56.279 0 36.31 22.148 55.917 22.149 19.607 62.815 19.607z" fill="#e6e6e6" stroke-width="69.714" aria-label="ATMEGA328P"/>
 <g fill="#f0f0f0">
  <circle cx="6937.4" cy="1139" r="420.73"/>
  <circle cx="26934" cy="7133.9" r="420.73"/>
  <circle cx="26939" cy="18142" r="420.73"/>
  <circle cx="6440.5" cy="20137" r="420.73"/>
 </g>
 <g transform="matrix(-.68401 .73098 -.68401 -.73098 0 0)" fill="#ccc" stroke-width="53627" aria-label="ATMEGA328PU">
  <path d="m-34898690-1.6307e8h-210179l-33168 94960h-135116l193072-521260h160253l193072 521260h-135115zm-176662-96710h142796l-71224-207390z"/>
  <path d="m-34779286-1.635e8h480410v101600h-172822v419660h-134417v-419660h-173171z"/>
  <path d="m-34229398-1.635e8h171077l118706 278960 119404-278960h170727v521260h-127085v-381250l-120103 281050h-85189l-120102-281050v381250h-127435z"/>
  <path d="m-33517860-1.635e8h362751v101600h-228334v97060h214718v101600h-214718v119400h236015v101600h-370432z"/>
  <path d="m-32560880-1.6302e8q-50276 24440-104392 36660t-111723 12220q-130227 0-206339-72620-76111-72970-76111-197610 0-126040 77508-198310t212274-72270q52021 0 99503 9770 47832 9780 90077 28980v107880q-43642-24790-86934-37010-42944-12220-86237-12220-80301 0-123943 45040-43293 44690-43293 128140 0 82740 41897 127780 41896 45040 119055 45040 20948 0 38754-2450 18155-2790 32469-8380v-101240h-82046v-90080h209481z"/>
  <path d="m-32126207-1.6307e8h-210179l-33168 94960h-135116l193072-521260h160253l193072 521260h-135115zm-176662-96710h142796l-71224-207390z"/>
  <path d="m-31621706-1.6326e8q52719 13610 79952 47480 27581 33520 27581 85540 0 77510-59353 118010-59353 40150-173171 40150-40150 0-80650-6640-40151-6280-79603-19200v-103690q37707 18850 74715 28630 37357 9420 73318 9420 53418 0 81698-18500 28629-18510 28629-53070 0-35610-29327-53770-28978-18500-85888-18500h-53766v-86590h56560q50624 0 75413-15710 24788-16060 24788-48530 0-30020-24090-46430t-68081-16410q-32470 0-65638 7330t-65986 21650v-98460q39801-11170 78904-16760 39103-5580 76810-5580 101598 0 151874 33510 50624 33170 50624 100200 0 45740-24090 75070-24090 28980-71223 40850z"/>
  <path d="m-31251274-1.6308e8h229382v98800h-378812v-98800l190279-167940q25487-23040 37706-45040 12220-21990 12220-45730 0-36660-24788-59010-24440-22340-65289-22340-31422 0-68779 13610-37358 13270-79952 39810v-114520q45387-15010 89727-22690 44341-8030 86935-8030 93568 0 145240 41190 52022 41200 52022 114870 0 42590-21996 79600-21995 36660-92521 98460z"/>
  <path d="m-30710813-1.6321e8q-37706 0-57956 20600t-20250 59000q0 38410 20250 59010 20250 20250 57956 20250 37358 0 57259-20250 19900-20600 19900-59010 0-38750-19900-59000-19901-20600-57259-20600zm-98107-44340q-47482-14320-71572-43990-24091-29680-24091-74020 0-65990 49228-100550 49229-34560 144542-34560 94616 0 143844 34560 49228 34220 49228 100550 0 44340-24439 74020-24091 29670-71573 43990 53069 14660 79952 47830 27233 32820 27233 83090 0 77510-51672 117310-51323 39460-152573 39460-101598 0-153619-39460-51672-39800-51672-117310 0-50270 26883-83090 27233-33170 80301-47830zm31423-104390q0 31070 17107 47830 17457 16760 49577 16760 31423 0 48530-16760 17108-16760 17108-47830 0-31080-17108-47480-17107-16760-48530-16760-32120 0-49577 16760-17107 16750-17107 47480z"/>
  <path d="m-30396591-1.635e8h223097q99504 0 152572 44340 53418 43990 53418 125690 0 82050-53418 126390-53068 43990-152572 43990h-88680v180850h-134417zm134417 97410v145590h74366q39103 0 60400-18850 21297-19210 21297-54120t-21297-53770q-21297-18850-60400-18850z"/>
  <path d="m-29872539-1.635e8h134417v312480q0 64590 20948 92520 21297 27580 69129 27580 48181 0 69129-27580 21297-27930 21297-92520v-312480h134417v312480q0 110670-55513 164790-55512 54120-169330 54120-113469 0-168982-54120-55512-54120-55512-164790z"/>
 </g>
</svg>
