<svg width="362" height="171" version="1.1" viewBox="0 0 95.779 45.244" xmlns="http://www.w3.org/2000/svg">
 <defs>
  <linearGradient id="a" x1="-267.88" x2="-253.58" y1="-465.35" y2="-465.35" gradientTransform="matrix(1.0474,0,0,-1.0474,314.25,-588.03)" gradientUnits="userSpaceOnUse">
   <stop stop-color="#333" offset="0"/>
   <stop stop-color="#3C3C3C" offset="1"/>
  </linearGradient>
 </defs>
 <text transform="scale(1.0024 .99762)" x="296.72641" y="-32.805687" fill="#1a1a1a" font-family="Ubuntu" font-size="3.8451px" font-weight="bold" stroke-width=".115" word-spacing="0" style="line-height:1.25" xml:space="preserve"/>
 <g transform="translate(-77.817,-118.84)" fill="#fff" word-spacing="0">
  <text transform="scale(1.0024 .99764)" x="422.90302" y="172.98801" font-family="Ubuntu" font-size="3.086px" font-weight="bold" stroke-width=".093" style="line-height:1.25" xml:space="preserve"/>
 </g>
 <rect x="18.84" y=".060002" width="76.817" height="45.05" rx="0" ry="0" fill="#2c8240" style="paint-order:fill markers stroke"/>
 <g transform="translate(-77.817,-118.84)" fill="#848400">
  <g transform="matrix(.0038 0 0 .0038 74.516 117)" stroke-linecap="round" stroke-linejoin="round" stroke-width="0">
   <circle cx="14260" cy="10334" r="330"/>
   <circle cx="14260" cy="11334" r="330"/>
   <circle cx="9650.2" cy="1526.1" r="590.55"/>
   <circle cx="25005" cy="1526.1" r="590.55"/>
   <circle cx="25005" cy="11369" r="590.55"/>
   <circle cx="9650.2" cy="11369" r="590.55"/>
   <circle cx="7008.5" cy="7365.7" r="216.54"/>
   <circle cx="7008.5" cy="5594" r="216.54"/>
   <circle cx="7047.9" cy="4196.4" r="633.07"/>
   <circle cx="7047.9" cy="8763.3" r="633.07"/>
   <circle cx="7992.8" cy="7857.8" r="370"/>
   <circle cx="7992.8" cy="6923.5" r="370"/>
   <circle cx="7992.8" cy="6036.1" r="370"/>
   <circle cx="7992.8" cy="5101.9" r="370"/>
   <circle cx="9600.4" cy="8367.8" r="370"/>
   <circle cx="12600" cy="8367.8" r="370"/>
   <circle cx="9561.5" cy="4682" r="370"/>
   <circle cx="12562" cy="4682" r="370"/>
   <circle cx="15210" cy="3633.9" r="330"/>
   <circle cx="14210" cy="3633.9" r="330"/>
   <circle cx="13107" cy="6050.5" r="370"/>
   <circle cx="9106.9" cy="6050.5" r="370"/>
   <circle cx="13132" cy="7217.8" r="370"/>
   <circle cx="9131.5" cy="7217.8" r="370"/>
   <circle cx="9131.5" cy="9533.9" r="370"/>
   <circle cx="13132" cy="9533.9" r="370"/>
   <circle cx="16260" cy="10334" r="330"/>
   <circle cx="16260" cy="11334" r="330"/>
   <circle cx="15526" cy="8717.8" r="370"/>
   <circle cx="15526" cy="4717.8" r="370"/>
   <circle cx="12628" cy="3563.3" r="370"/>
   <circle cx="9628.2" cy="3563.3" r="370"/>
   <circle cx="14280" cy="8717.8" r="370"/>
   <circle cx="14280" cy="4717.8" r="370"/>
   <circle cx="23948" cy="2921.8" r="370"/>
   <circle cx="23948" cy="3921.8" r="370"/>
   <circle cx="23948" cy="4921.8" r="370"/>
   <circle cx="23948" cy="5921.8" r="370"/>
   <circle cx="23948" cy="6921.8" r="370"/>
   <circle cx="23948" cy="7921.8" r="370"/>
   <circle cx="23948" cy="8921.8" r="370"/>
   <circle cx="23948" cy="9921.8" r="370"/>
   <circle cx="14079" cy="1345" r="370"/>
   <circle cx="15079" cy="1345" r="370"/>
   <circle cx="16079" cy="1345" r="370"/>
  </g>
  <g fill="none" fill-opacity="0" stroke="#e6e6e6" stroke-linecap="round" stroke-linejoin="round">
   <g stroke-width="600">
    <path transform="matrix(.0038 0 0 .0038 74.516 117)" d="m22240 3123h-600m-1960 0h-600m3160-1780h-600m-1960 0h-600"/>
   </g>
   <g stroke-width="598.42">
    <path transform="matrix(.0038 0 0 .0038 74.516 117)" d="m10960 2175v-583m2e3 583v-583m-1e3 583v-583"/>
   </g>
   <g stroke-width="629.92">
    <path transform="matrix(.0038 0 0 .0038 74.516 117)" d="m22060 7776v315m-3e3 -3315v315m2e3 2685v315m-1e3 -3315v315m0 2685v315m1e3 -3315v315m-2e3 2685v315"/>
   </g>
  </g>
  <g stroke-width="0">
   <path d="m157.35 133.91h2.4v3.583h-2.4z" fill-rule="evenodd"/>
   <circle transform="matrix(.0038 0 0 .0038 74.516 117)" cx="17260" cy="4418.2" r="314.96" stroke-linecap="round" stroke-linejoin="round"/>
   <path d="m139.07 128.82h2.4v2.389h-2.4z" fill-rule="evenodd"/>
  </g>
 </g>
 <g transform="translate(-77.817,-118.84)" fill="none" fill-opacity="0" stroke="#fff" stroke-linecap="round" stroke-linejoin="round" stroke-width="200">
  <path transform="matrix(.0038 0 0 .0038 74.516 117)" d="m20180 1343h1760m-2560 0h800m-800 1780h2560"/>
 </g>
 <g fill="#fff">
  <g transform="matrix(.0038 0 0 .0038 -3.301 -1.84)" stroke-linecap="round" stroke-linejoin="round" stroke-width="0">
   <circle cx="14260" cy="10334" r="160"/>
   <circle cx="14260" cy="11334" r="160"/>
   <circle cx="9650.2" cy="1526.1" r="590.55"/>
  </g>
  <ellipse cx="91.953" cy="3.94" rx="2.25" ry="2.239" stroke-width="0"/>
  <circle cx="91.718" cy="41.362" r="2.2441"/>
  <circle cx="33.37" cy="41.362" r="2.2441"/>
  <circle cx="23.331" cy="26.15" r=".82285"/>
  <circle cx="23.331" cy="19.417" r=".82285"/>
  <circle cx="23.481" cy="14.106" r="1.6457"/>
  <circle cx="23.481" cy="31.461" r="1.6457"/>
  <circle cx="27.072" cy="28.02" r=".684"/>
  <circle cx="27.072" cy="24.469" r=".684"/>
  <circle cx="27.072" cy="21.097" r=".684"/>
  <circle cx="27.072" cy="17.547" r=".684"/>
  <circle cx="33.181" cy="29.958" r=".67321"/>
  <circle cx="44.579" cy="29.958" r=".67321"/>
  <circle cx="33.033" cy="15.952" r=".67321"/>
  <circle cx="44.435" cy="15.952" r=".67321"/>
  <circle cx="54.497" cy="11.969" r=".608"/>
  <circle cx="50.697" cy="11.969" r=".608"/>
  <circle cx="46.506" cy="21.152" r=".67321"/>
  <circle cx="31.305" cy="21.152" r=".67321"/>
  <circle cx="46.601" cy="25.588" r=".67321"/>
  <circle cx="31.399" cy="25.588" r=".67321"/>
  <g stroke-width="0">
   <circle cx="31.399" cy="34.389" r=".67321"/>
   <g transform="matrix(.0038 0 0 .0038 -3.301 -1.84)" stroke-linecap="round" stroke-linejoin="round">
    <circle cx="13132" cy="9533.9" r="177.16"/>
    <circle cx="16260" cy="10334" r="160"/>
    <circle cx="16260" cy="11334" r="160"/>
    <circle cx="15526" cy="8717.8" r="177.16"/>
    <circle cx="15526" cy="4717.8" r="177.16"/>
    <circle cx="12628" cy="3563.3" r="177.16"/>
    <circle cx="9628.2" cy="3563.3" r="177.16"/>
    <circle cx="14280" cy="8717.8" r="177.16"/>
    <circle cx="14280" cy="4717.8" r="177.16"/>
    <circle cx="23948" cy="2921.8" r="200"/>
    <circle cx="23948" cy="3921.8" r="200"/>
    <circle cx="23948" cy="4921.8" r="200"/>
    <circle cx="23948" cy="5921.8" r="200"/>
    <circle cx="23948" cy="6921.8" r="200"/>
    <circle cx="23948" cy="7921.8" r="200"/>
    <circle cx="23948" cy="8921.8" r="200"/>
    <circle cx="23948" cy="9921.8" r="200"/>
    <circle cx="14079" cy="1345" r="200"/>
    <circle cx="15079" cy="1345" r="200"/>
    <circle cx="16079" cy="1345" r="200"/>
   </g>
   <circle cx="80.071" cy="10.031" r=".76"/>
   <circle cx="70.343" cy="10.031" r=".76"/>
   <ellipse cx="80.283" cy="3.25" rx=".762" ry=".758"/>
   <g transform="matrix(.0038 0 0 .0038 -3.301 -1.84)" stroke-linecap="round" stroke-linejoin="round">
    <circle cx="19380" cy="1343.9" r="200"/>
    <circle cx="10960" cy="1883.9" r="157.48"/>
    <circle cx="12960" cy="1883.9" r="157.48"/>
    <circle cx="11960" cy="1883.9" r="157.48"/>
    <circle cx="22060" cy="7933.9" r="157.48"/>
    <circle cx="19060" cy="4933.9" r="157.48"/>
    <circle cx="21060" cy="7933.9" r="157.48"/>
    <circle cx="20060" cy="4933.9" r="157.48"/>
    <circle cx="20060" cy="7933.9" r="157.48"/>
    <circle cx="21060" cy="4933.9" r="157.48"/>
    <circle cx="19060" cy="7933.9" r="157.48"/>
    <circle cx="22060" cy="4933.9" r="157.48"/>
    <circle cx="17260" cy="4418.2" r="157.48"/>
    <circle cx="17260" cy="3433.9" r="157.48"/>
   </g>
  </g>
 </g>
 <g fill="none" fill-opacity="0" stroke-linecap="round" stroke-linejoin="round">
  <g transform="translate(-77.817,-118.84)" stroke="#fff">
   <g stroke-width=".228">
    <path d="m170.17 138.86v1.194m0.18 11.376h-1.029m-71.213 2.96v-1.494m0 0.574 0.14-0.072h0.287l0.144 0.072 0.069 0.072 0.072 0.14v0.429l-0.072 0.14-0.069 0.072-0.144 0.072h-0.286l-0.141-0.072m1.211-0.923 0.358 0.997m0.363-0.997-0.358 0.997-0.141 0.353-0.072 0.072-0.145 0.072m-0.717 1.186h-0.499m0 0.78v-1.494h0.712m1.22 1.494v-0.781l-0.072-0.144-0.141-0.068h-0.286l-0.145 0.068"/>
    <path d="m100.04 156.79-0.145 0.072h-0.354l-0.145-0.072-0.072-0.14v-0.144l0.072-0.14 0.145-0.073h0.354l0.145-0.072m-0.218-0.921-0.217 0.212m1.145 1.348v-1.494m0 0.564 0.145-0.068h0.285l0.141 0.068 0.073 0.072 0.072 0.144v0.425l-0.072 0.144-0.073 0.068-0.14 0.072h-0.286l-0.145-0.072m1.35 0.077v-0.993m0-0.497-0.069 0.072 0.069 0.072 0.072-0.072-0.072-0.072v0.144m0.93 1.346-0.14-0.072-0.073-0.068-0.073-0.144v-0.425l0.073-0.144 0.072-0.072 0.141-0.068h0.213l0.145 0.068 0.072 0.072 0.07 0.144v0.425l-0.07 0.144-0.072 0.068-0.145 0.072h-0.213m2.22-0.07 0.217 0.072h0.354l0.145-0.072 0.073-0.068 0.068-0.144v-0.14l-0.068-0.145-0.073-0.072-0.145-0.068-0.285-0.072-0.141-0.072-0.073-0.072-0.072-0.14v-0.145l0.072-0.14 0.073-0.072 0.14-0.072h0.359l0.213 0.072m0.853 1.42-0.14-0.072-0.073-0.068-0.073-0.144v-0.425l0.073-0.144 0.072-0.072 0.141-0.068h0.217l0.141 0.068 0.072 0.072 0.073 0.144v0.425l-0.073 0.144-0.072 0.068-0.14 0.072h-0.218m1.79-0.99v0.993m-0.65-0.993v0.781l0.072 0.14 0.141 0.072h0.217l0.141-0.072 0.073-0.068m0.576-0.853h0.785l-0.785 0.993h0.785m1.215-3e-3v-0.781l-0.072-0.144-0.141-0.068h-0.286l-0.145 0.068"/>
    <path d="m111.32 156.79-0.145 0.072h-0.354l-0.145-0.072-0.072-0.14v-0.144l0.072-0.14 0.145-0.073h0.354l0.145-0.072"/>
   </g>
   <g stroke-width="78.74">
    <path transform="matrix(.0038 0 0 .0038 74.516 117)" d="m23163 11233h-100m100-900h-100m100 900v-900m-1300 0h1200m-1200 900h1200m-1200-900v900"/>
   </g>
   <g stroke-width="118.11">
    <path transform="matrix(.0038 0 0 .0038 74.516 117)" d="m22066 11042v-472h113l67 22 45 45 23 45 22 90v68l-22 90-23 45-45 45-67 22h-113m473 0v-472m315 247v225m-158-472 158 247 157-247"/>
   </g>
   <g stroke-width="72">
    <path transform="matrix(.0038 0 0 .0038 74.516 117)" d="m6312 2938-15 15-45 15h-30l-45-15-30-30-15-30-15-60v-45l15-60 15-30 30-30 45-15h30l45 15 15 15m315 255-15 15-45 15h-30l-45-15-30-30-15-30-15-60v-45l15-60 15-30 30-30 45-15h30l45 15 15 15m480 120 44 15 15 15 15 30v45l-15 30-15 15-29 15h-120v-315h105l30 15 14 15 15 30v30l-15 30-14 15-30 15h-105m374 15v150m-105-315 105 165 105-165m105 195h240m135 105 45 15h75l30-15 15-15 15-30v-30l-15-30-15-15-30-15-60-15-30-15-15-15-15-30v-30l15-30 15-15 30-15h75l45 15m120 210h150m-180 90 105-315 105 315m480-210v210m-75-330-75 225h195m120 75 15 15-15 15-15-15 15-15v30m210-315h30l30 15 15 15 15 30 15 60v75l-15 60-15 30-15 15-30 15h-30l-30-15-15-15-15-30-15-60v-75l15-60 15-30 15-15 30-15"/>
   </g>
   <g stroke-width=".228">
    <path d="m168.16 131.27 0.503 1.49 0.499-1.49m1.358 1.35-0.072 0.072-0.214 0.068h-0.14l-0.218-0.068-0.14-0.144-0.073-0.14-0.073-0.285v-0.216l0.073-0.284 0.072-0.14 0.141-0.144 0.217-0.069h0.141l0.214 0.069 0.072 0.072m-0.26 3.069h-0.857l-0.084 0.853 0.084-0.087 0.171-0.084h0.43l0.172 0.084 0.084 0.087 0.088 0.17v0.425l-0.088 0.171-0.084 0.087-0.171 0.084h-0.43l-0.172-0.084-0.084-0.087m0.421 2.081-0.427 1.282h1.113m-1.196 2.598h1.116l-0.602 0.682h0.26l0.17 0.084 0.085 0.087 0.087 0.17v0.425l-0.087 0.171-0.084 0.087-0.172 0.084h-0.514l-0.171-0.084-0.088-0.087m0.09 2.341 0.084-0.087 0.171-0.084h0.43l0.172 0.084 0.084 0.087 0.088 0.17v0.171l-0.088 0.254-1.029 1.024h1.117m-0.519 3.791v-1.79l-0.171 0.254-0.172 0.171-0.171 0.087m2.704-17.532-0.072 0.072-0.214 0.068h-0.145l-0.213-0.068-0.14-0.144-0.073-0.14-0.073-0.285v-0.216l0.073-0.284 0.072-0.14 0.141-0.144 0.213-0.069h0.145l0.213 0.069 0.073 0.072m-2.28 22.499h0.171l0.172 0.084 0.087 0.087 0.084 0.17 0.088 0.342v0.424l-0.088 0.341-0.084 0.171-0.087 0.087-0.172 0.084h-0.171l-0.171-0.084-0.084-0.087-0.088-0.17-0.084-0.342v-0.424l0.084-0.342 0.088-0.17 0.084-0.088 0.171-0.083m-70.516 5.63 0.503 1.494 0.499-1.494m0.424 0.14 0.072-0.068 0.145-0.072h0.354l0.145 0.072 0.073 0.068 0.068 0.144v0.14l-0.068 0.216-0.858 0.854h0.926m1.503-4e-3 -0.499-0.713m-0.361 0.713v-1.494h0.571l0.141 0.072 0.073 0.069 0.072 0.144v0.212l-0.072 0.144-0.073 0.068-0.14 0.072h-0.572m1.29-0.777 0.503 1.494 0.499-1.494m32.038 2.45 0.343 1.194 0.343-0.853 0.343 0.853 0.342-1.194m0.519 0 0.343 1.194 0.343-0.853 0.343 0.853 0.342-1.194m0.509 0 0.343 1.194 0.343-0.853 0.343 0.853 0.342-1.194m0.689 1.03 0.088 0.087-0.088 0.084-0.084-0.084 0.084-0.087v0.17m0.6-1.2h0.686m-0.426 1.2v-1.536l0.088-0.17 0.171-0.084h0.171m0.59 1.79v-1.194m0 0.334 0.088-0.17 0.083-0.084 0.172-0.087h0.171m1.376 1.201v-0.936l-0.084-0.171-0.171-0.087h-0.343l-0.171 0.087"/>
    <path d="m146.08 163.1-0.171 0.084h-0.427l-0.171-0.084-0.088-0.17v-0.171l0.087-0.17 0.172-0.088h0.427l0.171-0.084m0.86-0.427v1.194m0-1.024 0.084-0.084 0.171-0.087h0.26l0.17 0.088 0.084 0.17v0.937m0.681-1.194h0.945l-0.945 1.194h0.945m0.685 6e-3v-1.194m0-0.596-0.088 0.084 0.088 0.087 0.084-0.088-0.084-0.083v0.17m0.86 0.42v1.194m0-1.024 0.084-0.084 0.171-0.087h0.26l0.17 0.088 0.084 0.17v0.937m0.861 6e-3v-1.194m0-0.596-0.084 0.084 0.084 0.087 0.088-0.088-0.088-0.083v0.17m0.85 0.42v1.194m0-1.024 0.088-0.084 0.171-0.087h0.255l0.172 0.088 0.087 0.17v0.937m0.857 6e-3v-1.79m0.77 1.79v-0.936l-0.084-0.171-0.171-0.087h-0.26l-0.17 0.087-0.084 0.083m1.889 1.024-0.171-0.084-0.088-0.087-0.084-0.17v-0.512l0.084-0.17 0.088-0.084 0.171-0.087h0.255l0.172 0.087 0.087 0.083 0.084 0.17v0.513l-0.084 0.17-0.087 0.088-0.172 0.083h-0.255m1.37-0.17 0.084 0.087-0.084 0.084-0.088-0.084 0.088-0.087v0.17m1.63-0.09-0.171 0.084h-0.343l-0.172-0.084-0.083-0.087-0.088-0.17v-0.513l0.088-0.17 0.083-0.084 0.172-0.087h0.343l0.171 0.087m1.03 1.114-0.171-0.084-0.084-0.087-0.088-0.17v-0.512l0.088-0.17 0.084-0.084 0.171-0.087h0.259l0.171 0.087 0.084 0.083 0.088 0.17v0.513l-0.088 0.17-0.084 0.088-0.171 0.083h-0.259m1.37 0v-1.194m0 0.164 0.084-0.084 0.171-0.087h0.26l0.17 0.088 0.084 0.17v0.937m1e-3 -0.934 0.088-0.17 0.171-0.088h0.255l0.172 0.087 0.087 0.171v0.936m0.857-0.166 0.084 0.087-0.084 0.084-0.088-0.084 0.088-0.087v0.17m0.85 0v-1.79m0 0.68 0.171-0.087h0.343l0.172 0.087 0.083 0.084 0.088 0.17v0.512l-0.088 0.17-0.083 0.088-0.172 0.083h-0.343l-0.171-0.083m1.63 0.086v-1.194m0 0.334 0.088-0.17 0.083-0.084 0.172-0.087h0.171m-32.454-33.389 1.5-0.497-1.5-0.5m1.36-1.353 0.072 0.072 0.073 0.212v0.144l-0.072 0.213-0.141 0.14-0.145 0.072-0.286 0.072h-0.213l-0.286-0.072-0.145-0.072-0.14-0.14-0.073-0.213v-0.144l0.072-0.212 0.073-0.072m1.211-1.49 0.072 0.072 0.073 0.212v0.144l-0.072 0.213-0.141 0.144-0.145 0.068-0.286 0.072h-0.213l-0.286-0.072-0.145-0.068-0.14-0.144-0.073-0.213v-0.144l0.072-0.212 0.073-0.072m-8.099 2.88 1.5-0.497-1.5-0.5m1.5-0.503h-1.5m1.5-0.7h-1.5l1.5-0.853h-1.5"/>
   </g>
  </g>
  <g transform="translate(-77.817,-118.84)">
   <g stroke="#fff">
    <g stroke-width="50">
     <path transform="matrix(.0038 0 0 .0038 74.516 117)" d="m13740 11713h-310m150 140v-290"/>
    </g>
    <g stroke-width="100">
     <path transform="matrix(.0038 0 0 .0038 74.516 117)" d="m14657 11528a800 800 0 0 0 403-694.6"/>
     <path transform="matrix(.0038 0 0 .0038 74.516 117)" d="m15060 10834a800 800 0 0 0-283.2-610.7m-1316.8 610.7a800 800 0 0 0 423.6 705.9m-135.6-1320.9a800 800 0 0 0-287.9 614.5"/>
    </g>
    <g stroke-width="60">
     <path transform="matrix(.0038 0 0 .0038 74.516 117)" d="m14629 11308a600 600 0 0 0 231.6-473.7m-0.6-0.3a600 600 0 0 0-231.6-473.6m-968.4 473.6a600 600 0 0 0 240 480m12-968a600 600 0 0 0-251.3 488.2"/>
    </g>
    <g stroke-width="80">
     <path transform="matrix(.0038 0 0 .0038 74.516 117)" d="m7441 8054v-3149m-1575 3937h394m-394-4725h394m-394 0v4725m4484-225v-500m1750 250h100m-2100 0h-100m2100 0v300m0-600v300m-2e3 -300h2e3m-2e3 300v-300m0 600v-300m2e3 300h-2e3m211-3735v-500m1750 250h100m-2100 0h-100m2100 0v300m0-600v300m-2e3 -300h2e3m-2e3 300v-300m0 600v-300m2e3 300h-2e3"/>
    </g>
   </g>
   <path transform="matrix(.0038 0 0 .0038 74.516 117)" d="m14610 3633h-50" stroke="#000" stroke-width="60"/>
   <g stroke="#fff">
    <g stroke-width="100">
     <path transform="matrix(.0038 0 0 .0038 74.516 117)" d="m14610 3633v300m0-600v300m200 0v300m0-300v-300"/>
    </g>
    <g stroke-width="60">
     <path transform="matrix(.0038 0 0 .0038 74.516 117)" d="m14860 3633h-50m-1050 400.9a100 100 0 0 0 100 100m1700 0a100 100 0 0 0 100-100m-1800-900a100 100 0 0 0-100 100m1900 0a100 100 0 0 0-100-100m-1800 99.1v800m1900-800v800m-100 100h-1700m0-1e3h1700"/>
    </g>
    <g stroke-width="80">
     <path transform="matrix(.0038 0 0 .0038 74.516 117)" d="m12347 6522h-2481m2481-944v944m-2481-944h2481m-2481 944v-944m2505 2112h-2480m2480-945v945m-2480-945h2480m-2480 945v-945m0 2316h2480m-2480 945v-945m2480 945h-2480m2480-945v945"/>
    </g>
    <g stroke-width="50">
     <path transform="matrix(.0038 0 0 .0038 74.516 117)" d="m15740 11713h-310m150 140v-290"/>
    </g>
    <g stroke-width="100">
     <path transform="matrix(.0038 0 0 .0038 74.516 117)" d="m16657 11528a800 800 0 0 0 403-694.6"/>
     <path transform="matrix(.0038 0 0 .0038 74.516 117)" d="m17060 10834a800 800 0 0 0-283.2-610.7m-1316.8 610.7a800 800 0 0 0 423.6 705.9m-135.6-1320.9a800 800 0 0 0-287.9 614.5"/>
    </g>
    <g stroke-width="60">
     <path transform="matrix(.0038 0 0 .0038 74.516 117)" d="m16629 11308a600 600 0 0 0 231.6-473.7m-0.6-0.3a600 600 0 0 0-231.6-473.6m-968.4 473.6a600 600 0 0 0 240 480m12-968a600 600 0 0 0-251.3 488.2"/>
    </g>
   </g>
  </g>
  <g transform="translate(-77.817,-118.84)" stroke="#fff" stroke-width=".304">
   <path d="m131.86 147.16v-9.403m3.6 9.403h-3.6m3.6-9.4v9.403m-3.6-9.403h3.6m-15.7-8.2v1.896m-6.66-0.956h-0.38m8 0h0.38m-8 0v-1.137m0 2.277v-1.137m7.62 1.137h-7.619m7.619-1.14v1.137m0-2.267v1.137m-7.62-1.137h7.619m6.391 17.79v-9.403m3.6 9.403h-3.6m3.6-9.4v9.403m-3.6-9.403h3.6"/>
  </g>
  <g transform="translate(-77.817,-118.84)" stroke="#fff" stroke-width="80">
   <path transform="matrix(.0038 0 0 .0038 74.516 117)" d="m24448 2671v500m-250 250 250-250m-1e3 0 250 250m500-1e3 250 250m-750-250h500m-750 250 250-250m-250 750v-500m1e3 7e3v500m-250 250 250-250m-1e3 0 250 250h500m250-1250-250 250m250-750v500m-250-750 250 250m-1e3 0 250-250m-250 750v-500m250 750-250-250m750 250 250 250m-1e3 0 250-250m-250 750v-500m1e3 -3e3v500m-250 250 250-250m-1e3 0 250 250m750 750-250 250m250-750v500m-250-750 250 250m-1e3 0 250-250m-250 750v-500m250 750-250-250m1e3 -2e3 -250 250m250-750v500m-250-750 250 250m-1e3 0 250-250m-250 750v-500m250 750-250-250m750 250 250 250m-1e3 0 250-250m-250 750v-500m1e3 -3e3v500m-250 250 250-250m-1e3 0 250 250m750 750-250 250m250-750v500m-250-750 250 250m-1e3 0 250-250m-250 750v-500m250 750-250-250m750-1750 250 250m-1e3 0 250-250m-250 750v-500"/>
  </g>
 </g>
 <path d="m26.866 7.104 0.377-0.197 0.945 0.766 0.643-0.645-0.765-0.936 0.323-0.781 1.212-0.125v-0.91l-1.212-0.122-0.13-0.405-0.193-0.376 0.765-0.94-0.643-0.64-0.945 0.765-0.377-0.197-0.408-0.129-0.122-1.202h-0.914l-0.122 1.202-0.408 0.129-0.38 0.197-0.941-0.766-0.648 0.641 0.77 0.94-0.324 0.781-1.212 0.122v0.91l1.212 0.125 0.323 0.78-0.77 0.937 0.649 0.645 0.94-0.766 0.187 0.106 0.194 0.091 0.537-1.293-0.293-0.178-0.232-0.254-0.149-0.307-0.05-0.341 0.035-0.277 0.099-0.262 0.16-0.227 0.206-0.19 0.247-0.129 0.275-0.072h0.278l0.274 0.06 0.251 0.13 0.214 0.182 0.164 0.224 0.102 0.261 0.038 0.277-0.026 0.277-0.092 0.261-0.156 0.235-0.445 0.33z" fill="#fff" fill-rule="evenodd" stroke-width="0"/>
 <g transform="translate(-77.817,-118.84)" stroke-linecap="round" stroke-linejoin="round">
  <g transform="matrix(.0038 0 0 .0038 74.516 117)" fill="none" fill-opacity="0" stroke="#fff" stroke-width="80">
   <path d="m13579 1595v-500m2250-250h500m250 250-250-250m0 1e3 250-250v-500m-1250-250 250 250m-750-250h500m-750 250 250-250m0 1e3 -250-250m750 250h-500m750-250-250 250m250-750 250-250m0 1e3 -250-250m750 250h-500m-1500-1e3 250 250m-750-250h500m-750 250 250-250m0 1e3 -250-250m750 250h-500m750-250-250 250m5481 1588h1700m0-2400h-1700m-350 1593v-793m2400 805v-805"/>
   <circle cx="20660" cy="2233.9" r="700"/>
  </g>
  <g fill="none" fill-opacity="0" stroke="#fff" stroke-width="47.244">
   <path transform="matrix(.0038 0 0 .0038 74.516 117)" d="m12669 2612.3a1016.2 1016.2 0 0 0 129.6-153.95m4.4-1155.6a1023.6 1023.6 0 0 0-842.6-442.38m-0.4 0a1023.6 1023.6 0 0 0-842.6 442.38m8.6 1161.1a1016.2 1016.2 0 0 0 125.9 148.48m-0.9-0.28h1417m9939 5888v-4133m-4094 4133h4094m-4094-4133v4133m4094-4133h-4094m4070 2952v-492m-4047 492h4047m-4047-1771v1771m4047-1771h-4047m4047 492v-492m1 492.2a393.7 393.7 0 0 0 0 787.4"/>
  </g>
  <g fill="#fff" fill-rule="evenodd" stroke="#000" stroke-width="3.937">
   <path transform="matrix(.0038 0 0 .0038 74.516 117)" d="m17773 9685 36 25 16 37-9 44-11 20-26 22-39 9h-66v-167h45zm584 60 14 25 18 46 2 4 16 49 12 38 5 20v1l-13 6-32 4-25 1-39-1-25-2-5-2 4-14 25-75 15-44 13-37 7-19zm4661-51 35 21 17 17 21 23 12 23 6 30 2 45v88l-4 36-8 24-16 20-17 16-53 32-58 9-56-14-15-9-37-40-24-59-10-68v-5l9-77 29-59 45-40 60-17 17-1z"/>
   <path transform="matrix(.0038 0 0 .0038 74.516 117)" d="m23218 9492 42 34 37 42 4 7 12 20 8 20 6 25 3 34 2 49 1 67v185l-1 67-2 49-3 35-6 26-8 20-11 19-1 1-33 42-43 36-7 5-51 32-2979 2-342 1h-631l-289-1h-519l-229-1-208-1h-186l-163-1-140-1-115-1-90-2-64-1-38-1-11-1-52-28-50-45-15-22h4961l146-8 4-122 4-121h249v250h153v-313h94l8 85 27 78 46 66 24 23 79 46 87 22 91-2 88-28 10-4 65-48 51-67 32-80 14-87-6-88-28-85-3-6-50-70-66-52-78-31-85-9-86 14-77 35-62 54-44 69-28 80-9 85h-94v-326h-153v250h-249l-4-122-4-121-146-8v641h-4961l-24-34-16-39-6-40-4-63-1-82v-96l3-85 2-62 4-45 5-32 8-24 12-21 3-6 9-11h8v639h153v-250h208v-125h-208v-139h222v-125h97v639h153v-238l38 4 21 7 21 17 25 32 33 52 7 12 70 114 318-7 21-67 20-66 112 4 111 4 38 132h84l47-2 24-4 6-10-7-21-15-41-21-58-26-73-29-83-17-47-107-300h295v639h139l1-438 142 219 142 218h80l80 1v-29h70l6 18 2 2 16 3 40 2 58 2 72 1 78 1h255v-125h-153l-61-1-50-1-32-3-10-2 8-13 22-32 33-47 41-58 48-66 1-1 60-85 44-65 30-49 15-33 4-18v-40h83v639h153v-639h125v639h153v-424l139 212 140 212h151v-639h139v639h153v-639h125v639h153v-424l276 424h154v-639h-138l-4 209-4 210-136-210-137-209h-720v424l-279-424h-1026v124l293 8-160 214-63 85-46 66-30 51-17 36-4 26h-70v-610h-153l-1 205v205l-134-205-135-205h-543l-51 2-29 5-14 12-3 5-7 21-16 41-21 59-26 72-29 79-1 3-29 80-27 73-22 61-17 45-8 23-7 14-9 2-14-13-22-31-28-43-35-50-32-45-26-31-26-26v-10l18-7 28-16 31-29 5-6 24-37 10-43 1-31-6-60-20-47-36-33-55-22-76-13-101-4h-644l25-31 42-37 7-4 52-32h6e3zm-6006-2324 23 4 25 7 50 18 21 11 16 9 7 5 4 2 5 2 8 6 11 9 12 11 13 12 12 13 12 12 10 11 7 8 1 3 6 8 5 7 6 8 7 12 8 16 8 17 8 18 6 16 4 11 6 22 5 21 2 20 2 22v26l-1 16-1 26-2 22-3 18-3 12-4 8-3-1-7-5-9-8-21-21-16-15-16-14-14-12-12-11-11-10-9-7-5-5v-1l-6-4-8-7-6-4-10-8-13-10-11-9-15-11-19-13-22-15-23-15-24-15-22-14-20-11-15-9-10-5-7-4-42-21-16-7-15-8-14-6-12-6-3-1-21-9-27-11-30-11-25-9-17-5-14-5-11-5-7-2-3-1 1-3 6-6 9-8 11-8 14-10 28-18 11-6 44-20 46-14 48-8 49-1zm-371 177 7 2 8 4 9 3 10 3 13 3 33 11 17 6 15 5 10 4 7 3 10 4 12 5h1l9 4 13 5 16 7 17 8 16 8 15 7 13 6 12 6 8 5 12 7 13 7 11 7 7 3 10 5 9 6 1 1 6 3 9 6 12 9 15 10 12 7 38 27 33 25 31 24 20 17 11 10 10 9 8 7 3 2 7 6 55 55 9 11 8 7 4 5v1l-2 4-5 8-8 11-9 11-9 12-10 10-3 4-14 14-17 14-16 14-16 11-7 4-27 16-31 13-30 11-29 8-7 1-13 2-17 2-19 1-18 1-17 1h-13l-16-2-11-1-13-2h-3l-15-3-18-4-16-5-2-1-13-5-30-12-13-6-10-6-4-2-5-4-7-5-3-2-10-6-11-7-1-1-7-6-10-8-34-34-9-10-7-7-1-2-13-19-9-15-8-12-7-12-8-16-3-8-2-4v-1l-1-4-3-7-2-4-7-21-4-16-3-14-7-47-1-47 5-47 12-47 17-45 7-15 6-10 4-5 3-2z"/>
   <path transform="matrix(.0038 0 0 .0038 74.516 117)" d="m18132 8152h-1941v-619h174l8 7 6 5 10 8 11 8 5 4 12 8 11 9 12 8 7 5 22 16 4 3 13 9 15 12 16 11 6 5 12 8 9 7 7 4 6 3 3 3 7 6 10 7 12 9 13 9 6 5 6 4 10 7 12 9 14 10 4 3 18 13 38 28 16 11 11 9 11 8 12 8 13 10 15 11 18 13 21 15 26 19 11 9 11 7 8 6 1 1 7 5 10 7 11 8 2 1 10 7 9 7 6 4v1l5 4 9 6 7 5 11 7 15 12 7 4 10 8 13 9 13 10 3 2 16 12 57 42 5 3 14 10 13 9 10 7 7 4 2 1 5-1 7-5 2-1 7-5 10-7 24-18 14-10 13-9 11-9 7-5 5-4 6-4 8-6 10-7 13-9 36-27 21-14 10-8 12-9 5-3 20-15 14-10 12-8 41-30 37-27 32-23 28-20 22-17 19-13 13-10 10-7 5-4 8-6 11-8 12-9 5-3 13-10 15-11 17-12 11-8 14-11 15-10 14-10 9-6 11-8 10-7 8-6 14-11 17-12 20-15 16-11 12-9 13-9 14-10 12-9 15-12 8-7-8-6-6-5-11-7-13-10-14-11-15-11-15-10-12-9-6-4-10-7-7-5-10-8-7-5-8-5-10-8-12-8-12-9-9-7-5-3-4-4-9-6-11-8-6-5-12-9-11-7-9-6-3-3-6-4-10-7-11-9-7-5-12-8-10-7-8-6-3-2-5-4-9-6-11-8-2-2-12-9-10-7-8-6-1-1-18-12-13-10-9-6-6-5-4-2v-1l-6-4-8-6-7-5-5-3-5-4-7-6-11-7-10-8-10-7-1-1-11-7-14-11-34-24-10-8-11-8-15-11-16-11-14-11-15-10-16-12-13-10-11-7-28-21-24-17-19-14-14-11-11-7-3-2-13-9-14 9-8 5-11 8-13 10-10 8-13 9-11 8-9 6-4 3-5 3-8 7-12 8-14 11-16 11-1 1-30 22-13 9-9 7-5 4-7 4-10 8-11 8-6 4-11 8-15 11-16 12-18 12-10 8-16 12-17 12-16 11-13 10-6 4-22 16-9 6-2 2-7 5-10 7-12 9-5 4-12 9-11 8-12 8-7 6-11 8-12 8-5 4-12 9-10 7-10 8-12 8-14 10-13 9-13 10-16 11-13 10-11 8-10 8-8 5-1 1-7 5-5 3-1 1-3 2-8 6-10 8-13 9-22 16-19 14-17 12-13 9-8 7-2 1-6 5h-174v-618h1941z"/>
  </g>
  <g fill="none" fill-opacity="0" stroke="#fff" stroke-width="47.244">
   <path transform="matrix(.0038 0 0 .0038 74.516 117)" d="m17516 2804h-512m256-237v473m139 1894h-279m360-16h-440m498-16h-557m605-15h-653m695-16h-736m773-16h-810m843-16h-876m906-15h-936m964-16h-993m111-16h-137m1045 0h-136m-772-16h-161m1094 0h-161m-772-15h-184m1140 0h-184m-772-16h-206m1184 0h-206m-772-16h-227m1225 0h-226m-772-16h-246m1264 0h-246m-772-15h-265m1302 0h-265m-772-16h-283m1338 0h-283m-772-16h-300m1372 0h-300m-772-16h-316m1404 0h-316m-772-15h-332m1436 0h-332m-772-16h-347m1466 0h-347m-772-16h-361m1494 0h-361m-772-16h-375m1521 0h-374m-772-15h-388m1547 0h-387m-772-16h-400m1572 0h-400m-772-16h-413m1597 0h-412m-772-16h-424m1620 0h-424m-772-15h-435m1642 0h-435m-772-16h-446m1664 0h-446m-772-16h-457m1685 0h-456m-772-16h-467m1705 0h-466m-772-15h-476m1724 0h-476m-772-16h-485m1742 0h-485m-772-16h-494m1759 0h-493m-772-16h-502m1776 0h-502m-772-15h-510m1792 0h-510m-772-16h-518m1808 0h-518m-772-16h-526m1823 0h-525m-772-16h-533m1837 0h-532m-772-15h-539m1850 0h-539m-772-16h-546m1863 0h-545m-772-16h-552m1876 0h-552m-772-16h-557m1886 0h-557m-772-15h-563m1898 0h-563m-772-16h-568m1908 0h-568m-772-16h-573m1918 0h-573m-772-16h-578m1928 0h-578m-772-16h-583m1937 0h-582m-772-15h-587m1945 0h-586m-772-16h-591m1953 0h-590m-772-16h-594m1960 0h-594m-772-16h-598m1967 0h-597m-772-15h-601m1973 0h-600m-772-16h-604m1979 0h-603m-772-16h-606m1984 0h-606m-772-16h-608m1988 0h-608m-772-15h-611m1993 0h-610m-772-16h-612m1996 0h-612m613-16h-1999m2001-16h-2002m2003-15h-2005m2006-16h-2006m2006-16h-2007m2008-16h-2008m2008-15h-2008m540 907.8a1019.7 1019.7 0 0 0 929-0.06"/>
   <path transform="matrix(.0038 0 0 .0038 74.516 117)" d="m16796 3018.4a1019.7 1019.7 0 0 0 0.1 1815.5m928.9-0.1a1019.7 1019.7 0 0 0 0.1-1815.5"/>
  </g>
 </g>
 <g transform="translate(-77.817,-118.84)" fill="#fff" fill-rule="evenodd">
  <path d="m171.83 127.81 0.122 0.076 0.095 0.106 0.023 0.042 0.027 0.094-0.016 0.088-0.026 0.049-0.088 0.11-0.122 0.087-0.13 0.034h-0.011l-0.035-7e-3 -0.019-0.03-0.012-0.068-4e-3 -0.122v-0.3l7e-3 -0.105 0.012-0.057 0.023-0.023 0.034-7e-3z"/>
  <path d="m171.01 127.13h0.347l0.323 4e-3 0.301 7e-3 0.263 4e-3 0.214 7e-3 0.163 7e-3 0.1 0.012 0.026 4e-3 0.069 0.038 0.05 0.053 0.037 0.072 0.027 0.106 0.015 0.152 7e-3 0.2 4e-3 0.266v0.072l-4e-3 0.285-4e-3 0.216-0.015 0.163-0.023 0.114-0.034 0.08-0.05 0.056-0.06 0.038-0.02 7e-3 -0.06 0.012-0.13 0.012-0.187 7e-3 -0.24 7e-3 -0.278 4e-3 -0.312 4e-3 -0.336 4e-3h-1.066l-0.343-4e-3 -0.328-4e-3 -0.3-7e-3 -0.263-4e-3 -0.218-7e-3 -0.163-0.012-0.103-0.012-0.03-7e-3 -0.065-0.038-0.046-0.05-0.034-0.071-0.023-0.103-0.016-0.14-7e-3 -0.193-4e-3 -0.254v-4e-3h0.545l0.057 0.185 0.103 0.148 0.141 0.099 0.054 0.015 0.106 0.019 0.141 4e-3 0.149-4e-3 0.08-0.012h1.748l0.35-4e-3 0.191-0.012 0.156-0.019 0.1-0.027 6e-3 -4e-3 0.088-0.056 0.084-0.08 0.057-0.08 0.015-0.057c-4e-3 -0.023 0.014-0.044 0.02-0.06l0.037-0.068v-0.106l-0.03-0.13-0.061-0.132-0.08-0.117-0.034-0.035-0.054-0.045-0.06-0.027-0.084-0.019-0.126-0.012-0.18-7e-3 -0.395-0.015v1.111h-1.75l0.054-4e-3 0.091-0.023 0.02-0.011 0.053-0.023 0.02 7e-3 0.011-0.023 0.012-0.08 4e-3 -0.124v-0.33h-0.571v0.106l7e-3 0.072 0.034 0.027 0.088-7e-3h4e-3l0.087-4e-3 0.038 0.022 7e-3 0.076v0.015l-4e-3 0.08-0.03 0.03-0.076-7e-3 -0.027-4e-3 -0.156-0.053-0.115-0.095-0.06-0.121v-0.137l0.022-0.064 0.061-0.095 0.061-0.064 0.103-0.046 0.137-0.012 0.133 0.027 0.061 0.034 0.088 0.057 0.046-4e-3 0.019-0.069 4e-3 -0.064-7e-3 -0.087-0.03-0.06-0.065-0.035-0.073-0.012h0.404v1.1h0.305v-0.368l4e-3 -0.167 4e-3 -0.099 0.012-0.041 0.015 7e-3 0.015 0.026 0.042 0.08 0.069 0.121 0.083 0.137 0.023 0.034 0.084 0.133 0.06 0.08 0.05 0.04 0.061 0.016h0.24v-1.1h-0.266v0.49l-4e-3 0.09-0.012 0.035-0.016-0.012-0.03-0.05v-3e-3l-0.053-0.091-0.077-0.126-0.068-0.113-0.141-0.216-0.4-4e-3h-0.404l-0.046-7e-3 -0.156-7e-3 -0.24 0.015-0.194 0.068-0.137 0.125-0.084 0.17-0.02 0.08-3e-3 0.205h-0.545v-0.371l7e-3 -0.22 0.012-0.163 0.023-0.114 0.034-0.084 0.046-0.053 0.065-0.041 0.022-0.012 0.061-7e-3 0.126-0.012 0.19-7e-3 0.237-7e-3 0.278-4e-3 0.312-4e-3 0.335-4e-3h0.709z"/>
  <path d="m131.57 124.95 0.08-0.121 0.103-0.091 0.046-0.027 0.095-0.026 0.084 0.019 0.053 0.022 0.11 0.087 0.084 0.126 0.038 0.125v0.012l-7e-3 0.034-0.03 0.019-0.072 0.012-0.122 4e-3h-0.298l-0.106-4e-3 -0.057-0.016-0.027-0.022-4e-3 -0.034z" stroke="#fff" stroke-linecap="round" stroke-linejoin="round" stroke-width=".015"/>
  <path d="m130.89 125.77 4e-3 -0.341 4e-3 -0.326 4e-3 -0.296 4e-3 -0.262 7e-3 -0.216 0.012-0.163 7e-3 -0.098 7e-3 -0.027 0.038-0.068 0.05-0.05 0.072-0.037 0.11-0.027 0.15-0.015 0.201-7e-3 0.27-4e-3h0.073l0.282 4e-3 0.217 7e-3 0.164 0.012 0.114 0.023 0.084 0.034 0.053 0.049 0.042 0.065 7e-3 0.015 0.012 0.064 7e-3 0.125 7e-3 0.19 7e-3 0.235 7e-3 0.277 4e-3 0.31v0.334l4e-3 0.35v0.355l-4e-3 0.357-4e-3 0.345-4e-3 0.322-4e-3 0.3-7e-3 0.261-7e-3 0.216-7e-3 0.167-0.012 0.103-7e-3 0.026-0.042 0.065-0.05 0.045-0.072 0.035-0.099 0.026-0.144 0.012-0.195 7e-3 -0.255 4e-3h-4e-3v-0.542l0.187-0.053 0.148-0.103 0.1-0.144 0.018-0.053 0.016-0.106 7e-3 -0.136-7e-3 -0.148-7e-3 -0.084v-1.74l-7e-3 -0.349-7e-3 -0.19-0.02-0.151-0.026-0.102-4e-3 -7e-3 -0.061-0.088-0.08-0.08-0.08-0.056-0.057-0.02-7e-3 5e-3 -0.042-7e-3 -0.012-0.012-0.065-0.042h-0.106l-0.134 0.035-0.133 0.057-0.118 0.083-0.034 0.034-0.042 0.053-0.03 0.06-0.02 0.084-7e-3 0.126-7e-3 0.174-0.015 0.394h1.116v1.74l-7e-3 -0.049-0.019-0.09-0.012-0.023-0.023-0.054 7e-3 -0.018-0.022-0.012-0.084-7e-3 -0.126-7e-3h-0.328v0.568h0.107l0.069-4e-3 0.026-0.038-4e-3 -0.083v-7e-3l-7e-3 -0.087 0.027-0.038 0.073-7e-3h0.015l0.08 7e-3 0.03 0.026-4e-3 0.076-4e-3 0.03-0.057 0.152-0.095 0.114-0.122 0.06h-0.133l-0.065-0.022-0.095-0.06-0.069-0.058-0.046-0.106-7e-3 -0.136 0.027-0.13 0.034-0.06 0.058-0.09-4e-3 -0.046-0.073-0.02-0.06-3e-3 -0.092 7e-3 -0.057 0.03-0.035 0.068-0.012 0.069v-0.402h1.105v-0.304h-0.373l-0.168-4e-3 -0.1-4e-3 -0.041-7e-3 7e-3 -0.015 0.03-0.019 0.08-0.038 0.118-0.072 0.138-0.083 0.034-0.02 0.133-0.087 0.08-0.056 0.042-0.054 0.015-0.06 4e-3 -0.076v-0.163h-1.104v0.265h0.331l0.16 4e-3 0.092 4e-3 0.034 7e-3 -0.015 0.02-0.05 0.026v0l-0.091 0.053-0.13 0.076-0.114 0.072-0.217 0.136v0.8l-7e-3 0.05-0.013 0.151 0.016 0.243 0.072 0.19 0.122 0.14 0.175 0.083 0.077 0.016 0.205 4e-3v0.542h-0.373l-0.217-7e-3 -0.164-0.012-0.118-0.023-0.08-0.034-0.057-0.046-0.042-0.064-7e-3 -0.02-0.012-0.06-7e-3 -0.129-7e-3 -0.185-7e-3 -0.24-7e-3 -0.276-4e-3 -0.31-4e-3 -0.335v-0.705z" stroke="#fff" stroke-linecap="round" stroke-linejoin="round" stroke-width=".015"/>
  <path d="m122.5 156.07 0.072 0.057 0.096 0.083 0.103 0.103 0.099 0.106 0.091 0.098 0.069 0.088 0.038 0.06 4e-3 0.02-0.027 0.033-0.065 0.073-0.103 0.102-0.133 0.133-0.156 0.155-0.18 0.174-0.19 0.186-4e-3 7e-3 -0.236 0.224-0.194 0.186-0.156 0.144-0.118 0.11-0.092 0.072-0.057 0.042-0.034 0.015h-7e-3l-0.042 4e-3 -0.073 0.049-0.103 0.087-0.057 0.057-0.118 0.11-0.103 0.08-0.106 0.06-0.137 0.06-0.061 0.028-0.133 0.049-0.111 0.045-0.076 0.03-0.023 8e-3 -0.042-0.012-0.015-0.02 4e-3 -0.045 0.023-0.09 0.012-0.031h0.14l8e-3 0.015 0.015-4e-3 0.038-0.015 0.08-0.034 0.11-0.042 0.02-0.012 0.144-0.064 0.122-0.08 0.126-0.11 0.034-0.038 0.202-0.2-0.156-0.16-0.156-0.155-0.198 0.193-0.118 0.129-0.088 0.117-0.068 0.137-0.023 0.053-0.054 0.136-0.03 0.088-7e-3 0.045h-0.141l0.03-0.09 0.046-0.118 0.061-0.156 0.057-0.113 0.061-0.095 0.08-0.091 0.091-0.095 0.103-0.106 0.061-0.076 0.027-0.046-7e-3 -0.03v-4e-3l-0.012-0.012-4e-3 -0.015 7e-3 -0.023 4e-3 -4e-3h0.137l0.229 0.228 0.175 0.175 0.053 0.045 0.016 0.012 0.026-0.023 0.065-0.06 0.1-0.095 0.125-0.122 0.148-0.148 0.164-0.159 0.05-0.05 0.659-0.655-0.24-0.24-0.24-0.234-0.667 0.663-0.663 0.664h-0.137l0.016-0.027 0.038-0.049 0.06-0.064 0.084-0.091 0.11-0.114 0.146-0.148 0.182-0.182 0.218-0.224 0.106-0.106 0.172-0.17 0.16-0.156 0.08-0.076h0.179l0.236 0.235 0.236 0.24 0.073-0.07 0.049-0.052 0.023-0.034v-4e-3l-0.023-0.027-0.06-0.06-0.088-0.084-0.069-0.065-0.24-0.216-0.137 0.137h-0.18l0.062-0.057 0.114-0.11 0.088-0.076 0.05-0.038 6e-3 -4e-3z"/>
  <path d="m120.35 156.01 0.06 0.065 0.085 0.102 0.106 0.133 0.118 0.148 0.038 0.049 0.145 0.19 0.107 0.143 0.072 0.11 0.042 0.073 7e-3 0.045-0.015 0.02-0.02 3e-3 -0.03-0.023-0.057-0.068-0.087-0.098-0.103-0.125-0.118-0.148-4e-3 -4e-3 -0.114-0.148-0.107-0.125-0.084-0.107-0.057-0.068-0.027-0.026-0.03 0.019-0.073 0.049-0.106 0.08-0.13 0.098-0.152 0.117-0.168 0.13-0.167 0.128-0.168 0.133-0.156 0.125-0.137 0.11-0.115 0.091-0.08 0.069-0.038 0.037-4e-3 4e-3 0.016 0.03 0.053 0.073 0.08 0.098 0.103 0.122 0.06 0.072 0.123 0.14 0.091 0.099 0.065 0.064 0.046 0.034 0.038 0.016h0.038l0.027-4e-3h0.13l0.106 0.049 0.076 0.083 0.042 0.103 4e-3 0.11-0.035 0.106-0.083 0.087-0.05 0.03-0.122 0.042-0.099-4e-3 -0.095-0.06-0.023-0.02-0.08-0.11-0.015-0.068h0.11l0.039 0.072 0.068 0.053 0.084 0.02 0.087-0.027 0.035-0.027 0.05-0.08 3e-3 -0.09-0.038-0.088-0.068-0.057-0.069-0.012-0.076 0.023-0.06 0.038-0.054 0.087v0.087h-0.11l-0.013-0.068 0.027-0.121v-0.034l-0.02-0.05-0.04-0.068-0.077-0.095-0.114-0.132-0.042-0.05-0.11-0.125-0.1-0.106-0.08-0.08-0.05-0.045-0.011-4e-3 -0.034 0.019-0.073 0.05-0.099 0.071-0.118 0.084-0.118 0.09-0.11 0.092-0.092 0.076-0.065 0.053-0.019 0.026 0.015 0.03 0.054 0.073 0.084 0.106 0.106 0.136 0.183 0.228 0.18 0.216 0.14 0.163 0.11 0.113 0.073 0.065 0.023 0.012 0.06 4e-3 0.062-0.034 0.065-0.06 0.076-0.073 0.072-0.03 0.095-7e-3 0.115 0.012 0.076 0.037 0.019 0.023 0.076 0.114 0.02 0.125-0.035 0.114-0.072 0.095-0.111 0.06-0.118 0.02-0.11-0.027-0.096-0.069-0.06-0.09-5e-3 -0.016-0.03-0.057-0.057-0.026-0.054-4e-3 -0.038-7e-3 -0.038-0.015-0.026-0.016h0.354l0.015 0.08 0.053 0.072 0.077 0.042 0.083 7e-3 0.084-0.038 0.015-0.012 0.035-0.069 0.015-0.075-0.027-0.091-0.064-0.061-0.088-0.023-0.092 0.02-0.068 0.06-0.038 0.087h-0.354l-0.02-0.012-0.053-0.05-0.072-0.079-0.092-0.106-0.126-0.148-0.114-0.136-0.133-0.163-0.118-0.144-0.1-0.121-0.076-0.091-0.045-0.05-7e-3 -0.012-0.035 7e-3 -0.064 0.038-0.084 0.06-0.084 0.065-0.076 0.065-0.05 0.05-7e-3 0.018 0.02 0.03 0.056 0.072 0.092 0.114 0.114 0.144 0.141 0.175 0.16 0.197 0.172 0.216 0.122 0.152 0.872 1.073 0.625-0.512v-0.11h0.133l0.042 0.083 0.023 0.02 0.095 0.04 0.087-0.022 0.077-0.072 0.042-0.068 4e-3 -0.05-0.03-0.056-0.07-0.069-0.091-0.03-0.091 0.015-0.042 0.03-0.046 0.084v0.095h-0.134v-0.038l7e-3 -0.103 0.027-0.068 0.057-0.06 4e-3 -4e-3 0.126-0.069 0.125-0.012 0.118 0.053 0.046 0.038 0.069 0.11 0.026 0.13-0.026 0.12-0.023 0.046-0.088 0.072-0.114 0.042h-0.118l-0.027-0.012-0.072-0.023-0.042-7e-3 -0.03 0.02-0.073 0.049-0.091 0.068-0.222 0.174-0.102 0.08-0.08 0.068-0.02 0.015 8e-3 0.034 0.041 0.065 0.061 0.087 0.076 0.095 0.077 0.091 0.068 0.076 0.05 0.045 0.019 4e-3 0.03-0.019 0.076-0.057 0.11-0.079 0.142-0.106 0.164-0.125 0.183-0.14 4e-3 -5e-3 0.205-0.155 0.156-0.121 0.122-0.095 0.084-0.076 0.057-0.053 0.035-0.042 0.019-0.034 4e-3 -0.034v-0.012l-0.012-0.08-0.05-0.037-4e-3 -4e-3 -0.072-0.05-0.05-0.095-0.026-0.113h0.118l0.026 0.087 0.027 0.038 0.08 0.049h0.095l0.084-0.042 0.02-0.022 0.045-0.099-0.015-0.09-0.042-0.058-0.088-0.049-0.087-4e-3 -0.076 0.038-0.05 0.064-0.02 0.088h-0.117l4e-3 -0.088 0.042-0.106 0.084-0.068 0.13-0.057 0.121 7e-3 0.114 0.068 0.012 0.012 0.069 0.076 0.03 0.076 4e-3 0.064-0.026 0.137-0.08 0.106-0.088 0.05-0.053 0.049-0.03 0.098v4e-3l-0.013 0.038-0.015 0.038-0.027 0.038-0.046 0.049-0.068 0.064-0.1 0.084-0.136 0.106-0.175 0.137-0.141 0.11-0.183 0.14-0.164 0.129-0.141 0.114-0.11 0.09-0.073 0.061-0.027 0.03 0.02 0.046 0.053 0.072 0.068 0.084 0.073 0.08 0.068 0.06 0.046 0.034h7e-3l0.034-0.023 0.077-0.053 0.114-0.083 0.152-0.11 0.176-0.133 0.201-0.148 0.218-0.16 0.224-0.166 0.236-0.174 0.233-0.175 0.228-0.17 0.218-0.164 0.198-0.147 0.179-0.137 0.148-0.114 0.118-0.087 0.08-0.064 0.035-0.027-0.02-0.03-0.053-0.068-0.08-0.11-0.106-0.137-0.126-0.16-0.137-0.174-0.168-0.216-0.133-0.17-0.095-0.13-0.065-0.098-0.034-0.068-0.012-0.045 7e-3 -0.027 0.022-7e-3 0.027 0.019 0.057 0.064 0.088 0.103 0.103 0.125 0.118 0.148 0.13 0.163 0.129 0.163 0.125 0.163 0.119 0.155 0.099 0.133 0.08 0.11 0.049 0.076 0.02 0.034-0.028 0.023-0.068 0.06-0.11 0.088-0.145 0.11-0.176 0.136-0.201 0.152-0.218 0.163-0.228 0.174-0.24 0.182-0.244 0.178-0.236 0.182-0.233 0.17-0.217 0.16-0.198 0.148-0.171 0.125-0.145 0.103-0.11 0.08-0.069 0.045-0.023 0.012-0.023-0.023-0.06-0.072-0.092-0.11-0.122-0.148-0.152-0.178-0.172-0.213-0.194-0.235-0.213-0.257-0.221-0.273-0.153-0.186-0.232-0.285-0.217-0.273-0.206-0.25-0.187-0.231-0.16-0.205-0.14-0.174-0.111-0.14-0.076-0.103-0.046-0.06-7e-3 -0.016 0.027-0.022 0.068-0.061 0.107-0.091 0.145-0.114 0.171-0.14 0.194-0.16 0.217-0.17 0.229-0.182 0.236-0.186 0.236-0.19 0.24-0.185 0.229-0.182 0.217-0.167 0.373-0.292 0.149-0.114 0.114-0.083 0.073-0.057 0.034-0.019zm-5.99 7.02h-0.697v-0.224h0.697zm12.29-0.73 0.149 0.027 0.106 0.053 0.084 0.08 0.061 0.102 0.057 0.163 0.02 0.19-0.016 0.189-0.054 0.167-7e-3 0.015-0.068 0.106-0.08 0.072-0.107 0.046-0.144 0.022-0.195 7e-3h-0.167l-0.103-7e-3 -0.073-0.015-0.06-0.026-0.043-0.027-0.106-0.095-0.073-0.121-0.034-0.16-4e-3 -0.178h0.217l0.015 0.182 0.039 0.125 0.068 0.08 0.076 0.03 0.141 0.016h0.153l0.137-0.016 0.084-0.022 0.083-0.046 0.054-0.064 0.03-0.095 7e-3 -0.137 4e-3 -0.053-4e-3 -0.125-0.015-0.083-0.027-0.061-0.034-0.038-0.038-0.042-0.042-0.026-0.057-0.015-0.092-4e-3 -0.133-4e-3 -0.137 4e-3 -0.095 7e-3 -0.061 0.015-0.046 0.026-0.027 0.023-0.041 0.046-0.027 0.053-0.012 0.072-4e-3 0.114v0.038h-0.217v-0.039l0.012-0.144 0.015-0.102 0.03-0.073 0.027-0.049 0.08-0.09 0.092-0.065 0.114-0.038 0.156-0.015 0.137-4e-3zm-2.1 0.51h0.792v-0.504h0.225v1.232h-0.225v-0.504h-0.792v0.504h-0.22v-1.232h0.22zm-1.55-0.47 0.099 0.087 0.137 0.133 0.149 0.152 0.137 0.136 0.122 0.117 0.095 0.099 0.069 0.064 0.034 0.03 4e-3 -0.03 4e-3 -0.079 4e-3 -0.121v-0.152l4e-3 -0.042v-0.428h0.19l-7e-3 0.61-4e-3 0.24-7e-3 0.177-0.015 0.122-0.03 0.064-0.046 0.012-0.076-0.041-0.1-0.095-0.14-0.14-0.134-0.14-0.13-0.137-0.114-0.118-0.095-0.09-0.064-0.061-0.03-0.023-8e-3 0.03-7e-3 0.08-4e-3 0.121-4e-3 0.152v0.47h-0.19v-0.842l4e-3 -0.182 0.012-0.129 0.026-0.068 0.046-0.015zm-0.45 1.2h-0.221v-1.232h0.221zm-1.59-1.24 0.038 0.023 0.061 0.049 0.08 0.076 0.11 0.114 0.15 0.151 0.011 0.012 0.438 0.451v-0.432l4e-3 -0.436h0.221l-7e-3 0.61-4e-3 0.236-7e-3 0.178-0.015 0.121-0.027 0.068-0.05 0.016-0.072-0.038-0.103-0.087-0.133-0.133-0.168-0.17-0.426-0.437v0.436l-4e-3 0.432h-0.221v-0.963l4e-3 -0.106 7e-3 -0.072 0.012-0.045 0.015-0.027 0.023-0.015 7e-3 -7e-3 0.026-7e-3zm-0.38 1.24h-0.22v-1.232h0.22zm-0.81-1.24 0.152 4e-3 0.103 7e-3 0.069 0.012 0.038 0.015 7e-3 7e-3 0.015 0.023 7e-3 0.026-0.012 0.034-0.034 0.054-0.057 0.072-0.092 0.102-0.122 0.14-0.076 0.084-0.118 0.133-0.103 0.113-0.08 0.091-0.046 0.057-0.011 0.02 0.03 6e-3 0.08 4e-3 0.118 4e-3 0.137 4e-3h0.366v0.22h-0.743l-0.164-7e-3 -0.107-0.012-0.057-0.015-4e-3 -4e-3 -0.034-0.053-4e-3 -0.023 0.02-0.038 0.056-0.072 0.088-0.102 0.106-0.125 0.111-0.125 0.377-0.417-0.758-0.02v-0.22h0.533zm-2.04-0.01 0.065 0.06 0.095 0.095 0.122 0.114 0.133 0.137 0.023 0.026 0.446 0.448v-0.433l4e-3 -0.436h0.22v0.751l-3e-3 0.167-4e-3 0.136-7e-3 0.091-4e-3 0.038-0.027 0.042-0.042 0.012-0.06-0.023-0.084-0.057-0.111-0.102-0.145-0.144-0.099-0.103-0.13-0.136-0.114-0.118-0.095-0.09-0.065-0.061-0.03-0.023-7e-3 0.03-0.012 0.08-4e-3 0.121-4e-3 0.152v0.47h-0.19v-0.819l4e-3 -0.17 7e-3 -0.122 0.015-0.08 0.019-0.045 0.03-0.023 0.023-4e-3zm-0.53 0.02 0.076 0.015 0.023 0.012 0.015 0.023 0.016 0.05 7e-3 0.083 4e-3 0.121 4e-3 0.17v0.751h-0.221v-0.314h-0.793v0.314h-0.224v-0.383l7e-3 -0.223 4e-3 -0.05h0.213v0.118h0.792v-0.474h-0.255l-0.21 0.015-0.156 0.046-0.103 0.076-0.057 0.11-0.012 0.11h-0.213l0.015-0.122 0.038-0.132 0.061-0.103 0.088-0.083 0.05-0.035 0.06-0.037 0.061-0.027 0.073-0.015 0.099-7e-3 0.144-7e-3 0.069-4e-3h0.19zm-1.78-0.01 0.133 4e-3 0.096 4e-3 0.064 0.012 0.042 0.015 0.03 0.023 0.027 0.022 0.046 0.05 0.023 0.05 7e-3 0.071-4e-3 0.11-4e-3 0.027-7e-3 0.117-0.015 0.08-0.03 0.057-0.054 0.053-7e-3 7e-3 -0.088 0.06-0.091 0.046-0.115 0.023 0.137 0.114 0.19 0.167 0.039 0.034 0.095 0.087h-0.16l-0.076-4e-3 -0.061-0.012-0.065-0.03-0.076-0.057-0.107-0.087-0.015-0.015-0.148-0.118-0.107-0.068-0.069-0.02-0.057-6e-3 -0.022-0.038-4e-3 -0.065v-0.113h0.3l0.164-4e-3 0.115-0.016 0.068-0.03 0.038-0.057 0.012-0.087 4e-3 -0.046v-0.14h-0.796v1.012h-0.22v-0.811l6e-3 -0.174 7e-3 -0.118 0.012-0.072 0.012-0.019 0.042-0.015 0.095-0.012 0.153-7e-3 0.21-4e-3h0.041z"/>
  <path d="m114.46 162.52h-0.888v1.012h-0.224v-0.576l4e-3 -0.235 4e-3 -0.174 7e-3 -0.118 0.015-0.072 7e-3 -0.019 0.042-0.015 0.095-0.012 0.149-7e-3 0.21-4e-3h0.578z"/>
 </g>
 <g transform="translate(-77.817,-118.84)" fill="none" stroke-linecap="round" stroke-linejoin="round">
  <g fill-opacity="0" stroke="#fff" stroke-width="60">
   <path transform="matrix(.0038 0 0 .0038 74.516 117)" d="m13883 9311h90l45 22 45 45 23 90v158l-23 90-45 45-45 22h-90l-45-22-45-45-22-90v-158l22-90 45-45 45-22m405 472v-472l270 472v-472m-3912-743v-393h94l56 18 37 38 19 37 19 75v57l-19 75-19 37-37 38-56 18h-94m375-356 19-19 37-18h94l37 18 19 19 19 38v37l-19 56-225 225h244m-520-3700v-393h94l56 18 37 38 19 37 19 75v57l-19 75-19 37-37 38-56 18h-94m600 0h-225m112 0v-393l-37 56-38 37-37 19m2207-235-19 18-56 19h-37l-57-19-37-37-19-38-19-75v-56l19-75 19-37 37-38 57-19h37l56 19 19 19m375 356h-225m113 0v-394l-38 57-37 37-38 19m-2377 2103-157-225m-113 225v-473h180l45 23 23 22 22 45v68l-22 45-23 22-45 23h-180m720 225h-270m135 0v-473l-45 68-45 45-45 22m-180 1538-157-225m-113 225v-473h180l45 23 23 22 22 45v68l-22 45-23 22-45 23h-180m450-203 23-22 45-23h112l45 23 23 22 22 45v45l-22 68-270 270h292m-450 2400-157-225m-113 225v-473h180l45 23 23 22 22 45v68l-22 45-23 22-45 23h-180m428-248h292l-157 180h67l45 23 23 22 22 45v113l-22 45-23 22-45 23h-135l-45-23-22-22m4637 17h-225v-472m382 225h158m67 247h-225v-472h225m203 472v-472h112l68 22 45 45 22 45 23 90v68l-23 90-22 45-45 45-68 22h-112m-651-2871-225 158m225 112h-473v-180l23-45 22-22 45-23h68l45 23 22 22 23 45v180m-248-697v225l225 22-22-22-23-45v-113l23-45 22-22 45-23h113l45 23 22 22 23 45v113l-23 45-22 22m-4872-2977v-394h93l57 19 37 37 19 38 19 75v56l-19 75-19 37-37 38-57 19h-93m356-394h243l-131 150h57l37 19 19 18 18 38v94l-18 37-19 19-37 19h-113l-37-19-19-19m3301 3115-225 158m225 112h-473v-180l23-45 22-22 45-23h68l45 23 22 22 23 45v180m-90-675h315m-495 113 337 112v-292m2460-5145v281l-19 56-37 38-56 18h-38m544 0h-225m112 0v-393l-37 56-38 37-37 19m6211 1410-226 158m226 113h-475v-181l23-45 22-23 46-22h68l45 22 22 23 23 45v181m-23-475v-158m249-68v226h-475v-226m453-181 22-68v-113l-22-45-23-23-45-22h-45l-46 22-22 23-23 45-23 91-22 45-23 22-45 23h-45l-46-23-22-22-23-45v-114l23-67m203-204v-158m249-68v226h-475v-226m0-136v-271m475 135h-475"/>
  </g>
  <g fill-opacity="0" stroke="#fff" stroke-width="59.055">
   <path transform="matrix(.0038 0 0 .0038 74.516 117)" d="m9980 2378v319l19 37 18 19 38 19h75l37-19 19-19 19-37v-319m394 394h-225m112 0v-394l-37 56-38 38-37 18m10504 4348h-394m356-413 19 19 19 56v38l-19 56-37 38-38 18-75 19h-56l-75-19-38-18-37-38-19-56v-38l19-56 19-19m356-375v225m0-112h-394l56 37 38 38 19 37m-3303-701-19 19-56 19h-37l-57-19-37-38-19-37-19-75v-56l19-75 19-38 37-37 57-19h37l56 19 19 18m150 0 19-18 37-19h94l38 19 18 18 19 38v37l-19 57-225 225h244"/>
  </g>
  <g stroke="#2c8240" stroke-width="59.06">
   <path transform="matrix(.0038 0 0 .0038 74.516 117)" d="m5872 12385h20105v-11823h-20105v11823"/>
  </g>
 </g>
 <g transform="translate(-77.817,-118.84)" fill="none">
  <path d="m109.01 152.72h0.38v0.377h-0.38zm15.511 0h0.379v0.377h-0.38z"/>
  <g stroke="#8c8c8c" stroke-width=".739">
   <path transform="matrix(1.4924,0,0,1.4854,-15.28,-78.248)" d="m83.527 155.86h0.37m9.792 0h-0.37" stroke-linecap="round"/>
   <path transform="matrix(1.4924,0,0,1.4854,-15.28,-78.248)" d="m83.527 155.86h10.007"/>
  </g>
 </g>
 <g transform="matrix(1.4924 0 0 1.4854 -93.097 -197.09)" stroke-width=".254">
  <path d="m86.773 154.75a1.384 1.384 0 0 0-0.485-0.104h-0.701a0.255 0.255 0 0 0-0.254 0.254v1.89c0 0.14 0.114 0.253 0.254 0.253h0.7c0.14 0 0.359-0.048 0.486-0.104l0.025-0.012c0.127-0.059 0.346-0.104 0.486-0.104h2.534c0.14 0 0.358 0.048 0.485 0.104l0.026 0.012c0.127 0.059 0.345 0.104 0.485 0.104h0.701c0.14 0 0.254-0.114 0.254-0.254v-1.89a0.254 0.254 0 0 0-0.254-0.253h-0.7c-0.141 0-0.359 0.048-0.486 0.104l-0.026 0.013a1.382 1.382 0 0 1-0.485 0.104h-2.534c-0.14 0-0.359-0.048-0.486-0.104z" fill="#d9b477"/>
  <path d="m90.925 154.65h0.248v2.397h-0.248z" fill="#ad9f4e"/>
  <path d="m88.863 154.87h0.653v1.953h-0.653z" fill="#c40808"/>
  <path d="m87.557 154.87h0.653v1.953h-0.653z" fill="#008000"/>
  <path d="m86.907 154.81a0.768 0.768 0 0 1-0.11-0.04l-0.025-0.013a1.389 1.389 0 0 0-0.485-0.104h-0.03v2.397h0.03c0.14 0 0.358-0.048 0.485-0.104l0.026-0.013a0.682 0.682 0 0 1 0.109-0.04z" fill="#8a3d06"/>
  <path d="m91.522 156.02c0 0.134-0.046 0.247-0.104 0.247h-0.678c-0.134 0-0.345-0.02-0.47-0.044l-0.026-6e-3a3.092 3.092 0 0 0-0.47-0.043h-2.451c-0.135 0-0.346 0.02-0.47 0.043l-0.025 5e-3a3.045 3.045 0 0 1-0.47 0.044h-0.574c-0.135 0-0.247 0.103-0.247 0.227v0.204c0 0.127 0.112 0.228 0.247 0.228h0.571c0.135 0 0.346-0.043 0.47-0.094l0.025-0.01a1.5 1.5 0 0 1 0.47-0.094h2.45c0.135 0 0.346 0.044 0.472 0.094l0.026 0.01c0.121 0.051 0.333 0.094 0.47 0.094h0.785c0.134 0 0.247-0.104 0.247-0.227v-1.185c-0.098 0.038-0.248 0.145-0.248 0.506z" opacity=".3"/>
  <path d="m90.925 155.81h0.248v1.112h-0.248z" opacity=".4"/>
  <path d="m90.125 154.96a0.657 0.657 0 0 0 0.234-0.061c0.07-0.028 0.203-0.05 0.34-0.05h0.516c0.08 0 0.08 0.086 0.08 0.131 0 0.046-6e-3 0.135-0.08 0.135h-1.08c-0.037 0-0.08-0.04-0.08-0.08 1e-3 -0.03 0.027-0.075 0.07-0.075z" fill="#fff" opacity=".25"/>
  <circle cx="85.627" cy="154.98" r=".152" fill="#fff" opacity=".35"/>
  <path d="m90.925 154.73h0.248v0.572h-0.248z" fill="#ff3" opacity=".5"/>
  <path d="m90.925 154.86h0.248v0.264h-0.248z" fill="#fff" opacity=".5"/>
 </g>
 <path d="m56.809 12.094c0.33296-0.8986-2.6336-1.7315-4.2294-1.6241-1.4173 0.09404-4.3854 0.91055-3.3191 1.9136 1.8163 1.7121 6.9051 1.4434 7.5485-0.28958z" fill="#f60" stroke="#f60" stroke-width=".33516"/>
 <path d="m54.721 11.243c0.15448-0.3075-1.2148-0.5926-1.9497-0.55678-0.65541 0.03284-2.0247 0.31197-1.5328 0.65679 0.83989 0.58514 3.1856 0.49408 3.4825-0.10001z" stroke="#000" stroke-width=".13317"/>
 <g transform="matrix(1.4924 0 0 1.4854 -95.668 -194.24)">
  <path d="m97.443 155.73a1.536 1.582 0 0 0-0.61 1.26 1.536 1.582 0 0 0 1.536 1.582 1.536 1.582 0 0 0 1.535-1.581 1.536 1.582 0 0 0-0.612-1.261z" fill="#00d300" opacity=".94" stroke="#00d200" stroke-width=".265"/>
  <circle cx="98.363" cy="157.05" r="1.204" fill="#0f0" opacity=".94" stroke="#0f0" stroke-width=".292"/>
  <path d="m98.206 157.84a0.89 0.89 0 0 0 0.386 7e-3l0.073 0.355c-0.08 0.016-0.165 0.025-0.25 0.025a1.82 1.82 0 0 1-0.32-0.036zm-0.357 0.251a1.244 1.244 0 0 1-0.655-1.352l0.354 0.08a0.882 0.882 0 0 0 0.439 0.935z" fill="#fff" opacity=".6"/>
 </g>
 <g transform="matrix(1.4924,0,0,1.4854,-95.564,-194.12)">
  <path d="m102.44 155.76a1.536 1.582 0 0 0-0.61 1.26 1.536 1.582 0 0 0 1.536 1.582 1.536 1.582 0 0 0 1.535-1.581 1.536 1.582 0 0 0-0.612-1.261z" fill="#dbdb00" opacity=".94" stroke="#dcdc00" stroke-width=".265"/>
  <circle cx="103.36" cy="157.09" r="1.204" fill="#ff0" opacity=".94" stroke="#ff0" stroke-width=".292"/>
  <path d="m103.2 157.88a0.89 0.89 0 0 0 0.386 7e-3l0.073 0.355c-0.08 0.016-0.165 0.025-0.25 0.025a1.82 1.82 0 0 1-0.32-0.036zm-0.357 0.251a1.244 1.244 0 0 1-0.655-1.352l0.354 0.08a0.882 0.882 0 0 0 0.439 0.935z" fill="#fff" opacity=".6"/>
 </g>
 <g transform="matrix(.36768 0 0 .38632 84.453 -37.5)" stroke-width=".696">
  <ellipse cx="-115.08" cy="107.58" rx="10.243" ry="9.565" fill="#1a1a1a"/>
  <path d="m-125.26 107.73h20.319v9.373h-20.319z"/>
  <ellipse cx="-115.33" cy="110.02" rx="9.36" ry="4.707"/>
 </g>
 <g transform="translate(-77.817,-118.84)" stroke-width=".802">
  <path d="m130.02 123.17v-2.31l-0.89-0.887h-2.32l-0.89 0.887v2.31l0.89 0.886h2.32z"/>
  <path d="m127.32 121.37h1.308v1.304h-1.308z" fill="#8d8c8c"/>
  <path d="m127.63 121.68h0.673v0.671h-0.673z" fill="#8c8663"/>
  <path d="m127.63 121.68h0.672l0.318-0.316h-1.308z" fill="#b8af82"/>
  <path d="m128.31 121.68 0.318-0.316v1.304l-0.318-0.317z" fill="#80795b"/>
  <path d="m128.31 122.35 0.318 0.317h-1.308l0.318-0.317z" fill="#5e5b43"/>
  <path d="m127.63 121.68v0.67l-0.318 0.318v-1.304z" fill="#9a916c"/>
  <path d="m130.9 119.98-0.89 0.887v2.31l0.89 0.886h2.32l0.891-0.886v-2.31l-0.89-0.887z"/>
  <path d="m131.4 121.37h1.309v1.304h-1.309z" fill="#8d8c8c"/>
  <path d="m131.72 121.68h0.674v0.671h-0.673z" fill="#8c8663"/>
  <path d="m131.4 121.37 0.318 0.316h0.673l0.318-0.316z" fill="#b8af82"/>
  <path d="m132.39 122.35v-0.67l0.318-0.317v1.304z" fill="#80795b"/>
  <path d="m131.72 122.35h0.674l0.318 0.317h-1.309z" fill="#5e5b43"/>
  <path d="m131.4 121.37 0.318 0.316v0.67l-0.318 0.318z" fill="#9a916c"/>
  <path d="m134.92 119.98-0.89 0.887v2.31l0.89 0.886h2.32l0.891-0.886v-2.31l-0.89-0.887z"/>
  <path d="m135.42 121.37h1.309v1.304h-1.309z" fill="#8d8c8c"/>
  <path d="m135.74 121.68h0.673v0.671h-0.673z" fill="#8c8663"/>
  <path d="m135.42 121.37 0.318 0.316h0.673l0.318-0.316z" fill="#b8af82"/>
  <path d="m136.42 122.35v-0.67l0.318-0.317v1.304z" fill="#80795b"/>
  <path d="m135.74 122.35h0.673l0.318 0.317h-1.309z" fill="#5e5b43"/>
  <path d="m135.42 121.37 0.318 0.316v0.67l-0.318 0.318z" fill="#9a916c"/>
 </g>
 <g transform="translate(-77.817,-118.84)" stroke-width=".941">
  <g fill="none">
   <path d="m166.55 126.63v1.514h-1.594v-1.513z"/>
   <path d="m166.4 126.8v1.173h-1.293v-1.174zm0.15 3.746v1.513h-1.594v-1.513z"/>
   <path d="m166.4 130.71v1.174h-1.293v-1.174zm0.15 3.747v1.513h-1.594v-1.513z"/>
   <path d="m166.4 134.63v1.173h-1.293v-1.173zm0.15 3.746v1.513h-1.594v-1.513z"/>
   <path d="m166.4 138.54v1.173h-1.293v-1.173zm0.15 3.746v1.513h-1.594v-1.513z"/>
   <path d="m166.4 142.46v1.173h-1.293v-1.173zm0.15 3.746v1.514h-1.594v-1.514z"/>
   <path d="m166.4 146.38v1.173h-1.293v-1.173zm0.15 3.746v1.514h-1.594v-1.514z"/>
   <path d="m166.4 150.29v1.173h-1.293v-1.173zm0.15 3.746v1.514h-1.594v-1.514z"/>
   <path d="m166.4 154.2v1.173h-1.293v-1.173z"/>
  </g>
  <path d="m167.82 125.43v31.32h-4.125v-31.32z" fill="#404040"/>
  <path d="m166.55 126.63v1.512h-1.593v-1.512z"/>
  <path d="m166.55 126.63v1.514l0.588 0.558v-2.628z" fill="#2a2a29"/>
  <path d="m166.55 128.14h-1.594l-0.586 0.558h2.769z" fill="#474747"/>
  <path d="m164.96 128.14v-1.513l-0.586-0.557v2.627z" fill="#595959"/>
  <path d="m164.96 126.63h1.594l0.588-0.557h-2.77z" fill="#373737"/>
  <path d="m166.55 130.55v1.512h-1.593v-1.512z"/>
  <path d="m166.55 130.55v1.513l0.588 0.558v-2.628z" fill="#2a2a29"/>
  <path d="m166.55 132.06h-1.594l-0.586 0.557h2.769z" fill="#474747"/>
  <path d="m164.96 132.06v-1.513l-0.586-0.557v2.627z" fill="#595959"/>
  <path d="m164.96 130.55h1.594l0.588-0.558h-2.77z" fill="#373737"/>
  <path d="m166.55 134.46v1.512h-1.593v-1.512z"/>
  <path d="m166.55 134.46v1.513l0.588 0.558v-2.628z" fill="#2a2a29"/>
  <path d="m166.55 135.97h-1.594l-0.586 0.558h2.769z" fill="#474747"/>
  <path d="m164.96 135.97v-1.513l-0.586-0.557v2.627z" fill="#595959"/>
  <path d="m164.96 134.46h1.594l0.588-0.558h-2.77z" fill="#373737"/>
  <path d="m166.55 138.38v1.512h-1.593v-1.512z"/>
  <path d="m166.55 138.38v1.513l0.588 0.558v-2.628z" fill="#2a2a29"/>
  <path d="m166.55 139.89h-1.594l-0.586 0.557h2.769z" fill="#474747"/>
  <path d="m164.96 139.89v-1.513l-0.586-0.557v2.627z" fill="#595959"/>
  <path d="m164.96 138.38h1.594l0.588-0.558h-2.77z" fill="#373737"/>
  <path d="m166.55 142.29v1.512h-1.593v-1.512z"/>
  <path d="m166.55 142.29v1.513l0.588 0.558v-2.628z" fill="#2a2a29"/>
  <path d="m166.55 143.8h-1.594l-0.586 0.558h2.769z" fill="#474747"/>
  <path d="m164.96 143.8v-1.513l-0.586-0.557v2.627z" fill="#595959"/>
  <path d="m164.96 142.29h1.594l0.588-0.558h-2.77z" fill="#373737"/>
  <path d="m166.55 146.21v1.513h-1.593v-1.513z"/>
  <path d="m166.55 146.21v1.514l0.588 0.557v-2.628z" fill="#2a2a29"/>
  <path d="m166.55 147.72h-1.594l-0.586 0.557h2.769z" fill="#474747"/>
  <path d="m164.96 147.72v-1.513l-0.586-0.557v2.627z" fill="#595959"/>
  <path d="m164.96 146.21h1.594l0.588-0.558h-2.77z" fill="#373737"/>
  <path d="m166.55 150.12v1.513h-1.593v-1.513z"/>
  <path d="m166.55 150.12v1.514l0.588 0.557v-2.628z" fill="#2a2a29"/>
  <path d="m166.55 151.64h-1.594l-0.586 0.557h2.769z" fill="#474747"/>
  <path d="m164.96 151.63v-1.513l-0.586-0.557v2.627z" fill="#595959"/>
  <path d="m164.96 150.12h1.594l0.588-0.558h-2.77z" fill="#373737"/>
  <path d="m166.55 154.04v1.513h-1.593v-1.513z"/>
  <path d="m166.55 154.04v1.514l0.588 0.557v-2.627z" fill="#2a2a29"/>
  <path d="m166.55 155.55h-1.594l-0.586 0.557h2.769z" fill="#474747"/>
  <path d="m164.96 155.55v-1.514l-0.586-0.556v2.626z" fill="#595959"/>
  <path d="m164.96 154.04h1.594l0.588-0.558h-2.77z" fill="#373737"/>
 </g>
 <g transform="translate(-77.817,-118.84)" stroke-width="1.164">
  <g fill="#ccc">
   <path d="m101.79 135.53h1.475l0.223 0.88h1.8v0.52h-3.513z"/>
   <path d="m101.79 137.82h1.475l0.223-0.886h1.798v-0.523h-3.51z"/>
   <path d="m101.79 145.49h1.475l0.223 0.88h1.8v0.52h-3.513z"/>
   <path d="m101.79 147.58h1.474l0.223-0.885h1.799v-0.524h-3.511zm0-8.835h1.475l0.223 0.88h1.8v0.52h-3.513z"/>
   <path d="m101.79 140.83h1.474l0.223-0.885h1.799v-0.524h-3.511z"/>
   <path d="m101.79 142.16h1.475l0.223 0.88h1.8v0.52h-3.513z"/>
   <path d="m101.79 144.24h1.474l0.223-0.885h1.799v-0.524h-3.511z"/>
  </g>
  <path d="m77.822 133.96h24.014v15.307h-24.014z" fill="#808080"/>
  <path d="m77.82 133.96h22.71v13.942h-22.71z" fill="#ccc"/>
  <g fill="#999">
   <path d="m81.754 135.71h2.198v3.046h-2.198zm0 7.886h2.198v3.046h-2.198zm13.564-2.783h1.06v1.293h-1.06z"/>
  </g>
 </g>
 <g transform="matrix(-.53735 0 0 -.51574 82.783 28.51)">
  <g fill="#8c8c8c">
   <path d="m2.521 20.643h2.16v3.125h-2.16zm7.2 0h2.16v3.125h-2.16zm7.199 0h2.16v3.125h-2.16zm7.201 0h2.158v3.125h-2.158zm0-20.635h2.158v3.125h-2.158zm-7.201 0h2.16v3.125h-2.16zm-7.199 0h2.16v3.125h-2.16zm-7.2 0h2.16v3.125h-2.16z"/>
   <path d="m2.521 21.607h2.16v2.16h-2.16zm7.2 0h2.16v2.16h-2.16zm7.199 0h2.16v2.16h-2.16zm7.201 0h2.158v2.16h-2.158zm0-21.599h2.158v2.16h-2.158zm-7.201 0h2.16v2.16h-2.16zm-7.199 0h2.16v2.16h-2.16zm-7.2 0h2.16v2.16h-2.16z"/>
   <path d="m2.521 18.958h2.16v4.81h-2.16zm7.2 0h2.16v4.81h-2.16zm7.199 0h2.16v4.81h-2.16zm7.201 0h2.158v4.81h-2.158zm-21.6-18.95h2.16v4.81h-2.16zm7.2 0h2.16v4.81h-2.16zm7.199 0h2.16v4.81h-2.16zm7.201 0h2.158v4.81h-2.158z"/>
  </g>
  <path d="m0 2.168h28.801l-0.541 6.119h-28.26z" fill="#3d3d3d"/>
  <path d="m0 15.487h28.26l0.541 6.12h-28.801z"/>
  <g fill="#8c8c8c">
   <path d="m2.521 1.692v1.441h3.6v-0.779l-1.44-0.662zm9.359 0h-2.159l-1.441 0.662v0.779h5.04v-0.779zm10.802 0.662v0.779h3.597v-1.441h-2.158zm-3.602-0.662h-2.16l-1.44 0.662v0.779h5.041v-0.779zm-12.959 19.728v-0.777h-3.6v1.44h2.16zm20.158 0.663v-1.44h-3.597v0.777l1.439 0.663zm-16.558 0h2.159l1.44-0.663v-0.777h-5.04v0.777zm7.199 0h2.16l1.441-0.663v-0.777h-5.041v0.777z"/>
  </g>
  <path d="m27.255 3.938v15.891l1.005 7e-3 0.541 1.771v-19.439l-0.541 1.77z" fill="#141414"/>
  <path d="m0 2.168 0.541 1.77v4.349h3.06v7.2h-3.06v4.349l-0.541 1.771z" fill="#1f1f1f"/>
  <path d="m0.404 11.88h3.197v-3.593l-3.06-0.028-0.137 1.526z" fill="#1c1c1c"/>
  <path d="m0.404 11.88v2.11l0.137 1.533h3.06v-3.643z" fill="#383838"/>
  <path d="m0.541 3.938v4.313a3.697 3.697 0 0 1 3.017 3.628 3.702 3.702 0 0 1-3.017 3.637v4.313h27.719v-15.891z" fill="#303030"/>
  <path d="m0.404 9.785v4.195a2.116 2.116 0 0 0 1.886-2.1 2.107 2.107 0 0 0-1.886-2.095z" fill="#262626"/>
  <circle cx="4.681" cy="16.906" r="1.483" fill="#212121"/>
  <g fill="#8c8c8c">
   <path d="m26.27 3.177h-2.158v-3.178h2.159zm-7.193 0h-2.159v-3.178h2.16zm-7.2 0h-2.159v-3.178h2.16zm-7.199 0h-2.16v-3.178h2.16zm18.001 17.492v0.777l1.438 0.661h2.16v-1.437z"/>
   <path d="m26.27 3.177v-1.439h-2.158l-1.439 0.661v0.778zm-20.154 0v-0.778l-1.438-0.66h-2.16v1.438zm9.363-0.777v0.777h5.037v-0.778l-1.439-0.66h-2.159zm-7.199 0v0.777h5.036v-0.778l-1.439-0.66h-2.159zm-5.761 18.27v1.438h2.159l1.438-0.662v-0.776zm20.16-1e-3v0.777l1.438 0.661h2.16v-1.437zm-9.363 0.777v-0.776h-5.036v0.776l1.439 0.662h2.158zm7.2 0v-0.776h-5.037v0.776l1.439 0.662h2.16z"/>
  </g>
  <g fill="#f2f2f2" aria-label="attiny85">
   <path d="m24.814 16.091q0.463 0 0.641-0.106 0.179-0.105 0.179-0.36 0-0.204-0.133-0.324-0.135-0.118-0.365-0.118-0.318 0-0.509 0.224-0.193 0.226-0.193 0.6v0.084zm-0.761 0.158v-1.326h0.381v0.353q0.131-0.212 0.326-0.313 0.195-0.1 0.477-0.1 0.357 0 0.569 0.2 0.21 0.2 0.21 0.537 0 0.392-0.262 0.59-0.264 0.2-0.784 0.2h-0.536v0.037q0 0.264 0.175 0.407 0.172 0.145 0.485 0.145 0.2 0 0.388-0.047t0.363-0.144v0.353q-0.21 0.081-0.406 0.12-0.198 0.042-0.384 0.042-0.504 0-0.753-0.261t-0.25-0.793zm-1.167 1.658v-0.66h-0.786v-0.297h0.786v-1.26q0-0.284-0.076-0.365-0.08-0.081-0.318-0.081h-0.392v-0.32h0.392q0.442 0 0.61 0.164 0.168 0.166 0.168 0.602v1.261h0.28v0.297h-0.28v0.66zm-1.668 0v-0.66h-0.786v-0.297h0.786v-1.26q0-0.284-0.077-0.365-0.078-0.081-0.317-0.081h-0.392v-0.32h0.392q0.442 0 0.61 0.164 0.168 0.166 0.168 0.602v1.261h0.28v0.297h-0.28v0.66zm-1.29-0.66h-0.382v-2.324h0.382zm0 0.905h-0.382v-0.484h0.382zm-3.111-1.826v-1.403h0.382v1.39q0 0.33 0.129 0.494 0.128 0.164 0.386 0.164 0.309 0 0.487-0.197 0.179-0.197 0.179-0.537v-1.314h0.384v2.324h-0.384v-0.361q-0.137 0.21-0.322 0.313-0.187 0.104-0.43 0.104-0.4 0-0.605-0.249-0.206-0.247-0.206-0.728zm-1.732-1.619q0.161-0.415 0.315-0.541t0.41-0.127h0.306v0.32h-0.224q-0.158 0-0.245 0.074-0.087 0.075-0.193 0.353l-0.069 0.174 0.94 2.287h-0.404l-0.726-1.818-0.727 1.818h-0.404zm-2.498 1.687q0.298 0 0.47-0.16 0.17-0.16 0.17-0.44t-0.17-0.44q-0.172-0.16-0.47-0.16t-0.471 0.16q-0.173 0.163-0.173 0.44 0 0.28 0.173 0.44 0.17 0.16 0.47 0.16zm0.419 0.179q0.27 0.066 0.421 0.25 0.15 0.185 0.15 0.451 0 0.371-0.264 0.587-0.266 0.216-0.726 0.216-0.463 0-0.727-0.216-0.263-0.216-0.263-0.587 0-0.266 0.151-0.45 0.15-0.185 0.417-0.251-0.303-0.07-0.47-0.276-0.17-0.206-0.17-0.502 0-0.45 0.275-0.691 0.274-0.241 0.787-0.241t0.788 0.24q0.274 0.241 0.274 0.692 0 0.296-0.17 0.502t-0.473 0.276zm0.153 0.662q0-0.241-0.15-0.376t-0.422-0.135q-0.27 0-0.422 0.135-0.153 0.135-0.153 0.376t0.153 0.375q0.152 0.135 0.422 0.135 0.271 0 0.423-0.135 0.15-0.135 0.15-0.375zm-2.385 0.785h-1.646v-0.352h1.262v-0.76q-0.092 0.032-0.183 0.046-0.091 0.017-0.182 0.017-0.52 0-0.822-0.284-0.303-0.284-0.303-0.77 0-0.5 0.311-0.778 0.311-0.276 0.878-0.276 0.195 0 0.398 0.033 0.202 0.033 0.417 0.1v0.42q-0.186-0.1-0.386-0.15-0.199-0.05-0.42-0.05-0.36 0-0.57 0.188-0.209 0.19-0.209 0.513t0.21 0.512q0.21 0.19 0.568 0.19 0.168 0 0.336-0.038 0.166-0.037 0.34-0.116z"/>
  </g>
  <g fill="#8c8c8c">
   <path d="m26.276 23.79h-2.159v-3.14h2.16zm-21.598 2e-3h-2.16v-3.14h2.16zm14.399 0h-2.159v-3.14h2.16zm-7.2 0h-2.157v-3.14h2.158z"/>
  </g>
  <g fill="none">
   <path d="m4.702 3.178h-2.168v-3.179h2.168zm-9e-3 20.594h-2.156v-3.178h2.156zm7.183 0.02h-2.158v-3.178h2.158zm7.201 0h-2.159v-3.178h2.159zm7.203 0h-2.159v-3.178h2.159zm-9e-3 -20.614h-2.159v-3.179h2.159zm-7.194 0h-2.159v-3.179h2.159zm-7.2 0h-2.159v-3.179h2.159z"/>
  </g>
 </g>
 <g transform="translate(-77.817,-118.84)" stroke-width="1.047">
  <g fill="none">
   <path d="m159.19 128.14v0.988h-1.462v-0.988zm-9.888 0v0.988h-1.462v-0.988zm9.888-6.583v0.987h-1.462v-0.988zm-9.888 0v0.987h-1.462v-0.988z"/>
   <path d="m159.19 128.14v0.988h-1.032v-0.988zm-10.318 0v0.988h-1.032v-0.988zm10.318-6.583v0.987h-1.032v-0.988zm-10.318 0v0.987h-1.032v-0.988z"/>
  </g>
  <g transform="matrix(0 .3292 -.34392 0 159.19 121.36)">
   <g fill="#8c8c8c">
    <path d="m20.586 21.487h3v11.492h-3zm-20-21.486h2.998v11.492h-2.998zm20-1e-3h3v11.494h-3zm-19.999 21.487h2.999v11.494h-2.999z"/>
   </g>
   <path d="m0.012 4.232h24.518v24.52h-24.518z"/>
   <path d="m24.529 26.752a2.002 2.002 0 0 1-2 1.999h-20.518a2.003 2.003 0 0 1-1.999-1.999v-20.522c0-1.1 0.898-1.998 1.999-1.998h20.521a2 2 0 0 1 1.997 1.998z" fill="#999"/>
   <circle cx="3.583" cy="7.803" r="2.124"/>
   <circle cx="21.018" cy="7.84" r="2.124"/>
   <circle cx="20.981" cy="25.275" r="2.124"/>
   <circle cx="3.546" cy="25.236" r="2.124"/>
   <circle cx="12.27" cy="16.491" r="7.15" fill="#3f3f3f"/>
   <circle cx="12.27" cy="16.491" r="7.15" fill="url(#a)"/>
   <circle cx="12.395" cy="17.341" r="6.292" opacity=".6"/>
   <circle cx="12.279" cy="16.533" r="6.132" fill="#735348"/>
   <g fill="#fff">
    <path d="m3.308 7.692a0.306 0.306 0 0 1 0.228-0.196l-0.21-1.338c-0.08 0.013-0.165 2e-3 -0.244 0.026l-2e-3 -6e-3a1.667 1.667 0 0 0-1.054 0.993zm17.433 0.036a0.299 0.299 0 0 1 0.229-0.197l-0.207-1.338c-0.082 0.015-0.166 2e-3 -0.245 0.026l-3e-3 -7e-3a1.665 1.665 0 0 0-1.053 0.993zm-0.034 17.435c0.041-0.102 0.116-0.18 0.227-0.197l-0.207-1.337c-0.082 0.015-0.166 2e-3 -0.246 0.026l-2e-3 -0.01a1.66 1.66 0 0 0-1.053 0.994zm-17.436-0.037a0.298 0.298 0 0 1 0.229-0.195l-0.21-1.339c-0.082 0.017-0.166 2e-3 -0.245 0.027l-2e-3 -7e-3c-0.495 0.15-0.865 0.521-1.056 0.992z" opacity=".5"/>
    <path d="m14.473 10.818a5.99 5.99 0 0 0-1.504-0.378 6.107 6.107 0 0 0-3.653 0.742l-0.134 0.348a6.946 6.946 0 0 1 4.062-0.778c0.448 0.052 0.884 0.152 1.301 0.284z" opacity=".6"/>
   </g>
  </g>
 </g>
 <g transform="matrix(1.4924 0 0 1.4854 -88.921 -193.79)">
  <circle transform="rotate(-90)" cx="-139.27" cy="101.4" r="2.75"/>
  <circle transform="rotate(-90)" cx="-139.25" cy="101.42" r="1.75" fill="#b2b2b2"/>
  <path d="m101.46 140.99c-0.436 3e-3 -0.675-0.09-1.113-0.356l-0.293 1.03c0.408 0.23 0.862 0.355 1.32 0.36 0.448 7e-3 0.994-0.128 1.418-0.38l-0.26-1.035c-0.432 0.264-0.564 0.377-1.072 0.381z" fill="#fff"/>
 </g>
 <g transform="translate(-77.817,-118.84)" fill="none">
  <path d="m123.26 131.01h-0.429v-0.5h0.43zm-10.953 0h-0.429v-0.5h0.43z"/>
  <path transform="matrix(1.4998,0,0,1.4927,40.204,-253.21)" d="m55.095 257.05h-0.351" stroke="#8c8c8c" stroke-linecap="round" stroke-width=".701"/>
  <path transform="matrix(1.4998,0,0,1.4927,40.204,-253.21)" d="m47.452 257.05h-0.354" stroke="#8c8c8c" stroke-linecap="round" stroke-width=".704"/>
 </g>
 <g transform="translate(-77.817,-118.84)" stroke-width=".309">
  <path d="m122.37 131.01h-11.005v-1.046h11.005z" fill="#8c8c8c"/>
  <path d="m119.34 132.3h0.925c0.203 0 0.168-3.593 0-3.593h-6.779c-0.22 0-0.24 3.593 0 3.593z" fill="#ff2a2a"/>
  <path d="m119.08 132.3h-0.853v-3.593h0.853z" fill="#fff" opacity=".74"/>
  <path d="m120.15 132.12h-6.496c-0.152 0-0.49-0.18 0.152-0.18h6.346c0.152 0 0.305 0.18-2e-3 0.18z" fill="#fff" opacity=".4"/>
  <path d="m113.49 128.71c0.311-7e-3 0.616 0 0.923 0h5.855c0.04 0 0.087 0.361 0.078 0.361h-6.956c-0.01 0 0.037-0.36 0.1-0.36z" opacity=".4"/>
 </g>
 <g transform="translate(-77.817,-118.84)" fill="none">
  <path d="m110.35 135.28h0.429v-0.5h-0.43zm10.953 0h0.429v-0.5h-0.43z"/>
  <path transform="matrix(-1.4998,0,0,1.4927,193.41,-248.94)" d="m55.095 257.05h-0.351" stroke="#8c8c8c" stroke-linecap="round" stroke-width=".701"/>
  <path transform="matrix(-1.4998,0,0,1.4927,193.41,-248.94)" d="m47.452 257.05h-0.354" stroke="#8c8c8c" stroke-linecap="round" stroke-width=".704"/>
 </g>
 <g transform="translate(-77.817,-118.84)" stroke-width=".309">
  <path d="m111.24 135.28h11.005v-1.046h-11.005z" fill="#8c8c8c"/>
  <path d="m114.27 136.56h-0.925c-0.203 0-0.168-3.593 0-3.593h6.779c0.22 0 0.24 3.593 0 3.593z" fill="#ff2a2a"/>
  <path d="m114.54 136.56h0.853v-3.593h-0.853z" fill="#fff" opacity=".74"/>
  <path d="m113.47 136.39h6.496c0.152 0 0.49-0.18-0.152-0.18h-6.346c-0.152 0-0.305 0.18 2e-3 0.18z" fill="#fff" opacity=".4"/>
  <path d="m120.12 132.98c-0.311-7e-3 -0.616 0-0.923 0h-5.855c-0.04 0-0.087 0.361-0.078 0.361h6.956c0.01 0-0.037-0.36-0.1-0.36z" opacity=".4"/>
 </g>
 <g transform="translate(-77.817,-118.84)" fill="none">
  <path d="m108.83 139.35h0.379v0.377h-0.38zm15.511 0h0.378v0.377h-0.379z"/>
  <g stroke="#8c8c8c" stroke-width=".739">
   <path transform="matrix(1.4924,0,0,1.4854,-11.611,-77.128)" d="m80.944 146.11h0.37m9.792 0h-0.369" stroke-linecap="round"/>
   <path transform="matrix(1.4924,0,0,1.4854,-11.611,-77.128)" d="m80.944 146.11h10.007"/>
  </g>
 </g>
 <g transform="matrix(1.4924 0 0 1.4854 -89.428 -195.97)" stroke-width=".254">
  <path d="m84.19 145.01a1.384 1.384 0 0 0-0.485-0.104h-0.701a0.255 0.255 0 0 0-0.254 0.254v1.89c0 0.14 0.114 0.253 0.254 0.253h0.7c0.14 0 0.359-0.048 0.486-0.104l0.025-0.012c0.127-0.059 0.346-0.104 0.486-0.104h2.534c0.14 0 0.358 0.048 0.485 0.104l0.026 0.012c0.127 0.059 0.345 0.104 0.485 0.104h0.701c0.14 0 0.254-0.114 0.254-0.254v-1.89a0.254 0.254 0 0 0-0.254-0.253h-0.7c-0.141 0-0.359 0.048-0.486 0.104l-0.026 0.013a1.382 1.382 0 0 1-0.485 0.104h-2.534c-0.14 0-0.359-0.048-0.486-0.104z" fill="#d9b477"/>
  <path d="m88.343 144.9h0.248v2.397h-0.248z" fill="#ad9f4e"/>
  <path d="m86.28 145.12h0.653v1.953h-0.653z"/>
  <path d="m84.975 145.12h0.653v1.953h-0.653z" fill="#b3b3b3"/>
  <path d="m84.324 145.06a0.768 0.768 0 0 1-0.11-0.04l-0.025-0.013a1.389 1.389 0 0 0-0.485-0.104h-0.03v2.397h0.03c0.14 0 0.358-0.048 0.485-0.104l0.026-0.013a0.682 0.682 0 0 1 0.109-0.04z" fill="#00f"/>
  <path d="m88.939 146.27c0 0.134-0.046 0.247-0.104 0.247h-0.678c-0.134 0-0.345-0.02-0.47-0.044l-0.026-6e-3a3.092 3.092 0 0 0-0.47-0.043h-2.451c-0.135 0-0.346 0.02-0.47 0.043l-0.025 5e-3a3.045 3.045 0 0 1-0.47 0.044h-0.575c-0.135 0-0.247 0.103-0.247 0.227v0.204c0 0.127 0.112 0.228 0.247 0.228h0.571c0.135 0 0.346-0.043 0.47-0.094l0.025-0.01a1.5 1.5 0 0 1 0.47-0.094h2.45c0.135 0 0.346 0.044 0.472 0.094l0.026 0.01c0.121 0.051 0.333 0.094 0.47 0.094h0.785c0.134 0 0.247-0.104 0.247-0.227v-1.185c-0.098 0.038-0.248 0.145-0.248 0.506z" opacity=".3"/>
  <path d="m88.343 146.06h0.248v1.112h-0.248z" opacity=".4"/>
  <path d="m87.542 145.21a0.657 0.657 0 0 0 0.234-0.061c0.07-0.028 0.203-0.05 0.34-0.05h0.516c0.08 0 0.08 0.086 0.08 0.131 0 0.046-6e-3 0.135-0.08 0.135h-1.08c-0.037 0-0.08-0.04-0.08-0.08 1e-3 -0.03 0.027-0.075 0.07-0.075z" fill="#fff" opacity=".25"/>
  <circle cx="83.044" cy="145.23" r=".152" fill="#fff" opacity=".35"/>
  <path d="m88.343 144.98h0.248v0.572h-0.248z" fill="#ff3" opacity=".5"/>
  <path d="m88.343 145.11h0.248v0.264h-0.248z" fill="#fff" opacity=".5"/>
 </g>
 <g transform="translate(-77.817,-118.84)">
  <g fill="none">
   <path d="m108.89 143.88h0.38v0.377h-0.38zm15.511 0h0.38v0.377h-0.38z"/>
   <g stroke="#8c8c8c" stroke-width=".739">
    <path transform="matrix(1.4924,0,0,1.4854,-11.549,-72.598)" d="m80.944 146.11h0.37m9.792 0h-0.369" stroke-linecap="round"/>
    <path transform="matrix(1.4924,0,0,1.4854,-11.549,-72.598)" d="m80.944 146.11h10.007"/>
   </g>
  </g>
  <g transform="matrix(1.4924,0,0,1.4854,-11.549,-72.598)" stroke-width=".254">
   <path d="m84.19 145.01a1.384 1.384 0 0 0-0.485-0.104h-0.701a0.255 0.255 0 0 0-0.254 0.254v1.89c0 0.14 0.114 0.253 0.254 0.253h0.7c0.14 0 0.359-0.048 0.486-0.104l0.025-0.012c0.127-0.059 0.346-0.104 0.486-0.104h2.534c0.14 0 0.358 0.048 0.485 0.104l0.026 0.012c0.127 0.059 0.345 0.104 0.485 0.104h0.701c0.14 0 0.254-0.114 0.254-0.254v-1.89a0.254 0.254 0 0 0-0.254-0.253h-0.7c-0.141 0-0.359 0.048-0.486 0.104l-0.026 0.013a1.382 1.382 0 0 1-0.485 0.104h-2.534c-0.14 0-0.359-0.048-0.486-0.104z" fill="#d9b477"/>
   <path d="m88.343 144.9h0.248v2.397h-0.248z" fill="#ad9f4e"/>
   <path d="m86.28 145.12h0.653v1.953h-0.653z"/>
   <path d="m84.975 145.12h0.653v1.953h-0.653z" fill="#b3b3b3"/>
   <path d="m84.324 145.06a0.768 0.768 0 0 1-0.11-0.04l-0.025-0.013a1.389 1.389 0 0 0-0.485-0.104h-0.03v2.397h0.03c0.14 0 0.358-0.048 0.485-0.104l0.026-0.013a0.682 0.682 0 0 1 0.109-0.04z" fill="#00f"/>
   <path d="m88.939 146.27c0 0.134-0.046 0.247-0.104 0.247h-0.678c-0.134 0-0.345-0.02-0.47-0.044l-0.026-6e-3a3.092 3.092 0 0 0-0.47-0.043h-2.451c-0.135 0-0.346 0.02-0.47 0.043l-0.025 5e-3a3.045 3.045 0 0 1-0.47 0.044h-0.575c-0.135 0-0.247 0.103-0.247 0.227v0.204c0 0.127 0.112 0.228 0.247 0.228h0.571c0.135 0 0.346-0.043 0.47-0.094l0.025-0.01a1.5 1.5 0 0 1 0.47-0.094h2.45c0.135 0 0.346 0.044 0.472 0.094l0.026 0.01c0.121 0.051 0.333 0.094 0.47 0.094h0.785c0.134 0 0.247-0.104 0.247-0.227v-1.185c-0.098 0.038-0.248 0.145-0.248 0.506z" opacity=".3"/>
   <path d="m88.343 146.06h0.248v1.112h-0.248z" opacity=".4"/>
   <path d="m87.542 145.21a0.657 0.657 0 0 0 0.234-0.061c0.07-0.028 0.203-0.05 0.34-0.05h0.516c0.08 0 0.08 0.086 0.08 0.131 0 0.046-6e-3 0.135-0.08 0.135h-1.08c-0.037 0-0.08-0.04-0.08-0.08 1e-3 -0.03 0.027-0.075 0.07-0.075z" fill="#fff" opacity=".25"/>
   <circle cx="83.044" cy="145.23" r=".152" fill="#fff" opacity=".35"/>
   <path d="m88.343 144.98h0.248v0.572h-0.248z" fill="#ff3" opacity=".5"/>
   <path d="m88.343 145.11h0.248v0.264h-0.248z" fill="#fff" opacity=".5"/>
  </g>
  <g fill="none">
   <path d="m110.33 149.32h0.429v-0.5h-0.43zm10.953 0h0.429v-0.5h-0.43z"/>
   <path transform="matrix(-1.4998,0,0,1.4927,193.39,-234.9)" d="m55.095 257.05h-0.351" stroke="#8c8c8c" stroke-linecap="round" stroke-width=".701"/>
   <path transform="matrix(-1.4998,0,0,1.4927,193.39,-234.9)" d="m47.452 257.05h-0.354" stroke="#8c8c8c" stroke-linecap="round" stroke-width=".704"/>
  </g>
  <g stroke-width=".309">
   <path d="m111.22 149.32h11.005v-1.046h-11.005z" fill="#8c8c8c"/>
   <path d="m114.25 150.6h-0.925c-0.203 0-0.168-3.593 0-3.593h6.779c0.22 0 0.24 3.593 0 3.593z" fill="#ff2a2a"/>
   <path d="m114.52 150.6h0.853v-3.593h-0.853z" fill="#fff" opacity=".74"/>
   <path d="m113.45 150.43h6.496c0.152 0 0.49-0.18-0.152-0.18h-6.346c-0.152 0-0.305 0.18 2e-3 0.18z" fill="#fff" opacity=".4"/>
   <path d="m120.1 147.02c-0.311-7e-3 -0.616 0-0.923 0h-5.855c-0.04 0-0.087 0.361-0.078 0.361h6.956c0.01 0-0.037-0.36-0.1-0.36z" opacity=".4"/>
  </g>
  <g fill="none">
   <path d="m129.52 134.49v0.377h-0.379v-0.377zm0 15.434v0.377h-0.379v-0.378z"/>
   <g stroke="#8c8c8c" stroke-width=".739">
    <path transform="matrix(1.4924,0,0,1.4854,-11.168,-77.228)" d="m93.903 142.77v0.37m0 9.79v-0.37" stroke-linecap="round"/>
    <path transform="matrix(1.4924,0,0,1.4854,-11.168,-77.228)" d="m93.903 142.77v10.007"/>
   </g>
  </g>
  <path d="m130.62 139.67c0.087-0.189 0.155-0.513 0.155-0.72v-1.042a0.38 0.38 0 0 0-0.379-0.377h-2.82a0.38 0.38 0 0 0-0.379 0.377v1.041c0 0.208 0.072 0.532 0.156 0.721l0.018 0.038c0.087 0.188 0.156 0.513 0.156 0.72v3.766c0 0.208-0.072 0.531-0.156 0.72l-0.018 0.038a2.044 2.044 0 0 0-0.156 0.72v1.042c0 0.208 0.17 0.377 0.38 0.377h2.82c0.208 0 0.378-0.169 0.378-0.377v-1.041a2.13 2.13 0 0 0-0.155-0.72l-0.019-0.039a2.044 2.044 0 0 1-0.155-0.72v-3.766c0-0.207 0.072-0.532 0.155-0.72z" fill="#d9b477"/>
  <path d="m130.78 145.84v0.368h-3.577v-0.368z" fill="#ad9f4e"/>
  <g stroke-width=".254">
   <path d="m130.45 142.78v0.97h-2.914v-0.97z" fill="#c40808"/>
   <path d="m130.45 140.83v0.97h-2.914v-0.97z" fill="#1a1a1a"/>
   <path d="m130.55 139.86c0.019-0.06 0.038-0.117 0.06-0.162l0.02-0.038c0.086-0.188 0.155-0.513 0.155-0.72v-0.046h-3.578v0.046c0 0.207 0.071 0.532 0.155 0.72l0.019 0.038c0.023 0.045 0.042 0.102 0.06 0.162z" fill="#8a3d06"/>
  </g>
  <g transform="matrix(1.4924,0,0,1.4854,-11.168,-77.228)" stroke-width=".254">
   <path d="m93.742 150.76c-0.134 0-0.247-0.046-0.247-0.104v-0.678c0-0.134 0.02-0.345 0.044-0.47l5e-3 -0.026c0.023-0.122 0.043-0.335 0.043-0.47v-2.451c0-0.135-0.02-0.346-0.043-0.47l-5e-3 -0.025a3.044 3.044 0 0 1-0.043-0.47v-0.574c0-0.135-0.104-0.247-0.228-0.247h-0.204c-0.127 0-0.228 0.112-0.228 0.247v0.571c0 0.135 0.043 0.346 0.095 0.47l0.01 0.025c0.05 0.122 0.093 0.336 0.093 0.47v2.45c0 0.135-0.044 0.346-0.094 0.472l-0.01 0.026a1.455 1.455 0 0 0-0.094 0.47v0.785c0 0.134 0.104 0.247 0.228 0.247h1.184c-0.038-0.098-0.145-0.248-0.506-0.248z" opacity=".3"/>
   <path d="m93.956 150.17v0.248h-1.112v-0.248z" opacity=".4"/>
   <path d="m94.802 149.37c0 0.081 0.036 0.173 0.061 0.234 0.028 0.07 0.05 0.203 0.05 0.34v0.516c0 0.08-0.086 0.08-0.131 0.08s-0.135-6e-3 -0.135-0.08v-1.08c0-0.037 0.04-0.08 0.079-0.08 0.03 1e-3 0.076 0.027 0.076 0.07z" fill="#fff" opacity=".25"/>
   <circle transform="rotate(90)" cx="144.87" cy="-94.784" r=".152" fill="#fff" opacity=".35"/>
   <path d="m95.035 150.17v0.248h-0.572v-0.248z" fill="#ff3" opacity=".5"/>
   <path d="m94.908 150.17v0.248h-0.264v-0.248z" fill="#fff" opacity=".5"/>
  </g>
  <g fill="none">
   <path d="m134.19 134.49v0.377h-0.379v-0.377zm0 15.434v0.377h-0.379v-0.378z"/>
   <g stroke="#8c8c8c" stroke-width=".739">
    <path transform="matrix(1.4924,0,0,1.4854,-6.503,-77.228)" d="m93.903 142.77v0.37m0 9.79v-0.37" stroke-linecap="round"/>
    <path transform="matrix(1.4924,0,0,1.4854,-6.503,-77.228)" d="m93.903 142.77v10.007"/>
   </g>
  </g>
  <path d="m135.29 139.67c0.088-0.189 0.156-0.513 0.156-0.72v-1.042a0.38 0.38 0 0 0-0.38-0.377h-2.82a0.38 0.38 0 0 0-0.378 0.377v1.041c0 0.208 0.071 0.532 0.155 0.721l0.019 0.038c0.087 0.188 0.155 0.513 0.155 0.72v3.766c0 0.208-0.071 0.531-0.155 0.72l-0.019 0.038a2.044 2.044 0 0 0-0.155 0.72v1.042c0 0.208 0.17 0.377 0.379 0.377h2.82c0.208 0 0.379-0.169 0.379-0.377v-1.041a2.13 2.13 0 0 0-0.156-0.72l-0.019-0.039a2.044 2.044 0 0 1-0.155-0.72v-3.766c0-0.207 0.072-0.532 0.155-0.72z" fill="#d9b477"/>
  <path d="m135.45 145.84v0.368h-3.578v-0.368z" fill="#ad9f4e"/>
  <g stroke-width=".254">
   <path d="m135.12 142.78v0.97h-2.916v-0.97z" fill="#c40808"/>
   <path d="m135.12 140.83v0.97h-2.916v-0.97z" fill="#1a1a1a"/>
   <path d="m135.21 139.86c0.02-0.06 0.038-0.117 0.061-0.162l0.019-0.038c0.087-0.188 0.155-0.513 0.155-0.72v-0.046h-3.578v0.046c0 0.207 0.072 0.532 0.156 0.72l0.018 0.038c0.024 0.045 0.042 0.102 0.061 0.162z" fill="#8a3d06"/>
  </g>
  <g transform="matrix(1.4924,0,0,1.4854,-6.503,-77.228)" stroke-width=".254">
   <path d="m93.742 150.76c-0.134 0-0.247-0.046-0.247-0.104v-0.678c0-0.134 0.02-0.345 0.044-0.47l5e-3 -0.026c0.023-0.122 0.043-0.335 0.043-0.47v-2.451c0-0.135-0.02-0.346-0.043-0.47l-5e-3 -0.025a3.044 3.044 0 0 1-0.043-0.47v-0.574c0-0.135-0.104-0.247-0.228-0.247h-0.204c-0.127 0-0.228 0.112-0.228 0.247v0.571c0 0.135 0.043 0.346 0.095 0.47l0.01 0.025c0.05 0.122 0.093 0.336 0.093 0.47v2.45c0 0.135-0.044 0.346-0.094 0.472l-0.01 0.026a1.455 1.455 0 0 0-0.094 0.47v0.785c0 0.134 0.104 0.247 0.228 0.247h1.184c-0.038-0.098-0.145-0.248-0.506-0.248z" opacity=".3"/>
   <path d="m93.956 150.17v0.248h-1.112v-0.248z" opacity=".4"/>
   <path d="m94.802 149.37c0 0.081 0.036 0.173 0.061 0.234 0.028 0.07 0.05 0.203 0.05 0.34v0.516c0 0.08-0.086 0.08-0.131 0.08s-0.135-6e-3 -0.135-0.08v-1.08c0-0.037 0.04-0.08 0.079-0.08 0.03 1e-3 0.076 0.027 0.076 0.07z" fill="#fff" opacity=".25"/>
   <circle transform="rotate(90)" cx="144.87" cy="-94.784" r=".152" fill="#fff" opacity=".35"/>
   <path d="m95.035 150.17v0.248h-0.572v-0.248z" fill="#ff3" opacity=".5"/>
   <path d="m94.908 150.17v0.248h-0.264v-0.248z" fill="#fff" opacity=".5"/>
  </g>
 </g>
 <text transform="scale(1.0024 .99762)" x="26.649771" y="42.360603" fill="#ffffff" font-family="sans-serif" font-size="2.639px" letter-spacing="0" stroke-width=".39601" word-spacing="0" style="line-height:1.25" xml:space="preserve"><tspan x="26.649771" y="42.360603" font-size="2.375px" stroke-width=".39601">2</tspan></text>
</svg>
