<svg width="277" height="246" viewBox="38740 17890 22269 19719" xmlns="http://www.w3.org/2000/svg"><g clip-path="url(#a)" mask="url(#b)" transform="translate(-2.362 -27.608)"><defs><clipPath id="a"><path d="M38750 17900v19700h22250V17900H38750" fill-rule="evenodd"/></clipPath></defs><g fill="#313d63" stroke="#313d63"><path d="M38750 17900v19700h22250V17900H38750" fill-rule="evenodd"/><g fill-opacity="0" stroke-linecap="round" stroke-linejoin="round" stroke-width="19.685" fill="none" stroke="#000"><path d="M61000 17900H38750M61000 37600V17900M38750 37600h22250M38750 17900v19700"/></g></g><g fill-opacity="1" stroke="none" stroke-linecap="round" stroke-linejoin="round" stroke-width="0" fill="#9c6b28"><circle cx="48500" cy="23250" r="314.96"/><circle cx="51500" cy="26250" r="314.96"/><circle cx="49500" cy="23250" r="314.96"/><circle cx="50500" cy="26250" r="314.96"/><circle cx="50500" cy="23250" r="314.96"/><circle cx="49500" cy="26250" r="314.96"/><circle cx="51500" cy="23250" r="314.96"/><path d="M48815 26565h-630v-630h630z" fill-rule="evenodd"/><circle cx="59500" cy="21500" r="334.65"/><circle cx="59500" cy="22500" r="334.65"/><circle cx="59500" cy="23500" r="334.65"/><circle cx="59500" cy="24500" r="334.65"/><circle cx="59500" cy="25500" r="334.65"/><circle cx="59500" cy="26500" r="334.65"/><circle cx="59500" cy="27500" r="334.65"/><path d="M59835 28165v669.2h-669.2V28165z" fill-rule="evenodd"/></g><g fill="#212d53" stroke="#212d53" stroke-linecap="round" stroke-linejoin="round" stroke-width="0"><g fill-opacity="1" stroke="none"><circle cx="48500" cy="23250" r="314.96"/><circle cx="51500" cy="26250" r="314.96"/><circle cx="49500" cy="23250" r="314.96"/><circle cx="50500" cy="26250" r="314.96"/><circle cx="50500" cy="23250" r="314.96"/><circle cx="49500" cy="26250" r="314.96"/><circle cx="51500" cy="23250" r="314.96"/><path d="M48815 26565h-630v-630h630z" fill-rule="evenodd"/><circle cx="59500" cy="21500" r="334.65"/><circle cx="59500" cy="22500" r="334.65"/><circle cx="59500" cy="23500" r="334.65"/><circle cx="59500" cy="24500" r="334.65"/><circle cx="59500" cy="25500" r="334.65"/><circle cx="59500" cy="26500" r="334.65"/><circle cx="59500" cy="27500" r="334.65"/><path d="M59835 28165v669.2h-669.2V28165z" fill-rule="evenodd"/></g><g stroke="none"><circle cx="48500" cy="23250" r="68.898"/><circle cx="51500" cy="26250" r="68.898"/><circle cx="49500" cy="23250" r="68.898"/><circle cx="50500" cy="26250" r="68.898"/><circle cx="50500" cy="23250" r="68.898"/><circle cx="49500" cy="26250" r="68.898"/><circle cx="51500" cy="23250" r="68.898"/><circle cx="48500" cy="26250" r="68.898"/><circle cx="59500" cy="21500" r="68.898"/><circle cx="59500" cy="22500" r="68.898"/><circle cx="59500" cy="23500" r="68.898"/><circle cx="59500" cy="24500" r="68.898"/><circle cx="59500" cy="25500" r="68.898"/><circle cx="59500" cy="26500" r="68.898"/><circle cx="59500" cy="27500" r="68.898"/><circle cx="59500" cy="28500" r="68.898"/></g></g><g fill="#b5ae30" mask="url(#c)" stroke="#b5ae30" stroke-linecap="round" stroke-linejoin="round" stroke-width="0"><g fill-opacity="1" stroke="none"><circle cx="48500" cy="23250" r="314.96"/><circle cx="51500" cy="26250" r="314.96"/><circle cx="49500" cy="23250" r="314.96"/><circle cx="50500" cy="26250" r="314.96"/><circle cx="50500" cy="23250" r="314.96"/><circle cx="49500" cy="26250" r="314.96"/><circle cx="51500" cy="23250" r="314.96"/><path d="M48815 26565h-630v-630h630z" fill-rule="evenodd"/><circle cx="59500" cy="21500" r="334.65"/><circle cx="59500" cy="22500" r="334.65"/><circle cx="59500" cy="23500" r="334.65"/><circle cx="59500" cy="24500" r="334.65"/><circle cx="59500" cy="25500" r="334.65"/><circle cx="59500" cy="26500" r="334.65"/><circle cx="59500" cy="27500" r="334.65"/><path d="M59835 28165v669.2h-669.2V28165z" fill-rule="evenodd"/></g><g stroke="none"><circle cx="48500" cy="23250" r="68.898"/><circle cx="51500" cy="26250" r="68.898"/><circle cx="49500" cy="23250" r="68.898"/><circle cx="50500" cy="26250" r="68.898"/><circle cx="50500" cy="23250" r="68.898"/><circle cx="49500" cy="26250" r="68.898"/><circle cx="51500" cy="23250" r="68.898"/><circle cx="48500" cy="26250" r="68.898"/><circle cx="59500" cy="21500" r="68.898"/><circle cx="59500" cy="22500" r="68.898"/><circle cx="59500" cy="23500" r="68.898"/><circle cx="59500" cy="24500" r="68.898"/><circle cx="59500" cy="25500" r="68.898"/><circle cx="59500" cy="26500" r="68.898"/><circle cx="59500" cy="27500" r="68.898"/><circle cx="59500" cy="28500" r="68.898"/></g></g><defs><mask id="c"><g fill="#fff" fill-opacity="1" stroke="#fff" stroke-linecap="round" stroke-linejoin="round" stroke-width="0"><circle cx="48500" cy="23250" r="314.96"/><circle cx="51500" cy="26250" r="314.96"/><circle cx="49500" cy="23250" r="314.96"/><circle cx="50500" cy="26250" r="314.96"/><circle cx="50500" cy="23250" r="314.96"/><circle cx="49500" cy="26250" r="314.96"/><circle cx="51500" cy="23250" r="314.96"/><path d="M48815 26565h-630v-630h630z" fill-rule="evenodd"/><circle cx="59500" cy="21500" r="334.65"/><circle cx="59500" cy="22500" r="334.65"/><circle cx="59500" cy="23500" r="334.65"/><circle cx="59500" cy="24500" r="334.65"/><circle cx="59500" cy="25500" r="334.65"/><circle cx="59500" cy="26500" r="334.65"/><circle cx="59500" cy="27500" r="334.65"/><path d="M59835 28165v669.2h-669.2V28165z" fill-rule="evenodd"/></g></mask></defs><defs><mask id="d"><path fill="#fff" d="M38740 17890h22269v19719H38740z"/><g fill-opacity="1" stroke="#000" stroke-linecap="round" stroke-linejoin="round" stroke-width="0"><circle cx="48500" cy="23250" r="314.96"/><circle cx="51500" cy="26250" r="314.96"/><circle cx="49500" cy="23250" r="314.96"/><circle cx="50500" cy="26250" r="314.96"/><circle cx="50500" cy="23250" r="314.96"/><circle cx="49500" cy="26250" r="314.96"/><circle cx="51500" cy="23250" r="314.96"/><path d="M48815 26565h-630v-630h630z" fill-rule="evenodd"/><circle cx="59500" cy="21500" r="334.65"/><circle cx="59500" cy="22500" r="334.65"/><circle cx="59500" cy="23500" r="334.65"/><circle cx="59500" cy="24500" r="334.65"/><circle cx="59500" cy="25500" r="334.65"/><circle cx="59500" cy="26500" r="334.65"/><circle cx="59500" cy="27500" r="334.65"/><path d="M59835 28165v669.2h-669.2V28165z" fill-rule="evenodd"/></g></mask></defs><g fill="none" fill-opacity="0" mask="url(#d)" stroke="#f0f0f0" stroke-linecap="round" stroke-linejoin="round"><g stroke-width="295.28"><path d="M46119 19784v-1181h281l169 56 112 112 57 113 56 225v169l-56 225-57 112-112 113-169 56h-281M47244 19728l169 56h281l112-56 57-57 56-112v-113l-56-112-57-56-112-57-225-56-113-56-56-56-56-113v-112l56-113 56-56 113-56h281l169 56M49044 19784h-675M48706 19784v-1181l-112 168-113 113-112 56M50056 18603h-225l-112 56-57 56-112 169-56 225v450l56 112 56 57 113 56h225l112-56 56-57 57-112v-281l-57-113-56-56-112-56h-225l-113 56-56 56-56 113M50618 18715l57-56 112-56h281l113 56 56 56 56 113v112l-56 169-675 675h731M52418 19784h-675M52081 19784v-1181l-113 168-112 113-113 56M53656 18603h674M53993 19784v-1181M55174 19728l-112 56h-225l-113-56-56-113v-450l56-112 113-57h225l112 57 56 112v113l-562 112M55737 19784v-788M55737 19109l56-56 112-57h169l113 57 56 112v619M56243 19165l56-112 112-57h169l113 57 56 112v619M57311 18996v1182M57311 19053l113-57h225l112 57 57 56 56 112v338l-56 112-57 57-112 56h-225l-113-56M58380 19671l56 57-56 56-56-56 56-57v113"/></g><g stroke-width="147.64"><path d="M40902 33426h337M41070 34017v-591M41436 33707h197M41717 34017h-281v-591h281M41970 34017v-591l197 422 197-422v591M42645 34017v-591h225l56 28 29 28 28 57v84l-28 56-29 28-56 28h-225"/></g><g stroke-width="47.244"><path d="M47976 25143v650M47976 25793h4047M52023 25793v-2087M52023 23706h-4047M47976 23706v650M47976 25144a393.7 393.7 0 0 0 0-787.4M60023 28000h-1047M60023 28000v-7024M60023 20976h-1047M58976 28000v-7024M58976 29023v-523M59500 29023h-524"/></g></g><g fill-opacity="0" stroke-linecap="round" stroke-linejoin="round" stroke-width="19.685" fill="none" stroke="#000"><path d="M61000 17900H38750M61000 37600V17900M38750 37600h22250M38750 17900v19700"/></g><defs><mask id="b"><path fill="#fff" d="M38740 17890h22269v19719H38740z"/><path stroke="#000" stroke-linecap="round" stroke-width="314" d="M48500 23250h0M51500 26250h0M49500 23250h0M50500 26250h0M50500 23250h0M49500 26250h0M51500 23250h0M48500 26250h0"/><path stroke="#000" stroke-linecap="round" stroke-width="393" d="M59500 21500h0M59500 22500h0M59500 23500h0M59500 24500h0M59500 25500h0M59500 26500h0M59500 27500h0M59500 28500h0"/></mask></defs></g><g stroke="#000" stroke-width=".093"><path d="M7.116 8.927V.85h0V.33h-6.2v9.12h6.2z" fill="#333" transform="matrix(0 -393.65 393.7 0 48072.638 26303.392)"/><g fill="none"><path d="M7.19 9.524v-.597M7.19.85V.254M7.19 7.937V6.92M7.19 2.857V1.84M7.19 5.397V4.38M7.19.254H.84M.84.254V.85M.84 8.927v.597M.84 1.84v1.017M.84 6.92v1.017M.84 4.38v1.017M.84 9.524h6.35M7.19 9.524l-.074-.075M7.19.254l-.074.075M7.116 7.937V6.92M7.116 2.857V1.84M7.116 5.397V4.38M.84.254l.076.075M.84 9.524l.076-.075M.916 1.84v1.017M.916 6.92v1.017M.916 4.38v1.017M7.116.329l-.324.323" transform="matrix(0 -393.65 393.7 0 48072.638 26303.392)"/></g><path d="M6.792 9.125V.652h-2.03a.75.75 0 0 1-.746.675v0A.75.75 0 0 1 3.27.652h0-2.03v8.473z" fill="#1a1a1a" fill-rule="evenodd" transform="matrix(0 -393.65 393.7 0 48072.638 26303.392)"/><g fill="none"><path d="M7.116 9.449l-.324-.324M.916.329l.323.323M3.266.546l.004.106M3.266.546h1.5M4.765.546l-.003.106M.916 9.449l.323-.324M3.266.567a.75.75 0 0 1 0-.02M4.765.546a.75.75 0 0 1 0 .02" transform="matrix(0 -393.65 393.7 0 48072.638 26303.392)"/></g><path d="M.536 47.907H.155v-1.524h1.09v1.524z" fill="#ccc" fill-rule="evenodd" transform="matrix(0 -393.65 393.7 0 31936.45 26433.375)"/><path d="M.536 47.907v-1.524" fill="none" transform="matrix(0 -393.65 393.7 0 31936.45 26433.375)"/><path d="M.536 50.447H.155v-1.524h1.09v1.524z" fill="#ccc" fill-rule="evenodd" transform="matrix(0 -393.65 393.7 0 31936.45 26433.375)"/><path d="M.536 50.447v-1.524" fill="none" transform="matrix(0 -393.65 393.7 0 31936.45 26433.375)"/><g><path d="M.46 45.367H.08v-1.524h1.09v1.524z" fill="#ccc" fill-rule="evenodd" transform="matrix(0 -393.65 393.7 0 31936.45 26403.867)"/><path d="M.46 45.367v-1.524" fill="none" transform="matrix(0 -393.65 393.7 0 31936.45 26403.867)"/></g><g><path d="M.536 42.827H.155v-1.524h1.09v1.524z" fill="#ccc" fill-rule="evenodd" transform="matrix(0 -393.65 393.7 0 31936.45 26433.375)"/><path d="M.536 42.827v-1.524" fill="none" transform="matrix(0 -393.65 393.7 0 31936.45 26433.375)"/></g><g><path d="M15.268 46.383h.381v1.524h0-1.09v-1.524z" fill="#ccc" fill-rule="evenodd" transform="scale(393.7 393.65) rotate(-90 77.69 -3.429)"/><path d="M15.268 46.383v1.524" fill="none" transform="scale(393.7 393.65) rotate(-90 77.69 -3.429)"/><path d="M15.268 48.923h.381v1.524h0-1.091v-1.524z" fill="#ccc" fill-rule="evenodd" transform="scale(393.7 393.65) rotate(-90 77.69 -3.429)"/><path d="M15.268 48.923v1.524" fill="none" transform="scale(393.7 393.65) rotate(-90 77.69 -3.429)"/><path d="M15.268 43.843h.381v1.524h0-1.091v-1.524z" fill="#ccc" fill-rule="evenodd" transform="scale(393.7 393.65) rotate(-90 77.69 -3.429)"/><path d="M15.268 43.843v1.524" fill="none" transform="scale(393.7 393.65) rotate(-90 77.69 -3.429)"/><path d="M15.268 41.303h.381v1.524h0-1.091v-1.524z" fill="#ccc" fill-rule="evenodd" transform="scale(393.7 393.65) rotate(-90 77.69 -3.429)"/><path d="M15.268 41.303v1.524" fill="none" transform="scale(393.7 393.65) rotate(-90 77.69 -3.429)"/></g></g><g stroke="#000" stroke-width=".093"><path d="M58997.64 28972.392h999.998v-7999.984h-999.998z" fill="#1a1a1a" fill-rule="evenodd" stroke-width="36.6141"/><path d="M59733.859 21236.344h-472.44v472.44h472.44z" fill="#666" fill-rule="evenodd" stroke-width="36.6141"/><path d="M59615.749 21354.454h-236.22v236.22h236.22z" fill="olive" fill-rule="evenodd" stroke-width="36.6141"/><g fill="none"><path d="M59733.859 21236.344l-117.717 117.717M59261.419 21236.344l117.716 117.717M59616.142 21354.06h-237.007M59733.859 21708.785l-117.717-117.717M59616.142 21591.068v-237.007M59261.419 21708.785l117.716-117.717M59379.135 21591.068h237.007M59379.135 21354.06v237.008M59537.009 21570.99v19.684M59537.009 21374.14v196.85M59537.009 21354.454v19.685M59458.269 21354.454v19.685M59537.009 21374.14h-78.74M59458.269 21374.14v196.85M59458.269 21570.99v19.684M59537.009 21570.99h-78.74" stroke-width="36.6141"/></g><g><path d="M59733.859 22236.342h-472.44v472.44h472.44z" fill="#666" fill-rule="evenodd" stroke-width="36.6141"/><path d="M59615.749 22354.452h-236.22v236.22h236.22z" fill="olive" fill-rule="evenodd" stroke-width="36.6141"/><g fill="none"><path d="M59733.859 22236.342l-117.717 117.717M59261.419 22236.342l117.716 117.717M59616.142 22354.059h-237.007M59733.859 22708.783l-117.717-117.717M59616.142 22591.066v-237.007M59261.419 22708.783l117.716-117.717M59379.135 22591.066h237.007M59379.135 22354.059v237.007M59537.009 22570.987v19.685M59537.009 22374.138v196.85M59537.009 22354.452v19.685M59458.269 22354.452v19.685M59537.009 22374.138h-78.74M59458.269 22374.138v196.85M59458.269 22570.987v19.685M59537.009 22570.987h-78.74" stroke-width="36.6141"/></g><path d="M59733.859 23236.34h-472.44v472.44h472.44z" fill="#666" fill-rule="evenodd" stroke-width="36.6141"/><path d="M59615.749 23354.45h-236.22v236.22h236.22z" fill="olive" fill-rule="evenodd" stroke-width="36.6141"/><g fill="none"><path d="M59733.859 23236.34l-117.717 117.717M59261.419 23236.34l117.716 117.717M59616.142 23354.057h-237.007M59733.859 23708.78l-117.717-117.716M59616.142 23591.064v-237.007M59261.419 23708.78l117.716-117.716M59379.135 23591.064h237.007M59379.135 23354.057v237.007M59537.009 23570.985v19.685M59537.009 23374.136v196.85M59537.009 23354.45v19.685M59458.269 23354.45v19.685M59537.009 23374.136h-78.74M59458.269 23374.136v196.85M59458.269 23570.985v19.685M59537.009 23570.985h-78.74" stroke-width="36.6141"/></g><path d="M59733.859 24236.338h-472.44v472.44h472.44z" fill="#666" fill-rule="evenodd" stroke-width="36.6141"/><path d="M59615.749 24354.448h-236.22v236.22h236.22z" fill="olive" fill-rule="evenodd" stroke-width="36.6141"/><g fill="none"><path d="M59733.859 24236.338l-117.717 117.717M59261.419 24236.338l117.716 117.717M59616.142 24354.055h-237.007M59733.859 24708.779l-117.717-117.717M59616.142 24591.062v-237.007M59261.419 24708.779l117.716-117.717M59379.135 24591.062h237.007M59379.135 24354.055v237.007M59537.009 24570.983v19.685M59537.009 24374.133v196.85M59537.009 24354.448v19.685M59458.269 24354.448v19.685M59537.009 24374.133h-78.74M59458.269 24374.133v196.85M59458.269 24570.983v19.685M59537.009 24570.983h-78.74" stroke-width="36.6141"/></g><g><path d="M59733.859 25236.336h-472.44v472.44h472.44z" fill="#666" fill-rule="evenodd" stroke-width="36.6141"/><path d="M59615.749 25354.446h-236.22v236.22h236.22z" fill="olive" fill-rule="evenodd" stroke-width="36.6141"/><g fill="none"><path d="M59733.859 25236.336l-117.717 117.717M59261.419 25236.336l117.716 117.717M59616.142 25354.053h-237.007M59733.859 25708.776l-117.717-117.716M59616.142 25591.06v-237.007M59261.419 25708.776l117.716-117.716M59379.135 25591.06h237.007M59379.135 25354.053v237.007M59537.009 25570.981v19.685M59537.009 25374.131v196.85M59537.009 25354.446v19.685M59458.269 25354.446v19.685M59537.009 25374.131h-78.74M59458.269 25374.131v196.85M59458.269 25570.981v19.685M59537.009 25570.981h-78.74" stroke-width="36.6141"/></g></g><g><path d="M59733.859 26236.334h-472.44v472.44h472.44z" fill="#666" fill-rule="evenodd" stroke-width="36.6141"/><path d="M59615.749 26354.444h-236.22v236.22h236.22z" fill="olive" fill-rule="evenodd" stroke-width="36.6141"/><g fill="none"><path d="M59733.859 26236.334l-117.717 117.717M59261.419 26236.334l117.716 117.717M59616.142 26354.05h-237.007M59733.859 26708.774l-117.717-117.716M59616.142 26591.058v-237.007M59261.419 26708.774l117.716-117.716M59379.135 26591.058h237.007M59379.135 26354.05v237.008M59537.009 26570.98v19.684M59537.009 26374.13v196.85M59537.009 26354.444v19.685M59458.269 26354.444v19.685M59537.009 26374.13h-78.74M59458.269 26374.13v196.85M59458.269 26570.98v19.684M59537.009 26570.98h-78.74" stroke-width="36.6141"/></g></g><g><path d="M59733.859 27236.332h-472.44v472.44h472.44z" fill="#666" fill-rule="evenodd" stroke-width="36.6141"/><path d="M59615.749 27354.442h-236.22v236.22h236.22z" fill="olive" fill-rule="evenodd" stroke-width="36.6141"/><g fill="none"><path d="M59733.859 27236.332l-117.717 117.717M59261.419 27236.332l117.716 117.717M59616.142 27354.049h-237.007M59733.859 27708.772l-117.717-117.716M59616.142 27591.056v-237.007M59261.419 27708.772l117.716-117.716M59379.135 27591.056h237.007M59379.135 27354.049v237.007M59537.009 27570.977v19.685M59537.009 27374.127v196.85M59537.009 27354.442v19.685M59458.269 27354.442v19.685M59537.009 27374.127h-78.74M59458.269 27374.127v196.85M59458.269 27570.977v19.685M59537.009 27570.977h-78.74" stroke-width="36.6141"/></g></g><g><path d="M59733.859 28236.33h-472.44v472.44h472.44z" fill="#666" fill-rule="evenodd" stroke-width="36.6141"/><path d="M59615.749 28354.44h-236.22v236.22h236.22z" fill="olive" fill-rule="evenodd" stroke-width="36.6141"/><g fill="none"><path d="M59733.859 28236.33l-117.717 117.717M59261.419 28236.33l117.716 117.717M59616.142 28354.047h-237.007M59733.859 28708.77l-117.717-117.716M59616.142 28591.054v-237.007M59261.419 28708.77l117.716-117.716M59379.135 28591.054h237.007M59379.135 28354.047v237.007M59537.009 28570.975v19.685M59537.009 28374.125v196.85M59537.009 28354.44v19.685M59458.269 28354.44v19.685M59537.009 28374.125h-78.74M59458.269 28374.125v196.85M59458.269 28570.975v19.685M59537.009 28570.975h-78.74" stroke-width="36.6141"/></g></g></g></g></svg>