<svg width="600" height="188" color-interpolation="auto" font-family="Dialog" font-size="12" stroke="#000" stroke-linecap="square" stroke-miterlimit="10" xmlns="http://www.w3.org/2000/svg" xmlns:xlink="http://www.w3.org/1999/xlink"><defs><linearGradient id="a" x1="50" x2="50" y1="70" y2="90" gradientUnits="userSpaceOnUse" spreadMethod="reflect" xlink:href="#linearGradient1"/><linearGradient id="b" x1="580" x2="580" y1="130" y2="150" gradientUnits="userSpaceOnUse" spreadMethod="reflect" xlink:href="#linearGradient2"/></defs><g stroke="none" color="#000" color-interpolation="sRGB"><path d="M.26.269h599.43v187.4H.26z" fill="#f9f9f9" style="font-feature-settings:normal;font-variant-alternates:normal;font-variant-caps:normal;font-variant-east-asian:normal;font-variant-ligatures:normal;font-variant-numeric:normal;font-variant-position:normal;font-variation-settings:normal;inline-size:0;isolation:auto;mix-blend-mode:normal;shape-margin:0;shape-padding:0;text-decoration-color:#000;text-decoration-line:none;text-decoration-style:solid;text-indent:0;text-orientation:mixed;text-transform:none;white-space:normal"/><path d="M.082.09v187.76h599.79V.09zm.357.357h599.07v187.04H.44z" style="font-feature-settings:normal;font-variant-alternates:normal;font-variant-caps:normal;font-variant-east-asian:normal;font-variant-ligatures:normal;font-variant-numeric:normal;font-variant-position:normal;font-variation-settings:normal;inline-size:0;isolation:auto;mix-blend-mode:normal;shape-margin:0;shape-padding:0;text-decoration-color:#000;text-decoration-line:none;text-decoration-style:solid;text-indent:0;text-orientation:mixed;text-transform:none;white-space:normal"/></g><path transform="translate(-45.312 -21.543)" d="M50 80l12-10h25l13 10-13 10H62z" fill="url(#a)" stroke="none"/><path d="M16.598 48.207L4.297 58.457l.23.191 12.07 10.06h25.176l13.324-10.25-13.324-10.25H16.597zm.182.5h24.824l12.676 9.75-12.676 9.75H16.78l-11.701-9.75 11.7-9.75z" color="#000" color-interpolation="sRGB" style="font-feature-settings:normal;font-variant-alternates:normal;font-variant-caps:normal;font-variant-east-asian:normal;font-variant-ligatures:normal;font-variant-numeric:normal;font-variant-position:normal;font-variation-settings:normal;inline-size:0;isolation:auto;mix-blend-mode:normal;shape-margin:0;shape-padding:0;text-decoration-color:#000;text-decoration-line:none;text-decoration-style:solid;text-indent:0;text-orientation:mixed;text-transform:none;white-space:normal" stroke="none"/><path d="M54.688 62.457v-8l8 4z" stroke="none"/><path d="M54.438 54.053v8.809l.361-.182 8.448-4.223-8.809-4.404zm.5.807l7.191 3.597-7.191 3.594V54.86z" color="#000" color-interpolation="sRGB" style="font-feature-settings:normal;font-variant-alternates:normal;font-variant-caps:normal;font-variant-east-asian:normal;font-variant-ligatures:normal;font-variant-numeric:normal;font-variant-position:normal;font-variation-settings:normal;inline-size:0;isolation:auto;mix-blend-mode:normal;shape-margin:0;shape-padding:0;text-decoration-color:#000;text-decoration-line:none;text-decoration-style:solid;text-indent:0;text-orientation:mixed;text-transform:none;white-space:normal" stroke="none"/><path transform="translate(-45.312 -21.543)" d="M617 130l13 10-13 10h-25l-12-10 12-10z" fill="url(#b)" stroke="none"/><path d="M546.6 108.21l-12.301 10.25 12.301 10.25h25.176l13.324-10.25-13.324-10.25H546.6zm.182.5h24.824l12.674 9.75-12.674 9.75h-24.824l-11.701-9.75 11.7-9.75z" color="#000" color-interpolation="sRGB" style="font-feature-settings:normal;font-variant-alternates:normal;font-variant-caps:normal;font-variant-east-asian:normal;font-variant-ligatures:normal;font-variant-numeric:normal;font-variant-position:normal;font-variation-settings:normal;inline-size:0;isolation:auto;mix-blend-mode:normal;shape-margin:0;shape-padding:0;text-decoration-color:#000;text-decoration-line:none;text-decoration-style:solid;text-indent:0;text-orientation:mixed;text-transform:none;white-space:normal" stroke="none"/><path d="M526.69 122.46v-8l8 4z" stroke="none"/><path d="M526.44 114.05v8.81l8.809-4.404-8.809-4.406zm.5.809l7.191 3.597-7.191 3.594v-7.191z" color="#000" color-interpolation="sRGB" style="font-feature-settings:normal;font-variant-alternates:normal;font-variant-caps:normal;font-variant-east-asian:normal;font-variant-ligatures:normal;font-variant-numeric:normal;font-variant-position:normal;font-variation-settings:normal;inline-size:0;isolation:auto;mix-blend-mode:normal;shape-margin:0;shape-padding:0;text-decoration-color:#000;text-decoration-line:none;text-decoration-style:solid;text-indent:0;text-orientation:mixed;text-transform:none;white-space:normal" stroke="none"/><g fill="#dcdcdc" stroke="none"><path d="M394.69 128.46v-60l60 30z"/><g color="#000" color-interpolation="sRGB"><path d="M394.69 128.46v-60l60 30z" style="font-feature-settings:normal;font-variant-alternates:normal;font-variant-caps:normal;font-variant-east-asian:normal;font-variant-ligatures:normal;font-variant-numeric:normal;font-variant-position:normal;font-variation-settings:normal;inline-size:0;isolation:auto;mix-blend-mode:normal;shape-margin:0;shape-padding:0;text-decoration-color:#000;text-decoration-line:none;text-decoration-style:solid;text-indent:0;text-orientation:mixed;text-transform:none;white-space:normal"/><path d="M394.44 68.055v60.811l60.809-30.404zm.5.809l59.191 29.598-59.191 29.594z" fill="#000" style="font-feature-settings:normal;font-variant-alternates:normal;font-variant-caps:normal;font-variant-east-asian:normal;font-variant-ligatures:normal;font-variant-numeric:normal;font-variant-position:normal;font-variation-settings:normal;inline-size:0;isolation:auto;mix-blend-mode:normal;shape-margin:0;shape-padding:0;text-decoration-color:#000;text-decoration-line:none;text-decoration-style:solid;text-indent:0;text-orientation:mixed;text-transform:none;white-space:normal"/></g></g><path d="M386.69 102.46v-8l8 4z" stroke="none"/><path d="M386.44 94.055v8.81l8.809-4.404-8.809-4.406zm.5.809l7.191 3.597-7.191 3.594v-7.191z" color="#000" color-interpolation="sRGB" style="font-feature-settings:normal;font-variant-alternates:normal;font-variant-caps:normal;font-variant-east-asian:normal;font-variant-ligatures:normal;font-variant-numeric:normal;font-variant-position:normal;font-variation-settings:normal;inline-size:0;isolation:auto;mix-blend-mode:normal;shape-margin:0;shape-padding:0;text-decoration-color:#000;text-decoration-line:none;text-decoration-style:solid;text-indent:0;text-orientation:mixed;text-transform:none;white-space:normal" stroke="none"/><path d="M454.69 102.46v-8l8 4z" stroke="none"/><path d="M454.44 94.055v8.81l8.809-4.404-8.809-4.406zm.5.809l7.191 3.597-7.191 3.594v-7.191z" color="#000" color-interpolation="sRGB" style="font-feature-settings:normal;font-variant-alternates:normal;font-variant-caps:normal;font-variant-east-asian:normal;font-variant-ligatures:normal;font-variant-numeric:normal;font-variant-position:normal;font-variation-settings:normal;inline-size:0;isolation:auto;mix-blend-mode:normal;shape-margin:0;shape-padding:0;text-decoration-color:#000;text-decoration-line:none;text-decoration-style:solid;text-indent:0;text-orientation:mixed;text-transform:none;white-space:normal" stroke="none"/><g transform="translate(-45.312 -21.543)" fill="#dcdcdc" stroke="none"><rect x="50" y="150" width="50" height="40" rx="4" ry="4"/><g color="#000" color-interpolation="sRGB"><path d="M54 150h42c2.216 0 4 1.784 4 4v32c0 2.216-1.784 4-4 4H54c-2.216 0-4-1.784-4-4v-32c0-2.216 1.784-4 4-4z" style="font-feature-settings:normal;font-variant-alternates:normal;font-variant-caps:normal;font-variant-east-asian:normal;font-variant-ligatures:normal;font-variant-numeric:normal;font-variant-position:normal;font-variation-settings:normal;inline-size:0;isolation:auto;mix-blend-mode:normal;shape-margin:0;shape-padding:0;text-decoration-color:#000;text-decoration-line:none;text-decoration-style:solid;text-indent:0;text-orientation:mixed;text-transform:none;white-space:normal"/><path d="M54 149.75c-2.35 0-4.25 1.9-4.25 4.25v32c0 2.35 1.9 4.25 4.25 4.25h42c2.35 0 4.25-1.9 4.25-4.25v-32c0-2.35-1.9-4.25-4.25-4.25zm0 .5h42a3.736 3.736 0 0 1 3.75 3.75v32a3.736 3.736 0 0 1-3.75 3.75H54a3.736 3.736 0 0 1-3.75-3.75v-32a3.736 3.736 0 0 1 3.75-3.75z" fill="#000" style="font-feature-settings:normal;font-variant-alternates:normal;font-variant-caps:normal;font-variant-east-asian:normal;font-variant-ligatures:normal;font-variant-numeric:normal;font-variant-position:normal;font-variation-settings:normal;inline-size:0;isolation:auto;mix-blend-mode:normal;shape-margin:0;shape-padding:0;text-decoration-color:#000;text-decoration-line:none;text-decoration-style:solid;text-indent:0;text-orientation:mixed;text-transform:none;white-space:normal"/></g><rect x="50" y="150" width="50" height="40" rx="4" ry="4"/><g color="#000" color-interpolation="sRGB"><path d="M54 150h42c2.216 0 4 1.784 4 4v32c0 2.216-1.784 4-4 4H54c-2.216 0-4-1.784-4-4v-32c0-2.216 1.784-4 4-4z" style="font-feature-settings:normal;font-variant-alternates:normal;font-variant-caps:normal;font-variant-east-asian:normal;font-variant-ligatures:normal;font-variant-numeric:normal;font-variant-position:normal;font-variation-settings:normal;inline-size:0;isolation:auto;mix-blend-mode:normal;shape-margin:0;shape-padding:0;text-decoration-color:#000;text-decoration-line:none;text-decoration-style:solid;text-indent:0;text-orientation:mixed;text-transform:none;white-space:normal"/><path d="M54 149.75c-2.35 0-4.25 1.9-4.25 4.25v32c0 2.35 1.9 4.25 4.25 4.25h42c2.35 0 4.25-1.9 4.25-4.25v-32c0-2.35-1.9-4.25-4.25-4.25zm0 .5h42a3.736 3.736 0 0 1 3.75 3.75v32a3.736 3.736 0 0 1-3.75 3.75H54a3.736 3.736 0 0 1-3.75-3.75v-32a3.736 3.736 0 0 1 3.75-3.75z" fill="#000" style="font-feature-settings:normal;font-variant-alternates:normal;font-variant-caps:normal;font-variant-east-asian:normal;font-variant-ligatures:normal;font-variant-numeric:normal;font-variant-position:normal;font-variation-settings:normal;inline-size:0;isolation:auto;mix-blend-mode:normal;shape-margin:0;shape-padding:0;text-decoration-color:#000;text-decoration-line:none;text-decoration-style:solid;text-indent:0;text-orientation:mixed;text-transform:none;white-space:normal"/></g></g><path d="M54.688 152.46v-8l8 4z" stroke="none"/><path d="M54.438 144.05v8.81l.361-.181 8.448-4.223-8.809-4.406zm.5.809l7.191 3.597-7.191 3.594v-7.191z" color="#000" color-interpolation="sRGB" style="font-feature-settings:normal;font-variant-alternates:normal;font-variant-caps:normal;font-variant-east-asian:normal;font-variant-ligatures:normal;font-variant-numeric:normal;font-variant-position:normal;font-variation-settings:normal;inline-size:0;isolation:auto;mix-blend-mode:normal;shape-margin:0;shape-padding:0;text-decoration-color:#000;text-decoration-line:none;text-decoration-style:solid;text-indent:0;text-orientation:mixed;text-transform:none;white-space:normal" stroke="none"/><g transform="translate(-45.312 -21.543)" fill="#dcdcdc" stroke="none"><rect x="430" y="160" width="50" height="40" rx="4" ry="4"/><g color="#000" color-interpolation="sRGB"><path d="M434 160h42c2.216 0 4 1.784 4 4v32c0 2.216-1.784 4-4 4h-42c-2.216 0-4-1.784-4-4v-32c0-2.216 1.784-4 4-4z" style="font-feature-settings:normal;font-variant-alternates:normal;font-variant-caps:normal;font-variant-east-asian:normal;font-variant-ligatures:normal;font-variant-numeric:normal;font-variant-position:normal;font-variation-settings:normal;inline-size:0;isolation:auto;mix-blend-mode:normal;shape-margin:0;shape-padding:0;text-decoration-color:#000;text-decoration-line:none;text-decoration-style:solid;text-indent:0;text-orientation:mixed;text-transform:none;white-space:normal"/><path d="M434 159.75c-2.35 0-4.25 1.9-4.25 4.25v32c0 2.35 1.9 4.25 4.25 4.25h42c2.35 0 4.25-1.9 4.25-4.25v-32c0-2.35-1.9-4.25-4.25-4.25zm0 .5h42a3.736 3.736 0 0 1 3.75 3.75v32a3.736 3.736 0 0 1-3.75 3.75h-42a3.736 3.736 0 0 1-3.75-3.75v-32a3.736 3.736 0 0 1 3.75-3.75z" fill="#000" style="font-feature-settings:normal;font-variant-alternates:normal;font-variant-caps:normal;font-variant-east-asian:normal;font-variant-ligatures:normal;font-variant-numeric:normal;font-variant-position:normal;font-variation-settings:normal;inline-size:0;isolation:auto;mix-blend-mode:normal;shape-margin:0;shape-padding:0;text-decoration-color:#000;text-decoration-line:none;text-decoration-style:solid;text-indent:0;text-orientation:mixed;text-transform:none;white-space:normal"/></g><rect x="430" y="160" width="50" height="40" rx="4" ry="4"/><g color="#000" color-interpolation="sRGB"><path d="M434 160h42c2.216 0 4 1.784 4 4v32c0 2.216-1.784 4-4 4h-42c-2.216 0-4-1.784-4-4v-32c0-2.216 1.784-4 4-4z" style="font-feature-settings:normal;font-variant-alternates:normal;font-variant-caps:normal;font-variant-east-asian:normal;font-variant-ligatures:normal;font-variant-numeric:normal;font-variant-position:normal;font-variation-settings:normal;inline-size:0;isolation:auto;mix-blend-mode:normal;shape-margin:0;shape-padding:0;text-decoration-color:#000;text-decoration-line:none;text-decoration-style:solid;text-indent:0;text-orientation:mixed;text-transform:none;white-space:normal"/><path d="M434 159.75c-2.35 0-4.25 1.9-4.25 4.25v32c0 2.35 1.9 4.25 4.25 4.25h42c2.35 0 4.25-1.9 4.25-4.25v-32c0-2.35-1.9-4.25-4.25-4.25zm0 .5h42a3.736 3.736 0 0 1 3.75 3.75v32a3.736 3.736 0 0 1-3.75 3.75h-42a3.736 3.736 0 0 1-3.75-3.75v-32a3.736 3.736 0 0 1 3.75-3.75z" fill="#000" style="font-feature-settings:normal;font-variant-alternates:normal;font-variant-caps:normal;font-variant-east-asian:normal;font-variant-ligatures:normal;font-variant-numeric:normal;font-variant-position:normal;font-variation-settings:normal;inline-size:0;isolation:auto;mix-blend-mode:normal;shape-margin:0;shape-padding:0;text-decoration-color:#000;text-decoration-line:none;text-decoration-style:solid;text-indent:0;text-orientation:mixed;text-transform:none;white-space:normal"/></g></g><path d="M434.69 162.46v-8l8 4z" stroke="none"/><path d="M434.44 154.05v8.81l8.809-4.404-8.809-4.406zm.5.809l7.191 3.597-7.191 3.594v-7.191z" color="#000" color-interpolation="sRGB" style="font-feature-settings:normal;font-variant-alternates:normal;font-variant-caps:normal;font-variant-east-asian:normal;font-variant-ligatures:normal;font-variant-numeric:normal;font-variant-position:normal;font-variation-settings:normal;inline-size:0;isolation:auto;mix-blend-mode:normal;shape-margin:0;shape-padding:0;text-decoration-color:#000;text-decoration-line:none;text-decoration-style:solid;text-indent:0;text-orientation:mixed;text-transform:none;white-space:normal" stroke="none"/><g transform="matrix(1.2352 0 0 1.0691 -123.06 -26.39)" fill="#dcdcdc" stroke="none"><rect x="310" y="30" width="40" height="40" rx="3" ry="3"/><g color="#000" color-interpolation="sRGB"><path d="M313 30h34c1.662 0 3 1.338 3 3v34c0 1.662-1.338 3-3 3h-34c-1.662 0-3-1.338-3-3V33c0-1.662 1.338-3 3-3z" style="font-feature-settings:normal;font-variant-alternates:normal;font-variant-caps:normal;font-variant-east-asian:normal;font-variant-ligatures:normal;font-variant-numeric:normal;font-variant-position:normal;font-variation-settings:normal;inline-size:0;isolation:auto;mix-blend-mode:normal;shape-margin:0;shape-padding:0;text-decoration-color:#000;text-decoration-line:none;text-decoration-style:solid;text-indent:0;text-orientation:mixed;text-transform:none;white-space:normal"/><path d="M313 29.75a3.248 3.248 0 0 0-3.25 3.25v34a3.248 3.248 0 0 0 3.25 3.25h34a3.248 3.248 0 0 0 3.25-3.25V33a3.248 3.248 0 0 0-3.25-3.25zm0 .5h34a2.739 2.739 0 0 1 2.75 2.75v34a2.739 2.739 0 0 1-2.75 2.75h-34a2.739 2.739 0 0 1-2.75-2.75V33a2.739 2.739 0 0 1 2.75-2.75z" fill="#000" style="font-feature-settings:normal;font-variant-alternates:normal;font-variant-caps:normal;font-variant-east-asian:normal;font-variant-ligatures:normal;font-variant-numeric:normal;font-variant-position:normal;font-variation-settings:normal;inline-size:0;isolation:auto;mix-blend-mode:normal;shape-margin:0;shape-padding:0;text-decoration-color:#000;text-decoration-line:none;text-decoration-style:solid;text-indent:0;text-orientation:mixed;text-transform:none;white-space:normal"/></g></g><path d="M268.981 7.82a1.112.962 0 0 0-.084.004 1.112.962 0 0 0-.179.027 1.112.962 0 0 0-.094.025 1.112.962 0 0 0-.048.017 1.112.962 0 0 0-.058.02 1.112.962 0 0 0-.014.007 1.112.962 0 0 0-.068.031 1.112.962 0 0 0-.005.002 1.112.962 0 0 0-.07.04 1.112.962 0 0 0-.04.025 1.112.962 0 0 0-.04.025 1.112.962 0 0 0-.009.008 1.112.962 0 0 0-.068.055 1.112.962 0 0 0-.004.004 1.112.962 0 0 0-.056.054 1.112.962 0 0 0-.039.042 1.112.962 0 0 0-.021.025 1.112.962 0 0 0-.007.01 1.112.962 0 0 0-.049.065 1.112.962 0 0 0-.014.027 1.112.962 0 0 0-.034.059 1.112.962 0 0 0-.022.044l-.014.035-5.522 12.428-.022.046a1.112.962 0 0 0-.005.013 1.112.962 0 0 0-.014.04 1.112.962 0 0 0-.02.056 1.112.962 0 0 0-.005.02 1.112.962 0 0 0-.012.049 1.112.962 0 0 0-.012.065 1.112.962 0 0 0 0 .01 1.112.962 0 0 0-.007.069 1.112.962 0 0 0 0 .014 1.112.962 0 0 0 0 .009 1.112.962 0 0 0 .005.073 1.112.962 0 0 0 .007.052 1.112.962 0 0 0 .003.021 1.112.962 0 0 0 .004.023l2.217 12.487a1.112.962 0 0 0 .005.017 1.112.962 0 0 0 .005.023 1.112.962 0 0 0 .012.046 1.112.962 0 0 0 .01.033l3.324 11.514a1.112.962 0 0 0 .003.004 1.112.962 0 0 0 .026.078 1.112.962 0 0 0 .03.062 1.112.962 0 0 0 .009.023 1.112.962 0 0 0 .031.05 1.112.962 0 0 0 .015.023 1.112.962 0 0 0 .007.015 1.112.962 0 0 0 .04.054 1.112.962 0 0 0 .042.048 1.112.962 0 0 0 .026.03 1.112.962 0 0 0 .025.025 1.112.962 0 0 0 .04.035 1.112.962 0 0 0 .025.023 1.112.962 0 0 0 .058.042 1.112.962 0 0 0 .06.04 1.112.962 0 0 0 .02.012 1.112.962 0 0 0 .062.033 1.112.962 0 0 0 .065.03 1.112.962 0 0 0 .036.014 1.112.962 0 0 0 .027.01 1.112.962 0 0 0 .065.024 1.112.962 0 0 0 .007.002 1.112.962 0 0 0 .073.019 1.112.962 0 0 0 .096.018 1.112.962 0 0 0 .097.01 1.112.962 0 0 0 .094.005 1.112.962 0 0 0 .004 0h31.121a1.112.962 0 0 0 .024 0 1.112.962 0 0 0 .049-.002 1.112.962 0 0 0 .026-.002 1.112.962 0 0 0 .024-.002 1.112.962 0 0 0 .02-.002 1.112.962 0 0 0 .077-.01 1.112.962 0 0 0 .002 0 1.112.962 0 0 0 .092-.022 1.112.962 0 0 0 .002 0 1.112.962 0 0 0 .07-.02 1.112.962 0 0 0 .092-.034 1.112.962 0 0 0 .022-.008 1.112.962 0 0 0 .065-.032 1.112.962 0 0 0 .02-.01 1.112.962 0 0 0 .062-.036 1.112.962 0 0 0 .02-.012 1.112.962 0 0 0 .06-.04 1.112.962 0 0 0 .016-.012 1.112.962 0 0 0 .053-.046 1.112.962 0 0 0 .017-.015 1.112.962 0 0 0 .017-.014 1.112.962 0 0 0 .046-.048 1.112.962 0 0 0 .003-.003 1.112.962 0 0 0 .043-.052 1.112.962 0 0 0 .012-.016 1.112.962 0 0 0 .039-.057 1.112.962 0 0 0 .03-.052 1.112.962 0 0 0 .015-.025 1.112.962 0 0 0 .008-.017 1.112.962 0 0 0 .026-.062 1.112.962 0 0 0 .007-.02 1.112.962 0 0 0 .022-.058v-.004l3.334-11.543a1.112.962 0 0 0 .02-.086l2.224-12.51a1.112.962 0 0 0 .01-.083 1.112.962 0 0 0 .002-.062 1.112.962 0 0 0 0-.009 1.112.962 0 0 0-.005-.06 1.112.962 0 0 0 0-.017 1.112.962 0 0 0-.002-.023 1.112.962 0 0 0-.01-.06 1.112.962 0 0 0-.005-.023 1.112.962 0 0 0-.017-.061 1.112.962 0 0 0-.007-.023 1.112.962 0 0 0-.022-.058 1.112.962 0 0 0-.004-.01l-5.554-12.498a1.112.962 0 0 0-.005-.012 1.112.962 0 0 0-.034-.067 1.112.962 0 0 0-.007-.01 1.112.962 0 0 0-.038-.065 1.112.962 0 0 0-.008-.01 1.112.962 0 0 0-.048-.061 1.112.962 0 0 0-.06-.067 1.112.962 0 0 0-.01-.01 1.112.962 0 0 0-.058-.053 1.112.962 0 0 0-.01-.008 1.112.962 0 0 0-.062-.048 1.112.962 0 0 0-.012-.008 1.112.962 0 0 0-.068-.044 1.112.962 0 0 0-.012-.006 1.112.962 0 0 0-.072-.038 1.112.962 0 0 0-.012-.006 1.112.962 0 0 0-.075-.032 1.112.962 0 0 0-.015-.006 1.112.962 0 0 0-.077-.025 1.112.962 0 0 0-.014-.004 1.112.962 0 0 0-.015-.004 1.112.962 0 0 0-.08-.019 1.112.962 0 0 0-.081-.015 1.112.962 0 0 0-.056-.004 1.112.962 0 0 0-.043-.004 1.112.962 0 0 0-.015 0 1.112.962 0 0 0-.058-.002h-31.125a1.112.962 0 0 0-.015 0zm.777 1.925h29.602l4.702 10.582h-39.006l4.702-10.582zm-5.025 12.507h39.652l-1.882 10.595a1.112.962 0 0 0-.156-.01h-35.732l-1.882-10.585zm2.352 12.508h34.95l-2.782 9.622h-29.389l-2.78-9.622z" color="#000" color-interpolation="sRGB" fill="#c00" image-rendering="optimizeSpeed" style="font-feature-settings:normal;font-variant-alternates:normal;font-variant-caps:normal;font-variant-east-asian:normal;font-variant-ligatures:normal;font-variant-numeric:normal;font-variant-position:normal;font-variation-settings:normal;inline-size:0;isolation:auto;mix-blend-mode:normal;shape-margin:0;shape-padding:0;text-decoration-color:#000;text-decoration-line:none;text-decoration-style:solid;text-indent:0;text-orientation:mixed;text-transform:none;white-space:normal" stroke="none"/><path d="M284.57 34.502c-3.191 0-5.818 2.25-5.818 5.068 0 2.819 2.627 5.07 5.818 5.07s5.816-2.251 5.816-5.07c0-2.818-2.625-5.068-5.816-5.068zm0 .516c2.95 0 5.3 2.057 5.3 4.552 0 2.496-2.35 4.553-5.3 4.553-2.95 0-5.3-2.057-5.3-4.553 0-2.495 2.35-4.552 5.3-4.552z" color="#000" color-interpolation="sRGB" fill="#c00" image-rendering="optimizeSpeed" style="font-feature-settings:normal;font-variant-alternates:normal;font-variant-caps:normal;font-variant-east-asian:normal;font-variant-ligatures:normal;font-variant-numeric:normal;font-variant-position:normal;font-variation-settings:normal;inline-size:0;isolation:auto;mix-blend-mode:normal;shape-margin:0;shape-padding:0;text-decoration-color:#000;text-decoration-line:none;text-decoration-style:solid;text-indent:0;text-orientation:mixed;text-transform:none;white-space:normal" stroke="none"/><ellipse cx="284.57" cy="39.571" rx=".834" ry=".722" image-rendering="optimizeSpeed" stroke="none"/><path d="M287.867 36.445a.278.24 0 0 0-.168.07l-3.137 2.717-2.029-1.756a.278.24 0 0 0-.393 0 .278.24 0 0 0 0 .34l2.195 1.899.03.027a.278.24 0 0 0 .224.069.278.24 0 0 0 .048-.009.278.24 0 0 0 .087-.037.278.24 0 0 0 .034-.023l3.334-2.888a.278.24 0 0 0 0-.338.278.24 0 0 0-.225-.071z" color="#000" color-interpolation="sRGB" image-rendering="optimizeSpeed" style="font-feature-settings:normal;font-variant-alternates:normal;font-variant-caps:normal;font-variant-east-asian:normal;font-variant-ligatures:normal;font-variant-numeric:normal;font-variant-position:normal;font-variation-settings:normal;inline-size:0;isolation:auto;mix-blend-mode:normal;shape-margin:0;shape-padding:0;text-decoration-color:#000;text-decoration-line:none;text-decoration-style:solid;text-indent:0;text-orientation:mixed;text-transform:none;white-space:normal" stroke="none"/><g fill="red" stroke="none"><path d="M280.69 48.452h8l-4 8z"/><path d="M280.29 48.201l.182.363 4.222 8.448 4.405-8.81zm.809.5h7.191l-3.594 7.191z" color="#000" color-interpolation="sRGB" style="font-feature-settings:normal;font-variant-alternates:normal;font-variant-caps:normal;font-variant-east-asian:normal;font-variant-ligatures:normal;font-variant-numeric:normal;font-variant-position:normal;font-variation-settings:normal;inline-size:0;isolation:auto;mix-blend-mode:normal;shape-margin:0;shape-padding:0;text-decoration-color:#000;text-decoration-line:none;text-decoration-style:solid;text-indent:0;text-orientation:mixed;text-transform:none;white-space:normal"/></g><g transform="translate(-45.312 -21.543)" fill="#dcdcdc" stroke="none"><circle cx="120" cy="120" r="10"/><g color="#000" color-interpolation="sRGB"><path d="M130 120c0 5.523-4.477 10-10 10s-10-4.477-10-10 4.477-10 10-10 10 4.477 10 10z" style="font-feature-settings:normal;font-variant-alternates:normal;font-variant-caps:normal;font-variant-east-asian:normal;font-variant-ligatures:normal;font-variant-numeric:normal;font-variant-position:normal;font-variation-settings:normal;inline-size:0;isolation:auto;mix-blend-mode:normal;shape-margin:0;shape-padding:0;text-decoration-color:#000;text-decoration-line:none;text-decoration-style:solid;text-indent:0;text-orientation:mixed;text-transform:none;white-space:normal"/><path d="M120 109.75c-5.658 0-10.25 4.592-10.25 10.25s4.592 10.25 10.25 10.25 10.25-4.592 10.25-10.25-4.592-10.25-10.25-10.25zm0 .5c5.388 0 9.75 4.362 9.75 9.75s-4.362 9.75-9.75 9.75-9.75-4.362-9.75-9.75 4.362-9.75 9.75-9.75z" fill="#000" style="font-feature-settings:normal;font-variant-alternates:normal;font-variant-caps:normal;font-variant-east-asian:normal;font-variant-ligatures:normal;font-variant-numeric:normal;font-variant-position:normal;font-variation-settings:normal;inline-size:0;isolation:auto;mix-blend-mode:normal;shape-margin:0;shape-padding:0;text-decoration-color:#000;text-decoration-line:none;text-decoration-style:solid;text-indent:0;text-orientation:mixed;text-transform:none;white-space:normal"/></g></g><path transform="translate(66.337 85.549)" d="M9.203 6.453v5.453h5.438v1.656H9.203V19h-1.64v-5.438H2.124v-1.656h5.437V6.453z" clip-path="url(#clipPath2)" stroke="none"/><path d="M78.692 116.45h-8l4-8z" stroke="none"/><path d="M74.691 107.89l-4.404 8.809h8.808l-.18-.362-4.224-8.447zm0 1.12l3.596 7.189h-7.19l3.594-7.19z" color="#000" color-interpolation="sRGB" style="font-feature-settings:normal;font-variant-alternates:normal;font-variant-caps:normal;font-variant-east-asian:normal;font-variant-ligatures:normal;font-variant-numeric:normal;font-variant-position:normal;font-variation-settings:normal;inline-size:0;isolation:auto;mix-blend-mode:normal;shape-margin:0;shape-padding:0;text-decoration-color:#000;text-decoration-line:none;text-decoration-style:solid;text-indent:0;text-orientation:mixed;text-transform:none;white-space:normal" stroke="none"/><path d="M70.692 80.452h8l-4 8z" stroke="none"/><path d="M70.287 80.201l.182.363 4.222 8.448 4.405-8.81h-8.809zm.81.5h7.192l-3.598 7.191-3.594-7.191z" color="#000" color-interpolation="sRGB" style="font-feature-settings:normal;font-variant-alternates:normal;font-variant-caps:normal;font-variant-east-asian:normal;font-variant-ligatures:normal;font-variant-numeric:normal;font-variant-position:normal;font-variation-settings:normal;inline-size:0;isolation:auto;mix-blend-mode:normal;shape-margin:0;shape-padding:0;text-decoration-color:#000;text-decoration-line:none;text-decoration-style:solid;text-indent:0;text-orientation:mixed;text-transform:none;white-space:normal" stroke="none"/><path d="M84.688 102.46v-8l8 4z" stroke="none"/><path d="M84.438 94.055v8.81l.361-.181 8.448-4.223-8.809-4.406zm.5.809l7.191 3.597-7.191 3.594v-7.191z" color="#000" color-interpolation="sRGB" style="font-feature-settings:normal;font-variant-alternates:normal;font-variant-caps:normal;font-variant-east-asian:normal;font-variant-ligatures:normal;font-variant-numeric:normal;font-variant-position:normal;font-variation-settings:normal;inline-size:0;isolation:auto;mix-blend-mode:normal;shape-margin:0;shape-padding:0;text-decoration-color:#000;text-decoration-line:none;text-decoration-style:solid;text-indent:0;text-orientation:mixed;text-transform:none;white-space:normal" stroke="none"/><g transform="translate(-45.312 -21.543)" fill="#dcdcdc" stroke="none"><circle cx="540" cy="140" r="10"/><g color="#000" color-interpolation="sRGB"><path d="M550 140c0 5.523-4.477 10-10 10s-10-4.477-10-10 4.477-10 10-10 10 4.477 10 10z" style="font-feature-settings:normal;font-variant-alternates:normal;font-variant-caps:normal;font-variant-east-asian:normal;font-variant-ligatures:normal;font-variant-numeric:normal;font-variant-position:normal;font-variation-settings:normal;inline-size:0;isolation:auto;mix-blend-mode:normal;shape-margin:0;shape-padding:0;text-decoration-color:#000;text-decoration-line:none;text-decoration-style:solid;text-indent:0;text-orientation:mixed;text-transform:none;white-space:normal"/><path d="M540 129.75c-5.658 0-10.25 4.592-10.25 10.25s4.592 10.25 10.25 10.25 10.25-4.592 10.25-10.25-4.592-10.25-10.25-10.25zm0 .5c5.388 0 9.75 4.362 9.75 9.75s-4.362 9.75-9.75 9.75-9.75-4.362-9.75-9.75 4.362-9.75 9.75-9.75z" fill="#000" style="font-feature-settings:normal;font-variant-alternates:normal;font-variant-caps:normal;font-variant-east-asian:normal;font-variant-ligatures:normal;font-variant-numeric:normal;font-variant-position:normal;font-variation-settings:normal;inline-size:0;isolation:auto;mix-blend-mode:normal;shape-margin:0;shape-padding:0;text-decoration-color:#000;text-decoration-line:none;text-decoration-style:solid;text-indent:0;text-orientation:mixed;text-transform:none;white-space:normal"/></g></g><path transform="translate(486.37 105.58)" d="M9.203 6.453v5.453h5.438v1.656H9.203V19h-1.64v-5.438H2.124v-1.656h5.437V6.453z" clip-path="url(#clipPath2)" stroke="none"/><path d="M498.69 136.45h-8l4-8z" stroke="none"/><path d="M494.69 127.89l-4.404 8.809h8.808l-.18-.362-4.224-8.447zm.002 1.12l3.594 7.189h-7.19l3.596-7.19z" color="#000" color-interpolation="sRGB" style="font-feature-settings:normal;font-variant-alternates:normal;font-variant-caps:normal;font-variant-east-asian:normal;font-variant-ligatures:normal;font-variant-numeric:normal;font-variant-position:normal;font-variation-settings:normal;inline-size:0;isolation:auto;mix-blend-mode:normal;shape-margin:0;shape-padding:0;text-decoration-color:#000;text-decoration-line:none;text-decoration-style:solid;text-indent:0;text-orientation:mixed;text-transform:none;white-space:normal" stroke="none"/><path d="M490.69 100.45h8l-4 8z" stroke="none"/><path d="M490.29 100.2l.182.363 4.222 8.448 4.405-8.811h-8.81zm.809.5h7.191l-3.594 7.191-3.598-7.191z" color="#000" color-interpolation="sRGB" style="font-feature-settings:normal;font-variant-alternates:normal;font-variant-caps:normal;font-variant-east-asian:normal;font-variant-ligatures:normal;font-variant-numeric:normal;font-variant-position:normal;font-variation-settings:normal;inline-size:0;isolation:auto;mix-blend-mode:normal;shape-margin:0;shape-padding:0;text-decoration-color:#000;text-decoration-line:none;text-decoration-style:solid;text-indent:0;text-orientation:mixed;text-transform:none;white-space:normal" stroke="none"/><path d="M504.69 114.46l8 4-8 4z" stroke="none"/><path d="M504.44 114.05v8.811l8.809-4.405-8.809-4.406zm.5.809l7.191 3.597-7.191 3.594v-7.191z" color="#000" color-interpolation="sRGB" style="font-feature-settings:normal;font-variant-alternates:normal;font-variant-caps:normal;font-variant-east-asian:normal;font-variant-ligatures:normal;font-variant-numeric:normal;font-variant-position:normal;font-variation-settings:normal;inline-size:0;isolation:auto;mix-blend-mode:normal;shape-margin:0;shape-padding:0;text-decoration-color:#000;text-decoration-line:none;text-decoration-style:solid;text-indent:0;text-orientation:mixed;text-transform:none;white-space:normal" stroke="none"/><g transform="translate(-45.312 -21.543)" fill="#dcdcdc" stroke="none"><rect x="240" y="90" width="180" height="60" rx="13.5" ry="13.5"/><g color="#000" color-interpolation="sRGB"><path d="M253.5 90h153a13.47 13.47 0 0 1 13.5 13.5v33a13.47 13.47 0 0 1-13.5 13.5h-153a13.47 13.47 0 0 1-13.5-13.5v-33A13.47 13.47 0 0 1 253.5 90z" style="font-feature-settings:normal;font-variant-alternates:normal;font-variant-caps:normal;font-variant-east-asian:normal;font-variant-ligatures:normal;font-variant-numeric:normal;font-variant-position:normal;font-variation-settings:normal;inline-size:0;isolation:auto;mix-blend-mode:normal;shape-margin:0;shape-padding:0;text-decoration-color:#000;text-decoration-line:none;text-decoration-style:solid;text-indent:0;text-orientation:mixed;text-transform:none;white-space:normal"/><path d="M253.5 89.75a13.725 13.725 0 0 0-13.75 13.75v33c0 7.613 6.137 13.75 13.75 13.75h153c7.613 0 13.75-6.137 13.75-13.75v-33c0-7.613-6.137-13.75-13.75-13.75zm0 .5h153c7.345 0 13.25 5.905 13.25 13.25v33c0 7.345-5.905 13.25-13.25 13.25h-153a13.216 13.216 0 0 1-13.25-13.25v-33c0-7.345 5.905-13.25 13.25-13.25z" fill="#000" style="font-feature-settings:normal;font-variant-alternates:normal;font-variant-caps:normal;font-variant-east-asian:normal;font-variant-ligatures:normal;font-variant-numeric:normal;font-variant-position:normal;font-variation-settings:normal;inline-size:0;isolation:auto;mix-blend-mode:normal;shape-margin:0;shape-padding:0;text-decoration-color:#000;text-decoration-line:none;text-decoration-style:solid;text-indent:0;text-orientation:mixed;text-transform:none;white-space:normal"/></g><rect x="240" y="90" width="180" height="60" rx="13.5" ry="13.5"/><g color="#000" color-interpolation="sRGB"><path d="M253.5 90h153a13.47 13.47 0 0 1 13.5 13.5v33a13.47 13.47 0 0 1-13.5 13.5h-153a13.47 13.47 0 0 1-13.5-13.5v-33A13.47 13.47 0 0 1 253.5 90z" style="font-feature-settings:normal;font-variant-alternates:normal;font-variant-caps:normal;font-variant-east-asian:normal;font-variant-ligatures:normal;font-variant-numeric:normal;font-variant-position:normal;font-variation-settings:normal;inline-size:0;isolation:auto;mix-blend-mode:normal;shape-margin:0;shape-padding:0;text-decoration-color:#000;text-decoration-line:none;text-decoration-style:solid;text-indent:0;text-orientation:mixed;text-transform:none;white-space:normal"/><path d="M253.5 89.75a13.725 13.725 0 0 0-13.75 13.75v33c0 7.613 6.137 13.75 13.75 13.75h153c7.613 0 13.75-6.137 13.75-13.75v-33c0-7.613-6.137-13.75-13.75-13.75zm0 .5h153c7.345 0 13.25 5.905 13.25 13.25v33c0 7.345-5.905 13.25-13.25 13.25h-153a13.216 13.216 0 0 1-13.25-13.25v-33c0-7.345 5.905-13.25 13.25-13.25z" fill="#000" style="font-feature-settings:normal;font-variant-alternates:normal;font-variant-caps:normal;font-variant-east-asian:normal;font-variant-ligatures:normal;font-variant-numeric:normal;font-variant-position:normal;font-variation-settings:normal;inline-size:0;isolation:auto;mix-blend-mode:normal;shape-margin:0;shape-padding:0;text-decoration-color:#000;text-decoration-line:none;text-decoration-style:solid;text-indent:0;text-orientation:mixed;text-transform:none;white-space:normal"/></g></g><path d="M186.69 102.46v-8l8 4z" stroke="none"/><path d="M186.44 94.055v8.81l8.809-4.404-8.809-4.406zm.5.809l7.191 3.597-7.191 3.594v-7.191z" color="#000" color-interpolation="sRGB" style="font-feature-settings:normal;font-variant-alternates:normal;font-variant-caps:normal;font-variant-east-asian:normal;font-variant-ligatures:normal;font-variant-numeric:normal;font-variant-position:normal;font-variation-settings:normal;inline-size:0;isolation:auto;mix-blend-mode:normal;shape-margin:0;shape-padding:0;text-decoration-color:#000;text-decoration-line:none;text-decoration-style:solid;text-indent:0;text-orientation:mixed;text-transform:none;white-space:normal" stroke="none"/><path d="M374.69 102.46v-8l8 4z" stroke="none"/><path d="M374.44 94.055v8.81l8.809-4.404-8.809-4.406zm.5.809l7.191 3.597-7.191 3.594v-7.191z" color="#000" color-interpolation="sRGB" style="font-feature-settings:normal;font-variant-alternates:normal;font-variant-caps:normal;font-variant-east-asian:normal;font-variant-ligatures:normal;font-variant-numeric:normal;font-variant-position:normal;font-variation-settings:normal;inline-size:0;isolation:auto;mix-blend-mode:normal;shape-margin:0;shape-padding:0;text-decoration-color:#000;text-decoration-line:none;text-decoration-style:solid;text-indent:0;text-orientation:mixed;text-transform:none;white-space:normal" stroke="none"/><g fill="red" stroke="none"><path d="M280.69 60.452h8l-4 8z"/><path d="M280.29 60.201l.182.363 4.222 8.448 4.405-8.81zm.809.5h7.191l-3.594 7.191z" color="#000" color-interpolation="sRGB" style="font-feature-settings:normal;font-variant-alternates:normal;font-variant-caps:normal;font-variant-east-asian:normal;font-variant-ligatures:normal;font-variant-numeric:normal;font-variant-position:normal;font-variation-settings:normal;inline-size:0;isolation:auto;mix-blend-mode:normal;shape-margin:0;shape-padding:0;text-decoration-color:#000;text-decoration-line:none;text-decoration-style:solid;text-indent:0;text-orientation:mixed;text-transform:none;white-space:normal"/></g><g fill="#dcdcdc" stroke="none"><path d="M114.69 68.457l60 30-60 30z"/><g color="#000" color-interpolation="sRGB"><path d="M114.69 68.457l60 30-60 30z" style="font-feature-settings:normal;font-variant-alternates:normal;font-variant-caps:normal;font-variant-east-asian:normal;font-variant-ligatures:normal;font-variant-numeric:normal;font-variant-position:normal;font-variation-settings:normal;inline-size:0;isolation:auto;mix-blend-mode:normal;shape-margin:0;shape-padding:0;text-decoration-color:#000;text-decoration-line:none;text-decoration-style:solid;text-indent:0;text-orientation:mixed;text-transform:none;white-space:normal"/><path d="M114.44 68.053v60.809l60.809-30.404zm.5.807l59.191 29.598-59.191 29.594z" fill="#000" style="font-feature-settings:normal;font-variant-alternates:normal;font-variant-caps:normal;font-variant-east-asian:normal;font-variant-ligatures:normal;font-variant-numeric:normal;font-variant-position:normal;font-variation-settings:normal;inline-size:0;isolation:auto;mix-blend-mode:normal;shape-margin:0;shape-padding:0;text-decoration-color:#000;text-decoration-line:none;text-decoration-style:solid;text-indent:0;text-orientation:mixed;text-transform:none;white-space:normal"/></g></g><path d="M114.69 98.457l-8 4v-8z" stroke="none"/><path d="M106.44 94.053v8.809l8.809-4.405-.446-.224-8.363-4.18zm.5.807l7.191 3.597-7.191 3.594V94.86z" color="#000" color-interpolation="sRGB" style="font-feature-settings:normal;font-variant-alternates:normal;font-variant-caps:normal;font-variant-east-asian:normal;font-variant-ligatures:normal;font-variant-numeric:normal;font-variant-position:normal;font-variation-settings:normal;inline-size:0;isolation:auto;mix-blend-mode:normal;shape-margin:0;shape-padding:0;text-decoration-color:#000;text-decoration-line:none;text-decoration-style:solid;text-indent:0;text-orientation:mixed;text-transform:none;white-space:normal" stroke="none"/><path d="M174.69 102.46v-8l8 4z" stroke="none"/><path d="M174.44 94.055v8.81l8.809-4.404-8.809-4.406zm.5.809l7.191 3.597-7.191 3.594v-7.191z" color="#000" color-interpolation="sRGB" style="font-feature-settings:normal;font-variant-alternates:normal;font-variant-caps:normal;font-variant-east-asian:normal;font-variant-ligatures:normal;font-variant-numeric:normal;font-variant-position:normal;font-variation-settings:normal;inline-size:0;isolation:auto;mix-blend-mode:normal;shape-margin:0;shape-padding:0;text-decoration-color:#000;text-decoration-line:none;text-decoration-style:solid;text-indent:0;text-orientation:mixed;text-transform:none;white-space:normal" stroke="none"/><path d="M284.19 54.457v8h1v-8h-1z" color="#000" color-interpolation="sRGB" fill="red" style="font-feature-settings:normal;font-variant-alternates:normal;font-variant-caps:normal;font-variant-east-asian:normal;font-variant-ligatures:normal;font-variant-numeric:normal;font-variant-position:normal;font-variation-settings:normal;inline-size:0;isolation:auto;mix-blend-mode:normal;shape-margin:0;shape-padding:0;text-decoration-color:#000;text-decoration-line:none;text-decoration-style:solid;text-indent:0;text-orientation:mixed;text-transform:none;white-space:normal" stroke="none"/><g stroke="none" color="#000" color-interpolation="sRGB"><path d="M24.116 54.262h1.052v7.776h-1.052zm3.146 0h1.417l3.448 6.505v-6.505h1.02v7.776h-1.416l-3.448-6.505v6.505h-1.021z" style="font-feature-settings:normal;font-variant-alternates:normal;font-variant-caps:normal;font-variant-east-asian:normal;font-variant-ligatures:normal;font-variant-numeric:normal;font-variant-position:normal;font-variation-settings:normal;inline-size:0;isolation:auto;mix-blend-mode:normal;shape-margin:0;shape-padding:0;text-decoration-color:#000;text-decoration-line:none;text-decoration-style:solid;text-indent:0;text-orientation:mixed;text-transform:none;white-space:normal"/><path d="M27.783 53.521v.24h-1.022v8.776h2.022v-4.994l2.647 4.994h1.07l.127.24v-.24h1.02V53.76h-2.02v4.994l-2.647-4.994h-1.07zm-4.168.24v8.776h2.053V53.76zm1 1h.053v6.776h-.053zm3.147 0h.021v6.776h-.021zm4.865 0h.02v6.776h-.02zM551.64 115.34c-.764 0-1.372.285-1.823.854-.448.57-.672 1.345-.672 2.328 0 .98.224 1.754.672 2.323.451.57 1.059.854 1.823.854s1.368-.285 1.813-.854c.447-.57.671-1.344.671-2.323 0-.983-.224-1.759-.672-2.328-.444-.57-1.048-.854-1.812-.854zm0-.854c1.09 0 1.962.366 2.615 1.099.653.73.979 1.708.979 2.937 0 1.226-.327 2.205-.98 2.938-.653.73-1.524 1.094-2.614 1.094-1.093 0-1.968-.365-2.625-1.094-.653-.73-.98-1.709-.98-2.938s.327-2.208.98-2.937c.656-.733 1.531-1.1 2.625-1.1zm5.12.134h1.057v4.724c0 .833.151 1.434.453 1.802.303.365.793.547 1.47.547.673 0 1.161-.182 1.463-.547.302-.368.453-.969.453-1.802v-4.724h1.057v4.854c0 1.014-.252 1.78-.755 2.297-.5.517-1.24.776-2.219.776-.983 0-1.726-.259-2.23-.776-.5-.517-.75-1.283-.75-2.297zm6.85 0h6.578v.885h-2.76v6.891h-1.057v-6.89h-2.76z" style="font-feature-settings:normal;font-variant-alternates:normal;font-variant-caps:normal;font-variant-east-asian:normal;font-variant-ligatures:normal;font-variant-numeric:normal;font-variant-position:normal;font-variation-settings:normal;inline-size:0;isolation:auto;mix-blend-mode:normal;shape-margin:0;shape-padding:0;text-decoration-color:#000;text-decoration-line:none;text-decoration-style:solid;text-indent:0;text-orientation:mixed;text-transform:none;white-space:normal"/><path d="M551.64 113.98c-1.206 0-2.25.431-2.998 1.268-.747.832-1.107 1.951-1.107 3.27 0 1.317.36 2.437 1.107 3.27v.003c.749.831 1.793 1.26 2.998 1.26 1.202 0 2.241-.43 2.986-1.262.746-.836 1.108-1.957 1.108-3.272 0-1.317-.362-2.436-1.108-3.27-.633-.709-1.509-1.06-2.486-1.17v-.097zm4.62.135v5.355c0 1.096.276 2.01.89 2.645.617.633 1.517.928 2.588.928 1.066 0 1.965-.294 2.578-.928.617-.635.896-1.548.896-2.645v-3.469h2.658v6.891h2.057v-6.89h2.76v-1.887h-9.531v5.224c0 .772-.156 1.257-.34 1.483-.186.223-.494.367-1.076.367-.587 0-.899-.143-1.084-.365v-.002c-.185-.226-.34-.71-.34-1.483v-5.224zm1 1h.056v4.224c0 .878.154 1.571.556 2.08 0 0-.003 0-.004-.002-.385-.4-.609-1.016-.609-1.947zm4.896 0h.056v4.355c0 .92-.225 1.521-.605 1.922.39-.507.549-1.187.549-2.053zm4.714 0h.057v6.777h-.057zm-15.23.72c.64 0 1.06.203 1.418.663v.002c.362.459.565 1.11.565 2.017 0 .903-.201 1.554-.563 2.014l-.002.002c-.359.46-.778.662-1.418.662-.64 0-1.065-.202-1.431-.664-.362-.46-.565-1.11-.565-2.014 0-.906.203-1.558.565-2.017.366-.462.792-.664 1.431-.664zm-2.218.053c-.531.679-.778 1.574-.778 2.63 0 1.054.247 1.95.78 2.628-.011-.012-.027-.014-.037-.025-.56-.626-.852-1.464-.852-2.604 0-1.14.292-1.979.852-2.603.01-.012.025-.015.035-.026zm4.426.002c.01.01.023.013.033.024h.002c.56.625.851 1.463.851 2.603 0 1.137-.292 1.976-.853 2.606-.01.011-.025.014-.035.025.532-.679.777-1.576.777-2.63 0-1.056-.245-1.95-.775-2.628z" style="font-feature-settings:normal;font-variant-alternates:normal;font-variant-caps:normal;font-variant-east-asian:normal;font-variant-ligatures:normal;font-variant-numeric:normal;font-variant-position:normal;font-variation-settings:normal;inline-size:0;isolation:auto;mix-blend-mode:normal;shape-margin:0;shape-padding:0;text-decoration-color:#000;text-decoration-line:none;text-decoration-style:solid;text-indent:0;text-orientation:mixed;text-transform:none;white-space:normal"/></g><path d="M62.689 57.957v1h11.502v23h1v-24H62.689zm432.5 40l-32.5.004v1l31.5-.004v3h1v-4zm-402.5.004v1h13.928v-1H92.689zm90.002 0v1h3.81v-1h-3.81zm200 0v1h4.207v-1h-4.207zm-308.5 16.994l-.104 33.006H62.69v1h12.396l.106-34.002-1-.004zm452 3.002l-10.793.004h-2.707v1h2.707l10.793-.004h.238v-1h-.238zm-32 16.998l-.049 23.006h-51.45v1h52.448l.051-24.002-1-.004z" color="#000" color-interpolation="sRGB" fill="#2e2efe" style="font-feature-settings:normal;font-variant-alternates:normal;font-variant-caps:normal;font-variant-east-asian:normal;font-variant-ligatures:normal;font-variant-numeric:normal;font-variant-position:normal;font-variation-settings:normal;inline-size:0;isolation:auto;mix-blend-mode:normal;shape-margin:0;shape-padding:0;text-decoration-color:#000;text-decoration-line:none;text-decoration-style:solid;text-indent:0;text-orientation:mixed;text-transform:none;white-space:normal" stroke="none"/><path d="M199.55 102v.924H369.8V102H199.55z" color="#000" color-interpolation="sRGB" style="font-feature-settings:normal;font-variant-alternates:normal;font-variant-caps:normal;font-variant-east-asian:normal;font-variant-ligatures:normal;font-variant-numeric:normal;font-variant-position:normal;font-variation-settings:normal;inline-size:0;isolation:auto;mix-blend-mode:normal;shape-margin:0;shape-padding:0;text-decoration-color:#000;text-decoration-line:none;text-decoration-style:solid;text-indent:0;text-orientation:mixed;text-transform:none;white-space:normal" stroke="none"/></svg>