<svg width="295" height="454" viewBox="0 0 23661 36456" xmlns="http://www.w3.org/2000/svg"><g clip-path="url(#a)" mask="url(#b)" transform="translate(-38170 -13170)"><defs><clipPath id="a"><path d="M38188 13188v36418h23623V13188H38188" fill-rule="evenodd"/></clipPath></defs><g fill="#313d63" stroke="#313d63"><path d="M38188 13188v36418h23623V13188H38188" fill-rule="evenodd"/><g fill-opacity="0" stroke-linecap="round" stroke-linejoin="round" stroke-width="39.37" fill="none" stroke="#000"><path d="M61811 13188H38188M61811 49606V13188M38188 49606h23623M38188 13188v36418"/></g></g><g stroke-linecap="round" stroke-linejoin="round" stroke-width="0" fill="#9c6b28" stroke="#9c6b28"><g stroke="none"><circle cx="45669" cy="38142" r="314.96"/><circle cx="52669" cy="41142" r="314.96"/><circle cx="46669" cy="38142" r="314.96"/><circle cx="51669" cy="41142" r="314.96"/><circle cx="47669" cy="38142" r="314.96"/><circle cx="50669" cy="41142" r="314.96"/><circle cx="48669" cy="38142" r="314.96"/><circle cx="49669" cy="41142" r="314.96"/><circle cx="49669" cy="38142" r="314.96"/><circle cx="48669" cy="41142" r="314.96"/><circle cx="50669" cy="38142" r="314.96"/><circle cx="47669" cy="41142" r="314.96"/><circle cx="51669" cy="38142" r="314.96"/><circle cx="46669" cy="41142" r="314.96"/><circle cx="52669" cy="38142" r="314.96"/><path d="M45984 41457h-630v-629.9h630z" fill-rule="evenodd"/><circle cx="44654" cy="42716" r="275.59"/><circle cx="46654" cy="42716" r="275.59"/><circle cx="47606" cy="42716" r="275.59"/><circle cx="49606" cy="42716" r="275.59"/><circle cx="52591" cy="42716" r="275.59"/><circle cx="50591" cy="42716" r="275.59"/><circle cx="55543" cy="42716" r="275.59"/><circle cx="53543" cy="42716" r="275.59"/><circle cx="47898" cy="13980" r="300"/><circle cx="48748" cy="13980" r="300"/><circle cx="49583" cy="13980" r="300"/><circle cx="50394" cy="13965" r="300"/><circle cx="51256" cy="13965" r="300"/><circle cx="52122" cy="13980" r="300"/><circle cx="39370" cy="43929" r="334.65"/><circle cx="39370" cy="42929" r="334.65"/><circle cx="39370" cy="41929" r="334.65"/><circle cx="39370" cy="40929" r="334.65"/><circle cx="39370" cy="39929" r="334.65"/><path d="M39035 39264v-669.3h669.3v669.3z" fill-rule="evenodd"/><circle cx="45669" cy="44079" r="354.33"/></g><path d="M46024 45433h-708.6v-708.7h708.6z" fill-rule="evenodd" stroke="none"/><circle cx="48622" cy="44079" r="354.33" stroke="none"/><path d="M48976 45433h-708.7v-708.7h708.7z" fill-rule="evenodd" stroke="none"/><circle cx="51772" cy="44079" r="354.33" stroke="none"/><path d="M52126 45433h-708.7v-708.7h708.7z" fill-rule="evenodd" stroke="none"/><circle cx="54528" cy="44079" r="354.33" stroke="none"/><path d="M54882 45433h-708.7v-708.7h708.7z" fill-rule="evenodd" stroke="none"/></g><g fill="#212d53" stroke="#212d53" stroke-linecap="round" stroke-linejoin="round" stroke-width="0"><g stroke="none"><circle cx="45669" cy="38142" r="314.96"/><circle cx="52669" cy="41142" r="314.96"/><circle cx="46669" cy="38142" r="314.96"/><circle cx="51669" cy="41142" r="314.96"/><circle cx="47669" cy="38142" r="314.96"/><circle cx="50669" cy="41142" r="314.96"/><circle cx="48669" cy="38142" r="314.96"/><circle cx="49669" cy="41142" r="314.96"/><circle cx="49669" cy="38142" r="314.96"/><circle cx="48669" cy="41142" r="314.96"/><circle cx="50669" cy="38142" r="314.96"/><circle cx="47669" cy="41142" r="314.96"/><circle cx="51669" cy="38142" r="314.96"/><circle cx="46669" cy="41142" r="314.96"/><circle cx="52669" cy="38142" r="314.96"/><path d="M45984 41457h-630v-629.9h630z" fill-rule="evenodd"/><circle cx="44654" cy="42716" r="275.59"/><circle cx="46654" cy="42716" r="275.59"/><circle cx="47606" cy="42716" r="275.59"/><circle cx="49606" cy="42716" r="275.59"/><circle cx="52591" cy="42716" r="275.59"/><circle cx="50591" cy="42716" r="275.59"/><circle cx="55543" cy="42716" r="275.59"/><circle cx="53543" cy="42716" r="275.59"/><circle cx="47898" cy="13980" r="300"/><circle cx="48748" cy="13980" r="300"/><circle cx="49583" cy="13980" r="300"/><circle cx="50394" cy="13965" r="300"/><circle cx="51256" cy="13965" r="300"/><circle cx="52122" cy="13980" r="300"/><circle cx="39370" cy="43929" r="334.65"/><circle cx="39370" cy="42929" r="334.65"/><circle cx="39370" cy="41929" r="334.65"/><circle cx="39370" cy="40929" r="334.65"/><circle cx="39370" cy="39929" r="334.65"/><path d="M39035 39264v-669.3h669.3v669.3z" fill-rule="evenodd"/><circle cx="45669" cy="44079" r="354.33"/></g><path d="M46024 45433h-708.6v-708.7h708.6z" fill-rule="evenodd" stroke="none"/><circle cx="48622" cy="44079" r="354.33" stroke="none"/><path d="M48976 45433h-708.7v-708.7h708.7z" fill-rule="evenodd" stroke="none"/><circle cx="51772" cy="44079" r="354.33" stroke="none"/><path d="M52126 45433h-708.7v-708.7h708.7z" fill-rule="evenodd" stroke="none"/><circle cx="54528" cy="44079" r="354.33" stroke="none"/><path d="M54882 45433h-708.7v-708.7h708.7z" fill-rule="evenodd" stroke="none"/><circle cx="45669" cy="38142" r="68.898" stroke="none"/><circle cx="52669" cy="41142" r="68.898" stroke="none"/><circle cx="46669" cy="38142" r="68.898" stroke="none"/><circle cx="51669" cy="41142" r="68.898" stroke="none"/><circle cx="47669" cy="38142" r="68.898" stroke="none"/><circle cx="50669" cy="41142" r="68.898" stroke="none"/><circle cx="48669" cy="38142" r="68.898" stroke="none"/><circle cx="49669" cy="41142" r="68.898" stroke="none"/><circle cx="49669" cy="38142" r="68.898" stroke="none"/><circle cx="48669" cy="41142" r="68.898" stroke="none"/><circle cx="50669" cy="38142" r="68.898" stroke="none"/><circle cx="47669" cy="41142" r="68.898" stroke="none"/><circle cx="51669" cy="38142" r="68.898" stroke="none"/><circle cx="46669" cy="41142" r="68.898" stroke="none"/><circle cx="52669" cy="38142" r="68.898" stroke="none"/><circle cx="45669" cy="41142" r="68.898" stroke="none"/><circle cx="44654" cy="42716" r="68.898" stroke="none"/><circle cx="46654" cy="42716" r="68.898" stroke="none"/><circle cx="47606" cy="42716" r="68.898" stroke="none"/><circle cx="49606" cy="42716" r="68.898" stroke="none"/><circle cx="52591" cy="42716" r="68.898" stroke="none"/><circle cx="50591" cy="42716" r="68.898" stroke="none"/><circle cx="55543" cy="42716" r="68.898" stroke="none"/><circle cx="53543" cy="42716" r="68.898" stroke="none"/><circle cx="47898" cy="13980" r="68.898" stroke="none"/><circle cx="48748" cy="13980" r="68.898" stroke="none"/><circle cx="49583" cy="13980" r="68.898" stroke="none"/><circle cx="50394" cy="13965" r="68.898" stroke="none"/><circle cx="51256" cy="13965" r="68.898" stroke="none"/><circle cx="52122" cy="13980" r="68.898" stroke="none"/><circle cx="39370" cy="43929" r="68.898" stroke="none"/><circle cx="39370" cy="42929" r="68.898" stroke="none"/><circle cx="39370" cy="41929" r="68.898" stroke="none"/><circle cx="39370" cy="40929" r="68.898" stroke="none"/><circle cx="39370" cy="39929" r="68.898" stroke="none"/><circle cx="39370" cy="38929" r="68.898" stroke="none"/><circle cx="45669" cy="44079" r="68.898" stroke="none"/><circle cx="45669" cy="45079" r="68.898" stroke="none"/><circle cx="48622" cy="44079" r="68.898" stroke="none"/><circle cx="48622" cy="45079" r="68.898" stroke="none"/><circle cx="51772" cy="44079" r="68.898" stroke="none"/><circle cx="51772" cy="45079" r="68.898" stroke="none"/><circle cx="54528" cy="44079" r="68.898" stroke="none"/><circle cx="54528" cy="45079" r="68.898" stroke="none"/></g><g fill="#b5ae30" mask="url(#c)" stroke="#b5ae30" stroke-linecap="round" stroke-linejoin="round" stroke-width="0"><g stroke="none"><circle cx="45669" cy="38142" r="314.96"/><circle cx="52669" cy="41142" r="314.96"/><circle cx="46669" cy="38142" r="314.96"/><circle cx="51669" cy="41142" r="314.96"/><circle cx="47669" cy="38142" r="314.96"/><circle cx="50669" cy="41142" r="314.96"/><circle cx="48669" cy="38142" r="314.96"/><circle cx="49669" cy="41142" r="314.96"/><circle cx="49669" cy="38142" r="314.96"/><circle cx="48669" cy="41142" r="314.96"/><circle cx="50669" cy="38142" r="314.96"/><circle cx="47669" cy="41142" r="314.96"/><circle cx="51669" cy="38142" r="314.96"/><circle cx="46669" cy="41142" r="314.96"/><circle cx="52669" cy="38142" r="314.96"/><path d="M45984 41457h-630v-629.9h630z" fill-rule="evenodd"/><circle cx="44654" cy="42716" r="275.59"/><circle cx="46654" cy="42716" r="275.59"/><circle cx="47606" cy="42716" r="275.59"/><circle cx="49606" cy="42716" r="275.59"/><circle cx="52591" cy="42716" r="275.59"/><circle cx="50591" cy="42716" r="275.59"/><circle cx="55543" cy="42716" r="275.59"/><circle cx="53543" cy="42716" r="275.59"/><circle cx="47898" cy="13980" r="300"/><circle cx="48748" cy="13980" r="300"/><circle cx="49583" cy="13980" r="300"/><circle cx="50394" cy="13965" r="300"/><circle cx="51256" cy="13965" r="300"/><circle cx="52122" cy="13980" r="300"/><circle cx="39370" cy="43929" r="334.65"/><circle cx="39370" cy="42929" r="334.65"/><circle cx="39370" cy="41929" r="334.65"/><circle cx="39370" cy="40929" r="334.65"/><circle cx="39370" cy="39929" r="334.65"/><path d="M39035 39264v-669.3h669.3v669.3z" fill-rule="evenodd"/><circle cx="45669" cy="44079" r="354.33"/></g><path d="M46024 45433h-708.6v-708.7h708.6z" fill-rule="evenodd" stroke="none"/><circle cx="48622" cy="44079" r="354.33" stroke="none"/><path d="M48976 45433h-708.7v-708.7h708.7z" fill-rule="evenodd" stroke="none"/><circle cx="51772" cy="44079" r="354.33" stroke="none"/><path d="M52126 45433h-708.7v-708.7h708.7z" fill-rule="evenodd" stroke="none"/><circle cx="54528" cy="44079" r="354.33" stroke="none"/><path d="M54882 45433h-708.7v-708.7h708.7z" fill-rule="evenodd" stroke="none"/><circle cx="45669" cy="38142" r="68.898" stroke="none"/><circle cx="52669" cy="41142" r="68.898" stroke="none"/><circle cx="46669" cy="38142" r="68.898" stroke="none"/><circle cx="51669" cy="41142" r="68.898" stroke="none"/><circle cx="47669" cy="38142" r="68.898" stroke="none"/><circle cx="50669" cy="41142" r="68.898" stroke="none"/><circle cx="48669" cy="38142" r="68.898" stroke="none"/><circle cx="49669" cy="41142" r="68.898" stroke="none"/><circle cx="49669" cy="38142" r="68.898" stroke="none"/><circle cx="48669" cy="41142" r="68.898" stroke="none"/><circle cx="50669" cy="38142" r="68.898" stroke="none"/><circle cx="47669" cy="41142" r="68.898" stroke="none"/><circle cx="51669" cy="38142" r="68.898" stroke="none"/><circle cx="46669" cy="41142" r="68.898" stroke="none"/><circle cx="52669" cy="38142" r="68.898" stroke="none"/><circle cx="45669" cy="41142" r="68.898" stroke="none"/><circle cx="44654" cy="42716" r="68.898" stroke="none"/><circle cx="46654" cy="42716" r="68.898" stroke="none"/><circle cx="47606" cy="42716" r="68.898" stroke="none"/><circle cx="49606" cy="42716" r="68.898" stroke="none"/><circle cx="52591" cy="42716" r="68.898" stroke="none"/><circle cx="50591" cy="42716" r="68.898" stroke="none"/><circle cx="55543" cy="42716" r="68.898" stroke="none"/><circle cx="53543" cy="42716" r="68.898" stroke="none"/><circle cx="47898" cy="13980" r="68.898" stroke="none"/><circle cx="48748" cy="13980" r="68.898" stroke="none"/><circle cx="49583" cy="13980" r="68.898" stroke="none"/><circle cx="50394" cy="13965" r="68.898" stroke="none"/><circle cx="51256" cy="13965" r="68.898" stroke="none"/><circle cx="52122" cy="13980" r="68.898" stroke="none"/><circle cx="39370" cy="43929" r="68.898" stroke="none"/><circle cx="39370" cy="42929" r="68.898" stroke="none"/><circle cx="39370" cy="41929" r="68.898" stroke="none"/><circle cx="39370" cy="40929" r="68.898" stroke="none"/><circle cx="39370" cy="39929" r="68.898" stroke="none"/><circle cx="39370" cy="38929" r="68.898" stroke="none"/><circle cx="45669" cy="44079" r="68.898" stroke="none"/><circle cx="45669" cy="45079" r="68.898" stroke="none"/><circle cx="48622" cy="44079" r="68.898" stroke="none"/><circle cx="48622" cy="45079" r="68.898" stroke="none"/><circle cx="51772" cy="44079" r="68.898" stroke="none"/><circle cx="51772" cy="45079" r="68.898" stroke="none"/><circle cx="54528" cy="44079" r="68.898" stroke="none"/><circle cx="54528" cy="45079" r="68.898" stroke="none"/></g><defs><mask id="c"><g stroke="#fff" stroke-linecap="round" stroke-linejoin="round" fill="#fff" stroke-width="0"><circle cx="45669" cy="38142" r="314.96"/><circle cx="52669" cy="41142" r="314.96"/><circle cx="46669" cy="38142" r="314.96"/><circle cx="51669" cy="41142" r="314.96"/><circle cx="47669" cy="38142" r="314.96"/><circle cx="50669" cy="41142" r="314.96"/><circle cx="48669" cy="38142" r="314.96"/><circle cx="49669" cy="41142" r="314.96"/><circle cx="49669" cy="38142" r="314.96"/><circle cx="48669" cy="41142" r="314.96"/><circle cx="50669" cy="38142" r="314.96"/><circle cx="47669" cy="41142" r="314.96"/><circle cx="51669" cy="38142" r="314.96"/><circle cx="46669" cy="41142" r="314.96"/><circle cx="52669" cy="38142" r="314.96"/><path d="M45984 41457h-630v-629.9h630z" fill-rule="evenodd"/><circle cx="44654" cy="42716" r="275.59"/><circle cx="46654" cy="42716" r="275.59"/><circle cx="47606" cy="42716" r="275.59"/><circle cx="49606" cy="42716" r="275.59"/><circle cx="52591" cy="42716" r="275.59"/><circle cx="50591" cy="42716" r="275.59"/><circle cx="55543" cy="42716" r="275.59"/><circle cx="53543" cy="42716" r="275.59"/><circle cx="47898" cy="13980" r="300"/><circle cx="48748" cy="13980" r="300"/><circle cx="49583" cy="13980" r="300"/><circle cx="50394" cy="13965" r="300"/><circle cx="51256" cy="13965" r="300"/><circle cx="52122" cy="13980" r="300"/><circle cx="39370" cy="43929" r="334.65"/><circle cx="39370" cy="42929" r="334.65"/><circle cx="39370" cy="41929" r="334.65"/><circle cx="39370" cy="40929" r="334.65"/><circle cx="39370" cy="39929" r="334.65"/><path d="M39035 39264v-669.3h669.3v669.3z" fill-rule="evenodd"/><circle cx="45669" cy="44079" r="354.33"/><g><path d="M46024 45433h-708.6v-708.7h708.6z" fill-rule="evenodd"/></g><g><circle cx="48622" cy="44079" r="354.33"/></g><g><path d="M48976 45433h-708.7v-708.7h708.7z" fill-rule="evenodd"/></g><g><circle cx="51772" cy="44079" r="354.33"/></g><g><path d="M52126 45433h-708.7v-708.7h708.7z" fill-rule="evenodd"/></g><g><circle cx="54528" cy="44079" r="354.33"/></g><g><path d="M54882 45433h-708.7v-708.7h708.7z" fill-rule="evenodd"/></g></g></mask></defs><defs><mask id="d"><g stroke="#000" stroke-linecap="round" stroke-linejoin="round" stroke-width="0"><circle cx="45669" cy="38142" r="314.96"/><circle cx="52669" cy="41142" r="314.96"/><circle cx="46669" cy="38142" r="314.96"/><circle cx="51669" cy="41142" r="314.96"/><circle cx="47669" cy="38142" r="314.96"/><circle cx="50669" cy="41142" r="314.96"/><circle cx="48669" cy="38142" r="314.96"/><circle cx="49669" cy="41142" r="314.96"/><circle cx="49669" cy="38142" r="314.96"/><circle cx="48669" cy="41142" r="314.96"/><circle cx="50669" cy="38142" r="314.96"/><circle cx="47669" cy="41142" r="314.96"/><circle cx="51669" cy="38142" r="314.96"/><circle cx="46669" cy="41142" r="314.96"/><circle cx="52669" cy="38142" r="314.96"/><path d="M45984 41457h-630v-629.9h630z" fill-rule="evenodd"/><circle cx="44654" cy="42716" r="275.59"/><circle cx="46654" cy="42716" r="275.59"/><circle cx="47606" cy="42716" r="275.59"/><circle cx="49606" cy="42716" r="275.59"/><circle cx="52591" cy="42716" r="275.59"/><circle cx="50591" cy="42716" r="275.59"/><circle cx="55543" cy="42716" r="275.59"/><circle cx="53543" cy="42716" r="275.59"/><circle cx="47898" cy="13980" r="300"/><circle cx="48748" cy="13980" r="300"/><circle cx="49583" cy="13980" r="300"/><circle cx="50394" cy="13965" r="300"/><circle cx="51256" cy="13965" r="300"/><circle cx="52122" cy="13980" r="300"/><circle cx="39370" cy="43929" r="334.65"/><circle cx="39370" cy="42929" r="334.65"/><circle cx="39370" cy="41929" r="334.65"/><circle cx="39370" cy="40929" r="334.65"/><circle cx="39370" cy="39929" r="334.65"/><path d="M39035 39264v-669.3h669.3v669.3z" fill-rule="evenodd"/><circle cx="45669" cy="44079" r="354.33"/><g><path d="M46024 45433h-708.6v-708.7h708.6z" fill-rule="evenodd"/></g><g><circle cx="48622" cy="44079" r="354.33"/></g><g><path d="M48976 45433h-708.7v-708.7h708.7z" fill-rule="evenodd"/></g><g><circle cx="51772" cy="44079" r="354.33"/></g><g><path d="M52126 45433h-708.7v-708.7h708.7z" fill-rule="evenodd"/></g><g><circle cx="54528" cy="44079" r="354.33"/></g><g><path d="M54882 45433h-708.7v-708.7h708.7z" fill-rule="evenodd"/></g></g><path fill="#fff" d="M38169 13169h23661v36456H38169z"/></mask></defs><g fill="none" fill-opacity="0" mask="url(#d)" stroke="#f0f0f0" stroke-linecap="round" stroke-linejoin="round"><g stroke-width="47.244"><path d="M45145 38598v650M53192 38598h-8047M53192 40685v-2087M45145 40685h8047M45145 40035v650M45146 40035a393.7 393.7 0 0 0 0-787.4M46409 42354h-1512M46409 43078h-1512M49362 42354h-1512M49362 43078h-1512M50834 43078h1512M50834 42354h1512M53787 43078h1512M53787 42354h1512"/></g><g stroke-width="62.992"><path d="M61089 15218H38840M38840 15218v22039M38840 37257h22249M61089 37257V15218"/></g><g stroke-width="47.244"><path d="M39370 38405h523M39893 38405v524M39893 39429v5023M38846 44452h1047M38846 39429v5023M38846 39429h1047M46094 45192h61M45182 45192h62M46094 44989a590.55 590.55 0 0 0-.1-819.8M45244 44169a590.55 590.55 0 0 0-.1 819.8"/><path d="M46156 45193a783.46 783.46 0 0 0-61.8-1272.6M45245 43920a783.46 783.46 0 0 0-61.7 1272.6M49047 45192h61M48135 45192h61M49047 44989a590.55 590.55 0 0 0 0-819.8M48197 44169a590.55 590.55 0 0 0 0 819.8"/><path d="M49108 45193a783.46 783.46 0 0 0-61.8-1272.6M48197 43920a783.46 783.46 0 0 0-61.8 1272.6M52196 45192h62M51285 45192h61M52197 44989a590.55 590.55 0 0 0-.1-819.8M51346 44169a590.55 590.55 0 0 0 0 819.8"/><path d="M52258 45193a783.46 783.46 0 0 0-61.8-1272.6M51347 43920a783.46 783.46 0 0 0-61.8 1272.6M54952 45192h62M54040 45192h62M54953 44989a590.55 590.55 0 0 0-.1-819.8M54102 44169a590.55 590.55 0 0 0 0 819.8"/><path d="M55014 45193a783.46 783.46 0 0 0-61.8-1272.6M54103 43920a783.46 783.46 0 0 0-61.8 1272.6"/></g></g><g fill-opacity="0" stroke-linecap="round" stroke-linejoin="round" stroke-width="39.37" fill="none" stroke="#000"><path d="M61811 13188H38188M61811 49606V13188M38188 49606h23623M38188 13188v36418"/></g><defs><mask id="b"><path fill="#fff" d="M38169 13169h23661v36456H38169z"/><path stroke="#000" stroke-linecap="round" stroke-width="314" d="M45669 38141h0M52669 41141h0M46669 38141h0M51669 41141h0M47669 38141h0M50669 41141h0M48669 38141h0M49669 41141h0M49669 38141h0M48669 41141h0M50669 38141h0M47669 41141h0M51669 38141h0M46669 41141h0M52669 38141h0M45669 41141h0"/><path stroke="#000" stroke-linecap="round" stroke-width="275" d="M44652 42716h0M46652 42716h0M47606 42716h0M49606 42716h0M52590 42716h0M50590 42716h0M55543 42716h0M53543 42716h0"/><path stroke="#000" stroke-linecap="round" stroke-width="300" d="M47896 13980h0M48748 13980h0M49582 13980h0M50392 13964h0M51256 13964h0M52122 13980h0"/><path stroke="#000" stroke-linecap="round" stroke-width="393" d="M39370 43929h0M39370 42929h0M39370 41929h0M39370 40929h0M39370 39929h0M39370 38929h0"/><path stroke="#000" stroke-linecap="round" stroke-width="354" d="M45669.5 44078.5h0M45669.5 45078.5h0M48622 44078h0M48622 45078h0M51770.5 44077.5h0M51770.5 45077.5h0M54526.5 44077.5h0M54526.5 45077.5h0"/></mask></defs></g><path d="M14589 25251H7253.6v2440.9h7490.9V25251z" fill="#333" stroke="#000" stroke-width="36.458"/><path d="M14774 25221h-185.04M7409 25221h-185.04M14199 25221h-400M8199 25221h-400M13199 25221h-400M9199 25221h-400M12199 25221h-400M10199 25221h-400M11199 25221h-400M7224 25221v2500M7224 27721h185.04M14589 27721h185.04M7799 27721h400M13799 27721h400M8799 27721h400M12799 27721h400M9799 27721h400M11799 27721h400M10799 27721h400M14774 27721v-2500M14774 25221l-29.528 29.528M7224 25221l29.528 29.528M14199 25251h-400M8199 25251h-400M13199 25251h-400M9199 25251h-400M12199 25251h-400M10199 25251h-400M11199 25251h-400M7224 27721l29.528-29.528M14774 27721l-29.528-29.528M7799 27691h400M13799 27691h400M8799 27691h400M12799 27691h400M9799 27691h400M11799 27691h400M10799 27691h400M7253.5 25251l127.45 127.45M14744 25251l-127.45 127.45M7253.5 27691l127.45-127.45M7339.1 26766l41.842-1.225M7339.1 26766v-590.04M7339.1 26176l41.842 1.225" fill="none" stroke="#000" stroke-width="36.458"/><path d="M7381 25378v799.23c150.88 15.165 265.75 142.15 265.75 293.8h0c0 151.64-114.87 278.63-265.75 293.8h0v799.23h7236v-2186z" fill="#1a1a1a" fill-rule="evenodd" stroke="#000" stroke-width="36.458"/><path d="M14744 27691l-127.45-127.45M7347.2 26766a295.28 295.28 0 0 1-8.105-.226M7339.1 26176a295.28 295.28 0 0 1 8.105-.225" fill="none" stroke="#000" stroke-width="36.458"/><g stroke="#000" stroke-width=".093"><path d="M9798.986 27971v150h-599.999v-429.527h599.999z" fill="#ccc" fill-rule="evenodd" stroke-width="36.6141"/><path d="M9798.986 27971h-599.999" fill="none" stroke-width="36.6141"/><path d="M10798.984 27971v150h-599.999v-429.527h599.999z" fill="#ccc" fill-rule="evenodd" stroke-width="36.6141"/><path d="M10798.984 27971h-599.999" fill="none" stroke-width="36.6141"/></g><g stroke="#000" stroke-width=".093"><path d="M8798.988 27970.528v150h-599.999V27691h599.999z" fill="#ccc" fill-rule="evenodd" stroke-width="36.6141"/><path d="M8798.988 27970.528h-599.999" fill="none" stroke-width="36.6141"/></g><g stroke="#000" stroke-width=".093"><path d="M7798.99 27971v150H7198.99v-429.527h599.999z" fill="#ccc" fill-rule="evenodd" stroke-width="36.6141"/><path d="M7798.99 27971H7198.99" fill="none" stroke-width="36.6141"/></g><g stroke="#000" stroke-width=".093"><path d="M13798.986 27971v150h-599.999v-429.527h599.999z" fill="#ccc" fill-rule="evenodd" stroke-width="36.6141"/><path d="M13798.986 27971h-599.999" fill="none" stroke-width="36.6141"/><path d="M14798.984 27971v150h-599.999v-429.527h599.999z" fill="#ccc" fill-rule="evenodd" stroke-width="36.6141"/><path d="M14798.984 27971h-599.999" fill="none" stroke-width="36.6141"/></g><g stroke="#000" stroke-width=".093"><path d="M12798.988 27970.528v150h-599.999V27691h599.999z" fill="#ccc" fill-rule="evenodd" stroke-width="36.6141"/><path d="M12798.988 27970.528h-599.999" fill="none" stroke-width="36.6141"/></g><g stroke="#000" stroke-width=".093"><path d="M11798.99 27971v150h-599.999v-429.527h599.999z" fill="#ccc" fill-rule="evenodd" stroke-width="36.6141"/><path d="M11798.99 27971h-599.999" fill="none" stroke-width="36.6141"/></g><g stroke="#000" stroke-width=".093"><path d="M13198.987 24970.988v-150.019.02h599.999v-.02 429.527h-599.999z" fill="#ccc" fill-rule="evenodd" stroke-width="36.6141"/><path d="M13198.987 24970.988h599.999" fill="none" stroke-width="36.6141"/></g><g stroke="#000" stroke-width=".093"><path d="M14198.985 24970.988v-150.039.04h599.999v-.04 429.566h-599.999z" fill="#ccc" fill-rule="evenodd" stroke-width="36.6141"/><path d="M14198.985 24970.988h599.999" fill="none" stroke-width="36.6141"/><path d="M12198.99 24970.988v-150.039.04h599.998v-.04 429.566h-599.999z" fill="#ccc" fill-rule="evenodd" stroke-width="36.6141"/><path d="M12198.99 24970.988h599.998" fill="none" stroke-width="36.6141"/><path d="M11198.991 24970.988v-150.039.04h599.999v-.04 429.566h-599.999z" fill="#ccc" fill-rule="evenodd" stroke-width="36.6141"/><path d="M11198.991 24970.988h599.999" fill="none" stroke-width="36.6141"/></g><g stroke="#000" stroke-width=".093"><path d="M9198.987 24970.988v-150.019.02h599.999v-.02 429.527h-599.999z" fill="#ccc" fill-rule="evenodd" stroke-width="36.6141"/><path d="M9198.987 24970.988h599.999" fill="none" stroke-width="36.6141"/><path d="M10198.985 24970.988v-150.039.04h599.999v-.04 429.566h-599.999z" fill="#ccc" fill-rule="evenodd" stroke-width="36.6141"/><path d="M10198.985 24970.988h599.999" fill="none" stroke-width="36.6141"/><path d="M8198.99 24970.988v-150.039.04h599.998v-.04 429.566h-599.999z" fill="#ccc" fill-rule="evenodd" stroke-width="36.6141"/><path d="M8198.99 24970.988h599.998" fill="none" stroke-width="36.6141"/><path d="M7198.991 24970.988v-150.039.04h599.999v-.04 429.566H7198.99z" fill="#ccc" fill-rule="evenodd" stroke-width="36.6141"/><path d="M7198.991 24970.988h599.999" fill="none" stroke-width="36.6141"/></g><g transform="matrix(-393.7 0 0 393.7 8483 29546)" fill="#faa" stroke-width=".093"><path d="M1.14.8V-.8M3.94.8V-.8M1.14-.8c-.24.021-.374.155-.4.4v.8c0 .22.18.4.4.4h.5V-.8zM3.44-.8V.8h.5a.4.4 0 0 0 .4-.4v-.8c-.026-.245-.16-.379-.4-.4z" fill-rule="evenodd" stroke="#191919"/><path d="M4.34.25h.74c.333 0 .333-.5 0-.5h-.74 0z" fill="#999" fill-rule="evenodd" stroke="#191919"/></g><path d="M8191.7 29644v-196.85h291.34c131.23 0 131.23 196.85 0 196.85z" fill="#999" stroke="#1a1a1a" stroke-width="36.458"/><path d="M7128.7 29829v-566.93h708.66V29829z" fill="#e9afaf" stroke="#1a1a1a" stroke-width="36.458"/><path fill="#500" opacity=".997" stroke="#1a1a1a" stroke-width="36.276" d="M7742.2 29828h-71.607v-563.62h71.607z"/><path opacity=".997" stroke="#1a1a1a" stroke-width="36.276" d="M7598 29826h-71.607v-563.62H7598z"/><path fill="red" opacity=".997" stroke="#1a1a1a" stroke-width="36.276" d="M7452.1 29826h-71.607v-563.62h71.607z"/><path fill="olive" opacity=".997" stroke="#1a1a1a" stroke-width="36.276" d="M7256.5 29828h-71.607v-563.62h71.607z"/><g transform="matrix(-393.7 0 0 393.7 11436 29546)" fill="#faa" stroke-width=".093"><path d="M1.14.8V-.8M3.94.8V-.8M1.14-.8c-.24.021-.374.155-.4.4v.8c0 .22.18.4.4.4h.5V-.8zM3.44-.8V.8h.5a.4.4 0 0 0 .4-.4v-.8c-.026-.245-.16-.379-.4-.4z" fill-rule="evenodd" stroke="#191919"/><path d="M4.34.25h.74c.333 0 .333-.5 0-.5h-.74 0z" fill="#999" fill-rule="evenodd" stroke="#191919"/></g><path d="M11145 29644v-196.85h291.34c131.23 0 131.23 196.85 0 196.85z" fill="#999" stroke="#1a1a1a" stroke-width="36.458"/><path d="M10082 29829v-566.93h708.66V29829z" fill="#e9afaf" stroke="#1a1a1a" stroke-width="36.458"/><path fill="#500" opacity=".997" stroke="#1a1a1a" stroke-width="36.276" d="M10695 29828h-71.607v-563.62H10695z"/><path opacity=".997" stroke="#1a1a1a" stroke-width="36.276" d="M10551 29826h-71.607v-563.62H10551z"/><path fill="red" opacity=".997" stroke="#1a1a1a" stroke-width="36.276" d="M10405 29826h-71.607v-563.62H10405z"/><path fill="olive" opacity=".997" stroke="#1a1a1a" stroke-width="36.276" d="M10210 29828h-71.607v-563.62H10210z"/><g transform="matrix(393.7 0 0 -393.7 12420 29546)" fill="#faa" stroke-width=".093"><path d="M1.14.8V-.8M3.94.8V-.8M1.14-.8c-.24.021-.374.155-.4.4v.8c0 .22.18.4.4.4h.5V-.8zM3.44-.8V.8h.5a.4.4 0 0 0 .4-.4v-.8c-.026-.245-.16-.379-.4-.4z" fill-rule="evenodd" stroke="#191919"/><path d="M4.34.25h.74c.333 0 .333-.5 0-.5h-.74 0z" fill="#999" fill-rule="evenodd" stroke="#191919"/></g><path d="M12711 29448v196.85h-291.34c-131.23 0-131.23-196.85 0-196.85z" fill="#999" stroke="#1a1a1a" stroke-width="36.458"/><path d="M13774 29263v566.93h-708.66V29263z" fill="#e9afaf" stroke="#1a1a1a" stroke-width="36.458"/><path fill="#500" opacity=".997" stroke="#1a1a1a" stroke-width="36.276" d="M13161 29264h71.607v563.62H13161z"/><path opacity=".997" stroke="#1a1a1a" stroke-width="36.276" d="M13305 29266h71.607v563.62H13305z"/><path fill="red" opacity=".997" stroke="#1a1a1a" stroke-width="36.276" d="M13451 29266h71.607v563.62H13451z"/><path fill="olive" opacity=".997" stroke="#1a1a1a" stroke-width="36.276" d="M13646 29264h71.607v563.62H13646z"/><g transform="matrix(393.7 0 0 -393.7 15373 29546)" fill="#faa" stroke-width=".093"><path d="M1.14.8V-.8M3.94.8V-.8M1.14-.8c-.24.021-.374.155-.4.4v.8c0 .22.18.4.4.4h.5V-.8zM3.44-.8V.8h.5a.4.4 0 0 0 .4-.4v-.8c-.026-.245-.16-.379-.4-.4z" fill-rule="evenodd" stroke="#191919"/><path d="M4.34.25h.74c.333 0 .333-.5 0-.5h-.74 0z" fill="#999" fill-rule="evenodd" stroke="#191919"/></g><path d="M15664 29448v196.85h-291.34c-131.23 0-131.23-196.85 0-196.85z" fill="#999" stroke="#1a1a1a" stroke-width="36.458"/><path d="M16727 29263v566.93h-708.66V29263z" fill="#e9afaf" stroke="#1a1a1a" stroke-width="36.458"/><path fill="#500" opacity=".997" stroke="#1a1a1a" stroke-width="36.276" d="M16114 29264h71.607v563.62H16114z"/><path opacity=".997" stroke="#1a1a1a" stroke-width="36.276" d="M16258 29266h71.607v563.62H16258z"/><path fill="red" opacity=".997" stroke="#1a1a1a" stroke-width="36.276" d="M16404 29266h71.607v563.62H16404z"/><path fill="olive" opacity=".997" stroke="#1a1a1a" stroke-width="36.276" d="M16599 29264h71.607v563.62H16599z"/><path d="M4270.9 24192H1928.4c-652.3 0-1181.1-528.8-1181.1-1181.1v-19803c0-652.3 528.8-1181.1 1181.1-1181.1h19803.5c652.3 0 1181.1 528.8 1181.1 1181.1v19803c0 652.3-528.8 1181.1-1181.1 1181.1h-17461z" fill="#b3b3b3" fill-rule="evenodd" stroke="#000" stroke-width="36.458"/><path d="M11830 13404c393.7 0 393.7-590.55 0-590.55s-393.7 590.55 0 590.55z" fill="#4d4d4d" fill-rule="evenodd" stroke="#000" stroke-width="36.458"/><path d="M11830 20609c-4142.1 0-7500-3357.9-7500-7500s3357.9-7500 7500-7500 7500 3357.9 7500 7500-3357.9 7500-7500 7500z" fill="#4d4d4d" fill-rule="evenodd" stroke="#000" stroke-width="36.458"/><path d="M11830 11357c2336 0 2336 3503.9 0 3503.9s-2336-3503.9 0-3503.9z" fill="#e6e6e6" fill-rule="evenodd" stroke="#000" stroke-width="36.458"/><path d="M11830 11436a1673.2 1673.2 0 0 0 0 3346.5M11830 14782a1673.2 1673.2 0 0 0 0-3346.5" fill="none" stroke="#000" stroke-width="36.458"/><path d="M11830 11652a1456.7 1456.7 0 0 0 0 2913.4" fill="none" stroke="#000" stroke-width="36.458"/><path d="M11830 14684a1574.8 1574.8 0 0 1 0-3149.6" fill="none" stroke="#000" stroke-width="36.458"/><path d="M2558.3 21278c1469.8 0 1469.8 2204.7 0 2204.7s-1469.8-2204.7 0-2204.7zM2558.3 2735c1469.8 0 1469.8 2204.7 0 2204.7s-1469.8-2204.7 0-2204.7z" fill="#4d4d4d" fill-rule="evenodd" stroke="#000" stroke-width="36.458"/><path d="M21102 2735c1469.8 0 1469.8 2204.7 0 2204.7s-1469.8-2204.7 0-2204.7z" fill="#333" fill-rule="evenodd" stroke="#000" stroke-width="36.458"/><path d="M21102 21278c1469.8 0 1469.8 2204.7 0 2204.7s-1469.8-2204.7 0-2204.7z" fill="#4d4d4d" fill-rule="evenodd" stroke="#000" stroke-width="36.458"/><path d="M2558.3 21357a1023.6 1023.6 0 0 0 0 2047.2M2558.3 2813.7a1023.6 1023.6 0 0 0 0 2047.2" fill="none" stroke="#000" stroke-width="36.458"/><path d="M21102 2813.7a1023.6 1023.6 0 0 0 0 2047.2" fill="#4d4d4d" fill-rule="evenodd" stroke="#000" stroke-width="36.458"/><path d="M21102 21357a1023.6 1023.6 0 0 0 0 2047.2M21102 23404a1023.6 1023.6 0 0 0 0-2047.2" fill="none" stroke="#000" stroke-width="36.458"/><path d="M21102 4861a1023.6 1023.6 0 0 0 0-2047.2" fill="#4d4d4d" fill-rule="evenodd" stroke="#000" stroke-width="36.458"/><path d="M2558.3 4861a1023.6 1023.6 0 0 0 0-2047.2" fill="none" stroke="#000" stroke-width="36.458"/><path d="M2558.3 23404a1023.6 1023.6 0 0 0 0-2047.2" fill="#4d4d4d" fill-rule="evenodd" stroke="#000" stroke-width="36.458"/><path d="M11830 5687.7a7421.3 7421.3 0 0 0 0 14843M11830 11534a1574.8 1574.8 0 0 1 0 3149.6M4270.9 2105.1H1928.4M1928.4 2105.1A1102.4 1102.4 0 0 0 826 3207.5M826.06 3207.4v19803M826.06 23011a1102.4 1102.4 0 0 0 1102.4 1102.4M1928.4 24113h2342.5M6987.5 24113h9685M19389 24113h2342.5M21732 24113a1102.4 1102.4 0 0 0 1102.4-1102.4M22834 23011V3208M22834 3207.4A1102.4 1102.4 0 0 0 21731.6 2105M21732 2105.1h-2342.5M16673 2105.1H6988" fill="none" stroke="#000" stroke-width="36.458"/><path d="M11830 20530a7421.3 7421.3 0 0 0 0-14843" fill="none" stroke="#000" stroke-width="36.458"/><path d="M11830 14566a1456.7 1456.7 0 0 0 0-2913.4" fill="none" stroke="#000" stroke-width="36.458"/><g stroke="#000" stroke-width=".093"><path d="M4270.652 22951.192c0-750.156 608.109-1358.265 1358.265-1358.265s1358.265 608.109 1358.265 1358.265v1240.194l-.008-.035h-2716.53v-78.74z" fill="#999" fill-rule="evenodd" stroke-width="36.6141"/><path d="M5628.917 21809.462c1522.32 0 1522.32 2283.46 0 2283.46s-1522.32-2283.46 0-2283.46z" fill="#ececec" fill-rule="evenodd" stroke-width="36.6141"/><path d="M6987.182 24191.347h-157.48M6908.442 22951.192a1279.525 1279.525 0 0 0-1279.525-1279.525" fill="none" stroke-width="36.6141"/><path d="M5950.963 23098.83h403.504a2049.77 2049.77 0 0 0 0-295.276h-403.504a354.332 354.332 0 0 0-174.468-174.487v.018-403.503.002c-49.086-3.567-98.299-5.3-147.637-5.3v-.001c-49.339 0-98.551 1.756-147.638 5.299v403.503a354.342 354.342 0 0 0-174.487 174.468h.018-403.503a2049.77 2049.77 0 0 0 0 295.275h403.503a354.325 354.325 0 0 0 174.468 174.488v-.018 403.503-.002c49.087 3.567 98.3 5.3 147.638 5.3h0c49.338 0 98.55-1.755 147.637-5.298v-403.503a354.342 354.342 0 0 0 174.488-174.469z" fill="#b3b3b3" fill-rule="evenodd" stroke-width="36.6141"/><path d="M4270.652 24191.347h157.48M6908.442 24112.607v-1161.415M4349.392 22951.192v1161.415M4349.392 24112.607a78.74 78.74 0 0 1-78.74 78.74" fill="none" stroke-width="36.6141"/><path d="M4270.652 24191.347a78.74 78.74 0 0 0 78.74-78.74M5628.917 21671.667a1279.525 1279.525 0 0 0-1279.525 1279.525M6908.442 24112.607a78.74 78.74 0 0 0 78.74 78.74M5306.87 23098.83h174.468M5481.28 23098.83v174.468M5776.554 23098.83v174.468M5776.554 23098.83h174.469M5776.554 22803.554h174.469M5776.554 22629.067v174.468M5481.28 22629.067v174.468M5306.87 22803.554h174.468M5776.554 22754.342H5481.28M5432.067 22803.554v295.275M5481.28 23148.042h295.274M5825.767 23098.83v-295.276" fill="none" stroke-width="36.6141"/><path d="M5628.917 21750.407a1200.785 1200.785 0 0 0-1200.785 1200.785M4428.132 22951.192v1161.415M4428.132 24112.607h2401.57M6829.702 24112.607v-1161.415M6829.702 22951.192a1200.785 1200.785 0 0 0-1200.785-1200.785M4428.132 24112.607v78.775M6829.702 24112.607v78.775" fill="none" stroke-width="36.6141"/></g><path d="M13897 1435.8H9763.1M9763.1 1435.8v393.7M9763.1 1829.5H13897M13897 1829.5v-393.7M9566.2 1829.5h196.83M9763.1 1829.5v196.83M13897 1829.5v196.83M9566.2 1435.8h196.83M13897 1829.5h196.84M9763.1 1238.9v196.84M13897 1435.8h196.84M13897 1238.9v196.84" fill="none" stroke="#000" stroke-width="36.458"/><g stroke="#000" stroke-width=".093"><path d="M16672.652 22951.192c0-750.156 608.109-1358.265 1358.265-1358.265s1358.265 608.109 1358.265 1358.265v1240.194l-.008-.035h-2716.53v-78.74z" fill="#999" fill-rule="evenodd" stroke-width="36.6141"/><path d="M18030.917 21809.462c1522.32 0 1522.32 2283.46 0 2283.46s-1522.32-2283.46 0-2283.46z" fill="#ececec" fill-rule="evenodd" stroke-width="36.6141"/><path d="M19389.182 24191.347h-157.48M19310.442 22951.192a1279.525 1279.525 0 0 0-1279.525-1279.525" fill="none" stroke-width="36.6141"/><path d="M18352.963 23098.83h403.504a2049.77 2049.77 0 0 0 0-295.276h-403.504a354.332 354.332 0 0 0-174.468-174.487v.018-403.503.002c-49.086-3.567-98.299-5.3-147.637-5.3v-.001c-49.339 0-98.551 1.756-147.638 5.299v403.503a354.342 354.342 0 0 0-174.487 174.468h.018-403.503a2049.77 2049.77 0 0 0 0 295.275h403.503a354.325 354.325 0 0 0 174.468 174.488v-.018 403.503-.002c49.087 3.567 98.3 5.3 147.638 5.3h0c49.338 0 98.55-1.755 147.637-5.298v-403.503a354.342 354.342 0 0 0 174.488-174.469z" fill="#b3b3b3" fill-rule="evenodd" stroke-width="36.6141"/><path d="M16672.652 24191.347h157.48M19310.442 24112.607v-1161.415M16751.392 22951.192v1161.415M16751.392 24112.607a78.74 78.74 0 0 1-78.74 78.74" fill="none" stroke-width="36.6141"/><path d="M16672.652 24191.347a78.74 78.74 0 0 0 78.74-78.74M18030.917 21671.667a1279.525 1279.525 0 0 0-1279.525 1279.525M19310.442 24112.607a78.74 78.74 0 0 0 78.74 78.74M17708.87 23098.83h174.468M17883.28 23098.83v174.468M18178.554 23098.83v174.468M18178.554 23098.83h174.469M18178.554 22803.554h174.469M18178.554 22629.067v174.468M17883.28 22629.067v174.468M17708.87 22803.554h174.468M18178.554 22754.342h-295.275M17834.067 22803.554v295.275M17883.28 23148.042h295.274M18227.767 23098.83v-295.276" fill="none" stroke-width="36.6141"/><path d="M18030.917 21750.407a1200.785 1200.785 0 0 0-1200.785 1200.785M16830.132 22951.192v1161.415M16830.132 24112.607h2401.57M19231.702 24112.607v-1161.415M19231.702 22951.192a1200.785 1200.785 0 0 0-1200.785-1200.785M16830.132 24112.607v78.775M19231.702 24112.607v78.775" fill="none" stroke-width="36.6141"/></g><g stroke="#000" stroke-width=".093"><path d="M6987.348 3266.508c0 750.156-608.109 1358.265-1358.265 1358.265s-1358.265-608.109-1358.265-1358.265V2026.314l.008.035h2716.53v78.74z" fill="#999" fill-rule="evenodd" stroke-width="36.6141"/><path d="M5629.083 4408.238c-1522.32 0-1522.32-2283.46 0-2283.46s1522.32 2283.46 0 2283.46z" fill="#ececec" fill-rule="evenodd" stroke-width="36.6141"/><path d="M4270.818 2026.353h157.48M4349.558 3266.508a1279.525 1279.525 0 0 0 1279.525 1279.525" fill="none" stroke-width="36.6141"/><path d="M5307.037 3118.87h-403.504a2049.77 2049.77 0 0 0 0 295.276h403.504a354.332 354.332 0 0 0 174.468 174.487v-.018 403.503-.002c49.086 3.567 98.299 5.3 147.637 5.3v.001c49.339 0 98.551-1.756 147.638-5.299v-403.503a354.342 354.342 0 0 0 174.487-174.468h-.018 403.503a2049.77 2049.77 0 0 0 0-295.275H5951.25a354.325 354.325 0 0 0-174.468-174.488v.018V2540.9v.002c-49.087-3.567-98.3-5.3-147.638-5.3h0c-49.338 0-98.55 1.755-147.637 5.298v403.503a354.342 354.342 0 0 0-174.488 174.469z" fill="#b3b3b3" fill-rule="evenodd" stroke-width="36.6141"/><path d="M6987.348 2026.353h-157.48M4349.558 2105.093v1161.415M6908.608 3266.508V2105.093M6908.608 2105.093a78.74 78.74 0 0 1 78.74-78.74" fill="none" stroke-width="36.6141"/><path d="M6987.348 2026.353a78.74 78.74 0 0 0-78.74 78.74M5629.083 4546.033a1279.525 1279.525 0 0 0 1279.525-1279.525M4349.558 2105.093a78.74 78.74 0 0 0-78.74-78.74M5951.13 3118.87h-174.468M5776.72 3118.87v-174.468M5481.446 3118.87v-174.468M5481.446 3118.87h-174.469M5481.446 3414.146h-174.469M5481.446 3588.633v-174.468M5776.72 3588.633v-174.468M5951.13 3414.146h-174.468M5481.446 3463.358h295.275M5825.933 3414.146V3118.87M5776.72 3069.658h-295.274M5432.233 3118.87v295.276" fill="none" stroke-width="36.6141"/><path d="M5629.083 4467.293a1200.785 1200.785 0 0 0 1200.785-1200.785M6829.868 3266.508V2105.093M6829.868 2105.093h-2401.57M4428.298 2105.093v1161.415M4428.298 3266.508a1200.785 1200.785 0 0 0 1200.785 1200.785M6829.868 2105.093v-78.775M4428.298 2105.093v-78.775" fill="none" stroke-width="36.6141"/></g><g stroke="#000" stroke-width=".093"><path d="M19389.018 3266.508c0 750.156-608.109 1358.265-1358.265 1358.265s-1358.265-608.109-1358.265-1358.265V2026.314l.008.035h2716.53v78.74z" fill="#999" fill-rule="evenodd" stroke-width="36.6141"/><path d="M18030.753 4408.238c-1522.32 0-1522.32-2283.46 0-2283.46s1522.32 2283.46 0 2283.46z" fill="#ececec" fill-rule="evenodd" stroke-width="36.6141"/><path d="M16672.488 2026.353h157.48M16751.228 3266.508a1279.525 1279.525 0 0 0 1279.525 1279.525" fill="none" stroke-width="36.6141"/><path d="M17708.707 3118.87h-403.504a2049.77 2049.77 0 0 0 0 295.276h403.503a354.332 354.332 0 0 0 174.469 174.487v-.018 403.503-.002c49.086 3.567 98.299 5.3 147.637 5.3v.001c49.339 0 98.551-1.756 147.638-5.299v-403.503a354.342 354.342 0 0 0 174.487-174.468h-.018 403.503a2049.77 2049.77 0 0 0 0-295.275h-403.503a354.325 354.325 0 0 0-174.468-174.488v.018V2540.9v.002c-49.087-3.567-98.3-5.3-147.638-5.3h0c-49.338 0-98.55 1.755-147.637 5.298v403.503a354.342 354.342 0 0 0-174.488 174.469z" fill="#b3b3b3" fill-rule="evenodd" stroke-width="36.6141"/><path d="M19389.018 2026.353h-157.48M16751.228 2105.093v1161.415M19310.278 3266.508V2105.093M19310.278 2105.093a78.74 78.74 0 0 1 78.74-78.74" fill="none" stroke-width="36.6141"/><path d="M19389.018 2026.353a78.74 78.74 0 0 0-78.74 78.74M18030.753 4546.033a1279.525 1279.525 0 0 0 1279.525-1279.525M16751.228 2105.093a78.74 78.74 0 0 0-78.74-78.74M18352.8 3118.87h-174.468M18178.39 3118.87v-174.468M17883.116 3118.87v-174.468M17883.116 3118.87h-174.469M17883.116 3414.146h-174.469M17883.116 3588.633v-174.468M18178.39 3588.633v-174.468M18352.8 3414.146h-174.468M17883.116 3463.358h295.275M18227.603 3414.146V3118.87M18178.39 3069.658h-295.274M17833.903 3118.87v295.276" fill="none" stroke-width="36.6141"/><path d="M18030.753 4467.293a1200.785 1200.785 0 0 0 1200.785-1200.785M19231.538 3266.508V2105.093M19231.538 2105.093h-2401.57M16829.968 2105.093v1161.415M16829.968 3266.508a1200.785 1200.785 0 0 0 1200.785 1200.785M19231.538 2105.093v-78.775M16829.968 2105.093v-78.775" fill="none" stroke-width="36.6141"/></g><path d="M13897 2026.3l-4133.9.016h0c-108.72 0-196.85-88.133-196.85-196.85v-393.7c0-108.72 88.133-196.85 196.85-196.85H13897c108.72 0 196.85 88.133 196.85 196.85v393.7c0 108.72-88.133 196.85-196.85 196.85z" fill="#666" stroke="#000" stroke-width="36.458"/><g transform="matrix(393.7 0 0 -393.7 1200 25759)" stroke-width=".093"><path d="M1.27-13.97V1.27h-2.54v-15.24z" fill="#1a1a1a" fill-rule="evenodd" stroke="#000"/><path d="M-.6.6V-.6H.6V.6z" fill="gray" fill-rule="evenodd" stroke="#000"/><path d="M.6-3.14v1.2H-.6v-1.2zM.6-5.68v1.2H-.6v-1.2zM-.6-13.3H.6v1.2H-.6zM-.6-10.76H.6v1.2H-.6zM-.6-8.22H.6v1.2H-.6z" fill="#666" fill-rule="evenodd" stroke="#000"/><path d="M-.6.6l.299-.299M-.6-.6l.299.299M-.301.301v-.602M.6.6L.301.301M.301.301h-.602M.6-.6l-.299.299M.301-.301v.602M-.301-.301h.602M-.6-3.14l.299.299M.6-3.14l-.299.299M-.301-2.841h.602M-.6-1.94l.299-.299M-.301-2.239v-.602M.6-1.94l-.299-.299M.301-2.239h-.602M.301-2.841v.602M.6-5.68l-.299.299M.6-4.48l-.299-.299M.301-5.381v.602M-.6-5.68l.299.299M-.301-5.381h.602M-.6-4.48l.299-.299M-.301-4.779v-.602M.301-4.779h-.602M-.6-12.1l.299-.299M-.6-13.3l.299.299M-.301-12.399v-.602M.6-12.1l-.299-.299M.301-12.399h-.602M.6-13.3l-.299.299M.301-13.001v.602M-.301-13.001h.602M-.6-10.76l.299.299M.6-10.76l-.299.299M-.301-10.461h.602M-.6-9.56l.299-.299M-.301-9.859v-.602M.6-9.56l-.299-.299M.301-9.859h-.602M.301-10.461v.602M.6-8.22l-.299.299M.6-7.02l-.299-.299M.301-7.921v.602M-.6-8.22l.299.299M-.301-7.921h.602M-.6-7.02l.299-.299M-.301-7.319v-.602M.301-7.319h-.602" fill="none" stroke="#000"/><path d="M.3-.3v.6h-.6v-.6zM-.3-2.84h.6v.6h-.6zM.3-5.38v.6h-.6v-.6zM.3-13v.6h-.6v-.6zM-.3-10.46h.6v.6h-.6zM.3-7.92v.6h-.6v-.6z" fill="olive" fill-rule="evenodd" stroke="#000"/><path d="M-.1.25V.3M-.1-.25v.5M-.1-.3v.05M.1-.3v.05M-.1-.25h.2M.1-.25v.5M.1.25V.3M-.1.25h.2M-.1-2.29v.05M-.1-2.79v.5M-.1-2.84v.05" fill="none" stroke="#000"/><path d="M.1-2.84v.05" fill="olive" fill-rule="evenodd" stroke="#000"/><path d="M-.1-2.79h.2M.1-2.79v.5M.1-2.29v.05M-.1-2.29h.2M-.1-4.83v.05M-.1-5.33v.5M-.1-5.38v.05M.1-5.38v.05M-.1-5.33h.2M.1-5.33v.5M.1-4.83v.05M-.1-4.83h.2M-.1-12.45v.05M-.1-12.95v.5M-.1-13v.05M.1-13v.05M-.1-12.95h.2M.1-12.95v.5M.1-12.45v.05M-.1-12.45h.2M-.1-9.91v.05M-.1-10.41v.5M-.1-10.46v.05M.1-10.46v.05M-.1-10.41h.2M.1-10.41v.5M.1-9.91v.05M-.1-9.91h.2M-.1-7.37v.05M-.1-7.87v.5M-.1-7.92v.05M.1-7.92v.05M-.1-7.87h.2M.1-7.87v.5M.1-7.37v.05M-.1-7.37h.2" fill="none" stroke="#000"/></g><g transform="matrix(0 -393.7 -393.7 0 7499 31908)" stroke-width=".093"><path d="M-.23-1.166C.88-2.595 3.17-1.81 3.17 0c0 1.81-2.29 2.595-3.4 1.166v0V0z" fill="maroon" fill-rule="evenodd" stroke="#191919"/><circle cx="1.27" r="1.5" fill="red" stroke="#191919"/></g><g transform="matrix(0 -393.7 -393.7 0 10452 31908)" stroke-width=".093"><path d="M-.23-1.166C.88-2.595 3.17-1.81 3.17 0c0 1.81-2.29 2.595-3.4 1.166v0V0z" fill="maroon" fill-rule="evenodd" stroke="#191919"/><circle cx="1.27" r="1.5" fill="red" stroke="#191919"/></g><g transform="matrix(0 -393.7 -393.7 0 13601 31908)" stroke-width=".093"><path d="M-.23-1.166C.88-2.595 3.17-1.81 3.17 0c0 1.81-2.29 2.595-3.4 1.166v0V0z" fill="maroon" fill-rule="evenodd" stroke="#191919"/><circle cx="1.27" r="1.5" fill="red" stroke="#191919"/></g><g transform="matrix(0 -393.7 -393.7 0 16357 31908)" stroke-width=".093"><path d="M-.23-1.166C.88-2.595 3.17-1.81 3.17 0c0 1.81-2.29 2.595-3.4 1.166v0V0z" fill="maroon" fill-rule="evenodd" stroke="#191919"/><circle cx="1.27" r="1.5" fill="red" stroke="#191919"/></g></svg>