M48
;DRILL file {KiCad 4.0.2+dfsg1-stable} date Sex 01 Abr 2016 09:35:55 BRT
;FORMAT={-:-/ absolute / metric / decimal}
FMAT,2
METRIC,TZ
T1C0.400
T2C0.762
T3C0.800
T4C0.800
T5C0.813
T6C1.001
T7C1.016
T8C1.199
%
G90
G05
M71
T1
X115.57Y-73.66
X115.57Y-80.01
T2
X73.66Y-93.98
X73.66Y-101.6
T3
X69.85Y-82.55
X69.85Y-87.63
X83.82Y-53.34
X83.82Y-55.88
X83.82Y-58.42
X83.82Y-60.96
X83.82Y-63.5
X83.82Y-66.04
X83.82Y-68.58
X83.82Y-71.12
X83.82Y-73.66
X83.82Y-76.2
X83.82Y-78.74
X83.82Y-81.28
X83.82Y-83.82
X83.82Y-86.36
X83.82Y-88.9
X83.82Y-91.44
X83.82Y-93.98
X83.82Y-96.52
X83.82Y-99.06
X83.82Y-101.6
X99.06Y-53.34
X99.06Y-55.88
X99.06Y-58.42
X99.06Y-60.96
X99.06Y-63.5
X99.06Y-66.04
X99.06Y-68.58
X99.06Y-71.12
X99.06Y-73.66
X99.06Y-76.2
X99.06Y-78.74
X99.06Y-81.28
X99.06Y-83.82
X99.06Y-86.36
X99.06Y-88.9
X99.06Y-91.44
X99.06Y-93.98
X99.06Y-96.52
X99.06Y-99.06
X99.06Y-101.6
X106.68Y-73.66
T4
X67.35Y-82.55
X67.35Y-87.63
X76.2Y-82.649
X76.2Y-87.531
X106.68Y-76.16
T5
X55.88Y-85.09
X55.88Y-97.79
X60.96Y-85.09
X60.96Y-97.79
X68.58Y-53.34
X68.58Y-66.04
X73.66Y-53.34
X73.66Y-66.04
T6
X59.69Y-107.95
X59.69Y-110.49
X63.5Y-76.2
X73.66Y-76.2
X73.66Y-107.95
X73.66Y-110.49
X81.28Y-45.72
X83.82Y-107.95
X91.44Y-45.72
X93.98Y-107.95
X104.14Y-62.23
X104.14Y-69.85
X111.76Y-39.37
X111.76Y-49.53
X114.3Y-62.23
X114.3Y-69.85
X121.92Y-46.99
X121.92Y-62.23
X121.92Y-69.85
X124.46Y-46.99
X124.46Y-62.23
X124.46Y-69.85
T7
X85.09Y-38.1
X87.63Y-38.1
X90.17Y-38.1
X92.71Y-38.1
X95.25Y-38.1
X97.79Y-38.1
X109.22Y-86.36
X109.22Y-88.9
X109.22Y-91.44
X109.22Y-93.98
X123.19Y-33.02
X123.19Y-35.56
T8
X63.5Y-41.91
X68.58Y-41.91
X73.66Y-41.91
T0
M30
