<svg width="277" height="245" viewBox="0 0 22277 19734" xmlns="http://www.w3.org/2000/svg"><g clip-path="url(#a)" mask="url(#b)" transform="matrix(1.0026 0 0 1.0014 -38869 -17924)"><defs><clipPath id="a"><path d="M38750 17900v19700h22250V17900H38750" fill-rule="evenodd"/></clipPath></defs><g fill="#313d63" stroke="#313d63"><path d="M38750 17900v19700h22250V17900H38750" fill-rule="evenodd"/><g fill-opacity="0" stroke-linecap="round" stroke-linejoin="round" stroke-width="19.685" fill="none" stroke="#000"><path d="M61000 17900H38750M61000 37600V17900M38750 37600h22250M38750 17900v19700"/></g></g><g stroke-linecap="round" stroke-linejoin="round" stroke-width="0" stroke="none" fill="#9c6b28"><circle cx="43604" cy="20978" r="300"/><circle cx="43648" cy="30982" r="300"/><circle cx="40211" cy="21431" r="300"/><circle cx="40254" cy="30573" r="300"/><circle cx="42632" cy="32758" r="300"/><circle cx="41246" cy="19270" r="300"/><g fill-rule="evenodd"><path d="M41578 33050h-600v-600h600zM57344 23457h-689v-413.4h689zM56764 22994h-118.1v-196.9h118.1zM56961 22994h-118.1v-196.9h118.1zM57158 22994h-118.1v-196.9h118.1zM57354 22994h-118.1v-196.9h118.1zM57354 23703h-118.1v-196.9h118.1zM57158 23703h-118.1v-196.9h118.1zM56961 23703h-118.1v-196.9h118.1zM56764 23703h-118.1v-196.9h118.1z"/></g><g><circle cx="60000" cy="25000" r="334.65"/><circle cx="60000" cy="24000" r="334.65"/><circle cx="60000" cy="23000" r="334.65"/><path d="M59665 22335v-669.2h669.2v669.2z" fill-rule="evenodd"/><circle cx="49454" cy="20953" r="300"/><circle cx="49498" cy="30957" r="300"/><circle cx="46061" cy="21406" r="300"/><circle cx="46104" cy="30547" r="300"/><circle cx="48482" cy="32732" r="300"/><circle cx="47096" cy="19244" r="300"/></g><path d="M47428 33024h-600v-600h600z" fill-rule="evenodd"/></g><g fill="#212d53" stroke="#212d53" stroke-linecap="round" stroke-linejoin="round"><g stroke-width="0" stroke="none"><circle cx="43604" cy="20978" r="300"/><circle cx="43648" cy="30982" r="300"/><circle cx="40211" cy="21431" r="300"/><circle cx="40254" cy="30573" r="300"/><circle cx="42632" cy="32758" r="300"/><circle cx="41246" cy="19270" r="300"/></g><g fill-rule="evenodd" stroke-width="0" stroke="none"><path d="M41578 33050h-600v-600h600zM57344 23457h-689v-413.4h689zM56764 22994h-118.1v-196.9h118.1zM56961 22994h-118.1v-196.9h118.1zM57158 22994h-118.1v-196.9h118.1zM57354 22994h-118.1v-196.9h118.1zM57354 23703h-118.1v-196.9h118.1zM57158 23703h-118.1v-196.9h118.1zM56961 23703h-118.1v-196.9h118.1zM56764 23703h-118.1v-196.9h118.1z"/></g><g stroke-width="0" stroke="none"><circle cx="60000" cy="25000" r="334.65"/><circle cx="60000" cy="24000" r="334.65"/><circle cx="60000" cy="23000" r="334.65"/><path d="M59665 22335v-669.2h669.2v669.2z" fill-rule="evenodd"/><circle cx="49454" cy="20953" r="300"/><circle cx="49498" cy="30957" r="300"/><circle cx="46061" cy="21406" r="300"/><circle cx="46104" cy="30547" r="300"/><circle cx="48482" cy="32732" r="300"/><circle cx="47096" cy="19244" r="300"/></g><path d="M47428 33024h-600v-600h600z" fill-rule="evenodd" stroke="none" stroke-width="0"/><g fill-opacity="0" stroke-width="98.425" fill="none"><path d="M57295 23712v83M57295 23795l205 205M57500 24000h2500M56724 23724v500M56712 23712l12 12M56704 23712h8M56724 24224l1526 1526M58250 25750h2000M60250 25750l250-250M60500 23500l-500-500M60500 25500v-2000M57098 22787h197M60000 22000h-2500M57295 22204v583M57500 22000l-205 204M56704 22787h197M56901 23151l99 99M56901 22787v364M56901 23348v364M57000 23250l-99 98M56901 23903v-191M57998 25000l-1097-1097M60000 25000h-2002"/></g><g stroke-width="0" stroke="none"><circle cx="43604" cy="20978" r="68.898"/><circle cx="43648" cy="30982" r="68.898"/><circle cx="40211" cy="21431" r="68.898"/><circle cx="40254" cy="30573" r="68.898"/><circle cx="42632" cy="32758" r="68.898"/><circle cx="41246" cy="19270" r="68.898"/><circle cx="41278" cy="32750" r="68.898"/><circle cx="60000" cy="25000" r="68.898"/><circle cx="60000" cy="24000" r="68.898"/><circle cx="60000" cy="23000" r="68.898"/><circle cx="60000" cy="22000" r="68.898"/><circle cx="49454" cy="20953" r="68.898"/><circle cx="49498" cy="30957" r="68.898"/><circle cx="46061" cy="21406" r="68.898"/><circle cx="46104" cy="30547" r="68.898"/><circle cx="48482" cy="32732" r="68.898"/><circle cx="47096" cy="19244" r="68.898"/><circle cx="47128" cy="32724" r="68.898"/></g></g><g fill="#b5ae30" mask="url(#c)" stroke="#b5ae30" stroke-linecap="round" stroke-linejoin="round"><g stroke-width="0" stroke="none"><circle cx="43604" cy="20978" r="300"/><circle cx="43648" cy="30982" r="300"/><circle cx="40211" cy="21431" r="300"/><circle cx="40254" cy="30573" r="300"/><circle cx="42632" cy="32758" r="300"/><circle cx="41246" cy="19270" r="300"/></g><g fill-rule="evenodd" stroke-width="0" stroke="none"><path d="M41578 33050h-600v-600h600zM57344 23457h-689v-413.4h689zM56764 22994h-118.1v-196.9h118.1zM56961 22994h-118.1v-196.9h118.1zM57158 22994h-118.1v-196.9h118.1zM57354 22994h-118.1v-196.9h118.1zM57354 23703h-118.1v-196.9h118.1zM57158 23703h-118.1v-196.9h118.1zM56961 23703h-118.1v-196.9h118.1zM56764 23703h-118.1v-196.9h118.1z"/></g><g stroke-width="0" stroke="none"><circle cx="60000" cy="25000" r="334.65"/><circle cx="60000" cy="24000" r="334.65"/><circle cx="60000" cy="23000" r="334.65"/><path d="M59665 22335v-669.2h669.2v669.2z" fill-rule="evenodd"/><circle cx="49454" cy="20953" r="300"/><circle cx="49498" cy="30957" r="300"/><circle cx="46061" cy="21406" r="300"/><circle cx="46104" cy="30547" r="300"/><circle cx="48482" cy="32732" r="300"/><circle cx="47096" cy="19244" r="300"/></g><path d="M47428 33024h-600v-600h600z" fill-rule="evenodd" stroke="none" stroke-width="0"/><g fill-opacity="0" stroke-width="98.425" fill="none"><path d="M57295 23712v83M57295 23795l205 205M57500 24000h2500M56724 23724v500M56712 23712l12 12M56704 23712h8M56724 24224l1526 1526M58250 25750h2000M60250 25750l250-250M60500 23500l-500-500M60500 25500v-2000M57098 22787h197M60000 22000h-2500M57295 22204v583M57500 22000l-205 204M56704 22787h197M56901 23151l99 99M56901 22787v364M56901 23348v364M57000 23250l-99 98M56901 23903v-191M57998 25000l-1097-1097M60000 25000h-2002"/></g><g stroke-width="0" stroke="none"><circle cx="43604" cy="20978" r="68.898"/><circle cx="43648" cy="30982" r="68.898"/><circle cx="40211" cy="21431" r="68.898"/><circle cx="40254" cy="30573" r="68.898"/><circle cx="42632" cy="32758" r="68.898"/><circle cx="41246" cy="19270" r="68.898"/><circle cx="41278" cy="32750" r="68.898"/><circle cx="60000" cy="25000" r="68.898"/><circle cx="60000" cy="24000" r="68.898"/><circle cx="60000" cy="23000" r="68.898"/><circle cx="60000" cy="22000" r="68.898"/><circle cx="49454" cy="20953" r="68.898"/><circle cx="49498" cy="30957" r="68.898"/><circle cx="46061" cy="21406" r="68.898"/><circle cx="46104" cy="30547" r="68.898"/><circle cx="48482" cy="32732" r="68.898"/><circle cx="47096" cy="19244" r="68.898"/><circle cx="47128" cy="32724" r="68.898"/></g></g><defs><mask id="c"><g fill-opacity="1" stroke="#fff" stroke-linecap="round" stroke-linejoin="round" stroke-width="0" fill="#fff"><circle cx="43604" cy="20978" r="300"/><circle cx="43648" cy="30982" r="300"/><circle cx="40211" cy="21431" r="300"/><circle cx="40254" cy="30573" r="300"/><circle cx="42632" cy="32758" r="300"/><circle cx="41246" cy="19270" r="300"/><path d="M41578 33050h-600v-600h600zM57344 23457h-689v-413.4h689zM56764 22994h-118.1v-196.9h118.1zM56961 22994h-118.1v-196.9h118.1zM57158 22994h-118.1v-196.9h118.1zM57354 22994h-118.1v-196.9h118.1zM57354 23703h-118.1v-196.9h118.1zM57158 23703h-118.1v-196.9h118.1zM56961 23703h-118.1v-196.9h118.1zM56764 23703h-118.1v-196.9h118.1z" fill-rule="evenodd"/><g><circle cx="60000" cy="25000" r="334.65"/><circle cx="60000" cy="24000" r="334.65"/><circle cx="60000" cy="23000" r="334.65"/><path d="M59665 22335v-669.2h669.2v669.2z" fill-rule="evenodd"/><circle cx="49454" cy="20953" r="300"/><circle cx="49498" cy="30957" r="300"/><circle cx="46061" cy="21406" r="300"/><circle cx="46104" cy="30547" r="300"/><circle cx="48482" cy="32732" r="300"/><circle cx="47096" cy="19244" r="300"/></g><g><path d="M47428 33024h-600v-600h600z" fill-rule="evenodd"/></g></g></mask></defs><defs><mask id="d"><path fill="#fff" d="M38651 9901h24368v27708H38651z"/><g fill-opacity="1" stroke="#000" stroke-linecap="round" stroke-linejoin="round" stroke-width="0"><circle cx="43604" cy="20978" r="300"/><circle cx="43648" cy="30982" r="300"/><circle cx="40211" cy="21431" r="300"/><circle cx="40254" cy="30573" r="300"/><circle cx="42632" cy="32758" r="300"/><circle cx="41246" cy="19270" r="300"/><path d="M41578 33050h-600v-600h600zM57344 23457h-689v-413.4h689zM56764 22994h-118.1v-196.9h118.1zM56961 22994h-118.1v-196.9h118.1zM57158 22994h-118.1v-196.9h118.1zM57354 22994h-118.1v-196.9h118.1zM57354 23703h-118.1v-196.9h118.1zM57158 23703h-118.1v-196.9h118.1zM56961 23703h-118.1v-196.9h118.1zM56764 23703h-118.1v-196.9h118.1z" fill-rule="evenodd"/><g><circle cx="60000" cy="25000" r="334.65"/><circle cx="60000" cy="24000" r="334.65"/><circle cx="60000" cy="23000" r="334.65"/><path d="M59665 22335v-669.2h669.2v669.2z" fill-rule="evenodd"/><circle cx="49454" cy="20953" r="300"/><circle cx="49498" cy="30957" r="300"/><circle cx="46061" cy="21406" r="300"/><circle cx="46104" cy="30547" r="300"/><circle cx="48482" cy="32732" r="300"/><circle cx="47096" cy="19244" r="300"/></g><g><path d="M47428 33024h-600v-600h600z" fill-rule="evenodd"/></g></g></mask></defs><g fill="none" fill-opacity="0" mask="url(#d)" stroke="#f0f0f0" stroke-linecap="round" stroke-linejoin="round"><g stroke-width="147.64"><path d="M40902 33926h337M41070 34517v-591M41436 34207h197M41717 34517h-281v-591h281M41970 34517v-591l197 422 197-422v591M42645 34517v-591h225l56 28 29 28 28 57v84l-28 56-29 28-56 28h-225M47623 34517l-197-282M47285 34517v-591h225l56 28 29 28 28 57v84l-28 56-29 28-56 28h-225M47876 34517v-591M47876 34207h337M48213 34517v-591"/></g><g stroke-width="295.28"><path d="M51719 20228l168 56h282l112-56 56-57 56-112v-113l-56-112-56-56-112-57-225-56-113-56-56-56-56-113v-112l56-113 56-56 113-56h281l168 56M52731 19103h675M53068 20284v-1181M53800 20284v-1181M53800 19665h674M54474 20284v-1181M54924 19103h732l-394 450h169l112 56 56 56 57 113v281l-57 112-56 57-112 56h-338l-112-56-57-57M56049 19103l788 1181M56837 19103l-788 1181"/></g><g stroke-width="62.992"><path d="M41315 31197h1222M41315 20832v10365M42537 20832h-1222M42537 31197V20832M40094 32947h3730M40094 18983v13964M43824 18983h-3730M43824 32947V18983"/></g><g stroke-width="47.244"><path d="M56566 23250v-394M57433 23643v-787M60000 21476h523M60523 21476v524M60523 22500v3023M59476 25523h1047M59476 22500v3023M59476 22500h1047"/></g><g stroke-width="62.992"><path d="M49674 32921V18958M49674 18958h-3730M45944 18958v13963M45944 32921h3730M48387 31172V20806M48387 20806h-1222M47165 20806v10366M47165 31172h1222"/></g></g><g fill-opacity="0" stroke-linecap="round" stroke-linejoin="round" stroke-width="19.685" fill="none" stroke="#000"><path d="M61000 17900H38750M61000 37600V17900M38750 37600h22250M38750 17900v19700"/></g><defs><mask id="b"><path fill="#fff" d="M38651 9901h24368v27708H38651z"/><path stroke="#000" stroke-linecap="round" stroke-width="300" d="M43604 20978h0M43646.5 30981.5h0M40209.5 21430.5h0M40252.5 30571.5h0M42631 32757h0M41246 19270h0M41277.5 32750.5h0"/><path stroke="#000" stroke-linecap="round" stroke-width="393" d="M60000 25000h0M60000 24000h0M60000 23000h0M60000 22000h0"/><path stroke="#000" stroke-linecap="round" stroke-width="300" d="M49454 20952h0M49496.5 30955.5h0M46060 21404h0M46103 30547h0M48480.5 32731.5h0M47096 19244h0M47127.5 32724.5h0"/></mask></defs></g><path d="M4947.2 1839.1v-710.24H1896.1v.63h-295.27v-.63h-196.85v13778h3543.2v-13286" fill="#b3b3b3" fill-rule="evenodd" stroke="#000" stroke-width="36.456"/><path d="M3766.2 2900.3H2585.1v10235h1181.1zM4750.4 14513v196.83h-196.85c-.01-108.71 88.115-196.84 196.83-196.85z" fill="#1a1a1a" fill-rule="evenodd" stroke="#000" stroke-width="36.456"/><path d="M4750.4 1522.5v-196.83" fill="none" stroke="#000" stroke-width="36.456"/><path d="M4750.4 1325.7h-196.85c.01 108.69 88.128 196.8 196.83 196.81l.015.017v-188.95zM3175.6 2250.8c445.88-.32 445.88-669.56 0-669.24v.017c-442.97 3.189-442.97 666.02 0 669.2zM3175.6 14454c445.88-.321 445.88-669.56 0-669.24v.02c-442.97 3.188-442.97 666.02 0 669.2z" fill="#1a1a1a" fill-rule="evenodd" stroke="#000" stroke-width="36.456"/><path d="M1896.1 1186.5V1326M1797.7 1187.1v139.19M4750.4 1522.5h139.2M4553.5 1128.8v57.658M4750.4 14513h139.2M4553.5 14849v-139.19M1797.7 14849v-139.19M1600.9 14513h-139.19M1600.9 1523.1h-139.19M1404 14710h196.85" fill="none" stroke="#000" stroke-width="36.456"/><path d="M1600.9 14513c108.72 0 196.86 88.134 196.85 196.85H1600.9v-196.83z" fill="#1a1a1a" fill-rule="evenodd" stroke="#000" stroke-width="36.456"/><path d="M1797.7 14907v-57.658M1461.7 14513h-57.659M1404 14702h196.85M1404 1128.8v.63M1404 14702v7.873M1461.7 1523.1h-57.659" fill="none" stroke="#000" stroke-width="36.456"/><path d="M1797.7 1326.3c0 108.71-88.128 196.84-196.85 196.84v-197.48h196.85z" fill="#1a1a1a" fill-rule="evenodd" stroke="#000" stroke-width="36.456"/><path d="M4553.5 14907v-57.658M4947.2 14710h-196.85M4889.6 14513h57.659M4947.2 14702h-196.85M4553.5 1186.5v139.19M4947.2 1325.7h-196.85M4947.2 1333.5h-196.85M4947.2 1333.5v-7.873M1404 1326.3h196.85M1797.7 1129.5v57.658M1404 1334.2h196.85M1896.1 1128.8v57.658M1600.9 1129.5v-.63M1404 1333.5h196.85M1896.1 1325.7h2209M1797.7 1326.3h98.423M4750.4 1839.1v-316.59M4750.4 1839.1v12674M1797.7 14710h2755.8M1600.9 14513V1523M1600.9 14907v-196.83M4750.4 14907v-196.83M4553.5 1325.7h-448.38M4750.4 1128.8v196.83M1600.9 1129.5v196.19M1896.1 1186.5h2209M1797.7 1187.1h98.423M4889.6 1522.5v316.59M4553.5 1186.5h-448.38M4889.6 1839.1v12674M4553.5 14849H1797.7M1461.7 14513V1523" fill="none" stroke="#000" stroke-width="36.456"/><path d="M17986 5744.7v-3.936M17888 5740.7v3.936M17888 5744.7h98.407" fill="none" stroke="#000" stroke-width="36.45"/><path d="M17842 4961.4h779.38v779.32H17842z" fill="#1a1a1a" fill-rule="evenodd" stroke="#000" stroke-width="36.45"/><path d="M17888 4957.5v3.936M17986 4961.4v-3.936M18084 4957.5v3.936M18084 5740.7v3.936M18183 4961.4v-3.936M18183 5744.7v-3.936M18281 4957.5v3.936M18281 5740.7v3.936M18380 4961.4v-3.936M18380 5744.7v-3.936M18478 4957.5v3.936M18478 5740.7v3.936M18576 4961.4v-3.936M18576 5744.7v-3.936" fill="none" stroke="#000" stroke-width="36.45"/><ellipse transform="matrix(0 -1 -1 0 0 0)" cx="-5555.7" cy="-18027" rx="78.719" ry="78.725" fill="#333" stroke="#000" stroke-width="36.45"/><path d="M18478 5744.7h98.407M18084 5744.7h98.407M18281 5744.7h98.407M17986 4957.5h-98.407M18576 4957.5h-98.407M18183 4957.5h-98.407M18380 4957.5h-98.407" fill="none" stroke="#000" stroke-width="36.45"/><g transform="matrix(393.7 0 0 -393.69 21232 4101.1)" stroke-width=".093"><path d="M-1.27-8.89h2.54V1.27h-2.54z" fill="#1a1a1a" fill-rule="evenodd" stroke="#000"/><path d="M-.6-1.94v-1.2H.6v1.2z" fill="#333" fill-rule="evenodd" stroke="#000"/><path d="M-.6-5.68H.6v1.2H-.6zM-.6-.6H.6V.6H-.6zM.6-7.02H-.6v-1.2H.6z" fill="#4d4d4d" fill-rule="evenodd" stroke="#000"/><path d="M-.6-1.94l.299-.299M-.6-3.14l.299.299M-.301-2.239v-.602M.6-1.94l-.299-.299M.301-2.239h-.602M.6-3.14l-.299.299M.301-2.841v.602M-.301-2.841h.602M.6-4.48l-.299-.299M-.6-4.48l.299-.299M.301-4.779h-.602M.6-5.68l-.299.299M.301-5.381v.602M-.6-5.68l.299.299M-.301-5.381h.602M-.301-4.779v-.602M-.6-.6l.299.299M.6-.6l-.299.299M-.301-.301h.602M-.6.6l.299-.299M-.301.301v-.602M.6.6L.301.301M.301.301h-.602M.301-.301v.602M-.6-8.22l.299.299M.6-8.22l-.299.299M-.301-7.921h.602M-.6-7.02l.299-.299M-.301-7.319v-.602M.6-7.02l-.299-.299M.301-7.319h-.602M.301-7.921v.602" fill="none" stroke="#000"/><path d="M-.3-2.84h.6v.6h-.6zM.3-5.38v.6h-.6v-.6zM.3-.3v.6h-.6v-.6zM.3-7.92v.6h-.6v-.6z" fill="olive" fill-rule="evenodd" stroke="#000"/><path d="M-.1-2.29v.05M-.1-2.79v.5M-.1-2.84v.05M.1-2.84v.05M-.1-2.79h.2M.1-2.79v.5M.1-2.29v.05M-.1-2.29h.2M-.1-4.83v.05M-.1-5.33v.5M-.1-5.38v.05M.1-5.38v.05M-.1-5.33h.2M.1-5.33v.5M.1-4.83v.05M-.1-4.83h.2M-.1.25V.3M-.1-.25v.5M-.1-.3v.05M.1-.3v.05M-.1-.25h.2M.1-.25v.5M.1.25V.3M-.1.25h.2M-.1-7.37v.05M-.1-7.87v.5M-.1-7.92v.05M.1-7.92v.05M-.1-7.87h.2M.1-7.87v.5M.1-7.37v.05M-.1-7.37h.2" fill="none" stroke="#000"/></g><path d="M10797 1814.1v-710.24H7745.9v.63h-295.27v-.63h-196.85v13778h3543.2v-13286" fill="#b3b3b3" fill-rule="evenodd" stroke="#000" stroke-width="36.456"/><path d="M9616.2 2875.3H8435.1v10235h1181.1zM10600 14488v196.83h-196.85c0-108.71 88.115-196.84 196.83-196.85z" fill="#1a1a1a" fill-rule="evenodd" stroke="#000" stroke-width="36.456"/><path d="M10600 1497.5v-196.83" fill="none" stroke="#000" stroke-width="36.456"/><path d="M10600 1300.7h-196.85c.01 108.69 88.129 196.8 196.83 196.81l.02.017v-188.95zM9025.6 2225.8c445.88-.32 445.88-669.56 0-669.24v.017c-442.97 3.189-442.97 666.02 0 669.2zM9025.6 14429c445.88-.321 445.88-669.56 0-669.24v.02c-442.97 3.188-442.97 666.02 0 669.2z" fill="#1a1a1a" fill-rule="evenodd" stroke="#000" stroke-width="36.456"/><path d="M7746.1 1161.5V1301M7647.7 1162.1v139.19M10600 1497.5h139.2M10404 1103.8v57.658M10600 14488h139.2M10404 14824v-139.19M7647.7 14824v-139.19M7450.9 14488h-139.19M7450.9 1498.1h-139.19M7254 14685h196.85" fill="none" stroke="#000" stroke-width="36.456"/><path d="M7450.9 14488c108.72 0 196.86 88.134 196.85 196.85H7450.9v-196.83z" fill="#1a1a1a" fill-rule="evenodd" stroke="#000" stroke-width="36.456"/><path d="M7647.7 14882v-57.658M7311.7 14488h-57.659M7254 14677h196.85M7254 1103.8v.63M7254 14677v7.873M7311.7 1498.1h-57.659" fill="none" stroke="#000" stroke-width="36.456"/><path d="M7647.7 1301.3c0 108.71-88.128 196.84-196.85 196.84v-197.48h196.85z" fill="#1a1a1a" fill-rule="evenodd" stroke="#000" stroke-width="36.456"/><path d="M10404 14882v-57.658M10797 14685h-196.85M10740 14488h57.659M10797 14677h-196.85M10404 1161.5v139.19M10797 1300.7h-196.85M10797 1308.5h-196.85M10797 1308.5v-7.873M7254 1301.3h196.85M7647.7 1104.5v57.658M7254 1309.2h196.85M7746.1 1103.8v57.658M7450.9 1104.5v-.63M7254 1308.5h196.85M7746.1 1300.7h2209M7647.7 1301.3h98.423M10600 1814.1v-316.59M10600 1814.1v12674M7647.7 14685h2755.8M7450.9 14488V1498M7450.9 14882v-196.83M10600 14882v-196.83M10404 1300.7h-448.38M10600 1103.8v196.83M7450.9 1104.5v196.19M7746.1 1161.5h2209M7647.7 1162.1h98.423M10740 1497.5v316.59M10404 1161.5h-448.38M10740 1814.1v12674M10404 14824H7648.2M7311.7 14488V1498" fill="none" stroke="#000" stroke-width="36.456"/></svg>