<svg width="426" height="135" viewBox="0 0 34162 10869" xmlns="http://www.w3.org/2000/svg"><g clip-path="url(#a)" mask="url(#b)" transform="translate(-39237 -23614)"><defs><clipPath id="a"><path d="M73425 23622v10826H39173V23622h34252" fill-rule="evenodd"/></clipPath></defs><g fill="#313d63" stroke="#313d63"><path d="M73425 23622v10826H39173V23622h34252" fill-rule="evenodd"/><g fill-opacity="0" stroke-linecap="round" stroke-linejoin="round" stroke-width="39.37" fill="none" stroke="#000"><path d="M39173 23622h34252M39173 34448V23622M73425 34448H39173M73425 23622v10826"/></g></g><g stroke-linecap="round" stroke-linejoin="round" stroke-width="0" stroke="none" fill="#9c6b28"><circle cx="70079" cy="24378" r="275.59"/><circle cx="70079" cy="26378" r="275.59"/><circle cx="66142" cy="24378" r="275.59"/><circle cx="66142" cy="26378" r="275.59"/><circle cx="62205" cy="24378" r="275.59"/><circle cx="62205" cy="26378" r="275.59"/><circle cx="58268" cy="24378" r="275.59"/><circle cx="58268" cy="26378" r="275.59"/><circle cx="54331" cy="24378" r="275.59"/><circle cx="54331" cy="26378" r="275.59"/><circle cx="50394" cy="24378" r="275.59"/><circle cx="50394" cy="26378" r="275.59"/><circle cx="46457" cy="24378" r="275.59"/><circle cx="46457" cy="26378" r="275.59"/><circle cx="42520" cy="24378" r="275.59"/><circle cx="42520" cy="26378" r="275.59"/><circle cx="68118" cy="24795" r="300"/><circle cx="68118" cy="25972" r="300"/><path d="M68410 27458h-600v-600h600z" fill-rule="evenodd"/><g><circle cx="64181" cy="24795" r="300"/><circle cx="64181" cy="25972" r="300"/></g><path d="M64473 27458h-600v-600h600z" fill-rule="evenodd"/><g><circle cx="60244" cy="24795" r="300"/><circle cx="60244" cy="25972" r="300"/></g><path d="M60536 27458h-600v-600h600z" fill-rule="evenodd"/><g><circle cx="56307" cy="24795" r="300"/><circle cx="56307" cy="25972" r="300"/></g><path d="M56599 27458h-600v-600h600z" fill-rule="evenodd"/><g><circle cx="52370" cy="24795" r="300"/><circle cx="52370" cy="25972" r="300"/></g><path d="M52662 27458h-600v-600h600z" fill-rule="evenodd"/><g><circle cx="48433" cy="24795" r="300"/><circle cx="48433" cy="25972" r="300"/></g><path d="M48725 27458h-600v-600h600z" fill-rule="evenodd"/><g><circle cx="44496" cy="24795" r="300"/><circle cx="44496" cy="25972" r="300"/></g><path d="M44788 27458h-600v-600h600z" fill-rule="evenodd"/><g><circle cx="40559" cy="24795" r="300"/><circle cx="40559" cy="25972" r="300"/></g><path d="M40851 27458h-600v-600h600z" fill-rule="evenodd"/><g><circle cx="72441" cy="24591" r="334.65"/><circle cx="72441" cy="25591" r="334.65"/><circle cx="72441" cy="26591" r="334.65"/><circle cx="72441" cy="27591" r="334.65"/><circle cx="72441" cy="28591" r="334.65"/><circle cx="72441" cy="29591" r="334.65"/><circle cx="72441" cy="30591" r="334.65"/><circle cx="72441" cy="31591" r="334.65"/><circle cx="72441" cy="32591" r="334.65"/><path d="M72776 33256v669.3h-669.3V33256z" fill-rule="evenodd"/></g></g><g fill="#212d53" stroke="none" stroke-linecap="round" stroke-linejoin="round" stroke-width="0"><circle cx="70079" cy="24378" r="275.59"/><circle cx="70079" cy="26378" r="275.59"/><circle cx="66142" cy="24378" r="275.59"/><circle cx="66142" cy="26378" r="275.59"/><circle cx="62205" cy="24378" r="275.59"/><circle cx="62205" cy="26378" r="275.59"/><circle cx="58268" cy="24378" r="275.59"/><circle cx="58268" cy="26378" r="275.59"/><circle cx="54331" cy="24378" r="275.59"/><circle cx="54331" cy="26378" r="275.59"/><circle cx="50394" cy="24378" r="275.59"/><circle cx="50394" cy="26378" r="275.59"/><circle cx="46457" cy="24378" r="275.59"/><circle cx="46457" cy="26378" r="275.59"/><circle cx="42520" cy="24378" r="275.59"/><circle cx="42520" cy="26378" r="275.59"/><circle cx="68118" cy="24795" r="300"/><circle cx="68118" cy="25972" r="300"/><path d="M68410 27458h-600v-600h600z" fill-rule="evenodd"/><circle cx="64181" cy="24795" r="300"/><circle cx="64181" cy="25972" r="300"/><path d="M64473 27458h-600v-600h600z" fill-rule="evenodd"/><circle cx="60244" cy="24795" r="300"/><circle cx="60244" cy="25972" r="300"/><path d="M60536 27458h-600v-600h600z" fill-rule="evenodd"/><circle cx="56307" cy="24795" r="300"/><circle cx="56307" cy="25972" r="300"/><path d="M56599 27458h-600v-600h600z" fill-rule="evenodd"/><circle cx="52370" cy="24795" r="300"/><circle cx="52370" cy="25972" r="300"/><path d="M52662 27458h-600v-600h600z" fill-rule="evenodd"/><circle cx="48433" cy="24795" r="300"/><circle cx="48433" cy="25972" r="300"/><path d="M48725 27458h-600v-600h600z" fill-rule="evenodd"/><circle cx="44496" cy="24795" r="300"/><circle cx="44496" cy="25972" r="300"/><path d="M44788 27458h-600v-600h600z" fill-rule="evenodd"/><circle cx="40559" cy="24795" r="300"/><circle cx="40559" cy="25972" r="300"/><path d="M40851 27458h-600v-600h600z" fill-rule="evenodd"/><circle cx="72441" cy="24591" r="334.65"/><circle cx="72441" cy="25591" r="334.65"/><circle cx="72441" cy="26591" r="334.65"/><circle cx="72441" cy="27591" r="334.65"/><circle cx="72441" cy="28591" r="334.65"/><circle cx="72441" cy="29591" r="334.65"/><circle cx="72441" cy="30591" r="334.65"/><circle cx="72441" cy="31591" r="334.65"/><circle cx="72441" cy="32591" r="334.65"/><path d="M72776 33256v669.3h-669.3V33256z" fill-rule="evenodd"/><circle cx="70079" cy="24378" r="68.898"/><circle cx="70079" cy="26378" r="68.898"/><circle cx="66142" cy="24378" r="68.898"/><circle cx="66142" cy="26378" r="68.898"/><circle cx="62205" cy="24378" r="68.898"/><circle cx="62205" cy="26378" r="68.898"/><circle cx="58268" cy="24378" r="68.898"/><circle cx="58268" cy="26378" r="68.898"/><circle cx="54331" cy="24378" r="68.898"/><circle cx="54331" cy="26378" r="68.898"/><circle cx="50394" cy="24378" r="68.898"/><circle cx="50394" cy="26378" r="68.898"/><circle cx="46457" cy="24378" r="68.898"/><circle cx="46457" cy="26378" r="68.898"/><circle cx="42520" cy="24378" r="68.898"/><circle cx="42520" cy="26378" r="68.898"/><circle cx="68118" cy="24795" r="68.898"/><circle cx="68118" cy="25972" r="68.898"/><circle cx="68110" cy="27158" r="68.898"/><circle cx="64181" cy="24795" r="68.898"/><circle cx="64181" cy="25972" r="68.898"/><circle cx="64173" cy="27158" r="68.898"/><circle cx="60244" cy="24795" r="68.898"/><circle cx="60244" cy="25972" r="68.898"/><circle cx="60236" cy="27158" r="68.898"/><circle cx="56307" cy="24795" r="68.898"/><circle cx="56307" cy="25972" r="68.898"/><circle cx="56299" cy="27158" r="68.898"/><circle cx="52370" cy="24795" r="68.898"/><circle cx="52370" cy="25972" r="68.898"/><circle cx="52362" cy="27158" r="68.898"/><circle cx="48433" cy="24795" r="68.898"/><circle cx="48433" cy="25972" r="68.898"/><circle cx="48425" cy="27158" r="68.898"/><circle cx="44496" cy="24795" r="68.898"/><circle cx="44496" cy="25972" r="68.898"/><circle cx="44488" cy="27158" r="68.898"/><circle cx="40559" cy="24795" r="68.898"/><circle cx="40559" cy="25972" r="68.898"/><circle cx="40551" cy="27158" r="68.898"/><circle cx="72441" cy="24591" r="68.898"/><circle cx="72441" cy="25591" r="68.898"/><circle cx="72441" cy="26591" r="68.898"/><circle cx="72441" cy="27591" r="68.898"/><circle cx="72441" cy="28591" r="68.898"/><circle cx="72441" cy="29591" r="68.898"/><circle cx="72441" cy="30591" r="68.898"/><circle cx="72441" cy="31591" r="68.898"/><circle cx="72441" cy="32591" r="68.898"/><circle cx="72441" cy="33591" r="68.898"/></g><g fill="#b5ae30" mask="url(#c)" stroke="none" stroke-linecap="round" stroke-linejoin="round" stroke-width="0"><circle cx="70079" cy="24378" r="275.59"/><circle cx="70079" cy="26378" r="275.59"/><circle cx="66142" cy="24378" r="275.59"/><circle cx="66142" cy="26378" r="275.59"/><circle cx="62205" cy="24378" r="275.59"/><circle cx="62205" cy="26378" r="275.59"/><circle cx="58268" cy="24378" r="275.59"/><circle cx="58268" cy="26378" r="275.59"/><circle cx="54331" cy="24378" r="275.59"/><circle cx="54331" cy="26378" r="275.59"/><circle cx="50394" cy="24378" r="275.59"/><circle cx="50394" cy="26378" r="275.59"/><circle cx="46457" cy="24378" r="275.59"/><circle cx="46457" cy="26378" r="275.59"/><circle cx="42520" cy="24378" r="275.59"/><circle cx="42520" cy="26378" r="275.59"/><circle cx="68118" cy="24795" r="300"/><circle cx="68118" cy="25972" r="300"/><path d="M68410 27458h-600v-600h600z" fill-rule="evenodd"/><circle cx="64181" cy="24795" r="300"/><circle cx="64181" cy="25972" r="300"/><path d="M64473 27458h-600v-600h600z" fill-rule="evenodd"/><circle cx="60244" cy="24795" r="300"/><circle cx="60244" cy="25972" r="300"/><path d="M60536 27458h-600v-600h600z" fill-rule="evenodd"/><circle cx="56307" cy="24795" r="300"/><circle cx="56307" cy="25972" r="300"/><path d="M56599 27458h-600v-600h600z" fill-rule="evenodd"/><circle cx="52370" cy="24795" r="300"/><circle cx="52370" cy="25972" r="300"/><path d="M52662 27458h-600v-600h600z" fill-rule="evenodd"/><circle cx="48433" cy="24795" r="300"/><circle cx="48433" cy="25972" r="300"/><path d="M48725 27458h-600v-600h600z" fill-rule="evenodd"/><circle cx="44496" cy="24795" r="300"/><circle cx="44496" cy="25972" r="300"/><path d="M44788 27458h-600v-600h600z" fill-rule="evenodd"/><circle cx="40559" cy="24795" r="300"/><circle cx="40559" cy="25972" r="300"/><path d="M40851 27458h-600v-600h600z" fill-rule="evenodd"/><circle cx="72441" cy="24591" r="334.65"/><circle cx="72441" cy="25591" r="334.65"/><circle cx="72441" cy="26591" r="334.65"/><circle cx="72441" cy="27591" r="334.65"/><circle cx="72441" cy="28591" r="334.65"/><circle cx="72441" cy="29591" r="334.65"/><circle cx="72441" cy="30591" r="334.65"/><circle cx="72441" cy="31591" r="334.65"/><circle cx="72441" cy="32591" r="334.65"/><path d="M72776 33256v669.3h-669.3V33256z" fill-rule="evenodd"/><circle cx="70079" cy="24378" r="68.898"/><circle cx="70079" cy="26378" r="68.898"/><circle cx="66142" cy="24378" r="68.898"/><circle cx="66142" cy="26378" r="68.898"/><circle cx="62205" cy="24378" r="68.898"/><circle cx="62205" cy="26378" r="68.898"/><circle cx="58268" cy="24378" r="68.898"/><circle cx="58268" cy="26378" r="68.898"/><circle cx="54331" cy="24378" r="68.898"/><circle cx="54331" cy="26378" r="68.898"/><circle cx="50394" cy="24378" r="68.898"/><circle cx="50394" cy="26378" r="68.898"/><circle cx="46457" cy="24378" r="68.898"/><circle cx="46457" cy="26378" r="68.898"/><circle cx="42520" cy="24378" r="68.898"/><circle cx="42520" cy="26378" r="68.898"/><circle cx="68118" cy="24795" r="68.898"/><circle cx="68118" cy="25972" r="68.898"/><circle cx="68110" cy="27158" r="68.898"/><circle cx="64181" cy="24795" r="68.898"/><circle cx="64181" cy="25972" r="68.898"/><circle cx="64173" cy="27158" r="68.898"/><circle cx="60244" cy="24795" r="68.898"/><circle cx="60244" cy="25972" r="68.898"/><circle cx="60236" cy="27158" r="68.898"/><circle cx="56307" cy="24795" r="68.898"/><circle cx="56307" cy="25972" r="68.898"/><circle cx="56299" cy="27158" r="68.898"/><circle cx="52370" cy="24795" r="68.898"/><circle cx="52370" cy="25972" r="68.898"/><circle cx="52362" cy="27158" r="68.898"/><circle cx="48433" cy="24795" r="68.898"/><circle cx="48433" cy="25972" r="68.898"/><circle cx="48425" cy="27158" r="68.898"/><circle cx="44496" cy="24795" r="68.898"/><circle cx="44496" cy="25972" r="68.898"/><circle cx="44488" cy="27158" r="68.898"/><circle cx="40559" cy="24795" r="68.898"/><circle cx="40559" cy="25972" r="68.898"/><circle cx="40551" cy="27158" r="68.898"/><circle cx="72441" cy="24591" r="68.898"/><circle cx="72441" cy="25591" r="68.898"/><circle cx="72441" cy="26591" r="68.898"/><circle cx="72441" cy="27591" r="68.898"/><circle cx="72441" cy="28591" r="68.898"/><circle cx="72441" cy="29591" r="68.898"/><circle cx="72441" cy="30591" r="68.898"/><circle cx="72441" cy="31591" r="68.898"/><circle cx="72441" cy="32591" r="68.898"/><circle cx="72441" cy="33591" r="68.898"/></g><defs><mask id="c"><g stroke="#fff" stroke-linecap="round" stroke-linejoin="round" fill="#fff" stroke-width="0"><circle cx="70079" cy="24378" r="275.59"/><circle cx="70079" cy="26378" r="275.59"/><circle cx="66142" cy="24378" r="275.59"/><circle cx="66142" cy="26378" r="275.59"/><circle cx="62205" cy="24378" r="275.59"/><circle cx="62205" cy="26378" r="275.59"/><circle cx="58268" cy="24378" r="275.59"/><circle cx="58268" cy="26378" r="275.59"/><circle cx="54331" cy="24378" r="275.59"/><circle cx="54331" cy="26378" r="275.59"/><circle cx="50394" cy="24378" r="275.59"/><circle cx="50394" cy="26378" r="275.59"/><circle cx="46457" cy="24378" r="275.59"/><circle cx="46457" cy="26378" r="275.59"/><circle cx="42520" cy="24378" r="275.59"/><circle cx="42520" cy="26378" r="275.59"/><circle cx="68118" cy="24795" r="300"/><circle cx="68118" cy="25972" r="300"/><g><path d="M68410 27458h-600v-600h600z" fill-rule="evenodd"/></g><g><circle cx="64181" cy="24795" r="300"/><circle cx="64181" cy="25972" r="300"/></g><g><path d="M64473 27458h-600v-600h600z" fill-rule="evenodd"/></g><g><circle cx="60244" cy="24795" r="300"/><circle cx="60244" cy="25972" r="300"/></g><g><path d="M60536 27458h-600v-600h600z" fill-rule="evenodd"/></g><g><circle cx="56307" cy="24795" r="300"/><circle cx="56307" cy="25972" r="300"/></g><g><path d="M56599 27458h-600v-600h600z" fill-rule="evenodd"/></g><g><circle cx="52370" cy="24795" r="300"/><circle cx="52370" cy="25972" r="300"/></g><g><path d="M52662 27458h-600v-600h600z" fill-rule="evenodd"/></g><g><circle cx="48433" cy="24795" r="300"/><circle cx="48433" cy="25972" r="300"/></g><g><path d="M48725 27458h-600v-600h600z" fill-rule="evenodd"/></g><g><circle cx="44496" cy="24795" r="300"/><circle cx="44496" cy="25972" r="300"/></g><g><path d="M44788 27458h-600v-600h600z" fill-rule="evenodd"/></g><g><circle cx="40559" cy="24795" r="300"/><circle cx="40559" cy="25972" r="300"/></g><g><path d="M40851 27458h-600v-600h600z" fill-rule="evenodd"/></g><g><circle cx="72441" cy="24591" r="334.65"/><circle cx="72441" cy="25591" r="334.65"/><circle cx="72441" cy="26591" r="334.65"/><circle cx="72441" cy="27591" r="334.65"/><circle cx="72441" cy="28591" r="334.65"/><circle cx="72441" cy="29591" r="334.65"/><circle cx="72441" cy="30591" r="334.65"/><circle cx="72441" cy="31591" r="334.65"/><circle cx="72441" cy="32591" r="334.65"/><path d="M72776 33256v669.3h-669.3V33256z" fill-rule="evenodd"/></g></g></mask></defs><defs><mask id="d"><g stroke="#000" stroke-linecap="round" stroke-linejoin="round" stroke-width="0"><circle cx="70079" cy="24378" r="275.59"/><circle cx="70079" cy="26378" r="275.59"/><circle cx="66142" cy="24378" r="275.59"/><circle cx="66142" cy="26378" r="275.59"/><circle cx="62205" cy="24378" r="275.59"/><circle cx="62205" cy="26378" r="275.59"/><circle cx="58268" cy="24378" r="275.59"/><circle cx="58268" cy="26378" r="275.59"/><circle cx="54331" cy="24378" r="275.59"/><circle cx="54331" cy="26378" r="275.59"/><circle cx="50394" cy="24378" r="275.59"/><circle cx="50394" cy="26378" r="275.59"/><circle cx="46457" cy="24378" r="275.59"/><circle cx="46457" cy="26378" r="275.59"/><circle cx="42520" cy="24378" r="275.59"/><circle cx="42520" cy="26378" r="275.59"/><circle cx="68118" cy="24795" r="300"/><circle cx="68118" cy="25972" r="300"/><g><path d="M68410 27458h-600v-600h600z" fill-rule="evenodd"/></g><g><circle cx="64181" cy="24795" r="300"/><circle cx="64181" cy="25972" r="300"/></g><g><path d="M64473 27458h-600v-600h600z" fill-rule="evenodd"/></g><g><circle cx="60244" cy="24795" r="300"/><circle cx="60244" cy="25972" r="300"/></g><g><path d="M60536 27458h-600v-600h600z" fill-rule="evenodd"/></g><g><circle cx="56307" cy="24795" r="300"/><circle cx="56307" cy="25972" r="300"/></g><g><path d="M56599 27458h-600v-600h600z" fill-rule="evenodd"/></g><g><circle cx="52370" cy="24795" r="300"/><circle cx="52370" cy="25972" r="300"/></g><g><path d="M52662 27458h-600v-600h600z" fill-rule="evenodd"/></g><g><circle cx="48433" cy="24795" r="300"/><circle cx="48433" cy="25972" r="300"/></g><g><path d="M48725 27458h-600v-600h600z" fill-rule="evenodd"/></g><g><circle cx="44496" cy="24795" r="300"/><circle cx="44496" cy="25972" r="300"/></g><g><path d="M44788 27458h-600v-600h600z" fill-rule="evenodd"/></g><g><circle cx="40559" cy="24795" r="300"/><circle cx="40559" cy="25972" r="300"/></g><g><path d="M40851 27458h-600v-600h600z" fill-rule="evenodd"/></g><g><circle cx="72441" cy="24591" r="334.65"/><circle cx="72441" cy="25591" r="334.65"/><circle cx="72441" cy="26591" r="334.65"/><circle cx="72441" cy="27591" r="334.65"/><circle cx="72441" cy="28591" r="334.65"/><circle cx="72441" cy="29591" r="334.65"/><circle cx="72441" cy="30591" r="334.65"/><circle cx="72441" cy="31591" r="334.65"/><circle cx="72441" cy="32591" r="334.65"/><path d="M72776 33256v669.3h-669.3V33256z" fill-rule="evenodd"/></g></g><path fill="#fff" d="M38678 20298h36407v14733H38678z"/></mask></defs><g fill="none" fill-opacity="0" mask="url(#d)" stroke="#f0f0f0" stroke-linecap="round" stroke-linejoin="round"><g stroke-width="47.244"><path d="M69716 26133v-1511M70440 26133v-1511M65779 26133v-1511M66503 26133v-1511M61842 26133v-1511M62566 26133v-1511M57905 26133v-1511M58629 26133v-1511M53968 26133v-1511M54692 26133v-1511M50031 26133v-1511M50755 26133v-1511M46094 26133v-1511M46818 26133v-1511M42157 26133v-1511M42881 26133v-1511"/></g><g stroke-width="62.992"><path d="M69189 28061v-4153M69189 23908h-2162M67027 23908v4153M67027 28061h2162M65252 28061v-4153M65252 23908h-2162M63090 23908v4153M63090 28061h2162M61315 28061v-4153M61315 23908h-2162M59153 23908v4153M59153 28061h2162M57378 28061v-4153M57378 23908h-2162M55216 23908v4153M55216 28061h2162M53441 28061v-4153M53441 23908h-2162M51279 23908v4153M51279 28061h2162M49504 28061v-4153M49504 23908h-2162M47342 23908v4153M47342 28061h2162M45567 28061v-4153M45567 23908h-2162M43405 23908v4153M43405 28061h2162M41630 28061v-4153M41630 23908h-2162M39468 23908v4153M39468 28061h2162"/></g><g stroke-width="47.244"><path d="M72440 34114h-523M71917 34114v-524M71917 33090v-9024M72964 24066h-1047M72964 33090v-9024M72964 33090h-1047"/></g></g><g fill-opacity="0" stroke-linecap="round" stroke-linejoin="round" stroke-width="39.37" fill="none" stroke="#000"><path d="M39173 23622h34252M39173 34448V23622M73425 34448H39173M73425 23622v10826"/></g><defs><mask id="b"><path fill="#fff" d="M38678 20298h36407v14733H38678z"/><path stroke="#000" stroke-linecap="round" stroke-width="275" d="M70078 24378h0M70078 26378h0M66141 24377h0M66141 26377h0M62204 24376h0M62204 26376h0M58267 24377h0M58267 26377h0M54330 24378h0M54330 26378h0M50393 24377h0M50393 26377h0M46456 24376h0M46456 26376h0M42519 24377h0M42519 26377h0"/><path stroke="#000" stroke-linecap="round" stroke-width="300" d="M68118 24794h0M68118 25972h0M68110 27158h0M64181 24795h0M64180 25972h0M64173 27157h0M60244 24796h0M60244 25972h0M60236 27156h0M56307 24795h0M56308 25972h0M56299 27157h0M52370 24794h0M52370 25972h0M52362 27158h0M48433 24795h0M48432 25972h0M48425 27157h0M44496.5 24795.5h0M44496 25972h0M44487.5 27156.5h0M40559 24795h0M40559.5 25972.5h0M40551 27157h0"/><path stroke="#000" stroke-linecap="round" stroke-width="393" d="M72440 24590h0M72440 25590h0M72440 26590h0M72440 27590h0M72440 28590h0M72440 29590h0M72440 30590h0M72440 31590h0M72440 32590h0M72440 33590h0"/></mask></defs></g><g transform="matrix(0 -393.7 -393.7 0 30840.668 2763.339)" fill="#faa" stroke-width=".093"><path d="M1.14.8V-.8M3.94.8V-.8M1.14-.8c-.24.021-.374.155-.4.4v.8c0 .22.18.4.4.4h.5V-.8zM3.44-.8V.8h.5a.4.4 0 0 0 .4-.4v-.8c-.026-.245-.16-.379-.4-.4z" fill-rule="evenodd" stroke="#191919"/><path d="M4.34.25h.74c.333 0 .333-.5 0-.5h-.74 0z" fill="#999" fill-rule="evenodd" stroke="#191919"/></g><path d="M30742.228 2472.017h196.85v291.338c0 131.232-196.85 131.232-196.85 0z" fill="#999" stroke="#1a1a1a" stroke-width="36.6141"/><path d="M30557.189 1409.027h566.928v708.66h-566.928z" fill="#e9afaf" stroke="#1a1a1a" stroke-width="36.6141"/><path fill="#500" opacity=".997" stroke="#1a1a1a" stroke-width="36.2204" d="M30558.464 2022.372v-71.654h563.779v71.654z"/><path opacity=".997" stroke="#1a1a1a" stroke-width="36.2204" d="M30560.433 1878.278v-71.654h563.778v71.654z"/><path fill="red" opacity=".997" stroke="#1a1a1a" stroke-width="36.2204" d="M30560.826 1732.215v-71.653h563.779v71.653z"/><path fill="olive" opacity=".997" stroke="#1a1a1a" stroke-width="36.2204" d="M30558.464 1536.94v-71.654h563.779v71.654z"/><g transform="matrix(0 -393.7 -393.7 0 26903.668 2763.339)" fill="#faa" stroke-width=".093"><path d="M1.14.8V-.8M3.94.8V-.8M1.14-.8c-.24.021-.374.155-.4.4v.8c0 .22.18.4.4.4h.5V-.8zM3.44-.8V.8h.5a.4.4 0 0 0 .4-.4v-.8c-.026-.245-.16-.379-.4-.4z" fill-rule="evenodd" stroke="#191919"/><path d="M4.34.25h.74c.333 0 .333-.5 0-.5h-.74 0z" fill="#999" fill-rule="evenodd" stroke="#191919"/></g><path d="M26805.228 2472.017h196.85v291.338c0 131.232-196.85 131.232-196.85 0z" fill="#999" stroke="#1a1a1a" stroke-width="36.6141"/><path d="M26620.189 1409.027h566.928v708.66h-566.928z" fill="#e9afaf" stroke="#1a1a1a" stroke-width="36.6141"/><path fill="#500" opacity=".997" stroke="#1a1a1a" stroke-width="36.2204" d="M26621.464 2022.372v-71.654h563.779v71.654z"/><path opacity=".997" stroke="#1a1a1a" stroke-width="36.2204" d="M26623.433 1878.278v-71.654h563.778v71.654z"/><path fill="red" opacity=".997" stroke="#1a1a1a" stroke-width="36.2204" d="M26623.826 1732.215v-71.653h563.779v71.653z"/><path fill="olive" opacity=".997" stroke="#1a1a1a" stroke-width="36.2204" d="M26621.464 1536.94v-71.654h563.779v71.654z"/><g transform="matrix(0 -393.7 -393.7 0 22966.668 2763.339)" fill="#faa" stroke-width=".093"><path d="M1.14.8V-.8M3.94.8V-.8M1.14-.8c-.24.021-.374.155-.4.4v.8c0 .22.18.4.4.4h.5V-.8zM3.44-.8V.8h.5a.4.4 0 0 0 .4-.4v-.8c-.026-.245-.16-.379-.4-.4z" fill-rule="evenodd" stroke="#191919"/><path d="M4.34.25h.74c.333 0 .333-.5 0-.5h-.74 0z" fill="#999" fill-rule="evenodd" stroke="#191919"/></g><path d="M22868.228 2472.017h196.85v291.338c0 131.232-196.85 131.232-196.85 0z" fill="#999" stroke="#1a1a1a" stroke-width="36.6141"/><path d="M22683.189 1409.027h566.928v708.66h-566.928z" fill="#e9afaf" stroke="#1a1a1a" stroke-width="36.6141"/><path fill="#500" opacity=".997" stroke="#1a1a1a" stroke-width="36.2204" d="M22684.464 2022.372v-71.654h563.779v71.654z"/><path opacity=".997" stroke="#1a1a1a" stroke-width="36.2204" d="M22686.433 1878.278v-71.654h563.778v71.654z"/><path fill="red" opacity=".997" stroke="#1a1a1a" stroke-width="36.2204" d="M22686.826 1732.215v-71.653h563.779v71.653z"/><path fill="olive" opacity=".997" stroke="#1a1a1a" stroke-width="36.2204" d="M22684.464 1536.94v-71.654h563.779v71.654z"/><g><g transform="matrix(0 -393.7 -393.7 0 19029.668 2763.339)" fill="#faa" stroke-width=".093"><path d="M1.14.8V-.8M3.94.8V-.8M1.14-.8c-.24.021-.374.155-.4.4v.8c0 .22.18.4.4.4h.5V-.8zM3.44-.8V.8h.5a.4.4 0 0 0 .4-.4v-.8c-.026-.245-.16-.379-.4-.4z" fill-rule="evenodd" stroke="#191919"/><path d="M4.34.25h.74c.333 0 .333-.5 0-.5h-.74 0z" fill="#999" fill-rule="evenodd" stroke="#191919"/></g><path d="M18931.228 2472.017h196.85v291.338c0 131.232-196.85 131.232-196.85 0z" fill="#999" stroke="#1a1a1a" stroke-width="36.6141"/><path d="M18746.189 1409.027h566.928v708.66h-566.928z" fill="#e9afaf" stroke="#1a1a1a" stroke-width="36.6141"/><path fill="#500" opacity=".997" stroke="#1a1a1a" stroke-width="36.2204" d="M18747.464 2022.372v-71.654h563.779v71.654z"/><path opacity=".997" stroke="#1a1a1a" stroke-width="36.2204" d="M18749.433 1878.278v-71.654h563.778v71.654z"/><path fill="red" opacity=".997" stroke="#1a1a1a" stroke-width="36.2204" d="M18749.826 1732.215v-71.653h563.779v71.653z"/><path fill="olive" opacity=".997" stroke="#1a1a1a" stroke-width="36.2204" d="M18747.464 1536.94v-71.654h563.779v71.654z"/></g><g><g transform="matrix(0 -393.7 -393.7 0 15092.668 2763.339)" fill="#faa" stroke-width=".093"><path d="M1.14.8V-.8M3.94.8V-.8M1.14-.8c-.24.021-.374.155-.4.4v.8c0 .22.18.4.4.4h.5V-.8zM3.44-.8V.8h.5a.4.4 0 0 0 .4-.4v-.8c-.026-.245-.16-.379-.4-.4z" fill-rule="evenodd" stroke="#191919"/><path d="M4.34.25h.74c.333 0 .333-.5 0-.5h-.74 0z" fill="#999" fill-rule="evenodd" stroke="#191919"/></g><path d="M14994.228 2472.017h196.85v291.338c0 131.232-196.85 131.232-196.85 0z" fill="#999" stroke="#1a1a1a" stroke-width="36.6141"/><path d="M14809.189 1409.027h566.928v708.66h-566.928z" fill="#e9afaf" stroke="#1a1a1a" stroke-width="36.6141"/><path fill="#500" opacity=".997" stroke="#1a1a1a" stroke-width="36.2204" d="M14810.464 2022.372v-71.654h563.779v71.654z"/><path opacity=".997" stroke="#1a1a1a" stroke-width="36.2204" d="M14812.433 1878.278v-71.654h563.778v71.654z"/><path fill="red" opacity=".997" stroke="#1a1a1a" stroke-width="36.2204" d="M14812.826 1732.215v-71.653h563.779v71.653z"/><path fill="olive" opacity=".997" stroke="#1a1a1a" stroke-width="36.2204" d="M14810.464 1536.94v-71.654h563.779v71.654z"/></g><g><g transform="matrix(0 -393.7 -393.7 0 11155.668 2763.339)" fill="#faa" stroke-width=".093"><path d="M1.14.8V-.8M3.94.8V-.8M1.14-.8c-.24.021-.374.155-.4.4v.8c0 .22.18.4.4.4h.5V-.8zM3.44-.8V.8h.5a.4.4 0 0 0 .4-.4v-.8c-.026-.245-.16-.379-.4-.4z" fill-rule="evenodd" stroke="#191919"/><path d="M4.34.25h.74c.333 0 .333-.5 0-.5h-.74 0z" fill="#999" fill-rule="evenodd" stroke="#191919"/></g><path d="M11057.228 2472.017h196.85v291.338c0 131.232-196.85 131.232-196.85 0z" fill="#999" stroke="#1a1a1a" stroke-width="36.6141"/><path d="M10872.189 1409.027h566.928v708.66h-566.928z" fill="#e9afaf" stroke="#1a1a1a" stroke-width="36.6141"/><path fill="#500" opacity=".997" stroke="#1a1a1a" stroke-width="36.2204" d="M10873.464 2022.372v-71.654h563.779v71.654z"/><path opacity=".997" stroke="#1a1a1a" stroke-width="36.2204" d="M10875.433 1878.278v-71.654h563.778v71.654z"/><path fill="red" opacity=".997" stroke="#1a1a1a" stroke-width="36.2204" d="M10875.826 1732.215v-71.653h563.779v71.653z"/><path fill="olive" opacity=".997" stroke="#1a1a1a" stroke-width="36.2204" d="M10873.464 1536.94v-71.654h563.779v71.654z"/></g><g><g transform="matrix(0 -393.7 -393.7 0 7218.668 2763.339)" fill="#faa" stroke-width=".093"><path d="M1.14.8V-.8M3.94.8V-.8M1.14-.8c-.24.021-.374.155-.4.4v.8c0 .22.18.4.4.4h.5V-.8zM3.44-.8V.8h.5a.4.4 0 0 0 .4-.4v-.8c-.026-.245-.16-.379-.4-.4z" fill-rule="evenodd" stroke="#191919"/><path d="M4.34.25h.74c.333 0 .333-.5 0-.5h-.74 0z" fill="#999" fill-rule="evenodd" stroke="#191919"/></g><path d="M7120.228 2472.017h196.85v291.338c0 131.232-196.85 131.232-196.85 0z" fill="#999" stroke="#1a1a1a" stroke-width="36.6141"/><path d="M6935.189 1409.027h566.928v708.66h-566.928z" fill="#e9afaf" stroke="#1a1a1a" stroke-width="36.6141"/><path fill="#500" opacity=".997" stroke="#1a1a1a" stroke-width="36.2204" d="M6936.464 2022.372v-71.654h563.779v71.654z"/><path opacity=".997" stroke="#1a1a1a" stroke-width="36.2204" d="M6938.433 1878.278v-71.654h563.778v71.654z"/><path fill="red" opacity=".997" stroke="#1a1a1a" stroke-width="36.2204" d="M6938.827 1732.215v-71.653h563.778v71.653z"/><path fill="olive" opacity=".997" stroke="#1a1a1a" stroke-width="36.2204" d="M6936.464 1536.94v-71.654h563.779v71.654z"/></g><g><g transform="scale(393.7) rotate(-90 7.677 -.658)" fill="#faa" stroke-width=".093"><path d="M1.14.8V-.8M3.94.8V-.8M1.14-.8c-.24.021-.374.155-.4.4v.8c0 .22.18.4.4.4h.5V-.8zM3.44-.8V.8h.5a.4.4 0 0 0 .4-.4v-.8c-.026-.245-.16-.379-.4-.4z" fill-rule="evenodd" stroke="#191919"/><path d="M4.34.25h.74c.333 0 .333-.5 0-.5h-.74 0z" fill="#999" fill-rule="evenodd" stroke="#191919"/></g><path d="M3183.228 2472.017h196.85v291.338c0 131.232-196.85 131.232-196.85 0z" fill="#999" stroke="#1a1a1a" stroke-width="36.6141"/><path d="M2998.189 1409.027h566.928v708.66h-566.928z" fill="#e9afaf" stroke="#1a1a1a" stroke-width="36.6141"/><path fill="#500" opacity=".997" stroke="#1a1a1a" stroke-width="36.2204" d="M2999.464 2022.372v-71.654h563.779v71.654z"/><path opacity=".997" stroke="#1a1a1a" stroke-width="36.2204" d="M3001.433 1878.278v-71.654h563.778v71.654z"/><path fill="red" opacity=".997" stroke="#1a1a1a" stroke-width="36.2204" d="M3001.827 1732.215v-71.653h563.778v71.653z"/><path fill="olive" opacity=".997" stroke="#1a1a1a" stroke-width="36.2204" d="M2999.464 1536.94v-71.654h563.779v71.654z"/></g><g fill-rule="evenodd" stroke="#000" stroke-width=".093"><path d="M29955.689 302.811v4133.85h-2165.35V302.811z" fill="gray" stroke-width="36.6141"/><path d="M27888.764 302.811v4133.85h1968.5V302.811z" fill="#999" stroke-width="36.6141"/><path d="M28184.038 1168.952v2401.57h1377.95v-2401.57z" fill="#4d4d4d" stroke-width="36.6141"/><path d="M28302.148 2529.028v-100.252h1141.73v100.252-.004V2643.2v-.004 114.177-.004 114.177-.003 114.176-.003 114.177-.004 114.177-.004 114.177-.004 114.177-.003 128.094h-1141.73V3442.41v.003-114.177.004-114.177.004-114.177.004-114.177.003-114.176.003-114.177.004-114.177.004-114.177z" fill="#1a1a1a" stroke-width="36.6141"/></g><g fill-rule="evenodd" stroke="#000" stroke-width=".093"><path d="M26018.689 302.811v4133.85h-2165.35V302.811z" fill="gray" stroke-width="36.6141"/><path d="M23951.764 302.811v4133.85h1968.5V302.811z" fill="#999" stroke-width="36.6141"/><path d="M24247.038 1168.952v2401.57h1377.95v-2401.57z" fill="#4d4d4d" stroke-width="36.6141"/><path d="M24365.148 2529.028v-100.252h1141.73v100.252-.004V2643.2v-.004 114.177-.004 114.177-.003 114.176-.003 114.177-.004 114.177-.004 114.177-.004 114.177-.003 128.094h-1141.73V3442.41v.003-114.177.004-114.177.004-114.177.004-114.177.003-114.176.003-114.177.004-114.177.004-114.177z" fill="#1a1a1a" stroke-width="36.6141"/></g><g fill-rule="evenodd" stroke="#000" stroke-width=".093"><path d="M22081.689 302.811v4133.85h-2165.35V302.811z" fill="gray" stroke-width="36.6141"/><path d="M20014.764 302.811v4133.85h1968.5V302.811z" fill="#999" stroke-width="36.6141"/><path d="M20310.038 1168.952v2401.57h1377.95v-2401.57z" fill="#4d4d4d" stroke-width="36.6141"/><path d="M20428.148 2529.028v-100.252h1141.73v100.252-.004V2643.2v-.004 114.177-.004 114.177-.003 114.176-.003 114.177-.004 114.177-.004 114.177-.004 114.177-.003 128.094h-1141.73V3442.41v.003-114.177.004-114.177.004-114.177.004-114.177.003-114.176.003-114.177.004-114.177.004-114.177z" fill="#1a1a1a" stroke-width="36.6141"/></g><g fill-rule="evenodd" stroke="#000" stroke-width=".093"><path d="M18144.689 302.811v4133.85h-2165.35V302.811z" fill="gray" stroke-width="36.6141"/><path d="M16077.763 302.811v4133.85h1968.5V302.811z" fill="#999" stroke-width="36.6141"/><path d="M16373.039 1168.952v2401.57h1377.95v-2401.57z" fill="#4d4d4d" stroke-width="36.6141"/><path d="M16491.148 2529.028v-100.252h1141.73v100.252-.004V2643.2v-.004 114.177-.004 114.177-.003 114.176-.003 114.177-.004 114.177-.004 114.177-.004 114.177-.003 128.094h-1141.73V3442.41v.003-114.177.004-114.177.004-114.177.004-114.177.003-114.176.003-114.177.004-114.177.004-114.177z" fill="#1a1a1a" stroke-width="36.6141"/></g><g fill-rule="evenodd" stroke="#000" stroke-width=".093"><path d="M14207.689 302.811v4133.85h-2165.35V302.811z" fill="gray" stroke-width="36.6141"/><path d="M12140.763 302.811v4133.85h1968.5V302.811z" fill="#999" stroke-width="36.6141"/><path d="M12436.039 1168.952v2401.57h1377.95v-2401.57z" fill="#4d4d4d" stroke-width="36.6141"/><path d="M12554.148 2529.028v-100.252h1141.73v100.252-.004V2643.2v-.004 114.177-.004 114.177-.003 114.176-.003 114.177-.004 114.177-.004 114.177-.004 114.177-.003 128.094h-1141.73V3442.41v.003-114.177.004-114.177.004-114.177.004-114.177.003-114.176.003-114.177.004-114.177.004-114.177z" fill="#1a1a1a" stroke-width="36.6141"/></g><g fill-rule="evenodd" stroke="#000" stroke-width=".093"><path d="M10270.689 302.811v4133.85h-2165.35V302.811z" fill="gray" stroke-width="36.6141"/><path d="M8203.763 302.811v4133.85h1968.5V302.811z" fill="#999" stroke-width="36.6141"/><path d="M8499.039 1168.952v2401.57h1377.95v-2401.57z" fill="#4d4d4d" stroke-width="36.6141"/><path d="M8617.148 2529.028v-100.252h1141.73v100.252-.004V2643.2v-.004 114.177-.004 114.177-.003 114.176-.003 114.177-.004 114.177-.004 114.177-.004 114.177-.003 128.094h-1141.73V3442.41v.003-114.177.004-114.177.004-114.177.004-114.177.003-114.176.003-114.177.004-114.177.004-114.177z" fill="#1a1a1a" stroke-width="36.6141"/></g><g fill-rule="evenodd" stroke="#000" stroke-width=".093"><path d="M6333.689 302.811v4133.85h-2165.35V302.811z" fill="gray" stroke-width="36.6141"/><path d="M4266.764 302.811v4133.85h1968.5V302.811z" fill="#999" stroke-width="36.6141"/><path d="M4562.038 1168.952v2401.57h1377.95v-2401.57z" fill="#4d4d4d" stroke-width="36.6141"/><path d="M4680.149 2529.028v-100.252h1141.73v100.252-.004V2643.2v-.004 114.177-.004 114.177-.003 114.176-.003 114.177-.004 114.177-.004 114.177-.004 114.177-.003 128.094h-1141.73V3442.41v.003-114.177.004-114.177.004-114.177.004-114.177.003-114.176.003-114.177.004-114.177.004-114.177z" fill="#1a1a1a" stroke-width="36.6141"/></g><g fill-rule="evenodd" stroke="#000" stroke-width=".093"><path d="M2396.689 302.811v4133.85H231.339V302.811z" fill="gray" stroke-width="36.6141"/><path d="M329.764 302.811v4133.85h1968.5V302.811z" fill="#999" stroke-width="36.6141"/><path d="M625.038 1168.952v2401.57h1377.95v-2401.57z" fill="#4d4d4d" stroke-width="36.6141"/><path d="M743.149 2529.028v-100.252h1141.73v100.252-.004V2643.2v-.004 114.177-.004 114.177-.003 114.176-.003 114.177-.004 114.177-.004 114.177-.004 114.177-.003 128.094H743.149V3442.41v.003-114.177.004-114.177.004-114.177.004-114.177.003-114.176.003-114.177.004-114.177.004-114.177z" fill="#1a1a1a" stroke-width="36.6141"/></g><g stroke="#000" stroke-width=".093"><path d="M32703.002 10476H33703V476.02h-999.998z" fill="#1a1a1a" fill-rule="evenodd" stroke-width="36.6141"/><path d="M32966.781 739.957v472.44h472.44v-472.44z" fill="#666" fill-rule="evenodd" stroke-width="36.6141"/><path d="M33439.221 1212.397l-117.716-117.717M33439.221 739.957l-117.716 117.716M33321.505 1094.68V857.673M32966.781 1212.397l117.716-117.717M33084.497 1094.68h237.008M32966.781 739.957l117.716 117.716M33084.497 857.673v237.007M33321.505 857.673h-237.008" fill="none" stroke-width="36.6141"/><path d="M33084.891 858.067v236.22h236.22v-236.22z" fill="olive" fill-rule="evenodd" stroke-width="36.6141"/><path d="M33242.371 1074.602v19.685M33242.371 877.752v196.85M33242.371 858.067v19.685M33163.631 858.067v19.685M33242.371 877.752h-78.74M33163.631 877.752v196.85M33163.631 1074.602v19.685M33242.371 1074.602h-78.74" fill="none" stroke-width="36.6141"/><g><path d="M32966.781 1739.954v472.44h472.44v-472.44z" fill="#666" fill-rule="evenodd" stroke-width="36.6141"/><path d="M33439.221 2212.395l-117.716-117.717M33439.221 1739.954l-117.716 117.717M33321.505 2094.678v-237.007M32966.781 2212.395l117.716-117.717M33084.497 2094.678h237.008M32966.781 1739.954l117.716 117.717M33084.497 1857.67v237.008M33321.505 1857.67h-237.008" fill="none" stroke-width="36.6141"/><path d="M33084.891 1858.065v236.22h236.22v-236.22z" fill="olive" fill-rule="evenodd" stroke-width="36.6141"/><path d="M33242.371 2074.6v19.685M33242.371 1877.75v196.85M33242.371 1858.065v19.685M33163.631 1858.065v19.685M33242.371 1877.75h-78.74M33163.631 1877.75v196.85M33163.631 2074.6v19.685M33242.371 2074.6h-78.74" fill="none" stroke-width="36.6141"/></g><g><path d="M32966.781 2739.952v472.44h472.44v-472.44z" fill="#666" fill-rule="evenodd" stroke-width="36.6141"/><path d="M33439.221 3212.392l-117.716-117.716M33439.221 2739.952l-117.716 117.717M33321.505 3094.676V2857.67M32966.781 3212.392l117.716-117.716M33084.497 3094.676h237.008M32966.781 2739.952l117.716 117.717M33084.497 2857.669v237.007M33321.505 2857.669h-237.008" fill="none" stroke-width="36.6141"/><path d="M33084.891 2858.063v236.22h236.22v-236.22z" fill="olive" fill-rule="evenodd" stroke-width="36.6141"/><path d="M33242.371 3074.597v19.685M33242.371 2877.747v196.85M33242.371 2858.063v19.684M33163.631 2858.063v19.684M33242.371 2877.747h-78.74M33163.631 2877.747v196.85M33163.631 3074.597v19.685M33242.371 3074.597h-78.74" fill="none" stroke-width="36.6141"/></g><g><path d="M32966.781 3739.95v472.44h472.44v-472.44z" fill="#666" fill-rule="evenodd" stroke-width="36.6141"/><path d="M33439.221 4212.39l-117.716-117.716M33439.221 3739.95l-117.716 117.717M33321.505 4094.674v-237.007M32966.781 4212.39l117.716-117.716M33084.497 4094.674h237.008M32966.781 3739.95l117.716 117.717M33084.497 3857.667v237.007M33321.505 3857.667h-237.008" fill="none" stroke-width="36.6141"/><path d="M33084.891 3858.06v236.22h236.22v-236.22z" fill="olive" fill-rule="evenodd" stroke-width="36.6141"/><path d="M33242.371 4074.596v19.685M33242.371 3877.746v196.85M33242.371 3858.06v19.686M33163.631 3858.06v19.686M33242.371 3877.746h-78.74M33163.631 3877.746v196.85M33163.631 4074.596v19.685M33242.371 4074.596h-78.74" fill="none" stroke-width="36.6141"/></g><g><path d="M32966.781 4739.949v472.44h472.44v-472.44z" fill="#666" fill-rule="evenodd" stroke-width="36.6141"/><path d="M33439.221 5212.389l-117.716-117.717M33439.221 4739.949l-117.716 117.716M33321.505 5094.672v-237.007M32966.781 5212.389l117.716-117.717M33084.497 5094.672h237.008M32966.781 4739.949l117.716 117.716M33084.497 4857.665v237.007M33321.505 4857.665h-237.008" fill="none" stroke-width="36.6141"/><path d="M33084.891 4858.059v236.22h236.22v-236.22z" fill="olive" fill-rule="evenodd" stroke-width="36.6141"/><path d="M33242.371 5074.594v19.685M33242.371 4877.744v196.85M33242.371 4858.059v19.685M33163.631 4858.059v19.685M33242.371 4877.744h-78.74M33163.631 4877.744v196.85M33163.631 5074.594v19.685M33242.371 5074.594h-78.74" fill="none" stroke-width="36.6141"/></g><g><path d="M32966.781 5739.947v472.44h472.44v-472.44z" fill="#666" fill-rule="evenodd" stroke-width="36.6141"/><path d="M33439.221 6212.387l-117.716-117.717M33439.221 5739.947l-117.716 117.716M33321.505 6094.67v-237.007M32966.781 6212.387l117.716-117.717M33084.497 6094.67h237.008M32966.781 5739.947l117.716 117.716M33084.497 5857.663v237.007M33321.505 5857.663h-237.008" fill="none" stroke-width="36.6141"/><path d="M33084.891 5858.057v236.22h236.22v-236.22z" fill="olive" fill-rule="evenodd" stroke-width="36.6141"/><path d="M33242.371 6074.592v19.685M33242.371 5877.742v196.85M33242.371 5858.057v19.685M33163.631 5858.057v19.685M33242.371 5877.742h-78.74M33163.631 5877.742v196.85M33163.631 6074.592v19.685M33242.371 6074.592h-78.74" fill="none" stroke-width="36.6141"/></g><g><path d="M32966.781 6739.945v472.44h472.44v-472.44z" fill="#666" fill-rule="evenodd" stroke-width="36.6141"/><path d="M33439.221 7212.385l-117.716-117.717M33439.221 6739.945l-117.716 117.716M33321.505 7094.668v-237.007M32966.781 7212.385l117.716-117.717M33084.497 7094.668h237.008M32966.781 6739.945l117.716 117.716M33084.497 6857.66v237.008M33321.505 6857.66h-237.008" fill="none" stroke-width="36.6141"/><path d="M33084.891 6858.055v236.22h236.22v-236.22z" fill="olive" fill-rule="evenodd" stroke-width="36.6141"/><path d="M33242.371 7074.59v19.685M33242.371 6877.74v196.85M33242.371 6858.055v19.685M33163.631 6858.055v19.685M33242.371 6877.74h-78.74M33163.631 6877.74v196.85M33163.631 7074.59v19.685M33242.371 7074.59h-78.74" fill="none" stroke-width="36.6141"/></g><g><path d="M32966.781 7739.943v472.44h472.44v-472.44z" fill="#666" fill-rule="evenodd" stroke-width="36.6141"/><path d="M33439.221 8212.383l-117.716-117.717M33439.221 7739.943l-117.716 117.716M33321.505 8094.666V7857.66M32966.781 8212.383l117.716-117.717M33084.497 8094.666h237.008M32966.781 7739.943l117.716 117.716M33084.497 7857.659v237.007M33321.505 7857.659h-237.008" fill="none" stroke-width="36.6141"/><path d="M33084.891 7858.053v236.22h236.22v-236.22z" fill="olive" fill-rule="evenodd" stroke-width="36.6141"/><path d="M33242.371 8074.588v19.685M33242.371 7877.738v196.85M33242.371 7858.053v19.685M33163.631 7858.053v19.685M33242.371 7877.738h-78.74M33163.631 7877.738v196.85M33163.631 8074.588v19.685M33242.371 8074.588h-78.74" fill="none" stroke-width="36.6141"/></g><g><path d="M32966.781 8739.94v472.44h472.44v-472.44z" fill="#666" fill-rule="evenodd" stroke-width="36.6141"/><path d="M33439.221 9212.38l-117.716-117.716M33439.221 8739.94l-117.716 117.717M33321.505 9094.664v-237.007M32966.781 9212.38l117.716-117.716M33084.497 9094.664h237.008M32966.781 8739.94l117.716 117.717M33084.497 8857.657v237.007M33321.505 8857.657h-237.008" fill="none" stroke-width="36.6141"/><path d="M33084.891 8858.05v236.22h236.22v-236.22z" fill="olive" fill-rule="evenodd" stroke-width="36.6141"/><path d="M33242.371 9074.586v19.685M33242.371 8877.736v196.85M33242.371 8858.05v19.686M33163.631 8858.05v19.686M33242.371 8877.736h-78.74M33163.631 8877.736v196.85M33163.631 9074.586v19.685M33242.371 9074.586h-78.74" fill="none" stroke-width="36.6141"/></g><g><path d="M32966.781 9739.939v472.44h472.44v-472.44z" fill="#666" fill-rule="evenodd" stroke-width="36.6141"/><path d="M33439.221 10212.379l-117.716-117.717M33439.221 9739.939l-117.716 117.716M33321.505 10094.662v-237.007M32966.781 10212.379l117.716-117.717M33084.497 10094.662h237.008M32966.781 9739.939l117.716 117.716M33084.497 9857.655v237.007M33321.505 9857.655h-237.008" fill="none" stroke-width="36.6141"/><path d="M33084.891 9858.049v236.22h236.22v-236.22z" fill="olive" fill-rule="evenodd" stroke-width="36.6141"/><path d="M33242.371 10074.584v19.684M33242.371 9877.734v196.85M33242.371 9858.049v19.684M33163.631 9858.049v19.684M33242.371 9877.734h-78.74M33163.631 9877.734v196.85M33163.631 10074.584v19.684M33242.371 10074.584h-78.74" fill="none" stroke-width="36.6141"/></g></g></svg>