<svg width="183" height="245" viewBox="0 0 14753 19734" xmlns="http://www.w3.org/2000/svg"><g clip-path="url(#a)" mask="url(#b)" transform="translate(-44798 -17909)"><defs><clipPath id="a"><path d="M44800 17900v19700h14700V17900H44800" fill-rule="evenodd"/></clipPath></defs><g fill="#313d63" stroke="#313d63"><path d="M44800 17900v19700h14700V17900H44800" fill-rule="evenodd"/><g fill-opacity="0" stroke-linecap="round" stroke-linejoin="round" stroke-width="19.685" fill="none" stroke="#000"><path d="M59500 17900H44800M59500 37600V17900M44800 37600h14700M44800 17900v19700"/></g></g><g stroke-linecap="round" stroke-linejoin="round" stroke-width="0" stroke="none" fill="#9c6b28"><path d="M53494 22494h511.8v511.8H53494z" fill-rule="evenodd"/><circle cx="53750" cy="23750" r="255.91"/><circle cx="54250" cy="23250" r="255.91"/><circle cx="58250" cy="24500" r="334.65"/><circle cx="58250" cy="23500" r="334.65"/><path d="M57915 22835v-669.2h669.2v669.2z" fill-rule="evenodd"/><circle cx="49454" cy="20953" r="300"/><circle cx="49498" cy="30957" r="300"/><circle cx="46061" cy="21406" r="300"/><circle cx="46104" cy="30547" r="300"/><circle cx="48482" cy="32732" r="300"/><circle cx="47096" cy="19244" r="300"/><path d="M47428 33024h-600v-600h600z" fill-rule="evenodd"/></g><g fill="#212d53" stroke="none" stroke-linecap="round" stroke-linejoin="round" stroke-width="0"><path d="M53494 22494h511.8v511.8H53494z" fill-rule="evenodd"/><circle cx="53750" cy="23750" r="255.91"/><circle cx="54250" cy="23250" r="255.91"/><circle cx="58250" cy="24500" r="334.65"/><circle cx="58250" cy="23500" r="334.65"/><path d="M57915 22835v-669.2h669.2v669.2z" fill-rule="evenodd"/><circle cx="49454" cy="20953" r="300"/><circle cx="49498" cy="30957" r="300"/><circle cx="46061" cy="21406" r="300"/><circle cx="46104" cy="30547" r="300"/><circle cx="48482" cy="32732" r="300"/><circle cx="47096" cy="19244" r="300"/><path d="M47428 33024h-600v-600h600z" fill-rule="evenodd"/><circle cx="53750" cy="22750" r="68.898"/><circle cx="53750" cy="23750" r="68.898"/><circle cx="54250" cy="23250" r="68.898"/><circle cx="58250" cy="24500" r="68.898"/><circle cx="58250" cy="23500" r="68.898"/><circle cx="58250" cy="22500" r="68.898"/><circle cx="49454" cy="20953" r="68.898"/><circle cx="49498" cy="30957" r="68.898"/><circle cx="46061" cy="21406" r="68.898"/><circle cx="46104" cy="30547" r="68.898"/><circle cx="48482" cy="32732" r="68.898"/><circle cx="47096" cy="19244" r="68.898"/><circle cx="47128" cy="32724" r="68.898"/></g><g fill="#b5ae30" mask="url(#c)" stroke="none" stroke-linecap="round" stroke-linejoin="round" stroke-width="0"><path d="M53494 22494h511.8v511.8H53494z" fill-rule="evenodd"/><circle cx="53750" cy="23750" r="255.91"/><circle cx="54250" cy="23250" r="255.91"/><circle cx="58250" cy="24500" r="334.65"/><circle cx="58250" cy="23500" r="334.65"/><path d="M57915 22835v-669.2h669.2v669.2z" fill-rule="evenodd"/><circle cx="49454" cy="20953" r="300"/><circle cx="49498" cy="30957" r="300"/><circle cx="46061" cy="21406" r="300"/><circle cx="46104" cy="30547" r="300"/><circle cx="48482" cy="32732" r="300"/><circle cx="47096" cy="19244" r="300"/><path d="M47428 33024h-600v-600h600z" fill-rule="evenodd"/><circle cx="53750" cy="22750" r="68.898"/><circle cx="53750" cy="23750" r="68.898"/><circle cx="54250" cy="23250" r="68.898"/><circle cx="58250" cy="24500" r="68.898"/><circle cx="58250" cy="23500" r="68.898"/><circle cx="58250" cy="22500" r="68.898"/><circle cx="49454" cy="20953" r="68.898"/><circle cx="49498" cy="30957" r="68.898"/><circle cx="46061" cy="21406" r="68.898"/><circle cx="46104" cy="30547" r="68.898"/><circle cx="48482" cy="32732" r="68.898"/><circle cx="47096" cy="19244" r="68.898"/><circle cx="47128" cy="32724" r="68.898"/></g><defs><mask id="c"><g stroke="#fff" stroke-linecap="round" stroke-linejoin="round" fill="#fff" stroke-width="0"><path d="M53494 22494h511.8v511.8H53494z" fill-rule="evenodd"/><circle cx="53750" cy="23750" r="255.91"/><circle cx="54250" cy="23250" r="255.91"/><circle cx="58250" cy="24500" r="334.65"/><circle cx="58250" cy="23500" r="334.65"/><path d="M57915 22835v-669.2h669.2v669.2z" fill-rule="evenodd"/><circle cx="49454" cy="20953" r="300"/><circle cx="49498" cy="30957" r="300"/><circle cx="46061" cy="21406" r="300"/><circle cx="46104" cy="30547" r="300"/><circle cx="48482" cy="32732" r="300"/><circle cx="47096" cy="19244" r="300"/><g><path d="M47428 33024h-600v-600h600z" fill-rule="evenodd"/></g></g></mask></defs><defs><mask id="d"><path fill="#fff" d="M44501 9901h16768v27708H44501z"/><g stroke="#000" stroke-linecap="round" stroke-linejoin="round" stroke-width="0"><path d="M53494 22494h511.8v511.8H53494z" fill-rule="evenodd"/><circle cx="53750" cy="23750" r="255.91"/><circle cx="54250" cy="23250" r="255.91"/><circle cx="58250" cy="24500" r="334.65"/><circle cx="58250" cy="23500" r="334.65"/><path d="M57915 22835v-669.2h669.2v669.2z" fill-rule="evenodd"/><circle cx="49454" cy="20953" r="300"/><circle cx="49498" cy="30957" r="300"/><circle cx="46061" cy="21406" r="300"/><circle cx="46104" cy="30547" r="300"/><circle cx="48482" cy="32732" r="300"/><circle cx="47096" cy="19244" r="300"/><g><path d="M47428 33024h-600v-600h600z" fill-rule="evenodd"/></g></g></mask></defs><g fill="#f0f0f0" fill-opacity="0" mask="url(#d)" stroke="#f0f0f0" stroke-linecap="round" stroke-linejoin="round"><g stroke-width="295.28" fill="none"><path d="M52815 20284h-562v-1181M53209 20284v-1181l394 843 393-843v1181M54446 19103h732l-394 450h169l112 56 56 56 57 113v281l-57 112-56 57-112 56h-338l-112-56-57-57M56246 19103h-562l-57 562 57-56 112-56h281l113 56 56 56 56 113v281l-56 112-56 57-113 56h-281l-112-56-57-57"/></g><g stroke-width="147.64"><path d="M56876 37362v-366l225 197v-84l28-57 28-28 57-28h140l56 28 29 28 28 57v168l-28 57-29 28M57242 36743v-450M56904 35703l-28 56v84l28 85 56 56 57 28 112 28h85l112-28 56-28 57-56 28-85v-56l-28-84-29-28h-196v112M57467 35421h-591l591-337h-591M57467 34803h-591v-141l28-84 56-56 57-29 112-28h85l112 28 56 29 57 56 28 84v141M54132 37277l-28-28-28-56v-141l28-56 28-28 57-28h56l84 28 338 338v-366M54442 36687v-450M54076 35843v-112l28-56 56-57 113-28h197l112 28 57 57 28 56v112l-28 57-57 56-112 28h-197l-113-28-56-56-28-57M54076 35337h478l56-28 29-28 28-56v-113l-28-56-29-28-56-28h-478M54076 34803v-338M54667 34634h-591M51867 36940v337M51867 37109h-591l84 56 57 56 28 56M51642 36687v-450M51276 36040l591-197-591-197M51810 35112l29 28 28 85v56l-28 84-57 56-56 29-112 28h-85l-112-28-57-29-56-56-28-84v-56l28-85 28-28M51810 34522l29 28 28 84v56l-28 85-57 56-56 28-112 28h-85l-112-28-57-28-56-56-28-85v-56l28-84 28-28" fill="none"/></g><g stroke-width="47.244" fill="none"><path d="M53021 22541v1417M53026 23974a1023.6 1023.6 0 0 0 1747.4-723.8M54774 23250a1023.6 1023.6 0 0 0-1747.4-723.8M57726 23000h1047M57726 23000v2023M57726 25023h1047M58773 23000v2023M58773 21976v524M58250 21976h523"/></g><g stroke-width="62.992" fill="none"><path d="M47165 31172h1222M47165 20806v10366M48387 20806h-1222M48387 31172V20806M45944 32921h3730M45944 18958v13963M49674 18958h-3730M49674 32921V18958"/></g></g><g fill-opacity="0" stroke-linecap="round" stroke-linejoin="round" stroke-width="19.685" fill="none" stroke="#000"><path d="M59500 17900H44800M59500 37600V17900M44800 37600h14700M44800 17900v19700"/></g><defs><mask id="b"><path fill="#fff" d="M44501 9901h16768v27708H44501z"/><path stroke="#000" stroke-linecap="round" stroke-width="295" d="M53750 22750h0M53750 23750h0M54250 23250h0"/><path stroke="#000" stroke-linecap="round" stroke-width="393" d="M58250 24500h0M58250 23500h0M58250 22500h0"/><path stroke="#000" stroke-linecap="round" stroke-width="300" d="M49454 20952h0M49496.5 30955.5h0M46060 21404h0M46103 30547h0M48480.5 32731.5h0M47096 19244h0M47127.5 32724.5h0"/></mask></defs></g><path d="M8428.9 4547.4v1586.8c631.96 416.98 1473.9-36.273 1473.9-793.39 0-757.12-841.98-1210.4-1473.9-793.39z" fill="#1a1a1a" fill-rule="evenodd" stroke="#000" stroke-width="36.448"/><path d="M13952 7090.9v-3000h-1000v3000z" fill="#1a1a1a" fill-rule="evenodd" stroke="#000" stroke-width="36.458"/><g stroke="#000" stroke-width=".093"><path d="M13688.219 4826.943v-472.44h-472.44v472.44z" fill="#666" fill-rule="evenodd" stroke-width="36.6141"/><path d="M13215.779 4354.503l117.716 117.717M13215.779 4826.943l117.716-117.716M13333.495 4472.22v237.007M13688.219 4354.503l-117.716 117.717M13570.503 4472.22h-237.008M13688.219 4826.943l-117.716-117.716M13570.503 4709.227V4472.22M13333.495 4709.227h237.008" fill="none" stroke-width="36.6141"/><path d="M13570.109 4708.833v-236.22h-236.22v236.22z" fill="olive" fill-rule="evenodd" stroke-width="36.6141"/><path d="M13412.629 4492.298v-19.685M13412.629 4689.148v-196.85M13412.629 4708.833v-19.685M13491.369 4708.833v-19.685M13412.629 4689.148h78.74M13491.369 4689.148v-196.85M13491.369 4492.298v-19.685M13412.629 4492.298h78.74" fill="none" stroke-width="36.6141"/></g><g stroke="#000" stroke-width=".093"><path d="M13688.219 5826.943v-472.44h-472.44v472.44z" fill="#666" fill-rule="evenodd" stroke-width="36.6141"/><path d="M13215.779 5354.503l117.716 117.717M13215.779 5826.943l117.716-117.716M13333.495 5472.22v237.007M13688.219 5354.503l-117.716 117.717M13570.503 5472.22h-237.008M13688.219 5826.943l-117.716-117.716M13570.503 5709.227V5472.22M13333.495 5709.227h237.008" fill="none" stroke-width="36.6141"/><path d="M13570.109 5708.833v-236.22h-236.22v236.22z" fill="olive" fill-rule="evenodd" stroke-width="36.6141"/><path d="M13412.629 5492.298v-19.685M13412.629 5689.148v-196.85M13412.629 5708.833v-19.685M13491.369 5708.833v-19.685M13412.629 5689.148h78.74M13491.369 5689.148v-196.85M13491.369 5492.298v-19.685M13412.629 5492.298h78.74" fill="none" stroke-width="36.6141"/></g><g stroke="#000" stroke-width=".093"><path d="M13688.219 6826.943v-472.44h-472.44v472.44z" fill="#666" fill-rule="evenodd" stroke-width="36.6141"/><path d="M13215.779 6354.503l117.716 117.717M13215.779 6826.943l117.716-117.716M13333.495 6472.22v237.007M13688.219 6354.503l-117.716 117.717M13570.503 6472.22h-237.008M13688.219 6826.943l-117.716-117.716M13570.503 6709.227V6472.22M13333.495 6709.227h237.008" fill="none" stroke-width="36.6141"/><path d="M13570.109 6708.833v-236.22h-236.22v236.22z" fill="olive" fill-rule="evenodd" stroke-width="36.6141"/><path d="M13412.629 6492.298v-19.685M13412.629 6689.148v-196.85M13412.629 6708.833v-19.685M13491.369 6708.833v-19.685M13412.629 6689.148h78.74M13491.369 6689.148v-196.85M13491.369 6492.298v-19.685M13412.629 6492.298h78.74" fill="none" stroke-width="36.6141"/></g><path d="M4767.6 1804v-710.24H1716.5v.63h-295.27v-.63h-196.85v13778h3543.2v-13286" fill="#b3b3b3" fill-rule="evenodd" stroke="#000" stroke-width="36.456"/><path d="M3586.6 2865.2H2405.5v10235h1181.1zM4570.8 14478v196.83h-196.85c-.01-108.71 88.115-196.84 196.83-196.85z" fill="#1a1a1a" fill-rule="evenodd" stroke="#000" stroke-width="36.456"/><path d="M4570.8 1487.4v-196.83" fill="none" stroke="#000" stroke-width="36.456"/><path d="M4570.8 1290.5h-196.85c.01 108.69 88.128 196.8 196.83 196.81l.015.017v-188.95zM2996 2215.6c445.88-.32 445.88-669.56 0-669.24v.017c-442.97 3.189-442.97 666.02 0 669.2zM2996 14419c445.88-.321 445.88-669.56 0-669.24v.02c-442.97 3.188-442.97 666.02 0 669.2z" fill="#1a1a1a" fill-rule="evenodd" stroke="#000" stroke-width="36.456"/><path d="M1716.5 1151.4v139.5M1618.1 1152v139.19M4570.8 1487.4H4710M4373.9 1093.7v57.658M4570.8 14478H4710M4373.9 14814v-139.19M1618.1 14814v-139.19M1421.2 14478h-139.19M1421.2 1488h-139.19M1224.4 14675h196.85" fill="none" stroke="#000" stroke-width="36.456"/><path d="M1421.2 14478c108.72 0 196.86 88.134 196.85 196.85H1421.2v-196.83z" fill="#1a1a1a" fill-rule="evenodd" stroke="#000" stroke-width="36.456"/><path d="M1618.1 14872v-57.658M1282.1 14478h-57.659M1224.4 14667h196.85M1224.4 1093.7v.63M1224.4 14667v7.873M1282.1 1488h-57.659" fill="none" stroke="#000" stroke-width="36.456"/><path d="M1618.1 1291.2c0 108.71-88.128 196.84-196.85 196.84v-197.48h196.85z" fill="#1a1a1a" fill-rule="evenodd" stroke="#000" stroke-width="36.456"/><path d="M4373.9 14872v-57.658M4767.6 14675h-196.85M4710 14478h57.659M4767.6 14667h-196.85M4373.9 1151.4v139.19M4767.6 1290.5h-196.85M4767.6 1298.4h-196.85M4767.6 1298.4v-7.873M1224.4 1291.2h196.85M1618.1 1094.4v57.658M1224.4 1299.1h196.85M1716.5 1093.7v57.658M1421.2 1094.4v-.63M1224.4 1298.4h196.85M1716.5 1290.5h2209M1618.1 1291.2h98.423M4570.8 1804v-316.59M4570.8 1804v12674M1618.1 14675h2755.8M1421.2 14478V1488M1421.2 14872v-196.83M4570.8 14872v-196.83M4373.9 1290.5h-448.38M4570.8 1093.7v196.83M1421.2 1094.4v196.19M1716.5 1151.4h2209M1618.1 1152h98.423M4710 1487.4v316.59M4373.9 1151.4h-448.38M4710 1804v12674M4373.9 14814H1618.1M1282.1 14478V1488" fill="none" stroke="#000" stroke-width="36.456"/></svg>