<svg width="183" height="246" viewBox="11379200 4546600 3733800 5003800" xmlns="http://www.w3.org/2000/svg"><defs><mask id="c"><g fill="#fff" fill-opacity="1" stroke="#fff" stroke-linecap="round" stroke-linejoin="round" stroke-width=".1"><path d="M14710000 5800000v-170000h170000v170000z" fill-rule="evenodd"/><circle cx="14795500" cy="5969000" r="85000"/><circle cx="14795500" cy="6223000" r="85000"/><circle cx="13840000" cy="5960000" r="80000"/><circle cx="13840000" cy="6210000" r="80000"/><path d="m14270000 5710500 3826.8 761.2 3244.3 2167.7 2167.7 3244.3 761.2 3826.8v26000l-761.2 3826.8-2167.7 3244.3-3244.3 2167.7-3826.8 761.2h-20000l-3826.8-761.2-3244.3-2167.7-2167.7-3244.3-761.2-3826.8v-26000l761.2-3826.8 2167.7-3244.3 3244.3-2167.7 3826.8-761.2zM14270000 5774500l3826.8 761.2 3244.3 2167.7 2167.7 3244.3 761.2 3826.8v26000l-761.2 3826.8-2167.7 3244.3-3244.3 2167.7-3826.8 761.2h-20000l-3826.8-761.2-3244.3-2167.7-2167.7-3244.3-761.2-3826.8v-26000l761.2-3826.8 2167.7-3244.3 3244.3-2167.7 3826.8-761.2z" fill-rule="evenodd"/></g></mask><mask id="d"><path fill="#fff" d="M11376700 4544100h4185824v5008800h-4185824z"/><g fill-opacity="1" stroke="#000" stroke-linecap="round" stroke-linejoin="round" stroke-width=".1"><path d="M14710000 5800000v-170000h170000v170000z" fill-rule="evenodd"/><circle cx="14795500" cy="5969000" r="85000"/><circle cx="14795500" cy="6223000" r="85000"/><circle cx="13840000" cy="5960000" r="80000"/><circle cx="13840000" cy="6210000" r="80000"/><path d="m14270000 5710500 3826.8 761.2 3244.3 2167.7 2167.7 3244.3 761.2 3826.8v26000l-761.2 3826.8-2167.7 3244.3-3244.3 2167.7-3826.8 761.2h-20000l-3826.8-761.2-3244.3-2167.7-2167.7-3244.3-761.2-3826.8v-26000l761.2-3826.8 2167.7-3244.3 3244.3-2167.7 3826.8-761.2zM14270000 5774500l3826.8 761.2 3244.3 2167.7 2167.7 3244.3 761.2 3826.8v26000l-761.2 3826.8-2167.7 3244.3-3244.3 2167.7-3826.8 761.2h-20000l-3826.8-761.2-3244.3-2167.7-2167.7-3244.3-761.2-3826.8v-26000l761.2-3826.8 2167.7-3244.3 3244.3-2167.7 3826.8-761.2z" fill-rule="evenodd"/></g></mask><mask id="b"><path fill="#fff" d="M11376700 4544100h4185824v5008800h-4185824z"/><path stroke="#000" stroke-linecap="round" stroke-width="100000" d="M14795500 5715000h0M14795500 5969000h0M14795500 6223000h0"/><path stroke="#000" stroke-linecap="round" stroke-width="80000" d="M13840000 5960000h0M13840000 6210000h0"/></mask><clipPath id="a"><path d="M11379200 4546600v5003800h3733800V4546600h-3733800" fill-rule="evenodd"/></clipPath></defs><g clip-path="url(#a)" mask="url(#b)"><g fill="#313d63" stroke="#313d63"><path d="M11379200 4546600v5003800h3733800V4546600h-3733800" fill-rule="evenodd"/><g fill-opacity="0" stroke-linecap="round" stroke-linejoin="round" stroke-width="5000" fill="none"><path d="M15113000 4546600h-3733800M15113000 9550400V4546600M11379200 4546600v5003800M11379200 9550400h3733800"/></g></g><g fill-opacity="1" stroke-linecap="round" stroke-linejoin="round" stroke-width=".1" fill="#9c6b28" stroke="#9c6b28"><path d="M14710000 5800000v-170000h170000v170000z" fill-rule="evenodd"/><circle cx="14795500" cy="5969000" r="85000"/><circle cx="14795500" cy="6223000" r="85000"/><circle cx="13840000" cy="5960000" r="80000"/><circle cx="13840000" cy="6210000" r="80000"/><path d="m14270000 5710500 3826.8 761.2 3244.3 2167.7 2167.7 3244.3 761.2 3826.8v26000l-761.2 3826.8-2167.7 3244.3-3244.3 2167.7-3826.8 761.2h-20000l-3826.8-761.2-3244.3-2167.7-2167.7-3244.3-761.2-3826.8v-26000l761.2-3826.8 2167.7-3244.3 3244.3-2167.7 3826.8-761.2zM14270000 5774500l3826.8 761.2 3244.3 2167.7 2167.7 3244.3 761.2 3826.8v26000l-761.2 3826.8-2167.7 3244.3-3244.3 2167.7-3826.8 761.2h-20000l-3826.8-761.2-3244.3-2167.7-2167.7-3244.3-761.2-3826.8v-26000l761.2-3826.8 2167.7-3244.3 3244.3-2167.7 3826.8-761.2z" fill-rule="evenodd"/></g><g stroke-linecap="round" stroke-linejoin="round" fill="#212d53" stroke="#212d53"><g stroke-width=".1"><path d="M14710000 5800000v-170000h170000v170000z" fill-rule="evenodd"/><circle cx="14795500" cy="5969000" r="85000"/><circle cx="14795500" cy="6223000" r="85000"/><circle cx="13840000" cy="5960000" r="80000"/><circle cx="13840000" cy="6210000" r="80000"/><path d="m14270000 5710500 3826.8 761.2 3244.3 2167.7 2167.7 3244.3 761.2 3826.8v26000l-761.2 3826.8-2167.7 3244.3-3244.3 2167.7-3826.8 761.2h-20000l-3826.8-761.2-3244.3-2167.7-2167.7-3244.3-761.2-3826.8v-26000l761.2-3826.8 2167.7-3244.3 3244.3-2167.7 3826.8-761.2zM14270000 5774500l3826.8 761.2 3244.3 2167.7 2167.7 3244.3 761.2 3826.8v26000l-761.2 3826.8-2167.7 3244.3-3244.3 2167.7-3826.8 761.2h-20000l-3826.8-761.2-3244.3-2167.7-2167.7-3244.3-761.2-3826.8v-26000l761.2-3826.8 2167.7-3244.3 3244.3-2167.7 3826.8-761.2z" fill-rule="evenodd"/></g><g fill-opacity="0" stroke-width="100000" fill="none"><path d="M13840000 6210000h942500M14782500 6210000l13000 13000M14251500 5826500h8500M14249000 5969000v-140000M13849000 5969000l-9000-9000M14249000 5969000h-400000M14795500 5969000h-546500M14249000 5829000l2500-2500M14795500 5715000l-10500-10500M14785000 5704500h-501863"/></g></g><g stroke-linecap="round" stroke-linejoin="round" fill="#b5ae30" mask="url(#c)" stroke="#b5ae30"><g stroke-width=".1"><path d="M14710000 5800000v-170000h170000v170000z" fill-rule="evenodd"/><circle cx="14795500" cy="5969000" r="85000"/><circle cx="14795500" cy="6223000" r="85000"/><circle cx="13840000" cy="5960000" r="80000"/><circle cx="13840000" cy="6210000" r="80000"/><path d="m14270000 5710500 3826.8 761.2 3244.3 2167.7 2167.7 3244.3 761.2 3826.8v26000l-761.2 3826.8-2167.7 3244.3-3244.3 2167.7-3826.8 761.2h-20000l-3826.8-761.2-3244.3-2167.7-2167.7-3244.3-761.2-3826.8v-26000l761.2-3826.8 2167.7-3244.3 3244.3-2167.7 3826.8-761.2zM14270000 5774500l3826.8 761.2 3244.3 2167.7 2167.7 3244.3 761.2 3826.8v26000l-761.2 3826.8-2167.7 3244.3-3244.3 2167.7-3826.8 761.2h-20000l-3826.8-761.2-3244.3-2167.7-2167.7-3244.3-761.2-3826.8v-26000l761.2-3826.8 2167.7-3244.3 3244.3-2167.7 3826.8-761.2z" fill-rule="evenodd"/></g><g fill-opacity="0" stroke-width="100000" fill="none"><path d="M13840000 6210000h942500M14782500 6210000l13000 13000M14251500 5826500h8500M14249000 5969000v-140000M13849000 5969000l-9000-9000M14249000 5969000h-400000M14795500 5969000h-546500M14249000 5829000l2500-2500M14795500 5715000l-10500-10500M14785000 5704500h-501863"/></g></g><g fill="#f0f0f0" fill-opacity="0" mask="url(#d)" stroke="#f0f0f0" stroke-linecap="round" stroke-linejoin="round"><g stroke-width="37500"><g class="stroked-text"><path d="M14446657 9490000v-92857l57143 50000v-21429l7142-14285 7143-7143 14286-7143h35714l14286 7143 7143 7143 7143 14285v42858l-7143 14285-7143 7143M14540000 9332885v-114285M14453800 9068600l-7143 14285v21429l7143 21428 14285 14286 14286 7143 28571 7143h21429l28571-7143 14286-7143 14286-14286 7143-21428v-14286l-7143-21428-7143-7143h-50000v28571M14596657 8997171h-150000l150000-85714h-150000M14596657 8840000h-150000v-35714l7143-21429 14285-14285 14286-7143 28571-7143h21429l28571 7143 14286 7143 14286 14285 7143 21429v35714" fill="none"/></g><g class="stroked-text"><path d="m13750000 9468600-7142-7143-7143-14286v-35714l7143-14286 7142-7143 14286-7143h14286l21428 7143 85715 85714v-92857M13828314 9318600v-114286M13735457 9104314v-28572l7143-14285 14285-14286 28572-7143h50000l28571 7143 14286 14286 7143 14285v28572l-7143 14286-14286 14285-28571 7143h-50000l-28572-7143-14285-14285-7143-14286M13735457 8975742h121428l14286-7142 7143-7143 7143-14286v-28571l-7143-14286-7143-7143-14286-7143h-121428M13735457 8840000v-85714M13885457 8797171h-150000" fill="none"/></g><g class="stroked-text"><path d="M13174257 9382885v85715M13174257 9425742h-150000l21428 14286 14286 14286 7143 14286M13117114 9318600v-114286M13024257 9154314l150000-50000-150000-50000M13160000 8918600l7143 7142 7143 21429v14286l-7143 21428-14286 14286-14286 7143-28571 7143h-21429l-28571-7143-14286-7143-14285-14286-7143-21428v-14286l7143-21429 7142-7142M13160000 8768600l7143 7142 7143 21429v14286l-7143 21428-14286 14286-14286 7143-28571 7143h-21429l-28571-7143-14286-7143-14285-14286-7143-21428v-14286l7143-21429 7142-7142" fill="none"/></g></g><g class="stroked-text" stroke-width="75000"><path d="M13430000 5152214v-300000l171428 300000v-300000M13700928 4852214h171429M13786642 5152214v-300000M14143785 5123642l-14285 14286-42858 14286h-28571l-42857-14286-28572-28571-14285-28572-14286-57143v-42857l14286-57143 14285-28571 28572-28571 42857-14286h28571l42858 14286 14285 14285" fill="none"/></g><g stroke-width="12000" fill="none"><path d="M14928500 5582000v133000M14662500 5842000h266000M14928500 5842000v514000M14662500 6356000h266000M14795500 5582000h133000M14662500 5842000v514000M13748000 6022100v125800M13932000 6022100v125800"/></g></g><g stroke="#000" stroke-width="15000"><g fill-opacity="0" stroke-linecap="round" stroke-linejoin="round" fill="none"><path d="M15113000 4546600h-3733800M15113000 9550400V4546600M11379200 4546600v5003800M11379200 9550400h3733800"/></g><path d="M14745500 5715000a50000 50000 0 1 1 100000 0 50000 50000 0 1 1-100000 0zM14745500 5969000a50000 50000 0 1 1 100000 0 50000 50000 0 1 1-100000 0zM14745500 6223000a50000 50000 0 1 1 100000 0 50000 50000 0 1 1-100000 0zM13840000 5920000a40000 40000 0 1 1 0 80000 40000 40000 0 1 1 0-80000zM13840000 6170000a40000 40000 0 1 1 0 80000 40000 40000 0 1 1 0-80000z"/></g></g><g stroke-width=".093"><path d="M14922500 6350000v-762000h-254000v762000z" fill="#1a1a1a" fill-rule="evenodd" stroke="#000" stroke-width="9300"/><g stroke="#000"><path d="M14855500 5774960v-120000h-120000v120000z" fill="#666" fill-rule="evenodd" stroke-width="9300"/><g fill="none"><path d="m14735500 5654960 29900 29900M14735500 5774960l29900-29900M14765400 5684860v60200M14855500 5654960l-29900 29900M14825600 5684860h-60200M14855500 5774960l-29900-29900M14825600 5745060v-60200M14765400 5745060h60200" stroke-width="9300"/></g><path d="M14825500 5744960v-60000h-60000v60000z" fill="olive" fill-rule="evenodd" stroke-width="9300"/><g fill="none"><path d="M14785500 5689960v-5000M14785500 5739960v-50000M14785500 5744960v-5000M14805500 5744960v-5000M14785500 5739960h20000M14805500 5739960v-50000M14805500 5689960v-5000M14785500 5689960h20000" stroke-width="9300"/></g><path d="M14855500 6028960v-120000h-120000v120000z" fill="#666" fill-rule="evenodd" stroke-width="9300"/><g fill="none"><path d="m14735500 5908960 29900 29900M14735500 6028960l29900-29900M14765400 5938860v60200M14855500 5908960l-29900 29900M14825600 5938860h-60200M14855500 6028960l-29900-29900M14825600 5999060v-60200M14765400 5999060h60200" stroke-width="9300"/></g><path d="M14825500 5998960v-60000h-60000v60000z" fill="olive" fill-rule="evenodd" stroke-width="9300"/><g fill="none"><path d="M14785500 5943960v-5000M14785500 5993960v-50000M14785500 5998960v-5000M14805500 5998960v-5000M14785500 5993960h20000M14805500 5993960v-50000M14805500 5943960v-5000M14785500 5943960h20000" stroke-width="9300"/></g><path d="M14855500 6282960v-120000h-120000v120000z" fill="#666" fill-rule="evenodd" stroke-width="9300"/><g fill="none"><path d="m14735500 6162960 29900 29900M14735500 6282960l29900-29900M14765400 6192860v60200M14855500 6162960l-29900 29900M14825600 6192860h-60200M14855500 6282960l-29900-29900M14825600 6253060v-60200M14765400 6253060h60200" stroke-width="9300"/></g><path d="M14825500 6252960v-60000h-60000v60000z" fill="olive" fill-rule="evenodd" stroke-width="9300"/><g fill="none"><path d="M14785500 6197960v-5000M14785500 6247960v-50000M14785500 6252960v-5000M14805500 6252960v-5000M14785500 6247960h20000M14805500 6247960v-50000M14805500 6197960v-5000M14785500 6197960h20000" stroke-width="9300"/></g></g></g><g stroke-width=".093" fill="#333"><g transform="scale(100000) rotate(90 39.5 99.1)"><g fill-rule="evenodd" stroke="#000"><path d="M2.75 0a1.806 1.806 0 0 1-3 0 1.806 1.806 0 0 1 3 0z"/><path d="M-.053.244c-.263-.057-.263-.43 0-.488M2.553-.244c.263.057.263.43 0 .488M2.75 0h-3"/></g></g></g><g transform="matrix(0 100000 100000 0 14260000 5765500)" stroke-width=".013"><g fill-rule="evenodd" stroke="#191919"><path d="M-.2-.15h-.1v.3h.1zM.2-.15h.1v.3H.2z" fill="#999"/><path d="M-.2.15h.4v-.3h-.4z" fill="#333"/></g><g fill="none" stroke="#191919"><path d="M-.277-.15v.3M-.223-.15v.3M.277-.15v.3M.223-.15v.3"/></g></g></svg>