<svg width="282" height="304" viewBox="98019000 33503000 57454000 62026000" xmlns="http://www.w3.org/2000/svg" xmlns:xlink="http://www.w3.org/1999/xlink"><defs><mask id="c"><g fill="#fff" fill-opacity="1" stroke="#fff" stroke-linecap="round" stroke-linejoin="round" stroke-width="1"><path d="M150660000 48471999v-1700000h1700000v1700000z" fill-rule="evenodd"/><circle cx="151510000" cy="50162000" r="850000"/><circle cx="151510000" cy="52702000" r="850000"/><circle cx="151510000" cy="55242000" r="850000"/><path d="M144040000 55900000l-11418 57403-32516 48663-48663 32516-57403 11418h-1175000l-57403-11418-48663-32516-32516-48663-11418-57403v-300000l11418-57403 32516-48663 48663-32516 57403-11418h1175000l57403 11418 48663 32516 32516 48663 11418 57403zM144040000 54000000l-11418 57403-32516 48663-48663 32516-57403 11418h-1175000l-57403-11418-48663-32516-32516-48663-11418-57403v-300000l11418-57403 32516-48663 48663-32516 57403-11418h1175000l57403 11418 48663 32516 32516 48663 11418 57403zM142170000 54950000l-11418 57403-32516 48663-48663 32516-57403 11418h-1175000l-57403-11418-48663-32516-32516-48663-11418-57403v-300000l11418-57403 32516-48663 48663-32516 57403-11418h1175000l57403 11418 48663 32516 32516 48663 11418 57403zM142150000 57104000l10657-53576 30348-45419 45419-30348 53576-10657h280000l53576 10657 45419 30348 30348 45419 10657 53576v340000l-10657 53576-30348 45419-45419 30348-53576 10657h-280000l-53576-10657-45419-30348-30348-45419-10657-53576zM143110000 57104000l10657-53576 30348-45419 45419-30348 53576-10657h280000l53576 10657 45419 30348 30348 45419 10657 53576v340000l-10657 53576-30348 45419-45419 30348-53576 10657h-280000l-53576-10657-45419-30348-30348-45419-10657-53576zM149070000 52660000l38268 7612 32443 21677 21677 32443 7612 38268v260000l-7612 38268-21677 32443-32443 21677-38268 7612h-200000l-38268-7612-32443-21677-21677-32443-7612-38268v-260000l7612-38268 21677-32443 32443-21677 38268-7612zM149070000 53300000l38268 7612 32443 21677 21677 32443 7612 38268v260000l-7612 38268-21677 32443-32443 21677-38268 7612h-200000l-38268-7612-32443-21677-21677-32443-7612-38268v-260000l7612-38268 21677-32443 32443-21677 38268-7612zM148870000 51916000l-38268-7612-32443-21677-21677-32443-7612-38268v-260000l7612-38268 21677-32443 32443-21677 38268-7612h200000l38268 7612 32443 21677 21677 32443 7612 38268v260000l-7612 38268-21677 32443-32443 21677-38268 7612zM148870000 51276000l-38268-7612-32443-21677-21677-32443-7612-38268v-260000l7612-38268 21677-32443 32443-21677 38268-7612h200000l38268 7612 32443 21677 21677 32443 7612 38268v260000l-7612 38268-21677 32443-32443 21677-38268 7612zM143710000 49735280l38881 7734 32961 22024 22024 32961 7734 38881v497840l-7734 38881-22024 32961-32961 22024-38881 7734h-599440l-38881-7734-32961-22024-22024-32961-7734-38881v-497840l7734-38881 22024-32961 32961-22024 38881-7734zM145210000 49735280l38881 7734 32961 22024 22024 32961 7734 38881v497840l-7734 38881-22024 32961-32961 22024-38881 7734h-599440l-38881-7734-32961-22024-22024-32961-7734-38881v-497840l7734-38881 22024-32961 32961-22024 38881-7734zM146710000 49735280l38881 7734 32961 22024 22024 32961 7734 38881v497840l-7734 38881-22024 32961-32961 22024-38881 7734h-599440l-38881-7734-32961-22024-22024-32961-7734-38881v-497840l7734-38881 22024-32961 32961-22024 38881-7734zM146710000 46840000l38881 7734 32961 22024 22024 32961 7734 38881v497840l-7734 38881-22024 32961-32961 22024-38881 7734h-599440l-38881-7734-32961-22024-22024-32961-7734-38881v-497840l7734-38881 22024-32961 32961-22024 38881-7734zM145210000 46840000l38881 7734 32961 22024 22024 32961 7734 38881v497840l-7734 38881-22024 32961-32961 22024-38881 7734h-599440l-38881-7734-32961-22024-22024-32961-7734-38881v-497840l7734-38881 22024-32961 32961-22024 38881-7734zM143710000 46840000l38881 7734 32961 22024 22024 32961 7734 38881v497840l-7734 38881-22024 32961-32961 22024-38881 7734h-599440l-38881-7734-32961-22024-22024-32961-7734-38881v-497840l7734-38881 22024-32961 32961-22024 38881-7734zM143060000 48338280l7734-38881 22024-32961 32961-22024 38881-7734h497840l38881 7734 32961 22024 22024 32961 7734 38881v599440l-7734 38881-22024 32961-32961 22024-38881 7734h-497840l-38881-7734-32961-22024-22024-32961-7734-38881zM144630000 52364000l-10657 53576-30348 45419-45419 30348-53576 10657h-280000l-53576-10657-45419-30348-30348-45419-10657-53576v-340000l10657-53576 30348-45419 45419-30348 53576-10657h280000l53576 10657 45419 30348 30348 45419 10657 53576zM143670000 52364000l-10657 53576-30348 45419-45419 30348-53576 10657h-280000l-53576-10657-45419-30348-30348-45419-10657-53576v-340000l10657-53576 30348-45419 45419-30348 53576-10657h280000l53576 10657 45419 30348 30348 45419 10657 53576zM144650000 51348000l-10657 53576-30348 45419-45419 30348-53576 10657h-280000l-53576-10657-45419-30348-30348-45419-10657-53576v-340000l10657-53576 30348-45419 45419-30348 53576-10657h280000l53576 10657 45419 30348 30348 45419 10657 53576zM143690000 51348000l-10657 53576-30348 45419-45419 30348-53576 10657h-280000l-53576-10657-45419-30348-30348-45419-10657-53576v-340000l10657-53576 30348-45419 45419-30348 53576-10657h280000l53576 10657 45419 30348 30348 45419 10657 53576zM148870000 49859000l-38268-7612-32443-21677-21677-32443-7612-38268v-260000l7612-38268 21677-32443 32443-21677 38268-7612h200000l38268 7612 32443 21677 21677 32443 7612 38268v260000l-7612 38268-21677 32443-32443 21677-38268 7612zM148870000 49219000l-38268-7612-32443-21677-21677-32443-7612-38268v-260000l7612-38268 21677-32443 32443-21677 38268-7612h200000l38268 7612 32443 21677 21677 32443 7612 38268v260000l-7612 38268-21677 32443-32443 21677-38268 7612zM145810000 57143000l-95671-19030-81106-54193-54193-81106-19030-95671v-750000l19030-95671 54193-81106 81106-54193 95671-19030h1250000l95671 19030 81106 54193 54193 81106 19030 95671v750000l-19030 95671-54193 81106-81106 54193-95671 19030zM145810000 54343000l-95671-19030-81106-54193-54193-81106-19030-95671v-750000l19030-95671 54193-81106 81106-54193 95671-19030h1250000l95671 19030 81106 54193 54193 81106 19030 95671v750000l-19030 95671-54193 81106-81106 54193-95671 19030z" fill-rule="evenodd"/></g></mask><mask id="d"><path fill="#fff" d="M98019000 33503000h57454000v62026000H98019000z"/><g fill-opacity="1" stroke="#000" stroke-linecap="round" stroke-linejoin="round" stroke-width="1"><path d="M150660000 48471999v-1700000h1700000v1700000z" fill-rule="evenodd"/><circle cx="151510000" cy="50162000" r="850000"/><circle cx="151510000" cy="52702000" r="850000"/><circle cx="151510000" cy="55242000" r="850000"/><path d="M144040000 55900000l-11418 57403-32516 48663-48663 32516-57403 11418h-1175000l-57403-11418-48663-32516-32516-48663-11418-57403v-300000l11418-57403 32516-48663 48663-32516 57403-11418h1175000l57403 11418 48663 32516 32516 48663 11418 57403zM144040000 54000000l-11418 57403-32516 48663-48663 32516-57403 11418h-1175000l-57403-11418-48663-32516-32516-48663-11418-57403v-300000l11418-57403 32516-48663 48663-32516 57403-11418h1175000l57403 11418 48663 32516 32516 48663 11418 57403zM142170000 54950000l-11418 57403-32516 48663-48663 32516-57403 11418h-1175000l-57403-11418-48663-32516-32516-48663-11418-57403v-300000l11418-57403 32516-48663 48663-32516 57403-11418h1175000l57403 11418 48663 32516 32516 48663 11418 57403zM142150000 57104000l10657-53576 30348-45419 45419-30348 53576-10657h280000l53576 10657 45419 30348 30348 45419 10657 53576v340000l-10657 53576-30348 45419-45419 30348-53576 10657h-280000l-53576-10657-45419-30348-30348-45419-10657-53576zM143110000 57104000l10657-53576 30348-45419 45419-30348 53576-10657h280000l53576 10657 45419 30348 30348 45419 10657 53576v340000l-10657 53576-30348 45419-45419 30348-53576 10657h-280000l-53576-10657-45419-30348-30348-45419-10657-53576zM149070000 52660000l38268 7612 32443 21677 21677 32443 7612 38268v260000l-7612 38268-21677 32443-32443 21677-38268 7612h-200000l-38268-7612-32443-21677-21677-32443-7612-38268v-260000l7612-38268 21677-32443 32443-21677 38268-7612zM149070000 53300000l38268 7612 32443 21677 21677 32443 7612 38268v260000l-7612 38268-21677 32443-32443 21677-38268 7612h-200000l-38268-7612-32443-21677-21677-32443-7612-38268v-260000l7612-38268 21677-32443 32443-21677 38268-7612zM148870000 51916000l-38268-7612-32443-21677-21677-32443-7612-38268v-260000l7612-38268 21677-32443 32443-21677 38268-7612h200000l38268 7612 32443 21677 21677 32443 7612 38268v260000l-7612 38268-21677 32443-32443 21677-38268 7612zM148870000 51276000l-38268-7612-32443-21677-21677-32443-7612-38268v-260000l7612-38268 21677-32443 32443-21677 38268-7612h200000l38268 7612 32443 21677 21677 32443 7612 38268v260000l-7612 38268-21677 32443-32443 21677-38268 7612zM143710000 49735280l38881 7734 32961 22024 22024 32961 7734 38881v497840l-7734 38881-22024 32961-32961 22024-38881 7734h-599440l-38881-7734-32961-22024-22024-32961-7734-38881v-497840l7734-38881 22024-32961 32961-22024 38881-7734zM145210000 49735280l38881 7734 32961 22024 22024 32961 7734 38881v497840l-7734 38881-22024 32961-32961 22024-38881 7734h-599440l-38881-7734-32961-22024-22024-32961-7734-38881v-497840l7734-38881 22024-32961 32961-22024 38881-7734zM146710000 49735280l38881 7734 32961 22024 22024 32961 7734 38881v497840l-7734 38881-22024 32961-32961 22024-38881 7734h-599440l-38881-7734-32961-22024-22024-32961-7734-38881v-497840l7734-38881 22024-32961 32961-22024 38881-7734zM146710000 46840000l38881 7734 32961 22024 22024 32961 7734 38881v497840l-7734 38881-22024 32961-32961 22024-38881 7734h-599440l-38881-7734-32961-22024-22024-32961-7734-38881v-497840l7734-38881 22024-32961 32961-22024 38881-7734zM145210000 46840000l38881 7734 32961 22024 22024 32961 7734 38881v497840l-7734 38881-22024 32961-32961 22024-38881 7734h-599440l-38881-7734-32961-22024-22024-32961-7734-38881v-497840l7734-38881 22024-32961 32961-22024 38881-7734zM143710000 46840000l38881 7734 32961 22024 22024 32961 7734 38881v497840l-7734 38881-22024 32961-32961 22024-38881 7734h-599440l-38881-7734-32961-22024-22024-32961-7734-38881v-497840l7734-38881 22024-32961 32961-22024 38881-7734zM143060000 48338280l7734-38881 22024-32961 32961-22024 38881-7734h497840l38881 7734 32961 22024 22024 32961 7734 38881v599440l-7734 38881-22024 32961-32961 22024-38881 7734h-497840l-38881-7734-32961-22024-22024-32961-7734-38881zM144630000 52364000l-10657 53576-30348 45419-45419 30348-53576 10657h-280000l-53576-10657-45419-30348-30348-45419-10657-53576v-340000l10657-53576 30348-45419 45419-30348 53576-10657h280000l53576 10657 45419 30348 30348 45419 10657 53576zM143670000 52364000l-10657 53576-30348 45419-45419 30348-53576 10657h-280000l-53576-10657-45419-30348-30348-45419-10657-53576v-340000l10657-53576 30348-45419 45419-30348 53576-10657h280000l53576 10657 45419 30348 30348 45419 10657 53576zM144650000 51348000l-10657 53576-30348 45419-45419 30348-53576 10657h-280000l-53576-10657-45419-30348-30348-45419-10657-53576v-340000l10657-53576 30348-45419 45419-30348 53576-10657h280000l53576 10657 45419 30348 30348 45419 10657 53576zM143690000 51348000l-10657 53576-30348 45419-45419 30348-53576 10657h-280000l-53576-10657-45419-30348-30348-45419-10657-53576v-340000l10657-53576 30348-45419 45419-30348 53576-10657h280000l53576 10657 45419 30348 30348 45419 10657 53576zM148870000 49859000l-38268-7612-32443-21677-21677-32443-7612-38268v-260000l7612-38268 21677-32443 32443-21677 38268-7612h200000l38268 7612 32443 21677 21677 32443 7612 38268v260000l-7612 38268-21677 32443-32443 21677-38268 7612zM148870000 49219000l-38268-7612-32443-21677-21677-32443-7612-38268v-260000l7612-38268 21677-32443 32443-21677 38268-7612h200000l38268 7612 32443 21677 21677 32443 7612 38268v260000l-7612 38268-21677 32443-32443 21677-38268 7612zM145810000 57143000l-95671-19030-81106-54193-54193-81106-19030-95671v-750000l19030-95671 54193-81106 81106-54193 95671-19030h1250000l95671 19030 81106 54193 54193 81106 19030 95671v750000l-19030 95671-54193 81106-81106 54193-95671 19030zM145810000 54343000l-95671-19030-81106-54193-54193-81106-19030-95671v-750000l19030-95671 54193-81106 81106-54193 95671-19030h1250000l95671 19030 81106 54193 54193 81106 19030 95671v750000l-19030 95671-54193 81106-81106 54193-95671 19030z" fill-rule="evenodd"/></g></mask><mask id="b"><path fill="#fff" d="M98019000 33503000h57454000v62026000H98019000z"/><path stroke="#000" stroke-linecap="round" stroke-width="1000000" d="M151510000 47622000h0M151510000 50162000h0M151510000 52702000h0M151510000 55242000h0"/></mask><clipPath id="a"><path d="M98044000 33528000v61976000h57404000V33528000H98044000" fill-rule="evenodd"/></clipPath></defs><g clip-path="url(#a)" mask="url(#b)"><g fill="#313d63" stroke="#313d63"><path d="M98044000 33528000v61976000h57404000V33528000H98044000" fill-rule="evenodd"/><g fill-opacity="0" stroke-linecap="round" stroke-linejoin="round" stroke-width="50000" fill="none" stroke="#000"><path d="M155450000 33528000H98046000M98044000 95504000h57404000M155450000 95504000V33528000M98044000 33528000v61976000"/></g></g><g fill-opacity="1" stroke-linecap="round" stroke-linejoin="round" stroke-width="1" fill="#9c6b28" stroke="#9c6b28"><path d="M150660000 48471999v-1700000h1700000v1700000z" fill-rule="evenodd"/><circle cx="151510000" cy="50162000" r="850000"/><circle cx="151510000" cy="52702000" r="850000"/><circle cx="151510000" cy="55242000" r="850000"/><g fill-rule="evenodd"><path d="M144040000 55900000l-11420 57403-32510 48663-48670 32516-57400 11418h-1175000l-57400-11418-48670-32516-32510-48663-11420-57403v-300000l11420-57403 32510-48663 48670-32516 57400-11418h1175000l57400 11418 48670 32516 32510 48663 11420 57403zM144040000 54000000l-11420 57403-32510 48663-48670 32516-57400 11418h-1175000l-57400-11418-48670-32516-32510-48663-11420-57403v-300000l11420-57403 32510-48663 48670-32516 57400-11418h1175000l57400 11418 48670 32516 32510 48663 11420 57403zM142170000 54950000l-11420 57403-32510 48663-48670 32516-57400 11418h-1175000l-57400-11418-48670-32516-32510-48663-11420-57403v-300000l11420-57403 32510-48663 48670-32516 57400-11418h1175000l57400 11418 48670 32516 32510 48663 11420 57403zM142150000 57104000l10660-53576 30350-45419 45410-30348 53580-10657h280000l53580 10657 45420 30348 30340 45419 10660 53576v340000l-10660 53576-30340 45419-45420 30348-53580 10657h-280000l-53580-10657-45410-30348-30350-45419-10660-53576zM143110000 57104000l10660-53576 30350-45419 45410-30348 53580-10657h280000l53580 10657 45420 30348 30340 45419 10660 53576v340000l-10660 53576-30340 45419-45420 30348-53580 10657h-280000l-53580-10657-45410-30348-30350-45419-10660-53576zM149070000 52660000l38270 7612 32440 21677 21680 32443 7610 38268v260000l-7610 38268-21680 32443-32440 21677-38270 7612h-200000l-38270-7612-32440-21677-21680-32443-7610-38268v-260000l7610-38268 21680-32443 32440-21677 38270-7612zM149070000 53300000l38270 7612 32440 21677 21680 32443 7610 38268v260000l-7610 38268-21680 32443-32440 21677-38270 7612h-200000l-38270-7612-32440-21677-21680-32443-7610-38268v-260000l7610-38268 21680-32443 32440-21677 38270-7612zM148870000 51916000l-38270-7612-32440-21677-21680-32443-7610-38268v-260000l7610-38268 21680-32443 32440-21677 38270-7612h200000l38270 7612 32440 21677 21680 32443 7610 38268v260000l-7610 38268-21680 32443-32440 21677-38270 7612zM148870000 51276000l-38270-7612-32440-21677-21680-32443-7610-38268v-260000l7610-38268 21680-32443 32440-21677 38270-7612h200000l38270 7612 32440 21677 21680 32443 7610 38268v260000l-7610 38268-21680 32443-32440 21677-38270 7612zM143710000 49735280l38880 7734 32960 22024 22030 32961 7730 38881v497840l-7730 38881-22030 32961-32960 22024-38880 7734h-599440l-38880-7734-32960-22024-22030-32961-7730-38881v-497840l7730-38881 22030-32961 32960-22024 38880-7734zM145210000 49735280l38880 7734 32960 22024 22030 32961 7730 38881v497840l-7730 38881-22030 32961-32960 22024-38880 7734h-599440l-38880-7734-32960-22024-22030-32961-7730-38881v-497840l7730-38881 22030-32961 32960-22024 38880-7734zM146710000 49735280l38880 7734 32960 22024 22030 32961 7730 38881v497840l-7730 38881-22030 32961-32960 22024-38880 7734h-599440l-38880-7734-32960-22024-22030-32961-7730-38881v-497840l7730-38881 22030-32961 32960-22024 38880-7734zM146710000 46840000l38880 7734 32960 22024 22030 32961 7730 38881v497840l-7730 38881-22030 32961-32960 22024-38880 7734h-599440l-38880-7734-32960-22024-22030-32961-7730-38881v-497840l7730-38881 22030-32961 32960-22024 38880-7734zM145210000 46840000l38880 7734 32960 22024 22030 32961 7730 38881v497840l-7730 38881-22030 32961-32960 22024-38880 7734h-599440l-38880-7734-32960-22024-22030-32961-7730-38881v-497840l7730-38881 22030-32961 32960-22024 38880-7734zM143710000 46840000l38880 7734 32960 22024 22030 32961 7730 38881v497840l-7730 38881-22030 32961-32960 22024-38880 7734h-599440l-38880-7734-32960-22024-22030-32961-7730-38881v-497840l7730-38881 22030-32961 32960-22024 38880-7734zM143060000 48338280l7730-38881 22030-32961 32960-22024 38880-7734h497840l38880 7734 32960 22024 22030 32961 7730 38881v599440l-7730 38881-22030 32961-32960 22024-38880 7734h-497840l-38880-7734-32960-22024-22030-32961-7730-38881zM144630000 52364000l-10660 53576-30340 45419-45420 30348-53580 10657h-280000l-53580-10657-45410-30348-30350-45419-10660-53576v-340000l10660-53576 30350-45419 45410-30348 53580-10657h280000l53580 10657 45420 30348 30340 45419 10660 53576zM143670000 52364000l-10660 53576-30340 45419-45420 30348-53580 10657h-280000l-53580-10657-45410-30348-30350-45419-10660-53576v-340000l10660-53576 30350-45419 45410-30348 53580-10657h280000l53580 10657 45420 30348 30340 45419 10660 53576zM144650000 51348000l-10660 53576-30340 45419-45420 30348-53580 10657h-280000l-53580-10657-45410-30348-30350-45419-10660-53576v-340000l10660-53576 30350-45419 45410-30348 53580-10657h280000l53580 10657 45420 30348 30340 45419 10660 53576zM143690000 51348000l-10660 53576-30340 45419-45420 30348-53580 10657h-280000l-53580-10657-45410-30348-30350-45419-10660-53576v-340000l10660-53576 30350-45419 45410-30348 53580-10657h280000l53580 10657 45420 30348 30340 45419 10660 53576zM148870000 49859000l-38270-7612-32440-21677-21680-32443-7610-38268v-260000l7610-38268 21680-32443 32440-21677 38270-7612h200000l38270 7612 32440 21677 21680 32443 7610 38268v260000l-7610 38268-21680 32443-32440 21677-38270 7612zM148870000 49219000l-38270-7612-32440-21677-21680-32443-7610-38268v-260000l7610-38268 21680-32443 32440-21677 38270-7612h200000l38270 7612 32440 21677 21680 32443 7610 38268v260000l-7610 38268-21680 32443-32440 21677-38270 7612zM145810000 57143000l-95670-19030-81110-54193-54190-81106-19030-95671v-750000l19030-95671 54190-81106 81110-54193 95670-19030h1250000l95670 19030 81110 54193 54190 81106 19030 95671v750000l-19030 95671-54190 81106-81110 54193-95670 19030zM145810000 54343000l-95670-19030-81110-54193-54190-81106-19030-95671v-750000l19030-95671 54190-81106 81110-54193 95670-19030h1250000l95670 19030 81110 54193 54190 81106 19030 95671v750000l-19030 95671-54190 81106-81110 54193-95670 19030z"/></g></g><g fill="#212d53" stroke="#212d53" stroke-linecap="round" stroke-linejoin="round"><path d="M150660000 48471999v-1700000h1700000v1700000z" fill-rule="evenodd"/><circle cx="151510000" cy="50162000" r="850000"/><circle cx="151510000" cy="52702000" r="850000"/><circle cx="151510000" cy="55242000" r="850000"/><g fill-rule="evenodd"><path d="M144040000 55900000l-11420 57403-32510 48663-48670 32516-57400 11418h-1175000l-57400-11418-48670-32516-32510-48663-11420-57403v-300000l11420-57403 32510-48663 48670-32516 57400-11418h1175000l57400 11418 48670 32516 32510 48663 11420 57403zM144040000 54000000l-11420 57403-32510 48663-48670 32516-57400 11418h-1175000l-57400-11418-48670-32516-32510-48663-11420-57403v-300000l11420-57403 32510-48663 48670-32516 57400-11418h1175000l57400 11418 48670 32516 32510 48663 11420 57403zM142170000 54950000l-11420 57403-32510 48663-48670 32516-57400 11418h-1175000l-57400-11418-48670-32516-32510-48663-11420-57403v-300000l11420-57403 32510-48663 48670-32516 57400-11418h1175000l57400 11418 48670 32516 32510 48663 11420 57403zM142150000 57104000l10660-53576 30350-45419 45410-30348 53580-10657h280000l53580 10657 45420 30348 30340 45419 10660 53576v340000l-10660 53576-30340 45419-45420 30348-53580 10657h-280000l-53580-10657-45410-30348-30350-45419-10660-53576zM143110000 57104000l10660-53576 30350-45419 45410-30348 53580-10657h280000l53580 10657 45420 30348 30340 45419 10660 53576v340000l-10660 53576-30340 45419-45420 30348-53580 10657h-280000l-53580-10657-45410-30348-30350-45419-10660-53576zM149070000 52660000l38270 7612 32440 21677 21680 32443 7610 38268v260000l-7610 38268-21680 32443-32440 21677-38270 7612h-200000l-38270-7612-32440-21677-21680-32443-7610-38268v-260000l7610-38268 21680-32443 32440-21677 38270-7612zM149070000 53300000l38270 7612 32440 21677 21680 32443 7610 38268v260000l-7610 38268-21680 32443-32440 21677-38270 7612h-200000l-38270-7612-32440-21677-21680-32443-7610-38268v-260000l7610-38268 21680-32443 32440-21677 38270-7612zM148870000 51916000l-38270-7612-32440-21677-21680-32443-7610-38268v-260000l7610-38268 21680-32443 32440-21677 38270-7612h200000l38270 7612 32440 21677 21680 32443 7610 38268v260000l-7610 38268-21680 32443-32440 21677-38270 7612zM148870000 51276000l-38270-7612-32440-21677-21680-32443-7610-38268v-260000l7610-38268 21680-32443 32440-21677 38270-7612h200000l38270 7612 32440 21677 21680 32443 7610 38268v260000l-7610 38268-21680 32443-32440 21677-38270 7612zM143110000 49836881h599440v497838h-599440zM144610000 49836881h599440v497838h-599440zM146110000 49836881h599440v497838h-599440zM146110000 46941281h599440v497838h-599440zM144610000 46941281h599440v497838h-599440zM143110000 46941281h599440v497838h-599440zM143160000 48937719v-599438h497840v599438zM144630000 52364000l-10660 53576-30340 45419-45420 30348-53580 10657h-280000l-53580-10657-45410-30348-30350-45419-10660-53576v-340000l10660-53576 30350-45419 45410-30348 53580-10657h280000l53580 10657 45420 30348 30340 45419 10660 53576zM143670000 52364000l-10660 53576-30340 45419-45420 30348-53580 10657h-280000l-53580-10657-45410-30348-30350-45419-10660-53576v-340000l10660-53576 30350-45419 45410-30348 53580-10657h280000l53580 10657 45420 30348 30340 45419 10660 53576zM144650000 51348000l-10660 53576-30340 45419-45420 30348-53580 10657h-280000l-53580-10657-45410-30348-30350-45419-10660-53576v-340000l10660-53576 30350-45419 45410-30348 53580-10657h280000l53580 10657 45420 30348 30340 45419 10660 53576zM143690000 51348000l-10660 53576-30340 45419-45420 30348-53580 10657h-280000l-53580-10657-45410-30348-30350-45419-10660-53576v-340000l10660-53576 30350-45419 45410-30348 53580-10657h280000l53580 10657 45420 30348 30340 45419 10660 53576zM148870000 49859000l-38270-7612-32440-21677-21680-32443-7610-38268v-260000l7610-38268 21680-32443 32440-21677 38270-7612h200000l38270 7612 32440 21677 21680 32443 7610 38268v260000l-7610 38268-21680 32443-32440 21677-38270 7612zM148870000 49219000l-38270-7612-32440-21677-21680-32443-7610-38268v-260000l7610-38268 21680-32443 32440-21677 38270-7612h200000l38270 7612 32440 21677 21680 32443 7610 38268v260000l-7610 38268-21680 32443-32440 21677-38270 7612zM145810000 57143000l-95670-19030-81110-54193-54190-81106-19030-95671v-750000l19030-95671 54190-81106 81110-54193 95670-19030h1250000l95670 19030 81110 54193 54190 81106 19030 95671v750000l-19030 95671-54190 81106-81110 54193-95670 19030zM145810000 54343000l-95670-19030-81110-54193-54190-81106-19030-95671v-750000l19030-95671 54190-81106 81110-54193 95670-19030h1250000l95670 19030 81110 54193 54190 81106 19030 95671v750000l-19030 95671-54190 81106-81110 54193-95670 19030z"/></g><g fill-opacity="0" stroke-width="250000" fill="none"><path d="M141430000 56280000v-1480500M149160000 52702000h2352000M144340000 54800000l574000-574000M148790000 52702000l188000 188000M142430000 57274000l-993500-993500M148970000 52890000l188000-188000M144910000 53210000l508000-508000M144910000 54226000v-1016000M141430000 54800000h2903500M145420000 52702000h3368000M143390000 52194000h-508000M143390000 57274000h2292000M141350000 58290000l-1016000-1016000M142880000 48638000l-508000 508000M143410000 48638000h-533400M143390000 57274000v508000M142370000 51686000v-1016000M140340000 57274000v-3556000M143390000 57782000l-508000 508000M142370000 49146000v1524000M145680000 57274000l756000-756000M146430000 56518000h3804000M143310000 55750000v1445500M140340000 53718000l2032000-2032000M143410000 51178000h-536000M143310000 57195500l78500 78500M142880000 51178000l-508000-508000M150240000 56518000l1276000-1276000M142880000 58290000h-1524000M142880000 52194000l-508000-508000M144400000 53210000v-960000M143310000 53850000h454500M148470000 51686000l-584200-584200M146410000 50085800h1473200M147880000 50085800h635400M144910000 50085800h-431800M144350000 51206000l28000-28000M144910000 50085800h1498600M144370000 50190000v988000M148970000 51686000h-508000M148520000 50085800l456800-456800M144400000 52250000l-56000-56000M147880000 51101800v-1016000M144350000 52194000v-988000M144480000 50085800l-104200 104200M143760000 53850000l640000-640000M148970000 53530000h-2352000M146620000 53530000l-188000 188000M148970000 47622000h2540000M145930000 46098000l-1016000 1016000M145930000 46098000h1524000M144910000 47114000v76200M147450000 46098000l1524000 1524000M148970000 48989000v-1367000M153550000 49654000l-508000 508000M150630000 51046000l884000-884000M145930000 45082000h6604000M153040000 50162000h-1524000M153550000 46098000v3556000M143410000 47190000l2108200-2108200M152530000 45082000l1016000 1016000M145520000 45082000h406400M148970000 51046000h1656000"/></g><g><circle cx="151510000" cy="47622000" r="175000"/><circle cx="151510000" cy="50162000" r="175000"/><circle cx="151510000" cy="52702000" r="175000"/><circle cx="151510000" cy="55242000" r="175000"/></g></g><g fill="#b5ae30" mask="url(#c)" stroke="#b5ae30" stroke-linecap="round" stroke-linejoin="round"><path d="M150660000 48471999v-1700000h1700000v1700000z" fill-rule="evenodd"/><circle cx="151510000" cy="50162000" r="850000"/><circle cx="151510000" cy="52702000" r="850000"/><circle cx="151510000" cy="55242000" r="850000"/><g fill-rule="evenodd"><path d="M144040000 55900000l-11420 57403-32510 48663-48670 32516-57400 11418h-1175000l-57400-11418-48670-32516-32510-48663-11420-57403v-300000l11420-57403 32510-48663 48670-32516 57400-11418h1175000l57400 11418 48670 32516 32510 48663 11420 57403zM144040000 54000000l-11420 57403-32510 48663-48670 32516-57400 11418h-1175000l-57400-11418-48670-32516-32510-48663-11420-57403v-300000l11420-57403 32510-48663 48670-32516 57400-11418h1175000l57400 11418 48670 32516 32510 48663 11420 57403zM142170000 54950000l-11420 57403-32510 48663-48670 32516-57400 11418h-1175000l-57400-11418-48670-32516-32510-48663-11420-57403v-300000l11420-57403 32510-48663 48670-32516 57400-11418h1175000l57400 11418 48670 32516 32510 48663 11420 57403zM142150000 57104000l10660-53576 30350-45419 45410-30348 53580-10657h280000l53580 10657 45420 30348 30340 45419 10660 53576v340000l-10660 53576-30340 45419-45420 30348-53580 10657h-280000l-53580-10657-45410-30348-30350-45419-10660-53576zM143110000 57104000l10660-53576 30350-45419 45410-30348 53580-10657h280000l53580 10657 45420 30348 30340 45419 10660 53576v340000l-10660 53576-30340 45419-45420 30348-53580 10657h-280000l-53580-10657-45410-30348-30350-45419-10660-53576zM149070000 52660000l38270 7612 32440 21677 21680 32443 7610 38268v260000l-7610 38268-21680 32443-32440 21677-38270 7612h-200000l-38270-7612-32440-21677-21680-32443-7610-38268v-260000l7610-38268 21680-32443 32440-21677 38270-7612zM149070000 53300000l38270 7612 32440 21677 21680 32443 7610 38268v260000l-7610 38268-21680 32443-32440 21677-38270 7612h-200000l-38270-7612-32440-21677-21680-32443-7610-38268v-260000l7610-38268 21680-32443 32440-21677 38270-7612zM148870000 51916000l-38270-7612-32440-21677-21680-32443-7610-38268v-260000l7610-38268 21680-32443 32440-21677 38270-7612h200000l38270 7612 32440 21677 21680 32443 7610 38268v260000l-7610 38268-21680 32443-32440 21677-38270 7612zM148870000 51276000l-38270-7612-32440-21677-21680-32443-7610-38268v-260000l7610-38268 21680-32443 32440-21677 38270-7612h200000l38270 7612 32440 21677 21680 32443 7610 38268v260000l-7610 38268-21680 32443-32440 21677-38270 7612zM143110000 49836881h599440v497838h-599440zM144610000 49836881h599440v497838h-599440zM146110000 49836881h599440v497838h-599440zM146110000 46941281h599440v497838h-599440zM144610000 46941281h599440v497838h-599440zM143110000 46941281h599440v497838h-599440zM143160000 48937719v-599438h497840v599438zM144630000 52364000l-10660 53576-30340 45419-45420 30348-53580 10657h-280000l-53580-10657-45410-30348-30350-45419-10660-53576v-340000l10660-53576 30350-45419 45410-30348 53580-10657h280000l53580 10657 45420 30348 30340 45419 10660 53576zM143670000 52364000l-10660 53576-30340 45419-45420 30348-53580 10657h-280000l-53580-10657-45410-30348-30350-45419-10660-53576v-340000l10660-53576 30350-45419 45410-30348 53580-10657h280000l53580 10657 45420 30348 30340 45419 10660 53576zM144650000 51348000l-10660 53576-30340 45419-45420 30348-53580 10657h-280000l-53580-10657-45410-30348-30350-45419-10660-53576v-340000l10660-53576 30350-45419 45410-30348 53580-10657h280000l53580 10657 45420 30348 30340 45419 10660 53576zM143690000 51348000l-10660 53576-30340 45419-45420 30348-53580 10657h-280000l-53580-10657-45410-30348-30350-45419-10660-53576v-340000l10660-53576 30350-45419 45410-30348 53580-10657h280000l53580 10657 45420 30348 30340 45419 10660 53576zM148870000 49859000l-38270-7612-32440-21677-21680-32443-7610-38268v-260000l7610-38268 21680-32443 32440-21677 38270-7612h200000l38270 7612 32440 21677 21680 32443 7610 38268v260000l-7610 38268-21680 32443-32440 21677-38270 7612zM148870000 49219000l-38270-7612-32440-21677-21680-32443-7610-38268v-260000l7610-38268 21680-32443 32440-21677 38270-7612h200000l38270 7612 32440 21677 21680 32443 7610 38268v260000l-7610 38268-21680 32443-32440 21677-38270 7612zM145810000 57143000l-95670-19030-81110-54193-54190-81106-19030-95671v-750000l19030-95671 54190-81106 81110-54193 95670-19030h1250000l95670 19030 81110 54193 54190 81106 19030 95671v750000l-19030 95671-54190 81106-81110 54193-95670 19030zM145810000 54343000l-95670-19030-81110-54193-54190-81106-19030-95671v-750000l19030-95671 54190-81106 81110-54193 95670-19030h1250000l95670 19030 81110 54193 54190 81106 19030 95671v750000l-19030 95671-54190 81106-81110 54193-95670 19030z"/></g><g fill-opacity="0" stroke-width="250000" fill="none"><path d="M141430000 56280000v-1480500M149160000 52702000h2352000M144340000 54800000l574000-574000M148790000 52702000l188000 188000M142430000 57274000l-993500-993500M148970000 52890000l188000-188000M144910000 53210000l508000-508000M144910000 54226000v-1016000M141430000 54800000h2903500M145420000 52702000h3368000M143390000 52194000h-508000M143390000 57274000h2292000M141350000 58290000l-1016000-1016000M142880000 48638000l-508000 508000M143410000 48638000h-533400M143390000 57274000v508000M142370000 51686000v-1016000M140340000 57274000v-3556000M143390000 57782000l-508000 508000M142370000 49146000v1524000M145680000 57274000l756000-756000M146430000 56518000h3804000M143310000 55750000v1445500M140340000 53718000l2032000-2032000M143410000 51178000h-536000M143310000 57195500l78500 78500M142880000 51178000l-508000-508000M150240000 56518000l1276000-1276000M142880000 58290000h-1524000M142880000 52194000l-508000-508000M144400000 53210000v-960000M143310000 53850000h454500M148470000 51686000l-584200-584200M146410000 50085800h1473200M147880000 50085800h635400M144910000 50085800h-431800M144350000 51206000l28000-28000M144910000 50085800h1498600M144370000 50190000v988000M148970000 51686000h-508000M148520000 50085800l456800-456800M144400000 52250000l-56000-56000M147880000 51101800v-1016000M144350000 52194000v-988000M144480000 50085800l-104200 104200M143760000 53850000l640000-640000M148970000 53530000h-2352000M146620000 53530000l-188000 188000M148970000 47622000h2540000M145930000 46098000l-1016000 1016000M145930000 46098000h1524000M144910000 47114000v76200M147450000 46098000l1524000 1524000M148970000 48989000v-1367000M153550000 49654000l-508000 508000M150630000 51046000l884000-884000M145930000 45082000h6604000M153040000 50162000h-1524000M153550000 46098000v3556000M143410000 47190000l2108200-2108200M152530000 45082000l1016000 1016000M145520000 45082000h406400M148970000 51046000h1656000"/></g><g><circle cx="151510000" cy="47622000" r="175000"/><circle cx="151510000" cy="50162000" r="175000"/><circle cx="151510000" cy="52702000" r="175000"/><circle cx="151510000" cy="55242000" r="175000"/></g></g><g fill="#f0f0f0" mask="url(#d)" stroke="#f0f0f0" stroke-linecap="round" stroke-linejoin="round"><g fill-opacity="0"><g class="stroked-text" stroke-width="750000"><path d="M107010000 37885714l428570 142857 142850 142857 142860 285714v428572l-142860 285714-142850 142857-285720 142857h-1142850v-3000000h1000000l285710 142858 142860 142857 142850 285714v285714l-142850 285715-142860 142857-285710 142857h-1000000M109010000 39457142v-3000000l1000000 2142858 1000000-2142858v3000000M112440000 39457142v-3000000h1142850l285720 142858 142860 142857 142850 285714v428571l-142850 285715-142860 142857-285720 142857h-1142850M117010000 39457142h-1714290M116160000 39457142v-3000000l-285710 428572-285720 285714-285710 142857M118730000 37742857l-285710-142857-142860-142858-142860-285714v-142857l142860-285714 142860-142857 285710-142858h571430l285710 142858 142860 142857 142860 285714v142857l-142860 285714-142860 142858-285710 142857h-571430l-285710 142857-142860 142857-142860 285714v571429l142860 285714 142860 142857 285710 142857h571430l285710-142857 142860-142857 142860-285714v-571429l-142860-285714-142860-142857-285710-142857M121730000 36457142h285720l285710 142858 142860 142857 142850 285714 142860 571429v714285l-142860 571429-142850 285714-142860 142857-285710 142857h-285720l-285710-142857-142860-142857-142860-285714-142850-571429v-714285l142850-571429 142860-285714 142860-142857 285710-142858" fill="none"/></g><g class="stroked-text" stroke-width="375000"><path d="M104110000 87673571v-1500000h571430l142860 71429 71430 71428 71430 142857v214286l-71430 142857-71430 71429-142860 71428h-571430M106460000 87673571l-500000-714286M105610000 87673571v-1500000h571430l142860 71429 71430 71428 71430 142857v214286l-71430 142857-71430 71429-142860 71428h-571430M107110000 86887857h500000M107820000 87673571h-714290v-1500000h714290M108390000 87602142l214280 71429h357150l142850-71429 71430-71428 71430-142857v-142857l-71430-142858-71430-71428-142850-71429-285720-71428-142860-71429-71420-71428-71430-142858v-142857l71430-142857 71420-71428 142860-71429h357140l214290 71429M109820000 87602142l214280 71429h357150l142850-71429 71430-71428 71430-142857v-142857l-71430-142858-71430-71428-142850-71429-285720-71428-142850-71429-71430-71428-71430-142858v-142857l71430-142857 71430-71428 142850-71429h357150l214280 71429M120250000 86173571h857140M120680000 87673571v-1500000M121610000 86887857h500000M122320000 87673571h-714290v-1500000h714290M122960000 87673571v-1500000l500000 1071429 500000-1071429v1500000M124680000 87673571v-1500000h571430l142860 71429 71430 71428 71420 142857v214286l-71420 142857-71430 71429-142860 71428h-571430" fill="none"/></g><g stroke-width="120000" fill="none"><path d="M151510000 46292000h1330000M150180000 48892000h2660000M152840000 46292000v1330000M150180000 48892000v7680000M152840000 48892000v7680000M150180000 56572000h2660000M142370000 53240000h650000M142370000 53240000h-650000M142370000 56360000h1675000M142370000 56360000h-650000M142800000 56914000h215680M142800000 57634000h215680"/></g><g stroke-width="127000" fill="none"><path d="M142910000 50512520h3997960M146910000 46763480h-3997960M142910000 46763480v3749040M146910000 50512520v-3749040"/></g><circle cx="142620000" cy="50797000" r="127000" fill="none" stroke-width="254000"/><g stroke-width="120000" fill="none"><path d="M143970000 51834000h-215680M143970000 52554000h-215680M144000000 51538000h-215680M144000000 50818000h-215680M145300000 53518000v3885000M145300000 57403000h2270000M147570000 57403000v-3885000"/></g></g><circle cx="151510000" cy="47622000" r="175000"/><circle cx="151510000" cy="50162000" r="175000"/><circle cx="151510000" cy="52702000" r="175000"/><circle cx="151510000" cy="55242000" r="175000"/></g><g fill-opacity="0" stroke-linecap="round" stroke-linejoin="round" stroke-width="50000" fill="none" stroke="#000"><path d="M155450000 33528000H98046000M98044000 95504000h57404000M155450000 95504000V33528000M98044000 33528000v61976000"/></g></g><g stroke-width=".093"><g transform="matrix(1000000 0 0 -1000000 151515400 47622000)"><path d="M-1.27-8.89h2.54V1.27h-2.54z" fill="#1a1a1a" fill-rule="evenodd" stroke="#000"/><path d="M-.6-1.94v-1.2H.6v1.2z" fill="#333" fill-rule="evenodd" stroke="#000"/><g fill="#4d4d4d" fill-rule="evenodd" stroke="#000"><path d="M-.6-5.68H.6v1.2H-.6zM-.6-.6H.6V.6H-.6zM.6-7.02H-.6v-1.2H.6z"/></g><g fill="none" stroke="#000"><path d="M-.6-1.94l.299-.299M-.6-3.14l.299.299M-.301-2.239v-.602M.6-1.94l-.299-.299M.301-2.239h-.602M.6-3.14l-.299.299M.301-2.841v.602M-.301-2.841h.602M.6-4.48l-.299-.299M-.6-4.48l.299-.299M.301-4.779h-.602M.6-5.68l-.299.299M.301-5.381v.602M-.6-5.68l.299.299M-.301-5.381h.602M-.301-4.779v-.602M-.6-.6l.299.299M.6-.6l-.299.299M-.301-.301h.602M-.6.6l.299-.299M-.301.301v-.602M.6.6L.301.301M.301.301h-.602M.301-.301v.602M-.6-8.22l.299.299M.6-8.22l-.299.299M-.301-7.921h.602M-.6-7.02l.299-.299M-.301-7.319v-.602M.6-7.02l-.299-.299M.301-7.319h-.602M.301-7.921v.602"/></g><g fill="olive" fill-rule="evenodd" stroke="#000"><path d="M-.3-2.84h.6v.6h-.6zM.3-5.38v.6h-.6v-.6zM.3-.3v.6h-.6v-.6zM.3-7.92v.6h-.6v-.6z"/></g><g fill="none" stroke="#000"><path d="M-.1-2.29v.05M-.1-2.79v.5M-.1-2.84v.05M.1-2.84v.05M-.1-2.79h.2M.1-2.79v.5M.1-2.29v.05M-.1-2.29h.2M-.1-4.83v.05M-.1-5.33v.5M-.1-5.38v.05M.1-5.38v.05M-.1-5.33h.2M.1-5.33v.5M.1-4.83v.05M-.1-4.83h.2M-.1.25V.3M-.1-.25v.5M-.1-.3v.05M.1-.3v.05M-.1-.25h.2M.1-.25v.5M.1.25V.3M-.1.25h.2M-.1-7.37v.05M-.1-7.87v.5M-.1-7.92v.05M.1-7.92v.05M-.1-7.87h.2M.1-7.87v.5M.1-7.37v.05M-.1-7.37h.2"/></g></g></g><g stroke="#000" stroke-width=".093"><g fill="none"><path d="M142970000 56300000h-1210000M141760000 56300000l-95000-95000M141760000 56300000l12500-25000M142957500 56275000h-1185000M142970000 56300000l-12500-25000M143065000 56205000l-95000 95000M141665000 56205000v-1205000M141665000 54600000v-1205000M141665000 53395000l95000-95000M141760000 53300000h1210000M142970000 53300000l95000 95000M143065000 53395000v255000M143065000 55950000v255000M143065000 54050000v1500000M141665000 56205000l25000-12500M141772500 56275000l-82500-82500M141772500 56275000l33378-66757M142957500 56275000l-33378-66757M143040000 56192500l-82500 82500M143065000 56205000l-25000-12500M141690000 56192500v-1192500M141665000 53395000l25000 12500M141690000 54600000v-1192500M141760000 53300000l12500 25000M141690000 53407500l82500-82500M142970000 53300000l-12500 25000M141772500 53325000h1185000M143065000 53395000l-25000 12500M142957500 53325000l82500 82500M143040000 53407500v242500M143040000 55950000v242500M143040000 54050000v1500000M141690000 56192500l66757-33378" stroke-width="93000"/></g><path d="M141756800 56159120v-2718200l49122-49122-.4.5h1118200l49122 49122-.05-.5v2718200l-49122 49122 .05-.5h-1118200z" fill="#1a1a1a" fill-rule="evenodd" stroke-width="93000"/><g fill="none"><path d="M143040000 56192500l-66757-33378M141690000 55000000v-400000M141690000 53407500l66757 33378M141772500 53325000l33378 66757M142957500 53325000l-33378 66757M143040000 53407500l-66757 33378M143040000 53650000v400000M143040000 55550000v400000" stroke-width="93000"/></g><path d="M141115000 55000000v-400000h550000v400000h-350000z" fill="gray" fill-rule="evenodd" stroke-width="93000"/><path d="M141415000 55000000v-400000M141315000 55000000v-400000" fill="none" stroke-width="93000"/><g fill="none"><path d="M141665000 55000000h25000M141665000 54600000h25000M143065000 53650000h-25000M143065000 55950000h-25000M143065000 54050000h-25000M143065000 55550000h-25000" stroke-width="93000"/></g><path d="M143590000 53650000v400000h-550000v-400000h350000z" fill="gray" fill-rule="evenodd" stroke-width="93000"/><path d="M143290000 53650000v400000M143390000 53650000v400000" fill="none" stroke-width="93000"/><g><path d="M143590000 55550000v400000h-550000v-400000h350000z" fill="gray" fill-rule="evenodd" stroke-width="93000"/><path d="M143290000 55550000v400000M143390000 55550000v400000" fill="none" stroke-width="93000"/></g></g><g transform="translate(142390000 56259000) scale(1000000)"><g id="f" stroke-width=".013"><path d="M.815 1.245h-.6v-.46 0h.6v0z" fill="#ffb380" stroke="#000"/><g transform="matrix(1 0 0 -1 .515 1.015)" fill="#b3b3b3"><path d="M-.3.25v-.5h-.2v.5zM.5.25v-.5H.3v.5zM-.5-.23h.2M-.5.23h.2M-.3.21h.6M-.3-.21h.6M.3-.23h.2M.3.23h.2" fill-rule="evenodd" stroke="#191919"/></g></g></g><g transform="rotate(90 48546500 101443500) scale(1000000)"><g transform="matrix(1 0 0 -1 .313 1.013)" stroke-width=".013" id="e"><path d="M-.2-.15h-.077 0H-.3v.3h.1zM.2-.15h.1v.3H.2z" fill="#999" fill-rule="evenodd" stroke="#191919"/><path d="M-.2.15h.4v-.3h0-.4z" fill="#333" fill-rule="evenodd" stroke="#191919"/><path d="M-.277-.15v.3M-.223-.15v.3M.277-.15v.3M.223-.15v.3" fill="none" stroke="#191919"/></g></g><use width="100%" height="100%" xlink:href="#e" transform="rotate(-90 99819500 -48140500) scale(1000000)"/><g stroke="#191919" stroke-width=".02"><g fill-rule="evenodd"><path d="M146812000 46831271v3600000h-3800000v-3600000z" fill="gray" stroke-width="20000"/><path d="M146671700 49836881v-2417700c.22-255640-207240-462880-462880-462880h-2587100c-276140 2.7-500000 223860-500000 500000h-4.8v2350000c0 276140 223860 500000 500000 500000h-4.8 2580600c259240 2.87 469400-210150 469400-469390z" fill="#999" stroke-width="20000"/><path d="M145977000 47201671c254050 0 460000 205950 460000 460000v1930000c-2.21 254050-205950 460000-460000 460000l-2130000 2c-254050 0-460000-205950-460000-460000v-1930000c-2.2-254050 205950-460000 460000-460000z" fill="#b3b3b3" stroke-width="20000"/></g><g fill="#4d4d4d" transform="rotate(180 73425000 25234635.5) scale(1000000)"><g fill-rule="evenodd"><path d="M1.045 2.609l.017-.037c.018-.023.044-.034.08-.034.035 0 .061.011.079.033l.018.036-.018-.036a.16.16 0 0 1 .027.1h0v.054c0 .045-.009.079-.026.101l.018-.036-.018.036c-.017.023-.044.034-.08.034-.035 0-.061-.01-.079-.033h0l-.018-.035.018.035c-.017-.022-.026-.055-.027-.098h0v-.055c0-.045.01-.079.026-.102zM1.318 2.726l-.006.008zM1.306 2.744l-.003.007-.001.005-.003.019zM1.484 2.683l.006-.008h0a.08.08 0 0 0 .014-.046zM1.349 2.546l-.028.017zM1.292 2.63l.002.018zM1.302 2.668h0zM2.562 2.853l-.03-.014c-.019-.015-.028-.036-.028-.064h0c0-.015.004-.028.012-.04l-.008.015.002-.004v-.002l.006-.008a.078.078 0 0 1 .035-.027l-.011.005h.001v-.001l.01-.004a.072.072 0 0 1-.04-.028h0l-.01-.016.02.027-.01-.01a.08.08 0 0 1-.015-.048c0-.031.01-.055.03-.071l.026-.016-.027.016h0a.126.126 0 0 1 .084-.025h.118v.322h-.111a.137.137 0 0 1-.084-.021z"/></g><circle transform="scale(1 -1)" cx="2.563" cy="-.888" r=".25"/><g fill-rule="evenodd"><path d="M2.16 2.786l.095-.248h.04l.095.248h0l-.005-.142h0v-.106h.056v.322h-.073l-.093-.247-.093.247h-.073v-.322h.056v.106l-.006.142zM1.83 2.68a.13.13 0 0 1 .088-.026v0h.067v-.116h.056v.322h-.124a.124.124 0 0 1-.086-.028h0a.097.097 0 0 1-.032-.076h0c0-.032.01-.057.032-.075h0l.031-.018zM1.611 2.86v-.322h.054v.257l.08-.028v.046l-.127.047zM1.447 2.546l.028.017c.02.016.03.038.03.066h0l-.003.02-.003.008-.009.018a.088.088 0 0 1-.038.031h0a.084.084 0 0 1 .033.028l-.007-.008.007.008a.07.07 0 0 1 .012.04l-.003-.018.003.019a.078.078 0 0 1-.027.062l-.026.016.026-.016h0a.106.106 0 0 1-.072.023.106.106 0 0 1-.072-.023l.026.016-.026-.016a.078.078 0 0 1-.027-.062.07.07 0 0 1 .013-.04h0a.084.084 0 0 1 .033-.029l-.021-.012.02.012h0a.091.091 0 0 1-.038-.031l.006.008-.006-.008a.08.08 0 0 1-.014-.046c0-.028.01-.05.03-.066h0a.115.115 0 0 1 .076-.025c.032 0 .058.008.077.025z"/></g></g><g fill-rule="evenodd"><path d="M144988800 47686271l-10623-15389c-10663-10761-25324-16290-43984-16587l10026 712.6-10026-712.1h-69012 .5v115810h67531c19943 0 35148-4790 45613-14365l-.3-.1c10564-9680 15846-23645 15846-41910v-.4c0-17969-5330-32284-15994-42947l-.7-1.9-3930-3580zM144252000 47783271l-5110-250.7h-67086v103370h62347c17673 0 31445-4440 41318-13328v-.4c9970-8980 14957-21425 14957-37320l.5.5c0-34358-17179-51932-51536-52721z" fill="#b3b3b3" stroke-width="20000"/><path d="M144290200 47702971l229.2-5080c0-15402-4540-26509-13625-33321h.4c-9080-6810-23251-10218-42503-10218l.3-.5h-54646v87375h55091c17475 0 31100-3800 40874-11403l-.2-.2c9870-7600 14809-18413 14809-32432z" fill="#999" stroke-width="20000"/><path d="M144989000 47740971l-10657 14775zM145744300 47668571l2970 4310z" fill="#4d4d4d" stroke-width="20000"/><path d="M145702600 47652571l5100-187.6-3.3-.1c18067 0 31248 6810 39541 20437l-.2.2c8290 13526 12440 34802 12440 63828l-181.1-10169 181.1 10169v70196l-366.5 10105 366.2-10105c-493.3 27941-4890 48476-13180 61607l-3040 4270 3040-4270c-8290 13131-21079 19696-38356 19696h-4.5l5100-200.7-10196 2.1 5100 198.6c-18067 0-31346-7110-39837-21325v.2c-8390-14217-12588-35790-12588-64717v-70344l345.9-10111-345.6 10111c394.7-27249 4740-47291 13032-60126l3100-4240-3100 4240c8290-12835 21276-19252 38949-19252l5100 190.6z" fill="#b3b3b3" stroke-width="20000"/><path d="M145655900 47812271l-184-10167zM145671200 47871171l-2900-4340z" fill="#4d4d4d" stroke-width="20000"/><path d="M145476000 47789971l13594 9490 .3.3c9580 9580 14365 22165 14365 37764l.3-.4c0 16093-4590 28631-13773 37616l.1.4c-9080 8890-21770 13328-38060 13328v.1c-16290 0-29076-4590-38356-13773l-9140-13332 9140 13332c-9180-9280-13773-21670-13773-37171 0-15698 4690-28286 14069-37764l3940-3600-13259 17150 9320-13550-1.2-.2c9380-9580 21918-14365 37616-14365l-.1.1c15698 0 28335 4790 37912 14365l8830 12203zM145431100 47737671l-11731-7980 .5 1c-8100-8100-12144-18955-12144-32580l-.5.4c0-13822 4000-24732 11996-32729l-.4.4c8000-8000 18858-11996 32581-11996l-.3-.1c13822 0 24781 4200 32877 12588l-.3.3c8190 8390 12292 19104 12292 32136l-796.9 9930-69.9-19822 866.8 9890 .4 2.1c0 13624-4050 24484-12144 32580l.4-.4c-8000 8000-18907 11996-32729 11996h-.1c-13723 0-24633-4000-32729-11996l-8060-11660zM145488400 47725671l-3550 4060z" fill="#b3b3b3" stroke-width="20000"/></g><g fill="#4d4d4d" fill-rule="evenodd"><path d="M144298300 47830671l133.4 5110zM144258000 47738871l-13175 2360zM144279600 47726771l-3980 3510z" stroke-width="20000"/></g><g fill="none"><path d="M145977000 50051701v-69980M145977000 49981701h-2130000M143847000 50051701v-69980M146367000 49591701a390000 390000 0 0 1-390000 390000M146437000 49591701h-69980M143847000 47271671h2130000M145977000 47271671a390000 390000 0 0 1 390000 390000M146367000 47661671v1930000M143847000 49981701a390000 390000 0 0 1-390000-390000M143457000 49591701v-1930000M143457000 47661671a390000 390000 0 0 1 390000-390000M143387000 49591701h70000M146437000 47661671h-69980M143847000 47201671v69980M145977000 47201671v69980M143387000 47661671h70000" stroke-width="20000"/></g></g><use width="100%" height="100%" xlink:href="#f" transform="rotate(180 72190000 26604500) scale(1000000)"/><use width="100%" height="100%" xlink:href="#f" transform="rotate(180 72205000 26096500) scale(1000000)"/><use width="100%" height="100%" xlink:href="#e" transform="rotate(-90 98791000 -49169000) scale(1000000)"/><g stroke-width=".013"><g transform="matrix(0 -1000000 -1000000 0 146432000 55118000)"><g fill="none" stroke="#191919"><path d="M-1 .8V.6M-1 .6V-.6M-1-.6v-.2M1-.6v-.2M1 .6V-.6M1 .8V.6"/></g><g stroke="#191919"><path d="M.9.8h.7V-.8H.9z" fill="gray" fill-rule="evenodd"/><path d="M-1.06.6H-1M-1.06-.6H-1" fill="none"/><path d="M-.9.8V-.8h-.7V.8h.6z" fill="gray" fill-rule="evenodd"/></g><g fill="none" stroke="#191919"><path d="M1-.6h.06M1 .6h.06M-1.45.6h.39M-1.45.8V.6M-1.06-.6h-.39M-1.45-.6v-.2M1.45.6v.2M1.06.6h.39M1.45-.6h-.39M1.45-.8v.2M-1.06-.6V.6M1.06-.6V.6M-1.54-.8V.8M1.54-.8V.8"/></g></g><path d="M145632000 54218000v1800000-.03h1600000v.03-1800000z" fill="#ccc" stroke="#000" stroke-width="13000"/></g></svg>