<?xml version="1.0" encoding="UTF-8"?>
<svg width="110" height="48" version="1.1" viewBox="0 0 19.466 8.5046" xmlns="http://www.w3.org/2000/svg">
 <path d="m18.891 1.1931h-18.632v6.2h19.027v-6.2z" fill="#333333" stroke="#000000" stroke-width=".092604"/>
 <path d="m19.361 1.1181h-0.47" fill="none" stroke="#000000" stroke-width=".092604"/>
 <path d="m0.65438 1.1181h-0.47" fill="none" stroke="#000000" stroke-width=".092604"/>
 <path d="m17.901 1.1181h-1.016" fill="none" stroke="#000000" stroke-width=".092604"/>
 <path d="m2.6609 1.1181h-1.016" fill="none" stroke="#000000" stroke-width=".092604"/>
 <path d="m15.361 1.1181h-1.016" fill="none" stroke="#000000" stroke-width=".092604"/>
 <path d="m5.2009 1.1181h-1.016" fill="none" stroke="#000000" stroke-width=".092604"/>
 <path d="m12.821 1.1181h-1.016" fill="none" stroke="#000000" stroke-width=".092604"/>
 <path d="m7.7409 1.1181h-1.016" fill="none" stroke="#000000" stroke-width=".092604"/>
 <path d="m10.281 1.1181h-1.016" fill="none" stroke="#000000" stroke-width=".092604"/>
 <path d="m0.18438 1.1181v6.35" fill="none" stroke="#000000" stroke-width=".092604"/>
 <path d="m0.18438 7.4681h0.47" fill="none" stroke="#000000" stroke-width=".092604"/>
 <path d="m18.891 7.4681h0.47" fill="none" stroke="#000000" stroke-width=".092604"/>
 <path d="m1.6449 7.4681h1.016" fill="none" stroke="#000000" stroke-width=".092604"/>
 <path d="m16.885 7.4681h1.016" fill="none" stroke="#000000" stroke-width=".092604"/>
 <path d="m4.1849 7.4681h1.016" fill="none" stroke="#000000" stroke-width=".092604"/>
 <path d="m14.345 7.4681h1.016" fill="none" stroke="#000000" stroke-width=".092604"/>
 <path d="m6.7249 7.4681h1.016" fill="none" stroke="#000000" stroke-width=".092604"/>
 <path d="m11.805 7.4681h1.016" fill="none" stroke="#000000" stroke-width=".092604"/>
 <path d="m9.2649 7.4681h1.016" fill="none" stroke="#000000" stroke-width=".092604"/>
 <path d="m19.361 7.4681v-6.35" fill="none" stroke="#000000" stroke-width=".092604"/>
 <path d="m19.361 1.1181-0.075 0.075" fill="none" stroke="#000000" stroke-width=".092604"/>
 <path d="m0.18438 1.1181 0.075 0.075" fill="none" stroke="#000000" stroke-width=".092604"/>
 <path d="m17.901 1.1931h-1.016" fill="none" stroke="#000000" stroke-width=".092604"/>
 <path d="m2.6609 1.1931h-1.016" fill="none" stroke="#000000" stroke-width=".092604"/>
 <path d="m15.361 1.1931h-1.016" fill="none" stroke="#000000" stroke-width=".092604"/>
 <path d="m5.2009 1.1931h-1.016" fill="none" stroke="#000000" stroke-width=".092604"/>
 <path d="m12.821 1.1931h-1.016" fill="none" stroke="#000000" stroke-width=".092604"/>
 <path d="m7.7409 1.1931h-1.016" fill="none" stroke="#000000" stroke-width=".092604"/>
 <path d="m10.281 1.1931h-1.016" fill="none" stroke="#000000" stroke-width=".092604"/>
 <path d="m0.18438 7.4681 0.075-0.075" fill="none" stroke="#000000" stroke-width=".092604"/>
 <path d="m19.361 7.4681-0.075-0.075" fill="none" stroke="#000000" stroke-width=".092604"/>
 <path d="m1.6449 7.3931h1.016" fill="none" stroke="#000000" stroke-width=".092604"/>
 <path d="m16.885 7.3931h1.016" fill="none" stroke="#000000" stroke-width=".092604"/>
 <path d="m4.1849 7.3931h1.016" fill="none" stroke="#000000" stroke-width=".092604"/>
 <path d="m14.345 7.3931h1.016" fill="none" stroke="#000000" stroke-width=".092604"/>
 <path d="m6.7249 7.3931h1.016" fill="none" stroke="#000000" stroke-width=".092604"/>
 <path d="m11.805 7.3931h1.016" fill="none" stroke="#000000" stroke-width=".092604"/>
 <path d="m9.2649 7.3931h1.016" fill="none" stroke="#000000" stroke-width=".092604"/>
 <path d="m0.25938 1.1931 0.32372 0.32372" fill="none" stroke="#000000" stroke-width=".092604"/>
 <path d="m19.286 1.1931-0.32372 0.32372" fill="none" stroke="#000000" stroke-width=".092604"/>
 <path d="m0.25938 7.3931 0.32372-0.32372" fill="none" stroke="#000000" stroke-width=".092604"/>
 <path d="m0.47683 5.0424 0.10628-0.0031" fill="none" stroke="#000000" stroke-width=".092604"/>
 <path d="m0.47683 5.0424v-1.4987" fill="none" stroke="#000000" stroke-width=".092604"/>
 <path d="m0.47683 3.5437 0.10628 0.0031" fill="none" stroke="#000000" stroke-width=".092604"/>
 <path d="m0.58311 1.5168v2.03c0.38324 0.038517 0.675 0.36107 0.675 0.74624h-4e-7c-3e-7 0.38517-0.29176 0.70772-0.675 0.74624h-4e-7v2.03h18.38v-5.5526z" fill="#1a1a1a" fill-rule="evenodd" stroke="#000000" stroke-width=".092604"/>
 <path d="m19.286 7.3931-0.32372-0.32372" fill="none" stroke="#000000" stroke-width=".092604"/>
 <path d="m0.49742 5.043a0.75 0.75 0 0 1-0.020587-5.74e-4" fill="none" stroke="#000000" stroke-width=".092604"/>
 <path d="m0.47683 3.5437a0.75 0.75 0 0 1 0.020587-5.72e-4" fill="none" stroke="#000000" stroke-width=".092604"/>
 <g id="Rectangle" transform="matrix(1 0 0 -1 .20574 1.0787)" display="none">
  <rect id="origin" width="1" height="1" fill="#ff0000"/>
  <title>b'Rectangle'</title>
 </g>
 <g transform="rotate(-90 -16.272 24.911)" stroke="#000000" stroke-width=".092604">
  <path d="m0.53594 47.907h-0.381v-1.524h1.091v1.524z" fill="#cccccc" fill-rule="evenodd"/>
  <path d="m0.53594 47.907v-1.524" fill="none"/>
  <path d="m0.53594 50.447h-0.381v-1.524h1.091v1.524z" fill="#cccccc" fill-rule="evenodd"/>
  <path d="m0.53594 50.447v-1.524" fill="none"/>
 </g>
 <g transform="rotate(-90 -16.309 24.873)" stroke="#000000" stroke-width=".092604">
  <path d="m0.46094 45.367h-0.381v-1.524h1.091v1.524z" fill="#cccccc" fill-rule="evenodd"/>
  <path d="m0.46094 45.367v-1.524" fill="none"/>
 </g>
 <g transform="rotate(-90 -16.272 24.911)" stroke="#000000" stroke-width=".092604">
  <path d="m0.53594 42.827h-0.381v-1.524h1.091v1.524z" fill="#cccccc" fill-rule="evenodd"/>
  <path d="m0.53594 42.827v-1.524" fill="none"/>
 </g>
 <g transform="rotate(-90 -11.192 19.831)" stroke="#000000" stroke-width=".092604">
  <path d="m0.53594 47.907h-0.381v-1.524h1.091v1.524z" fill="#cccccc" fill-rule="evenodd"/>
  <path d="m0.53594 47.907v-1.524" fill="none"/>
  <path d="m0.53594 50.447h-0.381v-1.524h1.091v1.524z" fill="#cccccc" fill-rule="evenodd"/>
  <path d="m0.53594 50.447v-1.524" fill="none"/>
 </g>
 <g transform="rotate(-90 -11.229 19.793)" stroke="#000000" stroke-width=".092604">
  <path d="m0.46094 45.367h-0.381v-1.524h1.091v1.524z" fill="#cccccc" fill-rule="evenodd"/>
  <path d="m0.46094 45.367v-1.524" fill="none"/>
 </g>
 <g transform="rotate(-90 -11.192 19.831)" stroke="#000000" stroke-width=".092604">
  <path d="m0.53594 42.827h-0.381v-1.524h1.091v1.524z" fill="#cccccc" fill-rule="evenodd"/>
  <path d="m0.53594 42.827v-1.524" fill="none"/>
 </g>
 <g transform="rotate(-90 -7.6355 23.387)" stroke="#000000" stroke-width=".092604">
  <path d="m15.268 46.383h0.38105-5e-5v1.524h5e-5 -1.091v-1.524z" fill="#cccccc" fill-rule="evenodd"/>
  <path d="m15.268 46.383v1.524" fill="none"/>
 </g>
 <g transform="rotate(-90 -7.6355 23.387)" stroke="#000000" stroke-width=".092604">
  <path d="m15.268 48.923h0.3811-1e-4v1.524h1e-4 -1.0911v-1.524z" fill="#cccccc" fill-rule="evenodd"/>
  <path d="m15.268 48.923v1.524" fill="none"/>
  <path d="m15.268 43.843h0.3811-1e-4v1.524h1e-4 -1.0911v-1.524z" fill="#cccccc" fill-rule="evenodd"/>
  <path d="m15.268 43.843v1.524" fill="none"/>
  <path d="m15.268 41.303h0.3811-1e-4v1.524h1e-4 -1.0911v-1.524z" fill="#cccccc" fill-rule="evenodd"/>
  <path d="m15.268 41.303v1.524" fill="none"/>
 </g>
 <g transform="rotate(-90 -12.716 28.467)" stroke="#000000" stroke-width=".092604">
  <path d="m15.268 46.383h0.38105-5e-5v1.524h5e-5 -1.091v-1.524z" fill="#cccccc" fill-rule="evenodd"/>
  <path d="m15.268 46.383v1.524" fill="none"/>
  <path d="m15.268 48.923h0.3811-1e-4v1.524h1e-4 -1.0911v-1.524z" fill="#cccccc" fill-rule="evenodd"/>
  <path d="m15.268 48.923v1.524" fill="none"/>
  <path d="m15.268 43.843h0.3811-1e-4v1.524h1e-4 -1.0911v-1.524z" fill="#cccccc" fill-rule="evenodd"/>
  <path d="m15.268 43.843v1.524" fill="none"/>
  <path d="m15.268 41.303h0.3811-1e-4v1.524h1e-4 -1.0911v-1.524z" fill="#cccccc" fill-rule="evenodd"/>
  <path d="m15.268 41.303v1.524" fill="none"/>
 </g>
</svg>
