<?xml version="1.0" encoding="UTF-8"?>
<svg width="130" height="48" version="1.1" viewBox="0 0 23.057 8.5046" xmlns="http://www.w3.org/2000/svg">
 <path d="m21.929 1.1863h-20.777v1e-7h-0.9665v6.2h22.71v-6.2z" fill="#333333" stroke="#000000" stroke-width=".092604"/>
 <path d="m22.971 1.1113h-1.0415" fill="none" stroke="#000000" stroke-width=".092604"/>
 <path d="m1.1525 1.1113h-1.0415" fill="none" stroke="#000000" stroke-width=".092604"/>
 <path d="m20.939 1.1113h-1.016" fill="none" stroke="#000000" stroke-width=".092604"/>
 <path d="m3.159 1.1113h-1.016" fill="none" stroke="#000000" stroke-width=".092604"/>
 <path d="m18.399 1.1113h-1.016" fill="none" stroke="#000000" stroke-width=".092604"/>
 <path d="m5.699 1.1113h-1.016" fill="none" stroke="#000000" stroke-width=".092604"/>
 <path d="m15.859 1.1113h-1.016" fill="none" stroke="#000000" stroke-width=".092604"/>
 <path d="m8.239 1.1113h-1.016" fill="none" stroke="#000000" stroke-width=".092604"/>
 <path d="m13.319 1.1113h-1.016" fill="none" stroke="#000000" stroke-width=".092604"/>
 <path d="m10.779 1.1113h-1.016" fill="none" stroke="#000000" stroke-width=".092604"/>
 <path d="m0.111 1.1113v6.35" fill="none" stroke="#000000" stroke-width=".092604"/>
 <path d="m0.111 7.4613h1.0415" fill="none" stroke="#000000" stroke-width=".092604"/>
 <path d="m21.929 7.4613h1.0415" fill="none" stroke="#000000" stroke-width=".092604"/>
 <path d="m2.143 7.4613h1.016" fill="none" stroke="#000000" stroke-width=".092604"/>
 <path d="m19.923 7.4613h1.016" fill="none" stroke="#000000" stroke-width=".092604"/>
 <path d="m4.683 7.4613h1.016" fill="none" stroke="#000000" stroke-width=".092604"/>
 <path d="m17.383 7.4613h1.016" fill="none" stroke="#000000" stroke-width=".092604"/>
 <path d="m7.223 7.4613h1.016" fill="none" stroke="#000000" stroke-width=".092604"/>
 <path d="m14.843 7.4613h1.016" fill="none" stroke="#000000" stroke-width=".092604"/>
 <path d="m9.763 7.4613h1.016" fill="none" stroke="#000000" stroke-width=".092604"/>
 <path d="m12.303 7.4613h1.016" fill="none" stroke="#000000" stroke-width=".092604"/>
 <path d="m22.971 7.4613v-6.35" fill="none" stroke="#000000" stroke-width=".092604"/>
 <path d="m22.971 1.1113-0.075 0.075" fill="none" stroke="#000000" stroke-width=".092604"/>
 <path d="m0.111 1.1113 0.075 0.075" fill="none" stroke="#000000" stroke-width=".092604"/>
 <path d="m20.939 1.1863h-1.016" fill="none" stroke="#000000" stroke-width=".092604"/>
 <path d="m3.159 1.1863h-1.016" fill="none" stroke="#000000" stroke-width=".092604"/>
 <path d="m18.399 1.1863h-1.016" fill="none" stroke="#000000" stroke-width=".092604"/>
 <path d="m5.699 1.1863h-1.016" fill="none" stroke="#000000" stroke-width=".092604"/>
 <path d="m15.859 1.1863h-1.016" fill="none" stroke="#000000" stroke-width=".092604"/>
 <path d="m8.239 1.1863h-1.016" fill="none" stroke="#000000" stroke-width=".092604"/>
 <path d="m13.319 1.1863h-1.016" fill="none" stroke="#000000" stroke-width=".092604"/>
 <path d="m10.779 1.1863h-1.016" fill="none" stroke="#000000" stroke-width=".092604"/>
 <path d="m0.111 7.4613 0.075-0.075" fill="none" stroke="#000000" stroke-width=".092604"/>
 <path d="m22.971 7.4613-0.075-0.075" fill="none" stroke="#000000" stroke-width=".092604"/>
 <path d="m2.143 7.3863h1.016" fill="none" stroke="#000000" stroke-width=".092604"/>
 <path d="m19.923 7.3863h1.016" fill="none" stroke="#000000" stroke-width=".092604"/>
 <path d="m4.683 7.3863h1.016" fill="none" stroke="#000000" stroke-width=".092604"/>
 <path d="m17.383 7.3863h1.016" fill="none" stroke="#000000" stroke-width=".092604"/>
 <path d="m7.223 7.3863h1.016" fill="none" stroke="#000000" stroke-width=".092604"/>
 <path d="m14.843 7.3863h1.016" fill="none" stroke="#000000" stroke-width=".092604"/>
 <path d="m9.763 7.3863h1.016" fill="none" stroke="#000000" stroke-width=".092604"/>
 <path d="m12.303 7.3863h1.016" fill="none" stroke="#000000" stroke-width=".092604"/>
 <path d="m0.186 1.1863 0.32372 0.32372" fill="none" stroke="#000000" stroke-width=".092604"/>
 <path d="m22.896 1.1863-0.32372 0.32372" fill="none" stroke="#000000" stroke-width=".092604"/>
 <path d="m0.186 7.3863 0.32372-0.32372" fill="none" stroke="#000000" stroke-width=".092604"/>
 <path d="m0.40344 5.0357 0.10628-0.0031" fill="none" stroke="#000000" stroke-width=".092604"/>
 <path d="m0.40344 5.0357v-1.4987" fill="none" stroke="#000000" stroke-width=".092604"/>
 <path d="m0.40344 3.537 0.10628 0.0031" fill="none" stroke="#000000" stroke-width=".092604"/>
 <path d="m0.50972 1.51v2.03c0.38324 0.03852 0.675 0.36107 0.675 0.74624h-4e-7c-3e-7 0.38517-0.29176 0.70772-0.675 0.74624l-4e-7 1e-6v2.03h22.063v-5.5526z" fill="#1a1a1a" fill-rule="evenodd" stroke="#000000" stroke-width=".092604"/>
 <path d="m22.896 7.3863-0.32372-0.32372" fill="none" stroke="#000000" stroke-width=".092604"/>
 <path d="m0.42403 5.0362a0.75 0.75 0 0 1-0.020587-5.74e-4" fill="none" stroke="#000000" stroke-width=".092604"/>
 <path d="m0.40344 3.537a0.75 0.75 0 0 1 0.020587-5.73e-4" fill="none" stroke="#000000" stroke-width=".092604"/>
 <g id="Rectangle" transform="matrix(1 0 0 -1 .20574 1.3487)" display="none">
  <rect id="origin" width="1" height="1" fill="#ff0000"/>
  <title>b'Rectangle'</title>
 </g>
 <g transform="rotate(-90 -6.1198 21.864)" stroke="#000000" stroke-width=".092604">
  <path d="m15.268 46.383h0.38105-5e-5v1.524h5e-5 -1.091v-1.524z" fill="#cccccc" fill-rule="evenodd"/>
  <path d="m15.268 46.383v1.524" fill="none"/>
  <path d="m15.268 48.923h0.3811-1e-4v1.524h1e-4 -1.0911v-1.524z" fill="#cccccc" fill-rule="evenodd"/>
  <path d="m15.268 48.923v1.524" fill="none"/>
  <path d="m15.268 43.843h0.3811-1e-4v1.524h1e-4 -1.0911v-1.524z" fill="#cccccc" fill-rule="evenodd"/>
  <path d="m15.268 43.843v1.524" fill="none"/>
  <path d="m15.268 41.303h0.3811-1e-4v1.524h1e-4 -1.0911v-1.524z" fill="#cccccc" fill-rule="evenodd"/>
  <path d="m15.268 41.303v1.524" fill="none"/>
 </g>
 <g transform="rotate(-90 -11.2 26.944)" stroke="#000000" stroke-width=".092604">
  <path d="m15.268 46.383h0.38105-5e-5v1.524h5e-5 -1.091v-1.524z" fill="#cccccc" fill-rule="evenodd"/>
  <path d="m15.268 46.383v1.524" fill="none"/>
  <path d="m15.268 48.923h0.3811-1e-4v1.524h1e-4 -1.0911v-1.524z" fill="#cccccc" fill-rule="evenodd"/>
  <path d="m15.268 48.923v1.524" fill="none"/>
  <path d="m15.268 43.843h0.3811-1e-4v1.524h1e-4 -1.0911v-1.524z" fill="#cccccc" fill-rule="evenodd"/>
  <path d="m15.268 43.843v1.524" fill="none"/>
  <path d="m15.268 41.303h0.3811-1e-4v1.524h1e-4 -1.0911v-1.524z" fill="#cccccc" fill-rule="evenodd"/>
  <path d="m15.268 41.303v1.524" fill="none"/>
 </g>
 <g transform="rotate(-90 -16.28 32.024)" stroke="#000000" stroke-width=".092604">
  <path d="m15.268 48.923h0.3811-1e-4v1.524h1e-4 -1.0911v-1.524z" fill="#cccccc" fill-rule="evenodd"/>
  <path d="m15.268 48.923v1.524" fill="none"/>
 </g>
 <g transform="rotate(-90 -16.026 24.658)" stroke="#000000" stroke-width=".092604">
  <path d="m0.53594 47.907h-0.381v-1.524h1.091v1.524z" fill="#cccccc" fill-rule="evenodd"/>
  <path d="m0.53594 47.907v-1.524" fill="none"/>
  <path d="m0.53594 50.447h-0.381v-1.524h1.091v1.524z" fill="#cccccc" fill-rule="evenodd"/>
  <path d="m0.53594 50.447v-1.524" fill="none"/>
 </g>
 <g transform="rotate(-90 -16.063 24.621)" stroke="#000000" stroke-width=".092604">
  <path d="m0.46094 45.367h-0.381v-1.524h1.091v1.524z" fill="#cccccc" fill-rule="evenodd"/>
  <path d="m0.46094 45.367v-1.524" fill="none"/>
 </g>
 <g transform="rotate(-90 -16.026 24.658)" stroke="#000000" stroke-width=".092604">
  <path d="m0.53594 42.827h-0.381v-1.524h1.091v1.524z" fill="#cccccc" fill-rule="evenodd"/>
  <path d="m0.53594 42.827v-1.524" fill="none"/>
 </g>
 <g transform="rotate(-90 -10.946 19.578)" stroke="#000000" stroke-width=".092604">
  <path d="m0.53594 47.907h-0.381v-1.524h1.091v1.524z" fill="#cccccc" fill-rule="evenodd"/>
  <path d="m0.53594 47.907v-1.524" fill="none"/>
  <path d="m0.53594 50.447h-0.381v-1.524h1.091v1.524z" fill="#cccccc" fill-rule="evenodd"/>
  <path d="m0.53594 50.447v-1.524" fill="none"/>
 </g>
 <g transform="rotate(-90 -10.983 19.541)" stroke="#000000" stroke-width=".092604">
  <path d="m0.46094 45.367h-0.381v-1.524h1.091v1.524z" fill="#cccccc" fill-rule="evenodd"/>
  <path d="m0.46094 45.367v-1.524" fill="none"/>
 </g>
 <g transform="rotate(-90 -10.946 19.578)" stroke="#000000" stroke-width=".092604">
  <path d="m0.53594 42.827h-0.381v-1.524h1.091v1.524z" fill="#cccccc" fill-rule="evenodd"/>
  <path d="m0.53594 42.827v-1.524" fill="none"/>
 </g>
 <g transform="rotate(-90 -5.8659 14.498)" stroke="#000000" stroke-width=".092604">
  <path d="m0.53594 42.827h-0.381v-1.524h1.091v1.524z" fill="#cccccc" fill-rule="evenodd"/>
  <path d="m0.53594 42.827v-1.524" fill="none"/>
 </g>
</svg>
