<?xml version="1.0" encoding="UTF-8"?>
<svg width="148" height="48" version="1.1" viewBox="0 0 26.27 8.5046" xmlns="http://www.w3.org/2000/svg">
 <path d="m26.226 7.3906v-6.2h-26.012v6.2h24.664z" fill="#333333" fill-rule="evenodd" stroke="#000000" stroke-width=".092604"/>
 <path d="m26.301 1.1156h-1.4225" fill="none" stroke="#000000" stroke-width=".092604"/>
 <path d="m1.5619 1.1156h-1.4225" fill="none" stroke="#000000" stroke-width=".092604"/>
 <path d="m23.888 1.1156h-1.016" fill="none" stroke="#000000" stroke-width=".092604"/>
 <path d="m3.5684 1.1156h-1.016" fill="none" stroke="#000000" stroke-width=".092604"/>
 <path d="m21.348 1.1156h-1.016" fill="none" stroke="#000000" stroke-width=".092604"/>
 <path d="m6.1084 1.1156h-1.016" fill="none" stroke="#000000" stroke-width=".092604"/>
 <path d="m18.808 1.1156h-1.016" fill="none" stroke="#000000" stroke-width=".092604"/>
 <path d="m8.6484 1.1156h-1.016" fill="none" stroke="#000000" stroke-width=".092604"/>
 <path d="m16.268 1.1156h-1.016" fill="none" stroke="#000000" stroke-width=".092604"/>
 <path d="m11.188 1.1156h-1.016" fill="none" stroke="#000000" stroke-width=".092604"/>
 <path d="m13.728 1.1156h-1.016" fill="none" stroke="#000000" stroke-width=".092604"/>
 <path d="m0.13939 1.1156v6.35" fill="none" stroke="#000000" stroke-width=".092604"/>
 <path d="m0.13939 7.4656h1.4225" fill="none" stroke="#000000" stroke-width=".092604"/>
 <path d="m24.879 7.4656h1.4225" fill="none" stroke="#000000" stroke-width=".092604"/>
 <path d="m2.5524 7.4656h1.016" fill="none" stroke="#000000" stroke-width=".092604"/>
 <path d="m22.872 7.4656h1.016" fill="none" stroke="#000000" stroke-width=".092604"/>
 <path d="m5.0924 7.4656h1.016" fill="none" stroke="#000000" stroke-width=".092604"/>
 <path d="m20.332 7.4656h1.016" fill="none" stroke="#000000" stroke-width=".092604"/>
 <path d="m7.6324 7.4656h1.016" fill="none" stroke="#000000" stroke-width=".092604"/>
 <path d="m17.792 7.4656h1.016" fill="none" stroke="#000000" stroke-width=".092604"/>
 <path d="m10.172 7.4656h1.016" fill="none" stroke="#000000" stroke-width=".092604"/>
 <path d="m15.252 7.4656h1.016" fill="none" stroke="#000000" stroke-width=".092604"/>
 <path d="m12.712 7.4656h1.016" fill="none" stroke="#000000" stroke-width=".092604"/>
 <path d="m26.301 7.4656v-6.35" fill="none" stroke="#000000" stroke-width=".092604"/>
 <path d="m26.301 1.1156-0.075 0.075" fill="none" stroke="#000000" stroke-width=".092604"/>
 <path d="m0.13939 1.1156 0.075 0.075" fill="none" stroke="#000000" stroke-width=".092604"/>
 <path d="m23.888 1.1906h-1.016" fill="none" stroke="#000000" stroke-width=".092604"/>
 <path d="m3.5684 1.1906h-1.016" fill="none" stroke="#000000" stroke-width=".092604"/>
 <path d="m21.348 1.1906h-1.016" fill="none" stroke="#000000" stroke-width=".092604"/>
 <path d="m6.1084 1.1906h-1.016" fill="none" stroke="#000000" stroke-width=".092604"/>
 <path d="m18.808 1.1906h-1.016" fill="none" stroke="#000000" stroke-width=".092604"/>
 <path d="m8.6484 1.1906h-1.016" fill="none" stroke="#000000" stroke-width=".092604"/>
 <path d="m16.268 1.1906h-1.016" fill="none" stroke="#000000" stroke-width=".092604"/>
 <path d="m11.188 1.1906h-1.016" fill="none" stroke="#000000" stroke-width=".092604"/>
 <path d="m13.728 1.1906h-1.016" fill="none" stroke="#000000" stroke-width=".092604"/>
 <path d="m0.13939 7.4656 0.075-0.075" fill="none" stroke="#000000" stroke-width=".092604"/>
 <path d="m26.301 7.4656-0.075-0.075" fill="none" stroke="#000000" stroke-width=".092604"/>
 <path d="m2.5524 7.3906h1.016" fill="none" stroke="#000000" stroke-width=".092604"/>
 <path d="m22.872 7.3906h1.016" fill="none" stroke="#000000" stroke-width=".092604"/>
 <path d="m5.0924 7.3906h1.016" fill="none" stroke="#000000" stroke-width=".092604"/>
 <path d="m20.332 7.3906h1.016" fill="none" stroke="#000000" stroke-width=".092604"/>
 <path d="m7.6324 7.3906h1.016" fill="none" stroke="#000000" stroke-width=".092604"/>
 <path d="m17.792 7.3906h1.016" fill="none" stroke="#000000" stroke-width=".092604"/>
 <path d="m10.172 7.3906h1.016" fill="none" stroke="#000000" stroke-width=".092604"/>
 <path d="m15.252 7.3906h1.016" fill="none" stroke="#000000" stroke-width=".092604"/>
 <path d="m12.712 7.3906h1.016" fill="none" stroke="#000000" stroke-width=".092604"/>
 <path d="m0.21439 1.1906 0.32372 0.32372" fill="none" stroke="#000000" stroke-width=".092604"/>
 <path d="m26.226 1.1906-0.32372 0.32372" fill="none" stroke="#000000" stroke-width=".092604"/>
 <path d="m0.21439 7.3906 0.32372-0.32372" fill="none" stroke="#000000" stroke-width=".092604"/>
 <path d="m0.43183 5.0399 0.10628-0.0031" fill="none" stroke="#000000" stroke-width=".092604"/>
 <path d="m0.43183 5.0399v-1.4987" fill="none" stroke="#000000" stroke-width=".092604"/>
 <path d="m0.43183 3.5412 0.10628 0.0031" fill="none" stroke="#000000" stroke-width=".092604"/>
 <path d="m0.53811 1.5143v2.03c0.38324 0.03852 0.675 0.36107 0.675 0.74624h-4e-7c-5e-7 0.38517-0.29176 0.70772-0.675 0.74624l3.6e-6 1e-6v2.03h25.365v-5.5526z" fill="#1a1a1a" fill-rule="evenodd" stroke="#000000" stroke-width=".092604"/>
 <path d="m26.226 7.3906-0.32372-0.32372" fill="none" stroke="#000000" stroke-width=".092604"/>
 <path d="m0.45242 5.0405a0.75 0.75 0 0 1-0.020582-5.74e-4" fill="none" stroke="#000000" stroke-width=".092604"/>
 <path d="m0.43183 3.5412a0.75 0.75 0 0 1 0.020585-5.73e-4" fill="none" stroke="#000000" stroke-width=".092604"/>
 <g id="Rectangle" transform="matrix(1 0 0 -1 .20574 1.7297)" display="none" stroke-width=".092604">
  <rect id="origin" width="1" height="1" fill="#ff0000" stroke-width=".092604"/>
  <title>b'Rectangle'</title>
 </g>
 <g transform="rotate(-90 -8.199 16.836)" stroke="#000000" stroke-width=".092604">
  <path d="m0.53594 47.907h-0.381v-1.524h1.091v1.524z" fill="#cccccc" fill-rule="evenodd"/>
  <path d="m0.53594 47.907v-1.524" fill="none"/>
  <path d="m0.53594 50.447h-0.381v-1.524h1.091v1.524z" fill="#cccccc" fill-rule="evenodd"/>
  <path d="m0.53594 50.447v-1.524" fill="none"/>
 </g>
 <g transform="rotate(-90 -8.2365 16.798)" stroke="#000000" stroke-width=".092604">
  <path d="m0.46094 45.367h-0.381v-1.524h1.091v1.524z" fill="#cccccc" fill-rule="evenodd"/>
  <path d="m0.46094 45.367v-1.524" fill="none"/>
 </g>
 <g transform="rotate(-90 -8.199 16.836)" stroke="#000000" stroke-width=".092604">
  <path d="m0.53594 42.827h-0.381v-1.524h1.091v1.524z" fill="#cccccc" fill-rule="evenodd"/>
  <path d="m0.53594 42.827v-1.524" fill="none"/>
 </g>
 <g transform="rotate(-90 -13.279 21.916)" stroke="#000000" stroke-width=".092604">
  <path d="m0.53594 47.907h-0.381v-1.524h1.091v1.524z" fill="#cccccc" fill-rule="evenodd"/>
  <path d="m0.53594 47.907v-1.524" fill="none"/>
  <path d="m0.53594 50.447h-0.381v-1.524h1.091v1.524z" fill="#cccccc" fill-rule="evenodd"/>
  <path d="m0.53594 50.447v-1.524" fill="none"/>
 </g>
 <g transform="rotate(-90 -13.317 21.878)" stroke="#000000" stroke-width=".092604">
  <path d="m0.46094 45.367h-0.381v-1.524h1.091v1.524z" fill="#cccccc" fill-rule="evenodd"/>
  <path d="m0.46094 45.367v-1.524" fill="none"/>
 </g>
 <g transform="rotate(-90 -13.279 21.916)" stroke="#000000" stroke-width=".092604">
  <path d="m0.53594 42.827h-0.381v-1.524h1.091v1.524z" fill="#cccccc" fill-rule="evenodd"/>
  <path d="m0.53594 42.827v-1.524" fill="none"/>
 </g>
 <g transform="rotate(-90 -18.359 26.996)" stroke="#000000" stroke-width=".092604">
  <path d="m0.53594 47.907h-0.381v-1.524h1.091v1.524z" fill="#cccccc" fill-rule="evenodd"/>
  <path d="m0.53594 47.907v-1.524" fill="none"/>
  <path d="m0.53594 50.447h-0.381v-1.524h1.091v1.524z" fill="#cccccc" fill-rule="evenodd"/>
  <path d="m0.53594 50.447v-1.524" fill="none"/>
 </g>
 <g transform="rotate(-90 -12.263 28.012)" stroke="#000000" stroke-width=".092604">
  <path d="m15.268 46.383h0.38105-5e-5v1.524h5e-5 -1.091v-1.524z" fill="#cccccc" fill-rule="evenodd"/>
  <path d="m15.268 46.383v1.524" fill="none"/>
  <path d="m15.268 48.923h0.3811-1e-4v1.524h1e-4 -1.0911v-1.524z" fill="#cccccc" fill-rule="evenodd"/>
  <path d="m15.268 48.923v1.524" fill="none"/>
  <path d="m15.268 43.843h0.3811-1e-4v1.524h1e-4 -1.0911v-1.524z" fill="#cccccc" fill-rule="evenodd"/>
  <path d="m15.268 43.843v1.524" fill="none"/>
  <path d="m15.268 41.303h0.3811-1e-4v1.524h1e-4 -1.0911v-1.524z" fill="#cccccc" fill-rule="evenodd"/>
  <path d="m15.268 41.303v1.524" fill="none"/>
 </g>
 <g transform="rotate(-90 -7.183 22.932)" stroke="#000000" stroke-width=".092604">
  <path d="m15.268 46.383h0.38105-5e-5v1.524h5e-5 -1.091v-1.524z" fill="#cccccc" fill-rule="evenodd"/>
  <path d="m15.268 46.383v1.524" fill="none"/>
  <path d="m15.268 48.923h0.3811-1e-4v1.524h1e-4 -1.0911v-1.524z" fill="#cccccc" fill-rule="evenodd"/>
  <path d="m15.268 48.923v1.524" fill="none"/>
  <path d="m15.268 43.843h0.3811-1e-4v1.524h1e-4 -1.0911v-1.524z" fill="#cccccc" fill-rule="evenodd"/>
  <path d="m15.268 43.843v1.524" fill="none"/>
  <path d="m15.268 41.303h0.3811-1e-4v1.524h1e-4 -1.0911v-1.524z" fill="#cccccc" fill-rule="evenodd"/>
  <path d="m15.268 41.303v1.524" fill="none"/>
 </g>
 <g transform="rotate(-90 -2.103 17.852)" stroke="#000000" stroke-width=".092604">
  <path d="m15.268 43.843h0.3811-1e-4v1.524h1e-4 -1.0911v-1.524z" fill="#cccccc" fill-rule="evenodd"/>
  <path d="m15.268 43.843v1.524" fill="none"/>
  <path d="m15.268 41.303h0.3811-1e-4v1.524h1e-4 -1.0911v-1.524z" fill="#cccccc" fill-rule="evenodd"/>
  <path d="m15.268 41.303v1.524" fill="none"/>
 </g>
</svg>
