<?xml version="1.0" encoding="UTF-8"?>
<svg width="202" height="48" version="1.1" viewBox="0 0 35.718 8.5044" xmlns="http://www.w3.org/2000/svg">
 <path d="m35.574 1.1794h-35.41v6.2h35.41z" fill="#333333" fill-rule="evenodd" stroke="#000000" stroke-width=".092604"/>
 <path d="m35.649 1.1044h-1.0415" fill="none" stroke="#000000" stroke-width=".092604"/>
 <path d="m1.1302 1.1044h-1.0415" fill="none" stroke="#000000" stroke-width=".092604"/>
 <path d="m33.617 1.1044h-1.016" fill="none" stroke="#000000" stroke-width=".092604"/>
 <path d="m3.1367 1.1044h-1.016" fill="none" stroke="#000000" stroke-width=".092604"/>
 <path d="m31.077 1.1044h-1.016" fill="none" stroke="#000000" stroke-width=".092604"/>
 <path d="m5.6767 1.1044h-1.016" fill="none" stroke="#000000" stroke-width=".092604"/>
 <path d="m28.537 1.1044h-1.016" fill="none" stroke="#000000" stroke-width=".092604"/>
 <path d="m8.2167 1.1044h-1.016" fill="none" stroke="#000000" stroke-width=".092604"/>
 <path d="m25.997 1.1044h-1.016" fill="none" stroke="#000000" stroke-width=".092604"/>
 <path d="m10.757 1.1044h-1.016" fill="none" stroke="#000000" stroke-width=".092604"/>
 <path d="m23.457 1.1044h-1.016" fill="none" stroke="#000000" stroke-width=".092604"/>
 <path d="m13.297 1.1044h-1.016" fill="none" stroke="#000000" stroke-width=".092604"/>
 <path d="m20.917 1.1044h-1.016" fill="none" stroke="#000000" stroke-width=".092604"/>
 <path d="m15.837 1.1044h-1.016" fill="none" stroke="#000000" stroke-width=".092604"/>
 <path d="m18.377 1.1044h-1.016" fill="none" stroke="#000000" stroke-width=".092604"/>
 <path d="m0.088698 1.1044v6.35" fill="none" stroke="#000000" stroke-width=".092604"/>
 <path d="m0.088698 7.4544h1.0415" fill="none" stroke="#000000" stroke-width=".092604"/>
 <path d="m34.607 7.4544h1.0415" fill="none" stroke="#000000" stroke-width=".092604"/>
 <path d="m2.1207 7.4544h1.016" fill="none" stroke="#000000" stroke-width=".092604"/>
 <path d="m32.601 7.4544h1.016" fill="none" stroke="#000000" stroke-width=".092604"/>
 <path d="m4.6607 7.4544h1.016" fill="none" stroke="#000000" stroke-width=".092604"/>
 <path d="m30.061 7.4544h1.016" fill="none" stroke="#000000" stroke-width=".092604"/>
 <path d="m7.2007 7.4544h1.016" fill="none" stroke="#000000" stroke-width=".092604"/>
 <path d="m27.521 7.4544h1.016" fill="none" stroke="#000000" stroke-width=".092604"/>
 <path d="m9.7407 7.4544h1.016" fill="none" stroke="#000000" stroke-width=".092604"/>
 <path d="m24.981 7.4544h1.016" fill="none" stroke="#000000" stroke-width=".092604"/>
 <path d="m12.281 7.4544h1.016" fill="none" stroke="#000000" stroke-width=".092604"/>
 <path d="m22.441 7.4544h1.016" fill="none" stroke="#000000" stroke-width=".092604"/>
 <path d="m14.821 7.4544h1.016" fill="none" stroke="#000000" stroke-width=".092604"/>
 <path d="m19.901 7.4544h1.016" fill="none" stroke="#000000" stroke-width=".092604"/>
 <path d="m17.361 7.4544h1.016" fill="none" stroke="#000000" stroke-width=".092604"/>
 <path d="m35.649 7.4544v-6.35" fill="none" stroke="#000000" stroke-width=".092604"/>
 <path d="m35.649 1.1044-0.075 0.075" fill="none" stroke="#000000" stroke-width=".092604"/>
 <path d="m0.088698 1.1044 0.075 0.075" fill="none" stroke="#000000" stroke-width=".092604"/>
 <path d="m33.617 1.1794h-1.016" fill="none" stroke="#000000" stroke-width=".092604"/>
 <path d="m3.1367 1.1794h-1.016" fill="none" stroke="#000000" stroke-width=".092604"/>
 <path d="m31.077 1.1794h-1.016" fill="none" stroke="#000000" stroke-width=".092604"/>
 <path d="m5.6767 1.1794h-1.016" fill="none" stroke="#000000" stroke-width=".092604"/>
 <path d="m28.537 1.1794h-1.016" fill="none" stroke="#000000" stroke-width=".092604"/>
 <path d="m8.2167 1.1794h-1.016" fill="none" stroke="#000000" stroke-width=".092604"/>
 <path d="m25.997 1.1794h-1.016" fill="none" stroke="#000000" stroke-width=".092604"/>
 <path d="m10.757 1.1794h-1.016" fill="none" stroke="#000000" stroke-width=".092604"/>
 <path d="m23.457 1.1794h-1.016" fill="none" stroke="#000000" stroke-width=".092604"/>
 <path d="m13.297 1.1794h-1.016" fill="none" stroke="#000000" stroke-width=".092604"/>
 <path d="m20.917 1.1794h-1.016" fill="none" stroke="#000000" stroke-width=".092604"/>
 <path d="m15.837 1.1794h-1.016" fill="none" stroke="#000000" stroke-width=".092604"/>
 <path d="m18.377 1.1794h-1.016" fill="none" stroke="#000000" stroke-width=".092604"/>
 <path d="m0.088698 7.4544 0.075-0.075" fill="none" stroke="#000000" stroke-width=".092604"/>
 <path d="m35.649 7.4544-0.075-0.075" fill="none" stroke="#000000" stroke-width=".092604"/>
 <path d="m2.1207 7.3794h1.016" fill="none" stroke="#000000" stroke-width=".092604"/>
 <path d="m32.601 7.3794h1.016" fill="none" stroke="#000000" stroke-width=".092604"/>
 <path d="m4.6607 7.3794h1.016" fill="none" stroke="#000000" stroke-width=".092604"/>
 <path d="m30.061 7.3794h1.016" fill="none" stroke="#000000" stroke-width=".092604"/>
 <path d="m7.2007 7.3794h1.016" fill="none" stroke="#000000" stroke-width=".092604"/>
 <path d="m27.521 7.3794h1.016" fill="none" stroke="#000000" stroke-width=".092604"/>
 <path d="m9.7407 7.3794h1.016" fill="none" stroke="#000000" stroke-width=".092604"/>
 <path d="m24.981 7.3794h1.016" fill="none" stroke="#000000" stroke-width=".092604"/>
 <path d="m12.281 7.3794h1.016" fill="none" stroke="#000000" stroke-width=".092604"/>
 <path d="m22.441 7.3794h1.016" fill="none" stroke="#000000" stroke-width=".092604"/>
 <path d="m14.821 7.3794h1.016" fill="none" stroke="#000000" stroke-width=".092604"/>
 <path d="m19.901 7.3794h1.016" fill="none" stroke="#000000" stroke-width=".092604"/>
 <path d="m17.361 7.3794h1.016" fill="none" stroke="#000000" stroke-width=".092604"/>
 <path d="m0.1637 1.1794 0.32372 0.32372" fill="none" stroke="#000000" stroke-width=".092604"/>
 <path d="m35.574 1.1794-0.32372 0.32372" fill="none" stroke="#000000" stroke-width=".092604"/>
 <path d="m0.1637 7.3794 0.32372-0.32372" fill="none" stroke="#000000" stroke-width=".092604"/>
 <path d="m0.38114 5.0288 0.10628-0.0031" fill="none" stroke="#000000" stroke-width=".092604"/>
 <path d="m0.38114 5.0288v-1.4987" fill="none" stroke="#000000" stroke-width=".092604"/>
 <path d="m0.38114 3.5301 0.10628 0.0031" fill="none" stroke="#000000" stroke-width=".092604"/>
 <path d="m0.48742 1.5031v2.03c0.38324 0.03852 0.675 0.36107 0.675 0.74624-1e-6 0.38517-0.29176 0.70772-0.675 0.74624v2.03h34.763v-5.5526z" fill="#1a1a1a" fill-rule="evenodd" stroke="#000000" stroke-width=".092604"/>
 <path d="m35.574 7.3794-0.32372-0.32372" fill="none" stroke="#000000" stroke-width=".092604"/>
 <path d="m0.40173 5.0293a0.75 0.75 0 0 1-0.02059-5.74e-4" fill="none" stroke="#000000" stroke-width=".092604"/>
 <path d="m0.38114 3.5301a0.75 0.75 0 0 1 0.02059-5.72e-4" fill="none" stroke="#000000" stroke-width=".092604"/>
 <g id="Rectangle" transform="matrix(1 0 0 -1 .20574 1.3487)" display="none">
  <rect id="origin" width="1" height="1" fill="#ff0000"/>
  <title>b'Rectangle'</title>
 </g>
 <g transform="rotate(-90 .21558 15.522)" stroke="#000000" stroke-width=".092604">
  <path d="m15.268 46.383h0.38105-5e-5v1.524h5e-5 -1.091v-1.524z" fill="#cccccc" fill-rule="evenodd"/>
  <path d="m15.268 46.383v1.524" fill="none"/>
 </g>
 <g transform="rotate(-90 .21555 15.522)" stroke="#000000" stroke-width=".092604">
  <path d="m15.268 48.923h0.3811-1e-4v1.524h1e-4 -1.0911v-1.524z" fill="#cccccc" fill-rule="evenodd"/>
  <path d="m15.268 48.923v1.524" fill="none"/>
  <path d="m15.268 43.843h0.3811-1e-4v1.524h1e-4 -1.0911v-1.524z" fill="#cccccc" fill-rule="evenodd"/>
  <path d="m15.268 43.843v1.524" fill="none"/>
  <path d="m15.268 41.303h0.3811-1e-4v1.524h1e-4 -1.0911v-1.524z" fill="#cccccc" fill-rule="evenodd"/>
  <path d="m15.268 41.303v1.524" fill="none"/>
 </g>
 <g transform="rotate(-90 -4.8644 20.602)" stroke="#000000" stroke-width=".092604">
  <path d="m15.268 46.383h0.38105-5e-5v1.524h5e-5 -1.091v-1.524z" fill="#cccccc" fill-rule="evenodd"/>
  <path d="m15.268 46.383v1.524" fill="none"/>
 </g>
 <g transform="rotate(-90 -4.8644 20.602)" stroke="#000000" stroke-width=".092604">
  <path d="m15.268 48.923h0.3811-1e-4v1.524h1e-4 -1.0911v-1.524z" fill="#cccccc" fill-rule="evenodd"/>
  <path d="m15.268 48.923v1.524" fill="none"/>
  <path d="m15.268 43.843h0.3811-1e-4v1.524h1e-4 -1.0911v-1.524z" fill="#cccccc" fill-rule="evenodd"/>
  <path d="m15.268 43.843v1.524" fill="none"/>
  <path d="m15.268 41.303h0.3811-1e-4v1.524h1e-4 -1.0911v-1.524z" fill="#cccccc" fill-rule="evenodd"/>
  <path d="m15.268 41.303v1.524" fill="none"/>
 </g>
 <g transform="rotate(-90 -9.9444 25.682)" stroke="#000000" stroke-width=".092604">
  <path d="m15.268 46.383h0.38105-5e-5v1.524h5e-5 -1.091v-1.524z" fill="#cccccc" fill-rule="evenodd"/>
  <path d="m15.268 46.383v1.524" fill="none"/>
 </g>
 <g transform="rotate(-90 -9.9444 25.682)" stroke="#000000" stroke-width=".092604">
  <path d="m15.268 48.923h0.3811-1e-4v1.524h1e-4 -1.0911v-1.524z" fill="#cccccc" fill-rule="evenodd"/>
  <path d="m15.268 48.923v1.524" fill="none"/>
  <path d="m15.268 43.843h0.3811-1e-4v1.524h1e-4 -1.0911v-1.524z" fill="#cccccc" fill-rule="evenodd"/>
  <path d="m15.268 43.843v1.524" fill="none"/>
  <path d="m15.268 41.303h0.3811-1e-4v1.524h1e-4 -1.0911v-1.524z" fill="#cccccc" fill-rule="evenodd"/>
  <path d="m15.268 41.303v1.524" fill="none"/>
 </g>
 <g transform="rotate(-90 -15.024 30.762)" stroke="#000000" stroke-width=".092604">
  <path d="m15.268 46.383h0.38105-5e-5v1.524h5e-5 -1.091v-1.524z" fill="#cccccc" fill-rule="evenodd"/>
  <path d="m15.268 46.383v1.524" fill="none"/>
 </g>
 <g transform="rotate(-90 -15.024 30.762)" stroke="#000000" stroke-width=".092604">
  <path d="m15.268 48.923h0.3811-1e-4v1.524h1e-4 -1.0911v-1.524z" fill="#cccccc" fill-rule="evenodd"/>
  <path d="m15.268 48.923v1.524" fill="none"/>
 </g>
 <g transform="rotate(-90 -16.04 24.666)" stroke="#000000" stroke-width=".092604">
  <path d="m0.53594 47.907h-0.381v-1.524h1.091v1.524z" fill="#cccccc" fill-rule="evenodd"/>
  <path d="m0.53594 47.907v-1.524" fill="none"/>
  <path d="m0.53594 50.447h-0.381v-1.524h1.091v1.524z" fill="#cccccc" fill-rule="evenodd"/>
  <path d="m0.53594 50.447v-1.524" fill="none"/>
 </g>
 <g transform="rotate(-90 -16.078 24.628)" stroke="#000000" stroke-width=".092604">
  <path d="m0.46094 45.367h-0.381v-1.524h1.091v1.524z" fill="#cccccc" fill-rule="evenodd"/>
  <path d="m0.46094 45.367v-1.524" fill="none"/>
 </g>
 <g transform="rotate(-90 -16.04 24.666)" stroke="#000000" stroke-width=".092604">
  <path d="m0.53594 42.827h-0.381v-1.524h1.091v1.524z" fill="#cccccc" fill-rule="evenodd"/>
  <path d="m0.53594 42.827v-1.524" fill="none"/>
 </g>
 <g transform="rotate(-90 -10.96 19.586)" stroke="#000000" stroke-width=".092604">
  <path d="m0.53594 47.907h-0.381v-1.524h1.091v1.524z" fill="#cccccc" fill-rule="evenodd"/>
  <path d="m0.53594 47.907v-1.524" fill="none"/>
  <path d="m0.53594 50.447h-0.381v-1.524h1.091v1.524z" fill="#cccccc" fill-rule="evenodd"/>
  <path d="m0.53594 50.447v-1.524" fill="none"/>
 </g>
 <g transform="rotate(-90 -10.998 19.548)" stroke="#000000" stroke-width=".092604">
  <path d="m0.46094 45.367h-0.381v-1.524h1.091v1.524z" fill="#cccccc" fill-rule="evenodd"/>
  <path d="m0.46094 45.367v-1.524" fill="none"/>
 </g>
 <g transform="rotate(-90 -10.96 19.586)" stroke="#000000" stroke-width=".092604">
  <path d="m0.53594 42.827h-0.381v-1.524h1.091v1.524z" fill="#cccccc" fill-rule="evenodd"/>
  <path d="m0.53594 42.827v-1.524" fill="none"/>
 </g>
 <g transform="rotate(-90 -5.8805 14.506)" stroke="#000000" stroke-width=".092604">
  <path d="m0.53594 47.907h-0.381v-1.524h1.091v1.524z" fill="#cccccc" fill-rule="evenodd"/>
  <path d="m0.53594 47.907v-1.524" fill="none"/>
  <path d="m0.53594 50.447h-0.381v-1.524h1.091v1.524z" fill="#cccccc" fill-rule="evenodd"/>
  <path d="m0.53594 50.447v-1.524" fill="none"/>
 </g>
 <g transform="rotate(-90 -5.918 14.468)" stroke="#000000" stroke-width=".092604">
  <path d="m0.46094 45.367h-0.381v-1.524h1.091v1.524z" fill="#cccccc" fill-rule="evenodd"/>
  <path d="m0.46094 45.367v-1.524" fill="none"/>
 </g>
 <g transform="rotate(-90 -5.8805 14.506)" stroke="#000000" stroke-width=".092604">
  <path d="m0.53594 42.827h-0.381v-1.524h1.091v1.524z" fill="#cccccc" fill-rule="evenodd"/>
  <path d="m0.53594 42.827v-1.524" fill="none"/>
 </g>
 <g transform="rotate(-90 -.83798 9.3883)" stroke="#000000" stroke-width=".092604">
  <path d="m0.46094 45.367h-0.381v-1.524h1.091v1.524z" fill="#cccccc" fill-rule="evenodd"/>
  <path d="m0.46094 45.367v-1.524" fill="none"/>
 </g>
 <g transform="rotate(-90 -.80048 9.4258)" stroke="#000000" stroke-width=".092604">
  <path d="m0.53594 42.827h-0.381v-1.524h1.091v1.524z" fill="#cccccc" fill-rule="evenodd"/>
  <path d="m0.53594 42.827v-1.524" fill="none"/>
 </g>
</svg>
