<?xml version="1.0" encoding="UTF-8"?>
<svg width="288" height="88" version="1.1" viewBox="0 0 51.027 15.686" xmlns="http://www.w3.org/2000/svg">
 <path d="m0.095889 14.554v-13.462h50.8v13.462z" fill="#333333" opacity=".991" stroke-width=".092604"/>
 <path d="m50.896 1.0917h-0.58341" fill="none" stroke="#000000" stroke-width=".092604"/>
 <path d="m1.1373 1.0917h-1.0415" fill="none" stroke="#000000" stroke-width=".092604"/>
 <path d="m48.864 1.0917h-1.016" fill="none" stroke="#000000" stroke-width=".092604"/>
 <path d="m3.1438 1.0917h-1.016" fill="none" stroke="#000000" stroke-width=".092604"/>
 <path d="m46.324 1.0917h-1.016" fill="none" stroke="#000000" stroke-width=".092604"/>
 <path d="m5.6838 1.0917h-1.016" fill="none" stroke="#000000" stroke-width=".092604"/>
 <path d="m43.784 1.0917h-1.016" fill="none" stroke="#000000" stroke-width=".092604"/>
 <path d="m8.2238 1.0917h-1.016" fill="none" stroke="#000000" stroke-width=".092604"/>
 <path d="m41.244 1.0917h-1.016" fill="none" stroke="#000000" stroke-width=".092604"/>
 <path d="m10.764 1.0917h-1.016" fill="none" stroke="#000000" stroke-width=".092604"/>
 <path d="m38.704 1.0917h-1.016" fill="none" stroke="#000000" stroke-width=".092604"/>
 <path d="m13.304 1.0917h-1.016" fill="none" stroke="#000000" stroke-width=".092604"/>
 <path d="m36.164 1.0917h-1.016" fill="none" stroke="#000000" stroke-width=".092604"/>
 <path d="m15.844 1.0917h-1.016" fill="none" stroke="#000000" stroke-width=".092604"/>
 <path d="m33.624 1.0917h-1.016" fill="none" stroke="#000000" stroke-width=".092604"/>
 <path d="m18.384 1.0917h-1.016" fill="none" stroke="#000000" stroke-width=".092604"/>
 <path d="m31.084 1.0917h-1.016" fill="none" stroke="#000000" stroke-width=".092604"/>
 <path d="m20.924 1.0917h-1.016" fill="none" stroke="#000000" stroke-width=".092604"/>
 <path d="m28.544 1.0917h-1.016" fill="none" stroke="#000000" stroke-width=".092604"/>
 <path d="m23.464 1.0917h-1.016" fill="none" stroke="#000000" stroke-width=".092604"/>
 <path d="m26.004 1.0917h-1.016" fill="none" stroke="#000000" stroke-width=".092604"/>
 <path d="m0.095889 1.0917v13.462" fill="none" stroke="#000000" stroke-width=".092604"/>
 <path d="m0.095889 14.554h1.0415" fill="none" stroke="#000000" stroke-width=".092604"/>
 <path d="m50.321 14.554h0.57508" fill="none" stroke="#000000" stroke-width=".092604"/>
 <path d="m2.1278 14.554h1.016" fill="none" stroke="#000000" stroke-width=".092604"/>
 <path d="m47.848 14.554h1.016" fill="none" stroke="#000000" stroke-width=".092604"/>
 <path d="m4.6678 14.554h1.016" fill="none" stroke="#000000" stroke-width=".092604"/>
 <path d="m45.308 14.554h1.016" fill="none" stroke="#000000" stroke-width=".092604"/>
 <path d="m7.2078 14.554h1.016" fill="none" stroke="#000000" stroke-width=".092604"/>
 <path d="m42.768 14.554h1.016" fill="none" stroke="#000000" stroke-width=".092604"/>
 <path d="m9.7478 14.554h1.016" fill="none" stroke="#000000" stroke-width=".092604"/>
 <path d="m40.228 14.554h1.016" fill="none" stroke="#000000" stroke-width=".092604"/>
 <path d="m12.288 14.554h1.016" fill="none" stroke="#000000" stroke-width=".092604"/>
 <path d="m37.688 14.554h1.016" fill="none" stroke="#000000" stroke-width=".092604"/>
 <path d="m14.828 14.554h1.016" fill="none" stroke="#000000" stroke-width=".092604"/>
 <path d="m35.148 14.554h1.016" fill="none" stroke="#000000" stroke-width=".092604"/>
 <path d="m17.368 14.554h1.016" fill="none" stroke="#000000" stroke-width=".092604"/>
 <path d="m32.608 14.554h1.016" fill="none" stroke="#000000" stroke-width=".092604"/>
 <path d="m19.908 14.554h1.016" fill="none" stroke="#000000" stroke-width=".092604"/>
 <path d="m30.068 14.554h1.016" fill="none" stroke="#000000" stroke-width=".092604"/>
 <path d="m22.448 14.554h1.016" fill="none" stroke="#000000" stroke-width=".092604"/>
 <path d="m27.528 14.554h1.016" fill="none" stroke="#000000" stroke-width=".092604"/>
 <path d="m24.988 14.554h1.016" fill="none" stroke="#000000" stroke-width=".092604"/>
 <path d="m50.896 14.554v-13.462" fill="none" stroke="#000000" stroke-width=".092604"/>
 <path d="m50.896 1.0917-0.075 0.075" fill="none" stroke="#000000" stroke-width=".092604"/>
 <path d="m50.821 1.1667h-0.9665" fill="none" stroke="#000000" stroke-width=".092604"/>
 <path d="m0.095889 1.0917 0.075 0.075" fill="none" stroke="#000000" stroke-width=".092604"/>
 <path d="m1.1373 1.1667h-0.9665" fill="none" stroke="#000000" stroke-width=".092604"/>
 <path d="m48.864 1.1667h-1.016" fill="none" stroke="#000000" stroke-width=".092604"/>
 <path d="m3.1438 1.1667h-1.016" fill="none" stroke="#000000" stroke-width=".092604"/>
 <path d="m46.324 1.1667h-1.016" fill="none" stroke="#000000" stroke-width=".092604"/>
 <path d="m5.6838 1.1667h-1.016" fill="none" stroke="#000000" stroke-width=".092604"/>
 <path d="m43.784 1.1667h-1.016" fill="none" stroke="#000000" stroke-width=".092604"/>
 <path d="m8.2238 1.1667h-1.016" fill="none" stroke="#000000" stroke-width=".092604"/>
 <path d="m41.244 1.1667h-1.016" fill="none" stroke="#000000" stroke-width=".092604"/>
 <path d="m10.764 1.1667h-1.016" fill="none" stroke="#000000" stroke-width=".092604"/>
 <path d="m38.704 1.1667h-1.016" fill="none" stroke="#000000" stroke-width=".092604"/>
 <path d="m13.304 1.1667h-1.016" fill="none" stroke="#000000" stroke-width=".092604"/>
 <path d="m36.164 1.1667h-1.016" fill="none" stroke="#000000" stroke-width=".092604"/>
 <path d="m15.844 1.1667h-1.016" fill="none" stroke="#000000" stroke-width=".092604"/>
 <path d="m33.624 1.1667h-1.016" fill="none" stroke="#000000" stroke-width=".092604"/>
 <path d="m18.384 1.1667h-1.016" fill="none" stroke="#000000" stroke-width=".092604"/>
 <path d="m31.084 1.1667h-1.016" fill="none" stroke="#000000" stroke-width=".092604"/>
 <path d="m20.924 1.1667h-1.016" fill="none" stroke="#000000" stroke-width=".092604"/>
 <path d="m28.544 1.1667h-1.016" fill="none" stroke="#000000" stroke-width=".092604"/>
 <path d="m23.464 1.1667h-1.016" fill="none" stroke="#000000" stroke-width=".092604"/>
 <path d="m26.004 1.1667h-1.016" fill="none" stroke="#000000" stroke-width=".092604"/>
 <path d="m0.095889 14.554 0.075-0.075" fill="none" stroke="#000000" stroke-width=".092604"/>
 <path d="m0.17089 1.1667v13.312" fill="none" stroke="#000000" stroke-width=".092604"/>
 <path d="m0.17089 14.479h0.9665" fill="none" stroke="#000000" stroke-width=".092604"/>
 <path d="m50.896 14.554-0.075-0.075" fill="none" stroke="#000000" stroke-width=".092604"/>
 <path d="m50.32 14.479h0.50097" fill="none" stroke="#000000" stroke-width=".092604"/>
 <path d="m2.1278 14.479h1.016" fill="none" stroke="#000000" stroke-width=".092604"/>
 <path d="m47.848 14.479h1.016" fill="none" stroke="#000000" stroke-width=".092604"/>
 <path d="m4.6678 14.479h1.016" fill="none" stroke="#000000" stroke-width=".092604"/>
 <path d="m45.308 14.479h1.016" fill="none" stroke="#000000" stroke-width=".092604"/>
 <path d="m7.2078 14.479h1.016" fill="none" stroke="#000000" stroke-width=".092604"/>
 <path d="m42.768 14.479h1.016" fill="none" stroke="#000000" stroke-width=".092604"/>
 <path d="m9.7478 14.479h1.016" fill="none" stroke="#000000" stroke-width=".092604"/>
 <path d="m40.228 14.479h1.016" fill="none" stroke="#000000" stroke-width=".092604"/>
 <path d="m12.288 14.479h1.016" fill="none" stroke="#000000" stroke-width=".092604"/>
 <path d="m37.688 14.479h1.016" fill="none" stroke="#000000" stroke-width=".092604"/>
 <path d="m14.828 14.479h1.016" fill="none" stroke="#000000" stroke-width=".092604"/>
 <path d="m35.148 14.479h1.016" fill="none" stroke="#000000" stroke-width=".092604"/>
 <path d="m17.368 14.479h1.016" fill="none" stroke="#000000" stroke-width=".092604"/>
 <path d="m32.608 14.479h1.016" fill="none" stroke="#000000" stroke-width=".092604"/>
 <path d="m19.908 14.479h1.016" fill="none" stroke="#000000" stroke-width=".092604"/>
 <path d="m30.068 14.479h1.016" fill="none" stroke="#000000" stroke-width=".092604"/>
 <path d="m22.448 14.479h1.016" fill="none" stroke="#000000" stroke-width=".092604"/>
 <path d="m27.528 14.479h1.016" fill="none" stroke="#000000" stroke-width=".092604"/>
 <path d="m24.988 14.479h1.016" fill="none" stroke="#000000" stroke-width=".092604"/>
 <path d="m50.821 14.479v-13.312" fill="none" stroke="#000000" stroke-width=".092604"/>
 <path d="m49.854 1.1667h-0.9905" fill="none" stroke="#000000" stroke-width=".092604"/>
 <path d="m0.17089 1.1667 0.32372 0.32372" fill="none" stroke="#000000" stroke-width=".092604"/>
 <path d="m50.821 1.1667-0.32372 0.32372" fill="none" stroke="#000000" stroke-width=".092604"/>
 <path d="m0.17089 14.479 0.32372-0.32372" fill="none" stroke="#000000" stroke-width=".092604"/>
 <path d="m0.38834 8.5721 0.10628-0.0031" fill="none" stroke="#000000" stroke-width=".092604"/>
 <path d="m0.38834 8.5721v-1.4987" fill="none" stroke="#000000" stroke-width=".092604"/>
 <path d="m0.38834 7.0734 0.10628 0.0031" fill="none" stroke="#000000" stroke-width=".092604"/>
 <path d="m50.821 14.479-0.32372-0.32372" fill="none" stroke="#000000" stroke-width=".092604"/>
 <path d="m0.49461 8.569v5.586h50.003v-12.665h-50.003v5.586c0.38324 0.03852 0.675 0.36107 0.675 0.74624-1e-6 0.38517-0.29176 0.70772-0.675 0.74624z" fill="#1a1a1a" fill-rule="evenodd" stroke="#000000" stroke-width=".092604"/>
 <path d="m0.40894 8.5727a0.75 0.75 0 0 1-0.0206-5.74e-4" fill="none" stroke="#000000" stroke-width=".092604"/>
 <path d="m0.38834 7.0734a0.75 0.75 0 0 1 0.0206-5.73e-4" fill="none" stroke="#000000" stroke-width=".092604"/>
 <g transform="rotate(-90 7.8328 7.8919)" stroke="#000000" stroke-width=".092604">
  <path d="m15.268 46.383h0.38105-5e-5v1.524h5e-5 -1.091v-1.524z" fill="#cccccc" fill-rule="evenodd"/>
  <path d="m15.268 46.383v1.524" fill="none"/>
  <path d="m0.53594 47.907h-0.381v-1.524h1.091v1.524z" fill="#cccccc" fill-rule="evenodd"/>
  <path d="m0.53594 47.907v-1.524" fill="none"/>
 </g>
 <path d="m1.1373 1.1667v-0.075" fill="none" stroke="#000000" stroke-width=".092604"/>
 <path d="m48.864 1.1667v-0.075" fill="none" stroke="#000000" stroke-width=".092604"/>
 <path d="m3.1438 1.1667v-0.075" fill="none" stroke="#000000" stroke-width=".092604"/>
 <path d="m2.1278 1.0917v0.075" fill="none" stroke="#000000" stroke-width=".092604"/>
 <path d="m45.308 1.0917v0.075" fill="none" stroke="#000000" stroke-width=".092604"/>
 <path d="m5.6838 1.1667v-0.075" fill="none" stroke="#000000" stroke-width=".092604"/>
 <path d="m4.6678 1.0917v0.075" fill="none" stroke="#000000" stroke-width=".092604"/>
 <path d="m43.784 1.1667v-0.075" fill="none" stroke="#000000" stroke-width=".092604"/>
 <path d="m42.768 1.0917v0.075" fill="none" stroke="#000000" stroke-width=".092604"/>
 <path d="m8.2238 1.1667v-0.075" fill="none" stroke="#000000" stroke-width=".092604"/>
 <path d="m7.2078 1.0917v0.075" fill="none" stroke="#000000" stroke-width=".092604"/>
 <path d="m41.244 1.1667v-0.075" fill="none" stroke="#000000" stroke-width=".092604"/>
 <path d="m40.228 1.0917v0.075" fill="none" stroke="#000000" stroke-width=".092604"/>
 <path d="m10.764 1.1667v-0.075" fill="none" stroke="#000000" stroke-width=".092604"/>
 <path d="m9.7478 1.0917v0.075" fill="none" stroke="#000000" stroke-width=".092604"/>
 <path d="m38.704 1.1667v-0.075" fill="none" stroke="#000000" stroke-width=".092604"/>
 <path d="m37.688 1.0917v0.075" fill="none" stroke="#000000" stroke-width=".092604"/>
 <path d="m13.304 1.1667v-0.075" fill="none" stroke="#000000" stroke-width=".092604"/>
 <path d="m12.288 1.0917v0.075" fill="none" stroke="#000000" stroke-width=".092604"/>
 <path d="m36.164 1.1667v-0.075" fill="none" stroke="#000000" stroke-width=".092604"/>
 <path d="m35.148 1.0917v0.075" fill="none" stroke="#000000" stroke-width=".092604"/>
 <path d="m15.844 1.1667v-0.075" fill="none" stroke="#000000" stroke-width=".092604"/>
 <path d="m14.828 1.0917v0.075" fill="none" stroke="#000000" stroke-width=".092604"/>
 <path d="m33.624 1.1667v-0.075" fill="none" stroke="#000000" stroke-width=".092604"/>
 <path d="m32.608 1.0917v0.075" fill="none" stroke="#000000" stroke-width=".092604"/>
 <path d="m18.384 1.1667v-0.075" fill="none" stroke="#000000" stroke-width=".092604"/>
 <path d="m17.368 1.0917v0.075" fill="none" stroke="#000000" stroke-width=".092604"/>
 <path d="m31.084 1.1667v-0.075" fill="none" stroke="#000000" stroke-width=".092604"/>
 <path d="m30.068 1.0917v0.075" fill="none" stroke="#000000" stroke-width=".092604"/>
 <path d="m20.924 1.1667v-0.075" fill="none" stroke="#000000" stroke-width=".092604"/>
 <path d="m19.908 1.0917v0.075" fill="none" stroke="#000000" stroke-width=".092604"/>
 <path d="m28.544 1.1667v-0.075" fill="none" stroke="#000000" stroke-width=".092604"/>
 <path d="m27.528 1.0917v0.075" fill="none" stroke="#000000" stroke-width=".092604"/>
 <path d="m23.464 1.1667v-0.075" fill="none" stroke="#000000" stroke-width=".092604"/>
 <path d="m22.448 1.0917v0.075" fill="none" stroke="#000000" stroke-width=".092604"/>
 <path d="m26.004 1.1667v-0.075" fill="none" stroke="#000000" stroke-width=".092604"/>
 <path d="m24.988 1.0917v0.075" fill="none" stroke="#000000" stroke-width=".092604"/>
 <path d="m1.1373 14.554v-0.075" fill="none" stroke="#000000" stroke-width=".092604"/>
 <path d="m2.1278 14.479v0.075" fill="none" stroke="#000000" stroke-width=".092604"/>
 <path d="m3.1438 14.554v-0.075" fill="none" stroke="#000000" stroke-width=".092604"/>
 <path d="m48.864 14.554v-0.075" fill="none" stroke="#000000" stroke-width=".092604"/>
 <path d="m4.6678 14.479v0.075" fill="none" stroke="#000000" stroke-width=".092604"/>
 <path d="m5.6838 14.554v-0.075" fill="none" stroke="#000000" stroke-width=".092604"/>
 <path d="m45.308 14.479v0.075" fill="none" stroke="#000000" stroke-width=".092604"/>
 <path d="m7.2078 14.479v0.075" fill="none" stroke="#000000" stroke-width=".092604"/>
 <path d="m8.2238 14.554v-0.075" fill="none" stroke="#000000" stroke-width=".092604"/>
 <path d="m42.768 14.479v0.075" fill="none" stroke="#000000" stroke-width=".092604"/>
 <path d="m43.784 14.554v-0.075" fill="none" stroke="#000000" stroke-width=".092604"/>
 <path d="m9.7478 14.479v0.075" fill="none" stroke="#000000" stroke-width=".092604"/>
 <path d="m10.764 14.554v-0.075" fill="none" stroke="#000000" stroke-width=".092604"/>
 <path d="m40.228 14.479v0.075" fill="none" stroke="#000000" stroke-width=".092604"/>
 <path d="m41.244 14.554v-0.075" fill="none" stroke="#000000" stroke-width=".092604"/>
 <path d="m12.288 14.479v0.075" fill="none" stroke="#000000" stroke-width=".092604"/>
 <path d="m13.304 14.554v-0.075" fill="none" stroke="#000000" stroke-width=".092604"/>
 <path d="m37.688 14.479v0.075" fill="none" stroke="#000000" stroke-width=".092604"/>
 <path d="m38.704 14.554v-0.075" fill="none" stroke="#000000" stroke-width=".092604"/>
 <path d="m14.828 14.479v0.075" fill="none" stroke="#000000" stroke-width=".092604"/>
 <path d="m15.844 14.554v-0.075" fill="none" stroke="#000000" stroke-width=".092604"/>
 <path d="m35.148 14.479v0.075" fill="none" stroke="#000000" stroke-width=".092604"/>
 <path d="m36.164 14.554v-0.075" fill="none" stroke="#000000" stroke-width=".092604"/>
 <path d="m17.368 14.479v0.075" fill="none" stroke="#000000" stroke-width=".092604"/>
 <path d="m18.384 14.554v-0.075" fill="none" stroke="#000000" stroke-width=".092604"/>
 <path d="m32.608 14.479v0.075" fill="none" stroke="#000000" stroke-width=".092604"/>
 <path d="m33.624 14.554v-0.075" fill="none" stroke="#000000" stroke-width=".092604"/>
 <path d="m19.908 14.479v0.075" fill="none" stroke="#000000" stroke-width=".092604"/>
 <path d="m20.924 14.554v-0.075" fill="none" stroke="#000000" stroke-width=".092604"/>
 <path d="m30.068 14.479v0.075" fill="none" stroke="#000000" stroke-width=".092604"/>
 <path d="m31.084 14.554v-0.075" fill="none" stroke="#000000" stroke-width=".092604"/>
 <path d="m22.448 14.479v0.075" fill="none" stroke="#000000" stroke-width=".092604"/>
 <path d="m23.464 14.554v-0.075" fill="none" stroke="#000000" stroke-width=".092604"/>
 <path d="m27.528 14.479v0.075" fill="none" stroke="#000000" stroke-width=".092604"/>
 <path d="m28.544 14.554v-0.075" fill="none" stroke="#000000" stroke-width=".092604"/>
 <path d="m24.988 14.479v0.075" fill="none" stroke="#000000" stroke-width=".092604"/>
 <path d="m26.004 14.554v-0.075" fill="none" stroke="#000000" stroke-width=".092604"/>
 <rect id="origin" transform="rotate(-90)" x="-15.447" y="1.2742" width=".75099" height=".73029" fill="#ff0000" opacity=".937" stroke-width=".092604"/>
 <g transform="rotate(-90 7.8328 7.8919)" stroke="#000000" stroke-width=".092604">
  <path d="m15.268 48.923h0.3811-1e-4v1.524h1e-4 -1.0911v-1.524z" fill="#cccccc" fill-rule="evenodd"/>
  <path d="m15.268 48.923v1.524" fill="none"/>
  <path d="m15.268 43.843h0.3811-1e-4v1.524h1e-4 -1.0911v-1.524z" fill="#cccccc" fill-rule="evenodd"/>
  <path d="m15.268 43.843v1.524" fill="none"/>
  <path d="m15.268 41.303h0.3811-1e-4v1.524h1e-4 -1.0911v-1.524z" fill="#cccccc" fill-rule="evenodd"/>
  <path d="m15.268 41.303v1.524" fill="none"/>
  <path d="m15.268 38.763h0.3811-1e-4v1.524h1e-4 -1.0911v-1.524z" fill="#cccccc" fill-rule="evenodd"/>
  <path d="m15.268 38.763v1.524" fill="none"/>
  <path d="m15.268 36.223h0.3811-1e-4v1.524h1e-4 -1.0911v-1.524z" fill="#cccccc" fill-rule="evenodd"/>
  <path d="m15.268 36.223v1.524" fill="none"/>
  <path d="m15.268 33.683h0.3811-1e-4v1.524h1e-4 -1.0911v-1.524z" fill="#cccccc" fill-rule="evenodd"/>
  <path d="m15.268 33.683v1.524" fill="none"/>
  <path d="m15.268 31.143h0.3811-1e-4v1.524h1e-4 -1.0911v-1.524z" fill="#cccccc" fill-rule="evenodd"/>
  <path d="m15.268 31.143v1.524" fill="none"/>
  <path d="m15.268 28.603h0.3811-1e-4v1.524h1e-4 -1.0911v-1.524z" fill="#cccccc" fill-rule="evenodd"/>
  <path d="m15.268 28.603v1.524" fill="none"/>
  <path d="m15.268 26.063h0.3811-1e-4v1.524h1e-4 -1.0911v-1.524z" fill="#cccccc" fill-rule="evenodd"/>
  <path d="m15.268 26.063v1.524" fill="none"/>
  <path d="m15.268 23.523h0.3811-1e-4v1.524h1e-4 -1.0911v-1.524z" fill="#cccccc" fill-rule="evenodd"/>
  <path d="m15.268 23.523v1.524" fill="none"/>
  <path d="m15.268 20.983h0.3811-1e-4v1.524h1e-4 -1.0911v-1.524z" fill="#cccccc" fill-rule="evenodd"/>
  <path d="m15.268 20.983v1.524" fill="none"/>
  <path d="m15.268 18.443h0.3811-1e-4v1.524h1e-4 -1.0911v-1.524z" fill="#cccccc" fill-rule="evenodd"/>
  <path d="m15.268 18.443v1.524" fill="none"/>
  <path d="m15.268 15.903h0.3811-1e-4v1.524h1e-4 -1.0911v-1.524z" fill="#cccccc" fill-rule="evenodd"/>
  <path d="m15.268 15.903v1.524" fill="none"/>
  <path d="m15.268 13.363h0.3811-1e-4v1.524h1e-4 -1.0911v-1.524z" fill="#cccccc" fill-rule="evenodd"/>
  <path d="m15.268 13.363v1.524" fill="none"/>
  <path d="m15.268 10.823h0.3811-1e-4v1.524h1e-4 -1.0911v-1.524z" fill="#cccccc" fill-rule="evenodd"/>
  <path d="m15.268 10.823v1.524" fill="none"/>
  <path d="m15.268 8.2829h0.3811-1e-4v1.524h1e-4 -1.0911v-1.524z" fill="#cccccc" fill-rule="evenodd"/>
  <path d="m15.268 8.2829v1.524" fill="none"/>
  <path d="m15.268 5.7429h0.3811-1e-4v1.524h1e-4 -1.0911v-1.524z" fill="#cccccc" fill-rule="evenodd"/>
  <path d="m15.268 5.7429v1.524" fill="none"/>
  <path d="m15.268 3.2029h0.3811-1e-4v1.524h1e-4 -1.0911v-1.524z" fill="#cccccc" fill-rule="evenodd"/>
  <path d="m15.268 3.2029v1.524" fill="none"/>
  <path d="m15.268 0.66294h0.3811-1e-4v1.524h1e-4 -1.0911v-1.524z" fill="#cccccc" fill-rule="evenodd"/>
  <path d="m15.268 0.66294v1.524" fill="none"/>
  <path d="m0.53594 50.447h-0.381v-1.524h1.091v1.524z" fill="#cccccc" fill-rule="evenodd"/>
  <path d="m0.53594 50.447v-1.524" fill="none"/>
 </g>
 <g transform="rotate(-90 7.7953 7.8544)" stroke="#000000" stroke-width=".092604">
  <path d="m0.46094 45.367h-0.381v-1.524h1.091v1.524z" fill="#cccccc" fill-rule="evenodd"/>
  <path d="m0.46094 45.367v-1.524" fill="none"/>
 </g>
 <g transform="rotate(-90 7.8328 7.8919)" stroke="#000000" stroke-width=".092604">
  <path d="m0.53594 42.827h-0.381v-1.524h1.091v1.524z" fill="#cccccc" fill-rule="evenodd"/>
  <path d="m0.53594 42.827v-1.524" fill="none"/>
  <path d="m0.53594 40.287h-0.381v-1.524h1.091v1.524z" fill="#cccccc" fill-rule="evenodd"/>
  <path d="m0.53594 40.287v-1.524" fill="none"/>
  <path d="m0.53594 37.747h-0.381v-1.524h1.091v1.524z" fill="#cccccc" fill-rule="evenodd"/>
  <path d="m0.53594 37.747v-1.524" fill="none"/>
  <path d="m0.53594 35.207h-0.381v-1.524h1.091v1.524z" fill="#cccccc" fill-rule="evenodd"/>
  <path d="m0.53594 35.207v-1.524" fill="none"/>
  <path d="m0.53594 32.667h-0.381v-1.524h1.091v1.524z" fill="#cccccc" fill-rule="evenodd"/>
  <path d="m0.53594 32.667v-1.524" fill="none"/>
  <path d="m0.53594 30.127h-0.381v-1.524h1.091v1.524z" fill="#cccccc" fill-rule="evenodd"/>
  <path d="m0.53594 30.127v-1.524" fill="none"/>
  <path d="m0.53594 27.587h-0.381v-1.524h1.091v1.524z" fill="#cccccc" fill-rule="evenodd"/>
  <path d="m0.53594 27.587v-1.524" fill="none"/>
  <path d="m0.53594 25.047h-0.381v-1.524h1.091v1.524z" fill="#cccccc" fill-rule="evenodd"/>
  <path d="m0.53594 25.047v-1.524" fill="none"/>
  <path d="m0.53594 22.507h-0.381v-1.524h1.091v1.524z" fill="#cccccc" fill-rule="evenodd"/>
  <path d="m0.53594 22.507v-1.524" fill="none"/>
  <path d="m0.53594 19.967h-0.381v-1.524h1.091v1.524z" fill="#cccccc" fill-rule="evenodd"/>
  <path d="m0.53594 19.967v-1.524" fill="none"/>
  <path d="m0.53594 17.427h-0.381v-1.524h1.091v1.524z" fill="#cccccc" fill-rule="evenodd"/>
  <path d="m0.53594 17.427v-1.524" fill="none"/>
  <path d="m0.53594 14.887h-0.381v-1.524h1.091v1.524z" fill="#cccccc" fill-rule="evenodd"/>
  <path d="m0.53594 14.887v-1.524" fill="none"/>
  <path d="m0.53594 12.347h-0.381v-1.524h1.091v1.524z" fill="#cccccc" fill-rule="evenodd"/>
  <path d="m0.53594 12.347v-1.524" fill="none"/>
  <path d="m0.53594 9.8069h-0.381v-1.524h1.091v1.524z" fill="#cccccc" fill-rule="evenodd"/>
  <path d="m0.53594 9.8069v-1.524" fill="none"/>
  <path d="m0.53594 7.2669h-0.381v-1.524h1.091v1.524z" fill="#cccccc" fill-rule="evenodd"/>
  <path d="m0.53594 7.2669v-1.524" fill="none"/>
  <path d="m0.53594 4.7269h-0.381v-1.524h1.091v1.524z" fill="#cccccc" fill-rule="evenodd"/>
  <path d="m0.53594 4.7269v-1.524" fill="none"/>
  <path d="m0.53594 2.1869h-0.381v-1.524h1.091v1.524z" fill="#cccccc" fill-rule="evenodd"/>
  <path d="m0.53594 2.1869v-1.524" fill="none"/>
 </g>
</svg>
