<?xml version="1.0" encoding="UTF-8"?>
<svg width="228" height="228" version="1.1" viewBox="0 0 40.217 40.217" xmlns="http://www.w3.org/2000/svg">
 <rect x="-5%" y="-5%" width="110%" height="110%" fill="#313d63"/>
 <path d="m4.0368 0.053557c-2.1987 0-3.9687 1.7701-3.9687 3.9687v32.049c0 2.1987 1.7701 3.9688 3.9687 3.9688h32.188c2.1987 0 3.9688-1.7701 3.9688-3.9688v-32.049c0-2.1987-1.7701-3.9687-3.9688-3.9687zm16.074 0.83509a19.187 19.187 0 0 1 0.01395 0 19.187 19.187 0 0 1 19.187 19.187 19.187 19.187 0 0 1-19.187 19.187 19.187 19.187 0 0 1-19.187-19.187 19.187 19.187 0 0 1 19.173-19.187z" fill="#333333" stroke="#000000" stroke-width=".092389"/>
 <path d="m25.501 0.85041-0.01035 0.007752h-10.851l-0.0047 0.005684c-6.7324 1.9105-12.016 7.2682-13.821 14.044l0.011369 10.341c1.8518 6.8901 7.3009 12.306 14.21 14.111l10.175 0.04599c9.7385-2.6676 14.174-12.336 14.165-13.954l-0.060463-10.75c-1.8614-6.6948-7.1263-11.973-13.814-13.852zm-5.3899 0.03824a19.187 19.187 0 0 1 0.01394 0 19.187 19.187 0 0 1 19.187 19.187 19.187 19.187 0 0 1-19.187 19.187 19.187 19.187 0 0 1-19.187-19.187 19.187 19.187 0 0 1 19.173-19.187z" fill="#1a1a1a" stroke="#000000" stroke-width=".092604"/>
 <g transform="translate(-10.396 -.39138)" fill="#1a1a1a" stroke="#000000" stroke-width=".092604">
  <ellipse cx="30.636" cy="20.521" rx="11.12" ry="11.286"/>
  <path d="m23.611 11.784 10.381-10.549 2.2229 0.5446-9.378 9.8851z"/>
  <path d="m39.207 14.254 10.549 10.381-0.5446 2.2229-9.8851-9.378z"/>
  <path d="m21.834 27.307-10.549-10.381 0.5446-2.2229 9.8851 9.378z"/>
  <path d="m37.048 29.178-10.381 10.549-2.2229-0.5446 9.378-9.8851z"/>
 </g>
 <path d="m25.491 39.358h-10.851" fill="none" stroke="#191919" stroke-width=".092604"/>
 <circle cx="4.0623" cy="4.1034" r="2.1763" fill="#1a1a1a" stroke="#000000" stroke-width=".092604"/>
 <circle cx="4.0966" cy="36.135" r="2.1763" fill="#1a1a1a" stroke="#000000" stroke-width=".092604"/>
 <circle cx="36.068" cy="36.153" r="2.1763" fill="#1a1a1a" stroke="#000000" stroke-width=".092604"/>
 <circle cx="36.116" cy="4.1373" r="2.1763" fill="#1a1a1a" stroke="#000000" stroke-width=".092604"/>
 <g transform="translate(-10.396 -.39138)" stroke="#000000">
  <path d="m40.268 15.516-5.4735-5.1275h-1e-6l5.1408-5.4877 0.30211 0.18754 1.1045 0.7589 0.0595 0.044376 0.16246 0.13072-0.22197-0.17509 0.83488 0.65856 0.21172 0.18001 0.48916 0.43797 0.06063 0.056543 0.78078 0.77697 0.41366 0.45225 0.2449 0.28273 0.44625 0.54708h9e-6l0.12315 0.15888 0.46176 0.63003-5.1408 5.4877z" fill="#333333" stroke-width=".092604"/>
  <path d="m40.471 25.06 0.61459-7.4748-1e-6 -1e-6 7.4942 0.61619 0.04086 0.35323 0.092 1.3369 0.0022 0.0742-0.0014 0.20852-8.02e-4 -0.28271 3e-3 1.0634-0.0094 0.27774-0.03905 0.65542-0.0066 0.08264-0.12335 1.0946-0.09716 0.60515-0.06926 0.36758-0.1512 0.68962 6e-6 7e-6 -0.04792 0.19522-0.20654 0.75333-7.4942-0.61619z" fill="#333333" stroke-width=".092604"/>
  <path d="m33.153 31.192 6.2012-4.2184v-1e-6l4.2294 6.2174-0.24912 0.25373-0.98226 0.91158-0.05633 0.04834-0.16311 0.12991 0.21943-0.17826-0.82534 0.67048-0.22199 0.16718-0.53442 0.38143-0.06844 0.04678-0.92904 0.59177-0.53183 0.30464-0.32948 0.17708-0.63149 0.31567-2e-6 9e-6 -0.18198 0.08538-0.71583 0.31265-4.2294-6.2174z" fill="#333333" stroke-width=".092604"/>
  <path d="m23.775 29.284 7.1686 2.2047 1e-6 -1e-6 -2.2104 7.1873-0.35377-0.03591-1.3255-0.1971-0.07294-0.01376-0.20335-0.04614 0.2763 0.0599-1.0392-0.22528-0.26925-0.06882-0.63176-0.17882-0.07929-0.02419-1.0426-0.35542-0.57019-0.22479-0.34415-0.14655-0.64109-0.29569-8e-6 4e-6 -0.18039-0.0887-0.69144-0.36342 2.2104-7.1873z" fill="#333333" stroke-width=".092604"/>
  <path d="m19.425 20.664 2.7792 6.9661h1e-6l-6.9842 2.7864-0.19393-0.29805-0.67787-1.156-0.03503-0.06545-0.09161-0.18732 0.12665 0.25276-0.47636-0.95069-0.11528-0.25286-0.25698-0.6042-0.03089-0.07693-0.37711-1.0349-0.18256-0.58508-0.10172-0.35996-0.17181-0.68477-8e-6 -4e-6 -0.04406-0.19613-0.15064-0.76646 6.9842-2.7864z" fill="#333333" stroke-width=".092604"/>
  <path d="m23.424 12.05-3.7841 6.4754v1e-6l-6.4922-3.794 0.11578-0.33621 0.49471-1.2454 0.03006-0.06787 0.09139-0.18743-0.12144 0.25531 0.45674-0.96027 0.12851-0.24641 0.31842-0.5742 0.04167-0.07167 0.5842-0.93381 0.34911-0.50376 0.2213-0.30157 0.43434-0.55658-2e-6 -9e-6 0.12757-0.15535 0.51176-0.59012 6.4922 3.794z" fill="#333333" stroke-width=".092604"/>
  <path d="m32.616 9.8052-7.4317 1.0098-1e-6 1e-6 -1.0124-7.451 0.33614-0.11599 1.2857-0.37779 0.07197-0.018148 0.20393-0.043526-0.2759 0.061678 1.0377-0.23199 0.27325-0.050623 0.64844-0.10303 0.08212-0.011349 1.0954-0.1153 0.61188-0.03546 0.37388-0.011535 0.706-8.855e-4 6e-6 -7.1e-6 0.20096 0.00474 0.78013 0.039434 1.0124 7.451z" fill="#333333" stroke-width=".092604"/>
  <circle cx="30.443" cy="20.374" r="10.988" fill="#4d4d4d" stroke-width=".11843"/>
 </g>
</svg>
