<svg width="399" height="282" viewBox="0 0 32049 22677" xmlns="http://www.w3.org/2000/svg"><g clip-path="url(#a)" mask="url(#b)" transform="translate(-64571 -9826.7)"><defs><clipPath id="a"><path d="M64566 9842h32087v22638H64566V9842" fill-rule="evenodd"/></clipPath></defs><g fill="#313d63" stroke="#313d63"><path d="M64566 9842h32087v22638H64566V9842" fill-rule="evenodd"/><g fill-opacity="0" stroke-linecap="round" stroke-linejoin="round" stroke-width="39.37" fill="none" stroke="#000"><path d="M64566 32480v-1969M96653 32480H64566M96653 30511v1969M64566 30511V9842M96653 9842v20669M64566 9842h32087"/></g></g><g stroke-linecap="round" stroke-linejoin="round" stroke-width="0" stroke="none" fill="#9c6b28"><circle cx="67638" cy="20272" r="300"/><circle cx="65587" cy="20213" r="300"/><circle cx="67602" cy="18134" r="300"/><circle cx="65598" cy="18161" r="300"/><circle cx="69831" cy="23165" r="300"/><circle cx="70846" cy="23158" r="300"/><circle cx="71917" cy="23150" r="300"/><circle cx="74768" cy="20181" r="300"/><circle cx="74752" cy="19220" r="300"/><circle cx="74752" cy="18224" r="300"/><circle cx="95398" cy="18299" r="300"/><circle cx="95413" cy="20327" r="300"/><circle cx="90421" cy="18295" r="300"/><circle cx="90413" cy="20307" r="300"/><circle cx="90476" cy="23220" r="300"/><circle cx="90492" cy="25248" r="300"/><circle cx="85500" cy="23216" r="300"/><circle cx="85492" cy="25228" r="300"/><circle cx="90476" cy="13378" r="300"/><circle cx="90492" cy="15406" r="300"/><circle cx="85500" cy="13374" r="300"/><circle cx="85492" cy="15386" r="300"/><circle cx="85555" cy="18299" r="300"/><circle cx="85571" cy="20327" r="300"/><circle cx="80579" cy="18295" r="300"/><circle cx="80571" cy="20307" r="300"/><circle cx="82874" cy="24409" r="393.7"/><circle cx="82874" cy="26181" r="393.7"/><circle cx="80315" cy="24409" r="393.7"/><circle cx="80315" cy="26181" r="393.7"/><circle cx="77953" cy="24409" r="393.7"/><circle cx="77953" cy="26181" r="393.7"/><circle cx="75394" cy="24409" r="393.7"/><circle cx="75394" cy="26181" r="393.7"/><circle cx="67512" cy="12197" r="300"/><circle cx="68689" cy="12197" r="300"/><path d="M70174 11905v600h-600v-600z" fill-rule="evenodd"/><g><circle cx="82480" cy="14764" r="275.59"/><circle cx="82480" cy="12764" r="275.59"/><circle cx="81102" cy="14764" r="275.59"/><circle cx="81102" cy="12764" r="275.59"/><circle cx="83858" cy="14795" r="275.59"/><circle cx="83858" cy="12795" r="275.59"/><circle cx="79724" cy="14764" r="275.59"/><circle cx="79724" cy="12764" r="275.59"/><circle cx="78346" cy="14764" r="275.59"/><circle cx="78346" cy="12764" r="275.59"/><circle cx="76968" cy="14795" r="275.59"/><circle cx="76968" cy="12795" r="275.59"/><circle cx="75591" cy="14764" r="275.59"/><circle cx="75591" cy="12764" r="275.59"/><circle cx="72071" cy="11417" r="334.65"/><circle cx="73071" cy="11417" r="334.65"/><circle cx="74071" cy="11417" r="334.65"/><circle cx="75071" cy="11417" r="334.65"/><circle cx="76071" cy="11417" r="334.65"/><circle cx="77071" cy="11417" r="334.65"/><circle cx="78071" cy="11417" r="334.65"/><circle cx="79071" cy="11417" r="334.65"/><circle cx="80071" cy="11417" r="334.65"/><circle cx="81071" cy="11417" r="334.65"/><circle cx="82071" cy="11417" r="334.65"/><path d="M82736 11083h669.3v669.3H82736z" fill-rule="evenodd"/></g></g><g fill="#212d53" stroke="#212d53" stroke-linecap="round" stroke-linejoin="round"><g stroke-width="0" stroke="none"><circle cx="67638" cy="20272" r="300"/><circle cx="65587" cy="20213" r="300"/><circle cx="67602" cy="18134" r="300"/><circle cx="65598" cy="18161" r="300"/><circle cx="69831" cy="23165" r="300"/><circle cx="70846" cy="23158" r="300"/><circle cx="71917" cy="23150" r="300"/><circle cx="74768" cy="20181" r="300"/><circle cx="74752" cy="19220" r="300"/><circle cx="74752" cy="18224" r="300"/><circle cx="95398" cy="18299" r="300"/><circle cx="95413" cy="20327" r="300"/><circle cx="90421" cy="18295" r="300"/><circle cx="90413" cy="20307" r="300"/><circle cx="90476" cy="23220" r="300"/><circle cx="90492" cy="25248" r="300"/><circle cx="85500" cy="23216" r="300"/><circle cx="85492" cy="25228" r="300"/><circle cx="90476" cy="13378" r="300"/><circle cx="90492" cy="15406" r="300"/><circle cx="85500" cy="13374" r="300"/><circle cx="85492" cy="15386" r="300"/><circle cx="85555" cy="18299" r="300"/><circle cx="85571" cy="20327" r="300"/><circle cx="80579" cy="18295" r="300"/><circle cx="80571" cy="20307" r="300"/><circle cx="82874" cy="24409" r="393.7"/><circle cx="82874" cy="26181" r="393.7"/><circle cx="80315" cy="24409" r="393.7"/><circle cx="80315" cy="26181" r="393.7"/><circle cx="77953" cy="24409" r="393.7"/><circle cx="77953" cy="26181" r="393.7"/><circle cx="75394" cy="24409" r="393.7"/><circle cx="75394" cy="26181" r="393.7"/><circle cx="67512" cy="12197" r="300"/><circle cx="68689" cy="12197" r="300"/></g><path d="M70174 11905v600h-600v-600z" fill-rule="evenodd" stroke="none" stroke-width="0"/><g stroke-width="0" stroke="none"><circle cx="82480" cy="14764" r="275.59"/><circle cx="82480" cy="12764" r="275.59"/><circle cx="81102" cy="14764" r="275.59"/><circle cx="81102" cy="12764" r="275.59"/><circle cx="83858" cy="14795" r="275.59"/><circle cx="83858" cy="12795" r="275.59"/><circle cx="79724" cy="14764" r="275.59"/><circle cx="79724" cy="12764" r="275.59"/><circle cx="78346" cy="14764" r="275.59"/><circle cx="78346" cy="12764" r="275.59"/><circle cx="76968" cy="14795" r="275.59"/><circle cx="76968" cy="12795" r="275.59"/><circle cx="75591" cy="14764" r="275.59"/><circle cx="75591" cy="12764" r="275.59"/><circle cx="72071" cy="11417" r="334.65"/><circle cx="73071" cy="11417" r="334.65"/><circle cx="74071" cy="11417" r="334.65"/><circle cx="75071" cy="11417" r="334.65"/><circle cx="76071" cy="11417" r="334.65"/><circle cx="77071" cy="11417" r="334.65"/><circle cx="78071" cy="11417" r="334.65"/><circle cx="79071" cy="11417" r="334.65"/><circle cx="80071" cy="11417" r="334.65"/><circle cx="81071" cy="11417" r="334.65"/><circle cx="82071" cy="11417" r="334.65"/><path d="M82736 11083h669.3v669.3H82736z" fill-rule="evenodd"/><circle cx="71063" cy="14764" r="157.48"/></g><g fill-opacity="0" stroke-width="196.85" fill="none"><path d="M75590 14763h-4528M82511 12795l-31-32M83858 12795h-1347M82480 12763h-1378M81102 12763h-1378M78346 12763h1378M78314 12795l32-32M76968 12795h1346M75622 12795l-32-32M70897 12763l-228 229M69484 12992l-796-796M70669 12992h-1185M75590 12763h-1803M73787 12763h-2890M76377 12795h-755M76377 18570v-5775M74767 20181l1610-1611M76968 12795h-591"/></g><g stroke-width="0" stroke="none"><circle cx="71063" cy="14764" r="68.898"/><circle cx="67638" cy="20272" r="68.898"/><circle cx="65587" cy="20213" r="68.898"/><circle cx="67602" cy="18134" r="68.898"/><circle cx="65598" cy="18161" r="68.898"/><circle cx="69831" cy="23165" r="68.898"/><circle cx="70846" cy="23158" r="68.898"/><circle cx="71917" cy="23150" r="68.898"/><circle cx="74768" cy="20181" r="68.898"/><circle cx="74752" cy="19220" r="68.898"/><circle cx="74752" cy="18224" r="68.898"/><circle cx="95398" cy="18299" r="68.898"/><circle cx="95413" cy="20327" r="68.898"/><circle cx="90421" cy="18295" r="68.898"/><circle cx="90413" cy="20307" r="68.898"/><circle cx="90476" cy="23220" r="68.898"/><circle cx="90492" cy="25248" r="68.898"/><circle cx="85500" cy="23216" r="68.898"/><circle cx="85492" cy="25228" r="68.898"/><circle cx="90476" cy="13378" r="68.898"/><circle cx="90492" cy="15406" r="68.898"/><circle cx="85500" cy="13374" r="68.898"/><circle cx="85492" cy="15386" r="68.898"/><circle cx="85555" cy="18299" r="68.898"/><circle cx="85571" cy="20327" r="68.898"/><circle cx="80579" cy="18295" r="68.898"/><circle cx="80571" cy="20307" r="68.898"/><circle cx="82874" cy="24409" r="68.898"/><circle cx="82874" cy="26181" r="68.898"/><circle cx="80315" cy="24409" r="68.898"/><circle cx="80315" cy="26181" r="68.898"/><circle cx="77953" cy="24409" r="68.898"/><circle cx="77953" cy="26181" r="68.898"/><circle cx="75394" cy="24409" r="68.898"/><circle cx="75394" cy="26181" r="68.898"/><circle cx="67512" cy="12197" r="68.898"/><circle cx="68689" cy="12197" r="68.898"/><circle cx="69874" cy="12205" r="68.898"/><circle cx="82480" cy="14764" r="68.898"/><circle cx="82480" cy="12764" r="68.898"/><circle cx="81102" cy="14764" r="68.898"/><circle cx="81102" cy="12764" r="68.898"/><circle cx="83858" cy="14795" r="68.898"/><circle cx="83858" cy="12795" r="68.898"/><circle cx="79724" cy="14764" r="68.898"/><circle cx="79724" cy="12764" r="68.898"/><circle cx="78346" cy="14764" r="68.898"/><circle cx="78346" cy="12764" r="68.898"/><circle cx="76968" cy="14795" r="68.898"/><circle cx="76968" cy="12795" r="68.898"/><circle cx="75591" cy="14764" r="68.898"/><circle cx="75591" cy="12764" r="68.898"/><circle cx="72071" cy="11417" r="68.898"/><circle cx="73071" cy="11417" r="68.898"/><circle cx="74071" cy="11417" r="68.898"/><circle cx="75071" cy="11417" r="68.898"/><circle cx="76071" cy="11417" r="68.898"/><circle cx="77071" cy="11417" r="68.898"/><circle cx="78071" cy="11417" r="68.898"/><circle cx="79071" cy="11417" r="68.898"/><circle cx="80071" cy="11417" r="68.898"/><circle cx="81071" cy="11417" r="68.898"/><circle cx="82071" cy="11417" r="68.898"/><circle cx="83071" cy="11417" r="68.898"/></g></g><g fill="#b5ae30" mask="url(#c)" stroke="#b5ae30" stroke-linecap="round" stroke-linejoin="round"><g stroke-width="0" stroke="none"><circle cx="67638" cy="20272" r="300"/><circle cx="65587" cy="20213" r="300"/><circle cx="67602" cy="18134" r="300"/><circle cx="65598" cy="18161" r="300"/><circle cx="69831" cy="23165" r="300"/><circle cx="70846" cy="23158" r="300"/><circle cx="71917" cy="23150" r="300"/><circle cx="74768" cy="20181" r="300"/><circle cx="74752" cy="19220" r="300"/><circle cx="74752" cy="18224" r="300"/><circle cx="95398" cy="18299" r="300"/><circle cx="95413" cy="20327" r="300"/><circle cx="90421" cy="18295" r="300"/><circle cx="90413" cy="20307" r="300"/><circle cx="90476" cy="23220" r="300"/><circle cx="90492" cy="25248" r="300"/><circle cx="85500" cy="23216" r="300"/><circle cx="85492" cy="25228" r="300"/><circle cx="90476" cy="13378" r="300"/><circle cx="90492" cy="15406" r="300"/><circle cx="85500" cy="13374" r="300"/><circle cx="85492" cy="15386" r="300"/><circle cx="85555" cy="18299" r="300"/><circle cx="85571" cy="20327" r="300"/><circle cx="80579" cy="18295" r="300"/><circle cx="80571" cy="20307" r="300"/><circle cx="82874" cy="24409" r="393.7"/><circle cx="82874" cy="26181" r="393.7"/><circle cx="80315" cy="24409" r="393.7"/><circle cx="80315" cy="26181" r="393.7"/><circle cx="77953" cy="24409" r="393.7"/><circle cx="77953" cy="26181" r="393.7"/><circle cx="75394" cy="24409" r="393.7"/><circle cx="75394" cy="26181" r="393.7"/><circle cx="67512" cy="12197" r="300"/><circle cx="68689" cy="12197" r="300"/></g><path d="M70174 11905v600h-600v-600z" fill-rule="evenodd" stroke="none" stroke-width="0"/><g stroke-width="0" stroke="none"><circle cx="82480" cy="14764" r="275.59"/><circle cx="82480" cy="12764" r="275.59"/><circle cx="81102" cy="14764" r="275.59"/><circle cx="81102" cy="12764" r="275.59"/><circle cx="83858" cy="14795" r="275.59"/><circle cx="83858" cy="12795" r="275.59"/><circle cx="79724" cy="14764" r="275.59"/><circle cx="79724" cy="12764" r="275.59"/><circle cx="78346" cy="14764" r="275.59"/><circle cx="78346" cy="12764" r="275.59"/><circle cx="76968" cy="14795" r="275.59"/><circle cx="76968" cy="12795" r="275.59"/><circle cx="75591" cy="14764" r="275.59"/><circle cx="75591" cy="12764" r="275.59"/><circle cx="72071" cy="11417" r="334.65"/><circle cx="73071" cy="11417" r="334.65"/><circle cx="74071" cy="11417" r="334.65"/><circle cx="75071" cy="11417" r="334.65"/><circle cx="76071" cy="11417" r="334.65"/><circle cx="77071" cy="11417" r="334.65"/><circle cx="78071" cy="11417" r="334.65"/><circle cx="79071" cy="11417" r="334.65"/><circle cx="80071" cy="11417" r="334.65"/><circle cx="81071" cy="11417" r="334.65"/><circle cx="82071" cy="11417" r="334.65"/><path d="M82736 11083h669.3v669.3H82736z" fill-rule="evenodd"/><circle cx="71063" cy="14764" r="157.48"/></g><g fill-opacity="0" stroke-width="196.85" fill="none"><path d="M75590 14763h-4528M82511 12795l-31-32M83858 12795h-1347M82480 12763h-1378M81102 12763h-1378M78346 12763h1378M78314 12795l32-32M76968 12795h1346M75622 12795l-32-32M70897 12763l-228 229M69484 12992l-796-796M70669 12992h-1185M75590 12763h-1803M73787 12763h-2890M76377 12795h-755M76377 18570v-5775M74767 20181l1610-1611M76968 12795h-591"/></g><g stroke-width="0" stroke="none"><circle cx="71063" cy="14764" r="68.898"/><circle cx="67638" cy="20272" r="68.898"/><circle cx="65587" cy="20213" r="68.898"/><circle cx="67602" cy="18134" r="68.898"/><circle cx="65598" cy="18161" r="68.898"/><circle cx="69831" cy="23165" r="68.898"/><circle cx="70846" cy="23158" r="68.898"/><circle cx="71917" cy="23150" r="68.898"/><circle cx="74768" cy="20181" r="68.898"/><circle cx="74752" cy="19220" r="68.898"/><circle cx="74752" cy="18224" r="68.898"/><circle cx="95398" cy="18299" r="68.898"/><circle cx="95413" cy="20327" r="68.898"/><circle cx="90421" cy="18295" r="68.898"/><circle cx="90413" cy="20307" r="68.898"/><circle cx="90476" cy="23220" r="68.898"/><circle cx="90492" cy="25248" r="68.898"/><circle cx="85500" cy="23216" r="68.898"/><circle cx="85492" cy="25228" r="68.898"/><circle cx="90476" cy="13378" r="68.898"/><circle cx="90492" cy="15406" r="68.898"/><circle cx="85500" cy="13374" r="68.898"/><circle cx="85492" cy="15386" r="68.898"/><circle cx="85555" cy="18299" r="68.898"/><circle cx="85571" cy="20327" r="68.898"/><circle cx="80579" cy="18295" r="68.898"/><circle cx="80571" cy="20307" r="68.898"/><circle cx="82874" cy="24409" r="68.898"/><circle cx="82874" cy="26181" r="68.898"/><circle cx="80315" cy="24409" r="68.898"/><circle cx="80315" cy="26181" r="68.898"/><circle cx="77953" cy="24409" r="68.898"/><circle cx="77953" cy="26181" r="68.898"/><circle cx="75394" cy="24409" r="68.898"/><circle cx="75394" cy="26181" r="68.898"/><circle cx="67512" cy="12197" r="68.898"/><circle cx="68689" cy="12197" r="68.898"/><circle cx="69874" cy="12205" r="68.898"/><circle cx="82480" cy="14764" r="68.898"/><circle cx="82480" cy="12764" r="68.898"/><circle cx="81102" cy="14764" r="68.898"/><circle cx="81102" cy="12764" r="68.898"/><circle cx="83858" cy="14795" r="68.898"/><circle cx="83858" cy="12795" r="68.898"/><circle cx="79724" cy="14764" r="68.898"/><circle cx="79724" cy="12764" r="68.898"/><circle cx="78346" cy="14764" r="68.898"/><circle cx="78346" cy="12764" r="68.898"/><circle cx="76968" cy="14795" r="68.898"/><circle cx="76968" cy="12795" r="68.898"/><circle cx="75591" cy="14764" r="68.898"/><circle cx="75591" cy="12764" r="68.898"/><circle cx="72071" cy="11417" r="68.898"/><circle cx="73071" cy="11417" r="68.898"/><circle cx="74071" cy="11417" r="68.898"/><circle cx="75071" cy="11417" r="68.898"/><circle cx="76071" cy="11417" r="68.898"/><circle cx="77071" cy="11417" r="68.898"/><circle cx="78071" cy="11417" r="68.898"/><circle cx="79071" cy="11417" r="68.898"/><circle cx="80071" cy="11417" r="68.898"/><circle cx="81071" cy="11417" r="68.898"/><circle cx="82071" cy="11417" r="68.898"/><circle cx="83071" cy="11417" r="68.898"/></g></g><defs><mask id="c"><g stroke="#fff" stroke-linecap="round" stroke-linejoin="round" fill="#fff" stroke-width="0"><circle cx="67638" cy="20272" r="300"/><circle cx="65587" cy="20213" r="300"/><circle cx="67602" cy="18134" r="300"/><circle cx="65598" cy="18161" r="300"/><circle cx="69831" cy="23165" r="300"/><circle cx="70846" cy="23158" r="300"/><circle cx="71917" cy="23150" r="300"/><circle cx="74768" cy="20181" r="300"/><circle cx="74752" cy="19220" r="300"/><circle cx="74752" cy="18224" r="300"/><circle cx="95398" cy="18299" r="300"/><circle cx="95413" cy="20327" r="300"/><circle cx="90421" cy="18295" r="300"/><circle cx="90413" cy="20307" r="300"/><circle cx="90476" cy="23220" r="300"/><circle cx="90492" cy="25248" r="300"/><circle cx="85500" cy="23216" r="300"/><circle cx="85492" cy="25228" r="300"/><circle cx="90476" cy="13378" r="300"/><circle cx="90492" cy="15406" r="300"/><circle cx="85500" cy="13374" r="300"/><circle cx="85492" cy="15386" r="300"/><circle cx="85555" cy="18299" r="300"/><circle cx="85571" cy="20327" r="300"/><circle cx="80579" cy="18295" r="300"/><circle cx="80571" cy="20307" r="300"/><circle cx="82874" cy="24409" r="393.7"/><circle cx="82874" cy="26181" r="393.7"/><circle cx="80315" cy="24409" r="393.7"/><circle cx="80315" cy="26181" r="393.7"/><circle cx="77953" cy="24409" r="393.7"/><circle cx="77953" cy="26181" r="393.7"/><circle cx="75394" cy="24409" r="393.7"/><circle cx="75394" cy="26181" r="393.7"/><circle cx="67512" cy="12197" r="300"/><circle cx="68689" cy="12197" r="300"/><g><path d="M70174 11905v600h-600v-600z" fill-rule="evenodd"/></g><g><circle cx="82480" cy="14764" r="275.59"/><circle cx="82480" cy="12764" r="275.59"/><circle cx="81102" cy="14764" r="275.59"/><circle cx="81102" cy="12764" r="275.59"/><circle cx="83858" cy="14795" r="275.59"/><circle cx="83858" cy="12795" r="275.59"/><circle cx="79724" cy="14764" r="275.59"/><circle cx="79724" cy="12764" r="275.59"/><circle cx="78346" cy="14764" r="275.59"/><circle cx="78346" cy="12764" r="275.59"/><circle cx="76968" cy="14795" r="275.59"/><circle cx="76968" cy="12795" r="275.59"/><circle cx="75591" cy="14764" r="275.59"/><circle cx="75591" cy="12764" r="275.59"/><circle cx="72071" cy="11417" r="334.65"/><circle cx="73071" cy="11417" r="334.65"/><circle cx="74071" cy="11417" r="334.65"/><circle cx="75071" cy="11417" r="334.65"/><circle cx="76071" cy="11417" r="334.65"/><circle cx="77071" cy="11417" r="334.65"/><circle cx="78071" cy="11417" r="334.65"/><circle cx="79071" cy="11417" r="334.65"/><circle cx="80071" cy="11417" r="334.65"/><circle cx="81071" cy="11417" r="334.65"/><circle cx="82071" cy="11417" r="334.65"/><path d="M82736 11083h669.3v669.3H82736z" fill-rule="evenodd"/></g></g></mask></defs><defs><mask id="d"><g stroke="#000" stroke-linecap="round" stroke-linejoin="round" stroke-width="0"><circle cx="67638" cy="20272" r="300"/><circle cx="65587" cy="20213" r="300"/><circle cx="67602" cy="18134" r="300"/><circle cx="65598" cy="18161" r="300"/><circle cx="69831" cy="23165" r="300"/><circle cx="70846" cy="23158" r="300"/><circle cx="71917" cy="23150" r="300"/><circle cx="74768" cy="20181" r="300"/><circle cx="74752" cy="19220" r="300"/><circle cx="74752" cy="18224" r="300"/><circle cx="95398" cy="18299" r="300"/><circle cx="95413" cy="20327" r="300"/><circle cx="90421" cy="18295" r="300"/><circle cx="90413" cy="20307" r="300"/><circle cx="90476" cy="23220" r="300"/><circle cx="90492" cy="25248" r="300"/><circle cx="85500" cy="23216" r="300"/><circle cx="85492" cy="25228" r="300"/><circle cx="90476" cy="13378" r="300"/><circle cx="90492" cy="15406" r="300"/><circle cx="85500" cy="13374" r="300"/><circle cx="85492" cy="15386" r="300"/><circle cx="85555" cy="18299" r="300"/><circle cx="85571" cy="20327" r="300"/><circle cx="80579" cy="18295" r="300"/><circle cx="80571" cy="20307" r="300"/><circle cx="82874" cy="24409" r="393.7"/><circle cx="82874" cy="26181" r="393.7"/><circle cx="80315" cy="24409" r="393.7"/><circle cx="80315" cy="26181" r="393.7"/><circle cx="77953" cy="24409" r="393.7"/><circle cx="77953" cy="26181" r="393.7"/><circle cx="75394" cy="24409" r="393.7"/><circle cx="75394" cy="26181" r="393.7"/><circle cx="67512" cy="12197" r="300"/><circle cx="68689" cy="12197" r="300"/><g><path d="M70174 11905v600h-600v-600z" fill-rule="evenodd"/></g><g><circle cx="82480" cy="14764" r="275.59"/><circle cx="82480" cy="12764" r="275.59"/><circle cx="81102" cy="14764" r="275.59"/><circle cx="81102" cy="12764" r="275.59"/><circle cx="83858" cy="14795" r="275.59"/><circle cx="83858" cy="12795" r="275.59"/><circle cx="79724" cy="14764" r="275.59"/><circle cx="79724" cy="12764" r="275.59"/><circle cx="78346" cy="14764" r="275.59"/><circle cx="78346" cy="12764" r="275.59"/><circle cx="76968" cy="14795" r="275.59"/><circle cx="76968" cy="12795" r="275.59"/><circle cx="75591" cy="14764" r="275.59"/><circle cx="75591" cy="12764" r="275.59"/><circle cx="72071" cy="11417" r="334.65"/><circle cx="73071" cy="11417" r="334.65"/><circle cx="74071" cy="11417" r="334.65"/><circle cx="75071" cy="11417" r="334.65"/><circle cx="76071" cy="11417" r="334.65"/><circle cx="77071" cy="11417" r="334.65"/><circle cx="78071" cy="11417" r="334.65"/><circle cx="79071" cy="11417" r="334.65"/><circle cx="80071" cy="11417" r="334.65"/><circle cx="81071" cy="11417" r="334.65"/><circle cx="82071" cy="11417" r="334.65"/><path d="M82736 11083h669.3v669.3H82736z" fill-rule="evenodd"/></g></g><path fill="#fff" d="M63900 9822h32772v22677H63900z"/></mask></defs><g fill="none" fill-opacity="0" mask="url(#d)" stroke="#f0f0f0" stroke-linecap="round" stroke-linejoin="round"><g stroke-width="147.64"><path d="M92081 30807l-56-29h-85l-84 29-56 56-28 56-29 113v84l29 112 28 57 56 56 84 28h56l85-28 28-28v-197h-113M92362 30975v394M92362 31032l28-29 56-28h85l56 28 28 57v309M93149 31369v-591M93149 31341l-56 28h-112l-57-28-28-28-28-56v-169l28-56 28-29 57-28h112l56 28M91687 29007l197 590 197-590M92531 29569l-56 28h-113l-56-28-28-28-28-56v-169l28-56 28-28 56-28h113l56 28M93037 29569l-56 28h-113l-56-28-28-28-28-56v-169l28-56 28-28 56-28h113l56 28M85191 31088v281M84994 30778l197 310 197-310M85022 29007l394 590M85416 29007l-394 590M78583 31060h-197M78386 31369v-591h281M78386 29288h197M78667 29597h-281v-590h281M71693 31369v-591h140l85 29 56 56 28 56 28 113v84l-28 112-28 57-56 56-85 28h-140M72030 29541l-28 28-84 28h-57l-84-28-56-56-28-56-28-113v-84l28-113 28-56 56-56 84-28h57l84 28 28 28M65197 31060l84 28 28 28 28 56v85l-28 56-28 28-56 28h-225v-591h197l56 29 28 28 28 56v56l-28 56-28 29-56 28h-197M64972 29429h281M64915 29597l197-590 197 590"/></g><g stroke-width="59.055"><path d="M67125 25787l197 197M67125 26181v-394M67322 25984l-197 197M65748 24212l-197-197M65354 24212h394M65551 24015l-197 197M65551 24015v2166M67322 25984h-1968"/></g><g stroke-width="147.64"><path d="M65585 23529v281M65388 23219l197 310 197-310M67700 25660l393 591M68093 25660l-393 591M79173 24957h-197M78976 25267v-591h281M83897 24957h197M84179 25267h-282v-591h282M86063 19558v-591h140l85 29 56 56 28 56 28 113v84l-28 112-28 57-56 56-85 28h-140M88172 21273l-28 29-85 28h-56l-84-28-56-57-29-56-28-112v-85l28-112 29-57 56-56 84-28h56l85 28 28 28M89803 19249l84 28 28 28 29 56v85l-29 56-28 28-56 28h-225v-591h197l56 29 28 28 28 56v56l-28 56-28 29-56 28h-197M87806 17618h282M87750 17786l197-590 197 590"/></g><g stroke-width="62.992"><circle cx="70860" cy="19217" r="4984.6"/><circle cx="92924" cy="19280" r="2509.8"/><path d="M90515 16955v4705M95290 16955h-4775M95290 21660v-4705M90515 21660h4775M85594 26581h4775M90369 26581v-4704M90369 21877h-4775M85594 21877v4704"/><circle cx="88003" cy="24201" r="2509.8"/><path d="M85594 16739h4775M90369 16739v-4705M90369 12034h-4775M85594 12034v4705"/><circle cx="88003" cy="14359" r="2509.8"/><circle cx="83082" cy="19280" r="2509.8"/><path d="M80672 16955v4705M85448 16955h-4776M85448 21660v-4705M80672 21660h4776"/></g><g stroke-width="47.244"><path d="M82972 25590v-590M82480 24015h-1772M80216 25000v590M80708 26574h1772M78051 25590v-590M77559 24015h-1772M75295 25000v590M75787 26574h1772"/></g><g stroke-width="62.992"><path d="M70777 11125h-4152M66625 11125v2162M66625 13287h4152M70777 13287v-2162"/></g><g stroke-width="47.244"><path d="M82118 13007v1512M82842 13007v1512M80740 13007v1512M81464 13007v1512M83496 13039v1512M84220 13039v1512M79362 13007v1512M80086 13007v1512M77984 13007v1512M78708 13007v1512M76606 13039v1512M77330 13039v1512M75228 13007v1512M75952 13007v1512M83594 11417v523M83594 11940h-524M82570 11940H71547M71547 10893v1047M82570 10893H71547M82570 10893v1047"/></g></g><g fill-opacity="0" stroke-linecap="round" stroke-linejoin="round" stroke-width="39.37" fill="none" stroke="#000"><path d="M64566 32480v-1969M96653 32480H64566M96653 30511v1969M64566 30511V9842M96653 9842v20669M64566 9842h32087"/></g><defs><mask id="b"><path fill="#fff" d="M63900 9822h32772v22677H63900z"/><path stroke="#000" stroke-linecap="round" stroke-width="300" d="M67637 20271h0M65586 20212h0M67602 18133h0M65598 18161h0M69830 23165h0M70846 23157h0M71917 23149h0M74767 20181h0M74751 19220h0M74751 18224h0M95397 18299h0M95413 20326h0M90421 18295h0M90413 20307h0M90476 23220h0M90492 25248h0M85500 23216h0M85492 25228h0M90476 13377h0M90492 15405h0M85500 13374h0M85492 15385h0M85555 18299h0M85570 20326h0M80578 18295h0M80570 20307h0"/><path stroke="#000" stroke-linecap="round" stroke-width="433" d="M82874 24410h0M82874 26182h0M80314 24410h0M80314 26182h0M77952 24408h0M77952 26180h0M75393 24409h0M75393 26181h0"/><path stroke="#000" stroke-linecap="round" stroke-width="300" d="M67512 12196h0M68688 12196h0M69874 12204h0"/><path stroke="#000" stroke-linecap="round" stroke-width="275" d="M82480 14764h0M82480 12764h0M81102 14762h0M81102 12762h0M83858 14794h0M83858 12794h0M79724 14764h0M79724 12764h0M78346 14762h0M78346 12762h0M76968 14796h0M76968 12796h0M75590 14762h0M75590 12762h0"/><path stroke="#000" stroke-linecap="round" stroke-width="393" d="M72070 11418h0M73070 11418h0M74070 11418h0M75070 11418h0M76070 11418h0M77070 11418h0M78070 11418h0M79070 11418h0M80070 11418h0M81070 11418h0M82070 11418h0M83070 11418h0"/></mask></defs></g><g stroke="#191919" stroke-width=".093"><path d="M1583.895 7830.411H546.575v3149.6h1037.32z" fill="#e6e6e6" fill-rule="evenodd" stroke-width="36.6141"/><path d="M1464.84 10566.43H926.26l-8.154-8.154V8251.745l8.154-8.154h538.581z" fill="#4d4d4d" fill-rule="evenodd" stroke-width="36.6141"/><path d="M1522.36 10782.964H743.464v-2755.9h778.896" fill="none" stroke-width="36.6141"/><path d="M6268.335 4456.902c2732.868-3.553 4951.171 2209.011 4954.714 4941.723 3.544 2732.868-2209.011 4951.17-4941.722 4954.714h0c-2732.395 2.883-4949.99-2209.484-4953.533-4941.722-3.552-2732.396 2208.264-4950.384 4940.542-4954.715z" fill="#1a1a1a" fill-rule="evenodd" stroke-width="36.6141"/><path d="M977.204 10290.84a216.535 216.535 0 0 1 414.054-88.71M977.204 8519.19a216.535 216.535 0 0 1 432.44-16.638M1409.604 10307.768a216.535 216.535 0 0 1-432.44-16.635M1391.258 8608.165a216.535 216.535 0 0 1-414.054-88.708M957.519 10723.91h275.59" fill="none" stroke-width="36.6141"/><path d="M1233.109 10586.114v137.795h-275.59v-137.807zM1233.109 8224.111v-137.795h-275.59v137.795z" fill="#999" fill-rule="evenodd" stroke-width="36.6141"/><path d="M1390.589 10290.84c-.906 261.558-392.795 261.554-393.696-.003l-.003.002c-.001-262.468 393.7-262.472 393.7-.002zM1390.589 8519.19c-.906 261.558-392.795 261.554-393.696-.003l-.003.002c-.001-262.468 393.7-262.472 393.7-.002z" fill="#1a1a1a" fill-rule="evenodd" stroke-width="36.6141"/><path d="M6279.752 13204.22c-2097.988 2.365-3800.74-1696.297-3803.496-3794.245-2.728-2097.988 1695.626-3801.055 3793.614-3804.126h0c2098.224-2.728 3801.41 1696.021 3804.126 3794.245 2.717 2098.224-1696.02 3801.41-3794.244 3804.126z" fill="#333" fill-rule="evenodd" stroke-width="36.6141"/><path d="M957.519 10290.84h19.667M957.519 8519.19h19.667M1370.904 10290.84h19.667M1016.574 10290.84h-19.667M996.889 8519.19h19.667M1390.589 8519.19h-19.667" fill="none" stroke-width="36.6141"/></g><g transform="translate(25648 6854.3) scale(393.7)" stroke="#000" stroke-width=".093"><path d="M9.325 12.636h-7.41l-1.08-1.079V9.112h0V4.146h0V1.701L1.915.62h9.856l1.079 1.08v9.856l-1.08 1.079H9.326z" fill="#1a1a1a"/><path d="M1.783 11.576v-.866M1.783 2.549v-.867M11.902 11.576h-.843M2.626 11.576h-.843M11.902 1.682v.867M11.902 10.709v.866M1.783 1.682h.843M11.059 1.682h.843" fill="none"/><path d="M.134 4.622H.66l.175.004v-1.02H.158h0-.024v1.016zM.134 9.652h.701V8.636H.66v0H.158h0-.024V9.65zM13.527 4.622h-.502v0l-.175-.002V3.606H13.55v1.016h-.024zM13.386 8.636h.165v1.016h-.024 0-.677v-1.02l.175.004v0h.361z" fill="#ccc" fill-rule="evenodd"/><circle transform="scale(1 -1)" cx="6.842" cy="-6.629" r="6.5" fill="#000079"/><circle transform="scale(1 -1)" cx="6.842" cy="-6.629" r="6" fill="#00008b"/><path d="M.3 4.622V3.606M.3 9.652V8.636M13.386 3.606v1.016M13.386 8.636v1.016M.158 3.606v1.016M.158 8.636v1.016M13.527 3.606v1.016M13.527 8.636v1.016" fill="none"/><circle transform="scale(1 -1)" cx="6.842" cy="-6.629" r="5.75" fill="#0000b3"/><circle transform="scale(1 -1)" cx="6.842" cy="-6.629" r="4.75" fill="#0000d6"/></g><g transform="translate(20727 11775.3) scale(393.7)" stroke="#000" stroke-width=".093"><path d="M9.325 12.636h-7.41l-1.08-1.079V9.112h0V4.146h0V1.701L1.915.62h9.856l1.079 1.08v9.856l-1.08 1.079H9.326z" fill="#1a1a1a"/><path d="M1.783 11.576v-.866M1.783 2.549v-.867M11.902 11.576h-.843M2.626 11.576h-.843M11.902 1.682v.867M11.902 10.709v.866M1.783 1.682h.843M11.059 1.682h.843" fill="none"/><path d="M.134 4.622H.66l.175.004v-1.02H.158h0-.024v1.016zM.134 9.652h.701V8.636H.66v0H.158h0-.024V9.65zM13.527 4.622h-.502v0l-.175-.002V3.606H13.55v1.016h-.024zM13.386 8.636h.165v1.016h-.024 0-.677v-1.02l.175.004v0h.361z" fill="#ccc" fill-rule="evenodd"/><circle transform="scale(1 -1)" cx="6.842" cy="-6.629" r="6.5" fill="#989800"/><circle transform="scale(1 -1)" cx="6.842" cy="-6.629" r="6" fill="#aeae00"/><path d="M.3 4.622V3.606M.3 9.652V8.636M13.386 3.606v1.016M13.386 8.636v1.016M.158 3.606v1.016M.158 8.636v1.016M13.527 3.606v1.016M13.527 8.636v1.016" fill="none"/><circle transform="scale(1 -1)" cx="6.842" cy="-6.629" r="5.75" fill="#c7c700"/><circle transform="scale(1 -1)" cx="6.842" cy="-6.629" r="4.75" fill="#f4f400"/></g><g transform="translate(20727 1933.3) scale(393.7)" stroke="#000" stroke-width=".093"><path d="M9.325 12.636h-7.41l-1.08-1.079V9.112h0V4.146h0V1.701L1.915.62h9.856l1.079 1.08v9.856l-1.08 1.079H9.326z" fill="#1a1a1a"/><path d="M1.783 11.576v-.866M1.783 2.549v-.867M11.902 11.576h-.843M2.626 11.576h-.843M11.902 1.682v.867M11.902 10.709v.866M1.783 1.682h.843M11.059 1.682h.843" fill="none"/><path d="M.134 4.622H.66l.175.004v-1.02H.158h0-.024v1.016zM.134 9.652h.701V8.636H.66v0H.158h0-.024V9.65zM13.527 4.622h-.502v0l-.175-.002V3.606H13.55v1.016h-.024zM13.386 8.636h.165v1.016h-.024 0-.677v-1.02l.175.004v0h.361z" fill="#ccc" fill-rule="evenodd"/><circle transform="scale(1 -1)" cx="6.842" cy="-6.629" r="6.5" fill="#989800"/><circle transform="scale(1 -1)" cx="6.842" cy="-6.629" r="6" fill="#aeae00"/><path d="M.3 4.622V3.606M.3 9.652V8.636M13.386 3.606v1.016M13.386 8.636v1.016M.158 3.606v1.016M.158 8.636v1.016M13.527 3.606v1.016M13.527 8.636v1.016" fill="none"/><circle transform="scale(1 -1)" cx="6.842" cy="-6.629" r="5.75" fill="#c7c700"/><circle transform="scale(1 -1)" cx="6.842" cy="-6.629" r="4.75" fill="#f4f400"/></g><g transform="translate(15805 6854.3) scale(393.7)" stroke="#000" stroke-width=".093"><path d="M9.325 12.636h-7.41l-1.08-1.079V9.112h0V4.146h0V1.701L1.915.62h9.856l1.079 1.08v9.856l-1.08 1.079H9.326z" fill="#1a1a1a"/><path d="M1.783 11.576v-.866M1.783 2.549v-.867M11.902 11.576h-.843M2.626 11.576h-.843M11.902 1.682v.867M11.902 10.709v.866M1.783 1.682h.843M11.059 1.682h.843" fill="none"/><path d="M.134 4.622H.66l.175.004v-1.02H.158h0-.024v1.016zM.134 9.652h.701V8.636H.66v0H.158h0-.024V9.65zM13.527 4.622h-.502v0l-.175-.002V3.606H13.55v1.016h-.024zM13.386 8.636h.165v1.016h-.024 0-.677v-1.02l.175.004v0h.361z" fill="#ccc" fill-rule="evenodd"/><circle transform="scale(1 -1)" cx="6.842" cy="-6.629" r="6.5" fill="#000079"/><circle transform="scale(1 -1)" cx="6.842" cy="-6.629" r="6" fill="#00008b"/><path d="M.3 4.622V3.606M.3 9.652V8.636M13.386 3.606v1.016M13.386 8.636v1.016M.158 3.606v1.016M.158 8.636v1.016M13.527 3.606v1.016M13.527 8.636v1.016" fill="none"/><circle transform="scale(1 -1)" cx="6.842" cy="-6.629" r="5.75" fill="#0000b3"/><circle transform="scale(1 -1)" cx="6.842" cy="-6.629" r="4.75" fill="#0000d6"/></g><g stroke-width=".093"><g transform="matrix(393.7 0 0 -393.7 15743.385 14582.228)"><path d="M.45.75h5.4a.3.3 0 0 0 .3-.3v-5.4a.3.3 0 0 0-.3-.3H.45a.3.3 0 0 0-.3.3v5.4a.3.3 0 0 0 .3.3z" fill="#666" fill-rule="evenodd" stroke="#191919"/><circle cx="1.15" cy="-4.25" r=".5" fill="#1a1a1a" stroke="#191919"/><circle cx="5.15" cy="-4.25" r=".5" fill="#1a1a1a" stroke="#191919"/><circle cx="1.15" cy="-.25" r=".5" fill="#1a1a1a" stroke="#191919"/><circle cx="5.15" cy="-.25" r=".5" fill="#1a1a1a" stroke="#191919"/><circle cx="3.15" cy="-2.25" r="1.75" fill="none" stroke="#191919"/><path d="M-.425.35h-.012M.14.35h.01M-.162.35h.012M.14-.35h.01" fill="none" stroke="#191919"/><path d="M-.162-.35h-.275v.7h.275z" fill="#ccc" fill-rule="evenodd" stroke="#191919"/><path d="M-.425-.35h-.012" fill="none" stroke="#191919"/><path d="M-.15-.35h.29v.7h-.29" fill="#ccc" fill-rule="evenodd" stroke="#191919"/><path d="M-.162-.35h.012M-.425-4.85h-.012M.14-4.85h.01M-.162-4.85h.012M-.425-4.15h-.012M.14-4.15h.01M-.162-4.15h.012M6.725-4.85h.012M6.16-4.85h-.01" fill="none" stroke="#191919"/><path d="M6.45-4.85h-.29v.7h.577v-.7h-.275z" fill="#ccc" fill-rule="evenodd" stroke="#191919"/><path d="M6.462-4.85H6.45M6.16-4.15h-.01M6.725-4.15h.012M6.462-4.15H6.45M6.725.35h.012M6.16.35h-.01" fill="none" stroke="#191919"/><path d="M6.45.35h-.29v-.7h.577v.7h-.275z" fill="#ccc" fill-rule="evenodd" stroke="#191919"/><path d="M6.462.35H6.45M6.725-.35h.012M6.16-.35h-.01M6.462-.35H6.45M-.15-.35v.7M-.15-4.85v.7M6.45-4.85v.7M6.45-.35v.7" fill="none" stroke="#191919"/><circle cx="3.15" cy="-2.25" r="1.75" fill="none" stroke="#191919"/><circle cx="3.15" cy="-2.25" r="1.65" fill="#1a1a1a" stroke="#191919"/><path d="M-.425-.35v.7M-.425-4.85v.7M6.462-4.85v.7M6.725-4.85v.7M6.462-.35v.7M6.725-.35v.7M4.8-2.25h.1" fill="none" stroke="#191919"/><path d="M-.437-4.85v.7H.14v-.7h-.565z" fill="#ccc" fill-rule="evenodd" stroke="#191919"/><path d="M-.162-4.85v.7" fill="none" stroke="#191919"/></g></g><g stroke-width=".093"><g transform="matrix(393.7 0 0 -393.7 10822.385 14582.228)"><path d="M.45.75h5.4a.3.3 0 0 0 .3-.3v-5.4a.3.3 0 0 0-.3-.3H.45a.3.3 0 0 0-.3.3v5.4a.3.3 0 0 0 .3.3z" fill="#666" fill-rule="evenodd" stroke="#191919"/><circle cx="1.15" cy="-4.25" r=".5" fill="#1a1a1a" stroke="#191919"/><circle cx="5.15" cy="-4.25" r=".5" fill="#1a1a1a" stroke="#191919"/><circle cx="1.15" cy="-.25" r=".5" fill="#1a1a1a" stroke="#191919"/><circle cx="5.15" cy="-.25" r=".5" fill="#1a1a1a" stroke="#191919"/><circle cx="3.15" cy="-2.25" r="1.75" fill="none" stroke="#191919"/><path d="M-.425.35h-.012M.14.35h.01M-.162.35h.012M.14-.35h.01" fill="none" stroke="#191919"/><path d="M-.162-.35h-.275v.7h.275z" fill="#ccc" fill-rule="evenodd" stroke="#191919"/><path d="M-.425-.35h-.012" fill="none" stroke="#191919"/><path d="M-.15-.35h.29v.7h-.29" fill="#ccc" fill-rule="evenodd" stroke="#191919"/><path d="M-.162-.35h.012M-.425-4.85h-.012M.14-4.85h.01M-.162-4.85h.012M-.425-4.15h-.012M.14-4.15h.01M-.162-4.15h.012M6.725-4.85h.012M6.16-4.85h-.01" fill="none" stroke="#191919"/><path d="M6.45-4.85h-.29v.7h.577v-.7h-.275z" fill="#ccc" fill-rule="evenodd" stroke="#191919"/><path d="M6.462-4.85H6.45M6.16-4.15h-.01M6.725-4.15h.012M6.462-4.15H6.45M6.725.35h.012M6.16.35h-.01" fill="none" stroke="#191919"/><path d="M6.45.35h-.29v-.7h.577v.7h-.275z" fill="#ccc" fill-rule="evenodd" stroke="#191919"/><path d="M6.462.35H6.45M6.725-.35h.012M6.16-.35h-.01M6.462-.35H6.45M-.15-.35v.7M-.15-4.85v.7M6.45-4.85v.7M6.45-.35v.7" fill="none" stroke="#191919"/><circle cx="3.15" cy="-2.25" r="1.75" fill="none" stroke="#191919"/><circle cx="3.15" cy="-2.25" r="1.65" fill="#1a1a1a" stroke="#191919"/><path d="M-.425-.35v.7M-.425-4.85v.7M6.462-4.85v.7M6.725-4.85v.7M6.462-.35v.7M6.725-.35v.7M4.8-2.25h.1" fill="none" stroke="#191919"/><path d="M-.437-4.85v.7H.14v-.7h-.565z" fill="#ccc" fill-rule="evenodd" stroke="#191919"/><path d="M-.162-4.85v.7" fill="none" stroke="#191919"/></g></g><g fill-rule="evenodd" stroke="#000" stroke-width=".093"><path d="M2061.811 1294.611h4133.85v2165.35h-4133.85z" fill="gray" stroke-width="36.6141"/><path d="M2061.811 3361.536h4133.85v-1968.5h-4133.85z" fill="#999" stroke-width="36.6141"/><path d="M2927.952 3066.261h2401.57v-1377.95h0-2401.57z" fill="#4d4d4d" stroke-width="36.6141"/><path d="M4288.028 2948.151h-100.252v-1141.73h100.252-.004H4402.2h-.004 114.177-.004 114.177-.003 114.176-.003 114.177-.004 114.177-.004 114.177-.004 114.177-.003 128.094v1141.73H5201.41h.003-114.177.004-114.177.004-114.177.004-114.177.003-114.176.003-114.177.004-114.177.004-114.177z" fill="#1a1a1a" stroke-width="36.6141"/></g><g transform="matrix(0 393.7 393.7 0 17909.332 2935.961)" fill="#faa" stroke-width=".093"><path d="M1.14.8V-.8M3.94.8V-.8M1.14-.8c-.24.021-.374.155-.4.4v.8c0 .22.18.4.4.4h.5V-.8zM3.44-.8V.8h.5a.4.4 0 0 0 .4-.4v-.8c-.026-.245-.16-.379-.4-.4z" fill-rule="evenodd" stroke="#191919"/><path d="M4.34.25h.74c.333 0 .333-.5 0-.5h-.74 0z" fill="#999" fill-rule="evenodd" stroke="#191919"/></g><path d="M18007.772 3227.283h-196.85v-291.338c0-131.232 196.85-131.232 196.85 0z" fill="#999" stroke="#1a1a1a" stroke-width="36.6141"/><path d="M18192.811 4290.273h-566.928v-708.66h566.928z" fill="#e9afaf" stroke="#1a1a1a" stroke-width="36.6141"/><path fill="#500" opacity=".997" stroke="#1a1a1a" stroke-width="36.2204" d="M18191.536 3676.928v71.654h-563.779v-71.654z"/><path opacity=".997" stroke="#1a1a1a" stroke-width="36.2204" d="M18189.567 3821.022v71.654h-563.778v-71.654z"/><path fill="red" opacity=".997" stroke="#1a1a1a" stroke-width="36.2204" d="M18189.174 3967.085v71.653h-563.779v-71.653z"/><path fill="olive" opacity=".997" stroke="#1a1a1a" stroke-width="36.2204" d="M18191.536 4162.36v71.654h-563.779v-71.654z"/><g><g transform="matrix(0 393.7 393.7 0 16531.332 2935.961)" fill="#faa" stroke-width=".093"><path d="M1.14.8V-.8M3.94.8V-.8M1.14-.8c-.24.021-.374.155-.4.4v.8c0 .22.18.4.4.4h.5V-.8zM3.44-.8V.8h.5a.4.4 0 0 0 .4-.4v-.8c-.026-.245-.16-.379-.4-.4z" fill-rule="evenodd" stroke="#191919"/><path d="M4.34.25h.74c.333 0 .333-.5 0-.5h-.74 0z" fill="#999" fill-rule="evenodd" stroke="#191919"/></g><path d="M16629.772 3227.283h-196.85v-291.338c0-131.232 196.85-131.232 196.85 0z" fill="#999" stroke="#1a1a1a" stroke-width="36.6141"/><path d="M16814.811 4290.273h-566.928v-708.66h566.928z" fill="#e9afaf" stroke="#1a1a1a" stroke-width="36.6141"/><path fill="#500" opacity=".997" stroke="#1a1a1a" stroke-width="36.2204" d="M16813.536 3676.928v71.654h-563.779v-71.654z"/><path opacity=".997" stroke="#1a1a1a" stroke-width="36.2204" d="M16811.567 3821.022v71.654h-563.778v-71.654z"/><path fill="red" opacity=".997" stroke="#1a1a1a" stroke-width="36.2204" d="M16811.174 3967.085v71.653h-563.779v-71.653z"/><path fill="olive" opacity=".997" stroke="#1a1a1a" stroke-width="36.2204" d="M16813.536 4162.36v71.654h-563.779v-71.654z"/></g><g><g transform="matrix(0 393.7 393.7 0 19287.332 2967.961)" fill="#faa" stroke-width=".093"><path d="M1.14.8V-.8M3.94.8V-.8M1.14-.8c-.24.021-.374.155-.4.4v.8c0 .22.18.4.4.4h.5V-.8zM3.44-.8V.8h.5a.4.4 0 0 0 .4-.4v-.8c-.026-.245-.16-.379-.4-.4z" fill-rule="evenodd" stroke="#191919"/><path d="M4.34.25h.74c.333 0 .333-.5 0-.5h-.74 0z" fill="#999" fill-rule="evenodd" stroke="#191919"/></g><path d="M19385.772 3259.283h-196.85v-291.338c0-131.232 196.85-131.232 196.85 0z" fill="#999" stroke="#1a1a1a" stroke-width="36.6141"/><path d="M19570.811 4322.273h-566.928v-708.66h566.928z" fill="#e9afaf" stroke="#1a1a1a" stroke-width="36.6141"/><path fill="#500" opacity=".997" stroke="#1a1a1a" stroke-width="36.2204" d="M19569.536 3708.928v71.654h-563.779v-71.654z"/><path opacity=".997" stroke="#1a1a1a" stroke-width="36.2204" d="M19567.567 3853.022v71.654h-563.778v-71.654z"/><path fill="red" opacity=".997" stroke="#1a1a1a" stroke-width="36.2204" d="M19567.174 3999.085v71.653h-563.779v-71.653z"/><path fill="olive" opacity=".997" stroke="#1a1a1a" stroke-width="36.2204" d="M19569.536 4194.36v71.654h-563.779v-71.654z"/></g><g><g transform="matrix(0 393.7 393.7 0 15153.332 2935.961)" fill="#faa" stroke-width=".093"><path d="M1.14.8V-.8M3.94.8V-.8M1.14-.8c-.24.021-.374.155-.4.4v.8c0 .22.18.4.4.4h.5V-.8zM3.44-.8V.8h.5a.4.4 0 0 0 .4-.4v-.8c-.026-.245-.16-.379-.4-.4z" fill-rule="evenodd" stroke="#191919"/><path d="M4.34.25h.74c.333 0 .333-.5 0-.5h-.74 0z" fill="#999" fill-rule="evenodd" stroke="#191919"/></g><path d="M15251.772 3227.283h-196.85v-291.338c0-131.232 196.85-131.232 196.85 0z" fill="#999" stroke="#1a1a1a" stroke-width="36.6141"/><path d="M15436.811 4290.273h-566.928v-708.66h566.928z" fill="#e9afaf" stroke="#1a1a1a" stroke-width="36.6141"/><path fill="#500" opacity=".997" stroke="#1a1a1a" stroke-width="36.2204" d="M15435.536 3676.928v71.654h-563.779v-71.654z"/><path opacity=".997" stroke="#1a1a1a" stroke-width="36.2204" d="M15433.567 3821.022v71.654h-563.778v-71.654z"/><path fill="red" opacity=".997" stroke="#1a1a1a" stroke-width="36.2204" d="M15433.174 3967.085v71.653h-563.779v-71.653z"/><path fill="olive" opacity=".997" stroke="#1a1a1a" stroke-width="36.2204" d="M15435.536 4162.36v71.654h-563.779v-71.654z"/></g><g><g transform="matrix(0 393.7 393.7 0 13775.332 2935.961)" fill="#faa" stroke-width=".093"><path d="M1.14.8V-.8M3.94.8V-.8M1.14-.8c-.24.021-.374.155-.4.4v.8c0 .22.18.4.4.4h.5V-.8zM3.44-.8V.8h.5a.4.4 0 0 0 .4-.4v-.8c-.026-.245-.16-.379-.4-.4z" fill-rule="evenodd" stroke="#191919"/><path d="M4.34.25h.74c.333 0 .333-.5 0-.5h-.74 0z" fill="#999" fill-rule="evenodd" stroke="#191919"/></g><path d="M13873.772 3227.283h-196.85v-291.338c0-131.232 196.85-131.232 196.85 0z" fill="#999" stroke="#1a1a1a" stroke-width="36.6141"/><path d="M14058.811 4290.273h-566.928v-708.66h566.928z" fill="#e9afaf" stroke="#1a1a1a" stroke-width="36.6141"/><path fill="#500" opacity=".997" stroke="#1a1a1a" stroke-width="36.2204" d="M14057.536 3676.928v71.654h-563.779v-71.654z"/><path opacity=".997" stroke="#1a1a1a" stroke-width="36.2204" d="M14055.567 3821.022v71.654h-563.778v-71.654z"/><path fill="red" opacity=".997" stroke="#1a1a1a" stroke-width="36.2204" d="M14055.174 3967.085v71.653h-563.779v-71.653z"/><path fill="olive" opacity=".997" stroke="#1a1a1a" stroke-width="36.2204" d="M14057.536 4162.36v71.654h-563.779v-71.654z"/></g><g><g transform="matrix(0 393.7 393.7 0 12397.332 2967.961)" fill="#faa" stroke-width=".093"><path d="M1.14.8V-.8M3.94.8V-.8M1.14-.8c-.24.021-.374.155-.4.4v.8c0 .22.18.4.4.4h.5V-.8zM3.44-.8V.8h.5a.4.4 0 0 0 .4-.4v-.8c-.026-.245-.16-.379-.4-.4z" fill-rule="evenodd" stroke="#191919"/><path d="M4.34.25h.74c.333 0 .333-.5 0-.5h-.74 0z" fill="#999" fill-rule="evenodd" stroke="#191919"/></g><path d="M12495.772 3259.283h-196.85v-291.338c0-131.232 196.85-131.232 196.85 0z" fill="#999" stroke="#1a1a1a" stroke-width="36.6141"/><path d="M12680.811 4322.273h-566.928v-708.66h566.928z" fill="#e9afaf" stroke="#1a1a1a" stroke-width="36.6141"/><path fill="#500" opacity=".997" stroke="#1a1a1a" stroke-width="36.2204" d="M12679.536 3708.928v71.654h-563.779v-71.654z"/><path opacity=".997" stroke="#1a1a1a" stroke-width="36.2204" d="M12677.567 3853.022v71.654h-563.778v-71.654z"/><path fill="red" opacity=".997" stroke="#1a1a1a" stroke-width="36.2204" d="M12677.174 3999.085v71.653h-563.779v-71.653z"/><path fill="olive" opacity=".997" stroke="#1a1a1a" stroke-width="36.2204" d="M12679.536 4194.36v71.654h-563.779v-71.654z"/></g><g><g transform="matrix(0 393.7 393.7 0 11019.332 2935.961)" fill="#faa" stroke-width=".093"><path d="M1.14.8V-.8M3.94.8V-.8M1.14-.8c-.24.021-.374.155-.4.4v.8c0 .22.18.4.4.4h.5V-.8zM3.44-.8V.8h.5a.4.4 0 0 0 .4-.4v-.8c-.026-.245-.16-.379-.4-.4z" fill-rule="evenodd" stroke="#191919"/><path d="M4.34.25h.74c.333 0 .333-.5 0-.5h-.74 0z" fill="#999" fill-rule="evenodd" stroke="#191919"/></g><path d="M11117.772 3227.283h-196.85v-291.338c0-131.232 196.85-131.232 196.85 0z" fill="#999" stroke="#1a1a1a" stroke-width="36.6141"/><path d="M11302.811 4290.273h-566.928v-708.66h566.928z" fill="#e9afaf" stroke="#1a1a1a" stroke-width="36.6141"/><path fill="#500" opacity=".997" stroke="#1a1a1a" stroke-width="36.2204" d="M11301.536 3676.928v71.654h-563.779v-71.654z"/><path opacity=".997" stroke="#1a1a1a" stroke-width="36.2204" d="M11299.567 3821.022v71.654h-563.778v-71.654z"/><path fill="red" opacity=".997" stroke="#1a1a1a" stroke-width="36.2204" d="M11299.174 3967.085v71.653h-563.779v-71.653z"/><path fill="olive" opacity=".997" stroke="#1a1a1a" stroke-width="36.2204" d="M11301.536 4162.36v71.654h-563.779v-71.654z"/></g><g stroke="#000" stroke-width=".093"><path d="M6999.182 2090.298h11999.976V1090.3H6999.182z" fill="#1a1a1a" fill-rule="evenodd" stroke-width="36.6141"/><path d="M18734.985 1826.519v-472.44h-472.44v472.44z" fill="#333" fill-rule="evenodd" stroke-width="36.6141"/><path d="M18262.545 1354.079l117.716 117.716M18262.545 1826.519l117.716-117.716M18380.261 1471.795v237.008M18734.985 1354.079l-117.716 117.716M18617.269 1471.795h-237.008M18734.985 1826.519l-117.716-117.716M18617.269 1708.803v-237.008M18380.261 1708.803h237.008" fill="none" stroke-width="36.6141"/><path d="M18616.875 1708.409v-236.22h-236.22v236.22z" fill="olive" fill-rule="evenodd" stroke-width="36.6141"/><path d="M18597.19 1550.929h19.685M18400.34 1550.929h196.85M18380.655 1550.929h19.685M18380.655 1629.669h19.685M18400.34 1550.929v78.74M18400.34 1629.669h196.85M18597.19 1629.669h19.685M18597.19 1550.929v78.74" fill="none" stroke-width="36.6141"/><g><path d="M17734.987 1826.519v-472.44h-472.44v472.44z" fill="#333" fill-rule="evenodd" stroke-width="36.6141"/><path d="M17262.547 1354.079l117.716 117.716M17262.547 1826.519l117.716-117.716M17380.263 1471.795v237.008M17734.987 1354.079l-117.717 117.716M17617.27 1471.795h-237.007M17734.987 1826.519l-117.717-117.716M17617.27 1708.803v-237.008M17380.263 1708.803h237.007" fill="none" stroke-width="36.6141"/><path d="M17616.877 1708.409v-236.22h-236.22v236.22z" fill="olive" fill-rule="evenodd" stroke-width="36.6141"/><path d="M17597.192 1550.929h19.685M17400.342 1550.929h196.85M17380.657 1550.929h19.685M17380.657 1629.669h19.685M17400.342 1550.929v78.74M17400.342 1629.669h196.85M17597.192 1629.669h19.685M17597.192 1550.929v78.74" fill="none" stroke-width="36.6141"/></g><g><path d="M16734.989 1826.519v-472.44h-472.44v472.44z" fill="#333" fill-rule="evenodd" stroke-width="36.6141"/><path d="M16262.549 1354.079l117.716 117.716M16262.549 1826.519l117.716-117.716M16380.265 1471.795v237.008M16734.989 1354.079l-117.716 117.716M16617.273 1471.795h-237.008M16734.989 1826.519l-117.716-117.716M16617.273 1708.803v-237.008M16380.265 1708.803h237.008" fill="none" stroke-width="36.6141"/><path d="M16616.879 1708.409v-236.22h-236.22v236.22z" fill="olive" fill-rule="evenodd" stroke-width="36.6141"/><path d="M16597.194 1550.929h19.685M16400.344 1550.929h196.85M16380.659 1550.929h19.685M16380.659 1629.669h19.685M16400.344 1550.929v78.74M16400.344 1629.669h196.85M16597.194 1629.669h19.685M16597.194 1550.929v78.74" fill="none" stroke-width="36.6141"/></g><g><path d="M15734.99 1826.519v-472.44h-472.44v472.44z" fill="#333" fill-rule="evenodd" stroke-width="36.6141"/><path d="M15262.55 1354.079l117.717 117.716M15262.55 1826.519l117.717-117.716M15380.267 1471.795v237.008M15734.99 1354.079l-117.716 117.716M15617.274 1471.795h-237.007M15734.99 1826.519l-117.716-117.716M15617.274 1708.803v-237.008M15380.267 1708.803h237.007" fill="none" stroke-width="36.6141"/><path d="M15616.88 1708.409v-236.22h-236.22v236.22z" fill="olive" fill-rule="evenodd" stroke-width="36.6141"/><path d="M15597.196 1550.929h19.685M15400.346 1550.929h196.85M15380.66 1550.929h19.686M15380.66 1629.669h19.686M15400.346 1550.929v78.74M15400.346 1629.669h196.85M15597.196 1629.669h19.685M15597.196 1550.929v78.74" fill="none" stroke-width="36.6141"/></g><g><path d="M14734.993 1826.519v-472.44h-472.44v472.44z" fill="#333" fill-rule="evenodd" stroke-width="36.6141"/><path d="M14262.553 1354.079l117.716 117.716M14262.553 1826.519l117.716-117.716M14380.27 1471.795v237.008M14734.993 1354.079l-117.716 117.716M14617.277 1471.795h-237.008M14734.993 1826.519l-117.716-117.716M14617.277 1708.803v-237.008M14380.27 1708.803h237.007" fill="none" stroke-width="36.6141"/><path d="M14616.883 1708.409v-236.22h-236.22v236.22z" fill="olive" fill-rule="evenodd" stroke-width="36.6141"/><path d="M14597.198 1550.929h19.685M14400.348 1550.929h196.85M14380.663 1550.929h19.685M14380.663 1629.669h19.685M14400.348 1550.929v78.74M14400.348 1629.669h196.85M14597.198 1629.669h19.685M14597.198 1550.929v78.74" fill="none" stroke-width="36.6141"/></g><g><path d="M13734.995 1826.519v-472.44h-472.44v472.44z" fill="#333" fill-rule="evenodd" stroke-width="36.6141"/><path d="M13262.555 1354.079l117.716 117.716M13262.555 1826.519l117.716-117.716M13380.271 1471.795v237.008M13734.995 1354.079l-117.717 117.716M13617.279 1471.795h-237.008M13734.995 1826.519l-117.717-117.716M13617.279 1708.803v-237.008M13380.271 1708.803h237.007" fill="none" stroke-width="36.6141"/><path d="M13616.885 1708.409v-236.22h-236.22v236.22z" fill="olive" fill-rule="evenodd" stroke-width="36.6141"/><path d="M13597.2 1550.929h19.685M13400.35 1550.929h196.85M13380.665 1550.929h19.685M13380.665 1629.669h19.685M13400.35 1550.929v78.74M13400.35 1629.669h196.85M13597.2 1629.669h19.685M13597.2 1550.929v78.74" fill="none" stroke-width="36.6141"/></g><g><path d="M12734.997 1826.519v-472.44h-472.44v472.44z" fill="#333" fill-rule="evenodd" stroke-width="36.6141"/><path d="M12262.557 1354.079l117.716 117.716M12262.557 1826.519l117.716-117.716M12380.273 1471.795v237.008M12734.997 1354.079l-117.716 117.716M12617.28 1471.795h-237.007M12734.997 1826.519l-117.716-117.716M12617.28 1708.803v-237.008M12380.273 1708.803h237.007" fill="none" stroke-width="36.6141"/><path d="M12616.887 1708.409v-236.22h-236.22v236.22z" fill="olive" fill-rule="evenodd" stroke-width="36.6141"/><path d="M12597.202 1550.929h19.685M12400.352 1550.929h196.85M12380.667 1550.929h19.685M12380.667 1629.669h19.685M12400.352 1550.929v78.74M12400.352 1629.669h196.85M12597.202 1629.669h19.685M12597.202 1550.929v78.74" fill="none" stroke-width="36.6141"/></g><g><path d="M11734.999 1826.519v-472.44h-472.44v472.44z" fill="#333" fill-rule="evenodd" stroke-width="36.6141"/><path d="M11262.559 1354.079l117.716 117.716M11262.559 1826.519l117.716-117.716M11380.275 1471.795v237.008M11734.999 1354.079l-117.716 117.716M11617.283 1471.795h-237.008M11734.999 1826.519l-117.716-117.716M11617.283 1708.803v-237.008M11380.275 1708.803h237.007" fill="none" stroke-width="36.6141"/><path d="M11616.889 1708.409v-236.22h-236.22v236.22z" fill="olive" fill-rule="evenodd" stroke-width="36.6141"/><path d="M11597.204 1550.929h19.685M11400.354 1550.929h196.85M11380.669 1550.929h19.685M11380.669 1629.669h19.685M11400.354 1550.929v78.74M11400.354 1629.669h196.85M11597.204 1629.669h19.685M11597.204 1550.929v78.74" fill="none" stroke-width="36.6141"/></g><g><path d="M10735 1826.519v-472.44h-472.44v472.44z" fill="#333" fill-rule="evenodd" stroke-width="36.6141"/><path d="M10262.56 1354.079l117.717 117.716M10262.56 1826.519l117.717-117.716M10380.277 1471.795v237.008M10735 1354.079l-117.715 117.716M10617.285 1471.795h-237.008M10735 1826.519l-117.715-117.716M10617.285 1708.803v-237.008M10380.277 1708.803h237.007" fill="none" stroke-width="36.6141"/><path d="M10616.89 1708.409v-236.22h-236.22v236.22z" fill="olive" fill-rule="evenodd" stroke-width="36.6141"/><path d="M10597.206 1550.929h19.685M10400.356 1550.929h196.85M10380.67 1550.929h19.686M10380.67 1629.669h19.686M10400.356 1550.929v78.74M10400.356 1629.669h196.85M10597.206 1629.669h19.685M10597.206 1550.929v78.74" fill="none" stroke-width="36.6141"/></g><g><path d="M9735.003 1826.519v-472.44h-472.44v472.44z" fill="#333" fill-rule="evenodd" stroke-width="36.6141"/><path d="M9262.563 1354.079l117.716 117.716M9262.563 1826.519l117.716-117.716M9380.28 1471.795v237.008M9735.003 1354.079l-117.716 117.716M9617.287 1471.795h-237.008M9735.003 1826.519l-117.716-117.716M9617.287 1708.803v-237.008M9380.28 1708.803h237.006" fill="none" stroke-width="36.6141"/><path d="M9616.893 1708.409v-236.22h-236.22v236.22z" fill="olive" fill-rule="evenodd" stroke-width="36.6141"/><path d="M9597.208 1550.929h19.685M9400.358 1550.929h196.85M9380.673 1550.929h19.685M9380.673 1629.669h19.685M9400.358 1550.929v78.74M9400.358 1629.669h196.85M9597.208 1629.669h19.685M9597.208 1550.929v78.74" fill="none" stroke-width="36.6141"/></g><g><path d="M8735.005 1826.519v-472.44h-472.44v472.44z" fill="#333" fill-rule="evenodd" stroke-width="36.6141"/><path d="M8262.565 1354.079l117.716 117.716M8262.565 1826.519l117.716-117.716M8380.281 1471.795v237.008M8735.005 1354.079l-117.716 117.716M8617.289 1471.795H8380.28M8735.005 1826.519l-117.716-117.716M8617.289 1708.803v-237.008M8380.281 1708.803h237.007" fill="none" stroke-width="36.6141"/><path d="M8616.895 1708.409v-236.22h-236.22v236.22z" fill="olive" fill-rule="evenodd" stroke-width="36.6141"/><path d="M8597.21 1550.929h19.685M8400.36 1550.929h196.85M8380.675 1550.929h19.685M8380.675 1629.669h19.685M8400.36 1550.929v78.74M8400.36 1629.669h196.85M8597.21 1629.669h19.685M8597.21 1550.929v78.74" fill="none" stroke-width="36.6141"/></g><g><path d="M7735.007 1826.519v-472.44h-472.44v472.44z" fill="#333" fill-rule="evenodd" stroke-width="36.6141"/><path d="M7262.567 1354.079l117.716 117.716M7262.567 1826.519l117.716-117.716M7380.283 1471.795v237.008M7735.007 1354.079l-117.716 117.716M7617.29 1471.795h-237.007M7735.007 1826.519l-117.716-117.716M7617.29 1708.803v-237.008M7380.283 1708.803h237.008" fill="none" stroke-width="36.6141"/><path d="M7616.897 1708.409v-236.22h-236.22v236.22z" fill="olive" fill-rule="evenodd" stroke-width="36.6141"/><path d="M7597.212 1550.929h19.685M7400.362 1550.929h196.85M7380.677 1550.929h19.685M7380.677 1629.669h19.685M7400.362 1550.929v78.74M7400.362 1629.669h196.85M7597.212 1629.669h19.685M7597.212 1550.929v78.74" fill="none" stroke-width="36.6141"/></g></g></svg>