<svg width="209" height="325" viewBox="0 0 15059 23405" xmlns="http://www.w3.org/2000/svg"><g clip-path="url(#a)" mask="url(#b)" transform="translate(-46132 -18416)"><defs><clipPath id="a"><path d="M46220 41811h14961V18425H46141v23386h79" fill-rule="evenodd"/></clipPath></defs><g fill="#313d63" stroke="#313d63"><path d="M46220 41811h14961V18425H46141v23386h79" fill-rule="evenodd"/><g fill-opacity="0" stroke-linecap="round" stroke-linejoin="round" stroke-width="19.685" fill="none" stroke="#000"><path d="M46141 41811h79M46141 18425v23386M61181 18425H46141M61181 41811V18425M46220 41811h14961"/></g></g><g fill-opacity="1" stroke="none" stroke-linecap="round" stroke-linejoin="round" stroke-width="0" fill="#9c6b28"><circle cx="56709" cy="19528" r="334.65"/><circle cx="55709" cy="19528" r="334.65"/><circle cx="54709" cy="19528" r="334.65"/><circle cx="53709" cy="19528" r="334.65"/><circle cx="52709" cy="19528" r="334.65"/><circle cx="51709" cy="19528" r="334.65"/><path d="M51043 19862h-669.3v-669.3h669.3z" fill-rule="evenodd"/><circle cx="56756" cy="21323" r="300"/><circle cx="55772" cy="21323" r="300"/><circle cx="54787" cy="21323" r="300"/><circle cx="53764" cy="21323" r="300"/><circle cx="52740" cy="21323" r="300"/><circle cx="51756" cy="21323" r="300"/><circle cx="50732" cy="21315" r="300"/></g><g fill="#212d53" stroke="#212d53" stroke-linecap="round" stroke-linejoin="round" stroke-width="0"><g fill-opacity="1" stroke="none"><circle cx="56709" cy="19528" r="334.65"/><circle cx="55709" cy="19528" r="334.65"/><circle cx="54709" cy="19528" r="334.65"/><circle cx="53709" cy="19528" r="334.65"/><circle cx="52709" cy="19528" r="334.65"/><circle cx="51709" cy="19528" r="334.65"/><path d="M51043 19862h-669.3v-669.3h669.3z" fill-rule="evenodd"/><circle cx="56756" cy="21323" r="300"/><circle cx="55772" cy="21323" r="300"/><circle cx="54787" cy="21323" r="300"/><circle cx="53764" cy="21323" r="300"/><circle cx="52740" cy="21323" r="300"/><circle cx="51756" cy="21323" r="300"/><circle cx="50732" cy="21315" r="300"/></g><g stroke="none"><circle cx="56709" cy="19528" r="68.898"/><circle cx="55709" cy="19528" r="68.898"/><circle cx="54709" cy="19528" r="68.898"/><circle cx="53709" cy="19528" r="68.898"/><circle cx="52709" cy="19528" r="68.898"/><circle cx="51709" cy="19528" r="68.898"/><circle cx="50709" cy="19528" r="68.898"/><circle cx="56756" cy="21323" r="68.898"/><circle cx="55772" cy="21323" r="68.898"/><circle cx="54787" cy="21323" r="68.898"/><circle cx="53764" cy="21323" r="68.898"/><circle cx="52740" cy="21323" r="68.898"/><circle cx="51756" cy="21323" r="68.898"/><circle cx="50732" cy="21315" r="68.898"/></g></g><g fill="#b5ae30" mask="url(#c)" stroke="#b5ae30" stroke-linecap="round" stroke-linejoin="round" stroke-width="0"><g fill-opacity="1" stroke="none"><circle cx="56709" cy="19528" r="334.65"/><circle cx="55709" cy="19528" r="334.65"/><circle cx="54709" cy="19528" r="334.65"/><circle cx="53709" cy="19528" r="334.65"/><circle cx="52709" cy="19528" r="334.65"/><circle cx="51709" cy="19528" r="334.65"/><path d="M51043 19862h-669.3v-669.3h669.3z" fill-rule="evenodd"/><circle cx="56756" cy="21323" r="300"/><circle cx="55772" cy="21323" r="300"/><circle cx="54787" cy="21323" r="300"/><circle cx="53764" cy="21323" r="300"/><circle cx="52740" cy="21323" r="300"/><circle cx="51756" cy="21323" r="300"/><circle cx="50732" cy="21315" r="300"/></g><g stroke="none"><circle cx="56709" cy="19528" r="68.898"/><circle cx="55709" cy="19528" r="68.898"/><circle cx="54709" cy="19528" r="68.898"/><circle cx="53709" cy="19528" r="68.898"/><circle cx="52709" cy="19528" r="68.898"/><circle cx="51709" cy="19528" r="68.898"/><circle cx="50709" cy="19528" r="68.898"/><circle cx="56756" cy="21323" r="68.898"/><circle cx="55772" cy="21323" r="68.898"/><circle cx="54787" cy="21323" r="68.898"/><circle cx="53764" cy="21323" r="68.898"/><circle cx="52740" cy="21323" r="68.898"/><circle cx="51756" cy="21323" r="68.898"/><circle cx="50732" cy="21315" r="68.898"/></g></g><defs><mask id="c"><g fill="#fff" fill-opacity="1" stroke="#fff" stroke-linecap="round" stroke-linejoin="round" stroke-width="0"><circle cx="56709" cy="19528" r="334.65"/><circle cx="55709" cy="19528" r="334.65"/><circle cx="54709" cy="19528" r="334.65"/><circle cx="53709" cy="19528" r="334.65"/><circle cx="52709" cy="19528" r="334.65"/><circle cx="51709" cy="19528" r="334.65"/><path d="M51043 19862h-669.3v-669.3h669.3z" fill-rule="evenodd"/><circle cx="56756" cy="21323" r="300"/><circle cx="55772" cy="21323" r="300"/><circle cx="54787" cy="21323" r="300"/><circle cx="53764" cy="21323" r="300"/><circle cx="52740" cy="21323" r="300"/><circle cx="51756" cy="21323" r="300"/><circle cx="50732" cy="21315" r="300"/></g></mask></defs><defs><mask id="d"><g fill-opacity="1" stroke="#000" stroke-linecap="round" stroke-linejoin="round" stroke-width="0"><circle cx="56709" cy="19528" r="334.65"/><circle cx="55709" cy="19528" r="334.65"/><circle cx="54709" cy="19528" r="334.65"/><circle cx="53709" cy="19528" r="334.65"/><circle cx="52709" cy="19528" r="334.65"/><circle cx="51709" cy="19528" r="334.65"/><path d="M51043 19862h-669.3v-669.3h669.3z" fill-rule="evenodd"/><circle cx="56756" cy="21323" r="300"/><circle cx="55772" cy="21323" r="300"/><circle cx="54787" cy="21323" r="300"/><circle cx="53764" cy="21323" r="300"/><circle cx="52740" cy="21323" r="300"/><circle cx="51756" cy="21323" r="300"/><circle cx="50732" cy="21315" r="300"/></g><path fill="#fff" d="M46131 18415h15059v23405H46131z"/></mask></defs><g fill="#f0f0f0" fill-opacity="0" mask="url(#d)" stroke="#f0f0f0" stroke-linecap="round" stroke-linejoin="round"><g stroke-width="147.64"><path d="M47688 41028v338M47688 41197h-591l85 56 56 57 28 56M47463 40775v-450M47125 39735l-28 56v84l28 85 57 56 56 28 112 28h85l112-28 57-28 56-56 28-85v-56l-28-84-28-28h-197v112M47688 39454h-591l591-338h-591M47688 38835h-591v-141l28-84 57-56 56-28 112-29h85l112 29 57 28 56 56 28 84v141M49221 41366l-29-28-28-57v-140l28-56 29-28 56-29h56l84 29 338 337v-366M49530 40775v-450M49164 40129l591-197-591-197M49699 39200l28 29 28 84v56l-28 85-57 56-56 28-112 28h-85l-112-28-56-28-57-56-28-85v-56l28-84 29-29M49699 38610l28 28 28 84v57l-28 84-57 56-56 28-112 29h-85l-112-29-56-28-57-56-28-84v-57l28-84 29-28M51231 41394v-366l225 197v-84l28-56 28-28 57-29h140l57 29 28 28 28 56v169l-28 56-28 28M51597 40775v-450M51766 39707l28 28 28 84v56l-28 85-57 56-56 28-112 28h-85l-112-28-56-28-57-56-28-85v-56l28-84 28-28M51822 39172v282h-591M51822 38976h-591M51822 38638l-338 253M51231 38638l338 338M53495 41085h394M53270 41225l422 141v-366M53664 40775v-450M53889 40044h-591v-140l28-85 57-56 56-28 112-28h85l112 28 56 28 57 56 28 85v140M53889 39454h-591M53889 39172h-591l591-337h-591M55365 41057v281l281 28-28-28-28-57v-140l28-56 28-28 57-29h140l56 29 29 28 28 56v140l-28 57-29 28M55731 40775v-450M55337 39622l759 507M55956 39088l-282 197M55956 39425h-591v-225l28-56 28-28 57-28h84l56 28 28 28 28 56v225M55646 38835v-197M55956 38554v281h-591v-281M55928 38329l28-85v-140l-28-56-29-29-56-28h-56l-56 28-28 29-29 56-28 112-28 56-28 29-56 28h-56l-57-28-28-29-28-56v-140l28-85M57432 41085v112l28 56 28 28 85 57 112 28h225l56-28 28-28 29-57v-112l-29-56-28-28-56-29h-141l-56 29-28 28-28 56v112l28 57 28 28 56 28M57798 40775v-450M58023 40044h-591v-140l28-85 56-56 57-28 112-28h84l113 28 56 28 56 56 29 85v140M57966 39116l28 28 29 85v56l-29 84-56 56-56 29-113 28h-84l-112-28-57-29-56-56-28-84v-56l28-85 28-28M59499 41394v-394l590 253M59865 40775v-450M59471 39622l759 507M60033 39088l28 28 28 84v57l-28 84-56 56-56 28-113 29h-84l-112-29-57-28-56-56-28-84v-57l28-84 28-28M60061 38863l28-84v-141l-28-56-28-28-56-28h-56l-56 28-29 28-28 56-28 113-28 56-28 28-56 28h-57l-56-28-28-28-28-56v-141l28-84" fill="none"/></g><g stroke-width="47.244" fill="none"><path d="M51208 20051v-1048M51208 20051h6024M57232 20051v-1048M51208 19003h6024M50185 19003h523M50185 19527v-524"/></g><g stroke-width="62.992" fill="none"><circle cx="58334" cy="31979" r="651.97"/><circle cx="49108" cy="31979" r="659.06"/><circle cx="58341" cy="21550" r="661.42"/><circle cx="49126" cy="21535" r="638.98"/><path d="M48348 20709v12150M59125 20709H48348M59125 32859V20709M48348 32859h10777"/></g></g><g fill-opacity="0" stroke-linecap="round" stroke-linejoin="round" stroke-width="19.685" fill="none" stroke="#000"><path d="M46141 41811h79M46141 18425v23386M61181 18425H46141M61181 41811V18425M46220 41811h14961"/></g><defs><mask id="b"><path fill="#fff" d="M46131 18415h15059v23405H46131z"/><path stroke="#000" stroke-linecap="round" stroke-width="393" d="M56708 19527h0M55708 19527h0M54708 19527h0M53708 19527h0M52708 19527h0M51708 19527h0M50708 19527h0"/><path stroke="#000" stroke-linecap="round" stroke-width="300" d="M56755 21322h0M55771 21322h0M54787 21322h0M53763 21322h0M52740 21322h0M51755 21322h0M50732 21314h0"/></mask></defs></g><g stroke="#000" stroke-width=".093"><path d="M4076.001 1610.999h6999.986V611.001H4076.001v999.998z" fill="#1a1a1a" fill-rule="evenodd" stroke-width="36.6141"/><path d="M10812.05 1347.22V874.78h-472.44v472.44z" fill="#666" fill-rule="evenodd" stroke-width="36.6141"/><path d="M10693.94 1229.11V992.89h-236.22v236.22z" fill="olive" fill-rule="evenodd" stroke-width="36.6141"/><path d="M10812.05 1347.22l-117.716-117.716M10812.05 874.78l-117.716 117.716M10694.334 1229.504V992.496M10339.61 1347.22l117.717-117.716M10457.327 1229.504h237.007M10339.61 874.78l117.717 117.716M10457.327 992.496v237.008M10694.334 992.496h-237.007M10477.406 1150.37h-19.685M10674.256 1150.37h-196.85M10693.94 1150.37h-19.684M10693.94 1071.63h-19.684M10674.256 1150.37v-78.74M10674.256 1071.63h-196.85M10477.406 1071.63h-19.685M10477.406 1150.37v-78.74" fill="none" stroke-width="36.6141"/><g><path d="M9812.053 1347.22V874.78h-472.44v472.44z" fill="#666" fill-rule="evenodd" stroke-width="36.6141"/><path d="M9693.943 1229.11V992.89h-236.22v236.22z" fill="olive" fill-rule="evenodd" stroke-width="36.6141"/><path d="M9812.053 1347.22l-117.717-117.716M9812.053 874.78l-117.717 117.716M9694.336 1229.504V992.496M9339.613 1347.22l117.716-117.716M9457.329 1229.504h237.007M9339.613 874.78l117.716 117.716M9457.329 992.496v237.008M9694.336 992.496H9457.33M9477.408 1150.37h-19.685M9674.258 1150.37h-196.85M9693.943 1150.37h-19.685M9693.943 1071.63h-19.685M9674.258 1150.37v-78.74M9674.258 1071.63h-196.85M9477.408 1071.63h-19.685M9477.408 1150.37v-78.74" fill="none" stroke-width="36.6141"/></g><g><path d="M8812.055 1347.22V874.78h-472.44v472.44z" fill="#666" fill-rule="evenodd" stroke-width="36.6141"/><path d="M8693.945 1229.11V992.89h-236.22v236.22z" fill="olive" fill-rule="evenodd" stroke-width="36.6141"/><path d="M8812.055 1347.22l-117.717-117.716M8812.055 874.78l-117.717 117.716M8694.338 1229.504V992.496M8339.615 1347.22l117.716-117.716M8457.33 1229.504h237.008M8339.615 874.78l117.716 117.716M8457.33 992.496v237.008M8694.338 992.496h-237.007M8477.41 1150.37h-19.685M8674.26 1150.37h-196.85M8693.945 1150.37h-19.685M8693.945 1071.63h-19.685M8674.26 1150.37v-78.74M8674.26 1071.63h-196.85M8477.41 1071.63h-19.685M8477.41 1150.37v-78.74" fill="none" stroke-width="36.6141"/></g><g><path d="M7812.057 1347.22V874.78h-472.44v472.44z" fill="#666" fill-rule="evenodd" stroke-width="36.6141"/><path d="M7693.947 1229.11V992.89h-236.22v236.22z" fill="olive" fill-rule="evenodd" stroke-width="36.6141"/><path d="M7812.057 1347.22l-117.717-117.716M7812.057 874.78L7694.34 992.496M7694.34 1229.504V992.496M7339.617 1347.22l117.716-117.716M7457.333 1229.504h237.007M7339.617 874.78l117.716 117.716M7457.333 992.496v237.008M7694.34 992.496h-237.007M7477.412 1150.37h-19.685M7674.262 1150.37h-196.85M7693.947 1150.37h-19.685M7693.947 1071.63h-19.685M7674.262 1150.37v-78.74M7674.262 1071.63h-196.85M7477.412 1071.63h-19.685M7477.412 1150.37v-78.74" fill="none" stroke-width="36.6141"/></g><g><path d="M6812.059 1347.22V874.78h-472.44v472.44z" fill="#666" fill-rule="evenodd" stroke-width="36.6141"/><path d="M6693.949 1229.11V992.89h-236.22v236.22z" fill="olive" fill-rule="evenodd" stroke-width="36.6141"/><path d="M6812.059 1347.22l-117.717-117.716M6812.059 874.78l-117.717 117.716M6694.342 1229.504V992.496M6339.619 1347.22l117.716-117.716M6457.335 1229.504h237.007M6339.619 874.78l117.716 117.716M6457.335 992.496v237.008M6694.342 992.496h-237.007M6477.414 1150.37h-19.685M6674.264 1150.37h-196.85M6693.949 1150.37h-19.685M6693.949 1071.63h-19.685M6674.264 1150.37v-78.74M6674.264 1071.63h-196.85M6477.414 1071.63h-19.685M6477.414 1150.37v-78.74" fill="none" stroke-width="36.6141"/></g><g><path d="M5812.06 1347.22V874.78h-472.44v472.44z" fill="#666" fill-rule="evenodd" stroke-width="36.6141"/><path d="M5693.95 1229.11V992.89h-236.22v236.22z" fill="olive" fill-rule="evenodd" stroke-width="36.6141"/><path d="M5812.06 1347.22l-117.716-117.716M5812.06 874.78l-117.716 117.716M5694.344 1229.504V992.496M5339.62 1347.22l117.717-117.716M5457.337 1229.504h237.007M5339.62 874.78l117.717 117.716M5457.337 992.496v237.008M5694.344 992.496h-237.007M5477.416 1150.37h-19.685M5674.266 1150.37h-196.85M5693.95 1150.37h-19.684M5693.95 1071.63h-19.684M5674.266 1150.37v-78.74M5674.266 1071.63h-196.85M5477.416 1071.63h-19.685M5477.416 1150.37v-78.74" fill="none" stroke-width="36.6141"/></g><g><path d="M4812.063 1347.22V874.78h-472.44v472.44z" fill="#666" fill-rule="evenodd" stroke-width="36.6141"/><path d="M4693.953 1229.11V992.89h-236.22v236.22z" fill="olive" fill-rule="evenodd" stroke-width="36.6141"/><path d="M4812.063 1347.22l-117.717-117.716M4812.063 874.78l-117.717 117.716M4694.346 1229.504V992.496M4339.623 1347.22l117.716-117.716M4457.339 1229.504h237.007M4339.623 874.78l117.716 117.716M4457.339 992.496v237.008M4694.346 992.496H4457.34M4477.418 1150.37h-19.685M4674.268 1150.37h-196.85M4693.953 1150.37h-19.685M4693.953 1071.63h-19.685M4674.268 1150.37v-78.74M4674.268 1071.63h-196.85M4477.418 1071.63h-19.685M4477.418 1150.37v-78.74" fill="none" stroke-width="36.6141"/></g></g><g transform="translate(2110.373 2187.296) scale(393.7)"><path d="M8.757 28.417l10.973.074v0c.754.225 1.27.918 1.27 1.704v.864h6.655V.274H.275v30.785h6.654v-.864c0-.982.796-1.778 1.778-1.778z" fill="#007e9d" stroke="#000" stroke-width=".093"/><circle transform="scale(1 -1)" cx="6.344" cy="-1.788" r=".635" fill="#b3b3b3" stroke="#191919" stroke-width=".093"/><circle transform="scale(1 -1)" cx="21.584" cy="-1.788" r=".635" fill="#b3b3b3" stroke="#191919" stroke-width=".093"/><circle transform="scale(1 -1)" cx="19.044" cy="-1.788" r=".635" fill="#b3b3b3" stroke="#191919" stroke-width=".093"/><circle transform="scale(1 -1)" cx="16.504" cy="-1.788" r=".635" fill="#b3b3b3" stroke="#191919" stroke-width=".093"/><circle transform="scale(1 -1)" cx="13.964" cy="-1.788" r=".635" fill="#b3b3b3" stroke="#191919" stroke-width=".093"/><circle transform="scale(1 -1)" cx="11.424" cy="-1.788" r=".635" fill="#b3b3b3" stroke="#191919" stroke-width=".093"/><path d="M26.906 21.762H1.023V4.49h25.883z" fill="#28262d" fill-rule="evenodd" stroke="#191919" stroke-width=".093"/><path d="M25.829 5.39v15.7H2.05V5.39z" fill="#0f0f17" fill-rule="evenodd" stroke="#191919" stroke-width=".093"/><path d="M21.425 3.157l.166.05v0a.302.302 0 0 1-.053.118.233.233 0 0 1-.09.071.335.335 0 0 1-.136.024.391.391 0 0 1-.164-.03.263.263 0 0 1-.11-.101.345.345 0 0 1-.046-.188c0-.101.027-.18.081-.234.054-.055.131-.082.23-.082a.31.31 0 0 1 .183.047.277.277 0 0 1 .099.144h0l-.167.037v0a.111.111 0 0 0-.058-.074.114.114 0 0 0-.052-.013.112.112 0 0 0-.1.052.222.222 0 0 0-.026.121c0 .068.01.115.031.14.021.026.05.038.088.038.037 0 .064-.01.083-.03s.032-.05.041-.09zM18.532 3.41v-.615h.282c.056 0 .101.008.135.023a.22.22 0 0 1 .085.065.26.26 0 0 1 .049.098c.01.038.015.078.015.12a.41.41 0 0 1-.023.152.252.252 0 0 1-.062.091.209.209 0 0 1-.085.05.437.437 0 0 1-.114.016h-.282zM16.617 3.025h.297v.125h-.297v.121h.329v.139h-.52v-.615h.511v.131h-.32v.099zM14.893 3.309h-.215l-.03.101h0-.195l.231-.615h.209l.23.615h-.199l-.031-.101zM13.732 2.968l-.179.01v0c-.004-.027-.015-.048-.03-.06s-.036-.019-.062-.019c-.022 0-.039.004-.05.014a.044.044 0 0 0-.017.034c0 .01.005.019.014.026a.16.16 0 0 0 .063.023.745.745 0 0 1 .178.054c.036.019.063.041.079.069a.174.174 0 0 1 .024.09c0 .04-.01.076-.032.11a.205.205 0 0 1-.092.075.367.367 0 0 1-.148.026c-.104 0-.176-.02-.216-.06a.239.239 0 0 1-.069-.154h0l.18-.011v0c.005.03.013.051.024.066a.1.1 0 0 0 .084.038c.027 0 .048-.006.063-.02a.057.057 0 0 0 .022-.043.056.056 0 0 0-.02-.043.246.246 0 0 0-.098-.036.41.41 0 0 1-.178-.074.159.159 0 0 1-.026-.207.184.184 0 0 1 .082-.067.385.385 0 0 1 .151-.024.31.31 0 0 1 .18.044c.041.029.065.075.073.139zM11.822 3.157l.166.05v0a.302.302 0 0 1-.053.118.231.231 0 0 1-.09.071.338.338 0 0 1-.136.024.39.39 0 0 1-.164-.03.26.26 0 0 1-.11-.101.348.348 0 0 1-.046-.188c0-.101.027-.18.082-.234a.31.31 0 0 1 .23-.082.31.31 0 0 1 .182.047.277.277 0 0 1 .1.144h0l-.168.037v0a.148.148 0 0 0-.019-.041.112.112 0 0 0-.09-.046.113.113 0 0 0-.1.052.22.22 0 0 0-.026.121c0 .068.01.115.03.14.022.026.05.038.088.038.037 0 .065-.01.084-.03s.032-.05.04-.09zM9.672 3.157l.166.05v0a.309.309 0 0 1-.053.118.227.227 0 0 1-.09.071.338.338 0 0 1-.136.024.394.394 0 0 1-.164-.03.259.259 0 0 1-.11-.101.348.348 0 0 1-.046-.188c0-.101.027-.18.081-.234a.31.31 0 0 1 .23-.082c.078 0 .138.015.183.047a.277.277 0 0 1 .1.144h0l-.168.037v0a.149.149 0 0 0-.02-.041.112.112 0 0 0-.09-.046.113.113 0 0 0-.1.052.22.22 0 0 0-.026.121c0 .068.01.115.032.14.02.026.05.038.087.038.037 0 .064-.01.083-.03a.186.186 0 0 0 .04-.09zM8.303 3.41h-.206l-.232-.615h.198l.139.442.137-.442h.192zM5.967 2.795h.177l.233.34v-.34h.179v.615h-.18l-.23-.34v.34h-.18z" fill="#f2f2f2" fill-rule="evenodd" stroke="#f2f2f2" stroke-width=".013"/><circle transform="scale(1 -1)" cx="25.661" cy="-28.844" r="1.651" fill="#b3b3b3" stroke="#191919" stroke-width=".093"/><circle transform="scale(1 -1)" cx="2.268" cy="-28.844" r="1.651" fill="#b3b3b3" stroke="#191919" stroke-width=".093"/><circle transform="scale(1 -1)" cx="2.268" cy="-2.377" r="1.651" fill="#b3b3b3" stroke="#191919" stroke-width=".093"/><circle transform="scale(1 -1)" cx="25.661" cy="-2.377" r="1.651" fill="#b3b3b3" stroke="#191919" stroke-width=".093"/><path d="M8.757 28.417h-.05z" fill="green" fill-rule="evenodd" stroke="#191919" stroke-width=".093"/><path d="M5.844 2.96l-.183.031v0a.098.098 0 0 0-.039-.052.12.12 0 0 0-.068-.018.123.123 0 0 0-.1.043c-.024.029-.037.074-.037.137 0 .066.013.114.038.142.025.029.06.043.104.043.022 0 .042-.003.061-.01s.042-.016.067-.03h0v-.059H5.56V3.06h.293v.262a.613.613 0 0 1-.15.078.503.503 0 0 1-.153.02.372.372 0 0 1-.178-.036.257.257 0 0 1-.108-.111.364.364 0 0 1-.038-.17c0-.066.014-.125.042-.174a.27.27 0 0 1 .122-.113.393.393 0 0 1 .168-.03c.068 0 .118.006.152.019a.194.194 0 0 1 .084.057c.022.026.039.058.05.098zM6.684 3.41v-.615h.282c.056 0 .101.008.135.023a.22.22 0 0 1 .085.065.266.266 0 0 1 .049.098c.01.038.015.078.015.12a.41.41 0 0 1-.023.152.252.252 0 0 1-.062.091.209.209 0 0 1-.085.05.437.437 0 0 1-.114.016h-.282zM9.004 3.157l.166.05v0a.309.309 0 0 1-.054.118c-.024.031-.054.055-.09.071s-.08.024-.135.024a.393.393 0 0 1-.165-.03.259.259 0 0 1-.11-.101.348.348 0 0 1-.045-.188c0-.101.027-.18.08-.234.055-.055.132-.082.231-.082.077 0 .138.015.183.047a.277.277 0 0 1 .099.144h0l-.168.037v0a.139.139 0 0 0-.018-.041.112.112 0 0 0-.092-.046.113.113 0 0 0-.099.052.22.22 0 0 0-.026.121c0 .068.01.115.031.14.02.025.05.038.088.038.036 0 .064-.01.083-.03a.19.19 0 0 0 .04-.09zM11.296 2.968l-.18.01v0c-.004-.027-.014-.048-.029-.06s-.036-.019-.063-.019c-.021 0-.038.004-.05.014a.044.044 0 0 0-.016.034c0 .01.005.019.014.026.009.008.03.016.063.023a.756.756 0 0 1 .178.054c.036.019.062.041.079.069a.192.192 0 0 1-.008.2.205.205 0 0 1-.092.075.37.37 0 0 1-.148.026c-.104 0-.176-.02-.217-.06a.237.237 0 0 1-.068-.154h0l.18-.011v0c.004.03.013.051.024.066a.1.1 0 0 0 .084.038c.027 0 .048-.006.062-.02a.057.057 0 0 0 .023-.043.057.057 0 0 0-.021-.043.246.246 0 0 0-.097-.036.414.414 0 0 1-.178-.074.159.159 0 0 1-.026-.207.183.183 0 0 1 .082-.067.39.39 0 0 1 .151-.024c.078 0 .138.015.18.044.04.029.065.075.073.139zM12.567 3.258v.152h-.486v-.615h.19v.463zM13.85 3.41v-.615h.282c.056 0 .1.008.135.023a.22.22 0 0 1 .085.065.267.267 0 0 1 .049.098c.01.038.015.078.015.12a.418.418 0 0 1-.023.152.247.247 0 0 1-.062.091.207.207 0 0 1-.086.05.443.443 0 0 1-.113.016h-.282zM16.367 3.41h-.215l-.103-.188a.157.157 0 0 0-.034-.048.076.076 0 0 0-.047-.014h-.017 0v.25h-.19v-.615h.317c.059 0 .104.005.135.015.03.01.056.029.075.056.019.028.028.06.028.1a.173.173 0 0 1-.021.088.166.166 0 0 1-.061.06.228.228 0 0 1-.067.024h0c.023.008.04.016.05.023a.18.18 0 0 1 .03.033c.013.017.022.03.026.038.03.06.063.119.094.178zM17.015 3.206l.18-.011v0c.004.03.012.051.024.066a.1.1 0 0 0 .084.038c.027 0 .048-.006.062-.02a.058.058 0 0 0 .022-.043.057.057 0 0 0-.02-.043.246.246 0 0 0-.098-.036.414.414 0 0 1-.177-.074.15.15 0 0 1-.054-.119c0-.031.01-.061.027-.089a.18.18 0 0 1 .083-.066.388.388 0 0 1 .151-.024c.079 0 .138.015.18.044.04.029.065.075.073.139h0l-.179.01v0c-.005-.028-.015-.048-.03-.06s-.036-.02-.063-.02c-.022 0-.038.005-.05.015a.043.043 0 0 0-.016.034c0 .01.005.019.014.026a.16.16 0 0 0 .063.023.767.767 0 0 1 .178.054c.036.019.062.041.078.069a.173.173 0 0 1 .025.09c0 .04-.01.076-.032.11a.203.203 0 0 1-.092.075.37.37 0 0 1-.148.026c-.104 0-.177-.02-.217-.06a.238.238 0 0 1-.068-.154zM19.609 3.157l.166.05v0a.302.302 0 0 1-.053.118.233.233 0 0 1-.09.071.335.335 0 0 1-.136.024.393.393 0 0 1-.164-.03.261.261 0 0 1-.11-.101.345.345 0 0 1-.046-.188c0-.101.027-.18.081-.234.054-.055.131-.082.23-.082.078 0 .139.015.183.047a.274.274 0 0 1 .099.144h0l-.167.037v0a.138.138 0 0 0-.019-.041.112.112 0 0 0-.091-.046.112.112 0 0 0-.1.052.223.223 0 0 0-.026.121c0 .068.011.115.031.14.02.026.05.038.088.038.037 0 .065-.01.083-.03a.192.192 0 0 0 .041-.09zM21.65 3.206l.18-.011v0c.005.03.012.051.024.066a.1.1 0 0 0 .084.038c.027 0 .048-.006.062-.02a.058.058 0 0 0 .022-.043.057.057 0 0 0-.02-.043.245.245 0 0 0-.098-.036.412.412 0 0 1-.177-.074.15.15 0 0 1-.054-.119c0-.031.01-.061.027-.089a.18.18 0 0 1 .083-.066.388.388 0 0 1 .15-.024c.08 0 .14.015.18.044.042.029.066.075.074.139h0l-.179.01v0c-.005-.028-.015-.048-.03-.06s-.036-.02-.063-.02c-.022 0-.038.005-.05.015a.043.043 0 0 0-.016.034c0 .01.005.019.014.026a.16.16 0 0 0 .063.023.754.754 0 0 1 .178.054c.036.019.062.041.079.069a.174.174 0 0 1 .024.09c0 .04-.01.076-.032.11a.203.203 0 0 1-.092.075.37.37 0 0 1-.148.026c-.104 0-.177-.02-.217-.06a.238.238 0 0 1-.068-.154z" fill="#f2f2f2" fill-rule="evenodd" stroke="#f2f2f2" stroke-width=".013"/><circle transform="scale(1 -1)" cx="6.344" cy="-1.788" r=".406" fill="#1a1a1a" stroke="#191919" stroke-width=".093"/><circle transform="scale(1 -1)" cx="8.884" cy="-1.788" r=".635" fill="#b3b3b3" stroke="#191919" stroke-width=".093"/><circle transform="scale(1 -1)" cx="8.884" cy="-1.788" r=".406" fill="#1a1a1a" stroke="#191919" stroke-width=".093"/><circle transform="scale(1 -1)" cx="11.424" cy="-1.788" r=".406" fill="#1a1a1a" stroke="#191919" stroke-width=".093"/><circle transform="scale(1 -1)" cx="13.964" cy="-1.788" r=".406" fill="#1a1a1a" stroke="#191919" stroke-width=".093"/><circle transform="scale(1 -1)" cx="16.504" cy="-1.788" r=".406" fill="#1a1a1a" stroke="#191919" stroke-width=".093"/><circle transform="scale(1 -1)" cx="19.044" cy="-1.788" r=".406" fill="#1a1a1a" stroke="#191919" stroke-width=".093"/><circle transform="scale(1 -1)" cx="21.584" cy="-1.788" r=".406" fill="#1a1a1a" stroke="#191919" stroke-width=".093"/><circle transform="scale(1 -1)" cx="25.661" cy="-2.377" r="1.067" fill="#fff9fc" stroke="#191919" stroke-width=".093"/><circle transform="scale(1 -1)" cx="2.268" cy="-2.377" r="1.067" fill="#fff9fc" stroke="#191919" stroke-width=".093"/><circle transform="scale(1 -1)" cx="2.268" cy="-28.844" r="1.067" fill="#fff9fc" stroke="#191919" stroke-width=".093"/><circle transform="scale(1 -1)" cx="25.661" cy="-28.844" r="1.067" fill="#fff9fc" stroke="#191919" stroke-width=".093"/><path d="M8.757 24.881H3.278v-1.688l-1.177-1.43h23.863L24.65 23.07v1.81H8.758z" fill="#807a6c" fill-rule="evenodd" stroke="#191919" stroke-width=".093"/><path d="M6.875 2.933v.337h.046c.04 0 .068-.004.085-.013a.09.09 0 0 0 .039-.047.292.292 0 0 0 .014-.106c0-.065-.01-.11-.032-.134-.021-.024-.056-.036-.105-.037h-.047zM14.041 2.933v.337h.047c.04 0 .068-.004.084-.013a.09.09 0 0 0 .04-.047.292.292 0 0 0 .014-.106c0-.065-.01-.11-.032-.134-.021-.024-.056-.036-.106-.037h-.047zM14.786 2.955l-.068.221h.135zM15.952 2.919v.126h.08a.309.309 0 0 0 .051-.009.05.05 0 0 0 .031-.02.059.059 0 0 0 .013-.035.058.058 0 0 0-.02-.046c-.012-.01-.036-.016-.071-.016h-.084zM18.723 2.933v.337h.046c.04 0 .068-.004.085-.013a.092.092 0 0 0 .04-.047.287.287 0 0 0 .014-.106c0-.065-.01-.11-.032-.134-.021-.024-.056-.036-.106-.037h-.047z" fill="#007e9d" fill-rule="evenodd" stroke="#f2f2f2" stroke-width=".013"/><path d="M19.73 31.061H8.757v-9.3H19.73v9.297z" fill="#221c1e" fill-rule="evenodd" stroke="#191919" stroke-width=".093"/></g></svg>