<svg width="482" height="457" viewBox="0 0 33484 31746" xmlns="http://www.w3.org/2000/svg"><g fill="#313d63" stroke="#313d63"><path d="M69291 41338H35826V16141h33465v25197" fill-rule="evenodd" transform="matrix(.99993 0 0 1.2586 -35813 -20305)"/><g fill-opacity="0" stroke-linecap="round" stroke-linejoin="round" stroke-width="19.685" fill="none" stroke="#000"><path d="M69291 16141v25197M35826 16141h33465M35826 41338V16141M69291 41338H35826" transform="matrix(.99993 0 0 1.2586 -35813 -20305)"/></g></g><g fill="#f0f0f0" fill-opacity="0" stroke="#f0f0f0" stroke-linecap="round" stroke-linejoin="round" stroke-width="147.64"><path d="M32166 30939.1v337M32166 31108.1h-590l84 56 56 56 28 56M31772 30433.1h394M31548 30573.1l421 141v-366M31941 30123.1v-449M32166 29392.1h-590v-140l28-85 56-56 56-28 113-28h84l113 28 56 28 56 56 28 85v140M31576 28858.1v-394l590 253M29909 30939.1v337M29909 31108.1h-591l85 56 56 56 28 56M29318 30742.1v-365l225 196v-84l28-56 28-28 57-28h140l56 28 29 28 28 56v169l-28 56-29 28M29684 30123.1v-449M29909 29392.1h-591v-140l28-85 57-56 56-28 112-28h85l112 28 56 28 57 56 28 85v140M29318 28549.1v112l28 56 28 29 85 56 112 28h225l56-28 29-28 28-57v-112l-28-56-29-28-56-29h-140l-57 29-28 28-28 56v112l28 57 28 28 57 28M20460 30770.1v-112l-28-56-28-29-85-56-112-28h-225l-56 28-29 28-28 57v112l28 56 29 28 56 29h140l57-29 28-28 28-56v-112l-28-57-28-28-57-28M20235 30236.1v-450M20460 29505.1h-591v-141l28-84 57-56 56-29 112-28h85l112 28 57 29 56 56 28 84v141M19926 28942.1l-29-28-28-56v-141l28-56 29-28 56-28h56l84 28 338 337v-365M27442 30939.1v337M27442 31108.1h-591l85 56 56 56 28 56M26907 30714.1l-28-28-28-56v-141l28-56 28-28 57-28h56l84 28 338 337v-365M27217 30123.1v-449M27442 29392.1h-591v-140l28-85 57-56 56-28 112-28h85l112 28 56 28 57 56 28 85v140M26851 28521.1v281l281 28-28-28-28-56v-141l28-56 28-28 57-29h140l57 29 28 28 28 56v141l-28 56-28 28M17760 30714.1l-28 56-28 28-56 29h-28l-57-29-28-28-28-56v-112l28-57 28-28 57-28h28l56 28 28 28 28 57v112l28 56 28 28 57 29h112l56-29 29-28 28-56v-112l-28-57-29-28-56-28h-112l-57 28-28 28-28 57M17873 30236.1v-450M18098 29505.1h-591v-141l28-84 56-56 57-29 112-28h85l112 28 56 29 57 56 28 84v141M18098 28605.1v337M18098 28774.1h-591l84 56 57 56 28 56M15145 30855.1v-394l590 253M15511 30236.1v-450M15735 29505.1h-590v-141l28-84 56-56 57-29 112-28h84l113 28 56 29 56 56 28 84v141M15145 28802.1v-56l28-57 28-28 56-28 113-28h141l112 28 56 28 28 28 28 57v56l-28 56-28 28-56 28-112 28h-141l-113-28-56-28-28-28-28-56M22717 30939.1v337M22717 31108.1h-590l84 56 56 56 29 56M22127 30573.1v-56l28-56 28-28 56-28 113-28h140l113 28 56 28 28 28 28 56v56l-28 57-28 28-56 28-113 28h-140l-113-28-56-28-28-28-28-57M22492 30123.1v-449M22717 29392.1h-590v-140l28-85 56-56 56-28 113-28h84l113 28 56 28 56 56 28 85v140M22127 28858.1v-366l225 197v-84l28-56 28-28 56-29h141l56 29 28 28 28 56v169l-28 56-28 28M25080 30939.1v337M25080 31108.1h-591l84 56 57 56 28 56M25080 30377.1v337M25080 30545.1h-591l84 57 57 56 28 56M24855 30123.1v-449M25080 29392.1h-591v-140l28-85 56-56 57-28 112-28h84l113 28 56 28 56 56 29 85v140M24686 28549.1h394M24461 28689.1l422 141v-366M13072 30545.1v113l28 56 28 28 84 56 113 29h225l56-29 28-28 28-56v-112l-28-57-28-28-56-28h-141l-56 28-28 28-28 57v112l28 56 28 28 56 29M13437 30236.1v-450M13353 29505.1v-197M13662 29224.1v281h-590v-281M13662 28970.1h-590l590-337h-590M10709 30517.1v281l282 29-28-29-29-56v-140l29-57 28-28 56-28h141l56 28 28 28 28 57v140l-28 56-28 29M11075 30236.1v-450M11300 29167.1l-281 197M11300 29505.1h-591v-225l29-56 28-29 56-28h84l57 28 28 29 28 56v225M10709 28970.1l591-140-422-113 422-112-591-141M8544 30545.1h394M8319 30686.1l422 141v-366M8713 30236.1v-450M8938 29167.1l-281 197M8938 29505.1h-591v-225l28-56 29-29 56-28h84l56 28 29 29 28 56v225M8910 28942.1l28-84v-141l-28-56-28-28-57-28h-56l-56 28-28 28-28 56-28 113-29 56-28 28-56 28h-56l-56-28-29-28-28-56v-141l28-84M6090 30855.1v-366l225 197v-84l28-57 28-28 56-28h141l56 28 28 28 28 57v168l-28 57-28 28M6455 30236.1v-450M6090 29589.1l590-197-590-197M6652 28774.1l28 56v112l-28 57-56 28h-225l-56-28-28-57v-112l28-56 56-28h56l57 281M6652 28267.1l28 57v112l-28 56-56 29h-225l-56-29-28-56v-112l28-57 56-28h56l57 282M3784 30827.1l-28-29-28-56v-140l28-57 28-28 56-28h56l85 28 337 338v-366M4093 30236.1v-450M3728 29589.1l590-197-590-197M4290 28746.1l28 56v112l-28 56-28 29-56 28h-169l-56-28-28-29-29-56v-112l29-56M4290 28239.1l28 57v112l-28 56-28 28-56 29h-169l-56-29-28-28-29-56v-112l29-57M1956 30489.1v338M1956 30658.1h-591l85 56 56 56 28 57M1731 30236.1v-450M1365 29589.1l591-197-591-197M1928 29027.1l28-57v-112l-28-56-56-28h-29l-56 28-28 56v84l-28 57-56 28h-28l-57-28-28-57v-84l28-56M1928 28549.1l28-57v-112l-28-56-56-28h-29l-56 28-28 56v84l-28 57-56 28h-28l-57-28-28-57v-84l28-56" fill="none"/></g><g fill-opacity="0" stroke-linecap="round" stroke-linejoin="round" stroke-width="19.685" fill="none" stroke="#000"><path d="M69291 16141v25197M35826 16141h33465M35826 41338V16141M69291 41338H35826" transform="matrix(.99993 0 0 1.2582 -35813 -20298)"/></g><g transform="translate(1088.7 1239.2) scale(393.84)" stroke="#000"><path d="M32.998 52.734h47.078V.113H.114v52.621z" fill="#5f6d9a" stroke-width=".112"/><path d="M74.787 44.181H5.402l-.045-.005-.044-.011-.043-.02-.041-.025-.04-.034-.036-.04-.034-.045-.03-.052-.026-.056-.021-.06-.017-.064-.013-.066-.007-.068-.003-.069v-.813h-.5l-.045-.005-.044-.011-.043-.02-.041-.026-.04-.033-.036-.04-.034-.046-.03-.051-.025-.056-.022-.06-.017-.064-.013-.066-.007-.068-.003-.07V7.598l.003-.069.007-.068.013-.066.017-.064.022-.06.026-.056.03-.051.033-.046.036-.04.04-.033.041-.027.043-.019.044-.011.045-.004h.5v-.768l.003-.069.007-.068.013-.066.017-.063.021-.06.026-.057.03-.051.034-.046.036-.04.04-.033.04-.027.044-.019.044-.011.045-.004h69.385c.22 0 .4.275.4.614v.768h.5l.045.003.044.012.043.02.041.025.04.034.036.04.033.045.03.052.026.056.022.06.017.064.013.066.007.068.003.069v34.54l-.003.07-.007.068-.013.066-.017.063-.022.06-.026.057-.03.051-.033.046-.037.04-.039.033-.041.026-.043.02-.045.01-.044.005h-.5v.814c0 .34-.18.614-.4.614z" fill="#1a1a1a" fill-rule="evenodd" stroke-width=".115"/><path d="M71.094 52.675h-.54M68.554 52.675h-.54M66.014 52.675h-.54M63.474 52.675h-.54M60.934 52.675h-.54M58.394 52.675h-.54M55.854 52.675h-.54M53.314 52.675h-.54M50.774 52.675h-.54M48.234 52.675h-.54M45.694 52.675h-.54M43.154 52.675h-.54M40.614 52.675h-.54M38.074 52.675h-.54M35.534 52.675h-.54" fill="none" stroke-width=".093"/><circle transform="scale(1 -1)" cx="2.594" cy="-2.594" r="1.25" fill="#1a1a1a" stroke-width=".093"/><path d="M5.394 5.594a.4.4 0 0 0-.4.4" fill="none" stroke-width=".093"/><path d="M5.48 44.236c-.222 0-.4-.2-.4-.446h70.115v-.59h-.4v1.036" fill="none" stroke-width=".098"/><circle transform="scale(1 -1)" cx="77.594" cy="-2.594" r="1.25" fill="#1a1a1a" stroke-width=".093"/><circle transform="scale(1 -1)" cx="77.594" cy="-50.175" r="1.25" fill="#1a1a1a" stroke-width=".093"/><circle transform="scale(1 -1)" cx="2.594" cy="-50.175" r="1.25" fill="#1a1a1a" stroke-width=".093"/><path d="M74.794 5.594v.4h-69.8" fill="none" stroke-width=".093"/><path d="M4.146 7.723c0-.337.18-.61.4-.61v35.611c-.22 0-.4-.274-.4-.611M76.082 42.086c0 .337-.18.611-.4.611V7.102c.22 0 .4.274.4.611" fill="none" stroke-width=".114"/><path d="M71.094 50.175c0-1.333 2-1.333 2 0v2.5h-2z" fill="#b3b3b3" fill-rule="evenodd" stroke-width=".093"/><path d="M72.594 50.175c0-.667-1-.667-1 0s1 .667 1 0z" fill-rule="evenodd" stroke-width=".093"/><path d="M71.094 50.175a1 1 0 0 0 2 0M71.594 50.175h-.5M73.094 50.175h-.5" fill="none" stroke-width=".093"/><path d="M72.576 38.988H7.614c-.276 0-.5-.404-.5-.902v-27.07c0-.499.224-.903.5-.903h64.962c.276 0 .5.404.5.903v27.07c0 .498-.224.902-.5.902z" fill="#008200" fill-rule="evenodd" stroke-width=".124"/><path d="M66.014 50.175c0-1.333 2-1.333 2 0v2.5h-2z" fill="#b3b3b3" fill-rule="evenodd" stroke-width=".093"/><path d="M67.514 50.175c0-.667-1-.667-1 0s1 .667 1 0z" fill-rule="evenodd" stroke-width=".093"/><path d="M66.014 50.175a1 1 0 0 0 2 0M66.514 50.175h-.5M68.014 50.175h-.5" fill="none" stroke-width=".093"/><path d="M68.554 50.175c0-1.333 2-1.333 2 0v2.5h-2z" fill="#b3b3b3" fill-rule="evenodd" stroke-width=".093"/><path d="M70.054 50.175c0-.667-1-.667-1 0s1 .667 1 0z" fill-rule="evenodd" stroke-width=".093"/><path d="M68.554 50.175a1 1 0 0 0 2 0M69.054 50.175h-.5M70.554 50.175h-.5" fill="none" stroke-width=".093"/><path d="M63.474 50.175c0-1.333 2-1.333 2 0v2.5h-2z" fill="#b3b3b3" fill-rule="evenodd" stroke-width=".093"/><path d="M64.974 50.175c0-.667-1-.667-1 0s1 .667 1 0z" fill-rule="evenodd" stroke-width=".093"/><path d="M63.474 50.175a1 1 0 0 0 2 0M63.974 50.175h-.5M65.474 50.175h-.5" fill="none" stroke-width=".093"/><path d="M60.934 50.175c0-1.333 2-1.333 2 0v2.5h-2z" fill="#b3b3b3" fill-rule="evenodd" stroke-width=".093"/><path d="M62.434 50.175c0-.667-1-.667-1 0s1 .667 1 0z" fill-rule="evenodd" stroke-width=".093"/><path d="M60.934 50.175a1 1 0 0 0 2 0M61.434 50.175h-.5M62.934 50.175h-.5" fill="none" stroke-width=".093"/><path d="M55.854 50.175c0-1.333 2-1.333 2 0v2.5h-2z" fill="#b3b3b3" fill-rule="evenodd" stroke-width=".093"/><path d="M57.354 50.175c0-.667-1-.667-1 0s1 .667 1 0z" fill-rule="evenodd" stroke-width=".093"/><path d="M55.854 50.175a1 1 0 0 0 2 0M56.354 50.175h-.5M57.854 50.175h-.5" fill="none" stroke-width=".093"/><path d="M58.394 50.175c0-1.333 2-1.333 2 0v2.5h-2z" fill="#b3b3b3" fill-rule="evenodd" stroke-width=".093"/><path d="M59.894 50.175c0-.667-1-.667-1 0s1 .667 1 0z" fill-rule="evenodd" stroke-width=".093"/><path d="M58.394 50.175a1 1 0 0 0 2 0M58.894 50.175h-.5M60.394 50.175h-.5" fill="none" stroke-width=".093"/><path d="M53.314 50.175c0-1.333 2-1.333 2 0v2.5h-2z" fill="#b3b3b3" fill-rule="evenodd" stroke-width=".093"/><path d="M54.814 50.175c0-.667-1-.667-1 0s1 .667 1 0z" fill-rule="evenodd" stroke-width=".093"/><path d="M53.314 50.175a1 1 0 0 0 2 0M53.814 50.175h-.5M55.314 50.175h-.5" fill="none" stroke-width=".093"/><path d="M50.774 50.175c0-1.333 2-1.333 2 0v2.5h-2z" fill="#b3b3b3" fill-rule="evenodd" stroke-width=".093"/><path d="M52.274 50.175c0-.667-1-.667-1 0s1 .667 1 0z" fill-rule="evenodd" stroke-width=".093"/><path d="M50.774 50.175a1 1 0 0 0 2 0M51.274 50.175h-.5M52.774 50.175h-.5" fill="none" stroke-width=".093"/><path d="M40.614 50.175c0-1.333 2-1.333 2 0v2.5h-2z" fill="#b3b3b3" fill-rule="evenodd" stroke-width=".093"/><path d="M42.114 50.175c0-.667-1-.667-1 0s1 .667 1 0z" fill-rule="evenodd" stroke-width=".093"/><path d="M40.614 50.175a1 1 0 0 0 2 0M41.114 50.175h-.5M42.614 50.175h-.5" fill="none" stroke-width=".093"/><path d="M43.154 50.175c0-1.333 2-1.333 2 0v2.5h-2z" fill="#b3b3b3" fill-rule="evenodd" stroke-width=".093"/><path d="M44.654 50.175c0-.667-1-.667-1 0s1 .667 1 0z" fill="#1a1a1a" fill-rule="evenodd" stroke-width=".093"/><path d="M43.154 50.175a1 1 0 0 0 2 0M43.654 50.175h-.5M45.154 50.175h-.5" fill="none" stroke-width=".093"/><path d="M45.694 50.175c0-1.333 2-1.333 2 0v2.5h-2z" fill="#b3b3b3" fill-rule="evenodd" stroke-width=".093"/><path d="M47.194 50.175c0-.667-1-.667-1 0s1 .667 1 0z" fill-rule="evenodd" stroke-width=".093"/><path d="M45.694 50.175a1 1 0 0 0 2 0M46.194 50.175h-.5M47.694 50.175h-.5" fill="none" stroke-width=".093"/><path d="M48.234 50.175c0-1.333 2-1.333 2 0v2.5h-2z" fill="#b3b3b3" fill-rule="evenodd" stroke-width=".093"/><path d="M49.734 50.175c0-.667-1-.667-1 0s1 .667 1 0z" fill-rule="evenodd" stroke-width=".093"/><path d="M48.234 50.175a1 1 0 0 0 2 0M48.734 50.175h-.5M50.234 50.175h-.5" fill="none" stroke-width=".093"/><path d="M32.994 50.175c0-1.333 2-1.333 2 0v2.5h-2z" fill="#b3b3b3" fill-rule="evenodd" stroke-width=".093"/><path d="M34.494 50.175c0-.667-1-.667-1 0s1 .667 1 0z" fill="#1a1a1a" fill-rule="evenodd" stroke-width=".093"/><path d="M32.994 50.175a1 1 0 0 0 2 0M33.494 50.175h-.5M34.994 50.175h-.5" fill="none" stroke-width=".093"/><path d="M35.534 50.175c0-1.333 2-1.333 2 0v2.5h-2z" fill="#b3b3b3" fill-rule="evenodd" stroke-width=".093"/><path d="M37.034 50.175c0-.667-1-.667-1 0s1 .667 1 0z" fill-rule="evenodd" stroke-width=".093"/><path d="M35.534 50.175a1 1 0 0 0 2 0M36.034 50.175h-.5M37.534 50.175h-.5" fill="none" stroke-width=".093"/><path d="M38.074 50.175c0-1.333 2-1.333 2 0v2.5h-2z" fill="#b3b3b3" fill-rule="evenodd" stroke-width=".093"/><path d="M39.574 50.175c0-.667-1-.667-1 0s1 .667 1 0z" fill-rule="evenodd" stroke-width=".093"/><path d="M38.074 50.175a1 1 0 0 0 2 0M38.574 50.175h-.5M40.074 50.175h-.5" fill="none" stroke-width=".093"/></g></svg>