<svg width="583" height="112" viewBox="0 0 46832 8976.3" xmlns="http://www.w3.org/2000/svg"><g clip-path="url(#a)" mask="url(#b)" transform="translate(-41691 -12104)"><defs><clipPath id="a"><path d="M88500 12100H41700v9000h46800v-9000" fill-rule="evenodd"/></clipPath></defs><g fill="#313d63" stroke="#313d63"><path d="M88500 12100H41700v9000h46800v-9000" fill-rule="evenodd"/><g fill-opacity="0" stroke-linecap="round" stroke-linejoin="round" stroke-width="39.37" fill="none" stroke="#000"><path d="M88500 21100v-9000M41700 21100v-9000M88500 21100H41700M41700 12100h46800"/></g></g><g stroke-linecap="round" stroke-linejoin="round" stroke-width="0" fill="#9c6b28" stroke="#9c6b28"><g stroke="none"><circle cx="83432" cy="13001" r="275.59"/><circle cx="84416" cy="13001" r="275.59"/><circle cx="85400" cy="13001" r="275.59"/><circle cx="83432" cy="14300" r="275.59"/><circle cx="84416" cy="14300" r="275.59"/></g><path d="M85676 14024v551.2h-551.2V14024z" fill-rule="evenodd" stroke="none"/><circle cx="79700" cy="14600" r="354.33" stroke="none"/><path d="M79346 13246h708.6v708.6H79346z" fill-rule="evenodd" stroke="none"/><circle cx="75000" cy="14600" r="354.33" stroke="none"/><path d="M74646 13246h708.6v708.6H74646z" fill-rule="evenodd" stroke="none"/><circle cx="70000" cy="14500" r="354.33" stroke="none"/><path d="M69646 13146h708.6v708.6H69646z" fill-rule="evenodd" stroke="none"/><circle cx="65000" cy="14500" r="354.33" stroke="none"/><path d="M64646 13146h708.6v708.6H64646z" fill-rule="evenodd" stroke="none"/><circle cx="59900" cy="14500" r="354.33" stroke="none"/><path d="M59546 13146h708.6v708.6H59546z" fill-rule="evenodd" stroke="none"/><circle cx="54800" cy="14500" r="354.33" stroke="none"/><path d="M54446 13146h708.6v708.6H54446z" fill-rule="evenodd" stroke="none"/><circle cx="49800" cy="14400" r="354.33" stroke="none"/><path d="M49446 13046h708.6v708.6H49446z" fill-rule="evenodd" stroke="none"/><circle cx="44800" cy="14400" r="354.33" stroke="none"/><path d="M44446 13046h708.6v708.6H44446z" fill-rule="evenodd" stroke="none"/><g stroke="none"><circle cx="87000" cy="16300" r="334.65"/><circle cx="86000" cy="16300" r="334.65"/><circle cx="87000" cy="17300" r="334.65"/><circle cx="86000" cy="17300" r="334.65"/><circle cx="87000" cy="18300" r="334.65"/><circle cx="86000" cy="18300" r="334.65"/><circle cx="87000" cy="19300" r="334.65"/><circle cx="86000" cy="19300" r="334.65"/><circle cx="87000" cy="20300" r="334.65"/><path d="M86335 19965v669.2h-669.2V19965z" fill-rule="evenodd"/><circle cx="67400" cy="15000" r="275.59"/><circle cx="67400" cy="13000" r="275.59"/><circle cx="72500" cy="15000" r="275.59"/><circle cx="72500" cy="13000" r="275.59"/><circle cx="62400" cy="15000" r="275.59"/><circle cx="62400" cy="13000" r="275.59"/><circle cx="47300" cy="14900" r="275.59"/><circle cx="47300" cy="12900" r="275.59"/><circle cx="77300" cy="15100" r="275.59"/><circle cx="77300" cy="13100" r="275.59"/><circle cx="42500" cy="14900" r="275.59"/><circle cx="42500" cy="12900" r="275.59"/><circle cx="52300" cy="15000" r="275.59"/><circle cx="52300" cy="13000" r="275.59"/><circle cx="57300" cy="15000" r="275.59"/><circle cx="57300" cy="13000" r="275.59"/></g></g><g fill="#212d53" stroke="#212d53" stroke-linecap="round" stroke-linejoin="round" stroke-width="0"><g stroke="none"><circle cx="83432" cy="13001" r="275.59"/><circle cx="84416" cy="13001" r="275.59"/><circle cx="85400" cy="13001" r="275.59"/><circle cx="83432" cy="14300" r="275.59"/><circle cx="84416" cy="14300" r="275.59"/></g><path d="M85676 14024v551.2h-551.2V14024z" fill-rule="evenodd" stroke="none"/><circle cx="79700" cy="14600" r="354.33" stroke="none"/><path d="M79346 13246h708.6v708.6H79346z" fill-rule="evenodd" stroke="none"/><circle cx="75000" cy="14600" r="354.33" stroke="none"/><path d="M74646 13246h708.6v708.6H74646z" fill-rule="evenodd" stroke="none"/><circle cx="70000" cy="14500" r="354.33" stroke="none"/><path d="M69646 13146h708.6v708.6H69646z" fill-rule="evenodd" stroke="none"/><circle cx="65000" cy="14500" r="354.33" stroke="none"/><path d="M64646 13146h708.6v708.6H64646z" fill-rule="evenodd" stroke="none"/><circle cx="59900" cy="14500" r="354.33" stroke="none"/><path d="M59546 13146h708.6v708.6H59546z" fill-rule="evenodd" stroke="none"/><circle cx="54800" cy="14500" r="354.33" stroke="none"/><path d="M54446 13146h708.6v708.6H54446z" fill-rule="evenodd" stroke="none"/><circle cx="49800" cy="14400" r="354.33" stroke="none"/><path d="M49446 13046h708.6v708.6H49446z" fill-rule="evenodd" stroke="none"/><circle cx="44800" cy="14400" r="354.33" stroke="none"/><path d="M44446 13046h708.6v708.6H44446z" fill-rule="evenodd" stroke="none"/><g stroke="none"><circle cx="87000" cy="16300" r="334.65"/><circle cx="86000" cy="16300" r="334.65"/><circle cx="87000" cy="17300" r="334.65"/><circle cx="86000" cy="17300" r="334.65"/><circle cx="87000" cy="18300" r="334.65"/><circle cx="86000" cy="18300" r="334.65"/><circle cx="87000" cy="19300" r="334.65"/><circle cx="86000" cy="19300" r="334.65"/><circle cx="87000" cy="20300" r="334.65"/><path d="M86335 19965v669.2h-669.2V19965z" fill-rule="evenodd"/><circle cx="67400" cy="15000" r="275.59"/><circle cx="67400" cy="13000" r="275.59"/><circle cx="72500" cy="15000" r="275.59"/><circle cx="72500" cy="13000" r="275.59"/><circle cx="62400" cy="15000" r="275.59"/><circle cx="62400" cy="13000" r="275.59"/><circle cx="47300" cy="14900" r="275.59"/><circle cx="47300" cy="12900" r="275.59"/><circle cx="77300" cy="15100" r="275.59"/><circle cx="77300" cy="13100" r="275.59"/><circle cx="42500" cy="14900" r="275.59"/><circle cx="42500" cy="12900" r="275.59"/><circle cx="52300" cy="15000" r="275.59"/><circle cx="52300" cy="13000" r="275.59"/><circle cx="57300" cy="15000" r="275.59"/><circle cx="57300" cy="13000" r="275.59"/></g><circle cx="83432" cy="13001" r="68.898" stroke="none"/><circle cx="84416" cy="13001" r="68.898" stroke="none"/><circle cx="85400" cy="13001" r="68.898" stroke="none"/><circle cx="83432" cy="14300" r="68.898" stroke="none"/><circle cx="84416" cy="14300" r="68.898" stroke="none"/><circle cx="85400" cy="14300" r="68.898" stroke="none"/><circle cx="79700" cy="14600" r="68.898" stroke="none"/><circle cx="79700" cy="13600" r="68.898" stroke="none"/><circle cx="75000" cy="14600" r="68.898" stroke="none"/><circle cx="75000" cy="13600" r="68.898" stroke="none"/><circle cx="70000" cy="14500" r="68.898" stroke="none"/><circle cx="70000" cy="13500" r="68.898" stroke="none"/><circle cx="65000" cy="14500" r="68.898" stroke="none"/><circle cx="65000" cy="13500" r="68.898" stroke="none"/><circle cx="59900" cy="14500" r="68.898" stroke="none"/><circle cx="59900" cy="13500" r="68.898" stroke="none"/><circle cx="54800" cy="14500" r="68.898" stroke="none"/><circle cx="54800" cy="13500" r="68.898" stroke="none"/><circle cx="49800" cy="14400" r="68.898" stroke="none"/><circle cx="49800" cy="13400" r="68.898" stroke="none"/><circle cx="44800" cy="14400" r="68.898" stroke="none"/><circle cx="44800" cy="13400" r="68.898" stroke="none"/><circle cx="87000" cy="16300" r="68.898" stroke="none"/><circle cx="86000" cy="16300" r="68.898" stroke="none"/><circle cx="87000" cy="17300" r="68.898" stroke="none"/><circle cx="86000" cy="17300" r="68.898" stroke="none"/><circle cx="87000" cy="18300" r="68.898" stroke="none"/><circle cx="86000" cy="18300" r="68.898" stroke="none"/><circle cx="87000" cy="19300" r="68.898" stroke="none"/><circle cx="86000" cy="19300" r="68.898" stroke="none"/><circle cx="87000" cy="20300" r="68.898" stroke="none"/><circle cx="86000" cy="20300" r="68.898" stroke="none"/><circle cx="67400" cy="15000" r="68.898" stroke="none"/><circle cx="67400" cy="13000" r="68.898" stroke="none"/><circle cx="72500" cy="15000" r="68.898" stroke="none"/><circle cx="72500" cy="13000" r="68.898" stroke="none"/><circle cx="62400" cy="15000" r="68.898" stroke="none"/><circle cx="62400" cy="13000" r="68.898" stroke="none"/><circle cx="47300" cy="14900" r="68.898" stroke="none"/><circle cx="47300" cy="12900" r="68.898" stroke="none"/><circle cx="77300" cy="15100" r="68.898" stroke="none"/><circle cx="77300" cy="13100" r="68.898" stroke="none"/><circle cx="42500" cy="14900" r="68.898" stroke="none"/><circle cx="42500" cy="12900" r="68.898" stroke="none"/><circle cx="52300" cy="15000" r="68.898" stroke="none"/><circle cx="52300" cy="13000" r="68.898" stroke="none"/><circle cx="57300" cy="15000" r="68.898" stroke="none"/><circle cx="57300" cy="13000" r="68.898" stroke="none"/></g><g fill="#b5ae30" mask="url(#c)" stroke="#b5ae30" stroke-linecap="round" stroke-linejoin="round" stroke-width="0"><g stroke="none"><circle cx="83432" cy="13001" r="275.59"/><circle cx="84416" cy="13001" r="275.59"/><circle cx="85400" cy="13001" r="275.59"/><circle cx="83432" cy="14300" r="275.59"/><circle cx="84416" cy="14300" r="275.59"/></g><path d="M85676 14024v551.2h-551.2V14024z" fill-rule="evenodd" stroke="none"/><circle cx="79700" cy="14600" r="354.33" stroke="none"/><path d="M79346 13246h708.6v708.6H79346z" fill-rule="evenodd" stroke="none"/><circle cx="75000" cy="14600" r="354.33" stroke="none"/><path d="M74646 13246h708.6v708.6H74646z" fill-rule="evenodd" stroke="none"/><circle cx="70000" cy="14500" r="354.33" stroke="none"/><path d="M69646 13146h708.6v708.6H69646z" fill-rule="evenodd" stroke="none"/><circle cx="65000" cy="14500" r="354.33" stroke="none"/><path d="M64646 13146h708.6v708.6H64646z" fill-rule="evenodd" stroke="none"/><circle cx="59900" cy="14500" r="354.33" stroke="none"/><path d="M59546 13146h708.6v708.6H59546z" fill-rule="evenodd" stroke="none"/><circle cx="54800" cy="14500" r="354.33" stroke="none"/><path d="M54446 13146h708.6v708.6H54446z" fill-rule="evenodd" stroke="none"/><circle cx="49800" cy="14400" r="354.33" stroke="none"/><path d="M49446 13046h708.6v708.6H49446z" fill-rule="evenodd" stroke="none"/><circle cx="44800" cy="14400" r="354.33" stroke="none"/><path d="M44446 13046h708.6v708.6H44446z" fill-rule="evenodd" stroke="none"/><g stroke="none"><circle cx="87000" cy="16300" r="334.65"/><circle cx="86000" cy="16300" r="334.65"/><circle cx="87000" cy="17300" r="334.65"/><circle cx="86000" cy="17300" r="334.65"/><circle cx="87000" cy="18300" r="334.65"/><circle cx="86000" cy="18300" r="334.65"/><circle cx="87000" cy="19300" r="334.65"/><circle cx="86000" cy="19300" r="334.65"/><circle cx="87000" cy="20300" r="334.65"/><path d="M86335 19965v669.2h-669.2V19965z" fill-rule="evenodd"/><circle cx="67400" cy="15000" r="275.59"/><circle cx="67400" cy="13000" r="275.59"/><circle cx="72500" cy="15000" r="275.59"/><circle cx="72500" cy="13000" r="275.59"/><circle cx="62400" cy="15000" r="275.59"/><circle cx="62400" cy="13000" r="275.59"/><circle cx="47300" cy="14900" r="275.59"/><circle cx="47300" cy="12900" r="275.59"/><circle cx="77300" cy="15100" r="275.59"/><circle cx="77300" cy="13100" r="275.59"/><circle cx="42500" cy="14900" r="275.59"/><circle cx="42500" cy="12900" r="275.59"/><circle cx="52300" cy="15000" r="275.59"/><circle cx="52300" cy="13000" r="275.59"/><circle cx="57300" cy="15000" r="275.59"/><circle cx="57300" cy="13000" r="275.59"/></g><circle cx="83432" cy="13001" r="68.898" stroke="none"/><circle cx="84416" cy="13001" r="68.898" stroke="none"/><circle cx="85400" cy="13001" r="68.898" stroke="none"/><circle cx="83432" cy="14300" r="68.898" stroke="none"/><circle cx="84416" cy="14300" r="68.898" stroke="none"/><circle cx="85400" cy="14300" r="68.898" stroke="none"/><circle cx="79700" cy="14600" r="68.898" stroke="none"/><circle cx="79700" cy="13600" r="68.898" stroke="none"/><circle cx="75000" cy="14600" r="68.898" stroke="none"/><circle cx="75000" cy="13600" r="68.898" stroke="none"/><circle cx="70000" cy="14500" r="68.898" stroke="none"/><circle cx="70000" cy="13500" r="68.898" stroke="none"/><circle cx="65000" cy="14500" r="68.898" stroke="none"/><circle cx="65000" cy="13500" r="68.898" stroke="none"/><circle cx="59900" cy="14500" r="68.898" stroke="none"/><circle cx="59900" cy="13500" r="68.898" stroke="none"/><circle cx="54800" cy="14500" r="68.898" stroke="none"/><circle cx="54800" cy="13500" r="68.898" stroke="none"/><circle cx="49800" cy="14400" r="68.898" stroke="none"/><circle cx="49800" cy="13400" r="68.898" stroke="none"/><circle cx="44800" cy="14400" r="68.898" stroke="none"/><circle cx="44800" cy="13400" r="68.898" stroke="none"/><circle cx="87000" cy="16300" r="68.898" stroke="none"/><circle cx="86000" cy="16300" r="68.898" stroke="none"/><circle cx="87000" cy="17300" r="68.898" stroke="none"/><circle cx="86000" cy="17300" r="68.898" stroke="none"/><circle cx="87000" cy="18300" r="68.898" stroke="none"/><circle cx="86000" cy="18300" r="68.898" stroke="none"/><circle cx="87000" cy="19300" r="68.898" stroke="none"/><circle cx="86000" cy="19300" r="68.898" stroke="none"/><circle cx="87000" cy="20300" r="68.898" stroke="none"/><circle cx="86000" cy="20300" r="68.898" stroke="none"/><circle cx="67400" cy="15000" r="68.898" stroke="none"/><circle cx="67400" cy="13000" r="68.898" stroke="none"/><circle cx="72500" cy="15000" r="68.898" stroke="none"/><circle cx="72500" cy="13000" r="68.898" stroke="none"/><circle cx="62400" cy="15000" r="68.898" stroke="none"/><circle cx="62400" cy="13000" r="68.898" stroke="none"/><circle cx="47300" cy="14900" r="68.898" stroke="none"/><circle cx="47300" cy="12900" r="68.898" stroke="none"/><circle cx="77300" cy="15100" r="68.898" stroke="none"/><circle cx="77300" cy="13100" r="68.898" stroke="none"/><circle cx="42500" cy="14900" r="68.898" stroke="none"/><circle cx="42500" cy="12900" r="68.898" stroke="none"/><circle cx="52300" cy="15000" r="68.898" stroke="none"/><circle cx="52300" cy="13000" r="68.898" stroke="none"/><circle cx="57300" cy="15000" r="68.898" stroke="none"/><circle cx="57300" cy="13000" r="68.898" stroke="none"/></g><defs><mask id="c"><g stroke="#fff" stroke-linecap="round" stroke-linejoin="round" fill="#fff" stroke-width="0"><circle cx="83432" cy="13001" r="275.59"/><circle cx="84416" cy="13001" r="275.59"/><circle cx="85400" cy="13001" r="275.59"/><circle cx="83432" cy="14300" r="275.59"/><circle cx="84416" cy="14300" r="275.59"/><path d="M85676 14024v551.2h-551.2V14024z" fill-rule="evenodd"/><circle cx="79700" cy="14600" r="354.33"/><path d="M79346 13246h708.6v708.6H79346z" fill-rule="evenodd"/><circle cx="75000" cy="14600" r="354.33"/><path d="M74646 13246h708.6v708.6H74646z" fill-rule="evenodd"/><circle cx="70000" cy="14500" r="354.33"/><path d="M69646 13146h708.6v708.6H69646z" fill-rule="evenodd"/><circle cx="65000" cy="14500" r="354.33"/><path d="M64646 13146h708.6v708.6H64646z" fill-rule="evenodd"/><circle cx="59900" cy="14500" r="354.33"/><path d="M59546 13146h708.6v708.6H59546z" fill-rule="evenodd"/><circle cx="54800" cy="14500" r="354.33"/><path d="M54446 13146h708.6v708.6H54446z" fill-rule="evenodd"/><circle cx="49800" cy="14400" r="354.33"/><g><path d="M49446 13046h708.6v708.6H49446z" fill-rule="evenodd"/></g><g><circle cx="44800" cy="14400" r="354.33"/></g><g><path d="M44446 13046h708.6v708.6H44446z" fill-rule="evenodd"/></g><g><circle cx="87000" cy="16300" r="334.65"/><circle cx="86000" cy="16300" r="334.65"/><circle cx="87000" cy="17300" r="334.65"/><circle cx="86000" cy="17300" r="334.65"/><circle cx="87000" cy="18300" r="334.65"/><circle cx="86000" cy="18300" r="334.65"/><circle cx="87000" cy="19300" r="334.65"/><circle cx="86000" cy="19300" r="334.65"/><circle cx="87000" cy="20300" r="334.65"/><path d="M86335 19965v669.2h-669.2V19965z" fill-rule="evenodd"/><circle cx="67400" cy="15000" r="275.59"/><circle cx="67400" cy="13000" r="275.59"/><circle cx="72500" cy="15000" r="275.59"/><circle cx="72500" cy="13000" r="275.59"/><circle cx="62400" cy="15000" r="275.59"/><circle cx="62400" cy="13000" r="275.59"/><circle cx="47300" cy="14900" r="275.59"/><circle cx="47300" cy="12900" r="275.59"/><circle cx="77300" cy="15100" r="275.59"/><circle cx="77300" cy="13100" r="275.59"/><circle cx="42500" cy="14900" r="275.59"/><circle cx="42500" cy="12900" r="275.59"/><circle cx="52300" cy="15000" r="275.59"/><circle cx="52300" cy="13000" r="275.59"/><circle cx="57300" cy="15000" r="275.59"/><circle cx="57300" cy="13000" r="275.59"/></g></g></mask></defs><defs><mask id="d"><g stroke="#000" stroke-linecap="round" stroke-linejoin="round" stroke-width="0"><circle cx="83432" cy="13001" r="275.59"/><circle cx="84416" cy="13001" r="275.59"/><circle cx="85400" cy="13001" r="275.59"/><circle cx="83432" cy="14300" r="275.59"/><circle cx="84416" cy="14300" r="275.59"/><path d="M85676 14024v551.2h-551.2V14024z" fill-rule="evenodd"/><circle cx="79700" cy="14600" r="354.33"/><path d="M79346 13246h708.6v708.6H79346z" fill-rule="evenodd"/><circle cx="75000" cy="14600" r="354.33"/><path d="M74646 13246h708.6v708.6H74646z" fill-rule="evenodd"/><circle cx="70000" cy="14500" r="354.33"/><path d="M69646 13146h708.6v708.6H69646z" fill-rule="evenodd"/><circle cx="65000" cy="14500" r="354.33"/><path d="M64646 13146h708.6v708.6H64646z" fill-rule="evenodd"/><circle cx="59900" cy="14500" r="354.33"/><path d="M59546 13146h708.6v708.6H59546z" fill-rule="evenodd"/><circle cx="54800" cy="14500" r="354.33"/><path d="M54446 13146h708.6v708.6H54446z" fill-rule="evenodd"/><circle cx="49800" cy="14400" r="354.33"/><g><path d="M49446 13046h708.6v708.6H49446z" fill-rule="evenodd"/></g><g><circle cx="44800" cy="14400" r="354.33"/></g><g><path d="M44446 13046h708.6v708.6H44446z" fill-rule="evenodd"/></g><g><circle cx="87000" cy="16300" r="334.65"/><circle cx="86000" cy="16300" r="334.65"/><circle cx="87000" cy="17300" r="334.65"/><circle cx="86000" cy="17300" r="334.65"/><circle cx="87000" cy="18300" r="334.65"/><circle cx="86000" cy="18300" r="334.65"/><circle cx="87000" cy="19300" r="334.65"/><circle cx="86000" cy="19300" r="334.65"/><circle cx="87000" cy="20300" r="334.65"/><path d="M86335 19965v669.2h-669.2V19965z" fill-rule="evenodd"/><circle cx="67400" cy="15000" r="275.59"/><circle cx="67400" cy="13000" r="275.59"/><circle cx="72500" cy="15000" r="275.59"/><circle cx="72500" cy="13000" r="275.59"/><circle cx="62400" cy="15000" r="275.59"/><circle cx="62400" cy="13000" r="275.59"/><circle cx="47300" cy="14900" r="275.59"/><circle cx="47300" cy="12900" r="275.59"/><circle cx="77300" cy="15100" r="275.59"/><circle cx="77300" cy="13100" r="275.59"/><circle cx="42500" cy="14900" r="275.59"/><circle cx="42500" cy="12900" r="275.59"/><circle cx="52300" cy="15000" r="275.59"/><circle cx="52300" cy="13000" r="275.59"/><circle cx="57300" cy="15000" r="275.59"/><circle cx="57300" cy="13000" r="275.59"/></g></g><path fill="#fff" d="M41445 11742h47073v9377H41445z"/></mask></defs><g fill-opacity="0" stroke-linecap="round" stroke-linejoin="round" stroke-width="47.244" fill="none" mask="url(#d)" stroke="#f0f0f0"><path d="M86344 14595v-473M85872 14595h472M82604 12823h473M82604 14477v-1654M83077 14477h-473M86226 12823h-472M86226 14477v-1654M85754 14477h472M80308 13092h-1217"/><circle cx="79700" cy="14100" r="984.25"/><path d="M79092 13092a1177.2 1177.2 0 0 0 608.4 2185.1"/><path d="M79700 15277a1177.2 1177.2 0 0 0 608.4-2185.1M75608 13092h-1217"/><circle cx="75000" cy="14100" r="984.25"/><path d="M74392 13092a1177.2 1177.2 0 0 0 608.4 2185.1"/><path d="M75000 15277a1177.2 1177.2 0 0 0 608.4-2185.1M70608 12992h-1217"/><circle cx="70000" cy="14000" r="984.25"/><path d="M69392 12992a1177.2 1177.2 0 0 0 608.4 2185.1"/><path d="M70000 15177a1177.2 1177.2 0 0 0 608.4-2185.1M65608 12992h-1217"/><circle cx="65000" cy="14000" r="984.25"/><path d="M64392 12992a1177.2 1177.2 0 0 0 608.4 2185.1"/><path d="M65000 15177a1177.2 1177.2 0 0 0 608.4-2185.1M60508 12992h-1217"/><circle cx="59900" cy="14000" r="984.25"/><path d="M59292 12992a1177.2 1177.2 0 0 0 608.4 2185.1"/><path d="M59900 15177a1177.2 1177.2 0 0 0 608.4-2185.1M55408 12992h-1217"/><circle cx="54800" cy="14000" r="984.25"/><path d="M54192 12992a1177.2 1177.2 0 0 0 608.4 2185.1"/><path d="M54800 15177a1177.2 1177.2 0 0 0 608.4-2185.1M50408 12892h-1217"/><circle cx="49800" cy="13900" r="984.25"/><path d="M49192 12892a1177.2 1177.2 0 0 0 608.4 2185.1"/><path d="M49800 15077a1177.2 1177.2 0 0 0 608.4-2185.1M45408 12892h-1217"/><circle cx="44800" cy="13900" r="984.25"/><path d="M44192 12892a1177.2 1177.2 0 0 0 608.4 2185.1"/><path d="M44800 15077a1177.2 1177.2 0 0 0 608.4-2185.1M87523 20823h-1023M87523 20823v-5047M87523 15776h-2047M85476 19800v-4024M86500 19800h-1024M86500 20823v-1023M85476 20823v-523M86000 20823h-524M67762 13244v1511M67037 13244v1511M72862 13244v1511M72137 13244v1511M62762 13244v1511M62037 13244v1511M47662 13144v1511M46937 13144v1511M77662 13344v1511M76937 13344v1511M42862 13144v1511M42137 13144v1511M52662 13244v1511M51937 13244v1511M57662 13244v1511M56937 13244v1511"/></g><g fill-opacity="0" stroke-linecap="round" stroke-linejoin="round" stroke-width="39.37" fill="none" stroke="#000"><path d="M88500 21100v-9000M41700 21100v-9000M88500 21100H41700M41700 12100h46800"/></g><defs><mask id="b"><path fill="#fff" d="M41445 11742h47073v9377H41445z"/><path stroke="#000" stroke-linecap="round" stroke-width="354" d="M83432 13000h0M84416 13000h0M85400 13000h0M83432 14300h0M84416 14300h0M85400 14300h0M79700 14600h0M79700 13600h0M75000 14600h0M75000 13600h0M70000 14500h0M70000 13500h0M65000 14500h0M65000 13500h0M59900 14500h0M59900 13500h0M54800 14500h0M54800 13500h0M49800 14400h0M49800 13400h0M44800 14400h0M44800 13400h0"/><path stroke="#000" stroke-linecap="round" stroke-width="393" d="M87000 16300h0M86000 16300h0M87000 17300h0M86000 17300h0M87000 18300h0M86000 18300h0M87000 19300h0M86000 19300h0M87000 20300h0M86000 20300h0"/><path stroke="#000" stroke-linecap="round" stroke-width="275" d="M67400 15000h0M67400 13000h0M72500 15000h0M72500 13000h0M62400 15000h0M62400 13000h0M47300 14900h0M47300 12900h0M77300 15100h0M77300 13100h0M42500 14900h0M42500 12900h0M52300 15000h0M52300 13000h0M57300 15000h0M57300 13000h0"/></mask></defs></g><g stroke-width=".093"><g stroke="#000" transform="matrix(-393.7 0 0 393.7 43709.167 2195.867)"><path d="M6.75-.55H6.5M6.75-.55h.05M6.8.15v-.7M6.8-.55h.024M6.95-.55H7M-1.8.15v-.7M-1.8-.55h.05M-1.75-.55h.25M-2-.55h.05M-1.824-.55h.024M-.3.155V.15M.3.155h-.6M.3.155V.15M2.2.155V.15M2.8.155h-.6M2.8.155V.15M4.7.155V.15M5.3.155h-.6M5.3.155V.15M6.95-.55h-.126M6.95-2.75h-.126M-1.824-.55h-.126" fill="none"/><path d="M5.5-3.45H-2v.7h.05v2.2H-2v.7h9v-.7h-.05v-2.2H7v-.7h-.2z" fill="#1a1a1a" fill-rule="evenodd"/><path d="M-.3-3.45v-.005M5.3-3.45v-.005M6.824-2.75H6.8M6.8-2.75h-.05M6.5-2.75h.25M-1.5-.55h.05M-1.5-2.75h.05M-1.824-2.75h-.126M7-2.75h-.05M6.8-2.75v-.7M-1.5-2.75h-.25M-1.75-2.75h-.05M-1.8-2.75v-.7" fill="none"/><path d="M-1.5-3.1h1v-.35.01h6v-.01.35h1v2.9h-1v.35-.01h-6v.01-.35h-1 .05v-2.9" fill="gray" fill-rule="evenodd"/><path d="M-1.8-2.75h-.024M-1.95-2.75H-2M.3-3.45v-.005M.3-3.455h-.6M2.2-3.45v-.005M2.8-3.45v-.005M2.8-3.455h-.6M4.7-3.45v-.005M5.3-3.455h-.6M6.55-.55v-2.2M-1.55-.55v-2.2M-1.45-.55H6.5M-1.45-2.75H6.5" fill="none"/><path d="M.7-.85h3.6v-1.6H.7z" fill="#4d4d4d" fill-rule="evenodd"/><path d="M2.75-2.4v1.5h1.5v-1.5z" fill="#1a1a1a" fill-rule="evenodd"/></g></g><g stroke-width=".093"><g transform="scale(393.7) rotate(90 46.37 50.172)"><path d="M4.17 0c0 2.954-3.902 4.018-5.4 1.47v-2.94C.268-4.018 4.17-2.954 4.17 0z" fill="maroon" fill-rule="evenodd" stroke="#000"/><circle cx="1.27" r="2.45" fill="red" stroke="#000"/></g></g><g stroke-width=".093"><g transform="matrix(0 393.7 393.7 0 33308.687 1496.471)"><path d="M4.17 0c0 2.954-3.902 4.018-5.4 1.47v-2.94C.268-4.018 4.17-2.954 4.17 0z" fill="maroon" fill-rule="evenodd" stroke="#000"/><circle cx="1.27" r="2.45" fill="red" stroke="#000"/></g></g><g stroke-width=".093"><g transform="matrix(0 393.7 393.7 0 28308.687 1396.471)"><path d="M4.17 0c0 2.954-3.902 4.018-5.4 1.47v-2.94C.268-4.018 4.17-2.954 4.17 0z" fill="maroon" fill-rule="evenodd" stroke="#000"/><circle cx="1.27" r="2.45" fill="red" stroke="#000"/></g></g><g stroke-width=".093"><g transform="matrix(0 393.7 393.7 0 23308.687 1396.471)"><path d="M4.17 0c0 2.954-3.902 4.018-5.4 1.47v-2.94C.268-4.018 4.17-2.954 4.17 0z" fill="maroon" fill-rule="evenodd" stroke="#000"/><circle cx="1.27" r="2.45" fill="red" stroke="#000"/></g></g><g stroke-width=".093"><g transform="matrix(0 393.7 393.7 0 18208.687 1396.471)"><path d="M4.17 0c0 2.954-3.902 4.018-5.4 1.47v-2.94C.268-4.018 4.17-2.954 4.17 0z" fill="maroon" fill-rule="evenodd" stroke="#000"/><circle cx="1.27" r="2.45" fill="red" stroke="#000"/></g></g><g stroke-width=".093"><g transform="matrix(0 393.7 393.7 0 13108.687 1396.471)"><path d="M4.17 0c0 2.954-3.902 4.018-5.4 1.47v-2.94C.268-4.018 4.17-2.954 4.17 0z" fill="maroon" fill-rule="evenodd" stroke="#000"/><circle cx="1.27" r="2.45" fill="red" stroke="#000"/></g></g><g stroke-width=".093"><g transform="matrix(0 393.7 393.7 0 8108.687 1296.471)"><path d="M4.17 0c0 2.954-3.902 4.018-5.4 1.47v-2.94C.268-4.018 4.17-2.954 4.17 0z" fill="maroon" fill-rule="evenodd" stroke="#000"/><circle cx="1.27" r="2.45" fill="red" stroke="#000"/></g></g><g stroke-width=".093"><g transform="scale(393.7) rotate(90 2.302 5.595)"><path d="M4.17 0c0 2.954-3.902 4.018-5.4 1.47v-2.94C.268-4.018 4.17-2.954 4.17 0z" fill="maroon" fill-rule="evenodd" stroke="#000"/><circle cx="1.27" r="2.45" fill="red" stroke="#000"/></g></g><g stroke="#000" stroke-width=".093"><g transform="matrix(-393.7 0 0 393.7 44309.003 8196.001)"><path d="M-3.81 1.27v-12.7h5.08v12.7z" fill="#1a1a1a" fill-rule="evenodd"/><path d="M-.6-8.22H.6v1.2H-.6zM-3.14-7.02v-1.2h1.2v1.2zM-3.14-4.48v-1.2h1.2v1.2zM-.6-5.68H.6v1.2H-.6zM-3.14-1.94v-1.2h1.2v1.2zM-.6-1.94v-1.2H.6v1.2zM-3.14-.6h1.2V.6h-1.2zM.6.6H-.6V-.6H.6zM-3.14-10.76h1.2v1.2h-1.2zM.6-10.76v1.2H-.6v-1.2z" fill="#666" fill-rule="evenodd"/><path d="M.6-8.22l-.299.299M.6-7.02l-.299-.299M.301-7.921v.602M-.6-8.22l.299.299M-.301-7.921h.602M-.6-7.02l.299-.299M-.301-7.319v-.602M.301-7.319h-.602M-3.14-8.22l.299.299M-1.94-8.22l-.299.299M-2.841-7.921h.602M-3.14-7.02l.299-.299M-2.841-7.319v-.602M-1.94-7.02l-.299-.299M-2.239-7.319h-.602M-2.239-7.921v.602M-1.94-5.68l-.299.299M-1.94-4.48l-.299-.299M-2.239-5.381v.602M-3.14-5.68l.299.299M-2.841-5.381h.602M-3.14-4.48l.299-.299M-2.841-4.779v-.602M-2.239-4.779h-.602M-.6-5.68l.299.299M.6-5.68l-.299.299M-.301-5.381h.602M-.6-4.48l.299-.299M-.301-4.779v-.602M.6-4.48l-.299-.299M.301-4.779h-.602M.301-5.381v.602M-3.14-1.94l.299-.299M-3.14-3.14l.299.299M-2.841-2.239v-.602M-1.94-1.94l-.299-.299M-2.239-2.239h-.602M-1.94-3.14l-.299.299M-2.239-2.841v.602M-2.841-2.841h.602M.6-3.14l-.299.299M.6-1.94l-.299-.299M.301-2.841v.602M-.6-3.14l.299.299M-.301-2.841h.602M-.6-1.94l.299-.299M-.301-2.239v-.602M.301-2.239h-.602M-3.14-.6l.299.299M-1.94-.6l-.299.299M-2.841-.301h.602M-3.14.6l.299-.299M-2.841.301v-.602M-1.94.6l-.299-.299M-2.239.301h-.602M-2.239-.301v.602M-.6-.6l.299.299M.6-.6l-.299.299M-.301-.301h.602M-.6.6l.299-.299M-.301.301v-.602M.6.6L.301.301M.301.301h-.602M.301-.301v.602M-3.14-10.76l.299.299M-1.94-10.76l-.299.299M-2.841-10.461h.602M-3.14-9.56l.299-.299M-2.841-9.859v-.602M-1.94-9.56l-.299-.299M-2.239-9.859h-.602M-2.239-10.461v.602M.6-9.56l-.299-.299M-.6-9.56l.299-.299M.301-9.859h-.602M.6-10.76l-.299.299M.301-10.461v.602M-.6-10.76l.299.299M-.301-10.461h.602M-.301-9.859v-.602" fill="none"/><path d="M-.3-7.32v-.6h.6v.6zM-2.84-7.92h.6v.6h-.6zM-2.84-4.78v-.6h.6v.6zM-.3-4.78v-.6h.6v.6zM-2.84-2.24v-.6h.6v.6zM-.3-2.24v-.6h.6v.6zM-2.84.3v-.6h.6v.6zM.3.3h-.6v-.6h.6zM-2.24-10.46v.6h-.6v-.6zM.3-10.46v.6h-.6v-.6z" fill="olive" fill-rule="evenodd"/><path d="M.1-7.87v-.05M.1-7.37v-.5M.1-7.32v-.05M-.1-7.32v-.05M.1-7.37h-.2M-.1-7.37v-.5M-.1-7.87v-.05M.1-7.87h-.2M-2.64-7.37v.05M-2.64-7.87v.5M-2.64-7.92v.05M-2.44-7.92v.05M-2.64-7.87h.2M-2.44-7.87v.5M-2.44-7.37v.05M-2.64-7.37h.2M-2.64-4.83v.05M-2.64-5.33v.5M-2.64-5.38v.05M-2.44-5.38v.05M-2.64-5.33h.2M-2.44-5.33v.5M-2.44-4.83v.05M-2.64-4.83h.2M.1-5.33v-.05M.1-4.83v-.5M.1-4.78v-.05M-.1-4.78v-.05M.1-4.83h-.2M-.1-4.83v-.5M-.1-5.33v-.05M.1-5.33h-.2M-2.64-2.29v.05M-2.64-2.79v.5M-2.64-2.84v.05M-2.44-2.84v.05M-2.64-2.79h.2M-2.44-2.79v.5M-2.44-2.29v.05M-2.64-2.29h.2M.1-2.79v-.05M.1-2.29v-.5M.1-2.24v-.05M-.1-2.24v-.05M.1-2.29h-.2M-.1-2.29v-.5M-.1-2.79v-.05M.1-2.79h-.2M-2.64.25V.3M-2.64-.25v.5M-2.64-.3v.05M-2.44-.3v.05M-2.64-.25h.2M-2.44-.25v.5M-2.44.25V.3M-2.64.25h.2M.1-.25V-.3M.1.25v-.5M.1.3V.25M-.1.3V.25M.1.25h-.2M-.1.25v-.5M-.1-.25V-.3M.1-.25h-.2M-2.64-9.91v.05M-2.64-10.41v.5M-2.64-10.46v.05M-2.44-10.46v.05M-2.64-10.41h.2M-2.44-10.41v.5M-2.44-9.91v.05M-2.64-9.91h.2M.1-10.41v-.05M.1-9.91v-.5M.1-9.86v-.05M-.1-9.86v-.05M.1-9.91h-.2M-.1-9.91v-.5M-.1-10.41v-.05M.1-10.41h-.2" fill="none"/></g></g><g transform="matrix(0 393.7 393.7 0 25709.332 895.661)" fill="#faa" stroke-width=".093"><path d="M1.14.8V-.8M3.94.8V-.8M1.14-.8c-.24.021-.374.155-.4.4v.8c0 .22.18.4.4.4h.5V-.8zM3.44-.8V.8h.5a.4.4 0 0 0 .4-.4v-.8c-.026-.245-.16-.379-.4-.4z" fill-rule="evenodd" stroke="#191919"/><path d="M4.34.25h.74c.333 0 .333-.5 0-.5h-.74 0z" fill="#999" fill-rule="evenodd" stroke="#191919"/></g><path d="M25807.772 1186.983h-196.85V895.645c0-131.232 196.85-131.232 196.85 0z" fill="#999" stroke="#1a1a1a" stroke-width="36.6141"/><path d="M25992.811 2249.973h-566.928v-708.66h566.928z" fill="#e9afaf" stroke="#1a1a1a" stroke-width="36.6141"/><path fill="#500" opacity=".997" stroke="#1a1a1a" stroke-width="36.2204" d="M25991.536 1636.628v71.654h-563.779v-71.654z"/><path opacity=".997" stroke="#1a1a1a" stroke-width="36.2204" d="M25989.567 1780.722v71.654h-563.778v-71.654z"/><path fill="red" opacity=".997" stroke="#1a1a1a" stroke-width="36.2204" d="M25989.174 1926.785v71.653h-563.779v-71.653z"/><path fill="olive" opacity=".997" stroke="#1a1a1a" stroke-width="36.2204" d="M25991.536 2122.06v71.654h-563.779v-71.654z"/><g><g transform="matrix(0 393.7 393.7 0 30809.332 895.661)" fill="#faa" stroke-width=".093"><path d="M1.14.8V-.8M3.94.8V-.8M1.14-.8c-.24.021-.374.155-.4.4v.8c0 .22.18.4.4.4h.5V-.8zM3.44-.8V.8h.5a.4.4 0 0 0 .4-.4v-.8c-.026-.245-.16-.379-.4-.4z" fill-rule="evenodd" stroke="#191919"/><path d="M4.34.25h.74c.333 0 .333-.5 0-.5h-.74 0z" fill="#999" fill-rule="evenodd" stroke="#191919"/></g><path d="M30907.772 1186.983h-196.85V895.645c0-131.232 196.85-131.232 196.85 0z" fill="#999" stroke="#1a1a1a" stroke-width="36.6141"/><path d="M31092.811 2249.973h-566.928v-708.66h566.928z" fill="#e9afaf" stroke="#1a1a1a" stroke-width="36.6141"/><path fill="#500" opacity=".997" stroke="#1a1a1a" stroke-width="36.2204" d="M31091.536 1636.628v71.654h-563.779v-71.654z"/><path opacity=".997" stroke="#1a1a1a" stroke-width="36.2204" d="M31089.567 1780.722v71.654h-563.778v-71.654z"/><path fill="red" opacity=".997" stroke="#1a1a1a" stroke-width="36.2204" d="M31089.174 1926.785v71.653h-563.779v-71.653z"/><path fill="olive" opacity=".997" stroke="#1a1a1a" stroke-width="36.2204" d="M31091.536 2122.06v71.654h-563.779v-71.654z"/></g><g><g transform="matrix(0 393.7 393.7 0 20709.332 895.661)" fill="#faa" stroke-width=".093"><path d="M1.14.8V-.8M3.94.8V-.8M1.14-.8c-.24.021-.374.155-.4.4v.8c0 .22.18.4.4.4h.5V-.8zM3.44-.8V.8h.5a.4.4 0 0 0 .4-.4v-.8c-.026-.245-.16-.379-.4-.4z" fill-rule="evenodd" stroke="#191919"/><path d="M4.34.25h.74c.333 0 .333-.5 0-.5h-.74 0z" fill="#999" fill-rule="evenodd" stroke="#191919"/></g><path d="M20807.772 1186.983h-196.85V895.645c0-131.232 196.85-131.232 196.85 0z" fill="#999" stroke="#1a1a1a" stroke-width="36.6141"/><path d="M20992.811 2249.973h-566.928v-708.66h566.928z" fill="#e9afaf" stroke="#1a1a1a" stroke-width="36.6141"/><path fill="#500" opacity=".997" stroke="#1a1a1a" stroke-width="36.2204" d="M20991.536 1636.628v71.654h-563.779v-71.654z"/><path opacity=".997" stroke="#1a1a1a" stroke-width="36.2204" d="M20989.567 1780.722v71.654h-563.778v-71.654z"/><path fill="red" opacity=".997" stroke="#1a1a1a" stroke-width="36.2204" d="M20989.174 1926.785v71.653h-563.779v-71.653z"/><path fill="olive" opacity=".997" stroke="#1a1a1a" stroke-width="36.2204" d="M20991.536 2122.06v71.654h-563.779v-71.654z"/></g><g><g transform="matrix(0 393.7 393.7 0 5609.332 795.661)" fill="#faa" stroke-width=".093"><path d="M1.14.8V-.8M3.94.8V-.8M1.14-.8c-.24.021-.374.155-.4.4v.8c0 .22.18.4.4.4h.5V-.8zM3.44-.8V.8h.5a.4.4 0 0 0 .4-.4v-.8c-.026-.245-.16-.379-.4-.4z" fill-rule="evenodd" stroke="#191919"/><path d="M4.34.25h.74c.333 0 .333-.5 0-.5h-.74 0z" fill="#999" fill-rule="evenodd" stroke="#191919"/></g><path d="M5707.772 1086.983h-196.85V795.645c0-131.232 196.85-131.232 196.85 0z" fill="#999" stroke="#1a1a1a" stroke-width="36.6141"/><path d="M5892.811 2149.973h-566.928v-708.66h566.928z" fill="#e9afaf" stroke="#1a1a1a" stroke-width="36.6141"/><path fill="#500" opacity=".997" stroke="#1a1a1a" stroke-width="36.2204" d="M5891.536 1536.628v71.654h-563.779v-71.654z"/><path opacity=".997" stroke="#1a1a1a" stroke-width="36.2204" d="M5889.567 1680.722v71.654H5325.79v-71.654z"/><path fill="red" opacity=".997" stroke="#1a1a1a" stroke-width="36.2204" d="M5889.173 1826.785v71.653h-563.778v-71.653z"/><path fill="olive" opacity=".997" stroke="#1a1a1a" stroke-width="36.2204" d="M5891.536 2022.06v71.654h-563.779v-71.654z"/></g><g><g transform="matrix(0 393.7 393.7 0 35609.332 995.661)" fill="#faa" stroke-width=".093"><path d="M1.14.8V-.8M3.94.8V-.8M1.14-.8c-.24.021-.374.155-.4.4v.8c0 .22.18.4.4.4h.5V-.8zM3.44-.8V.8h.5a.4.4 0 0 0 .4-.4v-.8c-.026-.245-.16-.379-.4-.4z" fill-rule="evenodd" stroke="#191919"/><path d="M4.34.25h.74c.333 0 .333-.5 0-.5h-.74 0z" fill="#999" fill-rule="evenodd" stroke="#191919"/></g><path d="M35707.772 1286.983h-196.85V995.645c0-131.232 196.85-131.232 196.85 0z" fill="#999" stroke="#1a1a1a" stroke-width="36.6141"/><path d="M35892.811 2349.973h-566.928v-708.66h566.928z" fill="#e9afaf" stroke="#1a1a1a" stroke-width="36.6141"/><path fill="#500" opacity=".997" stroke="#1a1a1a" stroke-width="36.2204" d="M35891.536 1736.628v71.654h-563.779v-71.654z"/><path opacity=".997" stroke="#1a1a1a" stroke-width="36.2204" d="M35889.567 1880.722v71.654h-563.778v-71.654z"/><path fill="red" opacity=".997" stroke="#1a1a1a" stroke-width="36.2204" d="M35889.173 2026.785v71.653h-563.778v-71.653z"/><path fill="olive" opacity=".997" stroke="#1a1a1a" stroke-width="36.2204" d="M35891.536 2222.06v71.654h-563.779v-71.654z"/></g><g><g transform="matrix(0 393.7 393.7 0 809.332 795.661)" fill="#faa" stroke-width=".093"><path d="M1.14.8V-.8M3.94.8V-.8M1.14-.8c-.24.021-.374.155-.4.4v.8c0 .22.18.4.4.4h.5V-.8zM3.44-.8V.8h.5a.4.4 0 0 0 .4-.4v-.8c-.026-.245-.16-.379-.4-.4z" fill-rule="evenodd" stroke="#191919"/><path d="M4.34.25h.74c.333 0 .333-.5 0-.5h-.74 0z" fill="#999" fill-rule="evenodd" stroke="#191919"/></g><path d="M907.772 1086.983h-196.85V795.645c0-131.232 196.85-131.232 196.85 0z" fill="#999" stroke="#1a1a1a" stroke-width="36.6141"/><path d="M1092.811 2149.973H525.883v-708.66h566.928z" fill="#e9afaf" stroke="#1a1a1a" stroke-width="36.6141"/><path fill="#500" opacity=".997" stroke="#1a1a1a" stroke-width="36.2204" d="M1091.536 1536.628v71.654H527.757v-71.654z"/><path opacity=".997" stroke="#1a1a1a" stroke-width="36.2204" d="M1089.567 1680.722v71.654H525.79v-71.654z"/><path fill="red" opacity=".997" stroke="#1a1a1a" stroke-width="36.2204" d="M1089.174 1826.785v71.653H525.395v-71.653z"/><path fill="olive" opacity=".997" stroke="#1a1a1a" stroke-width="36.2204" d="M1091.536 2022.06v71.654H527.757v-71.654z"/></g><g><g transform="matrix(0 393.7 393.7 0 10609.332 895.661)" fill="#faa" stroke-width=".093"><path d="M1.14.8V-.8M3.94.8V-.8M1.14-.8c-.24.021-.374.155-.4.4v.8c0 .22.18.4.4.4h.5V-.8zM3.44-.8V.8h.5a.4.4 0 0 0 .4-.4v-.8c-.026-.245-.16-.379-.4-.4z" fill-rule="evenodd" stroke="#191919"/><path d="M4.34.25h.74c.333 0 .333-.5 0-.5h-.74 0z" fill="#999" fill-rule="evenodd" stroke="#191919"/></g><path d="M10707.772 1186.983h-196.85V895.645c0-131.232 196.85-131.232 196.85 0z" fill="#999" stroke="#1a1a1a" stroke-width="36.6141"/><path d="M10892.811 2249.973h-566.928v-708.66h566.928z" fill="#e9afaf" stroke="#1a1a1a" stroke-width="36.6141"/><path fill="#500" opacity=".997" stroke="#1a1a1a" stroke-width="36.2204" d="M10891.536 1636.628v71.654h-563.779v-71.654z"/><path opacity=".997" stroke="#1a1a1a" stroke-width="36.2204" d="M10889.567 1780.722v71.654h-563.778v-71.654z"/><path fill="red" opacity=".997" stroke="#1a1a1a" stroke-width="36.2204" d="M10889.174 1926.785v71.653h-563.779v-71.653z"/><path fill="olive" opacity=".997" stroke="#1a1a1a" stroke-width="36.2204" d="M10891.536 2122.06v71.654h-563.779v-71.654z"/></g><g><g transform="matrix(0 393.7 393.7 0 15609.332 895.661)" fill="#faa" stroke-width=".093"><path d="M1.14.8V-.8M3.94.8V-.8M1.14-.8c-.24.021-.374.155-.4.4v.8c0 .22.18.4.4.4h.5V-.8zM3.44-.8V.8h.5a.4.4 0 0 0 .4-.4v-.8c-.026-.245-.16-.379-.4-.4z" fill-rule="evenodd" stroke="#191919"/><path d="M4.34.25h.74c.333 0 .333-.5 0-.5h-.74 0z" fill="#999" fill-rule="evenodd" stroke="#191919"/></g><path d="M15707.772 1186.983h-196.85V895.645c0-131.232 196.85-131.232 196.85 0z" fill="#999" stroke="#1a1a1a" stroke-width="36.6141"/><path d="M15892.811 2249.973h-566.928v-708.66h566.928z" fill="#e9afaf" stroke="#1a1a1a" stroke-width="36.6141"/><path fill="#500" opacity=".997" stroke="#1a1a1a" stroke-width="36.2204" d="M15891.536 1636.628v71.654h-563.779v-71.654z"/><path opacity=".997" stroke="#1a1a1a" stroke-width="36.2204" d="M15889.567 1780.722v71.654h-563.778v-71.654z"/><path fill="red" opacity=".997" stroke="#1a1a1a" stroke-width="36.2204" d="M15889.174 1926.785v71.653h-563.779v-71.653z"/><path fill="olive" opacity=".997" stroke="#1a1a1a" stroke-width="36.2204" d="M15891.536 2122.06v71.654h-563.779v-71.654z"/></g></svg>