<svg width="581" height="112" viewBox="0 0 46598 9016.9" xmlns="http://www.w3.org/2000/svg"><g clip-path="url(#a)" mask="url(#b)" transform="translate(-41785 -12097)"><defs><clipPath id="a"><path d="M88500 12100H41700v9000h46800v-9000" fill-rule="evenodd"/></clipPath></defs><g fill="#313d63" stroke="#313d63"><path d="M88500 12100H41700v9000h46800v-9000" fill-rule="evenodd"/><g fill-opacity="0" stroke-linecap="round" stroke-linejoin="round" stroke-width="39.37" fill="none" stroke="#000"><path d="M88500 21100v-9000M41700 21100v-9000M88500 21100H41700M41700 12100h46800"/></g></g><g stroke-linecap="round" stroke-linejoin="round" stroke-width="0" stroke="none" fill="#9c6b28"><circle cx="87000" cy="16300" r="334.65"/><circle cx="86000" cy="16300" r="334.65"/><circle cx="87000" cy="17300" r="334.65"/><circle cx="86000" cy="17300" r="334.65"/><circle cx="87000" cy="18300" r="334.65"/><circle cx="86000" cy="18300" r="334.65"/><circle cx="87000" cy="19300" r="334.65"/><circle cx="86000" cy="19300" r="334.65"/><circle cx="87000" cy="20300" r="334.65"/><path d="M86335 19965v669.2h-669.2V19965z" fill-rule="evenodd"/><circle cx="66059" cy="14677" r="393.7"/><circle cx="66059" cy="16449" r="393.7"/><circle cx="63500" cy="14677" r="393.7"/><circle cx="63500" cy="16449" r="393.7"/><circle cx="71100" cy="14700" r="393.7"/><circle cx="71100" cy="16472" r="393.7"/><circle cx="68541" cy="14700" r="393.7"/><circle cx="68541" cy="16472" r="393.7"/><circle cx="76059" cy="14700" r="393.7"/><circle cx="76059" cy="16472" r="393.7"/><circle cx="73500" cy="14700" r="393.7"/><circle cx="73500" cy="16472" r="393.7"/><circle cx="67400" cy="12700" r="275.59"/><circle cx="67400" cy="14700" r="275.59"/><circle cx="72400" cy="12700" r="275.59"/><circle cx="72400" cy="14700" r="275.59"/><circle cx="80959" cy="14677" r="393.7"/><circle cx="80959" cy="16449" r="393.7"/><circle cx="78400" cy="14677" r="393.7"/><circle cx="78400" cy="16449" r="393.7"/><circle cx="61000" cy="14677" r="393.7"/><circle cx="61000" cy="16449" r="393.7"/><circle cx="58441" cy="14677" r="393.7"/><circle cx="58441" cy="16449" r="393.7"/><circle cx="62400" cy="12700" r="275.59"/><circle cx="62400" cy="14700" r="275.59"/><circle cx="47300" cy="12700" r="275.59"/><circle cx="47300" cy="14700" r="275.59"/><circle cx="82832" cy="13401" r="275.59"/><circle cx="83816" cy="13401" r="275.59"/><circle cx="84800" cy="13401" r="275.59"/><circle cx="82832" cy="14700" r="275.59"/><circle cx="83816" cy="14700" r="275.59"/><path d="M85076 14424v551.2h-551.2V14424z" fill-rule="evenodd"/><g><circle cx="46000" cy="14700" r="393.7"/><circle cx="46000" cy="16472" r="393.7"/><circle cx="43441" cy="14700" r="393.7"/><circle cx="43441" cy="16472" r="393.7"/><circle cx="77300" cy="12700" r="275.59"/><circle cx="77300" cy="14700" r="275.59"/><circle cx="55959" cy="14677" r="393.7"/><circle cx="55959" cy="16449" r="393.7"/><circle cx="53400" cy="14677" r="393.7"/><circle cx="53400" cy="16449" r="393.7"/><circle cx="51000" cy="14677" r="393.7"/><circle cx="51000" cy="16449" r="393.7"/><circle cx="48441" cy="14677" r="393.7"/><circle cx="48441" cy="16449" r="393.7"/><circle cx="42300" cy="12700" r="275.59"/><circle cx="42300" cy="14700" r="275.59"/><circle cx="52300" cy="12700" r="275.59"/><circle cx="52300" cy="14700" r="275.59"/><circle cx="57300" cy="12700" r="275.59"/><circle cx="57300" cy="14700" r="275.59"/></g></g><g fill="#212d53" stroke="none" stroke-linecap="round" stroke-linejoin="round" stroke-width="0"><circle cx="87000" cy="16300" r="334.65"/><circle cx="86000" cy="16300" r="334.65"/><circle cx="87000" cy="17300" r="334.65"/><circle cx="86000" cy="17300" r="334.65"/><circle cx="87000" cy="18300" r="334.65"/><circle cx="86000" cy="18300" r="334.65"/><circle cx="87000" cy="19300" r="334.65"/><circle cx="86000" cy="19300" r="334.65"/><circle cx="87000" cy="20300" r="334.65"/><path d="M86335 19965v669.2h-669.2V19965z" fill-rule="evenodd"/><circle cx="66059" cy="14677" r="393.7"/><circle cx="66059" cy="16449" r="393.7"/><circle cx="63500" cy="14677" r="393.7"/><circle cx="63500" cy="16449" r="393.7"/><circle cx="71100" cy="14700" r="393.7"/><circle cx="71100" cy="16472" r="393.7"/><circle cx="68541" cy="14700" r="393.7"/><circle cx="68541" cy="16472" r="393.7"/><circle cx="76059" cy="14700" r="393.7"/><circle cx="76059" cy="16472" r="393.7"/><circle cx="73500" cy="14700" r="393.7"/><circle cx="73500" cy="16472" r="393.7"/><circle cx="67400" cy="12700" r="275.59"/><circle cx="67400" cy="14700" r="275.59"/><circle cx="72400" cy="12700" r="275.59"/><circle cx="72400" cy="14700" r="275.59"/><circle cx="80959" cy="14677" r="393.7"/><circle cx="80959" cy="16449" r="393.7"/><circle cx="78400" cy="14677" r="393.7"/><circle cx="78400" cy="16449" r="393.7"/><circle cx="61000" cy="14677" r="393.7"/><circle cx="61000" cy="16449" r="393.7"/><circle cx="58441" cy="14677" r="393.7"/><circle cx="58441" cy="16449" r="393.7"/><circle cx="62400" cy="12700" r="275.59"/><circle cx="62400" cy="14700" r="275.59"/><circle cx="47300" cy="12700" r="275.59"/><circle cx="47300" cy="14700" r="275.59"/><circle cx="82832" cy="13401" r="275.59"/><circle cx="83816" cy="13401" r="275.59"/><circle cx="84800" cy="13401" r="275.59"/><circle cx="82832" cy="14700" r="275.59"/><circle cx="83816" cy="14700" r="275.59"/><path d="M85076 14424v551.2h-551.2V14424z" fill-rule="evenodd"/><circle cx="46000" cy="14700" r="393.7"/><circle cx="46000" cy="16472" r="393.7"/><circle cx="43441" cy="14700" r="393.7"/><circle cx="43441" cy="16472" r="393.7"/><circle cx="77300" cy="12700" r="275.59"/><circle cx="77300" cy="14700" r="275.59"/><circle cx="55959" cy="14677" r="393.7"/><circle cx="55959" cy="16449" r="393.7"/><circle cx="53400" cy="14677" r="393.7"/><circle cx="53400" cy="16449" r="393.7"/><circle cx="51000" cy="14677" r="393.7"/><circle cx="51000" cy="16449" r="393.7"/><circle cx="48441" cy="14677" r="393.7"/><circle cx="48441" cy="16449" r="393.7"/><circle cx="42300" cy="12700" r="275.59"/><circle cx="42300" cy="14700" r="275.59"/><circle cx="52300" cy="12700" r="275.59"/><circle cx="52300" cy="14700" r="275.59"/><circle cx="57300" cy="12700" r="275.59"/><circle cx="57300" cy="14700" r="275.59"/><circle cx="87000" cy="16300" r="68.898"/><circle cx="86000" cy="16300" r="68.898"/><circle cx="87000" cy="17300" r="68.898"/><circle cx="86000" cy="17300" r="68.898"/><circle cx="87000" cy="18300" r="68.898"/><circle cx="86000" cy="18300" r="68.898"/><circle cx="87000" cy="19300" r="68.898"/><circle cx="86000" cy="19300" r="68.898"/><circle cx="87000" cy="20300" r="68.898"/><circle cx="86000" cy="20300" r="68.898"/><circle cx="66059" cy="14677" r="68.898"/><circle cx="66059" cy="16449" r="68.898"/><circle cx="63500" cy="14677" r="68.898"/><circle cx="63500" cy="16449" r="68.898"/><circle cx="71100" cy="14700" r="68.898"/><circle cx="71100" cy="16472" r="68.898"/><circle cx="68541" cy="14700" r="68.898"/><circle cx="68541" cy="16472" r="68.898"/><circle cx="76059" cy="14700" r="68.898"/><circle cx="76059" cy="16472" r="68.898"/><circle cx="73500" cy="14700" r="68.898"/><circle cx="73500" cy="16472" r="68.898"/><circle cx="67400" cy="12700" r="68.898"/><circle cx="67400" cy="14700" r="68.898"/><circle cx="72400" cy="12700" r="68.898"/><circle cx="72400" cy="14700" r="68.898"/><circle cx="80959" cy="14677" r="68.898"/><circle cx="80959" cy="16449" r="68.898"/><circle cx="78400" cy="14677" r="68.898"/><circle cx="78400" cy="16449" r="68.898"/><circle cx="61000" cy="14677" r="68.898"/><circle cx="61000" cy="16449" r="68.898"/><circle cx="58441" cy="14677" r="68.898"/><circle cx="58441" cy="16449" r="68.898"/><circle cx="62400" cy="12700" r="68.898"/><circle cx="62400" cy="14700" r="68.898"/><circle cx="47300" cy="12700" r="68.898"/><circle cx="47300" cy="14700" r="68.898"/><circle cx="82832" cy="13401" r="68.898"/><circle cx="83816" cy="13401" r="68.898"/><circle cx="84800" cy="13401" r="68.898"/><circle cx="82832" cy="14700" r="68.898"/><circle cx="83816" cy="14700" r="68.898"/><circle cx="84800" cy="14700" r="68.898"/><circle cx="46000" cy="14700" r="68.898"/><circle cx="46000" cy="16472" r="68.898"/><circle cx="43441" cy="14700" r="68.898"/><circle cx="43441" cy="16472" r="68.898"/><circle cx="77300" cy="12700" r="68.898"/><circle cx="77300" cy="14700" r="68.898"/><circle cx="55959" cy="14677" r="68.898"/><circle cx="55959" cy="16449" r="68.898"/><circle cx="53400" cy="14677" r="68.898"/><circle cx="53400" cy="16449" r="68.898"/><circle cx="51000" cy="14677" r="68.898"/><circle cx="51000" cy="16449" r="68.898"/><circle cx="48441" cy="14677" r="68.898"/><circle cx="48441" cy="16449" r="68.898"/><circle cx="42300" cy="12700" r="68.898"/><circle cx="42300" cy="14700" r="68.898"/><circle cx="52300" cy="12700" r="68.898"/><circle cx="52300" cy="14700" r="68.898"/><circle cx="57300" cy="12700" r="68.898"/><circle cx="57300" cy="14700" r="68.898"/></g><g fill="#b5ae30" mask="url(#c)" stroke="none" stroke-linecap="round" stroke-linejoin="round" stroke-width="0"><circle cx="87000" cy="16300" r="334.65"/><circle cx="86000" cy="16300" r="334.65"/><circle cx="87000" cy="17300" r="334.65"/><circle cx="86000" cy="17300" r="334.65"/><circle cx="87000" cy="18300" r="334.65"/><circle cx="86000" cy="18300" r="334.65"/><circle cx="87000" cy="19300" r="334.65"/><circle cx="86000" cy="19300" r="334.65"/><circle cx="87000" cy="20300" r="334.65"/><path d="M86335 19965v669.2h-669.2V19965z" fill-rule="evenodd"/><circle cx="66059" cy="14677" r="393.7"/><circle cx="66059" cy="16449" r="393.7"/><circle cx="63500" cy="14677" r="393.7"/><circle cx="63500" cy="16449" r="393.7"/><circle cx="71100" cy="14700" r="393.7"/><circle cx="71100" cy="16472" r="393.7"/><circle cx="68541" cy="14700" r="393.7"/><circle cx="68541" cy="16472" r="393.7"/><circle cx="76059" cy="14700" r="393.7"/><circle cx="76059" cy="16472" r="393.7"/><circle cx="73500" cy="14700" r="393.7"/><circle cx="73500" cy="16472" r="393.7"/><circle cx="67400" cy="12700" r="275.59"/><circle cx="67400" cy="14700" r="275.59"/><circle cx="72400" cy="12700" r="275.59"/><circle cx="72400" cy="14700" r="275.59"/><circle cx="80959" cy="14677" r="393.7"/><circle cx="80959" cy="16449" r="393.7"/><circle cx="78400" cy="14677" r="393.7"/><circle cx="78400" cy="16449" r="393.7"/><circle cx="61000" cy="14677" r="393.7"/><circle cx="61000" cy="16449" r="393.7"/><circle cx="58441" cy="14677" r="393.7"/><circle cx="58441" cy="16449" r="393.7"/><circle cx="62400" cy="12700" r="275.59"/><circle cx="62400" cy="14700" r="275.59"/><circle cx="47300" cy="12700" r="275.59"/><circle cx="47300" cy="14700" r="275.59"/><circle cx="82832" cy="13401" r="275.59"/><circle cx="83816" cy="13401" r="275.59"/><circle cx="84800" cy="13401" r="275.59"/><circle cx="82832" cy="14700" r="275.59"/><circle cx="83816" cy="14700" r="275.59"/><path d="M85076 14424v551.2h-551.2V14424z" fill-rule="evenodd"/><circle cx="46000" cy="14700" r="393.7"/><circle cx="46000" cy="16472" r="393.7"/><circle cx="43441" cy="14700" r="393.7"/><circle cx="43441" cy="16472" r="393.7"/><circle cx="77300" cy="12700" r="275.59"/><circle cx="77300" cy="14700" r="275.59"/><circle cx="55959" cy="14677" r="393.7"/><circle cx="55959" cy="16449" r="393.7"/><circle cx="53400" cy="14677" r="393.7"/><circle cx="53400" cy="16449" r="393.7"/><circle cx="51000" cy="14677" r="393.7"/><circle cx="51000" cy="16449" r="393.7"/><circle cx="48441" cy="14677" r="393.7"/><circle cx="48441" cy="16449" r="393.7"/><circle cx="42300" cy="12700" r="275.59"/><circle cx="42300" cy="14700" r="275.59"/><circle cx="52300" cy="12700" r="275.59"/><circle cx="52300" cy="14700" r="275.59"/><circle cx="57300" cy="12700" r="275.59"/><circle cx="57300" cy="14700" r="275.59"/><circle cx="87000" cy="16300" r="68.898"/><circle cx="86000" cy="16300" r="68.898"/><circle cx="87000" cy="17300" r="68.898"/><circle cx="86000" cy="17300" r="68.898"/><circle cx="87000" cy="18300" r="68.898"/><circle cx="86000" cy="18300" r="68.898"/><circle cx="87000" cy="19300" r="68.898"/><circle cx="86000" cy="19300" r="68.898"/><circle cx="87000" cy="20300" r="68.898"/><circle cx="86000" cy="20300" r="68.898"/><circle cx="66059" cy="14677" r="68.898"/><circle cx="66059" cy="16449" r="68.898"/><circle cx="63500" cy="14677" r="68.898"/><circle cx="63500" cy="16449" r="68.898"/><circle cx="71100" cy="14700" r="68.898"/><circle cx="71100" cy="16472" r="68.898"/><circle cx="68541" cy="14700" r="68.898"/><circle cx="68541" cy="16472" r="68.898"/><circle cx="76059" cy="14700" r="68.898"/><circle cx="76059" cy="16472" r="68.898"/><circle cx="73500" cy="14700" r="68.898"/><circle cx="73500" cy="16472" r="68.898"/><circle cx="67400" cy="12700" r="68.898"/><circle cx="67400" cy="14700" r="68.898"/><circle cx="72400" cy="12700" r="68.898"/><circle cx="72400" cy="14700" r="68.898"/><circle cx="80959" cy="14677" r="68.898"/><circle cx="80959" cy="16449" r="68.898"/><circle cx="78400" cy="14677" r="68.898"/><circle cx="78400" cy="16449" r="68.898"/><circle cx="61000" cy="14677" r="68.898"/><circle cx="61000" cy="16449" r="68.898"/><circle cx="58441" cy="14677" r="68.898"/><circle cx="58441" cy="16449" r="68.898"/><circle cx="62400" cy="12700" r="68.898"/><circle cx="62400" cy="14700" r="68.898"/><circle cx="47300" cy="12700" r="68.898"/><circle cx="47300" cy="14700" r="68.898"/><circle cx="82832" cy="13401" r="68.898"/><circle cx="83816" cy="13401" r="68.898"/><circle cx="84800" cy="13401" r="68.898"/><circle cx="82832" cy="14700" r="68.898"/><circle cx="83816" cy="14700" r="68.898"/><circle cx="84800" cy="14700" r="68.898"/><circle cx="46000" cy="14700" r="68.898"/><circle cx="46000" cy="16472" r="68.898"/><circle cx="43441" cy="14700" r="68.898"/><circle cx="43441" cy="16472" r="68.898"/><circle cx="77300" cy="12700" r="68.898"/><circle cx="77300" cy="14700" r="68.898"/><circle cx="55959" cy="14677" r="68.898"/><circle cx="55959" cy="16449" r="68.898"/><circle cx="53400" cy="14677" r="68.898"/><circle cx="53400" cy="16449" r="68.898"/><circle cx="51000" cy="14677" r="68.898"/><circle cx="51000" cy="16449" r="68.898"/><circle cx="48441" cy="14677" r="68.898"/><circle cx="48441" cy="16449" r="68.898"/><circle cx="42300" cy="12700" r="68.898"/><circle cx="42300" cy="14700" r="68.898"/><circle cx="52300" cy="12700" r="68.898"/><circle cx="52300" cy="14700" r="68.898"/><circle cx="57300" cy="12700" r="68.898"/><circle cx="57300" cy="14700" r="68.898"/></g><defs><mask id="c"><g stroke="#fff" stroke-linecap="round" stroke-linejoin="round" fill="#fff" stroke-width="0"><circle cx="87000" cy="16300" r="334.65"/><circle cx="86000" cy="16300" r="334.65"/><circle cx="87000" cy="17300" r="334.65"/><circle cx="86000" cy="17300" r="334.65"/><circle cx="87000" cy="18300" r="334.65"/><circle cx="86000" cy="18300" r="334.65"/><circle cx="87000" cy="19300" r="334.65"/><circle cx="86000" cy="19300" r="334.65"/><circle cx="87000" cy="20300" r="334.65"/><path d="M86335 19965v669.2h-669.2V19965z" fill-rule="evenodd"/><circle cx="66059" cy="14677" r="393.7"/><circle cx="66059" cy="16449" r="393.7"/><circle cx="63500" cy="14677" r="393.7"/><circle cx="63500" cy="16449" r="393.7"/><circle cx="71100" cy="14700" r="393.7"/><circle cx="71100" cy="16472" r="393.7"/><circle cx="68541" cy="14700" r="393.7"/><circle cx="68541" cy="16472" r="393.7"/><circle cx="76059" cy="14700" r="393.7"/><circle cx="76059" cy="16472" r="393.7"/><circle cx="73500" cy="14700" r="393.7"/><circle cx="73500" cy="16472" r="393.7"/><circle cx="67400" cy="12700" r="275.59"/><circle cx="67400" cy="14700" r="275.59"/><circle cx="72400" cy="12700" r="275.59"/><circle cx="72400" cy="14700" r="275.59"/><circle cx="80959" cy="14677" r="393.7"/><circle cx="80959" cy="16449" r="393.7"/><circle cx="78400" cy="14677" r="393.7"/><circle cx="78400" cy="16449" r="393.7"/><circle cx="61000" cy="14677" r="393.7"/><circle cx="61000" cy="16449" r="393.7"/><circle cx="58441" cy="14677" r="393.7"/><circle cx="58441" cy="16449" r="393.7"/><circle cx="62400" cy="12700" r="275.59"/><circle cx="62400" cy="14700" r="275.59"/><circle cx="47300" cy="12700" r="275.59"/><circle cx="47300" cy="14700" r="275.59"/><circle cx="82832" cy="13401" r="275.59"/><circle cx="83816" cy="13401" r="275.59"/><circle cx="84800" cy="13401" r="275.59"/><circle cx="82832" cy="14700" r="275.59"/><circle cx="83816" cy="14700" r="275.59"/><g><path d="M85076 14424v551.2h-551.2V14424z" fill-rule="evenodd"/></g><g><circle cx="46000" cy="14700" r="393.7"/><circle cx="46000" cy="16472" r="393.7"/><circle cx="43441" cy="14700" r="393.7"/><circle cx="43441" cy="16472" r="393.7"/><circle cx="77300" cy="12700" r="275.59"/><circle cx="77300" cy="14700" r="275.59"/><circle cx="55959" cy="14677" r="393.7"/><circle cx="55959" cy="16449" r="393.7"/><circle cx="53400" cy="14677" r="393.7"/><circle cx="53400" cy="16449" r="393.7"/><circle cx="51000" cy="14677" r="393.7"/><circle cx="51000" cy="16449" r="393.7"/><circle cx="48441" cy="14677" r="393.7"/><circle cx="48441" cy="16449" r="393.7"/><circle cx="42300" cy="12700" r="275.59"/><circle cx="42300" cy="14700" r="275.59"/><circle cx="52300" cy="12700" r="275.59"/><circle cx="52300" cy="14700" r="275.59"/><circle cx="57300" cy="12700" r="275.59"/><circle cx="57300" cy="14700" r="275.59"/></g></g></mask></defs><defs><mask id="d"><g stroke="#000" stroke-linecap="round" stroke-linejoin="round" stroke-width="0"><circle cx="87000" cy="16300" r="334.65"/><circle cx="86000" cy="16300" r="334.65"/><circle cx="87000" cy="17300" r="334.65"/><circle cx="86000" cy="17300" r="334.65"/><circle cx="87000" cy="18300" r="334.65"/><circle cx="86000" cy="18300" r="334.65"/><circle cx="87000" cy="19300" r="334.65"/><circle cx="86000" cy="19300" r="334.65"/><circle cx="87000" cy="20300" r="334.65"/><path d="M86335 19965v669.2h-669.2V19965z" fill-rule="evenodd"/><circle cx="66059" cy="14677" r="393.7"/><circle cx="66059" cy="16449" r="393.7"/><circle cx="63500" cy="14677" r="393.7"/><circle cx="63500" cy="16449" r="393.7"/><circle cx="71100" cy="14700" r="393.7"/><circle cx="71100" cy="16472" r="393.7"/><circle cx="68541" cy="14700" r="393.7"/><circle cx="68541" cy="16472" r="393.7"/><circle cx="76059" cy="14700" r="393.7"/><circle cx="76059" cy="16472" r="393.7"/><circle cx="73500" cy="14700" r="393.7"/><circle cx="73500" cy="16472" r="393.7"/><circle cx="67400" cy="12700" r="275.59"/><circle cx="67400" cy="14700" r="275.59"/><circle cx="72400" cy="12700" r="275.59"/><circle cx="72400" cy="14700" r="275.59"/><circle cx="80959" cy="14677" r="393.7"/><circle cx="80959" cy="16449" r="393.7"/><circle cx="78400" cy="14677" r="393.7"/><circle cx="78400" cy="16449" r="393.7"/><circle cx="61000" cy="14677" r="393.7"/><circle cx="61000" cy="16449" r="393.7"/><circle cx="58441" cy="14677" r="393.7"/><circle cx="58441" cy="16449" r="393.7"/><circle cx="62400" cy="12700" r="275.59"/><circle cx="62400" cy="14700" r="275.59"/><circle cx="47300" cy="12700" r="275.59"/><circle cx="47300" cy="14700" r="275.59"/><circle cx="82832" cy="13401" r="275.59"/><circle cx="83816" cy="13401" r="275.59"/><circle cx="84800" cy="13401" r="275.59"/><circle cx="82832" cy="14700" r="275.59"/><circle cx="83816" cy="14700" r="275.59"/><g><path d="M85076 14424v551.2h-551.2V14424z" fill-rule="evenodd"/></g><g><circle cx="46000" cy="14700" r="393.7"/><circle cx="46000" cy="16472" r="393.7"/><circle cx="43441" cy="14700" r="393.7"/><circle cx="43441" cy="16472" r="393.7"/><circle cx="77300" cy="12700" r="275.59"/><circle cx="77300" cy="14700" r="275.59"/><circle cx="55959" cy="14677" r="393.7"/><circle cx="55959" cy="16449" r="393.7"/><circle cx="53400" cy="14677" r="393.7"/><circle cx="53400" cy="16449" r="393.7"/><circle cx="51000" cy="14677" r="393.7"/><circle cx="51000" cy="16449" r="393.7"/><circle cx="48441" cy="14677" r="393.7"/><circle cx="48441" cy="16449" r="393.7"/><circle cx="42300" cy="12700" r="275.59"/><circle cx="42300" cy="14700" r="275.59"/><circle cx="52300" cy="12700" r="275.59"/><circle cx="52300" cy="14700" r="275.59"/><circle cx="57300" cy="12700" r="275.59"/><circle cx="57300" cy="14700" r="275.59"/></g></g><path fill="#fff" d="M41680 12080h46839v9661H41680z"/></mask></defs><g fill-opacity="0" stroke-linecap="round" stroke-linejoin="round" stroke-width="47.244" fill="none" mask="url(#d)" stroke="#f0f0f0"><path d="M87523 20823h-1023M87523 20823v-5047M87523 15776h-2047M85476 19800v-4024M86500 19800h-1024M86500 20823v-1023M85476 20823v-523M86000 20823h-524M63893 16842h1772M63401 15267v591M65665 14283h-1772M66157 15858v-591M68934 16865h1772M68442 15290v591M70706 14306h-1772M71198 15881v-591M73893 16865h1772M73401 15290v591M75665 14306h-1772M76157 15881v-591M67037 14455v-1511M67762 14455v-1511M72037 14455v-1511M72762 14455v-1511M78793 16842h1772M78301 15267v591M80565 14283h-1772M81057 15858v-591M58834 16842h1772M58342 15267v591M60606 14283h-1772M61098 15858v-591M62037 14455v-1511M62762 14455v-1511M46937 14455v-1511M47662 14455v-1511M85744 14995v-473M85272 14995h472M82004 13223h473M82004 14877v-1654M82477 14877h-473M85626 13223h-472M85626 14877v-1654M85154 14877h472M43834 16865h1772M43342 15290v591M45606 14306h-1772M46098 15881v-591M76937 14455v-1511M77662 14455v-1511M53793 16842h1772M53301 15267v591M55565 14283h-1772M56057 15858v-591M48834 16842h1772M48342 15267v591M50606 14283h-1772M51098 15858v-591M41937 14455v-1511M42662 14455v-1511M51937 14455v-1511M52662 14455v-1511M56937 14455v-1511M57662 14455v-1511"/></g><g fill-opacity="0" stroke-linecap="round" stroke-linejoin="round" stroke-width="39.37" fill="none" stroke="#000"><path d="M88500 21100v-9000M41700 21100v-9000M88500 21100H41700M41700 12100h46800"/></g><defs><mask id="b"><path fill="#fff" d="M41680 12080h46839v9661H41680z"/><path stroke="#000" stroke-linecap="round" stroke-width="393" d="M87000 16300h0M86000 16300h0M87000 17300h0M86000 17300h0M87000 18300h0M86000 18300h0M87000 19300h0M86000 19300h0M87000 20300h0M86000 20300h0"/><path stroke="#000" stroke-linecap="round" stroke-width="433" d="M66059 14677h0M66060 16448h0M63500 14676h0M63500 16448h0M71100 14700h0M71100 16472h0M68540 14700h0M68540 16472h0M76060 14700h0M76059 16471h0M73500 14700h0M73500 16472h0"/><path stroke="#000" stroke-linecap="round" stroke-width="275" d="M67400 12700h0M67400 14700h0M72400 12700h0M72400 14700h0"/><path stroke="#000" stroke-linecap="round" stroke-width="433" d="M80959 14677h0M80960 16448h0M78400 14676h0M78400 16448h0M61000 14676h0M61000 16448h0M58440 14676h0M58440 16448h0"/><path stroke="#000" stroke-linecap="round" stroke-width="275" d="M62400 12700h0M62400 14700h0M47300 12700h0M47300 14700h0"/><path stroke="#000" stroke-linecap="round" stroke-width="354" d="M82832 13400h0M83816 13400h0M84800 13400h0M82832 14700h0M83816 14700h0M84800 14700h0"/><path stroke="#000" stroke-linecap="round" stroke-width="433" d="M46000 14700h0M46000 16472h0M43440 14700h0M43440 16472h0"/><path stroke="#000" stroke-linecap="round" stroke-width="275" d="M77300 12700h0M77300 14700h0"/><path stroke="#000" stroke-linecap="round" stroke-width="433" d="M55959 14677h0M55960 16448h0M53400 14676h0M53400 16448h0M51000 14676h0M51000 16448h0M48440 14676h0M48440 16448h0"/><path stroke="#000" stroke-linecap="round" stroke-width="275" d="M42300 12700h0M42300 14700h0M52300 12700h0M52300 14700h0M57300 12700h0M57300 14700h0"/></mask></defs></g><g stroke="#000" stroke-width=".093"><g transform="matrix(-393.7 0 0 393.7 44215.003 8203.001)"><path d="M-3.81 1.27v-12.7h5.08v12.7z" fill="#1a1a1a" fill-rule="evenodd"/><path d="M-.6-8.22H.6v1.2H-.6zM-3.14-7.02v-1.2h1.2v1.2zM-3.14-4.48v-1.2h1.2v1.2zM-.6-5.68H.6v1.2H-.6zM-3.14-1.94v-1.2h1.2v1.2zM-.6-1.94v-1.2H.6v1.2zM-3.14-.6h1.2V.6h-1.2zM.6.6H-.6V-.6H.6zM-3.14-10.76h1.2v1.2h-1.2zM.6-10.76v1.2H-.6v-1.2z" fill="#666" fill-rule="evenodd"/><path d="M.6-8.22l-.299.299M.6-7.02l-.299-.299M.301-7.921v.602M-.6-8.22l.299.299M-.301-7.921h.602M-.6-7.02l.299-.299M-.301-7.319v-.602M.301-7.319h-.602M-3.14-8.22l.299.299M-1.94-8.22l-.299.299M-2.841-7.921h.602M-3.14-7.02l.299-.299M-2.841-7.319v-.602M-1.94-7.02l-.299-.299M-2.239-7.319h-.602M-2.239-7.921v.602M-1.94-5.68l-.299.299M-1.94-4.48l-.299-.299M-2.239-5.381v.602M-3.14-5.68l.299.299M-2.841-5.381h.602M-3.14-4.48l.299-.299M-2.841-4.779v-.602M-2.239-4.779h-.602M-.6-5.68l.299.299M.6-5.68l-.299.299M-.301-5.381h.602M-.6-4.48l.299-.299M-.301-4.779v-.602M.6-4.48l-.299-.299M.301-4.779h-.602M.301-5.381v.602M-3.14-1.94l.299-.299M-3.14-3.14l.299.299M-2.841-2.239v-.602M-1.94-1.94l-.299-.299M-2.239-2.239h-.602M-1.94-3.14l-.299.299M-2.239-2.841v.602M-2.841-2.841h.602M.6-3.14l-.299.299M.6-1.94l-.299-.299M.301-2.841v.602M-.6-3.14l.299.299M-.301-2.841h.602M-.6-1.94l.299-.299M-.301-2.239v-.602M.301-2.239h-.602M-3.14-.6l.299.299M-1.94-.6l-.299.299M-2.841-.301h.602M-3.14.6l.299-.299M-2.841.301v-.602M-1.94.6l-.299-.299M-2.239.301h-.602M-2.239-.301v.602M-.6-.6l.299.299M.6-.6l-.299.299M-.301-.301h.602M-.6.6l.299-.299M-.301.301v-.602M.6.6L.301.301M.301.301h-.602M.301-.301v.602M-3.14-10.76l.299.299M-1.94-10.76l-.299.299M-2.841-10.461h.602M-3.14-9.56l.299-.299M-2.841-9.859v-.602M-1.94-9.56l-.299-.299M-2.239-9.859h-.602M-2.239-10.461v.602M.6-9.56l-.299-.299M-.6-9.56l.299-.299M.301-9.859h-.602M.6-10.76l-.299.299M.301-10.461v.602M-.6-10.76l.299.299M-.301-10.461h.602M-.301-9.859v-.602" fill="none"/><path d="M-.3-7.32v-.6h.6v.6zM-2.84-7.92h.6v.6h-.6zM-2.84-4.78v-.6h.6v.6zM-.3-4.78v-.6h.6v.6zM-2.84-2.24v-.6h.6v.6zM-.3-2.24v-.6h.6v.6zM-2.84.3v-.6h.6v.6zM.3.3h-.6v-.6h.6zM-2.24-10.46v.6h-.6v-.6zM.3-10.46v.6h-.6v-.6z" fill="olive" fill-rule="evenodd"/><path d="M.1-7.87v-.05M.1-7.37v-.5M.1-7.32v-.05M-.1-7.32v-.05M.1-7.37h-.2M-.1-7.37v-.5M-.1-7.87v-.05M.1-7.87h-.2M-2.64-7.37v.05M-2.64-7.87v.5M-2.64-7.92v.05M-2.44-7.92v.05M-2.64-7.87h.2M-2.44-7.87v.5M-2.44-7.37v.05M-2.64-7.37h.2M-2.64-4.83v.05M-2.64-5.33v.5M-2.64-5.38v.05M-2.44-5.38v.05M-2.64-5.33h.2M-2.44-5.33v.5M-2.44-4.83v.05M-2.64-4.83h.2M.1-5.33v-.05M.1-4.83v-.5M.1-4.78v-.05M-.1-4.78v-.05M.1-4.83h-.2M-.1-4.83v-.5M-.1-5.33v-.05M.1-5.33h-.2M-2.64-2.29v.05M-2.64-2.79v.5M-2.64-2.84v.05M-2.44-2.84v.05M-2.64-2.79h.2M-2.44-2.79v.5M-2.44-2.29v.05M-2.64-2.29h.2M.1-2.79v-.05M.1-2.29v-.5M.1-2.24v-.05M-.1-2.24v-.05M.1-2.29h-.2M-.1-2.29v-.5M-.1-2.79v-.05M.1-2.79h-.2M-2.64.25V.3M-2.64-.25v.5M-2.64-.3v.05M-2.44-.3v.05M-2.64-.25h.2M-2.44-.25v.5M-2.44.25V.3M-2.64.25h.2M.1-.25V-.3M.1.25v-.5M.1.3V.25M-.1.3V.25M.1.25h-.2M-.1.25v-.5M-.1-.25V-.3M.1-.25h-.2M-2.64-9.91v.05M-2.64-10.41v.5M-2.64-10.46v.05M-2.44-10.46v.05M-2.64-10.41h.2M-2.44-10.41v.5M-2.44-9.91v.05M-2.64-9.91h.2M.1-10.41v-.05M.1-9.91v-.5M.1-9.86v-.05M-.1-9.86v-.05M.1-9.91h-.2M-.1-9.91v-.5M-.1-10.41v-.05M.1-10.41h-.2" fill="none"/></g></g><g stroke-width=".093"><g transform="matrix(393.7 0 0 -393.7 21715.385 2579.928)"><path d="M.45.75h5.4a.3.3 0 0 0 .3-.3v-5.4a.3.3 0 0 0-.3-.3H.45a.3.3 0 0 0-.3.3v5.4a.3.3 0 0 0 .3.3z" fill="#666" fill-rule="evenodd" stroke="#191919"/><circle cx="1.15" cy="-4.25" r=".5" fill="#1a1a1a" stroke="#191919"/><circle cx="5.15" cy="-4.25" r=".5" fill="#1a1a1a" stroke="#191919"/><circle cx="1.15" cy="-.25" r=".5" fill="#1a1a1a" stroke="#191919"/><circle cx="5.15" cy="-.25" r=".5" fill="#1a1a1a" stroke="#191919"/><circle cx="3.15" cy="-2.25" r="1.75" fill="none" stroke="#191919"/><path d="M-.425.35h-.012M.14.35h.01M-.162.35h.012M.14-.35h.01" fill="none" stroke="#191919"/><path d="M-.162-.35h-.275v.7h.275z" fill="#ccc" fill-rule="evenodd" stroke="#191919"/><path d="M-.425-.35h-.012" fill="none" stroke="#191919"/><path d="M-.15-.35h.29v.7h-.29" fill="#ccc" fill-rule="evenodd" stroke="#191919"/><path d="M-.162-.35h.012M-.425-4.85h-.012M.14-4.85h.01M-.162-4.85h.012M-.425-4.15h-.012M.14-4.15h.01M-.162-4.15h.012M6.725-4.85h.012M6.16-4.85h-.01" fill="none" stroke="#191919"/><path d="M6.45-4.85h-.29v.7h.577v-.7h-.275z" fill="#ccc" fill-rule="evenodd" stroke="#191919"/><path d="M6.462-4.85H6.45M6.16-4.15h-.01M6.725-4.15h.012M6.462-4.15H6.45M6.725.35h.012M6.16.35h-.01" fill="none" stroke="#191919"/><path d="M6.45.35h-.29v-.7h.577v.7h-.275z" fill="#ccc" fill-rule="evenodd" stroke="#191919"/><path d="M6.462.35H6.45M6.725-.35h.012M6.16-.35h-.01M6.462-.35H6.45M-.15-.35v.7M-.15-4.85v.7M6.45-4.85v.7M6.45-.35v.7" fill="none" stroke="#191919"/><circle cx="3.15" cy="-2.25" r="1.75" fill="none" stroke="#191919"/><circle cx="3.15" cy="-2.25" r="1.65" fill="#1a1a1a" stroke="#191919"/><path d="M-.425-.35v.7M-.425-4.85v.7M6.462-4.85v.7M6.725-4.85v.7M6.462-.35v.7M6.725-.35v.7M4.8-2.25h.1" fill="none" stroke="#191919"/><path d="M-.437-4.85v.7H.14v-.7h-.565z" fill="#ccc" fill-rule="evenodd" stroke="#191919"/><path d="M-.162-4.85v.7" fill="none" stroke="#191919"/></g></g><g stroke-width=".093"><g transform="matrix(393.7 0 0 -393.7 26755.385 2602.928)"><path d="M.45.75h5.4a.3.3 0 0 0 .3-.3v-5.4a.3.3 0 0 0-.3-.3H.45a.3.3 0 0 0-.3.3v5.4a.3.3 0 0 0 .3.3z" fill="#666" fill-rule="evenodd" stroke="#191919"/><circle cx="1.15" cy="-4.25" r=".5" fill="#1a1a1a" stroke="#191919"/><circle cx="5.15" cy="-4.25" r=".5" fill="#1a1a1a" stroke="#191919"/><circle cx="1.15" cy="-.25" r=".5" fill="#1a1a1a" stroke="#191919"/><circle cx="5.15" cy="-.25" r=".5" fill="#1a1a1a" stroke="#191919"/><circle cx="3.15" cy="-2.25" r="1.75" fill="none" stroke="#191919"/><path d="M-.425.35h-.012M.14.35h.01M-.162.35h.012M.14-.35h.01" fill="none" stroke="#191919"/><path d="M-.162-.35h-.275v.7h.275z" fill="#ccc" fill-rule="evenodd" stroke="#191919"/><path d="M-.425-.35h-.012" fill="none" stroke="#191919"/><path d="M-.15-.35h.29v.7h-.29" fill="#ccc" fill-rule="evenodd" stroke="#191919"/><path d="M-.162-.35h.012M-.425-4.85h-.012M.14-4.85h.01M-.162-4.85h.012M-.425-4.15h-.012M.14-4.15h.01M-.162-4.15h.012M6.725-4.85h.012M6.16-4.85h-.01" fill="none" stroke="#191919"/><path d="M6.45-4.85h-.29v.7h.577v-.7h-.275z" fill="#ccc" fill-rule="evenodd" stroke="#191919"/><path d="M6.462-4.85H6.45M6.16-4.15h-.01M6.725-4.15h.012M6.462-4.15H6.45M6.725.35h.012M6.16.35h-.01" fill="none" stroke="#191919"/><path d="M6.45.35h-.29v-.7h.577v.7h-.275z" fill="#ccc" fill-rule="evenodd" stroke="#191919"/><path d="M6.462.35H6.45M6.725-.35h.012M6.16-.35h-.01M6.462-.35H6.45M-.15-.35v.7M-.15-4.85v.7M6.45-4.85v.7M6.45-.35v.7" fill="none" stroke="#191919"/><circle cx="3.15" cy="-2.25" r="1.75" fill="none" stroke="#191919"/><circle cx="3.15" cy="-2.25" r="1.65" fill="#1a1a1a" stroke="#191919"/><path d="M-.425-.35v.7M-.425-4.85v.7M6.462-4.85v.7M6.725-4.85v.7M6.462-.35v.7M6.725-.35v.7M4.8-2.25h.1" fill="none" stroke="#191919"/><path d="M-.437-4.85v.7H.14v-.7h-.565z" fill="#ccc" fill-rule="evenodd" stroke="#191919"/><path d="M-.162-4.85v.7" fill="none" stroke="#191919"/></g></g><g stroke-width=".093"><g transform="matrix(393.7 0 0 -393.7 31715.385 2602.928)"><path d="M.45.75h5.4a.3.3 0 0 0 .3-.3v-5.4a.3.3 0 0 0-.3-.3H.45a.3.3 0 0 0-.3.3v5.4a.3.3 0 0 0 .3.3z" fill="#666" fill-rule="evenodd" stroke="#191919"/><circle cx="1.15" cy="-4.25" r=".5" fill="#1a1a1a" stroke="#191919"/><circle cx="5.15" cy="-4.25" r=".5" fill="#1a1a1a" stroke="#191919"/><circle cx="1.15" cy="-.25" r=".5" fill="#1a1a1a" stroke="#191919"/><circle cx="5.15" cy="-.25" r=".5" fill="#1a1a1a" stroke="#191919"/><circle cx="3.15" cy="-2.25" r="1.75" fill="none" stroke="#191919"/><path d="M-.425.35h-.012M.14.35h.01M-.162.35h.012M.14-.35h.01" fill="none" stroke="#191919"/><path d="M-.162-.35h-.275v.7h.275z" fill="#ccc" fill-rule="evenodd" stroke="#191919"/><path d="M-.425-.35h-.012" fill="none" stroke="#191919"/><path d="M-.15-.35h.29v.7h-.29" fill="#ccc" fill-rule="evenodd" stroke="#191919"/><path d="M-.162-.35h.012M-.425-4.85h-.012M.14-4.85h.01M-.162-4.85h.012M-.425-4.15h-.012M.14-4.15h.01M-.162-4.15h.012M6.725-4.85h.012M6.16-4.85h-.01" fill="none" stroke="#191919"/><path d="M6.45-4.85h-.29v.7h.577v-.7h-.275z" fill="#ccc" fill-rule="evenodd" stroke="#191919"/><path d="M6.462-4.85H6.45M6.16-4.15h-.01M6.725-4.15h.012M6.462-4.15H6.45M6.725.35h.012M6.16.35h-.01" fill="none" stroke="#191919"/><path d="M6.45.35h-.29v-.7h.577v.7h-.275z" fill="#ccc" fill-rule="evenodd" stroke="#191919"/><path d="M6.462.35H6.45M6.725-.35h.012M6.16-.35h-.01M6.462-.35H6.45M-.15-.35v.7M-.15-4.85v.7M6.45-4.85v.7M6.45-.35v.7" fill="none" stroke="#191919"/><circle cx="3.15" cy="-2.25" r="1.75" fill="none" stroke="#191919"/><circle cx="3.15" cy="-2.25" r="1.65" fill="#1a1a1a" stroke="#191919"/><path d="M-.425-.35v.7M-.425-4.85v.7M6.462-4.85v.7M6.725-4.85v.7M6.462-.35v.7M6.725-.35v.7M4.8-2.25h.1" fill="none" stroke="#191919"/><path d="M-.437-4.85v.7H.14v-.7h-.565z" fill="#ccc" fill-rule="evenodd" stroke="#191919"/><path d="M-.162-4.85v.7" fill="none" stroke="#191919"/></g></g><g transform="matrix(0 -393.7 -393.7 0 25614.668 2603.339)" fill="#faa" stroke-width=".093"><path d="M1.14.8V-.8M3.94.8V-.8M1.14-.8c-.24.021-.374.155-.4.4v.8c0 .22.18.4.4.4h.5V-.8zM3.44-.8V.8h.5a.4.4 0 0 0 .4-.4v-.8c-.026-.245-.16-.379-.4-.4z" fill-rule="evenodd" stroke="#191919"/><path d="M4.34.25h.74c.333 0 .333-.5 0-.5h-.74 0z" fill="#999" fill-rule="evenodd" stroke="#191919"/></g><path d="M25516.228 2312.017h196.85v291.338c0 131.232-196.85 131.232-196.85 0z" fill="#999" stroke="#1a1a1a" stroke-width="36.6141"/><path d="M25331.189 1249.027h566.928v708.66h-566.928z" fill="#e9afaf" stroke="#1a1a1a" stroke-width="36.6141"/><path fill="#500" opacity=".997" stroke="#1a1a1a" stroke-width="36.2204" d="M25332.464 1862.372v-71.654h563.779v71.654z"/><path opacity=".997" stroke="#1a1a1a" stroke-width="36.2204" d="M25334.433 1718.278v-71.654h563.778v71.654z"/><path fill="red" opacity=".997" stroke="#1a1a1a" stroke-width="36.2204" d="M25334.826 1572.215v-71.653h563.779v71.653z"/><path fill="olive" opacity=".997" stroke="#1a1a1a" stroke-width="36.2204" d="M25332.464 1376.94v-71.654h563.779v71.654z"/><g transform="matrix(0 -393.7 -393.7 0 30614.668 2603.339)" fill="#faa" stroke-width=".093"><path d="M1.14.8V-.8M3.94.8V-.8M1.14-.8c-.24.021-.374.155-.4.4v.8c0 .22.18.4.4.4h.5V-.8zM3.44-.8V.8h.5a.4.4 0 0 0 .4-.4v-.8c-.026-.245-.16-.379-.4-.4z" fill-rule="evenodd" stroke="#191919"/><path d="M4.34.25h.74c.333 0 .333-.5 0-.5h-.74 0z" fill="#999" fill-rule="evenodd" stroke="#191919"/></g><path d="M30516.228 2312.017h196.85v291.338c0 131.232-196.85 131.232-196.85 0z" fill="#999" stroke="#1a1a1a" stroke-width="36.6141"/><path d="M30331.189 1249.027h566.928v708.66h-566.928z" fill="#e9afaf" stroke="#1a1a1a" stroke-width="36.6141"/><path fill="#500" opacity=".997" stroke="#1a1a1a" stroke-width="36.2204" d="M30332.464 1862.372v-71.654h563.779v71.654z"/><path opacity=".997" stroke="#1a1a1a" stroke-width="36.2204" d="M30334.433 1718.278v-71.654h563.778v71.654z"/><path fill="red" opacity=".997" stroke="#1a1a1a" stroke-width="36.2204" d="M30334.826 1572.215v-71.653h563.779v71.653z"/><path fill="olive" opacity=".997" stroke="#1a1a1a" stroke-width="36.2204" d="M30332.464 1376.94v-71.654h563.779v71.654z"/><g stroke-width=".093"><g transform="matrix(393.7 0 0 -393.7 36615.385 2579.928)"><path d="M.45.75h5.4a.3.3 0 0 0 .3-.3v-5.4a.3.3 0 0 0-.3-.3H.45a.3.3 0 0 0-.3.3v5.4a.3.3 0 0 0 .3.3z" fill="#666" fill-rule="evenodd" stroke="#191919"/><circle cx="1.15" cy="-4.25" r=".5" fill="#1a1a1a" stroke="#191919"/><circle cx="5.15" cy="-4.25" r=".5" fill="#1a1a1a" stroke="#191919"/><circle cx="1.15" cy="-.25" r=".5" fill="#1a1a1a" stroke="#191919"/><circle cx="5.15" cy="-.25" r=".5" fill="#1a1a1a" stroke="#191919"/><circle cx="3.15" cy="-2.25" r="1.75" fill="none" stroke="#191919"/><path d="M-.425.35h-.012M.14.35h.01M-.162.35h.012M.14-.35h.01" fill="none" stroke="#191919"/><path d="M-.162-.35h-.275v.7h.275z" fill="#ccc" fill-rule="evenodd" stroke="#191919"/><path d="M-.425-.35h-.012" fill="none" stroke="#191919"/><path d="M-.15-.35h.29v.7h-.29" fill="#ccc" fill-rule="evenodd" stroke="#191919"/><path d="M-.162-.35h.012M-.425-4.85h-.012M.14-4.85h.01M-.162-4.85h.012M-.425-4.15h-.012M.14-4.15h.01M-.162-4.15h.012M6.725-4.85h.012M6.16-4.85h-.01" fill="none" stroke="#191919"/><path d="M6.45-4.85h-.29v.7h.577v-.7h-.275z" fill="#ccc" fill-rule="evenodd" stroke="#191919"/><path d="M6.462-4.85H6.45M6.16-4.15h-.01M6.725-4.15h.012M6.462-4.15H6.45M6.725.35h.012M6.16.35h-.01" fill="none" stroke="#191919"/><path d="M6.45.35h-.29v-.7h.577v.7h-.275z" fill="#ccc" fill-rule="evenodd" stroke="#191919"/><path d="M6.462.35H6.45M6.725-.35h.012M6.16-.35h-.01M6.462-.35H6.45M-.15-.35v.7M-.15-4.85v.7M6.45-4.85v.7M6.45-.35v.7" fill="none" stroke="#191919"/><circle cx="3.15" cy="-2.25" r="1.75" fill="none" stroke="#191919"/><circle cx="3.15" cy="-2.25" r="1.65" fill="#1a1a1a" stroke="#191919"/><path d="M-.425-.35v.7M-.425-4.85v.7M6.462-4.85v.7M6.725-4.85v.7M6.462-.35v.7M6.725-.35v.7M4.8-2.25h.1" fill="none" stroke="#191919"/><path d="M-.437-4.85v.7H.14v-.7h-.565z" fill="#ccc" fill-rule="evenodd" stroke="#191919"/><path d="M-.162-4.85v.7" fill="none" stroke="#191919"/></g></g><g stroke-width=".093"><g transform="matrix(393.7 0 0 -393.7 16655.385 2579.928)"><path d="M.45.75h5.4a.3.3 0 0 0 .3-.3v-5.4a.3.3 0 0 0-.3-.3H.45a.3.3 0 0 0-.3.3v5.4a.3.3 0 0 0 .3.3z" fill="#666" fill-rule="evenodd" stroke="#191919"/><circle cx="1.15" cy="-4.25" r=".5" fill="#1a1a1a" stroke="#191919"/><circle cx="5.15" cy="-4.25" r=".5" fill="#1a1a1a" stroke="#191919"/><circle cx="1.15" cy="-.25" r=".5" fill="#1a1a1a" stroke="#191919"/><circle cx="5.15" cy="-.25" r=".5" fill="#1a1a1a" stroke="#191919"/><circle cx="3.15" cy="-2.25" r="1.75" fill="none" stroke="#191919"/><path d="M-.425.35h-.012M.14.35h.01M-.162.35h.012M.14-.35h.01" fill="none" stroke="#191919"/><path d="M-.162-.35h-.275v.7h.275z" fill="#ccc" fill-rule="evenodd" stroke="#191919"/><path d="M-.425-.35h-.012" fill="none" stroke="#191919"/><path d="M-.15-.35h.29v.7h-.29" fill="#ccc" fill-rule="evenodd" stroke="#191919"/><path d="M-.162-.35h.012M-.425-4.85h-.012M.14-4.85h.01M-.162-4.85h.012M-.425-4.15h-.012M.14-4.15h.01M-.162-4.15h.012M6.725-4.85h.012M6.16-4.85h-.01" fill="none" stroke="#191919"/><path d="M6.45-4.85h-.29v.7h.577v-.7h-.275z" fill="#ccc" fill-rule="evenodd" stroke="#191919"/><path d="M6.462-4.85H6.45M6.16-4.15h-.01M6.725-4.15h.012M6.462-4.15H6.45M6.725.35h.012M6.16.35h-.01" fill="none" stroke="#191919"/><path d="M6.45.35h-.29v-.7h.577v.7h-.275z" fill="#ccc" fill-rule="evenodd" stroke="#191919"/><path d="M6.462.35H6.45M6.725-.35h.012M6.16-.35h-.01M6.462-.35H6.45M-.15-.35v.7M-.15-4.85v.7M6.45-4.85v.7M6.45-.35v.7" fill="none" stroke="#191919"/><circle cx="3.15" cy="-2.25" r="1.75" fill="none" stroke="#191919"/><circle cx="3.15" cy="-2.25" r="1.65" fill="#1a1a1a" stroke="#191919"/><path d="M-.425-.35v.7M-.425-4.85v.7M6.462-4.85v.7M6.725-4.85v.7M6.462-.35v.7M6.725-.35v.7M4.8-2.25h.1" fill="none" stroke="#191919"/><path d="M-.437-4.85v.7H.14v-.7h-.565z" fill="#ccc" fill-rule="evenodd" stroke="#191919"/><path d="M-.162-4.85v.7" fill="none" stroke="#191919"/></g></g><g><g transform="matrix(0 -393.7 -393.7 0 20614.668 2603.339)" fill="#faa" stroke-width=".093"><path d="M1.14.8V-.8M3.94.8V-.8M1.14-.8c-.24.021-.374.155-.4.4v.8c0 .22.18.4.4.4h.5V-.8zM3.44-.8V.8h.5a.4.4 0 0 0 .4-.4v-.8c-.026-.245-.16-.379-.4-.4z" fill-rule="evenodd" stroke="#191919"/><path d="M4.34.25h.74c.333 0 .333-.5 0-.5h-.74 0z" fill="#999" fill-rule="evenodd" stroke="#191919"/></g><path d="M20516.228 2312.017h196.85v291.338c0 131.232-196.85 131.232-196.85 0z" fill="#999" stroke="#1a1a1a" stroke-width="36.6141"/><path d="M20331.189 1249.027h566.928v708.66h-566.928z" fill="#e9afaf" stroke="#1a1a1a" stroke-width="36.6141"/><path fill="#500" opacity=".997" stroke="#1a1a1a" stroke-width="36.2204" d="M20332.464 1862.372v-71.654h563.779v71.654z"/><path opacity=".997" stroke="#1a1a1a" stroke-width="36.2204" d="M20334.433 1718.278v-71.654h563.778v71.654z"/><path fill="red" opacity=".997" stroke="#1a1a1a" stroke-width="36.2204" d="M20334.826 1572.215v-71.653h563.779v71.653z"/><path fill="olive" opacity=".997" stroke="#1a1a1a" stroke-width="36.2204" d="M20332.464 1376.94v-71.654h563.779v71.654z"/></g><g><g transform="scale(393.7) rotate(-90 10.31 -3.697)" fill="#faa" stroke-width=".093"><path d="M1.14.8V-.8M3.94.8V-.8M1.14-.8c-.24.021-.374.155-.4.4v.8c0 .22.18.4.4.4h.5V-.8zM3.44-.8V.8h.5a.4.4 0 0 0 .4-.4v-.8c-.026-.245-.16-.379-.4-.4z" fill-rule="evenodd" stroke="#191919"/><path d="M4.34.25h.74c.333 0 .333-.5 0-.5h-.74 0z" fill="#999" fill-rule="evenodd" stroke="#191919"/></g><path d="M5416.228 2312.017h196.85v291.338c0 131.232-196.85 131.232-196.85 0z" fill="#999" stroke="#1a1a1a" stroke-width="36.6141"/><path d="M5231.189 1249.027h566.928v708.66h-566.928z" fill="#e9afaf" stroke="#1a1a1a" stroke-width="36.6141"/><path fill="#500" opacity=".997" stroke="#1a1a1a" stroke-width="36.2204" d="M5232.464 1862.372v-71.654h563.779v71.654z"/><path opacity=".997" stroke="#1a1a1a" stroke-width="36.2204" d="M5234.433 1718.278v-71.654h563.778v71.654z"/><path fill="red" opacity=".997" stroke="#1a1a1a" stroke-width="36.2204" d="M5234.827 1572.215v-71.653h563.778v71.653z"/><path fill="olive" opacity=".997" stroke="#1a1a1a" stroke-width="36.2204" d="M5232.464 1376.94v-71.654h563.779v71.654z"/></g><g stroke-width=".093"><g stroke="#000" transform="matrix(-393.7 0 0 393.7 43015.167 2602.867)"><path d="M6.75-.55H6.5M6.75-.55h.05M6.8.15v-.7M6.8-.55h.024M6.95-.55H7M-1.8.15v-.7M-1.8-.55h.05M-1.75-.55h.25M-2-.55h.05M-1.824-.55h.024M-.3.155V.15M.3.155h-.6M.3.155V.15M2.2.155V.15M2.8.155h-.6M2.8.155V.15M4.7.155V.15M5.3.155h-.6M5.3.155V.15M6.95-.55h-.126M6.95-2.75h-.126M-1.824-.55h-.126" fill="none"/><path d="M5.5-3.45H-2v.7h.05v2.2H-2v.7h9v-.7h-.05v-2.2H7v-.7h-.2z" fill="#1a1a1a" fill-rule="evenodd"/><path d="M-.3-3.45v-.005M5.3-3.45v-.005M6.824-2.75H6.8M6.8-2.75h-.05M6.5-2.75h.25M-1.5-.55h.05M-1.5-2.75h.05M-1.824-2.75h-.126M7-2.75h-.05M6.8-2.75v-.7M-1.5-2.75h-.25M-1.75-2.75h-.05M-1.8-2.75v-.7" fill="none"/><path d="M-1.5-3.1h1v-.35.01h6v-.01.35h1v2.9h-1v.35-.01h-6v.01-.35h-1 .05v-2.9" fill="gray" fill-rule="evenodd"/><path d="M-1.8-2.75h-.024M-1.95-2.75H-2M.3-3.45v-.005M.3-3.455h-.6M2.2-3.45v-.005M2.8-3.45v-.005M2.8-3.455h-.6M4.7-3.45v-.005M5.3-3.455h-.6M6.55-.55v-2.2M-1.55-.55v-2.2M-1.45-.55H6.5M-1.45-2.75H6.5" fill="none"/><path d="M.7-.85h3.6v-1.6H.7z" fill="#4d4d4d" fill-rule="evenodd"/><path d="M2.75-2.4v1.5h1.5v-1.5z" fill="#1a1a1a" fill-rule="evenodd"/></g></g><g stroke-width=".093"><g transform="matrix(393.7 0 0 -393.7 1655.385 2602.928)"><path d="M.45.75h5.4a.3.3 0 0 0 .3-.3v-5.4a.3.3 0 0 0-.3-.3H.45a.3.3 0 0 0-.3.3v5.4a.3.3 0 0 0 .3.3z" fill="#666" fill-rule="evenodd" stroke="#191919"/><circle cx="1.15" cy="-4.25" r=".5" fill="#1a1a1a" stroke="#191919"/><circle cx="5.15" cy="-4.25" r=".5" fill="#1a1a1a" stroke="#191919"/><circle cx="1.15" cy="-.25" r=".5" fill="#1a1a1a" stroke="#191919"/><circle cx="5.15" cy="-.25" r=".5" fill="#1a1a1a" stroke="#191919"/><circle cx="3.15" cy="-2.25" r="1.75" fill="none" stroke="#191919"/><path d="M-.425.35h-.012M.14.35h.01M-.162.35h.012M.14-.35h.01" fill="none" stroke="#191919"/><path d="M-.162-.35h-.275v.7h.275z" fill="#ccc" fill-rule="evenodd" stroke="#191919"/><path d="M-.425-.35h-.012" fill="none" stroke="#191919"/><path d="M-.15-.35h.29v.7h-.29" fill="#ccc" fill-rule="evenodd" stroke="#191919"/><path d="M-.162-.35h.012M-.425-4.85h-.012M.14-4.85h.01M-.162-4.85h.012M-.425-4.15h-.012M.14-4.15h.01M-.162-4.15h.012M6.725-4.85h.012M6.16-4.85h-.01" fill="none" stroke="#191919"/><path d="M6.45-4.85h-.29v.7h.577v-.7h-.275z" fill="#ccc" fill-rule="evenodd" stroke="#191919"/><path d="M6.462-4.85H6.45M6.16-4.15h-.01M6.725-4.15h.012M6.462-4.15H6.45M6.725.35h.012M6.16.35h-.01" fill="none" stroke="#191919"/><path d="M6.45.35h-.29v-.7h.577v.7h-.275z" fill="#ccc" fill-rule="evenodd" stroke="#191919"/><path d="M6.462.35H6.45M6.725-.35h.012M6.16-.35h-.01M6.462-.35H6.45M-.15-.35v.7M-.15-4.85v.7M6.45-4.85v.7M6.45-.35v.7" fill="none" stroke="#191919"/><circle cx="3.15" cy="-2.25" r="1.75" fill="none" stroke="#191919"/><circle cx="3.15" cy="-2.25" r="1.65" fill="#1a1a1a" stroke="#191919"/><path d="M-.425-.35v.7M-.425-4.85v.7M6.462-4.85v.7M6.725-4.85v.7M6.462-.35v.7M6.725-.35v.7M4.8-2.25h.1" fill="none" stroke="#191919"/><path d="M-.437-4.85v.7H.14v-.7h-.565z" fill="#ccc" fill-rule="evenodd" stroke="#191919"/><path d="M-.162-4.85v.7" fill="none" stroke="#191919"/></g></g><g><g transform="scale(393.7) rotate(-90 48.41 -41.797)" fill="#faa" stroke-width=".093"><path d="M1.14.8V-.8M3.94.8V-.8M1.14-.8c-.24.021-.374.155-.4.4v.8c0 .22.18.4.4.4h.5V-.8zM3.44-.8V.8h.5a.4.4 0 0 0 .4-.4v-.8c-.026-.245-.16-.379-.4-.4z" fill-rule="evenodd" stroke="#191919"/><path d="M4.34.25h.74c.333 0 .333-.5 0-.5h-.74 0z" fill="#999" fill-rule="evenodd" stroke="#191919"/></g><path d="M35416.228 2312.017h196.85v291.338c0 131.232-196.85 131.232-196.85 0z" fill="#999" stroke="#1a1a1a" stroke-width="36.6141"/><path d="M35231.189 1249.027h566.928v708.66h-566.928z" fill="#e9afaf" stroke="#1a1a1a" stroke-width="36.6141"/><path fill="#500" opacity=".997" stroke="#1a1a1a" stroke-width="36.2204" d="M35232.464 1862.372v-71.654h563.779v71.654z"/><path opacity=".997" stroke="#1a1a1a" stroke-width="36.2204" d="M35234.433 1718.278v-71.654h563.778v71.654z"/><path fill="red" opacity=".997" stroke="#1a1a1a" stroke-width="36.2204" d="M35234.827 1572.215v-71.653h563.778v71.653z"/><path fill="olive" opacity=".997" stroke="#1a1a1a" stroke-width="36.2204" d="M35232.464 1376.94v-71.654h563.779v71.654z"/></g><g stroke-width=".093"><g transform="matrix(393.7 0 0 -393.7 11615.385 2579.928)"><path d="M.45.75h5.4a.3.3 0 0 0 .3-.3v-5.4a.3.3 0 0 0-.3-.3H.45a.3.3 0 0 0-.3.3v5.4a.3.3 0 0 0 .3.3z" fill="#666" fill-rule="evenodd" stroke="#191919"/><circle cx="1.15" cy="-4.25" r=".5" fill="#1a1a1a" stroke="#191919"/><circle cx="5.15" cy="-4.25" r=".5" fill="#1a1a1a" stroke="#191919"/><circle cx="1.15" cy="-.25" r=".5" fill="#1a1a1a" stroke="#191919"/><circle cx="5.15" cy="-.25" r=".5" fill="#1a1a1a" stroke="#191919"/><circle cx="3.15" cy="-2.25" r="1.75" fill="none" stroke="#191919"/><path d="M-.425.35h-.012M.14.35h.01M-.162.35h.012M.14-.35h.01" fill="none" stroke="#191919"/><path d="M-.162-.35h-.275v.7h.275z" fill="#ccc" fill-rule="evenodd" stroke="#191919"/><path d="M-.425-.35h-.012" fill="none" stroke="#191919"/><path d="M-.15-.35h.29v.7h-.29" fill="#ccc" fill-rule="evenodd" stroke="#191919"/><path d="M-.162-.35h.012M-.425-4.85h-.012M.14-4.85h.01M-.162-4.85h.012M-.425-4.15h-.012M.14-4.15h.01M-.162-4.15h.012M6.725-4.85h.012M6.16-4.85h-.01" fill="none" stroke="#191919"/><path d="M6.45-4.85h-.29v.7h.577v-.7h-.275z" fill="#ccc" fill-rule="evenodd" stroke="#191919"/><path d="M6.462-4.85H6.45M6.16-4.15h-.01M6.725-4.15h.012M6.462-4.15H6.45M6.725.35h.012M6.16.35h-.01" fill="none" stroke="#191919"/><path d="M6.45.35h-.29v-.7h.577v.7h-.275z" fill="#ccc" fill-rule="evenodd" stroke="#191919"/><path d="M6.462.35H6.45M6.725-.35h.012M6.16-.35h-.01M6.462-.35H6.45M-.15-.35v.7M-.15-4.85v.7M6.45-4.85v.7M6.45-.35v.7" fill="none" stroke="#191919"/><circle cx="3.15" cy="-2.25" r="1.75" fill="none" stroke="#191919"/><circle cx="3.15" cy="-2.25" r="1.65" fill="#1a1a1a" stroke="#191919"/><path d="M-.425-.35v.7M-.425-4.85v.7M6.462-4.85v.7M6.725-4.85v.7M6.462-.35v.7M6.725-.35v.7M4.8-2.25h.1" fill="none" stroke="#191919"/><path d="M-.437-4.85v.7H.14v-.7h-.565z" fill="#ccc" fill-rule="evenodd" stroke="#191919"/><path d="M-.162-4.85v.7" fill="none" stroke="#191919"/></g></g><g stroke-width=".093"><g transform="matrix(393.7 0 0 -393.7 6655.385 2579.928)"><path d="M.45.75h5.4a.3.3 0 0 0 .3-.3v-5.4a.3.3 0 0 0-.3-.3H.45a.3.3 0 0 0-.3.3v5.4a.3.3 0 0 0 .3.3z" fill="#666" fill-rule="evenodd" stroke="#191919"/><circle cx="1.15" cy="-4.25" r=".5" fill="#1a1a1a" stroke="#191919"/><circle cx="5.15" cy="-4.25" r=".5" fill="#1a1a1a" stroke="#191919"/><circle cx="1.15" cy="-.25" r=".5" fill="#1a1a1a" stroke="#191919"/><circle cx="5.15" cy="-.25" r=".5" fill="#1a1a1a" stroke="#191919"/><circle cx="3.15" cy="-2.25" r="1.75" fill="none" stroke="#191919"/><path d="M-.425.35h-.012M.14.35h.01M-.162.35h.012M.14-.35h.01" fill="none" stroke="#191919"/><path d="M-.162-.35h-.275v.7h.275z" fill="#ccc" fill-rule="evenodd" stroke="#191919"/><path d="M-.425-.35h-.012" fill="none" stroke="#191919"/><path d="M-.15-.35h.29v.7h-.29" fill="#ccc" fill-rule="evenodd" stroke="#191919"/><path d="M-.162-.35h.012M-.425-4.85h-.012M.14-4.85h.01M-.162-4.85h.012M-.425-4.15h-.012M.14-4.15h.01M-.162-4.15h.012M6.725-4.85h.012M6.16-4.85h-.01" fill="none" stroke="#191919"/><path d="M6.45-4.85h-.29v.7h.577v-.7h-.275z" fill="#ccc" fill-rule="evenodd" stroke="#191919"/><path d="M6.462-4.85H6.45M6.16-4.15h-.01M6.725-4.15h.012M6.462-4.15H6.45M6.725.35h.012M6.16.35h-.01" fill="none" stroke="#191919"/><path d="M6.45.35h-.29v-.7h.577v.7h-.275z" fill="#ccc" fill-rule="evenodd" stroke="#191919"/><path d="M6.462.35H6.45M6.725-.35h.012M6.16-.35h-.01M6.462-.35H6.45M-.15-.35v.7M-.15-4.85v.7M6.45-4.85v.7M6.45-.35v.7" fill="none" stroke="#191919"/><circle cx="3.15" cy="-2.25" r="1.75" fill="none" stroke="#191919"/><circle cx="3.15" cy="-2.25" r="1.65" fill="#1a1a1a" stroke="#191919"/><path d="M-.425-.35v.7M-.425-4.85v.7M6.462-4.85v.7M6.725-4.85v.7M6.462-.35v.7M6.725-.35v.7M4.8-2.25h.1" fill="none" stroke="#191919"/><path d="M-.437-4.85v.7H.14v-.7h-.565z" fill="#ccc" fill-rule="evenodd" stroke="#191919"/><path d="M-.162-4.85v.7" fill="none" stroke="#191919"/></g></g><g><g transform="scale(393.7) rotate(-90 3.96 2.653)" fill="#faa" stroke-width=".093"><path d="M1.14.8V-.8M3.94.8V-.8M1.14-.8c-.24.021-.374.155-.4.4v.8c0 .22.18.4.4.4h.5V-.8zM3.44-.8V.8h.5a.4.4 0 0 0 .4-.4v-.8c-.026-.245-.16-.379-.4-.4z" fill-rule="evenodd" stroke="#191919"/><path d="M4.34.25h.74c.333 0 .333-.5 0-.5h-.74 0z" fill="#999" fill-rule="evenodd" stroke="#191919"/></g><path d="M416.228 2312.017h196.85v291.338c0 131.232-196.85 131.232-196.85 0z" fill="#999" stroke="#1a1a1a" stroke-width="36.6141"/><path d="M231.189 1249.027h566.928v708.66H231.189z" fill="#e9afaf" stroke="#1a1a1a" stroke-width="36.6141"/><path fill="#500" opacity=".997" stroke="#1a1a1a" stroke-width="36.2204" d="M232.464 1862.372v-71.654h563.779v71.654z"/><path opacity=".997" stroke="#1a1a1a" stroke-width="36.2204" d="M234.433 1718.278v-71.654H798.21v71.654z"/><path fill="red" opacity=".997" stroke="#1a1a1a" stroke-width="36.2204" d="M234.826 1572.215v-71.653h563.779v71.653z"/><path fill="olive" opacity=".997" stroke="#1a1a1a" stroke-width="36.2204" d="M232.464 1376.94v-71.654h563.779v71.654z"/></g><g><g transform="scale(393.7) rotate(-90 16.66 -10.047)" fill="#faa" stroke-width=".093"><path d="M1.14.8V-.8M3.94.8V-.8M1.14-.8c-.24.021-.374.155-.4.4v.8c0 .22.18.4.4.4h.5V-.8zM3.44-.8V.8h.5a.4.4 0 0 0 .4-.4v-.8c-.026-.245-.16-.379-.4-.4z" fill-rule="evenodd" stroke="#191919"/><path d="M4.34.25h.74c.333 0 .333-.5 0-.5h-.74 0z" fill="#999" fill-rule="evenodd" stroke="#191919"/></g><path d="M10416.228 2312.017h196.85v291.338c0 131.232-196.85 131.232-196.85 0z" fill="#999" stroke="#1a1a1a" stroke-width="36.6141"/><path d="M10231.189 1249.027h566.928v708.66h-566.928z" fill="#e9afaf" stroke="#1a1a1a" stroke-width="36.6141"/><path fill="#500" opacity=".997" stroke="#1a1a1a" stroke-width="36.2204" d="M10232.464 1862.372v-71.654h563.779v71.654z"/><path opacity=".997" stroke="#1a1a1a" stroke-width="36.2204" d="M10234.433 1718.278v-71.654h563.778v71.654z"/><path fill="red" opacity=".997" stroke="#1a1a1a" stroke-width="36.2204" d="M10234.826 1572.215v-71.653h563.779v71.653z"/><path fill="olive" opacity=".997" stroke="#1a1a1a" stroke-width="36.2204" d="M10232.464 1376.94v-71.654h563.779v71.654z"/></g><g><g transform="scale(393.7) rotate(-90 23.01 -16.397)" fill="#faa" stroke-width=".093"><path d="M1.14.8V-.8M3.94.8V-.8M1.14-.8c-.24.021-.374.155-.4.4v.8c0 .22.18.4.4.4h.5V-.8zM3.44-.8V.8h.5a.4.4 0 0 0 .4-.4v-.8c-.026-.245-.16-.379-.4-.4z" fill-rule="evenodd" stroke="#191919"/><path d="M4.34.25h.74c.333 0 .333-.5 0-.5h-.74 0z" fill="#999" fill-rule="evenodd" stroke="#191919"/></g><path d="M15416.228 2312.017h196.85v291.338c0 131.232-196.85 131.232-196.85 0z" fill="#999" stroke="#1a1a1a" stroke-width="36.6141"/><path d="M15231.189 1249.027h566.928v708.66h-566.928z" fill="#e9afaf" stroke="#1a1a1a" stroke-width="36.6141"/><path fill="#500" opacity=".997" stroke="#1a1a1a" stroke-width="36.2204" d="M15232.464 1862.372v-71.654h563.779v71.654z"/><path opacity=".997" stroke="#1a1a1a" stroke-width="36.2204" d="M15234.433 1718.278v-71.654h563.778v71.654z"/><path fill="red" opacity=".997" stroke="#1a1a1a" stroke-width="36.2204" d="M15234.826 1572.215v-71.653h563.779v71.653z"/><path fill="olive" opacity=".997" stroke="#1a1a1a" stroke-width="36.2204" d="M15232.464 1376.94v-71.654h563.779v71.654z"/></g></svg>