<svg width="161" height="185" viewBox="0 0 12932 14899" xmlns="http://www.w3.org/2000/svg"><g clip-path="url(#a)" mask="url(#b)" transform="translate(-50813 -22837)"><defs><clipPath id="a"><path d="M50787 37795V22834h12992v14961H50787" fill-rule="evenodd"/></clipPath></defs><g fill="#313d63" stroke="#313d63"><path d="M50787 37795V22834h12992v14961H50787" fill-rule="evenodd"/><g fill-opacity="0" stroke-linecap="round" stroke-linejoin="round" stroke-width="19.685" fill="none" stroke="#000"><path d="M63779 37795H50787M63779 22834v14961M50787 22834h12992M50787 37795V22834"/></g></g><g fill-opacity="1" stroke="none" stroke-linecap="round" stroke-linejoin="round" stroke-width="0" fill="#9c6b28"><circle cx="52909" cy="26811" r="590.55"/><circle cx="57618" cy="26713" r="590.55"/><circle cx="54319" cy="29484" r="300"/><circle cx="56287" cy="29492" r="300"/><circle cx="54327" cy="23842" r="300"/><circle cx="55311" cy="23850" r="300"/><circle cx="56280" cy="23850" r="300"/><circle cx="59024" cy="28346" r="275.59"/><circle cx="61024" cy="28346" r="275.59"/><circle cx="61055" cy="27362" r="275.59"/><circle cx="59055" cy="27362" r="275.59"/><circle cx="61055" cy="29331" r="275.59"/><circle cx="59055" cy="29331" r="275.59"/><circle cx="62205" cy="29394" r="334.65"/><circle cx="62205" cy="28394" r="334.65"/><circle cx="62205" cy="27394" r="334.65"/><circle cx="62205" cy="26394" r="334.65"/><path d="M61870 25728v-669.2h669.3v669.2z" fill-rule="evenodd"/></g><g fill="#212d53" stroke="#212d53" stroke-linecap="round" stroke-linejoin="round" stroke-width="0"><g fill-opacity="1" stroke="none"><circle cx="54319" cy="29484" r="300"/><circle cx="56287" cy="29492" r="300"/><circle cx="54327" cy="23842" r="300"/><circle cx="55311" cy="23850" r="300"/><circle cx="56280" cy="23850" r="300"/><circle cx="59024" cy="28346" r="275.59"/><circle cx="61024" cy="28346" r="275.59"/><circle cx="61055" cy="27362" r="275.59"/><circle cx="59055" cy="27362" r="275.59"/><circle cx="61055" cy="29331" r="275.59"/><circle cx="59055" cy="29331" r="275.59"/><circle cx="62205" cy="29394" r="334.65"/><circle cx="62205" cy="28394" r="334.65"/><circle cx="62205" cy="27394" r="334.65"/><circle cx="62205" cy="26394" r="334.65"/><path d="M61870 25728v-669.2h669.3v669.2z" fill-rule="evenodd"/></g><g stroke="none"><circle cx="52909" cy="26811" r="68.898"/><circle cx="57618" cy="26713" r="68.898"/><circle cx="54319" cy="29484" r="68.898"/><circle cx="56287" cy="29492" r="68.898"/><circle cx="54327" cy="23842" r="68.898"/><circle cx="55311" cy="23850" r="68.898"/><circle cx="56280" cy="23850" r="68.898"/><circle cx="59024" cy="28346" r="68.898"/><circle cx="61024" cy="28346" r="68.898"/><circle cx="61055" cy="27362" r="68.898"/><circle cx="59055" cy="27362" r="68.898"/><circle cx="61055" cy="29331" r="68.898"/><circle cx="59055" cy="29331" r="68.898"/><circle cx="62205" cy="29394" r="68.898"/><circle cx="62205" cy="28394" r="68.898"/><circle cx="62205" cy="27394" r="68.898"/><circle cx="62205" cy="26394" r="68.898"/><circle cx="62205" cy="25394" r="68.898"/></g></g><g fill="#b5ae30" mask="url(#c)" stroke="#b5ae30" stroke-linecap="round" stroke-linejoin="round" stroke-width="0"><g fill-opacity="1" stroke="none"><circle cx="54319" cy="29484" r="300"/><circle cx="56287" cy="29492" r="300"/><circle cx="54327" cy="23842" r="300"/><circle cx="55311" cy="23850" r="300"/><circle cx="56280" cy="23850" r="300"/><circle cx="59024" cy="28346" r="275.59"/><circle cx="61024" cy="28346" r="275.59"/><circle cx="61055" cy="27362" r="275.59"/><circle cx="59055" cy="27362" r="275.59"/><circle cx="61055" cy="29331" r="275.59"/><circle cx="59055" cy="29331" r="275.59"/><circle cx="62205" cy="29394" r="334.65"/><circle cx="62205" cy="28394" r="334.65"/><circle cx="62205" cy="27394" r="334.65"/><circle cx="62205" cy="26394" r="334.65"/><path d="M61870 25728v-669.2h669.3v669.2z" fill-rule="evenodd"/></g><g stroke="none"><circle cx="52909" cy="26811" r="68.898"/><circle cx="57618" cy="26713" r="68.898"/><circle cx="54319" cy="29484" r="68.898"/><circle cx="56287" cy="29492" r="68.898"/><circle cx="54327" cy="23842" r="68.898"/><circle cx="55311" cy="23850" r="68.898"/><circle cx="56280" cy="23850" r="68.898"/><circle cx="59024" cy="28346" r="68.898"/><circle cx="61024" cy="28346" r="68.898"/><circle cx="61055" cy="27362" r="68.898"/><circle cx="59055" cy="27362" r="68.898"/><circle cx="61055" cy="29331" r="68.898"/><circle cx="59055" cy="29331" r="68.898"/><circle cx="62205" cy="29394" r="68.898"/><circle cx="62205" cy="28394" r="68.898"/><circle cx="62205" cy="27394" r="68.898"/><circle cx="62205" cy="26394" r="68.898"/><circle cx="62205" cy="25394" r="68.898"/></g></g><defs><mask id="c"><g fill="#fff" fill-opacity="1" stroke="#fff" stroke-linecap="round" stroke-linejoin="round" stroke-width="0"><circle cx="52909" cy="26811" r="590.55"/><circle cx="57618" cy="26713" r="590.55"/><circle cx="54319" cy="29484" r="300"/><circle cx="56287" cy="29492" r="300"/><circle cx="54327" cy="23842" r="300"/><circle cx="55311" cy="23850" r="300"/><circle cx="56280" cy="23850" r="300"/><circle cx="59024" cy="28346" r="275.59"/><circle cx="61024" cy="28346" r="275.59"/><circle cx="61055" cy="27362" r="275.59"/><circle cx="59055" cy="27362" r="275.59"/><circle cx="61055" cy="29331" r="275.59"/><circle cx="59055" cy="29331" r="275.59"/><circle cx="62205" cy="29394" r="334.65"/><circle cx="62205" cy="28394" r="334.65"/><circle cx="62205" cy="27394" r="334.65"/><circle cx="62205" cy="26394" r="334.65"/><path d="M61870 25728v-669.2h669.3v669.2z" fill-rule="evenodd"/></g></mask></defs><defs><mask id="d"><g fill-opacity="1" stroke="#000" stroke-linecap="round" stroke-linejoin="round" stroke-width="0"><circle cx="52909" cy="26811" r="590.55"/><circle cx="57618" cy="26713" r="590.55"/><circle cx="54319" cy="29484" r="300"/><circle cx="56287" cy="29492" r="300"/><circle cx="54327" cy="23842" r="300"/><circle cx="55311" cy="23850" r="300"/><circle cx="56280" cy="23850" r="300"/><circle cx="59024" cy="28346" r="275.59"/><circle cx="61024" cy="28346" r="275.59"/><circle cx="61055" cy="27362" r="275.59"/><circle cx="59055" cy="27362" r="275.59"/><circle cx="61055" cy="29331" r="275.59"/><circle cx="59055" cy="29331" r="275.59"/><circle cx="62205" cy="29394" r="334.65"/><circle cx="62205" cy="28394" r="334.65"/><circle cx="62205" cy="27394" r="334.65"/><circle cx="62205" cy="26394" r="334.65"/><path d="M61870 25728v-669.2h669.3v669.2z" fill-rule="evenodd"/></g><path fill="#fff" d="M48275 22824h16948v14980H48275z"/></mask></defs><g fill="#f0f0f0" fill-opacity="0" mask="url(#d)" stroke="#f0f0f0" stroke-linecap="round" stroke-linejoin="round"><g stroke-width="147.64"><path d="M61290 37080v281l281 28-28-28-28-56v-140l28-57 28-28 57-28h140l57 28 28 28 28 57v140l-28 56-28 28M61656 36799v-450M61571 35871l29-84 28-29 56-28h84l57 28 28 29 28 56v225h-591v-197l28-56 29-28 56-29h56l56 29 28 28 28 56v197M61290 35562v-338M61881 35393h-591M59519 37108h393M59294 37249l421 140v-365M59687 36799v-450M59322 35955v-112l28-56 56-57 113-28h196l113 28 56 57 28 56v112l-28 57-56 56-113 28h-196l-113-28-56-56-28-57M59603 35252l28-84 28-28 56-28h85l56 28 28 28 28 56v225h-590v-197l28-56 28-28 56-28h57l56 28 28 28 28 56v197M57156 37418v-366l225 197v-84l29-57 28-28 56-28h140l57 28 28 28 28 57v168l-28 56-28 29M57522 36799v-450M57156 35955v-112l29-56 56-57 112-28h197l113 28 56 57 28 56v112l-28 57-56 56-113 28h-197l-112-28-56-56-29-57M57578 35477v-281M57747 35533l-591-196 591-197M55047 37389l-28-28-28-56v-140l28-57 28-28 57-28h56l84 28 338 338v-366M55357 36799v-450M55019 35758l-28 57v84l28 84 56 57 57 28 112 28h85l112-28 56-28 56-57 29-84v-56l-29-85-28-28h-196v113M55188 35477h394M55244 35477l-28-28-28-56v-85l28-56 56-28h310M55582 34690h-591M55553 34690l29 56v113l-29 56-28 28-56 28h-169l-56-28-28-28-28-56v-113l28-56M53416 37052v337M53416 37221h-590l84 56 56 56 28 56M53191 36799v-450M52826 36152l590-197-590-197M53388 35308l28 57v112l-28 56-28 29-56 28h-169l-56-28-28-29-28-56v-112l28-57M53388 34802l28 57v112l-28 56-28 28-56 29h-169l-56-29-28-28-28-56v-112l28-57" fill="none"/></g><g stroke-width="62.992" fill="none"><path d="M57441 29153v-4757M53133 29153h4308M53133 24396v4757M57441 24396h-4308"/></g><g stroke-width="47.244" fill="none"><path d="M60779 28708h-1512M60779 27984h-1512M59299 27000h1512M59299 27724h1512M59299 28968h1512M59299 29692h1512M61681 25893h1047M61681 25893v4024M61681 29917h1047M62728 25893v4024M62728 24870v523M62204 24870h524"/></g></g><g fill-opacity="0" stroke-linecap="round" stroke-linejoin="round" stroke-width="19.685" fill="none" stroke="#000"><path d="M63779 37795H50787M63779 22834v14961M50787 22834h12992M50787 37795V22834"/></g><defs><mask id="b"><path fill="#fff" d="M48275 22824h16948v14980H48275z"/><path stroke="#000" stroke-linecap="round" stroke-width="1181" d="M52908 26812h0M57618 26712h0"/><path stroke="#000" stroke-linecap="round" stroke-width="300" d="M54318 29484h0M56288 29492h0M54326 23842h0M55312 23850h0M56280 23850h0"/><path stroke="#000" stroke-linecap="round" stroke-width="275" d="M59024 28346h0M61024 28346h0M61055 27362h0M59055 27362h0M61055 29330h0M59055 29330h0"/><path stroke="#000" stroke-linecap="round" stroke-width="393" d="M62204 29393h0M62204 28393h0M62204 27393h0M62204 26393h0M62204 25393h0"/></mask></defs></g><g transform="matrix(-393.7 0 0 -393.7 7091 6819)" stroke="#191919" stroke-width=".093"><path d="M.729 2.779v-.45a1 1 0 0 1 1-1h9.7a1 1 0 0 1 1 1v3.026l.1.283V9.02l-.1.283v3.026a1 1 0 0 1-1 1h-9.7a1 1 0 0 1-1-1v-.7 0-2.326l-.1-.283V5.638l.1-.283V2.83z" fill="#00fa80" fill-rule="evenodd"/><path d="M6.579 15.029a.3.3 0 0 1 .224-.1h.526v-1.3h.5v-.3h-2.5v.3h.5v1.3h.526zM9.079 15.029a.3.3 0 0 1 .224-.1h.526v-1.4c0-.133.2-.133.2 0h.9v-.2h-2.6 0v1.6h.526zM3.855 14.929H3.33v-1.4c0-.133-.2-.133-.2 0h-.9v-.2h2.6v1.6h-.526 0a.3.3 0 0 1-.224.1zM4.079.129a.3.3 0 0 0-.224.1H3.33v.9c0 .133-.2.133-.2 0h-.9v.2h2.6v-1.1h-.526 0a.3.3 0 0 0-.448 0zM9.079.129a.3.3 0 0 1 .224.1h.526v.9c0 .133.2.133.2 0h.9v.2h-2.6 0v-1.1h.526a.3.3 0 0 1 .448 0z" fill="#b3b3b3" fill-rule="evenodd"/><path d="M12.028 6.079v-3.25h.001v-1a.5.5 0 0 0-.5-.5h-9.9a.5.5 0 0 0-.5.5v1h.001v3.35h-.001v2.3h.001v3.35h-.001v1a.5.5 0 0 0 .5.5h9.9a.5.5 0 0 0 .5-.5v-1h-.001v-3.25" fill="#666" fill-rule="evenodd"/><path d="M12.629 6.079h.334-.534 0-1.736c-1.235-4.067-6.993-4.067-8.228 0H.129v2.5h2.336c1.235 4.067 6.993 4.067 8.228 0h2.336v-2.5h-.066" fill="#999" fill-rule="evenodd"/><path d="M12.029 11.879v-3.4M12.029 6.179v-3.4M1.129 2.779v3.4M1.129 8.479v3.4M2.462 8.479a4.275 4.275 0 0 0 8.234 0M1.129 8.479h1.333M2.462 6.179H1.129M10.696 6.179a4.275 4.275 0 0 0-8.235 0M12.029 6.179h-1.333M10.696 8.479h1.333M1.129 11.879h-.4M12.429 11.879h-.4M12.029 2.779h.4M.729 2.779h.4" fill="none"/><circle transform="scale(1 -1)" cx="6.579" cy="-7.329" r="3.5" fill="#ececec"/><path d="M4.601 7.03l2.027-1.7M6.628 5.33a2 2 0 1 1-2.026 1.7M4.601 7.03l-.028.024-.029.024-.029.025-.03.025-.03.025-.044.037-.044.037-.046.039-.037.03-.038.032-.04.034-.042.035-.043.037-.045.038-.047.039-.048.04-.048.04-.05.042-.05.042-.052.043-.051.044-.053.044-.052.044M6.579 10.329A3 3 0 0 1 3.625 7.85" fill="none"/><path d="M7.605 4.51a3 3 0 0 1-1.026 5.819M6.628 5.33l.029-.024.028-.024.03-.025.03-.025.03-.025.043-.037.045-.037.046-.039.036-.03.038-.032.041-.034.041-.035a1383.488 1383.488 0 0 0 .09-.075L7.2 4.85l.047-.04.049-.04.05-.042.05-.042c.017-.015.034-.03.051-.043l.052-.044.052-.044.053-.044" fill="none"/><path d="M3.625 7.85a3 3 0 0 1 3.98-3.34M7.829 13.629h-2.5M12.429 2.829h-.4M12.429 2.829v9M12.429 9.929v1.7M12.429 9.303v.626zM12.429 8.579v-2.5M12.429 8.579v.724M12.429 6.079v2.5M12.429 5.355v.724M12.429 6.079h-.3M12.429 8.579h-.3M12.429 4.929h-.4M12.429 8.579h-.4M12.028 11.829h.4M12.429 2.829h-.401M12.429 6.079h-.4M12.429 6.079v2.5M12.028 11.829h.001M1.129 11.829h.001M1.13 2.829h-.001M12.029 2.829h-.001M.729 8.579h.401M.729 8.579v-2.5M.729 6.079h.401M1.13 2.829H.729M.729 11.829v-9M.729 11.829h.401M.729 6.079v2.5M.729 6.079v-.724M.729 8.579v-2.5M.729 9.303v-.724M1.029 8.579h-.3M1.029 6.079h-.3M1.129 9.729h-.4M.729 11.829h.4M1.129 2.829h-.4M1.129 4.929h-.4M12.029 11.829h.4M12.429 9.729h-.4M12.529 6.079h.5M.629 8.579v-2.5M1.029 8.579v-2.5M1.029 8.579v.44M1.029 9.02v-.441M1.029 6.079v-.44M12.529 6.079v2.5M12.129 6.079v2.5M12.129 6.079v-.44M12.129 5.638v.441M12.129 8.579v.44M6.803 14.629v-1M6.803 14.929v-.3M6.355 14.929v-.3M6.355 14.629v-1M3.855.529v.8M4.303.529v.8M3.855.229v.3M4.303.229v.3M3.855 14.629v-1.3M4.303 14.629v-1.3M3.855 14.929v-.3M4.303 14.929v-.3M8.855 14.629v-1.3M9.303 14.629v-1.3M9.303 14.929v-.3M8.855 14.929v-.3M9.303.529v.8M9.303.229v.3M8.855.529v.8M8.855.229v.3M3.855.229v.6M4.303.529V.231v.598M8.855.229v.6M12.157 2.829h.271-.4M12.157 4.929h.272M12.429 6.079v-.724.724M.729 8.579v.724-.724M1 9.729H.73M1 11.829H.73h.399M1.129 2.829h-.4.272M.629 6.079H.195.53M.629 8.579H.153h.376M12.029 11.829h.4-.272M12.529 8.579h.434-.334M.629 8.579v.397-.397M1.079 8.579v.49-.49M1.029 8.579v.44-.44M12.529 6.079v-.44.342zM12.079 6.079v-.49.49M12.129 6.079v-.44.44M12.028 11.829v-3.35h.001v-2.3h-.001v-3.35M1.13 11.829v-3.25M1.13 6.079v-3.25M1.079 9.07v-.491M1.079 8.579v-2.5M1.079 6.079v-.49M12.079 5.588v.491M12.079 6.079v2.5M12.079 8.579v.49M6.803 14.629h.526M5.829 14.629h.526M6.355 14.629h.448M3.329.529h.526M3.855.529h.448M4.303.529h.526M3.329 14.629h.526M3.855 14.629h.448M4.303 14.629h.526M8.329 14.629h.526M8.855 14.629h.448M9.303 14.629h.526M9.829.529h-.526M9.303.529h-.448M8.855.529H8.33M1.129 9.07h-.05M1.129 5.588h-.05M1.079 5.588l-.05.05M1.079 9.07l-.05-.05M12.029 5.588h.05M12.029 9.07h.05M12.079 9.07l.05-.05M12.079 5.588l.05.05" fill="none"/></g><g transform="matrix(-393.7 0 0 393.7 10210.339 5509.332)" fill="#faa" stroke-width=".093"><path d="M1.14.8V-.8M3.94.8V-.8M1.14-.8c-.24.021-.374.155-.4.4v.8c0 .22.18.4.4.4h.5V-.8zM3.44-.8V.8h.5a.4.4 0 0 0 .4-.4v-.8c-.026-.245-.16-.379-.4-.4z" fill-rule="evenodd" stroke="#191919"/><path d="M4.34.25h.74c.333 0 .333-.5 0-.5h-.74 0z" fill="#999" fill-rule="evenodd" stroke="#191919"/></g><path d="M9919.017 5607.772v-196.85h291.338c131.232 0 131.232 196.85 0 196.85z" fill="#999" stroke="#1a1a1a" stroke-width="36.6141"/><path d="M8856.027 5792.811v-566.928h708.66v566.928z" fill="#e9afaf" stroke="#1a1a1a" stroke-width="36.6141"/><path fill="#500" opacity=".997" stroke="#1a1a1a" stroke-width="36.2204" d="M9469.372 5791.536h-71.654v-563.779h71.654z"/><path opacity=".997" stroke="#1a1a1a" stroke-width="36.2204" d="M9325.278 5789.567h-71.654V5225.79h71.654z"/><path fill="red" opacity=".997" stroke="#1a1a1a" stroke-width="36.2204" d="M9179.215 5789.173h-71.654v-563.778h71.654z"/><path fill="olive" opacity=".997" stroke="#1a1a1a" stroke-width="36.2204" d="M8983.94 5791.536h-71.654v-563.779h71.654z"/><g><g transform="matrix(393.7 0 0 -393.7 8241.661 4524.668)" fill="#faa" stroke-width=".093"><path d="M1.14.8V-.8M3.94.8V-.8M1.14-.8c-.24.021-.374.155-.4.4v.8c0 .22.18.4.4.4h.5V-.8zM3.44-.8V.8h.5a.4.4 0 0 0 .4-.4v-.8c-.026-.245-.16-.379-.4-.4z" fill-rule="evenodd" stroke="#191919"/><path d="M4.34.25h.74c.333 0 .333-.5 0-.5h-.74 0z" fill="#999" fill-rule="evenodd" stroke="#191919"/></g><path d="M8532.983 4426.228v196.85h-291.338c-131.232 0-131.232-196.85 0-196.85z" fill="#999" stroke="#1a1a1a" stroke-width="36.6141"/><path d="M9595.973 4241.189v566.928h-708.66v-566.928z" fill="#e9afaf" stroke="#1a1a1a" stroke-width="36.6141"/><path fill="#500" opacity=".997" stroke="#1a1a1a" stroke-width="36.2204" d="M8982.628 4242.464h71.654v563.779h-71.654z"/><path opacity=".997" stroke="#1a1a1a" stroke-width="36.2204" d="M9126.722 4244.433h71.654v563.778h-71.654z"/><path fill="red" opacity=".997" stroke="#1a1a1a" stroke-width="36.2204" d="M9272.785 4244.827h71.654v563.778h-71.654z"/><path fill="olive" opacity=".997" stroke="#1a1a1a" stroke-width="36.2204" d="M9468.06 4242.464h71.654v563.779h-71.654z"/></g><g><g transform="matrix(393.7 0 0 -393.7 8241.661 6492.668)" fill="#faa" stroke-width=".093"><path d="M1.14.8V-.8M3.94.8V-.8M1.14-.8c-.24.021-.374.155-.4.4v.8c0 .22.18.4.4.4h.5V-.8zM3.44-.8V.8h.5a.4.4 0 0 0 .4-.4v-.8c-.026-.245-.16-.379-.4-.4z" fill-rule="evenodd" stroke="#191919"/><path d="M4.34.25h.74c.333 0 .333-.5 0-.5h-.74 0z" fill="#999" fill-rule="evenodd" stroke="#191919"/></g><path d="M8532.983 6394.228v196.85h-291.338c-131.232 0-131.232-196.85 0-196.85z" fill="#999" stroke="#1a1a1a" stroke-width="36.6141"/><path d="M9595.973 6209.189v566.928h-708.66v-566.928z" fill="#e9afaf" stroke="#1a1a1a" stroke-width="36.6141"/><path fill="#500" opacity=".997" stroke="#1a1a1a" stroke-width="36.2204" d="M8982.628 6210.464h71.654v563.779h-71.654z"/><path opacity=".997" stroke="#1a1a1a" stroke-width="36.2204" d="M9126.722 6212.433h71.654v563.778h-71.654z"/><path fill="red" opacity=".997" stroke="#1a1a1a" stroke-width="36.2204" d="M9272.785 6212.827h71.654v563.778h-71.654z"/><path fill="olive" opacity=".997" stroke="#1a1a1a" stroke-width="36.2204" d="M9468.06 6210.464h71.654v563.779h-71.654z"/></g><g stroke="#000" stroke-width=".093"><path d="M10891 2056v4999.99h999.998V2056z" fill="#1a1a1a" fill-rule="evenodd" stroke-width="36.6141"/><path d="M11627.219 6320.007h-472.44v472.44h472.44z" fill="#333" fill-rule="evenodd" stroke-width="36.6141"/><path d="M11154.779 6792.447l117.716-117.716M11627.219 6792.447l-117.716-117.716M11272.495 6674.73h237.008M11154.779 6320.007l117.716 117.716M11272.495 6437.723v237.008M11627.219 6320.007l-117.716 117.716M11509.503 6437.723h-237.008M11509.503 6674.73v-237.007" fill="none" stroke-width="36.6141"/><path d="M11509.109 6438.117h-236.22v236.22h236.22z" fill="olive" fill-rule="evenodd" stroke-width="36.6141"/><path d="M11351.629 6457.802v-19.685M11351.629 6654.652v-196.85M11351.629 6674.337v-19.685M11430.369 6674.337v-19.685M11351.629 6654.652h78.74M11430.369 6654.652v-196.85M11430.369 6457.802v-19.685M11351.629 6457.802h78.74" fill="none" stroke-width="36.6141"/><g><path d="M11627.219 5320.01h-472.44v472.44h472.44z" fill="#333" fill-rule="evenodd" stroke-width="36.6141"/><path d="M11154.779 5792.45l117.716-117.717M11627.219 5792.45l-117.716-117.717M11272.495 5674.733h237.008M11154.779 5320.01l117.716 117.715M11272.495 5437.725v237.008M11627.219 5320.01l-117.716 117.715M11509.503 5437.725h-237.008M11509.503 5674.733v-237.008" fill="none" stroke-width="36.6141"/><path d="M11509.109 5438.12h-236.22v236.22h236.22z" fill="olive" fill-rule="evenodd" stroke-width="36.6141"/><path d="M11351.629 5457.804v-19.685M11351.629 5654.654v-196.85M11351.629 5674.34v-19.686M11430.369 5674.34v-19.686M11351.629 5654.654h78.74M11430.369 5654.654v-196.85M11430.369 5457.804v-19.685M11351.629 5457.804h78.74" fill="none" stroke-width="36.6141"/></g><g><path d="M11627.219 4320.011h-472.44v472.44h472.44z" fill="#333" fill-rule="evenodd" stroke-width="36.6141"/><path d="M11154.779 4792.451l117.716-117.716M11627.219 4792.451l-117.716-117.716M11272.495 4674.735h237.008M11154.779 4320.011l117.716 117.716M11272.495 4437.727v237.008M11627.219 4320.011l-117.716 117.716M11509.503 4437.727h-237.008M11509.503 4674.735v-237.008" fill="none" stroke-width="36.6141"/><path d="M11509.109 4438.121h-236.22v236.22h236.22z" fill="olive" fill-rule="evenodd" stroke-width="36.6141"/><path d="M11351.629 4457.806v-19.685M11351.629 4654.656v-196.85M11351.629 4674.341v-19.685M11430.369 4674.341v-19.685M11351.629 4654.656h78.74M11430.369 4654.656v-196.85M11430.369 4457.806v-19.685M11351.629 4457.806h78.74" fill="none" stroke-width="36.6141"/></g><g><path d="M11627.219 3320.013h-472.44v472.44h472.44z" fill="#333" fill-rule="evenodd" stroke-width="36.6141"/><path d="M11154.779 3792.453l117.716-117.716M11627.219 3792.453l-117.716-117.716M11272.495 3674.737h237.008M11154.779 3320.013l117.716 117.716M11272.495 3437.73v237.007M11627.219 3320.013l-117.716 117.716M11509.503 3437.73h-237.008M11509.503 3674.737v-237.008" fill="none" stroke-width="36.6141"/><path d="M11509.109 3438.123h-236.22v236.22h236.22z" fill="olive" fill-rule="evenodd" stroke-width="36.6141"/><path d="M11351.629 3457.808v-19.685M11351.629 3654.658v-196.85M11351.629 3674.343v-19.685M11430.369 3674.343v-19.685M11351.629 3654.658h78.74M11430.369 3654.658v-196.85M11430.369 3457.808v-19.685M11351.629 3457.808h78.74" fill="none" stroke-width="36.6141"/></g><g><path d="M11627.219 2320.015h-472.44v472.44h472.44z" fill="#333" fill-rule="evenodd" stroke-width="36.6141"/><path d="M11154.779 2792.455l117.716-117.716M11627.219 2792.455l-117.716-117.716M11272.495 2674.739h237.008M11154.779 2320.015l117.716 117.716M11272.495 2437.731v237.008M11627.219 2320.015l-117.716 117.716M11509.503 2437.731h-237.008M11509.503 2674.739v-237.007" fill="none" stroke-width="36.6141"/><path d="M11509.109 2438.125h-236.22v236.22h236.22z" fill="olive" fill-rule="evenodd" stroke-width="36.6141"/><path d="M11351.629 2457.81v-19.685M11351.629 2654.66v-196.85M11351.629 2674.345v-19.685M11430.369 2674.345v-19.685M11351.629 2654.66h78.74M11430.369 2654.66v-196.85M11430.369 2457.81v-19.685M11351.629 2457.81h78.74" fill="none" stroke-width="36.6141"/></g></g></svg>