<svg width="299" height="211" viewBox="0 0 24035 16985" xmlns="http://www.w3.org/2000/svg"><g transform="translate(-47235 -17474)" clip-path="url(#a)" mask="url(#b)"><defs><clipPath id="a"><path d="M47244 31889V17519h24015v16929H47244v-2559" fill-rule="evenodd"/></clipPath></defs><g fill="#313d63" stroke="#313d63"><path d="M47244 31889V17519h24015v16929H47244v-2559" fill-rule="evenodd"/><path d="M47244 34448v-2559m24015 2559H47244m24015-2559v2559m0-16929v14370M47244 17519h24015M47244 31889V17519" fill="none" fill-opacity="0" stroke-linecap="round" stroke-linejoin="round" stroke-width="19.685" stroke="#000"/></g><g fill-opacity="0" stroke-linecap="round" stroke-linejoin="round" stroke-width="0" stroke="none" fill="#9c6b28"><circle cx="56886" cy="23606" r="1988.2" fill="none"/><circle cx="59933" cy="20150" r="300" fill="none"/><circle cx="53811" cy="20110" r="300" fill="none"/><circle cx="56902" cy="23661" r="1968.5" fill="none"/><g fill-opacity="1"><circle cx="69291" cy="25701" r="334.65"/><circle cx="69291" cy="24701" r="334.65"/><circle cx="69291" cy="23701" r="334.65"/><circle cx="69291" cy="22701" r="334.65"/><circle cx="69291" cy="21701" r="334.65"/><circle cx="69291" cy="20701" r="334.65"/><circle cx="69291" cy="19701" r="334.65"/><path d="M68957 19035v-669.3h669.3v669.3z" fill-rule="evenodd"/></g></g><g fill="#212d53" stroke="#212d53"><g fill-opacity="0" stroke-linecap="round" stroke-linejoin="round" stroke-width="0" stroke="none"><circle cx="59933" cy="20150" r="300" fill="none"/><circle cx="53811" cy="20110" r="300" fill="none"/><g fill-opacity="1"><circle cx="69291" cy="25701" r="334.65"/><circle cx="69291" cy="24701" r="334.65"/><circle cx="69291" cy="23701" r="334.65"/><circle cx="69291" cy="22701" r="334.65"/><circle cx="69291" cy="21701" r="334.65"/><circle cx="69291" cy="20701" r="334.65"/><circle cx="69291" cy="19701" r="334.65"/><path d="M68957 19035v-669.3h669.3v669.3z" fill-rule="evenodd"/></g></g><circle cx="56886" cy="23606" r="68.898"/><circle cx="59933" cy="20150" r="68.898"/><circle cx="53811" cy="20110" r="68.898"/><circle cx="56902" cy="23661" r="68.898"/><circle cx="69291" cy="25701" r="68.898"/><circle cx="69291" cy="24701" r="68.898"/><circle cx="69291" cy="23701" r="68.898"/><circle cx="69291" cy="22701" r="68.898"/><circle cx="69291" cy="21701" r="68.898"/><circle cx="69291" cy="20701" r="68.898"/><circle cx="69291" cy="19701" r="68.898"/><circle cx="69291" cy="18701" r="68.898"/></g><g fill="#b5ae30" mask="url(#c)" stroke="#b5ae30"><g fill-opacity="0" stroke-linecap="round" stroke-linejoin="round" stroke-width="0" stroke="none"><circle cx="59933" cy="20150" r="300" fill="none"/><circle cx="53811" cy="20110" r="300" fill="none"/><g fill-opacity="1"><circle cx="69291" cy="25701" r="334.65"/><circle cx="69291" cy="24701" r="334.65"/><circle cx="69291" cy="23701" r="334.65"/><circle cx="69291" cy="22701" r="334.65"/><circle cx="69291" cy="21701" r="334.65"/><circle cx="69291" cy="20701" r="334.65"/><circle cx="69291" cy="19701" r="334.65"/><path d="M68957 19035v-669.3h669.3v669.3z" fill-rule="evenodd"/></g></g><circle cx="56886" cy="23606" r="68.898"/><circle cx="59933" cy="20150" r="68.898"/><circle cx="53811" cy="20110" r="68.898"/><circle cx="56902" cy="23661" r="68.898"/><circle cx="69291" cy="25701" r="68.898"/><circle cx="69291" cy="24701" r="68.898"/><circle cx="69291" cy="23701" r="68.898"/><circle cx="69291" cy="22701" r="68.898"/><circle cx="69291" cy="21701" r="68.898"/><circle cx="69291" cy="20701" r="68.898"/><circle cx="69291" cy="19701" r="68.898"/><circle cx="69291" cy="18701" r="68.898"/></g><defs><mask id="c"><g fill="#fff" fill-opacity="0" stroke="#fff" stroke-linecap="round" stroke-linejoin="round" stroke-width="0"><circle cx="56886" cy="23606" r="1988.2"/><circle cx="59933" cy="20150" r="300"/><circle cx="53811" cy="20110" r="300"/><circle cx="56902" cy="23661" r="1968.5"/><g fill-opacity="1"><circle cx="69291" cy="25701" r="334.65"/><circle cx="69291" cy="24701" r="334.65"/><circle cx="69291" cy="23701" r="334.65"/><circle cx="69291" cy="22701" r="334.65"/><circle cx="69291" cy="21701" r="334.65"/><circle cx="69291" cy="20701" r="334.65"/><circle cx="69291" cy="19701" r="334.65"/><path d="M68957 19035v-669.3h669.3v669.3z" fill-rule="evenodd"/></g></g></mask></defs><defs><mask id="d"><g fill-opacity="0" stroke="#000" stroke-linecap="round" stroke-linejoin="round" stroke-width="0"><circle cx="56886" cy="23606" r="1988.2"/><circle cx="59933" cy="20150" r="300"/><circle cx="53811" cy="20110" r="300"/><circle cx="56902" cy="23661" r="1968.5"/><g fill-opacity="1"><circle cx="69291" cy="25701" r="334.65"/><circle cx="69291" cy="24701" r="334.65"/><circle cx="69291" cy="23701" r="334.65"/><circle cx="69291" cy="22701" r="334.65"/><circle cx="69291" cy="21701" r="334.65"/><circle cx="69291" cy="20701" r="334.65"/><circle cx="69291" cy="19701" r="334.65"/><path d="M68957 19035v-669.3h669.3v669.3z" fill-rule="evenodd"/></g></g><path d="M47234 17312h24035v17146H47234z" fill="#fff"/></mask></defs><g fill="#f0f0f0" fill-opacity="0" mask="url(#d)" stroke="#f0f0f0" stroke-linecap="round" stroke-linejoin="round"><path d="M54232 29572l-28 56v84l28 85 56 56 56 28 113 28h84l113-28 56-28 56-56 28-85v-56l-28-84-28-28h-197v112m253-366h-590l590-337h-590m590-281h-590v-141l28-84 56-56 56-29 113-28h84l113 28 56 29 56 56 28 84v141m-1996 1209v-450m225 225h-450m-141-787v281l281 28-28-28-28-56v-141l28-56 28-28 56-28h141l56 28 28 28 29 56v141l-29 56-28 28m-534-506l591-197-591-197m-1406 1603v-450m225 225h-450m-141-787v281l282 28-29-28-28-56v-141l28-56 29-28 56-28h140l57 28 28 28 28 56v141l-28 56-28 28m-535-506l591-197-591-197m6890 5456v281l281 28-28-28-28-56v-141l28-56 28-28 57-28h140l56 28 29 28 28 56v141l-28 56-29 28m-168-591v-449m-366-394v-113l28-56 56-56 113-28h197l112 28 57 56 28 56v113l-28 56-57 56-112 28h-197l-113-28-56-56-28-56m0-506h478l56-28 29-29 28-56v-112l-28-57-29-28-56-28h-478m0-197v-337m591 169h-591m281-563l28-84 29-28 56-28h84l56 28 29 28 28 56v225h-591v-197l28-56 28-28 57-28h56l56 28 28 28 28 56v197" fill="none" stroke-width="147.64"/><path d="M59322 33781v112l28 57 28 28 84 56 113 28h225l56-28 28-28 28-56v-113l-28-56-28-28-56-28h-141l-56 28-28 28-28 56v113l28 56 28 28 56 28m28-590v-450m225-281h-590m590-282h-590l590-337h-590m422-253v-281m168 337l-590-197 590-197" fill="none" stroke-width="118.11"/><path d="M63118 33931l-28 56-28 28-56 28h-28l-57-28-28-28-28-56v-113l28-56 28-28 57-28h28l56 28 28 28 28 56v113l28 56 28 28 57 28h112l56-28 29-28 28-56v-113l-28-56-29-28-56-28h-112l-57 28-28 28-28 56m113-366v-449m225-282h-591v-225l28-56 28-28 57-28h84l56 28 28 28 28 56v225m-309-534l591-141-422-112 422-113-591-140m591-225h-591l422-197-422-197h591m-2363 3009v-394l591 254m-225-479v-449m225-282h-591m591-281h-591l591-337h-591m282-478l28-85 28-28 56-28h84l57 28 28 28 28 56v225h-591v-196l29-57 28-28 56-28h56l56 28 29 28 28 57v196m-5203 1941h394m-619 140l422 141v-366m-28-225v-449m-366-394v-113l28-56 57-56 112-28h197l113 28 56 56 28 56v113l-28 56-56 56-113 28h-197l-112-28-57-56-28-56m0-506h478l57-28 28-29 28-56v-112l-28-57-28-28-57-28h-478m0-197v-337m591 169h-591m422-338v-281m169 337l-591-196 591-197m-2362 3346v-365l225 196v-84l28-56 28-28 56-28h141l56 28 28 28 28 56v169l-28 56-28 28m-169-619v-449m-337-591l-28 56v85l28 84 56 56 56 28 113 28h84l113-28 56-28 56-56 28-84v-57l-28-84-28-28h-197v112m-140-365h393m-337 0l-28-28-28-57v-84l28-56 56-28h309m0-535h-590m562 0l28 57v112l-28 56-28 28-56 29h-169l-56-29-28-28-28-56v-112l28-57m-1941 2700l-28-28-28-56v-141l28-56 28-28 56-28h57l84 28 338 337v-365m-225-254v-449m-366-197l591-197-591-197m562-450l29 56v113l-29 56-28 28-56 28h-169l-56-28-28-28-28-56v-113l28-56m337-506l29 56v113l-29 56-28 28-56 28h-169l-56-28-28-28-28-56v-113l28-56m-1406 2250v337m0-169h-591l85 57 56 56 28 56m197-591v-449m-366-197l591-197-591-197m591-197h-591l422-197-422-197h591" fill="none" stroke-width="147.64"/><path d="M54318 26586h5213m-5197-5917l12 12m5154-12h-5166m-1216 4008l1193 1897m-1193-3984v2087m1212-3989l-1212 1902m7582-39l-1204-1882m1204 4008v-2126m-1165 4031l1165-1905" fill="none" stroke-width="47.244"/><g stroke-width="62.992" fill="none"><circle cx="56890" cy="23622" r="393.7"/><circle cx="56890" cy="23622" r="393.7"/><path d="M56508 20177h762m-762 0h-1292m3346 0h-1292m-3339 24l27-74m-156 27l129 47 1285 468m-1387-589l-27 74m1414 515v-492m4631 24l-27-74m27 74l-1285 468m1415-515l-130 47m103-121l27 74m-1415 515v-492m1258-50l130-47m-1381 503l1251-456m-4611 456l-1251-456-129-47m3450.5 3542a389.76 389.76 0 0 0-779.5 0 389.76 389.76 0 0 0 779.5 0"/><path d="M57968 23622a1078.8 1078.8 0 0 0-2157.5 0 1078.8 1078.8 0 0 0 2157.5 0m-1459.8-3444.8a787.36 787.36 0 0 0 762.3-.1m1292 407.9a39.615 39.615 0 0 0 6.6-1.7m-3359.8-.2a39.49 39.49 0 0 0 6.6 1.8"/></g><path d="M69291 18177h523v523m0 500v7024m-1047 0h1047m-1047-7024v7024m0-7024h1047" fill="none" stroke-width="47.244"/></g><path d="M47244 34448v-2559m24015 2559H47244m24015-2559v2559m0-16929v14370M47244 17519h24015M47244 31889V17519" fill="none" fill-opacity="0" stroke-linecap="round" stroke-linejoin="round" stroke-width="19.685" stroke="#000"/><defs><mask id="b"><path d="M47234 17312h24035v17146H47234z" fill="#fff"/><path d="M56885 23606h0" stroke="#000" stroke-linecap="round" stroke-width="3976"/><path d="M59933 20149h0m-6122-39h0" stroke="#000" stroke-linecap="round" stroke-width="300"/><path d="M56901 23661h0" stroke="#000" stroke-linecap="round" stroke-width="3937"/><path d="M69291 25700h0m0-1000h0m0-1000h0m0-1000h0m0-1000h0m0-1000h0m0-1000h0m0-1000h0" stroke="#000" stroke-linecap="round" stroke-width="393"/></mask></defs></g><g transform="translate(5641.1 2527.8) scale(393.7)" stroke-width=".093"><path d="M14.443 1.48a.101.101 0 0 0 .016-.004zM18.035.388l-.329.12v0l-3.263 1.187v0l.016-.219h0L17.638.32v0l.329-.12v0l.068.188z" fill="olive" fill-rule="evenodd" stroke="#191919"/><path d="M5.943 1.695l-.017-.219L2.748.32 2.419.2l-.068.188.328.12 3.264 1.187z" fill="olive" stroke="#000"/><path d="M5.943.445h8.5v1.25h-8.5z" fill="#fea" stroke="#000"/><path d="M14.443000000000001 1.6950000000000003V.445h-8.5v1.25m-.187 0H3.674a.25.25 0 0 0-.168.064 10 10 0 0 0-3.12 5.479 10 10 0 0 0-.074 3.5 10 10 0 0 0 3.194 5.893.25.25 0 0 0 .168.064h.158-.004 12.884a.25.25 0 0 0 .167-.064 10 10 0 0 0 3.194-5.893 10 10 0 0 0-.074-3.5 10 10 0 0 0-3.12-5.479.25.25 0 0 0-.167-.064H5.755" fill="gray" fill-rule="evenodd" stroke="#191919"/><path d="M14.63 16.445H5.756c-5.418-3.315-5.418-11.184 0-14.5h.687v-.25h7.5v.25h.687c5.417 3.316 5.417 11.185 0 14.5z" fill="#999" fill-rule="evenodd" stroke="#191919"/><path d="M17.706.508L17.638.32M2.68.508L2.747.32m8.414.125a2 2 0 0 1-1.936 0m10.673 6.339l.021.087c.018.077.048.205.08.367m.074 3.5c-.025.163-.05.292-.065.37l-.017.087m-.001 0l.008-.038m.109-.653s0 0 0 0a9.627 9.627 0 0 0 .035-.3m0-2.018l-.003-.029a12.752 12.752 0 0 0-.032-.27s0 0 0 0" fill="none" stroke="#191919"/><path d="M19.998 7.233a7.265 7.265 0 0 0-.007-.038m-19.596 4l-.027-.135m.12-4.276a10 10 0 0 0-.102.454" fill="none" stroke="#191919"/><path d="M.386 7.238a9.982 9.982 0 0 1 .102-.454m-.093.411l-.008.038m-.108.654s0 0 0 0a10.105 10.105 0 0 0-.035.3m0 2.017a10.944 10.944 0 0 0 .035.3s0 0 0 0m.108.653l.008.038m.078-1.02c.08-.226.178-.454.243-.678.065-.223.096-.444.078-.667-.028-.336-.167-.678-.272-1.022m-.205 2.209a1 .26 3.995 0 0 0 .002m0 .001a1 .26 3.995 0 0 .156.155" fill="none" stroke="#191919"/><path d="M.522 7.808a.259 1 88.456 0 0-.162.147m0 .001a.259 1 88.456 0 0 0 .002m.162-.15a2.723 2.723 0 0 0-.028-.089C.433 7.542.36 7.37.386 7.238m-.074 3.5c-.02-.133.06-.302.128-.476l.033-.087m3.267 6.438l-.234.018m2.25-.186c-.404.034-.815.07-1.205.102l-.707.057-.104.009M3.736 1.778l.438.035 1.582.132m-2.249-.186a121.226 121.226 0 0 0 .229.018m1.842 14.918h.12m-.12 0v0m.75 0h-.63m11.014 0h-1.905m2.073-.064a.25.25 0 0 1-.168.064m-2.024 0h.119m-.119 0h-.058m5.283-6.52c.04.117.094.232.13.34.025.08.04.156.03.223m-.005-.721a.26 1 86.005 0 1 0 .002m0 .001a.26 1 86.005 0 1-.155.155m-.05-2.367c-.07.229-.158.46-.214.686a1.844 1.844 0 0 0-.05.67c.04.335.194.672.314 1.01m.112-2.216a1 .259 1.544 0 0 0-.002m0-.001a1 .259 1.544 0 0-.162-.147" fill="none" stroke="#191919"/><path d="M20 7.238c.026.132-.047.304-.108.481l-.029.089m-2.983 8.823l-.336-.026-.332-.027-.252-.021m-1.33.138v-.25m1.33.112l-1.33-.112M3.506 1.76a.25.25 0 0 1 .168-.065m3.779 7.5a2.74 2.74 0 0 0 5.48 0m0 0a2.74 2.74 0 0 0-5.48 0" fill="none" stroke="#191919"/><circle transform="scale(1 -1)" cx="10.193" cy="-9.195" r="1" fill="none" stroke="#191919"/><circle transform="scale(1 -1)" cx="10.193" cy="-9.195" r="1" fill="none" stroke="#191919"/><path d="M9.203 9.195a.99.99 0 0 0 1.98 0 .99.99 0 0 0-1.98 0m6.759-7.362a237.93 237.93 0 0 1 .824-.066l.093-.008m-2.249.185l1.331-.112m-1.331-.137v.25m-8.874-.25v.25m0 14.75v-.25" fill="none" stroke="#191919"/><circle transform="scale(1 -1)" cx="10.193" cy="-9.195" r="2.75" fill="none" stroke="#191919"/><circle transform="scale(1 -1)" cx="10.193" cy="-9.195" r="3" fill="#e9c6af" stroke="#191919"/><path d="M12.683 9.195a2.49 2.49 0 0 1-4.98 0 2.49 2.49 0 0 1 4.98 0" fill="none" stroke="#191919"/><circle transform="scale(1 -1)" cx="10.193" cy="-9.195" r="1.1" fill="none" stroke="#191919"/><path d="M10.933 9.195c0 .987-1.48.987-1.48 0v0c0-.986 1.48-.986 1.48 0z" fill="#4d4d4d" fill-rule="evenodd" stroke="#191919"/><path d="M11.293 9.195h-.1 0M.317 10.02l.02-.237.06-.844Q.375 8.196.36 7.955m.026-.717l-.033.453.009.25m-.044 2.094l-.02.246.014.457m19.761 0q.035-.497-.005-.703m0-.015l-.077-.97.024-.847.01-.248m-.001-.015l.009-.25-.034-.452" fill="none" stroke="#191919"/></g><path d="M22556 726h-1000v8000h1000z" fill="#1a1a1a" fill-rule="evenodd" stroke="#000" stroke-width=".093"/><g stroke="#000" stroke-width=".093"><path d="M21820 8462.2h472.44v-472.44H21820z" fill="#666" fill-rule="evenodd"/><path d="M21938 8344.1h236.22v-236.22H21938z" fill="olive" fill-rule="evenodd"/><path d="M21820 8462.2l117.72-117.72m354.72 117.72l-117.72-117.72m-237.01 0h237.01M21820 7989.76l117.72 117.72v237.01m354.72-354.72l-117.72 117.72h-237.01m237.01 237.01v-237.01m-157.87 20.079v-19.685m0 216.54v-196.85m0 216.54v-19.685m78.74 19.685v-19.685m-78.74 0h78.74v-216.54m-78.74 19.685h78.74" fill="none"/><path d="M21820 7462.2h472.44v-472.44H21820z" fill="#666" fill-rule="evenodd"/><path d="M21938 7344.1h236.22v-236.22H21938z" fill="olive" fill-rule="evenodd"/><path d="M21820 7462.2l117.72-117.72m354.72 117.72l-117.72-117.72m-237.01 0h237.01M21820 6989.76l117.72 117.72v237.01m354.72-354.72l-117.72 117.72h-237.01m237.01 237.01v-237.01m-157.87 20.079v-19.685m0 216.54v-196.85m0 216.54v-19.685m78.74 19.685v-19.685m-78.74 0h78.74v-216.54m-78.74 19.685h78.74" fill="none"/><path d="M21820 6462.2h472.44v-472.44H21820z" fill="#666" fill-rule="evenodd"/><path d="M21938 6344.1h236.22v-236.22H21938z" fill="olive" fill-rule="evenodd"/><path d="M21820 6462.2l117.72-117.72m354.72 117.72l-117.72-117.72m-237.01 0h237.01M21820 5989.76l117.72 117.72v237.01m354.72-354.72l-117.72 117.72h-237.01m237.01 237.01v-237.01m-157.87 20.079v-19.685m0 216.54v-196.85m0 216.54v-19.685m78.74 19.685v-19.685m-78.74 0h78.74v-216.54m-78.74 19.685h78.74" fill="none"/><path d="M21820 5462.2h472.44v-472.44H21820z" fill="#666" fill-rule="evenodd"/><path d="M21938 5344.1h236.22v-236.22H21938z" fill="olive" fill-rule="evenodd"/><path d="M21820 5462.2l117.72-117.72m354.72 117.72l-117.72-117.72m-237.01 0h237.01M21820 4989.76l117.72 117.72v237.01m354.72-354.72l-117.72 117.72h-237.01m237.01 237.01v-237.01m-157.87 20.079v-19.685m0 216.54v-196.85m0 216.54v-19.685m78.74 19.685v-19.685m-78.74 0h78.74v-216.54m-78.74 19.685h78.74" fill="none"/><path d="M21820 4462.2h472.44v-472.44H21820z" fill="#666" fill-rule="evenodd"/><path d="M21938 4344.1h236.22v-236.22H21938z" fill="olive" fill-rule="evenodd"/><path d="M21820 4462.2l117.72-117.72m354.72 117.72l-117.72-117.72m-237.01 0h237.01M21820 3989.76l117.72 117.72v237.01m354.72-354.72l-117.72 117.72h-237.01m237.01 237.01v-237.01m-157.87 20.079v-19.685m0 216.54v-196.85m0 216.54v-19.685m78.74 19.685v-19.685m-78.74 0h78.74v-216.54m-78.74 19.685h78.74" fill="none"/><path d="M21820 3462.2h472.44v-472.44H21820z" fill="#666" fill-rule="evenodd"/><path d="M21938 3344.1h236.22v-236.22H21938z" fill="olive" fill-rule="evenodd"/><path d="M21820 3462.2l117.72-117.72m354.72 117.72l-117.72-117.72m-237.01 0h237.01M21820 2989.76l117.72 117.72v237.01m354.72-354.72l-117.72 117.72h-237.01m237.01 237.01v-237.01m-157.87 20.079v-19.685m0 216.54v-196.85m0 216.54v-19.685m78.74 19.685v-19.685m-78.74 0h78.74v-216.54m-78.74 19.685h78.74" fill="none"/><path d="M21820 2462.2h472.44v-472.44H21820z" fill="#666" fill-rule="evenodd"/><path d="M21938 2344.1h236.22v-236.22H21938z" fill="olive" fill-rule="evenodd"/><path d="M21820 2462.2l117.72-117.72m354.72 117.72l-117.72-117.72m-237.01 0h237.01M21820 1989.76l117.72 117.72v237.01m354.72-354.72l-117.72 117.72h-237.01m237.01 237.01v-237.01m-157.87 20.08v-19.685m0 216.54v-196.85m0 216.54v-19.685m78.74 19.685v-19.685m-78.74 0h78.74v-216.54m-78.74 19.685h78.74" fill="none"/><path d="M21820 1462.2h472.44V989.76H21820z" fill="#666" fill-rule="evenodd"/><path d="M21938 1344.1h236.22v-236.22H21938z" fill="olive" fill-rule="evenodd"/><path d="M21820 1462.2l117.72-117.72m354.72 117.72l-117.72-117.72m-237.01 0h237.01M21820 989.76l117.72 117.72v237.01m354.72-354.72l-117.72 117.72h-237.01m237.01 237.01v-237.01m-157.87 20.08v-19.685m0 216.54v-196.85m0 216.54v-19.685m78.74 19.685v-19.685m-78.74 0h78.74v-216.54m-78.74 19.685h78.74" fill="none"/></g></svg>