<svg width="282" height="304" viewBox="98019000 33503000 57454000 62026000" xmlns="http://www.w3.org/2000/svg"><defs><mask id="c"><g fill="#fff" fill-opacity="1" stroke="#fff" stroke-linecap="round" stroke-linejoin="round" stroke-width="1"><path d="M151550000 56730000v-1700000h1700000v1700000z" fill-rule="evenodd"/><circle cx="152400000" cy="58420000" r="850000"/><circle cx="152400000" cy="60960000" r="850000"/><circle cx="152400000" cy="63500000" r="850000"/><path d="M135610000 66920000v-1523998h1523998v1523998z" fill-rule="evenodd"/><circle cx="138860000" cy="66158000" r="762000"/><circle cx="141360000" cy="66178000" r="762000"/><circle cx="143850000" cy="66168000" r="762000"/></g></mask><mask id="d"><path fill="#fff" d="M98019000 33503000h57454000v62026000H98019000z"/><g fill-opacity="1" stroke="#000" stroke-linecap="round" stroke-linejoin="round" stroke-width="1"><path d="M151550000 56730000v-1700000h1700000v1700000z" fill-rule="evenodd"/><circle cx="152400000" cy="58420000" r="850000"/><circle cx="152400000" cy="60960000" r="850000"/><circle cx="152400000" cy="63500000" r="850000"/><path d="M135610000 66920000v-1523998h1523998v1523998z" fill-rule="evenodd"/><circle cx="138860000" cy="66158000" r="762000"/><circle cx="141360000" cy="66178000" r="762000"/><circle cx="143850000" cy="66168000" r="762000"/></g></mask><mask id="b"><path fill="#fff" d="M98019000 33503000h57454000v62026000H98019000z"/><path stroke="#000" stroke-linecap="round" stroke-width="1000000" d="M152400000 55880000h0M152400000 58420000h0M152400000 60960000h0M152400000 63500000h0"/><path stroke="#000" stroke-linecap="round" stroke-width="700000" d="M136370000 66158000h0M138860000 66158000h0M141360000 66178000h0M143850000 66168000h0"/></mask><clipPath id="a"><path d="M98044000 33528000v61976000h57404000V33528000H98044000" fill-rule="evenodd"/></clipPath></defs><g clip-path="url(#a)" mask="url(#b)"><g fill="#313d63" stroke="#313d63"><path d="M98044000 33528000v61976000h57404000V33528000H98044000" fill-rule="evenodd"/><g fill-opacity="0" stroke-linecap="round" stroke-linejoin="round" stroke-width="50000" fill="none" stroke="#000"><path d="M155450000 33528000H98046000M98044000 95504000h57404000M155450000 95504000V33528000M98044000 33528000v61976000"/></g></g><g fill-opacity="1" stroke-linecap="round" stroke-linejoin="round" stroke-width="1" fill="#9c6b28" stroke="#9c6b28"><path d="M151550000 56730000v-1700000h1700000v1700000z" fill-rule="evenodd"/><circle cx="152400000" cy="58420000" r="850000"/><circle cx="152400000" cy="60960000" r="850000"/><circle cx="152400000" cy="63500000" r="850000"/><path d="M135610000 66920000v-1523998h1523998v1523998z" fill-rule="evenodd"/><circle cx="138860000" cy="66158000" r="762000"/><circle cx="141360000" cy="66178000" r="762000"/><circle cx="143850000" cy="66168000" r="762000"/></g><g fill="#212d53" stroke="#212d53" stroke-linecap="round" stroke-linejoin="round"><path d="M151550000 56730000v-1700000h1700000v1700000z" fill-rule="evenodd"/><circle cx="152400000" cy="58420000" r="850000"/><circle cx="152400000" cy="60960000" r="850000"/><circle cx="152400000" cy="63500000" r="850000"/><path d="M135610000 66920000v-1523998h1523998v1523998z" fill-rule="evenodd"/><circle cx="138860000" cy="66158000" r="762000"/><circle cx="141360000" cy="66178000" r="762000"/><circle cx="143850000" cy="66168000" r="762000"/><g fill-opacity="0" stroke-width="1000000" fill="none"><path d="M146810000 58420000l-7620000 7620000M152400000 58420000h-5588000M152400000 55880000h-9652000M136650000 61976000v4064000M142750000 55880000l-6096000 6096000M146810000 63500000l-2540000 2540000M152400000 63500000h-5588000"/></g><g><circle cx="152400000" cy="55880000" r="175000"/><circle cx="152400000" cy="58420000" r="175000"/><circle cx="152400000" cy="60960000" r="175000"/><circle cx="152400000" cy="63500000" r="175000"/><circle cx="136370000" cy="66158000" r="175000"/><circle cx="138860000" cy="66158000" r="175000"/><circle cx="141360000" cy="66178000" r="175000"/><circle cx="143850000" cy="66168000" r="175000"/></g></g><g fill="#b5ae30" mask="url(#c)" stroke="#b5ae30" stroke-linecap="round" stroke-linejoin="round"><path d="M151550000 56730000v-1700000h1700000v1700000z" fill-rule="evenodd"/><circle cx="152400000" cy="58420000" r="850000"/><circle cx="152400000" cy="60960000" r="850000"/><circle cx="152400000" cy="63500000" r="850000"/><path d="M135610000 66920000v-1523998h1523998v1523998z" fill-rule="evenodd"/><circle cx="138860000" cy="66158000" r="762000"/><circle cx="141360000" cy="66178000" r="762000"/><circle cx="143850000" cy="66168000" r="762000"/><g fill-opacity="0" stroke-width="1000000" fill="none"><path d="M146810000 58420000l-7620000 7620000M152400000 58420000h-5588000M152400000 55880000h-9652000M136650000 61976000v4064000M142750000 55880000l-6096000 6096000M146810000 63500000l-2540000 2540000M152400000 63500000h-5588000"/></g><g><circle cx="152400000" cy="55880000" r="175000"/><circle cx="152400000" cy="58420000" r="175000"/><circle cx="152400000" cy="60960000" r="175000"/><circle cx="152400000" cy="63500000" r="175000"/><circle cx="136370000" cy="66158000" r="175000"/><circle cx="138860000" cy="66158000" r="175000"/><circle cx="141360000" cy="66178000" r="175000"/><circle cx="143850000" cy="66168000" r="175000"/></g></g><g fill="#f0f0f0" mask="url(#d)" stroke="#f0f0f0" stroke-linecap="round" stroke-linejoin="round"><g fill-opacity="0"><g class="stroked-text" stroke-width="750000"><path d="M107940000 39457142v-3000000h714285l428572 142858 285714 285714 142857 285714 142857 571429v428571l-142857 571429-142857 285714-285714 285714-428572 142857h-714285M110940000 39457142v-3000000M110940000 37885714h1714285M112660000 39457142v-3000000M113660000 36457142h1714286M114510000 39457142v-3000000M117940000 39457142h-1714286M117090000 39457142v-3000000l-285714 428572-285715 285714-285714 142857M120800000 39457142h-1714286M119940000 39457142v-3000000l-285715 428572-285714 285714-285714 142857" fill="none"/></g><g class="stroked-text" stroke-width="375000"><path d="M103890000 86173571h857143M104320000 87673571v-1500000M105250000 86887857h500000M105960000 87673571h-714285v-1500000h714285M106610000 87673571v-1500000l500000 1071429 500000-1071429v1500000M108320000 87673571v-1500000h571429l142857 71429 71428 71428 71429 142857v214286l-71429 142857-71428 71429-142857 71428h-571429M120960000 87673571l-500000-714286M120110000 87673571v-1500000h571429l142857 71429 71429 71428 71428 142857v214286l-71428 142857-71429 71429-142857 71428h-571429M121610000 87673571v-1500000M121610000 86887857h857143M122460000 87673571v-1500000" fill="none"/></g><g stroke-width="120000" fill="none"><path d="M152400000 54550000h1330000M151070000 57150000h2660000M153730000 54550000v1330000M151070000 57150000v7680000M153730000 57150000v7680000M151070000 64830000h2660000"/></g><g stroke-width="160000" fill="none"><path d="M139590000 52248000v-1100000M142890000 45348000v1100000M138490000 58048000h-1100000M142890000 58048000h-1100000M133090000 46448000v1800000M140690000 48248000v1100000M140690000 44148000h-1100000M133090000 54048000h2500000M138640000 61148000v4000000M141790000 51148000h1100000M138490000 45348000v1100000M137390000 56948000h1100000M142890000 56948000v1100000M140690000 46448000h-1100000M147680000 41158000l-15090000-10000M147190000 55148000h-2500000M139590000 41158000h1100000M141790000 46448000v-1100000M147190000 49348000h-2500000M139590000 56948000h1100000M132600000 55148000v-1100000M135590000 52248000h-2500000M137390000 58048000v-1100000M132590000 41148000v500000M138490000 44148000h-1100000M141790000 45348000h1100000M141790000 41158000h1100000M144690000 48248000h2500000M141790000 48248000h1100000M141790000 55148000v-1100000M147680000 45348000v1100000M137390000 54048000h1100000M139590000 54048000h1100000M147680000 56948000v1100000M141790000 54048000h1100000M141790000 58048000v-1100000M133090000 56948000h2500000M147190000 48248000v-1800000M144690000 45348000h2500000M133090000 48248000h2500000M142890000 46448000h-1100000M141790000 41648000h-1100000M140690000 54048000v1100000M139590000 49348000v-1100000M140690000 56948000v1100000M142890000 55148000h-1100000M139590000 45348000h1100000M137390000 49348000v-1100000M140690000 51148000v1100000M147190000 60648000h-14100000M147190000 45348000v-3700000M139590000 46448000v-1100000M140690000 58048000h-1100000M142890000 48248000v1100000M140690000 41648000v2500000M133090000 51148000h2500000M135590000 56948000v1100000M142890000 44148000h-1100000M132590000 41648000v19000000M142890000 51148000v1100000M144690000 46448000v-1100000M138490000 41648000v2500000M147680000 48248000v1100000M133090000 45348000h2500000M142890000 49348000h-1100000M140690000 49348000h-1100000M137390000 48248000h1100000M147690000 41648000v-500000M147190000 54048000v-1800000M133090000 60648000v-2600000M137390000 45348000h1100000M141790000 44148000v-2500000M137390000 44148000v-2500000M147190000 51148000v-1800000M147190000 41648000h-4300000M141790000 49348000v-1100000M135590000 45348000v1100000M135590000 51148000v1100000M132600000 52248000v-1100000M144690000 51148000h2500000M144690000 58048000v-1100000M142890000 54048000v1100000M140690000 55148000h-1100000M136140000 61148000v4000000M141790000 56948000h1100000M139590000 58048000v-1100000M147190000 46448000h-2500000M132600000 49348000v-1100000M147190000 56948000v-1800000M147190000 58048000h-2500000M147680000 54048000v1100000M138490000 48248000v1100000M137390000 55148000v-1100000M144690000 55148000v-1100000M133090000 52248000v1800000M142890000 52248000h-1100000M137390000 41158000h1100000M138490000 51148000v1100000M132600000 58048000v-1100000M137390000 46448000v-1100000M135590000 49348000h-2500000M137390000 52248000v-1100000M133090000 55148000v1800000M144690000 56948000h2500000M147690000 60648000V41648000M132600000 46448000v-1100000M137390000 51148000h1100000M141790000 52248000v-1100000M138490000 46448000h-1100000M143640000 61148000v4000000M139590000 51148000h1100000M140690000 52248000h-1100000M133090000 41648000v3700000M139590000 48248000h1100000M147680000 51148000v1100000M140690000 45348000v1100000M138490000 55148000h-1100000M144690000 54048000h2500000M139590000 55148000v-1100000M133090000 41648000h4300000M147190000 58048000v2600000M135590000 55148000h-2500000M138490000 49348000h-1100000M141140000 61148000v4000000M135590000 48248000v1100000M133090000 61148000h14100000M135590000 46448000h-2500000M138490000 52248000h-1100000M144690000 52248000v-1100000M144690000 49348000v-1100000M135590000 58048000h-2500000M142890000 41648000v2500000M138490000 54048000v1100000M139590000 41648000h-1100000M135590000 54048000v1100000M139590000 44148000v-2500000M147190000 52248000h-2500000M138490000 56948000v1100000M133090000 49348000v1800000M138640000 66148000a250000 250000 0 0 0 500000 0M136140000 66148000a250000 250000 0 0 0 500000 0"/><path d="M138640000 66148000a250000 250000 0 0 0 500000 0M143640000 66148000a250000 250000 0 0 0 500000 0M147190000 61148000a500000 500000 0 0 0 500000-500000M132590000 60648000a500000 500000 0 0 0 500000 500000M141140000 66148000a250000 250000 0 0 0 500000 0M136140000 66148000a250000 250000 0 0 0 500000 0"/><path d="M141140000 66148000a250000 250000 0 0 0 500000 0M143640000 66148000a250000 250000 0 0 0 500000 0"/><circle cx="138890000" cy="66148000" r="250000"/><circle cx="143890000" cy="66148000" r="250000"/><circle cx="136390000" cy="66148000" r="250000"/><circle cx="141390000" cy="66148000" r="250000"/></g></g><circle cx="152400000" cy="55880000" r="175000"/><circle cx="152400000" cy="58420000" r="175000"/><circle cx="152400000" cy="60960000" r="175000"/><circle cx="152400000" cy="63500000" r="175000"/><circle cx="136370000" cy="66158000" r="175000"/><circle cx="138860000" cy="66158000" r="175000"/><circle cx="141360000" cy="66178000" r="175000"/><circle cx="143850000" cy="66168000" r="175000"/></g><g fill-opacity="0" stroke-linecap="round" stroke-linejoin="round" stroke-width="50000" fill="none" stroke="#000"><path d="M155450000 33528000H98046000M98044000 95504000h57404000M155450000 95504000V33528000M98044000 33528000v61976000"/></g></g><g stroke-width=".093"><g transform="matrix(1000000 0 0 -1000000 152400000 55880000)"><path d="M-1.27-8.89h2.54V1.27h-2.54z" fill="#1a1a1a" fill-rule="evenodd" stroke="#000"/><path d="M-.6-1.94v-1.2H.6v1.2z" fill="#333" fill-rule="evenodd" stroke="#000"/><g fill="#4d4d4d" fill-rule="evenodd" stroke="#000"><path d="M-.6-5.68H.6v1.2H-.6zM-.6-.6H.6V.6H-.6zM.6-7.02H-.6v-1.2H.6z"/></g><g fill="none" stroke="#000"><path d="M-.6-1.94l.299-.299M-.6-3.14l.299.299M-.301-2.239v-.602M.6-1.94l-.299-.299M.301-2.239h-.602M.6-3.14l-.299.299M.301-2.841v.602M-.301-2.841h.602M.6-4.48l-.299-.299M-.6-4.48l.299-.299M.301-4.779h-.602M.6-5.68l-.299.299M.301-5.381v.602M-.6-5.68l.299.299M-.301-5.381h.602M-.301-4.779v-.602M-.6-.6l.299.299M.6-.6l-.299.299M-.301-.301h.602M-.6.6l.299-.299M-.301.301v-.602M.6.6L.301.301M.301.301h-.602M.301-.301v.602M-.6-8.22l.299.299M.6-8.22l-.299.299M-.301-7.921h.602M-.6-7.02l.299-.299M-.301-7.319v-.602M.6-7.02l-.299-.299M.301-7.319h-.602M.301-7.921v.602"/></g><g fill="olive" fill-rule="evenodd" stroke="#000"><path d="M-.3-2.84h.6v.6h-.6zM.3-5.38v.6h-.6v-.6zM.3-.3v.6h-.6v-.6zM.3-7.92v.6h-.6v-.6z"/></g><g fill="none" stroke="#000"><path d="M-.1-2.29v.05M-.1-2.79v.5M-.1-2.84v.05M.1-2.84v.05M-.1-2.79h.2M.1-2.79v.5M.1-2.29v.05M-.1-2.29h.2M-.1-4.83v.05M-.1-5.33v.5M-.1-5.38v.05M.1-5.38v.05M-.1-5.33h.2M.1-5.33v.5M.1-4.83v.05M-.1-4.83h.2M-.1.25V.3M-.1-.25v.5M-.1-.3v.05M.1-.3v.05M-.1-.25h.2M.1-.25v.5M.1.25V.3M-.1.25h.2M-.1-7.37v.05M-.1-7.87v.5M-.1-7.92v.05M.1-7.92v.05M-.1-7.87h.2M.1-7.87v.5M.1-7.37v.05M-.1-7.37h.2"/></g></g></g><g fill="none" stroke="#191919" stroke-width=".1"><path d="M147189500 41647900l28040-28035 27950-27947 27770-27771 54670-54664 52920-52924 25600-25600 24920-24918 24160-24157 23320-23320 22410-22409 21430-21428 20380-20380" stroke-width="100000"/><path d="M147523500 41275000l-21430-18095-22410-16865-23320-15582-24160-14250-24920-12873-25600-11455-26200-10002-26720-8520-27160-7010-27510-5470-27770-3920-27950-2360-28250-758.3-14100000 28.3-27810 786.6-27947 2360-27771 3920-27507 5470-27157 7010-26722 8520-26202 10002-25600 11455-24918 12873-24157 14250-23320 15582-22409 16865-21428 18095-20378 19240-19262 20351-18095 21428-16865 22409-15582 23320-14250 24157-12873 24918-11455 25600-10002 26202-8520 26722-7010 27157-5470 27507-3920 27771-2360 27947-786.5 28035 3036.5 18995000c44.14 276140 223860 500000 500000 500000h14100000c276140 0 500050-223860 500000-500000l-3500-18995000-787-28035-2400-27947-3900-27771-5500-27507-7000-27157-8500-26722-10000-26202-11460-25600-12870-24918-14250-24157-15580-23320-16860-22409-18100-21428-19030-20403z" fill="#37bafd" stroke-width="100000"/></g><g fill="#b3b3b3" stroke-width=".1"><path d="M143639500 66148000v-5000000h500000v5000000c0 333330-500000 333330-500000 0z" fill-rule="evenodd" stroke="#191919" stroke-width="100000"/><g stroke="#000"><path d="M141640000 61148000v5000000c0 333330-500000 333330-500000 0v-1000000l-.1-4000000zM139140000 61148000v5000000c0 333330-500000 333330-500000 0v-1000000l-.1-4000000zM136640000 61148000h.1v5000000c0 333330-500000 333330-500000 0v-1000000l-.1-4000000z" stroke-width="100000"/></g></g><g stroke="#191919" stroke-width=".1"><path d="M132736400 41294300l353550 353550" fill="none" stroke-width="100000"/><g fill="#666" fill-rule="evenodd"><path d="M138490000 41158000v2989900h-1100000v-2989900zM140690000 41158000v2989900h-1100000v-2989900zM142889500 41158000v2989900h-1100000v-2989900zM147679500 46448000h-2989900v-1100000h2989900zM147679500 49348000h-2989900v-1100000h2989900zM147679500 52248000h-2989900v-1100000h2989900zM147679500 55148000h-2989900v-1100000h2989900zM147679500 58048000h-2989900v-1100000h2989900z" stroke-width="100000"/></g><path d="M147189000 60648000h499960" fill="none" stroke-width="100000"/><g fill="#666" fill-rule="evenodd"><path d="M137390000 58048000v-1100000h1100000v1100000zM141790000 58048000v-1100000h1100000v1100000zM139590000 55148000v-1100000h1100000v1100000zM138490000 51148000v1100000h-1100000v-1100000zM142889500 52248000h-1100000v-1100000h1100000zM140690000 49348000h-1100000v-1100000h1100000zM142889500 45347900v1100000h-1100000v-1100000zM138490000 45347900v1100000h-1100000v-1100000zM140690000 45347900v1100000h-1100000v-1100000zM137390000 48248000h1100000v1100000h-1100000zM142889500 49348000h-1100000v-1100000h1100000zM139590000 52248000v-1100000h1100000v1100000zM138490000 54048000v1100000h-1100000v-1100000zM142889500 55148000h-1100000v-1100000h1100000zM139590000 58048000v-1100000h1100000v1100000zM135590000 48248000v1100000h-2989900v-1100000h489900zM135590000 51148000v1100000h-2989900v-1100000h489900zM135590000 54048000v1100000h-2989900v-1100000h489900zM133089950 58048000h-489900v-1100000h2989900v1100000z" stroke-width="100000"/></g><g fill="none"><path d="M133089950 60648000v499960M147189500 61148000v-499960M132589950 60648000h499990" stroke-width="100000"/></g><path d="M132612160 45347900h2977800v1100000h-2989900v-1100000z" fill="#666" fill-rule="evenodd" stroke-width="100000"/><g fill="none"><path d="M133089950 41647900h4300000M139590000 41647900h-1100000M141790000 41647900h-1100000M147189500 41647900h-4300000M147189500 45347900v-3700000M147189500 48248000v-1800000M147189500 51148000v-1800000M147189500 54048000v-1800000M147189500 56948000v-1800000M147189500 58048000v2600000M133089950 41647900v3700000M133089950 46448000v1800000M133089950 49348000v1800000M133089950 52248000v1800000M133089950 55148000v1800000M133089950 60648000v-2600000M147189500 60648000h-14100000M136640000 65148000h-500000M139140000 65148000h-500000M141640000 65148000h-500000M144139500 65148000h-500060" stroke-width="100000"/></g></g></svg>