<svg width="496" height="506" viewBox="0 0 32303 32933" xmlns="http://www.w3.org/2000/svg"><g fill="#313d63" stroke="#313d63"><path d="M9 32765V9h32283v32913H9v-157" fill-rule="evenodd"/><path d="M9 32922v-157m32283 157H9M32292 9v32913M9 9h32283M9 32765V9" fill="none" fill-opacity="0" stroke="#000" stroke-linecap="round" stroke-linejoin="round" stroke-width="19.685"/></g><g transform="translate(-38731 -14164)" fill="#9c6b28" stroke-linecap="round" stroke-linejoin="round" stroke-width="0"><circle cx="40543" cy="31063" r="334.65"/><circle cx="41543" cy="31063" r="334.65"/><circle cx="41543" cy="32063" r="334.65"/><circle cx="40543" cy="30063" r="334.65"/><circle cx="40543" cy="29063" r="334.65"/><circle cx="41543" cy="19063" r="334.65"/><circle cx="40543" cy="33063" r="334.65"/><circle cx="41543" cy="33063" r="334.65"/><circle cx="40543" cy="34063" r="334.65"/><circle cx="41543" cy="34063" r="334.65"/><circle cx="40543" cy="35063" r="334.65"/><circle cx="41543" cy="35063" r="334.65"/><circle cx="40543" cy="28063" r="334.65"/><circle cx="40543" cy="17063" r="334.65"/><path d="M40209 16398v-669.3h669.3v669.3z" fill-rule="evenodd"/><circle cx="40543" cy="24063" r="334.65"/><circle cx="41543" cy="30063" r="334.65"/><circle cx="40543" cy="19063" r="334.65"/><circle cx="41543" cy="18063" r="334.65"/><circle cx="40543" cy="27063" r="334.65"/><circle cx="40543" cy="18063" r="334.65"/><circle cx="41543" cy="26063" r="334.65"/><circle cx="41543" cy="23063" r="334.65"/><circle cx="41543" cy="17063" r="334.65"/><circle cx="40543" cy="21063" r="334.65"/><circle cx="41543" cy="24063" r="334.65"/><circle cx="40543" cy="20063" r="334.65"/><circle cx="41543" cy="25063" r="334.65"/><circle cx="41543" cy="20063" r="334.65"/><circle cx="41543" cy="21063" r="334.65"/><circle cx="40543" cy="26063" r="334.65"/><circle cx="41543" cy="16063" r="334.65"/><circle cx="40543" cy="23063" r="334.65"/><circle cx="40543" cy="25063" r="334.65"/><circle cx="41543" cy="22063" r="334.65"/><circle cx="40543" cy="22063" r="334.65"/><circle cx="41543" cy="27063" r="334.65"/><circle cx="40543" cy="32063" r="334.65"/><circle cx="41543" cy="29063" r="334.65"/><circle cx="41543" cy="28063" r="334.65"/></g><g fill="#212d53" stroke-linecap="round" stroke-linejoin="round" stroke-width="0"><g transform="translate(-38731 -14164)"><circle cx="40543" cy="31063" r="334.65"/><circle cx="41543" cy="31063" r="334.65"/><circle cx="41543" cy="32063" r="334.65"/><circle cx="40543" cy="30063" r="334.65"/><circle cx="40543" cy="29063" r="334.65"/><circle cx="41543" cy="19063" r="334.65"/><circle cx="40543" cy="33063" r="334.65"/><circle cx="41543" cy="33063" r="334.65"/><circle cx="40543" cy="34063" r="334.65"/><circle cx="41543" cy="34063" r="334.65"/><circle cx="40543" cy="35063" r="334.65"/><circle cx="41543" cy="35063" r="334.65"/><circle cx="40543" cy="28063" r="334.65"/><circle cx="40543" cy="17063" r="334.65"/><path d="M40209 16398v-669.3h669.3v669.3z" fill-rule="evenodd"/><circle cx="40543" cy="24063" r="334.65"/><circle cx="41543" cy="30063" r="334.65"/><circle cx="40543" cy="19063" r="334.65"/><circle cx="41543" cy="18063" r="334.65"/><circle cx="40543" cy="27063" r="334.65"/><circle cx="40543" cy="18063" r="334.65"/><circle cx="41543" cy="26063" r="334.65"/><circle cx="41543" cy="23063" r="334.65"/><circle cx="41543" cy="17063" r="334.65"/><circle cx="40543" cy="21063" r="334.65"/><circle cx="41543" cy="24063" r="334.65"/><circle cx="40543" cy="20063" r="334.65"/><circle cx="41543" cy="25063" r="334.65"/><circle cx="41543" cy="20063" r="334.65"/><circle cx="41543" cy="21063" r="334.65"/><circle cx="40543" cy="26063" r="334.65"/><circle cx="41543" cy="16063" r="334.65"/><circle cx="40543" cy="23063" r="334.65"/><circle cx="40543" cy="25063" r="334.65"/><circle cx="41543" cy="22063" r="334.65"/><circle cx="40543" cy="22063" r="334.65"/><circle cx="41543" cy="27063" r="334.65"/><circle cx="40543" cy="32063" r="334.65"/><circle cx="41543" cy="29063" r="334.65"/><circle cx="41543" cy="28063" r="334.65"/></g><g transform="translate(-38731 -14164)"><circle cx="40543" cy="31063" r="68.898"/><circle cx="41543" cy="31063" r="68.898"/><circle cx="41543" cy="32063" r="68.898"/><circle cx="40543" cy="30063" r="68.898"/><circle cx="40543" cy="29063" r="68.898"/><circle cx="41543" cy="19063" r="68.898"/><circle cx="40543" cy="33063" r="68.898"/><circle cx="41543" cy="33063" r="68.898"/><circle cx="40543" cy="34063" r="68.898"/><circle cx="41543" cy="34063" r="68.898"/><circle cx="40543" cy="35063" r="68.898"/><circle cx="41543" cy="35063" r="68.898"/><circle cx="40543" cy="28063" r="68.898"/><circle cx="40543" cy="17063" r="68.898"/><circle cx="40543" cy="16063" r="68.898"/><circle cx="40543" cy="24063" r="68.898"/><circle cx="41543" cy="30063" r="68.898"/><circle cx="40543" cy="19063" r="68.898"/><circle cx="41543" cy="18063" r="68.898"/><circle cx="40543" cy="27063" r="68.898"/><circle cx="40543" cy="18063" r="68.898"/><circle cx="41543" cy="26063" r="68.898"/><circle cx="41543" cy="23063" r="68.898"/><circle cx="41543" cy="17063" r="68.898"/><circle cx="40543" cy="21063" r="68.898"/><circle cx="41543" cy="24063" r="68.898"/><circle cx="40543" cy="20063" r="68.898"/><circle cx="41543" cy="25063" r="68.898"/><circle cx="41543" cy="20063" r="68.898"/><circle cx="41543" cy="21063" r="68.898"/><circle cx="40543" cy="26063" r="68.898"/><circle cx="41543" cy="16063" r="68.898"/><circle cx="40543" cy="23063" r="68.898"/><circle cx="40543" cy="25063" r="68.898"/><circle cx="41543" cy="22063" r="68.898"/><circle cx="40543" cy="22063" r="68.898"/><circle cx="41543" cy="27063" r="68.898"/><circle cx="40543" cy="32063" r="68.898"/><circle cx="41543" cy="29063" r="68.898"/><circle cx="41543" cy="28063" r="68.898"/></g></g><g transform="translate(-38731 -14164)" fill="#b5ae30" mask="url(#pads-mask)" stroke-linecap="round" stroke-linejoin="round" stroke-width="0"><circle cx="40543" cy="31063" r="334.65"/><circle cx="41543" cy="31063" r="334.65"/><circle cx="41543" cy="32063" r="334.65"/><circle cx="40543" cy="30063" r="334.65"/><circle cx="40543" cy="29063" r="334.65"/><circle cx="41543" cy="19063" r="334.65"/><circle cx="40543" cy="33063" r="334.65"/><circle cx="41543" cy="33063" r="334.65"/><circle cx="40543" cy="34063" r="334.65"/><circle cx="41543" cy="34063" r="334.65"/><circle cx="40543" cy="35063" r="334.65"/><circle cx="41543" cy="35063" r="334.65"/><circle cx="40543" cy="28063" r="334.65"/><circle cx="40543" cy="17063" r="334.65"/><path d="M40209 16398v-669.3h669.3v669.3z" fill-rule="evenodd"/><circle cx="40543" cy="24063" r="334.65"/><circle cx="41543" cy="30063" r="334.65"/><circle cx="40543" cy="19063" r="334.65"/><circle cx="41543" cy="18063" r="334.65"/><circle cx="40543" cy="27063" r="334.65"/><circle cx="40543" cy="18063" r="334.65"/><circle cx="41543" cy="26063" r="334.65"/><circle cx="41543" cy="23063" r="334.65"/><circle cx="41543" cy="17063" r="334.65"/><circle cx="40543" cy="21063" r="334.65"/><circle cx="41543" cy="24063" r="334.65"/><circle cx="40543" cy="20063" r="334.65"/><circle cx="41543" cy="25063" r="334.65"/><circle cx="41543" cy="20063" r="334.65"/><circle cx="41543" cy="21063" r="334.65"/><circle cx="40543" cy="26063" r="334.65"/><circle cx="41543" cy="16063" r="334.65"/><circle cx="40543" cy="23063" r="334.65"/><circle cx="40543" cy="25063" r="334.65"/><circle cx="41543" cy="22063" r="334.65"/><circle cx="40543" cy="22063" r="334.65"/><circle cx="41543" cy="27063" r="334.65"/><circle cx="40543" cy="32063" r="334.65"/><circle cx="41543" cy="29063" r="334.65"/><circle cx="41543" cy="28063" r="334.65"/><circle cx="40543" cy="31063" r="68.898"/><circle cx="41543" cy="31063" r="68.898"/><circle cx="41543" cy="32063" r="68.898"/><circle cx="40543" cy="30063" r="68.898"/><circle cx="40543" cy="29063" r="68.898"/><circle cx="41543" cy="19063" r="68.898"/><circle cx="40543" cy="33063" r="68.898"/><circle cx="41543" cy="33063" r="68.898"/><circle cx="40543" cy="34063" r="68.898"/><circle cx="41543" cy="34063" r="68.898"/><circle cx="40543" cy="35063" r="68.898"/><circle cx="41543" cy="35063" r="68.898"/><circle cx="40543" cy="28063" r="68.898"/><circle cx="40543" cy="17063" r="68.898"/><circle cx="40543" cy="16063" r="68.898"/><circle cx="40543" cy="24063" r="68.898"/><circle cx="41543" cy="30063" r="68.898"/><circle cx="40543" cy="19063" r="68.898"/><circle cx="41543" cy="18063" r="68.898"/><circle cx="40543" cy="27063" r="68.898"/><circle cx="40543" cy="18063" r="68.898"/><circle cx="41543" cy="26063" r="68.898"/><circle cx="41543" cy="23063" r="68.898"/><circle cx="41543" cy="17063" r="68.898"/><circle cx="40543" cy="21063" r="68.898"/><circle cx="41543" cy="24063" r="68.898"/><circle cx="40543" cy="20063" r="68.898"/><circle cx="41543" cy="25063" r="68.898"/><circle cx="41543" cy="20063" r="68.898"/><circle cx="41543" cy="21063" r="68.898"/><circle cx="40543" cy="26063" r="68.898"/><circle cx="41543" cy="16063" r="68.898"/><circle cx="40543" cy="23063" r="68.898"/><circle cx="40543" cy="25063" r="68.898"/><circle cx="41543" cy="22063" r="68.898"/><circle cx="40543" cy="22063" r="68.898"/><circle cx="41543" cy="27063" r="68.898"/><circle cx="40543" cy="32063" r="68.898"/><circle cx="41543" cy="29063" r="68.898"/><circle cx="41543" cy="28063" r="68.898"/></g><path d="M1752 31375v338m0-169h-590l84 56 56 56 28 57m197-591v-450m-338-590l-28 56v84l28 84 57 57 56 28 112 28h85l112-28 56-28 57-57 28-84v-56l-28-84-28-29h-197v113m253-366h-591l591-337h-591m591-281h-591v-141l28-84 57-57 56-28 112-28h85l112 28 56 28 57 57 28 84v141m1532 2531l-28-29-28-56v-140l28-57 28-28 57-28h56l84 28 338 338v-366m-225-253v-450m-366-197l591-197-591-196m535-535l28 28 28 85v56l-28 84-57 57-56 28-112 28h-85l-112-28-56-28-57-57-28-84v-56l28-85 28-28m479-590l28 28 28 84v56l-28 85-57 56-56 28-112 28h-85l-112-28-56-28-57-56-28-85v-56l28-84 28-28m2011 2784v-366l225 197v-84l28-57 28-28 57-28h140l56 28 29 28 28 57v168l-28 57-29 28m-168-619v-450m-394-703l759 506m-731-647l591-140-422-113 422-112-591-141m591-562l-282 197m282 140h-591v-225l28-56 28-28 57-28h84l56 28 28 28 28 56v225m1955 2334h394m-619 141l422 141v-366m-28-225v-450m-394-703l759 506m-140-1040l-282 197m282 140h-591v-225l28-56 28-28 57-28h84l56 28 28 28 28 56v225m282-590h-591v-141l28-84 56-57 57-28 112-28h85l112 28 56 28 56 57 29 84v141m1476 2221v281l281 29-28-29-28-56v-140l28-57 28-28 56-28h141l56 28 28 28 29 57v140l-29 56-28 29m-168-591v-450m-394-703l759 506m-140-1040l-282 197m282 140h-591v-225l28-56 28-28 56-28h85l56 28 28 28 28 56v225m-28-590v-197m310-85v282h-591v-282m562-225l29-84v-141l-29-56-28-28-56-28h-56l-56 28-29 28-28 56-28 113-28 56-28 28-56 28h-57l-56-28-28-28-28-56v-141l28-84m2039 3093v113l28 56 28 28 85 56 112 29h225l56-29 28-28 28-56v-112l-28-57-28-28-56-28h-141l-56 28-28 28-28 57v112l28 56 28 28 56 29m28-591v-450m225-281h-590v-141l28-84 56-56 57-28 112-29h84l113 29 56 28 56 56 28 84v141m-56-928l28 28 28 84v57l-28 84-56 56-56 28-113 28h-84l-112-28-57-28-56-56-28-84v-57l28-84 28-28m2011 2278v-394l590 253m-225-478v-450m-393-703l759 506m-197-1040l28 28 28 84v56l-28 85-56 56-56 28-113 28h-84l-113-28-56-28-56-56-28-85v-56l28-84 28-28m506-225l28-85v-140l-28-56-28-29-56-28h-56l-57 28-28 29-28 56-28 112-28 57-28 28-56 28h-57l-56-28-28-28-28-57v-140l28-85m2292 2728l-28 56-28 28-57 29h-28l-56-29-28-28-28-56v-112l28-57 28-28 56-28h28l57 28 28 28 28 57v112l28 56 28 28 56 29h113l56-29 28-28 28-56v-112l-28-57-28-28-56-28h-113l-56 28-28 28-28 57m112-366v-450m225-281h-590v-141l28-84 56-56 56-28 113-29h84l113 29 56 28 56 56 28 84v141m-309-788l28-84 28-28 56-28h85l56 28 28 28 28 56v225h-590v-197l28-56 28-28 56-28h57l56 28 28 28 28 56v197m-281-703v-56l28-56 28-28 56-28 113-29h140l113 29 56 28 28 28 28 56v56l-28 57-28 28-56 28-113 28h-140l-113-28-56-28-28-28-28-57m2657 2559v-112l-28-56-28-29-84-56-113-28h-225l-56 28-28 28-28 57v112l28 56 28 28 56 29h141l56-29 28-28 28-56v-112l-28-57-28-28-56-28m112-253v-450m225-281h-590v-141l28-84 56-56 56-28 113-29h84l113 29 56 28 56 56 28 84v141m-309-788l28-84 28-28 56-28h85l56 28 28 28 28 56v225h-590v-197l28-56 28-28 56-28h56l57 28 28 28 28 56v197m309-900v338m0-169h-590l84 56 56 57 28 56m1899 2221v-56l28-56 28-28 56-28 113-28h140l113 28 56 28 28 28 28 56v56l-28 57-28 28-56 28-113 28h-140l-113-28-56-28-28-28-28-57m365-449v-450m225-282h-590v-140l28-85 56-56 56-28 113-28h84l113 28 56 28 56 56 28 85v140m-309-787l28-84 28-29 56-28h85l56 28 28 29 28 56v225h-590v-197l28-56 28-28 56-29h56l57 29 28 28 28 56v197m-225-563l-28-28-28-56v-141l28-56 28-28 56-28h56l85 28 337 338v-366m2067 2475v337m0-169h-590l84 57 56 56 28 56m197-590v-450m225-282h-590v-140l28-85 56-56 56-28 113-28h84l113 28 56 28 56 56 28 85v140m-309-787l28-84 28-29 56-28h85l56 28 28 29 28 56v225h-590v-197l28-56 28-28 56-29h56l57 29 28 28 28 56v197m-281-534v-366l225 197v-85l28-56 28-28 56-28h141l56 28 28 28 28 56v169l-28 56-28 29m1589 2446l-28-28-29-56v-141l29-56 28-28 56-28h56l85 28 337 337v-365m-225-253v-450m225-282h-591v-140l29-85 56-56 56-28 113-28h84l112 28 57 28 56 56 28 85v140m-309-787l28-84 28-29 56-28h85l56 28 28 29 28 56v225h-591v-197l29-56 28-28 56-29h56l56 29 29 28 28 56v197m-85-844h394m-619 141l422 140v-365m1673 2868v-365l225 196v-84l29-56 28-28 56-28h140l57 28 28 28 28 56v169l-28 56-28 28m-169-618v-450m225-282h-591v-140l29-85 56-56 56-28 113-28h84l112 28 57 28 56 56 28 85v140m-309-787l28-84 28-29 56-28h84l57 28 28 29 28 56v225h-591v-197l29-56 28-28 56-29h56l56 29 29 28 28 56v197m-282-872v281l282 28-28-28-29-56v-141l29-56 28-28 56-28h140l57 28 28 28 28 56v141l-28 56-28 28m1729 2194h394m-619 140l422 141v-365m-28-225v-450m225-282h-591v-140l28-85 57-56 56-28 112-28h85l112 28 57 28 56 56 28 85v140m-309-787l28-84 28-29 56-28h84l57 28 28 29 28 56v225h-591v-197l28-56 29-28 56-29h56l56 29 28 28 29 56v197m-282-844v113l28 56 29 28 84 56 112 28h225l57-28 28-28 28-56v-113l-28-56-28-28-57-28h-140l-56 28-29 28-28 56v113l28 56 29 28 56 28m1729 2166v281l281 28-28-28-28-56v-141l28-56 28-28 57-28h140l57 28 28 28 28 56v141l-28 56-28 28m-169-590v-450m225-282h-591v-140l28-85 57-56 56-28 112-28h85l112 28 56 28 57 56 28 85v140m-310-787l29-84 28-29 56-28h84l57 28 28 29 28 56v225h-591v-197l28-56 29-28 56-29h56l56 29 28 28 28 56v197m-281-534v-394l591 253" fill="none" stroke="#f0f0f0" stroke-linecap="round" stroke-linejoin="round" stroke-width="147.64"/><path d="M2312 2398V1375h1023M1288 2398v19024m0-19024h1024m-1024-500v-523m0 20047h2047M1288 1375h524m1523 0v20047" fill="none" fill-opacity="0" stroke="#f0f0f0" stroke-linecap="round" stroke-linejoin="round" stroke-width="47.244"/><g transform="translate(-38731 -14164)" fill="none" fill-opacity="0" stroke="#f0f0f0" stroke-linecap="round" stroke-linejoin="round" stroke-width="62.992"><path d="M39468 36047h30813M39468 15055v20992m30809-20996H39472m30812 20988V15051"/><circle cx="43066" cy="18416" r="631.1"/><circle cx="43066" cy="32865" r="643.7"/><circle cx="68906" cy="32803" r="659.45"/><circle cx="68906" cy="18368" r="596.06"/></g><path d="M9 32922v-157m32283 157H9M32292 9v32913M9 9h32283M9 32765V9" fill="none" fill-opacity="0" stroke="#000" stroke-linecap="round" stroke-linejoin="round" stroke-width="19.685"/><path d="M31374 1314.3v20195H852v-20195z" fill="#e9343f" fill-rule="evenodd" stroke="#000" stroke-width="39.764"/><circle transform="matrix(0 -1 -1 0 0 0)" cx="-18651" cy="-4185.2" r="836.22" fill="#821419" stroke="#000" stroke-width="36.614"/><circle transform="matrix(0 -1 -1 0 0 0)" cx="-4201.3" cy="-4185.2" r="836.22" fill="#821419" stroke="#000" stroke-width="36.614"/><circle transform="matrix(0 -1 -1 0 0 0)" cx="-4201.3" cy="-30160" r="836.22" fill="#a00" stroke="#000" stroke-width="36.614"/><circle transform="matrix(0 -1 -1 0 0 0)" cx="-18651" cy="-30160" r="836.22" fill="#821419" stroke="#000" stroke-width="36.614"/><path d="M5174.9 7613.5v-4550h23760v16770h-23760v-4550z" fill="#f2f2f2" fill-rule="evenodd" stroke="#000" stroke-width="36.614"/><path d="M7915.1 19423V3284l3.937-.787h-2003.9v3508.7h-740.16v11101h740.16v1720.5h1999.2v-16160h.787z" fill="#333" fill-rule="evenodd" stroke="#000" stroke-width="36.614"/><circle transform="matrix(0 -1 -1 0 0 0)" cx="-18651" cy="-4185.2" r="635.04" fill="#f2f2f2" stroke="#000" stroke-width="36.614"/><circle transform="matrix(0 -1 -1 0 0 0)" cx="-4201.3" cy="-4185.2" r="635.04" fill="#f2f2f2" stroke="#000" stroke-width="36.614"/><circle transform="matrix(0 -1 -1 0 0 0)" cx="-4201.3" cy="-30160" r="635.04" fill="#f2f2f2" stroke="#000" stroke-width="36.614"/><circle transform="matrix(0 -1 -1 0 0 0)" cx="-18651" cy="-30160" r="635.04" fill="#f2f2f2" stroke="#000" stroke-width="36.614"/><path d="M16085 3033.5v29.921z" fill="#ccc" fill-rule="evenodd" stroke="#000" stroke-width="36.614"/><path d="M3969.8 4798.5a138.58 138.58 0 0 0-59.842-25.197m25519 13878a731.49 731.49 0 1 1 731.5 731.49m-.394 0a731.49 731.49 0 0 1-731.5-731.49m.394-14450a731.49 731.49 0 1 1 731.5 731.49m-.394-.394a731.49 731.49 0 0 1-731.5-731.49m-25975 .394a731.49 731.49 0 1 1 731.49 731.49" fill="none" stroke="#000" stroke-width="36.614"/><path d="M4185.2 4932.4a731.49 731.49 0 0 1-731.49-731.49m0 14450a731.49 731.49 0 1 1 731.49 731.49 731.49 731.49 0 0 1-731.49-731.49m3050.4-13995h1264.2" fill="none" stroke="#000" stroke-width="36.614"/><path d="M16085 19863v-29.922z" fill="#ccc" fill-rule="evenodd" stroke="#000" stroke-width="36.614"/><path d="M7768.2 17734H6504m0 1879.9V15284m0-7670.1V3454.1m274.8 4159.8V15284m989.37 0H6778.8" fill="none" stroke="#000" stroke-width="36.614"/><path d="M7915.1 15284h-1.181zm-1.181-7670.1h1.181z" fill="#333" fill-rule="evenodd" stroke="#000" stroke-width="36.614"/><path d="M6778.9 7613.5h989.37m-1264.2-4159.8h1264.2m21197 11410V8033.8m0 6829.9v4340.1m0 659.84v-659.84m0-15510v-659.84m0 5000v-4340.1m0-659.84h-12880m12220 16830h659.84m-659.84 0h-12220m12220-16800v-29.921m659.84 659.84h-29.921m0 4340.1h29.921m0 11170h-29.921m0-4340.1h29.921m-659.84 4970.1v29.922" fill="none" stroke="#000" stroke-width="36.614"/><path d="M7913.9 3283.5h20801v16330h-20801z" fill-rule="evenodd" stroke="#000" stroke-width="40.157"/><path d="M7768.2 3453.6h145.67m-2739 4159.8h1603.9m0 7670.1h-1603.9" fill="none" stroke="#000" stroke-width="36.614"/><path d="M5053.3 7613.5h-32.283 154.33v7670.1h-154.72 153.94-153.94V7613.5z" fill="#b4894f" fill-rule="evenodd" stroke="#000" stroke-width="36.614"/><path d="M7768.2 3453.6v16160" fill="none" stroke="#000" stroke-width="36.614"/><path d="M2049.7 21335H1024.9V1532h1024.8-100 1024.8v19804H1949.7z" fill="#1a1a1a" fill-rule="evenodd" stroke="#000" stroke-width="36.614"/><circle transform="matrix(0 -1 -1 0 0 0)" cx="-1904" cy="-1537.5" r="250" fill="#b3b3b3" stroke="#000" stroke-width="36.614"/><circle transform="matrix(0 -1 -1 0 0 0)" cx="-2904" cy="-1537.5" r="250" fill="#b3b3b3" stroke="#000" stroke-width="36.614"/><circle transform="matrix(0 -1 -1 0 0 0)" cx="-3904" cy="-1537.5" r="250" fill="#b3b3b3" stroke="#000" stroke-width="36.614"/><circle transform="matrix(0 -1 -1 0 0 0)" cx="-4904" cy="-1537.5" r="250" fill="#b3b3b3" stroke="#000" stroke-width="36.614"/><circle transform="matrix(0 -1 -1 0 0 0)" cx="-5904" cy="-1537.5" r="250" fill="#b3b3b3" stroke="#000" stroke-width="36.614"/><circle transform="matrix(0 -1 -1 0 0 0)" cx="-6904" cy="-1537.5" r="250" fill="#b3b3b3" stroke="#000" stroke-width="36.614"/><circle transform="matrix(0 -1 -1 0 0 0)" cx="-7904" cy="-1537.5" r="250" fill="#b3b3b3" stroke="#000" stroke-width="36.614"/><circle transform="matrix(0 -1 -1 0 0 0)" cx="-9904" cy="-1537.5" r="250" fill="#b3b3b3" stroke="#000" stroke-width="36.614"/><circle transform="matrix(0 -1 -1 0 0 0)" cx="-10904" cy="-1537.5" r="250" fill="#b3b3b3" stroke="#000" stroke-width="36.614"/><circle transform="matrix(0 -1 -1 0 0 0)" cx="-11904" cy="-1537.5" r="250" fill="#b3b3b3" stroke="#000" stroke-width="36.614"/><circle transform="matrix(0 -1 -1 0 0 0)" cx="-12904" cy="-1537.5" r="250" fill="#b3b3b3" stroke="#000" stroke-width="36.614"/><circle transform="matrix(0 -1 -1 0 0 0)" cx="-13904" cy="-1537.5" r="250" fill="#b3b3b3" stroke="#000" stroke-width="36.614"/><circle transform="matrix(0 -1 -1 0 0 0)" cx="-14904" cy="-1537.5" r="250" fill="#b3b3b3" stroke="#000" stroke-width="36.614"/><path d="M1999.7 2376.5h-924.8" fill="none" stroke="#000" stroke-width="36.614"/><path d="M1675.3 2043.4v-279.92h-279.92v279.92zm-279.92 1000h279.53v-279.92h-279.53zm279.92 720.08h-279.92v279.92h279.53zm0 1279.9v-279.92h-279.92v279.92zm-279.92 1000h279.53v-279.92h-279.53zm0 1000h279.53v-279.92h-279.53zm279.92 720.08h-279.92v279.92h279.53z" fill="olive" fill-rule="evenodd" stroke="#000" stroke-width="36.614"/><circle transform="matrix(0 -1 -1 0 0 0)" cx="-8904" cy="-1537.5" r="250" fill="#999" stroke="#000" stroke-width="36.614"/><path d="M1675.3 9043.4v-279.92h-279.92v279.92zm-279.92 720.08v279.92h279.53v-279.92zm0 1279.9h279.53v-279.92h-279.53zm0 1000h279.53v-279.92h-279.53zm0 720.08v279.92h279.53v-279.92zm279.92 1279.9v-279.92h-279.92v279.92zm0 720.08h-279.92v279.92h279.53z" fill="olive" fill-rule="evenodd" stroke="#000" stroke-width="36.614"/><circle transform="matrix(0 -1 -1 0 0 0)" cx="-15904" cy="-1537.5" r="250" fill="#b3b3b3" stroke="#000" stroke-width="36.614"/><circle transform="matrix(0 -1 -1 0 0 0)" cx="-16904" cy="-1537.5" r="250" fill="#b3b3b3" stroke="#000" stroke-width="36.614"/><circle transform="matrix(0 -1 -1 0 0 0)" cx="-17904" cy="-1537.5" r="250" fill="#b3b3b3" stroke="#000" stroke-width="36.614"/><circle transform="matrix(0 -1 -1 0 0 0)" cx="-18904" cy="-1537.5" r="250" fill="#b3b3b3" stroke="#000" stroke-width="36.614"/><circle transform="matrix(0 -1 -1 0 0 0)" cx="-19904" cy="-1537.5" r="250" fill="#b3b3b3" stroke="#000" stroke-width="36.614"/><circle transform="matrix(0 -1 -1 0 0 0)" cx="-20904" cy="-1537.5" r="250" fill="#b3b3b3" stroke="#000" stroke-width="36.614"/><path d="M1395.4 16043h279.53v-279.92H1395.4zm0 720.08V17043h279.53v-279.92zm279.92 1279.9v-279.92H1395.4v279.92zm-279.92 720.08v279.92h279.53v-279.92zm0 1279.9h279.53v-279.92H1395.4zm0 720.08v279.92h279.53v-279.92z" fill="olive" fill-rule="evenodd" stroke="#000" stroke-width="36.614"/><circle transform="matrix(0 -1 -1 0 0 0)" cx="-1904" cy="-2462.3" r="250" fill="#b3b3b3" stroke="#000" stroke-width="36.614"/><circle transform="matrix(0 -1 -1 0 0 0)" cx="-2904" cy="-2462.3" r="250" fill="#b3b3b3" stroke="#000" stroke-width="36.614"/><circle transform="matrix(0 -1 -1 0 0 0)" cx="-3904" cy="-2462.3" r="250" fill="#b3b3b3" stroke="#000" stroke-width="36.614"/><circle transform="matrix(0 -1 -1 0 0 0)" cx="-4904" cy="-2462.3" r="250" fill="#b3b3b3" stroke="#000" stroke-width="36.614"/><circle transform="matrix(0 -1 -1 0 0 0)" cx="-5904" cy="-2462.3" r="250" fill="#b3b3b3" stroke="#000" stroke-width="36.614"/><circle transform="matrix(0 -1 -1 0 0 0)" cx="-6904" cy="-2462.3" r="250" fill="#b3b3b3" stroke="#000" stroke-width="36.614"/><circle transform="matrix(0 -1 -1 0 0 0)" cx="-7904" cy="-2462.3" r="250" fill="#b3b3b3" stroke="#000" stroke-width="36.614"/><circle transform="matrix(0 -1 -1 0 0 0)" cx="-9904" cy="-2462.3" r="250" fill="#b3b3b3" stroke="#000" stroke-width="36.614"/><circle transform="matrix(0 -1 -1 0 0 0)" cx="-10904" cy="-2462.3" r="250" fill="#b3b3b3" stroke="#000" stroke-width="36.614"/><circle transform="matrix(0 -1 -1 0 0 0)" cx="-11904" cy="-2462.3" r="250" fill="#b3b3b3" stroke="#000" stroke-width="36.614"/><circle transform="matrix(0 -1 -1 0 0 0)" cx="-12904" cy="-2462.3" r="250" fill="#b3b3b3" stroke="#000" stroke-width="36.614"/><circle transform="matrix(0 -1 -1 0 0 0)" cx="-13904" cy="-2462.3" r="250" fill="#b3b3b3" stroke="#000" stroke-width="36.614"/><circle transform="matrix(0 -1 -1 0 0 0)" cx="-14904" cy="-2462.3" r="250" fill="#b3b3b3" stroke="#000" stroke-width="36.614"/><path d="M2600.1 1763.5h-280.31v279.92h280.31zm0 1000h-280.31v279.92h280.31zm-280.31 1279.9h280.31v-279.92h-280.31zm0 1000h280.31v-279.92h-280.31zm280.31 720.08h-280.31v279.92h280.31zm0 1279.9v-279.92h-280.31v279.92zm-280.31 1000h280.31v-279.92h-280.31z" fill="olive" fill-rule="evenodd" stroke="#000" stroke-width="36.614"/><circle transform="matrix(0 -1 -1 0 0 0)" cx="-8904" cy="-2462.3" r="250" fill="#b3b3b3" stroke="#000" stroke-width="36.614"/><path d="M2319.8 9043.4h280.31v-279.92H2319.8zm0 1000h280.31v-279.92H2319.8zm0 1000h280.31v-279.92H2319.8zm0 1000h280.31v-279.92H2319.8zm280.31 1000v-279.92H2319.8v279.92zm0 720.08H2319.8v279.92h280.31zm0 1000H2319.8v279.92h280.31z" fill="olive" fill-rule="evenodd" stroke="#000" stroke-width="36.614"/><circle transform="matrix(0 -1 -1 0 0 0)" cx="-15904" cy="-2462.3" r="250" fill="#b3b3b3" stroke="#000" stroke-width="36.614"/><circle transform="matrix(0 -1 -1 0 0 0)" cx="-16904" cy="-2462.3" r="250" fill="#b3b3b3" stroke="#000" stroke-width="36.614"/><circle transform="matrix(0 -1 -1 0 0 0)" cx="-17904" cy="-2462.3" r="250" fill="#b3b3b3" stroke="#000" stroke-width="36.614"/><circle transform="matrix(0 -1 -1 0 0 0)" cx="-18904" cy="-2462.3" r="250" fill="#b3b3b3" stroke="#000" stroke-width="36.614"/><circle transform="matrix(0 -1 -1 0 0 0)" cx="-19904" cy="-2462.3" r="250" fill="#b3b3b3" stroke="#000" stroke-width="36.614"/><circle transform="matrix(0 -1 -1 0 0 0)" cx="-20904" cy="-2462.3" r="250" fill="#b3b3b3" stroke="#000" stroke-width="36.614"/><path d="M2319.8 15763v279.92h280.31V15763zm0 1279.9h280.31v-279.92H2319.8zm280.31 720.08H2319.8v279.92h280.31zm-280.31 1279.9h280.31v-279.92H2319.8zm0 1000h280.31v-279.92H2319.8zm280.31 1000v-279.92H2319.8v279.92z" fill="olive" fill-rule="evenodd" stroke="#000" stroke-width="36.614"/><path d="M1999.7 1582v794.09m-924.8 58.268v-852.36h1849.6v19704l-925.2-5.906h-924.01v-6053.1z" fill="none" stroke="#000" stroke-width="36.614"/></svg>