<svg width="205" height="181" viewBox="0 0 16555 14507" xmlns="http://www.w3.org/2000/svg"><g transform="translate(-47628 -21802)" clip-path="url(#a)" mask="url(#b)"><defs><clipPath id="a"><path d="M64173 36299H47637V21811h16536v14488" fill-rule="evenodd"/></clipPath></defs><g fill="#313d63" stroke="#313d63"><path d="M64173 36299H47637V21811h16536v14488" fill-rule="evenodd"/><path d="M47637 36299V21811m16536 0H47637m16536 14488V21811M47637 36299h16536" fill="none" fill-opacity="0" stroke="#000" stroke-linecap="round" stroke-linejoin="round" stroke-width="19.685"/></g><g fill="#9c6b28" stroke-linecap="round" stroke-linejoin="round" stroke-width="0"><circle cx="54433" cy="23457" r="314.96"/><circle cx="57433" cy="26457" r="314.96"/><circle cx="55433" cy="23457" r="314.96"/><circle cx="56433" cy="26457" r="314.96"/><circle cx="56433" cy="23457" r="314.96"/><circle cx="55433" cy="26457" r="314.96"/><circle cx="57433" cy="23457" r="314.96"/><path d="M54748 26772h-629.9v-630h629.9z" fill-rule="evenodd"/></g><g fill="#212d53" stroke-linecap="round" stroke-linejoin="round" stroke-width="0"><circle cx="54433" cy="23457" r="314.96"/><circle cx="57433" cy="26457" r="314.96"/><circle cx="55433" cy="23457" r="314.96"/><circle cx="56433" cy="26457" r="314.96"/><circle cx="56433" cy="23457" r="314.96"/><circle cx="55433" cy="26457" r="314.96"/><circle cx="57433" cy="23457" r="314.96"/><path d="M54748 26772h-629.9v-630h629.9z" fill-rule="evenodd"/><circle cx="54433" cy="23457" r="68.898"/><circle cx="57433" cy="26457" r="68.898"/><circle cx="55433" cy="23457" r="68.898"/><circle cx="56433" cy="26457" r="68.898"/><circle cx="56433" cy="23457" r="68.898"/><circle cx="55433" cy="26457" r="68.898"/><circle cx="57433" cy="23457" r="68.898"/><circle cx="54433" cy="26457" r="68.898"/></g><g fill="#b5ae30" mask="url(#c)" stroke-linecap="round" stroke-linejoin="round" stroke-width="0"><circle cx="54433" cy="23457" r="314.96"/><circle cx="57433" cy="26457" r="314.96"/><circle cx="55433" cy="23457" r="314.96"/><circle cx="56433" cy="26457" r="314.96"/><circle cx="56433" cy="23457" r="314.96"/><circle cx="55433" cy="26457" r="314.96"/><circle cx="57433" cy="23457" r="314.96"/><path d="M54748 26772h-629.9v-630h629.9z" fill-rule="evenodd"/><circle cx="54433" cy="23457" r="68.898"/><circle cx="57433" cy="26457" r="68.898"/><circle cx="55433" cy="23457" r="68.898"/><circle cx="56433" cy="26457" r="68.898"/><circle cx="56433" cy="23457" r="68.898"/><circle cx="55433" cy="26457" r="68.898"/><circle cx="57433" cy="23457" r="68.898"/><circle cx="54433" cy="26457" r="68.898"/></g><defs><mask id="c"><g fill="#fff" stroke="#fff" stroke-linecap="round" stroke-linejoin="round" stroke-width="0"><circle cx="54433" cy="23457" r="314.96"/><circle cx="57433" cy="26457" r="314.96"/><circle cx="55433" cy="23457" r="314.96"/><circle cx="56433" cy="26457" r="314.96"/><circle cx="56433" cy="23457" r="314.96"/><circle cx="55433" cy="26457" r="314.96"/><circle cx="57433" cy="23457" r="314.96"/><path d="M54748 26772h-629.9v-630h629.9z" fill-rule="evenodd"/></g></mask></defs><defs><mask id="d"><g stroke="#000" stroke-linecap="round" stroke-linejoin="round" stroke-width="0"><circle cx="54433" cy="23457" r="314.96"/><circle cx="57433" cy="26457" r="314.96"/><circle cx="55433" cy="23457" r="314.96"/><circle cx="56433" cy="26457" r="314.96"/><circle cx="56433" cy="23457" r="314.96"/><circle cx="55433" cy="26457" r="314.96"/><circle cx="57433" cy="23457" r="314.96"/><path d="M54748 26772h-629.9v-630h629.9z" fill-rule="evenodd"/></g><path d="M47627 21801h16555v14507H47627z" fill="#fff"/></mask></defs><g fill="#f0f0f0" fill-opacity="0" mask="url(#d)" stroke="#f0f0f0" stroke-linecap="round" stroke-linejoin="round"><path d="M48623 35551v337m0-169h-591l85 57 56 56 28 56m197-590v-450m1758 1040l-29-28-28-56v-141l28-56 29-28 56-28h56l84 28 338 337v-365m-225-253v-450m1701 1068v-365l225 197v-85l28-56 28-28 57-28h140l57 28 28 28 28 56v169l-28 56-28 28m-169-618v-450m1898 759h394m-619 141l422 140v-365m-28-225v-450m1701 731v281l281 28-28-28-28-56v-141l28-56 28-28 57-28h140l56 28 29 28 28 56v141l-28 56-29 28m-168-590v-450m1701 759v112l28 57 28 28 85 56 112 28h225l56-28 28-28 29-56v-113l-29-56-28-28-56-28h-140l-57 28-28 28-28 56v113l28 56 28 28 57 28m28-590v-450m1701 1068v-393l591 253m-225-478v-450m1954 928l-28 56-28 28-56 28h-29l-56-28-28-28-28-56v-113l28-56 28-28 56-28h29l56 28 28 28 28 56v113l28 56 28 28 56 28h113l56-28 28-28 28-56v-113l-28-56-28-28-56-28h-113l-56 28-28 28-28 56m112-365v-450" fill="none" stroke-width="147.64"/><path d="M53909 23913v649m4047-649h-4047m4047 2087v-2087m-4047 2087h4047m-4047-650v650m0-650a393.7 393.7 0 0 0 0-787.4" fill="none" stroke-width="47.244"/></g><path d="M47637 36299V21811m16536 0H47637m16536 14488V21811M47637 36299h16536" fill="none" fill-opacity="0" stroke="#000" stroke-linecap="round" stroke-linejoin="round" stroke-width="19.685"/><defs><mask id="b"><path d="M47627 21801h16555v14507H47627z" fill="#fff"/><path d="M54432 23456v0m3000 3000v0m-2000-3000v0m1000 3000v0m0-3000v0m-1000 3000v0m2000-3000v0m-3000 3000v0" stroke="#000" stroke-linecap="round" stroke-width="314"/></mask></defs></g><path fill="#e6e6e6" stroke="#000" stroke-width="28.265" d="M11067 888.63h4259.7v1888.7H11067zM1139.1 3089.2h4259.7v1888.7H1139.1zM1121.2 888.59h4259.7v1888.7H1121.2z"/><g stroke="#000" stroke-width="36.614"><path d="M9894.6 1933.5H6509.4v2440.9h3590.5V1933.5z" fill="#333"/><path d="M10129 1904h-234.84m-3179.9 0h-234.84m3024.8 0h-400m-1600 0h-400m1400 0h-400m-1624.8 0v2500m0-.016h234.84m3179.9 0H10129m-3024.8 0h400m1600 0h400m-1400 0h400m1624.8 0v-2500m0 .014l-29.527 29.528m-3620.1-29.528l29.528 29.528m2995.3 0h-400m-1600 0h-400m1400 0h-400m-1624.8 2470.5l29.528-29.527m3620.1 29.527l-29.527-29.527m-2995.3 0h400m1600 0h400m-1400 0h400m-1995.3-2440.9l127.45 127.45" fill="none"/><path d="M9972.5 2061H6636.8v799.21c150.88 15.165 265.75 142.15 265.75 293.8 0 151.64-114.87 278.63-265.75 293.8v799.21h3335.7z" fill="#1a1a1a" fill-rule="evenodd"/><path d="M10100 1933.5l-127.45 127.45m-3463.1 2313.5L6636.9 4247m-41.839-798.01l41.842-1.224m-41.842 1.224v-590.04l41.842 1.225m3463.1 1514.3l-127.45-127.45m-3369.4-797.77a295.28 295.28 0 0 1-8.105-.226m.003-590.05a295.28 295.28 0 0 1 8.105-.225" fill="none"/><path d="M9104.8 4654v150h-600v-429.53h600z" fill="#ccc" fill-rule="evenodd"/><path d="M9104.8 4654h-600" fill="none"/><path d="M10105 4654v150h-600v-429.53h600z" fill="#ccc" fill-rule="evenodd"/><path d="M10105 4654h-600" fill="none"/><path d="M8104.8 4654v150h-600v-429.53h600z" fill="#ccc" fill-rule="evenodd"/><path d="M8104.8 4654h-600" fill="none"/><path d="M7104.8 4654v150h-600v-429.53h600z" fill="#ccc" fill-rule="evenodd"/><path d="M7104.8 4654h-600" fill="none"/><path d="M8504.8 1654v-150.02.02h600v-.02 429.53h-600z" fill="#ccc" fill-rule="evenodd"/><path d="M8504.8 1654h600" fill="none"/><path d="M9504.8 1654v-150.04.04h600v-.04 429.57h-600z" fill="#ccc" fill-rule="evenodd"/><path d="M9504.8 1654h600" fill="none"/><path d="M7504.8 1654v-150.04.04h600v-.04 429.57h-600z" fill="#ccc" fill-rule="evenodd"/><path d="M7504.8 1654h600" fill="none"/><path d="M6504.8 1654v-150.04.04h600v-.04 429.57h-600z" fill="#ccc" fill-rule="evenodd"/><path d="M6504.8 1654h600" fill="none"/></g><g stroke-width="80.756" aria-label="Load"><path d="M1638.3 1350.6h242.9v758.35h426.49v183.59H1638.3zM2787.8 1730.4q-75.078 0-114.83 54.258-39.116 53.627-39.116 155.2 0 101.58 39.116 155.83 39.747 53.627 114.83 53.627 73.816 0 112.93-53.627 39.116-54.258 39.116-155.83 0-101.58-39.116-155.2-39.116-54.258-112.93-54.258zm0-161.51q182.33 0 284.54 98.422 102.84 98.422 102.84 272.55 0 174.13-102.84 272.55-102.21 98.422-284.54 98.422-182.96 0-286.43-98.422-102.84-98.422-102.84-272.55 0-174.13 102.84-272.55 103.47-98.422 286.43-98.422zM3655.9 1974.6q-70.662 0-106.62 23.974-35.331 23.974-35.331 70.662 0 42.902 28.391 67.507 29.022 23.974 80.125 23.974 63.722 0 107.25-45.425 43.533-46.056 43.533-114.83v-25.867zm345.11-85.173v403.15h-227.76v-104.73q-45.425 64.353-102.21 94.005-56.782 29.022-138.17 29.022-109.78 0-178.55-63.722-68.138-64.353-68.138-166.56 0-124.29 85.173-182.33 85.804-58.044 268.77-58.044h133.12v-17.666q0-53.627-42.271-78.233-42.271-25.236-131.86-25.236-72.554 0-135.01 14.511t-116.09 43.533v-172.24q72.554-17.665 145.74-26.498 73.185-9.464 146.37-9.464 191.17 0 275.71 75.71 85.173 75.077 85.173 244.79zM4691.9 1689.4v-378.54h227.13v981.69H4691.9v-102.21q-46.687 62.46-102.84 91.482t-129.97 29.022q-130.6 0-214.51-103.47-83.911-104.1-83.911-267.51t83.911-266.87q83.911-104.1 214.51-104.1 73.185 0 129.34 29.653 56.782 29.022 103.47 90.851zm-148.89 457.41q72.554 0 110.41-52.996 38.485-52.996 38.485-153.94 0-100.95-38.485-153.94-37.854-52.996-110.41-52.996-71.924 0-110.41 52.996-37.854 52.996-37.854 153.94 0 100.95 37.854 153.94 38.485 52.996 110.41 52.996z"/></g><text x="1554.987" y="4303.494" font-family="sans-serif" font-size="646.05" font-weight="bold" letter-spacing="0" stroke-width="80.756" word-spacing="0" style="line-height:1.25" xml:space="preserve"/><g stroke-width="80.756" aria-label="Save"><path d="M2191.3 3552.9v199.37q-77.602-34.7-151.42-52.365-73.816-17.665-139.43-17.665-87.065 0-128.71 23.974t-41.64 74.447q0 37.854 27.76 59.305 28.391 20.82 102.21 35.962l103.47 20.82q157.1 31.545 223.34 95.898 66.245 64.353 66.245 182.96 0 155.83-92.744 232.17-92.113 75.709-282.02 75.709-89.589 0-179.81-17.034-90.22-17.034-180.44-50.473v-205.05q90.22 47.949 174.13 72.554 84.542 23.974 162.77 23.974 79.494 0 121.77-26.498 42.271-26.498 42.271-75.709 0-44.164-29.022-68.138-28.391-23.974-114.19-42.902l-94.005-20.82q-141.32-30.284-206.94-96.529-64.984-66.245-64.984-178.55 0-140.69 90.851-216.4t261.2-75.709q77.602 0 159.62 11.987 82.018 11.356 169.71 34.7zM2773 4147.3q-70.662 0-106.62 23.974-35.331 23.974-35.331 70.662 0 42.902 28.391 67.507 29.022 23.974 80.125 23.974 63.722 0 107.25-45.425 43.533-46.056 43.533-114.83v-25.867zm345.11-85.173v403.15h-227.76v-104.73q-45.425 64.353-102.21 94.005-56.782 29.022-138.17 29.022-109.78 0-178.55-63.722-68.138-64.353-68.138-166.56 0-124.29 85.173-182.33 85.804-58.044 268.77-58.044h133.12v-17.665q0-53.627-42.271-78.233-42.271-25.236-131.86-25.236-72.554 0-135.01 14.511t-116.09 43.533v-172.24q72.554-17.666 145.74-26.498 73.185-9.464 146.37-9.464 191.17 0 275.71 75.71 85.173 75.077 85.173 244.79zM3239.2 3758.6h225.87l176.02 488.32 175.39-488.32h226.5l-278.23 706.62H3516.8zM4875.8 4110v64.353h-528.07q8.202 79.494 57.413 119.24 49.211 39.747 137.54 39.747 71.293 0 145.74-20.82 75.078-21.451 153.94-64.353v174.13q-80.125 30.284-160.25 45.425-80.125 15.773-160.25 15.773-191.8 0-298.42-97.16-105.99-97.791-105.99-273.81 0-172.87 104.1-271.92 104.73-99.053 287.69-99.053 166.56 0 266.24 100.31 100.31 100.31 100.31 268.14zm-232.17-75.078q0-64.353-37.854-103.47-37.224-39.747-97.791-39.747-65.614 0-106.62 37.224-41.009 36.593-51.104 105.99z"/></g><g stroke-width="80.756" aria-label="View"><path d="M11524 1339.2h244.16l249.84 695.26 249.21-695.26h244.16l-348.89 941.95h-289.59zM12603 1574.5h225.86v706.62H12603zm0-275.08h225.86v184.23H12603zM13752 1925.9v64.353h-528.07q8.202 79.494 57.413 119.24t137.54 39.747q71.293 0 145.74-20.82 75.078-21.451 153.94-64.353v174.13q-80.125 30.284-160.25 45.425-80.126 15.773-160.25 15.773-191.8 0-298.42-97.16-105.99-97.791-105.99-273.81 0-172.87 104.1-271.92 104.73-99.053 287.69-99.053 166.56 0 266.24 100.31 100.32 100.31 100.32 268.14zm-232.18-75.078q0-64.353-37.854-103.47-37.224-39.747-97.791-39.747-65.614 0-106.62 37.224-41.009 36.593-51.104 105.99zM13860 1574.5h219.56l118.61 487.06 119.24-487.06h188.64l118.61 482.01 119.24-482.01h219.56l-186.12 706.62h-246.68l-119.24-485.8-118.61 485.8h-246.68z"/></g></svg>