<svg width="279" height="229" viewBox="0 0 22464 18395" xmlns="http://www.w3.org/2000/svg"><g fill="#313d63" stroke="#313d63"><path d="M4-28h22400v18400H4V-28" fill-rule="evenodd"/><path d="M4 18372v-1200m22400 1200H4m22400-1200v1200M4 17172V-28m22400 0v17200M4-28h22400" fill="none" fill-opacity="0" stroke="#000" stroke-linecap="round" stroke-linejoin="round" stroke-width="19.685"/></g><g transform="translate(-39896 -35928)" fill="#9c6b28" stroke-linecap="round" stroke-linejoin="round" stroke-width="0"><circle cx="59001" cy="38863" r="300"/><circle cx="59044" cy="48866" r="300"/><circle cx="55608" cy="39315" r="300"/><circle cx="55651" cy="48457" r="300"/><circle cx="58029" cy="50642" r="300"/><circle cx="56643" cy="37154" r="300"/><path d="M56974 50934h-600v-600h600z" fill-rule="evenodd"/><circle cx="54154" cy="38853" r="300"/><circle cx="54198" cy="48857" r="300"/><circle cx="50761" cy="39306" r="300"/><circle cx="50804" cy="48447" r="300"/><circle cx="53182" cy="50632" r="300"/><circle cx="51796" cy="37144" r="300"/><path d="M52128 50924h-600v-600h600z" fill-rule="evenodd"/><circle cx="49154" cy="38853" r="300"/><circle cx="49198" cy="48857" r="300"/><circle cx="45761" cy="39306" r="300"/><circle cx="45804" cy="48447" r="300"/><circle cx="48182" cy="50632" r="300"/><circle cx="46796" cy="37144" r="300"/><path d="M47128 50924h-600v-600h600z" fill-rule="evenodd"/><circle cx="44154" cy="38853" r="300"/><circle cx="44198" cy="48857" r="300"/><circle cx="40761" cy="39306" r="300"/><circle cx="40804" cy="48447" r="300"/><circle cx="43182" cy="50632" r="300"/><circle cx="41796" cy="37144" r="300"/><path d="M42128 50924h-600v-600h600z" fill-rule="evenodd"/><circle cx="61100" cy="46900" r="334.65"/><circle cx="61100" cy="45900" r="334.65"/><circle cx="61100" cy="44900" r="334.65"/><circle cx="61100" cy="43900" r="334.65"/><circle cx="61100" cy="42900" r="334.65"/><path d="M60765 42235v-669.2h669.2v669.2z" fill-rule="evenodd"/></g><g transform="translate(-39896 -35928)" fill="#212d53" stroke-linecap="round" stroke-linejoin="round" stroke-width="0"><circle cx="59001" cy="38863" r="300"/><circle cx="59044" cy="48866" r="300"/><circle cx="55608" cy="39315" r="300"/><circle cx="55651" cy="48457" r="300"/><circle cx="58029" cy="50642" r="300"/><circle cx="56643" cy="37154" r="300"/><path d="M56974 50934h-600v-600h600z" fill-rule="evenodd"/><circle cx="54154" cy="38853" r="300"/><circle cx="54198" cy="48857" r="300"/><circle cx="50761" cy="39306" r="300"/><circle cx="50804" cy="48447" r="300"/><circle cx="53182" cy="50632" r="300"/><circle cx="51796" cy="37144" r="300"/><path d="M52128 50924h-600v-600h600z" fill-rule="evenodd"/><circle cx="49154" cy="38853" r="300"/><circle cx="49198" cy="48857" r="300"/><circle cx="45761" cy="39306" r="300"/><circle cx="45804" cy="48447" r="300"/><circle cx="48182" cy="50632" r="300"/><circle cx="46796" cy="37144" r="300"/><path d="M47128 50924h-600v-600h600z" fill-rule="evenodd"/><circle cx="44154" cy="38853" r="300"/><circle cx="44198" cy="48857" r="300"/><circle cx="40761" cy="39306" r="300"/><circle cx="40804" cy="48447" r="300"/><circle cx="43182" cy="50632" r="300"/><circle cx="41796" cy="37144" r="300"/><path d="M42128 50924h-600v-600h600z" fill-rule="evenodd"/><circle cx="61100" cy="46900" r="334.65"/><circle cx="61100" cy="45900" r="334.65"/><circle cx="61100" cy="44900" r="334.65"/><circle cx="61100" cy="43900" r="334.65"/><circle cx="61100" cy="42900" r="334.65"/><path d="M60765 42235v-669.2h669.2v669.2z" fill-rule="evenodd"/><circle cx="59001" cy="38863" r="68.898"/><circle cx="59044" cy="48866" r="68.898"/><circle cx="55608" cy="39315" r="68.898"/><circle cx="55651" cy="48457" r="68.898"/><circle cx="58029" cy="50642" r="68.898"/><circle cx="56643" cy="37154" r="68.898"/><circle cx="56674" cy="50634" r="68.898"/><circle cx="54154" cy="38853" r="68.898"/><circle cx="54198" cy="48857" r="68.898"/><circle cx="50761" cy="39306" r="68.898"/><circle cx="50804" cy="48447" r="68.898"/><circle cx="53182" cy="50632" r="68.898"/><circle cx="51796" cy="37144" r="68.898"/><circle cx="51828" cy="50624" r="68.898"/><circle cx="49154" cy="38853" r="68.898"/><circle cx="49198" cy="48857" r="68.898"/><circle cx="45761" cy="39306" r="68.898"/><circle cx="45804" cy="48447" r="68.898"/><circle cx="48182" cy="50632" r="68.898"/><circle cx="46796" cy="37144" r="68.898"/><circle cx="46828" cy="50624" r="68.898"/><circle cx="44154" cy="38853" r="68.898"/><circle cx="44198" cy="48857" r="68.898"/><circle cx="40761" cy="39306" r="68.898"/><circle cx="40804" cy="48447" r="68.898"/><circle cx="43182" cy="50632" r="68.898"/><circle cx="41796" cy="37144" r="68.898"/><circle cx="41828" cy="50624" r="68.898"/><circle cx="61100" cy="46900" r="68.898"/><circle cx="61100" cy="45900" r="68.898"/><circle cx="61100" cy="44900" r="68.898"/><circle cx="61100" cy="43900" r="68.898"/><circle cx="61100" cy="42900" r="68.898"/><circle cx="61100" cy="41900" r="68.898"/></g><g transform="translate(-39896 -35928)" fill="#b5ae30" mask="url(#c)" stroke-linecap="round" stroke-linejoin="round" stroke-width="0"><circle cx="59001" cy="38863" r="300"/><circle cx="59044" cy="48866" r="300"/><circle cx="55608" cy="39315" r="300"/><circle cx="55651" cy="48457" r="300"/><circle cx="58029" cy="50642" r="300"/><circle cx="56643" cy="37154" r="300"/><path d="M56974 50934h-600v-600h600z" fill-rule="evenodd"/><circle cx="54154" cy="38853" r="300"/><circle cx="54198" cy="48857" r="300"/><circle cx="50761" cy="39306" r="300"/><circle cx="50804" cy="48447" r="300"/><circle cx="53182" cy="50632" r="300"/><circle cx="51796" cy="37144" r="300"/><path d="M52128 50924h-600v-600h600z" fill-rule="evenodd"/><circle cx="49154" cy="38853" r="300"/><circle cx="49198" cy="48857" r="300"/><circle cx="45761" cy="39306" r="300"/><circle cx="45804" cy="48447" r="300"/><circle cx="48182" cy="50632" r="300"/><circle cx="46796" cy="37144" r="300"/><path d="M47128 50924h-600v-600h600z" fill-rule="evenodd"/><circle cx="44154" cy="38853" r="300"/><circle cx="44198" cy="48857" r="300"/><circle cx="40761" cy="39306" r="300"/><circle cx="40804" cy="48447" r="300"/><circle cx="43182" cy="50632" r="300"/><circle cx="41796" cy="37144" r="300"/><path d="M42128 50924h-600v-600h600z" fill-rule="evenodd"/><circle cx="61100" cy="46900" r="334.65"/><circle cx="61100" cy="45900" r="334.65"/><circle cx="61100" cy="44900" r="334.65"/><circle cx="61100" cy="43900" r="334.65"/><circle cx="61100" cy="42900" r="334.65"/><path d="M60765 42235v-669.2h669.2v669.2z" fill-rule="evenodd"/><circle cx="59001" cy="38863" r="68.898"/><circle cx="59044" cy="48866" r="68.898"/><circle cx="55608" cy="39315" r="68.898"/><circle cx="55651" cy="48457" r="68.898"/><circle cx="58029" cy="50642" r="68.898"/><circle cx="56643" cy="37154" r="68.898"/><circle cx="56674" cy="50634" r="68.898"/><circle cx="54154" cy="38853" r="68.898"/><circle cx="54198" cy="48857" r="68.898"/><circle cx="50761" cy="39306" r="68.898"/><circle cx="50804" cy="48447" r="68.898"/><circle cx="53182" cy="50632" r="68.898"/><circle cx="51796" cy="37144" r="68.898"/><circle cx="51828" cy="50624" r="68.898"/><circle cx="49154" cy="38853" r="68.898"/><circle cx="49198" cy="48857" r="68.898"/><circle cx="45761" cy="39306" r="68.898"/><circle cx="45804" cy="48447" r="68.898"/><circle cx="48182" cy="50632" r="68.898"/><circle cx="46796" cy="37144" r="68.898"/><circle cx="46828" cy="50624" r="68.898"/><circle cx="44154" cy="38853" r="68.898"/><circle cx="44198" cy="48857" r="68.898"/><circle cx="40761" cy="39306" r="68.898"/><circle cx="40804" cy="48447" r="68.898"/><circle cx="43182" cy="50632" r="68.898"/><circle cx="41796" cy="37144" r="68.898"/><circle cx="41828" cy="50624" r="68.898"/><circle cx="61100" cy="46900" r="68.898"/><circle cx="61100" cy="45900" r="68.898"/><circle cx="61100" cy="44900" r="68.898"/><circle cx="61100" cy="43900" r="68.898"/><circle cx="61100" cy="42900" r="68.898"/><circle cx="61100" cy="41900" r="68.898"/></g><g transform="translate(-39896 -35928)" fill="none" fill-opacity="0" mask="url(#d)" stroke="#f0f0f0" stroke-linecap="round" stroke-linejoin="round"><path d="M56712 49081h1221m-1221-10365v10365m1221-10365h-1221m1221 10365V38716m-2442 12115h3730m-3730-13963v13963m3730-13963h-3730m3730 13963V36868m-7356 12204h1222m-1222-10366v10366m1222-10366h-1222m1222 10366V38706m-2443 12115h3730m-3730-13963v13963m3730-13963h-3730m3730 13963V36858m-7509 12214h1222m-1222-10366v10366m1222-10366h-1222m1222 10366V38706m-2443 12115h3730m-3730-13963v13963m3730-13963h-3730m3730 13963V36858m-7509 12214h1222m-1222-10366v10366m1222-10366h-1222m1222 10366V38706m-2443 12115h3730m-3730-13963v13963m3730-13963h-3730m3730 13963V36858" stroke-width="62.992"/><path d="M60576 42400h1047m-1047 0v5023h1047m0-5023v5023m0-6047v524m-523-524h523" stroke-width="47.244"/></g><path d="M4 18372v-1200m22400 1200H4m22400-1200v1200M4 17172V-28m22400 0v17200M4-28h22400" fill="none" fill-opacity="0" stroke="#000" stroke-linecap="round" stroke-linejoin="round" stroke-width="19.685"/><path d="M19216 1695.2V984.88h-3051.2v.63h-295.27v-.63h-196.85v13780h3543.3v-13287" fill="#b3b3b3" fill-rule="evenodd" stroke="#000" stroke-width="36.614"/><path d="M18035 2756.3h-1181.1v10236H18035zM19019 14371v196.85h-196.85c-.01-108.72 88.118-196.86 196.83-196.87z" fill="#1a1a1a" fill-rule="evenodd" stroke="#000" stroke-width="36.614"/><path d="M19019 1378.3v-196.85" fill="none" stroke="#000" stroke-width="36.614"/><path d="M19019 1181.5h-196.85c.01 108.7 88.13 196.82 196.83 196.84l.01.017v-188.97zm-1338.6 7626.4a78.746 78.746 0 0 1-23.063 55.681 78.737 78.737 0 0 1-55.677 23.075v-.013h-314.96a78.75 78.75 0 0 1-55.677-23.059 78.748 78.748 0 0 1-23.063-55.669v-464.33c0-35.905-24.288-67.267-59.055-76.243a78.603 78.603 0 0 1-35.992-20.567 78.737 78.737 0 0 1-23.063-55.673v-632.88a78.734 78.734 0 0 1 23.063-55.67v-.01a78.659 78.659 0 0 1 35.992-20.543v-.019c34.766-8.976 59.055-40.334 59.055-76.24v-464.33a78.739 78.739 0 0 1 23.062-55.665 78.748 78.748 0 0 1 55.677-23.059h314.96a78.752 78.752 0 0 1 55.677 23.06 78.741 78.741 0 0 1 23.063 55.68v464.33c0 35.914 24.284 67.284 59.055 76.26 34.76 8.977 59.047 40.323 59.055 76.22v632.87c0 35.906-24.291 67.26-59.055 76.236-34.768 8.977-59.059 40.339-59.055 76.244zM17444 2106.7c445.86-.32 445.86-669.64 0-669.29v.017c-442.99 3.189-442.99 666.1 0 669.29zm0 12205c445.86-.32 445.86-669.64 0-669.29v.02c-442.99 3.19-442.99 666.1 0 669.29z" fill="#1a1a1a" fill-rule="evenodd" stroke="#000" stroke-width="36.614"/><path d="M16165 1042.5v139.51m-98.424-139.12v139.2m2952.9 196.23h139.2m-336.05-393.7v57.666m196.85 13328h139.2m-336.05 336.05v-139.2m-2756 139.2v-139.2m-196.85-196.85h-139.19m139.19-12991h-139.19m-57.657 13188h196.85" fill="none" stroke="#000" stroke-width="36.614"/><path d="M15869 14371c108.72 0 196.86 88.141 196.85 196.87H15869v-196.85z" fill="#1a1a1a" fill-rule="evenodd" stroke="#000" stroke-width="36.614"/><path d="M16066 14764v-57.665m-336.02-336.04h-57.662m-.02 188.98h196.85m-196.84-13575v.63m0 13574v7.874m57.677-13188h-57.662" fill="none" stroke="#000" stroke-width="36.614"/><path d="M16066 1182.2c0 108.72-88.13 196.86-196.85 196.86v-197.5H16066z" fill="#1a1a1a" fill-rule="evenodd" stroke="#000" stroke-width="36.614"/><path d="M18822 14764v-57.665m393.7-139.18h-196.85m138.98-196.85h57.661m.213 188.98h-196.85m-196.85-13517v139.2m393.7-.225h-196.85m196.85 7.875h-196.85m196.85 0v-7.874m-3543.4.787h196.85m196.85-196.85v57.665m-393.7 147.06h196.85m295.27-205.51v57.666m-295.27-56.878v-.63m-196.85 204.57h196.85m295.27-7.875h2209.1m-2307.5.788h98.425m2854.4 512.99v-316.62m0 316.62v12676m-2952.9 196.58h2755.9m-2952.8-196.85v-12991m0 13385v-196.85m3149.7 196.85v-196.85m-196.85-13386h-448.38m645.24-196.85v196.85m-3149.7-196.06v196.21m295.27-139.12h2209.1m-2307.5.393h98.425m2993.4 335.43v316.62m-335.83-652.44h-448.38m784.21 652.76v12676m-335.83 335.77h-2755.9m-336.14-336.05v-12991" fill="none" stroke="#000" stroke-width="36.614"/><path d="M14370 1686.2V975.88h-3051.2v.63h-295.27v-.63h-196.85v13780h3543.3v-13287" fill="#b3b3b3" fill-rule="evenodd" stroke="#000" stroke-width="36.614"/><path d="M13189 2747.3h-1181.1v10236H13189zM14173 14362v196.85h-196.85c-.01-108.72 88.118-196.86 196.83-196.87z" fill="#1a1a1a" fill-rule="evenodd" stroke="#000" stroke-width="36.614"/><path d="M14173 1369.3v-196.85" fill="none" stroke="#000" stroke-width="36.614"/><path d="M14173 1172.5h-196.85c.01 108.7 88.13 196.82 196.83 196.84l.02.017v-188.97zm-1338.6 7626.4a78.746 78.746 0 0 1-23.063 55.681 78.737 78.737 0 0 1-55.677 23.075v-.013h-314.96a78.75 78.75 0 0 1-55.677-23.059 78.748 78.748 0 0 1-23.063-55.669v-464.33c0-35.905-24.288-67.267-59.055-76.243a78.603 78.603 0 0 1-35.992-20.567 78.737 78.737 0 0 1-23.063-55.673v-632.88a78.734 78.734 0 0 1 23.063-55.67v-.01a78.659 78.659 0 0 1 35.992-20.543v-.019c34.766-8.976 59.055-40.334 59.055-76.24v-464.33a78.739 78.739 0 0 1 23.062-55.665 78.748 78.748 0 0 1 55.677-23.059h314.96a78.752 78.752 0 0 1 55.677 23.06 78.741 78.741 0 0 1 23.063 55.68v464.33c0 35.914 24.284 67.284 59.055 76.26 34.76 8.977 59.047 40.323 59.055 76.22v632.87c0 35.906-24.291 67.26-59.055 76.236-34.768 8.977-59.059 40.339-59.055 76.244zM12598 2097.7c445.86-.32 445.86-669.64 0-669.29v.017c-442.99 3.189-442.99 666.1 0 669.29zm0 12205c445.86-.32 445.86-669.64 0-669.29v.02c-442.99 3.19-442.99 666.1 0 669.29z" fill="#1a1a1a" fill-rule="evenodd" stroke="#000" stroke-width="36.614"/><path d="M11319 1033.5v139.51m-98.424-139.12v139.2m2952.9 196.23h139.2m-336.05-393.7v57.666m196.85 13328h139.2m-336.05 336.05v-139.2m-2756 139.2v-139.2m-196.85-196.85h-139.19m139.19-12991h-139.19m-57.657 13188h196.85" fill="none" stroke="#000" stroke-width="36.614"/><path d="M11023 14362c108.72 0 196.86 88.141 196.85 196.87H11023v-196.85z" fill="#1a1a1a" fill-rule="evenodd" stroke="#000" stroke-width="36.614"/><path d="M11220 14755v-57.665m-336.02-336.04h-57.662m-.02 188.98h196.85m-196.84-13575v.63m0 13574v7.874m57.677-13188h-57.662" fill="none" stroke="#000" stroke-width="36.614"/><path d="M11220 1173.2c0 108.72-88.13 196.86-196.85 196.86v-197.5H11220z" fill="#1a1a1a" fill-rule="evenodd" stroke="#000" stroke-width="36.614"/><path d="M13976 14755v-57.665m393.7-139.18h-196.85m138.98-196.85h57.661m.213 188.98h-196.85m-196.85-13517v139.2m393.7-.225h-196.85m196.85 7.875h-196.85m196.85 0v-7.874m-3543.4.787h196.85m196.85-196.85v57.665m-393.7 147.06h196.85m295.27-205.51v57.666m-295.27-56.878v-.63m-196.85 204.57h196.85m295.27-7.875h2209.1m-2307.5.788h98.425m2854.4 512.99v-316.62m0 316.62v12676m-2952.9 196.58h2755.9m-2952.8-196.85v-12991m0 13385v-196.85m3149.7 196.85v-196.85m-196.85-13386h-448.38m645.24-196.85v196.85m-3149.7-196.06v196.21m295.27-139.12h2209.1m-2307.5.393h98.425m2993.4 335.43v316.62m-335.83-652.44h-448.38m784.21 652.76v12676m-335.83 335.77h-2755.9m-336.14-336.05v-12991" fill="none" stroke="#000" stroke-width="36.614"/><path d="M9369.9 1686.2V975.88H6318.7v.63h-295.27v-.63h-196.85v13780h3543.3v-13287" fill="#b3b3b3" fill-rule="evenodd" stroke="#000" stroke-width="36.614"/><path d="M8188.8 2747.3H7007.7v10236h1181.1zM9173.1 14362v196.85h-196.85c-.01-108.72 88.118-196.86 196.83-196.87z" fill="#1a1a1a" fill-rule="evenodd" stroke="#000" stroke-width="36.614"/><path d="M9173.1 1369.3v-196.85" fill="none" stroke="#000" stroke-width="36.614"/><path d="M9173.1 1172.5h-196.85c.01 108.7 88.13 196.82 196.83 196.84l.015.017v-188.97zM7834.5 8798.9a78.746 78.746 0 0 1-23.063 55.681 78.737 78.737 0 0 1-55.677 23.075v-.013H7440.8a78.75 78.75 0 0 1-55.677-23.059 78.748 78.748 0 0 1-23.063-55.669v-464.33c0-35.905-24.288-67.267-59.055-76.243a78.603 78.603 0 0 1-35.992-20.567 78.737 78.737 0 0 1-23.063-55.673v-632.88a78.734 78.734 0 0 1 23.063-55.67v-.01a78.659 78.659 0 0 1 35.992-20.543v-.019c34.766-8.976 59.055-40.334 59.055-76.24v-464.33a78.739 78.739 0 0 1 23.062-55.665 78.748 78.748 0 0 1 55.677-23.059h314.96a78.752 78.752 0 0 1 55.677 23.06 78.741 78.741 0 0 1 23.063 55.68v464.33c-.01 35.914 24.284 67.284 59.055 76.26 34.76 8.977 59.047 40.323 59.055 76.22v632.87c0 35.906-24.291 67.26-59.055 76.236-34.768 8.977-59.059 40.339-59.055 76.244zM7598.2 2097.7c445.86-.32 445.86-669.64 0-669.29v.017c-442.99 3.189-442.99 666.1 0 669.29zm0 12205c445.86-.32 445.86-669.64 0-669.29v.02c-442.99 3.19-442.99 666.1 0 669.29z" fill="#1a1a1a" fill-rule="evenodd" stroke="#000" stroke-width="36.614"/><path d="M6318.6 1033.5v139.51m-98.424-139.12v139.2m2952.9 196.23h139.2m-336.05-393.7v57.666m196.85 13328h139.2m-336.05 336.05v-139.2m-2756 139.2v-139.2m-196.85-196.85h-139.19m139.19-12991h-139.19m-57.657 13188h196.85" fill="none" stroke="#000" stroke-width="36.614"/><path d="M6023.4 14362c108.72 0 196.86 88.141 196.85 196.87H6023.4v-196.85z" fill="#1a1a1a" fill-rule="evenodd" stroke="#000" stroke-width="36.614"/><path d="M6220.2 14755v-57.665m-336.02-336.04h-57.662m-.015 188.98h196.85m-196.85-13575v.63m0 13574v7.874m57.677-13188h-57.662" fill="none" stroke="#000" stroke-width="36.614"/><path d="M6220.2 1173.2c0 108.72-88.13 196.86-196.85 196.86v-197.5h196.85z" fill="#1a1a1a" fill-rule="evenodd" stroke="#000" stroke-width="36.614"/><path d="M8976.2 14755v-57.665m393.7-139.18h-196.85m138.98-196.85h57.661m.213 188.98h-196.85m-196.85-13517v139.2m393.7-.225h-196.85m196.85 7.875h-196.85m196.85 0v-7.874m-3543.4.787h196.85m196.85-196.85v57.665m-393.7 147.06h196.85m295.27-205.51v57.666m-295.27-56.878v-.63m-196.85 204.57h196.85m295.27-7.875h2209.1m-2307.5.788h98.425m2854.4 512.99v-316.62m0 316.62v12676m-2952.9 196.58h2755.9m-2952.8-196.85v-12991m0 13385v-196.85m3149.7 196.85v-196.85m-196.85-13386h-448.38m645.24-196.85v196.85m-3149.7-196.06v196.21m295.27-139.12h2209.1m-2307.5.393h98.425m2993.4 335.43v316.62m-335.83-652.44h-448.38m784.21 652.76v12676m-335.83 335.77h-2755.9m-336.14-336.05v-12991" fill="none" stroke="#000" stroke-width="36.614"/><path d="M4369.9 1686.2V975.88H1318.7v.63h-295.27v-.63H826.58v13780h3543.3v-13287" fill="#b3b3b3" fill-rule="evenodd" stroke="#000" stroke-width="36.614"/><path d="M3188.8 2747.3H2007.7v10236h1181.1zM4173.1 14362v196.85h-196.85c-.01-108.72 88.118-196.86 196.83-196.87z" fill="#1a1a1a" fill-rule="evenodd" stroke="#000" stroke-width="36.614"/><path d="M4173.1 1369.3v-196.85" fill="none" stroke="#000" stroke-width="36.614"/><path d="M4173.1 1172.5h-196.85c.01 108.7 88.13 196.82 196.83 196.84l.015.017v-188.97zM2834.5 8798.9a78.746 78.746 0 0 1-23.063 55.681 78.737 78.737 0 0 1-55.677 23.075v-.013H2440.8a78.75 78.75 0 0 1-55.677-23.059 78.748 78.748 0 0 1-23.063-55.669v-464.33c0-35.905-24.288-67.267-59.055-76.243a78.603 78.603 0 0 1-35.992-20.567 78.737 78.737 0 0 1-23.063-55.673v-632.88a78.734 78.734 0 0 1 23.063-55.67v-.01a78.659 78.659 0 0 1 35.992-20.543v-.019c34.766-8.976 59.055-40.334 59.055-76.24v-464.33a78.739 78.739 0 0 1 23.062-55.665h.001a78.748 78.748 0 0 1 55.677-23.059h314.96a78.752 78.752 0 0 1 55.677 23.06 78.741 78.741 0 0 1 23.063 55.68v464.33c-.01 35.914 24.284 67.284 59.055 76.26 34.76 8.977 59.047 40.323 59.055 76.22v632.87c0 35.906-24.291 67.26-59.055 76.236-34.768 8.977-59.059 40.339-59.055 76.244zM2598.2 2097.7c445.86-.32 445.86-669.64 0-669.29v.017c-442.99 3.189-442.99 666.1 0 669.29zm0 12205c445.86-.32 445.86-669.64 0-669.29v.02c-442.99 3.19-442.99 666.1 0 669.29z" fill="#1a1a1a" fill-rule="evenodd" stroke="#000" stroke-width="36.614"/><path d="M1318.6 1033.5v139.51m-98.424-139.12v139.2m2952.9 196.23h139.2m-336.05-393.7v57.666m196.85 13328h139.2m-336.05 336.05v-139.2m-2756 139.2v-139.2m-196.85-196.85h-139.19m139.19-12991h-139.19m-57.657 13188h196.85" fill="none" stroke="#000" stroke-width="36.614"/><path d="M1023.4 14362c108.72 0 196.86 88.141 196.85 196.87H1023.4v-196.85z" fill="#1a1a1a" fill-rule="evenodd" stroke="#000" stroke-width="36.614"/><path d="M1220.2 14755v-57.665m-336.02-336.04h-57.663m-.014 188.98h196.85m-196.85-13575v.63m0 13574v7.874m57.677-13188h-57.663" fill="none" stroke="#000" stroke-width="36.614"/><path d="M1220.2 1173.2c0 108.72-88.13 196.86-196.85 196.86v-197.5h196.85z" fill="#1a1a1a" fill-rule="evenodd" stroke="#000" stroke-width="36.614"/><path d="M3976.2 14755v-57.665m393.7-139.18h-196.85m138.98-196.85h57.661m.213 188.98h-196.85m-196.85-13517v139.2m393.7-.225h-196.85m196.85 7.875h-196.85m196.85 0v-7.874m-3543.4.787h196.85m196.85-196.85v57.665m-393.7 147.06h196.85m295.27-205.51v57.666m-295.27-56.878v-.63m-196.85 204.57h196.85m295.27-7.875h2209.1m-2307.5.788h98.425m2854.4 512.99v-316.62m0 316.62v12676m-2952.9 196.58h2755.9m-2952.8-196.85v-12991m0 13385v-196.85m3149.7 196.85v-196.85m-196.85-13386h-448.38m645.24-196.85v196.85m-3149.7-196.06v196.21m295.27-139.12h2209.1m-2307.5.393h98.425m2993.4 335.43v316.62m-335.83-652.44h-448.38m784.21 652.76v12676m-335.83 335.77h-2755.9m-336.14-336.05v-12991" fill="none" stroke="#000" stroke-width="36.614"/><path d="M21704 11472V5472h-1000v6000z" fill="#1a1a1a" fill-rule="evenodd" stroke="#000" stroke-width="36.614"/><path d="M20968 5735.8v472.44h472.44V5735.8z" fill="gray" fill-rule="evenodd" stroke="#000" stroke-width="36.614"/><path d="M21440 7208.2v-472.44h-472.44v472.44zm0 1000v-472.44h-472.44v472.44zm-472.44 3000H21440v-472.44h-472.44zm0-1000H21440v-472.44h-472.44zm0-1000H21440v-472.44h-472.44z" fill="#666" fill-rule="evenodd" stroke="#000" stroke-width="36.614"/><path d="M20968 5735.8l117.72 117.72M20968 6208.24l117.72-117.72m0-237.01v237.01m354.72-354.72l-117.72 117.72h-237.01m354.72 354.72l-117.72-117.72v-237.01m-237.01 237.01h237.01m-354.72 1117.7l117.72-117.72m354.72 117.72l-117.72-117.72m-237.01 0h237.01m-354.72-354.72l117.72 117.72v237.01m354.72-354.72l-117.72 117.72h-237.01m237.01 237.01v-237.01m117.72 1354.7l-117.72-117.72m117.72-354.72l-117.72 117.72m0 237.01v-237.01m-354.72 354.72l117.72-117.72h237.01M20968 7735.77l117.72 117.72v237.01m237.01-237.01h-237.01m-117.72 2882.3l117.72 117.72m-117.72 354.72l117.72-117.72m0-237.01v237.01m354.72-354.72l-117.72 117.72h-237.01m354.72 354.72l-117.72-117.72v-237.01m-237.01 237.01h237.01m-354.72-882.28l117.72-117.72m354.72 117.72l-117.72-117.72m-237.01 0h237.01m-354.72-354.72l117.72 117.72v237.01m354.72-354.72l-117.72 117.72h-237.01m237.01 237.01v-237.01m117.72-645.27l-117.72-117.72m117.72-354.72l-117.72 117.72m0 237.01v-237.01m-354.72 354.72l117.72-117.72h237.01M20968 8735.81l117.72 117.72v237.01m237.01-237.01h-237.01" fill="none" stroke="#000" stroke-width="36.614"/><path d="M21322 6090.1v-236.22h-236.22v236.22zm-236.22 1000H21322v-236.22h-236.22zm236.22 1000v-236.22h-236.22v236.22zm0 3000v-236.22h-236.22v236.22zm-236.22-1000H21322v-236.22h-236.22zm236.22-1000v-236.22h-236.22v236.22z" fill="olive" fill-rule="evenodd" stroke="#000" stroke-width="36.614"/><path d="M21165 5873.6v-19.685m0 216.54v-196.85m0 216.54v-19.685m78.74 19.685v-19.685m-78.74 0h78.74v-216.54m-78.74 19.685h78.74m-78.74 1000v-19.685m0 216.54v-196.85m0 216.54v-19.685" fill="none" stroke="#000" stroke-width="36.614"/><path d="M21243 7090.1v-19.685" fill="olive" fill-rule="evenodd" stroke="#000" stroke-width="36.614"/><path d="M21165 7070.4h78.74v-216.54m-78.74 19.685h78.74m-78.74 1000v-19.685m0 216.54v-196.85m0 216.54v-19.685m78.74 19.685v-19.685m-78.74 0h78.74v-216.54m-78.74 19.685h78.74m-78.74 3000v-19.685m0 216.54v-196.85m0 216.54v-19.685m78.74 19.685v-19.685m-78.74 0h78.74v-216.54m-78.74 19.685h78.74m-78.74-1000v-19.685m0 216.54v-196.85m0 216.54v-19.685m78.74 19.685v-19.685m-78.74 0h78.74v-216.54m-78.74 19.685h78.74m-78.74-1000v-19.685m0 216.54v-196.85m0 216.54v-19.685m78.74 19.685v-19.685m-78.74 0h78.74v-216.54m-78.74 19.685h78.74" fill="none" stroke="#000" stroke-width="36.614"/></svg>