<svg width="174" height="273" viewBox="0 0 14015 21934" xmlns="http://www.w3.org/2000/svg"><g transform="matrix(1 0 0 1.0029 -46241 -13998)" clip-path="url(#a)" mask="url(#b)"><defs><clipPath id="a"><path d="M46259 14173v21653h13977V13976H46259v197" fill-rule="evenodd"/></clipPath></defs><g fill="#313d63" stroke="#313d63"><path d="M46259 14173v21653h13977V13976H46259v197" fill-rule="evenodd"/><g fill-opacity="0" stroke-linecap="round" stroke-linejoin="round" stroke-width="39.37" fill="none" stroke="#000"><path d="M46259 13976v197M60236 13976H46259M60236 35826V13976M46259 35826h13977M46259 14173v21653"/></g></g><g fill-opacity="1" stroke="none" stroke-linecap="round" stroke-linejoin="round" stroke-width="0" fill="#9c6b28"><circle cx="54228" cy="32030" r="300"/><circle cx="53346" cy="32037" r="300"/><circle cx="52417" cy="32037" r="300"/><circle cx="56890" cy="32449" r="334.65"/><circle cx="56890" cy="33449" r="334.65"/><path d="M57224 34114v669.3h-669.3V34114z" fill-rule="evenodd"/></g><g fill="#212d53" stroke="#212d53" stroke-linecap="round" stroke-linejoin="round" stroke-width="0"><g fill-opacity="1" stroke="none"><circle cx="54228" cy="32030" r="300"/><circle cx="53346" cy="32037" r="300"/><circle cx="52417" cy="32037" r="300"/><circle cx="56890" cy="32449" r="334.65"/><circle cx="56890" cy="33449" r="334.65"/><path d="M57224 34114v669.3h-669.3V34114z" fill-rule="evenodd"/></g><g stroke="none"><circle cx="54228" cy="32030" r="68.898"/><circle cx="53346" cy="32037" r="68.898"/><circle cx="52417" cy="32037" r="68.898"/><circle cx="56890" cy="32449" r="68.898"/><circle cx="56890" cy="33449" r="68.898"/><circle cx="56890" cy="34449" r="68.898"/></g></g><g fill="#b5ae30" mask="url(#c)" stroke="#b5ae30" stroke-linecap="round" stroke-linejoin="round" stroke-width="0"><g fill-opacity="1" stroke="none"><circle cx="54228" cy="32030" r="300"/><circle cx="53346" cy="32037" r="300"/><circle cx="52417" cy="32037" r="300"/><circle cx="56890" cy="32449" r="334.65"/><circle cx="56890" cy="33449" r="334.65"/><path d="M57224 34114v669.3h-669.3V34114z" fill-rule="evenodd"/></g><g stroke="none"><circle cx="54228" cy="32030" r="68.898"/><circle cx="53346" cy="32037" r="68.898"/><circle cx="52417" cy="32037" r="68.898"/><circle cx="56890" cy="32449" r="68.898"/><circle cx="56890" cy="33449" r="68.898"/><circle cx="56890" cy="34449" r="68.898"/></g></g><defs><mask id="c"><g fill="#fff" fill-opacity="1" stroke="#fff" stroke-linecap="round" stroke-linejoin="round" stroke-width="0"><circle cx="54228" cy="32030" r="300"/><circle cx="53346" cy="32037" r="300"/><circle cx="52417" cy="32037" r="300"/><circle cx="56890" cy="32449" r="334.65"/><circle cx="56890" cy="33449" r="334.65"/><path d="M57224 34114v669.3h-669.3V34114z" fill-rule="evenodd"/></g></mask></defs><defs><mask id="d"><g fill-opacity="1" stroke="#000" stroke-linecap="round" stroke-linejoin="round" stroke-width="0"><circle cx="54228" cy="32030" r="300"/><circle cx="53346" cy="32037" r="300"/><circle cx="52417" cy="32037" r="300"/><circle cx="56890" cy="32449" r="334.65"/><circle cx="56890" cy="33449" r="334.65"/><path d="M57224 34114v669.3h-669.3V34114z" fill-rule="evenodd"/></g><path fill="#fff" d="M46240 13956h14015v21934H46240z"/></mask></defs><g fill-opacity="0" stroke-linecap="round" stroke-linejoin="round" stroke-width="47.244" fill="none" mask="url(#d)" stroke="#f0f0f0"><path d="M50806 18793h4803M55609 18793v12779M55609 31572h-4775M50834 31572V18809"/><circle cx="53228" cy="23234" r="2434.6"/><path d="M57413 33948h-1047M57413 33948v-2023M57413 31925h-1047M56366 33948v-2023M56366 34972v-524M56889 34972h-523"/></g><g fill-opacity="0" stroke-linecap="round" stroke-linejoin="round" stroke-width="39.37" fill="none" stroke="#000"><path d="M46259 13976v197M60236 13976H46259M60236 35826V13976M46259 35826h13977M46259 14173v21653"/></g><defs><mask id="b"><path fill="#fff" d="M46240 13956h14015v21934H46240z"/><path stroke="#000" stroke-linecap="round" stroke-width="300" d="M54227 32029h0M53346 32037h0M52416 32037h0"/><path stroke="#000" stroke-linecap="round" stroke-width="393" d="M56888 32448h0M56888 33448h0M56888 34448h0"/></mask></defs></g><g transform="matrix(397.4795 0 0 404.9204 4436.094 4584.028)"><path d="M12.334 32.328H7.069v-.984c.695-.594.274-1.732-.64-1.732s-1.334 1.138-.64 1.732v.984H.524a.197.197 0 0 1-.197-.197V.638C.327.53.415.441.524.441H5.79v.985c-.694.594-.274 1.732.64 1.732s1.335-1.138.64-1.732V.44h5.265c.109 0 .197.088.197.197v31.493a.197.197 0 0 1-.197.197z" fill="#000091" fill-rule="evenodd" stroke="#191919" stroke-width=".093"/><path d="M12.433 27.506H.426a.098.098 0 0 1-.098-.098v0V5.363c0-.055.044-.099.098-.099h12.007c.054 0 .098.044.098.099h0v22.045a.098.098 0 0 1-.098.098z" fill="#0000c7" fill-rule="evenodd" stroke="#191919" stroke-width=".093"/><path d="M9.119 16.843h0c5.803-2.85 3.77-11.577-2.69-11.577s-8.493 8.727-2.69 11.577h0" fill="#00f" fill-rule="evenodd" stroke="#191919" stroke-width=".093"/><circle transform="scale(1 -1)" cx="6.429" cy="-11.366" r="2.382" fill="#ececec" stroke="#191919" stroke-width=".093"/><circle transform="scale(1 -1)" cx="6.429" cy="-11.366" r="1.083" fill="#999" stroke="#191919" stroke-width=".093"/><path d="M3.954 16.727a5.905 5.905 0 1 1 4.95 0" fill="none" stroke="#191919" stroke-width=".093"/><path fill="#00f" stroke="#000" stroke-width=".093" d="M1.031 20.874h10.825v5.625H1.031z"/><path d="M9.119 16.587a2.723 2.723 0 0 1-1.107 2.848 2.723 2.723 0 0 1-3.056.027A2.723 2.723 0 0 1 3.8 16.633" fill="#00f" stroke="#000" stroke-width=".107"/></g><g stroke-width=".093"><path d="M2.565 7.645V.025H.025v7.62z" fill="#1a1a1a" fill-rule="evenodd" stroke="#000" transform="matrix(-397.4795 0 0 -404.9204 11160.03 21194.303)"/><g stroke="#000"><path d="M1.895 24.755v-1.2h-1.2v1.2z" fill="#666" fill-rule="evenodd" transform="matrix(-397.4795 0 0 -404.9204 11160.03 30450.784)"/><path d="M.695 23.555l.3.299M.695 24.755l.3-.299M.994 23.854v.602M1.895 23.555l-.299.299M1.596 23.854H.994M1.895 24.755l-.299-.299M1.596 24.456v-.602M.994 24.456h.602" fill="none" transform="matrix(-397.4795 0 0 -404.9204 11160.03 30450.784)"/><path d="M1.595 24.455v-.6h-.6v.6z" fill="olive" fill-rule="evenodd" transform="matrix(-397.4795 0 0 -404.9204 11160.03 30450.784)"/><path d="M1.195 23.905v-.05M1.195 24.405v-.5M1.195 24.455v-.05M1.395 24.455v-.05M1.195 24.405h.2M1.395 24.405v-.5M1.395 23.905v-.05M1.195 23.905h.2" fill="none" transform="matrix(-397.4795 0 0 -404.9204 11160.03 30450.784)"/></g><g stroke="#000"><path d="M1.895 24.755v-1.2h-1.2v1.2z" fill="#666" fill-rule="evenodd" transform="matrix(-397.4795 0 0 -404.9204 11160.03 29422.287)"/><path d="M.695 23.555l.3.299M.695 24.755l.3-.299M.994 23.854v.602M1.895 23.555l-.299.299M1.596 23.854H.994M1.895 24.755l-.299-.299M1.596 24.456v-.602M.994 24.456h.602" fill="none" transform="matrix(-397.4795 0 0 -404.9204 11160.03 29422.287)"/><path d="M1.595 24.455v-.6h-.6v.6z" fill="olive" fill-rule="evenodd" transform="matrix(-397.4795 0 0 -404.9204 11160.03 29422.287)"/><path d="M1.195 23.905v-.05M1.195 24.405v-.5M1.195 24.455v-.05M1.395 24.455v-.05M1.195 24.405h.2M1.395 24.405v-.5M1.395 23.905v-.05M1.195 23.905h.2" fill="none" transform="matrix(-397.4795 0 0 -404.9204 11160.03 29422.287)"/></g><g stroke="#000"><path d="M1.895 24.755v-1.2h-1.2v1.2z" fill="#666" fill-rule="evenodd" transform="matrix(-397.4795 0 0 -404.9204 11160.03 28393.789)"/><path d="M.695 23.555l.3.299M.695 24.755l.3-.299M.994 23.854v.602M1.895 23.555l-.299.299M1.596 23.854H.994M1.895 24.755l-.299-.299M1.596 24.456v-.602M.994 24.456h.602" fill="none" transform="matrix(-397.4795 0 0 -404.9204 11160.03 28393.789)"/><path d="M1.595 24.455v-.6h-.6v.6z" fill="olive" fill-rule="evenodd" transform="matrix(-397.4795 0 0 -404.9204 11160.03 28393.789)"/><path d="M1.195 23.905v-.05M1.195 24.405v-.5M1.195 24.455v-.05M1.395 24.455v-.05M1.195 24.405h.2M1.395 24.405v-.5M1.395 23.905v-.05M1.195 23.905h.2" fill="none" transform="matrix(-397.4795 0 0 -404.9204 11160.03 28393.789)"/></g></g></svg>