<svg width="195" height="160" viewBox="0 0 13543 11181" xmlns="http://www.w3.org/2000/svg"><g clip-path="url(#a)" mask="url(#b)" transform="matrix(1.0038 0 0 1.0012 -39265 -22843)"><defs><clipPath id="a"><path d="M52637 33976H39133V22834h13504v11142" fill-rule="evenodd"/></clipPath></defs><g fill="#313d63" stroke="#313d63"><path d="M52637 33976H39133V22834h13504v11142" fill-rule="evenodd"/><g fill-opacity="0" stroke-linecap="round" stroke-linejoin="round" stroke-width="39.37" fill="none" stroke="#000"><path d="M52637 22834v11142M39133 22834h13504M39133 33976V22834M52637 33976H39133"/></g></g><g stroke-linecap="round" stroke-linejoin="round" stroke-width="0" stroke="none" fill="#9c6b28"><path d="M40386 29449a334.65 334.65 0 0 1-334.65 334.65 334.65 334.65 0 0 1-334.65-334.65 334.65 334.65 0 0 1 334.65-334.65A334.65 334.65 0 0 1 40386 29449zM40386 28449a334.65 334.65 0 0 1-334.65 334.65 334.65 334.65 0 0 1-334.65-334.65 334.65 334.65 0 0 1 334.65-334.65A334.65 334.65 0 0 1 40386 28449zM40386 27449a334.65 334.65 0 0 1-334.65 334.65 334.65 334.65 0 0 1-334.65-334.65 334.65 334.65 0 0 1 334.65-334.65A334.65 334.65 0 0 1 40386 27449z"/><path d="M39716 26784v-669.3h669.3v669.3z" fill-rule="evenodd"/><g fill-rule="evenodd"><path d="M42697 25050l9.5 1.4 9.4 2.4 9.1 3.2 8.7 4.1 8.3 5 7.7 5.8 7.2 6.4 6.5 7.2 5.7 7.8 5 8.2 4.1 8.8 3.3 9.1 2.3 9.3 1.5 9.6.4 9.6v492.2l-.4 9.6-1.5 9.6-2.3 9.3-3.3 9.1-4.1 8.8-5 8.2-5.7 7.8-6.5 7.2-7.2 6.4-7.7 5.8-8.3 5-8.7 4.1-9.1 3.3-9.4 2.3-9.5 1.4-9.7.5H42392l-9.6-.5-9.6-1.4-9.3-2.3-9.1-3.3-8.8-4.1-8.2-5-7.8-5.8-7.2-6.4-6.5-7.2-5.7-7.8-5-8.2-4.1-8.8-3.3-9.1-2.3-9.3-1.4-9.6-.5-9.6v-492.2l.5-9.6 1.4-9.6 2.3-9.3 3.3-9.1 4.1-8.8 5-8.2 5.7-7.8 6.5-7.2 7.2-6.4 7.8-5.8 8.2-5 8.8-4.1 9.1-3.2 9.3-2.4 9.6-1.4 9.6-.5h295.3zM41594 25050l9.5 1.4 9.4 2.4 9.1 3.2 8.7 4.1 8.3 5 7.8 5.8 7.1 6.4 6.5 7.2 5.8 7.8 4.9 8.2 4.2 8.8 3.2 9.1 2.4 9.3 1.4 9.6.5 9.6v492.2l-.5 9.6-1.4 9.6-2.4 9.3-3.2 9.1-4.2 8.8-4.9 8.2-5.8 7.8-6.5 7.2-7.1 6.4-7.8 5.8-8.3 5-8.7 4.1-9.1 3.3-9.4 2.3-9.5 1.4-9.7.5h-295.2l-9.7-.5-9.5-1.4-9.4-2.3-9.1-3.3-8.7-4.1-8.3-5-7.8-5.8-7.1-6.4-6.5-7.2-5.8-7.8-4.9-8.2-4.2-8.8-3.2-9.1-2.4-9.3-1.4-9.6-.5-9.6v-492.2l.5-9.6 1.4-9.6 2.4-9.3 3.2-9.1 4.2-8.8 4.9-8.2 5.8-7.8 6.5-7.2 7.1-6.4 7.8-5.8 8.3-5 8.7-4.1 9.1-3.2 9.4-2.4 9.5-1.4 9.7-.5h295.2zM42677 23829l9.5 1.4 9.4 2.4 9.1 3.2 8.7 4.2 8.3 4.9 7.8 5.8 7.1 6.5 6.5 7.1 5.8 7.8 4.9 8.3 4.2 8.7 3.2 9.1 2.4 9.4 1.4 9.5.4 9.7v492.1l-.4 9.6-1.4 9.6-2.4 9.4-3.2 9.1-4.2 8.7-4.9 8.3-5.8 7.7-6.5 7.2-7.1 6.5-7.8 5.7-8.3 5-8.7 4.1-9.1 3.3-9.4 2.3-9.5 1.4-9.7.5H42372l-9.6-.5-9.6-1.4-9.3-2.3-9.1-3.3-8.7-4.1-8.3-5-7.8-5.7-7.2-6.5-6.4-7.2-5.8-7.7-5-8.3-4.1-8.7-3.2-9.1-2.4-9.4-1.4-9.6-.5-9.6V23927l.5-9.7 1.4-9.5 2.4-9.4 3.2-9.1 4.1-8.7 5-8.3 5.8-7.8 6.4-7.1 7.2-6.5 7.8-5.8 8.3-4.9 8.7-4.2 9.1-3.2 9.3-2.4 9.6-1.4 9.6-.5h295.3zM41575 23829l9.6 1.4 9.3 2.4 9.1 3.2 8.8 4.2 8.2 4.9 7.8 5.8 7.2 6.5 6.4 7.1 5.8 7.8 5 8.3 4.1 8.7 3.2 9.1 2.4 9.4 1.4 9.5.5 9.7v492.1l-.5 9.6-1.4 9.6-2.4 9.4-3.2 9.1-4.1 8.7-5 8.3-5.8 7.7-6.4 7.2-7.2 6.5-7.8 5.7-8.2 5-8.8 4.1-9.1 3.3-9.3 2.3-9.6 1.4-9.6.5h-295.3l-9.7-.5-9.5-1.4-9.4-2.3-9.1-3.3-8.7-4.1-8.3-5-7.8-5.7-7.1-6.5-6.5-7.2-5.8-7.7-4.9-8.3-4.1-8.7-3.3-9.1-2.3-9.4-1.5-9.6-.4-9.6V23927l.4-9.7 1.5-9.5 2.3-9.4 3.3-9.1 4.1-8.7 4.9-8.3 5.8-7.8 6.5-7.1 7.1-6.5 7.8-5.8 8.3-4.9 8.7-4.2 9.1-3.2 9.4-2.4 9.5-1.4 9.7-.5h295.3z"/></g></g><g fill="#212d53" stroke="none" stroke-linecap="round" stroke-linejoin="round" stroke-width="0"><path d="M40386 29449a334.65 334.65 0 0 1-334.65 334.65 334.65 334.65 0 0 1-334.65-334.65 334.65 334.65 0 0 1 334.65-334.65A334.65 334.65 0 0 1 40386 29449zM40386 28449a334.65 334.65 0 0 1-334.65 334.65 334.65 334.65 0 0 1-334.65-334.65 334.65 334.65 0 0 1 334.65-334.65A334.65 334.65 0 0 1 40386 28449zM40386 27449a334.65 334.65 0 0 1-334.65 334.65 334.65 334.65 0 0 1-334.65-334.65 334.65 334.65 0 0 1 334.65-334.65A334.65 334.65 0 0 1 40386 27449z"/><path d="M39716 26784v-669.3h669.3v669.3z" fill-rule="evenodd"/><g fill-rule="evenodd"><path d="M42697 25050l9.5 1.4 9.4 2.4 9.1 3.2 8.7 4.1 8.3 5 7.7 5.8 7.2 6.4 6.5 7.2 5.7 7.8 5 8.2 4.1 8.8 3.3 9.1 2.3 9.3 1.5 9.6.4 9.6v492.2l-.4 9.6-1.5 9.6-2.3 9.3-3.3 9.1-4.1 8.8-5 8.2-5.7 7.8-6.5 7.2-7.2 6.4-7.7 5.8-8.3 5-8.7 4.1-9.1 3.3-9.4 2.3-9.5 1.4-9.7.5H42392l-9.6-.5-9.6-1.4-9.3-2.3-9.1-3.3-8.8-4.1-8.2-5-7.8-5.8-7.2-6.4-6.5-7.2-5.7-7.8-5-8.2-4.1-8.8-3.3-9.1-2.3-9.3-1.4-9.6-.5-9.6v-492.2l.5-9.6 1.4-9.6 2.3-9.3 3.3-9.1 4.1-8.8 5-8.2 5.7-7.8 6.5-7.2 7.2-6.4 7.8-5.8 8.2-5 8.8-4.1 9.1-3.2 9.3-2.4 9.6-1.4 9.6-.5h295.3zM41594 25050l9.5 1.4 9.4 2.4 9.1 3.2 8.7 4.1 8.3 5 7.8 5.8 7.1 6.4 6.5 7.2 5.8 7.8 4.9 8.2 4.2 8.8 3.2 9.1 2.4 9.3 1.4 9.6.5 9.6v492.2l-.5 9.6-1.4 9.6-2.4 9.3-3.2 9.1-4.2 8.8-4.9 8.2-5.8 7.8-6.5 7.2-7.1 6.4-7.8 5.8-8.3 5-8.7 4.1-9.1 3.3-9.4 2.3-9.5 1.4-9.7.5h-295.2l-9.7-.5-9.5-1.4-9.4-2.3-9.1-3.3-8.7-4.1-8.3-5-7.8-5.8-7.1-6.4-6.5-7.2-5.8-7.8-4.9-8.2-4.2-8.8-3.2-9.1-2.4-9.3-1.4-9.6-.5-9.6v-492.2l.5-9.6 1.4-9.6 2.4-9.3 3.2-9.1 4.2-8.8 4.9-8.2 5.8-7.8 6.5-7.2 7.1-6.4 7.8-5.8 8.3-5 8.7-4.1 9.1-3.2 9.4-2.4 9.5-1.4 9.7-.5h295.2zM42677 23829l9.5 1.4 9.4 2.4 9.1 3.2 8.7 4.2 8.3 4.9 7.8 5.8 7.1 6.5 6.5 7.1 5.8 7.8 4.9 8.3 4.2 8.7 3.2 9.1 2.4 9.4 1.4 9.5.4 9.7v492.1l-.4 9.6-1.4 9.6-2.4 9.4-3.2 9.1-4.2 8.7-4.9 8.3-5.8 7.7-6.5 7.2-7.1 6.5-7.8 5.7-8.3 5-8.7 4.1-9.1 3.3-9.4 2.3-9.5 1.4-9.7.5H42372l-9.6-.5-9.6-1.4-9.3-2.3-9.1-3.3-8.7-4.1-8.3-5-7.8-5.7-7.2-6.5-6.4-7.2-5.8-7.7-5-8.3-4.1-8.7-3.2-9.1-2.4-9.4-1.4-9.6-.5-9.6V23927l.5-9.7 1.4-9.5 2.4-9.4 3.2-9.1 4.1-8.7 5-8.3 5.8-7.8 6.4-7.1 7.2-6.5 7.8-5.8 8.3-4.9 8.7-4.2 9.1-3.2 9.3-2.4 9.6-1.4 9.6-.5h295.3zM41575 23829l9.6 1.4 9.3 2.4 9.1 3.2 8.8 4.2 8.2 4.9 7.8 5.8 7.2 6.5 6.4 7.1 5.8 7.8 5 8.3 4.1 8.7 3.2 9.1 2.4 9.4 1.4 9.5.5 9.7v492.1l-.5 9.6-1.4 9.6-2.4 9.4-3.2 9.1-4.1 8.7-5 8.3-5.8 7.7-6.4 7.2-7.2 6.5-7.8 5.7-8.2 5-8.8 4.1-9.1 3.3-9.3 2.3-9.6 1.4-9.6.5h-295.3l-9.7-.5-9.5-1.4-9.4-2.3-9.1-3.3-8.7-4.1-8.3-5-7.8-5.7-7.1-6.5-6.5-7.2-5.8-7.7-4.9-8.3-4.1-8.7-3.3-9.1-2.3-9.4-1.5-9.6-.4-9.6V23927l.4-9.7 1.5-9.5 2.3-9.4 3.3-9.1 4.1-8.7 4.9-8.3 5.8-7.8 6.5-7.1 7.1-6.5 7.8-5.8 8.3-4.9 8.7-4.2 9.1-3.2 9.4-2.4 9.5-1.4 9.7-.5h295.3z"/></g><path d="M40120 29449a68.898 68.898 0 0 1-68.898 68.897 68.898 68.898 0 0 1-68.897-68.897 68.898 68.898 0 0 1 68.897-68.898A68.898 68.898 0 0 1 40120 29449zM40120 28449a68.898 68.898 0 0 1-68.898 68.897 68.898 68.898 0 0 1-68.897-68.897 68.898 68.898 0 0 1 68.897-68.898A68.898 68.898 0 0 1 40120 28449zM40120 27449a68.898 68.898 0 0 1-68.898 68.897 68.898 68.898 0 0 1-68.897-68.897 68.898 68.898 0 0 1 68.897-68.898A68.898 68.898 0 0 1 40120 27449zM40120 26449a68.898 68.898 0 0 1-68.898 68.897 68.898 68.898 0 0 1-68.897-68.897 68.898 68.898 0 0 1 68.897-68.898A68.898 68.898 0 0 1 40120 26449z"/></g><g fill="#b5ae30" mask="url(#c)" stroke="none" stroke-linecap="round" stroke-linejoin="round" stroke-width="0"><path d="M40386 29449a334.65 334.65 0 0 1-334.65 334.65 334.65 334.65 0 0 1-334.65-334.65 334.65 334.65 0 0 1 334.65-334.65A334.65 334.65 0 0 1 40386 29449zM40386 28449a334.65 334.65 0 0 1-334.65 334.65 334.65 334.65 0 0 1-334.65-334.65 334.65 334.65 0 0 1 334.65-334.65A334.65 334.65 0 0 1 40386 28449zM40386 27449a334.65 334.65 0 0 1-334.65 334.65 334.65 334.65 0 0 1-334.65-334.65 334.65 334.65 0 0 1 334.65-334.65A334.65 334.65 0 0 1 40386 27449z"/><path d="M39716 26784v-669.3h669.3v669.3z" fill-rule="evenodd"/><g fill-rule="evenodd"><path d="M42697 25050l9.5 1.4 9.4 2.4 9.1 3.2 8.7 4.1 8.3 5 7.7 5.8 7.2 6.4 6.5 7.2 5.7 7.8 5 8.2 4.1 8.8 3.3 9.1 2.3 9.3 1.5 9.6.4 9.6v492.2l-.4 9.6-1.5 9.6-2.3 9.3-3.3 9.1-4.1 8.8-5 8.2-5.7 7.8-6.5 7.2-7.2 6.4-7.7 5.8-8.3 5-8.7 4.1-9.1 3.3-9.4 2.3-9.5 1.4-9.7.5H42392l-9.6-.5-9.6-1.4-9.3-2.3-9.1-3.3-8.8-4.1-8.2-5-7.8-5.8-7.2-6.4-6.5-7.2-5.7-7.8-5-8.2-4.1-8.8-3.3-9.1-2.3-9.3-1.4-9.6-.5-9.6v-492.2l.5-9.6 1.4-9.6 2.3-9.3 3.3-9.1 4.1-8.8 5-8.2 5.7-7.8 6.5-7.2 7.2-6.4 7.8-5.8 8.2-5 8.8-4.1 9.1-3.2 9.3-2.4 9.6-1.4 9.6-.5h295.3zM41594 25050l9.5 1.4 9.4 2.4 9.1 3.2 8.7 4.1 8.3 5 7.8 5.8 7.1 6.4 6.5 7.2 5.8 7.8 4.9 8.2 4.2 8.8 3.2 9.1 2.4 9.3 1.4 9.6.5 9.6v492.2l-.5 9.6-1.4 9.6-2.4 9.3-3.2 9.1-4.2 8.8-4.9 8.2-5.8 7.8-6.5 7.2-7.1 6.4-7.8 5.8-8.3 5-8.7 4.1-9.1 3.3-9.4 2.3-9.5 1.4-9.7.5h-295.2l-9.7-.5-9.5-1.4-9.4-2.3-9.1-3.3-8.7-4.1-8.3-5-7.8-5.8-7.1-6.4-6.5-7.2-5.8-7.8-4.9-8.2-4.2-8.8-3.2-9.1-2.4-9.3-1.4-9.6-.5-9.6v-492.2l.5-9.6 1.4-9.6 2.4-9.3 3.2-9.1 4.2-8.8 4.9-8.2 5.8-7.8 6.5-7.2 7.1-6.4 7.8-5.8 8.3-5 8.7-4.1 9.1-3.2 9.4-2.4 9.5-1.4 9.7-.5h295.2zM42677 23829l9.5 1.4 9.4 2.4 9.1 3.2 8.7 4.2 8.3 4.9 7.8 5.8 7.1 6.5 6.5 7.1 5.8 7.8 4.9 8.3 4.2 8.7 3.2 9.1 2.4 9.4 1.4 9.5.4 9.7v492.1l-.4 9.6-1.4 9.6-2.4 9.4-3.2 9.1-4.2 8.7-4.9 8.3-5.8 7.7-6.5 7.2-7.1 6.5-7.8 5.7-8.3 5-8.7 4.1-9.1 3.3-9.4 2.3-9.5 1.4-9.7.5H42372l-9.6-.5-9.6-1.4-9.3-2.3-9.1-3.3-8.7-4.1-8.3-5-7.8-5.7-7.2-6.5-6.4-7.2-5.8-7.7-5-8.3-4.1-8.7-3.2-9.1-2.4-9.4-1.4-9.6-.5-9.6V23927l.5-9.7 1.4-9.5 2.4-9.4 3.2-9.1 4.1-8.7 5-8.3 5.8-7.8 6.4-7.1 7.2-6.5 7.8-5.8 8.3-4.9 8.7-4.2 9.1-3.2 9.3-2.4 9.6-1.4 9.6-.5h295.3zM41575 23829l9.6 1.4 9.3 2.4 9.1 3.2 8.8 4.2 8.2 4.9 7.8 5.8 7.2 6.5 6.4 7.1 5.8 7.8 5 8.3 4.1 8.7 3.2 9.1 2.4 9.4 1.4 9.5.5 9.7v492.1l-.5 9.6-1.4 9.6-2.4 9.4-3.2 9.1-4.1 8.7-5 8.3-5.8 7.7-6.4 7.2-7.2 6.5-7.8 5.7-8.2 5-8.8 4.1-9.1 3.3-9.3 2.3-9.6 1.4-9.6.5h-295.3l-9.7-.5-9.5-1.4-9.4-2.3-9.1-3.3-8.7-4.1-8.3-5-7.8-5.7-7.1-6.5-6.5-7.2-5.8-7.7-4.9-8.3-4.1-8.7-3.3-9.1-2.3-9.4-1.5-9.6-.4-9.6V23927l.4-9.7 1.5-9.5 2.3-9.4 3.3-9.1 4.1-8.7 4.9-8.3 5.8-7.8 6.5-7.1 7.1-6.5 7.8-5.8 8.3-4.9 8.7-4.2 9.1-3.2 9.4-2.4 9.5-1.4 9.7-.5h295.3z"/></g><path d="M40120 29449a68.898 68.898 0 0 1-68.898 68.897 68.898 68.898 0 0 1-68.897-68.897 68.898 68.898 0 0 1 68.897-68.898A68.898 68.898 0 0 1 40120 29449zM40120 28449a68.898 68.898 0 0 1-68.898 68.897 68.898 68.898 0 0 1-68.897-68.897 68.898 68.898 0 0 1 68.897-68.898A68.898 68.898 0 0 1 40120 28449zM40120 27449a68.898 68.898 0 0 1-68.898 68.897 68.898 68.898 0 0 1-68.897-68.897 68.898 68.898 0 0 1 68.897-68.898A68.898 68.898 0 0 1 40120 27449zM40120 26449a68.898 68.898 0 0 1-68.898 68.897 68.898 68.898 0 0 1-68.897-68.897 68.898 68.898 0 0 1 68.897-68.898A68.898 68.898 0 0 1 40120 26449z"/></g><defs><mask id="c"><g fill-opacity="1" stroke="#fff" stroke-linecap="round" stroke-linejoin="round" stroke-width="0" fill="#fff"><circle cx="40051" cy="29449" r="334.65"/><circle cx="40051" cy="28449" r="334.65"/><circle cx="40051" cy="27449" r="334.65"/><path d="M39716 26784v-669.3h669.3v669.3zM42697 25050l9.5 1.4 9.4 2.4 9.1 3.2 8.7 4.1 8.3 5 7.7 5.8 7.2 6.4 6.5 7.2 5.7 7.8 5 8.2 4.1 8.8 3.3 9.1 2.3 9.3 1.5 9.6.4 9.6v492.2l-.4 9.6-1.5 9.6-2.3 9.3-3.3 9.1-4.1 8.8-5 8.2-5.7 7.8-6.5 7.2-7.2 6.4-7.7 5.8-8.3 5-8.7 4.1-9.1 3.3-9.4 2.3-9.5 1.4-9.7.5H42392l-9.6-.5-9.6-1.4-9.3-2.3-9.1-3.3-8.8-4.1-8.2-5-7.8-5.8-7.2-6.4-6.5-7.2-5.7-7.8-5-8.2-4.1-8.8-3.3-9.1-2.3-9.3-1.4-9.6-.5-9.6v-492.2l.5-9.6 1.4-9.6 2.3-9.3 3.3-9.1 4.1-8.8 5-8.2 5.7-7.8 6.5-7.2 7.2-6.4 7.8-5.8 8.2-5 8.8-4.1 9.1-3.2 9.3-2.4 9.6-1.4 9.6-.5h295.3zM41594 25050l9.5 1.4 9.4 2.4 9.1 3.2 8.7 4.1 8.3 5 7.8 5.8 7.1 6.4 6.5 7.2 5.8 7.8 4.9 8.2 4.2 8.8 3.2 9.1 2.4 9.3 1.4 9.6.5 9.6v492.2l-.5 9.6-1.4 9.6-2.4 9.3-3.2 9.1-4.2 8.8-4.9 8.2-5.8 7.8-6.5 7.2-7.1 6.4-7.8 5.8-8.3 5-8.7 4.1-9.1 3.3-9.4 2.3-9.5 1.4-9.7.5h-295.2l-9.7-.5-9.5-1.4-9.4-2.3-9.1-3.3-8.7-4.1-8.3-5-7.8-5.8-7.1-6.4-6.5-7.2-5.8-7.8-4.9-8.2-4.2-8.8-3.2-9.1-2.4-9.3-1.4-9.6-.5-9.6v-492.2l.5-9.6 1.4-9.6 2.4-9.3 3.2-9.1 4.2-8.8 4.9-8.2 5.8-7.8 6.5-7.2 7.1-6.4 7.8-5.8 8.3-5 8.7-4.1 9.1-3.2 9.4-2.4 9.5-1.4 9.7-.5h295.2zM42677 23829l9.5 1.4 9.4 2.4 9.1 3.2 8.7 4.2 8.3 4.9 7.8 5.8 7.1 6.5 6.5 7.1 5.8 7.8 4.9 8.3 4.2 8.7 3.2 9.1 2.4 9.4 1.4 9.5.4 9.7v492.1l-.4 9.6-1.4 9.6-2.4 9.4-3.2 9.1-4.2 8.7-4.9 8.3-5.8 7.7-6.5 7.2-7.1 6.5-7.8 5.7-8.3 5-8.7 4.1-9.1 3.3-9.4 2.3-9.5 1.4-9.7.5H42372l-9.6-.5-9.6-1.4-9.3-2.3-9.1-3.3-8.7-4.1-8.3-5-7.8-5.7-7.2-6.5-6.4-7.2-5.8-7.7-5-8.3-4.1-8.7-3.2-9.1-2.4-9.4-1.4-9.6-.5-9.6V23927l.5-9.7 1.4-9.5 2.4-9.4 3.2-9.1 4.1-8.7 5-8.3 5.8-7.8 6.4-7.1 7.2-6.5 7.8-5.8 8.3-4.9 8.7-4.2 9.1-3.2 9.3-2.4 9.6-1.4 9.6-.5h295.3zM41575 23829l9.6 1.4 9.3 2.4 9.1 3.2 8.8 4.2 8.2 4.9 7.8 5.8 7.2 6.5 6.4 7.1 5.8 7.8 5 8.3 4.1 8.7 3.2 9.1 2.4 9.4 1.4 9.5.5 9.7v492.1l-.5 9.6-1.4 9.6-2.4 9.4-3.2 9.1-4.1 8.7-5 8.3-5.8 7.7-6.4 7.2-7.2 6.5-7.8 5.7-8.2 5-8.8 4.1-9.1 3.3-9.3 2.3-9.6 1.4-9.6.5h-295.3l-9.7-.5-9.5-1.4-9.4-2.3-9.1-3.3-8.7-4.1-8.3-5-7.8-5.7-7.1-6.5-6.5-7.2-5.8-7.7-4.9-8.3-4.1-8.7-3.3-9.1-2.3-9.4-1.5-9.6-.4-9.6V23927l.4-9.7 1.5-9.5 2.3-9.4 3.3-9.1 4.1-8.7 4.9-8.3 5.8-7.8 6.5-7.1 7.1-6.5 7.8-5.8 8.3-4.9 8.7-4.2 9.1-3.2 9.4-2.4 9.5-1.4 9.7-.5h295.3z" fill-rule="evenodd"/></g></mask></defs><defs><mask id="d"><g fill-opacity="1" stroke="#000" stroke-linecap="round" stroke-linejoin="round" stroke-width="0"><circle cx="40051" cy="29449" r="334.65"/><circle cx="40051" cy="28449" r="334.65"/><circle cx="40051" cy="27449" r="334.65"/><path d="M39716 26784v-669.3h669.3v669.3zM42697 25050l9.5 1.4 9.4 2.4 9.1 3.2 8.7 4.1 8.3 5 7.7 5.8 7.2 6.4 6.5 7.2 5.7 7.8 5 8.2 4.1 8.8 3.3 9.1 2.3 9.3 1.5 9.6.4 9.6v492.2l-.4 9.6-1.5 9.6-2.3 9.3-3.3 9.1-4.1 8.8-5 8.2-5.7 7.8-6.5 7.2-7.2 6.4-7.7 5.8-8.3 5-8.7 4.1-9.1 3.3-9.4 2.3-9.5 1.4-9.7.5H42392l-9.6-.5-9.6-1.4-9.3-2.3-9.1-3.3-8.8-4.1-8.2-5-7.8-5.8-7.2-6.4-6.5-7.2-5.7-7.8-5-8.2-4.1-8.8-3.3-9.1-2.3-9.3-1.4-9.6-.5-9.6v-492.2l.5-9.6 1.4-9.6 2.3-9.3 3.3-9.1 4.1-8.8 5-8.2 5.7-7.8 6.5-7.2 7.2-6.4 7.8-5.8 8.2-5 8.8-4.1 9.1-3.2 9.3-2.4 9.6-1.4 9.6-.5h295.3zM41594 25050l9.5 1.4 9.4 2.4 9.1 3.2 8.7 4.1 8.3 5 7.8 5.8 7.1 6.4 6.5 7.2 5.8 7.8 4.9 8.2 4.2 8.8 3.2 9.1 2.4 9.3 1.4 9.6.5 9.6v492.2l-.5 9.6-1.4 9.6-2.4 9.3-3.2 9.1-4.2 8.8-4.9 8.2-5.8 7.8-6.5 7.2-7.1 6.4-7.8 5.8-8.3 5-8.7 4.1-9.1 3.3-9.4 2.3-9.5 1.4-9.7.5h-295.2l-9.7-.5-9.5-1.4-9.4-2.3-9.1-3.3-8.7-4.1-8.3-5-7.8-5.8-7.1-6.4-6.5-7.2-5.8-7.8-4.9-8.2-4.2-8.8-3.2-9.1-2.4-9.3-1.4-9.6-.5-9.6v-492.2l.5-9.6 1.4-9.6 2.4-9.3 3.2-9.1 4.2-8.8 4.9-8.2 5.8-7.8 6.5-7.2 7.1-6.4 7.8-5.8 8.3-5 8.7-4.1 9.1-3.2 9.4-2.4 9.5-1.4 9.7-.5h295.2zM42677 23829l9.5 1.4 9.4 2.4 9.1 3.2 8.7 4.2 8.3 4.9 7.8 5.8 7.1 6.5 6.5 7.1 5.8 7.8 4.9 8.3 4.2 8.7 3.2 9.1 2.4 9.4 1.4 9.5.4 9.7v492.1l-.4 9.6-1.4 9.6-2.4 9.4-3.2 9.1-4.2 8.7-4.9 8.3-5.8 7.7-6.5 7.2-7.1 6.5-7.8 5.7-8.3 5-8.7 4.1-9.1 3.3-9.4 2.3-9.5 1.4-9.7.5H42372l-9.6-.5-9.6-1.4-9.3-2.3-9.1-3.3-8.7-4.1-8.3-5-7.8-5.7-7.2-6.5-6.4-7.2-5.8-7.7-5-8.3-4.1-8.7-3.2-9.1-2.4-9.4-1.4-9.6-.5-9.6V23927l.5-9.7 1.4-9.5 2.4-9.4 3.2-9.1 4.1-8.7 5-8.3 5.8-7.8 6.4-7.1 7.2-6.5 7.8-5.8 8.3-4.9 8.7-4.2 9.1-3.2 9.3-2.4 9.6-1.4 9.6-.5h295.3zM41575 23829l9.6 1.4 9.3 2.4 9.1 3.2 8.8 4.2 8.2 4.9 7.8 5.8 7.2 6.5 6.4 7.1 5.8 7.8 5 8.3 4.1 8.7 3.2 9.1 2.4 9.4 1.4 9.5.5 9.7v492.1l-.5 9.6-1.4 9.6-2.4 9.4-3.2 9.1-4.1 8.7-5 8.3-5.8 7.7-6.4 7.2-7.2 6.5-7.8 5.7-8.2 5-8.8 4.1-9.1 3.3-9.3 2.3-9.6 1.4-9.6.5h-295.3l-9.7-.5-9.5-1.4-9.4-2.3-9.1-3.3-8.7-4.1-8.3-5-7.8-5.7-7.1-6.5-6.5-7.2-5.8-7.7-4.9-8.3-4.1-8.7-3.3-9.1-2.3-9.4-1.5-9.6-.4-9.6V23927l.4-9.7 1.5-9.5 2.3-9.4 3.3-9.1 4.1-8.7 4.9-8.3 5.8-7.8 6.5-7.1 7.1-6.5 7.8-5.8 8.3-4.9 8.7-4.2 9.1-3.2 9.4-2.4 9.5-1.4 9.7-.5h295.3z" fill-rule="evenodd"/></g><path fill="#fff" d="M39114 22814h13543v11181H39114z"/></mask></defs><g fill="#f0f0f0" fill-opacity="0" mask="url(#d)" stroke="#f0f0f0" stroke-linecap="round" stroke-linejoin="round"><g stroke-width="295.28" fill="none"><path d="M46800 31833l394 1181 393-1181M47812 31833h675M48150 33014v-1181M49331 32958l-113 56h-225l-112-56-56-113v-450l56-112 112-56h225l113 56 56 112v113l-562 112M49893 33014v-787M49893 32452l57-113 56-56 112-56h113M50625 33014v-787M50625 32339l56-56 112-56h169l112 56 57 112v619M51131 32395l56-112 112-56h169l113 56 56 112v619"/></g><g stroke-width="147.64"><path d="M43467 25680l-197-281M43130 25680v-591h225l56 29 28 28 28 56v84l-28 57-28 28-56 28h-225M43664 25089l394 591M44058 25089l-394 591M43085 23869h337M43254 24460v-591M43563 23869l394 591M43957 23869l-394 591M41376 33708l-28-28-28-56v-141l28-56 28-28 56-28h57l84 28 337 337v-365M41685 33118v-450M41910 32049l-281 197M41910 32387h-590v-225l28-57 28-28 56-28h85l56 28 28 28 28 57v225M41320 31852l590-393M41320 31459l590 393M43387 33736v-365l225 197v-85l28-56 28-28 56-28h141l56 28 28 28 28 56v169l-28 56-28 28M43752 33118v-450M43387 32471v-337M43977 32302h-590M43387 31993l590-394M43387 31599l590 394" fill="none"/></g><g stroke-width="47.244" fill="none"><path d="M39527 26948h1047M39527 26948v3024M39527 29972h1047M40574 26948v3024M40574 25925v523M40051 25925h523M42618 24946h-1530M41088 24946v894M41088 25840h1530M42598 23726h-1530M41068 23726v894M41068 24620h1530"/></g></g><g fill-opacity="0" stroke-linecap="round" stroke-linejoin="round" stroke-width="39.37" fill="none" stroke="#000"><path d="M52637 22834v11142M39133 22834h13504M39133 33976V22834M52637 33976H39133"/></g><defs><mask id="b"><path fill="#fff" d="M39114 22814h13543v11181H39114z"/><path stroke="#000" stroke-linecap="round" stroke-width="393" d="M40051 29448h0M40051 28448h0M40051 27448h0M40051 26448h0"/></mask></defs></g><g stroke-width=".093"><g transform="matrix(393.7 0 0 -393.7 935.999 3632.999)"><path d="M-1.27-8.89h2.54V1.27h-2.54z" fill="#1a1a1a" fill-rule="evenodd" stroke="#000"/><path d="M-.6-1.94v-1.2H.6v1.2z" fill="#333" fill-rule="evenodd" stroke="#000"/><path d="M-.6-5.68H.6v1.2H-.6zM-.6-.6H.6V.6H-.6zM.6-7.02H-.6v-1.2H.6z" fill="#4d4d4d" fill-rule="evenodd" stroke="#000"/><path d="M-.6-1.94l.299-.299M-.6-3.14l.299.299M-.301-2.239v-.602M.6-1.94l-.299-.299M.301-2.239h-.602M.6-3.14l-.299.299M.301-2.841v.602M-.301-2.841h.602M.6-4.48l-.299-.299M-.6-4.48l.299-.299M.301-4.779h-.602M.6-5.68l-.299.299M.301-5.381v.602M-.6-5.68l.299.299M-.301-5.381h.602M-.301-4.779v-.602M-.6-.6l.299.299M.6-.6l-.299.299M-.301-.301h.602M-.6.6l.299-.299M-.301.301v-.602M.6.6L.301.301M.301.301h-.602M.301-.301v.602M-.6-8.22l.299.299M.6-8.22l-.299.299M-.301-7.921h.602M-.6-7.02l.299-.299M-.301-7.319v-.602M.6-7.02l-.299-.299M.301-7.319h-.602M.301-7.921v.602" fill="none" stroke="#000"/><path d="M-.3-2.84h.6v.6h-.6zM.3-5.38v.6h-.6v-.6zM.3-.3v.6h-.6v-.6zM.3-7.92v.6h-.6v-.6z" fill="olive" fill-rule="evenodd" stroke="#000"/><path d="M-.1-2.29v.05M-.1-2.79v.5M-.1-2.84v.05M.1-2.84v.05M-.1-2.79h.2M.1-2.79v.5M.1-2.29v.05M-.1-2.29h.2M-.1-4.83v.05M-.1-5.33v.5M-.1-5.38v.05M.1-5.38v.05M-.1-5.33h.2M.1-5.33v.5M.1-4.83v.05M-.1-4.83h.2M-.1.25V.3M-.1-.25v.5M-.1-.3v.05M.1-.3v.05M-.1-.25h.2M.1-.25v.5M.1.25V.3M-.1.25h.2M-.1-7.37v.05M-.1-7.87v.5M-.1-7.92v.05M.1-7.92v.05M-.1-7.87h.2M.1-7.87v.5M.1-7.37v.05M-.1-7.37h.2" fill="none" stroke="#000"/></g></g><g stroke-width=".013"><g transform="matrix(393.7 0 0 -393.7 2872.518 2578.298)"><path d="M-1 .8V.6M-1 .6V-.6M-1-.6v-.2M1-.6v-.2M1 .6V-.6M1 .8V.6" fill="none" stroke="#191919"/><path d="M.9.8h.7V-.8H.9z" fill="gray" fill-rule="evenodd" stroke="#191919"/><path d="M-1.06.6H-1M-1.06-.6H-1" fill="none" stroke="#191919"/><path d="M-.9.8V-.8h-.7V.8h.6z" fill="gray" fill-rule="evenodd" stroke="#191919"/><path d="M1-.6h.06M1 .6h.06M-1.45.6h.39M-1.45.8V.6M-1.06-.6h-.39M-1.45-.6v-.2M1.45.6v.2M1.06.6h.39M1.45-.6h-.39M1.45-.8v.2M-1.06-.6V.6M1.06-.6V.6M-1.54-.8V.8M1.54-.8V.8" fill="none" stroke="#191919"/></g><path d="M3226.848 2263.338h-708.66 0v629.92h708.66z" fill="#ccc" stroke="#000" stroke-width="5.118099999999999"/></g><g stroke-width=".013"><g transform="matrix(393.7 0 0 -393.7 2852.518 1358.298)"><path d="M-1 .8V.6M-1 .6V-.6M-1-.6v-.2M1-.6v-.2M1 .6V-.6M1 .8V.6" fill="none" stroke="#191919"/><path d="M.9.8h.7V-.8H.9z" fill="gray" fill-rule="evenodd" stroke="#191919"/><path d="M-1.06.6H-1M-1.06-.6H-1" fill="none" stroke="#191919"/><path d="M-.9.8V-.8h-.7V.8h.6z" fill="gray" fill-rule="evenodd" stroke="#191919"/><path d="M1-.6h.06M1 .6h.06M-1.45.6h.39M-1.45.8V.6M-1.06-.6h-.39M-1.45-.6v-.2M1.45.6v.2M1.06.6h.39M1.45-.6h-.39M1.45-.8v.2M-1.06-.6V.6M1.06-.6V.6M-1.54-.8V.8M1.54-.8V.8" fill="none" stroke="#191919"/></g><path d="M3206.848 1043.338h-708.66 0v629.92h708.66z" fill="#ccc" stroke="#000" stroke-width="5.118099999999999"/></g><path d="M5767.9 1828.7h7389.7v5640H5767.9z" fill="#ccc" stroke="#000" stroke-width="73.267"/><path d="M6103.7 3059.5h6663.1v3720.9H6103.7z" fill="#fff" stroke="#000" stroke-width="69.881"/><path d="M6067.6 2445.9h5134.2v410.01H6067.6z" fill="#fff" stroke="#000" stroke-width="20.362"/><path d="M5767.2 1828h7395.2v424.87H5767.2z" fill="gray" stroke="#000" stroke-width="69.881"/><path d="M11373 2445.9h1379.4v400.75H11373zM11403 6951.2h1379.4v400.75H11403z" fill="#b3b3b3" stroke="#000" stroke-width="65.916"/><path d="M9605.8 6950.9h1379v393.73h-1379z" fill="#b3b3b3" stroke="#000" stroke-width="65.326"/><path d="M7265.3 6957.8H9322v387.52H7265.3z" fill="#b3b3b3" stroke="#000" stroke-width="79.149"/><path d="M7052.9 6955.8h1895.9v389.88H7052.9z" fill="#fff" stroke="#000" stroke-width="74.195"/><path d="M9500.7 6950.7h1138.4v390.04H9500.7z" fill="#fff" stroke="#000" stroke-width="72.306"/><g style="shape-inside:url(#rect1519);white-space:pre" aria-label="vterm vterm PICSimLab vterm"><path d="M6248.3 3288h65.15l50.773 140.85 50.591-140.85h65.332l-80.254 203.82h-71.519zM6588 3230.1v57.87h67.152v46.588H6588V3421q0 14.195 5.641 19.29 5.642 4.914 22.384 4.914h33.485v46.588h-55.869q-38.58 0-54.777-16.014-16.014-16.196-16.014-54.777v-86.442h-32.393v-46.588h32.393v-57.87zM6898.5 3389.3v18.562h-152.32q2.366 22.93 16.56 34.395t39.672 11.465q20.564 0 42.038-6.005 21.656-6.188 44.404-18.562v50.227q-23.112 8.735-46.224 13.103-23.112 4.55-46.224 4.55-55.323 0-86.078-28.026-30.573-28.207-30.573-78.98 0-49.863 30.027-78.434 30.209-28.57 82.984-28.57 48.043 0 76.797 28.934 28.935 28.935 28.935 77.342zm-66.97-21.656q0-18.562-10.919-29.845-10.737-11.465-28.207-11.465-18.926 0-30.755 10.737-11.829 10.555-14.741 30.573zM7099.2 3343.5q-8.553-4.004-17.106-5.824-8.371-2.001-16.924-2.001-25.114 0-38.762 16.196-13.467 16.014-13.467 46.042v93.903h-65.15v-203.82h65.15v33.485q12.557-20.018 28.753-29.117 16.378-9.281 39.126-9.281 3.276 0 7.097.364 3.822.182 11.101 1.091zM7320.5 3321.8q12.375-18.926 29.299-28.753 17.106-10.009 37.488-10.009 35.123 0 53.503 21.656t18.38 62.966v124.11h-65.514v-106.28q.182-2.366.182-4.913.182-2.548.182-7.28 0-21.656-6.37-31.3-6.369-9.828-20.563-9.828-18.563 0-28.754 15.286-10.008 15.286-10.372 44.222v100.09h-65.515v-106.28q0-33.849-5.823-43.494-5.823-9.827-20.746-9.827-18.744 0-28.935 15.468-10.19 15.286-10.19 43.858v100.27h-65.515v-203.82h65.514v29.845q12.011-17.288 27.48-26.024 15.65-8.735 34.394-8.735 21.11 0 37.306 10.191t24.568 28.571zM6248.3 3753.8h65.15l50.773 140.85 50.591-140.85h65.332l-80.254 203.82h-71.519zM6588 3696v57.87h67.152v46.588H6588v86.442q0 14.195 5.641 19.29 5.642 4.914 22.384 4.914h33.485v46.588h-55.869q-38.58 0-54.777-16.014-16.014-16.196-16.014-54.777v-86.442h-32.393v-46.588h32.393V3696zM6898.5 3855.2v18.562h-152.32q2.366 22.93 16.56 34.395t39.672 11.465q20.564 0 42.038-6.005 21.656-6.188 44.404-18.562v50.227q-23.112 8.735-46.224 13.103-23.112 4.55-46.224 4.55-55.323 0-86.078-28.026-30.573-28.207-30.573-78.98 0-49.863 30.027-78.434 30.209-28.57 82.984-28.57 48.043 0 76.797 28.934 28.935 28.935 28.935 77.342zm-66.97-21.656q0-18.562-10.919-29.845-10.737-11.465-28.207-11.465-18.926 0-30.755 10.737-11.829 10.555-14.741 30.573zM7099.2 3809.3q-8.553-4.004-17.106-5.824-8.371-2.001-16.924-2.001-25.114 0-38.762 16.196-13.467 16.014-13.467 46.042v93.903h-65.15v-203.82h65.15v33.485q12.557-20.018 28.753-29.117 16.378-9.281 39.126-9.281 3.276 0 7.097.364 3.822.182 11.101 1.091zM7320.5 3787.7q12.375-18.926 29.299-28.753 17.106-10.009 37.488-10.009 35.123 0 53.503 21.656t18.38 62.966v124.11h-65.514v-106.28q.182-2.366.182-4.914.182-2.547.182-7.279 0-21.656-6.37-31.3-6.369-9.828-20.563-9.828-18.563 0-28.754 15.286-10.008 15.286-10.372 44.222v100.09h-65.515v-106.28q0-33.849-5.823-43.494-5.823-9.827-20.746-9.827-18.744 0-28.935 15.468-10.19 15.286-10.19 43.858v100.27h-65.515v-203.82h65.514v29.845q12.011-17.288 27.48-26.024 15.65-8.735 34.394-8.735 21.11 0 37.306 10.191t24.568 28.571zM6276.8 4151.8h116.29q51.865 0 79.526 23.112 27.843 22.93 27.843 65.514 0 42.766-27.843 65.878-27.661 22.93-79.526 22.93h-46.224v94.267h-70.063zm70.063 50.773v75.887h38.762q20.382 0 31.483-9.827 11.101-10.01 11.101-28.207 0-18.198-11.101-28.025-11.101-9.827-31.483-9.827zM6550 4151.8h70.063v271.7H6550zM6904.1 4408.6q-19.29 10.009-40.218 15.104t-43.676 5.096q-67.879 0-107.55-37.852-39.672-38.034-39.672-103 0-65.15 39.672-103 39.672-38.034 107.55-38.034 22.748 0 43.676 5.095t40.218 15.104v56.233q-19.472-13.285-38.398-19.472-18.926-6.187-39.854-6.187-37.488 0-58.962 24.022-21.474 24.022-21.474 66.242 0 42.038 21.474 66.06 21.474 24.022 58.962 24.022 20.928 0 39.854-6.188 18.926-6.187 38.398-19.472zM7158.2 4160.4v57.506q-22.384-10.009-43.676-15.104-21.292-5.096-40.218-5.096-25.114 0-37.124 6.916-12.011 6.915-12.011 21.474 0 10.919 8.007 17.106 8.19 6.005 29.481 10.373l29.845 6.005q45.314 9.1 64.422 27.661 19.108 18.562 19.108 52.775 0 44.95-26.75 66.97-26.57 21.838-81.347 21.838-25.842 0-51.865-4.913t-52.047-14.56v-59.143q26.024 13.83 50.227 20.928 24.386 6.915 46.951 6.915 22.93 0 35.123-7.643 12.193-7.644 12.193-21.838 0-12.74-8.371-19.654-8.19-6.916-32.939-12.375l-27.115-6.006q-40.764-8.735-59.69-27.843-18.744-19.108-18.744-51.5 0-40.583 26.206-62.42 26.206-21.839 75.341-21.839 22.384 0 46.042 3.458 23.658 3.276 48.953 10.009zM7234.6 4219.7h65.15v203.82h-65.15zm0-79.344h65.15v53.139h-65.15zM7551.3 4253.6q12.375-18.926 29.299-28.753 17.106-10.009 37.488-10.009 35.123 0 53.503 21.656 18.38 21.656 18.38 62.966v124.11h-65.514v-106.28q.182-2.366.182-4.913.182-2.548.182-7.28 0-21.656-6.37-31.3-6.369-9.828-20.563-9.828-18.562 0-28.753 15.286-10.01 15.286-10.373 44.222v100.09h-65.514v-106.28q0-33.849-5.824-43.494-5.823-9.827-20.746-9.827-18.744 0-28.935 15.468-10.19 15.286-10.19 43.858v100.27h-65.515v-203.82h65.514v29.845q12.011-17.288 27.48-26.024 15.65-8.735 34.394-8.735 21.11 0 37.306 10.191 16.196 10.191 24.568 28.571zM7753.6 4151.8h70.063v218.74h123.02v52.957h-193.08zM8079.6 4331.8q-20.382 0-30.755 6.915-10.191 6.916-10.191 20.382 0 12.375 8.19 19.472 8.37 6.916 23.111 6.916 18.38 0 30.937-13.103 12.557-13.285 12.557-33.121v-7.462zm99.544-24.568v116.29h-65.696v-30.209q-13.103 18.562-29.481 27.115-16.378 8.371-39.854 8.371-31.665 0-51.501-18.38-19.654-18.562-19.654-48.043 0-35.85 24.568-52.593 24.75-16.742 77.524-16.742h38.398v-5.095q0-15.468-12.193-22.566-12.193-7.28-38.034-7.28-20.928 0-38.944 4.186-18.016 4.185-33.485 12.557v-49.681q20.928-5.096 42.038-7.643 21.11-2.73 42.22-2.73 55.141 0 79.526 21.838 24.568 21.656 24.568 70.609zM8348.2 4381.5q20.928 0 31.847-15.286 11.101-15.286 11.101-44.404t-11.101-44.404q-10.919-15.287-31.847-15.287t-32.211 15.468q-11.101 15.287-11.101 44.222t11.101 44.404q11.283 15.286 32.211 15.286zm-43.312-131.94q13.467-17.834 29.845-26.206 16.378-8.553 37.67-8.553 37.67 0 61.874 30.027 24.204 29.845 24.204 76.979 0 47.133-24.204 77.16-24.204 29.845-61.874 29.845-21.292 0-37.67-8.371-16.378-8.553-29.845-26.388v29.48h-65.15v-283.16h65.15zM6248.3 4685.6h65.15l50.773 140.85 50.591-140.85h65.332l-80.254 203.82h-71.519zM6588 4627.7v57.87h67.152v46.588H6588v86.442q0 14.195 5.641 19.29 5.642 4.914 22.384 4.914h33.485v46.588h-55.869q-38.58 0-54.777-16.014-16.014-16.196-16.014-54.777v-86.442h-32.393v-46.588h32.393v-57.87zM6898.5 4787v18.562h-152.32q2.366 22.93 16.56 34.395t39.672 11.465q20.564 0 42.038-6.005 21.656-6.188 44.404-18.562v50.227q-23.112 8.735-46.224 13.103-23.112 4.55-46.224 4.55-55.323 0-86.078-28.026-30.573-28.207-30.573-78.98 0-49.863 30.027-78.434 30.209-28.57 82.984-28.57 48.043 0 76.797 28.934 28.935 28.935 28.935 77.342zm-66.97-21.656q0-18.562-10.919-29.845-10.737-11.465-28.207-11.465-18.926 0-30.755 10.737-11.829 10.555-14.741 30.573zM7099.2 4741.1q-8.553-4.004-17.106-5.824-8.371-2.001-16.924-2.001-25.114 0-38.762 16.196-13.467 16.014-13.467 46.042v93.903h-65.15v-203.82h65.15v33.485q12.557-20.018 28.753-29.117 16.378-9.281 39.126-9.281 3.276 0 7.097.364 3.822.182 11.101 1.092zM7320.5 4719.4q12.375-18.926 29.299-28.753 17.106-10.009 37.488-10.009 35.123 0 53.503 21.656t18.38 62.966v124.11h-65.514v-106.28q.182-2.366.182-4.913.182-2.548.182-7.28 0-21.656-6.37-31.3-6.369-9.828-20.563-9.828-18.563 0-28.754 15.286-10.008 15.286-10.372 44.222v100.09h-65.515v-106.28q0-33.849-5.823-43.494-5.823-9.827-20.746-9.827-18.744 0-28.935 15.468-10.19 15.286-10.19 43.858v100.27h-65.515v-203.82h65.514v29.845q12.011-17.288 27.48-26.024 15.65-8.735 34.394-8.735 21.11 0 37.306 10.191t24.568 28.571z"/></g><g stroke-width="69.881" aria-label="Send"><path d="M11772 2509.2v57.506q-22.384-10.009-43.676-15.104t-40.218-5.096q-25.114 0-37.125 6.916t-12.011 21.474q0 10.919 8.008 17.106 8.189 6.005 29.481 10.373l29.845 6.005q45.313 9.1 64.422 27.661 19.108 18.562 19.108 52.775 0 44.95-26.752 66.97-26.569 21.838-81.346 21.838-25.841 0-51.865-4.913-26.023-4.914-52.047-14.56v-59.143q26.024 13.83 50.227 20.928 24.386 6.915 46.952 6.915 22.93 0 35.122-7.643 12.193-7.644 12.193-21.838 0-12.74-8.371-19.654-8.189-6.916-32.939-12.375l-27.115-6.006q-40.764-8.735-59.69-27.843-18.745-19.108-18.745-51.5 0-40.583 26.206-62.42 26.205-21.839 75.341-21.839 22.384 0 46.041 3.458 23.658 3.276 48.954 10.009zM12052 2669.8v18.562h-152.32q2.366 22.93 16.561 34.395 14.194 11.465 39.672 11.465 20.564 0 42.038-6.005 21.656-6.188 44.403-18.562v50.227q-23.111 8.735-46.223 13.103-23.112 4.55-46.224 4.55-55.322 0-86.077-28.026-30.573-28.207-30.573-78.98 0-49.863 30.027-78.434 30.209-28.57 82.984-28.57 48.043 0 76.796 28.934 28.935 28.935 28.935 77.343zm-66.969-21.656q0-18.562-10.919-29.845-10.737-11.465-28.207-11.465-18.926 0-30.755 10.737-11.829 10.555-14.741 30.573zM12306 2648.2v124.11h-65.514v-94.995q0-26.387-1.274-36.396-1.092-10.009-4.003-14.741-3.822-6.37-10.373-9.827-6.552-3.64-14.923-3.64-20.382 0-32.029 15.832-11.647 15.65-11.647 43.494v100.27h-65.149v-203.82h65.149v29.845q14.741-17.834 31.301-26.206 16.561-8.553 36.579-8.553 35.304 0 53.503 21.656 18.38 21.656 18.38 62.966zM12505 2598.3v-109.19h65.513v283.16H12505v-29.481q-13.467 18.016-29.663 26.388-16.197 8.371-37.489 8.371-37.67 0-61.874-29.845-24.203-30.027-24.203-77.16 0-47.134 24.203-76.979 24.204-30.027 61.874-30.027 21.11 0 37.307 8.553 16.378 8.372 29.845 26.206zm-42.948 131.94q20.928 0 31.847-15.286 11.101-15.286 11.101-44.404t-11.101-44.404q-10.919-15.286-31.847-15.286-20.746 0-31.847 15.286-10.919 15.286-10.919 44.404t10.919 44.404q11.101 15.286 31.847 15.286z"/></g><g stroke-width="69.881" aria-label="Clear"><path d="M11777 7275q-19.29 10.009-40.218 15.104t-43.676 5.096q-67.88 0-107.55-37.852-39.672-38.034-39.672-103 0-65.15 39.672-103 39.672-38.034 107.55-38.034 22.748 0 43.676 5.095 20.928 5.096 40.218 15.104v56.233q-19.472-13.285-38.399-19.472-18.926-6.187-39.854-6.187-37.488 0-58.962 24.022t-21.474 66.242q0 42.038 21.474 66.06 21.474 24.022 58.962 24.022 20.928 0 39.854-6.188 18.927-6.187 38.399-19.472zM11832 7006.7h65.15v283.16H11832zM12164 7187.4v18.562h-152.32q2.366 22.93 16.56 34.395 14.195 11.465 39.673 11.465 20.564 0 42.038-6.005 21.655-6.188 44.403-18.562v50.227q-23.111 8.735-46.223 13.103-23.112 4.55-46.224 4.55-55.322 0-86.077-28.026-30.574-28.207-30.574-78.98 0-49.863 30.028-78.434 30.209-28.57 82.984-28.57 48.043 0 76.796 28.934 28.935 28.935 28.935 77.342zm-66.969-21.656q0-18.562-10.919-29.845-10.737-11.465-28.207-11.465-18.927 0-30.755 10.737-11.829 10.555-14.741 30.573zM12304 7198.2q-20.382 0-30.755 6.915-10.191 6.916-10.191 20.382 0 12.375 8.189 19.472 8.371 6.916 23.112 6.916 18.38 0 30.937-13.103 12.557-13.285 12.557-33.121v-7.462zm99.544-24.568v116.29h-65.695v-30.209q-13.103 18.562-29.482 27.115-16.378 8.371-39.854 8.371-31.665 0-51.501-18.38-19.654-18.562-19.654-48.043 0-35.85 24.568-52.593 24.749-16.742 77.524-16.742h38.399v-5.095q0-15.468-12.193-22.566-12.193-7.28-38.035-7.28-20.928 0-38.944 4.186t-33.485 12.557v-49.681q20.928-5.096 42.038-7.643 21.11-2.73 42.22-2.73 55.141 0 79.527 21.838 24.567 21.656 24.567 70.609zM12616 7141.6q-8.553-4.004-17.107-5.824-8.371-2.001-16.924-2.001-25.114 0-38.762 16.196-13.467 16.014-13.467 46.042v93.903h-65.15v-203.82h65.15v33.485q12.557-20.018 28.753-29.117 16.379-9.281 39.126-9.281 3.276 0 7.098.364 3.821.182 11.101 1.092z"/></g><g stroke-width="69.881" aria-label="9600"><path d="M9590.9 7279.4v-50.227q16.742 7.825 32.029 11.829 15.286 3.822 30.209 3.822 31.301 0 48.771-17.288 17.47-17.47 20.564-51.683-12.375 9.099-26.388 13.649-14.013 4.55-30.391 4.55-41.674 0-67.334-24.205-25.478-24.386-25.478-64.058 0-43.858 28.389-70.245 28.571-26.388 76.433-26.388 53.139 0 82.256 35.851 29.117 35.85 29.117 101.36 0 67.334-34.031 105.91-34.031 38.398-93.357 38.398-19.108 0-36.578-2.911-17.47-2.73-34.213-8.372zm86.442-130.85q18.38 0 27.661-11.829 9.281-12.011 9.281-35.85 0-23.658-9.281-35.669-9.281-12.011-27.661-12.011-18.38 0-27.661 12.011-9.281 12.011-9.281 35.669 0 23.84 9.281 35.85 9.281 11.829 27.661 11.829zM9947.8 7151.3q-18.38 0-27.661 12.011-9.1 11.829-9.1 35.669t9.1 35.85q9.281 11.829 27.661 11.829 18.562 0 27.661-11.829 9.281-12.011 9.281-35.85t-9.281-35.669q-9.1-12.011-27.661-12.011zm86.623-130.48v50.227q-17.288-8.19-32.575-12.011-15.286-4.004-29.845-4.004-31.301 0-48.771 17.47-17.47 17.288-20.382 51.501 12.011-8.917 26.024-13.285 14.013-4.55 30.573-4.55 41.674 0 67.152 24.387 25.66 24.386 25.66 63.876 0 43.676-28.572 70.063-28.571 26.205-76.614 26.205-52.957 0-82.074-35.668-28.935-35.851-28.935-101.55 0-67.334 33.849-105.73 34.031-38.58 93.175-38.58 18.744 0 36.396 2.912 17.652 2.911 34.94 8.735zM10244 7149.3q0-50.955-9.645-71.701-9.463-20.928-32.029-20.928t-32.211 20.928q-9.645 20.746-9.645 71.701 0 51.501 9.645 72.611 9.645 21.11 32.211 21.11 22.384 0 32.029-21.11 9.645-21.11 9.645-72.611zm70.063.546q0 67.516-29.117 104.28-29.117 36.578-82.62 36.578-53.685 0-82.802-36.578-29.117-36.76-29.117-104.28 0-67.697 29.117-104.28 29.117-36.76 82.802-36.76 53.503 0 82.62 36.76 29.117 36.578 29.117 104.28zM10503 7149.3q0-50.955-9.645-71.701-9.463-20.928-32.029-20.928t-32.211 20.928q-9.645 20.746-9.645 71.701 0 51.501 9.645 72.611 9.645 21.11 32.211 21.11 22.384 0 32.029-21.11 9.645-21.11 9.645-72.611zm70.063.546q0 67.516-29.117 104.28-29.117 36.578-82.62 36.578-53.685 0-82.802-36.578-29.117-36.76-29.117-104.28 0-67.697 29.117-104.28 29.117-36.76 82.802-36.76 53.503 0 82.62 36.76 29.117 36.578 29.117 104.28z"/></g><g stroke-width="69.881" aria-label="new line"><path d="M7348.2 7163.1v124.11h-65.514v-94.995q0-26.387-1.274-36.396-1.092-10.009-4.004-14.74-3.821-6.37-10.373-9.827-6.55-3.64-14.921-3.64-20.382 0-32.03 15.832-11.646 15.65-11.646 43.494v100.27h-65.15v-203.82h65.15v29.845q14.74-17.834 31.3-26.205 16.56-8.553 36.579-8.553 35.305 0 53.503 21.656 18.38 21.656 18.38 62.966zM7612.1 7184.8v18.562h-152.32q2.366 22.93 16.56 34.395 14.195 11.465 39.672 11.465 20.564 0 42.038-6.005 21.656-6.188 44.404-18.562v50.227q-23.112 8.735-46.224 13.103-23.112 4.55-46.224 4.55-55.323 0-86.078-28.026-30.573-28.207-30.573-78.98 0-49.863 30.027-78.434 30.209-28.57 82.984-28.57 48.043 0 76.797 28.934 28.935 28.935 28.935 77.342zm-66.97-21.656q0-18.562-10.919-29.845-10.737-11.465-28.207-11.465-18.926 0-30.755 10.737-11.829 10.555-14.74 30.573zM7643.2 7083.4h63.33l34.213 140.49 34.395-140.49h54.413l34.213 139.03 34.395-139.03h63.33l-53.685 203.82h-71.155l-34.395-140.13-34.213 140.13h-71.155zM8135.4 7004.1h65.15v283.16h-65.15zM8263.2 7083.4h65.15v203.82h-65.15zm0-79.344h65.15v53.139h-65.15zM8595.9 7163.1v124.11h-65.514v-94.995q0-26.387-1.274-36.396-1.092-10.009-4.003-14.74-3.822-6.37-10.374-9.827-6.55-3.64-14.921-3.64-20.383 0-32.03 15.832-11.646 15.65-11.646 43.494v100.27h-65.15v-203.82h65.15v29.845q14.74-17.834 31.3-26.205 16.56-8.553 36.578-8.553 35.304 0 53.503 21.656 18.38 21.656 18.38 62.966zM8859.7 7184.8v18.562h-152.32q2.366 22.93 16.56 34.395t39.672 11.465q20.564 0 42.038-6.005 21.656-6.188 44.404-18.562v50.227q-23.112 8.735-46.224 13.103-23.112 4.55-46.224 4.55-55.323 0-86.078-28.026-30.573-28.207-30.573-78.98 0-49.863 30.027-78.434 30.209-28.57 82.984-28.57 48.043 0 76.797 28.934 28.935 28.935 28.935 77.342zm-66.97-21.656q0-18.562-10.919-29.845-10.737-11.465-28.207-11.465-18.926 0-30.755 10.737-11.829 10.555-14.741 30.573z"/></g><path d="M10744 7083.7h135.95l-65.914 114.17zM9061.8 7090h135.95l-65.914 114.17z" fill="none" stroke="#000" stroke-width="69.881"/><path d="M12745 1916.4h239.24v239.24H12745z" fill="#f2f2f2" stroke="#000" stroke-width="69.881"/><path d="M12745 1916.4l239.24 239.24M12984 1916.4l-239.24 239.24" fill="none" stroke="#000" stroke-width="69.881"/></svg>