<svg width="583" height="146" viewBox="0 0 46832 11701" xmlns="http://www.w3.org/2000/svg"><g fill="#313d63" stroke="#313d63"><path d="M88500 12100H41700v9000h46800v-9000" fill-rule="evenodd" transform="matrix(.99988 0 0 1.2947 -41683 -15668)"/><path d="M88500 21100v-9000m-46800 9000v-9000m46800 9000H41700m0-9000h46800" transform="matrix(.99988 0 0 1.2947 -41683 -15668)" fill="none" fill-opacity="0" stroke="#000" stroke-linecap="round" stroke-linejoin="round" stroke-width="39.37"/></g><path fill="#b3b3b3" stroke="#000" stroke-width="80.329" d="M39721 4561h6661.5v1975.2H39721zM39697 1506h6661.5v1975.2H39697z"/><circle cx="38009" cy="3941.9" r="354.33" fill="#9c6b28"/><path d="M37655 2587.9h708.6v708.6H37655z" fill="#9c6b28" fill-rule="evenodd"/><circle cx="33309" cy="3941.9" r="354.33" fill="#9c6b28"/><path d="M32955 2587.9h708.6v708.6H32955z" fill="#9c6b28" fill-rule="evenodd"/><circle cx="28309" cy="3841.9" r="354.33" fill="#9c6b28"/><path d="M27955 2487.9h708.6v708.6H27955z" fill="#9c6b28" fill-rule="evenodd"/><circle cx="23309" cy="3841.9" r="354.33" fill="#9c6b28"/><path d="M22955 2487.9h708.6v708.6H22955z" fill="#9c6b28" fill-rule="evenodd"/><circle cx="18209" cy="3841.9" r="354.33" fill="#9c6b28"/><path d="M17855 2487.9h708.6v708.6H17855z" fill="#9c6b28" fill-rule="evenodd"/><circle cx="13109" cy="3841.9" r="354.33" fill="#9c6b28"/><path d="M12755 2487.9h708.6v708.6H12755z" fill="#9c6b28" fill-rule="evenodd"/><circle cx="8109" cy="3741.9" r="354.33" fill="#9c6b28"/><path d="M7755 2387.9h708.6v708.6H7755z" fill="#9c6b28" fill-rule="evenodd"/><circle cx="3109" cy="3741.9" r="354.33" fill="#9c6b28"/><path d="M2755 2387.9h708.6v708.6H2755z" fill="#9c6b28" fill-rule="evenodd"/><circle cx="25709" cy="4341.9" r="275.59" fill="#9c6b28"/><circle cx="25709" cy="2341.9" r="275.59" fill="#9c6b28"/><circle cx="30809" cy="4341.9" r="275.59" fill="#9c6b28"/><circle cx="30809" cy="2341.9" r="275.59" fill="#9c6b28"/><circle cx="20709" cy="4341.9" r="275.59" fill="#9c6b28"/><circle cx="20709" cy="2341.9" r="275.59" fill="#9c6b28"/><circle cx="5609" cy="4241.9" r="275.59" fill="#9c6b28"/><circle cx="5609" cy="2241.9" r="275.59" fill="#9c6b28"/><circle cx="35609" cy="4441.9" r="275.59" fill="#9c6b28"/><circle cx="35609" cy="2441.9" r="275.59" fill="#9c6b28"/><circle cx="809" cy="4241.9" r="275.59" fill="#9c6b28"/><circle cx="809" cy="2241.9" r="275.59" fill="#9c6b28"/><circle cx="10609" cy="4341.9" r="275.59" fill="#9c6b28"/><circle cx="10609" cy="2341.9" r="275.59" fill="#9c6b28"/><circle cx="15609" cy="4341.9" r="275.59" fill="#9c6b28"/><circle cx="15609" cy="2341.9" r="275.59" fill="#9c6b28"/><circle cx="38009" cy="3941.9" r="354.33" fill="#212d53"/><path d="M37655 2587.9h708.6v708.6H37655z" fill="#212d53" fill-rule="evenodd"/><circle cx="33309" cy="3941.9" r="354.33" fill="#212d53"/><path d="M32955 2587.9h708.6v708.6H32955z" fill="#212d53" fill-rule="evenodd"/><circle cx="28309" cy="3841.9" r="354.33" fill="#212d53"/><path d="M27955 2487.9h708.6v708.6H27955z" fill="#212d53" fill-rule="evenodd"/><circle cx="23309" cy="3841.9" r="354.33" fill="#212d53"/><path d="M22955 2487.9h708.6v708.6H22955z" fill="#212d53" fill-rule="evenodd"/><circle cx="18209" cy="3841.9" r="354.33" fill="#212d53"/><path d="M17855 2487.9h708.6v708.6H17855z" fill="#212d53" fill-rule="evenodd"/><circle cx="13109" cy="3841.9" r="354.33" fill="#212d53"/><path d="M12755 2487.9h708.6v708.6H12755z" fill="#212d53" fill-rule="evenodd"/><circle cx="8109" cy="3741.9" r="354.33" fill="#212d53"/><path d="M7755 2387.9h708.6v708.6H7755z" fill="#212d53" fill-rule="evenodd"/><circle cx="3109" cy="3741.9" r="354.33" fill="#212d53"/><path d="M2755 2387.9h708.6v708.6H2755z" fill="#212d53" fill-rule="evenodd"/><circle cx="25709" cy="4341.9" r="275.59" fill="#212d53"/><circle cx="25709" cy="2341.9" r="275.59" fill="#212d53"/><circle cx="30809" cy="4341.9" r="275.59" fill="#212d53"/><circle cx="30809" cy="2341.9" r="275.59" fill="#212d53"/><circle cx="20709" cy="4341.9" r="275.59" fill="#212d53"/><circle cx="20709" cy="2341.9" r="275.59" fill="#212d53"/><circle cx="5609" cy="4241.9" r="275.59" fill="#212d53"/><circle cx="5609" cy="2241.9" r="275.59" fill="#212d53"/><circle cx="35609" cy="4441.9" r="275.59" fill="#212d53"/><circle cx="35609" cy="2441.9" r="275.59" fill="#212d53"/><circle cx="809" cy="4241.9" r="275.59" fill="#212d53"/><circle cx="809" cy="2241.9" r="275.59" fill="#212d53"/><circle cx="10609" cy="4341.9" r="275.59" fill="#212d53"/><circle cx="10609" cy="2341.9" r="275.59" fill="#212d53"/><circle cx="15609" cy="4341.9" r="275.59" fill="#212d53"/><circle cx="15609" cy="2341.9" r="275.59" fill="#212d53"/><circle cx="38009" cy="3941.9" r="68.898" fill="#212d53"/><circle cx="38009" cy="2941.9" r="68.898" fill="#212d53"/><circle cx="33309" cy="3941.9" r="68.898" fill="#212d53"/><circle cx="33309" cy="2941.9" r="68.898" fill="#212d53"/><circle cx="28309" cy="3841.9" r="68.898" fill="#212d53"/><circle cx="28309" cy="2841.9" r="68.898" fill="#212d53"/><circle cx="23309" cy="3841.9" r="68.898" fill="#212d53"/><circle cx="23309" cy="2841.9" r="68.898" fill="#212d53"/><circle cx="18209" cy="3841.9" r="68.898" fill="#212d53"/><circle cx="18209" cy="2841.9" r="68.898" fill="#212d53"/><circle cx="13109" cy="3841.9" r="68.898" fill="#212d53"/><circle cx="13109" cy="2841.9" r="68.898" fill="#212d53"/><circle cx="8109" cy="3741.9" r="68.898" fill="#212d53"/><circle cx="8109" cy="2741.9" r="68.898" fill="#212d53"/><circle cx="3109" cy="3741.9" r="68.898" fill="#212d53"/><circle cx="3109" cy="2741.9" r="68.898" fill="#212d53"/><circle cx="25709" cy="4341.9" r="68.898" fill="#212d53"/><circle cx="25709" cy="2341.9" r="68.898" fill="#212d53"/><circle cx="30809" cy="4341.9" r="68.898" fill="#212d53"/><circle cx="30809" cy="2341.9" r="68.898" fill="#212d53"/><circle cx="20709" cy="4341.9" r="68.898" fill="#212d53"/><circle cx="20709" cy="2341.9" r="68.898" fill="#212d53"/><circle cx="5609" cy="4241.9" r="68.898" fill="#212d53"/><circle cx="5609" cy="2241.9" r="68.898" fill="#212d53"/><circle cx="35609" cy="4441.9" r="68.898" fill="#212d53"/><circle cx="35609" cy="2441.9" r="68.898" fill="#212d53"/><circle cx="809" cy="4241.9" r="68.898" fill="#212d53"/><circle cx="809" cy="2241.9" r="68.898" fill="#212d53"/><circle cx="10609" cy="4341.9" r="68.898" fill="#212d53"/><circle cx="10609" cy="2341.9" r="68.898" fill="#212d53"/><circle cx="15609" cy="4341.9" r="68.898" fill="#212d53"/><circle cx="15609" cy="2341.9" r="68.898" fill="#212d53"/><circle cx="38009" cy="3941.9" r="354.33" fill="#b5ae30"/><path d="M37655 2587.9h708.6v708.6H37655z" fill="#b5ae30" fill-rule="evenodd"/><circle cx="33309" cy="3941.9" r="354.33" fill="#b5ae30"/><path d="M32955 2587.9h708.6v708.6H32955z" fill="#b5ae30" fill-rule="evenodd"/><circle cx="28309" cy="3841.9" r="354.33" fill="#b5ae30"/><path d="M27955 2487.9h708.6v708.6H27955z" fill="#b5ae30" fill-rule="evenodd"/><circle cx="23309" cy="3841.9" r="354.33" fill="#b5ae30"/><path d="M22955 2487.9h708.6v708.6H22955z" fill="#b5ae30" fill-rule="evenodd"/><circle cx="18209" cy="3841.9" r="354.33" fill="#b5ae30"/><path d="M17855 2487.9h708.6v708.6H17855z" fill="#b5ae30" fill-rule="evenodd"/><circle cx="13109" cy="3841.9" r="354.33" fill="#b5ae30"/><path d="M12755 2487.9h708.6v708.6H12755z" fill="#b5ae30" fill-rule="evenodd"/><circle cx="8109" cy="3741.9" r="354.33" fill="#b5ae30"/><path d="M7755 2387.9h708.6v708.6H7755z" fill="#b5ae30" fill-rule="evenodd"/><circle cx="3109" cy="3741.9" r="354.33" fill="#b5ae30"/><path d="M2755 2387.9h708.6v708.6H2755z" fill="#b5ae30" fill-rule="evenodd"/><circle cx="25709" cy="4341.9" r="275.59" fill="#b5ae30"/><circle cx="25709" cy="2341.9" r="275.59" fill="#b5ae30"/><circle cx="30809" cy="4341.9" r="275.59" fill="#b5ae30"/><circle cx="30809" cy="2341.9" r="275.59" fill="#b5ae30"/><circle cx="20709" cy="4341.9" r="275.59" fill="#b5ae30"/><circle cx="20709" cy="2341.9" r="275.59" fill="#b5ae30"/><circle cx="5609" cy="4241.9" r="275.59" fill="#b5ae30"/><circle cx="5609" cy="2241.9" r="275.59" fill="#b5ae30"/><circle cx="35609" cy="4441.9" r="275.59" fill="#b5ae30"/><circle cx="35609" cy="2441.9" r="275.59" fill="#b5ae30"/><circle cx="809" cy="4241.9" r="275.59" fill="#b5ae30"/><circle cx="809" cy="2241.9" r="275.59" fill="#b5ae30"/><circle cx="10609" cy="4341.9" r="275.59" fill="#b5ae30"/><circle cx="10609" cy="2341.9" r="275.59" fill="#b5ae30"/><circle cx="15609" cy="4341.9" r="275.59" fill="#b5ae30"/><circle cx="15609" cy="2341.9" r="275.59" fill="#b5ae30"/><circle cx="38009" cy="3941.9" r="68.898" fill="#b5ae30"/><circle cx="38009" cy="2941.9" r="68.898" fill="#b5ae30"/><circle cx="33309" cy="3941.9" r="68.898" fill="#b5ae30"/><circle cx="33309" cy="2941.9" r="68.898" fill="#b5ae30"/><circle cx="28309" cy="3841.9" r="68.898" fill="#b5ae30"/><circle cx="28309" cy="2841.9" r="68.898" fill="#b5ae30"/><circle cx="23309" cy="3841.9" r="68.898" fill="#b5ae30"/><circle cx="23309" cy="2841.9" r="68.898" fill="#b5ae30"/><circle cx="18209" cy="3841.9" r="68.898" fill="#b5ae30"/><circle cx="18209" cy="2841.9" r="68.898" fill="#b5ae30"/><circle cx="13109" cy="3841.9" r="68.898" fill="#b5ae30"/><circle cx="13109" cy="2841.9" r="68.898" fill="#b5ae30"/><circle cx="8109" cy="3741.9" r="68.898" fill="#b5ae30"/><circle cx="8109" cy="2741.9" r="68.898" fill="#b5ae30"/><circle cx="3109" cy="3741.9" r="68.898" fill="#b5ae30"/><circle cx="3109" cy="2741.9" r="68.898" fill="#b5ae30"/><circle cx="25709" cy="4341.9" r="68.898" fill="#b5ae30"/><circle cx="25709" cy="2341.9" r="68.898" fill="#b5ae30"/><circle cx="30809" cy="4341.9" r="68.898" fill="#b5ae30"/><circle cx="30809" cy="2341.9" r="68.898" fill="#b5ae30"/><circle cx="20709" cy="4341.9" r="68.898" fill="#b5ae30"/><circle cx="20709" cy="2341.9" r="68.898" fill="#b5ae30"/><circle cx="5609" cy="4241.9" r="68.898" fill="#b5ae30"/><circle cx="5609" cy="2241.9" r="68.898" fill="#b5ae30"/><circle cx="35609" cy="4441.9" r="68.898" fill="#b5ae30"/><circle cx="35609" cy="2441.9" r="68.898" fill="#b5ae30"/><circle cx="809" cy="4241.9" r="68.898" fill="#b5ae30"/><circle cx="809" cy="2241.9" r="68.898" fill="#b5ae30"/><circle cx="10609" cy="4341.9" r="68.898" fill="#b5ae30"/><circle cx="10609" cy="2341.9" r="68.898" fill="#b5ae30"/><circle cx="15609" cy="4341.9" r="68.898" fill="#b5ae30"/><circle cx="15609" cy="2341.9" r="68.898" fill="#b5ae30"/><circle cx="38009" cy="3441.9" r="984.25" fill="none" stroke="#f0f0f0" stroke-linecap="round" stroke-linejoin="round" stroke-width="47.244"/><path d="M37401 2433.9a1177.2 1177.2 0 0 0 608.4 2185.1" fill="none" stroke="#f0f0f0" stroke-linecap="round" stroke-linejoin="round" stroke-width="47.244"/><path d="M38009 4618.9a1177.2 1177.2 0 0 0 608.4-2185.1m-4700.4.1h-1217" fill="none" stroke="#f0f0f0" stroke-linecap="round" stroke-linejoin="round" stroke-width="47.244"/><circle cx="33309" cy="3441.9" r="984.25" fill="none" stroke="#f0f0f0" stroke-linecap="round" stroke-linejoin="round" stroke-width="47.244"/><path d="M32701 2433.9a1177.2 1177.2 0 0 0 608.4 2185.1" fill="none" stroke="#f0f0f0" stroke-linecap="round" stroke-linejoin="round" stroke-width="47.244"/><path d="M33309 4618.9a1177.2 1177.2 0 0 0 608.4-2185.1m-5000.4-99.9h-1217" fill="none" stroke="#f0f0f0" stroke-linecap="round" stroke-linejoin="round" stroke-width="47.244"/><circle cx="28309" cy="3341.9" r="984.25" fill="none" stroke="#f0f0f0" stroke-linecap="round" stroke-linejoin="round" stroke-width="47.244"/><path d="M27701 2333.9a1177.2 1177.2 0 0 0 608.4 2185.1" fill="none" stroke="#f0f0f0" stroke-linecap="round" stroke-linejoin="round" stroke-width="47.244"/><path d="M28309 4518.9a1177.2 1177.2 0 0 0 608.4-2185.1m-5000.4.1h-1217" fill="none" stroke="#f0f0f0" stroke-linecap="round" stroke-linejoin="round" stroke-width="47.244"/><circle cx="23309" cy="3341.9" r="984.25" fill="none" stroke="#f0f0f0" stroke-linecap="round" stroke-linejoin="round" stroke-width="47.244"/><path d="M22701 2333.9a1177.2 1177.2 0 0 0 608.4 2185.1" fill="none" stroke="#f0f0f0" stroke-linecap="round" stroke-linejoin="round" stroke-width="47.244"/><path d="M23309 4518.9a1177.2 1177.2 0 0 0 608.4-2185.1m-5100.4.1h-1217" fill="none" stroke="#f0f0f0" stroke-linecap="round" stroke-linejoin="round" stroke-width="47.244"/><circle cx="18209" cy="3341.9" r="984.25" fill="none" stroke="#f0f0f0" stroke-linecap="round" stroke-linejoin="round" stroke-width="47.244"/><path d="M17601 2333.9a1177.2 1177.2 0 0 0 608.4 2185.1" fill="none" stroke="#f0f0f0" stroke-linecap="round" stroke-linejoin="round" stroke-width="47.244"/><path d="M18209 4518.9a1177.2 1177.2 0 0 0 608.4-2185.1m-5100.4.1h-1217" fill="none" stroke="#f0f0f0" stroke-linecap="round" stroke-linejoin="round" stroke-width="47.244"/><circle cx="13109" cy="3341.9" r="984.25" fill="none" stroke="#f0f0f0" stroke-linecap="round" stroke-linejoin="round" stroke-width="47.244"/><path d="M12501 2333.9a1177.2 1177.2 0 0 0 608.4 2185.1" fill="none" stroke="#f0f0f0" stroke-linecap="round" stroke-linejoin="round" stroke-width="47.244"/><path d="M13109 4518.9a1177.2 1177.2 0 0 0 608.4-2185.1M8717 2233.9H7500" fill="none" stroke="#f0f0f0" stroke-linecap="round" stroke-linejoin="round" stroke-width="47.244"/><circle cx="8109" cy="3241.9" r="984.25" fill="none" stroke="#f0f0f0" stroke-linecap="round" stroke-linejoin="round" stroke-width="47.244"/><path d="M7501 2233.9A1177.2 1177.2 0 0 0 8109.4 4419" fill="none" stroke="#f0f0f0" stroke-linecap="round" stroke-linejoin="round" stroke-width="47.244"/><path d="M8109 4418.9a1177.2 1177.2 0 0 0 608.4-2185.1m-5000.4.1H2500" fill="none" stroke="#f0f0f0" stroke-linecap="round" stroke-linejoin="round" stroke-width="47.244"/><circle cx="3109" cy="3241.9" r="984.25" fill="none" stroke="#f0f0f0" stroke-linecap="round" stroke-linejoin="round" stroke-width="47.244"/><path d="M2501 2233.9A1177.2 1177.2 0 0 0 3109.4 4419" fill="none" stroke="#f0f0f0" stroke-linecap="round" stroke-linejoin="round" stroke-width="47.244"/><path d="M88500 21100v-9000m-46800 9000v-9000m46800 9000H41700m0-9000h46800" transform="matrix(.99988 0 0 1.2947 -41683 -15668)" fill="none" fill-opacity="0" stroke="#000" stroke-linecap="round" stroke-linejoin="round" stroke-width="39.37"/><g stroke="#000" stroke-width=".093"><g transform="matrix(0 393.7 -393.7 0 38009 2942.7)"><path d="M4.17 0c0 2.954-3.902 4.018-5.4 1.47v-2.94C.268-4.018 4.17-2.954 4.17 0z" fill="maroon" fill-rule="evenodd"/><circle cx="1.27" r="2.45" fill="red"/></g><g transform="matrix(0 393.7 393.7 0 33309 2942.4)"><path d="M4.17 0c0 2.954-3.902 4.018-5.4 1.47v-2.94C.268-4.018 4.17-2.954 4.17 0z" fill="maroon" fill-rule="evenodd"/><circle cx="1.27" r="2.45" fill="red"/></g><g transform="matrix(0 393.7 393.7 0 28309 2842.4)"><path d="M4.17 0c0 2.954-3.902 4.018-5.4 1.47v-2.94C.268-4.018 4.17-2.954 4.17 0z" fill="maroon" fill-rule="evenodd"/><circle cx="1.27" r="2.45" fill="red"/></g><g transform="matrix(0 393.7 393.7 0 23309 2842.4)"><path d="M4.17 0c0 2.954-3.902 4.018-5.4 1.47v-2.94C.268-4.018 4.17-2.954 4.17 0z" fill="maroon" fill-rule="evenodd"/><circle cx="1.27" r="2.45" fill="red"/></g><g transform="matrix(0 393.7 393.7 0 18209 2842.4)"><path d="M4.17 0c0 2.954-3.902 4.018-5.4 1.47v-2.94C.268-4.018 4.17-2.954 4.17 0z" fill="maroon" fill-rule="evenodd"/><circle cx="1.27" r="2.45" fill="red"/></g><g transform="matrix(0 393.7 393.7 0 13109 2842.4)"><path d="M4.17 0c0 2.954-3.902 4.018-5.4 1.47v-2.94C.268-4.018 4.17-2.954 4.17 0z" fill="maroon" fill-rule="evenodd"/><circle cx="1.27" r="2.45" fill="red"/></g><g transform="matrix(0 393.7 393.7 0 8108.7 2742.4)"><path d="M4.17 0c0 2.954-3.902 4.018-5.4 1.47v-2.94C.268-4.018 4.17-2.954 4.17 0z" fill="maroon" fill-rule="evenodd"/><circle cx="1.27" r="2.45" fill="red"/></g><g transform="rotate(90 183.3 2925.7) scale(393.7)"><path d="M4.17 0c0 2.954-3.902 4.018-5.4 1.47v-2.94C.268-4.018 4.17-2.954 4.17 0z" fill="maroon" fill-rule="evenodd"/><circle cx="1.27" r="2.45" fill="red"/></g></g><g fill="#faa" fill-rule="evenodd" stroke="#191919" stroke-width=".093"><path d="M26023.96 2790.418h-629.92m629.92 1102.36h-629.92m0-1102.36c8.268-94.488 61.023-147.244 157.48-157.48h314.96c86.614 0 157.48 70.866 157.48 157.48v196.85h-629.92zm0 905.51h629.92v196.85a157.48 157.48 0 0 0-157.48 157.48h-314.96c-96.456-10.236-149.212-62.992-157.48-157.48z" stroke-width="36.6141"/><path d="M25807.425 4050.258v291.338c0 131.102-196.85 131.102-196.85 0v-291.338z" fill="#999" stroke-width="36.6141"/></g><path d="M25808 2632.9h-196.85v-291.34c0-131.23 196.85-131.23 196.85 0z" fill="#999" stroke="#1a1a1a" stroke-width="36.614"/><path d="M25993 3695.9h-566.93v-708.66H25993z" fill="#e9afaf" stroke="#1a1a1a" stroke-width="36.614"/><path d="M25992 3082.6v71.654h-563.78V3082.6z" fill="#500" opacity=".997" stroke="#1a1a1a" stroke-width="36.22"/><path d="M25990 3226.7v71.654h-563.78V3226.7z" opacity=".997" stroke="#1a1a1a" stroke-width="36.22"/><path d="M25989 3372.7v71.653h-563.78V3372.7z" fill="red" opacity=".997" stroke="#1a1a1a" stroke-width="36.22"/><path d="M25992 3568v71.654h-563.78V3568z" fill="olive" opacity=".997" stroke="#1a1a1a" stroke-width="36.22"/><g fill="#faa" fill-rule="evenodd" stroke="#191919" stroke-width=".093"><path d="M31123.96 2790.378h-629.92m629.92 1102.36h-629.92m0-1102.36c8.268-94.488 61.023-147.244 157.48-157.48h314.96c86.614 0 157.48 70.866 157.48 157.48v196.85h-629.92zm0 905.51h629.92v196.85a157.48 157.48 0 0 0-157.48 157.48h-314.96c-96.456-10.236-149.212-62.992-157.48-157.48z" stroke-width="36.6141"/><path d="M30907.425 4050.218v291.338c0 131.102-196.85 131.102-196.85 0v-291.338z" fill="#999" stroke-width="36.6141"/></g><path d="M30908 2632.9h-196.85v-291.34c0-131.23 196.85-131.23 196.85 0z" fill="#999" stroke="#1a1a1a" stroke-width="36.614"/><path d="M31093 3695.9h-566.93v-708.66H31093z" fill="#e9afaf" stroke="#1a1a1a" stroke-width="36.614"/><path d="M31092 3082.5v71.654h-563.78V3082.5z" fill="#500" opacity=".997" stroke="#1a1a1a" stroke-width="36.22"/><path d="M31090 3226.6v71.654h-563.78V3226.6z" opacity=".997" stroke="#1a1a1a" stroke-width="36.22"/><path d="M31089 3372.7v71.653h-563.78V3372.7z" fill="red" opacity=".997" stroke="#1a1a1a" stroke-width="36.22"/><path d="M31092 3568v71.654h-563.78V3568z" fill="olive" opacity=".997" stroke="#1a1a1a" stroke-width="36.22"/><g fill="#faa" fill-rule="evenodd" stroke="#191919" stroke-width=".093"><path d="M21023.96 2790.378h-629.92m629.92 1102.36h-629.92m0-1102.36c8.268-94.488 61.023-147.244 157.48-157.48h314.96c86.614 0 157.48 70.866 157.48 157.48v196.85h-629.92zm0 905.51h629.92v196.85a157.48 157.48 0 0 0-157.48 157.48h-314.96c-96.456-10.236-149.212-62.992-157.48-157.48z" stroke-width="36.6141"/><path d="M20807.425 4050.218v291.338c0 131.102-196.85 131.102-196.85 0v-291.338z" fill="#999" stroke-width="36.6141"/></g><path d="M20808 2632.9h-196.85v-291.34c0-131.23 196.85-131.23 196.85 0z" fill="#999" stroke="#1a1a1a" stroke-width="36.614"/><path d="M20993 3695.9h-566.93v-708.66H20993z" fill="#e9afaf" stroke="#1a1a1a" stroke-width="36.614"/><path d="M20992 3082.5v71.654h-563.78V3082.5z" fill="#500" opacity=".997" stroke="#1a1a1a" stroke-width="36.22"/><path d="M20990 3226.6v71.654h-563.78V3226.6z" opacity=".997" stroke="#1a1a1a" stroke-width="36.22"/><path d="M20989 3372.7v71.653h-563.78V3372.7z" fill="red" opacity=".997" stroke="#1a1a1a" stroke-width="36.22"/><path d="M20992 3568v71.654h-563.78V3568z" fill="olive" opacity=".997" stroke="#1a1a1a" stroke-width="36.22"/><g fill="#faa" fill-rule="evenodd" stroke="#191919" stroke-width=".093"><path d="M5924.26 2690.378h-629.92m629.92 1102.36h-629.92m0-1102.36c8.268-94.488 61.023-147.244 157.48-157.48h314.96c86.614 0 157.48 70.866 157.48 157.48v196.85h-629.92zm0 905.51h629.92v196.85a157.48 157.48 0 0 0-157.48 157.48h-314.96c-96.456-10.236-149.212-62.992-157.48-157.48z" stroke-width="36.6141"/><path d="M5707.725 3950.218v291.338c0 131.102-196.85 131.102-196.85 0v-291.338z" fill="#999" stroke-width="36.6141"/></g><path d="M5707.8 2532.9h-196.85v-291.34c0-131.23 196.85-131.23 196.85 0z" fill="#999" stroke="#1a1a1a" stroke-width="36.614"/><path d="M5892.8 3595.9h-566.93v-708.66h566.93z" fill="#e9afaf" stroke="#1a1a1a" stroke-width="36.614"/><path d="M5891.5 2982.5v71.654h-563.78V2982.5z" fill="#500" opacity=".997" stroke="#1a1a1a" stroke-width="36.22"/><path d="M5889.6 3126.6v71.654h-563.78V3126.6z" opacity=".997" stroke="#1a1a1a" stroke-width="36.22"/><path d="M5889.2 3272.7v71.653h-563.78V3272.7z" fill="red" opacity=".997" stroke="#1a1a1a" stroke-width="36.22"/><path d="M5891.5 3468v71.654h-563.78V3468z" fill="olive" opacity=".997" stroke="#1a1a1a" stroke-width="36.22"/><g fill="#faa" fill-rule="evenodd" stroke="#191919" stroke-width=".093"><path d="M35923.96 2890.378h-629.92m629.92 1102.36h-629.92m0-1102.36c8.268-94.488 61.023-147.244 157.48-157.48h314.96c86.614 0 157.48 70.866 157.48 157.48v196.85h-629.92zm0 905.51h629.92v196.85a157.48 157.48 0 0 0-157.48 157.48h-314.96c-96.456-10.236-149.212-62.992-157.48-157.48z" stroke-width="36.6141"/><path d="M35707.425 4150.218v291.338c0 131.102-196.85 131.102-196.85 0v-291.338z" fill="#999" stroke-width="36.6141"/></g><path d="M35708 2732.9h-196.85v-291.34c0-131.23 196.85-131.23 196.85 0z" fill="#999" stroke="#1a1a1a" stroke-width="36.614"/><path d="M35893 3795.9h-566.93v-708.66H35893z" fill="#e9afaf" stroke="#1a1a1a" stroke-width="36.614"/><path d="M35892 3182.5v71.654h-563.78V3182.5z" fill="#500" opacity=".997" stroke="#1a1a1a" stroke-width="36.22"/><path d="M35890 3326.6v71.654h-563.78V3326.6z" opacity=".997" stroke="#1a1a1a" stroke-width="36.22"/><path d="M35889 3472.7v71.653h-563.78V3472.7z" fill="red" opacity=".997" stroke="#1a1a1a" stroke-width="36.22"/><path d="M35892 3668v71.654h-563.78V3668z" fill="olive" opacity=".997" stroke="#1a1a1a" stroke-width="36.22"/><g fill="#faa" fill-rule="evenodd" stroke="#191919" stroke-width=".093"><path d="M1124.29 2690.378H494.37m629.92 1102.36H494.37m0-1102.36c8.268-94.488 61.023-147.244 157.48-157.48h314.96c86.614 0 157.48 70.866 157.48 157.48v196.85H494.37zm0 905.51h629.92v196.85a157.48 157.48 0 0 0-157.48 157.48H651.85c-96.457-10.236-149.212-62.992-157.48-157.48z" stroke-width="36.6141"/><path d="M907.755 3950.218v291.338c0 131.102-196.85 131.102-196.85 0v-291.338z" fill="#999" stroke-width="36.6141"/></g><path d="M907.77 2532.9H710.92v-291.34c0-131.23 196.85-131.23 196.85 0z" fill="#999" stroke="#1a1a1a" stroke-width="36.614"/><path d="M1092.8 3595.9H525.87v-708.66h566.93z" fill="#e9afaf" stroke="#1a1a1a" stroke-width="36.614"/><path d="M1091.5 2982.5v71.654H527.72V2982.5z" fill="#500" opacity=".997" stroke="#1a1a1a" stroke-width="36.22"/><path d="M1089.6 3126.6v71.654H525.82V3126.6z" opacity=".997" stroke="#1a1a1a" stroke-width="36.22"/><path d="M1089.2 3272.7v71.653H525.42V3272.7z" fill="red" opacity=".997" stroke="#1a1a1a" stroke-width="36.22"/><path d="M1091.5 3468v71.654H527.72V3468z" fill="olive" opacity=".997" stroke="#1a1a1a" stroke-width="36.22"/><g fill="#faa" fill-rule="evenodd" stroke="#191919" stroke-width=".093"><path d="M10923.96 2790.378h-629.92m629.92 1102.36h-629.92m0-1102.36c8.268-94.488 61.023-147.244 157.48-157.48h314.96c86.614 0 157.48 70.866 157.48 157.48v196.85h-629.92zm0 905.51h629.92v196.85a157.48 157.48 0 0 0-157.48 157.48h-314.96c-96.456-10.236-149.212-62.992-157.48-157.48z" stroke-width="36.6141"/><path d="M10707.425 4050.218v291.338c0 131.102-196.85 131.102-196.85 0v-291.338z" fill="#999" stroke-width="36.6141"/></g><path d="M10708 2632.9h-196.85v-291.34c0-131.23 196.85-131.23 196.85 0z" fill="#999" stroke="#1a1a1a" stroke-width="36.614"/><path d="M10893 3695.9h-566.93v-708.66H10893z" fill="#e9afaf" stroke="#1a1a1a" stroke-width="36.614"/><path d="M10892 3082.5v71.654h-563.78V3082.5z" fill="#500" opacity=".997" stroke="#1a1a1a" stroke-width="36.22"/><path d="M10890 3226.6v71.654h-563.78V3226.6z" opacity=".997" stroke="#1a1a1a" stroke-width="36.22"/><path d="M10889 3372.7v71.653h-563.78V3372.7z" fill="red" opacity=".997" stroke="#1a1a1a" stroke-width="36.22"/><path d="M10892 3568v71.654h-563.78V3568z" fill="olive" opacity=".997" stroke="#1a1a1a" stroke-width="36.22"/><g fill="#faa" fill-rule="evenodd" stroke="#191919" stroke-width=".093"><path d="M15923.96 2790.378h-629.92m629.92 1102.36h-629.92m0-1102.36c8.268-94.488 61.023-147.244 157.48-157.48h314.96c86.614 0 157.48 70.866 157.48 157.48v196.85h-629.92zm0 905.51h629.92v196.85a157.48 157.48 0 0 0-157.48 157.48h-314.96c-96.456-10.236-149.212-62.992-157.48-157.48z" stroke-width="36.6141"/><path d="M15707.425 4050.218v291.338c0 131.102-196.85 131.102-196.85 0v-291.338z" fill="#999" stroke-width="36.6141"/></g><path d="M15708 2632.9h-196.85v-291.34c0-131.23 196.85-131.23 196.85 0z" fill="#999" stroke="#1a1a1a" stroke-width="36.614"/><path d="M15893 3695.9h-566.93v-708.66H15893z" fill="#e9afaf" stroke="#1a1a1a" stroke-width="36.614"/><path d="M15892 3082.5v71.654h-563.78V3082.5z" fill="#500" opacity=".997" stroke="#1a1a1a" stroke-width="36.22"/><path d="M15890 3226.6v71.654h-563.78V3226.6z" opacity=".997" stroke="#1a1a1a" stroke-width="36.22"/><path d="M15889 3372.7v71.653h-563.78V3372.7z" fill="red" opacity=".997" stroke="#1a1a1a" stroke-width="36.22"/><path d="M15892 3568v71.654h-563.78V3568z" fill="olive" opacity=".997" stroke="#1a1a1a" stroke-width="36.22"/><g fill="snow" stroke-width="80.329" aria-label="VCD Dump:"><path d="M589.74 312.01h242.87l248.52 691.59 247.89-691.59h242.87l-347.05 936.97H936.78zM2439.2 1197.5q-66.523 34.517-138.69 52.089-72.171 17.572-150.62 17.572-234.08 0-370.9-130.54-136.81-131.16-136.81-355.21 0-224.67 136.81-355.21 136.81-131.16 370.9-131.16 78.447 0 150.62 17.572 72.171 17.572 138.69 52.089v193.92q-67.15-45.813-132.42-67.15t-137.44-21.337q-129.28 0-203.33 82.84-74.054 82.84-74.054 228.44 0 144.97 74.054 227.81t203.33 82.84q72.171 0 137.44-21.338t132.42-67.15zM2881 494.63v571.72h86.605q148.11 0 225.93-73.426 78.447-73.426 78.447-213.37 0-139.32-77.819-212.12t-226.55-72.798zm-241.62-182.62h254.79q213.37 0 317.55 30.751 104.8 30.124 179.49 102.92 65.895 63.385 97.902 146.22 32.006 82.84 32.006 187.64 0 106.06-32.006 189.53-32.006 82.84-97.902 146.22-75.309 72.798-180.74 103.55-105.43 30.124-316.3 30.124h-254.79zM4395.3 494.63v571.72h86.605q148.11 0 225.93-73.426 78.447-73.426 78.447-213.37 0-139.32-77.819-212.12-77.819-72.798-226.55-72.798zm-241.62-182.62h254.79q213.37 0 317.55 30.751 104.8 30.124 179.49 102.92 65.895 63.385 97.901 146.22 32.006 82.84 32.006 187.64 0 106.06-32.006 189.53-32.006 82.84-97.901 146.22-75.309 72.798-180.74 103.55-105.43 30.124-316.3 30.124h-254.79zM5203 975.35V546.09h225.93v70.288q0 57.109-.628 143.71-.627 85.978-.627 114.85 0 84.722 4.393 122.38 4.393 37.027 15.062 53.971 13.807 21.965 35.772 33.889 22.593 11.924 51.46 11.924 70.289 0 110.45-53.971 40.166-53.971 40.166-149.99v-347.05h224.67v702.88h-224.67v-101.67q-50.834 61.502-107.94 90.998-56.482 28.868-124.89 28.868-121.75 0-185.76-74.681-63.385-74.681-63.385-217.14zM6777 662.82q42.675-65.268 101.04-99.157 58.992-34.517 129.28-34.517 121.12 0 184.51 74.681 63.385 74.681 63.385 217.14v428h-225.93v-366.5q.628-8.158.628-16.944.627-8.786.627-25.103 0-74.681-21.965-107.94-21.965-33.889-70.916-33.889-64.012 0-99.156 52.716-34.517 52.716-35.772 152.5v345.17h-225.93v-366.5q0-116.73-20.082-149.99-20.082-33.889-71.543-33.889-64.64 0-99.784 53.344-35.144 52.716-35.144 151.25v345.79h-225.93v-702.88h225.93v102.92q41.42-59.619 94.764-89.743 53.971-30.124 118.61-30.124 72.798 0 128.65 35.144t84.722 98.529zM7689.5 1147.3v369.01h-224.67V546.08h224.67V649q46.44-61.502 102.92-90.371 56.482-29.496 129.91-29.496 129.91 0 213.37 103.55 83.467 102.92 83.467 265.46 0 162.54-83.467 266.09-83.467 102.92-213.37 102.92-73.426 0-129.91-28.868-56.482-29.496-102.92-90.998zm149.36-454.99q-72.171 0-111.08 53.344-38.282 52.716-38.282 152.5 0 99.784 38.282 153.13Q7766.69 1104 7838.86 1104t109.83-52.716q38.282-52.716 38.282-153.13t-38.282-153.13q-37.654-52.716-109.83-52.716zM8420.6 546.09h226.55v242.87H8420.6zm0 460.01h226.55v242.87H8420.6z"/></g><g stroke-width="80.329" aria-label="Start/Stop"><path d="M40616 2095.5v165.26q-64.327-28.764-125.52-43.407-61.189-14.643-115.58-14.643-72.171 0-106.69 19.873-34.517 19.873-34.517 61.711 0 31.379 23.011 49.16 23.534 17.258 84.723 29.81l85.768 17.258q130.22 26.149 185.14 79.493 54.912 53.344 54.912 151.66 0 129.18-76.877 192.46-76.355 62.757-233.77 62.757-74.263 0-149.05-14.12t-149.57-41.838v-169.97q74.786 39.746 144.34 60.142 70.08 19.873 134.93 19.873 65.895 0 100.94-21.965 35.039-21.965 35.039-62.757 0-36.608-24.057-56.482-23.534-19.873-94.659-35.562l-77.924-17.258q-117.15-25.103-171.54-80.016-53.866-54.913-53.866-148 0-116.62 75.309-179.38t216.51-62.757q64.326 0 132.31 9.937 67.987 9.413 140.68 28.764zM41040 2099.7v166.31h192.98v133.88H41040v248.41q0 40.792 16.212 55.436 16.213 14.12 64.327 14.12h96.228v133.88h-160.56q-110.87 0-157.42-46.022-46.022-46.545-46.022-157.42v-248.41h-93.09v-133.88h93.09v-166.31zM41610 2588.2q-58.574 0-88.384 19.873-29.286 19.873-29.286 58.574 0 35.563 23.534 55.959 24.057 19.873 66.418 19.873 52.821 0 88.906-37.654 36.086-38.178 36.086-95.182v-21.442zm286.07-70.602v334.18h-188.8v-86.814q-37.655 53.344-84.723 77.924-47.068 24.057-114.53 24.057-90.998 0-148-52.821-56.482-53.344-56.482-138.07 0-103.03 70.602-151.14 71.126-48.114 222.79-48.114h110.35v-14.643q0-44.453-35.04-64.849-35.039-20.919-109.3-20.919-60.143 0-111.92 12.028t-96.228 36.086v-142.77q60.143-14.643 120.81-21.965 60.666-7.845 121.33-7.845 158.46 0 228.54 62.757 70.602 62.234 70.602 202.92zM42506 2425.5q-24.58-11.506-49.16-16.735-24.057-5.753-48.637-5.753-72.171 0-111.39 46.545-38.701 46.022-38.701 132.31v269.86h-187.23v-585.74h187.23v96.228q36.086-57.528 82.631-83.676 47.068-26.672 112.44-26.672 9.414 0 20.396 1.046 10.983.523 31.902 3.138zM42803 2099.7v166.31h192.98v133.88H42803v248.41q0 40.792 16.212 55.436 16.212 14.12 64.326 14.12h96.229v133.88h-160.56q-110.87 0-157.42-46.022-46.023-46.545-46.023-157.42v-248.41h-93.09v-133.88h93.09v-166.31zM43296 2070.9h116.1l-275.61 880.17h-115.58zM44054 2095.5v165.26q-64.327-28.764-125.52-43.407-61.189-14.643-115.58-14.643-72.171 0-106.69 19.873-34.517 19.873-34.517 61.711 0 31.379 23.011 49.16 23.534 17.258 84.723 29.81l85.768 17.258q130.22 26.149 185.14 79.493t54.913 151.66q0 129.18-76.878 192.46-76.355 62.757-233.77 62.757-74.263 0-149.05-14.12t-149.57-41.838v-169.97q74.786 39.746 144.34 60.142 70.079 19.873 134.93 19.873 65.895 0 100.94-21.965 35.039-21.965 35.039-62.757 0-36.608-24.057-56.482-23.534-19.873-94.659-35.562l-77.923-17.258q-117.15-25.103-171.54-80.016-53.867-54.913-53.867-148 0-116.62 75.309-179.38t216.51-62.757q64.326 0 132.31 9.937 67.988 9.413 140.68 28.764zM44478 2099.7v166.31h192.98v133.88H44478v248.41q0 40.792 16.212 55.436 16.213 14.12 64.327 14.12h96.228v133.88h-160.56q-110.87 0-157.42-46.022-46.022-46.545-46.022-157.42v-248.41h-93.091v-133.88h93.091v-166.31zM45064 2385.8q-62.234 0-95.182 44.976-32.425 44.453-32.425 128.65 0 84.2 32.425 129.18 32.948 44.453 95.182 44.453 61.188 0 93.613-44.453 32.425-44.976 32.425-129.18 0-84.2-32.425-128.65-32.425-44.976-93.613-44.976zm0-133.88q151.14 0 235.86 81.585 85.246 81.585 85.246 225.93 0 144.34-85.246 225.93-84.722 81.585-235.86 81.585-151.66 0-237.43-81.585-85.246-81.585-85.246-225.93 0-144.34 85.246-225.93 85.768-81.585 237.43-81.585zM45709 2767v307.51h-187.23v-808.52H45709v85.768q38.7-51.252 85.768-75.309 47.068-24.58 108.26-24.58 108.26 0 177.81 86.291 69.556 85.768 69.556 221.22 0 135.45-69.556 221.74-69.557 85.768-177.81 85.768-61.189 0-108.26-24.057-47.068-24.58-85.768-75.832zm124.47-379.16q-60.143 0-92.568 44.453-31.901 43.93-31.901 127.08 0 83.154 31.901 127.61 32.425 43.93 92.568 43.93 60.142 0 91.521-43.93 31.902-43.93 31.902-127.61 0-83.676-31.902-127.61-31.379-43.93-91.521-43.93z"/></g><g stroke-width="80.329" aria-label="View"><path d="M41598 5200.7h202.39l207.1 576.32 206.58-576.32h202.39l-289.21 780.81h-240.05zM42493 5395.7h187.23v585.74H42493zm0-228.02h187.23v152.71H42493zM43444 5687v53.344h-437.73q6.799 65.895 47.591 98.843 40.792 32.948 114.01 32.948 59.097 0 120.81-17.258 62.235-17.781 127.61-53.344v144.34q-66.418 25.103-132.84 37.654-66.418 13.074-132.84 13.074-158.99 0-247.37-80.539-87.86-81.062-87.86-226.97 0-143.3 86.291-225.4 86.815-82.108 238.48-82.108 138.07 0 220.7 83.154 83.154 83.154 83.154 222.27zm-192.46-62.234q0-53.344-31.379-85.768-30.856-32.948-81.062-32.948-54.389 0-88.383 30.856-33.994 30.333-42.361 87.86zM43534 5395.7h182l98.32 403.74 98.843-403.74h156.37l98.32 399.56 98.843-399.56h182l-154.28 585.74h-204.48l-98.843-402.69-98.32 402.69h-204.48z"/></g><g fill="snow" stroke-width="80.329" aria-label="Recording"><path d="M40251 10393q69.608 0 99.522-25.887 30.49-25.887 30.49-85.14 0-58.678-30.49-83.99-29.914-25.312-99.522-25.312h-93.195v220.33zm-93.195 153.02v325.03h-221.48v-858.88h338.26q169.71 0 248.52 56.952 79.388 56.953 79.388 180.06 0 85.141-41.42 139.79-40.844 54.651-123.68 80.539 45.447 10.355 81.114 47.172 36.242 36.242 73.06 110.45l120.23 243.92h-235.86l-104.7-213.43q-31.64-64.43-64.431-88.017-32.215-23.586-86.291-23.586zM41477 10548v58.678h-481.5q7.478 72.484 52.35 108.73 44.871 36.242 125.41 36.242 65.006 0 132.89-18.984 68.457-19.559 140.37-58.677v158.78q-73.059 27.613-146.12 41.42-73.06 14.382-146.12 14.382-174.88 0-272.1-88.593-96.646-89.167-96.646-249.67 0-157.62 94.92-247.94 95.496-90.318 262.32-90.318 151.87 0 242.76 91.468 91.469 91.469 91.469 244.49zm-211.7-68.458q0-58.678-34.516-94.345-33.941-36.242-89.168-36.242-59.828 0-97.221 33.941-37.393 33.366-46.597 96.646zM42154 10247v167.98q-41.995-28.764-84.565-42.57-41.995-13.807-87.442-13.807-86.291 0-134.61 50.624-47.747 50.049-47.747 140.37t47.747 140.94q48.323 50.049 134.61 50.049 48.323 0 91.469-14.382 43.721-14.382 80.538-42.57v168.56q-48.323 17.833-98.372 26.462-49.473 9.205-99.522 9.205-174.31 0-272.68-89.168-98.372-89.742-98.372-249.09t98.372-248.52q98.371-89.743 272.68-89.743 50.624 0 99.522 9.204 49.474 8.629 98.372 26.463zM42638 10359q-68.458 0-104.7 49.474-35.667 48.898-35.667 141.52t35.667 142.09q36.242 48.899 104.7 48.899 67.307 0 102.97-48.899 35.667-49.473 35.667-142.09t-35.667-141.52Q42705.303 10359 42638 10359zm0-147.27q166.25 0 259.45 89.743 93.77 89.742 93.77 248.52 0 158.78-93.77 248.52-93.194 89.743-259.45 89.743-166.83 0-261.18-89.743-93.769-89.743-93.769-248.52 0-158.78 93.769-248.52 94.345-89.743 261.18-89.743zM43619 10403q-27.038-12.656-54.076-18.409-26.462-6.328-53.5-6.328-79.388 0-122.53 51.199-42.571 50.624-42.571 145.54v296.84h-205.95v-644.31h205.95v105.85q39.694-63.28 90.894-92.044 51.774-29.339 123.68-29.339 10.355 0 22.436 1.151 12.081.575 35.092 3.451zM44160 10322v-345.16h207.1v895.13H44160v-93.195q-42.57 56.952-93.77 83.415-51.199 26.463-118.51 26.463-119.08 0-195.59-94.345-76.511-94.92-76.511-243.92t76.511-243.34q76.512-94.92 195.59-94.92 66.732 0 117.93 27.038 51.775 26.462 94.345 82.839zm-135.76 417.07q66.157 0 100.67-48.322 35.092-48.323 35.092-140.37t-35.092-140.37q-34.516-48.323-100.67-48.323-65.581 0-100.67 48.323-34.517 48.323-34.517 140.37t34.517 140.37q35.091 48.322 100.67 48.322zM44565 10227h205.95v644.31H44565zm0-250.82h205.95v167.98H44565zM45617 10479v392.34h-207.1v-300.29q0-83.415-4.027-115.06-3.451-31.64-12.656-46.597-12.08-20.135-32.79-31.065-20.71-11.505-47.173-11.505-64.43 0-101.25 50.049-36.817 49.473-36.817 137.49v316.98h-205.95v-644.31h205.95v94.345q46.597-56.377 98.947-82.839 52.35-27.038 115.63-27.038 111.6 0 169.13 68.458 58.103 68.457 58.103 199.04zM46246 10762q-42.571 56.376-93.77 82.839t-118.51 26.463q-117.93 0-195.02-92.619-77.087-93.195-77.087-237.01 0-144.39 77.087-236.44 77.087-92.619 195.02-92.619 67.307 0 118.51 26.462 51.199 26.463 93.77 83.415v-95.496h207.1v579.3q0 155.32-98.372 237.01-97.796 82.265-284.18 82.265-60.403 0-116.78-9.205-56.377-9.204-113.33-28.188v-160.5q54.076 31.065 105.85 46.022 51.775 15.533 104.12 15.533 101.25 0 148.42-44.296 47.173-44.296 47.173-138.64zm-135.76-400.97q-63.855 0-99.522 47.173-35.667 47.172-35.667 133.46 0 88.592 34.516 134.61 34.517 45.447 100.67 45.447 64.431 0 100.1-47.173 35.667-47.172 35.667-132.89 0-86.291-35.667-133.46-35.667-47.173-100.1-47.173z"/></g><g stroke-width=".093"><g transform="rotate(90 17562.5 25637) scale(393.7)" stroke="#000"><path d="M4.17 0c0 2.954-3.902 4.018-5.4 1.47v-2.94C.268-4.018 4.17-2.954 4.17 0z" fill="maroon" fill-rule="evenodd"/><circle cx="1.27" r="2.45" fill="red"/></g></g></svg>