<svg width="183" height="246" viewBox="113770000 45441000 37388000 50088000" xmlns="http://www.w3.org/2000/svg"><defs><mask id="c"><g fill="#fff" fill-opacity="1" stroke="#fff" stroke-linecap="round" stroke-linejoin="round" stroke-width="1"><path d="M147110000 58000000v-1700000h1700000v1700000z" fill-rule="evenodd"/><circle cx="147960000" cy="59690000" r="850000"/><circle cx="147960000" cy="62230000" r="850000"/><path d="M135880000 57135001h1300000v1300000h-1300000z" fill-rule="evenodd"/><circle cx="137800000" cy="59055000" r="650000"/><circle cx="136520000" cy="60325000" r="650000"/></g></mask><mask id="d"><path fill="#fff" d="M113770000 45441000h37388000v50088000h-37388000z"/><g fill-opacity="1" stroke="#000" stroke-linecap="round" stroke-linejoin="round" stroke-width="1"><path d="M147110000 58000000v-1700000h1700000v1700000z" fill-rule="evenodd"/><circle cx="147960000" cy="59690000" r="850000"/><circle cx="147960000" cy="62230000" r="850000"/><path d="M135880000 57135001h1300000v1300000h-1300000z" fill-rule="evenodd"/><circle cx="137800000" cy="59055000" r="650000"/><circle cx="136520000" cy="60325000" r="650000"/></g></mask><mask id="b"><path fill="#fff" d="M113770000 45441000h37388000v50088000h-37388000z"/><path stroke="#000" stroke-linecap="round" stroke-width="1000000" d="M147960000 57150000h0M147960000 59690000h0M147960000 62230000h0"/><path stroke="#000" stroke-linecap="round" stroke-width="750000" d="M136520000 57785000h0M137800000 59055000h0M136520000 60325000h0"/></mask><clipPath id="a"><path d="M113790000 95504000h37338000V45466000h-37338000v50038000" fill-rule="evenodd"/></clipPath></defs><g clip-path="url(#a)" mask="url(#b)"><g fill="#313d63" stroke="#313d63"><path d="M113790000 95504000h37338000V45466000h-37338000v50038000" fill-rule="evenodd"/><g fill-opacity="0" stroke-linecap="round" stroke-linejoin="round" stroke-width="50000" fill="none" stroke="#000"><path d="M151130000 45466000h-37338000M151130000 95504000V45466000M113790000 45466000v50038000M113790000 95504000h37338000"/></g></g><g fill-opacity="1" stroke-linecap="round" stroke-linejoin="round" stroke-width="1" fill="#9c6b28" stroke="#9c6b28"><path d="M147110000 58000000v-1700000h1700000v1700000z" fill-rule="evenodd"/><circle cx="147960000" cy="59690000" r="850000"/><circle cx="147960000" cy="62230000" r="850000"/><path d="M135880000 57135001h1300000v1300000h-1300000z" fill-rule="evenodd"/><circle cx="137800000" cy="59055000" r="650000"/><circle cx="136520000" cy="60325000" r="650000"/></g><g fill="#212d53" stroke="#212d53" stroke-linecap="round" stroke-linejoin="round"><path d="M147110000 58000000v-1700000h1700000v1700000z" fill-rule="evenodd"/><circle cx="147960000" cy="59690000" r="850000"/><circle cx="147960000" cy="62230000" r="850000"/><path d="M135880000 57135001h1300000v1300000h-1300000z" fill-rule="evenodd"/><circle cx="137800000" cy="59055000" r="650000"/><circle cx="136520000" cy="60325000" r="650000"/><g fill-opacity="0" stroke-width="1000000" fill="none"><path d="M138430000 62230000l-1905000-1905000M147960000 62230000h-9525000M144400000 59055000h-6604000M144400000 59055000l635000 635000M145030000 59690000h2921000M147960000 57150000h-10795000M137160000 57150000l-635000 635000"/></g><g><circle cx="147960000" cy="57150000" r="175000"/><circle cx="147960000" cy="59690000" r="175000"/><circle cx="147960000" cy="62230000" r="175000"/><circle cx="136520000" cy="57785000" r="175000"/><circle cx="137800000" cy="59055000" r="175000"/><circle cx="136520000" cy="60325000" r="175000"/></g></g><g fill="#b5ae30" mask="url(#c)" stroke="#b5ae30" stroke-linecap="round" stroke-linejoin="round"><path d="M147110000 58000000v-1700000h1700000v1700000z" fill-rule="evenodd"/><circle cx="147960000" cy="59690000" r="850000"/><circle cx="147960000" cy="62230000" r="850000"/><path d="M135880000 57135001h1300000v1300000h-1300000z" fill-rule="evenodd"/><circle cx="137800000" cy="59055000" r="650000"/><circle cx="136520000" cy="60325000" r="650000"/><g fill-opacity="0" stroke-width="1000000" fill="none"><path d="M138430000 62230000l-1905000-1905000M147960000 62230000h-9525000M144400000 59055000h-6604000M144400000 59055000l635000 635000M145030000 59690000h2921000M147960000 57150000h-10795000M137160000 57150000l-635000 635000"/></g><g><circle cx="147960000" cy="57150000" r="175000"/><circle cx="147960000" cy="59690000" r="175000"/><circle cx="147960000" cy="62230000" r="175000"/><circle cx="136520000" cy="57785000" r="175000"/><circle cx="137800000" cy="59055000" r="175000"/><circle cx="136520000" cy="60325000" r="175000"/></g></g><g fill="#f0f0f0" mask="url(#d)" stroke="#f0f0f0" stroke-linecap="round" stroke-linejoin="round"><g fill-opacity="0"><g stroke-width="375000"><g class="stroked-text"><path d="M144470000 94537964v-928572l571429 500000v-214285l71428-142857 71429-71429 142857-71429h357143l142857 71429 71428 71429 71429 142857v428571l-71429 142857-71428 71429M145400000 92966535v-1142857M144470000 91323678l1500000-500000-1500000-500000M145970000 89823678h-1500000v-357143l71429-214285 142857-142858 142857-71428 285714-71429h214286l285714 71429 142857 71428 142857 142858 71429 214285v357143M145970000 88323678h-1500000v-357143l71429-214285 142857-142858 142857-71428 285714-71429h214286l285714 71429 142857 71428 142857 142858 71429 214285v357143" fill="none"/></g><g class="stroked-text"><path d="M137500000 94466535l-71428-71428-71429-142857v-357143l71429-142857 71428-71429 142857-71429h142857l214286 71429 857143 857143v-928572M138280000 92966535v-1142857M138850000 91109392h-1500000v-357142l71429-214286 142857-142857 142857-71429 285714-71428h214286l285714 71428 142857 71429 142857 142857 71429 214286v357142M139000000 88609392l-71428 142858-357143 357142-71429 142858v142857" fill="none"/><path d="M138850000 89323678l-71429 142857-142857 142857-285714 71429h-500000l-285714-71429-142857-142857-71429-142857v-285714l71429-142857 142857-142857 285714-71429h500000l285714 71429 142857 142857 71429 142857v285714" fill="none"/></g><g class="stroked-text"><path d="M131740000 93609392v857143M131740000 94037964h-1500000l214286 142857 142857 142857 71428 142857M131170000 92966535v-1142857M130310000 90323678l-71429 142857v214286l71429 214286 142857 142857 142857 71428 285714 71429h214286l285714-71429 142857-71428 142857-142857 71429-214286v-142857l-71429-214286-71428-71428h-500000v285714M131740000 89609392h-1500000l1500000-857142h-1500000M131740000 88037964h-1500000v-357143l71429-214286 142857-142857 142857-71428 285714-71429h214286l285714 71429 142857 71428 142857 142857 71429 214286v357143" fill="none"/></g></g><g class="stroked-text" stroke-width="750000"><path d="M128370000 51522142v-3000000h714286l428571 142858 285715 285714 142857 285714 142857 571429v428571l-142857 571429-142857 285714-285715 285714-428571 142857h-714286M131220000 51379285l428571 142857h714286l285714-142857 142858-142857 142857-285714v-285714l-142857-285715-142858-142857-285714-142857-571428-142857-285715-142857-142857-142857-142857-285715v-285714l142857-285714 142857-142857 285715-142858h714285l428572 142858M135800000 51522142h-1714286M134940000 51522142v-3000000l-285715 428572-285714 285714-285714 142857M137510000 49807857l-285714-142857-142857-142858-142857-285714v-142857l142857-285714 142857-142857 285714-142858h571429l285714 142858 142857 142857 142857 285714v142857l-142857 285714-142857 142858-285714 142857h-571429l-285714 142857-142857 142857-142857 285714v571429l142857 285714 142857 142857 285714 142857h571429l285714-142857 142857-142857 142857-285714v-571429l-142857-285714-142857-142857-285714-142857M140940000 49950714l428571 142857 142857 142857 142857 285714v428572l-142857 285714-142857 142857-285714 142857h-1142857v-3000000h1000000l285714 142858 142857 142857 142857 285714v285714l-142857 285715-142857 142857-285714 142857h-1000000M142800000 48807857l142857-142857 285714-142858h714286l285714 142858 142857 142857 142857 285714v285714l-142857 428572-1714286 1714285h1857143M146370000 48522142h285714l285715 142858 142857 142857 142857 285714 142857 571429v714285l-142857 571429-142857 285714-142857 142857-285715 142857h-285714l-285714-142857-142857-142857-142857-285714-142858-571429v-714285l142858-571429 142857-285714 142857-142857 285714-142858" fill="none"/></g><g stroke-width="120000" fill="none"><path d="M149280000 55820000v1330000M146620000 58420000h2660000M149280000 58420000v5140000M146620000 63560000h2660000M147960000 55820000h1330000M146620000 58420000v5140000M134680000 57255000v3600000M139130000 59055000a2600000 2600000 0 0 0-4438479-1838478M134690000 60893478a2600000 2600000 0 0 0 4438478-1838478"/></g></g><circle cx="147960000" cy="57150000" r="175000"/><circle cx="147960000" cy="59690000" r="175000"/><circle cx="147960000" cy="62230000" r="175000"/><circle cx="136520000" cy="57785000" r="175000"/><circle cx="137800000" cy="59055000" r="175000"/><circle cx="136520000" cy="60325000" r="175000"/></g><g fill-opacity="0" stroke-linecap="round" stroke-linejoin="round" stroke-width="50000" fill="none" stroke="#000"><path d="M151130000 45466000h-37338000M151130000 95504000V45466000M113790000 45466000v50038000M113790000 95504000h37338000"/></g></g><g stroke-width=".093"><path d="M149230000 63500000v-7620000h-2540000v7620000z" fill="#1a1a1a" fill-rule="evenodd" stroke="#000" stroke-width="93000"/><g stroke="#000"><path d="M148560000 57749600v-1200000h-1200000v1200000z" fill="#666" fill-rule="evenodd" stroke-width="93000"/><g fill="none"><path d="M147360000 56549600l299000 299000M147360000 57749600l299000-299000M147659000 56848600v602000M148560000 56549600l-299000 299000M148261000 56848600h-602000M148560000 57749600l-299000-299000M148261000 57450600v-602000M147659000 57450600h602000" stroke-width="93000"/></g><path d="M148260000 57449600v-600000h-600000v600000z" fill="olive" fill-rule="evenodd" stroke-width="93000"/><g fill="none"><path d="M147860000 56899600v-50000M147860000 57399600v-500000M147860000 57449600v-50000M148060000 57449600v-50000M147860000 57399600h200000M148060000 57399600v-500000M148060000 56899600v-50000M147860000 56899600h200000" stroke-width="93000"/></g><g><path d="M148560000 60289600v-1200000h-1200000v1200000z" fill="#666" fill-rule="evenodd" stroke-width="93000"/><g fill="none"><path d="M147360000 59089600l299000 299000M147360000 60289600l299000-299000M147659000 59388600v602000M148560000 59089600l-299000 299000M148261000 59388600h-602000M148560000 60289600l-299000-299000M148261000 59990600v-602000M147659000 59990600h602000" stroke-width="93000"/></g><path d="M148260000 59989600v-600000h-600000v600000z" fill="olive" fill-rule="evenodd" stroke-width="93000"/><g fill="none"><path d="M147860000 59439600v-50000M147860000 59939600v-500000M147860000 59989600v-50000M148060000 59989600v-50000M147860000 59939600h200000M148060000 59939600v-500000M148060000 59439600v-50000M147860000 59439600h200000" stroke-width="93000"/></g></g><g><path d="M148560000 62829600v-1200000h-1200000v1200000z" fill="#666" fill-rule="evenodd" stroke-width="93000"/><g fill="none"><path d="M147360000 61629600l299000 299000M147360000 62829600l299000-299000M147659000 61928600v602000M148560000 61629600l-299000 299000M148261000 61928600h-602000M148560000 62829600l-299000-299000M148261000 62530600v-602000M147659000 62530600h602000" stroke-width="93000"/></g><path d="M148260000 62529600v-600000h-600000v600000z" fill="olive" fill-rule="evenodd" stroke-width="93000"/><g fill="none"><path d="M147860000 61979600v-50000M147860000 62479600v-500000M147860000 62529600v-50000M148060000 62529600v-50000M147860000 62479600h200000M148060000 62479600v-500000M148060000 61979600v-50000M147860000 61979600h200000" stroke-width="93000"/></g></g></g></g><g stroke="#000" stroke-width=".093"><path d="M135190000 57039250v4031500c1605700 1059400 3745000-92160 3745000-2015800 0-1923600-2139300-3075200-3745000-2015800z" fill="#1a1a1a" fill-rule="evenodd" stroke-width="93000"/></g></svg>