<svg width="20.818" height="19.306" viewBox="0 0 5.508 5.108" xmlns="http://www.w3.org/2000/svg"><path fill="#313d63" stroke="#313d63" stroke-width=".013" d="M-.434-.335h6.763v6.042H-.434z"/><g fill="#999" fill-rule="evenodd" stroke="#191919"><g stroke-width=".013"><path d="M5.404 3.754h-.15v.9h.2v-.9h-.05zM5.404 1.354h.05v-.9h-.05 0-.15v.9h.15zM.254.454h-.2v.9h.2v-.9z"/></g><path d="M.257 4.652l-.003-.898h-.2v.9h.2z" stroke-width=".015"/></g><g stroke="#191919" stroke-width=".013"><path d="M5.254 4.019V.054h-5v5h3.964" fill="#f9f9f9" fill-rule="evenodd"/><circle transform="scale(1 -1)" cx="2.754" cy="-2.554" r="1.967" fill="#e6e6e6"/><circle transform="scale(1 -1)" cx="2.754" cy="-2.554" r="1.667" fill="#b3b3b3"/></g><g fill="none" stroke="#191919" stroke-width=".013"><path d="M4.187 4.979l.004.008.003.009.004.008.003.008.003.007.003.007.002.006.003.006.002.004.001.005.002.003v.002l.001.002h0M4.218 5.054l1.036-1.036M5.179 3.987l.008.004.009.003.008.004.015.006.007.003.006.002.006.003.004.002.005.001.003.002.004.001h0M.254 5.054l.075-.075M5.254.054l-.075.075M.254.054l.075.075"/></g><path d="M4.218 5.054h1.036V4.018" fill="#f2f2f2" fill-rule="evenodd" stroke="#191919" stroke-width=".013"/><g fill="none" stroke="#191919" stroke-width=".013"><path d="M4.187 4.979l.992-.992M5.179 3.987V.13M5.179.129H.329M.329.129v4.85M.329 4.979h3.858M5.404 1.354v-.9M5.404 4.654v-.9"/></g><path d="M.104 3.754v.9" fill="#b3b3b3" fill-rule="evenodd" stroke="#191919" stroke-width=".013"/><path d="M.104.454v.9" fill="none" stroke="#191919" stroke-width=".013"/></svg>