<svg width="491" height="288" version="1.1" viewBox="0 0 39419 23119" xmlns="http://www.w3.org/2000/svg">
 <path d="M 2,0 V 23110 H 39412 V 0 H 2" fill="#313d63" fill-rule="evenodd" stroke="#313d63"/>
 <path d="M 39412,0 H 2 M 39412,23110 V 0 M 2,23110 H 39412 M 2,0 v 23110" fill="none" stroke="#000" stroke-linecap="round" stroke-linejoin="round" stroke-width="19.685"/>
 <path d="m32313 6979 2.4 0.4 2.3 0.6 2.3 0.8 2.2 1 2 1.3 2 1.4 1.8 1.6 1.6 1.8 1.4 2 1.3 2 1 2.2 0.8 2.3 0.6 2.3 0.4 2.4 0.1 2.4v265.8l-0.1 2.4-0.4 2.4-0.6 2.3-0.8 2.3-1 2.2-1.3 2.1-1.4 1.9-1.6 1.8-1.8 1.6-2 1.4-2 1.3-2.2 1-2.3 0.8-2.3 0.6-2.4 0.4-2.4 0.1h-49.2l-2.5-0.1-2.3-0.4-2.4-0.6-2.3-0.8-2.1-1-2.1-1.3-1.9-1.4-1.8-1.6-1.7-1.8-1.4-1.9-1.2-2.1-1.1-2.2-0.8-2.3-0.6-2.3-0.3-2.4-0.1-2.4v-265.8l0.1-2.4 0.3-2.4 0.6-2.3 0.8-2.3 1.1-2.2 1.2-2 1.4-2 1.7-1.8 1.8-1.6 1.9-1.4 2.1-1.3 2.1-1 2.3-0.8 2.4-0.6 2.3-0.4 2.5-0.1h49.2zm197 0 2.4 0.4 2.4 0.6 2.2 0.8 2.2 1 2.1 1.3 1.9 1.4 1.8 1.6 1.6 1.8 1.5 2 1.2 2 1.1 2.2 0.8 2.3 0.6 2.3 0.3 2.4 0.1 2.4v265.8l-0.1 2.4-0.3 2.4-0.6 2.3-0.8 2.3-1.1 2.2-1.2 2.1-1.5 1.9-1.6 1.8-1.8 1.6-1.9 1.4-2.1 1.3-2.2 1-2.2 0.8-2.4 0.6-2.4 0.4-2.4 0.1h-49.2l-2.4-0.1-2.4-0.4-2.3-0.6-2.3-0.8-2.2-1-2.1-1.3-1.9-1.4-1.8-1.6-1.6-1.8-1.4-1.9-1.3-2.1-1-2.2-0.8-2.3-0.6-2.3-0.4-2.4-0.1-2.4v-265.8l0.1-2.4 0.4-2.4 0.6-2.3 0.8-2.3 1-2.2 1.3-2 1.4-2 1.6-1.8 1.8-1.6 1.9-1.4 2.1-1.3 2.2-1 2.3-0.8 2.3-0.6 2.4-0.4 2.4-0.1h49.2zm197 0 2.4 0.4 2.3 0.6 2.3 0.8 2.2 1 2 1.3 2 1.4 1.8 1.6 1.6 1.8 1.4 2 1.3 2 1 2.2 0.8 2.3 0.6 2.3 0.4 2.4 0.1 2.4v265.8l-0.1 2.4-0.4 2.4-0.6 2.3-0.8 2.3-1 2.2-1.3 2.1-1.4 1.9-1.6 1.8-1.8 1.6-2 1.4-2 1.3-2.2 1-2.3 0.8-2.3 0.6-2.4 0.4-2.4 0.1h-49.2l-2.4-0.1-2.4-0.4-2.4-0.6-2.3-0.8-2.1-1-2.1-1.3-1.9-1.4-1.8-1.6-1.7-1.8-1.4-1.9-1.2-2.1-1.1-2.2-0.8-2.3-0.6-2.3-0.3-2.4-0.1-2.4v-265.8l0.1-2.4 0.3-2.4 0.6-2.3 0.8-2.3 1.1-2.2 1.2-2 1.4-2 1.7-1.8 1.8-1.6 1.9-1.4 2.1-1.3 2.1-1 2.3-0.8 2.4-0.6 2.4-0.4 2.4-0.1h49.2zm197 0 2.4 0.4 2.4 0.6 2.2 0.8 2.2 1 2.1 1.3 1.9 1.4 1.8 1.6 1.6 1.8 1.5 2 1.2 2 1.1 2.2 0.8 2.3 0.6 2.3 0.3 2.4 0.1 2.4v265.8l-0.1 2.4-0.3 2.4-0.6 2.3-0.8 2.3-1.1 2.2-1.2 2.1-1.5 1.9-1.6 1.8-1.8 1.6-1.9 1.4-2.1 1.3-2.2 1-2.2 0.8-2.4 0.6-2.4 0.4-2.4 0.1h-49.2l-2.4-0.1-2.4-0.4-2.3-0.6-2.3-0.8-2.2-1-2.1-1.3-1.9-1.4-1.8-1.6-1.6-1.8-1.4-1.9-1.3-2.1-1-2.2-0.8-2.3-0.6-2.3-0.4-2.4-0.1-2.4v-265.8l0.1-2.4 0.4-2.4 0.6-2.3 0.8-2.3 1-2.2 1.3-2 1.4-2 1.6-1.8 1.8-1.6 1.9-1.4 2.1-1.3 2.2-1 2.3-0.8 2.3-0.6 2.4-0.4 2.4-0.1h49.2zm197 0 2.4 0.4 2.3 0.6 2.3 0.8 2.2 1 2 1.3 2 1.4 1.8 1.6 1.6 1.8 1.4 2 1.3 2 1 2.2 0.8 2.3 0.6 2.3 0.4 2.4 0.1 2.4v265.8l-0.1 2.4-0.4 2.4-0.6 2.3-0.8 2.3-1 2.2-1.3 2.1-1.4 1.9-1.6 1.8-1.8 1.6-2 1.4-2 1.3-2.2 1-2.3 0.8-2.3 0.6-2.4 0.4-2.4 0.1h-49.2l-2.4-0.1-2.4-0.4-2.4-0.6-2.3-0.8-2.1-1-2.1-1.3-1.9-1.4-1.8-1.6-1.7-1.8-1.4-1.9-1.2-2.1-1.1-2.2-0.8-2.3-0.6-2.3-0.3-2.4-0.1-2.4v-265.8l0.1-2.4 0.3-2.4 0.6-2.3 0.8-2.3 1.1-2.2 1.2-2 1.4-2 1.7-1.8 1.8-1.6 1.9-1.4 2.1-1.3 2.1-1 2.3-0.8 2.4-0.6 2.4-0.4 2.4-0.1h49.2zm197 0 2.4 0.4 2.4 0.6 2.2 0.8 2.2 1 2.1 1.3 1.9 1.4 1.8 1.6 1.6 1.8 1.5 2 1.2 2 1.1 2.2 0.8 2.3 0.6 2.3 0.3 2.4 0.1 2.4v265.8l-0.1 2.4-0.3 2.4-0.6 2.3-0.8 2.3-1.1 2.2-1.2 2.1-1.5 1.9-1.6 1.8-1.8 1.6-1.9 1.4-2.1 1.3-2.2 1-2.2 0.8-2.4 0.6-2.4 0.4-2.4 0.1h-49.2l-2.4-0.1-2.4-0.4-2.3-0.6-2.3-0.8-2.2-1-2.1-1.3-1.9-1.4-1.8-1.6-1.6-1.8-1.4-1.9-1.3-2.1-1-2.2-0.8-2.3-0.6-2.3-0.4-2.4-0.1-2.4v-265.8l0.1-2.4 0.4-2.4 0.6-2.3 0.8-2.3 1-2.2 1.3-2 1.4-2 1.6-1.8 1.8-1.6 1.9-1.4 2.1-1.3 2.2-1 2.3-0.8 2.3-0.6 2.4-0.4 2.4-0.1h49.2zm393 394 2.4 0.3 2.4 0.6 2.2 0.8 2.2 1 2.1 1.3 1.9 1.4 1.8 1.6 1.6 1.8 1.5 2 1.2 2 1.1 2.2 0.8 2.3 0.6 2.3 0.3 2.4 0.1 2.4v49.3l-0.1 2.4-0.3 2.4-0.6 2.3-0.8 2.3-1.1 2.2-1.2 2-1.5 2-1.6 1.8-1.8 1.6-1.9 1.4-2.1 1.3-2.2 1-2.2 0.8-2.4 0.6-2.4 0.3-2.4 0.2h-265.7l-2.4-0.2-2.4-0.3-2.4-0.6-2.2-0.8-2.2-1-2.1-1.3-1.9-1.4-1.8-1.6-1.6-1.8-1.5-2-1.2-2-1.1-2.2-0.8-2.3-0.6-2.3-0.3-2.4-0.1-2.4v-49.3l0.1-2.4 0.3-2.4 0.6-2.3 0.8-2.3 1.1-2.2 1.2-2 1.5-2 1.6-1.8 1.8-1.6 1.9-1.4 2.1-1.3 2.2-1 2.2-0.8 2.4-0.6 2.4-0.3 2.4-0.2h265.7zm0 197 2.4 0.4 2.4 0.5 2.2 0.9 2.2 1 2.1 1.2 1.9 1.5 1.8 1.6 1.6 1.8 1.5 1.9 1.2 2.1 1.1 2.2 0.8 2.2 0.6 2.4 0.3 2.4 0.1 2.4v49.2l-0.1 2.4-0.3 2.4-0.6 2.3-0.8 2.3-1.1 2.2-1.2 2.1-1.5 1.9-1.6 1.8-1.8 1.6-1.9 1.5-2.1 1.2-2.2 1-2.2 0.8-2.4 0.6-2.4 0.4-2.4 0.1h-265.7l-2.4-0.1-2.4-0.4-2.4-0.6-2.2-0.8-2.2-1-2.1-1.2-1.9-1.5-1.8-1.6-1.6-1.8-1.5-1.9-1.2-2.1-1.1-2.2-0.8-2.3-0.6-2.3-0.3-2.4-0.1-2.4v-49.2l0.1-2.4 0.3-2.4 0.6-2.4 0.8-2.2 1.1-2.2 1.2-2.1 1.5-1.9 1.6-1.8 1.8-1.6 1.9-1.5 2.1-1.2 2.2-1 2.2-0.9 2.4-0.5 2.4-0.4 2.4-0.1h265.7zm0 197 2.4 0.3 2.4 0.6 2.2 0.8 2.2 1 2.1 1.3 1.9 1.4 1.8 1.6 1.6 1.8 1.5 2 1.2 2 1.1 2.2 0.8 2.3 0.6 2.3 0.3 2.4 0.1 2.4v49.3l-0.1 2.4-0.3 2.4-0.6 2.3-0.8 2.3-1.1 2.2-1.2 2-1.5 2-1.6 1.8-1.8 1.6-1.9 1.4-2.1 1.3-2.2 1-2.2 0.8-2.4 0.6-2.4 0.3-2.4 0.2h-265.7l-2.4-0.2-2.4-0.3-2.4-0.6-2.2-0.8-2.2-1-2.1-1.3-1.9-1.4-1.8-1.6-1.6-1.8-1.5-2-1.2-2-1.1-2.2-0.8-2.3-0.6-2.3-0.3-2.4-0.1-2.4v-49.3l0.1-2.4 0.3-2.4 0.6-2.3 0.8-2.3 1.1-2.2 1.2-2 1.5-2 1.6-1.8 1.8-1.6 1.9-1.4 2.1-1.3 2.2-1 2.2-0.8 2.4-0.6 2.4-0.3 2.4-0.2h265.7zm0 196 2.4 0.4 2.4 0.5 2.2 0.9 2.2 1 2.1 1.2 1.9 1.5 1.8 1.6 1.6 1.8 1.5 1.9 1.2 2.1 1.1 2.2 0.8 2.2 0.6 2.4 0.3 2.4 0.1 2.4v49.2l-0.1 2.4-0.3 2.4-0.6 2.3-0.8 2.3-1.1 2.2-1.2 2.1-1.5 1.9-1.6 1.8-1.8 1.6-1.9 1.5-2.1 1.2-2.2 1-2.2 0.8-2.4 0.6-2.4 0.4-2.4 0.1h-265.7l-2.4-0.1-2.4-0.4-2.4-0.6-2.2-0.8-2.2-1-2.1-1.2-1.9-1.5-1.8-1.6-1.6-1.8-1.5-1.9-1.2-2.1-1.1-2.2-0.8-2.3-0.6-2.3-0.3-2.4-0.1-2.4v-49.2l0.1-2.4 0.3-2.4 0.6-2.4 0.8-2.2 1.1-2.2 1.2-2.1 1.5-1.9 1.6-1.8 1.8-1.6 1.9-1.5 2.1-1.2 2.2-1 2.2-0.9 2.4-0.5 2.4-0.4 2.4-0.1h265.7zm0 197 2.4 0.3 2.4 0.6 2.2 0.8 2.2 1 2.1 1.3 1.9 1.4 1.8 1.6 1.6 1.8 1.5 2 1.2 2 1.1 2.2 0.8 2.3 0.6 2.3 0.3 2.4 0.1 2.4v49.3l-0.1 2.4-0.3 2.4-0.6 2.3-0.8 2.3-1.1 2.2-1.2 2-1.5 2-1.6 1.8-1.8 1.6-1.9 1.4-2.1 1.3-2.2 1-2.2 0.8-2.4 0.6-2.4 0.3-2.4 0.2h-265.7l-2.4-0.2-2.4-0.3-2.4-0.6-2.2-0.8-2.2-1-2.1-1.3-1.9-1.4-1.8-1.6-1.6-1.8-1.5-2-1.2-2-1.1-2.2-0.8-2.3-0.6-2.3-0.3-2.4-0.1-2.4v-49.3l0.1-2.4 0.3-2.4 0.6-2.3 0.8-2.3 1.1-2.2 1.2-2 1.5-2 1.6-1.8 1.8-1.6 1.9-1.4 2.1-1.3 2.2-1 2.2-0.8 2.4-0.6 2.4-0.3 2.4-0.2h265.7zm0 197 2.4 0.4 2.4 0.5 2.2 0.9 2.2 1 2.1 1.2 1.9 1.5 1.8 1.6 1.6 1.8 1.5 1.9 1.2 2.1 1.1 2.2 0.8 2.2 0.6 2.4 0.3 2.4 0.1 2.4v49.2l-0.1 2.4-0.3 2.4-0.6 2.3-0.8 2.3-1.1 2.2-1.2 2.1-1.5 1.9-1.6 1.8-1.8 1.6-1.9 1.5-2.1 1.2-2.2 1-2.2 0.8-2.4 0.6-2.4 0.4-2.4 0.1h-265.7l-2.4-0.1-2.4-0.4-2.4-0.6-2.2-0.8-2.2-1-2.1-1.2-1.9-1.5-1.8-1.6-1.6-1.8-1.5-1.9-1.2-2.1-1.1-2.2-0.8-2.3-0.6-2.3-0.3-2.4-0.1-2.4v-49.2l0.1-2.4 0.3-2.4 0.6-2.4 0.8-2.2 1.1-2.2 1.2-2.1 1.5-1.9 1.6-1.8 1.8-1.6 1.9-1.5 2.1-1.2 2.2-1 2.2-0.9 2.4-0.5 2.4-0.4 2.4-0.1h265.7zm-393 177 2.4 0.3 2.4 0.6 2.2 0.8 2.2 1.1 2.1 1.2 1.9 1.4 1.8 1.7 1.6 1.7 1.5 2 1.2 2.1 1.1 2.1 0.8 2.3 0.6 2.4 0.3 2.3 0.1 2.5v265.7l-0.1 2.4-0.3 2.4-0.6 2.3-0.8 2.3-1.1 2.2-1.2 2.1-1.5 1.9-1.6 1.8-1.8 1.6-1.9 1.5-2.1 1.2-2.2 1-2.2 0.9-2.4 0.5-2.4 0.4-2.4 0.1h-49.2l-2.4-0.1-2.4-0.4-2.3-0.5-2.3-0.9-2.2-1-2.1-1.2-1.9-1.5-1.8-1.6-1.6-1.8-1.4-1.9-1.3-2.1-1-2.2-0.8-2.3-0.6-2.3-0.4-2.4-0.1-2.4v-265.7l0.1-2.5 0.4-2.3 0.6-2.4 0.8-2.3 1-2.1 1.3-2.1 1.4-2 1.6-1.7 1.8-1.7 1.9-1.4 2.1-1.2 2.2-1.1 2.3-0.8 2.3-0.6 2.4-0.3 2.4-0.2h49.2zm-197 0 2.4 0.3 2.3 0.6 2.3 0.8 2.2 1.1 2 1.2 2 1.4 1.8 1.7 1.6 1.7 1.4 2 1.3 2.1 1 2.1 0.8 2.3 0.6 2.4 0.4 2.3 0.1 2.5v265.7l-0.1 2.4-0.4 2.4-0.6 2.3-0.8 2.3-1 2.2-1.3 2.1-1.4 1.9-1.6 1.8-1.8 1.6-2 1.5-2 1.2-2.2 1-2.3 0.9-2.3 0.5-2.4 0.4-2.4 0.1h-49.2l-2.4-0.1-2.4-0.4-2.4-0.5-2.3-0.9-2.1-1-2.1-1.2-1.9-1.5-1.8-1.6-1.7-1.8-1.4-1.9-1.2-2.1-1.1-2.2-0.8-2.3-0.6-2.3-0.3-2.4-0.1-2.4v-265.7l0.1-2.5 0.3-2.3 0.6-2.4 0.8-2.3 1.1-2.1 1.2-2.1 1.4-2 1.7-1.7 1.8-1.7 1.9-1.4 2.1-1.2 2.1-1.1 2.3-0.8 2.4-0.6 2.4-0.3 2.4-0.2h49.2zm-197 0 2.4 0.3 2.4 0.6 2.2 0.8 2.2 1.1 2.1 1.2 1.9 1.4 1.8 1.7 1.6 1.7 1.5 2 1.2 2.1 1.1 2.1 0.8 2.3 0.6 2.4 0.3 2.3 0.1 2.5v265.7l-0.1 2.4-0.3 2.4-0.6 2.3-0.8 2.3-1.1 2.2-1.2 2.1-1.5 1.9-1.6 1.8-1.8 1.6-1.9 1.5-2.1 1.2-2.2 1-2.2 0.9-2.4 0.5-2.4 0.4-2.4 0.1h-49.2l-2.4-0.1-2.4-0.4-2.3-0.5-2.3-0.9-2.2-1-2.1-1.2-1.9-1.5-1.8-1.6-1.6-1.8-1.4-1.9-1.3-2.1-1-2.2-0.8-2.3-0.6-2.3-0.4-2.4-0.1-2.4v-265.7l0.1-2.5 0.4-2.3 0.6-2.4 0.8-2.3 1-2.1 1.3-2.1 1.4-2 1.6-1.7 1.8-1.7 1.9-1.4 2.1-1.2 2.2-1.1 2.3-0.8 2.3-0.6 2.4-0.3 2.4-0.2h49.2zm-197 0 2.4 0.3 2.3 0.6 2.3 0.8 2.2 1.1 2 1.2 2 1.4 1.8 1.7 1.6 1.7 1.4 2 1.3 2.1 1 2.1 0.8 2.3 0.6 2.4 0.4 2.3 0.1 2.5v265.7l-0.1 2.4-0.4 2.4-0.6 2.3-0.8 2.3-1 2.2-1.3 2.1-1.4 1.9-1.6 1.8-1.8 1.6-2 1.5-2 1.2-2.2 1-2.3 0.9-2.3 0.5-2.4 0.4-2.4 0.1h-49.2l-2.4-0.1-2.4-0.4-2.4-0.5-2.3-0.9-2.1-1-2.1-1.2-1.9-1.5-1.8-1.6-1.7-1.8-1.4-1.9-1.2-2.1-1.1-2.2-0.8-2.3-0.6-2.3-0.3-2.4-0.1-2.4v-265.7l0.1-2.5 0.3-2.3 0.6-2.4 0.8-2.3 1.1-2.1 1.2-2.1 1.4-2 1.7-1.7 1.8-1.7 1.9-1.4 2.1-1.2 2.1-1.1 2.3-0.8 2.4-0.6 2.4-0.3 2.4-0.2h49.2zm-197 0 2.4 0.3 2.4 0.6 2.2 0.8 2.2 1.1 2.1 1.2 1.9 1.4 1.8 1.7 1.6 1.7 1.5 2 1.2 2.1 1.1 2.1 0.8 2.3 0.6 2.4 0.3 2.3 0.1 2.5v265.7l-0.1 2.4-0.3 2.4-0.6 2.3-0.8 2.3-1.1 2.2-1.2 2.1-1.5 1.9-1.6 1.8-1.8 1.6-1.9 1.5-2.1 1.2-2.2 1-2.2 0.9-2.4 0.5-2.4 0.4-2.4 0.1h-49.2l-2.4-0.1-2.4-0.4-2.3-0.5-2.3-0.9-2.2-1-2.1-1.2-1.9-1.5-1.8-1.6-1.6-1.8-1.4-1.9-1.3-2.1-1-2.2-0.8-2.3-0.6-2.3-0.4-2.4-0.1-2.4v-265.7l0.1-2.5 0.4-2.3 0.6-2.4 0.8-2.3 1-2.1 1.3-2.1 1.4-2 1.6-1.7 1.8-1.7 1.9-1.4 2.1-1.2 2.2-1.1 2.3-0.8 2.3-0.6 2.4-0.3 2.4-0.2h49.2zm-197 0 2.4 0.3 2.3 0.6 2.3 0.8 2.2 1.1 2 1.2 2 1.4 1.8 1.7 1.6 1.7 1.4 2 1.3 2.1 1 2.1 0.8 2.3 0.6 2.4 0.4 2.3 0.1 2.5v265.7l-0.1 2.4-0.4 2.4-0.6 2.3-0.8 2.3-1 2.2-1.3 2.1-1.4 1.9-1.6 1.8-1.8 1.6-2 1.5-2 1.2-2.2 1-2.3 0.9-2.3 0.5-2.4 0.4-2.4 0.1h-49.2l-2.5-0.1-2.3-0.4-2.4-0.5-2.3-0.9-2.1-1-2.1-1.2-1.9-1.5-1.8-1.6-1.7-1.8-1.4-1.9-1.2-2.1-1.1-2.2-0.8-2.3-0.6-2.3-0.3-2.4-0.1-2.4v-265.7l0.1-2.5 0.3-2.3 0.6-2.4 0.8-2.3 1.1-2.1 1.2-2.1 1.4-2 1.7-1.7 1.8-1.7 1.9-1.4 2.1-1.2 2.1-1.1 2.3-0.8 2.4-0.6 2.3-0.3 2.5-0.2h49.2zm-177-177 2.4 0.4 2.4 0.5 2.2 0.9 2.2 1 2.1 1.2 1.9 1.5 1.8 1.6 1.6 1.8 1.5 1.9 1.2 2.1 1 2.2 0.9 2.2 0.5 2.4 0.4 2.4 0.1 2.4v49.2l-0.1 2.4-0.4 2.4-0.5 2.3-0.9 2.3-1 2.2-1.2 2.1-1.5 1.9-1.6 1.8-1.8 1.6-1.9 1.5-2.1 1.2-2.2 1-2.2 0.8-2.4 0.6-2.4 0.4-2.4 0.1h-265.7l-2.5-0.1-2.3-0.4-2.4-0.6-2.3-0.8-2.1-1-2.1-1.2-1.9-1.5-1.8-1.6-1.7-1.8-1.4-1.9-1.2-2.1-1.1-2.2-0.8-2.3-0.6-2.3-0.3-2.4-0.1-2.4v-49.2l0.1-2.4 0.3-2.4 0.6-2.4 0.8-2.2 1.1-2.2 1.2-2.1 1.4-1.9 1.7-1.8 1.8-1.6 1.9-1.5 2.1-1.2 2.1-1 2.3-0.9 2.4-0.5 2.3-0.4 2.5-0.1h265.7zm0-197 2.4 0.3 2.4 0.6 2.2 0.8 2.2 1 2.1 1.3 1.9 1.4 1.8 1.6 1.6 1.8 1.5 2 1.2 2 1 2.2 0.9 2.3 0.5 2.3 0.4 2.4 0.1 2.4v49.3l-0.1 2.4-0.4 2.4-0.5 2.3-0.9 2.3-1 2.2-1.2 2-1.5 2-1.6 1.8-1.8 1.6-1.9 1.4-2.1 1.3-2.2 1-2.2 0.8-2.4 0.6-2.4 0.3-2.4 0.2h-265.7l-2.5-0.2-2.3-0.3-2.4-0.6-2.3-0.8-2.1-1-2.1-1.3-1.9-1.4-1.8-1.6-1.7-1.8-1.4-2-1.2-2-1.1-2.2-0.8-2.3-0.6-2.3-0.3-2.4-0.1-2.4v-49.3l0.1-2.4 0.3-2.4 0.6-2.3 0.8-2.3 1.1-2.2 1.2-2 1.4-2 1.7-1.8 1.8-1.6 1.9-1.4 2.1-1.3 2.1-1 2.3-0.8 2.4-0.6 2.3-0.3 2.5-0.2h265.7zm0-197 2.4 0.4 2.4 0.5 2.2 0.9 2.2 1 2.1 1.2 1.9 1.5 1.8 1.6 1.6 1.8 1.5 1.9 1.2 2.1 1 2.2 0.9 2.2 0.5 2.4 0.4 2.4 0.1 2.4v49.2l-0.1 2.4-0.4 2.4-0.5 2.3-0.9 2.3-1 2.2-1.2 2.1-1.5 1.9-1.6 1.8-1.8 1.6-1.9 1.5-2.1 1.2-2.2 1-2.2 0.8-2.4 0.6-2.4 0.4-2.4 0.1h-265.7l-2.5-0.1-2.3-0.4-2.4-0.6-2.3-0.8-2.1-1-2.1-1.2-1.9-1.5-1.8-1.6-1.7-1.8-1.4-1.9-1.2-2.1-1.1-2.2-0.8-2.3-0.6-2.3-0.3-2.4-0.1-2.4v-49.2l0.1-2.4 0.3-2.4 0.6-2.4 0.8-2.2 1.1-2.2 1.2-2.1 1.4-1.9 1.7-1.8 1.8-1.6 1.9-1.5 2.1-1.2 2.1-1 2.3-0.9 2.4-0.5 2.3-0.4 2.5-0.1h265.7zm0-196 2.4 0.3 2.4 0.6 2.2 0.8 2.2 1 2.1 1.3 1.9 1.4 1.8 1.6 1.6 1.8 1.5 2 1.2 2 1 2.2 0.9 2.3 0.5 2.3 0.4 2.4 0.1 2.4v49.3l-0.1 2.4-0.4 2.4-0.5 2.3-0.9 2.3-1 2.2-1.2 2-1.5 2-1.6 1.8-1.8 1.6-1.9 1.4-2.1 1.3-2.2 1-2.2 0.8-2.4 0.6-2.4 0.3-2.4 0.2h-265.7l-2.5-0.2-2.3-0.3-2.4-0.6-2.3-0.8-2.1-1-2.1-1.3-1.9-1.4-1.8-1.6-1.7-1.8-1.4-2-1.2-2-1.1-2.2-0.8-2.3-0.6-2.3-0.3-2.4-0.1-2.4v-49.3l0.1-2.4 0.3-2.4 0.6-2.3 0.8-2.3 1.1-2.2 1.2-2 1.4-2 1.7-1.8 1.8-1.6 1.9-1.4 2.1-1.3 2.1-1 2.3-0.8 2.4-0.6 2.3-0.3 2.5-0.2h265.7zm0-197 2.4 0.4 2.4 0.5 2.2 0.9 2.2 1 2.1 1.2 1.9 1.5 1.8 1.6 1.6 1.8 1.5 1.9 1.2 2.1 1 2.2 0.9 2.2 0.5 2.4 0.4 2.4 0.1 2.4v49.2l-0.1 2.4-0.4 2.4-0.5 2.3-0.9 2.3-1 2.2-1.2 2.1-1.5 1.9-1.6 1.8-1.8 1.6-1.9 1.5-2.1 1.2-2.2 1-2.2 0.8-2.4 0.6-2.4 0.4-2.4 0.1h-265.7l-2.5-0.1-2.3-0.4-2.4-0.6-2.3-0.8-2.1-1-2.1-1.2-1.9-1.5-1.8-1.6-1.7-1.8-1.4-1.9-1.2-2.1-1.1-2.2-0.8-2.3-0.6-2.3-0.3-2.4-0.1-2.4v-49.2l0.1-2.4 0.3-2.4 0.6-2.4 0.8-2.2 1.1-2.2 1.2-2.1 1.4-1.9 1.7-1.8 1.8-1.6 1.9-1.5 2.1-1.2 2.1-1 2.3-0.9 2.4-0.5 2.3-0.4 2.5-0.1h265.7zm0-197 2.4 0.3 2.4 0.6 2.2 0.8 2.2 1 2.1 1.3 1.9 1.4 1.8 1.6 1.6 1.8 1.5 2 1.2 2 1 2.2 0.9 2.3 0.5 2.3 0.4 2.4 0.1 2.4v49.3l-0.1 2.4-0.4 2.4-0.5 2.3-0.9 2.3-1 2.2-1.2 2-1.5 2-1.6 1.8-1.8 1.6-1.9 1.4-2.1 1.3-2.2 1-2.2 0.8-2.4 0.6-2.4 0.3-2.4 0.2h-265.7l-2.5-0.2-2.3-0.3-2.4-0.6-2.3-0.8-2.1-1-2.1-1.3-1.9-1.4-1.8-1.6-1.7-1.8-1.4-2-1.2-2-1.1-2.2-0.8-2.3-0.6-2.3-0.3-2.4-0.1-2.4v-49.3l0.1-2.4 0.3-2.4 0.6-2.3 0.8-2.3 1.1-2.2 1.2-2 1.4-2 1.7-1.8 1.8-1.6 1.9-1.4 2.1-1.3 2.1-1 2.3-0.8 2.4-0.6 2.3-0.3 2.5-0.2h265.7zm3448-2581h255.9v417.3h-255.9zm-748 0h255.9v417.3h-255.9zm0-866h255.9v417.3h-255.9zm374 0h255.9v417.3h-255.9zm374 0h255.9v417.3h-255.9z" fill="#9c6b28" fill-rule="evenodd"/>
 <path d="m35672 5818 9.6 1.4 9.3 2.4 9.1 3.2 8.7 4.1 8.3 5 7.8 5.8 7.1 6.4 6.5 7.2 5.8 7.8 5 8.2 4.1 8.8 3.2 9.1 2.4 9.3 1.4 9.6 0.5 9.6v492.2l-0.5 9.6-1.4 9.6-2.4 9.3-3.2 9.1-4.1 8.8-5 8.2-5.8 7.8-6.5 7.2-7.1 6.4-7.8 5.8-8.3 5-8.7 4.1-9.1 3.3-9.3 2.3-9.6 1.4-9.6 0.5h-295.3l-9.7-0.5-9.5-1.4-9.4-2.3-9.1-3.3-8.7-4.1-8.3-5-7.8-5.8-7.1-6.4-6.5-7.2-5.8-7.8-4.9-8.2-4.2-8.8-3.2-9.1-2.4-9.3-1.4-9.6-0.4-9.6v-492.2l0.4-9.6 1.4-9.6 2.4-9.3 3.2-9.1 4.2-8.8 4.9-8.2 5.8-7.8 6.5-7.2 7.1-6.4 7.8-5.8 8.3-5 8.7-4.1 9.1-3.2 9.4-2.4 9.5-1.4 9.7-0.5h295.3zm1102 0 9.5 1.4 9.4 2.4 9.1 3.2 8.7 4.1 8.3 5 7.8 5.8 7.1 6.4 6.5 7.2 5.8 7.8 4.9 8.2 4.1 8.8 3.3 9.1 2.3 9.3 1.5 9.6 0.4 9.6v492.2l-0.4 9.6-1.5 9.6-2.3 9.3-3.3 9.1-4.1 8.8-4.9 8.2-5.8 7.8-6.5 7.2-7.1 6.4-7.8 5.8-8.3 5-8.7 4.1-9.1 3.3-9.4 2.3-9.5 1.4-9.7 0.5h-295.3l-9.6-0.5-9.6-1.4-9.3-2.3-9.1-3.3-8.8-4.1-8.2-5-7.8-5.8-7.2-6.4-6.4-7.2-5.8-7.8-5-8.2-4.1-8.8-3.2-9.1-2.4-9.3-1.4-9.6-0.5-9.6v-492.2l0.5-9.6 1.4-9.6 2.4-9.3 3.2-9.1 4.1-8.8 5-8.2 5.8-7.8 6.4-7.2 7.2-6.4 7.8-5.8 8.2-5 8.8-4.1 9.1-3.2 9.3-2.4 9.6-1.4 9.6-0.5h295.3zm221-1085 3.8 0.5 3.7 1 3.7 1.3 3.5 1.6 3.3 2 3.1 2.3 2.8 2.6 2.6 2.9 2.3 3.1 2 3.3 1.7 3.5 1.3 3.6 0.9 3.8 0.6 3.8 0.2 3.8v102.4l-0.2 3.9-0.6 3.8-0.9 3.7-1.3 3.7-1.7 3.5-2 3.3-2.3 3.1-2.6 2.8-2.8 2.6-3.1 2.3-3.3 2-3.5 1.7-3.7 1.3-3.7 0.9-3.8 0.6-3.9 0.2h-78.7l-3.9-0.2-3.8-0.6-3.8-0.9-3.6-1.3-3.5-1.7-3.3-2-3.1-2.3-2.9-2.6-2.6-2.8-2.3-3.1-2-3.3-1.6-3.5-1.3-3.7-1-3.7-0.5-3.8-0.2-3.9v-102.4l0.2-3.8 0.5-3.8 1-3.8 1.3-3.6 1.6-3.5 2-3.3 2.3-3.1 2.6-2.9 2.9-2.6 3.1-2.3 3.3-2 3.5-1.6 3.6-1.3 3.8-1 3.8-0.5 3.9-0.2h78.7zm0 252 3.8 0.6 3.7 0.9 3.7 1.3 3.5 1.7 3.3 2 3.1 2.3 2.8 2.6 2.6 2.8 2.3 3.1 2 3.3 1.7 3.5 1.3 3.7 0.9 3.7 0.6 3.8 0.2 3.9v102.4l-0.2 3.8-0.6 3.8-0.9 3.8-1.3 3.6-1.7 3.5-2 3.3-2.3 3.1-2.6 2.9-2.8 2.6-3.1 2.3-3.3 2-3.5 1.6-3.7 1.3-3.7 1-3.8 0.5-3.9 0.2h-78.7l-3.9-0.2-3.8-0.5-3.8-1-3.6-1.3-3.5-1.6-3.3-2-3.1-2.3-2.9-2.6-2.6-2.9-2.3-3.1-2-3.3-1.6-3.5-1.3-3.6-1-3.8-0.5-3.8-0.2-3.8v-102.4l0.2-3.9 0.5-3.8 1-3.7 1.3-3.7 1.6-3.5 2-3.3 2.3-3.1 2.6-2.8 2.9-2.6 3.1-2.3 3.3-2 3.5-1.7 3.6-1.3 3.8-0.9 3.8-0.6 3.9-0.2h78.7zm-503-409 5.3 0.7 5.3 1.4 5 1.8 4.9 2.3 4.7 2.8 4.3 3.2 4 3.6 3.7 4 3.2 4.4 2.8 4.6 2.3 4.9 1.8 5.1 1.3 5.3 0.8 5.3 0.3 5.4v110.2l-0.3 5.4-0.8 5.4-1.3 5.2-1.8 5.1-2.3 4.9-2.8 4.7-3.2 4.3-3.7 4-4 3.6-4.3 3.3-4.7 2.8-4.9 2.3-5 1.8-5.3 1.3-5.3 0.8-5.4 0.3h-133.9l-5.4-0.3-5.4-0.8-5.2-1.3-5.1-1.8-4.9-2.3-4.6-2.8-4.4-3.3-4-3.6-3.6-4-3.2-4.3-2.8-4.7-2.3-4.9-1.8-5.1-1.4-5.2-0.8-5.4-0.2-5.4v-110.2l0.2-5.4 0.8-5.3 1.4-5.3 1.8-5.1 2.3-4.9 2.8-4.6 3.2-4.4 3.6-4 4-3.6 4.4-3.2 4.6-2.8 4.9-2.3 5.1-1.8 5.2-1.4 5.4-0.7 5.4-0.3h133.9zm0 378 5.3 0.8 5.3 1.3 5 1.8 4.9 2.3 4.7 2.8 4.3 3.3 4 3.6 3.7 4 3.2 4.3 2.8 4.7 2.3 4.9 1.8 5.1 1.3 5.2 0.8 5.4 0.3 5.4v110.2l-0.3 5.4-0.8 5.3-1.3 5.3-1.8 5.1-2.3 4.9-2.8 4.6-3.2 4.4-3.7 4-4 3.6-4.3 3.2-4.7 2.8-4.9 2.3-5 1.8-5.3 1.4-5.3 0.7-5.4 0.3h-133.9l-5.4-0.3-5.4-0.7-5.2-1.4-5.1-1.8-4.9-2.3-4.6-2.8-4.4-3.2-4-3.6-3.6-4-3.2-4.4-2.8-4.6-2.3-4.9-1.8-5.1-1.4-5.3-0.8-5.3-0.2-5.4v-110.2l0.2-5.4 0.8-5.4 1.4-5.2 1.8-5.1 2.3-4.9 2.8-4.7 3.2-4.3 3.6-4 4-3.6 4.4-3.3 4.6-2.8 4.9-2.3 5.1-1.8 5.2-1.3 5.4-0.8 5.4-0.3h133.9zm-3346 1374 5.4 0.8 5.2 1.3 5.1 1.9 4.9 2.3 4.6 2.7 4.4 3.3 4 3.6 3.6 4 3.2 4.4 2.8 4.6 2.3 4.9 1.8 5.1 1.4 5.2 0.8 5.4 0.2 5.4v110.2l-0.2 5.4-0.8 5.4-1.4 5.2-1.8 5.1-2.3 4.9-2.8 4.6-3.2 4.4-3.6 4-4 3.6-4.4 3.2-4.6 2.8-4.9 2.3-5.1 1.9-5.2 1.3-5.4 0.8-5.4 0.2h-133.9l-5.4-0.2-5.3-0.8-5.3-1.3-5.1-1.9-4.8-2.3-4.7-2.8-4.3-3.2-4-3.6-3.7-4-3.2-4.4-2.8-4.6-2.3-4.9-1.8-5.1-1.3-5.2-0.8-5.4-0.3-5.4v-110.2l0.3-5.4 0.8-5.4 1.3-5.2 1.8-5.1 2.3-4.9 2.8-4.6 3.2-4.4 3.7-4 4-3.6 4.3-3.3 4.7-2.7 4.8-2.3 5.1-1.9 5.3-1.3 5.3-0.8 5.4-0.2h133.9zm0-378 5.4 0.8 5.2 1.3 5.1 1.8 4.9 2.3 4.6 2.8 4.4 3.2 4 3.6 3.6 4.1 3.2 4.3 2.8 4.6 2.3 4.9 1.8 5.1 1.4 5.3 0.8 5.3 0.2 5.4v110.3l-0.2 5.4-0.8 5.3-1.4 5.3-1.8 5.1-2.3 4.8-2.8 4.7-3.2 4.3-3.6 4-4 3.7-4.4 3.2-4.6 2.8-4.9 2.3-5.1 1.8-5.2 1.3-5.4 0.8-5.4 0.3h-133.9l-5.4-0.3-5.3-0.8-5.3-1.3-5.1-1.8-4.8-2.3-4.7-2.8-4.3-3.2-4-3.7-3.7-4-3.2-4.3-2.8-4.7-2.3-4.8-1.8-5.1-1.3-5.3-0.8-5.3-0.3-5.4v-110.3l0.3-5.4 0.8-5.3 1.3-5.3 1.8-5.1 2.3-4.9 2.8-4.6 3.2-4.3 3.7-4.1 4-3.6 4.3-3.2 4.7-2.8 4.8-2.3 5.1-1.8 5.3-1.3 5.3-0.8 5.4-0.3h133.9zm69 3539 3.8 0.5 3.8 1 3.6 1.3 3.5 1.6 3.3 2 3.1 2.3 2.9 2.6 2.6 2.9 2.3 3.1 2 3.3 1.6 3.5 1.3 3.6 1 3.8 0.5 3.8 0.2 3.8v102.4l-0.2 3.9-0.5 3.8-1 3.7-1.3 3.7-1.6 3.5-2 3.3-2.3 3.1-2.6 2.8-2.9 2.6-3.1 2.3-3.3 2-3.5 1.7-3.6 1.3-3.8 0.9-3.8 0.6-3.8 0.2h-78.8l-3.8-0.2-3.9-0.6-3.7-0.9-3.6-1.3-3.5-1.7-3.3-2-3.2-2.3-2.8-2.6-2.6-2.8-2.3-3.1-2-3.3-1.6-3.5-1.4-3.7-0.9-3.7-0.6-3.8-0.1-3.9v-102.4l0.1-3.8 0.6-3.8 0.9-3.8 1.4-3.6 1.6-3.5 2-3.3 2.3-3.1 2.6-2.9 2.8-2.6 3.2-2.3 3.3-2 3.5-1.6 3.6-1.3 3.7-1 3.9-0.5 3.8-0.2h78.8zm0 252 3.8 0.6 3.8 0.9 3.6 1.3 3.5 1.7 3.3 2 3.1 2.3 2.9 2.6 2.6 2.8 2.3 3.1 2 3.4 1.6 3.4 1.3 3.7 1 3.7 0.5 3.9 0.2 3.8v102.4l-0.2 3.8-0.5 3.9-1 3.7-1.3 3.6-1.6 3.5-2 3.3-2.3 3.2-2.6 2.8-2.9 2.6-3.1 2.3-3.3 2-3.5 1.6-3.6 1.3-3.8 1-3.8 0.6-3.8 0.1h-78.8l-3.8-0.1-3.9-0.6-3.7-1-3.6-1.3-3.5-1.6-3.3-2-3.2-2.3-2.8-2.6-2.6-2.8-2.3-3.2-2-3.3-1.6-3.5-1.4-3.6-0.9-3.7-0.6-3.9-0.1-3.8v-102.4l0.1-3.8 0.6-3.9 0.9-3.7 1.4-3.7 1.6-3.4 2-3.4 2.3-3.1 2.6-2.8 2.8-2.6 3.2-2.3 3.3-2 3.5-1.7 3.6-1.3 3.7-0.9 3.9-0.6 3.8-0.2h78.8zm3277-5559 5.3 0.7 5.3 1.4 5 1.8 4.9 2.3 4.7 2.8 4.3 3.2 4 3.6 3.7 4 3.2 4.4 2.8 4.6 2.3 4.9 1.8 5.1 1.3 5.3 0.8 5.3 0.3 5.4v110.2l-0.3 5.4-0.8 5.4-1.3 5.2-1.8 5.1-2.3 4.9-2.8 4.7-3.2 4.3-3.7 4-4 3.6-4.3 3.3-4.7 2.8-4.9 2.3-5 1.8-5.3 1.3-5.3 0.8-5.4 0.3h-133.9l-5.4-0.3-5.4-0.8-5.2-1.3-5.1-1.8-4.9-2.3-4.6-2.8-4.4-3.3-4-3.6-3.6-4-3.2-4.3-2.8-4.7-2.3-4.9-1.8-5.1-1.4-5.2-0.8-5.4-0.2-5.4v-110.2l0.2-5.4 0.8-5.3 1.4-5.3 1.8-5.1 2.3-4.9 2.8-4.6 3.2-4.4 3.6-4 4-3.6 4.4-3.2 4.6-2.8 4.9-2.3 5.1-1.8 5.2-1.4 5.4-0.7 5.4-0.3h133.9zm0-378 5.3 0.8 5.3 1.3 5 1.8 4.9 2.3 4.7 2.8 4.3 3.2 4 3.7 3.7 4 3.2 4.3 2.8 4.7 2.3 4.9 1.8 5.1 1.3 5.2 0.8 5.4 0.3 5.4v110.2l-0.3 5.4-0.8 5.3-1.3 5.3-1.8 5.1-2.3 4.9-2.8 4.6-3.2 4.4-3.7 4-4 3.6-4.3 3.2-4.7 2.8-4.9 2.3-5 1.8-5.3 1.3-5.3 0.8-5.4 0.3h-133.9l-5.4-0.3-5.4-0.8-5.2-1.3-5.1-1.8-4.9-2.3-4.6-2.8-4.4-3.2-4-3.6-3.6-4-3.2-4.4-2.8-4.6-2.3-4.9-1.8-5.1-1.4-5.3-0.8-5.3-0.2-5.4v-110.2l0.2-5.4 0.8-5.4 1.4-5.2 1.8-5.1 2.3-4.9 2.8-4.7 3.2-4.3 3.6-4 4-3.7 4.4-3.2 4.6-2.8 4.9-2.3 5.1-1.8 5.2-1.3 5.4-0.8 5.4-0.3h133.9zm-2434 4524 3.9 0.6 3.7 1 3.7 1.3 3.4 1.6 3.4 2 3.1 2.3 2.8 2.6 2.6 2.9 2.3 3.1 2 3.3 1.7 3.5 1.3 3.6 0.9 3.7 0.6 3.9 0.2 3.8v78.8l-0.2 3.8-0.6 3.8-0.9 3.8-1.3 3.6-1.7 3.5-2 3.3-2.3 3.1-2.6 2.9-2.8 2.6-3.1 2.3-3.4 2-3.4 1.6-3.7 1.3-3.7 1-3.9 0.5-3.8 0.2h-102.4l-3.8-0.2-3.9-0.5-3.7-1-3.6-1.3-3.5-1.6-3.4-2-3.1-2.3-2.8-2.6-2.6-2.9-2.3-3.1-2-3.3-1.7-3.5-1.3-3.6-0.9-3.8-0.6-3.8-0.1-3.8v-78.8l0.1-3.8 0.6-3.9 0.9-3.7 1.3-3.6 1.7-3.5 2-3.3 2.3-3.1 2.6-2.9 2.8-2.6 3.1-2.3 3.4-2 3.5-1.6 3.6-1.3 3.7-1 3.9-0.6 3.8-0.1h102.4zm252 0 3.8 0.6 3.8 1 3.6 1.3 3.5 1.6 3.3 2 3.1 2.3 2.9 2.6 2.6 2.9 2.3 3.1 2 3.3 1.6 3.5 1.3 3.6 1 3.7 0.5 3.9 0.2 3.8v78.8l-0.2 3.8-0.5 3.8-1 3.8-1.3 3.6-1.6 3.5-2 3.3-2.3 3.1-2.6 2.9-2.9 2.6-3.1 2.3-3.3 2-3.5 1.6-3.6 1.3-3.8 1-3.8 0.5-3.8 0.2h-102.4l-3.9-0.2-3.8-0.5-3.7-1-3.7-1.3-3.5-1.6-3.3-2-3.1-2.3-2.8-2.6-2.6-2.9-2.3-3.1-2-3.3-1.7-3.5-1.3-3.6-0.9-3.8-0.6-3.8-0.2-3.8v-78.8l0.2-3.8 0.6-3.9 0.9-3.7 1.3-3.6 1.7-3.5 2-3.3 2.3-3.1 2.6-2.9 2.8-2.6 3.1-2.3 3.3-2 3.5-1.6 3.7-1.3 3.7-1 3.8-0.6 3.9-0.1h102.4zm-1803 1425 3.8 0.6 3.7 0.9 3.7 1.4 3.5 1.6 3.3 2 3.1 2.3 2.8 2.6 2.6 2.8 2.3 3.2 2 3.3 1.7 3.5 1.3 3.6 0.9 3.7 0.6 3.9 0.2 3.8v102.4l-0.2 3.8-0.6 3.9-0.9 3.7-1.3 3.7-1.7 3.4-2 3.4-2.3 3.1-2.6 2.8-2.8 2.6-3.1 2.3-3.3 2-3.5 1.7-3.7 1.3-3.7 0.9-3.8 0.6-3.9 0.2h-78.7l-3.9-0.2-3.8-0.6-3.8-0.9-3.6-1.3-3.5-1.7-3.3-2-3.1-2.3-2.9-2.6-2.6-2.8-2.3-3.1-2-3.4-1.6-3.4-1.3-3.7-1-3.7-0.5-3.9-0.2-3.8v-102.4l0.2-3.8 0.5-3.9 1-3.7 1.3-3.6 1.6-3.5 2-3.3 2.3-3.2 2.6-2.8 2.9-2.6 3.1-2.3 3.3-2 3.5-1.6 3.6-1.4 3.8-0.9 3.8-0.6 3.9-0.1h78.7zm0-252 3.8 0.5 3.7 1 3.7 1.3 3.5 1.6 3.3 2 3.1 2.3 2.8 2.6 2.6 2.9 2.3 3.1 2 3.3 1.7 3.5 1.3 3.6 0.9 3.8 0.6 3.8 0.2 3.9v102.3l-0.2 3.9-0.6 3.8-0.9 3.7-1.3 3.7-1.7 3.5-2 3.3-2.3 3.1-2.6 2.9-2.8 2.6-3.1 2.3-3.3 1.9-3.5 1.7-3.7 1.3-3.7 0.9-3.8 0.6-3.9 0.2h-78.7l-3.9-0.2-3.8-0.6-3.8-0.9-3.6-1.3-3.5-1.7-3.3-1.9-3.1-2.3-2.9-2.6-2.6-2.9-2.3-3.1-2-3.3-1.6-3.5-1.3-3.7-1-3.7-0.5-3.8-0.2-3.9v-102.3l0.2-3.9 0.5-3.8 1-3.8 1.3-3.6 1.6-3.5 2-3.3 2.3-3.1 2.6-2.9 2.9-2.6 3.1-2.3 3.3-2 3.5-1.6 3.6-1.3 3.8-1 3.8-0.5 3.9-0.2h78.7z" fill="#9c6b28" fill-rule="evenodd"/>
 <g fill="#212d53">
  <path d="m32313 6979 2.4 0.4 2.3 0.6 2.3 0.8 2.2 1 2 1.3 2 1.4 1.8 1.6 1.6 1.8 1.4 2 1.3 2 1 2.2 0.8 2.3 0.6 2.3 0.4 2.4 0.1 2.4v265.8l-0.1 2.4-0.4 2.4-0.6 2.3-0.8 2.3-1 2.2-1.3 2.1-1.4 1.9-1.6 1.8-1.8 1.6-2 1.4-2 1.3-2.2 1-2.3 0.8-2.3 0.6-2.4 0.4-2.4 0.1h-49.2l-2.5-0.1-2.3-0.4-2.4-0.6-2.3-0.8-2.1-1-2.1-1.3-1.9-1.4-1.8-1.6-1.7-1.8-1.4-1.9-1.2-2.1-1.1-2.2-0.8-2.3-0.6-2.3-0.3-2.4-0.1-2.4v-265.8l0.1-2.4 0.3-2.4 0.6-2.3 0.8-2.3 1.1-2.2 1.2-2 1.4-2 1.7-1.8 1.8-1.6 1.9-1.4 2.1-1.3 2.1-1 2.3-0.8 2.4-0.6 2.3-0.4 2.5-0.1h49.2zm197 0 2.4 0.4 2.4 0.6 2.2 0.8 2.2 1 2.1 1.3 1.9 1.4 1.8 1.6 1.6 1.8 1.5 2 1.2 2 1.1 2.2 0.8 2.3 0.6 2.3 0.3 2.4 0.1 2.4v265.8l-0.1 2.4-0.3 2.4-0.6 2.3-0.8 2.3-1.1 2.2-1.2 2.1-1.5 1.9-1.6 1.8-1.8 1.6-1.9 1.4-2.1 1.3-2.2 1-2.2 0.8-2.4 0.6-2.4 0.4-2.4 0.1h-49.2l-2.4-0.1-2.4-0.4-2.3-0.6-2.3-0.8-2.2-1-2.1-1.3-1.9-1.4-1.8-1.6-1.6-1.8-1.4-1.9-1.3-2.1-1-2.2-0.8-2.3-0.6-2.3-0.4-2.4-0.1-2.4v-265.8l0.1-2.4 0.4-2.4 0.6-2.3 0.8-2.3 1-2.2 1.3-2 1.4-2 1.6-1.8 1.8-1.6 1.9-1.4 2.1-1.3 2.2-1 2.3-0.8 2.3-0.6 2.4-0.4 2.4-0.1h49.2zm197 0 2.4 0.4 2.3 0.6 2.3 0.8 2.2 1 2 1.3 2 1.4 1.8 1.6 1.6 1.8 1.4 2 1.3 2 1 2.2 0.8 2.3 0.6 2.3 0.4 2.4 0.1 2.4v265.8l-0.1 2.4-0.4 2.4-0.6 2.3-0.8 2.3-1 2.2-1.3 2.1-1.4 1.9-1.6 1.8-1.8 1.6-2 1.4-2 1.3-2.2 1-2.3 0.8-2.3 0.6-2.4 0.4-2.4 0.1h-49.2l-2.4-0.1-2.4-0.4-2.4-0.6-2.3-0.8-2.1-1-2.1-1.3-1.9-1.4-1.8-1.6-1.7-1.8-1.4-1.9-1.2-2.1-1.1-2.2-0.8-2.3-0.6-2.3-0.3-2.4-0.1-2.4v-265.8l0.1-2.4 0.3-2.4 0.6-2.3 0.8-2.3 1.1-2.2 1.2-2 1.4-2 1.7-1.8 1.8-1.6 1.9-1.4 2.1-1.3 2.1-1 2.3-0.8 2.4-0.6 2.4-0.4 2.4-0.1h49.2zm197 0 2.4 0.4 2.4 0.6 2.2 0.8 2.2 1 2.1 1.3 1.9 1.4 1.8 1.6 1.6 1.8 1.5 2 1.2 2 1.1 2.2 0.8 2.3 0.6 2.3 0.3 2.4 0.1 2.4v265.8l-0.1 2.4-0.3 2.4-0.6 2.3-0.8 2.3-1.1 2.2-1.2 2.1-1.5 1.9-1.6 1.8-1.8 1.6-1.9 1.4-2.1 1.3-2.2 1-2.2 0.8-2.4 0.6-2.4 0.4-2.4 0.1h-49.2l-2.4-0.1-2.4-0.4-2.3-0.6-2.3-0.8-2.2-1-2.1-1.3-1.9-1.4-1.8-1.6-1.6-1.8-1.4-1.9-1.3-2.1-1-2.2-0.8-2.3-0.6-2.3-0.4-2.4-0.1-2.4v-265.8l0.1-2.4 0.4-2.4 0.6-2.3 0.8-2.3 1-2.2 1.3-2 1.4-2 1.6-1.8 1.8-1.6 1.9-1.4 2.1-1.3 2.2-1 2.3-0.8 2.3-0.6 2.4-0.4 2.4-0.1h49.2zm197 0 2.4 0.4 2.3 0.6 2.3 0.8 2.2 1 2 1.3 2 1.4 1.8 1.6 1.6 1.8 1.4 2 1.3 2 1 2.2 0.8 2.3 0.6 2.3 0.4 2.4 0.1 2.4v265.8l-0.1 2.4-0.4 2.4-0.6 2.3-0.8 2.3-1 2.2-1.3 2.1-1.4 1.9-1.6 1.8-1.8 1.6-2 1.4-2 1.3-2.2 1-2.3 0.8-2.3 0.6-2.4 0.4-2.4 0.1h-49.2l-2.4-0.1-2.4-0.4-2.4-0.6-2.3-0.8-2.1-1-2.1-1.3-1.9-1.4-1.8-1.6-1.7-1.8-1.4-1.9-1.2-2.1-1.1-2.2-0.8-2.3-0.6-2.3-0.3-2.4-0.1-2.4v-265.8l0.1-2.4 0.3-2.4 0.6-2.3 0.8-2.3 1.1-2.2 1.2-2 1.4-2 1.7-1.8 1.8-1.6 1.9-1.4 2.1-1.3 2.1-1 2.3-0.8 2.4-0.6 2.4-0.4 2.4-0.1h49.2zm197 0 2.4 0.4 2.4 0.6 2.2 0.8 2.2 1 2.1 1.3 1.9 1.4 1.8 1.6 1.6 1.8 1.5 2 1.2 2 1.1 2.2 0.8 2.3 0.6 2.3 0.3 2.4 0.1 2.4v265.8l-0.1 2.4-0.3 2.4-0.6 2.3-0.8 2.3-1.1 2.2-1.2 2.1-1.5 1.9-1.6 1.8-1.8 1.6-1.9 1.4-2.1 1.3-2.2 1-2.2 0.8-2.4 0.6-2.4 0.4-2.4 0.1h-49.2l-2.4-0.1-2.4-0.4-2.3-0.6-2.3-0.8-2.2-1-2.1-1.3-1.9-1.4-1.8-1.6-1.6-1.8-1.4-1.9-1.3-2.1-1-2.2-0.8-2.3-0.6-2.3-0.4-2.4-0.1-2.4v-265.8l0.1-2.4 0.4-2.4 0.6-2.3 0.8-2.3 1-2.2 1.3-2 1.4-2 1.6-1.8 1.8-1.6 1.9-1.4 2.1-1.3 2.2-1 2.3-0.8 2.3-0.6 2.4-0.4 2.4-0.1h49.2zm393 394 2.4 0.3 2.4 0.6 2.2 0.8 2.2 1 2.1 1.3 1.9 1.4 1.8 1.6 1.6 1.8 1.5 2 1.2 2 1.1 2.2 0.8 2.3 0.6 2.3 0.3 2.4 0.1 2.4v49.3l-0.1 2.4-0.3 2.4-0.6 2.3-0.8 2.3-1.1 2.2-1.2 2-1.5 2-1.6 1.8-1.8 1.6-1.9 1.4-2.1 1.3-2.2 1-2.2 0.8-2.4 0.6-2.4 0.3-2.4 0.2h-265.7l-2.4-0.2-2.4-0.3-2.4-0.6-2.2-0.8-2.2-1-2.1-1.3-1.9-1.4-1.8-1.6-1.6-1.8-1.5-2-1.2-2-1.1-2.2-0.8-2.3-0.6-2.3-0.3-2.4-0.1-2.4v-49.3l0.1-2.4 0.3-2.4 0.6-2.3 0.8-2.3 1.1-2.2 1.2-2 1.5-2 1.6-1.8 1.8-1.6 1.9-1.4 2.1-1.3 2.2-1 2.2-0.8 2.4-0.6 2.4-0.3 2.4-0.2h265.7zm0 197 2.4 0.4 2.4 0.5 2.2 0.9 2.2 1 2.1 1.2 1.9 1.5 1.8 1.6 1.6 1.8 1.5 1.9 1.2 2.1 1.1 2.2 0.8 2.2 0.6 2.4 0.3 2.4 0.1 2.4v49.2l-0.1 2.4-0.3 2.4-0.6 2.3-0.8 2.3-1.1 2.2-1.2 2.1-1.5 1.9-1.6 1.8-1.8 1.6-1.9 1.5-2.1 1.2-2.2 1-2.2 0.8-2.4 0.6-2.4 0.4-2.4 0.1h-265.7l-2.4-0.1-2.4-0.4-2.4-0.6-2.2-0.8-2.2-1-2.1-1.2-1.9-1.5-1.8-1.6-1.6-1.8-1.5-1.9-1.2-2.1-1.1-2.2-0.8-2.3-0.6-2.3-0.3-2.4-0.1-2.4v-49.2l0.1-2.4 0.3-2.4 0.6-2.4 0.8-2.2 1.1-2.2 1.2-2.1 1.5-1.9 1.6-1.8 1.8-1.6 1.9-1.5 2.1-1.2 2.2-1 2.2-0.9 2.4-0.5 2.4-0.4 2.4-0.1h265.7zm0 197 2.4 0.3 2.4 0.6 2.2 0.8 2.2 1 2.1 1.3 1.9 1.4 1.8 1.6 1.6 1.8 1.5 2 1.2 2 1.1 2.2 0.8 2.3 0.6 2.3 0.3 2.4 0.1 2.4v49.3l-0.1 2.4-0.3 2.4-0.6 2.3-0.8 2.3-1.1 2.2-1.2 2-1.5 2-1.6 1.8-1.8 1.6-1.9 1.4-2.1 1.3-2.2 1-2.2 0.8-2.4 0.6-2.4 0.3-2.4 0.2h-265.7l-2.4-0.2-2.4-0.3-2.4-0.6-2.2-0.8-2.2-1-2.1-1.3-1.9-1.4-1.8-1.6-1.6-1.8-1.5-2-1.2-2-1.1-2.2-0.8-2.3-0.6-2.3-0.3-2.4-0.1-2.4v-49.3l0.1-2.4 0.3-2.4 0.6-2.3 0.8-2.3 1.1-2.2 1.2-2 1.5-2 1.6-1.8 1.8-1.6 1.9-1.4 2.1-1.3 2.2-1 2.2-0.8 2.4-0.6 2.4-0.3 2.4-0.2h265.7zm0 196 2.4 0.4 2.4 0.5 2.2 0.9 2.2 1 2.1 1.2 1.9 1.5 1.8 1.6 1.6 1.8 1.5 1.9 1.2 2.1 1.1 2.2 0.8 2.2 0.6 2.4 0.3 2.4 0.1 2.4v49.2l-0.1 2.4-0.3 2.4-0.6 2.3-0.8 2.3-1.1 2.2-1.2 2.1-1.5 1.9-1.6 1.8-1.8 1.6-1.9 1.5-2.1 1.2-2.2 1-2.2 0.8-2.4 0.6-2.4 0.4-2.4 0.1h-265.7l-2.4-0.1-2.4-0.4-2.4-0.6-2.2-0.8-2.2-1-2.1-1.2-1.9-1.5-1.8-1.6-1.6-1.8-1.5-1.9-1.2-2.1-1.1-2.2-0.8-2.3-0.6-2.3-0.3-2.4-0.1-2.4v-49.2l0.1-2.4 0.3-2.4 0.6-2.4 0.8-2.2 1.1-2.2 1.2-2.1 1.5-1.9 1.6-1.8 1.8-1.6 1.9-1.5 2.1-1.2 2.2-1 2.2-0.9 2.4-0.5 2.4-0.4 2.4-0.1h265.7zm0 197 2.4 0.3 2.4 0.6 2.2 0.8 2.2 1 2.1 1.3 1.9 1.4 1.8 1.6 1.6 1.8 1.5 2 1.2 2 1.1 2.2 0.8 2.3 0.6 2.3 0.3 2.4 0.1 2.4v49.3l-0.1 2.4-0.3 2.4-0.6 2.3-0.8 2.3-1.1 2.2-1.2 2-1.5 2-1.6 1.8-1.8 1.6-1.9 1.4-2.1 1.3-2.2 1-2.2 0.8-2.4 0.6-2.4 0.3-2.4 0.2h-265.7l-2.4-0.2-2.4-0.3-2.4-0.6-2.2-0.8-2.2-1-2.1-1.3-1.9-1.4-1.8-1.6-1.6-1.8-1.5-2-1.2-2-1.1-2.2-0.8-2.3-0.6-2.3-0.3-2.4-0.1-2.4v-49.3l0.1-2.4 0.3-2.4 0.6-2.3 0.8-2.3 1.1-2.2 1.2-2 1.5-2 1.6-1.8 1.8-1.6 1.9-1.4 2.1-1.3 2.2-1 2.2-0.8 2.4-0.6 2.4-0.3 2.4-0.2h265.7zm0 197 2.4 0.4 2.4 0.5 2.2 0.9 2.2 1 2.1 1.2 1.9 1.5 1.8 1.6 1.6 1.8 1.5 1.9 1.2 2.1 1.1 2.2 0.8 2.2 0.6 2.4 0.3 2.4 0.1 2.4v49.2l-0.1 2.4-0.3 2.4-0.6 2.3-0.8 2.3-1.1 2.2-1.2 2.1-1.5 1.9-1.6 1.8-1.8 1.6-1.9 1.5-2.1 1.2-2.2 1-2.2 0.8-2.4 0.6-2.4 0.4-2.4 0.1h-265.7l-2.4-0.1-2.4-0.4-2.4-0.6-2.2-0.8-2.2-1-2.1-1.2-1.9-1.5-1.8-1.6-1.6-1.8-1.5-1.9-1.2-2.1-1.1-2.2-0.8-2.3-0.6-2.3-0.3-2.4-0.1-2.4v-49.2l0.1-2.4 0.3-2.4 0.6-2.4 0.8-2.2 1.1-2.2 1.2-2.1 1.5-1.9 1.6-1.8 1.8-1.6 1.9-1.5 2.1-1.2 2.2-1 2.2-0.9 2.4-0.5 2.4-0.4 2.4-0.1h265.7zm-393 177 2.4 0.3 2.4 0.6 2.2 0.8 2.2 1.1 2.1 1.2 1.9 1.4 1.8 1.7 1.6 1.7 1.5 2 1.2 2.1 1.1 2.1 0.8 2.3 0.6 2.4 0.3 2.3 0.1 2.5v265.7l-0.1 2.4-0.3 2.4-0.6 2.3-0.8 2.3-1.1 2.2-1.2 2.1-1.5 1.9-1.6 1.8-1.8 1.6-1.9 1.5-2.1 1.2-2.2 1-2.2 0.9-2.4 0.5-2.4 0.4-2.4 0.1h-49.2l-2.4-0.1-2.4-0.4-2.3-0.5-2.3-0.9-2.2-1-2.1-1.2-1.9-1.5-1.8-1.6-1.6-1.8-1.4-1.9-1.3-2.1-1-2.2-0.8-2.3-0.6-2.3-0.4-2.4-0.1-2.4v-265.7l0.1-2.5 0.4-2.3 0.6-2.4 0.8-2.3 1-2.1 1.3-2.1 1.4-2 1.6-1.7 1.8-1.7 1.9-1.4 2.1-1.2 2.2-1.1 2.3-0.8 2.3-0.6 2.4-0.3 2.4-0.2h49.2zm-197 0 2.4 0.3 2.3 0.6 2.3 0.8 2.2 1.1 2 1.2 2 1.4 1.8 1.7 1.6 1.7 1.4 2 1.3 2.1 1 2.1 0.8 2.3 0.6 2.4 0.4 2.3 0.1 2.5v265.7l-0.1 2.4-0.4 2.4-0.6 2.3-0.8 2.3-1 2.2-1.3 2.1-1.4 1.9-1.6 1.8-1.8 1.6-2 1.5-2 1.2-2.2 1-2.3 0.9-2.3 0.5-2.4 0.4-2.4 0.1h-49.2l-2.4-0.1-2.4-0.4-2.4-0.5-2.3-0.9-2.1-1-2.1-1.2-1.9-1.5-1.8-1.6-1.7-1.8-1.4-1.9-1.2-2.1-1.1-2.2-0.8-2.3-0.6-2.3-0.3-2.4-0.1-2.4v-265.7l0.1-2.5 0.3-2.3 0.6-2.4 0.8-2.3 1.1-2.1 1.2-2.1 1.4-2 1.7-1.7 1.8-1.7 1.9-1.4 2.1-1.2 2.1-1.1 2.3-0.8 2.4-0.6 2.4-0.3 2.4-0.2h49.2zm-197 0 2.4 0.3 2.4 0.6 2.2 0.8 2.2 1.1 2.1 1.2 1.9 1.4 1.8 1.7 1.6 1.7 1.5 2 1.2 2.1 1.1 2.1 0.8 2.3 0.6 2.4 0.3 2.3 0.1 2.5v265.7l-0.1 2.4-0.3 2.4-0.6 2.3-0.8 2.3-1.1 2.2-1.2 2.1-1.5 1.9-1.6 1.8-1.8 1.6-1.9 1.5-2.1 1.2-2.2 1-2.2 0.9-2.4 0.5-2.4 0.4-2.4 0.1h-49.2l-2.4-0.1-2.4-0.4-2.3-0.5-2.3-0.9-2.2-1-2.1-1.2-1.9-1.5-1.8-1.6-1.6-1.8-1.4-1.9-1.3-2.1-1-2.2-0.8-2.3-0.6-2.3-0.4-2.4-0.1-2.4v-265.7l0.1-2.5 0.4-2.3 0.6-2.4 0.8-2.3 1-2.1 1.3-2.1 1.4-2 1.6-1.7 1.8-1.7 1.9-1.4 2.1-1.2 2.2-1.1 2.3-0.8 2.3-0.6 2.4-0.3 2.4-0.2h49.2zm-197 0 2.4 0.3 2.3 0.6 2.3 0.8 2.2 1.1 2 1.2 2 1.4 1.8 1.7 1.6 1.7 1.4 2 1.3 2.1 1 2.1 0.8 2.3 0.6 2.4 0.4 2.3 0.1 2.5v265.7l-0.1 2.4-0.4 2.4-0.6 2.3-0.8 2.3-1 2.2-1.3 2.1-1.4 1.9-1.6 1.8-1.8 1.6-2 1.5-2 1.2-2.2 1-2.3 0.9-2.3 0.5-2.4 0.4-2.4 0.1h-49.2l-2.4-0.1-2.4-0.4-2.4-0.5-2.3-0.9-2.1-1-2.1-1.2-1.9-1.5-1.8-1.6-1.7-1.8-1.4-1.9-1.2-2.1-1.1-2.2-0.8-2.3-0.6-2.3-0.3-2.4-0.1-2.4v-265.7l0.1-2.5 0.3-2.3 0.6-2.4 0.8-2.3 1.1-2.1 1.2-2.1 1.4-2 1.7-1.7 1.8-1.7 1.9-1.4 2.1-1.2 2.1-1.1 2.3-0.8 2.4-0.6 2.4-0.3 2.4-0.2h49.2zm-197 0 2.4 0.3 2.4 0.6 2.2 0.8 2.2 1.1 2.1 1.2 1.9 1.4 1.8 1.7 1.6 1.7 1.5 2 1.2 2.1 1.1 2.1 0.8 2.3 0.6 2.4 0.3 2.3 0.1 2.5v265.7l-0.1 2.4-0.3 2.4-0.6 2.3-0.8 2.3-1.1 2.2-1.2 2.1-1.5 1.9-1.6 1.8-1.8 1.6-1.9 1.5-2.1 1.2-2.2 1-2.2 0.9-2.4 0.5-2.4 0.4-2.4 0.1h-49.2l-2.4-0.1-2.4-0.4-2.3-0.5-2.3-0.9-2.2-1-2.1-1.2-1.9-1.5-1.8-1.6-1.6-1.8-1.4-1.9-1.3-2.1-1-2.2-0.8-2.3-0.6-2.3-0.4-2.4-0.1-2.4v-265.7l0.1-2.5 0.4-2.3 0.6-2.4 0.8-2.3 1-2.1 1.3-2.1 1.4-2 1.6-1.7 1.8-1.7 1.9-1.4 2.1-1.2 2.2-1.1 2.3-0.8 2.3-0.6 2.4-0.3 2.4-0.2h49.2zm-197 0 2.4 0.3 2.3 0.6 2.3 0.8 2.2 1.1 2 1.2 2 1.4 1.8 1.7 1.6 1.7 1.4 2 1.3 2.1 1 2.1 0.8 2.3 0.6 2.4 0.4 2.3 0.1 2.5v265.7l-0.1 2.4-0.4 2.4-0.6 2.3-0.8 2.3-1 2.2-1.3 2.1-1.4 1.9-1.6 1.8-1.8 1.6-2 1.5-2 1.2-2.2 1-2.3 0.9-2.3 0.5-2.4 0.4-2.4 0.1h-49.2l-2.5-0.1-2.3-0.4-2.4-0.5-2.3-0.9-2.1-1-2.1-1.2-1.9-1.5-1.8-1.6-1.7-1.8-1.4-1.9-1.2-2.1-1.1-2.2-0.8-2.3-0.6-2.3-0.3-2.4-0.1-2.4v-265.7l0.1-2.5 0.3-2.3 0.6-2.4 0.8-2.3 1.1-2.1 1.2-2.1 1.4-2 1.7-1.7 1.8-1.7 1.9-1.4 2.1-1.2 2.1-1.1 2.3-0.8 2.4-0.6 2.3-0.3 2.5-0.2h49.2zm-177-177 2.4 0.4 2.4 0.5 2.2 0.9 2.2 1 2.1 1.2 1.9 1.5 1.8 1.6 1.6 1.8 1.5 1.9 1.2 2.1 1 2.2 0.9 2.2 0.5 2.4 0.4 2.4 0.1 2.4v49.2l-0.1 2.4-0.4 2.4-0.5 2.3-0.9 2.3-1 2.2-1.2 2.1-1.5 1.9-1.6 1.8-1.8 1.6-1.9 1.5-2.1 1.2-2.2 1-2.2 0.8-2.4 0.6-2.4 0.4-2.4 0.1h-265.7l-2.5-0.1-2.3-0.4-2.4-0.6-2.3-0.8-2.1-1-2.1-1.2-1.9-1.5-1.8-1.6-1.7-1.8-1.4-1.9-1.2-2.1-1.1-2.2-0.8-2.3-0.6-2.3-0.3-2.4-0.1-2.4v-49.2l0.1-2.4 0.3-2.4 0.6-2.4 0.8-2.2 1.1-2.2 1.2-2.1 1.4-1.9 1.7-1.8 1.8-1.6 1.9-1.5 2.1-1.2 2.1-1 2.3-0.9 2.4-0.5 2.3-0.4 2.5-0.1h265.7zm0-197 2.4 0.3 2.4 0.6 2.2 0.8 2.2 1 2.1 1.3 1.9 1.4 1.8 1.6 1.6 1.8 1.5 2 1.2 2 1 2.2 0.9 2.3 0.5 2.3 0.4 2.4 0.1 2.4v49.3l-0.1 2.4-0.4 2.4-0.5 2.3-0.9 2.3-1 2.2-1.2 2-1.5 2-1.6 1.8-1.8 1.6-1.9 1.4-2.1 1.3-2.2 1-2.2 0.8-2.4 0.6-2.4 0.3-2.4 0.2h-265.7l-2.5-0.2-2.3-0.3-2.4-0.6-2.3-0.8-2.1-1-2.1-1.3-1.9-1.4-1.8-1.6-1.7-1.8-1.4-2-1.2-2-1.1-2.2-0.8-2.3-0.6-2.3-0.3-2.4-0.1-2.4v-49.3l0.1-2.4 0.3-2.4 0.6-2.3 0.8-2.3 1.1-2.2 1.2-2 1.4-2 1.7-1.8 1.8-1.6 1.9-1.4 2.1-1.3 2.1-1 2.3-0.8 2.4-0.6 2.3-0.3 2.5-0.2h265.7zm0-197 2.4 0.4 2.4 0.5 2.2 0.9 2.2 1 2.1 1.2 1.9 1.5 1.8 1.6 1.6 1.8 1.5 1.9 1.2 2.1 1 2.2 0.9 2.2 0.5 2.4 0.4 2.4 0.1 2.4v49.2l-0.1 2.4-0.4 2.4-0.5 2.3-0.9 2.3-1 2.2-1.2 2.1-1.5 1.9-1.6 1.8-1.8 1.6-1.9 1.5-2.1 1.2-2.2 1-2.2 0.8-2.4 0.6-2.4 0.4-2.4 0.1h-265.7l-2.5-0.1-2.3-0.4-2.4-0.6-2.3-0.8-2.1-1-2.1-1.2-1.9-1.5-1.8-1.6-1.7-1.8-1.4-1.9-1.2-2.1-1.1-2.2-0.8-2.3-0.6-2.3-0.3-2.4-0.1-2.4v-49.2l0.1-2.4 0.3-2.4 0.6-2.4 0.8-2.2 1.1-2.2 1.2-2.1 1.4-1.9 1.7-1.8 1.8-1.6 1.9-1.5 2.1-1.2 2.1-1 2.3-0.9 2.4-0.5 2.3-0.4 2.5-0.1h265.7zm0-196 2.4 0.3 2.4 0.6 2.2 0.8 2.2 1 2.1 1.3 1.9 1.4 1.8 1.6 1.6 1.8 1.5 2 1.2 2 1 2.2 0.9 2.3 0.5 2.3 0.4 2.4 0.1 2.4v49.3l-0.1 2.4-0.4 2.4-0.5 2.3-0.9 2.3-1 2.2-1.2 2-1.5 2-1.6 1.8-1.8 1.6-1.9 1.4-2.1 1.3-2.2 1-2.2 0.8-2.4 0.6-2.4 0.3-2.4 0.2h-265.7l-2.5-0.2-2.3-0.3-2.4-0.6-2.3-0.8-2.1-1-2.1-1.3-1.9-1.4-1.8-1.6-1.7-1.8-1.4-2-1.2-2-1.1-2.2-0.8-2.3-0.6-2.3-0.3-2.4-0.1-2.4v-49.3l0.1-2.4 0.3-2.4 0.6-2.3 0.8-2.3 1.1-2.2 1.2-2 1.4-2 1.7-1.8 1.8-1.6 1.9-1.4 2.1-1.3 2.1-1 2.3-0.8 2.4-0.6 2.3-0.3 2.5-0.2h265.7zm0-197 2.4 0.4 2.4 0.5 2.2 0.9 2.2 1 2.1 1.2 1.9 1.5 1.8 1.6 1.6 1.8 1.5 1.9 1.2 2.1 1 2.2 0.9 2.2 0.5 2.4 0.4 2.4 0.1 2.4v49.2l-0.1 2.4-0.4 2.4-0.5 2.3-0.9 2.3-1 2.2-1.2 2.1-1.5 1.9-1.6 1.8-1.8 1.6-1.9 1.5-2.1 1.2-2.2 1-2.2 0.8-2.4 0.6-2.4 0.4-2.4 0.1h-265.7l-2.5-0.1-2.3-0.4-2.4-0.6-2.3-0.8-2.1-1-2.1-1.2-1.9-1.5-1.8-1.6-1.7-1.8-1.4-1.9-1.2-2.1-1.1-2.2-0.8-2.3-0.6-2.3-0.3-2.4-0.1-2.4v-49.2l0.1-2.4 0.3-2.4 0.6-2.4 0.8-2.2 1.1-2.2 1.2-2.1 1.4-1.9 1.7-1.8 1.8-1.6 1.9-1.5 2.1-1.2 2.1-1 2.3-0.9 2.4-0.5 2.3-0.4 2.5-0.1h265.7zm0-197 2.4 0.3 2.4 0.6 2.2 0.8 2.2 1 2.1 1.3 1.9 1.4 1.8 1.6 1.6 1.8 1.5 2 1.2 2 1 2.2 0.9 2.3 0.5 2.3 0.4 2.4 0.1 2.4v49.3l-0.1 2.4-0.4 2.4-0.5 2.3-0.9 2.3-1 2.2-1.2 2-1.5 2-1.6 1.8-1.8 1.6-1.9 1.4-2.1 1.3-2.2 1-2.2 0.8-2.4 0.6-2.4 0.3-2.4 0.2h-265.7l-2.5-0.2-2.3-0.3-2.4-0.6-2.3-0.8-2.1-1-2.1-1.3-1.9-1.4-1.8-1.6-1.7-1.8-1.4-2-1.2-2-1.1-2.2-0.8-2.3-0.6-2.3-0.3-2.4-0.1-2.4v-49.3l0.1-2.4 0.3-2.4 0.6-2.3 0.8-2.3 1.1-2.2 1.2-2 1.4-2 1.7-1.8 1.8-1.6 1.9-1.4 2.1-1.3 2.1-1 2.3-0.8 2.4-0.6 2.3-0.3 2.5-0.2h265.7zm3448-2581h255.9v417.3h-255.9zm-748 0h255.9v417.3h-255.9zm0-866h255.9v417.3h-255.9zm374 0h255.9v417.3h-255.9zm374 0h255.9v417.3h-255.9z" fill-rule="evenodd"/>
  <path d="m35672 5818 9.6 1.4 9.3 2.4 9.1 3.2 8.7 4.1 8.3 5 7.8 5.8 7.1 6.4 6.5 7.2 5.8 7.8 5 8.2 4.1 8.8 3.2 9.1 2.4 9.3 1.4 9.6 0.5 9.6v492.2l-0.5 9.6-1.4 9.6-2.4 9.3-3.2 9.1-4.1 8.8-5 8.2-5.8 7.8-6.5 7.2-7.1 6.4-7.8 5.8-8.3 5-8.7 4.1-9.1 3.3-9.3 2.3-9.6 1.4-9.6 0.5h-295.3l-9.7-0.5-9.5-1.4-9.4-2.3-9.1-3.3-8.7-4.1-8.3-5-7.8-5.8-7.1-6.4-6.5-7.2-5.8-7.8-4.9-8.2-4.2-8.8-3.2-9.1-2.4-9.3-1.4-9.6-0.4-9.6v-492.2l0.4-9.6 1.4-9.6 2.4-9.3 3.2-9.1 4.2-8.8 4.9-8.2 5.8-7.8 6.5-7.2 7.1-6.4 7.8-5.8 8.3-5 8.7-4.1 9.1-3.2 9.4-2.4 9.5-1.4 9.7-0.5h295.3zm1102 0 9.5 1.4 9.4 2.4 9.1 3.2 8.7 4.1 8.3 5 7.8 5.8 7.1 6.4 6.5 7.2 5.8 7.8 4.9 8.2 4.1 8.8 3.3 9.1 2.3 9.3 1.5 9.6 0.4 9.6v492.2l-0.4 9.6-1.5 9.6-2.3 9.3-3.3 9.1-4.1 8.8-4.9 8.2-5.8 7.8-6.5 7.2-7.1 6.4-7.8 5.8-8.3 5-8.7 4.1-9.1 3.3-9.4 2.3-9.5 1.4-9.7 0.5h-295.3l-9.6-0.5-9.6-1.4-9.3-2.3-9.1-3.3-8.8-4.1-8.2-5-7.8-5.8-7.2-6.4-6.4-7.2-5.8-7.8-5-8.2-4.1-8.8-3.2-9.1-2.4-9.3-1.4-9.6-0.5-9.6v-492.2l0.5-9.6 1.4-9.6 2.4-9.3 3.2-9.1 4.1-8.8 5-8.2 5.8-7.8 6.4-7.2 7.2-6.4 7.8-5.8 8.2-5 8.8-4.1 9.1-3.2 9.3-2.4 9.6-1.4 9.6-0.5h295.3zm221-1085 3.8 0.5 3.7 1 3.7 1.3 3.5 1.6 3.3 2 3.1 2.3 2.8 2.6 2.6 2.9 2.3 3.1 2 3.3 1.7 3.5 1.3 3.6 0.9 3.8 0.6 3.8 0.2 3.8v102.4l-0.2 3.9-0.6 3.8-0.9 3.7-1.3 3.7-1.7 3.5-2 3.3-2.3 3.1-2.6 2.8-2.8 2.6-3.1 2.3-3.3 2-3.5 1.7-3.7 1.3-3.7 0.9-3.8 0.6-3.9 0.2h-78.7l-3.9-0.2-3.8-0.6-3.8-0.9-3.6-1.3-3.5-1.7-3.3-2-3.1-2.3-2.9-2.6-2.6-2.8-2.3-3.1-2-3.3-1.6-3.5-1.3-3.7-1-3.7-0.5-3.8-0.2-3.9v-102.4l0.2-3.8 0.5-3.8 1-3.8 1.3-3.6 1.6-3.5 2-3.3 2.3-3.1 2.6-2.9 2.9-2.6 3.1-2.3 3.3-2 3.5-1.6 3.6-1.3 3.8-1 3.8-0.5 3.9-0.2h78.7zm0 252 3.8 0.6 3.7 0.9 3.7 1.3 3.5 1.7 3.3 2 3.1 2.3 2.8 2.6 2.6 2.8 2.3 3.1 2 3.3 1.7 3.5 1.3 3.7 0.9 3.7 0.6 3.8 0.2 3.9v102.4l-0.2 3.8-0.6 3.8-0.9 3.8-1.3 3.6-1.7 3.5-2 3.3-2.3 3.1-2.6 2.9-2.8 2.6-3.1 2.3-3.3 2-3.5 1.6-3.7 1.3-3.7 1-3.8 0.5-3.9 0.2h-78.7l-3.9-0.2-3.8-0.5-3.8-1-3.6-1.3-3.5-1.6-3.3-2-3.1-2.3-2.9-2.6-2.6-2.9-2.3-3.1-2-3.3-1.6-3.5-1.3-3.6-1-3.8-0.5-3.8-0.2-3.8v-102.4l0.2-3.9 0.5-3.8 1-3.7 1.3-3.7 1.6-3.5 2-3.3 2.3-3.1 2.6-2.8 2.9-2.6 3.1-2.3 3.3-2 3.5-1.7 3.6-1.3 3.8-0.9 3.8-0.6 3.9-0.2h78.7zm-503-409 5.3 0.7 5.3 1.4 5 1.8 4.9 2.3 4.7 2.8 4.3 3.2 4 3.6 3.7 4 3.2 4.4 2.8 4.6 2.3 4.9 1.8 5.1 1.3 5.3 0.8 5.3 0.3 5.4v110.2l-0.3 5.4-0.8 5.4-1.3 5.2-1.8 5.1-2.3 4.9-2.8 4.7-3.2 4.3-3.7 4-4 3.6-4.3 3.3-4.7 2.8-4.9 2.3-5 1.8-5.3 1.3-5.3 0.8-5.4 0.3h-133.9l-5.4-0.3-5.4-0.8-5.2-1.3-5.1-1.8-4.9-2.3-4.6-2.8-4.4-3.3-4-3.6-3.6-4-3.2-4.3-2.8-4.7-2.3-4.9-1.8-5.1-1.4-5.2-0.8-5.4-0.2-5.4v-110.2l0.2-5.4 0.8-5.3 1.4-5.3 1.8-5.1 2.3-4.9 2.8-4.6 3.2-4.4 3.6-4 4-3.6 4.4-3.2 4.6-2.8 4.9-2.3 5.1-1.8 5.2-1.4 5.4-0.7 5.4-0.3h133.9zm0 378 5.3 0.8 5.3 1.3 5 1.8 4.9 2.3 4.7 2.8 4.3 3.3 4 3.6 3.7 4 3.2 4.3 2.8 4.7 2.3 4.9 1.8 5.1 1.3 5.2 0.8 5.4 0.3 5.4v110.2l-0.3 5.4-0.8 5.3-1.3 5.3-1.8 5.1-2.3 4.9-2.8 4.6-3.2 4.4-3.7 4-4 3.6-4.3 3.2-4.7 2.8-4.9 2.3-5 1.8-5.3 1.4-5.3 0.7-5.4 0.3h-133.9l-5.4-0.3-5.4-0.7-5.2-1.4-5.1-1.8-4.9-2.3-4.6-2.8-4.4-3.2-4-3.6-3.6-4-3.2-4.4-2.8-4.6-2.3-4.9-1.8-5.1-1.4-5.3-0.8-5.3-0.2-5.4v-110.2l0.2-5.4 0.8-5.4 1.4-5.2 1.8-5.1 2.3-4.9 2.8-4.7 3.2-4.3 3.6-4 4-3.6 4.4-3.3 4.6-2.8 4.9-2.3 5.1-1.8 5.2-1.3 5.4-0.8 5.4-0.3h133.9zm-3346 1374 5.4 0.8 5.2 1.3 5.1 1.9 4.9 2.3 4.6 2.7 4.4 3.3 4 3.6 3.6 4 3.2 4.4 2.8 4.6 2.3 4.9 1.8 5.1 1.4 5.2 0.8 5.4 0.2 5.4v110.2l-0.2 5.4-0.8 5.4-1.4 5.2-1.8 5.1-2.3 4.9-2.8 4.6-3.2 4.4-3.6 4-4 3.6-4.4 3.2-4.6 2.8-4.9 2.3-5.1 1.9-5.2 1.3-5.4 0.8-5.4 0.2h-133.9l-5.4-0.2-5.3-0.8-5.3-1.3-5.1-1.9-4.8-2.3-4.7-2.8-4.3-3.2-4-3.6-3.7-4-3.2-4.4-2.8-4.6-2.3-4.9-1.8-5.1-1.3-5.2-0.8-5.4-0.3-5.4v-110.2l0.3-5.4 0.8-5.4 1.3-5.2 1.8-5.1 2.3-4.9 2.8-4.6 3.2-4.4 3.7-4 4-3.6 4.3-3.3 4.7-2.7 4.8-2.3 5.1-1.9 5.3-1.3 5.3-0.8 5.4-0.2h133.9zm0-378 5.4 0.8 5.2 1.3 5.1 1.8 4.9 2.3 4.6 2.8 4.4 3.2 4 3.6 3.6 4.1 3.2 4.3 2.8 4.6 2.3 4.9 1.8 5.1 1.4 5.3 0.8 5.3 0.2 5.4v110.3l-0.2 5.4-0.8 5.3-1.4 5.3-1.8 5.1-2.3 4.8-2.8 4.7-3.2 4.3-3.6 4-4 3.7-4.4 3.2-4.6 2.8-4.9 2.3-5.1 1.8-5.2 1.3-5.4 0.8-5.4 0.3h-133.9l-5.4-0.3-5.3-0.8-5.3-1.3-5.1-1.8-4.8-2.3-4.7-2.8-4.3-3.2-4-3.7-3.7-4-3.2-4.3-2.8-4.7-2.3-4.8-1.8-5.1-1.3-5.3-0.8-5.3-0.3-5.4v-110.3l0.3-5.4 0.8-5.3 1.3-5.3 1.8-5.1 2.3-4.9 2.8-4.6 3.2-4.3 3.7-4.1 4-3.6 4.3-3.2 4.7-2.8 4.8-2.3 5.1-1.8 5.3-1.3 5.3-0.8 5.4-0.3h133.9zm69 3539 3.8 0.5 3.8 1 3.6 1.3 3.5 1.6 3.3 2 3.1 2.3 2.9 2.6 2.6 2.9 2.3 3.1 2 3.3 1.6 3.5 1.3 3.6 1 3.8 0.5 3.8 0.2 3.8v102.4l-0.2 3.9-0.5 3.8-1 3.7-1.3 3.7-1.6 3.5-2 3.3-2.3 3.1-2.6 2.8-2.9 2.6-3.1 2.3-3.3 2-3.5 1.7-3.6 1.3-3.8 0.9-3.8 0.6-3.8 0.2h-78.8l-3.8-0.2-3.9-0.6-3.7-0.9-3.6-1.3-3.5-1.7-3.3-2-3.2-2.3-2.8-2.6-2.6-2.8-2.3-3.1-2-3.3-1.6-3.5-1.4-3.7-0.9-3.7-0.6-3.8-0.1-3.9v-102.4l0.1-3.8 0.6-3.8 0.9-3.8 1.4-3.6 1.6-3.5 2-3.3 2.3-3.1 2.6-2.9 2.8-2.6 3.2-2.3 3.3-2 3.5-1.6 3.6-1.3 3.7-1 3.9-0.5 3.8-0.2h78.8zm0 252 3.8 0.6 3.8 0.9 3.6 1.3 3.5 1.7 3.3 2 3.1 2.3 2.9 2.6 2.6 2.8 2.3 3.1 2 3.4 1.6 3.4 1.3 3.7 1 3.7 0.5 3.9 0.2 3.8v102.4l-0.2 3.8-0.5 3.9-1 3.7-1.3 3.6-1.6 3.5-2 3.3-2.3 3.2-2.6 2.8-2.9 2.6-3.1 2.3-3.3 2-3.5 1.6-3.6 1.3-3.8 1-3.8 0.6-3.8 0.1h-78.8l-3.8-0.1-3.9-0.6-3.7-1-3.6-1.3-3.5-1.6-3.3-2-3.2-2.3-2.8-2.6-2.6-2.8-2.3-3.2-2-3.3-1.6-3.5-1.4-3.6-0.9-3.7-0.6-3.9-0.1-3.8v-102.4l0.1-3.8 0.6-3.9 0.9-3.7 1.4-3.7 1.6-3.4 2-3.4 2.3-3.1 2.6-2.8 2.8-2.6 3.2-2.3 3.3-2 3.5-1.7 3.6-1.3 3.7-0.9 3.9-0.6 3.8-0.2h78.8zm3277-5559 5.3 0.7 5.3 1.4 5 1.8 4.9 2.3 4.7 2.8 4.3 3.2 4 3.6 3.7 4 3.2 4.4 2.8 4.6 2.3 4.9 1.8 5.1 1.3 5.3 0.8 5.3 0.3 5.4v110.2l-0.3 5.4-0.8 5.4-1.3 5.2-1.8 5.1-2.3 4.9-2.8 4.7-3.2 4.3-3.7 4-4 3.6-4.3 3.3-4.7 2.8-4.9 2.3-5 1.8-5.3 1.3-5.3 0.8-5.4 0.3h-133.9l-5.4-0.3-5.4-0.8-5.2-1.3-5.1-1.8-4.9-2.3-4.6-2.8-4.4-3.3-4-3.6-3.6-4-3.2-4.3-2.8-4.7-2.3-4.9-1.8-5.1-1.4-5.2-0.8-5.4-0.2-5.4v-110.2l0.2-5.4 0.8-5.3 1.4-5.3 1.8-5.1 2.3-4.9 2.8-4.6 3.2-4.4 3.6-4 4-3.6 4.4-3.2 4.6-2.8 4.9-2.3 5.1-1.8 5.2-1.4 5.4-0.7 5.4-0.3h133.9zm0-378 5.3 0.8 5.3 1.3 5 1.8 4.9 2.3 4.7 2.8 4.3 3.2 4 3.7 3.7 4 3.2 4.3 2.8 4.7 2.3 4.9 1.8 5.1 1.3 5.2 0.8 5.4 0.3 5.4v110.2l-0.3 5.4-0.8 5.3-1.3 5.3-1.8 5.1-2.3 4.9-2.8 4.6-3.2 4.4-3.7 4-4 3.6-4.3 3.2-4.7 2.8-4.9 2.3-5 1.8-5.3 1.3-5.3 0.8-5.4 0.3h-133.9l-5.4-0.3-5.4-0.8-5.2-1.3-5.1-1.8-4.9-2.3-4.6-2.8-4.4-3.2-4-3.6-3.6-4-3.2-4.4-2.8-4.6-2.3-4.9-1.8-5.1-1.4-5.3-0.8-5.3-0.2-5.4v-110.2l0.2-5.4 0.8-5.4 1.4-5.2 1.8-5.1 2.3-4.9 2.8-4.7 3.2-4.3 3.6-4 4-3.7 4.4-3.2 4.6-2.8 4.9-2.3 5.1-1.8 5.2-1.3 5.4-0.8 5.4-0.3h133.9zm-2434 4524 3.9 0.6 3.7 1 3.7 1.3 3.4 1.6 3.4 2 3.1 2.3 2.8 2.6 2.6 2.9 2.3 3.1 2 3.3 1.7 3.5 1.3 3.6 0.9 3.7 0.6 3.9 0.2 3.8v78.8l-0.2 3.8-0.6 3.8-0.9 3.8-1.3 3.6-1.7 3.5-2 3.3-2.3 3.1-2.6 2.9-2.8 2.6-3.1 2.3-3.4 2-3.4 1.6-3.7 1.3-3.7 1-3.9 0.5-3.8 0.2h-102.4l-3.8-0.2-3.9-0.5-3.7-1-3.6-1.3-3.5-1.6-3.4-2-3.1-2.3-2.8-2.6-2.6-2.9-2.3-3.1-2-3.3-1.7-3.5-1.3-3.6-0.9-3.8-0.6-3.8-0.1-3.8v-78.8l0.1-3.8 0.6-3.9 0.9-3.7 1.3-3.6 1.7-3.5 2-3.3 2.3-3.1 2.6-2.9 2.8-2.6 3.1-2.3 3.4-2 3.5-1.6 3.6-1.3 3.7-1 3.9-0.6 3.8-0.1h102.4zm252 0 3.8 0.6 3.8 1 3.6 1.3 3.5 1.6 3.3 2 3.1 2.3 2.9 2.6 2.6 2.9 2.3 3.1 2 3.3 1.6 3.5 1.3 3.6 1 3.7 0.5 3.9 0.2 3.8v78.8l-0.2 3.8-0.5 3.8-1 3.8-1.3 3.6-1.6 3.5-2 3.3-2.3 3.1-2.6 2.9-2.9 2.6-3.1 2.3-3.3 2-3.5 1.6-3.6 1.3-3.8 1-3.8 0.5-3.8 0.2h-102.4l-3.9-0.2-3.8-0.5-3.7-1-3.7-1.3-3.5-1.6-3.3-2-3.1-2.3-2.8-2.6-2.6-2.9-2.3-3.1-2-3.3-1.7-3.5-1.3-3.6-0.9-3.8-0.6-3.8-0.2-3.8v-78.8l0.2-3.8 0.6-3.9 0.9-3.7 1.3-3.6 1.7-3.5 2-3.3 2.3-3.1 2.6-2.9 2.8-2.6 3.1-2.3 3.3-2 3.5-1.6 3.7-1.3 3.7-1 3.8-0.6 3.9-0.1h102.4zm-1803 1425 3.8 0.6 3.7 0.9 3.7 1.4 3.5 1.6 3.3 2 3.1 2.3 2.8 2.6 2.6 2.8 2.3 3.2 2 3.3 1.7 3.5 1.3 3.6 0.9 3.7 0.6 3.9 0.2 3.8v102.4l-0.2 3.8-0.6 3.9-0.9 3.7-1.3 3.7-1.7 3.4-2 3.4-2.3 3.1-2.6 2.8-2.8 2.6-3.1 2.3-3.3 2-3.5 1.7-3.7 1.3-3.7 0.9-3.8 0.6-3.9 0.2h-78.7l-3.9-0.2-3.8-0.6-3.8-0.9-3.6-1.3-3.5-1.7-3.3-2-3.1-2.3-2.9-2.6-2.6-2.8-2.3-3.1-2-3.4-1.6-3.4-1.3-3.7-1-3.7-0.5-3.9-0.2-3.8v-102.4l0.2-3.8 0.5-3.9 1-3.7 1.3-3.6 1.6-3.5 2-3.3 2.3-3.2 2.6-2.8 2.9-2.6 3.1-2.3 3.3-2 3.5-1.6 3.6-1.4 3.8-0.9 3.8-0.6 3.9-0.1h78.7zm0-252 3.8 0.5 3.7 1 3.7 1.3 3.5 1.6 3.3 2 3.1 2.3 2.8 2.6 2.6 2.9 2.3 3.1 2 3.3 1.7 3.5 1.3 3.6 0.9 3.8 0.6 3.8 0.2 3.9v102.3l-0.2 3.9-0.6 3.8-0.9 3.7-1.3 3.7-1.7 3.5-2 3.3-2.3 3.1-2.6 2.9-2.8 2.6-3.1 2.3-3.3 1.9-3.5 1.7-3.7 1.3-3.7 0.9-3.8 0.6-3.9 0.2h-78.7l-3.9-0.2-3.8-0.6-3.8-0.9-3.6-1.3-3.5-1.7-3.3-1.9-3.1-2.3-2.9-2.6-2.6-2.9-2.3-3.1-2-3.3-1.6-3.5-1.3-3.7-1-3.7-0.5-3.8-0.2-3.9v-102.3l0.2-3.9 0.5-3.8 1-3.8 1.3-3.6 1.6-3.5 2-3.3 2.3-3.1 2.6-2.9 2.9-2.6 3.1-2.3 3.3-2 3.5-1.6 3.6-1.3 3.8-1 3.8-0.5 3.9-0.2h78.7z" fill-rule="evenodd"/>
  <circle cx="31858" cy="6581" r="157.48"/>
  <circle cx="33546" cy="6261" r="157.48"/>
  <circle cx="33684" cy="9981" r="157.48"/>
  <circle cx="34648" cy="9981" r="157.48"/>
  <circle cx="33723" cy="9548" r="157.48"/>
  <circle cx="32758" cy="9235" r="157.48"/>
  <circle cx="31991" cy="9174" r="157.48"/>
  <circle cx="31558" cy="8564" r="157.48"/>
  <circle cx="32267" cy="6654" r="157.48"/>
  <circle cx="32660" cy="6733" r="157.48"/>
 </g>
 <path d="m36420 4292v393m393 0 138 138m-531-138h393m1138 138 240 240m-1240-240h1e3m-1531-138h-178m0 0-157-157m-748-87v-307m87 394-87-87m748 87h-661m1192 1634v-40m1060-1059h515m-1575 1059 1060-1059m-4331 996h-272m473 201-201-201m3271 103-551 551m-2401 0-118 118m2519-118h-2401m-118 118v-571m0 1161v-590m0 590h452m256 256v729m-256-985 256 256m-1425 2154-12 12m355-12h-343m-12 12h-354m784-12h-75m206-132-131 132m131-707v575m-137-713 137 138m-197-138h60m-168-108 108 108m-108-305v197m-1215-1609v-689m152 841-152-152m1314 2562h362m0 0 149 150m965-1182-394-393m394 1575v-1182m1783-3724-11-12m531 12h-520m-657-12-63-63m709 63h-646m-658 532 595-595m-768 595h173m-2456 508h-355m2638-508h-1992m-291 291v217m291-508-291 291m1342 2520h-456m-1083 700v485m20-504-20 19m20-425v406m-607 504-653-654m0 0v-2126m708-708h374m-1082 708 708-708m122 3488h-177m587 0h-410m1949-1071v-114m-43 1870 256-256m-1654 256h1398m-1605-207 207 207m1654-1544-213-212m-1648 1541v8m-301-309 301 301m1861-41v-1288m-2162 859v169m5989-5846 149 149m-1771-149h1622m-2111 0h489m-709 220 220-220m-968 220v-295m0 0 98-99m650 87v307m-87-394 87 87m-650-87h563m-2748 5209v-268m296 563-296-295m296 630v-335m-99-2098v-709m2126-590 315 315m-571-315h256m-1476 3287-453-453m453 866v-413m-1004 358 98 99m-138-910v437m0 38 79 78m-79-116v38m40 117 39-39m-39 258v-219m-433-395-296 295m296-492v197m-571-472-158 157m453-157h-295m571-2032 19-19m-19 279-20 20m20 492v-512m0 0v-260m197 772v-236m177-178v-377m-59 437 59-60m-177 178 118-118" fill="none" stroke="#212d53" stroke-linecap="round" stroke-linejoin="round" stroke-width="98.425"/>
 <g fill="#212d53">
  <circle cx="31858" cy="6581" r="68.898"/>
  <circle cx="33546" cy="6261" r="68.898"/>
  <circle cx="33684" cy="9981" r="68.898"/>
  <circle cx="34648" cy="9981" r="68.898"/>
  <circle cx="33723" cy="9548" r="68.898"/>
  <circle cx="32758" cy="9235" r="68.898"/>
  <circle cx="31991" cy="9174" r="68.898"/>
  <circle cx="31558" cy="8564" r="68.898"/>
  <circle cx="32267" cy="6654" r="68.898"/>
  <circle cx="32660" cy="6733" r="68.898"/>
  <circle cx="38192" cy="4064" r="68.898"/>
 </g>
 <g fill="#b5ae30">
  <path d="m32313 6979 2.4 0.4 2.3 0.6 2.3 0.8 2.2 1 2 1.3 2 1.4 1.8 1.6 1.6 1.8 1.4 2 1.3 2 1 2.2 0.8 2.3 0.6 2.3 0.4 2.4 0.1 2.4v265.8l-0.1 2.4-0.4 2.4-0.6 2.3-0.8 2.3-1 2.2-1.3 2.1-1.4 1.9-1.6 1.8-1.8 1.6-2 1.4-2 1.3-2.2 1-2.3 0.8-2.3 0.6-2.4 0.4-2.4 0.1h-49.2l-2.5-0.1-2.3-0.4-2.4-0.6-2.3-0.8-2.1-1-2.1-1.3-1.9-1.4-1.8-1.6-1.7-1.8-1.4-1.9-1.2-2.1-1.1-2.2-0.8-2.3-0.6-2.3-0.3-2.4-0.1-2.4v-265.8l0.1-2.4 0.3-2.4 0.6-2.3 0.8-2.3 1.1-2.2 1.2-2 1.4-2 1.7-1.8 1.8-1.6 1.9-1.4 2.1-1.3 2.1-1 2.3-0.8 2.4-0.6 2.3-0.4 2.5-0.1h49.2zm197 0 2.4 0.4 2.4 0.6 2.2 0.8 2.2 1 2.1 1.3 1.9 1.4 1.8 1.6 1.6 1.8 1.5 2 1.2 2 1.1 2.2 0.8 2.3 0.6 2.3 0.3 2.4 0.1 2.4v265.8l-0.1 2.4-0.3 2.4-0.6 2.3-0.8 2.3-1.1 2.2-1.2 2.1-1.5 1.9-1.6 1.8-1.8 1.6-1.9 1.4-2.1 1.3-2.2 1-2.2 0.8-2.4 0.6-2.4 0.4-2.4 0.1h-49.2l-2.4-0.1-2.4-0.4-2.3-0.6-2.3-0.8-2.2-1-2.1-1.3-1.9-1.4-1.8-1.6-1.6-1.8-1.4-1.9-1.3-2.1-1-2.2-0.8-2.3-0.6-2.3-0.4-2.4-0.1-2.4v-265.8l0.1-2.4 0.4-2.4 0.6-2.3 0.8-2.3 1-2.2 1.3-2 1.4-2 1.6-1.8 1.8-1.6 1.9-1.4 2.1-1.3 2.2-1 2.3-0.8 2.3-0.6 2.4-0.4 2.4-0.1h49.2zm197 0 2.4 0.4 2.3 0.6 2.3 0.8 2.2 1 2 1.3 2 1.4 1.8 1.6 1.6 1.8 1.4 2 1.3 2 1 2.2 0.8 2.3 0.6 2.3 0.4 2.4 0.1 2.4v265.8l-0.1 2.4-0.4 2.4-0.6 2.3-0.8 2.3-1 2.2-1.3 2.1-1.4 1.9-1.6 1.8-1.8 1.6-2 1.4-2 1.3-2.2 1-2.3 0.8-2.3 0.6-2.4 0.4-2.4 0.1h-49.2l-2.4-0.1-2.4-0.4-2.4-0.6-2.3-0.8-2.1-1-2.1-1.3-1.9-1.4-1.8-1.6-1.7-1.8-1.4-1.9-1.2-2.1-1.1-2.2-0.8-2.3-0.6-2.3-0.3-2.4-0.1-2.4v-265.8l0.1-2.4 0.3-2.4 0.6-2.3 0.8-2.3 1.1-2.2 1.2-2 1.4-2 1.7-1.8 1.8-1.6 1.9-1.4 2.1-1.3 2.1-1 2.3-0.8 2.4-0.6 2.4-0.4 2.4-0.1h49.2zm197 0 2.4 0.4 2.4 0.6 2.2 0.8 2.2 1 2.1 1.3 1.9 1.4 1.8 1.6 1.6 1.8 1.5 2 1.2 2 1.1 2.2 0.8 2.3 0.6 2.3 0.3 2.4 0.1 2.4v265.8l-0.1 2.4-0.3 2.4-0.6 2.3-0.8 2.3-1.1 2.2-1.2 2.1-1.5 1.9-1.6 1.8-1.8 1.6-1.9 1.4-2.1 1.3-2.2 1-2.2 0.8-2.4 0.6-2.4 0.4-2.4 0.1h-49.2l-2.4-0.1-2.4-0.4-2.3-0.6-2.3-0.8-2.2-1-2.1-1.3-1.9-1.4-1.8-1.6-1.6-1.8-1.4-1.9-1.3-2.1-1-2.2-0.8-2.3-0.6-2.3-0.4-2.4-0.1-2.4v-265.8l0.1-2.4 0.4-2.4 0.6-2.3 0.8-2.3 1-2.2 1.3-2 1.4-2 1.6-1.8 1.8-1.6 1.9-1.4 2.1-1.3 2.2-1 2.3-0.8 2.3-0.6 2.4-0.4 2.4-0.1h49.2zm197 0 2.4 0.4 2.3 0.6 2.3 0.8 2.2 1 2 1.3 2 1.4 1.8 1.6 1.6 1.8 1.4 2 1.3 2 1 2.2 0.8 2.3 0.6 2.3 0.4 2.4 0.1 2.4v265.8l-0.1 2.4-0.4 2.4-0.6 2.3-0.8 2.3-1 2.2-1.3 2.1-1.4 1.9-1.6 1.8-1.8 1.6-2 1.4-2 1.3-2.2 1-2.3 0.8-2.3 0.6-2.4 0.4-2.4 0.1h-49.2l-2.4-0.1-2.4-0.4-2.4-0.6-2.3-0.8-2.1-1-2.1-1.3-1.9-1.4-1.8-1.6-1.7-1.8-1.4-1.9-1.2-2.1-1.1-2.2-0.8-2.3-0.6-2.3-0.3-2.4-0.1-2.4v-265.8l0.1-2.4 0.3-2.4 0.6-2.3 0.8-2.3 1.1-2.2 1.2-2 1.4-2 1.7-1.8 1.8-1.6 1.9-1.4 2.1-1.3 2.1-1 2.3-0.8 2.4-0.6 2.4-0.4 2.4-0.1h49.2zm197 0 2.4 0.4 2.4 0.6 2.2 0.8 2.2 1 2.1 1.3 1.9 1.4 1.8 1.6 1.6 1.8 1.5 2 1.2 2 1.1 2.2 0.8 2.3 0.6 2.3 0.3 2.4 0.1 2.4v265.8l-0.1 2.4-0.3 2.4-0.6 2.3-0.8 2.3-1.1 2.2-1.2 2.1-1.5 1.9-1.6 1.8-1.8 1.6-1.9 1.4-2.1 1.3-2.2 1-2.2 0.8-2.4 0.6-2.4 0.4-2.4 0.1h-49.2l-2.4-0.1-2.4-0.4-2.3-0.6-2.3-0.8-2.2-1-2.1-1.3-1.9-1.4-1.8-1.6-1.6-1.8-1.4-1.9-1.3-2.1-1-2.2-0.8-2.3-0.6-2.3-0.4-2.4-0.1-2.4v-265.8l0.1-2.4 0.4-2.4 0.6-2.3 0.8-2.3 1-2.2 1.3-2 1.4-2 1.6-1.8 1.8-1.6 1.9-1.4 2.1-1.3 2.2-1 2.3-0.8 2.3-0.6 2.4-0.4 2.4-0.1h49.2zm393 394 2.4 0.3 2.4 0.6 2.2 0.8 2.2 1 2.1 1.3 1.9 1.4 1.8 1.6 1.6 1.8 1.5 2 1.2 2 1.1 2.2 0.8 2.3 0.6 2.3 0.3 2.4 0.1 2.4v49.3l-0.1 2.4-0.3 2.4-0.6 2.3-0.8 2.3-1.1 2.2-1.2 2-1.5 2-1.6 1.8-1.8 1.6-1.9 1.4-2.1 1.3-2.2 1-2.2 0.8-2.4 0.6-2.4 0.3-2.4 0.2h-265.7l-2.4-0.2-2.4-0.3-2.4-0.6-2.2-0.8-2.2-1-2.1-1.3-1.9-1.4-1.8-1.6-1.6-1.8-1.5-2-1.2-2-1.1-2.2-0.8-2.3-0.6-2.3-0.3-2.4-0.1-2.4v-49.3l0.1-2.4 0.3-2.4 0.6-2.3 0.8-2.3 1.1-2.2 1.2-2 1.5-2 1.6-1.8 1.8-1.6 1.9-1.4 2.1-1.3 2.2-1 2.2-0.8 2.4-0.6 2.4-0.3 2.4-0.2h265.7zm0 197 2.4 0.4 2.4 0.5 2.2 0.9 2.2 1 2.1 1.2 1.9 1.5 1.8 1.6 1.6 1.8 1.5 1.9 1.2 2.1 1.1 2.2 0.8 2.2 0.6 2.4 0.3 2.4 0.1 2.4v49.2l-0.1 2.4-0.3 2.4-0.6 2.3-0.8 2.3-1.1 2.2-1.2 2.1-1.5 1.9-1.6 1.8-1.8 1.6-1.9 1.5-2.1 1.2-2.2 1-2.2 0.8-2.4 0.6-2.4 0.4-2.4 0.1h-265.7l-2.4-0.1-2.4-0.4-2.4-0.6-2.2-0.8-2.2-1-2.1-1.2-1.9-1.5-1.8-1.6-1.6-1.8-1.5-1.9-1.2-2.1-1.1-2.2-0.8-2.3-0.6-2.3-0.3-2.4-0.1-2.4v-49.2l0.1-2.4 0.3-2.4 0.6-2.4 0.8-2.2 1.1-2.2 1.2-2.1 1.5-1.9 1.6-1.8 1.8-1.6 1.9-1.5 2.1-1.2 2.2-1 2.2-0.9 2.4-0.5 2.4-0.4 2.4-0.1h265.7zm0 197 2.4 0.3 2.4 0.6 2.2 0.8 2.2 1 2.1 1.3 1.9 1.4 1.8 1.6 1.6 1.8 1.5 2 1.2 2 1.1 2.2 0.8 2.3 0.6 2.3 0.3 2.4 0.1 2.4v49.3l-0.1 2.4-0.3 2.4-0.6 2.3-0.8 2.3-1.1 2.2-1.2 2-1.5 2-1.6 1.8-1.8 1.6-1.9 1.4-2.1 1.3-2.2 1-2.2 0.8-2.4 0.6-2.4 0.3-2.4 0.2h-265.7l-2.4-0.2-2.4-0.3-2.4-0.6-2.2-0.8-2.2-1-2.1-1.3-1.9-1.4-1.8-1.6-1.6-1.8-1.5-2-1.2-2-1.1-2.2-0.8-2.3-0.6-2.3-0.3-2.4-0.1-2.4v-49.3l0.1-2.4 0.3-2.4 0.6-2.3 0.8-2.3 1.1-2.2 1.2-2 1.5-2 1.6-1.8 1.8-1.6 1.9-1.4 2.1-1.3 2.2-1 2.2-0.8 2.4-0.6 2.4-0.3 2.4-0.2h265.7zm0 196 2.4 0.4 2.4 0.5 2.2 0.9 2.2 1 2.1 1.2 1.9 1.5 1.8 1.6 1.6 1.8 1.5 1.9 1.2 2.1 1.1 2.2 0.8 2.2 0.6 2.4 0.3 2.4 0.1 2.4v49.2l-0.1 2.4-0.3 2.4-0.6 2.3-0.8 2.3-1.1 2.2-1.2 2.1-1.5 1.9-1.6 1.8-1.8 1.6-1.9 1.5-2.1 1.2-2.2 1-2.2 0.8-2.4 0.6-2.4 0.4-2.4 0.1h-265.7l-2.4-0.1-2.4-0.4-2.4-0.6-2.2-0.8-2.2-1-2.1-1.2-1.9-1.5-1.8-1.6-1.6-1.8-1.5-1.9-1.2-2.1-1.1-2.2-0.8-2.3-0.6-2.3-0.3-2.4-0.1-2.4v-49.2l0.1-2.4 0.3-2.4 0.6-2.4 0.8-2.2 1.1-2.2 1.2-2.1 1.5-1.9 1.6-1.8 1.8-1.6 1.9-1.5 2.1-1.2 2.2-1 2.2-0.9 2.4-0.5 2.4-0.4 2.4-0.1h265.7zm0 197 2.4 0.3 2.4 0.6 2.2 0.8 2.2 1 2.1 1.3 1.9 1.4 1.8 1.6 1.6 1.8 1.5 2 1.2 2 1.1 2.2 0.8 2.3 0.6 2.3 0.3 2.4 0.1 2.4v49.3l-0.1 2.4-0.3 2.4-0.6 2.3-0.8 2.3-1.1 2.2-1.2 2-1.5 2-1.6 1.8-1.8 1.6-1.9 1.4-2.1 1.3-2.2 1-2.2 0.8-2.4 0.6-2.4 0.3-2.4 0.2h-265.7l-2.4-0.2-2.4-0.3-2.4-0.6-2.2-0.8-2.2-1-2.1-1.3-1.9-1.4-1.8-1.6-1.6-1.8-1.5-2-1.2-2-1.1-2.2-0.8-2.3-0.6-2.3-0.3-2.4-0.1-2.4v-49.3l0.1-2.4 0.3-2.4 0.6-2.3 0.8-2.3 1.1-2.2 1.2-2 1.5-2 1.6-1.8 1.8-1.6 1.9-1.4 2.1-1.3 2.2-1 2.2-0.8 2.4-0.6 2.4-0.3 2.4-0.2h265.7zm0 197 2.4 0.4 2.4 0.5 2.2 0.9 2.2 1 2.1 1.2 1.9 1.5 1.8 1.6 1.6 1.8 1.5 1.9 1.2 2.1 1.1 2.2 0.8 2.2 0.6 2.4 0.3 2.4 0.1 2.4v49.2l-0.1 2.4-0.3 2.4-0.6 2.3-0.8 2.3-1.1 2.2-1.2 2.1-1.5 1.9-1.6 1.8-1.8 1.6-1.9 1.5-2.1 1.2-2.2 1-2.2 0.8-2.4 0.6-2.4 0.4-2.4 0.1h-265.7l-2.4-0.1-2.4-0.4-2.4-0.6-2.2-0.8-2.2-1-2.1-1.2-1.9-1.5-1.8-1.6-1.6-1.8-1.5-1.9-1.2-2.1-1.1-2.2-0.8-2.3-0.6-2.3-0.3-2.4-0.1-2.4v-49.2l0.1-2.4 0.3-2.4 0.6-2.4 0.8-2.2 1.1-2.2 1.2-2.1 1.5-1.9 1.6-1.8 1.8-1.6 1.9-1.5 2.1-1.2 2.2-1 2.2-0.9 2.4-0.5 2.4-0.4 2.4-0.1h265.7zm-393 177 2.4 0.3 2.4 0.6 2.2 0.8 2.2 1.1 2.1 1.2 1.9 1.4 1.8 1.7 1.6 1.7 1.5 2 1.2 2.1 1.1 2.1 0.8 2.3 0.6 2.4 0.3 2.3 0.1 2.5v265.7l-0.1 2.4-0.3 2.4-0.6 2.3-0.8 2.3-1.1 2.2-1.2 2.1-1.5 1.9-1.6 1.8-1.8 1.6-1.9 1.5-2.1 1.2-2.2 1-2.2 0.9-2.4 0.5-2.4 0.4-2.4 0.1h-49.2l-2.4-0.1-2.4-0.4-2.3-0.5-2.3-0.9-2.2-1-2.1-1.2-1.9-1.5-1.8-1.6-1.6-1.8-1.4-1.9-1.3-2.1-1-2.2-0.8-2.3-0.6-2.3-0.4-2.4-0.1-2.4v-265.7l0.1-2.5 0.4-2.3 0.6-2.4 0.8-2.3 1-2.1 1.3-2.1 1.4-2 1.6-1.7 1.8-1.7 1.9-1.4 2.1-1.2 2.2-1.1 2.3-0.8 2.3-0.6 2.4-0.3 2.4-0.2h49.2zm-197 0 2.4 0.3 2.3 0.6 2.3 0.8 2.2 1.1 2 1.2 2 1.4 1.8 1.7 1.6 1.7 1.4 2 1.3 2.1 1 2.1 0.8 2.3 0.6 2.4 0.4 2.3 0.1 2.5v265.7l-0.1 2.4-0.4 2.4-0.6 2.3-0.8 2.3-1 2.2-1.3 2.1-1.4 1.9-1.6 1.8-1.8 1.6-2 1.5-2 1.2-2.2 1-2.3 0.9-2.3 0.5-2.4 0.4-2.4 0.1h-49.2l-2.4-0.1-2.4-0.4-2.4-0.5-2.3-0.9-2.1-1-2.1-1.2-1.9-1.5-1.8-1.6-1.7-1.8-1.4-1.9-1.2-2.1-1.1-2.2-0.8-2.3-0.6-2.3-0.3-2.4-0.1-2.4v-265.7l0.1-2.5 0.3-2.3 0.6-2.4 0.8-2.3 1.1-2.1 1.2-2.1 1.4-2 1.7-1.7 1.8-1.7 1.9-1.4 2.1-1.2 2.1-1.1 2.3-0.8 2.4-0.6 2.4-0.3 2.4-0.2h49.2zm-197 0 2.4 0.3 2.4 0.6 2.2 0.8 2.2 1.1 2.1 1.2 1.9 1.4 1.8 1.7 1.6 1.7 1.5 2 1.2 2.1 1.1 2.1 0.8 2.3 0.6 2.4 0.3 2.3 0.1 2.5v265.7l-0.1 2.4-0.3 2.4-0.6 2.3-0.8 2.3-1.1 2.2-1.2 2.1-1.5 1.9-1.6 1.8-1.8 1.6-1.9 1.5-2.1 1.2-2.2 1-2.2 0.9-2.4 0.5-2.4 0.4-2.4 0.1h-49.2l-2.4-0.1-2.4-0.4-2.3-0.5-2.3-0.9-2.2-1-2.1-1.2-1.9-1.5-1.8-1.6-1.6-1.8-1.4-1.9-1.3-2.1-1-2.2-0.8-2.3-0.6-2.3-0.4-2.4-0.1-2.4v-265.7l0.1-2.5 0.4-2.3 0.6-2.4 0.8-2.3 1-2.1 1.3-2.1 1.4-2 1.6-1.7 1.8-1.7 1.9-1.4 2.1-1.2 2.2-1.1 2.3-0.8 2.3-0.6 2.4-0.3 2.4-0.2h49.2zm-197 0 2.4 0.3 2.3 0.6 2.3 0.8 2.2 1.1 2 1.2 2 1.4 1.8 1.7 1.6 1.7 1.4 2 1.3 2.1 1 2.1 0.8 2.3 0.6 2.4 0.4 2.3 0.1 2.5v265.7l-0.1 2.4-0.4 2.4-0.6 2.3-0.8 2.3-1 2.2-1.3 2.1-1.4 1.9-1.6 1.8-1.8 1.6-2 1.5-2 1.2-2.2 1-2.3 0.9-2.3 0.5-2.4 0.4-2.4 0.1h-49.2l-2.4-0.1-2.4-0.4-2.4-0.5-2.3-0.9-2.1-1-2.1-1.2-1.9-1.5-1.8-1.6-1.7-1.8-1.4-1.9-1.2-2.1-1.1-2.2-0.8-2.3-0.6-2.3-0.3-2.4-0.1-2.4v-265.7l0.1-2.5 0.3-2.3 0.6-2.4 0.8-2.3 1.1-2.1 1.2-2.1 1.4-2 1.7-1.7 1.8-1.7 1.9-1.4 2.1-1.2 2.1-1.1 2.3-0.8 2.4-0.6 2.4-0.3 2.4-0.2h49.2zm-197 0 2.4 0.3 2.4 0.6 2.2 0.8 2.2 1.1 2.1 1.2 1.9 1.4 1.8 1.7 1.6 1.7 1.5 2 1.2 2.1 1.1 2.1 0.8 2.3 0.6 2.4 0.3 2.3 0.1 2.5v265.7l-0.1 2.4-0.3 2.4-0.6 2.3-0.8 2.3-1.1 2.2-1.2 2.1-1.5 1.9-1.6 1.8-1.8 1.6-1.9 1.5-2.1 1.2-2.2 1-2.2 0.9-2.4 0.5-2.4 0.4-2.4 0.1h-49.2l-2.4-0.1-2.4-0.4-2.3-0.5-2.3-0.9-2.2-1-2.1-1.2-1.9-1.5-1.8-1.6-1.6-1.8-1.4-1.9-1.3-2.1-1-2.2-0.8-2.3-0.6-2.3-0.4-2.4-0.1-2.4v-265.7l0.1-2.5 0.4-2.3 0.6-2.4 0.8-2.3 1-2.1 1.3-2.1 1.4-2 1.6-1.7 1.8-1.7 1.9-1.4 2.1-1.2 2.2-1.1 2.3-0.8 2.3-0.6 2.4-0.3 2.4-0.2h49.2zm-197 0 2.4 0.3 2.3 0.6 2.3 0.8 2.2 1.1 2 1.2 2 1.4 1.8 1.7 1.6 1.7 1.4 2 1.3 2.1 1 2.1 0.8 2.3 0.6 2.4 0.4 2.3 0.1 2.5v265.7l-0.1 2.4-0.4 2.4-0.6 2.3-0.8 2.3-1 2.2-1.3 2.1-1.4 1.9-1.6 1.8-1.8 1.6-2 1.5-2 1.2-2.2 1-2.3 0.9-2.3 0.5-2.4 0.4-2.4 0.1h-49.2l-2.5-0.1-2.3-0.4-2.4-0.5-2.3-0.9-2.1-1-2.1-1.2-1.9-1.5-1.8-1.6-1.7-1.8-1.4-1.9-1.2-2.1-1.1-2.2-0.8-2.3-0.6-2.3-0.3-2.4-0.1-2.4v-265.7l0.1-2.5 0.3-2.3 0.6-2.4 0.8-2.3 1.1-2.1 1.2-2.1 1.4-2 1.7-1.7 1.8-1.7 1.9-1.4 2.1-1.2 2.1-1.1 2.3-0.8 2.4-0.6 2.3-0.3 2.5-0.2h49.2zm-177-177 2.4 0.4 2.4 0.5 2.2 0.9 2.2 1 2.1 1.2 1.9 1.5 1.8 1.6 1.6 1.8 1.5 1.9 1.2 2.1 1 2.2 0.9 2.2 0.5 2.4 0.4 2.4 0.1 2.4v49.2l-0.1 2.4-0.4 2.4-0.5 2.3-0.9 2.3-1 2.2-1.2 2.1-1.5 1.9-1.6 1.8-1.8 1.6-1.9 1.5-2.1 1.2-2.2 1-2.2 0.8-2.4 0.6-2.4 0.4-2.4 0.1h-265.7l-2.5-0.1-2.3-0.4-2.4-0.6-2.3-0.8-2.1-1-2.1-1.2-1.9-1.5-1.8-1.6-1.7-1.8-1.4-1.9-1.2-2.1-1.1-2.2-0.8-2.3-0.6-2.3-0.3-2.4-0.1-2.4v-49.2l0.1-2.4 0.3-2.4 0.6-2.4 0.8-2.2 1.1-2.2 1.2-2.1 1.4-1.9 1.7-1.8 1.8-1.6 1.9-1.5 2.1-1.2 2.1-1 2.3-0.9 2.4-0.5 2.3-0.4 2.5-0.1h265.7zm0-197 2.4 0.3 2.4 0.6 2.2 0.8 2.2 1 2.1 1.3 1.9 1.4 1.8 1.6 1.6 1.8 1.5 2 1.2 2 1 2.2 0.9 2.3 0.5 2.3 0.4 2.4 0.1 2.4v49.3l-0.1 2.4-0.4 2.4-0.5 2.3-0.9 2.3-1 2.2-1.2 2-1.5 2-1.6 1.8-1.8 1.6-1.9 1.4-2.1 1.3-2.2 1-2.2 0.8-2.4 0.6-2.4 0.3-2.4 0.2h-265.7l-2.5-0.2-2.3-0.3-2.4-0.6-2.3-0.8-2.1-1-2.1-1.3-1.9-1.4-1.8-1.6-1.7-1.8-1.4-2-1.2-2-1.1-2.2-0.8-2.3-0.6-2.3-0.3-2.4-0.1-2.4v-49.3l0.1-2.4 0.3-2.4 0.6-2.3 0.8-2.3 1.1-2.2 1.2-2 1.4-2 1.7-1.8 1.8-1.6 1.9-1.4 2.1-1.3 2.1-1 2.3-0.8 2.4-0.6 2.3-0.3 2.5-0.2h265.7zm0-197 2.4 0.4 2.4 0.5 2.2 0.9 2.2 1 2.1 1.2 1.9 1.5 1.8 1.6 1.6 1.8 1.5 1.9 1.2 2.1 1 2.2 0.9 2.2 0.5 2.4 0.4 2.4 0.1 2.4v49.2l-0.1 2.4-0.4 2.4-0.5 2.3-0.9 2.3-1 2.2-1.2 2.1-1.5 1.9-1.6 1.8-1.8 1.6-1.9 1.5-2.1 1.2-2.2 1-2.2 0.8-2.4 0.6-2.4 0.4-2.4 0.1h-265.7l-2.5-0.1-2.3-0.4-2.4-0.6-2.3-0.8-2.1-1-2.1-1.2-1.9-1.5-1.8-1.6-1.7-1.8-1.4-1.9-1.2-2.1-1.1-2.2-0.8-2.3-0.6-2.3-0.3-2.4-0.1-2.4v-49.2l0.1-2.4 0.3-2.4 0.6-2.4 0.8-2.2 1.1-2.2 1.2-2.1 1.4-1.9 1.7-1.8 1.8-1.6 1.9-1.5 2.1-1.2 2.1-1 2.3-0.9 2.4-0.5 2.3-0.4 2.5-0.1h265.7zm0-196 2.4 0.3 2.4 0.6 2.2 0.8 2.2 1 2.1 1.3 1.9 1.4 1.8 1.6 1.6 1.8 1.5 2 1.2 2 1 2.2 0.9 2.3 0.5 2.3 0.4 2.4 0.1 2.4v49.3l-0.1 2.4-0.4 2.4-0.5 2.3-0.9 2.3-1 2.2-1.2 2-1.5 2-1.6 1.8-1.8 1.6-1.9 1.4-2.1 1.3-2.2 1-2.2 0.8-2.4 0.6-2.4 0.3-2.4 0.2h-265.7l-2.5-0.2-2.3-0.3-2.4-0.6-2.3-0.8-2.1-1-2.1-1.3-1.9-1.4-1.8-1.6-1.7-1.8-1.4-2-1.2-2-1.1-2.2-0.8-2.3-0.6-2.3-0.3-2.4-0.1-2.4v-49.3l0.1-2.4 0.3-2.4 0.6-2.3 0.8-2.3 1.1-2.2 1.2-2 1.4-2 1.7-1.8 1.8-1.6 1.9-1.4 2.1-1.3 2.1-1 2.3-0.8 2.4-0.6 2.3-0.3 2.5-0.2h265.7zm0-197 2.4 0.4 2.4 0.5 2.2 0.9 2.2 1 2.1 1.2 1.9 1.5 1.8 1.6 1.6 1.8 1.5 1.9 1.2 2.1 1 2.2 0.9 2.2 0.5 2.4 0.4 2.4 0.1 2.4v49.2l-0.1 2.4-0.4 2.4-0.5 2.3-0.9 2.3-1 2.2-1.2 2.1-1.5 1.9-1.6 1.8-1.8 1.6-1.9 1.5-2.1 1.2-2.2 1-2.2 0.8-2.4 0.6-2.4 0.4-2.4 0.1h-265.7l-2.5-0.1-2.3-0.4-2.4-0.6-2.3-0.8-2.1-1-2.1-1.2-1.9-1.5-1.8-1.6-1.7-1.8-1.4-1.9-1.2-2.1-1.1-2.2-0.8-2.3-0.6-2.3-0.3-2.4-0.1-2.4v-49.2l0.1-2.4 0.3-2.4 0.6-2.4 0.8-2.2 1.1-2.2 1.2-2.1 1.4-1.9 1.7-1.8 1.8-1.6 1.9-1.5 2.1-1.2 2.1-1 2.3-0.9 2.4-0.5 2.3-0.4 2.5-0.1h265.7zm0-197 2.4 0.3 2.4 0.6 2.2 0.8 2.2 1 2.1 1.3 1.9 1.4 1.8 1.6 1.6 1.8 1.5 2 1.2 2 1 2.2 0.9 2.3 0.5 2.3 0.4 2.4 0.1 2.4v49.3l-0.1 2.4-0.4 2.4-0.5 2.3-0.9 2.3-1 2.2-1.2 2-1.5 2-1.6 1.8-1.8 1.6-1.9 1.4-2.1 1.3-2.2 1-2.2 0.8-2.4 0.6-2.4 0.3-2.4 0.2h-265.7l-2.5-0.2-2.3-0.3-2.4-0.6-2.3-0.8-2.1-1-2.1-1.3-1.9-1.4-1.8-1.6-1.7-1.8-1.4-2-1.2-2-1.1-2.2-0.8-2.3-0.6-2.3-0.3-2.4-0.1-2.4v-49.3l0.1-2.4 0.3-2.4 0.6-2.3 0.8-2.3 1.1-2.2 1.2-2 1.4-2 1.7-1.8 1.8-1.6 1.9-1.4 2.1-1.3 2.1-1 2.3-0.8 2.4-0.6 2.3-0.3 2.5-0.2h265.7zm3448-2581h255.9v417.3h-255.9zm-748 0h255.9v417.3h-255.9zm0-866h255.9v417.3h-255.9zm374 0h255.9v417.3h-255.9zm374 0h255.9v417.3h-255.9z" fill-rule="evenodd"/>
  <path d="m35672 5818 9.6 1.4 9.3 2.4 9.1 3.2 8.7 4.1 8.3 5 7.8 5.8 7.1 6.4 6.5 7.2 5.8 7.8 5 8.2 4.1 8.8 3.2 9.1 2.4 9.3 1.4 9.6 0.5 9.6v492.2l-0.5 9.6-1.4 9.6-2.4 9.3-3.2 9.1-4.1 8.8-5 8.2-5.8 7.8-6.5 7.2-7.1 6.4-7.8 5.8-8.3 5-8.7 4.1-9.1 3.3-9.3 2.3-9.6 1.4-9.6 0.5h-295.3l-9.7-0.5-9.5-1.4-9.4-2.3-9.1-3.3-8.7-4.1-8.3-5-7.8-5.8-7.1-6.4-6.5-7.2-5.8-7.8-4.9-8.2-4.2-8.8-3.2-9.1-2.4-9.3-1.4-9.6-0.4-9.6v-492.2l0.4-9.6 1.4-9.6 2.4-9.3 3.2-9.1 4.2-8.8 4.9-8.2 5.8-7.8 6.5-7.2 7.1-6.4 7.8-5.8 8.3-5 8.7-4.1 9.1-3.2 9.4-2.4 9.5-1.4 9.7-0.5h295.3zm1102 0 9.5 1.4 9.4 2.4 9.1 3.2 8.7 4.1 8.3 5 7.8 5.8 7.1 6.4 6.5 7.2 5.8 7.8 4.9 8.2 4.1 8.8 3.3 9.1 2.3 9.3 1.5 9.6 0.4 9.6v492.2l-0.4 9.6-1.5 9.6-2.3 9.3-3.3 9.1-4.1 8.8-4.9 8.2-5.8 7.8-6.5 7.2-7.1 6.4-7.8 5.8-8.3 5-8.7 4.1-9.1 3.3-9.4 2.3-9.5 1.4-9.7 0.5h-295.3l-9.6-0.5-9.6-1.4-9.3-2.3-9.1-3.3-8.8-4.1-8.2-5-7.8-5.8-7.2-6.4-6.4-7.2-5.8-7.8-5-8.2-4.1-8.8-3.2-9.1-2.4-9.3-1.4-9.6-0.5-9.6v-492.2l0.5-9.6 1.4-9.6 2.4-9.3 3.2-9.1 4.1-8.8 5-8.2 5.8-7.8 6.4-7.2 7.2-6.4 7.8-5.8 8.2-5 8.8-4.1 9.1-3.2 9.3-2.4 9.6-1.4 9.6-0.5h295.3zm221-1085 3.8 0.5 3.7 1 3.7 1.3 3.5 1.6 3.3 2 3.1 2.3 2.8 2.6 2.6 2.9 2.3 3.1 2 3.3 1.7 3.5 1.3 3.6 0.9 3.8 0.6 3.8 0.2 3.8v102.4l-0.2 3.9-0.6 3.8-0.9 3.7-1.3 3.7-1.7 3.5-2 3.3-2.3 3.1-2.6 2.8-2.8 2.6-3.1 2.3-3.3 2-3.5 1.7-3.7 1.3-3.7 0.9-3.8 0.6-3.9 0.2h-78.7l-3.9-0.2-3.8-0.6-3.8-0.9-3.6-1.3-3.5-1.7-3.3-2-3.1-2.3-2.9-2.6-2.6-2.8-2.3-3.1-2-3.3-1.6-3.5-1.3-3.7-1-3.7-0.5-3.8-0.2-3.9v-102.4l0.2-3.8 0.5-3.8 1-3.8 1.3-3.6 1.6-3.5 2-3.3 2.3-3.1 2.6-2.9 2.9-2.6 3.1-2.3 3.3-2 3.5-1.6 3.6-1.3 3.8-1 3.8-0.5 3.9-0.2h78.7zm0 252 3.8 0.6 3.7 0.9 3.7 1.3 3.5 1.7 3.3 2 3.1 2.3 2.8 2.6 2.6 2.8 2.3 3.1 2 3.3 1.7 3.5 1.3 3.7 0.9 3.7 0.6 3.8 0.2 3.9v102.4l-0.2 3.8-0.6 3.8-0.9 3.8-1.3 3.6-1.7 3.5-2 3.3-2.3 3.1-2.6 2.9-2.8 2.6-3.1 2.3-3.3 2-3.5 1.6-3.7 1.3-3.7 1-3.8 0.5-3.9 0.2h-78.7l-3.9-0.2-3.8-0.5-3.8-1-3.6-1.3-3.5-1.6-3.3-2-3.1-2.3-2.9-2.6-2.6-2.9-2.3-3.1-2-3.3-1.6-3.5-1.3-3.6-1-3.8-0.5-3.8-0.2-3.8v-102.4l0.2-3.9 0.5-3.8 1-3.7 1.3-3.7 1.6-3.5 2-3.3 2.3-3.1 2.6-2.8 2.9-2.6 3.1-2.3 3.3-2 3.5-1.7 3.6-1.3 3.8-0.9 3.8-0.6 3.9-0.2h78.7zm-503-409 5.3 0.7 5.3 1.4 5 1.8 4.9 2.3 4.7 2.8 4.3 3.2 4 3.6 3.7 4 3.2 4.4 2.8 4.6 2.3 4.9 1.8 5.1 1.3 5.3 0.8 5.3 0.3 5.4v110.2l-0.3 5.4-0.8 5.4-1.3 5.2-1.8 5.1-2.3 4.9-2.8 4.7-3.2 4.3-3.7 4-4 3.6-4.3 3.3-4.7 2.8-4.9 2.3-5 1.8-5.3 1.3-5.3 0.8-5.4 0.3h-133.9l-5.4-0.3-5.4-0.8-5.2-1.3-5.1-1.8-4.9-2.3-4.6-2.8-4.4-3.3-4-3.6-3.6-4-3.2-4.3-2.8-4.7-2.3-4.9-1.8-5.1-1.4-5.2-0.8-5.4-0.2-5.4v-110.2l0.2-5.4 0.8-5.3 1.4-5.3 1.8-5.1 2.3-4.9 2.8-4.6 3.2-4.4 3.6-4 4-3.6 4.4-3.2 4.6-2.8 4.9-2.3 5.1-1.8 5.2-1.4 5.4-0.7 5.4-0.3h133.9zm0 378 5.3 0.8 5.3 1.3 5 1.8 4.9 2.3 4.7 2.8 4.3 3.3 4 3.6 3.7 4 3.2 4.3 2.8 4.7 2.3 4.9 1.8 5.1 1.3 5.2 0.8 5.4 0.3 5.4v110.2l-0.3 5.4-0.8 5.3-1.3 5.3-1.8 5.1-2.3 4.9-2.8 4.6-3.2 4.4-3.7 4-4 3.6-4.3 3.2-4.7 2.8-4.9 2.3-5 1.8-5.3 1.4-5.3 0.7-5.4 0.3h-133.9l-5.4-0.3-5.4-0.7-5.2-1.4-5.1-1.8-4.9-2.3-4.6-2.8-4.4-3.2-4-3.6-3.6-4-3.2-4.4-2.8-4.6-2.3-4.9-1.8-5.1-1.4-5.3-0.8-5.3-0.2-5.4v-110.2l0.2-5.4 0.8-5.4 1.4-5.2 1.8-5.1 2.3-4.9 2.8-4.7 3.2-4.3 3.6-4 4-3.6 4.4-3.3 4.6-2.8 4.9-2.3 5.1-1.8 5.2-1.3 5.4-0.8 5.4-0.3h133.9zm-3346 1374 5.4 0.8 5.2 1.3 5.1 1.9 4.9 2.3 4.6 2.7 4.4 3.3 4 3.6 3.6 4 3.2 4.4 2.8 4.6 2.3 4.9 1.8 5.1 1.4 5.2 0.8 5.4 0.2 5.4v110.2l-0.2 5.4-0.8 5.4-1.4 5.2-1.8 5.1-2.3 4.9-2.8 4.6-3.2 4.4-3.6 4-4 3.6-4.4 3.2-4.6 2.8-4.9 2.3-5.1 1.9-5.2 1.3-5.4 0.8-5.4 0.2h-133.9l-5.4-0.2-5.3-0.8-5.3-1.3-5.1-1.9-4.8-2.3-4.7-2.8-4.3-3.2-4-3.6-3.7-4-3.2-4.4-2.8-4.6-2.3-4.9-1.8-5.1-1.3-5.2-0.8-5.4-0.3-5.4v-110.2l0.3-5.4 0.8-5.4 1.3-5.2 1.8-5.1 2.3-4.9 2.8-4.6 3.2-4.4 3.7-4 4-3.6 4.3-3.3 4.7-2.7 4.8-2.3 5.1-1.9 5.3-1.3 5.3-0.8 5.4-0.2h133.9zm0-378 5.4 0.8 5.2 1.3 5.1 1.8 4.9 2.3 4.6 2.8 4.4 3.2 4 3.6 3.6 4.1 3.2 4.3 2.8 4.6 2.3 4.9 1.8 5.1 1.4 5.3 0.8 5.3 0.2 5.4v110.3l-0.2 5.4-0.8 5.3-1.4 5.3-1.8 5.1-2.3 4.8-2.8 4.7-3.2 4.3-3.6 4-4 3.7-4.4 3.2-4.6 2.8-4.9 2.3-5.1 1.8-5.2 1.3-5.4 0.8-5.4 0.3h-133.9l-5.4-0.3-5.3-0.8-5.3-1.3-5.1-1.8-4.8-2.3-4.7-2.8-4.3-3.2-4-3.7-3.7-4-3.2-4.3-2.8-4.7-2.3-4.8-1.8-5.1-1.3-5.3-0.8-5.3-0.3-5.4v-110.3l0.3-5.4 0.8-5.3 1.3-5.3 1.8-5.1 2.3-4.9 2.8-4.6 3.2-4.3 3.7-4.1 4-3.6 4.3-3.2 4.7-2.8 4.8-2.3 5.1-1.8 5.3-1.3 5.3-0.8 5.4-0.3h133.9zm69 3539 3.8 0.5 3.8 1 3.6 1.3 3.5 1.6 3.3 2 3.1 2.3 2.9 2.6 2.6 2.9 2.3 3.1 2 3.3 1.6 3.5 1.3 3.6 1 3.8 0.5 3.8 0.2 3.8v102.4l-0.2 3.9-0.5 3.8-1 3.7-1.3 3.7-1.6 3.5-2 3.3-2.3 3.1-2.6 2.8-2.9 2.6-3.1 2.3-3.3 2-3.5 1.7-3.6 1.3-3.8 0.9-3.8 0.6-3.8 0.2h-78.8l-3.8-0.2-3.9-0.6-3.7-0.9-3.6-1.3-3.5-1.7-3.3-2-3.2-2.3-2.8-2.6-2.6-2.8-2.3-3.1-2-3.3-1.6-3.5-1.4-3.7-0.9-3.7-0.6-3.8-0.1-3.9v-102.4l0.1-3.8 0.6-3.8 0.9-3.8 1.4-3.6 1.6-3.5 2-3.3 2.3-3.1 2.6-2.9 2.8-2.6 3.2-2.3 3.3-2 3.5-1.6 3.6-1.3 3.7-1 3.9-0.5 3.8-0.2h78.8zm0 252 3.8 0.6 3.8 0.9 3.6 1.3 3.5 1.7 3.3 2 3.1 2.3 2.9 2.6 2.6 2.8 2.3 3.1 2 3.4 1.6 3.4 1.3 3.7 1 3.7 0.5 3.9 0.2 3.8v102.4l-0.2 3.8-0.5 3.9-1 3.7-1.3 3.6-1.6 3.5-2 3.3-2.3 3.2-2.6 2.8-2.9 2.6-3.1 2.3-3.3 2-3.5 1.6-3.6 1.3-3.8 1-3.8 0.6-3.8 0.1h-78.8l-3.8-0.1-3.9-0.6-3.7-1-3.6-1.3-3.5-1.6-3.3-2-3.2-2.3-2.8-2.6-2.6-2.8-2.3-3.2-2-3.3-1.6-3.5-1.4-3.6-0.9-3.7-0.6-3.9-0.1-3.8v-102.4l0.1-3.8 0.6-3.9 0.9-3.7 1.4-3.7 1.6-3.4 2-3.4 2.3-3.1 2.6-2.8 2.8-2.6 3.2-2.3 3.3-2 3.5-1.7 3.6-1.3 3.7-0.9 3.9-0.6 3.8-0.2h78.8zm3277-5559 5.3 0.7 5.3 1.4 5 1.8 4.9 2.3 4.7 2.8 4.3 3.2 4 3.6 3.7 4 3.2 4.4 2.8 4.6 2.3 4.9 1.8 5.1 1.3 5.3 0.8 5.3 0.3 5.4v110.2l-0.3 5.4-0.8 5.4-1.3 5.2-1.8 5.1-2.3 4.9-2.8 4.7-3.2 4.3-3.7 4-4 3.6-4.3 3.3-4.7 2.8-4.9 2.3-5 1.8-5.3 1.3-5.3 0.8-5.4 0.3h-133.9l-5.4-0.3-5.4-0.8-5.2-1.3-5.1-1.8-4.9-2.3-4.6-2.8-4.4-3.3-4-3.6-3.6-4-3.2-4.3-2.8-4.7-2.3-4.9-1.8-5.1-1.4-5.2-0.8-5.4-0.2-5.4v-110.2l0.2-5.4 0.8-5.3 1.4-5.3 1.8-5.1 2.3-4.9 2.8-4.6 3.2-4.4 3.6-4 4-3.6 4.4-3.2 4.6-2.8 4.9-2.3 5.1-1.8 5.2-1.4 5.4-0.7 5.4-0.3h133.9zm0-378 5.3 0.8 5.3 1.3 5 1.8 4.9 2.3 4.7 2.8 4.3 3.2 4 3.7 3.7 4 3.2 4.3 2.8 4.7 2.3 4.9 1.8 5.1 1.3 5.2 0.8 5.4 0.3 5.4v110.2l-0.3 5.4-0.8 5.3-1.3 5.3-1.8 5.1-2.3 4.9-2.8 4.6-3.2 4.4-3.7 4-4 3.6-4.3 3.2-4.7 2.8-4.9 2.3-5 1.8-5.3 1.3-5.3 0.8-5.4 0.3h-133.9l-5.4-0.3-5.4-0.8-5.2-1.3-5.1-1.8-4.9-2.3-4.6-2.8-4.4-3.2-4-3.6-3.6-4-3.2-4.4-2.8-4.6-2.3-4.9-1.8-5.1-1.4-5.3-0.8-5.3-0.2-5.4v-110.2l0.2-5.4 0.8-5.4 1.4-5.2 1.8-5.1 2.3-4.9 2.8-4.7 3.2-4.3 3.6-4 4-3.7 4.4-3.2 4.6-2.8 4.9-2.3 5.1-1.8 5.2-1.3 5.4-0.8 5.4-0.3h133.9zm-2434 4524 3.9 0.6 3.7 1 3.7 1.3 3.4 1.6 3.4 2 3.1 2.3 2.8 2.6 2.6 2.9 2.3 3.1 2 3.3 1.7 3.5 1.3 3.6 0.9 3.7 0.6 3.9 0.2 3.8v78.8l-0.2 3.8-0.6 3.8-0.9 3.8-1.3 3.6-1.7 3.5-2 3.3-2.3 3.1-2.6 2.9-2.8 2.6-3.1 2.3-3.4 2-3.4 1.6-3.7 1.3-3.7 1-3.9 0.5-3.8 0.2h-102.4l-3.8-0.2-3.9-0.5-3.7-1-3.6-1.3-3.5-1.6-3.4-2-3.1-2.3-2.8-2.6-2.6-2.9-2.3-3.1-2-3.3-1.7-3.5-1.3-3.6-0.9-3.8-0.6-3.8-0.1-3.8v-78.8l0.1-3.8 0.6-3.9 0.9-3.7 1.3-3.6 1.7-3.5 2-3.3 2.3-3.1 2.6-2.9 2.8-2.6 3.1-2.3 3.4-2 3.5-1.6 3.6-1.3 3.7-1 3.9-0.6 3.8-0.1h102.4zm252 0 3.8 0.6 3.8 1 3.6 1.3 3.5 1.6 3.3 2 3.1 2.3 2.9 2.6 2.6 2.9 2.3 3.1 2 3.3 1.6 3.5 1.3 3.6 1 3.7 0.5 3.9 0.2 3.8v78.8l-0.2 3.8-0.5 3.8-1 3.8-1.3 3.6-1.6 3.5-2 3.3-2.3 3.1-2.6 2.9-2.9 2.6-3.1 2.3-3.3 2-3.5 1.6-3.6 1.3-3.8 1-3.8 0.5-3.8 0.2h-102.4l-3.9-0.2-3.8-0.5-3.7-1-3.7-1.3-3.5-1.6-3.3-2-3.1-2.3-2.8-2.6-2.6-2.9-2.3-3.1-2-3.3-1.7-3.5-1.3-3.6-0.9-3.8-0.6-3.8-0.2-3.8v-78.8l0.2-3.8 0.6-3.9 0.9-3.7 1.3-3.6 1.7-3.5 2-3.3 2.3-3.1 2.6-2.9 2.8-2.6 3.1-2.3 3.3-2 3.5-1.6 3.7-1.3 3.7-1 3.8-0.6 3.9-0.1h102.4zm-1803 1425 3.8 0.6 3.7 0.9 3.7 1.4 3.5 1.6 3.3 2 3.1 2.3 2.8 2.6 2.6 2.8 2.3 3.2 2 3.3 1.7 3.5 1.3 3.6 0.9 3.7 0.6 3.9 0.2 3.8v102.4l-0.2 3.8-0.6 3.9-0.9 3.7-1.3 3.7-1.7 3.4-2 3.4-2.3 3.1-2.6 2.8-2.8 2.6-3.1 2.3-3.3 2-3.5 1.7-3.7 1.3-3.7 0.9-3.8 0.6-3.9 0.2h-78.7l-3.9-0.2-3.8-0.6-3.8-0.9-3.6-1.3-3.5-1.7-3.3-2-3.1-2.3-2.9-2.6-2.6-2.8-2.3-3.1-2-3.4-1.6-3.4-1.3-3.7-1-3.7-0.5-3.9-0.2-3.8v-102.4l0.2-3.8 0.5-3.9 1-3.7 1.3-3.6 1.6-3.5 2-3.3 2.3-3.2 2.6-2.8 2.9-2.6 3.1-2.3 3.3-2 3.5-1.6 3.6-1.4 3.8-0.9 3.8-0.6 3.9-0.1h78.7zm0-252 3.8 0.5 3.7 1 3.7 1.3 3.5 1.6 3.3 2 3.1 2.3 2.8 2.6 2.6 2.9 2.3 3.1 2 3.3 1.7 3.5 1.3 3.6 0.9 3.8 0.6 3.8 0.2 3.9v102.3l-0.2 3.9-0.6 3.8-0.9 3.7-1.3 3.7-1.7 3.5-2 3.3-2.3 3.1-2.6 2.9-2.8 2.6-3.1 2.3-3.3 1.9-3.5 1.7-3.7 1.3-3.7 0.9-3.8 0.6-3.9 0.2h-78.7l-3.9-0.2-3.8-0.6-3.8-0.9-3.6-1.3-3.5-1.7-3.3-1.9-3.1-2.3-2.9-2.6-2.6-2.9-2.3-3.1-2-3.3-1.6-3.5-1.3-3.7-1-3.7-0.5-3.8-0.2-3.9v-102.3l0.2-3.9 0.5-3.8 1-3.8 1.3-3.6 1.6-3.5 2-3.3 2.3-3.1 2.6-2.9 2.9-2.6 3.1-2.3 3.3-2 3.5-1.6 3.6-1.3 3.8-1 3.8-0.5 3.9-0.2h78.7z" fill-rule="evenodd"/>
  <circle cx="31858" cy="6581" r="68.898"/>
  <circle cx="33546" cy="6261" r="68.898"/>
  <circle cx="33684" cy="9981" r="68.898"/>
  <circle cx="33723" cy="9548" r="68.898"/>
  <circle cx="32758" cy="9235" r="68.898"/>
  <circle cx="31991" cy="9174" r="68.898"/>
  <circle cx="31558" cy="8564" r="68.898"/>
  <circle cx="32267" cy="6654" r="68.898"/>
  <circle cx="32660" cy="6733" r="68.898"/>
 </g>
 <g fill="none" stroke-linecap="round" stroke-linejoin="round">
  <g stroke="#f0f0f0">
   <path d="m32109 14166v-984l328 703 328-703v984m469 0v-984h375l94 47 47 46 46 94v141l-46 93-47 47-94 47h-375m984-515v796l47 94 47 47 94 47h187l94-47 47-47 47-94v-796m890 0h-187l-94 47-47 46-94 141-46 187v375l46 94 47 47 94 47h188l93-47 47-47 47-94v-234l-47-94-47-47-93-46h-188l-94 46-47 47-46 94m1171-562h94l94 47 47 46 46 94 47 188v234l-47 187-46 94-47 47-94 47h-94l-93-47-47-47-47-94-47-187v-234l47-188 47-94 47-46 93-47m1219 0h-469l-47 468 47-47 94-46h234l94 46 47 47 47 94v234l-47 94-47 47-94 47h-234l-94-47-47-47m1172-890h94l94 47 46 46 47 94 47 188v234l-47 187-47 94-46 47-94 47h-94l-94-47-47-47-46-94-47-187v-234l47-188 46-94 47-46 94-47" stroke-width="246.06"/>
   <path d="m27733 15532-56-28h-84l-85 28-56 56-28 56-28 113v84l28 113 28 56 56 56 85 28h56l84-28 28-28v-197h-112m478-28v281m-197-590 197 309 197-309m534 590-197-281m-140 281v-590h225l56 28 28 28 28 56v84l-28 57-28 28-56 28h-225m703-309h112l56 28 57 56 28 112v197l-28 113-57 56-56 28h-112l-57-28-56-56-28-113v-197l28-112 56-56 57-28m900 0h393l-393 590h393m-7803-523-57-28h-84l-84 28-57 56-28 57-28 112v84l28 113 28 56 57 56 84 28h56l85-28 28-28v-197h-113m478-28v281m-197-590 197 309 197-309m534 590-196-281m-141 281v-590h225l56 28 28 28 28 56v85l-28 56-28 28-56 28h-225m703-309h112l57 28 56 56 28 113v197l-28 112-56 56-57 28h-112l-56-28-56-56-29-112v-197l29-113 56-56 56-28m1069 309v281m-197-590 197 309 196-309m-7716 28-56-28h-85l-84 28-56 56-28 57-29 112v84l29 113 28 56 56 56 84 28h57l84-28 28-28v-197h-112m478-28v281m-197-590 197 309 196-309m535 590-197-281m-141 281v-590h225l57 28 28 28 28 56v85l-28 56-28 28-57 28h-225m703-309h113l56 28 56 56 28 113v197l-28 112-56 56-56 28h-113l-56-28-56-56-28-112v-197l28-113 56-56 56-28m900 0 394 590m0-590-394 590m-9086-208h281m-337 169 197-590 197 590m534-56-28 28-85 28h-56l-84-28-56-56-28-56-29-113v-84l29-113 28-56 56-56 84-28h56l85 28 28 28m591 478-29 28-84 28h-56l-85-28-56-56-28-56-28-113v-84l28-113 28-56 56-56 85-28h56l84 28 29 28m646-56h394l-394 590h394m-7168-149h281m-337 169 196-591 197 591m535-56-28 28-85 28h-56l-84-28-57-57-28-56-28-112v-85l28-112 28-56 57-57 84-28h56l85 28 28 28m590 479-28 28-84 28h-57l-84-28-56-57-28-56-28-112v-85l28-112 28-56 56-57 84-28h57l84 28 28 28m816 254v281m-197-591 197 310 197-310m-7613 461h281m-337 169 197-590 197 590m534-56-28 28-85 28h-56l-84-28-57-56-28-56-28-113v-84l28-113 28-56 57-56 84-28h56l85 28 28 28m590 478-28 28-84 28h-56l-85-28-56-56-28-56-28-113v-84l28-113 28-56 56-56 85-28h56l84 28 28 28m647-56 394 590m0-590-394 590" stroke-width="147.64"/>
   <path d="m33422 7083h187v187m-1475 1474h-187v-187m1475 187h187v-187m-1475-1474h-187m2756-2870v708m1268 0v-964" stroke-width="47.244"/>
   <path d="m37668 4563h1047m-1047 0v7024h1047m0-7024v7024m0-8047v523m-524-523h524m-3280 3068h1530v-893h-1530m843-798v-85m283 85v-85m-3346 1374v85m-284-85v85m3630-2231v85m-283-85v85" stroke-width="47.244"/>
  </g>
  <path d="M 39412,0 H 2 M 39412,23110 V 0 M 2,23110 H 39412 M 2,0 v 23110" stroke="#000" stroke-width="19.685"/>
 </g>
 <g transform="matrix(393.63,0,0,393.63,31975,7110.9)" stroke="#000" stroke-width=".093">
  <path d="m0.705 0.04v0.05m-0.615 0.615h-0.05m0.835-0.615v-0.05m-0.835 0.835h0.05m1.115-0.835v0.05m-1.115 1.115h-0.05m1.335-1.115v-0.05m-1.335 1.335h0.05m1.615-1.335v0.05m-1.615 1.615h-0.05m1.835-1.615v-0.05m-1.835 1.835h0.05m2.115-1.835v0.05m-2.115 2.115h-0.05m2.335-2.115v-0.05m-2.335 2.335h0.05m2.615-2.335v0.05m-2.615 2.615h-0.05m2.835-2.615v-0.05m-2.835 2.835h0.05m3.115-2.835v0.05m-3.115 3.115h-0.05m3.335-3.115v-0.05m-3.335 3.335h0.05" fill="none"/>
  <path d="m3.99 0.09v3.9h-3.9v-3.9z" fill="#1a1a1a" fill-rule="evenodd"/>
  <path d="m4.04 0.705h-0.05m-3.285 3.285v0.05m3.285-3.165h0.05m-3.165 3.165v-0.05m3.165-2.785h-0.05m-2.785 2.785v0.05m2.785-2.665h0.05m-2.665 2.665v-0.05m2.665-2.285h-0.05m-2.285 2.285v0.05m2.285-2.165h0.05m-2.165 2.165v-0.05m2.165-1.785h-0.05m-1.785 1.785v0.05m1.785-1.665h0.05m-1.665 1.665v-0.05m1.665-1.285h-0.05m-1.285 1.285v0.05m1.285-1.165h0.05m-1.165 1.165v-0.05m1.165-0.785h-0.05m-0.785 0.785v0.05m0.785-0.665h0.05m-0.665 0.665v-0.05" fill="none"/>
  <circle transform="scale(1,-1)" cx=".94" cy="-.94" r=".2" fill="#333"/>
  <path d="m3.375 0.04h-0.17m-2.33 0h-0.17m2.17 0h-0.17m-1.33 0h-0.17m1.17 0h-0.17m-0.33 0h-0.17m-1.665 0.665v0.17m0 2.33v0.17m0-2.17v0.17m0 1.33v0.17m0-1.17v0.17m0 0.33v0.17m4-1.5v-0.17m0 2.67v-0.17m0-1.83v-0.17m0 1.67v-0.17m0-0.83v-0.17m0 0.67v-0.17m-0.835 1.835h0.17m-2.67 0h0.17m1.83 0h0.17m-1.67 0h0.17m0.83 0h0.17m-0.67 0h0.17" fill="none"/>
 </g>
 <g stroke="#000" stroke-width=".093">
  <path transform="matrix(0 393.44 -393.56 0 35918 4005)" d="M.723.028h1.41M2.133.028l.095.095M2.133.028L2.12.053M.736.053H2.12M.723.028l.013.025M.628.123L.723.028M2.228.123v.155M2.228 2.678v.155M2.228.778v1.4M2.228 2.833l-.095.095M2.133 2.928H.723M.723 2.928l-.095-.095M.628 2.833v-.155M.628.278V.123M.628 2.178v-.45M.628 1.228v-.45M2.228.123l-.025.013M2.12.053l.083.083M2.12.053l-.045.091M.736.053L.78.144M.653.136L.736.053M.628.123l.025.013M2.203.136v.142M2.228 2.833l-.025-.013M2.203 2.678v.142M2.203.778v1.4M2.133 2.928l-.013-.025M2.203 2.82l-.083.083M.723 2.928l.013-.025M2.12 2.903H.735M.628 2.833l.025-.013M.736 2.903L.653 2.82M.653 2.82v-.142M.578 2.678h.05M.653.278V.136M.578 2.178h.05M.653 2.178v-.45M.653 1.228v-.45M2.203.136L2.112.18M2.075.144l.037.037M2.112 2.775l-.037.037" fill="none"/>
  <path transform="matrix(0 393.44 -393.56 0 35918 4005)" d="M2.075 2.812H.78l-.037-.037V.18L.781.144h1.294l.037.037v2.594z" fill="#1a1a1a" fill-rule="evenodd"/>
  <path transform="matrix(0 393.44 -393.56 0 35918 4005)" d="M.781 2.812l-.037-.037M.744.181L.781.144M.653.136L.744.18M2.203 2.82l-.091-.045M2.12 2.903l-.045-.091M.736 2.903l.045-.091M.653 2.82l.091-.045M.653 2.678v-.5" fill="none"/>
  <path transform="matrix(0 393.44 -393.56 0 35918 4005)" d="M.028 2.678v-.5h.55v.5h-.35z" fill="gray" fill-rule="evenodd"/>
  <path transform="matrix(0 393.44 -393.56 0 35918 4005)" d="m0.328 2.678v-0.5m-0.1 0.5v-0.5m0.4 0.5h0.025m-0.025-0.5h0.025" fill="none"/>
  <path transform="matrix(0 393.44 -393.56 0 36292 4005)" d="M.653 2.678v-.5" fill="none"/>
  <path transform="matrix(0 393.44 -393.56 0 36292 4005)" d="M.028 2.678v-.5h.55v.5h-.35z" fill="gray" fill-rule="evenodd"/>
  <path transform="matrix(0 393.44 -393.56 0 36292 4005)" d="M.328 2.678v-.5M.228 2.678v-.5" fill="none"/>
  <path transform="matrix(0 393.44 -393.56 0 36666 4005)" d="M.653 2.678v-.5" fill="none"/>
  <path transform="matrix(0 393.44 -393.56 0 36666 4005)" d="M.028 2.678v-.5h.55v.5h-.35z" fill="gray" fill-rule="evenodd"/>
  <path transform="matrix(0 393.44 -393.56 0 36666 4005)" d="M.328 2.678v-.5M.228 2.678v-.5" fill="none"/>
  <path transform="matrix(0 -393.44 393.56 0 34007 5128.7)" d="M.653 2.678v-.5" fill="none"/>
  <path transform="matrix(0 -393.44 393.56 0 34007 5128.7)" d="M.028 2.678v-.5h.55v.5h-.35z" fill="gray" fill-rule="evenodd"/>
  <path transform="matrix(0 -393.44 393.56 0 34007 5128.7)" d="M.328 2.678v-.5M.228 2.678v-.5" fill="none"/>
  <path transform="matrix(0 -393.44 393.56 0 34755 5128.7)" d="M.653 2.678v-.5" fill="none"/>
  <path transform="matrix(0 -393.44 393.56 0 34755 5128.7)" d="M.028 2.678v-.5h.55v.5h-.35z" fill="gray" fill-rule="evenodd"/>
  <path transform="matrix(0 -393.44 393.56 0 34755 5128.7)" d="M.328 2.678v-.5M.228 2.678v-.5" fill="none"/>
 </g>
 <g stroke="#191919" stroke-width=".013">
  <g transform="matrix(0 392.86 393.67 0 34942 5720.9)">
   <path d="m-0.2-0.15h-0.1v0.3h0.1zm0.4 0h0.1v0.3h-0.1z" fill="#999" fill-rule="evenodd"/>
   <path d="M-.2.15h.4v-.3h0-.4z" fill="#333" fill-rule="evenodd"/>
   <path d="M-.277-.15v.3M-.223-.15v.3M.277-.15v.3M.223-.15v.3" fill="none"/>
  </g>
  <g transform="matrix(0 -392.86 -393.67 0 32660 6228.8)">
   <path d="m-0.2-0.15h-0.1v0.3h0.1zm0.4 0h0.1v0.3h-0.1z" fill="#999" fill-rule="evenodd"/>
   <path d="M-.2.15h.4v-.3h0-.4z" fill="#333" fill-rule="evenodd"/>
   <path d="M-.277-.15v.3M-.223-.15v.3M.277-.15v.3M.223-.15v.3" fill="none"/>
  </g>
  <g transform="matrix(0 -392.86 -393.67 0 32305 6228.8)">
   <path d="m-0.2-0.15h-0.1v0.3h0.1zm0.4 0h0.1v0.3h-0.1z" fill="#999" fill-rule="evenodd"/>
   <path d="M-.2.15h.4v-.3h0-.4z" fill="#333" fill-rule="evenodd"/>
   <path d="M-.277-.15v.3M-.223-.15v.3M.277-.15v.3M.223-.15v.3" fill="none"/>
  </g>
  <g transform="matrix(0 392.86 393.67 0 32816 9716.9)">
   <path d="m-0.2-0.15h-0.1v0.3h0.1zm0.4 0h0.1v0.3h-0.1z" fill="#999" fill-rule="evenodd"/>
   <path d="M-.2.15h.4v-.3h0-.4z" fill="#333" fill-rule="evenodd"/>
   <path d="M-.277-.15v.3M-.223-.15v.3M.277-.15v.3M.223-.15v.3" fill="none"/>
  </g>
 </g>
 <g stroke="#000" stroke-width="36.614">
  <g fill-rule="evenodd">
   <path d="m38691 3562.9h-1e3v8e3h1e3z" fill="#1a1a1a"/>
   <path d="m37955 11299h472.44v-472.44h-472.44z" fill="#666"/>
   <path d="m38073 11181h236.22v-236.22h-236.22z" fill="#808000"/>
  </g>
  <path d="m37955 11299 117.72-117.72m354.72 117.72-117.72-117.72m-237.01 0h237.01m-354.72-354.72 117.72 117.72v237.01m354.72-354.72-117.72 117.72h-237.01m237.01 237.01v-237.01m-157.87 20.078v-19.684m0 216.54v-196.85m0 216.53v-19.684m78.74 19.684v-19.684m-78.74 0h78.74v-216.53m-78.74 19.684h78.74" fill="none"/>
  <path d="m37955 10299h472.44v-472.44h-472.44z" fill="#666" fill-rule="evenodd"/>
  <path d="m38073 10181h236.22v-236.22h-236.22z" fill="#808000" fill-rule="evenodd"/>
  <path d="m37955 10299 117.72-117.72m354.72 117.72-117.72-117.72m-237.01 0h237.01m-354.72-354.72 117.72 117.72v237.01m354.72-354.72-117.72 117.72h-237.01m237.01 237.01v-237.01m-157.87 20.078v-19.685m0 216.54v-196.85m0 216.54v-19.686m78.74 19.686v-19.686m-78.74 0h78.74v-216.54m-78.74 19.685h78.74" fill="none"/>
  <path d="m37955 9299h472.44v-472.44h-472.44z" fill="#666" fill-rule="evenodd"/>
  <path d="m38073 9180.8h236.22v-236.22h-236.22z" fill="#808000" fill-rule="evenodd"/>
  <path d="m37955 9299 117.72-117.72m354.72 117.72-117.72-117.72m-237.01 0h237.01m-354.72-354.72 117.72 117.72v237.01m354.72-354.72-117.72 117.72h-237.01m237.01 237.01v-237.01m-157.87 20.078v-19.685m0 216.54v-196.85m0 216.54v-19.686m78.74 19.686v-19.686m-78.74 0h78.74v-216.54m-78.74 19.685h78.74" fill="none"/>
  <path d="m37955 8299h472.44v-472.44h-472.44z" fill="#666" fill-rule="evenodd"/>
  <path d="m38073 8180.8h236.22v-236.22h-236.22z" fill="#808000" fill-rule="evenodd"/>
  <path d="m37955 8299 117.72-117.72m354.72 117.72-117.72-117.72m-237.01 0h237.01m-354.72-354.72 117.72 117.72v237.01m354.72-354.72-117.72 117.72h-237.01m237.01 237.01v-237.01m-157.87 20.078v-19.685m0 216.54v-196.85m0 216.54v-19.684m78.74 19.684v-19.684m-78.74-1e-3h78.74v-216.54m-78.74 19.685h78.74" fill="none"/>
  <path d="m37955 7299h472.44v-472.44h-472.44z" fill="#666" fill-rule="evenodd"/>
  <path d="m38073 7180.8h236.22v-236.22h-236.22z" fill="#808000" fill-rule="evenodd"/>
  <path d="m37955 7299 117.72-117.72m354.72 117.72-117.72-117.72m-237.01 0h237.01m-354.72-354.72 117.72 117.72v237.01m354.72-354.72-117.72 117.72h-237.01m237.01 237.01v-237.01m-157.87 20.078v-19.685m0 216.54v-196.85m0 216.54v-19.685m78.74 19.685v-19.685m-78.74 0h78.74v-216.54m-78.74 19.685h78.74" fill="none"/>
  <path d="m37955 6299h472.44v-472.44h-472.44z" fill="#666" fill-rule="evenodd"/>
  <path d="m38073 6180.8h236.22v-236.22h-236.22z" fill="#808000" fill-rule="evenodd"/>
  <path d="m37955 6299 117.72-117.72m354.72 117.72-117.72-117.72m-237.01 0h237.01m-354.72-354.72 117.72 117.72v237.01m354.72-354.72-117.72 117.72h-237.01m237.01 237.01v-237.01m-157.87 20.079v-19.686m0 216.54v-196.85m0 216.53v-19.684m78.74 19.684v-19.684m-78.74 0h78.74v-216.54m-78.74 19.686h78.74" fill="none"/>
  <path d="m37955 5299h472.44v-472.44h-472.44z" fill="#666" fill-rule="evenodd"/>
  <path d="m38073 5180.8h236.22v-236.22h-236.22z" fill="#808000" fill-rule="evenodd"/>
  <path d="m37955 5299 117.72-117.72m354.72 117.72-117.72-117.72m-237.01 0h237.01m-354.72-354.72 117.72 117.72v237.01m354.72-354.72-117.72 117.72h-237.01m237.01 237.01v-237.01m-157.87 20.078v-19.685m0 216.54v-196.85m0 216.54v-19.686m78.74 19.686v-19.686m-78.74 0h78.74v-216.54m-78.74 19.685h78.74" fill="none"/>
  <path d="m37955 4299h472.44v-472.44h-472.44z" fill="#666" fill-rule="evenodd"/>
  <path d="m38073 4180.9h236.22v-236.22h-236.22z" fill="#808000" fill-rule="evenodd"/>
  <path d="m37955 4299 117.72-117.72m354.72 117.72-117.72-117.72m-237.01 0h237.01m-354.72-354.72 117.72 117.72v237.01m354.72-354.72-117.72 117.72h-237.01m237.01 237.01v-237.01m-157.87 20.078v-19.685m0 216.54v-196.85m0 216.54v-19.685m78.74 19.685v-19.685m-78.74 0h78.74v-216.54m-78.74 19.685h78.74" fill="none"/>
 </g>
 <g stroke-width=".013">
  <g transform="matrix(-393.69 0 0 393.24 36064 6161.9)" stroke="#191919">
   <path d="m-1 0.8v-1.6m2 0.2v-0.2m0 1.4v-1.2m0 1.4v-0.2" fill="none"/>
   <path d="M.9.8h.7V-.8H.9z" fill="gray" fill-rule="evenodd"/>
   <path d="M-1.06.6H-1M-1.06-.6H-1" fill="none"/>
   <path d="M-.9.8V-.8h-.7V.8h.6z" fill="gray" fill-rule="evenodd"/>
   <path d="M1-.6h.06M1 .6h.06M-1.45.6h.39M-1.45.8V.6M-1.06-.6h-.39M-1.45-.6v-.2M1.45.6v.2M1.06.6h.39M1.45-.6h-.39M1.45-.8v.2M-1.06-.6V.6M1.06-.6V.6M-1.54-.8V.8M1.54-.8V.8" fill="none"/>
  </g>
  <path transform="matrix(-393.69 0 0 -393.24 36707 6567.7)" d="m2.532 0.232h-1.8v1.6h1.8z" fill="#ccc" stroke="#000"/>
  <path transform="matrix(0 -392.86 393.67 0 36552 5071.8)" d="M.163 1.148v-.27 0h.3v.27z" fill="#f95" stroke="#000"/>
  <g transform="scale(393.67 392.86) rotate(-90 53.23 -40.633)" stroke="#191919">
   <path d="M-.3.15h.15v-.3H-.3v.3zM.15-.15H.3v.3H.15v-.3z" fill="#b3b3b3" fill-rule="evenodd"/>
   <path d="M-.3-.135h.15M-.3.135h.15M-.15.12h.3M-.15-.12h.3M.15-.135H.3M.15.135H.3" fill="none"/>
  </g>
  <path transform="matrix(0 -392.97 393.46 0 36020 5076.2)" d="m0.815 1.245h-0.6v-0.46h0.6z" fill="#ffb380" stroke="#000"/>
  <g transform="matrix(0 -392.97 -393.46 0 36419 4873.8)" fill="#b3b3b3">
   <path d="M-.3.25v-.5h-.2v.5zM.5.25v-.5H.3v.5zM-.5-.23h.2M-.5.23h.2M-.3.21h.6M-.3-.21h.6M.3-.23h.2M.3.23h.2" fill-rule="evenodd" stroke="#191919"/>
  </g>
 </g>
 <g stroke-width=".013">
  <path transform="matrix(0,392.97,-393.46,0,33472,6045.5)" d="m0.815 1.245h-0.6v-0.46h0.6z" fill="#ffb380" stroke="#000"/>
  <g transform="matrix(0 392.97 393.46 0 33073 6247.9)" fill="#b3b3b3">
   <path d="m-0.3 0.25v-0.5h-0.2v0.5zm0.8 0v-0.5h-0.2v0.5zm-1-0.48h0.2m-0.2 0.46h0.2m0-0.02h0.6m-0.6-0.42h0.6m0-0.02h0.2m-0.2 0.46h0.2" fill-rule="evenodd" stroke="#191919"/>
  </g>
 </g>
 <g stroke-width=".013">
  <path transform="matrix(0 -392.86 393.67 0 32773 9827.8)" d="M.163 1.148v-.27 0h.3v.27z" fill="#f95" stroke="#000"/>
  <g transform="scale(393.67 392.86) rotate(-90 54.483 -29.78)" stroke="#191919">
   <path d="M-.3.15h.15v-.3H-.3v.3zM.15-.15H.3v.3H.15v-.3z" fill="#b3b3b3" fill-rule="evenodd"/>
   <path d="M-.3-.135h.15M-.3.135h.15M-.15.12h.3M-.15-.12h.3M.15-.135H.3M.15.135H.3" fill="none"/>
  </g>
  <path transform="matrix(0 392.97 -393.46 0 36819 3900.5)" d="m0.815 1.245h-0.6v-0.46h0.6z" fill="#ffb380" stroke="#000"/>
  <g transform="matrix(0 392.97 393.46 0 36420 4102.9)" fill="#b3b3b3">
   <path d="M-.3.25v-.5h-.2v.5zM.5.25v-.5H.3v.5zM-.5-.23h.2M-.5.23h.2M-.3.21h.6M-.3-.21h.6M.3-.23h.2M.3.23h.2" fill-rule="evenodd" stroke="#191919"/>
  </g>
  <path transform="matrix(-393.67 0 0 -392.86 34251 8803.8)" d="M.163 1.148v-.27 0h.3v.27z" fill="#f95" stroke="#000"/>
  <g transform="matrix(-393.67 0 0 392.86 34128 8405.8)" stroke="#191919">
   <path d="M-.3.15h.15v-.3H-.3v.3zM.15-.15H.3v.3H.15v-.3z" fill="#b3b3b3" fill-rule="evenodd"/>
   <path d="M-.3-.135h.15M-.3.135h.15M-.15.12h.3M-.15-.12h.3M.15-.135H.3M.15.135H.3" fill="none"/>
  </g>
  <path transform="matrix(0 392.86 -393.67 0 32861 9593.9)" d="M.163 1.148v-.27 0h.3v.27z" fill="#f95" stroke="#000"/>
  <g transform="matrix(0 392.86 393.67 0 32462 9716.9)" stroke="#191919">
   <path d="M-.3.15h.15v-.3H-.3v.3zM.15-.15H.3v.3H.15v-.3z" fill="#b3b3b3" fill-rule="evenodd"/>
   <path d="M-.3-.135h.15M-.3.135h.15M-.15.12h.3M-.15-.12h.3M.15-.135H.3M.15.135H.3" fill="none"/>
  </g>
 </g>
 <circle cx="34646" cy="9981.4" r="68.898" fill="#b5ae30"/>
</svg>
