<svg width="282" height="304" viewBox="98019000 33503000 57454000 62026000" xmlns="http://www.w3.org/2000/svg"><defs><mask id="c"><g fill="#fff" fill-opacity="1" stroke="#fff" stroke-linecap="round" stroke-linejoin="round" stroke-width="1"><path d="M151550000 56730000v-1700000h1700000v1700000z" fill-rule="evenodd"/><circle cx="152400000" cy="58420000" r="850000"/><circle cx="152400000" cy="60960000" r="850000"/><circle cx="152400000" cy="63500000" r="850000"/><path d="M135760000 66773999v-1523998h1523998v1523998z" fill-rule="evenodd"/><circle cx="139010000" cy="66012000" r="762000"/><circle cx="141510000" cy="66032000" r="762000"/><circle cx="144000000" cy="66022000" r="762000"/></g></mask><mask id="d"><path fill="#fff" d="M98019000 33503000h57454000v62026000H98019000z"/><g fill-opacity="1" stroke="#000" stroke-linecap="round" stroke-linejoin="round" stroke-width="1"><path d="M151550000 56730000v-1700000h1700000v1700000z" fill-rule="evenodd"/><circle cx="152400000" cy="58420000" r="850000"/><circle cx="152400000" cy="60960000" r="850000"/><circle cx="152400000" cy="63500000" r="850000"/><path d="M135760000 66773999v-1523998h1523998v1523998z" fill-rule="evenodd"/><circle cx="139010000" cy="66012000" r="762000"/><circle cx="141510000" cy="66032000" r="762000"/><circle cx="144000000" cy="66022000" r="762000"/></g></mask><mask id="b"><path fill="#fff" d="M98019000 33503000h57454000v62026000H98019000z"/><path stroke="#000" stroke-linecap="round" stroke-width="1000000" d="M152400000 55880000h0M152400000 58420000h0M152400000 60960000h0M152400000 63500000h0"/><path stroke="#000" stroke-linecap="round" stroke-width="700000" d="M136520000 66012000h0M139010000 66012000h0M141510000 66032000h0M144000000 66022000h0"/></mask><clipPath id="a"><path d="M98044000 33528000v61976000h57404000V33528000H98044000" fill-rule="evenodd"/></clipPath></defs><g clip-path="url(#a)" mask="url(#b)"><g fill="#313d63" stroke="#313d63"><path d="M98044000 33528000v61976000h57404000V33528000H98044000" fill-rule="evenodd"/><g fill-opacity="0" stroke-linecap="round" stroke-linejoin="round" stroke-width="50000" fill="none" stroke="#000"><path d="M155450000 33528000H98046000M98044000 95504000h57404000M155450000 95504000V33528000M98044000 33528000v61976000"/></g></g><g fill-opacity="1" stroke-linecap="round" stroke-linejoin="round" stroke-width="1" fill="#9c6b28" stroke="#9c6b28"><path d="M151550000 56730000v-1700000h1700000v1700000z" fill-rule="evenodd"/><circle cx="152400000" cy="58420000" r="850000"/><circle cx="152400000" cy="60960000" r="850000"/><circle cx="152400000" cy="63500000" r="850000"/><path d="M135760000 66773999v-1523998h1523998v1523998z" fill-rule="evenodd"/><circle cx="139010000" cy="66012000" r="762000"/><circle cx="141510000" cy="66032000" r="762000"/><circle cx="144000000" cy="66022000" r="762000"/></g><g fill="#212d53" stroke="#212d53" stroke-linecap="round" stroke-linejoin="round"><path d="M151550000 56730000v-1700000h1700000v1700000z" fill-rule="evenodd"/><circle cx="152400000" cy="58420000" r="850000"/><circle cx="152400000" cy="60960000" r="850000"/><circle cx="152400000" cy="63500000" r="850000"/><path d="M135760000 66773999v-1523998h1523998v1523998z" fill-rule="evenodd"/><circle cx="139010000" cy="66012000" r="762000"/><circle cx="141510000" cy="66032000" r="762000"/><circle cx="144000000" cy="66022000" r="762000"/><g fill-opacity="0" stroke-width="1000000" fill="none"><path d="M146810000 58420000l-7620000 7620000M152400000 58420000h-5588000M152400000 55880000h-9652000M136650000 61976000v4064000M142750000 55880000l-6096000 6096000M146810000 63500000l-2540000 2540000M152400000 63500000h-5588000"/></g><g><circle cx="152400000" cy="55880000" r="175000"/><circle cx="152400000" cy="58420000" r="175000"/><circle cx="152400000" cy="60960000" r="175000"/><circle cx="152400000" cy="63500000" r="175000"/><circle cx="136520000" cy="66012000" r="175000"/><circle cx="139010000" cy="66012000" r="175000"/><circle cx="141510000" cy="66032000" r="175000"/><circle cx="144000000" cy="66022000" r="175000"/></g></g><g fill="#b5ae30" mask="url(#c)" stroke="#b5ae30" stroke-linecap="round" stroke-linejoin="round"><path d="M151550000 56730000v-1700000h1700000v1700000z" fill-rule="evenodd"/><circle cx="152400000" cy="58420000" r="850000"/><circle cx="152400000" cy="60960000" r="850000"/><circle cx="152400000" cy="63500000" r="850000"/><path d="M135760000 66773999v-1523998h1523998v1523998z" fill-rule="evenodd"/><circle cx="139010000" cy="66012000" r="762000"/><circle cx="141510000" cy="66032000" r="762000"/><circle cx="144000000" cy="66022000" r="762000"/><g fill-opacity="0" stroke-width="1000000" fill="none"><path d="M146810000 58420000l-7620000 7620000M152400000 58420000h-5588000M152400000 55880000h-9652000M136650000 61976000v4064000M142750000 55880000l-6096000 6096000M146810000 63500000l-2540000 2540000M152400000 63500000h-5588000"/></g><g><circle cx="152400000" cy="55880000" r="175000"/><circle cx="152400000" cy="58420000" r="175000"/><circle cx="152400000" cy="60960000" r="175000"/><circle cx="152400000" cy="63500000" r="175000"/><circle cx="136520000" cy="66012000" r="175000"/><circle cx="139010000" cy="66012000" r="175000"/><circle cx="141510000" cy="66032000" r="175000"/><circle cx="144000000" cy="66022000" r="175000"/></g></g><g fill="#f0f0f0" mask="url(#d)" stroke="#f0f0f0" stroke-linecap="round" stroke-linejoin="round"><g fill-opacity="0"><g class="stroked-text" stroke-width="750000"><path d="M107940000 39457142v-3000000h714285l428572 142858 285714 285714 142857 285714 142857 571429v428571l-142857 571429-142857 285714-285714 285714-428572 142857h-714285M110940000 39457142v-3000000M110940000 37885714h1714285M112660000 39457142v-3000000M113660000 36457142h1714286M114510000 39457142v-3000000M116230000 36742857l142857-142857 285714-142858h714286l285714 142858 142858 142857 142857 285714v285714l-142857 428572-1714286 1714285h1857143M119090000 36742857l142857-142857 285714-142858h714286l285714 142858 142857 142857 142858 285714v285714l-142858 428572-1714285 1714285h1857143" fill="none"/></g><g class="stroked-text" stroke-width="375000"><path d="M103890000 86173571h857143M104320000 87673571v-1500000M105250000 86887857h500000M105960000 87673571h-714285v-1500000h714285M106610000 87673571v-1500000l500000 1071429 500000-1071429v1500000M108320000 87673571v-1500000h571429l142857 71429 71428 71428 71429 142857v214286l-71429 142857-71428 71429-142857 71428h-571429M120960000 87673571l-500000-714286M120110000 87673571v-1500000h571429l142857 71429 71429 71428 71428 142857v214286l-71428 142857-71429 71429-142857 71428h-571429M121610000 87673571v-1500000M121610000 86887857h857143M122460000 87673571v-1500000" fill="none"/></g><g stroke-width="120000" fill="none"><path d="M152400000 54550000h1330000M151070000 57150000h2660000M153730000 54550000v1330000M151070000 57150000v7680000M153730000 57150000v7680000M151070000 64830000h2660000"/></g><g stroke-width="160000" fill="none"><path d="M140840000 45202000v1100000M139740000 41502000h-1100000M147340000 53902000v-1800000M143040000 46302000h-1100000M133240000 41502000v3700000M147340000 57902000h-2500000M144840000 53902000h2500000M139740000 44002000v-2500000M147340000 60502000h-14100000M140840000 52102000h-1100000M137540000 53902000h1100000M132750000 49202000v-1100000M147340000 51002000v-1800000M139740000 51002000h1100000M138790000 61002000v4000000M143790000 61002000v4000000M132740000 41002000v500000M138640000 56802000v1100000M132750000 46302000v-1100000M140840000 44002000h-1100000M139740000 49202000v-1100000M140840000 57902000h-1100000M147830000 48102000v1100000M132750000 52102000v-1100000M141940000 45202000h1100000M147830000 56802000v1100000M135740000 45202000v1100000M143040000 53902000v1100000M143040000 45202000v1100000M144840000 49202000v-1100000M141940000 55002000v-1100000M137540000 41012000h1100000M144840000 45202000h2500000M137540000 51002000h1100000M133240000 51002000h2500000M141940000 52102000v-1100000M133240000 55002000v1800000M132740000 41502000v19000000M147340000 41002000h-14100000M135740000 52102000h-2500000M147340000 48102000v-1800000M147830000 53902000v1100000M136290000 61002000v4000000M133240000 41502000h4300000M141940000 46302000v-1100000M140840000 48102000v1100000M144720000 35902000h-8854000M141940000 48102000h1100000M133240000 60502000v-2600000M137540000 56802000h1100000M133240000 46302000v1800000M137540000 45202000h1100000M147340000 41502000h-4300000M139740000 45202000h1100000M135740000 46302000h-2500000M140840000 41502000v2500000M138640000 49202000h-1100000M141940000 49202000v-1100000M140840000 55002000h-1100000M135740000 55002000h-2500000M147340000 52102000h-2500000M133240000 48102000h2500000M137540000 48102000h1100000M135740000 53902000v1100000M140840000 49202000h-1100000M137540000 49202000v-1100000M143040000 48102000v1100000M138640000 51002000v1100000M140840000 51002000v1100000M144840000 55002000v-1100000M139740000 55002000v-1100000M141940000 41012000h1100000M138640000 41502000v2500000M143040000 44002000h-1100000M138640000 57902000h-1100000M143040000 41502000v2500000M144840000 46302000v-1100000M147340000 49202000h-2500000M139740000 57902000v-1100000M144840000 52102000v-1100000M138640000 55002000h-1100000M138640000 44002000h-1100000M138640000 52102000h-1100000M147340000 57902000v2600000M135740000 48102000v1100000M143040000 57902000h-1100000M139740000 46302000v-1100000M135740000 51002000v1100000M147340000 55002000h-2500000M138640000 45202000v1100000M141940000 57902000v-1100000M147340000 56802000v-1800000M141290000 61002000v4000000M147840000 41502000v-500000M143040000 55002000h-1100000M134970000 36462000l-2226000 4540000M133240000 52102000v1800000M144840000 51002000h2500000M135740000 57902000h-2500000M139740000 56802000h1100000M144840000 56802000h2500000M133240000 45202000h2500000M147340000 46302000h-2500000M147830000 45202000v1100000M147340000 45202000v-3700000M139740000 41012000h1100000M133240000 49202000v1800000M141940000 44002000v-2500000M143040000 49202000h-1100000M147840000 41002000l-2226000-4540000M139740000 48102000h1100000M138640000 48102000v1100000M144840000 48102000h2500000M137540000 52102000v-1100000M147830000 51002000v1100000M135740000 49202000h-2500000M137540000 44002000v-2500000M147840000 60502000V41502000M143040000 52102000h-1100000M137540000 46302000v-1100000M144840000 57902000v-1100000M138640000 53902000v1100000M137540000 57902000v-1100000M137540000 55002000v-1100000M139740000 52102000v-1100000M133240000 56802000h2500000M141940000 53902000h1100000M143040000 51002000v1100000M139740000 53902000h1100000M141940000 41502000h-1100000M132750000 57902000v-1100000M138640000 46302000h-1100000M140840000 46302000h-1100000M132750000 55002000v-1100000M135740000 56802000v1100000M140840000 56802000v1100000M140840000 53902000v1100000M143040000 56802000v1100000M133240000 61002000h14100000M141940000 51002000h1100000M141940000 56802000h1100000M133240000 53902000h2500000M141290000 66002000a250000 250000 0 0 0 500000 0M135870000 35902000a1000000 1000000 0 0 0-897920 559841M138790000 66002000a250000 250000 0 0 0 500000 0M136290000 66002000a250000 250000 0 0 0 500000 0"/><path d="M136290000 66002000a250000 250000 0 0 0 500000 0M143790000 66002000a250000 250000 0 0 0 500000 0M145620000 36462000a999104 999104 0 0 0-897263-559104M147340000 61002000a500000 500000 0 0 0 500000-500000M141290000 66002000a250000 250000 0 0 0 500000 0M138790000 66002000a250000 250000 0 0 0 500000 0"/><path d="M143790000 66002000a250000 250000 0 0 0 500000 0M132740000 60502000a500000 500000 0 0 0 500000 500000"/><circle cx="144040000" cy="66002000" r="250000"/><circle cx="140290000" cy="39002000" r="1500000"/><circle cx="136540000" cy="66002000" r="250000"/><circle cx="141540000" cy="66002000" r="250000"/><circle cx="139040000" cy="66002000" r="250000"/></g></g><circle cx="152400000" cy="55880000" r="175000"/><circle cx="152400000" cy="58420000" r="175000"/><circle cx="152400000" cy="60960000" r="175000"/><circle cx="152400000" cy="63500000" r="175000"/><circle cx="136520000" cy="66012000" r="175000"/><circle cx="139010000" cy="66012000" r="175000"/><circle cx="141510000" cy="66032000" r="175000"/><circle cx="144000000" cy="66022000" r="175000"/></g><g fill-opacity="0" stroke-linecap="round" stroke-linejoin="round" stroke-width="50000" fill="none" stroke="#000"><path d="M155450000 33528000H98046000M98044000 95504000h57404000M155450000 95504000V33528000M98044000 33528000v61976000"/></g></g><g stroke-width=".093"><g transform="matrix(1000000 0 0 -1000000 152400000 55880000)"><path d="M-1.27-8.89h2.54V1.27h-2.54z" fill="#1a1a1a" fill-rule="evenodd" stroke="#000"/><path d="M-.6-1.94v-1.2H.6v1.2z" fill="#333" fill-rule="evenodd" stroke="#000"/><g fill="#4d4d4d" fill-rule="evenodd" stroke="#000"><path d="M-.6-5.68H.6v1.2H-.6zM-.6-.6H.6V.6H-.6zM.6-7.02H-.6v-1.2H.6z"/></g><g fill="none" stroke="#000"><path d="M-.6-1.94l.299-.299M-.6-3.14l.299.299M-.301-2.239v-.602M.6-1.94l-.299-.299M.301-2.239h-.602M.6-3.14l-.299.299M.301-2.841v.602M-.301-2.841h.602M.6-4.48l-.299-.299M-.6-4.48l.299-.299M.301-4.779h-.602M.6-5.68l-.299.299M.301-5.381v.602M-.6-5.68l.299.299M-.301-5.381h.602M-.301-4.779v-.602M-.6-.6l.299.299M.6-.6l-.299.299M-.301-.301h.602M-.6.6l.299-.299M-.301.301v-.602M.6.6L.301.301M.301.301h-.602M.301-.301v.602M-.6-8.22l.299.299M.6-8.22l-.299.299M-.301-7.921h.602M-.6-7.02l.299-.299M-.301-7.319v-.602M.6-7.02l-.299-.299M.301-7.319h-.602M.301-7.921v.602"/></g><g fill="olive" fill-rule="evenodd" stroke="#000"><path d="M-.3-2.84h.6v.6h-.6zM.3-5.38v.6h-.6v-.6zM.3-.3v.6h-.6v-.6zM.3-7.92v.6h-.6v-.6z"/></g><g fill="none" stroke="#000"><path d="M-.1-2.29v.05M-.1-2.79v.5M-.1-2.84v.05M.1-2.84v.05M-.1-2.79h.2M.1-2.79v.5M.1-2.29v.05M-.1-2.29h.2M-.1-4.83v.05M-.1-5.33v.5M-.1-5.38v.05M.1-5.38v.05M-.1-5.33h.2M.1-5.33v.5M.1-4.83v.05M-.1-4.83h.2M-.1.25V.3M-.1-.25v.5M-.1-.3v.05M.1-.3v.05M-.1-.25h.2M.1-.25v.5M.1.25V.3M-.1.25h.2M-.1-7.37v.05M-.1-7.87v.5M-.1-7.92v.05M.1-7.92v.05M-.1-7.87h.2M.1-7.87v.5M.1-7.37v.05M-.1-7.37h.2"/></g></g></g><g stroke-width=".1" transform="translate(132589000 35751000) scale(1000000)"><path d="M12.13.146H3.277a1 1 0 0 0-.898.56L.153 5.246v19.5a.5.5 0 0 0 .5.5h14.1a.5.5 0 0 0 .5-.5v-19.5L13.028.706a1 1 0 0 0-.898-.56z" fill="#f2f2f2" fill-rule="evenodd" stroke="#191919"/><circle transform="scale(1 -1)" cx="7.704" cy="-3.243" r="1.5" fill="#313d63" stroke="#191919"/><g fill="#b3b3b3"><path d="M11.2 30.251v-5h.5v5c0 .333-.5.333-.5 0z" fill-rule="evenodd" stroke="#191919"/><g stroke="#000"><path d="M9.201 25.251v5c0 .333-.5.333-.5 0v-5zM6.701 25.251v5c0 .333-.5.333-.5 0v-5zM4.201 25.251h0v5c0 .333-.5.333-.5 0v-5z"/></g></g></g><g stroke="#191919" stroke-width=".1"><path d="M132886400 41148300l353550 353550" fill="none" stroke-width="100000"/><g fill="#666" fill-rule="evenodd"><path d="M138640000 41012000v2989900h-1100000v-2989900zM140840000 41012000v2989900h-1100000v-2989900zM143039500 41012000v2989900h-1100000v-2989900z" stroke-width="100000"/></g><g fill="none"><path d="M147339500 41501900l28040-28035 27950-27947 27770-27771 54670-54664 52920-52924 25600-25600 24920-24918 24160-24157 23320-23320 22410-22409 21430-21428 20380-20380M147693500 41148300l-20380-19268-21430-18095-22410-16865-23320-15582-24160-14250-24920-12873-25600-11455-26200-10002-26720-8520-27160-7010-27510-5470-27770-3920-27950-2360-28020-786.5M147339500 41001900h-14100000M133239950 41001900l-28035 786.6-27947 2360-27771 3920-27507 5470-27157 7010-26722 8520-26202 10002-25600 11455-24918 12873-24157 14250-23320 15582-22409 16865-21428 18095-20380 19268" stroke-width="100000"/></g><g fill="#666" fill-rule="evenodd"><path d="M147829500 46302000h-2989900v-1100000h2989900zM147829500 49202000h-2989900v-1100000h2989900zM147829500 52102000h-2989900v-1100000h2989900zM147829500 55002000h-2989900v-1100000h2989900zM147829500 57902000h-2989900v-1100000h2989900z" stroke-width="100000"/></g><path d="M147339000 60502000h499960M147839000 41501900l-787-28035-2400-27947-3900-27771-5500-27507-7000-27157-8500-26722-10000-26202-11460-25600-12870-24918-14250-24157-15580-23320-16860-22409-18100-21428-19270-20380" fill="none" stroke-width="100000"/><g fill="#666" fill-rule="evenodd"><path d="M137540000 57902000v-1100000h1100000v1100000zM141940000 57902000v-1100000h1100000v1100000zM139740000 55002000v-1100000h1100000v1100000zM138640000 51002000v1100000h-1100000v-1100000zM143039500 52102000h-1100000v-1100000h1100000zM140840000 49202000h-1100000v-1100000h1100000zM143039500 45201900v1100000h-1100000v-1100000zM138640000 45201900v1100000h-1100000v-1100000zM140840000 45201900v1100000h-1100000v-1100000zM137540000 48102000h1100000v1100000h-1100000zM143039500 49202000h-1100000v-1100000h1100000zM139740000 52102000v-1100000h1100000v1100000zM138640000 53902000v1100000h-1100000v-1100000zM143039500 55002000h-1100000v-1100000h1100000zM139740000 57902000v-1100000h1100000v1100000zM135740000 48102000v1100000h-2989900v-1100000h489900zM135740000 51002000v1100000h-2989900v-1100000h489900zM135740000 53902000v1100000h-2989900v-1100000h489900zM133239950 57902000h-489900v-1100000h2989900v1100000z" stroke-width="100000"/></g><g fill="none"><path d="M133239950 60502000v499960M147339500 61002000v-499960M132886400 41148300l-19268 20380-18095 21428-16865 22409-15582 23320-14250 24157-12873 24918-11455 25600-10002 26202-8520 26722-7010 27157-5470 27507-3920 27771-2360 27947-786.5 28035M132739950 60502000h499990" stroke-width="100000"/></g><path d="M132762160 45201900h2977800v1100000h-2989900v-1100000z" fill="#666" fill-rule="evenodd" stroke-width="100000"/><g fill="none"><path d="M133239950 41501900h4300000M139740000 41501900h-1100000M141940000 41501900h-1100000M147339500 41501900h-4300000M147339500 45201900v-3700000M147339500 48102000v-1800000M147339500 51002000v-1800000M147339500 53902000v-1800000M147339500 56802000v-1800000M147339500 57902000v2600000M133239950 41501900v3700000M133239950 46302000v1800000M133239950 49202000v1800000M133239950 52102000v1800000M133239950 55002000v1800000M133239950 60502000v-2600000M147339500 60502000h-14100000M136790000 65002000h-500000M139290000 65002000h-500000M141790000 65002000h-500000M144289500 65002000h-500060" stroke-width="100000"/></g></g></svg>