<svg width="266" height="351" viewBox="0 0 21437 28129" xmlns="http://www.w3.org/2000/svg"><g clip-path="url(#a)" mask="url(#b)" transform="translate(-42825 -20069)"><defs><clipPath id="a"><path d="M64251 48188H42834V20078h21417v28110" fill-rule="evenodd"/></clipPath></defs><g fill="#313d63" stroke="#313d63"><path d="M64251 48188H42834V20078h21417v28110" fill-rule="evenodd"/><g fill-opacity="0" stroke-linecap="round" stroke-linejoin="round" stroke-width="19.685" fill="none" stroke="#000"><path d="M64251 20078v28110M42834 20078h21417M42834 48188V20078M64251 48188H42834"/></g></g><g fill-opacity="1" stroke="none" stroke-linecap="round" stroke-linejoin="round" stroke-width="0" fill="#9c6b28"><circle cx="63307" cy="36213" r="334.65"/><circle cx="63307" cy="35213" r="334.65"/><circle cx="63307" cy="34213" r="334.65"/><circle cx="63307" cy="33213" r="334.65"/><circle cx="63307" cy="32213" r="334.65"/><circle cx="63307" cy="31213" r="334.65"/><circle cx="63307" cy="30213" r="334.65"/><path d="M62972 29547v-669.2h669.3v669.2z" fill-rule="evenodd"/><circle cx="56555" cy="37638" r="300"/><circle cx="55551" cy="37658" r="300"/><circle cx="54567" cy="37638" r="300"/><circle cx="53543" cy="37638" r="300"/><circle cx="52579" cy="37638" r="300"/><circle cx="51545" cy="37658" r="300"/><circle cx="50561" cy="37658" r="300"/><circle cx="49537" cy="37648" r="300"/></g><g fill="#212d53" stroke="#212d53" stroke-linecap="round" stroke-linejoin="round" stroke-width="0"><g fill-opacity="1" stroke="none"><circle cx="63307" cy="36213" r="334.65"/><circle cx="63307" cy="35213" r="334.65"/><circle cx="63307" cy="34213" r="334.65"/><circle cx="63307" cy="33213" r="334.65"/><circle cx="63307" cy="32213" r="334.65"/><circle cx="63307" cy="31213" r="334.65"/><circle cx="63307" cy="30213" r="334.65"/><path d="M62972 29547v-669.2h669.3v669.2z" fill-rule="evenodd"/><circle cx="56555" cy="37638" r="300"/><circle cx="55551" cy="37658" r="300"/><circle cx="54567" cy="37638" r="300"/><circle cx="53543" cy="37638" r="300"/><circle cx="52579" cy="37638" r="300"/><circle cx="51545" cy="37658" r="300"/><circle cx="50561" cy="37658" r="300"/><circle cx="49537" cy="37648" r="300"/></g><g stroke="none"><circle cx="63307" cy="36213" r="68.898"/><circle cx="63307" cy="35213" r="68.898"/><circle cx="63307" cy="34213" r="68.898"/><circle cx="63307" cy="33213" r="68.898"/><circle cx="63307" cy="32213" r="68.898"/><circle cx="63307" cy="31213" r="68.898"/><circle cx="63307" cy="30213" r="68.898"/><circle cx="63307" cy="29213" r="68.898"/><circle cx="56555" cy="37638" r="68.898"/><circle cx="55551" cy="37658" r="68.898"/><circle cx="54567" cy="37638" r="68.898"/><circle cx="53543" cy="37638" r="68.898"/><circle cx="52579" cy="37638" r="68.898"/><circle cx="51545" cy="37658" r="68.898"/><circle cx="50561" cy="37658" r="68.898"/><circle cx="49537" cy="37648" r="68.898"/></g></g><g fill="#b5ae30" mask="url(#c)" stroke="#b5ae30" stroke-linecap="round" stroke-linejoin="round" stroke-width="0"><g fill-opacity="1" stroke="none"><circle cx="63307" cy="36213" r="334.65"/><circle cx="63307" cy="35213" r="334.65"/><circle cx="63307" cy="34213" r="334.65"/><circle cx="63307" cy="33213" r="334.65"/><circle cx="63307" cy="32213" r="334.65"/><circle cx="63307" cy="31213" r="334.65"/><circle cx="63307" cy="30213" r="334.65"/><path d="M62972 29547v-669.2h669.3v669.2z" fill-rule="evenodd"/><circle cx="56555" cy="37638" r="300"/><circle cx="55551" cy="37658" r="300"/><circle cx="54567" cy="37638" r="300"/><circle cx="53543" cy="37638" r="300"/><circle cx="52579" cy="37638" r="300"/><circle cx="51545" cy="37658" r="300"/><circle cx="50561" cy="37658" r="300"/><circle cx="49537" cy="37648" r="300"/></g><g stroke="none"><circle cx="63307" cy="36213" r="68.898"/><circle cx="63307" cy="35213" r="68.898"/><circle cx="63307" cy="34213" r="68.898"/><circle cx="63307" cy="33213" r="68.898"/><circle cx="63307" cy="32213" r="68.898"/><circle cx="63307" cy="31213" r="68.898"/><circle cx="63307" cy="30213" r="68.898"/><circle cx="63307" cy="29213" r="68.898"/><circle cx="56555" cy="37638" r="68.898"/><circle cx="55551" cy="37658" r="68.898"/><circle cx="54567" cy="37638" r="68.898"/><circle cx="53543" cy="37638" r="68.898"/><circle cx="52579" cy="37638" r="68.898"/><circle cx="51545" cy="37658" r="68.898"/><circle cx="50561" cy="37658" r="68.898"/><circle cx="49537" cy="37648" r="68.898"/></g></g><defs><mask id="c"><g fill="#fff" fill-opacity="1" stroke="#fff" stroke-linecap="round" stroke-linejoin="round" stroke-width="0"><circle cx="63307" cy="36213" r="334.65"/><circle cx="63307" cy="35213" r="334.65"/><circle cx="63307" cy="34213" r="334.65"/><circle cx="63307" cy="33213" r="334.65"/><circle cx="63307" cy="32213" r="334.65"/><circle cx="63307" cy="31213" r="334.65"/><circle cx="63307" cy="30213" r="334.65"/><path d="M62972 29547v-669.2h669.3v669.2z" fill-rule="evenodd"/><circle cx="56555" cy="37638" r="300"/><circle cx="55551" cy="37658" r="300"/><circle cx="54567" cy="37638" r="300"/><circle cx="53543" cy="37638" r="300"/><circle cx="52579" cy="37638" r="300"/><circle cx="51545" cy="37658" r="300"/><circle cx="50561" cy="37658" r="300"/><circle cx="49537" cy="37648" r="300"/></g></mask></defs><defs><mask id="d"><g fill-opacity="1" stroke="#000" stroke-linecap="round" stroke-linejoin="round" stroke-width="0"><circle cx="63307" cy="36213" r="334.65"/><circle cx="63307" cy="35213" r="334.65"/><circle cx="63307" cy="34213" r="334.65"/><circle cx="63307" cy="33213" r="334.65"/><circle cx="63307" cy="32213" r="334.65"/><circle cx="63307" cy="31213" r="334.65"/><circle cx="63307" cy="30213" r="334.65"/><path d="M62972 29547v-669.2h669.3v669.2z" fill-rule="evenodd"/><circle cx="56555" cy="37638" r="300"/><circle cx="55551" cy="37658" r="300"/><circle cx="54567" cy="37638" r="300"/><circle cx="53543" cy="37638" r="300"/><circle cx="52579" cy="37638" r="300"/><circle cx="51545" cy="37658" r="300"/><circle cx="50561" cy="37658" r="300"/><circle cx="49537" cy="37648" r="300"/></g><path fill="#fff" d="M42824 20068h21437v28129H42824z"/></mask></defs><g fill="#f0f0f0" fill-opacity="0" mask="url(#d)" stroke="#f0f0f0" stroke-linecap="round" stroke-linejoin="round"><g stroke-width="147.64"><path d="M46339 47249v337M46339 47418h-590l84 56 57 56 28 56M46115 46996v-450M45721 45843l759 506M46339 45308l-281 197M46339 45646h-590v-225l28-56 28-28 56-29h85l56 29 28 28 28 56v225M46311 45084l28-85v-140l-28-57-28-28-56-28h-56l-56 28-29 28-28 57-28 112-28 56-28 28-56 29h-57l-56-29-28-28-28-56v-141l28-84M45749 44577v-337M46339 44409h-590M47872 47586l-28-28-28-56v-141l28-56 28-28 56-28h57l84 28 337 337v-365M48181 46996v-450M47788 45843l759 506M48350 45308l28 29 28 84v56l-28 85-56 56-56 28-113 28h-84l-113-28-56-28-56-56-28-85v-56l28-84 28-29M48378 45084l28-85v-140l-28-57-28-28-56-28h-56l-57 28-28 28-28 57-28 112-28 56-28 28-56 29h-57l-56-29-28-28-28-56v-141l28-84M49883 47614v-365l225 197v-85l28-56 28-28 56-28h141l56 28 28 28 28 56v169l-28 56-28 28M50248 46996v-450M50473 46265h-590v-141l28-84 56-57 56-28 113-28h84l113 28 56 28 56 57 28 84v141M50417 45337l28 28 28 84v56l-28 85-56 56-56 28-113 28h-84l-113-28-56-28-56-56-28-85v-56l28-84 28-28M52147 47305h393M51922 47446l421 140v-365M52315 46996v-450M52540 46265h-590v-141l28-84 56-57 56-28 113-28h84l113 28 56 28 56 57 28 84v141M52540 45674h-590M52540 45393h-590l590-338h-590M54017 47277v281l281 28-28-28-28-56v-141l28-56 28-28 56-28h141l56 28 28 28 28 56v141l-28 56-28 28M54382 46996v-450M54551 45927l28 28 28 85v56l-28 84-56 56-56 29-113 28h-84l-113-28-56-29-56-56-28-84v-56l28-85 28-28M54607 45393v281h-590M54607 45196h-590M54607 44859l-337 253M54017 44859l337 337M56084 47305v113l28 56 28 28 84 56 113 28h225l56-28 28-28 28-56v-113l-28-56-28-28-56-28h-141l-56 28-28 28-28 56v113l28 56 28 28 56 28M56449 46996v-450M56084 46349l590-197-590-197M56618 45421l28 28 28 84v57l-28 84-56 56-56 28-113 29h-84l-113-29-56-28-56-56-28-84v-57l28-84 28-28M56618 44830l28 29 28 84v56l-28 85-56 56-56 28-113 28h-84l-113-28-56-28-56-56-28-85v-56l28-84 28-29M58151 47614v-393l590 253M58516 46996v-450M58432 46068l28-85 28-28 56-28h85l56 28 28 28 28 57v225h-590v-197l28-56 28-29 56-28h56l56 28 29 29 28 56v197M58741 45393v281h-590M60471 47474l-29 56-28 28-56 28h-28l-56-28-28-28-29-56v-113l29-56 28-28 56-28h28l56 28 28 28 29 56v113l28 56 28 28 56 28h113l56-28 28-28 28-56v-113l-28-56-28-28-56-28h-113l-56 28-28 28-28 56M60583 46996v-450M60246 45955l-29 57v84l29 84 56 56 56 29 113 28h84l112-28 57-29 56-56 28-84v-56l-28-85-28-28h-197v113M60808 45674h-591l591-337h-591M60808 45055h-591v-140l29-85 56-56 56-28 113-28h84l112 28 57 28 56 56 28 85v140" fill="none"/></g><g stroke-width="47.244" fill="none"><path d="M62783 29712h1047M62783 29712v7024M62783 36736h1047M63830 29712v7024M63830 28688v524M63307 28688h523"/></g><g stroke-width="62.992" fill="none"><circle cx="46362" cy="38069" r="681.5"/><circle cx="60023" cy="21887" r="622.05"/><circle cx="46362" cy="21846" r="575.2"/><path d="M44816 20992v18012M61649 20992H44816M61649 39004V20992M44816 39004h16833"/><circle cx="59983" cy="38028" r="642.91"/></g></g><g fill-opacity="0" stroke-linecap="round" stroke-linejoin="round" stroke-width="19.685" fill="none" stroke="#000"><path d="M64251 20078v28110M42834 20078h21417M42834 48188V20078M64251 48188H42834"/></g><defs><mask id="b"><path fill="#fff" d="M42824 20068h21437v28129H42824z"/><path stroke="#000" stroke-linecap="round" stroke-width="393" d="M63307 36212h0M63307 35212h0M63307 34212h0M63307 33212h0M63307 32212h0M63307 31212h0M63307 30212h0M63307 29212h0"/><path stroke="#000" stroke-linecap="round" stroke-width="300" d="M56555 37637h0M55551 37657h0M54566 37637h0M53543 37637h0M52578 37637h0M51545 37657h0M50561 37657h0M49537 37647h0"/></mask></defs></g><g stroke-width=".093"><g stroke="#000"><path d="M20981.999 8643.001h-999.998v7999.984h999.998z" fill="#1a1a1a" fill-rule="evenodd" stroke-width="36.6141"/><path d="M20245.78 16379.049h472.44v-472.44h-472.44z" fill="#666" fill-rule="evenodd" stroke-width="36.6141"/><path d="M20363.89 16260.939h236.22v-236.22h-236.22z" fill="olive" fill-rule="evenodd" stroke-width="36.6141"/><path d="M20245.78 16379.049l117.716-117.717M20718.22 16379.049l-117.716-117.717M20363.496 16261.332h237.008M20245.78 15906.609l117.716 117.716M20363.496 16024.325v237.007M20718.22 15906.609l-117.716 117.716M20600.504 16024.325h-237.008M20600.504 16261.332v-237.007M20442.63 16044.404v-19.685M20442.63 16241.254v-196.85M20442.63 16260.939v-19.685M20521.37 16260.939v-19.685M20442.63 16241.254h78.74M20521.37 16241.254v-196.85M20521.37 16044.404v-19.685M20442.63 16044.404h78.74" fill="none" stroke-width="36.6141"/><g><path d="M20245.78 15379.05h472.44v-472.44h-472.44z" fill="#666" fill-rule="evenodd" stroke-width="36.6141"/><path d="M20363.89 15260.94h236.22v-236.22h-236.22z" fill="olive" fill-rule="evenodd" stroke-width="36.6141"/><path d="M20245.78 15379.05l117.716-117.716M20718.22 15379.05l-117.716-117.716M20363.496 15261.334h237.008M20245.78 14906.61l117.716 117.717M20363.496 15024.327v237.007M20718.22 14906.61l-117.716 117.717M20600.504 15024.327h-237.008M20600.504 15261.334v-237.007M20442.63 15044.406v-19.685M20442.63 15241.256v-196.85M20442.63 15260.94v-19.684M20521.37 15260.94v-19.684M20442.63 15241.256h78.74M20521.37 15241.256v-196.85M20521.37 15044.406v-19.685M20442.63 15044.406h78.74" fill="none" stroke-width="36.6141"/></g><g><path d="M20245.78 14379.053h472.44v-472.44h-472.44z" fill="#666" fill-rule="evenodd" stroke-width="36.6141"/><path d="M20363.89 14260.943h236.22v-236.22h-236.22z" fill="olive" fill-rule="evenodd" stroke-width="36.6141"/><path d="M20245.78 14379.053l117.716-117.717M20718.22 14379.053l-117.716-117.717M20363.496 14261.336h237.008M20245.78 13906.613l117.716 117.716M20363.496 14024.329v237.007M20718.22 13906.613l-117.716 117.716M20600.504 14024.329h-237.008M20600.504 14261.336v-237.007M20442.63 14044.408v-19.685M20442.63 14241.258v-196.85M20442.63 14260.943v-19.685M20521.37 14260.943v-19.685M20442.63 14241.258h78.74M20521.37 14241.258v-196.85M20521.37 14044.408v-19.685M20442.63 14044.408h78.74" fill="none" stroke-width="36.6141"/></g><g><path d="M20245.78 13379.055h472.44v-472.44h-472.44z" fill="#666" fill-rule="evenodd" stroke-width="36.6141"/><path d="M20363.89 13260.945h236.22v-236.22h-236.22z" fill="olive" fill-rule="evenodd" stroke-width="36.6141"/><path d="M20245.78 13379.055l117.716-117.717M20718.22 13379.055l-117.716-117.717M20363.496 13261.338h237.008M20245.78 12906.615l117.716 117.716M20363.496 13024.33v237.008M20718.22 12906.615l-117.716 117.716M20600.504 13024.33h-237.008M20600.504 13261.338v-237.007M20442.63 13044.41v-19.685M20442.63 13241.26v-196.85M20442.63 13260.945v-19.685M20521.37 13260.945v-19.685M20442.63 13241.26h78.74M20521.37 13241.26v-196.85M20521.37 13044.41v-19.685M20442.63 13044.41h78.74" fill="none" stroke-width="36.6141"/></g><g><path d="M20245.78 12379.057h472.44v-472.44h-472.44z" fill="#666" fill-rule="evenodd" stroke-width="36.6141"/><path d="M20363.89 12260.947h236.22v-236.22h-236.22z" fill="olive" fill-rule="evenodd" stroke-width="36.6141"/><path d="M20245.78 12379.057l117.716-117.717M20718.22 12379.057l-117.716-117.717M20363.496 12261.34h237.008M20245.78 11906.617l117.716 117.716M20363.496 12024.333v237.007M20718.22 11906.617l-117.716 117.716M20600.504 12024.333h-237.008M20600.504 12261.34v-237.007M20442.63 12044.412v-19.685M20442.63 12241.262v-196.85M20442.63 12260.947v-19.685M20521.37 12260.947v-19.685M20442.63 12241.262h78.74M20521.37 12241.262v-196.85M20521.37 12044.412v-19.685M20442.63 12044.412h78.74" fill="none" stroke-width="36.6141"/></g><g><path d="M20245.78 11379.059h472.44v-472.44h-472.44z" fill="#666" fill-rule="evenodd" stroke-width="36.6141"/><path d="M20363.89 11260.949h236.22v-236.22h-236.22z" fill="olive" fill-rule="evenodd" stroke-width="36.6141"/><path d="M20245.78 11379.059l117.716-117.717M20718.22 11379.059l-117.716-117.717M20363.496 11261.342h237.008M20245.78 10906.619l117.716 117.716M20363.496 11024.335v237.007M20718.22 10906.619l-117.716 117.716M20600.504 11024.335h-237.008M20600.504 11261.342v-237.007M20442.63 11044.414v-19.685M20442.63 11241.264v-196.85M20442.63 11260.949v-19.685M20521.37 11260.949v-19.685M20442.63 11241.264h78.74M20521.37 11241.264v-196.85M20521.37 11044.414v-19.685M20442.63 11044.414h78.74" fill="none" stroke-width="36.6141"/></g><g><path d="M20245.78 10379.06h472.44v-472.44h-472.44z" fill="#666" fill-rule="evenodd" stroke-width="36.6141"/><path d="M20363.89 10260.95h236.22v-236.22h-236.22z" fill="olive" fill-rule="evenodd" stroke-width="36.6141"/><path d="M20245.78 10379.06l117.716-117.716M20718.22 10379.06l-117.716-117.716M20363.496 10261.344h237.008M20245.78 9906.62l117.716 117.717M20363.496 10024.337v237.007M20718.22 9906.62l-117.716 117.717M20600.504 10024.337h-237.008M20600.504 10261.344v-237.007M20442.63 10044.416v-19.685M20442.63 10241.266v-196.85M20442.63 10260.95v-19.684M20521.37 10260.95v-19.684M20442.63 10241.266h78.74M20521.37 10241.266v-196.85M20521.37 10044.416v-19.685M20442.63 10044.416h78.74" fill="none" stroke-width="36.6141"/></g><g><path d="M20245.78 9379.063h472.44v-472.44h-472.44z" fill="#666" fill-rule="evenodd" stroke-width="36.6141"/><path d="M20363.89 9260.953h236.22v-236.22h-236.22z" fill="olive" fill-rule="evenodd" stroke-width="36.6141"/><path d="M20245.78 9379.063l117.716-117.717M20718.22 9379.063l-117.716-117.717M20363.496 9261.346h237.008M20245.78 8906.623l117.716 117.716M20363.496 9024.339v237.007M20718.22 8906.623l-117.716 117.716M20600.504 9024.339h-237.008M20600.504 9261.346V9024.34M20442.63 9044.418v-19.685M20442.63 9241.268v-196.85M20442.63 9260.953v-19.685M20521.37 9260.953v-19.685M20442.63 9241.268h78.74M20521.37 9241.268v-196.85M20521.37 9044.418v-19.685M20442.63 9044.418h78.74" fill="none" stroke-width="36.6141"/></g></g><g transform="translate(1829.395 747.16) scale(393.7)"><path d="M1.427.427h40.7a1 1 0 0 1 1 1v43.8a1 1 0 0 1-1 1h-40.7a1 1 0 0 1-1-1v-43.8a1 1 0 0 1 1-1z" fill="#0149a6" fill-rule="evenodd" stroke="#191919"/><circle transform="scale(1 -1)" cx="25.127" cy="-42.727" r="1" fill="#ccc" stroke="#191919"/><circle transform="scale(1 -1)" cx="27.667" cy="-42.727" r="1" fill="#ccc" stroke="#191919"/><circle transform="scale(1 -1)" cx="14.967" cy="-42.727" r="1" fill="#ccc" stroke="#191919"/><circle transform="scale(1 -1)" cx="17.507" cy="-42.727" r="1" fill="#ccc" stroke="#191919"/><circle transform="scale(1 -1)" cx="20.047" cy="-42.727" r="1" fill="#ccc" stroke="#191919"/><path d="M29.515 44.429c-.04.002-.082.004-.12.013a.636.636 0 0 0-.107.04v0c-.03.02-.062.04-.087.066-.026.028-.045.061-.064.095h0a.714.714 0 0 0-.039.113.717.717 0 0 0-.013.121h0c.002.041.004.082.013.12a.664.664 0 0 0 .04.11h0c.02.032.04.064.065.09a.485.485 0 0 0 .09.066h0a.657.657 0 0 0 .11.04c.04.01.08.012.12.014v0a.695.695 0 0 0 .093-.008c.031-.006.06-.016.09-.025h0c.03-.013.06-.026.088-.042.03-.017.058-.038.085-.059h0v-.319h-.363v.102h.252v.16c-.014.01-.03.022-.045.031a.498.498 0 0 1-.062.03h0a.51.51 0 0 1-.07.02c-.025.005-.05.007-.074.008v0c-.028-.002-.055-.003-.082-.01a.485.485 0 0 1-.078-.028h0a.343.343 0 0 1-.067-.047c-.02-.02-.034-.044-.048-.068h0c-.012-.028-.023-.057-.03-.086-.008-.035-.009-.07-.01-.106h0c.001-.03.003-.06.008-.09a.607.607 0 0 1 .025-.083h0a.39.39 0 0 1 .023-.044l.031-.04h0c.013-.013.026-.025.04-.036.016-.01.034-.019.052-.027h0c.02-.007.04-.014.062-.018.024-.004.048-.005.073-.006h0c.02.001.041.002.062.006.019.004.037.01.056.017h0c.016.008.033.015.047.026.013.01.024.022.035.034h0c.01.014.019.029.026.044.01.02.016.039.022.059h0l.103-.028v0a.498.498 0 0 0-.028-.079.5.5 0 0 0-.037-.062h0c-.017-.017-.033-.034-.051-.048-.02-.015-.044-.025-.068-.036h0c-.026-.009-.052-.017-.08-.022a.594.594 0 0 0-.088-.008zM30.046 44.443v.859h.109v-.675l.451.675h.117v-.859h-.11v.674l-.45-.674zM27.669 45.027a.285.285 0 0 0-.01-.07.284.284 0 0 0-.032-.06h0c-.016-.017-.032-.034-.05-.047-.021-.014-.046-.022-.07-.031h0a.288.288 0 0 0 .053-.035c.014-.012.026-.028.038-.044h0c.008-.016.017-.032.022-.05.005-.017.006-.035.007-.053h0c-.001-.02-.003-.04-.008-.058-.006-.02-.015-.038-.025-.056h0c-.013-.017-.025-.033-.04-.047a.275.275 0 0 0-.053-.033h0a.533.533 0 0 0-.07-.02.534.534 0 0 0-.088-.006v0h-.323v.859h.328c.025 0 .05 0 .076-.004.02-.002.042-.006.062-.01h0c.018-.005.036-.01.052-.018.015-.007.029-.016.043-.025h0c.012-.01.024-.021.034-.034.011-.014.02-.03.029-.046h0c.007-.018.014-.035.019-.054a.34.34 0 0 0 .006-.058z" fill="#f2f2f2" fill-rule="evenodd" stroke="#f2f2f2"/><path d="M1.727 30.217a.5.5 0 0 1-.6-.49v-4.5a.5.5 0 0 1 .6-.49h.32v5.489l-.32-.009zM1.727 10.417a.5.5 0 0 1-.6-.49v-4.5c0-.667 1-.667 1 0v4.892zM41.527 30.217a.5.5 0 0 0 .6-.49v-4.5a.5.5 0 0 0-.6-.49h0-.48v5.401l.48.079z" fill="#f2f2f2" fill-rule="evenodd" stroke="#191919"/><circle transform="scale(1 -1)" cx="38.927" cy="-43.627" r="1.7" fill="#f2f2f2" stroke="#191919"/><circle transform="scale(1 -1)" cx="38.927" cy="-2.627" r="1.7" fill="#f2f2f2" stroke="#191919"/><circle transform="scale(1 -1)" cx="4.427" cy="-2.627" r="1.7" fill="#f2f2f2" stroke="#191919"/><circle transform="scale(1 -1)" cx="4.427" cy="-43.627" r="1.7" fill="#f2f2f2" stroke="#191919"/><path d="M41.527 10.417a.5.5 0 0 0 .6-.49v-4.5c0-.667-1-.667-1 0h0v4.923l.4.067z" fill="#f2f2f2" fill-rule="evenodd" stroke="#191919"/><path d="M25.006 44.66a.34.34 0 0 1 .037-.072c.015-.02.036-.038.056-.055h0c.025-.014.049-.028.075-.036.029-.009.06-.01.091-.012h0c.027.001.054.003.079.01.022.008.043.02.064.033h0a.359.359 0 0 1 .05.055c.016.025.027.053.037.081h0l.112-.026v0c-.014-.037-.027-.074-.048-.106-.02-.03-.048-.054-.075-.079h0c-.032-.019-.064-.038-.098-.049a.478.478 0 0 0-.119-.016h0a.573.573 0 0 0-.109.013c-.034.008-.066.024-.099.039v0a.475.475 0 0 0-.084.064c-.024.025-.043.056-.062.087h0a.68.68 0 0 0-.038.109.68.68 0 0 0-.013.126c.002.04.003.08.011.119a.478.478 0 0 0 .09.206c.022.026.05.047.077.069h0a.55.55 0 0 0 .1.042c.04.011.083.013.126.014h0a.482.482 0 0 0 .123-.018c.037-.013.07-.034.104-.055v0c.028-.029.057-.057.078-.09.023-.038.037-.08.05-.124h0l-.113-.029v0c-.01.033-.018.067-.035.095a.382.382 0 0 1-.055.069h0a.333.333 0 0 1-.074.041.334.334 0 0 1-.088.014h0c-.026-.002-.051-.004-.076-.01-.024-.007-.047-.019-.07-.03h0c-.02-.016-.042-.032-.058-.051a.323.323 0 0 1-.041-.072h0c-.01-.03-.019-.058-.024-.088-.006-.034-.007-.069-.008-.103h0c.001-.028.002-.056.007-.084a.687.687 0 0 1 .02-.081zM21.605 44.716a.34.34 0 0 1 .037-.072c.015-.02.036-.038.056-.055h0c.025-.014.049-.028.075-.036.029-.009.06-.01.091-.012h0c.027.001.054.003.079.01.022.008.043.02.064.033h0a.359.359 0 0 1 .05.055c.016.025.027.053.037.081h0l.112-.026v0c-.014-.037-.027-.074-.048-.106-.02-.03-.048-.054-.075-.079h0c-.032-.019-.064-.038-.098-.049a.478.478 0 0 0-.119-.016h0a.573.573 0 0 0-.109.013c-.034.008-.066.024-.099.039v0c-.03.02-.06.039-.084.064-.024.025-.043.056-.062.087h0a.68.68 0 0 0-.038.109.68.68 0 0 0-.002.245.477.477 0 0 0 .09.206c.022.026.05.047.077.069h0a.55.55 0 0 0 .1.042c.04.011.083.013.126.014h0a.482.482 0 0 0 .123-.018c.037-.013.07-.034.104-.055v0c.028-.029.057-.057.078-.09.023-.038.037-.08.05-.124h0l-.113-.029v0a.381.381 0 0 1-.035.095.382.382 0 0 1-.055.069h0a.333.333 0 0 1-.074.041.333.333 0 0 1-.088.014h0c-.026-.002-.051-.004-.076-.01-.024-.007-.047-.019-.07-.03h0c-.02-.016-.042-.032-.058-.051a.323.323 0 0 1-.041-.072h0c-.01-.03-.019-.058-.024-.088-.006-.034-.007-.069-.008-.103h0c.001-.028.002-.056.007-.084a.687.687 0 0 1 .02-.081zM23.023 45.318h.114v-.298l.14-.137.306.435h.15l-.376-.51.36-.349h-.154l-.426.426v-.426h-.114zM20.867 45.107l-.451-.674h-.117v.859h.11v-.675l.45.675h.117v-.86h-.109zM17.169 45.245a.426.426 0 0 0 .056-.018.431.431 0 0 0 .047-.025h0c.014-.01.028-.021.04-.034.014-.013.026-.029.038-.044h0c.011-.018.023-.037.032-.056a.563.563 0 0 0 .026-.07h0a.792.792 0 0 0 .017-.08.787.787 0 0 0 .006-.093h0c0-.036-.002-.072-.008-.108-.006-.032-.016-.064-.025-.096h0a.47.47 0 0 0-.043-.081.47.47 0 0 0-.06-.065v0c-.018-.014-.036-.028-.057-.038-.021-.01-.045-.017-.068-.024h0a.944.944 0 0 0-.153-.012v0h-.296v.859h.31c.025 0 .05-.001.073-.004.022-.002.044-.007.065-.011zM14.392 44.715a.34.34 0 0 1 .037-.072c.015-.02.036-.038.056-.055h0c.025-.014.049-.028.075-.036.029-.009.06-.01.091-.012h0c.027.001.054.003.079.01.022.008.043.02.064.033h0a.359.359 0 0 1 .05.055c.016.025.027.053.037.081h0l.112-.026v0c-.014-.037-.027-.074-.048-.106a.462.462 0 0 0-.075-.079h0c-.032-.019-.064-.038-.098-.049a.478.478 0 0 0-.119-.016h0a.573.573 0 0 0-.109.013c-.034.008-.066.024-.099.039h0c-.03.02-.06.039-.084.064-.024.025-.043.056-.062.087h0c-.015.036-.03.072-.038.109a.68.68 0 0 0-.013.126h0c.002.04.003.08.011.119a.478.478 0 0 0 .09.206c.022.026.05.047.077.069h0a.55.55 0 0 0 .1.042c.04.011.083.013.126.014h0a.482.482 0 0 0 .123-.018c.037-.013.07-.034.104-.055v0c.028-.029.057-.057.078-.09.023-.038.037-.08.05-.124h0l-.113-.029v0c-.01.033-.018.067-.035.095a.382.382 0 0 1-.055.069h0a.333.333 0 0 1-.074.041.334.334 0 0 1-.088.014h0c-.026-.002-.051-.004-.076-.01-.024-.007-.047-.019-.07-.03h0c-.02-.016-.042-.032-.058-.051a.323.323 0 0 1-.041-.072h0c-.01-.03-.019-.058-.024-.088-.006-.034-.007-.069-.008-.103h0c.001-.028.002-.056.007-.084a.687.687 0 0 1 .02-.081zM12.328 44.52c.03 0 .06.002.087.01.022.007.042.02.063.032h0a.24.24 0 0 1 .04.051.24.24 0 0 1 .02.072h0l.108-.009v0c-.002-.024-.005-.048-.012-.071-.007-.022-.018-.043-.03-.064h0a.328.328 0 0 0-.048-.052.329.329 0 0 0-.064-.038h0a.573.573 0 0 0-.079-.024.57.57 0 0 0-.09-.007h0c-.028 0-.055.002-.082.007a.55.55 0 0 0-.075.022h0c-.022.01-.044.021-.063.036-.017.014-.031.032-.045.05h0a.295.295 0 0 0-.028.059.297.297 0 0 0-.009.063h0c.001.019.002.038.007.056.005.017.014.034.023.05h0c.012.016.024.032.038.044a.314.314 0 0 0 .054.036h0a1.042 1.042 0 0 0 .166.054h0c.032.008.065.015.097.025l.056.017h0c.016.007.032.013.046.023a.237.237 0 0 1 .03.028h0c.008.01.015.02.019.032s.004.025.005.038h0c0 .013-.002.026-.006.039-.004.012-.01.023-.018.035h0l-.03.03c-.014.01-.029.016-.044.023h0c-.018.005-.036.011-.054.014-.02.004-.04.004-.06.005h0c-.024 0-.048-.002-.07-.006a.445.445 0 0 1-.063-.02h0a.26.26 0 0 1-.05-.029c-.014-.01-.025-.024-.036-.037h0c-.009-.016-.017-.03-.023-.047a.316.316 0 0 1-.013-.059h0l-.107.01v0a.39.39 0 0 0 .013.081c.008.025.021.05.034.073h0c.017.021.033.043.054.06a.37.37 0 0 0 .07.042h0c.03.01.058.02.088.026.035.006.071.007.107.008h0c.03-.001.06-.002.088-.008.026-.006.052-.016.078-.026h0a.35.35 0 0 0 .065-.04c.018-.015.033-.035.048-.054h0c.011-.02.023-.04.03-.063.006-.02.007-.043.009-.066h0c-.001-.022-.003-.045-.009-.065a.29.29 0 0 0-.027-.057h0a.351.351 0 0 0-.045-.049.351.351 0 0 0-.066-.039h0a1.505 1.505 0 0 0-.073-.025c-.038-.012-.077-.02-.117-.03h0a.608.608 0 0 1-.112-.03.615.615 0 0 1-.06-.03h0c-.009-.012-.019-.022-.024-.035-.006-.013-.007-.027-.009-.042h0a.156.156 0 0 1 .012-.05.157.157 0 0 1 .036-.041h0c.02-.011.04-.022.06-.029a.325.325 0 0 1 .09-.009zM12.763 44.536h.283v.758h.114v-.758h.284v-.101h-.681zM15.738 44.923v-.1h-.475v-.264h.507v-.101h-.62v.859h.64v-.102h-.527v-.292zM18.178 44.442a.555.555 0 0 0-.101-.043.556.556 0 0 0-.113-.014v0a.535.535 0 0 0-.165.03.535.535 0 0 0-.132.091v0c-.033.047-.067.093-.086.144-.022.06-.025.125-.029.191h0a.648.648 0 0 0 .013.11c.008.036.022.07.036.104h0a.51.51 0 0 0 .061.091c.024.027.054.048.084.07h0a.548.548 0 0 0 .102.043c.037.01.076.013.115.015v0a.581.581 0 0 0 .108-.013c.035-.009.068-.025.1-.04v0c.031-.02.062-.04.086-.066a.487.487 0 0 0 .064-.09h0a.68.68 0 0 0 .04-.11c.009-.04.01-.082.013-.124h0a.695.695 0 0 0-.013-.122.697.697 0 0 0-.037-.109h0c-.019-.031-.037-.063-.062-.09-.024-.026-.054-.047-.084-.068zM20.1 45.291v-.859h-.114v.859zM22.355 45.318h.537v-.101h-.423v-.758h-.114zM25.873 44.66a.34.34 0 0 1 .037-.072c.015-.02.036-.038.056-.055h0c.025-.014.049-.028.075-.036.029-.009.06-.01.091-.012h0c.027.001.054.003.079.01.022.008.043.02.064.033h0a.359.359 0 0 1 .05.055c.016.025.027.053.037.081h0l.112-.026v0c-.014-.037-.027-.074-.048-.106-.02-.03-.048-.054-.075-.079h0c-.032-.019-.064-.038-.098-.049a.478.478 0 0 0-.119-.016h0a.573.573 0 0 0-.109.013c-.034.008-.066.024-.099.039h0c-.03.02-.06.039-.084.064-.024.025-.043.056-.062.087h0c-.015.036-.03.072-.038.109a.68.68 0 0 0-.013.126h0c.002.04.003.08.011.119a.478.478 0 0 0 .09.206c.022.026.05.047.077.069h0a.55.55 0 0 0 .1.042c.04.011.083.013.126.014h0a.482.482 0 0 0 .123-.018c.037-.013.07-.034.104-.055v0c.028-.029.057-.057.078-.09.023-.038.037-.08.05-.124h0l-.113-.029v0c-.01.033-.018.067-.035.095a.382.382 0 0 1-.055.069h0a.333.333 0 0 1-.074.041.334.334 0 0 1-.088.014h0c-.026-.002-.051-.004-.076-.01-.024-.007-.047-.019-.07-.03h0c-.02-.016-.042-.032-.058-.051a.323.323 0 0 1-.041-.072h0c-.01-.03-.019-.058-.024-.088-.006-.034-.007-.069-.008-.103h0c.001-.028.002-.056.007-.084a.687.687 0 0 1 .02-.081zM24.353 45.026l-.223-.624h-.123l.333.859h.116l.336-.859h-.116l-.232.624a2.411 2.411 0 0 0-.024.07l-.022.07h0l-.02-.067a2.713 2.713 0 0 0-.025-.073zM27.934 44.417h-.114v.859h.537v-.101h-.423zM9.335 3.502l-.016.124h0c.018-.005.036-.01.054-.012l.045-.004h0c.03.003.062.005.09.016.025.01.048.029.071.047h0c.018.023.037.046.047.071a.295.295 0 0 1 .016.089h0c-.002.032-.005.065-.017.093a.318.318 0 0 1-.051.077h0c-.024.02-.048.04-.076.052-.028.011-.06.014-.092.017h0a.277.277 0 0 1-.077-.013.278.278 0 0 1-.064-.04h0c-.019-.022-.037-.044-.05-.07-.017-.03-.025-.066-.033-.102h0l-.14.019c.007.045.015.09.035.13.019.037.049.07.078.102h0a.49.49 0 0 0 .113.068.49.49 0 0 0 .138.022v0a.526.526 0 0 0 .152-.026.526.526 0 0 0 .124-.078v0c.032-.037.064-.073.082-.116a.463.463 0 0 0 .028-.138h0c-.002-.035-.004-.07-.015-.102a.402.402 0 0 0-.042-.083v0c-.02-.023-.042-.045-.067-.061-.027-.017-.059-.027-.09-.036h0c.024-.013.048-.025.068-.042a.367.367 0 0 0 .05-.055h0c.011-.021.023-.042.03-.064.006-.023.008-.047.01-.071h0a.378.378 0 0 0-.011-.076.383.383 0 0 0-.032-.072h0c-.015-.022-.031-.044-.05-.062a.393.393 0 0 0-.07-.048h0c-.027-.011-.055-.023-.083-.03a.503.503 0 0 0-.09-.01h0c-.043.003-.086.006-.125.02-.036.012-.07.035-.102.058v0c-.028.03-.056.059-.075.093-.021.038-.032.082-.042.126h0l.14.025a.351.351 0 0 1 .026-.09.35.35 0 0 1 .045-.065h0c.02-.015.039-.03.061-.038a.262.262 0 0 1 .075-.013h0a.255.255 0 0 1 .075.012c.022.009.041.024.06.038h0c.016.019.03.037.04.058a.235.235 0 0 1 .013.07h0c-.003.03-.005.06-.018.086a.223.223 0 0 1-.054.06h0c-.025.013-.05.026-.076.034a.39.39 0 0 1-.086.012h0-.01l-.013-.002zM10.264 4.002a3.215 3.215 0 0 0-.053-.167h0l-.178-.497h-.149l.316.83h.131l.314-.83h-.144l-.185.507-.03.085-.022.072zM11.159 3.824h.432v-.141h-.432zM7.932 1.387l.602.9h.155V1.143h-.145v.9l-.602-.9h-.155v1.145h.145zM10.057 1.863l.274.424h.174l-.35-.521.318-.308h-.182l-.333.337v-.653h-.14v1.145h.14V1.96l.099-.096zM10.757 1.458h-.14v.83h.14zM11.643 1.94v-.188a1.035 1.035 0 0 0-.007-.13h0c-.005-.017-.01-.036-.017-.052-.007-.015-.017-.03-.027-.043v0c-.013-.012-.025-.025-.04-.035-.017-.012-.037-.02-.057-.028h0a.663.663 0 0 0-.077-.019c-.031-.005-.064-.005-.096-.006h0a.753.753 0 0 0-.1.007c-.03.005-.06.014-.088.022h0c-.025.01-.05.02-.072.036a.365.365 0 0 0-.053.048h0c-.013.02-.027.04-.037.063a.458.458 0 0 0-.024.08h0l.137.018a.287.287 0 0 1 .029-.075c.011-.017.026-.033.041-.048h0c.02-.01.04-.02.06-.026.028-.008.057-.008.087-.009h0a.321.321 0 0 1 .093.012c.023.008.045.022.067.036h0c.011.015.023.03.03.048.008.022.009.048.01.073h0a2.468 2.468 0 0 1-.001.037v0c-.034.01-.069.019-.103.026-.049.01-.098.016-.148.022v0a1.326 1.326 0 0 0-.125.021v0a.452.452 0 0 0-.101.047h0c-.014.01-.029.022-.04.035a.309.309 0 0 0-.033.045h0a.305.305 0 0 0-.02.053c-.005.02-.006.039-.008.059h0c.003.033.006.066.019.094.012.028.033.052.055.076h0c.029.02.058.04.09.05.037.014.078.016.12.017h0c.027 0 .054-.002.08-.007a.588.588 0 0 0 .075-.02h0c.025-.012.05-.023.074-.037.027-.017.052-.037.077-.057h0a.393.393 0 0 0 .01.055c.004.016.011.032.018.047h.147c-.009-.016-.017-.032-.023-.048a.431.431 0 0 1-.013-.051h0a2.596 2.596 0 0 1-.009-.248zM13.412 1.488c.025-.015.05-.03.075-.048a.973.973 0 0 0 .058-.049h0v.896h.14v-1.15h-.09a.708.708 0 0 1-.05.076.71.71 0 0 1-.075.078v0c-.03.025-.062.05-.095.073-.036.023-.073.042-.111.06h0v.137l.07-.03c.026-.013.052-.028.078-.043zM14.183 1.488c.025-.015.05-.03.075-.048a.973.973 0 0 0 .058-.049h0v.896h.14v-1.15h-.09a.708.708 0 0 1-.05.076.71.71 0 0 1-.075.078v0a1.137 1.137 0 0 1-.095.073c-.036.023-.073.042-.111.06h0v.137l.07-.03c.026-.013.052-.028.078-.043zM12.632 1.652c.034.003.069.005.099.018a.323.323 0 0 1 .078.052h0c.02.026.04.053.05.082.013.033.015.07.018.108h0a.393.393 0 0 1-.018.114.393.393 0 0 1-.053.089h0c-.024.022-.049.044-.078.057a.308.308 0 0 1-.094.02h0c-.027-.003-.054-.005-.078-.014a.284.284 0 0 1-.066-.04h0c-.018-.023-.036-.044-.049-.069-.014-.028-.02-.061-.027-.094h0l-.148.012c.008.046.016.091.036.13.018.038.048.07.077.102h0a.505.505 0 0 0 .113.066.505.505 0 0 0 .142.022v0c.06-.005.12-.01.17-.035a.501.501 0 0 0 .131-.104v0a.567.567 0 0 0 .068-.124c.016-.045.02-.095.023-.145h0c-.004-.051-.008-.103-.026-.148-.017-.043-.047-.081-.077-.119h0a.47.47 0 0 0-.115-.078c-.043-.018-.09-.022-.138-.026v0a.502.502 0 0 0-.111.018c-.037.012-.072.033-.106.054v0l.062-.308h.457v-.134h-.57l-.11.588.131.017v0a.32.32 0 0 1 .038-.044c.014-.014.031-.025.048-.036h0c.02-.009.038-.018.058-.023.021-.005.043-.006.065-.008zM15.539 1.452c-.009-.032-.018-.063-.03-.093a.768.768 0 0 0-.041-.077h0a.417.417 0 0 0-.051-.062.416.416 0 0 0-.064-.045h0a.455.455 0 0 0-.075-.028c-.028-.007-.057-.008-.087-.01h0c-.039.003-.078.005-.114.017-.033.011-.063.031-.093.05h0c-.026.026-.052.052-.072.082a.55.55 0 0 0-.052.11h0c-.012.047-.025.095-.032.143-.008.06-.01.122-.01.184h0c.001.094.002.19.028.277.02.065.052.127.085.188h0c.035.035.07.07.112.09.045.02.097.025.148.029.04-.002.08-.005.115-.017a.431.431 0 0 0 .094-.05h0c.026-.026.052-.052.072-.082a.55.55 0 0 0 .051-.11h0c.012-.048.024-.095.031-.143.01-.06.01-.121.01-.182h0c0-.052 0-.103-.006-.153a1.53 1.53 0 0 0-.019-.118zM10.757 1.304v-.162h-.14v.162zM9.463 2.255a.46.46 0 0 0 .081-.06.46.46 0 0 0 .059-.082h0c.014-.036.028-.072.036-.11.01-.045.011-.094.012-.142h0c-.003-.061-.006-.122-.027-.176-.018-.048-.05-.091-.082-.134h0c-.039-.033-.079-.065-.124-.084-.047-.02-.101-.024-.155-.028v0c-.05.003-.098.007-.142.023-.043.015-.08.042-.12.07v0c-.036.044-.074.089-.095.14a.588.588 0 0 0-.032.2h0c.003.065.005.129.027.186.018.049.049.093.08.136h0c.04.033.08.066.124.084.048.02.103.024.158.028v0a.547.547 0 0 0 .104-.013.55.55 0 0 0 .096-.038zM15.463 4.052a.213.213 0 0 1-.069-.012.213.213 0 0 1-.052-.036h0c-.013-.023-.026-.045-.034-.07a.397.397 0 0 1-.015-.11h0l-.137.019a.49.49 0 0 0 .018.15.488.488 0 0 0 .059.108h0c.031.025.062.05.098.065a.41.41 0 0 0 .133.022h0c.032-.002.064-.003.095-.01.028-.008.055-.02.082-.032h0a.336.336 0 0 0 .065-.05c.018-.02.032-.045.045-.07h0a.764.764 0 0 0 .026-.095.762.762 0 0 0 .009-.128h0v-.78h-.152v.789a.636.636 0 0 1-.016.143h0a.18.18 0 0 1-.022.04.184.184 0 0 1-.035.031h0c-.014.008-.03.015-.045.02-.017.005-.035.005-.053.006zM12.518 3.533c.034.002.069.005.099.017a.323.323 0 0 1 .078.052h0c.02.027.04.053.05.083.013.033.015.07.018.107h0a.393.393 0 0 1-.018.114.393.393 0 0 1-.053.09h0c-.024.022-.049.044-.078.057a.308.308 0 0 1-.094.019h0c-.027-.002-.054-.004-.078-.014a.284.284 0 0 1-.066-.04v0c-.018-.022-.036-.044-.049-.068a.36.36 0 0 1-.027-.095v0l-.148.013c.008.045.016.09.036.13.018.038.048.07.077.102h0a.505.505 0 0 0 .113.066.505.505 0 0 0 .142.021c.06-.005.12-.01.17-.034a.501.501 0 0 0 .131-.105v0a.567.567 0 0 0 .068-.123c.016-.046.02-.096.023-.145h0c-.004-.052-.008-.103-.026-.149-.017-.043-.047-.08-.077-.119h0a.47.47 0 0 0-.115-.077.47.47 0 0 0-.139-.026v0a.502.502 0 0 0-.11.018c-.037.012-.072.032-.106.053v0l.062-.307h.457v-.135h-.57l-.11.589.131.017v0a.32.32 0 0 1 .038-.045c.014-.014.031-.024.048-.035h0c.02-.01.038-.018.058-.023.021-.006.043-.007.065-.008zM13.376 4.002a3.215 3.215 0 0 0-.053-.167h0l-.178-.497h-.149l.316.83h.131l.314-.83h-.144l-.185.507-.03.085-.022.072z" fill="#f2f2f2" fill-rule="evenodd" stroke="#f2f2f2"/><circle transform="scale(1 -1)" cx="12.427" cy="-42.727" r="1" fill="none" stroke="#191919"/><circle transform="scale(1 -1)" cx="12.427" cy="-42.727" r="1" fill="#ccc" stroke="#191919"/><circle transform="scale(1 -1)" cx="30.207" cy="-42.727" r="1" fill="none" stroke="#191919"/><circle transform="scale(1 -1)" cx="30.207" cy="-42.727" r="1" fill="#ccc" stroke="#191919"/><circle transform="scale(1 -1)" cx="20.047" cy="-42.727" r="1" fill="none" stroke="#191919"/><circle transform="scale(1 -1)" cx="22.587" cy="-42.727" r="1" fill="#ccc" stroke="#191919"/><circle transform="scale(1 -1)" cx="22.587" cy="-42.727" r="1" fill="none" stroke="#191919"/><circle transform="scale(1 -1)" cx="27.667" cy="-42.727" r="1" fill="none" stroke="#191919"/><circle transform="scale(1 -1)" cx="17.507" cy="-42.727" r="1" fill="none" stroke="#191919"/><circle transform="scale(1 -1)" cx="14.967" cy="-42.727" r="1" fill="none" stroke="#191919"/><circle transform="scale(1 -1)" cx="25.127" cy="-42.727" r="1" fill="none" stroke="#191919"/><path d="M9.703 41.992a2.13 2.13 0 0 1-.18.137 2.13 2.13 0 0 1-.207.115v.255c.044-.018.088-.036.131-.057a2.363 2.363 0 0 0 .287-.17c.038-.028.074-.06.11-.091v1.68h.263v-2.156h-.17a1.33 1.33 0 0 1-.093.141c-.041.053-.091.1-.141.146z" fill="#f2f2f2" fill-rule="evenodd" stroke="#191919"/><path d="M1.927 5.627l-.2-.2h39.8v34.2h-39.8l.2-.2-.2.2v-34.2zM41.327 5.627l.2-.2zM41.327 39.427l.2.2z" fill="#e8e4e1" fill-rule="evenodd" stroke="#191919"/><path d="M12.132 42.407a.025.025 0 0 0-.008.001.033.033 0 0 0-.005.003c-.001 0-.002 0-.003.002a.033.033 0 0 0-.002.002h-.001a.028.028 0 0 0-.004.006v.003M12.175 42.407H12.133M12.667 42.407a.4.4 0 0 0-.48 0M12.747 42.432a.025.025 0 0 0-.001-.009.033.033 0 0 0-.003-.004c0-.001 0-.002-.002-.003a.034.034 0 0 0-.001-.002s0 0 0 0l-.002-.001a.027.027 0 0 0-.005-.004.025.025 0 0 0-.01-.002M12.747 42.465v-.032M12.747 42.967a.4.4 0 0 0 0-.48M12.722 43.047a.025.025 0 0 0 .013-.004c.001 0 .002 0 .003-.002a.034.034 0 0 0 .002-.001s0 0 0 0l.001-.002a.027.027 0 0 0 .004-.005l.002-.005v-.006M12.693 43.047H12.722M12.187 43.047a.4.4 0 0 0 .48 0M12.109 43.031a.024.024 0 0 0 .006.01h.001a.027.027 0 0 0 .006.004l.005.002h.006M12.027 42.727a.4.4 0 0 0 .08.24" fill="none" stroke="#191919"/><path d="M12.107 42.487a.4.4 0 0 0-.08.24M12.132 43.047h-.006l-.001-.001h-.003l-.001-.002h-.003v-.002h-.002v-.001l-.002-.001M12.114 43.04l-.001-.001v-.001l-.002-.001v-.001l-.001-.002h0l-.002-.002v-.004l-.001-.002v-.004M12.107 42.432v.59M12.132 43.047h.59M12.747 43.022v.006l-.001.001v.003l-.002.001v.002l-.002.002h0l-.001.002h-.001M12.74 43.04l-.001.001h-.001l-.001.002h-.001l-.002.001h0l-.002.002h-.004l-.002.001h-.003 0M12.132 43.047h-.003M12.724 43.047h-.002M12.722 42.407h.002M12.13 42.407h.003M12.747 43.022v.002M12.747 42.43v.002M12.722 42.407h-.59M12.747 43.022v-.59M12.74 43.04l-.12-.12M12.62 42.92h-.386M12.234 42.92l-.12.12M12.722 42.407h.006l.001.001h.003l.001.002h.003v.002h.002v.001l.002.001M12.74 42.414l.001.001v.001l.002.001v.001l.001.002h0l.002.002v.004l.001.002v.004M12.114 42.414l.001-.001h.001l.001-.002h.001l.002-.001h0l.002-.002h.004l.002-.001h.003M12.114 42.414l.12.12M12.234 42.534h.386M12.62 42.534l.12-.12M12.107 42.432v-.006l.001-.001v-.003l.002-.001v-.002l.002-.002h0l.001-.002h.001M12.62 42.534v.386M12.234 42.92v-.386M14.672 42.407a.025.025 0 0 0-.008.001.033.033 0 0 0-.005.003c-.001 0-.002 0-.003.002a.033.033 0 0 0-.002.002h-.001a.028.028 0 0 0-.004.006v.003M14.715 42.407H14.673M15.207 42.407a.4.4 0 0 0-.48 0M15.287 42.432a.025.025 0 0 0-.001-.009.033.033 0 0 0-.003-.004c0-.001 0-.002-.002-.003a.034.034 0 0 0-.001-.002s0 0 0 0l-.002-.001a.027.027 0 0 0-.005-.004.025.025 0 0 0-.01-.002M15.287 42.465v-.032M15.287 42.967a.4.4 0 0 0 0-.48M15.262 43.047a.025.025 0 0 0 .013-.004c.001 0 .002 0 .003-.002a.034.034 0 0 0 .002-.002h.001a.027.027 0 0 0 .004-.006l.002-.005v-.006M15.233 43.047H15.262M14.727 43.047a.4.4 0 0 0 .48 0M14.649 43.031a.024.024 0 0 0 .006.01h.001a.027.027 0 0 0 .006.004l.005.002h.006M14.567 42.727a.4.4 0 0 0 .08.24" fill="none" stroke="#191919"/><path d="M14.647 42.487a.4.4 0 0 0-.08.24M14.672 43.047h-.006l-.001-.001h-.003l-.001-.002h-.003v-.002h-.002v-.001l-.002-.001M14.654 43.04l-.001-.001v-.001l-.002-.001v-.001l-.001-.002h0l-.002-.002v-.004l-.001-.002v-.004M14.647 42.432v.59M14.672 43.047h.59M15.287 43.022v.006l-.001.001v.003l-.002.001v.002l-.002.002h0l-.001.002h-.001M15.28 43.04l-.001.001h-.001l-.001.002h-.001l-.002.001h0l-.002.002h-.002 0-.002l-.002.001h-.003 0M14.672 43.047h-.003M15.264 43.047h-.002M15.262 42.407h.002M14.67 42.407h.003M15.287 43.022v.002M15.287 42.43v.002M15.262 42.407h-.59M15.287 43.022v-.59M15.28 43.04l-.12-.12M15.16 42.92h-.386M14.774 42.92l-.12.12M15.262 42.407h.006l.001.001h.003l.001.002h.003v.002h.002v.001l.002.001M15.28 42.414l.001.001v.001l.002.001v.001l.001.002h0l.002.002v.004l.001.002v.004M14.654 42.414l.001-.001h.001l.001-.002h.001l.002-.001h0l.002-.002h.004l.002-.001h.003M14.654 42.414l.12.12M14.774 42.534h.386M15.16 42.534l.12-.12M14.647 42.432v-.006l.001-.001v-.003l.002-.001v-.002l.002-.002h0l.001-.002h.001M15.16 42.534v.386M14.774 42.92v-.386M17.212 42.407a.025.025 0 0 0-.018.008h-.001a.028.028 0 0 0-.004.006v.003M17.255 42.407H17.213M17.747 42.407a.4.4 0 0 0-.48 0M17.827 42.432a.025.025 0 0 0-.001-.009.033.033 0 0 0-.003-.004c0-.001 0-.002-.002-.003a.034.034 0 0 0-.001-.002s0 0 0 0l-.002-.001a.027.027 0 0 0-.005-.004.025.025 0 0 0-.01-.002M17.827 42.465v-.032M17.827 42.967a.4.4 0 0 0 0-.48M17.802 43.047a.025.025 0 0 0 .013-.004c.001 0 .002 0 .003-.002a.034.034 0 0 0 .002-.001s0 0 0 0l.001-.002a.027.027 0 0 0 .004-.005l.002-.005v-.006M17.773 43.047H17.802M17.267 43.047a.4.4 0 0 0 .48 0M17.189 43.031a.024.024 0 0 0 .006.01h.001a.027.027 0 0 0 .006.004l.005.002h.006M17.107 42.727a.4.4 0 0 0 .08.24M17.187 42.487a.4.4 0 0 0-.08.24" fill="none" stroke="#191919"/><path d="M17.212 43.047h-.006l-.001-.001h-.003l-.001-.002h-.003v-.002h-.002v-.001l-.002-.001M17.194 43.04l-.001-.001v-.001l-.002-.001v-.001l-.001-.002h0l-.002-.002v-.004l-.001-.002v-.004M17.187 42.432v.59M17.212 43.047h.59M17.827 43.022v.006l-.001.001v.003l-.002.001v.002l-.002.002h0l-.001.002h-.001M17.82 43.04l-.001.001h-.001l-.001.002h-.001l-.002.001h0l-.002.002h-.002 0-.002l-.002.001h-.003 0M17.212 43.047h-.003M17.804 43.047h-.002M17.802 42.407h.002M17.21 42.407h.003M17.827 43.022v.002M17.827 42.43v.002M17.802 42.407h-.59M17.827 43.022v-.59M17.82 43.04l-.12-.12M17.7 42.92h-.386M17.314 42.92l-.12.12M17.802 42.407h.006l.001.001h.003l.001.002h.003v.002h.002v.001l.002.001M17.82 42.414l.001.001v.001l.002.001v.001l.001.002h0l.002.002v.004l.001.002v.004M17.194 42.414l.001-.001h.001l.001-.002h.001l.002-.001h0l.002-.002h.004l.002-.001h.003M17.194 42.414l.12.12M17.314 42.534h.386M17.7 42.534l.12-.12M17.187 42.432v-.006l.001-.001v-.003l.002-.001v-.002l.002-.002h0l.001-.002h.001M17.7 42.534v.386M17.314 42.92v-.386M19.752 42.407a.025.025 0 0 0-.018.008h-.001a.028.028 0 0 0-.004.006v.003M19.795 42.407H19.753M20.287 42.407a.4.4 0 0 0-.48 0M20.367 42.432a.025.025 0 0 0-.001-.009.033.033 0 0 0-.003-.004c0-.001 0-.002-.002-.003a.034.034 0 0 0-.001-.002s0 0 0 0l-.002-.001a.027.027 0 0 0-.005-.004.025.025 0 0 0-.01-.002M20.367 42.465v-.032M20.367 42.967a.4.4 0 0 0 0-.48M20.342 43.047a.025.025 0 0 0 .013-.004c.001 0 .002 0 .003-.002a.034.034 0 0 0 .002-.001s0 0 0 0l.001-.002a.027.027 0 0 0 .004-.005l.002-.005v-.006M20.313 43.047H20.342M19.807 43.047a.4.4 0 0 0 .48 0M19.729 43.031a.024.024 0 0 0 .006.01h.001a.027.027 0 0 0 .006.004l.005.002h.006M19.647 42.727a.4.4 0 0 0 .08.24M19.727 42.487a.4.4 0 0 0-.08.24" fill="none" stroke="#191919"/><path d="M19.752 43.047h-.006l-.001-.001h-.003l-.001-.002h-.003v-.002h-.002v-.001l-.002-.001M19.734 43.04l-.001-.001v-.001l-.002-.001v-.001l-.001-.002h0l-.002-.002v-.004l-.001-.002v-.004M19.727 42.432v.59M19.752 43.047h.59M20.367 43.022v.006l-.001.001v.003l-.002.001v.002l-.002.002h0l-.001.002h-.001M20.36 43.04l-.001.001h-.001l-.001.002h-.001l-.002.001h0l-.002.002h-.002 0-.002l-.002.001h-.003 0M19.752 43.047h-.003M20.344 43.047h-.002M20.342 42.407h.002M19.75 42.407h.003M20.367 43.022v.002M20.367 42.43v.002M20.342 42.407h-.59M20.367 43.022v-.59M20.36 43.04l-.12-.12M20.24 42.92h-.386M19.854 42.92l-.12.12M20.342 42.407h.006l.001.001h.003l.001.002h.003v.002h.002v.001l.002.001M20.36 42.414l.001.001v.001l.002.001v.001l.001.002h0l.002.002v.004l.001.002v.004M19.734 42.414l.001-.001h.001l.001-.002h.001l.002-.001h0l.002-.002h.004l.002-.001h.003M19.734 42.414l.12.12M19.854 42.534h.386M20.24 42.534l.12-.12M19.727 42.432v-.006l.001-.001v-.003l.002-.001v-.002l.002-.002h0l.001-.002h.001M20.24 42.534v.386M19.854 42.92v-.386M22.292 42.407a.025.025 0 0 0-.009.001.033.033 0 0 0-.004.003c-.001 0-.002 0-.003.002a.033.033 0 0 0-.002.002h-.001a.028.028 0 0 0-.004.006v.003M22.335 42.407H22.293M22.827 42.407a.4.4 0 0 0-.48 0M22.907 42.432a.025.025 0 0 0-.001-.009.033.033 0 0 0-.003-.004c0-.001 0-.002-.002-.003a.034.034 0 0 0-.001-.002s0 0 0 0l-.002-.001a.027.027 0 0 0-.005-.004.025.025 0 0 0-.01-.002M22.907 42.465v-.032M22.907 42.967a.4.4 0 0 0 0-.48M22.882 43.047a.025.025 0 0 0 .013-.004c.001 0 .002 0 .003-.002a.034.034 0 0 0 .002-.001s0 0 0 0l.001-.002a.027.027 0 0 0 .004-.005l.002-.005v-.006M22.853 43.047H22.882M22.347 43.047a.4.4 0 0 0 .48 0M22.269 43.031a.024.024 0 0 0 .006.01h.001a.027.027 0 0 0 .006.004l.005.002h.006M22.187 42.727a.4.4 0 0 0 .08.24" fill="none" stroke="#191919"/><path d="M22.267 42.487a.4.4 0 0 0-.08.24M22.292 43.047h-.006l-.001-.001h-.003l-.001-.002h-.003v-.002h-.002v-.001l-.002-.001M22.274 43.04l-.001-.001v-.001l-.002-.001v-.001l-.001-.002h0l-.002-.002v-.004l-.001-.002v-.004M22.267 42.432v.59M22.292 43.047h.59M22.907 43.022v.006l-.001.001v.003l-.002.001v.002l-.002.002h0l-.001.002H22.9M22.9 43.04l-.001.001h-.001l-.001.002h-.001l-.002.001h0l-.002.002h-.002 0-.002l-.002.001h-.003 0M22.292 43.047h-.003M22.884 43.047h-.002M22.882 42.407h.002M22.29 42.407h.003M22.907 43.022v.002M22.907 42.43v.002M22.882 42.407h-.59M22.907 43.022v-.59M22.9 43.04l-.12-.12M22.78 42.92h-.386M22.394 42.92l-.12.12M22.882 42.407h.006l.001.001h.003l.001.002h.003v.002h.002v.001l.002.001M22.9 42.414l.001.001v.001l.002.001v.001l.001.002h0l.002.002v.004l.001.002v.004M22.274 42.414l.001-.001h.001l.001-.002h.001l.002-.001h0l.002-.002h.004l.002-.001h.003M22.274 42.414l.12.12M22.394 42.534h.386M22.78 42.534l.12-.12M22.267 42.432v-.006l.001-.001v-.003l.002-.001v-.002l.002-.002h0l.001-.002h.001M22.78 42.534v.386M22.394 42.92v-.386M24.832 42.407a.025.025 0 0 0-.009.001.033.033 0 0 0-.004.003c-.001 0-.002 0-.003.002a.035.035 0 0 0-.002.002h-.001a.028.028 0 0 0-.004.006v.003M24.875 42.407H24.833M25.367 42.407a.4.4 0 0 0-.48 0M25.447 42.432a.025.025 0 0 0-.001-.009.033.033 0 0 0-.003-.004c0-.001 0-.002-.002-.003a.034.034 0 0 0-.001-.002s0 0 0 0l-.002-.001a.027.027 0 0 0-.005-.004.025.025 0 0 0-.01-.002M25.447 42.465v-.032M25.447 42.967a.4.4 0 0 0 0-.48M25.422 43.047a.025.025 0 0 0 .013-.004c.001 0 .002 0 .003-.002a.034.034 0 0 0 .002-.001s0 0 0 0l.001-.002a.027.027 0 0 0 .004-.005l.002-.005v-.006M25.393 43.047H25.422M24.887 43.047a.4.4 0 0 0 .48 0M24.809 43.031a.024.024 0 0 0 .006.01h.001a.027.027 0 0 0 .006.004l.005.002h.006M24.727 42.727a.4.4 0 0 0 .08.24" fill="none" stroke="#191919"/><path d="M24.807 42.487a.4.4 0 0 0-.08.24M24.832 43.047h-.006l-.001-.001h-.003l-.001-.002h-.003v-.002h-.002v-.001l-.002-.001M24.814 43.04l-.001-.001v-.001l-.002-.001v-.001l-.001-.002h0l-.002-.002v-.004l-.001-.002v-.004M24.807 42.432v.59M24.832 43.047h.59M25.447 43.022v.006l-.001.001v.003l-.002.001v.002l-.002.002h0l-.001.002h-.001M25.44 43.04l-.001.001h-.001l-.001.002h-.001l-.002.001h0l-.002.002h-.002 0-.002l-.002.001h-.003 0M24.832 43.047h-.003M25.424 43.047h-.002M25.422 42.407h.002M24.83 42.407h.003M25.447 43.022v.002M25.447 42.43v.002M25.422 42.407h-.59M25.447 43.022v-.59M25.44 43.04l-.12-.12M25.32 42.92h-.386M24.934 42.92l-.12.12M25.422 42.407h.006l.001.001h.003l.001.002h.003v.002h.002v.001l.002.001M25.44 42.414l.001.001v.001l.002.001v.001l.001.002h0l.002.002v.004l.001.002v.004M24.814 42.414l.001-.001h.001l.001-.002h.001l.002-.001h0l.002-.002h.004l.002-.001h.003M24.814 42.414l.12.12M24.934 42.534h.386M25.32 42.534l.12-.12M24.807 42.432v-.006l.001-.001v-.003l.002-.001v-.002l.002-.002h0l.001-.002h.001M25.32 42.534v.386M24.934 42.92v-.386M27.372 42.407a.025.025 0 0 0-.018.008h-.001a.028.028 0 0 0-.004.006v.003M27.415 42.407H27.373M27.907 42.407a.4.4 0 0 0-.48 0M27.987 42.432a.025.025 0 0 0-.001-.009.033.033 0 0 0-.003-.004c0-.001 0-.002-.002-.003a.034.034 0 0 0-.001-.002s0 0 0 0l-.002-.001a.027.027 0 0 0-.005-.004.025.025 0 0 0-.01-.002M27.987 42.465v-.032M27.987 42.967a.4.4 0 0 0 0-.48M27.962 43.047a.025.025 0 0 0 .013-.004c.001 0 .002 0 .003-.002a.034.034 0 0 0 .002-.001s0 0 0 0l.001-.002a.027.027 0 0 0 .004-.005l.002-.005v-.006M27.933 43.047H27.962M27.427 43.047a.4.4 0 0 0 .48 0M27.349 43.031a.024.024 0 0 0 .006.01h.001a.027.027 0 0 0 .006.004l.005.002h.006M27.267 42.727a.4.4 0 0 0 .08.24M27.347 42.487a.4.4 0 0 0-.08.24" fill="none" stroke="#191919"/><path d="M27.372 43.047h-.006l-.001-.001h-.003l-.001-.002h-.003v-.002h-.002v-.001l-.002-.001M27.354 43.04l-.001-.001v-.001l-.002-.001v-.001l-.001-.002h0l-.002-.002v-.004l-.001-.002v-.004M27.347 42.432v.59M27.372 43.047h.59M27.987 43.022v.006l-.001.001v.003l-.002.001v.002l-.002.002h0l-.001.002h-.001M27.98 43.04l-.001.001h-.001l-.001.002h-.001l-.002.001h0l-.002.002h-.002 0-.002l-.002.001h-.003 0M27.372 43.047h-.003M27.964 43.047h-.002M27.962 42.407h.002M27.37 42.407h.003M27.987 43.022v.002M27.987 42.43v.002M27.962 42.407h-.59M27.987 43.022v-.59M27.98 43.04l-.12-.12M27.86 42.92h-.386M27.474 42.92l-.12.12M27.962 42.407h.006l.001.001h.003l.001.002h.003v.002h.002v.001l.002.001M27.98 42.414l.001.001v.001l.002.001v.001l.001.002h0l.002.002v.004l.001.002v.004M27.354 42.414l.001-.001h.001l.001-.002h.001l.002-.001h0l.002-.002h.004l.002-.001h.003M27.354 42.414l.12.12M27.474 42.534h.386M27.86 42.534l.12-.12M27.347 42.432v-.006l.001-.001v-.003l.002-.001v-.002l.002-.002h0l.001-.002h.001M27.86 42.534v.386M27.474 42.92v-.386M29.912 42.407a.025.025 0 0 0-.018.008h-.001a.028.028 0 0 0-.004.006v.003M29.955 42.407H29.913M30.447 42.407a.4.4 0 0 0-.48 0M30.527 42.432a.025.025 0 0 0-.001-.009.033.033 0 0 0-.003-.004c0-.001 0-.002-.002-.003a.034.034 0 0 0-.001-.002s0 0 0 0l-.002-.001a.027.027 0 0 0-.005-.004.025.025 0 0 0-.01-.002M30.527 42.465v-.032M30.527 42.967a.4.4 0 0 0 0-.48M30.502 43.047a.025.025 0 0 0 .013-.004c.001 0 .002 0 .003-.002a.034.034 0 0 0 .002-.001s0 0 0 0l.001-.002a.027.027 0 0 0 .004-.005l.002-.005v-.006M30.473 43.047H30.502M29.967 43.047a.4.4 0 0 0 .48 0M29.889 43.031a.024.024 0 0 0 .006.01h.001a.027.027 0 0 0 .006.004l.005.002h.006M29.807 42.727a.4.4 0 0 0 .08.24M29.887 42.487a.4.4 0 0 0-.08.24" fill="none" stroke="#191919"/><path d="M29.912 43.047h-.006l-.001-.001h-.003l-.001-.002h-.003v-.002h-.002v-.001l-.002-.001M29.894 43.04l-.001-.001v-.001l-.002-.001v-.001l-.001-.002h0l-.002-.002v-.004l-.001-.002v-.004M29.887 42.432v.59M29.912 43.047h.59M30.527 43.022v.006l-.001.001v.003l-.002.001v.002l-.002.002h0l-.001.002h-.001M30.52 43.04l-.001.001h-.001l-.001.002h-.001l-.002.001h0l-.002.002h-.002 0-.002l-.002.001h-.003 0M29.912 43.047h-.003M30.504 43.047h-.002M30.502 42.407h.002M29.91 42.407h.003M30.527 43.022v.002M30.527 42.43v.002M30.502 42.407h-.59M30.527 43.022v-.59M30.52 43.04l-.12-.12M30.4 42.92h-.386M30.014 42.92l-.12.12M30.502 42.407h.006l.001.001h.003l.001.002h.003v.002h.002v.001l.002.001M30.52 42.414l.001.001v.001l.002.001v.001l.001.002h0l.002.002v.004l.001.002v.004M29.894 42.414l.001-.001h.001l.001-.002h.001l.002-.001h0l.002-.002h.004l.002-.001h.003M29.894 42.414l.12.12M30.014 42.534h.386M30.4 42.534l.12-.12M29.887 42.432v-.006l.001-.001v-.003l.002-.001v-.002l.002-.002h0l.001-.002h.001M30.4 42.534v.386M30.014 42.92v-.386" fill="none" stroke="#191919"/><path d="M11.813 44.539a.259.259 0 0 0-.042-.05.26.26 0 0 0-.054-.032h0c-.024-.006-.048-.013-.073-.017-.033-.005-.067-.006-.101-.006h0-.381v.86h.114v-.382h.132a.467.467 0 0 1 .063.004h0a.231.231 0 0 1 .026.009.233.233 0 0 1 .026.014h0l.027.022c.011.01.02.023.03.035h0l.037.05c.016.022.03.045.045.068h0l.114.18h.143l-.15-.235c-.014-.021-.029-.043-.045-.063a.789.789 0 0 0-.049-.05h0a.386.386 0 0 0-.029-.022c-.012-.008-.026-.015-.04-.022h0a.405.405 0 0 0 .108-.028c.027-.013.051-.032.076-.051h0c.017-.023.034-.045.044-.07a.295.295 0 0 0 .015-.085v0a.33.33 0 0 0-.01-.067.332.332 0 0 0-.026-.062z" fill="#f2f2f2" fill-rule="evenodd" stroke="#f2f2f2"/><path d="M11.52 44.813h-.244v-.284h.272c.028 0 .056.001.082.01.02.006.039.018.057.03h0c.013.013.026.027.033.044.008.017.01.036.012.055h0c-.001.014-.002.028-.006.04-.004.013-.01.025-.017.037h0c-.009.011-.018.022-.028.03a.178.178 0 0 1-.04.022h0c-.017.005-.034.01-.052.012a.486.486 0 0 1-.069.004zM17.018 45.158h-.183v-.656h.18c.03 0 .059 0 .088.004.02.003.04.008.06.013h0c.02.011.04.022.058.037.019.017.034.038.049.06h0c.013.03.025.058.033.088.01.039.01.079.01.12h0c0 .03 0 .06-.005.09a.716.716 0 0 1-.017.075h0a.362.362 0 0 1-.027.061c-.01.017-.023.032-.036.048h0a.254.254 0 0 1-.033.025.26.26 0 0 1-.044.02h0a.593.593 0 0 1-.057.011c-.025.004-.05.004-.076.004zM18.257 44.83c-.002.05-.004.101-.02.147a.497.497 0 0 1-.063.11.377.377 0 0 1-.094.067.377.377 0 0 1-.117.022h0c-.04-.003-.08-.007-.116-.022-.034-.015-.064-.041-.094-.067h0a.469.469 0 0 1-.062-.106c-.016-.043-.019-.09-.021-.139h0c.001-.057.002-.115.022-.166a.506.506 0 0 1 .065-.11h0c.03-.025.06-.049.095-.063.035-.014.074-.017.113-.02h0c.027.001.055.003.08.01.026.007.05.02.073.033h0a.368.368 0 0 1 .06.051c.018.02.03.045.044.07h0c.01.028.02.056.026.085.007.032.008.065.009.098z" fill="#014971" fill-rule="evenodd" stroke="#f2f2f2"/><path d="M19.548 45.277a.426.426 0 0 0 .056-.018.431.431 0 0 0 .047-.025h0c.014-.01.028-.021.04-.034.014-.013.026-.029.038-.044h0c.011-.018.023-.037.032-.056a.564.564 0 0 0 .026-.07h0a.792.792 0 0 0 .017-.08.787.787 0 0 0 .006-.093h0c0-.036-.002-.072-.008-.108-.006-.032-.016-.064-.025-.096h0a.47.47 0 0 0-.043-.081.471.471 0 0 0-.06-.066v0c-.018-.013-.036-.027-.057-.037-.021-.01-.045-.017-.068-.024h0a.944.944 0 0 0-.153-.012v0H19.1v.859h.31c.025 0 .05-.001.073-.004.022-.002.044-.007.065-.011z" fill="#f2f2f2" fill-rule="evenodd" stroke="#f2f2f2"/><path d="M19.398 45.19h-.183v-.656h.18c.03 0 .059 0 .088.004.02.003.04.008.06.013v0c.02.011.04.022.058.037.019.017.034.038.049.06v0c.013.03.025.058.033.088.01.039.01.079.01.12h0c0 .03 0 .06-.005.09a.716.716 0 0 1-.017.075h0a.362.362 0 0 1-.027.061c-.01.017-.023.032-.036.048h0a.254.254 0 0 1-.033.025.26.26 0 0 1-.044.02v0l-.057.011c-.025.004-.05.004-.076.004zM27.551 45.027a.198.198 0 0 1-.004.039c-.003.011-.008.022-.013.033h0c-.006.01-.012.02-.02.028-.006.008-.015.014-.023.02v0l-.03.014-.036.01h0l-.03.003a.61.61 0 0 1-.047 0h0-.214v-.295h.198c.025 0 .049 0 .073.004.018.002.035.007.053.01h0c.014.006.027.012.039.02.011.009.02.02.03.03h0a.192.192 0 0 1 .018.04.19.19 0 0 1 .006.044zM27.32 44.778h-.186v-.26h.172a.655.655 0 0 1 .13.012h0c.013.005.024.01.034.018.01.007.018.017.025.027h0a.185.185 0 0 1 .016.035.184.184 0 0 1 .005.04h0c-.001.014-.002.028-.006.042a.169.169 0 0 1-.016.033h0a.162.162 0 0 1-.028.026.164.164 0 0 1-.038.017h0l-.043.008c-.022.002-.043.002-.065.002z" fill="#014971" fill-rule="evenodd" stroke="#f2f2f2"/><path d="M31.362 45.288a.426.426 0 0 0 .056-.018.431.431 0 0 0 .047-.025h0c.014-.01.028-.021.04-.034.014-.013.026-.029.038-.044h0c.011-.018.023-.037.032-.056a.563.563 0 0 0 .026-.07h0a.792.792 0 0 0 .017-.08.787.787 0 0 0 .006-.093h0c0-.036-.002-.072-.008-.108-.006-.032-.016-.064-.025-.096h0a.47.47 0 0 0-.043-.081.47.47 0 0 0-.06-.065h0c-.018-.014-.036-.028-.057-.038-.021-.01-.045-.017-.068-.024h0a.944.944 0 0 0-.153-.012v0h-.296v.859h.31c.025 0 .05-.001.073-.004.022-.002.044-.007.065-.011z" fill="#f2f2f2" fill-rule="evenodd" stroke="#f2f2f2"/><path d="M31.211 45.201h-.183v-.656h.18c.03 0 .059 0 .088.004.02.003.04.008.06.013h0c.02.011.04.022.058.037.019.017.034.038.049.06h0c.013.03.025.058.033.088.01.039.01.079.01.12h0c0 .03 0 .06-.005.09a.716.716 0 0 1-.017.075h0a.362.362 0 0 1-.027.061c-.01.017-.023.032-.036.048h0a.254.254 0 0 1-.033.025.26.26 0 0 1-.044.02h0a.593.593 0 0 1-.057.011c-.025.004-.05.004-.076.004z" fill="#014971" fill-rule="evenodd" stroke="#f2f2f2"/><path d="M32.655 42.353c.032.036.063.071.1.099.043.03.093.052.143.072v0c-.06.02-.122.04-.174.074a.722.722 0 0 0-.128.119v0c-.031.051-.062.103-.08.158-.02.061-.023.127-.027.193h0c.008.09.016.179.05.258.032.077.088.144.145.211h0c.073.055.145.11.226.142.089.034.188.04.287.047v0a.968.968 0 0 0 .287-.047c.081-.032.153-.086.226-.14v0c.057-.067.113-.134.146-.21.033-.078.04-.166.049-.254h0a.77.77 0 0 0-.026-.185.774.774 0 0 0-.078-.158h0a.782.782 0 0 0-.127-.123c-.051-.037-.113-.06-.174-.085v0a.669.669 0 0 0 .14-.072.668.668 0 0 0 .098-.098h0c.023-.04.046-.078.059-.12.014-.045.017-.093.02-.14h0a.724.724 0 0 0-.043-.217.725.725 0 0 0-.129-.181h0c-.064-.048-.127-.095-.199-.122a.86.86 0 0 0-.253-.041v0c-.087.005-.174.01-.252.04-.07.026-.134.073-.197.12v0c-.049.056-.098.112-.126.178a.715.715 0 0 0-.042.215h0c.003.05.006.099.02.145a.607.607 0 0 0 .059.122z" fill="#f2f2f2" fill-rule="evenodd" stroke="#191919"/><path d="M33.546 42.092a.437.437 0 0 1-.024.128c-.017.04-.045.073-.073.107h0a.466.466 0 0 1-.112.072.467.467 0 0 1-.138.024v0c-.05-.003-.098-.007-.142-.024-.041-.016-.077-.044-.113-.073-.029-.035-.057-.07-.074-.11a.458.458 0 0 1-.024-.139h0a.428.428 0 0 1 .025-.125.426.426 0 0 1 .074-.106c.036-.028.072-.056.113-.073a.472.472 0 0 1 .138-.024v0a.467.467 0 0 1 .137.025c.04.016.077.045.113.074v0a.45.45 0 0 1 .075.11c.017.041.021.088.025.134zM32.973 43.451c-.033-.021-.066-.042-.092-.07-.027-.027-.047-.06-.067-.093h0c-.016-.036-.031-.07-.04-.108-.009-.036-.011-.073-.013-.11h0a.573.573 0 0 1 .03-.17.573.573 0 0 1 .092-.138h0a.57.57 0 0 1 .138-.093c.052-.02.111-.026.17-.03v0c.06.005.121.01.175.03.051.022.097.058.142.094v0c.037.045.074.09.095.141.022.054.027.114.032.174h0a.569.569 0 0 1-.03.171.57.57 0 0 1-.093.138h0c-.044.036-.089.071-.14.091a.583.583 0 0 1-.172.03v0a.63.63 0 0 1-.118-.014c-.037-.01-.073-.026-.109-.043z" fill="#014971" fill-rule="evenodd" stroke="#191919"/><path d="M9.437 1.635c.02.031.04.063.052.098.014.042.016.088.018.135h0c-.002.049-.003.098-.018.142-.012.036-.032.068-.052.1h0c-.025.024-.05.047-.078.06a.305.305 0 0 1-.096.02h0c-.034-.003-.068-.006-.097-.02a.307.307 0 0 1-.078-.059v0a.48.48 0 0 1-.052-.1.481.481 0 0 1-.018-.138h0a.478.478 0 0 1 .018-.14.478.478 0 0 1 .052-.099h0c.024-.023.05-.046.078-.059.03-.013.063-.016.097-.02v0c.033.004.066.007.095.02.03.013.054.037.079.06zM11.478 2.063a.296.296 0 0 1-.038.055.297.297 0 0 1-.055.042h0a.39.39 0 0 1-.068.027c-.024.006-.05.008-.076.009h0a.25.25 0 0 1-.073-.01c-.018-.006-.035-.017-.052-.028h0c-.013-.013-.025-.026-.032-.042a.163.163 0 0 1-.01-.051h0c0-.012 0-.024.004-.035.004-.011.01-.022.015-.032h0a.164.164 0 0 1 .023-.027l.032-.019h0l.049-.015c.024-.006.05-.01.074-.013h0c.045-.006.09-.013.134-.024.032-.008.064-.019.096-.029h0v.052c0 .027 0 .055-.006.081-.004.02-.01.04-.017.06zM15.035 1.336c.02-.024.041-.048.068-.062.025-.013.056-.017.087-.02h0a.271.271 0 0 1 .09.023c.029.016.052.043.074.07h0c.02.046.038.092.05.14.018.076.017.156.016.236h0c0 .079.002.158-.016.234a.967.967 0 0 1-.05.14h0c-.022.028-.045.055-.074.07a.27.27 0 0 1-.089.024c-.031-.004-.063-.009-.089-.023a.27.27 0 0 1-.074-.07h0a.967.967 0 0 1-.05-.14c-.017-.076-.016-.156-.016-.235h0c0-.081 0-.162.019-.238.012-.051.033-.1.054-.15z" fill="#014971" fill-rule="evenodd" stroke="#f2f2f2"/><path d="M1.927 5.627h39.4v33.8h-39.4z" fill="#e8e4e1" fill-rule="evenodd" stroke="#191919"/><path d="M3.277 15.027v20.3a3 3 0 0 0 3 3h30.7a3 3 0 0 0 3-3v-20.3a3 3 0 0 0-3-3h-30.7a3 3 0 0 0-3 3z" fill="#52816f" fill-rule="evenodd" stroke="#191919"/></g></g></svg>