<svg width="293" height="288" version="1.1" viewBox="1.45e7 5.62e6 5966370 5866309" xmlns="http://www.w3.org/2000/svg" xmlns:xlink="http://www.w3.org/1999/xlink">
 <defs>
  <mask id="c">
   <g fill-opacity="0" stroke-width="0">
    <g fill="#fff" fill-opacity="1" stroke="#fff" stroke-linecap="round" stroke-linejoin="round" stroke-width=".1">
     <path d="m1.981e7 7935000-761 3826.8-2168 3244.3-3244 2167.7-3827 761.2h-26000l-3827-761.2-3244-2167.7-2168-3244.3-761-3826.8v-2e4l761-3826.8 2168-3244.3 3244-2167.7 3827-761.2h26000l3827 761.2 3244 2167.7 2168 3244.3 761 3826.8zm-64000 0-761 3826.8-2168 3244.3-3244 2167.7-3827 761.2h-26000l-3827-761.2-3244-2167.7-2168-3244.3-761-3826.8v-2e4l761-3826.8 2168-3244.3 3244-2167.7 3827-761.2h26000l3827 761.2 3244 2167.7 2168 3244.3 761 3826.8z" fill="#fff" fill-opacity="1" fill-rule="evenodd" stroke="#fff" stroke-linecap="round" stroke-linejoin="round" stroke-width=".1"/>
     <path d="m19624000 7292000-1066 5357.6-3034 4541.9-4542 3034.8-5358 1065.7h-28000l-5358-1065.7-4541-3034.8-3035-4541.9-1066-5357.6v-34000l1066-5357.6 3035-4541.9 4541-3034.8 5358-1065.7h28000l5358 1065.7 4542 3034.8 3034 4541.9 1066 5357.6zm-96000 0-1066 5357.6-3034 4541.9-4542 3034.8-5358 1065.7h-28000l-5358-1065.7-4541-3034.8-3035-4541.9-1066-5357.6v-34000l1066-5357.6 3035-4541.9 4541-3034.8 5358-1065.7h28000l5358 1065.7 4542 3034.8 3034 4541.9 1066 5357.6z" fill="#fff" fill-opacity="1" fill-rule="evenodd" stroke="#fff" stroke-linecap="round" stroke-linejoin="round" stroke-width=".1"/>
     <path d="m19765500 7825500-5358-1065.7-4541-3034.8-3035-4541.9-1066-5357.6v-28000l1066-5357.6 3035-4541.9 4541-3034.8 5358-1065.7h34000l5358 1065.7 4542 3034.8 3034 4541.9 1066 5357.6v28000l-1066 5357.6-3034 4541.9-4542 3034.8-5358 1065.7zm0-96000-5358-1065.7-4541-3034.8-3035-4541.9-1066-5357.6v-28000l1066-5357.6 3035-4541.9 4541-3034.8 5358-1065.7h34000l5358 1065.7 4542 3034.8 3034 4541.9 1066 5357.6v28000l-1066 5357.6-3034 4541.9-4542 3034.8-5358 1065.7z" fill="#fff" fill-opacity="1" fill-rule="evenodd" stroke="#fff" stroke-linecap="round" stroke-linejoin="round" stroke-width=".1"/>
     <path d="m19702000 7547500 761-3826.8 2168-3244.3 3244-2167.7 3827-761.2h26000l3827 761.2 3244 2167.7 2168 3244.3 761 3826.8v2e4l-761 3826.8-2168 3244.3-3244 2167.7-3827 761.2h-26000l-3827-761.2-3244-2167.7-2168-3244.3-761-3826.8zm64000 0 761-3826.8 2168-3244.3 3244-2167.7 3827-761.2h26000l3827 761.2 3244 2167.7 2168 3244.3 761 3826.8v2e4l-761 3826.8-2168 3244.3-3244 2167.7-3827 761.2h-26000l-3827-761.2-3244-2167.7-2168-3244.3-761-3826.8z" fill="#fff" fill-opacity="1" fill-rule="evenodd" stroke="#fff" stroke-linecap="round" stroke-linejoin="round" stroke-width=".1"/>
     <path d="m1.959e7 8.12e6 -761 3826.8-2168 3244.3-3244 2167.7-3827 761.2h-26000l-3827-761.2-3244-2167.7-2168-3244.3-761-3826.8v-2e4l761-3826.8 2168-3244.3 3244-2167.7 3827-761.2h26000l3827 761.2 3244 2167.7 2168 3244.3 761 3826.8zm-64000 0-761 3826.8-2168 3244.3-3244 2167.7-3827 761.2h-26000l-3827-761.2-3244-2167.7-2168-3244.3-761-3826.8v-2e4l761-3826.8 2168-3244.3 3244-2167.7 3827-761.2h26000l3827 761.2 3244 2167.7 2168 3244.3 761 3826.8z" fill="#fff" fill-opacity="1" fill-rule="evenodd" stroke="#fff" stroke-linecap="round" stroke-linejoin="round" stroke-width=".1"/>
     <path d="m1.959e7 8372500-761 3826.8-2168 3244.3-3244 2167.7-3827 761.2h-26000l-3827-761.2-3244-2167.7-2168-3244.3-761-3826.8v-2e4l761-3826.8 2168-3244.3 3244-2167.7 3827-761.2h26000l3827 761.2 3244 2167.7 2168 3244.3 761 3826.8zm-64000 0-761 3826.8-2168 3244.3-3244 2167.7-3827 761.2h-26000l-3827-761.2-3244-2167.7-2168-3244.3-761-3826.8v-2e4l761-3826.8 2168-3244.3 3244-2167.7 3827-761.2h26000l3827 761.2 3244 2167.7 2168 3244.3 761 3826.8z" fill="#fff" fill-opacity="1" fill-rule="evenodd" stroke="#fff" stroke-linecap="round" stroke-linejoin="round" stroke-width=".1"/>
     <path d="m19614500 7402500-761 3826.8-2168 3244.3-3244 2167.7-3827 761.2h-26000l-3827-761.2-3244-2167.7-2168-3244.3-761-3826.8v-2e4l761-3826.8 2168-3244.3 3244-2167.7 3827-761.2h26000l3827 761.2 3244 2167.7 2168 3244.3 761 3826.8zm-64000 0-761 3826.8-2168 3244.3-3244 2167.7-3827 761.2h-26000l-3827-761.2-3244-2167.7-2168-3244.3-761-3826.8v-2e4l761-3826.8 2168-3244.3 3244-2167.7 3827-761.2h26000l3827 761.2 3244 2167.7 2168 3244.3 761 3826.8z" fill="#fff" fill-opacity="1" fill-rule="evenodd" stroke="#fff" stroke-linecap="round" stroke-linejoin="round" stroke-width=".1"/>
     <path d="m19542500 7975000-1142 5740.3-3251 4866.3-4867 3251.6-5740 1141.8h-65000l-5740-1141.8-4867-3251.6-3251-4866.3-1142-5740.3v-3e4l1142-5740.3 3251-4866.3 4867-3251.6 5740-1141.8h65000l5740 1141.8 4867 3251.6 3251 4866.3 1142 5740.3zm0-8e4 -1142 5740.3-3251 4866.3-4867 3251.6-5740 1141.8h-65000l-5740-1141.8-4867-3251.6-3251-4866.3-1142-5740.3v-3e4l1142-5740.3 3251-4866.3 4867-3251.6 5740-1141.8h65000l5740 1141.8 4867 3251.6 3251 4866.3 1142 5740.3zm0-8e4 -1142 5740.3-3251 4866.3-4867 3251.6-5740 1141.8h-65000l-5740-1141.8-4867-3251.6-3251-4866.3-1142-5740.3v-3e4l1142-5740.3 3251-4866.3 4867-3251.6 5740-1141.8h65000l5740 1141.8 4867 3251.6 3251 4866.3 1142 5740.3zm0-8e4 -1142 5740.3-3251 4866.3-4867 3251.6-5740 1141.8h-65000l-5740-1141.8-4867-3251.6-3251-4866.3-1142-5740.3v-3e4l1142-5740.3 3251-4866.3 4867-3251.6 5740-1141.8h65000l5740 1141.8 4867 3251.6 3251 4866.3 1142 5740.3zm0-8e4 -1142 5740.3-3251 4866.3-4867 3251.6-5740 1141.8h-65000l-5740-1141.8-4867-3251.6-3251-4866.3-1142-5740.3v-3e4l1142-5740.3 3251-4866.3 4867-3251.6 5740-1141.8h65000l5740 1141.8 4867 3251.6 3251 4866.3 1142 5740.3zm0-8e4 -1142 5740.3-3251 4866.3-4867 3251.6-5740 1141.8h-65000l-5740-1141.8-4867-3251.6-3251-4866.3-1142-5740.3v-3e4l1142-5740.3 3251-4866.3 4867-3251.6 5740-1141.8h65000l5740 1141.8 4867 3251.6 3251 4866.3 1142 5740.3zm-117500 17500-1142 5740.3-3251 4866.3-4867 3251.6-5740 1141.8h-3e4l-5740-1141.8-4867-3251.6-3251-4866.3-1142-5740.3v-65000l1142-5740.3 3251-4866.3 4867-3251.6 5740-1141.8h3e4l5740 1141.8 4867 3251.6 3251 4866.3 1142 5740.3zm-82500-17500-1142 5740.3-3251 4866.3-4867 3251.6-5740 1141.8h-65000l-5740-1141.8-4867-3251.6-3251-4866.3-1142-5740.3v-3e4l1142-5740.3 3251-4866.3 4867-3251.6 5740-1141.8h65000l5740 1141.8 4867 3251.6 3251 4866.3 1142 5740.3zm0 8e4 -1142 5740.3-3251 4866.3-4867 3251.6-5740 1141.8h-65000l-5740-1141.8-4867-3251.6-3251-4866.3-1142-5740.3v-3e4l1142-5740.3 3251-4866.3 4867-3251.6 5740-1141.8h65000l5740 1141.8 4867 3251.6 3251 4866.3 1142 5740.3zm0 8e4 -1142 5740.3-3251 4866.3-4867 3251.6-5740 1141.8h-65000l-5740-1141.8-4867-3251.6-3251-4866.3-1142-5740.3v-3e4l1142-5740.3 3251-4866.3 4867-3251.6 5740-1141.8h65000l5740 1141.8 4867 3251.6 3251 4866.3 1142 5740.3zm0 8e4 -1142 5740.3-3251 4866.3-4867 3251.6-5740 1141.8h-65000l-5740-1141.8-4867-3251.6-3251-4866.3-1142-5740.3v-3e4l1142-5740.3 3251-4866.3 4867-3251.6 5740-1141.8h65000l5740 1141.8 4867 3251.6 3251 4866.3 1142 5740.3zm0 8e4 -1142 5740.3-3251 4866.3-4867 3251.6-5740 1141.8h-65000l-5740-1141.8-4867-3251.6-3251-4866.3-1142-5740.3v-3e4l1142-5740.3 3251-4866.3 4867-3251.6 5740-1141.8h65000l5740 1141.8 4867 3251.6 3251 4866.3 1142 5740.3zm0 8e4 -1142 5740.3-3251 4866.3-4867 3251.6-5740 1141.8h-65000l-5740-1141.8-4867-3251.6-3251-4866.3-1142-5740.3v-3e4l1142-5740.3 3251-4866.3 4867-3251.6 5740-1141.8h65000l5740 1141.8 4867 3251.6 3251 4866.3 1142 5740.3zm82500 17500-1142 5740.3-3251 4866.3-4867 3251.6-5740 1141.8h-3e4l-5740-1141.8-4867-3251.6-3251-4866.3-1142-5740.3v-65000l1142-5740.3 3251-4866.3 4867-3251.6 5740-1141.8h3e4l5740 1141.8 4867 3251.6 3251 4866.3 1142 5740.3z" fill="#fff" fill-opacity="1" fill-rule="evenodd" stroke="#fff" stroke-linecap="round" stroke-linejoin="round" stroke-width=".1"/>
     <path d="m20175000 6837000v-1.7e5h1.7e5v1.7e5z" fill="#fff" fill-opacity="1" fill-rule="evenodd" stroke="#fff" stroke-linecap="round" stroke-linejoin="round" stroke-width=".1"/>
     <circle cx="2.026e7" cy="7006000" r="85000"/>
     <circle cx="2.026e7" cy="7.26e6" r="85000"/>
     <circle cx="2.026e7" cy="7514000" r="85000"/>
     <circle cx="2.026e7" cy="7768000" r="85000"/>
     <circle cx="2.026e7" cy="8022000" r="85000"/>
     <circle cx="2.026e7" cy="8276000" r="85000"/>
     <circle cx="2.026e7" cy="8.53e6" r="85000"/>
     <path d="m1.934e7 7153000h-65000v-106000h65000zm95000 0h-65000v-106000h65000zm95000 0h-65000v-106000h65000zm0-2.2e5h-65000v-106000h65000zm-1.9e5 0h-65000v-106000h65000z" fill="#fff" fill-opacity="1" fill-rule="evenodd" stroke="#fff" stroke-linecap="round" stroke-linejoin="round" stroke-width=".1"/>
     <path d="m19588500 8247500-761 3826.8-2168 3244.3-3244 2167.7-3827 761.2h-26000l-3827-761.2-3244-2167.7-2168-3244.3-761-3826.8v-2e4l761-3826.8 2168-3244.3 3244-2167.7 3827-761.2h26000l3827 761.2 3244 2167.7 2168 3244.3 761 3826.8zm-64000 0-761 3826.8-2168 3244.3-3244 2167.7-3827 761.2h-26000l-3827-761.2-3244-2167.7-2168-3244.3-761-3826.8v-2e4l761-3826.8 2168-3244.3 3244-2167.7 3827-761.2h26000l3827 761.2 3244 2167.7 2168 3244.3 761 3826.8z" fill="#fff" fill-opacity="1" fill-rule="evenodd" stroke="#fff" stroke-linecap="round" stroke-linejoin="round" stroke-width=".1"/>
    </g>
   </g>
  </mask>
  <mask id="d">
   <path d="m14597500 5717500h5999286v5875000h-5999286z" fill="#fff"/>
   <g fill-opacity="0" stroke-width="0">
    <g fill-opacity="1" stroke="#000" stroke-linecap="round" stroke-linejoin="round" stroke-width=".1">
     <path d="m1.981e7 7935000-761 3826.8-2168 3244.3-3244 2167.7-3827 761.2h-26000l-3827-761.2-3244-2167.7-2168-3244.3-761-3826.8v-2e4l761-3826.8 2168-3244.3 3244-2167.7 3827-761.2h26000l3827 761.2 3244 2167.7 2168 3244.3 761 3826.8zm-64000 0-761 3826.8-2168 3244.3-3244 2167.7-3827 761.2h-26000l-3827-761.2-3244-2167.7-2168-3244.3-761-3826.8v-2e4l761-3826.8 2168-3244.3 3244-2167.7 3827-761.2h26000l3827 761.2 3244 2167.7 2168 3244.3 761 3826.8z" fill-opacity="1" fill-rule="evenodd" stroke="#000" stroke-linecap="round" stroke-linejoin="round" stroke-width=".1"/>
     <path d="m19624000 7292000-1066 5357.6-3034 4541.9-4542 3034.8-5358 1065.7h-28000l-5358-1065.7-4541-3034.8-3035-4541.9-1066-5357.6v-34000l1066-5357.6 3035-4541.9 4541-3034.8 5358-1065.7h28000l5358 1065.7 4542 3034.8 3034 4541.9 1066 5357.6zm-96000 0-1066 5357.6-3034 4541.9-4542 3034.8-5358 1065.7h-28000l-5358-1065.7-4541-3034.8-3035-4541.9-1066-5357.6v-34000l1066-5357.6 3035-4541.9 4541-3034.8 5358-1065.7h28000l5358 1065.7 4542 3034.8 3034 4541.9 1066 5357.6z" fill-opacity="1" fill-rule="evenodd" stroke="#000" stroke-linecap="round" stroke-linejoin="round" stroke-width=".1"/>
     <path d="m19765500 7825500-5358-1065.7-4541-3034.8-3035-4541.9-1066-5357.6v-28000l1066-5357.6 3035-4541.9 4541-3034.8 5358-1065.7h34000l5358 1065.7 4542 3034.8 3034 4541.9 1066 5357.6v28000l-1066 5357.6-3034 4541.9-4542 3034.8-5358 1065.7zm0-96000-5358-1065.7-4541-3034.8-3035-4541.9-1066-5357.6v-28000l1066-5357.6 3035-4541.9 4541-3034.8 5358-1065.7h34000l5358 1065.7 4542 3034.8 3034 4541.9 1066 5357.6v28000l-1066 5357.6-3034 4541.9-4542 3034.8-5358 1065.7z" fill-opacity="1" fill-rule="evenodd" stroke="#000" stroke-linecap="round" stroke-linejoin="round" stroke-width=".1"/>
     <path d="m19702000 7547500 761-3826.8 2168-3244.3 3244-2167.7 3827-761.2h26000l3827 761.2 3244 2167.7 2168 3244.3 761 3826.8v2e4l-761 3826.8-2168 3244.3-3244 2167.7-3827 761.2h-26000l-3827-761.2-3244-2167.7-2168-3244.3-761-3826.8zm64000 0 761-3826.8 2168-3244.3 3244-2167.7 3827-761.2h26000l3827 761.2 3244 2167.7 2168 3244.3 761 3826.8v2e4l-761 3826.8-2168 3244.3-3244 2167.7-3827 761.2h-26000l-3827-761.2-3244-2167.7-2168-3244.3-761-3826.8z" fill-opacity="1" fill-rule="evenodd" stroke="#000" stroke-linecap="round" stroke-linejoin="round" stroke-width=".1"/>
     <path d="m1.959e7 8.12e6 -761 3826.8-2168 3244.3-3244 2167.7-3827 761.2h-26000l-3827-761.2-3244-2167.7-2168-3244.3-761-3826.8v-2e4l761-3826.8 2168-3244.3 3244-2167.7 3827-761.2h26000l3827 761.2 3244 2167.7 2168 3244.3 761 3826.8zm-64000 0-761 3826.8-2168 3244.3-3244 2167.7-3827 761.2h-26000l-3827-761.2-3244-2167.7-2168-3244.3-761-3826.8v-2e4l761-3826.8 2168-3244.3 3244-2167.7 3827-761.2h26000l3827 761.2 3244 2167.7 2168 3244.3 761 3826.8z" fill-opacity="1" fill-rule="evenodd" stroke="#000" stroke-linecap="round" stroke-linejoin="round" stroke-width=".1"/>
     <path d="m1.959e7 8372500-761 3826.8-2168 3244.3-3244 2167.7-3827 761.2h-26000l-3827-761.2-3244-2167.7-2168-3244.3-761-3826.8v-2e4l761-3826.8 2168-3244.3 3244-2167.7 3827-761.2h26000l3827 761.2 3244 2167.7 2168 3244.3 761 3826.8zm-64000 0-761 3826.8-2168 3244.3-3244 2167.7-3827 761.2h-26000l-3827-761.2-3244-2167.7-2168-3244.3-761-3826.8v-2e4l761-3826.8 2168-3244.3 3244-2167.7 3827-761.2h26000l3827 761.2 3244 2167.7 2168 3244.3 761 3826.8z" fill-opacity="1" fill-rule="evenodd" stroke="#000" stroke-linecap="round" stroke-linejoin="round" stroke-width=".1"/>
     <path d="m19614500 7402500-761 3826.8-2168 3244.3-3244 2167.7-3827 761.2h-26000l-3827-761.2-3244-2167.7-2168-3244.3-761-3826.8v-2e4l761-3826.8 2168-3244.3 3244-2167.7 3827-761.2h26000l3827 761.2 3244 2167.7 2168 3244.3 761 3826.8zm-64000 0-761 3826.8-2168 3244.3-3244 2167.7-3827 761.2h-26000l-3827-761.2-3244-2167.7-2168-3244.3-761-3826.8v-2e4l761-3826.8 2168-3244.3 3244-2167.7 3827-761.2h26000l3827 761.2 3244 2167.7 2168 3244.3 761 3826.8z" fill-opacity="1" fill-rule="evenodd" stroke="#000" stroke-linecap="round" stroke-linejoin="round" stroke-width=".1"/>
     <path d="m19542500 7975000-1142 5740.3-3251 4866.3-4867 3251.6-5740 1141.8h-65000l-5740-1141.8-4867-3251.6-3251-4866.3-1142-5740.3v-3e4l1142-5740.3 3251-4866.3 4867-3251.6 5740-1141.8h65000l5740 1141.8 4867 3251.6 3251 4866.3 1142 5740.3zm0-8e4 -1142 5740.3-3251 4866.3-4867 3251.6-5740 1141.8h-65000l-5740-1141.8-4867-3251.6-3251-4866.3-1142-5740.3v-3e4l1142-5740.3 3251-4866.3 4867-3251.6 5740-1141.8h65000l5740 1141.8 4867 3251.6 3251 4866.3 1142 5740.3zm0-8e4 -1142 5740.3-3251 4866.3-4867 3251.6-5740 1141.8h-65000l-5740-1141.8-4867-3251.6-3251-4866.3-1142-5740.3v-3e4l1142-5740.3 3251-4866.3 4867-3251.6 5740-1141.8h65000l5740 1141.8 4867 3251.6 3251 4866.3 1142 5740.3zm0-8e4 -1142 5740.3-3251 4866.3-4867 3251.6-5740 1141.8h-65000l-5740-1141.8-4867-3251.6-3251-4866.3-1142-5740.3v-3e4l1142-5740.3 3251-4866.3 4867-3251.6 5740-1141.8h65000l5740 1141.8 4867 3251.6 3251 4866.3 1142 5740.3zm0-8e4 -1142 5740.3-3251 4866.3-4867 3251.6-5740 1141.8h-65000l-5740-1141.8-4867-3251.6-3251-4866.3-1142-5740.3v-3e4l1142-5740.3 3251-4866.3 4867-3251.6 5740-1141.8h65000l5740 1141.8 4867 3251.6 3251 4866.3 1142 5740.3zm0-8e4 -1142 5740.3-3251 4866.3-4867 3251.6-5740 1141.8h-65000l-5740-1141.8-4867-3251.6-3251-4866.3-1142-5740.3v-3e4l1142-5740.3 3251-4866.3 4867-3251.6 5740-1141.8h65000l5740 1141.8 4867 3251.6 3251 4866.3 1142 5740.3zm-117500 17500-1142 5740.3-3251 4866.3-4867 3251.6-5740 1141.8h-3e4l-5740-1141.8-4867-3251.6-3251-4866.3-1142-5740.3v-65000l1142-5740.3 3251-4866.3 4867-3251.6 5740-1141.8h3e4l5740 1141.8 4867 3251.6 3251 4866.3 1142 5740.3zm-82500-17500-1142 5740.3-3251 4866.3-4867 3251.6-5740 1141.8h-65000l-5740-1141.8-4867-3251.6-3251-4866.3-1142-5740.3v-3e4l1142-5740.3 3251-4866.3 4867-3251.6 5740-1141.8h65000l5740 1141.8 4867 3251.6 3251 4866.3 1142 5740.3zm0 8e4 -1142 5740.3-3251 4866.3-4867 3251.6-5740 1141.8h-65000l-5740-1141.8-4867-3251.6-3251-4866.3-1142-5740.3v-3e4l1142-5740.3 3251-4866.3 4867-3251.6 5740-1141.8h65000l5740 1141.8 4867 3251.6 3251 4866.3 1142 5740.3zm0 8e4 -1142 5740.3-3251 4866.3-4867 3251.6-5740 1141.8h-65000l-5740-1141.8-4867-3251.6-3251-4866.3-1142-5740.3v-3e4l1142-5740.3 3251-4866.3 4867-3251.6 5740-1141.8h65000l5740 1141.8 4867 3251.6 3251 4866.3 1142 5740.3zm0 8e4 -1142 5740.3-3251 4866.3-4867 3251.6-5740 1141.8h-65000l-5740-1141.8-4867-3251.6-3251-4866.3-1142-5740.3v-3e4l1142-5740.3 3251-4866.3 4867-3251.6 5740-1141.8h65000l5740 1141.8 4867 3251.6 3251 4866.3 1142 5740.3zm0 8e4 -1142 5740.3-3251 4866.3-4867 3251.6-5740 1141.8h-65000l-5740-1141.8-4867-3251.6-3251-4866.3-1142-5740.3v-3e4l1142-5740.3 3251-4866.3 4867-3251.6 5740-1141.8h65000l5740 1141.8 4867 3251.6 3251 4866.3 1142 5740.3zm0 8e4 -1142 5740.3-3251 4866.3-4867 3251.6-5740 1141.8h-65000l-5740-1141.8-4867-3251.6-3251-4866.3-1142-5740.3v-3e4l1142-5740.3 3251-4866.3 4867-3251.6 5740-1141.8h65000l5740 1141.8 4867 3251.6 3251 4866.3 1142 5740.3zm82500 17500-1142 5740.3-3251 4866.3-4867 3251.6-5740 1141.8h-3e4l-5740-1141.8-4867-3251.6-3251-4866.3-1142-5740.3v-65000l1142-5740.3 3251-4866.3 4867-3251.6 5740-1141.8h3e4l5740 1141.8 4867 3251.6 3251 4866.3 1142 5740.3z" fill-opacity="1" fill-rule="evenodd" stroke="#000" stroke-linecap="round" stroke-linejoin="round" stroke-width=".1"/>
     <path d="m20175000 6837000v-1.7e5h1.7e5v1.7e5z" fill-opacity="1" fill-rule="evenodd" stroke="#000" stroke-linecap="round" stroke-linejoin="round" stroke-width=".1"/>
     <circle cx="2.026e7" cy="7006000" r="85000"/>
     <circle cx="2.026e7" cy="7.26e6" r="85000"/>
     <circle cx="2.026e7" cy="7514000" r="85000"/>
     <circle cx="2.026e7" cy="7768000" r="85000"/>
     <circle cx="2.026e7" cy="8022000" r="85000"/>
     <circle cx="2.026e7" cy="8276000" r="85000"/>
     <circle cx="2.026e7" cy="8.53e6" r="85000"/>
     <path d="m1.934e7 7153000h-65000v-106000h65000zm95000 0h-65000v-106000h65000zm95000 0h-65000v-106000h65000zm0-2.2e5h-65000v-106000h65000zm-1.9e5 0h-65000v-106000h65000z" fill-opacity="1" fill-rule="evenodd" stroke="#000" stroke-linecap="round" stroke-linejoin="round" stroke-width=".1"/>
     <path d="m19588500 8247500-761 3826.8-2168 3244.3-3244 2167.7-3827 761.2h-26000l-3827-761.2-3244-2167.7-2168-3244.3-761-3826.8v-2e4l761-3826.8 2168-3244.3 3244-2167.7 3827-761.2h26000l3827 761.2 3244 2167.7 2168 3244.3 761 3826.8zm-64000 0-761 3826.8-2168 3244.3-3244 2167.7-3827 761.2h-26000l-3827-761.2-3244-2167.7-2168-3244.3-761-3826.8v-2e4l761-3826.8 2168-3244.3 3244-2167.7 3827-761.2h26000l3827 761.2 3244 2167.7 2168 3244.3 761 3826.8z" fill-opacity="1" fill-rule="evenodd" stroke="#000" stroke-linecap="round" stroke-linejoin="round" stroke-width=".1"/>
    </g>
   </g>
  </mask>
  <mask id="b">
   <path d="m14597500 5717500h5999286v5875000h-5999286z" fill="#fff"/>
   <path d="m2.026e7 6752000v0m0 254000v0m0 254000v0m0 254000v0m0 254000v0m0 254000v0m0 254000v0m0 254000v0" stroke="#000" stroke-linecap="round" stroke-width="1e5"/>
   <path d="m19125000 7.7e6v0m272550 1e5v0m102450-8e5v0m-175000 0v0m367500 392500v0m-292500 57500v0m374000 826000v0m-374000-1e3v0m-125000-9e5v0m775000 1.5e5v0m-8.5e5 -2.5e5v0m8.5e5 1e5v0m-315000 735000v0m-5.1e5 65000v0" stroke="#000" stroke-linecap="round" stroke-width="4e4"/>
  </mask>
  <clipPath id="a">
   <path d="m2.057e7 1.159e7v-5.87e6h-5965000l-5e3 5.87e6h5.97e6" fill-rule="evenodd"/>
  </clipPath>
 </defs>
 <g transform="translate(-105827 -99957)" clip-path="url(#a)" mask="url(#b)">
  <g fill="#313d63" stroke="#313d63">
   <path d="m2.057e7 1.159e7v-5.87e6h-5965000l-5e3 5.87e6h5.97e6" fill-rule="evenodd"/>
   <g fill="none" fill-opacity="0" stroke-linecap="round" stroke-linejoin="round" stroke-width="5e3">
    <path d="m1.46e7 1.159e7h5.97e6m-5965000-5.87e6 -5e3 5.87e6m5.97e6 -5.87e6h-5965000m5965000 5.87e6v-5.87e6"/>
   </g>
  </g>
  <g fill="#9c6b28" stroke="#9c6b28">
   <g fill-opacity="0" stroke-width="0">
    <g fill-opacity="1" stroke-linecap="round" stroke-linejoin="round" stroke-width=".1">
     <g fill-opacity="1" fill-rule="evenodd" stroke-linecap="round" stroke-linejoin="round" stroke-width=".1">
      <path d="m1.981e7 7935000-761 3826.8-2168 3244.3-3244 2167.7-3827 761.2h-26000l-3827-761.2-3244-2167.7-2168-3244.3-761-3826.8v-2e4l761-3826.8 2168-3244.3 3244-2167.7 3827-761.2h26000l3827 761.2 3244 2167.7 2168 3244.3 761 3826.8zm-64000 0-761 3826.8-2168 3244.3-3244 2167.7-3827 761.2h-26000l-3827-761.2-3244-2167.7-2168-3244.3-761-3826.8v-2e4l761-3826.8 2168-3244.3 3244-2167.7 3827-761.2h26000l3827 761.2 3244 2167.7 2168 3244.3 761 3826.8z"/>
      <path d="m19624000 7292000-1066 5357.6-3034 4541.9-4542 3034.8-5358 1065.7h-28000l-5358-1065.7-4541-3034.8-3035-4541.9-1066-5357.6v-34000l1066-5357.6 3035-4541.9 4541-3034.8 5358-1065.7h28000l5358 1065.7 4542 3034.8 3034 4541.9 1066 5357.6zm-96000 0-1066 5357.6-3034 4541.9-4542 3034.8-5358 1065.7h-28000l-5358-1065.7-4541-3034.8-3035-4541.9-1066-5357.6v-34000l1066-5357.6 3035-4541.9 4541-3034.8 5358-1065.7h28000l5358 1065.7 4542 3034.8 3034 4541.9 1066 5357.6z"/>
      <path d="m19765500 7825500-5358-1065.7-4541-3034.8-3035-4541.9-1066-5357.6v-28000l1066-5357.6 3035-4541.9 4541-3034.8 5358-1065.7h34000l5358 1065.7 4542 3034.8 3034 4541.9 1066 5357.6v28000l-1066 5357.6-3034 4541.9-4542 3034.8-5358 1065.7zm0-96000-5358-1065.7-4541-3034.8-3035-4541.9-1066-5357.6v-28000l1066-5357.6 3035-4541.9 4541-3034.8 5358-1065.7h34000l5358 1065.7 4542 3034.8 3034 4541.9 1066 5357.6v28000l-1066 5357.6-3034 4541.9-4542 3034.8-5358 1065.7z"/>
      <path d="m19702000 7547500 761-3826.8 2168-3244.3 3244-2167.7 3827-761.2h26000l3827 761.2 3244 2167.7 2168 3244.3 761 3826.8v2e4l-761 3826.8-2168 3244.3-3244 2167.7-3827 761.2h-26000l-3827-761.2-3244-2167.7-2168-3244.3-761-3826.8zm64000 0 761-3826.8 2168-3244.3 3244-2167.7 3827-761.2h26000l3827 761.2 3244 2167.7 2168 3244.3 761 3826.8v2e4l-761 3826.8-2168 3244.3-3244 2167.7-3827 761.2h-26000l-3827-761.2-3244-2167.7-2168-3244.3-761-3826.8z"/>
      <path d="m1.959e7 8.12e6 -761 3826.8-2168 3244.3-3244 2167.7-3827 761.2h-26000l-3827-761.2-3244-2167.7-2168-3244.3-761-3826.8v-2e4l761-3826.8 2168-3244.3 3244-2167.7 3827-761.2h26000l3827 761.2 3244 2167.7 2168 3244.3 761 3826.8zm-64000 0-761 3826.8-2168 3244.3-3244 2167.7-3827 761.2h-26000l-3827-761.2-3244-2167.7-2168-3244.3-761-3826.8v-2e4l761-3826.8 2168-3244.3 3244-2167.7 3827-761.2h26000l3827 761.2 3244 2167.7 2168 3244.3 761 3826.8z"/>
      <path d="m1.959e7 8372500-761 3826.8-2168 3244.3-3244 2167.7-3827 761.2h-26000l-3827-761.2-3244-2167.7-2168-3244.3-761-3826.8v-2e4l761-3826.8 2168-3244.3 3244-2167.7 3827-761.2h26000l3827 761.2 3244 2167.7 2168 3244.3 761 3826.8zm-64000 0-761 3826.8-2168 3244.3-3244 2167.7-3827 761.2h-26000l-3827-761.2-3244-2167.7-2168-3244.3-761-3826.8v-2e4l761-3826.8 2168-3244.3 3244-2167.7 3827-761.2h26000l3827 761.2 3244 2167.7 2168 3244.3 761 3826.8z"/>
      <path d="m19614500 7402500-761 3826.8-2168 3244.3-3244 2167.7-3827 761.2h-26000l-3827-761.2-3244-2167.7-2168-3244.3-761-3826.8v-2e4l761-3826.8 2168-3244.3 3244-2167.7 3827-761.2h26000l3827 761.2 3244 2167.7 2168 3244.3 761 3826.8zm-64000 0-761 3826.8-2168 3244.3-3244 2167.7-3827 761.2h-26000l-3827-761.2-3244-2167.7-2168-3244.3-761-3826.8v-2e4l761-3826.8 2168-3244.3 3244-2167.7 3827-761.2h26000l3827 761.2 3244 2167.7 2168 3244.3 761 3826.8z"/>
      <path d="m19542500 7975000-1142 5740.3-3251 4866.3-4867 3251.6-5740 1141.8h-65000l-5740-1141.8-4867-3251.6-3251-4866.3-1142-5740.3v-3e4l1142-5740.3 3251-4866.3 4867-3251.6 5740-1141.8h65000l5740 1141.8 4867 3251.6 3251 4866.3 1142 5740.3zm0-8e4 -1142 5740.3-3251 4866.3-4867 3251.6-5740 1141.8h-65000l-5740-1141.8-4867-3251.6-3251-4866.3-1142-5740.3v-3e4l1142-5740.3 3251-4866.3 4867-3251.6 5740-1141.8h65000l5740 1141.8 4867 3251.6 3251 4866.3 1142 5740.3zm0-8e4 -1142 5740.3-3251 4866.3-4867 3251.6-5740 1141.8h-65000l-5740-1141.8-4867-3251.6-3251-4866.3-1142-5740.3v-3e4l1142-5740.3 3251-4866.3 4867-3251.6 5740-1141.8h65000l5740 1141.8 4867 3251.6 3251 4866.3 1142 5740.3zm0-8e4 -1142 5740.3-3251 4866.3-4867 3251.6-5740 1141.8h-65000l-5740-1141.8-4867-3251.6-3251-4866.3-1142-5740.3v-3e4l1142-5740.3 3251-4866.3 4867-3251.6 5740-1141.8h65000l5740 1141.8 4867 3251.6 3251 4866.3 1142 5740.3zm0-8e4 -1142 5740.3-3251 4866.3-4867 3251.6-5740 1141.8h-65000l-5740-1141.8-4867-3251.6-3251-4866.3-1142-5740.3v-3e4l1142-5740.3 3251-4866.3 4867-3251.6 5740-1141.8h65000l5740 1141.8 4867 3251.6 3251 4866.3 1142 5740.3zm0-8e4 -1142 5740.3-3251 4866.3-4867 3251.6-5740 1141.8h-65000l-5740-1141.8-4867-3251.6-3251-4866.3-1142-5740.3v-3e4l1142-5740.3 3251-4866.3 4867-3251.6 5740-1141.8h65000l5740 1141.8 4867 3251.6 3251 4866.3 1142 5740.3zm-117500 17500-1142 5740.3-3251 4866.3-4867 3251.6-5740 1141.8h-3e4l-5740-1141.8-4867-3251.6-3251-4866.3-1142-5740.3v-65000l1142-5740.3 3251-4866.3 4867-3251.6 5740-1141.8h3e4l5740 1141.8 4867 3251.6 3251 4866.3 1142 5740.3zm-82500-17500-1142 5740.3-3251 4866.3-4867 3251.6-5740 1141.8h-65000l-5740-1141.8-4867-3251.6-3251-4866.3-1142-5740.3v-3e4l1142-5740.3 3251-4866.3 4867-3251.6 5740-1141.8h65000l5740 1141.8 4867 3251.6 3251 4866.3 1142 5740.3zm0 8e4 -1142 5740.3-3251 4866.3-4867 3251.6-5740 1141.8h-65000l-5740-1141.8-4867-3251.6-3251-4866.3-1142-5740.3v-3e4l1142-5740.3 3251-4866.3 4867-3251.6 5740-1141.8h65000l5740 1141.8 4867 3251.6 3251 4866.3 1142 5740.3zm0 8e4 -1142 5740.3-3251 4866.3-4867 3251.6-5740 1141.8h-65000l-5740-1141.8-4867-3251.6-3251-4866.3-1142-5740.3v-3e4l1142-5740.3 3251-4866.3 4867-3251.6 5740-1141.8h65000l5740 1141.8 4867 3251.6 3251 4866.3 1142 5740.3zm0 8e4 -1142 5740.3-3251 4866.3-4867 3251.6-5740 1141.8h-65000l-5740-1141.8-4867-3251.6-3251-4866.3-1142-5740.3v-3e4l1142-5740.3 3251-4866.3 4867-3251.6 5740-1141.8h65000l5740 1141.8 4867 3251.6 3251 4866.3 1142 5740.3zm0 8e4 -1142 5740.3-3251 4866.3-4867 3251.6-5740 1141.8h-65000l-5740-1141.8-4867-3251.6-3251-4866.3-1142-5740.3v-3e4l1142-5740.3 3251-4866.3 4867-3251.6 5740-1141.8h65000l5740 1141.8 4867 3251.6 3251 4866.3 1142 5740.3zm0 8e4 -1142 5740.3-3251 4866.3-4867 3251.6-5740 1141.8h-65000l-5740-1141.8-4867-3251.6-3251-4866.3-1142-5740.3v-3e4l1142-5740.3 3251-4866.3 4867-3251.6 5740-1141.8h65000l5740 1141.8 4867 3251.6 3251 4866.3 1142 5740.3zm82500 17500-1142 5740.3-3251 4866.3-4867 3251.6-5740 1141.8h-3e4l-5740-1141.8-4867-3251.6-3251-4866.3-1142-5740.3v-65000l1142-5740.3 3251-4866.3 4867-3251.6 5740-1141.8h3e4l5740 1141.8 4867 3251.6 3251 4866.3 1142 5740.3z"/>
      <path d="m20175000 6837000v-1.7e5h1.7e5v1.7e5z"/>
     </g>
     <circle cx="2.026e7" cy="7006000" r="85000"/>
     <circle cx="2.026e7" cy="7.26e6" r="85000"/>
     <circle cx="2.026e7" cy="7514000" r="85000"/>
     <circle cx="2.026e7" cy="7768000" r="85000"/>
     <circle cx="2.026e7" cy="8022000" r="85000"/>
     <circle cx="2.026e7" cy="8276000" r="85000"/>
     <circle cx="2.026e7" cy="8.53e6" r="85000"/>
     <path d="m1.934e7 7153000h-65000v-106000h65000zm95000 0h-65000v-106000h65000zm95000 0h-65000v-106000h65000zm0-2.2e5h-65000v-106000h65000zm-1.9e5 0h-65000v-106000h65000z" fill-opacity="1" fill-rule="evenodd" stroke-linecap="round" stroke-linejoin="round" stroke-width=".1"/>
     <path d="m19588500 8247500-761 3826.8-2168 3244.3-3244 2167.7-3827 761.2h-26000l-3827-761.2-3244-2167.7-2168-3244.3-761-3826.8v-2e4l761-3826.8 2168-3244.3 3244-2167.7 3827-761.2h26000l3827 761.2 3244 2167.7 2168 3244.3 761 3826.8zm-64000 0-761 3826.8-2168 3244.3-3244 2167.7-3827 761.2h-26000l-3827-761.2-3244-2167.7-2168-3244.3-761-3826.8v-2e4l761-3826.8 2168-3244.3 3244-2167.7 3827-761.2h26000l3827 761.2 3244 2167.7 2168 3244.3 761 3826.8z" fill-opacity="1" fill-rule="evenodd" stroke-linecap="round" stroke-linejoin="round" stroke-width=".1"/>
    </g>
   </g>
  </g>
  <g fill="#212d53" stroke="#212d53">
   <g stroke-linecap="round" stroke-linejoin="round">
    <g stroke-width=".1">
     <g fill-rule="evenodd" stroke-linecap="round" stroke-linejoin="round" stroke-width=".1">
      <path d="m1.981e7 7935000-761 3826.8-2168 3244.3-3244 2167.7-3827 761.2h-26000l-3827-761.2-3244-2167.7-2168-3244.3-761-3826.8v-2e4l761-3826.8 2168-3244.3 3244-2167.7 3827-761.2h26000l3827 761.2 3244 2167.7 2168 3244.3 761 3826.8zm-64000 0-761 3826.8-2168 3244.3-3244 2167.7-3827 761.2h-26000l-3827-761.2-3244-2167.7-2168-3244.3-761-3826.8v-2e4l761-3826.8 2168-3244.3 3244-2167.7 3827-761.2h26000l3827 761.2 3244 2167.7 2168 3244.3 761 3826.8z"/>
      <path d="m19624000 7292000-1066 5357.6-3034 4541.9-4542 3034.8-5358 1065.7h-28000l-5358-1065.7-4541-3034.8-3035-4541.9-1066-5357.6v-34000l1066-5357.6 3035-4541.9 4541-3034.8 5358-1065.7h28000l5358 1065.7 4542 3034.8 3034 4541.9 1066 5357.6zm-96000 0-1066 5357.6-3034 4541.9-4542 3034.8-5358 1065.7h-28000l-5358-1065.7-4541-3034.8-3035-4541.9-1066-5357.6v-34000l1066-5357.6 3035-4541.9 4541-3034.8 5358-1065.7h28000l5358 1065.7 4542 3034.8 3034 4541.9 1066 5357.6z"/>
      <path d="m19765500 7825500-5358-1065.7-4541-3034.8-3035-4541.9-1066-5357.6v-28000l1066-5357.6 3035-4541.9 4541-3034.8 5358-1065.7h34000l5358 1065.7 4542 3034.8 3034 4541.9 1066 5357.6v28000l-1066 5357.6-3034 4541.9-4542 3034.8-5358 1065.7zm0-96000-5358-1065.7-4541-3034.8-3035-4541.9-1066-5357.6v-28000l1066-5357.6 3035-4541.9 4541-3034.8 5358-1065.7h34000l5358 1065.7 4542 3034.8 3034 4541.9 1066 5357.6v28000l-1066 5357.6-3034 4541.9-4542 3034.8-5358 1065.7z"/>
      <path d="m19702000 7547500 761-3826.8 2168-3244.3 3244-2167.7 3827-761.2h26000l3827 761.2 3244 2167.7 2168 3244.3 761 3826.8v2e4l-761 3826.8-2168 3244.3-3244 2167.7-3827 761.2h-26000l-3827-761.2-3244-2167.7-2168-3244.3-761-3826.8zm64000 0 761-3826.8 2168-3244.3 3244-2167.7 3827-761.2h26000l3827 761.2 3244 2167.7 2168 3244.3 761 3826.8v2e4l-761 3826.8-2168 3244.3-3244 2167.7-3827 761.2h-26000l-3827-761.2-3244-2167.7-2168-3244.3-761-3826.8z"/>
      <path d="m1.959e7 8.12e6 -761 3826.8-2168 3244.3-3244 2167.7-3827 761.2h-26000l-3827-761.2-3244-2167.7-2168-3244.3-761-3826.8v-2e4l761-3826.8 2168-3244.3 3244-2167.7 3827-761.2h26000l3827 761.2 3244 2167.7 2168 3244.3 761 3826.8zm-64000 0-761 3826.8-2168 3244.3-3244 2167.7-3827 761.2h-26000l-3827-761.2-3244-2167.7-2168-3244.3-761-3826.8v-2e4l761-3826.8 2168-3244.3 3244-2167.7 3827-761.2h26000l3827 761.2 3244 2167.7 2168 3244.3 761 3826.8z"/>
      <path d="m1.959e7 8372500-761 3826.8-2168 3244.3-3244 2167.7-3827 761.2h-26000l-3827-761.2-3244-2167.7-2168-3244.3-761-3826.8v-2e4l761-3826.8 2168-3244.3 3244-2167.7 3827-761.2h26000l3827 761.2 3244 2167.7 2168 3244.3 761 3826.8zm-64000 0-761 3826.8-2168 3244.3-3244 2167.7-3827 761.2h-26000l-3827-761.2-3244-2167.7-2168-3244.3-761-3826.8v-2e4l761-3826.8 2168-3244.3 3244-2167.7 3827-761.2h26000l3827 761.2 3244 2167.7 2168 3244.3 761 3826.8z"/>
      <path d="m19614500 7402500-761 3826.8-2168 3244.3-3244 2167.7-3827 761.2h-26000l-3827-761.2-3244-2167.7-2168-3244.3-761-3826.8v-2e4l761-3826.8 2168-3244.3 3244-2167.7 3827-761.2h26000l3827 761.2 3244 2167.7 2168 3244.3 761 3826.8zm-64000 0-761 3826.8-2168 3244.3-3244 2167.7-3827 761.2h-26000l-3827-761.2-3244-2167.7-2168-3244.3-761-3826.8v-2e4l761-3826.8 2168-3244.3 3244-2167.7 3827-761.2h26000l3827 761.2 3244 2167.7 2168 3244.3 761 3826.8z"/>
      <path d="m19542500 7975000-1142 5740.3-3251 4866.3-4867 3251.6-5740 1141.8h-65000l-5740-1141.8-4867-3251.6-3251-4866.3-1142-5740.3v-3e4l1142-5740.3 3251-4866.3 4867-3251.6 5740-1141.8h65000l5740 1141.8 4867 3251.6 3251 4866.3 1142 5740.3zm0-8e4 -1142 5740.3-3251 4866.3-4867 3251.6-5740 1141.8h-65000l-5740-1141.8-4867-3251.6-3251-4866.3-1142-5740.3v-3e4l1142-5740.3 3251-4866.3 4867-3251.6 5740-1141.8h65000l5740 1141.8 4867 3251.6 3251 4866.3 1142 5740.3zm0-8e4 -1142 5740.3-3251 4866.3-4867 3251.6-5740 1141.8h-65000l-5740-1141.8-4867-3251.6-3251-4866.3-1142-5740.3v-3e4l1142-5740.3 3251-4866.3 4867-3251.6 5740-1141.8h65000l5740 1141.8 4867 3251.6 3251 4866.3 1142 5740.3zm0-8e4 -1142 5740.3-3251 4866.3-4867 3251.6-5740 1141.8h-65000l-5740-1141.8-4867-3251.6-3251-4866.3-1142-5740.3v-3e4l1142-5740.3 3251-4866.3 4867-3251.6 5740-1141.8h65000l5740 1141.8 4867 3251.6 3251 4866.3 1142 5740.3zm0-8e4 -1142 5740.3-3251 4866.3-4867 3251.6-5740 1141.8h-65000l-5740-1141.8-4867-3251.6-3251-4866.3-1142-5740.3v-3e4l1142-5740.3 3251-4866.3 4867-3251.6 5740-1141.8h65000l5740 1141.8 4867 3251.6 3251 4866.3 1142 5740.3zm0-8e4 -1142 5740.3-3251 4866.3-4867 3251.6-5740 1141.8h-65000l-5740-1141.8-4867-3251.6-3251-4866.3-1142-5740.3v-3e4l1142-5740.3 3251-4866.3 4867-3251.6 5740-1141.8h65000l5740 1141.8 4867 3251.6 3251 4866.3 1142 5740.3zm-117500 17500-1142 5740.3-3251 4866.3-4867 3251.6-5740 1141.8h-3e4l-5740-1141.8-4867-3251.6-3251-4866.3-1142-5740.3v-65000l1142-5740.3 3251-4866.3 4867-3251.6 5740-1141.8h3e4l5740 1141.8 4867 3251.6 3251 4866.3 1142 5740.3zm-82500-17500-1142 5740.3-3251 4866.3-4867 3251.6-5740 1141.8h-65000l-5740-1141.8-4867-3251.6-3251-4866.3-1142-5740.3v-3e4l1142-5740.3 3251-4866.3 4867-3251.6 5740-1141.8h65000l5740 1141.8 4867 3251.6 3251 4866.3 1142 5740.3zm0 8e4 -1142 5740.3-3251 4866.3-4867 3251.6-5740 1141.8h-65000l-5740-1141.8-4867-3251.6-3251-4866.3-1142-5740.3v-3e4l1142-5740.3 3251-4866.3 4867-3251.6 5740-1141.8h65000l5740 1141.8 4867 3251.6 3251 4866.3 1142 5740.3zm0 8e4 -1142 5740.3-3251 4866.3-4867 3251.6-5740 1141.8h-65000l-5740-1141.8-4867-3251.6-3251-4866.3-1142-5740.3v-3e4l1142-5740.3 3251-4866.3 4867-3251.6 5740-1141.8h65000l5740 1141.8 4867 3251.6 3251 4866.3 1142 5740.3zm0 8e4 -1142 5740.3-3251 4866.3-4867 3251.6-5740 1141.8h-65000l-5740-1141.8-4867-3251.6-3251-4866.3-1142-5740.3v-3e4l1142-5740.3 3251-4866.3 4867-3251.6 5740-1141.8h65000l5740 1141.8 4867 3251.6 3251 4866.3 1142 5740.3zm0 8e4 -1142 5740.3-3251 4866.3-4867 3251.6-5740 1141.8h-65000l-5740-1141.8-4867-3251.6-3251-4866.3-1142-5740.3v-3e4l1142-5740.3 3251-4866.3 4867-3251.6 5740-1141.8h65000l5740 1141.8 4867 3251.6 3251 4866.3 1142 5740.3zm0 8e4 -1142 5740.3-3251 4866.3-4867 3251.6-5740 1141.8h-65000l-5740-1141.8-4867-3251.6-3251-4866.3-1142-5740.3v-3e4l1142-5740.3 3251-4866.3 4867-3251.6 5740-1141.8h65000l5740 1141.8 4867 3251.6 3251 4866.3 1142 5740.3zm82500 17500-1142 5740.3-3251 4866.3-4867 3251.6-5740 1141.8h-3e4l-5740-1141.8-4867-3251.6-3251-4866.3-1142-5740.3v-65000l1142-5740.3 3251-4866.3 4867-3251.6 5740-1141.8h3e4l5740 1141.8 4867 3251.6 3251 4866.3 1142 5740.3z"/>
      <path d="m20175000 6837000v-1.7e5h1.7e5v1.7e5z"/>
     </g>
     <circle cx="2.026e7" cy="7006000" r="85000"/>
     <circle cx="2.026e7" cy="7.26e6" r="85000"/>
     <circle cx="2.026e7" cy="7514000" r="85000"/>
     <circle cx="2.026e7" cy="7768000" r="85000"/>
     <circle cx="2.026e7" cy="8022000" r="85000"/>
     <circle cx="2.026e7" cy="8276000" r="85000"/>
     <circle cx="2.026e7" cy="8.53e6" r="85000"/>
     <path d="m1.934e7 7153000h-65000v-106000h65000zm95000 0h-65000v-106000h65000zm95000 0h-65000v-106000h65000zm0-2.2e5h-65000v-106000h65000zm-1.9e5 0h-65000v-106000h65000z" fill-rule="evenodd" stroke-linecap="round" stroke-linejoin="round" stroke-width=".1"/>
     <path d="m19588500 8247500-761 3826.8-2168 3244.3-3244 2167.7-3827 761.2h-26000l-3827-761.2-3244-2167.7-2168-3244.3-761-3826.8v-2e4l761-3826.8 2168-3244.3 3244-2167.7 3827-761.2h26000l3827 761.2 3244 2167.7 2168 3244.3 761 3826.8zm-64000 0-761 3826.8-2168 3244.3-3244 2167.7-3827 761.2h-26000l-3827-761.2-3244-2167.7-2168-3244.3-761-3826.8v-2e4l761-3826.8 2168-3244.3 3244-2167.7 3827-761.2h26000l3827 761.2 3244 2167.7 2168 3244.3 761 3826.8z" fill-rule="evenodd" stroke-linecap="round" stroke-linejoin="round" stroke-width=".1"/>
     <circle cx="19125000" cy="7.7e6" r="4e4"/>
     <circle cx="19397550" cy="7.8e6" r="4e4"/>
     <circle cx="1.95e7" cy="7e6" r="4e4"/>
     <circle cx="19325000" cy="7e6" r="4e4"/>
     <circle cx="19692500" cy="7392500" r="4e4"/>
     <circle cx="1.94e7" cy="7.45e6" r="4e4"/>
     <circle cx="19774000" cy="8276000" r="4e4"/>
     <circle cx="1.94e7" cy="8275000" r="4e4"/>
     <circle cx="19275000" cy="7375000" r="4e4"/>
     <circle cx="2.005e7" cy="7525000" r="4e4"/>
     <circle cx="1.92e7" cy="7275000" r="4e4"/>
     <circle cx="2.005e7" cy="7375000" r="4e4"/>
     <circle cx="19735000" cy="8.11e6" r="4e4"/>
     <circle cx="19225000" cy="8175000" r="4e4"/>
    </g>
    <g fill="none" fill-opacity="0" stroke-width="25000">
     <path d="m1.94e7 7.8e6v-5e4l3e4 -3e4m-3e4 8e4h-2450m391450-105000-6500 6500m-309500-949500h787000m-635000 1123000h-125000m-7e4 -155000h65000m-92500-6.2e5v-302500m92500 842500h226000m1500 285000h-47500m-272500-747500 97500 97500m0 6e5 -5e3 5e3m-47000-1128000h25000m-70500 45500 45500-45500m341000 805500v137500m-294000 25000v-8e4m-272000-888000h2.5e5m-348000 98000 98000-98000m179500 348000v77500m-2500 672500v-5e4m275000 125000-5e4 -5e4m-5e5 -175000v-8.5e5m305000 1.03e6 -3e4 -3e4m95000 3e4h-65000m291000-2.4e5 61500 61500m-281000 536000v123500m323500-861000 5e4 5e4m-1.5e5 7500h-227500m4e3 6.8e5v-126500m-301500-1186000 45000-45000m2.5e5 1.08e6h115000m1.4e5 -4.6e5h75000m-38500 301500-4e3 -4e3m4e3 127500v-123500m88500-26500-22500 22500m-102500 202500 36500-36500m-259000-571000h-6e4m27500 32500 32500-32500m259000 571000v-38500m-291500-365000v-135000m155000 575000h1e5m-1.4e5 -4e4 4e4 4e4m-4e5 -775000-5e4 -5e4m301500 936000 1e3 -1e3m222500-585000 25000-25000m-25000 57500v-32500m-227500 32500-2500 2500m-195000-335000h-5e4m252500 885000v-142500m-1e3 393500 1500 1500m372000-812500v225000m-372500 192500-7500-7500m-2.5e5 -1.08e6h62500m1.6e5 512500-167500-167500m-1e5 -5e4v-2.5e5m652500 872500h-7e4m-282500-7e5 -2500 2500m98500 71000-71000-71000m494000-94000-269000 269000m-442500-257500 17500-17500m175000 0v97500m25000 2500h-27500m252500 175000h-154000m-288500-175000v-82500m288500 257500v-104000m664000-165000h-241000m-326500 386500h1.9e5m-291000 0h101000m1.9e5 0 132500-132500m-6.2e5 3e5v-105000m6.2e5 -195000h245000m-865000 195000 5e3 -5e3m-5e3 5.1e5v3.1e5m865000 6e3h-486000m-379000-6e3 5e3 5e3m262500-37500h-97000m135500 38500-38500-38500m111500 38500h-73000m-176000 174000 5e4 -5e4m-2.8e5 -4.4e5 3e4 3e4m2.5e5 380500-8e3 -8e3m-242000-372500v4.1e5m2.5e5 0v-29500m137500-8e3h-145500m-192000 87500h1.5e5m735000 8e4h-3.8e5m-555000-1.3e5 5e4 5e4m505000 8e4 -167500-167500m-417500-802500v-165000m755000 1.3e5h199000l11000-11000m-965000-119000-2e4 -2e4m768000 393000h217000m-3.1e5 -93000 93000 93000m-93000-293000v2e5m-7.1e5 -35000-4e4 -4e4m-25000-3e5 25000-25000m-25000 3e5v-275000m875000 75000-1e5 1e5m-7.5e5 125000-25000-25000m1.2e5 65000h-55000m55000 2.4e5h-5e4m-45000 2.7e5 25000 25000m2e4 -295000-45000 45000v225000m972000-4e4 88000-88000m-525000 88000h437000m-605500 0h168500"/>
    </g>
   </g>
  </g>
  <g fill="#b5ae30" mask="url(#c)" stroke="#b5ae30">
   <g stroke-linecap="round" stroke-linejoin="round">
    <g stroke-width=".1">
     <g fill-rule="evenodd" stroke-linecap="round" stroke-linejoin="round" stroke-width=".1">
      <path d="m1.981e7 7935000-761 3826.8-2168 3244.3-3244 2167.7-3827 761.2h-26000l-3827-761.2-3244-2167.7-2168-3244.3-761-3826.8v-2e4l761-3826.8 2168-3244.3 3244-2167.7 3827-761.2h26000l3827 761.2 3244 2167.7 2168 3244.3 761 3826.8zm-64000 0-761 3826.8-2168 3244.3-3244 2167.7-3827 761.2h-26000l-3827-761.2-3244-2167.7-2168-3244.3-761-3826.8v-2e4l761-3826.8 2168-3244.3 3244-2167.7 3827-761.2h26000l3827 761.2 3244 2167.7 2168 3244.3 761 3826.8z"/>
      <path d="m19624000 7292000-1066 5357.6-3034 4541.9-4542 3034.8-5358 1065.7h-28000l-5358-1065.7-4541-3034.8-3035-4541.9-1066-5357.6v-34000l1066-5357.6 3035-4541.9 4541-3034.8 5358-1065.7h28000l5358 1065.7 4542 3034.8 3034 4541.9 1066 5357.6zm-96000 0-1066 5357.6-3034 4541.9-4542 3034.8-5358 1065.7h-28000l-5358-1065.7-4541-3034.8-3035-4541.9-1066-5357.6v-34000l1066-5357.6 3035-4541.9 4541-3034.8 5358-1065.7h28000l5358 1065.7 4542 3034.8 3034 4541.9 1066 5357.6z"/>
      <path d="m19765500 7825500-5358-1065.7-4541-3034.8-3035-4541.9-1066-5357.6v-28000l1066-5357.6 3035-4541.9 4541-3034.8 5358-1065.7h34000l5358 1065.7 4542 3034.8 3034 4541.9 1066 5357.6v28000l-1066 5357.6-3034 4541.9-4542 3034.8-5358 1065.7zm0-96000-5358-1065.7-4541-3034.8-3035-4541.9-1066-5357.6v-28000l1066-5357.6 3035-4541.9 4541-3034.8 5358-1065.7h34000l5358 1065.7 4542 3034.8 3034 4541.9 1066 5357.6v28000l-1066 5357.6-3034 4541.9-4542 3034.8-5358 1065.7z"/>
      <path d="m19702000 7547500 761-3826.8 2168-3244.3 3244-2167.7 3827-761.2h26000l3827 761.2 3244 2167.7 2168 3244.3 761 3826.8v2e4l-761 3826.8-2168 3244.3-3244 2167.7-3827 761.2h-26000l-3827-761.2-3244-2167.7-2168-3244.3-761-3826.8zm64000 0 761-3826.8 2168-3244.3 3244-2167.7 3827-761.2h26000l3827 761.2 3244 2167.7 2168 3244.3 761 3826.8v2e4l-761 3826.8-2168 3244.3-3244 2167.7-3827 761.2h-26000l-3827-761.2-3244-2167.7-2168-3244.3-761-3826.8z"/>
      <path d="m1.959e7 8.12e6 -761 3826.8-2168 3244.3-3244 2167.7-3827 761.2h-26000l-3827-761.2-3244-2167.7-2168-3244.3-761-3826.8v-2e4l761-3826.8 2168-3244.3 3244-2167.7 3827-761.2h26000l3827 761.2 3244 2167.7 2168 3244.3 761 3826.8zm-64000 0-761 3826.8-2168 3244.3-3244 2167.7-3827 761.2h-26000l-3827-761.2-3244-2167.7-2168-3244.3-761-3826.8v-2e4l761-3826.8 2168-3244.3 3244-2167.7 3827-761.2h26000l3827 761.2 3244 2167.7 2168 3244.3 761 3826.8z"/>
      <path d="m1.959e7 8372500-761 3826.8-2168 3244.3-3244 2167.7-3827 761.2h-26000l-3827-761.2-3244-2167.7-2168-3244.3-761-3826.8v-2e4l761-3826.8 2168-3244.3 3244-2167.7 3827-761.2h26000l3827 761.2 3244 2167.7 2168 3244.3 761 3826.8zm-64000 0-761 3826.8-2168 3244.3-3244 2167.7-3827 761.2h-26000l-3827-761.2-3244-2167.7-2168-3244.3-761-3826.8v-2e4l761-3826.8 2168-3244.3 3244-2167.7 3827-761.2h26000l3827 761.2 3244 2167.7 2168 3244.3 761 3826.8z"/>
      <path d="m19614500 7402500-761 3826.8-2168 3244.3-3244 2167.7-3827 761.2h-26000l-3827-761.2-3244-2167.7-2168-3244.3-761-3826.8v-2e4l761-3826.8 2168-3244.3 3244-2167.7 3827-761.2h26000l3827 761.2 3244 2167.7 2168 3244.3 761 3826.8zm-64000 0-761 3826.8-2168 3244.3-3244 2167.7-3827 761.2h-26000l-3827-761.2-3244-2167.7-2168-3244.3-761-3826.8v-2e4l761-3826.8 2168-3244.3 3244-2167.7 3827-761.2h26000l3827 761.2 3244 2167.7 2168 3244.3 761 3826.8z"/>
      <path d="m19542500 7975000-1142 5740.3-3251 4866.3-4867 3251.6-5740 1141.8h-65000l-5740-1141.8-4867-3251.6-3251-4866.3-1142-5740.3v-3e4l1142-5740.3 3251-4866.3 4867-3251.6 5740-1141.8h65000l5740 1141.8 4867 3251.6 3251 4866.3 1142 5740.3zm0-8e4 -1142 5740.3-3251 4866.3-4867 3251.6-5740 1141.8h-65000l-5740-1141.8-4867-3251.6-3251-4866.3-1142-5740.3v-3e4l1142-5740.3 3251-4866.3 4867-3251.6 5740-1141.8h65000l5740 1141.8 4867 3251.6 3251 4866.3 1142 5740.3zm0-8e4 -1142 5740.3-3251 4866.3-4867 3251.6-5740 1141.8h-65000l-5740-1141.8-4867-3251.6-3251-4866.3-1142-5740.3v-3e4l1142-5740.3 3251-4866.3 4867-3251.6 5740-1141.8h65000l5740 1141.8 4867 3251.6 3251 4866.3 1142 5740.3zm0-8e4 -1142 5740.3-3251 4866.3-4867 3251.6-5740 1141.8h-65000l-5740-1141.8-4867-3251.6-3251-4866.3-1142-5740.3v-3e4l1142-5740.3 3251-4866.3 4867-3251.6 5740-1141.8h65000l5740 1141.8 4867 3251.6 3251 4866.3 1142 5740.3zm0-8e4 -1142 5740.3-3251 4866.3-4867 3251.6-5740 1141.8h-65000l-5740-1141.8-4867-3251.6-3251-4866.3-1142-5740.3v-3e4l1142-5740.3 3251-4866.3 4867-3251.6 5740-1141.8h65000l5740 1141.8 4867 3251.6 3251 4866.3 1142 5740.3zm0-8e4 -1142 5740.3-3251 4866.3-4867 3251.6-5740 1141.8h-65000l-5740-1141.8-4867-3251.6-3251-4866.3-1142-5740.3v-3e4l1142-5740.3 3251-4866.3 4867-3251.6 5740-1141.8h65000l5740 1141.8 4867 3251.6 3251 4866.3 1142 5740.3zm-117500 17500-1142 5740.3-3251 4866.3-4867 3251.6-5740 1141.8h-3e4l-5740-1141.8-4867-3251.6-3251-4866.3-1142-5740.3v-65000l1142-5740.3 3251-4866.3 4867-3251.6 5740-1141.8h3e4l5740 1141.8 4867 3251.6 3251 4866.3 1142 5740.3zm-82500-17500-1142 5740.3-3251 4866.3-4867 3251.6-5740 1141.8h-65000l-5740-1141.8-4867-3251.6-3251-4866.3-1142-5740.3v-3e4l1142-5740.3 3251-4866.3 4867-3251.6 5740-1141.8h65000l5740 1141.8 4867 3251.6 3251 4866.3 1142 5740.3zm0 8e4 -1142 5740.3-3251 4866.3-4867 3251.6-5740 1141.8h-65000l-5740-1141.8-4867-3251.6-3251-4866.3-1142-5740.3v-3e4l1142-5740.3 3251-4866.3 4867-3251.6 5740-1141.8h65000l5740 1141.8 4867 3251.6 3251 4866.3 1142 5740.3zm0 8e4 -1142 5740.3-3251 4866.3-4867 3251.6-5740 1141.8h-65000l-5740-1141.8-4867-3251.6-3251-4866.3-1142-5740.3v-3e4l1142-5740.3 3251-4866.3 4867-3251.6 5740-1141.8h65000l5740 1141.8 4867 3251.6 3251 4866.3 1142 5740.3zm0 8e4 -1142 5740.3-3251 4866.3-4867 3251.6-5740 1141.8h-65000l-5740-1141.8-4867-3251.6-3251-4866.3-1142-5740.3v-3e4l1142-5740.3 3251-4866.3 4867-3251.6 5740-1141.8h65000l5740 1141.8 4867 3251.6 3251 4866.3 1142 5740.3zm0 8e4 -1142 5740.3-3251 4866.3-4867 3251.6-5740 1141.8h-65000l-5740-1141.8-4867-3251.6-3251-4866.3-1142-5740.3v-3e4l1142-5740.3 3251-4866.3 4867-3251.6 5740-1141.8h65000l5740 1141.8 4867 3251.6 3251 4866.3 1142 5740.3zm0 8e4 -1142 5740.3-3251 4866.3-4867 3251.6-5740 1141.8h-65000l-5740-1141.8-4867-3251.6-3251-4866.3-1142-5740.3v-3e4l1142-5740.3 3251-4866.3 4867-3251.6 5740-1141.8h65000l5740 1141.8 4867 3251.6 3251 4866.3 1142 5740.3zm82500 17500-1142 5740.3-3251 4866.3-4867 3251.6-5740 1141.8h-3e4l-5740-1141.8-4867-3251.6-3251-4866.3-1142-5740.3v-65000l1142-5740.3 3251-4866.3 4867-3251.6 5740-1141.8h3e4l5740 1141.8 4867 3251.6 3251 4866.3 1142 5740.3z"/>
      <path d="m20175000 6837000v-1.7e5h1.7e5v1.7e5z"/>
     </g>
     <circle cx="2.026e7" cy="7006000" r="85000"/>
     <circle cx="2.026e7" cy="7.26e6" r="85000"/>
     <circle cx="2.026e7" cy="7514000" r="85000"/>
     <circle cx="2.026e7" cy="7768000" r="85000"/>
     <circle cx="2.026e7" cy="8022000" r="85000"/>
     <circle cx="2.026e7" cy="8276000" r="85000"/>
     <circle cx="2.026e7" cy="8.53e6" r="85000"/>
     <path d="m1.934e7 7153000h-65000v-106000h65000zm95000 0h-65000v-106000h65000zm95000 0h-65000v-106000h65000zm0-2.2e5h-65000v-106000h65000zm-1.9e5 0h-65000v-106000h65000z" fill-rule="evenodd" stroke-linecap="round" stroke-linejoin="round" stroke-width=".1"/>
     <path d="m19588500 8247500-761 3826.8-2168 3244.3-3244 2167.7-3827 761.2h-26000l-3827-761.2-3244-2167.7-2168-3244.3-761-3826.8v-2e4l761-3826.8 2168-3244.3 3244-2167.7 3827-761.2h26000l3827 761.2 3244 2167.7 2168 3244.3 761 3826.8zm-64000 0-761 3826.8-2168 3244.3-3244 2167.7-3827 761.2h-26000l-3827-761.2-3244-2167.7-2168-3244.3-761-3826.8v-2e4l761-3826.8 2168-3244.3 3244-2167.7 3827-761.2h26000l3827 761.2 3244 2167.7 2168 3244.3 761 3826.8z" fill-rule="evenodd" stroke-linecap="round" stroke-linejoin="round" stroke-width=".1"/>
     <circle cx="19125000" cy="7.7e6" r="4e4"/>
     <circle cx="19397550" cy="7.8e6" r="4e4"/>
     <circle cx="1.95e7" cy="7e6" r="4e4"/>
     <circle cx="19325000" cy="7e6" r="4e4"/>
     <circle cx="19692500" cy="7392500" r="4e4"/>
     <circle cx="1.94e7" cy="7.45e6" r="4e4"/>
     <circle cx="19774000" cy="8276000" r="4e4"/>
     <circle cx="1.94e7" cy="8275000" r="4e4"/>
     <circle cx="19275000" cy="7375000" r="4e4"/>
     <circle cx="2.005e7" cy="7525000" r="4e4"/>
     <circle cx="1.92e7" cy="7275000" r="4e4"/>
     <circle cx="2.005e7" cy="7375000" r="4e4"/>
     <circle cx="19735000" cy="8.11e6" r="4e4"/>
     <circle cx="19225000" cy="8175000" r="4e4"/>
    </g>
    <g fill="none" fill-opacity="0" stroke-width="25000">
     <path d="m1.94e7 7.8e6v-5e4l3e4 -3e4m-3e4 8e4h-2450m391450-105000-6500 6500m-309500-949500h787000m-635000 1123000h-125000m-7e4 -155000h65000m-92500-6.2e5v-302500m92500 842500h226000m1500 285000h-47500m-272500-747500 97500 97500m0 6e5 -5e3 5e3m-47000-1128000h25000m-70500 45500 45500-45500m341000 805500v137500m-294000 25000v-8e4m-272000-888000h2.5e5m-348000 98000 98000-98000m179500 348000v77500m-2500 672500v-5e4m275000 125000-5e4 -5e4m-5e5 -175000v-8.5e5m305000 1.03e6 -3e4 -3e4m95000 3e4h-65000m291000-2.4e5 61500 61500m-281000 536000v123500m323500-861000 5e4 5e4m-1.5e5 7500h-227500m4e3 6.8e5v-126500m-301500-1186000 45000-45000m2.5e5 1.08e6h115000m1.4e5 -4.6e5h75000m-38500 301500-4e3 -4e3m4e3 127500v-123500m88500-26500-22500 22500m-102500 202500 36500-36500m-259000-571000h-6e4m27500 32500 32500-32500m259000 571000v-38500m-291500-365000v-135000m155000 575000h1e5m-1.4e5 -4e4 4e4 4e4m-4e5 -775000-5e4 -5e4m301500 936000 1e3 -1e3m222500-585000 25000-25000m-25000 57500v-32500m-227500 32500-2500 2500m-195000-335000h-5e4m252500 885000v-142500m-1e3 393500 1500 1500m372000-812500v225000m-372500 192500-7500-7500m-2.5e5 -1.08e6h62500m1.6e5 512500-167500-167500m-1e5 -5e4v-2.5e5m652500 872500h-7e4m-282500-7e5 -2500 2500m98500 71000-71000-71000m494000-94000-269000 269000m-442500-257500 17500-17500m175000 0v97500m25000 2500h-27500m252500 175000h-154000m-288500-175000v-82500m288500 257500v-104000m664000-165000h-241000m-326500 386500h1.9e5m-291000 0h101000m1.9e5 0 132500-132500m-6.2e5 3e5v-105000m6.2e5 -195000h245000m-865000 195000 5e3 -5e3m-5e3 5.1e5v3.1e5m865000 6e3h-486000m-379000-6e3 5e3 5e3m262500-37500h-97000m135500 38500-38500-38500m111500 38500h-73000m-176000 174000 5e4 -5e4m-2.8e5 -4.4e5 3e4 3e4m2.5e5 380500-8e3 -8e3m-242000-372500v4.1e5m2.5e5 0v-29500m137500-8e3h-145500m-192000 87500h1.5e5m735000 8e4h-3.8e5m-555000-1.3e5 5e4 5e4m505000 8e4 -167500-167500m-417500-802500v-165000m755000 1.3e5h199000l11000-11000m-965000-119000-2e4 -2e4m768000 393000h217000m-3.1e5 -93000 93000 93000m-93000-293000v2e5m-7.1e5 -35000-4e4 -4e4m-25000-3e5 25000-25000m-25000 3e5v-275000m875000 75000-1e5 1e5m-7.5e5 125000-25000-25000m1.2e5 65000h-55000m55000 2.4e5h-5e4m-45000 2.7e5 25000 25000m2e4 -295000-45000 45000v225000m972000-4e4 88000-88000m-525000 88000h437000m-605500 0h168500"/>
    </g>
   </g>
  </g>
  <g fill="#f0f0f0" fill-opacity="0" mask="url(#d)" stroke="#f0f0f0" stroke-linecap="round" stroke-linejoin="round">
   <g class="stroked-text" stroke-width="62500">
    <path d="m18703244 9246666h119047m-142857 71429 83333-2.5e5 83334 2.5e5m83333 0v-2.5e5h59524l35714 11905 23810 23809 11904 23810 11905 47619v35714l-11905 47619-11904 23809-23810 23810-35714 11905h-59524m369048 0h-119048v-2.5e5m178571 0 166667 2.5e5m0-2.5e5 -166667 2.5e5m238096-2.5e5h154762l-83334 95238h35715l23809 11905 11905 11904 11905 23810v59524l-11905 23809-11905 11905-23809 11905h-71429l-23810-11905-11904-11905m369047-142857v166667m-59523-261905-59524 178571h154762m214285-166666h-119047l-11905 119047 11905-11904 23809-11905h59524l23810 11905 11904 11904 11905 23810v59524l-11905 23809-11904 11905-23810 11905h-59524l-23809-11905-11905-11905" fill="none"/>
   </g>
   <g stroke-width="37500">
    <g class="stroked-text" fill="none">
     <path d="m14982946 9775000h71429m-85715 42857 5e4 -1.5e5 5e4 1.5e5m135715-14286-7143 7143-21429 7143h-14286l-21428-7143-14286-14286-7143-14286-7143-28571v-21429l7143-28571 7143-14286 14286-14285 21428-7143h14286l21429 7143 7143 7142m1.5e5 121429-7143 7143-21429 7143h-14286l-21428-7143-14286-14286-7143-14286-7143-28571v-21429l7143-28571 7143-14286 14286-14285 21428-7143h14286l21429 7143 7143 7142m164285-14285 1e5 1.5e5m0-1.5e5 -1e5 1.5e5"/>
     <path d="m17517946 9765000h71429m-85715 42857 5e4 -1.5e5 5e4 1.5e5m135715-14286-7143 7143-21429 7143h-14286l-21428-7143-14286-14286-7143-14286-7143-28571v-21429l7143-28571 7143-14286 14286-14285 21428-7143h14286l21429 7143 7143 7142m1.5e5 121429-7143 7143-21429 7143h-14286l-21428-7143-14286-14286-7143-14286-7143-28571v-21429l7143-28571 7143-14286 14286-14285 21428-7143h14286l21429 7143 7143 7142m164285-14285h1e5l-1e5 1.5e5h1e5"/>
     <path d="m16242946 9775000h71429m-85715 42857 5e4 -1.5e5 5e4 1.5e5m135715-14286-7143 7143-21429 7143h-14286l-21428-7143-14286-14286-7143-14286-7143-28571v-21429l7143-28571 7143-14286 14286-14285 21428-7143h14286l21429 7143 7143 7142m1.5e5 121429-7143 7143-21429 7143h-14286l-21428-7143-14286-14286-7143-14286-7143-28571v-21429l7143-28571 7143-14286 14286-14285 21428-7143h14286l21429 7143 7143 7142m207142 64286v71429m-5e4 -1.5e5 5e4 78571 5e4 -78571"/>
    </g>
   </g>
   <g fill="none" stroke-width="12000">
    <path d="m19558783 7311000h-21567m21567-72000h-21567m281284 521283v-21567m-72000 21567v-21567m-295500-239716h105000m-217000 522000h-105000m105000-522000h-105000m893000-6.2e5h266000m-266000 1784000h266000m0-2044000v133000m0 127000v1784000m-266000-1784000v1784000m133000-2044000h133000m-1151500 281000v245000m322000-65000v-1.8e5"/>
   </g>
  </g>
  <g stroke="#000" stroke-width="15000">
   <g fill="none" fill-opacity="0" stroke-linecap="round" stroke-linejoin="round">
    <path d="m1.46e7 1.159e7h5.97e6m-5965000-5.87e6 -5e3 5.87e6m5.97e6 -5.87e6h-5965000m5965000 5.87e6v-5.87e6"/>
   </g>
   <path d="m2.021e7 6752000a5e4 5e4 0 1 1 1e5 0 5e4 5e4 0 1 1-1e5 0zm0 254000a5e4 5e4 0 1 1 1e5 0 5e4 5e4 0 1 1-1e5 0zm0 254000a5e4 5e4 0 1 1 1e5 0 5e4 5e4 0 1 1-1e5 0zm0 254000a5e4 5e4 0 1 1 1e5 0 5e4 5e4 0 1 1-1e5 0zm0 254000a5e4 5e4 0 1 1 1e5 0 5e4 5e4 0 1 1-1e5 0zm0 254000a5e4 5e4 0 1 1 1e5 0 5e4 5e4 0 1 1-1e5 0zm0 254000a5e4 5e4 0 1 1 1e5 0 5e4 5e4 0 1 1-1e5 0zm0 254000a5e4 5e4 0 1 1 1e5 0 5e4 5e4 0 1 1-1e5 0zm-1105000-8.3e5a2e4 2e4 0 1 1 4e4 0 2e4 2e4 0 1 1-4e4 0zm272550 1e5a2e4 2e4 0 1 1 4e4 0 2e4 2e4 0 1 1-4e4 0zm102450-8e5a2e4 2e4 0 1 1 4e4 0 2e4 2e4 0 1 1-4e4 0zm-175000 0a2e4 2e4 0 1 1 4e4 0 2e4 2e4 0 1 1-4e4 0zm367500 392500a2e4 2e4 0 1 1 4e4 0 2e4 2e4 0 1 1-4e4 0zm-292500 57500a2e4 2e4 0 1 1 4e4 0 2e4 2e4 0 1 1-4e4 0zm374000 826000a2e4 2e4 0 1 1 4e4 0 2e4 2e4 0 1 1-4e4 0zm-374000-1e3a2e4 2e4 0 1 1 4e4 0 2e4 2e4 0 1 1-4e4 0zm-125000-9e5a2e4 2e4 0 1 1 4e4 0 2e4 2e4 0 1 1-4e4 0zm775000 1.5e5a2e4 2e4 0 1 1 4e4 0 2e4 2e4 0 1 1-4e4 0zm-8.5e5 -2.5e5a2e4 2e4 0 1 1 4e4 0 2e4 2e4 0 1 1-4e4 0zm8.5e5 1e5a2e4 2e4 0 1 1 4e4 0 2e4 2e4 0 1 1-4e4 0zm-315000 735000a2e4 2e4 0 1 1 4e4 0 2e4 2e4 0 1 1-4e4 0zm-5.1e5 65000a2e4 2e4 0 1 1 4e4 0 2e4 2e4 0 1 1-4e4 0z"/>
  </g>
 </g>
 <g transform="matrix(-1e5 0 0 -1e5 1.968e7 7926343)">
  <g id="e">
   <path d="m0.163 1.148v-0.27h0.3v0.27z" fill="#f95" stroke="#000" stroke-width=".013229"/>
   <g transform="matrix(1 0 0 -1 .313 1.013)">
    <path d="m-0.3 0.15h0.15v-0.3h-0.15zm0.45-0.3h0.15v0.3h-0.15z" fill="#b3b3b3" fill-rule="evenodd" stroke="#191919" stroke-width=".013229"/>
    <path d="m-0.3-0.135h0.15m-0.15 0.27h0.15m0-0.015h0.3m-0.3-0.24h0.3m0-0.015h0.15m-0.15 0.27h0.15" fill="none" stroke="#191919" stroke-width=".013229"/>
   </g>
  </g>
 </g>
 <g>
  <path d="m19412173 7152043h6e4v46000h-6e4z" fill="#ffb380" stroke="#000" stroke-width="1322.9"/>
  <g transform="matrix(-1e5 0 0 1e5 19442173 7175043)" fill="#b3b3b3" fill-rule="evenodd" stroke="#191919" stroke-width=".013229">
   <path d="m-0.3 0.25v-0.5h-0.2v0.5zm0.8 0v-0.5h-0.2v0.5z"/>
   <path d="m-0.5-0.23h0.2m-0.2 0.46h0.2m0-0.02h0.6m-0.6-0.42h0.6m0-0.02h0.2m-0.2 0.46h0.2"/>
  </g>
  <path d="m1.97e7 7619537v6e4h-46000v-6e4z" fill="#ffb380" stroke="#000" stroke-width="1322.9"/>
  <g transform="matrix(0 -1e5 -1e5 0 19676660 7649537)" fill="#b3b3b3" fill-rule="evenodd" stroke="#191919" stroke-width=".013229">
   <path d="m-0.3 0.25v-0.5h-0.2v0.5zm0.8 0v-0.5h-0.2v0.5z"/>
   <path d="m-0.5-0.23h0.2m-0.2 0.46h0.2m0-0.02h0.6m-0.6-0.42h0.6m0-0.02h0.2m-0.2 0.46h0.2"/>
  </g>
 </g>
 <use transform="matrix(1e5 0 0 1e5 1.962e7 7356243)" width="100%" height="100%" xlink:href="#e"/>
 <g transform="matrix(-1e5 0 0 -1e5 1.946e7 8111343)">
  <g id="f" transform="matrix(1 0 0 -1 .313 1.013)">
   <path d="m-0.2-0.15h-0.1v0.3h0.1zm0.4 0h0.1v0.3h-0.1z" fill="#999" fill-rule="evenodd" stroke="#191919" stroke-width=".013229"/>
   <path d="m-0.2 0.15h0.4v-0.3h-0.4z" fill="#333" fill-rule="evenodd" stroke="#191919" stroke-width=".013229"/>
   <path d="m-0.277-0.15v0.3" fill="none" stroke="#191919" stroke-width=".013229"/>
   <path d="m-0.223-0.15v0.3m0.5-0.3v0.3m-0.054-0.3v0.3" fill="none" stroke="#191919" stroke-width=".013229"/>
  </g>
 </g>
 <use transform="matrix(-1e5 0 0 -1e5 1.946e7 8363843)" width="100%" height="100%" xlink:href="#f"/>
 <g transform="matrix(-1e5 0 0 1e5 19453673 7292543)" stroke="#191919" stroke-width=".013229">
  <path d="m-0.2-0.15h-0.1v0.3h0.1zm0.4 0h0.1v0.3h-0.1z" fill="#999" fill-rule="evenodd"/>
  <path d="m-0.2 0.15h0.4v-0.3h-0.4z" fill="#333" fill-rule="evenodd"/>
  <path d="m-0.277-0.15v0.3" fill="none"/>
  <path d="m-0.223-0.15v0.3m0.5-0.3v0.3m-0.054-0.3v0.3" fill="none"/>
 </g>
 <g transform="matrix(-1e5 0 0 1e5 19289173 7.66e6)" stroke="#191919" stroke-width=".1">
  <path d="m-1.5 2.5h3v-5h-3z" fill="#333" fill-rule="evenodd"/>
  <circle cx="-1" cy="2" r=".1" fill="#666"/>
 </g>
 <g transform="translate(-105827 -99957)" stroke="#000" stroke-width=".092604">
  <path transform="matrix(1e5 0 0 1e5 2.013e7 6622460)" d="m2.565 0.025h-2.54v20.32h2.54z" fill="#1a1a1a" fill-rule="evenodd"/>
  <path transform="matrix(1e5 0 0 1e5 2.013e7 6622460)" d="m0.695 19.675h1.2v-1.2h-1.2z" fill="#666" fill-rule="evenodd"/>
  <path transform="matrix(1e5 0 0 1e5 2.013e7 6622460)" d="m0.995 19.375h0.6v-0.6h-0.6z" fill="#808000" fill-rule="evenodd"/>
  <path transform="matrix(1e5 0 0 1e5 2.013e7 6622460)" d="m0.695 19.675 0.3-0.299m0.9 0.299-0.299-0.299m-0.602 0h0.602m-0.901-0.901 0.3 0.3m-1e-3 -1e-3v0.602m0.901-0.901-0.299 0.3m0-1e-3h-0.602m0.602 0.602v-0.602m-0.401 0.051v-0.05m0 0.55v-0.5m0 0.55v-0.05m0.2 0.05v-0.05m-0.2 0h0.2v-0.55m-0.2 0.05h0.2" fill="none"/>
  <path transform="matrix(1e5 0 0 1e5 2.013e7 6368460)" d="m0.695 19.675h1.2v-1.2h-1.2z" fill="#666" fill-rule="evenodd"/>
  <path transform="matrix(1e5 0 0 1e5 2.013e7 6368460)" d="m0.995 19.375h0.6v-0.6h-0.6z" fill="#808000" fill-rule="evenodd"/>
  <path transform="matrix(1e5 0 0 1e5 2.013e7 6368460)" d="m0.695 19.675 0.3-0.299m0.9 0.299-0.299-0.299m-0.602 0h0.602m-0.901-0.901 0.3 0.3m-1e-3 -1e-3v0.602m0.901-0.901-0.299 0.3m0-1e-3h-0.602m0.602 0.602v-0.602m-0.401 0.051v-0.05m0 0.55v-0.5m0 0.55v-0.05m0.2 0.05v-0.05m-0.2 0h0.2v-0.55m-0.2 0.05h0.2" fill="none"/>
  <path transform="matrix(1e5 0 0 1e5 2.013e7 6114460)" d="m0.695 19.675h1.2v-1.2h-1.2z" fill="#666" fill-rule="evenodd"/>
  <path transform="matrix(1e5 0 0 1e5 2.013e7 6114460)" d="m0.995 19.375h0.6v-0.6h-0.6z" fill="#808000" fill-rule="evenodd"/>
  <path transform="matrix(1e5 0 0 1e5 2.013e7 6114460)" d="m0.695 19.675 0.3-0.299m0.9 0.299-0.299-0.299m-0.602 0h0.602m-0.901-0.901 0.3 0.3m-1e-3 -1e-3v0.602m0.901-0.901-0.299 0.3m0-1e-3h-0.602m0.602 0.602v-0.602m-0.401 0.051v-0.05m0 0.55v-0.5m0 0.55v-0.05m0.2 0.05v-0.05m-0.2 0h0.2v-0.55m-0.2 0.05h0.2" fill="none"/>
  <path transform="matrix(1e5 0 0 1e5 2.013e7 5860460)" d="m0.695 19.675h1.2v-1.2h-1.2z" fill="#666" fill-rule="evenodd"/>
  <path transform="matrix(1e5 0 0 1e5 2.013e7 5860460)" d="m0.995 19.375h0.6v-0.6h-0.6z" fill="#808000" fill-rule="evenodd"/>
  <path transform="matrix(1e5 0 0 1e5 2.013e7 5860460)" d="m0.695 19.675 0.3-0.299m0.9 0.299-0.299-0.299m-0.602 0h0.602m-0.901-0.901 0.3 0.3m-1e-3 -1e-3v0.602m0.901-0.901-0.299 0.3m0-1e-3h-0.602m0.602 0.602v-0.602m-0.401 0.051v-0.05m0 0.55v-0.5m0 0.55v-0.05m0.2 0.05v-0.05m-0.2 0h0.2v-0.55m-0.2 0.05h0.2" fill="none"/>
  <path transform="matrix(1e5 0 0 1e5 2.013e7 5606460)" d="m0.695 19.675h1.2v-1.2h-1.2z" fill="#666" fill-rule="evenodd"/>
  <path transform="matrix(1e5 0 0 1e5 2.013e7 5606460)" d="m0.995 19.375h0.6v-0.6h-0.6z" fill="#808000" fill-rule="evenodd"/>
  <path transform="matrix(1e5 0 0 1e5 2.013e7 5606460)" d="m0.695 19.675 0.3-0.299m0.9 0.299-0.299-0.299m-0.602 0h0.602m-0.901-0.901 0.3 0.3m-1e-3 -1e-3v0.602m0.901-0.901-0.299 0.3m0-1e-3h-0.602m0.602 0.602v-0.602m-0.401 0.051v-0.05m0 0.55v-0.5m0 0.55v-0.05m0.2 0.05v-0.05m-0.2 0h0.2v-0.55m-0.2 0.05h0.2" fill="none"/>
  <path transform="matrix(1e5 0 0 1e5 2.013e7 5352460)" d="m0.695 19.675h1.2v-1.2h-1.2z" fill="#666" fill-rule="evenodd"/>
  <path transform="matrix(1e5 0 0 1e5 2.013e7 5352460)" d="m0.995 19.375h0.6v-0.6h-0.6z" fill="#808000" fill-rule="evenodd"/>
  <path transform="matrix(1e5 0 0 1e5 2.013e7 5352460)" d="m0.695 19.675 0.3-0.299m0.9 0.299-0.299-0.299m-0.602 0h0.602m-0.901-0.901 0.3 0.3m-1e-3 -1e-3v0.602m0.901-0.901-0.299 0.3m0-1e-3h-0.602m0.602 0.602v-0.602m-0.401 0.051v-0.05m0 0.55v-0.5m0 0.55v-0.05m0.2 0.05v-0.05m-0.2 0h0.2v-0.55m-0.2 0.05h0.2" fill="none"/>
  <path transform="matrix(1e5 0 0 1e5 2.013e7 5098460)" d="m0.695 19.675h1.2v-1.2h-1.2z" fill="#666" fill-rule="evenodd"/>
  <path transform="matrix(1e5 0 0 1e5 2.013e7 5098460)" d="m0.995 19.375h0.6v-0.6h-0.6z" fill="#808000" fill-rule="evenodd"/>
  <path transform="matrix(1e5 0 0 1e5 2.013e7 5098460)" d="m0.695 19.675 0.3-0.299m0.9 0.299-0.299-0.299m-0.602 0h0.602m-0.901-0.901 0.3 0.3m-1e-3 -1e-3v0.602m0.901-0.901-0.299 0.3m0-1e-3h-0.602m0.602 0.602v-0.602m-0.401 0.051v-0.05m0 0.55v-0.5m0 0.55v-0.05m0.2 0.05v-0.05m-0.2 0h0.2v-0.55m-0.2 0.05h0.2" fill="none"/>
  <path transform="matrix(1e5 0 0 1e5 2.013e7 4844460)" d="m0.695 19.675h1.2v-1.2h-1.2z" fill="#666" fill-rule="evenodd"/>
  <path transform="matrix(1e5 0 0 1e5 2.013e7 4844460)" d="m0.995 19.375h0.6v-0.6h-0.6z" fill="#808000" fill-rule="evenodd"/>
  <path transform="matrix(1e5 0 0 1e5 2.013e7 4844460)" d="m0.695 19.675 0.3-0.299m0.9 0.299-0.299-0.299m-0.602 0h0.602m-0.901-0.901 0.3 0.3m-1e-3 -1e-3v0.602m0.901-0.901-0.299 0.3m0-1e-3h-0.602m0.602 0.602v-0.602m-0.401 0.051v-0.05m0 0.55v-0.5m0 0.55v-0.05m0.2 0.05v-0.05m-0.2 0h0.2v-0.55m-0.2 0.05h0.2" fill="none"/>
  <path transform="matrix(0 -1e5 1e5 0 19254700 7132800)" d="m0.723 0.028h1.41l0.095 0.095m-0.095-0.095-0.013 0.025m-1.384 0h1.384m-1.397-0.025 0.013 0.025m-0.108 0.07 0.095-0.095m1.505 0.095v0.155m0 2.4v0.155m0-2.055v1.4m0 0.655-0.095 0.095h-1.41l-0.095-0.095v-0.155m0-2.4v-0.155m0 2.055v-0.45m0-0.5v-0.45m1.6-0.655-0.025 0.013m-0.083-0.083 0.083 0.083m-0.083-0.083-0.045 0.091m-1.339-0.091 0.044 0.091m-0.127-8e-3 0.083-0.083m-0.108 0.07 0.025 0.013m1.55 0v0.142m0.025 2.555-0.025-0.013m0-0.142v0.143m0-2.043v1.4m-0.07 0.75-0.013-0.025m0.083-0.083-0.083 0.083m-1.397 0.025 0.013-0.025m1.384 0h-1.385m-0.107-0.07 0.025-0.013m0.083 0.083-0.083-0.083v-0.142m-0.075 0h0.05m0.025-2.4v-0.143m-0.075 2.043h0.05m0.025 0v-0.45m0-0.5v-0.45m1.55-0.642-0.091 0.044m-0.037-0.036 0.037 0.037m0 2.594-0.037 0.037" fill="none"/>
  <path transform="matrix(0 -1e5 1e5 0 19254700 7132800)" d="m2.075 2.812h-1.295l-0.037-0.037v-2.595l0.038-0.036h1.294l0.037 0.037v2.594z" fill="#1a1a1a" fill-rule="evenodd"/>
  <path transform="matrix(0 -1e5 1e5 0 19254700 7132800)" d="m0.781 2.812-0.037-0.037m0-2.594 0.037-0.037m-0.128-8e-3 0.091 0.044m1.459 2.64-0.091-0.045m8e-3 0.128-0.045-0.091m-1.339 0.091 0.045-0.091m-0.128 8e-3 0.091-0.045" fill="none"/>
  <path transform="matrix(0 -1e5 1e5 0 19254700 7132800)" d="m0.653 2.678v-0.5" fill="none"/>
  <path transform="matrix(0 -1e5 1e5 0 19254700 7132800)" d="m0.028 2.678v-0.5h0.55v0.5h-0.35z" fill="#808080" fill-rule="evenodd"/>
  <path transform="matrix(0 -1e5 1e5 0 19254700 7132800)" d="m0.328 2.678v-0.5m-0.1 0.5v-0.5" fill="none"/>
  <path transform="matrix(0 -1e5 1e5 0 19254700 7132800)" d="m0.628 2.678h0.025m-0.025-0.5h0.025" fill="none"/>
  <path transform="matrix(0 -1e5 1e5 0 1.916e7 7132800)" d="m0.653 2.678v-0.5" fill="none"/>
  <path transform="matrix(0 -1e5 1e5 0 1.916e7 7132800)" d="m0.028 2.678v-0.5h0.55v0.5h-0.35z" fill="#808080" fill-rule="evenodd"/>
  <path transform="matrix(0 -1e5 1e5 0 1.916e7 7132800)" d="m0.328 2.678v-0.5m-0.1 0.5v-0.5" fill="none"/>
  <path transform="matrix(0 -1e5 1e5 0 19064700 7132800)" d="m0.653 2.678v-0.5" fill="none"/>
  <path transform="matrix(0 -1e5 1e5 0 19064700 7132800)" d="m0.028 2.678v-0.5h0.55v0.5h-0.35z" fill="#808080" fill-rule="evenodd"/>
  <path transform="matrix(0 -1e5 1e5 0 19064700 7132800)" d="m0.328 2.678v-0.5m-0.1 0.5v-0.5" fill="none"/>
  <path transform="matrix(0 1e5 -1e5 0 1.974e7 6847200)" d="m0.653 2.678v-0.5" fill="none"/>
  <path transform="matrix(0 1e5 -1e5 0 1.974e7 6847200)" d="m0.028 2.678v-0.5h0.55v0.5h-0.35z" fill="#808080" fill-rule="evenodd"/>
  <path transform="matrix(0 1e5 -1e5 0 1.974e7 6847200)" d="m0.328 2.678v-0.5m-0.1 0.5v-0.5" fill="none"/>
  <path transform="matrix(0 1e5 -1e5 0 1.955e7 6847200)" d="m0.653 2.678v-0.5" fill="none"/>
  <path transform="matrix(0 1e5 -1e5 0 1.955e7 6847200)" d="m0.028 2.678v-0.5h0.55v0.5h-0.35z" fill="#808080" fill-rule="evenodd"/>
  <path transform="matrix(0 1e5 -1e5 0 1.955e7 6847200)" d="m0.328 2.678v-0.5m-0.1 0.5v-0.5" fill="none"/>
 </g>
 <use transform="matrix(-1e5 0 0 -1e5 19458973 8238843)" width="100%" height="100%" xlink:href="#f"/>
</svg>
