<svg width="292" height="287" viewBox="14600000 5720000 5970000 5870000" xmlns="http://www.w3.org/2000/svg" xmlns:xlink="http://www.w3.org/1999/xlink"><defs><mask id="c"><g fill="#fff" fill-opacity="1" stroke="#fff" stroke-linecap="round" stroke-linejoin="round" stroke-width=".1"><path d="m19810000 7935000-761.2 3826.8-2167.7 3244.3-3244.3 2167.7-3826.8 761.2h-26000l-3826.8-761.2-3244.3-2167.7-2167.7-3244.3-761.2-3826.8v-20000l761.2-3826.8 2167.7-3244.3 3244.3-2167.7 3826.8-761.2h26000l3826.8 761.2 3244.3 2167.7 2167.7 3244.3 761.2 3826.8zM19745500 7935000l-761.2 3826.8-2167.7 3244.3-3244.3 2167.7-3826.8 761.2h-26000l-3826.8-761.2-3244.3-2167.7-2167.7-3244.3-761.2-3826.8v-20000l761.2-3826.8 2167.7-3244.3 3244.3-2167.7 3826.8-761.2h26000l3826.8 761.2 3244.3 2167.7 2167.7 3244.3 761.2 3826.8zM19624000 7292000l-1065.7 5357.6-3034.8 4541.9-4541.9 3034.8-5357.6 1065.7h-28000l-5357.6-1065.7-4541.9-3034.8-3034.8-4541.9-1065.7-5357.6v-34000l1065.7-5357.6 3034.8-4541.9 4541.9-3034.8 5357.6-1065.7h28000l5357.6 1065.7 4541.9 3034.8 3034.8 4541.9 1065.7 5357.6zM19528000 7292000l-1065.7 5357.6-3034.8 4541.9-4541.9 3034.8-5357.6 1065.7h-28000l-5357.6-1065.7-4541.9-3034.8-3034.8-4541.9-1065.7-5357.6v-34000l1065.7-5357.6 3034.8-4541.9 4541.9-3034.8 5357.6-1065.7h28000l5357.6 1065.7 4541.9 3034.8 3034.8 4541.9 1065.7 5357.6zM19765500 7825500l-5357.6-1065.7-4541.9-3034.8-3034.8-4541.9-1065.7-5357.6v-28000l1065.7-5357.6 3034.8-4541.9 4541.9-3034.8 5357.6-1065.7h34000l5357.6 1065.7 4541.9 3034.8 3034.8 4541.9 1065.7 5357.6v28000l-1065.7 5357.6-3034.8 4541.9-4541.9 3034.8-5357.6 1065.7zM19765500 7729500l-5357.6-1065.7-4541.9-3034.8-3034.8-4541.9-1065.7-5357.6v-28000l1065.7-5357.6 3034.8-4541.9 4541.9-3034.8 5357.6-1065.7h34000l5357.6 1065.7 4541.9 3034.8 3034.8 4541.9 1065.7 5357.6v28000l-1065.7 5357.6-3034.8 4541.9-4541.9 3034.8-5357.6 1065.7zM19702000 7547500l761.2-3826.8 2167.7-3244.3 3244.3-2167.7 3826.8-761.2h26000l3826.8 761.2 3244.3 2167.7 2167.7 3244.3 761.2 3826.8v20000l-761.2 3826.8-2167.7 3244.3-3244.3 2167.7-3826.8 761.2h-26000l-3826.8-761.2-3244.3-2167.7-2167.7-3244.3-761.2-3826.8zM19766000 7547500l761.2-3826.8 2167.7-3244.3 3244.3-2167.7 3826.8-761.2h26000l3826.8 761.2 3244.3 2167.7 2167.7 3244.3 761.2 3826.8v20000l-761.2 3826.8-2167.7 3244.3-3244.3 2167.7-3826.8 761.2h-26000l-3826.8-761.2-3244.3-2167.7-2167.7-3244.3-761.2-3826.8zM19590000 8120000l-761.2 3826.8-2167.7 3244.3-3244.3 2167.7-3826.8 761.2h-26000l-3826.8-761.2-3244.3-2167.7-2167.7-3244.3-761.2-3826.8v-20000l761.2-3826.8 2167.7-3244.3 3244.3-2167.7 3826.8-761.2h26000l3826.8 761.2 3244.3 2167.7 2167.7 3244.3 761.2 3826.8zM19525500 8120000l-761.2 3826.8-2167.7 3244.3-3244.3 2167.7-3826.8 761.2h-26000l-3826.8-761.2-3244.3-2167.7-2167.7-3244.3-761.2-3826.8v-20000l761.2-3826.8 2167.7-3244.3 3244.3-2167.7 3826.8-761.2h26000l3826.8 761.2 3244.3 2167.7 2167.7 3244.3 761.2 3826.8zM19590000 8372500l-761.2 3826.8-2167.7 3244.3-3244.3 2167.7-3826.8 761.2h-26000l-3826.8-761.2-3244.3-2167.7-2167.7-3244.3-761.2-3826.8v-20000l761.2-3826.8 2167.7-3244.3 3244.3-2167.7 3826.8-761.2h26000l3826.8 761.2 3244.3 2167.7 2167.7 3244.3 761.2 3826.8zM19526000 8372500l-761.2 3826.8-2167.7 3244.3-3244.3 2167.7-3826.8 761.2h-26000l-3826.8-761.2-3244.3-2167.7-2167.7-3244.3-761.2-3826.8v-20000l761.2-3826.8 2167.7-3244.3 3244.3-2167.7 3826.8-761.2h26000l3826.8 761.2 3244.3 2167.7 2167.7 3244.3 761.2 3826.8zM19614500 7402500l-761.2 3826.8-2167.7 3244.3-3244.3 2167.7-3826.8 761.2h-26000l-3826.8-761.2-3244.3-2167.7-2167.7-3244.3-761.2-3826.8v-20000l761.2-3826.8 2167.7-3244.3 3244.3-2167.7 3826.8-761.2h26000l3826.8 761.2 3244.3 2167.7 2167.7 3244.3 761.2 3826.8zM19550000 7402500l-761.2 3826.8-2167.7 3244.3-3244.3 2167.7-3826.8 761.2h-26000l-3826.8-761.2-3244.3-2167.7-2167.7-3244.3-761.2-3826.8v-20000l761.2-3826.8 2167.7-3244.3 3244.3-2167.7 3826.8-761.2h26000l3826.8 761.2 3244.3 2167.7 2167.7 3244.3 761.2 3826.8zM19542500 7975000l-1141.8 5740.3-3251.6 4866.3-4866.3 3251.6-5740.3 1141.8h-65000l-5740.3-1141.8-4866.3-3251.6-3251.6-4866.3-1141.8-5740.3v-30000l1141.8-5740.3 3251.6-4866.3 4866.3-3251.6 5740.3-1141.8h65000l5740.3 1141.8 4866.3 3251.6 3251.6 4866.3 1141.8 5740.3zM19542500 7895000l-1141.8 5740.3-3251.6 4866.3-4866.3 3251.6-5740.3 1141.8h-65000l-5740.3-1141.8-4866.3-3251.6-3251.6-4866.3-1141.8-5740.3v-30000l1141.8-5740.3 3251.6-4866.3 4866.3-3251.6 5740.3-1141.8h65000l5740.3 1141.8 4866.3 3251.6 3251.6 4866.3 1141.8 5740.3zM19542500 7815000l-1141.8 5740.3-3251.6 4866.3-4866.3 3251.6-5740.3 1141.8h-65000l-5740.3-1141.8-4866.3-3251.6-3251.6-4866.3-1141.8-5740.3v-30000l1141.8-5740.3 3251.6-4866.3 4866.3-3251.6 5740.3-1141.8h65000l5740.3 1141.8 4866.3 3251.6 3251.6 4866.3 1141.8 5740.3zM19542500 7735000l-1141.8 5740.3-3251.6 4866.3-4866.3 3251.6-5740.3 1141.8h-65000l-5740.3-1141.8-4866.3-3251.6-3251.6-4866.3-1141.8-5740.3v-30000l1141.8-5740.3 3251.6-4866.3 4866.3-3251.6 5740.3-1141.8h65000l5740.3 1141.8 4866.3 3251.6 3251.6 4866.3 1141.8 5740.3zM19542500 7655000l-1141.8 5740.3-3251.6 4866.3-4866.3 3251.6-5740.3 1141.8h-65000l-5740.3-1141.8-4866.3-3251.6-3251.6-4866.3-1141.8-5740.3v-30000l1141.8-5740.3 3251.6-4866.3 4866.3-3251.6 5740.3-1141.8h65000l5740.3 1141.8 4866.3 3251.6 3251.6 4866.3 1141.8 5740.3zM19542500 7575000l-1141.8 5740.3-3251.6 4866.3-4866.3 3251.6-5740.3 1141.8h-65000l-5740.3-1141.8-4866.3-3251.6-3251.6-4866.3-1141.8-5740.3v-30000l1141.8-5740.3 3251.6-4866.3 4866.3-3251.6 5740.3-1141.8h65000l5740.3 1141.8 4866.3 3251.6 3251.6 4866.3 1141.8 5740.3zM19425000 7592500l-1141.8 5740.3-3251.6 4866.3-4866.3 3251.6-5740.3 1141.8h-30000l-5740.3-1141.8-4866.3-3251.6-3251.6-4866.3-1141.8-5740.3v-65000l1141.8-5740.3 3251.6-4866.3 4866.3-3251.6 5740.3-1141.8h30000l5740.3 1141.8 4866.3 3251.6 3251.6 4866.3 1141.8 5740.3zM19342500 7575000l-1141.8 5740.3-3251.6 4866.3-4866.3 3251.6-5740.3 1141.8h-65000l-5740.3-1141.8-4866.3-3251.6-3251.6-4866.3-1141.8-5740.3v-30000l1141.8-5740.3 3251.6-4866.3 4866.3-3251.6 5740.3-1141.8h65000l5740.3 1141.8 4866.3 3251.6 3251.6 4866.3 1141.8 5740.3zM19342500 7655000l-1141.8 5740.3-3251.6 4866.3-4866.3 3251.6-5740.3 1141.8h-65000l-5740.3-1141.8-4866.3-3251.6-3251.6-4866.3-1141.8-5740.3v-30000l1141.8-5740.3 3251.6-4866.3 4866.3-3251.6 5740.3-1141.8h65000l5740.3 1141.8 4866.3 3251.6 3251.6 4866.3 1141.8 5740.3zM19342500 7735000l-1141.8 5740.3-3251.6 4866.3-4866.3 3251.6-5740.3 1141.8h-65000l-5740.3-1141.8-4866.3-3251.6-3251.6-4866.3-1141.8-5740.3v-30000l1141.8-5740.3 3251.6-4866.3 4866.3-3251.6 5740.3-1141.8h65000l5740.3 1141.8 4866.3 3251.6 3251.6 4866.3 1141.8 5740.3zM19342500 7815000l-1141.8 5740.3-3251.6 4866.3-4866.3 3251.6-5740.3 1141.8h-65000l-5740.3-1141.8-4866.3-3251.6-3251.6-4866.3-1141.8-5740.3v-30000l1141.8-5740.3 3251.6-4866.3 4866.3-3251.6 5740.3-1141.8h65000l5740.3 1141.8 4866.3 3251.6 3251.6 4866.3 1141.8 5740.3zM19342500 7895000l-1141.8 5740.3-3251.6 4866.3-4866.3 3251.6-5740.3 1141.8h-65000l-5740.3-1141.8-4866.3-3251.6-3251.6-4866.3-1141.8-5740.3v-30000l1141.8-5740.3 3251.6-4866.3 4866.3-3251.6 5740.3-1141.8h65000l5740.3 1141.8 4866.3 3251.6 3251.6 4866.3 1141.8 5740.3zM19342500 7975000l-1141.8 5740.3-3251.6 4866.3-4866.3 3251.6-5740.3 1141.8h-65000l-5740.3-1141.8-4866.3-3251.6-3251.6-4866.3-1141.8-5740.3v-30000l1141.8-5740.3 3251.6-4866.3 4866.3-3251.6 5740.3-1141.8h65000l5740.3 1141.8 4866.3 3251.6 3251.6 4866.3 1141.8 5740.3zM19425000 7992500l-1141.8 5740.3-3251.6 4866.3-4866.3 3251.6-5740.3 1141.8h-30000l-5740.3-1141.8-4866.3-3251.6-3251.6-4866.3-1141.8-5740.3v-65000l1141.8-5740.3 3251.6-4866.3 4866.3-3251.6 5740.3-1141.8h30000l5740.3 1141.8 4866.3 3251.6 3251.6 4866.3 1141.8 5740.3zM20175000 6837000v-170000h170000v170000z" fill-rule="evenodd"/><circle cx="20260000" cy="7006000" r="85000"/><circle cx="20260000" cy="7260000" r="85000"/><circle cx="20260000" cy="7514000" r="85000"/><circle cx="20260000" cy="7768000" r="85000"/><circle cx="20260000" cy="8022000" r="85000"/><circle cx="20260000" cy="8276000" r="85000"/><circle cx="20260000" cy="8530000" r="85000"/><path d="M19340000 7153000h-65000v-106000h65000zM19435000 7153000h-65000v-106000h65000zM19530000 7153000h-65000v-106000h65000zM19530000 6933000h-65000v-106000h65000zM19340000 6933000h-65000v-106000h65000zM19588500 8247500l-761.2 3826.8-2167.7 3244.3-3244.3 2167.7-3826.8 761.2h-26000l-3826.8-761.2-3244.3-2167.7-2167.7-3244.3-761.2-3826.8v-20000l761.2-3826.8 2167.7-3244.3 3244.3-2167.7 3826.8-761.2h26000l3826.8 761.2 3244.3 2167.7 2167.7 3244.3 761.2 3826.8zM19524500 8247500l-761.2 3826.8-2167.7 3244.3-3244.3 2167.7-3826.8 761.2h-26000l-3826.8-761.2-3244.3-2167.7-2167.7-3244.3-761.2-3826.8v-20000l761.2-3826.8 2167.7-3244.3 3244.3-2167.7 3826.8-761.2h26000l3826.8 761.2 3244.3 2167.7 2167.7 3244.3 761.2 3826.8z" fill-rule="evenodd"/></g></mask><mask id="d"><path fill="#fff" d="M14597500 5717500h5999286v5875000h-5999286z"/><g fill-opacity="1" stroke="#000" stroke-linecap="round" stroke-linejoin="round" stroke-width=".1"><path d="m19810000 7935000-761.2 3826.8-2167.7 3244.3-3244.3 2167.7-3826.8 761.2h-26000l-3826.8-761.2-3244.3-2167.7-2167.7-3244.3-761.2-3826.8v-20000l761.2-3826.8 2167.7-3244.3 3244.3-2167.7 3826.8-761.2h26000l3826.8 761.2 3244.3 2167.7 2167.7 3244.3 761.2 3826.8zM19745500 7935000l-761.2 3826.8-2167.7 3244.3-3244.3 2167.7-3826.8 761.2h-26000l-3826.8-761.2-3244.3-2167.7-2167.7-3244.3-761.2-3826.8v-20000l761.2-3826.8 2167.7-3244.3 3244.3-2167.7 3826.8-761.2h26000l3826.8 761.2 3244.3 2167.7 2167.7 3244.3 761.2 3826.8zM19624000 7292000l-1065.7 5357.6-3034.8 4541.9-4541.9 3034.8-5357.6 1065.7h-28000l-5357.6-1065.7-4541.9-3034.8-3034.8-4541.9-1065.7-5357.6v-34000l1065.7-5357.6 3034.8-4541.9 4541.9-3034.8 5357.6-1065.7h28000l5357.6 1065.7 4541.9 3034.8 3034.8 4541.9 1065.7 5357.6zM19528000 7292000l-1065.7 5357.6-3034.8 4541.9-4541.9 3034.8-5357.6 1065.7h-28000l-5357.6-1065.7-4541.9-3034.8-3034.8-4541.9-1065.7-5357.6v-34000l1065.7-5357.6 3034.8-4541.9 4541.9-3034.8 5357.6-1065.7h28000l5357.6 1065.7 4541.9 3034.8 3034.8 4541.9 1065.7 5357.6zM19765500 7825500l-5357.6-1065.7-4541.9-3034.8-3034.8-4541.9-1065.7-5357.6v-28000l1065.7-5357.6 3034.8-4541.9 4541.9-3034.8 5357.6-1065.7h34000l5357.6 1065.7 4541.9 3034.8 3034.8 4541.9 1065.7 5357.6v28000l-1065.7 5357.6-3034.8 4541.9-4541.9 3034.8-5357.6 1065.7zM19765500 7729500l-5357.6-1065.7-4541.9-3034.8-3034.8-4541.9-1065.7-5357.6v-28000l1065.7-5357.6 3034.8-4541.9 4541.9-3034.8 5357.6-1065.7h34000l5357.6 1065.7 4541.9 3034.8 3034.8 4541.9 1065.7 5357.6v28000l-1065.7 5357.6-3034.8 4541.9-4541.9 3034.8-5357.6 1065.7zM19702000 7547500l761.2-3826.8 2167.7-3244.3 3244.3-2167.7 3826.8-761.2h26000l3826.8 761.2 3244.3 2167.7 2167.7 3244.3 761.2 3826.8v20000l-761.2 3826.8-2167.7 3244.3-3244.3 2167.7-3826.8 761.2h-26000l-3826.8-761.2-3244.3-2167.7-2167.7-3244.3-761.2-3826.8zM19766000 7547500l761.2-3826.8 2167.7-3244.3 3244.3-2167.7 3826.8-761.2h26000l3826.8 761.2 3244.3 2167.7 2167.7 3244.3 761.2 3826.8v20000l-761.2 3826.8-2167.7 3244.3-3244.3 2167.7-3826.8 761.2h-26000l-3826.8-761.2-3244.3-2167.7-2167.7-3244.3-761.2-3826.8zM19590000 8120000l-761.2 3826.8-2167.7 3244.3-3244.3 2167.7-3826.8 761.2h-26000l-3826.8-761.2-3244.3-2167.7-2167.7-3244.3-761.2-3826.8v-20000l761.2-3826.8 2167.7-3244.3 3244.3-2167.7 3826.8-761.2h26000l3826.8 761.2 3244.3 2167.7 2167.7 3244.3 761.2 3826.8zM19525500 8120000l-761.2 3826.8-2167.7 3244.3-3244.3 2167.7-3826.8 761.2h-26000l-3826.8-761.2-3244.3-2167.7-2167.7-3244.3-761.2-3826.8v-20000l761.2-3826.8 2167.7-3244.3 3244.3-2167.7 3826.8-761.2h26000l3826.8 761.2 3244.3 2167.7 2167.7 3244.3 761.2 3826.8zM19590000 8372500l-761.2 3826.8-2167.7 3244.3-3244.3 2167.7-3826.8 761.2h-26000l-3826.8-761.2-3244.3-2167.7-2167.7-3244.3-761.2-3826.8v-20000l761.2-3826.8 2167.7-3244.3 3244.3-2167.7 3826.8-761.2h26000l3826.8 761.2 3244.3 2167.7 2167.7 3244.3 761.2 3826.8zM19526000 8372500l-761.2 3826.8-2167.7 3244.3-3244.3 2167.7-3826.8 761.2h-26000l-3826.8-761.2-3244.3-2167.7-2167.7-3244.3-761.2-3826.8v-20000l761.2-3826.8 2167.7-3244.3 3244.3-2167.7 3826.8-761.2h26000l3826.8 761.2 3244.3 2167.7 2167.7 3244.3 761.2 3826.8zM19614500 7402500l-761.2 3826.8-2167.7 3244.3-3244.3 2167.7-3826.8 761.2h-26000l-3826.8-761.2-3244.3-2167.7-2167.7-3244.3-761.2-3826.8v-20000l761.2-3826.8 2167.7-3244.3 3244.3-2167.7 3826.8-761.2h26000l3826.8 761.2 3244.3 2167.7 2167.7 3244.3 761.2 3826.8zM19550000 7402500l-761.2 3826.8-2167.7 3244.3-3244.3 2167.7-3826.8 761.2h-26000l-3826.8-761.2-3244.3-2167.7-2167.7-3244.3-761.2-3826.8v-20000l761.2-3826.8 2167.7-3244.3 3244.3-2167.7 3826.8-761.2h26000l3826.8 761.2 3244.3 2167.7 2167.7 3244.3 761.2 3826.8zM19542500 7975000l-1141.8 5740.3-3251.6 4866.3-4866.3 3251.6-5740.3 1141.8h-65000l-5740.3-1141.8-4866.3-3251.6-3251.6-4866.3-1141.8-5740.3v-30000l1141.8-5740.3 3251.6-4866.3 4866.3-3251.6 5740.3-1141.8h65000l5740.3 1141.8 4866.3 3251.6 3251.6 4866.3 1141.8 5740.3zM19542500 7895000l-1141.8 5740.3-3251.6 4866.3-4866.3 3251.6-5740.3 1141.8h-65000l-5740.3-1141.8-4866.3-3251.6-3251.6-4866.3-1141.8-5740.3v-30000l1141.8-5740.3 3251.6-4866.3 4866.3-3251.6 5740.3-1141.8h65000l5740.3 1141.8 4866.3 3251.6 3251.6 4866.3 1141.8 5740.3zM19542500 7815000l-1141.8 5740.3-3251.6 4866.3-4866.3 3251.6-5740.3 1141.8h-65000l-5740.3-1141.8-4866.3-3251.6-3251.6-4866.3-1141.8-5740.3v-30000l1141.8-5740.3 3251.6-4866.3 4866.3-3251.6 5740.3-1141.8h65000l5740.3 1141.8 4866.3 3251.6 3251.6 4866.3 1141.8 5740.3zM19542500 7735000l-1141.8 5740.3-3251.6 4866.3-4866.3 3251.6-5740.3 1141.8h-65000l-5740.3-1141.8-4866.3-3251.6-3251.6-4866.3-1141.8-5740.3v-30000l1141.8-5740.3 3251.6-4866.3 4866.3-3251.6 5740.3-1141.8h65000l5740.3 1141.8 4866.3 3251.6 3251.6 4866.3 1141.8 5740.3zM19542500 7655000l-1141.8 5740.3-3251.6 4866.3-4866.3 3251.6-5740.3 1141.8h-65000l-5740.3-1141.8-4866.3-3251.6-3251.6-4866.3-1141.8-5740.3v-30000l1141.8-5740.3 3251.6-4866.3 4866.3-3251.6 5740.3-1141.8h65000l5740.3 1141.8 4866.3 3251.6 3251.6 4866.3 1141.8 5740.3zM19542500 7575000l-1141.8 5740.3-3251.6 4866.3-4866.3 3251.6-5740.3 1141.8h-65000l-5740.3-1141.8-4866.3-3251.6-3251.6-4866.3-1141.8-5740.3v-30000l1141.8-5740.3 3251.6-4866.3 4866.3-3251.6 5740.3-1141.8h65000l5740.3 1141.8 4866.3 3251.6 3251.6 4866.3 1141.8 5740.3zM19425000 7592500l-1141.8 5740.3-3251.6 4866.3-4866.3 3251.6-5740.3 1141.8h-30000l-5740.3-1141.8-4866.3-3251.6-3251.6-4866.3-1141.8-5740.3v-65000l1141.8-5740.3 3251.6-4866.3 4866.3-3251.6 5740.3-1141.8h30000l5740.3 1141.8 4866.3 3251.6 3251.6 4866.3 1141.8 5740.3zM19342500 7575000l-1141.8 5740.3-3251.6 4866.3-4866.3 3251.6-5740.3 1141.8h-65000l-5740.3-1141.8-4866.3-3251.6-3251.6-4866.3-1141.8-5740.3v-30000l1141.8-5740.3 3251.6-4866.3 4866.3-3251.6 5740.3-1141.8h65000l5740.3 1141.8 4866.3 3251.6 3251.6 4866.3 1141.8 5740.3zM19342500 7655000l-1141.8 5740.3-3251.6 4866.3-4866.3 3251.6-5740.3 1141.8h-65000l-5740.3-1141.8-4866.3-3251.6-3251.6-4866.3-1141.8-5740.3v-30000l1141.8-5740.3 3251.6-4866.3 4866.3-3251.6 5740.3-1141.8h65000l5740.3 1141.8 4866.3 3251.6 3251.6 4866.3 1141.8 5740.3zM19342500 7735000l-1141.8 5740.3-3251.6 4866.3-4866.3 3251.6-5740.3 1141.8h-65000l-5740.3-1141.8-4866.3-3251.6-3251.6-4866.3-1141.8-5740.3v-30000l1141.8-5740.3 3251.6-4866.3 4866.3-3251.6 5740.3-1141.8h65000l5740.3 1141.8 4866.3 3251.6 3251.6 4866.3 1141.8 5740.3zM19342500 7815000l-1141.8 5740.3-3251.6 4866.3-4866.3 3251.6-5740.3 1141.8h-65000l-5740.3-1141.8-4866.3-3251.6-3251.6-4866.3-1141.8-5740.3v-30000l1141.8-5740.3 3251.6-4866.3 4866.3-3251.6 5740.3-1141.8h65000l5740.3 1141.8 4866.3 3251.6 3251.6 4866.3 1141.8 5740.3zM19342500 7895000l-1141.8 5740.3-3251.6 4866.3-4866.3 3251.6-5740.3 1141.8h-65000l-5740.3-1141.8-4866.3-3251.6-3251.6-4866.3-1141.8-5740.3v-30000l1141.8-5740.3 3251.6-4866.3 4866.3-3251.6 5740.3-1141.8h65000l5740.3 1141.8 4866.3 3251.6 3251.6 4866.3 1141.8 5740.3zM19342500 7975000l-1141.8 5740.3-3251.6 4866.3-4866.3 3251.6-5740.3 1141.8h-65000l-5740.3-1141.8-4866.3-3251.6-3251.6-4866.3-1141.8-5740.3v-30000l1141.8-5740.3 3251.6-4866.3 4866.3-3251.6 5740.3-1141.8h65000l5740.3 1141.8 4866.3 3251.6 3251.6 4866.3 1141.8 5740.3zM19425000 7992500l-1141.8 5740.3-3251.6 4866.3-4866.3 3251.6-5740.3 1141.8h-30000l-5740.3-1141.8-4866.3-3251.6-3251.6-4866.3-1141.8-5740.3v-65000l1141.8-5740.3 3251.6-4866.3 4866.3-3251.6 5740.3-1141.8h30000l5740.3 1141.8 4866.3 3251.6 3251.6 4866.3 1141.8 5740.3zM20175000 6837000v-170000h170000v170000z" fill-rule="evenodd"/><circle cx="20260000" cy="7006000" r="85000"/><circle cx="20260000" cy="7260000" r="85000"/><circle cx="20260000" cy="7514000" r="85000"/><circle cx="20260000" cy="7768000" r="85000"/><circle cx="20260000" cy="8022000" r="85000"/><circle cx="20260000" cy="8276000" r="85000"/><circle cx="20260000" cy="8530000" r="85000"/><path d="M19340000 7153000h-65000v-106000h65000zM19435000 7153000h-65000v-106000h65000zM19530000 7153000h-65000v-106000h65000zM19530000 6933000h-65000v-106000h65000zM19340000 6933000h-65000v-106000h65000zM19588500 8247500l-761.2 3826.8-2167.7 3244.3-3244.3 2167.7-3826.8 761.2h-26000l-3826.8-761.2-3244.3-2167.7-2167.7-3244.3-761.2-3826.8v-20000l761.2-3826.8 2167.7-3244.3 3244.3-2167.7 3826.8-761.2h26000l3826.8 761.2 3244.3 2167.7 2167.7 3244.3 761.2 3826.8zM19524500 8247500l-761.2 3826.8-2167.7 3244.3-3244.3 2167.7-3826.8 761.2h-26000l-3826.8-761.2-3244.3-2167.7-2167.7-3244.3-761.2-3826.8v-20000l761.2-3826.8 2167.7-3244.3 3244.3-2167.7 3826.8-761.2h26000l3826.8 761.2 3244.3 2167.7 2167.7 3244.3 761.2 3826.8z" fill-rule="evenodd"/></g></mask><mask id="b"><path fill="#fff" d="M14597500 5717500h5999286v5875000h-5999286z"/><path stroke="#000" stroke-linecap="round" stroke-width="100000" d="M20260000 6752000h0M20260000 7006000h0M20260000 7260000h0M20260000 7514000h0M20260000 7768000h0M20260000 8022000h0M20260000 8276000h0M20260000 8530000h0"/><path stroke="#000" stroke-linecap="round" stroke-width="40000" d="M19125000 7700000h0M19397550 7800000h0M19500000 7000000h0M19325000 7000000h0M19692500 7392500h0M19400000 7450000h0M19774000 8276000h0M19400000 8275000h0M19275000 7375000h0M20050000 7525000h0M19200000 7275000h0M20050000 7375000h0M19735000 8110000h0M19225000 8175000h0"/></mask><clipPath id="a"><path d="M20570000 11590000V5720000h-5965000l-5000 5870000h5970000" fill-rule="evenodd"/></clipPath></defs><g clip-path="url(#a)" mask="url(#b)"><g fill="#313d63" stroke="#313d63"><path d="M20570000 11590000V5720000h-5965000l-5000 5870000h5970000" fill-rule="evenodd"/><g fill-opacity="0" stroke-linecap="round" stroke-linejoin="round" stroke-width="5000" fill="none"><path d="M14600000 11590000h5970000M14605000 5720000l-5000 5870000M20570000 5720000h-5965000M20570000 11590000V5720000"/></g></g><g fill-opacity="1" stroke-linecap="round" stroke-linejoin="round" stroke-width=".1" fill="#9c6b28" stroke="#9c6b28"><g fill-rule="evenodd"><path d="m19810000 7935000-761.2 3826.8-2167.7 3244.3-3244.3 2167.7-3826.8 761.2h-26000l-3826.8-761.2-3244.3-2167.7-2167.7-3244.3-761.2-3826.8v-20000l761.2-3826.8 2167.7-3244.3 3244.3-2167.7 3826.8-761.2h26000l3826.8 761.2 3244.3 2167.7 2167.7 3244.3 761.2 3826.8zM19745500 7935000l-761.2 3826.8-2167.7 3244.3-3244.3 2167.7-3826.8 761.2h-26000l-3826.8-761.2-3244.3-2167.7-2167.7-3244.3-761.2-3826.8v-20000l761.2-3826.8 2167.7-3244.3 3244.3-2167.7 3826.8-761.2h26000l3826.8 761.2 3244.3 2167.7 2167.7 3244.3 761.2 3826.8zM19624000 7292000l-1065.7 5357.6-3034.8 4541.9-4541.9 3034.8-5357.6 1065.7h-28000l-5357.6-1065.7-4541.9-3034.8-3034.8-4541.9-1065.7-5357.6v-34000l1065.7-5357.6 3034.8-4541.9 4541.9-3034.8 5357.6-1065.7h28000l5357.6 1065.7 4541.9 3034.8 3034.8 4541.9 1065.7 5357.6zM19528000 7292000l-1065.7 5357.6-3034.8 4541.9-4541.9 3034.8-5357.6 1065.7h-28000l-5357.6-1065.7-4541.9-3034.8-3034.8-4541.9-1065.7-5357.6v-34000l1065.7-5357.6 3034.8-4541.9 4541.9-3034.8 5357.6-1065.7h28000l5357.6 1065.7 4541.9 3034.8 3034.8 4541.9 1065.7 5357.6zM19765500 7825500l-5357.6-1065.7-4541.9-3034.8-3034.8-4541.9-1065.7-5357.6v-28000l1065.7-5357.6 3034.8-4541.9 4541.9-3034.8 5357.6-1065.7h34000l5357.6 1065.7 4541.9 3034.8 3034.8 4541.9 1065.7 5357.6v28000l-1065.7 5357.6-3034.8 4541.9-4541.9 3034.8-5357.6 1065.7zM19765500 7729500l-5357.6-1065.7-4541.9-3034.8-3034.8-4541.9-1065.7-5357.6v-28000l1065.7-5357.6 3034.8-4541.9 4541.9-3034.8 5357.6-1065.7h34000l5357.6 1065.7 4541.9 3034.8 3034.8 4541.9 1065.7 5357.6v28000l-1065.7 5357.6-3034.8 4541.9-4541.9 3034.8-5357.6 1065.7zM19702000 7547500l761.2-3826.8 2167.7-3244.3 3244.3-2167.7 3826.8-761.2h26000l3826.8 761.2 3244.3 2167.7 2167.7 3244.3 761.2 3826.8v20000l-761.2 3826.8-2167.7 3244.3-3244.3 2167.7-3826.8 761.2h-26000l-3826.8-761.2-3244.3-2167.7-2167.7-3244.3-761.2-3826.8zM19766000 7547500l761.2-3826.8 2167.7-3244.3 3244.3-2167.7 3826.8-761.2h26000l3826.8 761.2 3244.3 2167.7 2167.7 3244.3 761.2 3826.8v20000l-761.2 3826.8-2167.7 3244.3-3244.3 2167.7-3826.8 761.2h-26000l-3826.8-761.2-3244.3-2167.7-2167.7-3244.3-761.2-3826.8zM19590000 8120000l-761.2 3826.8-2167.7 3244.3-3244.3 2167.7-3826.8 761.2h-26000l-3826.8-761.2-3244.3-2167.7-2167.7-3244.3-761.2-3826.8v-20000l761.2-3826.8 2167.7-3244.3 3244.3-2167.7 3826.8-761.2h26000l3826.8 761.2 3244.3 2167.7 2167.7 3244.3 761.2 3826.8zM19525500 8120000l-761.2 3826.8-2167.7 3244.3-3244.3 2167.7-3826.8 761.2h-26000l-3826.8-761.2-3244.3-2167.7-2167.7-3244.3-761.2-3826.8v-20000l761.2-3826.8 2167.7-3244.3 3244.3-2167.7 3826.8-761.2h26000l3826.8 761.2 3244.3 2167.7 2167.7 3244.3 761.2 3826.8zM19590000 8372500l-761.2 3826.8-2167.7 3244.3-3244.3 2167.7-3826.8 761.2h-26000l-3826.8-761.2-3244.3-2167.7-2167.7-3244.3-761.2-3826.8v-20000l761.2-3826.8 2167.7-3244.3 3244.3-2167.7 3826.8-761.2h26000l3826.8 761.2 3244.3 2167.7 2167.7 3244.3 761.2 3826.8zM19526000 8372500l-761.2 3826.8-2167.7 3244.3-3244.3 2167.7-3826.8 761.2h-26000l-3826.8-761.2-3244.3-2167.7-2167.7-3244.3-761.2-3826.8v-20000l761.2-3826.8 2167.7-3244.3 3244.3-2167.7 3826.8-761.2h26000l3826.8 761.2 3244.3 2167.7 2167.7 3244.3 761.2 3826.8zM19614500 7402500l-761.2 3826.8-2167.7 3244.3-3244.3 2167.7-3826.8 761.2h-26000l-3826.8-761.2-3244.3-2167.7-2167.7-3244.3-761.2-3826.8v-20000l761.2-3826.8 2167.7-3244.3 3244.3-2167.7 3826.8-761.2h26000l3826.8 761.2 3244.3 2167.7 2167.7 3244.3 761.2 3826.8zM19550000 7402500l-761.2 3826.8-2167.7 3244.3-3244.3 2167.7-3826.8 761.2h-26000l-3826.8-761.2-3244.3-2167.7-2167.7-3244.3-761.2-3826.8v-20000l761.2-3826.8 2167.7-3244.3 3244.3-2167.7 3826.8-761.2h26000l3826.8 761.2 3244.3 2167.7 2167.7 3244.3 761.2 3826.8zM19542500 7975000l-1141.8 5740.3-3251.6 4866.3-4866.3 3251.6-5740.3 1141.8h-65000l-5740.3-1141.8-4866.3-3251.6-3251.6-4866.3-1141.8-5740.3v-30000l1141.8-5740.3 3251.6-4866.3 4866.3-3251.6 5740.3-1141.8h65000l5740.3 1141.8 4866.3 3251.6 3251.6 4866.3 1141.8 5740.3zM19542500 7895000l-1141.8 5740.3-3251.6 4866.3-4866.3 3251.6-5740.3 1141.8h-65000l-5740.3-1141.8-4866.3-3251.6-3251.6-4866.3-1141.8-5740.3v-30000l1141.8-5740.3 3251.6-4866.3 4866.3-3251.6 5740.3-1141.8h65000l5740.3 1141.8 4866.3 3251.6 3251.6 4866.3 1141.8 5740.3zM19542500 7815000l-1141.8 5740.3-3251.6 4866.3-4866.3 3251.6-5740.3 1141.8h-65000l-5740.3-1141.8-4866.3-3251.6-3251.6-4866.3-1141.8-5740.3v-30000l1141.8-5740.3 3251.6-4866.3 4866.3-3251.6 5740.3-1141.8h65000l5740.3 1141.8 4866.3 3251.6 3251.6 4866.3 1141.8 5740.3zM19542500 7735000l-1141.8 5740.3-3251.6 4866.3-4866.3 3251.6-5740.3 1141.8h-65000l-5740.3-1141.8-4866.3-3251.6-3251.6-4866.3-1141.8-5740.3v-30000l1141.8-5740.3 3251.6-4866.3 4866.3-3251.6 5740.3-1141.8h65000l5740.3 1141.8 4866.3 3251.6 3251.6 4866.3 1141.8 5740.3zM19542500 7655000l-1141.8 5740.3-3251.6 4866.3-4866.3 3251.6-5740.3 1141.8h-65000l-5740.3-1141.8-4866.3-3251.6-3251.6-4866.3-1141.8-5740.3v-30000l1141.8-5740.3 3251.6-4866.3 4866.3-3251.6 5740.3-1141.8h65000l5740.3 1141.8 4866.3 3251.6 3251.6 4866.3 1141.8 5740.3zM19542500 7575000l-1141.8 5740.3-3251.6 4866.3-4866.3 3251.6-5740.3 1141.8h-65000l-5740.3-1141.8-4866.3-3251.6-3251.6-4866.3-1141.8-5740.3v-30000l1141.8-5740.3 3251.6-4866.3 4866.3-3251.6 5740.3-1141.8h65000l5740.3 1141.8 4866.3 3251.6 3251.6 4866.3 1141.8 5740.3zM19425000 7592500l-1141.8 5740.3-3251.6 4866.3-4866.3 3251.6-5740.3 1141.8h-30000l-5740.3-1141.8-4866.3-3251.6-3251.6-4866.3-1141.8-5740.3v-65000l1141.8-5740.3 3251.6-4866.3 4866.3-3251.6 5740.3-1141.8h30000l5740.3 1141.8 4866.3 3251.6 3251.6 4866.3 1141.8 5740.3zM19342500 7575000l-1141.8 5740.3-3251.6 4866.3-4866.3 3251.6-5740.3 1141.8h-65000l-5740.3-1141.8-4866.3-3251.6-3251.6-4866.3-1141.8-5740.3v-30000l1141.8-5740.3 3251.6-4866.3 4866.3-3251.6 5740.3-1141.8h65000l5740.3 1141.8 4866.3 3251.6 3251.6 4866.3 1141.8 5740.3zM19342500 7655000l-1141.8 5740.3-3251.6 4866.3-4866.3 3251.6-5740.3 1141.8h-65000l-5740.3-1141.8-4866.3-3251.6-3251.6-4866.3-1141.8-5740.3v-30000l1141.8-5740.3 3251.6-4866.3 4866.3-3251.6 5740.3-1141.8h65000l5740.3 1141.8 4866.3 3251.6 3251.6 4866.3 1141.8 5740.3zM19342500 7735000l-1141.8 5740.3-3251.6 4866.3-4866.3 3251.6-5740.3 1141.8h-65000l-5740.3-1141.8-4866.3-3251.6-3251.6-4866.3-1141.8-5740.3v-30000l1141.8-5740.3 3251.6-4866.3 4866.3-3251.6 5740.3-1141.8h65000l5740.3 1141.8 4866.3 3251.6 3251.6 4866.3 1141.8 5740.3zM19342500 7815000l-1141.8 5740.3-3251.6 4866.3-4866.3 3251.6-5740.3 1141.8h-65000l-5740.3-1141.8-4866.3-3251.6-3251.6-4866.3-1141.8-5740.3v-30000l1141.8-5740.3 3251.6-4866.3 4866.3-3251.6 5740.3-1141.8h65000l5740.3 1141.8 4866.3 3251.6 3251.6 4866.3 1141.8 5740.3zM19342500 7895000l-1141.8 5740.3-3251.6 4866.3-4866.3 3251.6-5740.3 1141.8h-65000l-5740.3-1141.8-4866.3-3251.6-3251.6-4866.3-1141.8-5740.3v-30000l1141.8-5740.3 3251.6-4866.3 4866.3-3251.6 5740.3-1141.8h65000l5740.3 1141.8 4866.3 3251.6 3251.6 4866.3 1141.8 5740.3zM19342500 7975000l-1141.8 5740.3-3251.6 4866.3-4866.3 3251.6-5740.3 1141.8h-65000l-5740.3-1141.8-4866.3-3251.6-3251.6-4866.3-1141.8-5740.3v-30000l1141.8-5740.3 3251.6-4866.3 4866.3-3251.6 5740.3-1141.8h65000l5740.3 1141.8 4866.3 3251.6 3251.6 4866.3 1141.8 5740.3zM19425000 7992500l-1141.8 5740.3-3251.6 4866.3-4866.3 3251.6-5740.3 1141.8h-30000l-5740.3-1141.8-4866.3-3251.6-3251.6-4866.3-1141.8-5740.3v-65000l1141.8-5740.3 3251.6-4866.3 4866.3-3251.6 5740.3-1141.8h30000l5740.3 1141.8 4866.3 3251.6 3251.6 4866.3 1141.8 5740.3zM20175000 6837000v-170000h170000v170000z"/></g><circle cx="20260000" cy="7006000" r="85000"/><circle cx="20260000" cy="7260000" r="85000"/><circle cx="20260000" cy="7514000" r="85000"/><circle cx="20260000" cy="7768000" r="85000"/><circle cx="20260000" cy="8022000" r="85000"/><circle cx="20260000" cy="8276000" r="85000"/><circle cx="20260000" cy="8530000" r="85000"/><g fill-rule="evenodd"><path d="M19340000 7153000h-65000v-106000h65000zM19435000 7153000h-65000v-106000h65000zM19530000 7153000h-65000v-106000h65000zM19530000 6933000h-65000v-106000h65000zM19340000 6933000h-65000v-106000h65000zM19588500 8247500l-761.2 3826.8-2167.7 3244.3-3244.3 2167.7-3826.8 761.2h-26000l-3826.8-761.2-3244.3-2167.7-2167.7-3244.3-761.2-3826.8v-20000l761.2-3826.8 2167.7-3244.3 3244.3-2167.7 3826.8-761.2h26000l3826.8 761.2 3244.3 2167.7 2167.7 3244.3 761.2 3826.8zM19524500 8247500l-761.2 3826.8-2167.7 3244.3-3244.3 2167.7-3826.8 761.2h-26000l-3826.8-761.2-3244.3-2167.7-2167.7-3244.3-761.2-3826.8v-20000l761.2-3826.8 2167.7-3244.3 3244.3-2167.7 3826.8-761.2h26000l3826.8 761.2 3244.3 2167.7 2167.7 3244.3 761.2 3826.8z"/></g></g><g stroke-linecap="round" stroke-linejoin="round" fill="#212d53" stroke="#212d53"><g stroke-width=".1"><g fill-rule="evenodd"><path d="m19810000 7935000-761.2 3826.8-2167.7 3244.3-3244.3 2167.7-3826.8 761.2h-26000l-3826.8-761.2-3244.3-2167.7-2167.7-3244.3-761.2-3826.8v-20000l761.2-3826.8 2167.7-3244.3 3244.3-2167.7 3826.8-761.2h26000l3826.8 761.2 3244.3 2167.7 2167.7 3244.3 761.2 3826.8zM19745500 7935000l-761.2 3826.8-2167.7 3244.3-3244.3 2167.7-3826.8 761.2h-26000l-3826.8-761.2-3244.3-2167.7-2167.7-3244.3-761.2-3826.8v-20000l761.2-3826.8 2167.7-3244.3 3244.3-2167.7 3826.8-761.2h26000l3826.8 761.2 3244.3 2167.7 2167.7 3244.3 761.2 3826.8zM19624000 7292000l-1065.7 5357.6-3034.8 4541.9-4541.9 3034.8-5357.6 1065.7h-28000l-5357.6-1065.7-4541.9-3034.8-3034.8-4541.9-1065.7-5357.6v-34000l1065.7-5357.6 3034.8-4541.9 4541.9-3034.8 5357.6-1065.7h28000l5357.6 1065.7 4541.9 3034.8 3034.8 4541.9 1065.7 5357.6zM19528000 7292000l-1065.7 5357.6-3034.8 4541.9-4541.9 3034.8-5357.6 1065.7h-28000l-5357.6-1065.7-4541.9-3034.8-3034.8-4541.9-1065.7-5357.6v-34000l1065.7-5357.6 3034.8-4541.9 4541.9-3034.8 5357.6-1065.7h28000l5357.6 1065.7 4541.9 3034.8 3034.8 4541.9 1065.7 5357.6zM19765500 7825500l-5357.6-1065.7-4541.9-3034.8-3034.8-4541.9-1065.7-5357.6v-28000l1065.7-5357.6 3034.8-4541.9 4541.9-3034.8 5357.6-1065.7h34000l5357.6 1065.7 4541.9 3034.8 3034.8 4541.9 1065.7 5357.6v28000l-1065.7 5357.6-3034.8 4541.9-4541.9 3034.8-5357.6 1065.7zM19765500 7729500l-5357.6-1065.7-4541.9-3034.8-3034.8-4541.9-1065.7-5357.6v-28000l1065.7-5357.6 3034.8-4541.9 4541.9-3034.8 5357.6-1065.7h34000l5357.6 1065.7 4541.9 3034.8 3034.8 4541.9 1065.7 5357.6v28000l-1065.7 5357.6-3034.8 4541.9-4541.9 3034.8-5357.6 1065.7zM19702000 7547500l761.2-3826.8 2167.7-3244.3 3244.3-2167.7 3826.8-761.2h26000l3826.8 761.2 3244.3 2167.7 2167.7 3244.3 761.2 3826.8v20000l-761.2 3826.8-2167.7 3244.3-3244.3 2167.7-3826.8 761.2h-26000l-3826.8-761.2-3244.3-2167.7-2167.7-3244.3-761.2-3826.8zM19766000 7547500l761.2-3826.8 2167.7-3244.3 3244.3-2167.7 3826.8-761.2h26000l3826.8 761.2 3244.3 2167.7 2167.7 3244.3 761.2 3826.8v20000l-761.2 3826.8-2167.7 3244.3-3244.3 2167.7-3826.8 761.2h-26000l-3826.8-761.2-3244.3-2167.7-2167.7-3244.3-761.2-3826.8zM19590000 8120000l-761.2 3826.8-2167.7 3244.3-3244.3 2167.7-3826.8 761.2h-26000l-3826.8-761.2-3244.3-2167.7-2167.7-3244.3-761.2-3826.8v-20000l761.2-3826.8 2167.7-3244.3 3244.3-2167.7 3826.8-761.2h26000l3826.8 761.2 3244.3 2167.7 2167.7 3244.3 761.2 3826.8zM19525500 8120000l-761.2 3826.8-2167.7 3244.3-3244.3 2167.7-3826.8 761.2h-26000l-3826.8-761.2-3244.3-2167.7-2167.7-3244.3-761.2-3826.8v-20000l761.2-3826.8 2167.7-3244.3 3244.3-2167.7 3826.8-761.2h26000l3826.8 761.2 3244.3 2167.7 2167.7 3244.3 761.2 3826.8zM19590000 8372500l-761.2 3826.8-2167.7 3244.3-3244.3 2167.7-3826.8 761.2h-26000l-3826.8-761.2-3244.3-2167.7-2167.7-3244.3-761.2-3826.8v-20000l761.2-3826.8 2167.7-3244.3 3244.3-2167.7 3826.8-761.2h26000l3826.8 761.2 3244.3 2167.7 2167.7 3244.3 761.2 3826.8zM19526000 8372500l-761.2 3826.8-2167.7 3244.3-3244.3 2167.7-3826.8 761.2h-26000l-3826.8-761.2-3244.3-2167.7-2167.7-3244.3-761.2-3826.8v-20000l761.2-3826.8 2167.7-3244.3 3244.3-2167.7 3826.8-761.2h26000l3826.8 761.2 3244.3 2167.7 2167.7 3244.3 761.2 3826.8zM19614500 7402500l-761.2 3826.8-2167.7 3244.3-3244.3 2167.7-3826.8 761.2h-26000l-3826.8-761.2-3244.3-2167.7-2167.7-3244.3-761.2-3826.8v-20000l761.2-3826.8 2167.7-3244.3 3244.3-2167.7 3826.8-761.2h26000l3826.8 761.2 3244.3 2167.7 2167.7 3244.3 761.2 3826.8zM19550000 7402500l-761.2 3826.8-2167.7 3244.3-3244.3 2167.7-3826.8 761.2h-26000l-3826.8-761.2-3244.3-2167.7-2167.7-3244.3-761.2-3826.8v-20000l761.2-3826.8 2167.7-3244.3 3244.3-2167.7 3826.8-761.2h26000l3826.8 761.2 3244.3 2167.7 2167.7 3244.3 761.2 3826.8zM19542500 7975000l-1141.8 5740.3-3251.6 4866.3-4866.3 3251.6-5740.3 1141.8h-65000l-5740.3-1141.8-4866.3-3251.6-3251.6-4866.3-1141.8-5740.3v-30000l1141.8-5740.3 3251.6-4866.3 4866.3-3251.6 5740.3-1141.8h65000l5740.3 1141.8 4866.3 3251.6 3251.6 4866.3 1141.8 5740.3zM19542500 7895000l-1141.8 5740.3-3251.6 4866.3-4866.3 3251.6-5740.3 1141.8h-65000l-5740.3-1141.8-4866.3-3251.6-3251.6-4866.3-1141.8-5740.3v-30000l1141.8-5740.3 3251.6-4866.3 4866.3-3251.6 5740.3-1141.8h65000l5740.3 1141.8 4866.3 3251.6 3251.6 4866.3 1141.8 5740.3zM19542500 7815000l-1141.8 5740.3-3251.6 4866.3-4866.3 3251.6-5740.3 1141.8h-65000l-5740.3-1141.8-4866.3-3251.6-3251.6-4866.3-1141.8-5740.3v-30000l1141.8-5740.3 3251.6-4866.3 4866.3-3251.6 5740.3-1141.8h65000l5740.3 1141.8 4866.3 3251.6 3251.6 4866.3 1141.8 5740.3zM19542500 7735000l-1141.8 5740.3-3251.6 4866.3-4866.3 3251.6-5740.3 1141.8h-65000l-5740.3-1141.8-4866.3-3251.6-3251.6-4866.3-1141.8-5740.3v-30000l1141.8-5740.3 3251.6-4866.3 4866.3-3251.6 5740.3-1141.8h65000l5740.3 1141.8 4866.3 3251.6 3251.6 4866.3 1141.8 5740.3zM19542500 7655000l-1141.8 5740.3-3251.6 4866.3-4866.3 3251.6-5740.3 1141.8h-65000l-5740.3-1141.8-4866.3-3251.6-3251.6-4866.3-1141.8-5740.3v-30000l1141.8-5740.3 3251.6-4866.3 4866.3-3251.6 5740.3-1141.8h65000l5740.3 1141.8 4866.3 3251.6 3251.6 4866.3 1141.8 5740.3zM19542500 7575000l-1141.8 5740.3-3251.6 4866.3-4866.3 3251.6-5740.3 1141.8h-65000l-5740.3-1141.8-4866.3-3251.6-3251.6-4866.3-1141.8-5740.3v-30000l1141.8-5740.3 3251.6-4866.3 4866.3-3251.6 5740.3-1141.8h65000l5740.3 1141.8 4866.3 3251.6 3251.6 4866.3 1141.8 5740.3zM19425000 7592500l-1141.8 5740.3-3251.6 4866.3-4866.3 3251.6-5740.3 1141.8h-30000l-5740.3-1141.8-4866.3-3251.6-3251.6-4866.3-1141.8-5740.3v-65000l1141.8-5740.3 3251.6-4866.3 4866.3-3251.6 5740.3-1141.8h30000l5740.3 1141.8 4866.3 3251.6 3251.6 4866.3 1141.8 5740.3zM19342500 7575000l-1141.8 5740.3-3251.6 4866.3-4866.3 3251.6-5740.3 1141.8h-65000l-5740.3-1141.8-4866.3-3251.6-3251.6-4866.3-1141.8-5740.3v-30000l1141.8-5740.3 3251.6-4866.3 4866.3-3251.6 5740.3-1141.8h65000l5740.3 1141.8 4866.3 3251.6 3251.6 4866.3 1141.8 5740.3zM19342500 7655000l-1141.8 5740.3-3251.6 4866.3-4866.3 3251.6-5740.3 1141.8h-65000l-5740.3-1141.8-4866.3-3251.6-3251.6-4866.3-1141.8-5740.3v-30000l1141.8-5740.3 3251.6-4866.3 4866.3-3251.6 5740.3-1141.8h65000l5740.3 1141.8 4866.3 3251.6 3251.6 4866.3 1141.8 5740.3zM19342500 7735000l-1141.8 5740.3-3251.6 4866.3-4866.3 3251.6-5740.3 1141.8h-65000l-5740.3-1141.8-4866.3-3251.6-3251.6-4866.3-1141.8-5740.3v-30000l1141.8-5740.3 3251.6-4866.3 4866.3-3251.6 5740.3-1141.8h65000l5740.3 1141.8 4866.3 3251.6 3251.6 4866.3 1141.8 5740.3zM19342500 7815000l-1141.8 5740.3-3251.6 4866.3-4866.3 3251.6-5740.3 1141.8h-65000l-5740.3-1141.8-4866.3-3251.6-3251.6-4866.3-1141.8-5740.3v-30000l1141.8-5740.3 3251.6-4866.3 4866.3-3251.6 5740.3-1141.8h65000l5740.3 1141.8 4866.3 3251.6 3251.6 4866.3 1141.8 5740.3zM19342500 7895000l-1141.8 5740.3-3251.6 4866.3-4866.3 3251.6-5740.3 1141.8h-65000l-5740.3-1141.8-4866.3-3251.6-3251.6-4866.3-1141.8-5740.3v-30000l1141.8-5740.3 3251.6-4866.3 4866.3-3251.6 5740.3-1141.8h65000l5740.3 1141.8 4866.3 3251.6 3251.6 4866.3 1141.8 5740.3zM19342500 7975000l-1141.8 5740.3-3251.6 4866.3-4866.3 3251.6-5740.3 1141.8h-65000l-5740.3-1141.8-4866.3-3251.6-3251.6-4866.3-1141.8-5740.3v-30000l1141.8-5740.3 3251.6-4866.3 4866.3-3251.6 5740.3-1141.8h65000l5740.3 1141.8 4866.3 3251.6 3251.6 4866.3 1141.8 5740.3zM19425000 7992500l-1141.8 5740.3-3251.6 4866.3-4866.3 3251.6-5740.3 1141.8h-30000l-5740.3-1141.8-4866.3-3251.6-3251.6-4866.3-1141.8-5740.3v-65000l1141.8-5740.3 3251.6-4866.3 4866.3-3251.6 5740.3-1141.8h30000l5740.3 1141.8 4866.3 3251.6 3251.6 4866.3 1141.8 5740.3zM20175000 6837000v-170000h170000v170000z"/></g><circle cx="20260000" cy="7006000" r="85000"/><circle cx="20260000" cy="7260000" r="85000"/><circle cx="20260000" cy="7514000" r="85000"/><circle cx="20260000" cy="7768000" r="85000"/><circle cx="20260000" cy="8022000" r="85000"/><circle cx="20260000" cy="8276000" r="85000"/><circle cx="20260000" cy="8530000" r="85000"/><g fill-rule="evenodd"><path d="M19340000 7153000h-65000v-106000h65000zM19435000 7153000h-65000v-106000h65000zM19530000 7153000h-65000v-106000h65000zM19530000 6933000h-65000v-106000h65000zM19340000 6933000h-65000v-106000h65000zM19588500 8247500l-761.2 3826.8-2167.7 3244.3-3244.3 2167.7-3826.8 761.2h-26000l-3826.8-761.2-3244.3-2167.7-2167.7-3244.3-761.2-3826.8v-20000l761.2-3826.8 2167.7-3244.3 3244.3-2167.7 3826.8-761.2h26000l3826.8 761.2 3244.3 2167.7 2167.7 3244.3 761.2 3826.8zM19524500 8247500l-761.2 3826.8-2167.7 3244.3-3244.3 2167.7-3826.8 761.2h-26000l-3826.8-761.2-3244.3-2167.7-2167.7-3244.3-761.2-3826.8v-20000l761.2-3826.8 2167.7-3244.3 3244.3-2167.7 3826.8-761.2h26000l3826.8 761.2 3244.3 2167.7 2167.7 3244.3 761.2 3826.8z"/></g><circle cx="19125000" cy="7700000" r="40000"/><circle cx="19397550" cy="7800000" r="40000"/><circle cx="19500000" cy="7000000" r="40000"/><circle cx="19325000" cy="7000000" r="40000"/><circle cx="19692500" cy="7392500" r="40000"/><circle cx="19400000" cy="7450000" r="40000"/><circle cx="19774000" cy="8276000" r="40000"/><circle cx="19400000" cy="8275000" r="40000"/><circle cx="19275000" cy="7375000" r="40000"/><circle cx="20050000" cy="7525000" r="40000"/><circle cx="19200000" cy="7275000" r="40000"/><circle cx="20050000" cy="7375000" r="40000"/><circle cx="19735000" cy="8110000" r="40000"/><circle cx="19225000" cy="8175000" r="40000"/></g><g fill-opacity="0" stroke-width="25000" fill="none"><path d="M19400000 7800000v-50000M19400000 7750000l30000-30000M19400000 7800000h-2450M19789000 7695000l-6500 6500M19473000 6752000h787000M19625000 7875000h-125000M19430000 7720000h65000M19402500 7100000v-302500M19495000 7640000h226000M19722500 7925000h-47500M19402500 7177500l97500 97500M19500000 7875000l-5000 5000M19448000 6752000h25000M19402500 6797500l45500-45500M19789000 7557500v137500M19495000 7720000v-80000M19223000 6752000h250000M19125000 6850000l98000-98000M19402500 7100000v77500M19400000 7850000v-50000M19675000 7925000l-50000-50000M19125000 7700000v-850000M19430000 7880000l-30000-30000M19495000 7880000h-65000M19721000 7640000l61500 61500M19501500 8237500v123500M19825000 7500000l50000 50000M19725000 7557500h-227500M19501500 8237500v-126500M19200000 6925000l45000-45000M19495000 7960000h115000M19750000 7500000h75000M19786500 7801500l-4000-4000M19786500 7925000v-123500M19875000 7775000l-22500 22500M19750000 8000000l36500-36500M19527500 7392500h-60000M19495000 7425000l32500-32500M19786500 7963500v-38500M19495000 7560000v-135000M19650000 8000000h100000M19610000 7960000l40000 40000M19250000 7225000l-50000-50000M19501500 8111000l1000-1000M19725000 7525000l25000-25000M19725000 7557500v-32500M19497500 7557500l-2500 2500M19300000 7225000h-50000M19502500 8110000v-142500M19501500 8361000l1500 1500M19875000 7550000v225000M19502500 7967500l-7500-7500M19245000 6880000h62500M19467500 7392500l-167500-167500M19200000 7175000v-250000M19852500 7797500h-70000M19500000 7097500l-2500 2500M19596000 7171000l-71000-71000M20019000 7006000l-269000 269000M19307500 7017500l17500-17500M19500000 7000000v97500M19525000 7100000h-27500M19750000 7275000h-154000M19307500 7100000v-82500M19596000 7275000v-104000M20260000 7006000h-241000M19692500 7392500h190000M19591500 7392500h101000M19882500 7392500l132500-132500M19395000 7560000v-105000M20015000 7260000h245000M19395000 7455000l5000-5000M19395000 7960000v310000M20260000 8276000h-486000M19395000 8270000l5000 5000M19662500 8237500h-97000M19701000 8276000l-38500-38500M19774000 8276000h-73000M19525000 8450000l50000-50000M19295000 7960000l30000 30000M19575000 8370500l-8000-8000M19325000 7990000v410000M19575000 8400000v-29500M19712500 8362500h-145500M19375000 8450000h150000M20260000 8530000h-380000M19325000 8400000l50000 50000M19880000 8530000l-167500-167500M19295000 7560000v-165000M20050000 7525000h199000M20249000 7525000l11000-11000M19295000 7395000l-20000-20000M20043000 7768000h217000M19950000 7675000l93000 93000M19950000 7475000v200000M19240000 7640000l-40000-40000M19175000 7300000l25000-25000M19175000 7575000v-275000M20050000 7375000l-100000 100000M19200000 7600000l-25000-25000M19295000 7640000h-55000M19295000 7880000h-50000M19200000 8150000l25000 25000M19245000 7880000l-45000 45000M19200000 7925000v225000M20172000 8110000l88000-88000M19735000 8110000h437000M19566500 8110000h168500"/></g></g><g stroke-linecap="round" stroke-linejoin="round" fill="#b5ae30" mask="url(#c)" stroke="#b5ae30"><g stroke-width=".1"><g fill-rule="evenodd"><path d="m19810000 7935000-761.2 3826.8-2167.7 3244.3-3244.3 2167.7-3826.8 761.2h-26000l-3826.8-761.2-3244.3-2167.7-2167.7-3244.3-761.2-3826.8v-20000l761.2-3826.8 2167.7-3244.3 3244.3-2167.7 3826.8-761.2h26000l3826.8 761.2 3244.3 2167.7 2167.7 3244.3 761.2 3826.8zM19745500 7935000l-761.2 3826.8-2167.7 3244.3-3244.3 2167.7-3826.8 761.2h-26000l-3826.8-761.2-3244.3-2167.7-2167.7-3244.3-761.2-3826.8v-20000l761.2-3826.8 2167.7-3244.3 3244.3-2167.7 3826.8-761.2h26000l3826.8 761.2 3244.3 2167.7 2167.7 3244.3 761.2 3826.8zM19624000 7292000l-1065.7 5357.6-3034.8 4541.9-4541.9 3034.8-5357.6 1065.7h-28000l-5357.6-1065.7-4541.9-3034.8-3034.8-4541.9-1065.7-5357.6v-34000l1065.7-5357.6 3034.8-4541.9 4541.9-3034.8 5357.6-1065.7h28000l5357.6 1065.7 4541.9 3034.8 3034.8 4541.9 1065.7 5357.6zM19528000 7292000l-1065.7 5357.6-3034.8 4541.9-4541.9 3034.8-5357.6 1065.7h-28000l-5357.6-1065.7-4541.9-3034.8-3034.8-4541.9-1065.7-5357.6v-34000l1065.7-5357.6 3034.8-4541.9 4541.9-3034.8 5357.6-1065.7h28000l5357.6 1065.7 4541.9 3034.8 3034.8 4541.9 1065.7 5357.6zM19765500 7825500l-5357.6-1065.7-4541.9-3034.8-3034.8-4541.9-1065.7-5357.6v-28000l1065.7-5357.6 3034.8-4541.9 4541.9-3034.8 5357.6-1065.7h34000l5357.6 1065.7 4541.9 3034.8 3034.8 4541.9 1065.7 5357.6v28000l-1065.7 5357.6-3034.8 4541.9-4541.9 3034.8-5357.6 1065.7zM19765500 7729500l-5357.6-1065.7-4541.9-3034.8-3034.8-4541.9-1065.7-5357.6v-28000l1065.7-5357.6 3034.8-4541.9 4541.9-3034.8 5357.6-1065.7h34000l5357.6 1065.7 4541.9 3034.8 3034.8 4541.9 1065.7 5357.6v28000l-1065.7 5357.6-3034.8 4541.9-4541.9 3034.8-5357.6 1065.7zM19702000 7547500l761.2-3826.8 2167.7-3244.3 3244.3-2167.7 3826.8-761.2h26000l3826.8 761.2 3244.3 2167.7 2167.7 3244.3 761.2 3826.8v20000l-761.2 3826.8-2167.7 3244.3-3244.3 2167.7-3826.8 761.2h-26000l-3826.8-761.2-3244.3-2167.7-2167.7-3244.3-761.2-3826.8zM19766000 7547500l761.2-3826.8 2167.7-3244.3 3244.3-2167.7 3826.8-761.2h26000l3826.8 761.2 3244.3 2167.7 2167.7 3244.3 761.2 3826.8v20000l-761.2 3826.8-2167.7 3244.3-3244.3 2167.7-3826.8 761.2h-26000l-3826.8-761.2-3244.3-2167.7-2167.7-3244.3-761.2-3826.8zM19590000 8120000l-761.2 3826.8-2167.7 3244.3-3244.3 2167.7-3826.8 761.2h-26000l-3826.8-761.2-3244.3-2167.7-2167.7-3244.3-761.2-3826.8v-20000l761.2-3826.8 2167.7-3244.3 3244.3-2167.7 3826.8-761.2h26000l3826.8 761.2 3244.3 2167.7 2167.7 3244.3 761.2 3826.8zM19525500 8120000l-761.2 3826.8-2167.7 3244.3-3244.3 2167.7-3826.8 761.2h-26000l-3826.8-761.2-3244.3-2167.7-2167.7-3244.3-761.2-3826.8v-20000l761.2-3826.8 2167.7-3244.3 3244.3-2167.7 3826.8-761.2h26000l3826.8 761.2 3244.3 2167.7 2167.7 3244.3 761.2 3826.8zM19590000 8372500l-761.2 3826.8-2167.7 3244.3-3244.3 2167.7-3826.8 761.2h-26000l-3826.8-761.2-3244.3-2167.7-2167.7-3244.3-761.2-3826.8v-20000l761.2-3826.8 2167.7-3244.3 3244.3-2167.7 3826.8-761.2h26000l3826.8 761.2 3244.3 2167.7 2167.7 3244.3 761.2 3826.8zM19526000 8372500l-761.2 3826.8-2167.7 3244.3-3244.3 2167.7-3826.8 761.2h-26000l-3826.8-761.2-3244.3-2167.7-2167.7-3244.3-761.2-3826.8v-20000l761.2-3826.8 2167.7-3244.3 3244.3-2167.7 3826.8-761.2h26000l3826.8 761.2 3244.3 2167.7 2167.7 3244.3 761.2 3826.8zM19614500 7402500l-761.2 3826.8-2167.7 3244.3-3244.3 2167.7-3826.8 761.2h-26000l-3826.8-761.2-3244.3-2167.7-2167.7-3244.3-761.2-3826.8v-20000l761.2-3826.8 2167.7-3244.3 3244.3-2167.7 3826.8-761.2h26000l3826.8 761.2 3244.3 2167.7 2167.7 3244.3 761.2 3826.8zM19550000 7402500l-761.2 3826.8-2167.7 3244.3-3244.3 2167.7-3826.8 761.2h-26000l-3826.8-761.2-3244.3-2167.7-2167.7-3244.3-761.2-3826.8v-20000l761.2-3826.8 2167.7-3244.3 3244.3-2167.7 3826.8-761.2h26000l3826.8 761.2 3244.3 2167.7 2167.7 3244.3 761.2 3826.8zM19542500 7975000l-1141.8 5740.3-3251.6 4866.3-4866.3 3251.6-5740.3 1141.8h-65000l-5740.3-1141.8-4866.3-3251.6-3251.6-4866.3-1141.8-5740.3v-30000l1141.8-5740.3 3251.6-4866.3 4866.3-3251.6 5740.3-1141.8h65000l5740.3 1141.8 4866.3 3251.6 3251.6 4866.3 1141.8 5740.3zM19542500 7895000l-1141.8 5740.3-3251.6 4866.3-4866.3 3251.6-5740.3 1141.8h-65000l-5740.3-1141.8-4866.3-3251.6-3251.6-4866.3-1141.8-5740.3v-30000l1141.8-5740.3 3251.6-4866.3 4866.3-3251.6 5740.3-1141.8h65000l5740.3 1141.8 4866.3 3251.6 3251.6 4866.3 1141.8 5740.3zM19542500 7815000l-1141.8 5740.3-3251.6 4866.3-4866.3 3251.6-5740.3 1141.8h-65000l-5740.3-1141.8-4866.3-3251.6-3251.6-4866.3-1141.8-5740.3v-30000l1141.8-5740.3 3251.6-4866.3 4866.3-3251.6 5740.3-1141.8h65000l5740.3 1141.8 4866.3 3251.6 3251.6 4866.3 1141.8 5740.3zM19542500 7735000l-1141.8 5740.3-3251.6 4866.3-4866.3 3251.6-5740.3 1141.8h-65000l-5740.3-1141.8-4866.3-3251.6-3251.6-4866.3-1141.8-5740.3v-30000l1141.8-5740.3 3251.6-4866.3 4866.3-3251.6 5740.3-1141.8h65000l5740.3 1141.8 4866.3 3251.6 3251.6 4866.3 1141.8 5740.3zM19542500 7655000l-1141.8 5740.3-3251.6 4866.3-4866.3 3251.6-5740.3 1141.8h-65000l-5740.3-1141.8-4866.3-3251.6-3251.6-4866.3-1141.8-5740.3v-30000l1141.8-5740.3 3251.6-4866.3 4866.3-3251.6 5740.3-1141.8h65000l5740.3 1141.8 4866.3 3251.6 3251.6 4866.3 1141.8 5740.3zM19542500 7575000l-1141.8 5740.3-3251.6 4866.3-4866.3 3251.6-5740.3 1141.8h-65000l-5740.3-1141.8-4866.3-3251.6-3251.6-4866.3-1141.8-5740.3v-30000l1141.8-5740.3 3251.6-4866.3 4866.3-3251.6 5740.3-1141.8h65000l5740.3 1141.8 4866.3 3251.6 3251.6 4866.3 1141.8 5740.3zM19425000 7592500l-1141.8 5740.3-3251.6 4866.3-4866.3 3251.6-5740.3 1141.8h-30000l-5740.3-1141.8-4866.3-3251.6-3251.6-4866.3-1141.8-5740.3v-65000l1141.8-5740.3 3251.6-4866.3 4866.3-3251.6 5740.3-1141.8h30000l5740.3 1141.8 4866.3 3251.6 3251.6 4866.3 1141.8 5740.3zM19342500 7575000l-1141.8 5740.3-3251.6 4866.3-4866.3 3251.6-5740.3 1141.8h-65000l-5740.3-1141.8-4866.3-3251.6-3251.6-4866.3-1141.8-5740.3v-30000l1141.8-5740.3 3251.6-4866.3 4866.3-3251.6 5740.3-1141.8h65000l5740.3 1141.8 4866.3 3251.6 3251.6 4866.3 1141.8 5740.3zM19342500 7655000l-1141.8 5740.3-3251.6 4866.3-4866.3 3251.6-5740.3 1141.8h-65000l-5740.3-1141.8-4866.3-3251.6-3251.6-4866.3-1141.8-5740.3v-30000l1141.8-5740.3 3251.6-4866.3 4866.3-3251.6 5740.3-1141.8h65000l5740.3 1141.8 4866.3 3251.6 3251.6 4866.3 1141.8 5740.3zM19342500 7735000l-1141.8 5740.3-3251.6 4866.3-4866.3 3251.6-5740.3 1141.8h-65000l-5740.3-1141.8-4866.3-3251.6-3251.6-4866.3-1141.8-5740.3v-30000l1141.8-5740.3 3251.6-4866.3 4866.3-3251.6 5740.3-1141.8h65000l5740.3 1141.8 4866.3 3251.6 3251.6 4866.3 1141.8 5740.3zM19342500 7815000l-1141.8 5740.3-3251.6 4866.3-4866.3 3251.6-5740.3 1141.8h-65000l-5740.3-1141.8-4866.3-3251.6-3251.6-4866.3-1141.8-5740.3v-30000l1141.8-5740.3 3251.6-4866.3 4866.3-3251.6 5740.3-1141.8h65000l5740.3 1141.8 4866.3 3251.6 3251.6 4866.3 1141.8 5740.3zM19342500 7895000l-1141.8 5740.3-3251.6 4866.3-4866.3 3251.6-5740.3 1141.8h-65000l-5740.3-1141.8-4866.3-3251.6-3251.6-4866.3-1141.8-5740.3v-30000l1141.8-5740.3 3251.6-4866.3 4866.3-3251.6 5740.3-1141.8h65000l5740.3 1141.8 4866.3 3251.6 3251.6 4866.3 1141.8 5740.3zM19342500 7975000l-1141.8 5740.3-3251.6 4866.3-4866.3 3251.6-5740.3 1141.8h-65000l-5740.3-1141.8-4866.3-3251.6-3251.6-4866.3-1141.8-5740.3v-30000l1141.8-5740.3 3251.6-4866.3 4866.3-3251.6 5740.3-1141.8h65000l5740.3 1141.8 4866.3 3251.6 3251.6 4866.3 1141.8 5740.3zM19425000 7992500l-1141.8 5740.3-3251.6 4866.3-4866.3 3251.6-5740.3 1141.8h-30000l-5740.3-1141.8-4866.3-3251.6-3251.6-4866.3-1141.8-5740.3v-65000l1141.8-5740.3 3251.6-4866.3 4866.3-3251.6 5740.3-1141.8h30000l5740.3 1141.8 4866.3 3251.6 3251.6 4866.3 1141.8 5740.3zM20175000 6837000v-170000h170000v170000z"/></g><circle cx="20260000" cy="7006000" r="85000"/><circle cx="20260000" cy="7260000" r="85000"/><circle cx="20260000" cy="7514000" r="85000"/><circle cx="20260000" cy="7768000" r="85000"/><circle cx="20260000" cy="8022000" r="85000"/><circle cx="20260000" cy="8276000" r="85000"/><circle cx="20260000" cy="8530000" r="85000"/><g fill-rule="evenodd"><path d="M19340000 7153000h-65000v-106000h65000zM19435000 7153000h-65000v-106000h65000zM19530000 7153000h-65000v-106000h65000zM19530000 6933000h-65000v-106000h65000zM19340000 6933000h-65000v-106000h65000zM19588500 8247500l-761.2 3826.8-2167.7 3244.3-3244.3 2167.7-3826.8 761.2h-26000l-3826.8-761.2-3244.3-2167.7-2167.7-3244.3-761.2-3826.8v-20000l761.2-3826.8 2167.7-3244.3 3244.3-2167.7 3826.8-761.2h26000l3826.8 761.2 3244.3 2167.7 2167.7 3244.3 761.2 3826.8zM19524500 8247500l-761.2 3826.8-2167.7 3244.3-3244.3 2167.7-3826.8 761.2h-26000l-3826.8-761.2-3244.3-2167.7-2167.7-3244.3-761.2-3826.8v-20000l761.2-3826.8 2167.7-3244.3 3244.3-2167.7 3826.8-761.2h26000l3826.8 761.2 3244.3 2167.7 2167.7 3244.3 761.2 3826.8z"/></g><circle cx="19125000" cy="7700000" r="40000"/><circle cx="19397550" cy="7800000" r="40000"/><circle cx="19500000" cy="7000000" r="40000"/><circle cx="19325000" cy="7000000" r="40000"/><circle cx="19692500" cy="7392500" r="40000"/><circle cx="19400000" cy="7450000" r="40000"/><circle cx="19774000" cy="8276000" r="40000"/><circle cx="19400000" cy="8275000" r="40000"/><circle cx="19275000" cy="7375000" r="40000"/><circle cx="20050000" cy="7525000" r="40000"/><circle cx="19200000" cy="7275000" r="40000"/><circle cx="20050000" cy="7375000" r="40000"/><circle cx="19735000" cy="8110000" r="40000"/><circle cx="19225000" cy="8175000" r="40000"/></g><g fill-opacity="0" stroke-width="25000" fill="none"><path d="M19400000 7800000v-50000M19400000 7750000l30000-30000M19400000 7800000h-2450M19789000 7695000l-6500 6500M19473000 6752000h787000M19625000 7875000h-125000M19430000 7720000h65000M19402500 7100000v-302500M19495000 7640000h226000M19722500 7925000h-47500M19402500 7177500l97500 97500M19500000 7875000l-5000 5000M19448000 6752000h25000M19402500 6797500l45500-45500M19789000 7557500v137500M19495000 7720000v-80000M19223000 6752000h250000M19125000 6850000l98000-98000M19402500 7100000v77500M19400000 7850000v-50000M19675000 7925000l-50000-50000M19125000 7700000v-850000M19430000 7880000l-30000-30000M19495000 7880000h-65000M19721000 7640000l61500 61500M19501500 8237500v123500M19825000 7500000l50000 50000M19725000 7557500h-227500M19501500 8237500v-126500M19200000 6925000l45000-45000M19495000 7960000h115000M19750000 7500000h75000M19786500 7801500l-4000-4000M19786500 7925000v-123500M19875000 7775000l-22500 22500M19750000 8000000l36500-36500M19527500 7392500h-60000M19495000 7425000l32500-32500M19786500 7963500v-38500M19495000 7560000v-135000M19650000 8000000h100000M19610000 7960000l40000 40000M19250000 7225000l-50000-50000M19501500 8111000l1000-1000M19725000 7525000l25000-25000M19725000 7557500v-32500M19497500 7557500l-2500 2500M19300000 7225000h-50000M19502500 8110000v-142500M19501500 8361000l1500 1500M19875000 7550000v225000M19502500 7967500l-7500-7500M19245000 6880000h62500M19467500 7392500l-167500-167500M19200000 7175000v-250000M19852500 7797500h-70000M19500000 7097500l-2500 2500M19596000 7171000l-71000-71000M20019000 7006000l-269000 269000M19307500 7017500l17500-17500M19500000 7000000v97500M19525000 7100000h-27500M19750000 7275000h-154000M19307500 7100000v-82500M19596000 7275000v-104000M20260000 7006000h-241000M19692500 7392500h190000M19591500 7392500h101000M19882500 7392500l132500-132500M19395000 7560000v-105000M20015000 7260000h245000M19395000 7455000l5000-5000M19395000 7960000v310000M20260000 8276000h-486000M19395000 8270000l5000 5000M19662500 8237500h-97000M19701000 8276000l-38500-38500M19774000 8276000h-73000M19525000 8450000l50000-50000M19295000 7960000l30000 30000M19575000 8370500l-8000-8000M19325000 7990000v410000M19575000 8400000v-29500M19712500 8362500h-145500M19375000 8450000h150000M20260000 8530000h-380000M19325000 8400000l50000 50000M19880000 8530000l-167500-167500M19295000 7560000v-165000M20050000 7525000h199000M20249000 7525000l11000-11000M19295000 7395000l-20000-20000M20043000 7768000h217000M19950000 7675000l93000 93000M19950000 7475000v200000M19240000 7640000l-40000-40000M19175000 7300000l25000-25000M19175000 7575000v-275000M20050000 7375000l-100000 100000M19200000 7600000l-25000-25000M19295000 7640000h-55000M19295000 7880000h-50000M19200000 8150000l25000 25000M19245000 7880000l-45000 45000M19200000 7925000v225000M20172000 8110000l88000-88000M19735000 8110000h437000M19566500 8110000h168500"/></g></g><g fill="#f0f0f0" fill-opacity="0" mask="url(#d)" stroke="#f0f0f0" stroke-linecap="round" stroke-linejoin="round"><g class="stroked-text" stroke-width="62500"><path d="M18703244 9246666h119047M18679434 9318095l83333-250000 83334 250000M18929434 9318095v-250000h59524l35714 11905 23810 23809 11904 23810 11905 47619v35714l-11905 47619-11904 23809-23810 23810-35714 11905h-59524M19155625 9068095l166666 250000M19322291 9068095l-166666 250000M19536577 9318095h-119048v-250000M19596101 9068095h154762l-83334 95238h35715l23809 11905 11905 11904 11905 23810v59524l-11905 23809-11905 11905-23809 11905h-71429l-23810-11905-11904-11905M19965148 9151428v166667M19905625 9056190l-59524 178571h154762M20215148 9068095h-119047l-11905 119047 11905-11904 23809-11905h59524l23810 11905 11904 11904 11905 23810v59524l-11905 23809-11904 11905-23810 11905h-59524l-23809-11905-11905-11905" fill="none"/></g><g stroke-width="37500"><g class="stroked-text"><path d="M14982946 9775000h71429M14968660 9817857l50000-150000 50000 150000M15204375 9803571l-7143 7143-21429 7143h-14286l-21428-7143-14286-14286-7143-14286-7143-28571v-21429l7143-28571 7143-14286 14286-14285 21428-7143h14286l21429 7143 7143 7142M15354375 9803571l-7143 7143-21429 7143h-14286l-21428-7143-14286-14286-7143-14286-7143-28571v-21429l7143-28571 7143-14286 14286-14285 21428-7143h14286l21429 7143 7143 7142M15518660 9667857l100000 150000M15618660 9667857l-100000 150000" fill="none"/></g><g class="stroked-text"><path d="M17517946 9765000h71429M17503660 9807857l50000-150000 50000 150000M17739375 9793571l-7143 7143-21429 7143h-14286l-21428-7143-14286-14286-7143-14286-7143-28571v-21429l7143-28571 7143-14286 14286-14285 21428-7143h14286l21429 7143 7143 7142M17889375 9793571l-7143 7143-21429 7143h-14286l-21428-7143-14286-14286-7143-14286-7143-28571v-21429l7143-28571 7143-14286 14286-14285 21428-7143h14286l21429 7143 7143 7142M18053660 9657857h100000l-100000 150000h100000" fill="none"/></g><g class="stroked-text"><path d="M16242946 9775000h71429M16228660 9817857l50000-150000 50000 150000M16464375 9803571l-7143 7143-21429 7143h-14286l-21428-7143-14286-14286-7143-14286-7143-28571v-21429l7143-28571 7143-14286 14286-14285 21428-7143h14286l21429 7143 7143 7142M16614375 9803571l-7143 7143-21429 7143h-14286l-21428-7143-14286-14286-7143-14286-7143-28571v-21429l7143-28571 7143-14286 14286-14285 21428-7143h14286l21429 7143 7143 7142M16821517 9746428v71429M16771517 9667857l50000 78571 50000-78571" fill="none"/></g></g><g stroke-width="12000" fill="none"><path d="M19558783 7311000h-21567M19558783 7239000h-21567M19818500 7760283v-21567M19746500 7760283v-21567M19451000 7499000h105000M19339000 8021000h-105000M19339000 7499000h-105000M20127000 6879000h266000M20127000 8663000h266000M20393000 6619000v133000M20393000 6879000v1784000M20127000 6879000v1784000M20260000 6619000h133000M19241500 6900000v245000M19563500 7080000v-180000"/></g></g><g stroke="#000" stroke-width="15000"><g fill-opacity="0" stroke-linecap="round" stroke-linejoin="round" fill="none"><path d="M14600000 11590000h5970000M14605000 5720000l-5000 5870000M20570000 5720000h-5965000M20570000 11590000V5720000"/></g><path d="M20210000 6752000a50000 50000 0 1 1 100000 0 50000 50000 0 1 1-100000 0zM20210000 7006000a50000 50000 0 1 1 100000 0 50000 50000 0 1 1-100000 0zM20210000 7260000a50000 50000 0 1 1 100000 0 50000 50000 0 1 1-100000 0zM20210000 7514000a50000 50000 0 1 1 100000 0 50000 50000 0 1 1-100000 0zM20210000 7768000a50000 50000 0 1 1 100000 0 50000 50000 0 1 1-100000 0zM20210000 8022000a50000 50000 0 1 1 100000 0 50000 50000 0 1 1-100000 0zM20210000 8276000a50000 50000 0 1 1 100000 0 50000 50000 0 1 1-100000 0zM20210000 8530000a50000 50000 0 1 1 100000 0 50000 50000 0 1 1-100000 0zM19105000 7700000a20000 20000 0 1 1 40000 0 20000 20000 0 1 1-40000 0zM19377550 7800000a20000 20000 0 1 1 40000 0 20000 20000 0 1 1-40000 0zM19480000 7000000a20000 20000 0 1 1 40000 0 20000 20000 0 1 1-40000 0zM19305000 7000000a20000 20000 0 1 1 40000 0 20000 20000 0 1 1-40000 0zM19672500 7392500a20000 20000 0 1 1 40000 0 20000 20000 0 1 1-40000 0zM19380000 7450000a20000 20000 0 1 1 40000 0 20000 20000 0 1 1-40000 0zM19754000 8276000a20000 20000 0 1 1 40000 0 20000 20000 0 1 1-40000 0zM19380000 8275000a20000 20000 0 1 1 40000 0 20000 20000 0 1 1-40000 0zM19255000 7375000a20000 20000 0 1 1 40000 0 20000 20000 0 1 1-40000 0zM20030000 7525000a20000 20000 0 1 1 40000 0 20000 20000 0 1 1-40000 0zM19180000 7275000a20000 20000 0 1 1 40000 0 20000 20000 0 1 1-40000 0zM20030000 7375000a20000 20000 0 1 1 40000 0 20000 20000 0 1 1-40000 0zM19715000 8110000a20000 20000 0 1 1 40000 0 20000 20000 0 1 1-40000 0zM19205000 8175000a20000 20000 0 1 1 40000 0 20000 20000 0 1 1-40000 0z"/></g></g><g transform="rotate(180 9892900 4013150) scale(100000)"><g id="e" stroke-width=".013"><path d="M.163 1.148v-.27h.3v.27h-.3z" fill="#f95" stroke="#000"/><g transform="matrix(1 0 0 -1 .313 1.013)"><path d="M-.3.15h.15v-.3H-.3v.3zM.15-.15H.3v.3H.15v-.3z" fill="#b3b3b3" fill-rule="evenodd" stroke="#191919"/><path d="M-.3-.135h.15M-.3.135h.15M-.15.12h.3M-.15-.12h.3M.15-.135H.3M.15.135H.3" fill="none" stroke="#191919"/></g></g></g><g stroke-width=".013"><path d="M19518000 7252000h60000v46000-.002h-60000v.002-46000z" fill="#ffb380" stroke="#000" stroke-width="1300"/><g transform="matrix(-100000 0 0 100000 19548000 7275000)" fill="#b3b3b3"><g fill-rule="evenodd" stroke="#191919"><path d="M-.3.25v-.5h-.2v.5zM.5.25v-.5H.3v.5zM-.5-.23h.2M-.5.23h.2M-.3.21h.6M-.3-.21h.6M.3-.23h.2M.3.23h.2"/></g></g></g><g stroke-width=".013"><path d="M19805500 7719500v60000h-46000 .002v-60000h-.002 46000z" fill="#ffb380" stroke="#000" stroke-width="1300"/><g transform="matrix(0 -100000 -100000 0 19782500 7749500)" fill="#b3b3b3"><g fill-rule="evenodd" stroke="#191919"><path d="M-.3.25v-.5h-.2v.5zM.5.25v-.5H.3v.5zM-.5-.23h.2M-.5.23h.2M-.3.21h.6M-.3-.21h.6M.3-.23h.2M.3.23h.2"/></g></g></g><use xlink:href="#e" transform="translate(19725700 7456200) scale(100000)"/><g transform="rotate(180 9782900 4105650) scale(100000)"><g transform="matrix(1 0 0 -1 .313 1.013)" stroke-width=".013" id="f"><path d="M-.2-.15h-.1v.3h.1zM.2-.15h.1v.3H.2z" fill="#999" fill-rule="evenodd" stroke="#191919"/><path d="M-.2.15h.4v-.3h-.4z" fill="#333" fill-rule="evenodd" stroke="#191919"/><path d="M-.277-.15v.3M-.223-.15v.3M.277-.15v.3M.223-.15v.3" fill="none" stroke="#191919"/></g></g><use xlink:href="#f" transform="rotate(180 9783150 4231900) scale(100000)"/><g transform="matrix(-100000 0 0 100000 19560000 7392500)" stroke-width=".013"><g fill-rule="evenodd" stroke="#191919"><path d="M-.2-.15h-.1v.3h.1zM.2-.15h.1v.3H.2z" fill="#999"/><path d="M-.2.15h.4v-.3h-.4z" fill="#333"/></g><g fill="none" stroke="#191919"><path d="M-.277-.15v.3M-.223-.15v.3M.277-.15v.3M.223-.15v.3"/></g></g><g transform="matrix(-100000 0 0 100000 19395000 7760000)" stroke-width=".1"><path d="M-1.5 2.5h3v-5h-3z" fill="#333" fill-rule="evenodd" stroke="#191919"/><circle cx="-1" cy="2" r=".1" fill="#666" stroke="#191919"/></g><g stroke="#000" stroke-width=".093"><path d="M20387000 6625000h-254000v2032000h254000z" fill="#1a1a1a" fill-rule="evenodd" stroke-width="9300"/><path d="M20200000 8589960h120000v-120000h-120000z" fill="#666" fill-rule="evenodd" stroke-width="9300"/><path d="M20230000 8559960h60000v-60000h-60000z" fill="olive" fill-rule="evenodd" stroke-width="9300"/><g fill="none"><path d="m20200000 8589960 29900-29900M20320000 8589960l-29900-29900M20229900 8560060h60200M20200000 8469960l29900 29900M20229900 8499860v60200M20320000 8469960l-29900 29900M20290100 8499860h-60200M20290100 8560060v-60200M20250000 8504960v-5000M20250000 8554960v-50000M20250000 8559960v-5000M20270000 8559960v-5000M20250000 8554960h20000M20270000 8554960v-50000M20270000 8504960v-5000M20250000 8504960h20000" stroke-width="9300"/></g><path d="M20200000 8335960h120000v-120000h-120000z" fill="#666" fill-rule="evenodd" stroke-width="9300"/><path d="M20230000 8305960h60000v-60000h-60000z" fill="olive" fill-rule="evenodd" stroke-width="9300"/><g fill="none"><path d="m20200000 8335960 29900-29900M20320000 8335960l-29900-29900M20229900 8306060h60200M20200000 8215960l29900 29900M20229900 8245860v60200M20320000 8215960l-29900 29900M20290100 8245860h-60200M20290100 8306060v-60200M20250000 8250960v-5000M20250000 8300960v-50000M20250000 8305960v-5000M20270000 8305960v-5000M20250000 8300960h20000M20270000 8300960v-50000M20270000 8250960v-5000M20250000 8250960h20000" stroke-width="9300"/></g><path d="M20200000 8081960h120000v-120000h-120000z" fill="#666" fill-rule="evenodd" stroke-width="9300"/><path d="M20230000 8051960h60000v-60000h-60000z" fill="olive" fill-rule="evenodd" stroke-width="9300"/><g fill="none"><path d="m20200000 8081960 29900-29900M20320000 8081960l-29900-29900M20229900 8052060h60200M20200000 7961960l29900 29900M20229900 7991860v60200M20320000 7961960l-29900 29900M20290100 7991860h-60200M20290100 8052060v-60200M20250000 7996960v-5000M20250000 8046960v-50000M20250000 8051960v-5000M20270000 8051960v-5000M20250000 8046960h20000M20270000 8046960v-50000M20270000 7996960v-5000M20250000 7996960h20000" stroke-width="9300"/></g><path d="M20200000 7827960h120000v-120000h-120000z" fill="#666" fill-rule="evenodd" stroke-width="9300"/><path d="M20230000 7797960h60000v-60000h-60000z" fill="olive" fill-rule="evenodd" stroke-width="9300"/><g fill="none"><path d="m20200000 7827960 29900-29900M20320000 7827960l-29900-29900M20229900 7798060h60200M20200000 7707960l29900 29900M20229900 7737860v60200M20320000 7707960l-29900 29900M20290100 7737860h-60200M20290100 7798060v-60200M20250000 7742960v-5000M20250000 7792960v-50000M20250000 7797960v-5000M20270000 7797960v-5000M20250000 7792960h20000M20270000 7792960v-50000M20270000 7742960v-5000M20250000 7742960h20000" stroke-width="9300"/></g><path d="M20200000 7573960h120000v-120000h-120000z" fill="#666" fill-rule="evenodd" stroke-width="9300"/><path d="M20230000 7543960h60000v-60000h-60000z" fill="olive" fill-rule="evenodd" stroke-width="9300"/><g fill="none"><path d="m20200000 7573960 29900-29900M20320000 7573960l-29900-29900M20229900 7544060h60200M20200000 7453960l29900 29900M20229900 7483860v60200M20320000 7453960l-29900 29900M20290100 7483860h-60200M20290100 7544060v-60200M20250000 7488960v-5000M20250000 7538960v-50000M20250000 7543960v-5000M20270000 7543960v-5000M20250000 7538960h20000M20270000 7538960v-50000M20270000 7488960v-5000M20250000 7488960h20000" stroke-width="9300"/></g><path d="M20200000 7319960h120000v-120000h-120000z" fill="#666" fill-rule="evenodd" stroke-width="9300"/><path d="M20230000 7289960h60000v-60000h-60000z" fill="olive" fill-rule="evenodd" stroke-width="9300"/><g fill="none"><path d="m20200000 7319960 29900-29900M20320000 7319960l-29900-29900M20229900 7290060h60200M20200000 7199960l29900 29900M20229900 7229860v60200M20320000 7199960l-29900 29900M20290100 7229860h-60200M20290100 7290060v-60200M20250000 7234960v-5000M20250000 7284960v-50000M20250000 7289960v-5000M20270000 7289960v-5000M20250000 7284960h20000M20270000 7284960v-50000M20270000 7234960v-5000M20250000 7234960h20000" stroke-width="9300"/></g><path d="M20200000 7065960h120000v-120000h-120000z" fill="#666" fill-rule="evenodd" stroke-width="9300"/><path d="M20230000 7035960h60000v-60000h-60000z" fill="olive" fill-rule="evenodd" stroke-width="9300"/><g fill="none"><path d="m20200000 7065960 29900-29900M20320000 7065960l-29900-29900M20229900 7036060h60200M20200000 6945960l29900 29900M20229900 6975860v60200M20320000 6945960l-29900 29900M20290100 6975860h-60200M20290100 7036060v-60200M20250000 6980960v-5000M20250000 7030960v-50000M20250000 7035960v-5000M20270000 7035960v-5000M20250000 7030960h20000M20270000 7030960v-50000M20270000 6980960v-5000M20250000 6980960h20000" stroke-width="9300"/></g><path d="M20200000 6811960h120000v-120000h-120000z" fill="#666" fill-rule="evenodd" stroke-width="9300"/><path d="M20230000 6781960h60000v-60000h-60000z" fill="olive" fill-rule="evenodd" stroke-width="9300"/><g fill="none"><path d="m20200000 6811960 29900-29900M20320000 6811960l-29900-29900M20229900 6782060h60200M20200000 6691960l29900 29900M20229900 6721860v60200M20320000 6691960l-29900 29900M20290100 6721860h-60200M20290100 6782060v-60200M20250000 6726960v-5000M20250000 6776960v-50000M20250000 6781960v-5000M20270000 6781960v-5000M20250000 6776960h20000M20270000 6776960v-50000M20270000 6726960v-5000M20250000 6726960h20000" stroke-width="9300"/></g></g><g stroke-width=".093" stroke="#000"><g fill="none"><path d="M19257500 7060500v-141000M19257500 6919500l9500-9500M19257500 6919500l2500 1250M19260000 7059250v-138500M19257500 7060500l2500-1250M19267000 7070000l-9500-9500M19267000 6910000h15500M19522500 6910000h15500M19332500 6910000h140000M19538000 6910000l9500 9500M19547500 6919500v141000M19547500 7060500l-9500 9500M19538000 7070000h-15500M19282500 7070000h-15500M19472500 7070000h-45000M19377500 7070000h-45000M19267000 6910000l1250 2500M19260000 6920750l8250-8250M19260000 6920750l9135.2 4567.6M19260000 7059250l9135.2-4567.6M19268250 7067500l-8250-8250M19267000 7070000l1250-2500M19268250 6912500h14250M19538000 6910000l-1250 2500M19522500 6912500h14250M19332500 6912500h140000M19547500 6919500l-2500 1250M19536750 6912500l8250 8250M19547500 7060500l-2500-1250M19545000 6920750v138500M19538000 7070000l-1250-2500M19545000 7059250l-8250 8250M19536750 7067500h-14250M19522500 7075000v-5000M19282500 7067500h-14250M19472500 7075000v-5000M19472500 7067500h-45000M19377500 7067500h-45000M19268250 6912500l4567.6 9135.2M19269135 6925320l3682.4-3682.4M19532180 6921640l3682.4 3682.4" stroke-width="9300"/></g><path d="M19535860 6925320v129360l-3682.4 3682.4h-259360l-3682.4-3682.4v-129360l3682.4-3682.4h259360z" fill="#1a1a1a" fill-rule="evenodd" stroke-width="9300"/><g fill="none"><path d="m19535860 7054682-3682.4 3682.4M19272818 7058365l-3682.4-3682.4M19268250 7067500l4567.6-9135.2M19536750 6912500l-4567.6 9135.2M19545000 6920750l-9135.2 4567.6M19545000 7059250l-9135.2-4567.6M19536750 7067500l-4567.6-9135.2" stroke-width="9300"/></g><path d="M19522500 7067500h-50000" fill="none" stroke-width="9300"/><path d="M19522500 7130000h-50000v-55000h50000v35000z" fill="gray" fill-rule="evenodd" stroke-width="9300"/><path d="M19522500 7100000h-50000M19522500 7110000h-50000M19522500 7070000v-2500M19472500 7070000v-2500M19427500 7067500h-50000" fill="none" stroke-width="9300"/><path d="M19427500 7130000h-50000v-55000h50000v35000z" fill="gray" fill-rule="evenodd" stroke-width="9300"/><path d="M19427500 7100000h-50000M19427500 7110000h-50000M19332500 7067500h-50000" fill="none" stroke-width="9300"/><path d="M19332500 7130000h-50000v-55000h50000v35000z" fill="gray" fill-rule="evenodd" stroke-width="9300"/><path d="M19332500 7100000h-50000M19332500 7110000h-50000M19472500 6912500h50000" fill="none" stroke-width="9300"/><path d="M19472500 6850000h50000v55000h-50000v-35000z" fill="gray" fill-rule="evenodd" stroke-width="9300"/><path d="M19472500 6880000h50000M19472500 6870000h50000M19282500 6912500h50000" fill="none" stroke-width="9300"/><path d="M19282500 6850000h50000v55000h-50000v-35000z" fill="gray" fill-rule="evenodd" stroke-width="9300"/><path d="M19282500 6880000h50000M19282500 6870000h50000" fill="none" stroke-width="9300"/></g><use xlink:href="#f" transform="rotate(180 9782400 4169400) scale(100000)"/></svg>