<svg width="526" height="264" viewBox="0 0 36633 18394" xmlns="http://www.w3.org/2000/svg"><g clip-path="url(#a)" mask="url(#b)" transform="translate(-47038 -12589)"><defs><clipPath id="a"><path d="M47047 12598v18307h36614V12598H47047" fill-rule="evenodd"/></clipPath></defs><g fill="#313d63" stroke="#313d63"><path d="M47047 12598v18307h36614V12598H47047" fill-rule="evenodd"/><g fill-opacity="0" stroke-linecap="round" stroke-linejoin="round" stroke-width="19.685" fill="none" stroke="#000"><path d="M47047 30905h36614M83661 12598v18307M47047 12598h36614M47047 30905V12598"/></g></g><g stroke-linecap="round" stroke-linejoin="round" fill="#9c6b28" stroke="#9c6b28"><g stroke-width="0" stroke="none"><circle cx="79791" cy="14213" r="314.96"/><circle cx="76791" cy="21213" r="314.96"/><circle cx="79791" cy="15213" r="314.96"/><circle cx="76791" cy="20213" r="314.96"/><circle cx="79791" cy="16213" r="314.96"/><circle cx="76791" cy="19213" r="314.96"/><circle cx="79791" cy="17213" r="314.96"/><circle cx="76791" cy="18213" r="314.96"/><circle cx="79791" cy="18213" r="314.96"/><circle cx="76791" cy="17213" r="314.96"/><circle cx="79791" cy="19213" r="314.96"/><circle cx="76791" cy="16213" r="314.96"/><circle cx="79791" cy="20213" r="314.96"/><circle cx="76791" cy="15213" r="314.96"/><circle cx="79791" cy="21213" r="314.96"/><path d="M76476 14528v-630h629.9v630z" fill-rule="evenodd"/><circle cx="82520" cy="24768" r="334.65"/><circle cx="82520" cy="23768" r="334.65"/><circle cx="82520" cy="22768" r="334.65"/><circle cx="82520" cy="21768" r="334.65"/><circle cx="82520" cy="20768" r="334.65"/><circle cx="82520" cy="19768" r="334.65"/><circle cx="82520" cy="18768" r="334.65"/><circle cx="82520" cy="17768" r="334.65"/><circle cx="82520" cy="16768" r="334.65"/><path d="M82185 16102v-669.3h669.3v669.3z" fill-rule="evenodd"/></g><path d="M59346 21363v-993.7h600v993.7z" fill-rule="evenodd" stroke="none" stroke-width="0"/><g fill-opacity="0" stroke-width="600" fill="none"><path d="M60645 20669v393M61645 20669v393M62645 20669v393M63645 20669v393M63645 14669v393M62645 14669v393M61645 14669v393M60645 14669v393M59645 14669v393"/></g><g stroke-width="0" stroke="none"><circle cx="71228" cy="21850" r="275.59"/><circle cx="73228" cy="21850" r="275.59"/><circle cx="71228" cy="22835" r="275.59"/><circle cx="73228" cy="22835" r="275.59"/><circle cx="71228" cy="23819" r="275.59"/><circle cx="73228" cy="23819" r="275.59"/><circle cx="71228" cy="24803" r="275.59"/><circle cx="73228" cy="24803" r="275.59"/><circle cx="73260" cy="20669" r="275.59"/><circle cx="71260" cy="20669" r="275.59"/><circle cx="73260" cy="19732" r="275.59"/><circle cx="71260" cy="19732" r="275.59"/><circle cx="73260" cy="18701" r="275.59"/><circle cx="71260" cy="18701" r="275.59"/><circle cx="73260" cy="17716" r="275.59"/><circle cx="71260" cy="17716" r="275.59"/><circle cx="73260" cy="16732" r="275.59"/><circle cx="71260" cy="16732" r="275.59"/><circle cx="73260" cy="15748" r="275.59"/><circle cx="71260" cy="15748" r="275.59"/><circle cx="73260" cy="14764" r="275.59"/><circle cx="71260" cy="14764" r="275.59"/><circle cx="73260" cy="13780" r="275.59"/><circle cx="71260" cy="13780" r="275.59"/></g><path d="M66919 22894v-511.8h413.4v511.8z" fill-rule="evenodd" stroke="none" stroke-width="0"/><g fill-opacity="0" stroke-width="413.39" fill="none"><path d="M69125 22588v99M68125 22588v99"/></g><path d="M61408 22894v-511.8h413.4v511.8z" fill-rule="evenodd" stroke="none" stroke-width="0"/><g fill-opacity="0" stroke-width="413.39" fill="none"><path d="M63614 22588v99M62614 22588v99"/></g><path d="M55896 22894v-511.8h413.4v511.8z" fill-rule="evenodd" stroke="none" stroke-width="0"/><g fill-opacity="0" stroke-width="413.39" fill="none"><path d="M58102 22588v99M57102 22588v99"/></g><path d="M50384 22894v-511.8h413.3v511.8z" fill-rule="evenodd" stroke="none" stroke-width="0"/><g fill-opacity="0" stroke-width="413.39" fill="none"><path d="M52590 22588v99M51590 22588v99"/></g><path d="M64858 21363v-993.7h600v993.7z" fill-rule="evenodd" stroke="none" stroke-width="0"/><g fill-opacity="0" stroke-width="600" fill="none"><path d="M66157 20669v393M67157 20669v393M68157 20669v393M69157 20669v393M69157 14669v393M68157 14669v393M67157 14669v393M66157 14669v393M65157 14669v393"/></g><path d="M53834 21363v-993.7h600v993.7z" fill-rule="evenodd" stroke="none" stroke-width="0"/><g fill-opacity="0" stroke-width="600" fill="none"><path d="M55133 20669v393M56133 20669v393M57133 20669v393M58133 20669v393M58133 14669v393M57133 14669v393M56133 14669v393M55133 14669v393M54133 14669v393"/></g><path d="M48322 21363v-993.7h600v993.7z" fill-rule="evenodd" stroke="none" stroke-width="0"/><g fill-opacity="0" stroke-width="600" fill="none"><path d="M49622 20669v393M50622 20669v393M51622 20669v393M52622 20669v393M52622 14669v393M51622 14669v393M50622 14669v393M49622 14669v393M48622 14669v393"/></g></g><g fill="#212d53" stroke="#212d53" stroke-linecap="round" stroke-linejoin="round"><g stroke-width="0" stroke="none"><circle cx="79791" cy="14213" r="314.96"/><circle cx="76791" cy="21213" r="314.96"/><circle cx="79791" cy="15213" r="314.96"/><circle cx="76791" cy="20213" r="314.96"/><circle cx="79791" cy="16213" r="314.96"/><circle cx="76791" cy="19213" r="314.96"/><circle cx="79791" cy="17213" r="314.96"/><circle cx="76791" cy="18213" r="314.96"/><circle cx="79791" cy="18213" r="314.96"/><circle cx="76791" cy="17213" r="314.96"/><circle cx="79791" cy="19213" r="314.96"/><circle cx="76791" cy="16213" r="314.96"/><circle cx="79791" cy="20213" r="314.96"/><circle cx="76791" cy="15213" r="314.96"/><circle cx="79791" cy="21213" r="314.96"/><path d="M76476 14528v-630h629.9v630z" fill-rule="evenodd"/><circle cx="82520" cy="24768" r="334.65"/><circle cx="82520" cy="23768" r="334.65"/><circle cx="82520" cy="22768" r="334.65"/><circle cx="82520" cy="21768" r="334.65"/><circle cx="82520" cy="20768" r="334.65"/><circle cx="82520" cy="19768" r="334.65"/><circle cx="82520" cy="18768" r="334.65"/><circle cx="82520" cy="17768" r="334.65"/><circle cx="82520" cy="16768" r="334.65"/><path d="M82185 16102v-669.3h669.3v669.3z" fill-rule="evenodd"/></g><path d="M59346 21363v-993.7h600v993.7z" fill-rule="evenodd" stroke="none" stroke-width="0"/><g fill-opacity="0" stroke-width="600" fill="none"><path d="M60645 20669v393M61645 20669v393M62645 20669v393M63645 20669v393M63645 14669v393M62645 14669v393M61645 14669v393M60645 14669v393M59645 14669v393"/></g><g stroke-width="0" stroke="none"><circle cx="71228" cy="21850" r="275.59"/><circle cx="73228" cy="21850" r="275.59"/><circle cx="71228" cy="22835" r="275.59"/><circle cx="73228" cy="22835" r="275.59"/><circle cx="71228" cy="23819" r="275.59"/><circle cx="73228" cy="23819" r="275.59"/><circle cx="71228" cy="24803" r="275.59"/><circle cx="73228" cy="24803" r="275.59"/><circle cx="73260" cy="20669" r="275.59"/><circle cx="71260" cy="20669" r="275.59"/><circle cx="73260" cy="19732" r="275.59"/><circle cx="71260" cy="19732" r="275.59"/><circle cx="73260" cy="18701" r="275.59"/><circle cx="71260" cy="18701" r="275.59"/><circle cx="73260" cy="17716" r="275.59"/><circle cx="71260" cy="17716" r="275.59"/><circle cx="73260" cy="16732" r="275.59"/><circle cx="71260" cy="16732" r="275.59"/><circle cx="73260" cy="15748" r="275.59"/><circle cx="71260" cy="15748" r="275.59"/><circle cx="73260" cy="14764" r="275.59"/><circle cx="71260" cy="14764" r="275.59"/><circle cx="73260" cy="13780" r="275.59"/><circle cx="71260" cy="13780" r="275.59"/></g><path d="M66919 22894v-511.8h413.4v511.8z" fill-rule="evenodd" stroke="none" stroke-width="0"/><g fill-opacity="0" stroke-width="413.39" fill="none"><path d="M69125 22588v99M68125 22588v99"/></g><path d="M61408 22894v-511.8h413.4v511.8z" fill-rule="evenodd" stroke="none" stroke-width="0"/><g fill-opacity="0" stroke-width="413.39" fill="none"><path d="M63614 22588v99M62614 22588v99"/></g><path d="M55896 22894v-511.8h413.4v511.8z" fill-rule="evenodd" stroke="none" stroke-width="0"/><g fill-opacity="0" stroke-width="413.39" fill="none"><path d="M58102 22588v99M57102 22588v99"/></g><path d="M50384 22894v-511.8h413.3v511.8z" fill-rule="evenodd" stroke="none" stroke-width="0"/><g fill-opacity="0" stroke-width="413.39" fill="none"><path d="M52590 22588v99M51590 22588v99"/></g><path d="M64858 21363v-993.7h600v993.7z" fill-rule="evenodd" stroke="none" stroke-width="0"/><g fill-opacity="0" stroke-width="600" fill="none"><path d="M66157 20669v393M67157 20669v393M68157 20669v393M69157 20669v393M69157 14669v393M68157 14669v393M67157 14669v393M66157 14669v393M65157 14669v393"/></g><path d="M53834 21363v-993.7h600v993.7z" fill-rule="evenodd" stroke="none" stroke-width="0"/><g fill-opacity="0" stroke-width="600" fill="none"><path d="M55133 20669v393M56133 20669v393M57133 20669v393M58133 20669v393M58133 14669v393M57133 14669v393M56133 14669v393M55133 14669v393M54133 14669v393"/></g><path d="M48322 21363v-993.7h600v993.7z" fill-rule="evenodd" stroke="none" stroke-width="0"/><g fill-opacity="0" stroke-width="600" fill="none"><path d="M49622 20669v393M50622 20669v393M51622 20669v393M52622 20669v393M52622 14669v393M51622 14669v393M50622 14669v393M49622 14669v393M48622 14669v393"/></g><g stroke-width="0" stroke="none"><circle cx="65158" cy="17323" r="157.48"/><circle cx="59646" cy="17323" r="157.48"/><circle cx="54134" cy="17323" r="157.48"/><circle cx="55134" cy="16748" r="157.48"/><circle cx="60646" cy="16748" r="157.48"/><circle cx="66158" cy="16748" r="157.48"/><circle cx="49606" cy="16732" r="157.48"/><circle cx="57284" cy="16142" r="157.48"/><circle cx="62795" cy="16142" r="157.48"/><circle cx="68307" cy="16142" r="157.48"/><circle cx="51622" cy="16189" r="157.48"/><circle cx="50197" cy="17913" r="157.48"/><circle cx="55709" cy="17913" r="157.48"/><circle cx="61220" cy="17913" r="157.48"/><circle cx="66732" cy="17913" r="157.48"/><circle cx="49016" cy="18504" r="157.48"/><circle cx="54528" cy="18504" r="157.48"/><circle cx="60236" cy="18504" r="157.48"/><circle cx="65748" cy="18504" r="157.48"/></g><g fill-opacity="0" stroke-width="196.85" fill="none"><path d="M65157 20866v-3544M59645 20866v-3544M54133 20866v-3544M55133 20866v-4118M60645 20866v-4118M66157 20866v-4118M49622 20866v-4118M49622 16748l-16-16M50622 14866v6000M57133 20866v-4575M57133 16291l150-150M62645 20866v-4575M62645 16291l150-150M68157 20866v-4575M68157 16291l150-150M51622 20866v-4678M49622 14866v504M49622 15370l574 574M50196 15944v1969M55133 14866v700M55133 15566l575 575M55708 16141v1772M60645 14866v700M60645 15566l575 575M61220 16141v1772M66157 14866v700M66157 15566l575 575M66732 16141v1772M48622 14866v3244M48622 18110l393 393M54133 14866v1472M54133 16338l394 394M54527 16732v1771M59645 14866v1275M59645 16141l591 591M60236 16732v1771M65157 14866v1472M65157 16338l591 591M65748 16929v1574M56133 14866v6000M61645 14866v6000M67157 14866v6000M79555 19704h937M78062 18212l1493 1492M76791 18212h1271M80492 19704l177-177M80669 15090l-878-878M80669 19527v-4437M80492 19704h157M80649 19704l669 670M81318 20374v3818M81893 24767h626M81318 24192l575 575M76791 15212h575M77366 15212l1649-1650M79015 13562h1457M80472 13562l610 611M81082 14173v3760M81917 18767h602M81082 17933l835 834M82519 17767h-579M81940 17767l-346-346M81594 17421v-3642M81594 13779l-807-807M80787 12972h-3287M76791 13681v531M77500 12972l-709 709M76791 21212l4397 4398M81188 25610h1587M82775 25610l473-473M83248 25137v-9173M83051 15767h-532M83248 15964l-197-197M78283 15704h-2402M79791 17212l-1508-1508M73956 13779h-697M75881 15704l-1925-1925M78299 16720h-2366M79791 18212l-1492-1492M73976 14763h-717M75933 16720l-1957-1957M78299 17720h-2488M79791 19212l-1492-1492M73838 15748h-579M75811 17720l-1973-1972M79791 20212h-878M77421 18720h-1733M78913 20212l-1492-1492M73700 16732h-441M75688 18720l-1988-1988M73259 17716l1989 1988M79114 20535l677 677M78409 20535l-831-831M79114 20535h-705M75248 19704h2330"/></g><g stroke-width="0" stroke="none"><circle cx="65158" cy="17323" r="68.898"/><circle cx="59646" cy="17323" r="68.898"/><circle cx="54134" cy="17323" r="68.898"/><circle cx="55134" cy="16748" r="68.898"/><circle cx="60646" cy="16748" r="68.898"/><circle cx="66158" cy="16748" r="68.898"/><circle cx="49606" cy="16732" r="68.898"/><circle cx="57284" cy="16142" r="68.898"/><circle cx="62795" cy="16142" r="68.898"/><circle cx="68307" cy="16142" r="68.898"/><circle cx="51622" cy="16189" r="68.898"/><circle cx="50197" cy="17913" r="68.898"/><circle cx="55709" cy="17913" r="68.898"/><circle cx="61220" cy="17913" r="68.898"/><circle cx="66732" cy="17913" r="68.898"/><circle cx="49016" cy="18504" r="68.898"/><circle cx="54528" cy="18504" r="68.898"/><circle cx="60236" cy="18504" r="68.898"/><circle cx="65748" cy="18504" r="68.898"/><circle cx="79791" cy="14213" r="68.898"/><circle cx="76791" cy="21213" r="68.898"/><circle cx="79791" cy="15213" r="68.898"/><circle cx="76791" cy="20213" r="68.898"/><circle cx="79791" cy="16213" r="68.898"/><circle cx="76791" cy="19213" r="68.898"/><circle cx="79791" cy="17213" r="68.898"/><circle cx="76791" cy="18213" r="68.898"/><circle cx="79791" cy="18213" r="68.898"/><circle cx="76791" cy="17213" r="68.898"/><circle cx="79791" cy="19213" r="68.898"/><circle cx="76791" cy="16213" r="68.898"/><circle cx="79791" cy="20213" r="68.898"/><circle cx="76791" cy="15213" r="68.898"/><circle cx="79791" cy="21213" r="68.898"/><circle cx="76791" cy="14213" r="68.898"/><circle cx="82520" cy="24768" r="68.898"/><circle cx="82520" cy="23768" r="68.898"/><circle cx="82520" cy="22768" r="68.898"/><circle cx="82520" cy="21768" r="68.898"/><circle cx="82520" cy="20768" r="68.898"/><circle cx="82520" cy="19768" r="68.898"/><circle cx="82520" cy="18768" r="68.898"/><circle cx="82520" cy="17768" r="68.898"/><circle cx="82520" cy="16768" r="68.898"/><circle cx="82520" cy="15768" r="68.898"/><circle cx="59646" cy="20866" r="68.898"/><circle cx="60646" cy="20866" r="68.898"/><circle cx="61646" cy="20866" r="68.898"/><circle cx="62646" cy="20866" r="68.898"/><circle cx="63646" cy="20866" r="68.898"/><circle cx="63646" cy="14866" r="68.898"/><circle cx="62646" cy="14866" r="68.898"/><circle cx="61646" cy="14866" r="68.898"/><circle cx="60646" cy="14866" r="68.898"/><circle cx="59646" cy="14866" r="68.898"/><circle cx="71228" cy="21850" r="68.898"/><circle cx="73228" cy="21850" r="68.898"/><circle cx="71228" cy="22835" r="68.898"/><circle cx="73228" cy="22835" r="68.898"/><circle cx="71228" cy="23819" r="68.898"/><circle cx="73228" cy="23819" r="68.898"/><circle cx="71228" cy="24803" r="68.898"/><circle cx="73228" cy="24803" r="68.898"/><circle cx="73260" cy="20669" r="68.898"/><circle cx="71260" cy="20669" r="68.898"/><circle cx="73260" cy="19732" r="68.898"/><circle cx="71260" cy="19732" r="68.898"/><circle cx="73260" cy="18701" r="68.898"/><circle cx="71260" cy="18701" r="68.898"/><circle cx="73260" cy="17716" r="68.898"/><circle cx="71260" cy="17716" r="68.898"/><circle cx="73260" cy="16732" r="68.898"/><circle cx="71260" cy="16732" r="68.898"/><circle cx="73260" cy="15748" r="68.898"/><circle cx="71260" cy="15748" r="68.898"/><circle cx="73260" cy="14764" r="68.898"/><circle cx="71260" cy="14764" r="68.898"/><circle cx="73260" cy="13780" r="68.898"/><circle cx="71260" cy="13780" r="68.898"/><circle cx="67126" cy="22638" r="68.898"/><circle cx="69126" cy="22638" r="68.898"/><circle cx="68126" cy="22638" r="68.898"/><circle cx="61614" cy="22638" r="68.898"/><circle cx="63614" cy="22638" r="68.898"/><circle cx="62614" cy="22638" r="68.898"/><circle cx="56102" cy="22638" r="68.898"/><circle cx="58102" cy="22638" r="68.898"/><circle cx="57102" cy="22638" r="68.898"/><circle cx="50591" cy="22638" r="68.898"/><circle cx="52591" cy="22638" r="68.898"/><circle cx="51591" cy="22638" r="68.898"/><circle cx="65158" cy="20866" r="68.898"/><circle cx="66158" cy="20866" r="68.898"/><circle cx="67158" cy="20866" r="68.898"/><circle cx="68158" cy="20866" r="68.898"/><circle cx="69158" cy="20866" r="68.898"/><circle cx="69158" cy="14866" r="68.898"/><circle cx="68158" cy="14866" r="68.898"/><circle cx="67158" cy="14866" r="68.898"/><circle cx="66158" cy="14866" r="68.898"/><circle cx="65158" cy="14866" r="68.898"/><circle cx="54134" cy="20866" r="68.898"/><circle cx="55134" cy="20866" r="68.898"/><circle cx="56134" cy="20866" r="68.898"/><circle cx="57134" cy="20866" r="68.898"/><circle cx="58134" cy="20866" r="68.898"/><circle cx="58134" cy="14866" r="68.898"/><circle cx="57134" cy="14866" r="68.898"/><circle cx="56134" cy="14866" r="68.898"/><circle cx="55134" cy="14866" r="68.898"/><circle cx="54134" cy="14866" r="68.898"/><circle cx="48622" cy="20866" r="68.898"/><circle cx="49622" cy="20866" r="68.898"/><circle cx="50622" cy="20866" r="68.898"/><circle cx="51622" cy="20866" r="68.898"/><circle cx="52622" cy="20866" r="68.898"/><circle cx="52622" cy="14866" r="68.898"/><circle cx="51622" cy="14866" r="68.898"/><circle cx="50622" cy="14866" r="68.898"/><circle cx="49622" cy="14866" r="68.898"/><circle cx="48622" cy="14866" r="68.898"/></g></g><g fill="#b5ae30" mask="url(#c)" stroke="#b5ae30" stroke-linecap="round" stroke-linejoin="round"><g stroke-width="0" stroke="none"><circle cx="79791" cy="14213" r="314.96"/><circle cx="76791" cy="21213" r="314.96"/><circle cx="79791" cy="15213" r="314.96"/><circle cx="76791" cy="20213" r="314.96"/><circle cx="79791" cy="16213" r="314.96"/><circle cx="76791" cy="19213" r="314.96"/><circle cx="79791" cy="17213" r="314.96"/><circle cx="76791" cy="18213" r="314.96"/><circle cx="79791" cy="18213" r="314.96"/><circle cx="76791" cy="17213" r="314.96"/><circle cx="79791" cy="19213" r="314.96"/><circle cx="76791" cy="16213" r="314.96"/><circle cx="79791" cy="20213" r="314.96"/><circle cx="76791" cy="15213" r="314.96"/><circle cx="79791" cy="21213" r="314.96"/><path d="M76476 14528v-630h629.9v630z" fill-rule="evenodd"/><circle cx="82520" cy="24768" r="334.65"/><circle cx="82520" cy="23768" r="334.65"/><circle cx="82520" cy="22768" r="334.65"/><circle cx="82520" cy="21768" r="334.65"/><circle cx="82520" cy="20768" r="334.65"/><circle cx="82520" cy="19768" r="334.65"/><circle cx="82520" cy="18768" r="334.65"/><circle cx="82520" cy="17768" r="334.65"/><circle cx="82520" cy="16768" r="334.65"/><path d="M82185 16102v-669.3h669.3v669.3z" fill-rule="evenodd"/></g><path d="M59346 21363v-993.7h600v993.7z" fill-rule="evenodd" stroke="none" stroke-width="0"/><g fill-opacity="0" stroke-width="600" fill="none"><path d="M60645 20669v393M61645 20669v393M62645 20669v393M63645 20669v393M63645 14669v393M62645 14669v393M61645 14669v393M60645 14669v393M59645 14669v393"/></g><g stroke-width="0" stroke="none"><circle cx="71228" cy="21850" r="275.59"/><circle cx="73228" cy="21850" r="275.59"/><circle cx="71228" cy="22835" r="275.59"/><circle cx="73228" cy="22835" r="275.59"/><circle cx="71228" cy="23819" r="275.59"/><circle cx="73228" cy="23819" r="275.59"/><circle cx="71228" cy="24803" r="275.59"/><circle cx="73228" cy="24803" r="275.59"/><circle cx="73260" cy="20669" r="275.59"/><circle cx="71260" cy="20669" r="275.59"/><circle cx="73260" cy="19732" r="275.59"/><circle cx="71260" cy="19732" r="275.59"/><circle cx="73260" cy="18701" r="275.59"/><circle cx="71260" cy="18701" r="275.59"/><circle cx="73260" cy="17716" r="275.59"/><circle cx="71260" cy="17716" r="275.59"/><circle cx="73260" cy="16732" r="275.59"/><circle cx="71260" cy="16732" r="275.59"/><circle cx="73260" cy="15748" r="275.59"/><circle cx="71260" cy="15748" r="275.59"/><circle cx="73260" cy="14764" r="275.59"/><circle cx="71260" cy="14764" r="275.59"/><circle cx="73260" cy="13780" r="275.59"/><circle cx="71260" cy="13780" r="275.59"/></g><path d="M66919 22894v-511.8h413.4v511.8z" fill-rule="evenodd" stroke="none" stroke-width="0"/><g fill-opacity="0" stroke-width="413.39" fill="none"><path d="M69125 22588v99M68125 22588v99"/></g><path d="M61408 22894v-511.8h413.4v511.8z" fill-rule="evenodd" stroke="none" stroke-width="0"/><g fill-opacity="0" stroke-width="413.39" fill="none"><path d="M63614 22588v99M62614 22588v99"/></g><path d="M55896 22894v-511.8h413.4v511.8z" fill-rule="evenodd" stroke="none" stroke-width="0"/><g fill-opacity="0" stroke-width="413.39" fill="none"><path d="M58102 22588v99M57102 22588v99"/></g><path d="M50384 22894v-511.8h413.3v511.8z" fill-rule="evenodd" stroke="none" stroke-width="0"/><g fill-opacity="0" stroke-width="413.39" fill="none"><path d="M52590 22588v99M51590 22588v99"/></g><path d="M64858 21363v-993.7h600v993.7z" fill-rule="evenodd" stroke="none" stroke-width="0"/><g fill-opacity="0" stroke-width="600" fill="none"><path d="M66157 20669v393M67157 20669v393M68157 20669v393M69157 20669v393M69157 14669v393M68157 14669v393M67157 14669v393M66157 14669v393M65157 14669v393"/></g><path d="M53834 21363v-993.7h600v993.7z" fill-rule="evenodd" stroke="none" stroke-width="0"/><g fill-opacity="0" stroke-width="600" fill="none"><path d="M55133 20669v393M56133 20669v393M57133 20669v393M58133 20669v393M58133 14669v393M57133 14669v393M56133 14669v393M55133 14669v393M54133 14669v393"/></g><path d="M48322 21363v-993.7h600v993.7z" fill-rule="evenodd" stroke="none" stroke-width="0"/><g fill-opacity="0" stroke-width="600" fill="none"><path d="M49622 20669v393M50622 20669v393M51622 20669v393M52622 20669v393M52622 14669v393M51622 14669v393M50622 14669v393M49622 14669v393M48622 14669v393"/></g><g stroke-width="0" stroke="none"><circle cx="65158" cy="17323" r="157.48"/><circle cx="59646" cy="17323" r="157.48"/><circle cx="54134" cy="17323" r="157.48"/><circle cx="55134" cy="16748" r="157.48"/><circle cx="60646" cy="16748" r="157.48"/><circle cx="66158" cy="16748" r="157.48"/><circle cx="49606" cy="16732" r="157.48"/><circle cx="57284" cy="16142" r="157.48"/><circle cx="62795" cy="16142" r="157.48"/><circle cx="68307" cy="16142" r="157.48"/><circle cx="51622" cy="16189" r="157.48"/><circle cx="50197" cy="17913" r="157.48"/><circle cx="55709" cy="17913" r="157.48"/><circle cx="61220" cy="17913" r="157.48"/><circle cx="66732" cy="17913" r="157.48"/><circle cx="49016" cy="18504" r="157.48"/><circle cx="54528" cy="18504" r="157.48"/><circle cx="60236" cy="18504" r="157.48"/><circle cx="65748" cy="18504" r="157.48"/></g><g fill-opacity="0" stroke-width="196.85" fill="none"><path d="M65157 20866v-3544M59645 20866v-3544M54133 20866v-3544M55133 20866v-4118M60645 20866v-4118M66157 20866v-4118M49622 20866v-4118M49622 16748l-16-16M50622 14866v6000M57133 20866v-4575M57133 16291l150-150M62645 20866v-4575M62645 16291l150-150M68157 20866v-4575M68157 16291l150-150M51622 20866v-4678M49622 14866v504M49622 15370l574 574M50196 15944v1969M55133 14866v700M55133 15566l575 575M55708 16141v1772M60645 14866v700M60645 15566l575 575M61220 16141v1772M66157 14866v700M66157 15566l575 575M66732 16141v1772M48622 14866v3244M48622 18110l393 393M54133 14866v1472M54133 16338l394 394M54527 16732v1771M59645 14866v1275M59645 16141l591 591M60236 16732v1771M65157 14866v1472M65157 16338l591 591M65748 16929v1574M56133 14866v6000M61645 14866v6000M67157 14866v6000M79555 19704h937M78062 18212l1493 1492M76791 18212h1271M80492 19704l177-177M80669 15090l-878-878M80669 19527v-4437M80492 19704h157M80649 19704l669 670M81318 20374v3818M81893 24767h626M81318 24192l575 575M76791 15212h575M77366 15212l1649-1650M79015 13562h1457M80472 13562l610 611M81082 14173v3760M81917 18767h602M81082 17933l835 834M82519 17767h-579M81940 17767l-346-346M81594 17421v-3642M81594 13779l-807-807M80787 12972h-3287M76791 13681v531M77500 12972l-709 709M76791 21212l4397 4398M81188 25610h1587M82775 25610l473-473M83248 25137v-9173M83051 15767h-532M83248 15964l-197-197M78283 15704h-2402M79791 17212l-1508-1508M73956 13779h-697M75881 15704l-1925-1925M78299 16720h-2366M79791 18212l-1492-1492M73976 14763h-717M75933 16720l-1957-1957M78299 17720h-2488M79791 19212l-1492-1492M73838 15748h-579M75811 17720l-1973-1972M79791 20212h-878M77421 18720h-1733M78913 20212l-1492-1492M73700 16732h-441M75688 18720l-1988-1988M73259 17716l1989 1988M79114 20535l677 677M78409 20535l-831-831M79114 20535h-705M75248 19704h2330"/></g><g stroke-width="0" stroke="none"><circle cx="65158" cy="17323" r="68.898"/><circle cx="59646" cy="17323" r="68.898"/><circle cx="54134" cy="17323" r="68.898"/><circle cx="55134" cy="16748" r="68.898"/><circle cx="60646" cy="16748" r="68.898"/><circle cx="66158" cy="16748" r="68.898"/><circle cx="49606" cy="16732" r="68.898"/><circle cx="57284" cy="16142" r="68.898"/><circle cx="62795" cy="16142" r="68.898"/><circle cx="68307" cy="16142" r="68.898"/><circle cx="51622" cy="16189" r="68.898"/><circle cx="50197" cy="17913" r="68.898"/><circle cx="55709" cy="17913" r="68.898"/><circle cx="61220" cy="17913" r="68.898"/><circle cx="66732" cy="17913" r="68.898"/><circle cx="49016" cy="18504" r="68.898"/><circle cx="54528" cy="18504" r="68.898"/><circle cx="60236" cy="18504" r="68.898"/><circle cx="65748" cy="18504" r="68.898"/><circle cx="79791" cy="14213" r="68.898"/><circle cx="76791" cy="21213" r="68.898"/><circle cx="79791" cy="15213" r="68.898"/><circle cx="76791" cy="20213" r="68.898"/><circle cx="79791" cy="16213" r="68.898"/><circle cx="76791" cy="19213" r="68.898"/><circle cx="79791" cy="17213" r="68.898"/><circle cx="76791" cy="18213" r="68.898"/><circle cx="79791" cy="18213" r="68.898"/><circle cx="76791" cy="17213" r="68.898"/><circle cx="79791" cy="19213" r="68.898"/><circle cx="76791" cy="16213" r="68.898"/><circle cx="79791" cy="20213" r="68.898"/><circle cx="76791" cy="15213" r="68.898"/><circle cx="79791" cy="21213" r="68.898"/><circle cx="76791" cy="14213" r="68.898"/><circle cx="82520" cy="24768" r="68.898"/><circle cx="82520" cy="23768" r="68.898"/><circle cx="82520" cy="22768" r="68.898"/><circle cx="82520" cy="21768" r="68.898"/><circle cx="82520" cy="20768" r="68.898"/><circle cx="82520" cy="19768" r="68.898"/><circle cx="82520" cy="18768" r="68.898"/><circle cx="82520" cy="17768" r="68.898"/><circle cx="82520" cy="16768" r="68.898"/><circle cx="82520" cy="15768" r="68.898"/><circle cx="59646" cy="20866" r="68.898"/><circle cx="60646" cy="20866" r="68.898"/><circle cx="61646" cy="20866" r="68.898"/><circle cx="62646" cy="20866" r="68.898"/><circle cx="63646" cy="20866" r="68.898"/><circle cx="63646" cy="14866" r="68.898"/><circle cx="62646" cy="14866" r="68.898"/><circle cx="61646" cy="14866" r="68.898"/><circle cx="60646" cy="14866" r="68.898"/><circle cx="59646" cy="14866" r="68.898"/><circle cx="71228" cy="21850" r="68.898"/><circle cx="73228" cy="21850" r="68.898"/><circle cx="71228" cy="22835" r="68.898"/><circle cx="73228" cy="22835" r="68.898"/><circle cx="71228" cy="23819" r="68.898"/><circle cx="73228" cy="23819" r="68.898"/><circle cx="71228" cy="24803" r="68.898"/><circle cx="73228" cy="24803" r="68.898"/><circle cx="73260" cy="20669" r="68.898"/><circle cx="71260" cy="20669" r="68.898"/><circle cx="73260" cy="19732" r="68.898"/><circle cx="71260" cy="19732" r="68.898"/><circle cx="73260" cy="18701" r="68.898"/><circle cx="71260" cy="18701" r="68.898"/><circle cx="73260" cy="17716" r="68.898"/><circle cx="71260" cy="17716" r="68.898"/><circle cx="73260" cy="16732" r="68.898"/><circle cx="71260" cy="16732" r="68.898"/><circle cx="73260" cy="15748" r="68.898"/><circle cx="71260" cy="15748" r="68.898"/><circle cx="73260" cy="14764" r="68.898"/><circle cx="71260" cy="14764" r="68.898"/><circle cx="73260" cy="13780" r="68.898"/><circle cx="71260" cy="13780" r="68.898"/><circle cx="67126" cy="22638" r="68.898"/><circle cx="69126" cy="22638" r="68.898"/><circle cx="68126" cy="22638" r="68.898"/><circle cx="61614" cy="22638" r="68.898"/><circle cx="63614" cy="22638" r="68.898"/><circle cx="62614" cy="22638" r="68.898"/><circle cx="56102" cy="22638" r="68.898"/><circle cx="58102" cy="22638" r="68.898"/><circle cx="57102" cy="22638" r="68.898"/><circle cx="50591" cy="22638" r="68.898"/><circle cx="52591" cy="22638" r="68.898"/><circle cx="51591" cy="22638" r="68.898"/><circle cx="65158" cy="20866" r="68.898"/><circle cx="66158" cy="20866" r="68.898"/><circle cx="67158" cy="20866" r="68.898"/><circle cx="68158" cy="20866" r="68.898"/><circle cx="69158" cy="20866" r="68.898"/><circle cx="69158" cy="14866" r="68.898"/><circle cx="68158" cy="14866" r="68.898"/><circle cx="67158" cy="14866" r="68.898"/><circle cx="66158" cy="14866" r="68.898"/><circle cx="65158" cy="14866" r="68.898"/><circle cx="54134" cy="20866" r="68.898"/><circle cx="55134" cy="20866" r="68.898"/><circle cx="56134" cy="20866" r="68.898"/><circle cx="57134" cy="20866" r="68.898"/><circle cx="58134" cy="20866" r="68.898"/><circle cx="58134" cy="14866" r="68.898"/><circle cx="57134" cy="14866" r="68.898"/><circle cx="56134" cy="14866" r="68.898"/><circle cx="55134" cy="14866" r="68.898"/><circle cx="54134" cy="14866" r="68.898"/><circle cx="48622" cy="20866" r="68.898"/><circle cx="49622" cy="20866" r="68.898"/><circle cx="50622" cy="20866" r="68.898"/><circle cx="51622" cy="20866" r="68.898"/><circle cx="52622" cy="20866" r="68.898"/><circle cx="52622" cy="14866" r="68.898"/><circle cx="51622" cy="14866" r="68.898"/><circle cx="50622" cy="14866" r="68.898"/><circle cx="49622" cy="14866" r="68.898"/><circle cx="48622" cy="14866" r="68.898"/></g></g><defs><mask id="c"><g stroke="#fff" stroke-linecap="round" stroke-linejoin="round" fill="#fff"><g stroke-width="0"><circle cx="79791" cy="14213" r="314.96"/><circle cx="76791" cy="21213" r="314.96"/><circle cx="79791" cy="15213" r="314.96"/><circle cx="76791" cy="20213" r="314.96"/><circle cx="79791" cy="16213" r="314.96"/><circle cx="76791" cy="19213" r="314.96"/><circle cx="79791" cy="17213" r="314.96"/><circle cx="76791" cy="18213" r="314.96"/><circle cx="79791" cy="18213" r="314.96"/><circle cx="76791" cy="17213" r="314.96"/><circle cx="79791" cy="19213" r="314.96"/><circle cx="76791" cy="16213" r="314.96"/><circle cx="79791" cy="20213" r="314.96"/><circle cx="76791" cy="15213" r="314.96"/><circle cx="79791" cy="21213" r="314.96"/><path d="M76476 14528v-630h629.9v630z" fill-rule="evenodd"/><circle cx="82520" cy="24768" r="334.65"/><circle cx="82520" cy="23768" r="334.65"/><circle cx="82520" cy="22768" r="334.65"/><circle cx="82520" cy="21768" r="334.65"/><circle cx="82520" cy="20768" r="334.65"/><circle cx="82520" cy="19768" r="334.65"/><circle cx="82520" cy="18768" r="334.65"/><circle cx="82520" cy="17768" r="334.65"/><circle cx="82520" cy="16768" r="334.65"/><path d="M82185 16102v-669.3h669.3v669.3z" fill-rule="evenodd"/></g><path d="M59346 21363v-993.7h600v993.7z" fill-rule="evenodd" stroke-width="0"/><g fill-opacity="0" stroke-width="600"><path d="M60645 20669v393M61645 20669v393M62645 20669v393M63645 20669v393M63645 14669v393M62645 14669v393M61645 14669v393M60645 14669v393M59645 14669v393"/></g><g stroke-width="0"><circle cx="71228" cy="21850" r="275.59"/><circle cx="73228" cy="21850" r="275.59"/><circle cx="71228" cy="22835" r="275.59"/><circle cx="73228" cy="22835" r="275.59"/><circle cx="71228" cy="23819" r="275.59"/><circle cx="73228" cy="23819" r="275.59"/><circle cx="71228" cy="24803" r="275.59"/><circle cx="73228" cy="24803" r="275.59"/><circle cx="73260" cy="20669" r="275.59"/><circle cx="71260" cy="20669" r="275.59"/><circle cx="73260" cy="19732" r="275.59"/><circle cx="71260" cy="19732" r="275.59"/><circle cx="73260" cy="18701" r="275.59"/><circle cx="71260" cy="18701" r="275.59"/><circle cx="73260" cy="17716" r="275.59"/><circle cx="71260" cy="17716" r="275.59"/><circle cx="73260" cy="16732" r="275.59"/><circle cx="71260" cy="16732" r="275.59"/><circle cx="73260" cy="15748" r="275.59"/><circle cx="71260" cy="15748" r="275.59"/><circle cx="73260" cy="14764" r="275.59"/><circle cx="71260" cy="14764" r="275.59"/><circle cx="73260" cy="13780" r="275.59"/><circle cx="71260" cy="13780" r="275.59"/></g><path d="M66919 22894v-511.8h413.4v511.8z" fill-rule="evenodd" stroke-width="0"/><g fill-opacity="0" stroke-width="413.39"><path d="M69125 22588v99M68125 22588v99"/></g><path d="M61408 22894v-511.8h413.4v511.8z" fill-rule="evenodd" stroke-width="0"/><g fill-opacity="0" stroke-width="413.39"><path d="M63614 22588v99M62614 22588v99"/></g><path d="M55896 22894v-511.8h413.4v511.8z" fill-rule="evenodd" stroke-width="0"/><g fill-opacity="0" stroke-width="413.39"><path d="M58102 22588v99M57102 22588v99"/></g><path d="M50384 22894v-511.8h413.3v511.8z" fill-rule="evenodd" stroke-width="0"/><g fill-opacity="0" stroke-width="413.39"><path d="M52590 22588v99M51590 22588v99"/></g><path d="M64858 21363v-993.7h600v993.7z" fill-rule="evenodd" stroke-width="0"/><g fill-opacity="0" stroke-width="600"><path d="M66157 20669v393M67157 20669v393M68157 20669v393M69157 20669v393M69157 14669v393M68157 14669v393M67157 14669v393M66157 14669v393M65157 14669v393"/></g><path d="M53834 21363v-993.7h600v993.7z" fill-rule="evenodd" stroke-width="0"/><g fill-opacity="0" stroke-width="600"><path d="M55133 20669v393M56133 20669v393M57133 20669v393M58133 20669v393M58133 14669v393M57133 14669v393M56133 14669v393M55133 14669v393M54133 14669v393"/></g><path d="M48322 21363v-993.7h600v993.7z" fill-rule="evenodd" stroke-width="0"/><g fill-opacity="0" stroke-width="600"><path d="M49622 20669v393M50622 20669v393M51622 20669v393M52622 20669v393M52622 14669v393M51622 14669v393M50622 14669v393M49622 14669v393M48622 14669v393"/></g></g></mask></defs><defs><mask id="d"><g stroke="#000" stroke-linecap="round" stroke-linejoin="round"><g stroke-width="0"><circle cx="79791" cy="14213" r="314.96"/><circle cx="76791" cy="21213" r="314.96"/><circle cx="79791" cy="15213" r="314.96"/><circle cx="76791" cy="20213" r="314.96"/><circle cx="79791" cy="16213" r="314.96"/><circle cx="76791" cy="19213" r="314.96"/><circle cx="79791" cy="17213" r="314.96"/><circle cx="76791" cy="18213" r="314.96"/><circle cx="79791" cy="18213" r="314.96"/><circle cx="76791" cy="17213" r="314.96"/><circle cx="79791" cy="19213" r="314.96"/><circle cx="76791" cy="16213" r="314.96"/><circle cx="79791" cy="20213" r="314.96"/><circle cx="76791" cy="15213" r="314.96"/><circle cx="79791" cy="21213" r="314.96"/><path d="M76476 14528v-630h629.9v630z" fill-rule="evenodd"/><circle cx="82520" cy="24768" r="334.65"/><circle cx="82520" cy="23768" r="334.65"/><circle cx="82520" cy="22768" r="334.65"/><circle cx="82520" cy="21768" r="334.65"/><circle cx="82520" cy="20768" r="334.65"/><circle cx="82520" cy="19768" r="334.65"/><circle cx="82520" cy="18768" r="334.65"/><circle cx="82520" cy="17768" r="334.65"/><circle cx="82520" cy="16768" r="334.65"/><path d="M82185 16102v-669.3h669.3v669.3z" fill-rule="evenodd"/></g><path d="M59346 21363v-993.7h600v993.7z" fill-rule="evenodd" stroke-width="0"/><g fill-opacity="0" stroke-width="600"><path d="M60645 20669v393M61645 20669v393M62645 20669v393M63645 20669v393M63645 14669v393M62645 14669v393M61645 14669v393M60645 14669v393M59645 14669v393"/></g><g stroke-width="0"><circle cx="71228" cy="21850" r="275.59"/><circle cx="73228" cy="21850" r="275.59"/><circle cx="71228" cy="22835" r="275.59"/><circle cx="73228" cy="22835" r="275.59"/><circle cx="71228" cy="23819" r="275.59"/><circle cx="73228" cy="23819" r="275.59"/><circle cx="71228" cy="24803" r="275.59"/><circle cx="73228" cy="24803" r="275.59"/><circle cx="73260" cy="20669" r="275.59"/><circle cx="71260" cy="20669" r="275.59"/><circle cx="73260" cy="19732" r="275.59"/><circle cx="71260" cy="19732" r="275.59"/><circle cx="73260" cy="18701" r="275.59"/><circle cx="71260" cy="18701" r="275.59"/><circle cx="73260" cy="17716" r="275.59"/><circle cx="71260" cy="17716" r="275.59"/><circle cx="73260" cy="16732" r="275.59"/><circle cx="71260" cy="16732" r="275.59"/><circle cx="73260" cy="15748" r="275.59"/><circle cx="71260" cy="15748" r="275.59"/><circle cx="73260" cy="14764" r="275.59"/><circle cx="71260" cy="14764" r="275.59"/><circle cx="73260" cy="13780" r="275.59"/><circle cx="71260" cy="13780" r="275.59"/></g><path d="M66919 22894v-511.8h413.4v511.8z" fill-rule="evenodd" stroke-width="0"/><g fill-opacity="0" stroke-width="413.39"><path d="M69125 22588v99M68125 22588v99"/></g><path d="M61408 22894v-511.8h413.4v511.8z" fill-rule="evenodd" stroke-width="0"/><g fill-opacity="0" stroke-width="413.39"><path d="M63614 22588v99M62614 22588v99"/></g><path d="M55896 22894v-511.8h413.4v511.8z" fill-rule="evenodd" stroke-width="0"/><g fill-opacity="0" stroke-width="413.39"><path d="M58102 22588v99M57102 22588v99"/></g><path d="M50384 22894v-511.8h413.3v511.8z" fill-rule="evenodd" stroke-width="0"/><g fill-opacity="0" stroke-width="413.39"><path d="M52590 22588v99M51590 22588v99"/></g><path d="M64858 21363v-993.7h600v993.7z" fill-rule="evenodd" stroke-width="0"/><g fill-opacity="0" stroke-width="600"><path d="M66157 20669v393M67157 20669v393M68157 20669v393M69157 20669v393M69157 14669v393M68157 14669v393M67157 14669v393M66157 14669v393M65157 14669v393"/></g><path d="M53834 21363v-993.7h600v993.7z" fill-rule="evenodd" stroke-width="0"/><g fill-opacity="0" stroke-width="600"><path d="M55133 20669v393M56133 20669v393M57133 20669v393M58133 20669v393M58133 14669v393M57133 14669v393M56133 14669v393M55133 14669v393M54133 14669v393"/></g><path d="M48322 21363v-993.7h600v993.7z" fill-rule="evenodd" stroke-width="0"/><g fill-opacity="0" stroke-width="600"><path d="M49622 20669v393M50622 20669v393M51622 20669v393M52622 20669v393M52622 14669v393M51622 14669v393M50622 14669v393M49622 14669v393M48622 14669v393"/></g></g><path fill="#fff" d="M47037 12588h36633v18394H47037z"/></mask></defs><g fill="#f0f0f0" fill-opacity="0" mask="url(#d)" stroke="#f0f0f0" stroke-linecap="round" stroke-linejoin="round"><g stroke-width="147.64"><path d="M65255 30481l-28 56v84l28 85 57 56 56 28 112 28h85l112-28 56-28 57-56 28-85v-56l-28-84-28-28h-197v112M65818 30200h-591l591-338h-591M65818 29581h-591v-141l28-84 57-56 56-28 112-29h85l112 29 56 28 57 56 28 84v141M63849 30143h-590v-140l28-85 56-56 56-28 113-28h84l113 28 56 28 56 56 28 85v140M63456 29300h393M63231 29440l421 141v-366M61881 30143h-591v-140l28-85 57-56 56-28 112-28h85l112 28 56 28 57 56 28 85v140M61290 29609v-366l225 197v-84l28-56 28-28 57-29h140l57 29 28 28 28 56v169l-28 56-28 28M59912 30143h-590v-140l28-85 56-56 56-28 113-28h84l113 28 56 28 56 56 28 85v140M59378 29581l-28-28-28-57v-140l28-56 28-28 56-29h57l84 29 337 337v-366M55975 29581h-590v-141l28-84 56-56 56-28 113-29h84l113 29 56 28 56 56 28 84v141M57944 30143h-591v-140l28-85 57-56 56-28 112-28h85l112 28 56 28 57 56 28 85v140M57944 29243v338M57944 29412h-591l85 56 56 57 28 56M53951 29243l28 29 28 84v56l-28 84-57 57-56 28-112 28h-85l-112-28-56-28-57-57-28-84v-56l28-84 29-29M47511 30762l590-197-590-197M48045 29834l28 28 28 84v57l-28 84-56 56-56 28-113 29h-84l-113-29-56-28-56-56-28-84v-57l28-84 28-28M48045 29243l28 29 28 84v56l-28 84-56 57-56 28-113 28h-84l-113-28-56-28-56-57-28-84v-56l28-84 28-29M51729 29384l28-84 28-28 56-29h85l56 29 28 28 28 56v225h-590v-197l28-56 28-28 56-28h56l57 28 28 28 28 56v197M49901 29525v-282M50070 29581l-591-197 591-197" fill="none"/></g><g stroke-width="47.244" fill="none"><path d="M77897 13688h-649M77248 13688v8048M77248 21736h2086M79334 21736v-8048M79334 13688h-649M77898 13689a393.7 393.7 0 0 0 787.4 0M81996 16267h1047M81996 16267v9024M81996 25291h1047M83043 16267v9024M83043 15244v523M82519 15244h524"/><circle cx="63220" cy="19835" r="176.07"/><path d="M60464 15897h2756M62826 17866h-2756M63220 15897l-394 1969M62433 19834l393-1968M59677 19834h2756M60070 17866l-393 1968M60464 15897l-394 1969M64125 14072h-4960M59559 21659h4566M64169 20116v-4500M59122 20116v-4500M72984 22212h-1512M72984 21488h-1512M72984 23196h-1512M72984 22472h-1512M72984 24181h-1512M72984 23456h-1512M72984 25165h-1512M72984 24440h-1512M71503 20307h1512M71503 21031h1512M71503 19370h1512M71503 20094h1512M71503 18338h1512M71503 19062h1512M71503 17354h1512M71503 18078h1512M71503 16370h1512M71503 17094h1512M71503 15385h1512M71503 16110h1512M71503 14401h1512M71503 15125h1512M71503 13417h1512M71503 14141h1512M67547 22007l-146 355M68708 22007h-1161M68838 22362l-130-355M68885 22972l12-59M67370 22972h1515M62035 22007l-146 355M63196 22007h-1161M63326 22362l-130-355M63374 22972l11-59M61858 22972h1516M56523 22007l-146 355M57685 22007h-1162M57814 22362l-129-355M57862 22972l12-59M56346 22972h1516M51011 22007l-145 355M52173 22007h-1162M52303 22362l-130-355M52350 22972l12-59M50834 22972h1516"/><circle cx="68732" cy="19835" r="176.07"/><path d="M65976 15897h2756M68338 17866h-2756M68732 15897l-394 1969M67944 19834l394-1968M65188 19834h2756M65582 17866l-394 1968M65976 15897l-394 1969M69637 14072h-4960M65070 21659h4567M69681 20116v-4500M64633 20116v-4500"/><circle cx="57709" cy="19835" r="176.07"/><path d="M54952 15897h2756M57314 17866h-2755M57708 15897l-394 1969M56921 19834l393-1968M54165 19834h2756M54559 17866l-394 1968M54952 15897l-393 1969M58614 14072h-4961M54047 21659h4567M58657 20116v-4500M53610 20116v-4500"/><circle cx="52197" cy="19835" r="176.07"/><path d="M49440 15897h2756M51803 17866h-2756M52196 15897l-393 1969M51409 19834l394-1968M48653 19834h2756M49047 17866l-394 1968M49440 15897l-393 1969M53102 14072h-4961M48535 21659h4567M53145 20116v-4500M48098 20116v-4500"/></g></g><g fill-opacity="0" stroke-linecap="round" stroke-linejoin="round" stroke-width="19.685" fill="none" stroke="#000"><path d="M47047 30905h36614M83661 12598v18307M47047 12598h36614M47047 30905V12598"/></g><defs><mask id="b"><path fill="#fff" d="M47037 12588h36633v18394H47037z"/><path stroke="#000" stroke-linecap="round" stroke-width="314" d="M79791 14212h0M76791 21212h0M79791 15212h0M76791 20212h0M79791 16212h0M76791 19212h0M79791 17212h0M76791 18212h0M79791 18212h0M76791 17212h0M79791 19212h0M76791 16212h0M79791 20212h0M76791 15212h0M79791 21212h0M76791 14212h0"/><path stroke="#000" stroke-linecap="round" stroke-width="393" d="M82519 24767h0M82519 23767h0M82519 22767h0M82519 21767h0M82519 20767h0M82519 19767h0M82519 18767h0M82519 17767h0M82519 16767h0M82519 15767h0"/><path stroke="#000" stroke-linecap="round" stroke-width="314" d="M59645 20866h0M60645 20866h0M61645 20866h0M62645 20866h0M63645 20866h0M63645 14866h0M62645 14866h0M61645 14866h0M60645 14866h0M59645 14866h0"/><path stroke="#000" stroke-linecap="round" stroke-width="275" d="M71228 21850h0M73228 21850h0M71228 22834h0M73228 22834h0M71228 23818h0M73228 23818h0M71228 24804h0M73228 24804h0M73259 20669h0M71259 20669h0M73259 19732h0M71259 19732h0M73259 18700h0M71259 18700h0M73259 17716h0M71259 17716h0M73259 16732h0M71259 16732h0M73259 15748h0M71259 15748h0M73259 14763h0M71259 14763h0M73259 13779h0M71259 13779h0"/><path stroke="#000" stroke-linecap="round" stroke-width="295" d="M67125 22637h0M69125 22637h0M68125 22637h0M61614 22637h0M63614 22637h0M62614 22637h0M56102 22637h0M58102 22637h0M57102 22637h0M50590 22637h0M52590 22637h0M51590 22637h0"/><path stroke="#000" stroke-linecap="round" stroke-width="314" d="M65157 20866h0M66157 20866h0M67157 20866h0M68157 20866h0M69157 20866h0M69157 14866h0M68157 14866h0M67157 14866h0M66157 14866h0M65157 14866h0M54133 20866h0M55133 20866h0M56133 20866h0M57133 20866h0M58133 20866h0M58133 14866h0M57133 14866h0M56133 14866h0M55133 14866h0M54133 14866h0M48622 20866h0M49622 20866h0M50622 20866h0M51622 20866h0M52622 20866h0M52622 14866h0M51622 14866h0M50622 14866h0M49622 14866h0M48622 14866h0"/></mask></defs></g><g stroke="#000" stroke-width=".093"><path d="M32473.451 8712.552V1532.645h0v-155.511h-2440.94v155.511h0v7335.418h2440.94z" fill="#333" stroke-width="36.6141"/><path d="M32502.979 8897.59v-185.038M32502.979 1532.74V1347.7M32502.979 8322.789v-400M32502.979 2322.683v-400M32502.979 7322.79v-399.998M32502.979 3322.68v-399.998M32502.979 6322.793v-400M32502.979 4322.679v-400M32502.979 5322.795v-400M32502.979 1347.7h-2499.995M30003 1347.7v185.04M30003 8712.552v185.039M30003 1922.684v399.999M30003 7922.79v399.999M30003 2922.682v399.999M30003 6922.792v399.999M30003 3922.68v399.999M30003 5922.794v399.999M30003 4922.678v399.999M30003 8897.59h2499.994M32502.979 8897.59l-29.528-29.527M32502.979 1347.7l-29.528 29.528M32473.451 8322.789v-400M32473.451 2322.683v-400M32473.451 7322.79v-399.998M32473.451 3322.68v-399.998M32473.451 6322.793v-400M32473.451 4322.679v-400M32473.451 5322.795v-400M30003 1347.7l29.527 29.528M30003 8897.59l29.527-29.527M30032.527 1922.684v399.999M30032.527 7922.79v399.999M30032.527 2922.682v399.999M30032.527 6922.792v399.999M30032.527 3922.68v399.999M30032.527 5922.794v399.999M30032.527 4922.678v399.999M32473.451 1377.228l-127.448 127.449M32473.451 8868.063l-127.448-127.448M30032.527 1377.228l127.448 127.449M30957.982 1462.838l1.224 41.842M30957.982 1462.838h590.038M31548.02 1462.838l-1.225 41.842" fill="none" stroke-width="36.6141"/><path d="M32346.01 1504.677h-799.21c-15.165 150.881-142.154 265.747-293.795 265.747h0c-151.642 0-278.63-114.866-293.795-265.748h0-799.211v7236.206h2186.058z" fill="#1a1a1a" fill-rule="evenodd" stroke-width="36.6141"/><path d="M30032.527 8868.063l127.448-127.448M30957.745 1470.94a295.275 295.275 0 0 1 .226-8.105M31548.02 1462.838a295.275 295.275 0 0 1 .225 8.105" fill="none" stroke-width="36.6141"/><path d="M29753 3922.798h-150v-600h429.527v600z" fill="#ccc" fill-rule="evenodd" stroke-width="36.6141"/><path d="M29753 3922.798v-600" fill="none" stroke-width="36.6141"/><path d="M29753 4922.796h-150v-600h429.527v600z" fill="#ccc" fill-rule="evenodd" stroke-width="36.6141"/><path d="M29753 4922.796v-600" fill="none" stroke-width="36.6141"/><path d="M29752.984 2922.8h-150v-600h429.527v600z" fill="#ccc" fill-rule="evenodd" stroke-width="36.6141"/><path d="M29752.984 2922.8v-600" fill="none" stroke-width="36.6141"/><path d="M29753 1922.802h-150v-600h429.527v600z" fill="#ccc" fill-rule="evenodd" stroke-width="36.6141"/><path d="M29753 1922.802v-600" fill="none" stroke-width="36.6141"/><path d="M29753 7922.79h-150v-600h429.527v600z" fill="#ccc" fill-rule="evenodd" stroke-width="36.6141"/><path d="M29753 7922.79v-600" fill="none" stroke-width="36.6141"/><path d="M29753 8922.788h-150v-600h429.527v600z" fill="#ccc" fill-rule="evenodd" stroke-width="36.6141"/><path d="M29753 8922.788v-600" fill="none" stroke-width="36.6141"/><g><path d="M29752.984 6922.792h-150v-600h429.527v600z" fill="#ccc" fill-rule="evenodd" stroke-width="36.6141"/><path d="M29752.984 6922.792v-600" fill="none" stroke-width="36.6141"/></g><g><path d="M29753 5922.794h-150v-600h429.527v600z" fill="#ccc" fill-rule="evenodd" stroke-width="36.6141"/><path d="M29753 5922.794v-600" fill="none" stroke-width="36.6141"/></g><g><path d="M32752.978 7322.79h150.02-.02v600h.02-429.527v-600z" fill="#ccc" fill-rule="evenodd" stroke-width="36.6141"/><path d="M32752.978 7322.79v600" fill="none" stroke-width="36.6141"/></g><g><path d="M32752.978 8322.789h150.04-.04v599.999h.04-429.567v-600z" fill="#ccc" fill-rule="evenodd" stroke-width="36.6141"/><path d="M32752.978 8322.789v599.999" fill="none" stroke-width="36.6141"/><path d="M32752.978 6322.793h150.04-.04v599.999h.04-429.567v-600z" fill="#ccc" fill-rule="evenodd" stroke-width="36.6141"/><path d="M32752.978 6322.793v599.999" fill="none" stroke-width="36.6141"/><path d="M32752.978 5322.795h150.04-.04v599.999h.04-429.567v-600z" fill="#ccc" fill-rule="evenodd" stroke-width="36.6141"/><path d="M32752.978 5322.795v599.999" fill="none" stroke-width="36.6141"/></g><g><path d="M32752.978 3322.799h150.02-.02v599.999h.02-429.527v-600z" fill="#ccc" fill-rule="evenodd" stroke-width="36.6141"/><path d="M32752.978 3322.799v599.999" fill="none" stroke-width="36.6141"/><path d="M32752.978 4322.797h150.04-.04v599.999h.04-429.567v-600z" fill="#ccc" fill-rule="evenodd" stroke-width="36.6141"/><path d="M32752.978 4322.797v599.999" fill="none" stroke-width="36.6141"/><path d="M32752.978 2322.8h150.04-.04v600h.04-429.567v-600z" fill="#ccc" fill-rule="evenodd" stroke-width="36.6141"/><path d="M32752.978 2322.8v600" fill="none" stroke-width="36.6141"/><path d="M32752.978 1322.803h150.04-.04v599.999h.04-429.567v-600z" fill="#ccc" fill-rule="evenodd" stroke-width="36.6141"/><path d="M32752.978 1322.803v599.999" fill="none" stroke-width="36.6141"/></g></g><g stroke="#000" stroke-width=".093"><path d="M35980.998 2678H34981v9999.98h999.998z" fill="#1a1a1a" fill-rule="evenodd" stroke-width="36.6141"/><path d="M35717.219 12414.043v-472.44h-472.44v472.44z" fill="#666" fill-rule="evenodd" stroke-width="36.6141"/><path d="M35244.779 11941.603l117.716 117.717M35244.779 12414.043l117.716-117.716M35362.495 12059.32v237.007M35717.219 11941.603l-117.716 117.717M35599.503 12059.32h-237.008M35717.219 12414.043l-117.716-117.716M35599.503 12296.327v-237.007M35362.495 12296.327h237.008" fill="none" stroke-width="36.6141"/><path d="M35599.109 12295.933v-236.22h-236.22v236.22z" fill="olive" fill-rule="evenodd" stroke-width="36.6141"/><path d="M35441.629 12079.398v-19.684M35441.629 12276.248v-196.85M35441.629 12295.933v-19.685M35520.369 12295.933v-19.685M35441.629 12276.248h78.74M35520.369 12276.248v-196.85M35520.369 12079.398v-19.684M35441.629 12079.398h78.74" fill="none" stroke-width="36.6141"/><g><path d="M35717.219 11414.046v-472.44h-472.44v472.44z" fill="#666" fill-rule="evenodd" stroke-width="36.6141"/><path d="M35244.779 10941.605l117.716 117.717M35244.779 11414.046l117.716-117.717M35362.495 11059.322v237.007M35717.219 10941.605l-117.716 117.717M35599.503 11059.322h-237.008M35717.219 11414.046l-117.716-117.717M35599.503 11296.33v-237.008M35362.495 11296.33h237.008" fill="none" stroke-width="36.6141"/><path d="M35599.109 11295.935v-236.22h-236.22v236.22z" fill="olive" fill-rule="evenodd" stroke-width="36.6141"/><path d="M35441.629 11079.4v-19.684M35441.629 11276.25v-196.85M35441.629 11295.935v-19.684M35520.369 11295.935v-19.684M35441.629 11276.25h78.74M35520.369 11276.25v-196.85M35520.369 11079.4v-19.684M35441.629 11079.4h78.74" fill="none" stroke-width="36.6141"/></g><g><path d="M35717.219 10414.048v-472.44h-472.44v472.44z" fill="#666" fill-rule="evenodd" stroke-width="36.6141"/><path d="M35244.779 9941.608l117.716 117.716M35244.779 10414.048l117.716-117.717M35362.495 10059.324v237.007M35717.219 9941.608l-117.716 117.716M35599.503 10059.324h-237.008M35717.219 10414.048l-117.716-117.717M35599.503 10296.331v-237.007M35362.495 10296.331h237.008" fill="none" stroke-width="36.6141"/><path d="M35599.109 10295.938v-236.22h-236.22v236.22z" fill="olive" fill-rule="evenodd" stroke-width="36.6141"/><path d="M35441.629 10079.403v-19.686M35441.629 10276.253v-196.85M35441.629 10295.938v-19.686M35520.369 10295.938v-19.686M35441.629 10276.253h78.74M35520.369 10276.253v-196.85M35520.369 10079.403v-19.686M35441.629 10079.403h78.74" fill="none" stroke-width="36.6141"/></g><g><path d="M35717.219 9414.05v-472.44h-472.44v472.44z" fill="#666" fill-rule="evenodd" stroke-width="36.6141"/><path d="M35244.779 8941.61l117.716 117.716M35244.779 9414.05l117.716-117.717M35362.495 9059.326v237.007M35717.219 8941.61l-117.716 117.716M35599.503 9059.326h-237.008M35717.219 9414.05l-117.716-117.717M35599.503 9296.333v-237.007M35362.495 9296.333h237.008" fill="none" stroke-width="36.6141"/><path d="M35599.109 9295.94v-236.22h-236.22v236.22z" fill="olive" fill-rule="evenodd" stroke-width="36.6141"/><path d="M35441.629 9079.404v-19.685M35441.629 9276.254v-196.85M35441.629 9295.94v-19.686M35520.369 9295.94v-19.686M35441.629 9276.254h78.74M35520.369 9276.254v-196.85M35520.369 9079.404v-19.685M35441.629 9079.404h78.74" fill="none" stroke-width="36.6141"/></g><g><path d="M35717.219 8414.051v-472.44h-472.44v472.44z" fill="#666" fill-rule="evenodd" stroke-width="36.6141"/><path d="M35244.779 7941.611l117.716 117.717M35244.779 8414.051l117.716-117.716M35362.495 8059.328v237.007M35717.219 7941.611l-117.716 117.717M35599.503 8059.328h-237.008M35717.219 8414.051l-117.716-117.716M35599.503 8296.335v-237.007M35362.495 8296.335h237.008" fill="none" stroke-width="36.6141"/><path d="M35599.109 8295.941v-236.22h-236.22v236.22z" fill="olive" fill-rule="evenodd" stroke-width="36.6141"/><path d="M35441.629 8079.406v-19.685M35441.629 8276.256v-196.85M35441.629 8295.941v-19.685M35520.369 8295.941v-19.685M35441.629 8276.256h78.74M35520.369 8276.256v-196.85M35520.369 8079.406v-19.685M35441.629 8079.406h78.74" fill="none" stroke-width="36.6141"/></g><g><path d="M35717.219 7414.053v-472.44h-472.44v472.44z" fill="#666" fill-rule="evenodd" stroke-width="36.6141"/><path d="M35244.779 6941.613l117.716 117.717M35244.779 7414.053l117.716-117.716M35362.495 7059.33v237.007M35717.219 6941.613l-117.716 117.717M35599.503 7059.33h-237.008M35717.219 7414.053l-117.716-117.716M35599.503 7296.337V7059.33M35362.495 7296.337h237.008" fill="none" stroke-width="36.6141"/><path d="M35599.109 7295.943v-236.22h-236.22v236.22z" fill="olive" fill-rule="evenodd" stroke-width="36.6141"/><path d="M35441.629 7079.408v-19.685M35441.629 7276.258v-196.85M35441.629 7295.943v-19.685M35520.369 7295.943v-19.685M35441.629 7276.258h78.74M35520.369 7276.258v-196.85M35520.369 7079.408v-19.685M35441.629 7079.408h78.74" fill="none" stroke-width="36.6141"/></g><g><path d="M35717.219 6414.055v-472.44h-472.44v472.44z" fill="#666" fill-rule="evenodd" stroke-width="36.6141"/><path d="M35244.779 5941.615l117.716 117.717M35244.779 6414.055l117.716-117.716M35362.495 6059.332v237.007M35717.219 5941.615l-117.716 117.717M35599.503 6059.332h-237.008M35717.219 6414.055l-117.716-117.716M35599.503 6296.34v-237.008M35362.495 6296.34h237.008" fill="none" stroke-width="36.6141"/><path d="M35599.109 6295.945v-236.22h-236.22v236.22z" fill="olive" fill-rule="evenodd" stroke-width="36.6141"/><path d="M35441.629 6079.41v-19.685M35441.629 6276.26v-196.85M35441.629 6295.945v-19.685M35520.369 6295.945v-19.685M35441.629 6276.26h78.74M35520.369 6276.26v-196.85M35520.369 6079.41v-19.685M35441.629 6079.41h78.74" fill="none" stroke-width="36.6141"/></g><g><path d="M35717.219 5414.057v-472.44h-472.44v472.44z" fill="#666" fill-rule="evenodd" stroke-width="36.6141"/><path d="M35244.779 4941.617l117.716 117.717M35244.779 5414.057l117.716-117.716M35362.495 5059.334v237.007M35717.219 4941.617l-117.716 117.717M35599.503 5059.334h-237.008M35717.219 5414.057l-117.716-117.716M35599.503 5296.341v-237.007M35362.495 5296.341h237.008" fill="none" stroke-width="36.6141"/><path d="M35599.109 5295.947v-236.22h-236.22v236.22z" fill="olive" fill-rule="evenodd" stroke-width="36.6141"/><path d="M35441.629 5079.412v-19.685M35441.629 5276.262v-196.85M35441.629 5295.947v-19.685M35520.369 5295.947v-19.685M35441.629 5276.262h78.74M35520.369 5276.262v-196.85M35520.369 5079.412v-19.685M35441.629 5079.412h78.74" fill="none" stroke-width="36.6141"/></g><g><path d="M35717.219 4414.06v-472.44h-472.44v472.44z" fill="#666" fill-rule="evenodd" stroke-width="36.6141"/><path d="M35244.779 3941.62l117.716 117.716M35244.779 4414.06l117.716-117.717M35362.495 4059.336v237.007M35717.219 3941.62l-117.716 117.716M35599.503 4059.336h-237.008M35717.219 4414.06l-117.716-117.717M35599.503 4296.343v-237.007M35362.495 4296.343h237.008" fill="none" stroke-width="36.6141"/><path d="M35599.109 4295.95v-236.22h-236.22v236.22z" fill="olive" fill-rule="evenodd" stroke-width="36.6141"/><path d="M35441.629 4079.414v-19.685M35441.629 4276.265v-196.85M35441.629 4295.95v-19.686M35520.369 4295.95v-19.686M35441.629 4276.265h78.74M35520.369 4276.265v-196.85M35520.369 4079.414v-19.685M35441.629 4079.414h78.74" fill="none" stroke-width="36.6141"/></g><g><path d="M35717.219 3414.061v-472.44h-472.44v472.44z" fill="#666" fill-rule="evenodd" stroke-width="36.6141"/><path d="M35244.779 2941.621l117.716 117.717M35244.779 3414.061l117.716-117.716M35362.495 3059.338v237.007M35717.219 2941.621l-117.716 117.717M35599.503 3059.338h-237.008M35717.219 3414.061l-117.716-117.716M35599.503 3296.345v-237.007M35362.495 3296.345h237.008" fill="none" stroke-width="36.6141"/><path d="M35599.109 3295.951v-236.22h-236.22v236.22z" fill="olive" fill-rule="evenodd" stroke-width="36.6141"/><path d="M35441.629 3079.416v-19.685M35441.629 3276.266v-196.85M35441.629 3295.951v-19.685M35520.369 3295.951v-19.685M35441.629 3276.266h78.74M35520.369 3276.266v-196.85M35520.369 3079.416v-19.685M35441.629 3079.416h78.74" fill="none" stroke-width="36.6141"/></g></g><g transform="matrix(0 -393.7 393.7 0 12052 9102)" stroke="#000"><path d="M19.24 12.79H.19V.19h19.05z" fill="#0a0a0a" fill-rule="evenodd" stroke-width=".093"/><circle transform="scale(1 -1)" cx="2.336" cy="-11.472" r=".75" fill="red" stroke-width=".093"/><path fill="red" stroke-width=".093" d="M3.132 9.189h6.865v1.491H3.132zM10.222 9.197h6.865v1.491h-6.865zM3.132 2.213h6.865v1.491H3.132zM10.222 2.222h6.865v1.491h-6.865z"/><path fill="red" stroke-width=".08" d="M3.901 3.892v5.103H2.397V3.892zM10.868 3.919v5.103H9.364V3.919zM17.856 3.901v5.103h-1.504V3.901z"/></g><g transform="matrix(-393.7 0 0 393.7 26190.339 9261.332)" fill="#faa" stroke-width=".093"><path d="M1.14.8V-.8M3.94.8V-.8M1.14-.8c-.24.021-.374.155-.4.4v.8c0 .22.18.4.4.4h.5V-.8zM3.44-.8V.8h.5a.4.4 0 0 0 .4-.4v-.8c-.026-.245-.16-.379-.4-.4z" fill-rule="evenodd" stroke="#191919"/><path d="M4.34.25h.74c.333 0 .333-.5 0-.5h-.74 0z" fill="#999" fill-rule="evenodd" stroke="#191919"/></g><path d="M25899.017 9359.772v-196.85h291.338c131.232 0 131.232 196.85 0 196.85z" fill="#999" stroke="#1a1a1a" stroke-width="36.6141"/><path d="M24836.027 9544.811v-566.928h708.66v566.928z" fill="#e9afaf" stroke="#1a1a1a" stroke-width="36.6141"/><path fill="#500" opacity=".997" stroke="#1a1a1a" stroke-width="36.2204" d="M25449.372 9543.536h-71.654v-563.779h71.654z"/><path opacity=".997" stroke="#1a1a1a" stroke-width="36.2204" d="M25305.278 9541.567h-71.654V8977.79h71.654z"/><path fill="red" opacity=".997" stroke="#1a1a1a" stroke-width="36.2204" d="M25159.215 9541.174h-71.654v-563.779h71.654z"/><path fill="olive" opacity=".997" stroke="#1a1a1a" stroke-width="36.2204" d="M24963.94 9543.536h-71.654v-563.779h71.654z"/><g transform="matrix(-393.7 0 0 393.7 26190.339 10245.332)" fill="#faa" stroke-width=".093"><path d="M1.14.8V-.8M3.94.8V-.8M1.14-.8c-.24.021-.374.155-.4.4v.8c0 .22.18.4.4.4h.5V-.8zM3.44-.8V.8h.5a.4.4 0 0 0 .4-.4v-.8c-.026-.245-.16-.379-.4-.4z" fill-rule="evenodd" stroke="#191919"/><path d="M4.34.25h.74c.333 0 .333-.5 0-.5h-.74 0z" fill="#999" fill-rule="evenodd" stroke="#191919"/></g><path d="M25899.017 10343.772v-196.85h291.338c131.232 0 131.232 196.85 0 196.85z" fill="#999" stroke="#1a1a1a" stroke-width="36.6141"/><path d="M24836.027 10528.811v-566.928h708.66v566.928z" fill="#e9afaf" stroke="#1a1a1a" stroke-width="36.6141"/><path fill="#500" opacity=".997" stroke="#1a1a1a" stroke-width="36.2204" d="M25449.372 10527.536h-71.654v-563.779h71.654z"/><path opacity=".997" stroke="#1a1a1a" stroke-width="36.2204" d="M25305.278 10525.567h-71.654V9961.79h71.654z"/><path fill="red" opacity=".997" stroke="#1a1a1a" stroke-width="36.2204" d="M25159.215 10525.174h-71.654v-563.779h71.654z"/><path fill="olive" opacity=".997" stroke="#1a1a1a" stroke-width="36.2204" d="M24963.94 10527.536h-71.654v-563.779h71.654z"/><g transform="matrix(-393.7 0 0 393.7 26190.339 11229.332)" fill="#faa" stroke-width=".093"><path d="M1.14.8V-.8M3.94.8V-.8M1.14-.8c-.24.021-.374.155-.4.4v.8c0 .22.18.4.4.4h.5V-.8zM3.44-.8V.8h.5a.4.4 0 0 0 .4-.4v-.8c-.026-.245-.16-.379-.4-.4z" fill-rule="evenodd" stroke="#191919"/><path d="M4.34.25h.74c.333 0 .333-.5 0-.5h-.74 0z" fill="#999" fill-rule="evenodd" stroke="#191919"/></g><path d="M25899.017 11327.772v-196.85h291.338c131.232 0 131.232 196.85 0 196.85z" fill="#999" stroke="#1a1a1a" stroke-width="36.6141"/><path d="M24836.027 11512.811v-566.928h708.66v566.928z" fill="#e9afaf" stroke="#1a1a1a" stroke-width="36.6141"/><path fill="#500" opacity=".997" stroke="#1a1a1a" stroke-width="36.2204" d="M25449.372 11511.536h-71.654v-563.779h71.654z"/><path opacity=".997" stroke="#1a1a1a" stroke-width="36.2204" d="M25305.278 11509.567h-71.654v-563.778h71.654z"/><path fill="red" opacity=".997" stroke="#1a1a1a" stroke-width="36.2204" d="M25159.215 11509.174h-71.654v-563.779h71.654z"/><path fill="olive" opacity=".997" stroke="#1a1a1a" stroke-width="36.2204" d="M24963.94 11511.536h-71.654v-563.779h71.654z"/><g><g transform="matrix(-393.7 0 0 393.7 26190.339 12214.332)" fill="#faa" stroke-width=".093"><path d="M1.14.8V-.8M3.94.8V-.8M1.14-.8c-.24.021-.374.155-.4.4v.8c0 .22.18.4.4.4h.5V-.8zM3.44-.8V.8h.5a.4.4 0 0 0 .4-.4v-.8c-.026-.245-.16-.379-.4-.4z" fill-rule="evenodd" stroke="#191919"/><path d="M4.34.25h.74c.333 0 .333-.5 0-.5h-.74 0z" fill="#999" fill-rule="evenodd" stroke="#191919"/></g><path d="M25899.017 12312.772v-196.85h291.338c131.232 0 131.232 196.85 0 196.85z" fill="#999" stroke="#1a1a1a" stroke-width="36.6141"/><path d="M24836.027 12497.811v-566.928h708.66v566.928z" fill="#e9afaf" stroke="#1a1a1a" stroke-width="36.6141"/><path fill="#500" opacity=".997" stroke="#1a1a1a" stroke-width="36.2204" d="M25449.372 12496.536h-71.654v-563.779h71.654z"/><path opacity=".997" stroke="#1a1a1a" stroke-width="36.2204" d="M25305.278 12494.567h-71.654v-563.778h71.654z"/><path fill="red" opacity=".997" stroke="#1a1a1a" stroke-width="36.2204" d="M25159.215 12494.174h-71.654v-563.779h71.654z"/><path fill="olive" opacity=".997" stroke="#1a1a1a" stroke-width="36.2204" d="M24963.94 12496.536h-71.654v-563.779h71.654z"/></g><g><g transform="matrix(393.7 0 0 -393.7 24220.661 8079.668)" fill="#faa" stroke-width=".093"><path d="M1.14.8V-.8M3.94.8V-.8M1.14-.8c-.24.021-.374.155-.4.4v.8c0 .22.18.4.4.4h.5V-.8zM3.44-.8V.8h.5a.4.4 0 0 0 .4-.4v-.8c-.026-.245-.16-.379-.4-.4z" fill-rule="evenodd" stroke="#191919"/><path d="M4.34.25h.74c.333 0 .333-.5 0-.5h-.74 0z" fill="#999" fill-rule="evenodd" stroke="#191919"/></g><path d="M24511.983 7981.228v196.85h-291.338c-131.232 0-131.232-196.85 0-196.85z" fill="#999" stroke="#1a1a1a" stroke-width="36.6141"/><path d="M25574.973 7796.189v566.928h-708.66v-566.928z" fill="#e9afaf" stroke="#1a1a1a" stroke-width="36.6141"/><path fill="#500" opacity=".997" stroke="#1a1a1a" stroke-width="36.2204" d="M24961.628 7797.464h71.654v563.779h-71.654z"/><path opacity=".997" stroke="#1a1a1a" stroke-width="36.2204" d="M25105.722 7799.433h71.654v563.778h-71.654z"/><path fill="red" opacity=".997" stroke="#1a1a1a" stroke-width="36.2204" d="M25251.785 7799.827h71.654v563.778h-71.654z"/><path fill="olive" opacity=".997" stroke="#1a1a1a" stroke-width="36.2204" d="M25447.06 7797.464h71.654v563.779h-71.654z"/></g><g><g transform="matrix(393.7 0 0 -393.7 24220.661 7142.668)" fill="#faa" stroke-width=".093"><path d="M1.14.8V-.8M3.94.8V-.8M1.14-.8c-.24.021-.374.155-.4.4v.8c0 .22.18.4.4.4h.5V-.8zM3.44-.8V.8h.5a.4.4 0 0 0 .4-.4v-.8c-.026-.245-.16-.379-.4-.4z" fill-rule="evenodd" stroke="#191919"/><path d="M4.34.25h.74c.333 0 .333-.5 0-.5h-.74 0z" fill="#999" fill-rule="evenodd" stroke="#191919"/></g><path d="M24511.983 7044.228v196.85h-291.338c-131.232 0-131.232-196.85 0-196.85z" fill="#999" stroke="#1a1a1a" stroke-width="36.6141"/><path d="M25574.973 6859.189v566.928h-708.66v-566.928z" fill="#e9afaf" stroke="#1a1a1a" stroke-width="36.6141"/><path fill="#500" opacity=".997" stroke="#1a1a1a" stroke-width="36.2204" d="M24961.628 6860.464h71.654v563.779h-71.654z"/><path opacity=".997" stroke="#1a1a1a" stroke-width="36.2204" d="M25105.722 6862.433h71.654v563.778h-71.654z"/><path fill="red" opacity=".997" stroke="#1a1a1a" stroke-width="36.2204" d="M25251.785 6862.827h71.654v563.778h-71.654z"/><path fill="olive" opacity=".997" stroke="#1a1a1a" stroke-width="36.2204" d="M25447.06 6860.464h71.654v563.779h-71.654z"/></g><g><g transform="matrix(393.7 0 0 -393.7 24220.661 6110.668)" fill="#faa" stroke-width=".093"><path d="M1.14.8V-.8M3.94.8V-.8M1.14-.8c-.24.021-.374.155-.4.4v.8c0 .22.18.4.4.4h.5V-.8zM3.44-.8V.8h.5a.4.4 0 0 0 .4-.4v-.8c-.026-.245-.16-.379-.4-.4z" fill-rule="evenodd" stroke="#191919"/><path d="M4.34.25h.74c.333 0 .333-.5 0-.5h-.74 0z" fill="#999" fill-rule="evenodd" stroke="#191919"/></g><path d="M24511.983 6012.228v196.85h-291.338c-131.232 0-131.232-196.85 0-196.85z" fill="#999" stroke="#1a1a1a" stroke-width="36.6141"/><path d="M25574.973 5827.189v566.928h-708.66v-566.928z" fill="#e9afaf" stroke="#1a1a1a" stroke-width="36.6141"/><path fill="#500" opacity=".997" stroke="#1a1a1a" stroke-width="36.2204" d="M24961.628 5828.464h71.654v563.779h-71.654z"/><path opacity=".997" stroke="#1a1a1a" stroke-width="36.2204" d="M25105.722 5830.433h71.654v563.778h-71.654z"/><path fill="red" opacity=".997" stroke="#1a1a1a" stroke-width="36.2204" d="M25251.785 5830.827h71.654v563.778h-71.654z"/><path fill="olive" opacity=".997" stroke="#1a1a1a" stroke-width="36.2204" d="M25447.06 5828.464h71.654v563.779h-71.654z"/></g><g><g transform="matrix(393.7 0 0 -393.7 24220.661 5126.668)" fill="#faa" stroke-width=".093"><path d="M1.14.8V-.8M3.94.8V-.8M1.14-.8c-.24.021-.374.155-.4.4v.8c0 .22.18.4.4.4h.5V-.8zM3.44-.8V.8h.5a.4.4 0 0 0 .4-.4v-.8c-.026-.245-.16-.379-.4-.4z" fill-rule="evenodd" stroke="#191919"/><path d="M4.34.25h.74c.333 0 .333-.5 0-.5h-.74 0z" fill="#999" fill-rule="evenodd" stroke="#191919"/></g><path d="M24511.983 5028.228v196.85h-291.338c-131.232 0-131.232-196.85 0-196.85z" fill="#999" stroke="#1a1a1a" stroke-width="36.6141"/><path d="M25574.973 4843.189v566.928h-708.66v-566.928z" fill="#e9afaf" stroke="#1a1a1a" stroke-width="36.6141"/><path fill="#500" opacity=".997" stroke="#1a1a1a" stroke-width="36.2204" d="M24961.628 4844.464h71.654v563.779h-71.654z"/><path opacity=".997" stroke="#1a1a1a" stroke-width="36.2204" d="M25105.722 4846.433h71.654v563.778h-71.654z"/><path fill="red" opacity=".997" stroke="#1a1a1a" stroke-width="36.2204" d="M25251.785 4846.827h71.654v563.778h-71.654z"/><path fill="olive" opacity=".997" stroke="#1a1a1a" stroke-width="36.2204" d="M25447.06 4844.464h71.654v563.779h-71.654z"/></g><g><g transform="matrix(393.7 0 0 -393.7 24220.661 4142.668)" fill="#faa" stroke-width=".093"><path d="M1.14.8V-.8M3.94.8V-.8M1.14-.8c-.24.021-.374.155-.4.4v.8c0 .22.18.4.4.4h.5V-.8zM3.44-.8V.8h.5a.4.4 0 0 0 .4-.4v-.8c-.026-.245-.16-.379-.4-.4z" fill-rule="evenodd" stroke="#191919"/><path d="M4.34.25h.74c.333 0 .333-.5 0-.5h-.74 0z" fill="#999" fill-rule="evenodd" stroke="#191919"/></g><path d="M24511.983 4044.228v196.85h-291.338c-131.232 0-131.232-196.85 0-196.85z" fill="#999" stroke="#1a1a1a" stroke-width="36.6141"/><path d="M25574.973 3859.189v566.928h-708.66v-566.928z" fill="#e9afaf" stroke="#1a1a1a" stroke-width="36.6141"/><path fill="#500" opacity=".997" stroke="#1a1a1a" stroke-width="36.2204" d="M24961.628 3860.464h71.654v563.779h-71.654z"/><path opacity=".997" stroke="#1a1a1a" stroke-width="36.2204" d="M25105.722 3862.433h71.654v563.778h-71.654z"/><path fill="red" opacity=".997" stroke="#1a1a1a" stroke-width="36.2204" d="M25251.785 3862.827h71.654v563.778h-71.654z"/><path fill="olive" opacity=".997" stroke="#1a1a1a" stroke-width="36.2204" d="M25447.06 3860.464h71.654v563.779h-71.654z"/></g><g><g transform="matrix(393.7 0 0 -393.7 24220.661 3158.668)" fill="#faa" stroke-width=".093"><path d="M1.14.8V-.8M3.94.8V-.8M1.14-.8c-.24.021-.374.155-.4.4v.8c0 .22.18.4.4.4h.5V-.8zM3.44-.8V.8h.5a.4.4 0 0 0 .4-.4v-.8c-.026-.245-.16-.379-.4-.4z" fill-rule="evenodd" stroke="#191919"/><path d="M4.34.25h.74c.333 0 .333-.5 0-.5h-.74 0z" fill="#999" fill-rule="evenodd" stroke="#191919"/></g><path d="M24511.983 3060.228v196.85h-291.338c-131.232 0-131.232-196.85 0-196.85z" fill="#999" stroke="#1a1a1a" stroke-width="36.6141"/><path d="M25574.973 2875.189v566.928h-708.66v-566.928z" fill="#e9afaf" stroke="#1a1a1a" stroke-width="36.6141"/><path fill="#500" opacity=".997" stroke="#1a1a1a" stroke-width="36.2204" d="M24961.628 2876.464h71.654v563.779h-71.654z"/><path opacity=".997" stroke="#1a1a1a" stroke-width="36.2204" d="M25105.722 2878.433h71.654v563.778h-71.654z"/><path fill="red" opacity=".997" stroke="#1a1a1a" stroke-width="36.2204" d="M25251.785 2878.827h71.654v563.778h-71.654z"/><path fill="olive" opacity=".997" stroke="#1a1a1a" stroke-width="36.2204" d="M25447.06 2876.464h71.654v563.779h-71.654z"/></g><g><g transform="matrix(393.7 0 0 -393.7 24220.661 2173.668)" fill="#faa" stroke-width=".093"><path d="M1.14.8V-.8M3.94.8V-.8M1.14-.8c-.24.021-.374.155-.4.4v.8c0 .22.18.4.4.4h.5V-.8zM3.44-.8V.8h.5a.4.4 0 0 0 .4-.4v-.8c-.026-.245-.16-.379-.4-.4z" fill-rule="evenodd" stroke="#191919"/><path d="M4.34.25h.74c.333 0 .333-.5 0-.5h-.74 0z" fill="#999" fill-rule="evenodd" stroke="#191919"/></g><path d="M24511.983 2075.228v196.85h-291.338c-131.232 0-131.232-196.85 0-196.85z" fill="#999" stroke="#1a1a1a" stroke-width="36.6141"/><path d="M25574.973 1890.189v566.928h-708.66v-566.928z" fill="#e9afaf" stroke="#1a1a1a" stroke-width="36.6141"/><path fill="#500" opacity=".997" stroke="#1a1a1a" stroke-width="36.2204" d="M24961.628 1891.464h71.654v563.779h-71.654z"/><path opacity=".997" stroke="#1a1a1a" stroke-width="36.2204" d="M25105.722 1893.433h71.654v563.778h-71.654z"/><path fill="red" opacity=".997" stroke="#1a1a1a" stroke-width="36.2204" d="M25251.785 1893.826h71.654v563.779h-71.654z"/><path fill="olive" opacity=".997" stroke="#1a1a1a" stroke-width="36.2204" d="M25447.06 1891.464h71.654v563.779h-71.654z"/></g><g><g transform="matrix(393.7 0 0 -393.7 24220.661 1189.668)" fill="#faa" stroke-width=".093"><path d="M1.14.8V-.8M3.94.8V-.8M1.14-.8c-.24.021-.374.155-.4.4v.8c0 .22.18.4.4.4h.5V-.8zM3.44-.8V.8h.5a.4.4 0 0 0 .4-.4v-.8c-.026-.245-.16-.379-.4-.4z" fill-rule="evenodd" stroke="#191919"/><path d="M4.34.25h.74c.333 0 .333-.5 0-.5h-.74 0z" fill="#999" fill-rule="evenodd" stroke="#191919"/></g><path d="M24511.983 1091.228v196.85h-291.338c-131.232 0-131.232-196.85 0-196.85z" fill="#999" stroke="#1a1a1a" stroke-width="36.6141"/><path d="M25574.973 906.189v566.928h-708.66V906.189z" fill="#e9afaf" stroke="#1a1a1a" stroke-width="36.6141"/><path fill="#500" opacity=".997" stroke="#1a1a1a" stroke-width="36.2204" d="M24961.628 907.464h71.654v563.779h-71.654z"/><path opacity=".997" stroke="#1a1a1a" stroke-width="36.2204" d="M25105.722 909.433h71.654v563.778h-71.654z"/><path fill="red" opacity=".997" stroke="#1a1a1a" stroke-width="36.2204" d="M25251.785 909.827h71.654v563.778h-71.654z"/><path fill="olive" opacity=".997" stroke="#1a1a1a" stroke-width="36.2204" d="M25447.06 907.464h71.654v563.779h-71.654z"/></g><g stroke="#000" stroke-width=".093"><g transform="matrix(393.7 0 0 -393.7 20087.393 10048.266)"><path d="M1.11 1.54h2.86L4.54 0 4.4-.77H.68L.54 0z" fill="#1a1a1a" fill-rule="evenodd"/><path d="M5.33-.19h-.825 0L4.47.19h.86z" fill="#b3b3b3" fill-rule="evenodd"/></g><path d="M20313.594 10123.07l14.086-149.607h0-338.708v149.606z" fill="#b3b3b3" stroke-width="36.6141"/></g><g stroke="#000" stroke-width=".093"><g transform="matrix(393.7 0 0 -393.7 14576.393 10048.266)"><path d="M1.11 1.54h2.86L4.54 0 4.4-.77H.68L.54 0z" fill="#1a1a1a" fill-rule="evenodd"/><path d="M5.33-.19h-.825 0L4.47.19h.86z" fill="#b3b3b3" fill-rule="evenodd"/></g><path d="M14802.594 10123.07l14.086-149.607h0-338.708v149.606z" fill="#b3b3b3" stroke-width="36.6141"/></g><g stroke="#000" stroke-width=".093"><g transform="matrix(393.7 0 0 -393.7 9064.393 10048.266)"><path d="M1.11 1.54h2.86L4.54 0 4.4-.77H.68L.54 0z" fill="#1a1a1a" fill-rule="evenodd"/><path d="M5.33-.19h-.825 0L4.47.19h.86z" fill="#b3b3b3" fill-rule="evenodd"/></g><path d="M9290.594 10123.07l14.086-149.607h0-338.708v149.606z" fill="#b3b3b3" stroke-width="36.6141"/></g><g stroke="#000" stroke-width=".093"><g transform="matrix(393.7 0 0 -393.7 3552.393 10048.266)"><path d="M1.11 1.54h2.86L4.54 0 4.4-.77H.68L.54 0z" fill="#1a1a1a" fill-rule="evenodd"/><path d="M5.33-.19h-.825 0L4.47.19h.86z" fill="#b3b3b3" fill-rule="evenodd"/></g><path d="M3778.594 10123.07l14.086-149.607h0-338.708v149.606z" fill="#b3b3b3" stroke-width="36.6141"/></g><g transform="matrix(0 -393.7 393.7 0 17564 9102)" stroke="#000"><path d="M19.24 12.79H.19V.19h19.05z" fill="#0a0a0a" fill-rule="evenodd" stroke-width=".093"/><circle transform="scale(1 -1)" cx="2.336" cy="-11.472" r=".75" fill="red" stroke-width=".093"/><path fill="red" stroke-width=".093" d="M3.132 9.189h6.865v1.491H3.132zM10.222 9.197h6.865v1.491h-6.865zM3.132 2.213h6.865v1.491H3.132zM10.222 2.222h6.865v1.491h-6.865z"/><path fill="red" stroke-width=".08" d="M3.901 3.892v5.103H2.397V3.892zM10.868 3.919v5.103H9.364V3.919zM17.856 3.901v5.103h-1.504V3.901z"/></g><g transform="rotate(-90 7821 1281) scale(393.7)" stroke="#000"><path d="M19.24 12.79H.19V.19h19.05z" fill="#0a0a0a" fill-rule="evenodd" stroke-width=".093"/><circle transform="scale(1 -1)" cx="2.336" cy="-11.472" r=".75" fill="red" stroke-width=".093"/><path fill="red" stroke-width=".093" d="M3.132 9.189h6.865v1.491H3.132zM10.222 9.197h6.865v1.491h-6.865zM3.132 2.213h6.865v1.491H3.132zM10.222 2.222h6.865v1.491h-6.865z"/><path fill="red" stroke-width=".08" d="M3.901 3.892v5.103H2.397V3.892zM10.868 3.919v5.103H9.364V3.919zM17.856 3.901v5.103h-1.504V3.901z"/></g><g transform="matrix(0 -393.7 393.7 0 1029 9102)" stroke="#000"><path d="M19.24 12.79H.19V.19h19.05z" fill="#0a0a0a" fill-rule="evenodd" stroke-width=".093"/><circle transform="scale(1 -1)" cx="2.336" cy="-11.472" r=".75" fill="red" stroke-width=".093"/><path fill="red" stroke-width=".093" d="M3.132 9.189h6.865v1.491H3.132zM10.222 9.197h6.865v1.491h-6.865zM3.132 2.213h6.865v1.491H3.132zM10.222 2.222h6.865v1.491h-6.865z"/><path fill="red" stroke-width=".08" d="M3.901 3.892v5.103H2.397V3.892zM10.868 3.919v5.103H9.364V3.919zM17.856 3.901v5.103h-1.504V3.901z"/></g></svg>