<?xml version="1.0" encoding="UTF-8"?>
<svg width="183" height="246" version="1.1" viewBox="0 0 14711 19719" xmlns="http://www.w3.org/2000/svg">
 <g transform="translate(-44790 -17890)" clip-path="url(#a)" mask="url(#b)">
  <defs>
   <clipPath id="a">
    <path d="M44800 17900v19700h14700V17900H44800" fill-rule="evenodd"/>
   </clipPath>
  </defs>
  <g fill="#313d63" stroke="#313d63">
   <path d="M44800 17900v19700h14700V17900H44800" fill-rule="evenodd"/>
   <path d="M59500 17900H44800m14700 19700V17900M44800 37600h14700M44800 17900v19700" fill="none" fill-opacity="0" stroke="#000" stroke-linecap="round" stroke-linejoin="round" stroke-width="19.685"/>
  </g>
  <g fill="#9c6b28" stroke-linecap="round" stroke-linejoin="round" stroke-width="0">
   <circle cx="48250" cy="27250" r="354.33"/>
   <circle cx="47250" cy="25250" r="354.33"/>
   <circle cx="48250" cy="22250" r="354.33"/>
   <circle cx="58250" cy="24500" r="334.65"/>
   <circle cx="58250" cy="23500" r="334.65"/>
   <path d="m57915 22835v-669.2h669.2v669.2z" fill-rule="evenodd"/>
  </g>
  <g fill="#212d53" stroke-linecap="round" stroke-linejoin="round" stroke-width="0">
   <circle cx="48250" cy="27250" r="354.33"/>
   <circle cx="47250" cy="25250" r="354.33"/>
   <circle cx="48250" cy="22250" r="354.33"/>
   <circle cx="58250" cy="24500" r="334.65"/>
   <circle cx="58250" cy="23500" r="334.65"/>
   <path d="m57915 22835v-669.2h669.2v669.2z" fill-rule="evenodd"/>
   <circle cx="48250" cy="27250" r="68.898"/>
   <circle cx="47250" cy="25250" r="68.898"/>
   <circle cx="48250" cy="22250" r="68.898"/>
   <circle cx="58250" cy="24500" r="68.898"/>
   <circle cx="58250" cy="23500" r="68.898"/>
   <circle cx="58250" cy="22500" r="68.898"/>
  </g>
  <g fill="#b5ae30" mask="url(#c)" stroke-linecap="round" stroke-linejoin="round" stroke-width="0">
   <circle cx="48250" cy="27250" r="354.33"/>
   <circle cx="47250" cy="25250" r="354.33"/>
   <circle cx="48250" cy="22250" r="354.33"/>
   <circle cx="58250" cy="24500" r="334.65"/>
   <circle cx="58250" cy="23500" r="334.65"/>
   <path d="m57915 22835v-669.2h669.2v669.2z" fill-rule="evenodd"/>
   <circle cx="48250" cy="27250" r="68.898"/>
   <circle cx="47250" cy="25250" r="68.898"/>
   <circle cx="48250" cy="22250" r="68.898"/>
   <circle cx="58250" cy="24500" r="68.898"/>
   <circle cx="58250" cy="23500" r="68.898"/>
   <circle cx="58250" cy="22500" r="68.898"/>
  </g>
  <defs>
   <mask id="c">
    <g fill="#fff" stroke="#fff" stroke-linecap="round" stroke-linejoin="round" stroke-width="0">
     <circle cx="48250" cy="27250" r="354.33"/>
     <circle cx="47250" cy="25250" r="354.33"/>
     <circle cx="48250" cy="22250" r="354.33"/>
     <circle cx="58250" cy="24500" r="334.65"/>
     <circle cx="58250" cy="23500" r="334.65"/>
     <path d="m57915 22835v-669.2h669.2v669.2z" fill-rule="evenodd"/>
    </g>
   </mask>
  </defs>
  <defs>
   <mask id="d">
    <path d="M44790 17890h16479v19719H44790z" fill="#fff"/>
    <g stroke="#000" stroke-linecap="round" stroke-linejoin="round" stroke-width="0">
     <circle cx="48250" cy="27250" r="354.33"/>
     <circle cx="47250" cy="25250" r="354.33"/>
     <circle cx="48250" cy="22250" r="354.33"/>
     <circle cx="58250" cy="24500" r="334.65"/>
     <circle cx="58250" cy="23500" r="334.65"/>
     <path d="m57915 22835v-669.2h669.2v669.2z" fill-rule="evenodd"/>
    </g>
   </mask>
  </defs>
  <g fill="none" fill-opacity="0" mask="url(#d)" stroke="#f0f0f0" stroke-linecap="round" stroke-linejoin="round">
   <path d="m46066 19165h-394m0 619v-1181h563m450 1181v-1181m449 0 788 1181m0-1181-788 1181m1238-619h394m168 619h-562v-1181h562m506 1181v-1181h282l168 56 113 112 56 113 56 225v169l-56 225-56 112-113 113-168 56h-282m1913-1181 393 1181 394-1181m619 0h225l112 56 113 112 56 225v394l-56 225-113 113-112 56h-225l-113-56-112-113-56-225v-394l56-225 112-112 113-56m1575 1181h-563v-1181m788 0h674m-337 1181v-1181m675 843h562m-675 338 394-1181 394 1181m1012-1125-112-56h-169l-169 56-112 112-56 113-57 225v169l57 225 56 112 112 113 169 56h112l169-56 56-57v-393h-225m732-113h393m169 619h-562v-1181h562" stroke-width="295.28"/>
   <path d="m56876 37362v-366l225 197v-84l28-57 28-28 57-28h140l56 28 29 28 28 57v168l-28 57-29 28m-168-619v-450m-338-590-28 56v84l28 85 56 56 57 28 112 28h85l112-28 56-28 57-56 28-85v-56l-28-84-29-28h-196v112m253-366h-591l591-337h-591m591-281h-591v-141l28-84 56-56 57-29 112-28h85l112 28 56 29 57 56 28 84v141m-3335 2474-28-28-28-56v-141l28-56 28-28 57-28h56l84 28 338 338v-366m-225-253v-450m-366-394v-112l28-56 56-57 113-28h197l112 28 57 57 28 56v112l-28 57-57 56-112 28h-197l-113-28-56-56-28-57m0-506h478l56-28 29-28 28-56v-113l-28-56-29-28-56-28h-478m0-197v-338m591 169h-591m-2209 2306v337m0-168h-591l84 56 57 56 28 56m197-590v-450m-366-197 591-197-591-197m534-534 29 28 28 85v56l-28 84-57 56-56 29-112 28h-85l-112-28-57-29-56-56-28-84v-56l28-85 28-28m478-590 29 28 28 84v56l-28 85-57 56-56 28-112 28h-85l-112-28-57-28-56-56-28-85v-56l28-84 28-28" stroke-width="147.64"/>
   <path d="m46751 28596v-7595m1997 7595v-7595m-1997 7595h1997m-1997-7595h1997m-1510 8193v-598m1023 598v-598m-1023 598h1023m-1023-598h1023m-511 598v-298m10500-6920h523v524m0 500v2023m-1047 0h1047m-1047-2023v2023m0-2023h1047" stroke-width="47.244"/>
  </g>
  <path d="M59500 17900H44800m14700 19700V17900M44800 37600h14700M44800 17900v19700" fill="none" fill-opacity="0" stroke="#000" stroke-linecap="round" stroke-linejoin="round" stroke-width="19.685"/>
  <defs>
   <mask id="b">
    <path d="M44790 17890h16479v19719H44790z" fill="#fff"/>
    <path d="m48250 27250h0m-1e3 -2e3h0m1e3 -3e3h0m1e4 2250h0m0-1e3h0m0-1e3h0" stroke="#000" stroke-linecap="round" stroke-width="393"/>
   </mask>
  </defs>
 </g>
 <g stroke="#191919" stroke-width=".093">
  <path transform="matrix(0 -393.6 393.68 0 2495 4360.3)" d="M2.9 3.685h-18.75a.15.15 0 0 1-.15-.15v-4.53a.15.15 0 0 1 .15-.15H2.9a.15.15 0 0 1 .15.15v4.53a.15.15 0 0 1-.15.15z" fill="#005aff" fill-rule="evenodd"/>
  <path transform="matrix(0 -393.6 393.68 0 2495 4360.3)" d="M-17.216.09H-16v2.36h-1.216c-.183-.016-.284-.118-.304-.304v-.64h.79v-.472h-.79v-.64c.02-.186.121-.288.304-.304z" fill="#c88010" fill-rule="evenodd"/>
  <path transform="matrix(0 -393.6 393.68 0 2495 4360.3)" d="M-17.52 1.506v.64M2.9 3.535h-18.75v-4.53H2.901m-.001 0v4.68m-18.75-.15v.15M2.9-.995h.15m-.15 4.53h.15m-18.9 0H-16m.15-4.53H-16m.15 0v-.15m18.75.15v-.15M-17.216.09v.944m0 .472v.944M-16 1.27h-.73" fill="none"/>
 </g>
 <g transform="matrix(.99715 0 0 .99715 44.946 39.236)" stroke="#000000" stroke-width="36.614">
  <path d="m13952 7089.8v-3e3h-1e3v3e3z" fill="#1a1a1a" fill-rule="evenodd"/>
  <path d="m13688 4825.9v-472.44h-472.44v472.44z" fill="#666666" fill-rule="evenodd"/>
  <path d="m13216 4353.4 117.72 117.72m-117.72 354.72 117.72-117.72m0-237.01v237.01m354.72-354.72-117.72 117.72h-237.01m354.72 354.72-117.72-117.72v-237.01m-237.01 237.01h237.01" fill="none"/>
  <path d="m13570 4707.8v-236.22h-236.22v236.22z" fill="#808000" fill-rule="evenodd"/>
  <path d="m13413 4491.2v-19.685m0 216.54v-196.85m0 216.54v-19.685m78.74 19.685v-19.685m-78.74 0h78.74v-216.54m-78.74 19.685h78.74" fill="none"/>
  <path d="m13688 5825.9v-472.44h-472.44v472.44z" fill="#666666" fill-rule="evenodd"/>
  <path d="m13216 5353.4 117.72 117.72m-117.72 354.72 117.72-117.72m0-237.01v237.01m354.72-354.72-117.72 117.72h-237.01m354.72 354.72-117.72-117.72v-237.01m-237.01 237.01h237.01" fill="none"/>
  <path d="m13570 5707.8v-236.22h-236.22v236.22z" fill="#808000" fill-rule="evenodd"/>
  <path d="m13413 5491.2v-19.686m0 216.54v-196.85m0 216.54v-19.686m78.74 19.686v-19.686m-78.74 1e-3h78.74v-216.54m-78.74 19.686h78.74" fill="none"/>
  <path d="m13688 6825.9v-472.44h-472.44v472.44z" fill="#666666" fill-rule="evenodd"/>
  <path d="m13216 6353.4 117.72 117.72m-117.72 354.72 117.72-117.72m0-237.01v237.01m354.72-354.72-117.72 117.72h-237.01m354.72 354.72-117.72-117.72v-237.01m-237.01 237.01h237.01" fill="none"/>
  <path d="m13570 6707.7v-236.22h-236.22v236.22z" fill="#808000" fill-rule="evenodd"/>
  <path d="m13413 6491.2v-19.685m0 216.54v-196.85m0 216.53v-19.685m78.74 19.685v-19.685m-78.74 0h78.74v-216.54m-78.74 19.685h78.74" fill="none"/>
 </g>
</svg>
