<svg width="315" height="245" version="1.1" viewBox="0 0 25366 19734" xmlns="http://www.w3.org/2000/svg" xmlns:xlink="http://www.w3.org/1999/xlink">
 <g transform="translate(-44796,-17904)" fill="#313d63" stroke="#313d63">
  <path d="m44800 17900v19700h25300v-19700h-25300" fill-rule="evenodd"/>
  <g fill="none" fill-opacity="0" stroke="#000" stroke-linecap="round" stroke-linejoin="round" stroke-width="19.685">
   <path d="m70100 17900h-25300m25300 19700v-19700m-25300 19700h25300m-25300-19700v19700"/>
  </g>
 </g>
 <g transform="translate(-44796,-17904)" fill="#9c6b28" stroke-linecap="round" stroke-linejoin="round" stroke-width="0">
  <circle cx="61532" cy="26231" r="300"/>
  <circle cx="60532" cy="26239" r="300"/>
  <circle cx="59472" cy="26239" r="300"/>
 </g>
 <path d="m13388 8646v-600h600v600z" fill="#9c6b28" fill-rule="evenodd"/>
 <g fill="#212d53">
  <circle cx="16736" cy="8327" r="300"/>
  <circle cx="15736" cy="8335" r="300"/>
  <circle cx="14676" cy="8335" r="300"/>
  <path d="m13388 8646v-600h600v600z" fill-rule="evenodd"/>
  <circle cx="16736" cy="8327" r="68.898"/>
  <circle cx="15736" cy="8335" r="68.898"/>
  <circle cx="14676" cy="8335" r="68.898"/>
  <circle cx="13688" cy="8346" r="68.898"/>
 </g>
 <g fill="#b5ae30">
  <circle cx="16736" cy="8327" r="300"/>
  <circle cx="15736" cy="8335" r="300"/>
  <circle cx="14676" cy="8335" r="300"/>
  <path d="m13388 8646v-600h600v600z" fill-rule="evenodd"/>
  <circle cx="16736" cy="8327" r="68.898"/>
  <circle cx="15736" cy="8335" r="68.898"/>
  <circle cx="14676" cy="8335" r="68.898"/>
  <circle cx="13688" cy="8346" r="68.898"/>
 </g>
 <g transform="translate(-44796,-17904)" fill-opacity="0" stroke="#f0f0f0" stroke-linecap="round" stroke-linejoin="round" stroke-width="147.64">
  <path d="m62873 37052h394m-619 141 422 141v-366m-28-225v-450m-338-590-28 56v84l28 85 56 56 57 28 112 28h85l112-28 56-28 57-56 28-85v-56l-28-84-29-28h-196v112m253-366h-591l591-337h-591m591-281h-591v-141l28-84 56-56 57-29 112-28h85l112 28 56 29 57 56 28 84v141m-3391 2531v-366l225 197v-84l28-57 28-28 57-28h140l56 28 29 28 28 57v168l-28 57-29 28m-168-619v-450m-85-281v-197m310-84v281h-591v-281m534-591 29 28 28 85v56l-28 84-57 56-56 29-112 28h-85l-112-28-57-29-56-56-28-84v-56l28-85 28-28m535-253h-591m281 0v-337m310 0h-591m-2744 2868-28-28-28-56v-141l28-56 28-28 57-29h56l84 29 338 337v-366m-225-253v-450m-366-196v-338m591 169h-591m591-703-282 197m282 140h-591v-225l28-56 28-28 57-28h84l56 28 28 28 28 56v225m282-590h-591m28-591-28 56v85l28 84 56 56 57 29 112 28h85l112-28 56-29 57-56 28-84v-56l-28-85-29-28h-196v113m-2547 2418v337m0-168h-591l84 56 57 56 28 56m197-590v-450m-366-197 591-197-591-197m534-534 29 28 28 85v56l-28 84-57 56-56 29-112 28h-85l-112-28-57-29-56-56-28-84v-56l28-85 28-28m478-590 29 28 28 84v56l-28 85-57 56-56 28-112 28h-85l-112-28-57-28-56-56-28-85v-56l28-84 28-28" fill="none"/>
 </g>
 <g fill="none" stroke-linecap="round" stroke-linejoin="round">
  <g stroke="#f0f0f0" stroke-width="62.992">
   <circle cx="10109" cy="4875" r="3285.4"/>
   <path d="m6239 879v8181m17948-8181h-17948m17948 8181v-8181m-17948 8181h17948"/>
   <circle cx="20224" cy="4875" r="3208.3"/>
  </g>
  <g transform="translate(-44796,-17904)" fill-opacity="0" stroke="#000" stroke-width="19.685">
   <path d="m70100 17900h-25300m25300 19700v-19700m-25300 19700h25300m-25300-19700v19700"/>
  </g>
 </g>
 <g transform="translate(6088 756) scale(393.7)">
  <defs>
   <pattern id="g" width="2" height="2" patternTransform="scale(10)" patternUnits="userSpaceOnUse">
    <path d="M0 0h1v1H0zM1 1h1v1H1z"/>
   </pattern>
   <pattern id="h" width="2" height="2" patternTransform="scale(10)" patternUnits="userSpaceOnUse">
    <path d="M0 0h1v1H0zM1 1h1v1H1z"/>
   </pattern>
   <radialGradient id="f" cx="276.31" cy="-89.243" r="38.73" gradientUnits="userSpaceOnUse">
    <stop stop-color="#777" offset="0"/>
    <stop stop-color="#b9b9b9" offset="1"/>
   </radialGradient>
  </defs>
  <path d="M45.854 20.764V.454H.454v20.31z" fill="#073080" fill-rule="evenodd" stroke="#191919" stroke-width=".093"/>
  <g fill="#ccc" stroke="#191919" stroke-width=".093">
   <circle transform="scale(1 -1)" cx="26.799" cy="-19.044" r="1.087"/>
   <circle transform="scale(1 -1)" cx="24.369" cy="-19.044" r="1.087"/>
   <circle transform="scale(1 -1)" cx="21.939" cy="-19.044" r="1.087"/>
   <circle transform="scale(1 -1)" cx="19.509" cy="-19.044" r="1.087"/>
  </g>
  <g stroke="#191919" stroke-width=".093">
   <path d="m45.154 19.264c0 1.067-1.6 1.067-1.6 0s1.6-1.067 1.6 0zm0-17.31c0 1.067-1.6 1.067-1.6 0s1.6-1.067 1.6 0zm-42.4 17.31c0 1.067-1.6 1.067-1.6 0s1.6-1.067 1.6 0zm0-17.31c0 1.067-1.6 1.067-1.6 0s1.6-1.067 1.6 0z" fill="#1a1a1a" fill-rule="evenodd"/>
   <path d="m18.809 19.044a0.7 0.7 0 0 0 1.4 0 0.7 0.7 0 0 0-1.4 0m2.43 0a0.7 0.7 0 0 0 1.4 0 0.7 0.7 0 0 0-1.4 0m2.43 0a0.7 0.7 0 0 0 1.4 0 0.7 0.7 0 0 0-1.4 0m2.43 0a0.7 0.7 0 0 0 1.4 0 0.7 0.7 0 0 0-1.4 0" fill="none"/>
   <circle transform="scale(1 -1)" cx="26.799" cy="-19.044" r=".336" fill="#ccc"/>
  </g>
  <g fill="none" stroke="#191919" stroke-width=".093">
   <circle transform="scale(1 -1)" cx="24.369" cy="-19.044" r=".336"/>
   <circle transform="scale(1 -1)" cx="21.939" cy="-19.044" r=".336"/>
   <circle transform="scale(1 -1)" cx="19.509" cy="-19.044" r=".336"/>
  </g>
  <g stroke="#191919" stroke-width=".093">
   <path d="M19.994.949c-2.987 0-2.987 4.48 0 4.48h6.32c2.987 0 2.987-4.48 0-4.48z" fill="#999" fill-rule="evenodd"/>
   <path d="m26.314 1.279h-6.32m6.32 3.82a1.91 1.91 0 0 0 0-3.82m-6.32 3.82h6.32m-6.32-3.82a1.91 1.91 0 0 0 0 3.82" fill="none"/>
   <path d="m26.314 4.799c2.147 0 2.147-3.22 0-3.22h-6.32c-2.147 0-2.147 3.22 0 3.22z" fill="#ccc" fill-rule="evenodd"/>
   <path d="m19.994 5.129a1.94 1.94 0 0 1 0-3.88m6.32 3.88h-6.32m6.32-3.88a1.94 1.94 0 0 1 0 3.88m-6.32-3.88h6.32" fill="none"/>
   <path d="m19.994 4.499a1.31 1.31 0 0 1 0-2.62m6.32 2.62h-6.32m6.32-2.62a1.31 1.31 0 0 1 0 2.62m-6.32-2.62h6.32" fill="none"/>
  </g>
  <g transform="translate(-13.447 18.183) scale(.08503)">
   <circle cx="276.31" cy="-89.147" r="92.979" fill="#dcdcdc"/>
   <circle cx="276.31" cy="-89.147" r="77.446" fill="#222"/>
   <circle cx="276.31" cy="-89.147" r="59.733" fill="#777" fill-opacity=".992"/>
   <circle cx="276.31" cy="-89.243" r="38.73" fill="url(#f)"/>
   <circle cx="276.41" cy="-89.243" r="2.987" fill="#777" fill-opacity=".818"/>
   <circle cx="276.31" cy="-89.147" r="59.733" fill="url(#g)" opacity=".397"/>
  </g>
  <g transform="translate(12.754 18.167) scale(.08503)">
   <circle cx="276.31" cy="-89.147" r="92.979" fill="#dcdcdc"/>
   <circle cx="276.31" cy="-89.147" r="77.446" fill="#222"/>
   <circle cx="276.31" cy="-89.147" r="59.733" fill="#777" fill-opacity=".992"/>
   <circle cx="276.31" cy="-89.243" r="38.73" fill="url(#f)"/>
   <circle cx="276.41" cy="-89.243" r="2.987" fill="#777" fill-opacity=".818"/>
   <circle cx="276.31" cy="-89.147" r="59.733" fill="url(#h)" opacity=".397"/>
  </g>
  <path d="M2.977 17.18h1.74v.234h-.73v1.823h-.28v-1.823h-.73z" fill="#f9f9f9" stroke-width=".265" aria-label="T"/>
  <text x="41.206" y="19.06" font-family="sans-serif" font-size="9.878" font-weight="bold" letter-spacing="0" stroke-width=".265" word-spacing="0" style="line-height:1.25" xml:space="preserve">               </text>
  <g fill="#f9f9f9" stroke-width=".265">
   <path d="M42.084 18.542q.09.03.174.13.085.099.17.272l.283.563h-.299l-.263-.528q-.102-.207-.199-.274-.095-.068-.26-.068h-.303v.87h-.279v-2.058h.629q.353 0 .526.148.174.147.174.445 0 .194-.091.322-.09.128-.262.178zm-.697-.864v.73h.35q.2 0 .303-.092.103-.094.103-.274 0-.18-.103-.272-.102-.092-.303-.092z" aria-label="R"/>
   <g aria-label="HC-SR04">
    <path d="M17.973 6.365h.244v.738h.885v-.738h.243v1.8h-.243v-.857h-.885v.858h-.244zM21.178 6.504v.257q-.123-.115-.263-.171-.139-.057-.295-.057-.309 0-.473.19-.164.187-.164.544 0 .356.164.545.164.188.473.188.156 0 .295-.056.14-.057.263-.172v.255q-.128.087-.271.13-.143.044-.302.044-.409 0-.644-.25-.235-.25-.235-.684 0-.434.235-.683.235-.251.644-.251.162 0 .304.043.144.042.269.128zM21.432 7.39h.65v.198h-.65zM23.524 6.424v.238q-.139-.066-.262-.099t-.237-.032q-.2 0-.308.077-.107.077-.107.22 0 .119.071.18.073.06.273.098l.147.03q.272.052.401.183.13.13.13.35 0 .261-.176.396-.174.136-.513.136-.128 0-.273-.03-.143-.028-.298-.085v-.25q.149.082.291.125.142.042.28.042.208 0 .322-.082.113-.082.113-.234 0-.133-.082-.208-.08-.074-.266-.112l-.149-.029q-.272-.054-.394-.17-.122-.115-.122-.322 0-.238.168-.376.169-.137.464-.137.127 0 .258.023t.269.068zM24.866 7.322q.078.026.152.113.075.087.15.239l.247.492h-.262l-.23-.462q-.09-.181-.174-.24-.083-.06-.228-.06h-.265v.762h-.244v-1.8h.55q.309 0 .46.128.153.13.153.39 0 .17-.08.282-.078.112-.229.156zm-.61-.757v.64h.306q.176 0 .265-.081.09-.082.09-.24 0-.158-.09-.238-.089-.08-.265-.08zM26.271 6.526q-.188 0-.283.185-.094.185-.094.556 0 .37.094.556.095.185.283.185.19 0 .283-.185.096-.186.096-.556 0-.371-.096-.556-.094-.185-.283-.185zm0-.193q.303 0 .462.24.16.238.16.694 0 .455-.16.695-.16.239-.462.239t-.463-.24q-.16-.24-.16-.694 0-.456.16-.694.16-.24.463-.24zM27.99 6.578l-.615.96h.615zm-.064-.213h.306V7.54h.257v.202h-.257v.425h-.242V7.74h-.813v-.235z"/>
   </g>
   <g aria-label="Vcc">
    <path d="M20.164 17.299l-1.286.49v-.18l1.083-.408-1.083-.408v-.181l1.286.49zM19.236 15.737h.148q-.037.067-.055.135-.019.067-.019.136 0 .154.098.24.098.085.274.085.177 0 .275-.085.097-.086.097-.24 0-.069-.018-.136-.019-.068-.056-.135h.147q.03.066.046.138.016.07.016.15 0 .218-.137.347t-.37.128q-.236 0-.371-.13t-.135-.355q0-.073.015-.143.015-.07.045-.135zM19.236 14.767h.148q-.037.067-.055.135-.019.067-.019.136 0 .154.098.24.098.085.274.085.177 0 .275-.085.097-.086.097-.24 0-.069-.018-.136-.019-.068-.056-.135h.147q.03.066.046.138.016.07.016.15 0 .218-.137.347t-.37.128q-.236 0-.371-.13t-.135-.355q0-.073.015-.143.015-.07.045-.135z"/>
   </g>
   <g aria-label="Trig">
    <path d="M21.269 17.781v-1.088h.146v.457h1.14v.175h-1.14v.456z"/>
    <path d="M21.739 16.233q-.016.027-.022.059-.008.03-.008.068 0 .135.088.207.087.072.25.072h.508v.159h-.964v-.16h.15q-.088-.05-.13-.13-.043-.08-.043-.194l.002-.036.006-.044zM21.591 16.066v-.158h.965v.158zm-.376 0v-.158h.201v.158zM22.062 14.942q-.172 0-.267.071-.095.071-.095.2 0 .127.095.198.095.071.267.071.171 0 .266-.07.095-.072.095-.2t-.095-.199q-.095-.071-.266-.071zm.374-.158q.246 0 .366.109.12.11.12.335 0 .083-.013.158-.012.074-.037.143h-.155q.038-.07.056-.137.018-.068.018-.14 0-.155-.081-.232-.081-.078-.246-.078h-.078q.085.05.127.126.042.076.042.183 0 .178-.135.286t-.358.109q-.224 0-.36-.109t-.134-.286q0-.107.042-.183.042-.077.127-.126h-.146v-.158z"/>
   </g>
   <g aria-label="Ech">
    <path d="M23.757 17.672v-.813h.146v.639h.381v-.612h.147v.612h.465v-.655h.147v.829zM24.115 15.87h.148q-.037.067-.055.135-.019.067-.019.136 0 .154.098.24.098.085.274.085.177 0 .275-.085.097-.086.097-.24 0-.069-.018-.136-.019-.068-.056-.135h.147q.03.066.046.138.016.07.016.15 0 .218-.137.347-.137.128-.37.128-.236 0-.371-.13t-.135-.355q0-.073.015-.143.015-.07.045-.135zM24.461 14.793h.582v.158h-.577q-.137 0-.205.054-.068.053-.068.16 0 .128.082.202t.223.075h.545v.159h-1.34v-.16h.526q-.087-.056-.13-.133-.044-.077-.044-.178 0-.166.104-.252.102-.085.302-.085z"/>
   </g>
   <g aria-label="Gnd">
    <path d="M27.296 16.745h-.345v.284h-.143v-.456h.552q.071.1.108.222.036.121.036.26 0 .3-.175.471-.177.17-.491.17-.315 0-.491-.17-.177-.17-.177-.472 0-.126.031-.238.031-.114.092-.21h.185q-.082.097-.123.205-.042.109-.042.229 0 .236.132.354t.393.118q.26 0 .392-.118.131-.118.131-.354 0-.093-.015-.165-.016-.072-.05-.13zM26.897 15.46h.582v.158h-.577q-.137 0-.205.054-.068.053-.068.16 0 .128.082.202.082.075.223.075h.545v.159h-.964v-.16h.15q-.088-.056-.13-.133-.044-.077-.044-.178 0-.166.104-.252.102-.085.302-.085zM26.661 14.509h-.522v-.158h1.34v.158h-.145q.087.05.129.127.041.075.041.182 0 .175-.14.285-.139.11-.366.11-.228 0-.367-.11-.14-.11-.14-.285 0-.107.042-.182.042-.077.128-.127zm.337.54q.175 0 .275-.071.099-.073.099-.199 0-.125-.1-.198-.1-.072-.274-.072-.175 0-.274.072-.1.073-.1.198 0 .126.1.199.099.071.274.071z"/>
   </g>
  </g>
 </g>
</svg>
