<svg width="583" height="146" viewBox="0 0 46832 11701" xmlns="http://www.w3.org/2000/svg"><g fill="#313d63" stroke="#313d63"><path transform="matrix(.99988 0 0 1.2947 -41683 -15668)" d="M88500 12100H41700v9000h46800v-9000" fill-rule="evenodd"/><path transform="matrix(.99988 0 0 1.2947 -41683 -15668)" d="M88500 21100v-9000m-46800 9000v-9000m46800 9000H41700m0-9000h46800" fill="none" stroke="#000" stroke-linecap="round" stroke-linejoin="round" stroke-width="39.37"/></g><path d="M39636 457.2h6661.5v1975.2H39636zm24 3055h6661.5v1975.2H39660z" fill="#b3b3b3" stroke="#000" stroke-width="80.329"/><circle cx="38009" cy="3941.9" r="354.33" fill="#9c6b28"/><path d="M37655 2587.9h708.6v708.6H37655z" fill="#9c6b28" fill-rule="evenodd"/><circle cx="33309" cy="3941.9" r="354.33" fill="#9c6b28"/><path d="M32955 2587.9h708.6v708.6H32955z" fill="#9c6b28" fill-rule="evenodd"/><circle cx="28309" cy="3841.9" r="354.33" fill="#9c6b28"/><path d="M27955 2487.9h708.6v708.6H27955z" fill="#9c6b28" fill-rule="evenodd"/><circle cx="23309" cy="3841.9" r="354.33" fill="#9c6b28"/><path d="M22955 2487.9h708.6v708.6H22955z" fill="#9c6b28" fill-rule="evenodd"/><circle cx="18209" cy="3841.9" r="354.33" fill="#9c6b28"/><path d="M17855 2487.9h708.6v708.6H17855z" fill="#9c6b28" fill-rule="evenodd"/><circle cx="13109" cy="3841.9" r="354.33" fill="#9c6b28"/><path d="M12755 2487.9h708.6v708.6H12755z" fill="#9c6b28" fill-rule="evenodd"/><circle cx="8109" cy="3741.9" r="354.33" fill="#9c6b28"/><path d="M7755 2387.9h708.6v708.6H7755z" fill="#9c6b28" fill-rule="evenodd"/><circle cx="3109" cy="3741.9" r="354.33" fill="#9c6b28"/><path d="M2755 2387.9h708.6v708.6H2755z" fill="#9c6b28" fill-rule="evenodd"/><circle cx="25709" cy="4341.9" r="275.59" fill="#9c6b28"/><circle cx="25709" cy="2341.9" r="275.59" fill="#9c6b28"/><circle cx="30809" cy="4341.9" r="275.59" fill="#9c6b28"/><circle cx="30809" cy="2341.9" r="275.59" fill="#9c6b28"/><circle cx="20709" cy="4341.9" r="275.59" fill="#9c6b28"/><circle cx="20709" cy="2341.9" r="275.59" fill="#9c6b28"/><circle cx="5609" cy="4241.9" r="275.59" fill="#9c6b28"/><circle cx="5609" cy="2241.9" r="275.59" fill="#9c6b28"/><circle cx="35609" cy="4441.9" r="275.59" fill="#9c6b28"/><circle cx="35609" cy="2441.9" r="275.59" fill="#9c6b28"/><circle cx="809" cy="4241.9" r="275.59" fill="#9c6b28"/><circle cx="809" cy="2241.9" r="275.59" fill="#9c6b28"/><circle cx="10609" cy="4341.9" r="275.59" fill="#9c6b28"/><circle cx="10609" cy="2341.9" r="275.59" fill="#9c6b28"/><circle cx="15609" cy="4341.9" r="275.59" fill="#9c6b28"/><circle cx="15609" cy="2341.9" r="275.59" fill="#9c6b28"/><circle cx="38009" cy="3941.9" r="354.33" fill="#212d53"/><path d="M37655 2587.9h708.6v708.6H37655z" fill="#212d53" fill-rule="evenodd"/><circle cx="33309" cy="3941.9" r="354.33" fill="#212d53"/><path d="M32955 2587.9h708.6v708.6H32955z" fill="#212d53" fill-rule="evenodd"/><circle cx="28309" cy="3841.9" r="354.33" fill="#212d53"/><path d="M27955 2487.9h708.6v708.6H27955z" fill="#212d53" fill-rule="evenodd"/><circle cx="23309" cy="3841.9" r="354.33" fill="#212d53"/><path d="M22955 2487.9h708.6v708.6H22955z" fill="#212d53" fill-rule="evenodd"/><circle cx="18209" cy="3841.9" r="354.33" fill="#212d53"/><path d="M17855 2487.9h708.6v708.6H17855z" fill="#212d53" fill-rule="evenodd"/><circle cx="13109" cy="3841.9" r="354.33" fill="#212d53"/><path d="M12755 2487.9h708.6v708.6H12755z" fill="#212d53" fill-rule="evenodd"/><circle cx="8109" cy="3741.9" r="354.33" fill="#212d53"/><path d="M7755 2387.9h708.6v708.6H7755z" fill="#212d53" fill-rule="evenodd"/><circle cx="3109" cy="3741.9" r="354.33" fill="#212d53"/><path d="M2755 2387.9h708.6v708.6H2755z" fill="#212d53" fill-rule="evenodd"/><circle cx="25709" cy="4341.9" r="275.59" fill="#212d53"/><circle cx="25709" cy="2341.9" r="275.59" fill="#212d53"/><circle cx="30809" cy="4341.9" r="275.59" fill="#212d53"/><circle cx="30809" cy="2341.9" r="275.59" fill="#212d53"/><circle cx="20709" cy="4341.9" r="275.59" fill="#212d53"/><circle cx="20709" cy="2341.9" r="275.59" fill="#212d53"/><circle cx="5609" cy="4241.9" r="275.59" fill="#212d53"/><circle cx="5609" cy="2241.9" r="275.59" fill="#212d53"/><circle cx="35609" cy="4441.9" r="275.59" fill="#212d53"/><circle cx="35609" cy="2441.9" r="275.59" fill="#212d53"/><circle cx="809" cy="4241.9" r="275.59" fill="#212d53"/><circle cx="809" cy="2241.9" r="275.59" fill="#212d53"/><circle cx="10609" cy="4341.9" r="275.59" fill="#212d53"/><circle cx="10609" cy="2341.9" r="275.59" fill="#212d53"/><circle cx="15609" cy="4341.9" r="275.59" fill="#212d53"/><circle cx="15609" cy="2341.9" r="275.59" fill="#212d53"/><circle cx="38009" cy="3941.9" r="68.898" fill="#212d53"/><circle cx="38009" cy="2941.9" r="68.898" fill="#212d53"/><circle cx="33309" cy="3941.9" r="68.898" fill="#212d53"/><circle cx="33309" cy="2941.9" r="68.898" fill="#212d53"/><circle cx="28309" cy="3841.9" r="68.898" fill="#212d53"/><circle cx="28309" cy="2841.9" r="68.898" fill="#212d53"/><circle cx="23309" cy="3841.9" r="68.898" fill="#212d53"/><circle cx="23309" cy="2841.9" r="68.898" fill="#212d53"/><circle cx="18209" cy="3841.9" r="68.898" fill="#212d53"/><circle cx="18209" cy="2841.9" r="68.898" fill="#212d53"/><circle cx="13109" cy="3841.9" r="68.898" fill="#212d53"/><circle cx="13109" cy="2841.9" r="68.898" fill="#212d53"/><circle cx="8109" cy="3741.9" r="68.898" fill="#212d53"/><circle cx="8109" cy="2741.9" r="68.898" fill="#212d53"/><circle cx="3109" cy="3741.9" r="68.898" fill="#212d53"/><circle cx="3109" cy="2741.9" r="68.898" fill="#212d53"/><circle cx="25709" cy="4341.9" r="68.898" fill="#212d53"/><circle cx="25709" cy="2341.9" r="68.898" fill="#212d53"/><circle cx="30809" cy="4341.9" r="68.898" fill="#212d53"/><circle cx="30809" cy="2341.9" r="68.898" fill="#212d53"/><circle cx="20709" cy="4341.9" r="68.898" fill="#212d53"/><circle cx="20709" cy="2341.9" r="68.898" fill="#212d53"/><circle cx="5609" cy="4241.9" r="68.898" fill="#212d53"/><circle cx="5609" cy="2241.9" r="68.898" fill="#212d53"/><circle cx="35609" cy="4441.9" r="68.898" fill="#212d53"/><circle cx="35609" cy="2441.9" r="68.898" fill="#212d53"/><circle cx="809" cy="4241.9" r="68.898" fill="#212d53"/><circle cx="809" cy="2241.9" r="68.898" fill="#212d53"/><circle cx="10609" cy="4341.9" r="68.898" fill="#212d53"/><circle cx="10609" cy="2341.9" r="68.898" fill="#212d53"/><circle cx="15609" cy="4341.9" r="68.898" fill="#212d53"/><circle cx="15609" cy="2341.9" r="68.898" fill="#212d53"/><circle cx="38009" cy="3941.9" r="354.33" fill="#b5ae30"/><path d="M37655 2587.9h708.6v708.6H37655z" fill="#b5ae30" fill-rule="evenodd"/><circle cx="33309" cy="3941.9" r="354.33" fill="#b5ae30"/><path d="M32955 2587.9h708.6v708.6H32955z" fill="#b5ae30" fill-rule="evenodd"/><circle cx="28309" cy="3841.9" r="354.33" fill="#b5ae30"/><path d="M27955 2487.9h708.6v708.6H27955z" fill="#b5ae30" fill-rule="evenodd"/><circle cx="23309" cy="3841.9" r="354.33" fill="#b5ae30"/><path d="M22955 2487.9h708.6v708.6H22955z" fill="#b5ae30" fill-rule="evenodd"/><circle cx="18209" cy="3841.9" r="354.33" fill="#b5ae30"/><path d="M17855 2487.9h708.6v708.6H17855z" fill="#b5ae30" fill-rule="evenodd"/><circle cx="13109" cy="3841.9" r="354.33" fill="#b5ae30"/><path d="M12755 2487.9h708.6v708.6H12755z" fill="#b5ae30" fill-rule="evenodd"/><circle cx="8109" cy="3741.9" r="354.33" fill="#b5ae30"/><path d="M7755 2387.9h708.6v708.6H7755z" fill="#b5ae30" fill-rule="evenodd"/><circle cx="3109" cy="3741.9" r="354.33" fill="#b5ae30"/><path d="M2755 2387.9h708.6v708.6H2755z" fill="#b5ae30" fill-rule="evenodd"/><circle cx="25709" cy="4341.9" r="275.59" fill="#b5ae30"/><circle cx="25709" cy="2341.9" r="275.59" fill="#b5ae30"/><circle cx="30809" cy="4341.9" r="275.59" fill="#b5ae30"/><circle cx="30809" cy="2341.9" r="275.59" fill="#b5ae30"/><circle cx="20709" cy="4341.9" r="275.59" fill="#b5ae30"/><circle cx="20709" cy="2341.9" r="275.59" fill="#b5ae30"/><circle cx="5609" cy="4241.9" r="275.59" fill="#b5ae30"/><circle cx="5609" cy="2241.9" r="275.59" fill="#b5ae30"/><circle cx="35609" cy="4441.9" r="275.59" fill="#b5ae30"/><circle cx="35609" cy="2441.9" r="275.59" fill="#b5ae30"/><circle cx="809" cy="4241.9" r="275.59" fill="#b5ae30"/><circle cx="809" cy="2241.9" r="275.59" fill="#b5ae30"/><circle cx="10609" cy="4341.9" r="275.59" fill="#b5ae30"/><circle cx="10609" cy="2341.9" r="275.59" fill="#b5ae30"/><circle cx="15609" cy="4341.9" r="275.59" fill="#b5ae30"/><circle cx="15609" cy="2341.9" r="275.59" fill="#b5ae30"/><circle cx="38009" cy="3941.9" r="68.898" fill="#b5ae30"/><circle cx="38009" cy="2941.9" r="68.898" fill="#b5ae30"/><circle cx="33309" cy="3941.9" r="68.898" fill="#b5ae30"/><circle cx="33309" cy="2941.9" r="68.898" fill="#b5ae30"/><circle cx="28309" cy="3841.9" r="68.898" fill="#b5ae30"/><circle cx="28309" cy="2841.9" r="68.898" fill="#b5ae30"/><circle cx="23309" cy="3841.9" r="68.898" fill="#b5ae30"/><circle cx="23309" cy="2841.9" r="68.898" fill="#b5ae30"/><circle cx="18209" cy="3841.9" r="68.898" fill="#b5ae30"/><circle cx="18209" cy="2841.9" r="68.898" fill="#b5ae30"/><circle cx="13109" cy="3841.9" r="68.898" fill="#b5ae30"/><circle cx="13109" cy="2841.9" r="68.898" fill="#b5ae30"/><circle cx="8109" cy="3741.9" r="68.898" fill="#b5ae30"/><circle cx="8109" cy="2741.9" r="68.898" fill="#b5ae30"/><circle cx="3109" cy="3741.9" r="68.898" fill="#b5ae30"/><circle cx="3109" cy="2741.9" r="68.898" fill="#b5ae30"/><circle cx="25709" cy="4341.9" r="68.898" fill="#b5ae30"/><circle cx="25709" cy="2341.9" r="68.898" fill="#b5ae30"/><circle cx="30809" cy="4341.9" r="68.898" fill="#b5ae30"/><circle cx="30809" cy="2341.9" r="68.898" fill="#b5ae30"/><circle cx="20709" cy="4341.9" r="68.898" fill="#b5ae30"/><circle cx="20709" cy="2341.9" r="68.898" fill="#b5ae30"/><circle cx="5609" cy="4241.9" r="68.898" fill="#b5ae30"/><circle cx="5609" cy="2241.9" r="68.898" fill="#b5ae30"/><circle cx="35609" cy="4441.9" r="68.898" fill="#b5ae30"/><circle cx="35609" cy="2441.9" r="68.898" fill="#b5ae30"/><circle cx="809" cy="4241.9" r="68.898" fill="#b5ae30"/><circle cx="809" cy="2241.9" r="68.898" fill="#b5ae30"/><circle cx="10609" cy="4341.9" r="68.898" fill="#b5ae30"/><circle cx="10609" cy="2341.9" r="68.898" fill="#b5ae30"/><circle cx="15609" cy="4341.9" r="68.898" fill="#b5ae30"/><circle cx="15609" cy="2341.9" r="68.898" fill="#b5ae30"/><circle cx="38009" cy="3441.9" r="984.25" fill="none" stroke="#f0f0f0" stroke-linecap="round" stroke-linejoin="round" stroke-width="47.244"/><path d="M37401 2433.9a1177.2 1177.2 0 0 0 608.4 2185.1" fill="none" stroke="#f0f0f0" stroke-linecap="round" stroke-linejoin="round" stroke-width="47.244"/><path d="M38009 4618.9a1177.2 1177.2 0 0 0 608.4-2185.1m-4700.4.1h-1217" fill="none" stroke="#f0f0f0" stroke-linecap="round" stroke-linejoin="round" stroke-width="47.244"/><circle cx="33309" cy="3441.9" r="984.25" fill="none" stroke="#f0f0f0" stroke-linecap="round" stroke-linejoin="round" stroke-width="47.244"/><path d="M32701 2433.9a1177.2 1177.2 0 0 0 608.4 2185.1" fill="none" stroke="#f0f0f0" stroke-linecap="round" stroke-linejoin="round" stroke-width="47.244"/><path d="M33309 4618.9a1177.2 1177.2 0 0 0 608.4-2185.1m-5000.4-99.9h-1217" fill="none" stroke="#f0f0f0" stroke-linecap="round" stroke-linejoin="round" stroke-width="47.244"/><circle cx="28309" cy="3341.9" r="984.25" fill="none" stroke="#f0f0f0" stroke-linecap="round" stroke-linejoin="round" stroke-width="47.244"/><path d="M27701 2333.9a1177.2 1177.2 0 0 0 608.4 2185.1" fill="none" stroke="#f0f0f0" stroke-linecap="round" stroke-linejoin="round" stroke-width="47.244"/><path d="M28309 4518.9a1177.2 1177.2 0 0 0 608.4-2185.1m-5000.4.1h-1217" fill="none" stroke="#f0f0f0" stroke-linecap="round" stroke-linejoin="round" stroke-width="47.244"/><circle cx="23309" cy="3341.9" r="984.25" fill="none" stroke="#f0f0f0" stroke-linecap="round" stroke-linejoin="round" stroke-width="47.244"/><path d="M22701 2333.9a1177.2 1177.2 0 0 0 608.4 2185.1" fill="none" stroke="#f0f0f0" stroke-linecap="round" stroke-linejoin="round" stroke-width="47.244"/><path d="M23309 4518.9a1177.2 1177.2 0 0 0 608.4-2185.1m-5100.4.1h-1217" fill="none" stroke="#f0f0f0" stroke-linecap="round" stroke-linejoin="round" stroke-width="47.244"/><circle cx="18209" cy="3341.9" r="984.25" fill="none" stroke="#f0f0f0" stroke-linecap="round" stroke-linejoin="round" stroke-width="47.244"/><path d="M17601 2333.9a1177.2 1177.2 0 0 0 608.4 2185.1" fill="none" stroke="#f0f0f0" stroke-linecap="round" stroke-linejoin="round" stroke-width="47.244"/><path d="M18209 4518.9a1177.2 1177.2 0 0 0 608.4-2185.1m-5100.4.1h-1217" fill="none" stroke="#f0f0f0" stroke-linecap="round" stroke-linejoin="round" stroke-width="47.244"/><circle cx="13109" cy="3341.9" r="984.25" fill="none" stroke="#f0f0f0" stroke-linecap="round" stroke-linejoin="round" stroke-width="47.244"/><path d="M12501 2333.9a1177.2 1177.2 0 0 0 608.4 2185.1" fill="none" stroke="#f0f0f0" stroke-linecap="round" stroke-linejoin="round" stroke-width="47.244"/><path d="M13109 4518.9a1177.2 1177.2 0 0 0 608.4-2185.1M8717 2233.9H7500" fill="none" stroke="#f0f0f0" stroke-linecap="round" stroke-linejoin="round" stroke-width="47.244"/><circle cx="8109" cy="3241.9" r="984.25" fill="none" stroke="#f0f0f0" stroke-linecap="round" stroke-linejoin="round" stroke-width="47.244"/><path d="M7501 2233.9A1177.2 1177.2 0 0 0 8109.4 4419" fill="none" stroke="#f0f0f0" stroke-linecap="round" stroke-linejoin="round" stroke-width="47.244"/><path d="M8109 4418.9a1177.2 1177.2 0 0 0 608.4-2185.1m-5000.4.1H2500" fill="none" stroke="#f0f0f0" stroke-linecap="round" stroke-linejoin="round" stroke-width="47.244"/><circle cx="3109" cy="3241.9" r="984.25" fill="none" stroke="#f0f0f0" stroke-linecap="round" stroke-linejoin="round" stroke-width="47.244"/><path d="M2501 2233.9A1177.2 1177.2 0 0 0 3109.4 4419" fill="none" stroke="#f0f0f0" stroke-linecap="round" stroke-linejoin="round" stroke-width="47.244"/><path transform="matrix(.99988 0 0 1.2947 -41683 -15668)" d="M88500 21100v-9000m-46800 9000v-9000m46800 9000H41700m0-9000h46800" fill="none" stroke="#000" stroke-linecap="round" stroke-linejoin="round" stroke-width="39.37"/><g stroke="#000" stroke-width=".093"><g transform="matrix(0 393.7 -393.7 0 38009 2942.7)"><path d="M4.17 0c0 2.954-3.902 4.018-5.4 1.47v-2.94C.268-4.018 4.17-2.954 4.17 0z" fill="maroon" fill-rule="evenodd"/><circle cx="1.27" r="2.45" fill="red"/></g><g transform="matrix(0 393.7 393.7 0 33309 2942.4)"><path d="M4.17 0c0 2.954-3.902 4.018-5.4 1.47v-2.94C.268-4.018 4.17-2.954 4.17 0z" fill="maroon" fill-rule="evenodd"/><circle cx="1.27" r="2.45" fill="red"/></g><g transform="matrix(0 393.7 393.7 0 28309 2842.4)"><path d="M4.17 0c0 2.954-3.902 4.018-5.4 1.47v-2.94C.268-4.018 4.17-2.954 4.17 0z" fill="maroon" fill-rule="evenodd"/><circle cx="1.27" r="2.45" fill="red"/></g><g transform="matrix(0 393.7 393.7 0 23309 2842.4)"><path d="M4.17 0c0 2.954-3.902 4.018-5.4 1.47v-2.94C.268-4.018 4.17-2.954 4.17 0z" fill="maroon" fill-rule="evenodd"/><circle cx="1.27" r="2.45" fill="red"/></g><g transform="matrix(0 393.7 393.7 0 18209 2842.4)"><path d="M4.17 0c0 2.954-3.902 4.018-5.4 1.47v-2.94C.268-4.018 4.17-2.954 4.17 0z" fill="maroon" fill-rule="evenodd"/><circle cx="1.27" r="2.45" fill="red"/></g><g transform="matrix(0 393.7 393.7 0 13109 2842.4)"><path d="M4.17 0c0 2.954-3.902 4.018-5.4 1.47v-2.94C.268-4.018 4.17-2.954 4.17 0z" fill="maroon" fill-rule="evenodd"/><circle cx="1.27" r="2.45" fill="red"/></g><g transform="matrix(0 393.7 393.7 0 8108.7 2742.4)"><path d="M4.17 0c0 2.954-3.902 4.018-5.4 1.47v-2.94C.268-4.018 4.17-2.954 4.17 0z" fill="maroon" fill-rule="evenodd"/><circle cx="1.27" r="2.45" fill="red"/></g><g transform="rotate(90 183.3 2925.7) scale(393.7)"><path d="M4.17 0c0 2.954-3.902 4.018-5.4 1.47v-2.94C.268-4.018 4.17-2.954 4.17 0z" fill="maroon" fill-rule="evenodd"/><circle cx="1.27" r="2.45" fill="red"/></g></g><g fill="#faa" fill-rule="evenodd" stroke="#191919" stroke-width="36.614"><path d="M26024 2790.4h-629.92M26024 3892.8h-629.92m0-1102.4c8.268-94.488 61.023-147.24 157.48-157.48h314.96c86.614 0 157.48 70.866 157.48 157.48v196.85h-629.92zm0 905.51H26024v196.85a157.48 157.48 0 0 0-157.48 157.48h-314.96c-96.456-10.236-149.21-62.992-157.48-157.48z"/><path d="M25807 4050.3v291.34c0 131.1-196.85 131.1-196.85 0V4050.3z" fill="#999"/></g><path d="M25808 2632.9h-196.85v-291.34c0-131.23 196.85-131.23 196.85 0z" fill="#999" stroke="#1a1a1a" stroke-width="36.614"/><path d="M25993 3695.9h-566.93v-708.66H25993z" fill="#e9afaf" stroke="#1a1a1a" stroke-width="36.614"/><path d="M25992 3082.6v71.654h-563.78V3082.6z" fill="#500" opacity=".997" stroke="#1a1a1a" stroke-width="36.22"/><path d="M25990 3226.7v71.654h-563.78V3226.7z" opacity=".997" stroke="#1a1a1a" stroke-width="36.22"/><path d="M25989 3372.7v71.653h-563.78V3372.7z" fill="red" opacity=".997" stroke="#1a1a1a" stroke-width="36.22"/><path d="M25992 3568v71.654h-563.78V3568z" fill="olive" opacity=".997" stroke="#1a1a1a" stroke-width="36.22"/><g fill="#faa" fill-rule="evenodd" stroke="#191919" stroke-width="36.614"><path d="M31124 2790.4h-629.92M31124 3892.8h-629.92m0-1102.4c8.268-94.488 61.023-147.24 157.48-157.48h314.96c86.614 0 157.48 70.866 157.48 157.48v196.85h-629.92zm0 905.51H31124v196.85a157.48 157.48 0 0 0-157.48 157.48h-314.96c-96.456-10.236-149.21-62.992-157.48-157.48z"/><path d="M30907 4050.2v291.34c0 131.1-196.85 131.1-196.85 0V4050.2z" fill="#999"/></g><path d="M30908 2632.9h-196.85v-291.34c0-131.23 196.85-131.23 196.85 0z" fill="#999" stroke="#1a1a1a" stroke-width="36.614"/><path d="M31093 3695.9h-566.93v-708.66H31093z" fill="#e9afaf" stroke="#1a1a1a" stroke-width="36.614"/><path d="M31092 3082.5v71.654h-563.78V3082.5z" fill="#500" opacity=".997" stroke="#1a1a1a" stroke-width="36.22"/><path d="M31090 3226.6v71.654h-563.78V3226.6z" opacity=".997" stroke="#1a1a1a" stroke-width="36.22"/><path d="M31089 3372.7v71.653h-563.78V3372.7z" fill="red" opacity=".997" stroke="#1a1a1a" stroke-width="36.22"/><path d="M31092 3568v71.654h-563.78V3568z" fill="olive" opacity=".997" stroke="#1a1a1a" stroke-width="36.22"/><g fill="#faa" fill-rule="evenodd" stroke="#191919" stroke-width="36.614"><path d="M21024 2790.4h-629.92M21024 3892.8h-629.92m0-1102.4c8.268-94.488 61.023-147.24 157.48-157.48h314.96c86.614 0 157.48 70.866 157.48 157.48v196.85h-629.92zm0 905.51H21024v196.85a157.48 157.48 0 0 0-157.48 157.48h-314.96c-96.456-10.236-149.21-62.992-157.48-157.48z"/><path d="M20807 4050.2v291.34c0 131.1-196.85 131.1-196.85 0V4050.2z" fill="#999"/></g><path d="M20808 2632.9h-196.85v-291.34c0-131.23 196.85-131.23 196.85 0z" fill="#999" stroke="#1a1a1a" stroke-width="36.614"/><path d="M20993 3695.9h-566.93v-708.66H20993z" fill="#e9afaf" stroke="#1a1a1a" stroke-width="36.614"/><path d="M20992 3082.5v71.654h-563.78V3082.5z" fill="#500" opacity=".997" stroke="#1a1a1a" stroke-width="36.22"/><path d="M20990 3226.6v71.654h-563.78V3226.6z" opacity=".997" stroke="#1a1a1a" stroke-width="36.22"/><path d="M20989 3372.7v71.653h-563.78V3372.7z" fill="red" opacity=".997" stroke="#1a1a1a" stroke-width="36.22"/><path d="M20992 3568v71.654h-563.78V3568z" fill="olive" opacity=".997" stroke="#1a1a1a" stroke-width="36.22"/><g fill="#faa" fill-rule="evenodd" stroke="#191919" stroke-width="36.614"><path d="M5924.3 2690.4h-629.92m629.92 1102.4h-629.92m0-1102.4c8.268-94.488 61.023-147.24 157.48-157.48h314.96c86.614 0 157.48 70.866 157.48 157.48v196.85h-629.92zm0 905.51h629.92v196.85a157.48 157.48 0 0 0-157.48 157.48h-314.96c-96.456-10.236-149.21-62.992-157.48-157.48z"/><path d="M5707.7 3950.2v291.34c0 131.1-196.85 131.1-196.85 0V3950.2z" fill="#999"/></g><path d="M5707.8 2532.9h-196.85v-291.34c0-131.23 196.85-131.23 196.85 0z" fill="#999" stroke="#1a1a1a" stroke-width="36.614"/><path d="M5892.8 3595.9h-566.93v-708.66h566.93z" fill="#e9afaf" stroke="#1a1a1a" stroke-width="36.614"/><path d="M5891.5 2982.5v71.654h-563.78V2982.5z" fill="#500" opacity=".997" stroke="#1a1a1a" stroke-width="36.22"/><path d="M5889.6 3126.6v71.654h-563.78V3126.6z" opacity=".997" stroke="#1a1a1a" stroke-width="36.22"/><path d="M5889.2 3272.7v71.653h-563.78V3272.7z" fill="red" opacity=".997" stroke="#1a1a1a" stroke-width="36.22"/><path d="M5891.5 3468v71.654h-563.78V3468z" fill="olive" opacity=".997" stroke="#1a1a1a" stroke-width="36.22"/><g fill="#faa" fill-rule="evenodd" stroke="#191919" stroke-width="36.614"><path d="M35924 2890.4h-629.92M35924 3992.8h-629.92m0-1102.4c8.268-94.488 61.023-147.24 157.48-157.48h314.96c86.614 0 157.48 70.866 157.48 157.48v196.85h-629.92zm0 905.51H35924v196.85a157.48 157.48 0 0 0-157.48 157.48h-314.96c-96.456-10.236-149.21-62.992-157.48-157.48z"/><path d="M35707 4150.2v291.34c0 131.1-196.85 131.1-196.85 0V4150.2z" fill="#999"/></g><path d="M35708 2732.9h-196.85v-291.34c0-131.23 196.85-131.23 196.85 0z" fill="#999" stroke="#1a1a1a" stroke-width="36.614"/><path d="M35893 3795.9h-566.93v-708.66H35893z" fill="#e9afaf" stroke="#1a1a1a" stroke-width="36.614"/><path d="M35892 3182.5v71.654h-563.78V3182.5z" fill="#500" opacity=".997" stroke="#1a1a1a" stroke-width="36.22"/><path d="M35890 3326.6v71.654h-563.78V3326.6z" opacity=".997" stroke="#1a1a1a" stroke-width="36.22"/><path d="M35889 3472.7v71.653h-563.78V3472.7z" fill="red" opacity=".997" stroke="#1a1a1a" stroke-width="36.22"/><path d="M35892 3668v71.654h-563.78V3668z" fill="olive" opacity=".997" stroke="#1a1a1a" stroke-width="36.22"/><g fill="#faa" fill-rule="evenodd" stroke="#191919" stroke-width="36.614"><path d="M1124.3 2690.4H494.38m629.92 1102.4H494.38m0-1102.4c8.268-94.488 61.023-147.24 157.48-157.48h314.96c86.614 0 157.48 70.866 157.48 157.48v196.85H494.38zm0 905.51h629.92v196.85a157.48 157.48 0 0 0-157.48 157.48H651.86c-96.457-10.236-149.21-62.992-157.48-157.48z"/><path d="M907.76 3950.2v291.34c0 131.1-196.85 131.1-196.85 0V3950.2z" fill="#999"/></g><path d="M907.77 2532.9H710.92v-291.34c0-131.23 196.85-131.23 196.85 0z" fill="#999" stroke="#1a1a1a" stroke-width="36.614"/><path d="M1092.8 3595.9H525.87v-708.66h566.93z" fill="#e9afaf" stroke="#1a1a1a" stroke-width="36.614"/><path d="M1091.5 2982.5v71.654H527.72V2982.5z" fill="#500" opacity=".997" stroke="#1a1a1a" stroke-width="36.22"/><path d="M1089.6 3126.6v71.654H525.82V3126.6z" opacity=".997" stroke="#1a1a1a" stroke-width="36.22"/><path d="M1089.2 3272.7v71.653H525.42V3272.7z" fill="red" opacity=".997" stroke="#1a1a1a" stroke-width="36.22"/><path d="M1091.5 3468v71.654H527.72V3468z" fill="olive" opacity=".997" stroke="#1a1a1a" stroke-width="36.22"/><g fill="#faa" fill-rule="evenodd" stroke="#191919" stroke-width="36.614"><path d="M10924 2790.4h-629.92M10924 3892.8h-629.92m0-1102.4c8.268-94.488 61.023-147.24 157.48-157.48h314.96c86.614 0 157.48 70.866 157.48 157.48v196.85h-629.92zm0 905.51H10924v196.85a157.48 157.48 0 0 0-157.48 157.48h-314.96c-96.456-10.236-149.21-62.992-157.48-157.48z"/><path d="M10707 4050.2v291.34c0 131.1-196.85 131.1-196.85 0V4050.2z" fill="#999"/></g><path d="M10708 2632.9h-196.85v-291.34c0-131.23 196.85-131.23 196.85 0z" fill="#999" stroke="#1a1a1a" stroke-width="36.614"/><path d="M10893 3695.9h-566.93v-708.66H10893z" fill="#e9afaf" stroke="#1a1a1a" stroke-width="36.614"/><path d="M10892 3082.5v71.654h-563.78V3082.5z" fill="#500" opacity=".997" stroke="#1a1a1a" stroke-width="36.22"/><path d="M10890 3226.6v71.654h-563.78V3226.6z" opacity=".997" stroke="#1a1a1a" stroke-width="36.22"/><path d="M10889 3372.7v71.653h-563.78V3372.7z" fill="red" opacity=".997" stroke="#1a1a1a" stroke-width="36.22"/><path d="M10892 3568v71.654h-563.78V3568z" fill="olive" opacity=".997" stroke="#1a1a1a" stroke-width="36.22"/><g fill="#faa" fill-rule="evenodd" stroke="#191919" stroke-width="36.614"><path d="M15924 2790.4h-629.92M15924 3892.8h-629.92m0-1102.4c8.268-94.488 61.023-147.24 157.48-157.48h314.96c86.614 0 157.48 70.866 157.48 157.48v196.85h-629.92zm0 905.51H15924v196.85a157.48 157.48 0 0 0-157.48 157.48h-314.96c-96.456-10.236-149.21-62.992-157.48-157.48z"/><path d="M15707 4050.2v291.34c0 131.1-196.85 131.1-196.85 0V4050.2z" fill="#999"/></g><path d="M15708 2632.9h-196.85v-291.34c0-131.23 196.85-131.23 196.85 0z" fill="#999" stroke="#1a1a1a" stroke-width="36.614"/><path d="M15893 3695.9h-566.93v-708.66H15893z" fill="#e9afaf" stroke="#1a1a1a" stroke-width="36.614"/><path d="M15892 3082.5v71.654h-563.78V3082.5z" fill="#500" opacity=".997" stroke="#1a1a1a" stroke-width="36.22"/><path d="M15890 3226.6v71.654h-563.78V3226.6z" opacity=".997" stroke="#1a1a1a" stroke-width="36.22"/><path d="M15889 3372.7v71.653h-563.78V3372.7z" fill="red" opacity=".997" stroke="#1a1a1a" stroke-width="36.22"/><path d="M15892 3568v71.654h-563.78V3568z" fill="olive" opacity=".997" stroke="#1a1a1a" stroke-width="36.22"/><path d="M41537 4151.9h202.39l207.1 576.32 206.58-576.32h202.39l-289.21 780.81h-240.05zm895 195h187.23v585.74H42432zm0-228.02h187.23v152.71H42432zm951 519.32v53.344h-437.73q6.799 65.895 47.591 98.843t114.01 32.948q59.097 0 120.81-17.258 62.235-17.781 127.61-53.344v144.34q-66.418 25.103-132.84 37.654-66.418 13.074-132.84 13.074-158.99 0-247.37-80.539-87.86-81.062-87.86-226.97 0-143.3 86.291-225.4 86.815-82.108 238.48-82.108 138.07 0 220.7 83.154 83.154 83.154 83.154 222.27zm-192.46-62.234q0-53.344-31.379-85.768-30.856-32.948-81.062-32.948-54.389 0-88.383 30.856-33.994 30.333-42.361 87.86zm282.46-229.07h182l98.32 403.74 98.843-403.74h156.37l98.32 399.56 98.843-399.56h182l-154.28 585.74h-204.48l-98.843-402.69-98.32 402.69h-204.48z" aria-label="View"/><g transform="matrix(0 393.7 -393.7 0 43021 9511.1)" stroke="#000" stroke-width=".093"><path d="M4.17 0c0 2.954-3.902 4.018-5.4 1.47v-2.94C.268-4.018 4.17-2.954 4.17 0z" fill="maroon" fill-rule="evenodd"/><circle cx="1.27" r="2.45" fill="red"/></g><path d="M602.48 301.53h242.87l248.52 691.59 247.89-691.59h242.87l-347.05 936.97H949.52zM2451.88 1187q-66.523 34.516-138.69 52.088-72.171 17.572-150.62 17.572-234.08 0-370.9-130.54-136.81-131.16-136.81-355.21 0-224.67 136.81-355.21 136.81-131.16 370.9-131.16 78.447 0 150.62 17.572 72.171 17.572 138.69 52.089v193.92q-67.15-45.813-132.42-67.15t-137.44-21.337q-129.28 0-203.33 82.84-74.054 82.84-74.054 228.44 0 144.97 74.054 227.81t203.33 82.84q72.171 0 137.44-21.338t132.42-67.15zm441.9-702.85v571.72h86.605q148.11 0 225.93-73.426 78.447-73.426 78.447-213.37 0-139.32-77.819-212.12-77.819-72.798-226.55-72.798zm-241.62-182.62h254.79q213.37 0 317.55 30.751 104.8 30.124 179.49 102.92 65.895 63.385 97.902 146.22 32.006 82.84 32.006 187.64 0 106.06-32.006 189.53-32.006 82.84-97.902 146.22-75.309 72.798-180.74 103.55-105.43 30.124-316.3 30.124h-254.79zm1514.3 0h401.02q178.86 0 274.25 79.702 96.019 79.074 96.019 225.93 0 147.48-96.019 227.18-95.391 79.074-274.25 79.074h-159.4v325.08h-241.62zm241.62 175.09v261.7h133.67q70.288 0 108.57-33.889 38.282-34.517 38.282-97.274t-38.282-96.646q-38.282-33.889-108.57-33.889zm690.28-214.63h224.67v976.5h-224.67zm755.6 660.21q-70.288 0-106.06 23.848-35.144 23.848-35.144 70.288 0 42.675 28.241 67.15 28.868 23.848 79.702 23.848 63.385 0 106.69-45.185 43.302-45.813 43.302-114.22v-25.73zm343.28-84.722v401.02h-226.55v-104.18q-45.185 64.012-101.67 93.508-56.482 28.868-137.44 28.868-109.2 0-177.6-63.385-67.778-64.012-67.778-165.68 0-123.63 84.722-181.37 85.35-57.737 267.35-57.737h132.42V770.95q0-53.344-42.047-77.819-42.047-25.103-131.16-25.103-72.171 0-134.3 14.434-62.13 14.434-115.47 43.303v-171.33q72.171-17.572 144.97-26.358 72.798-9.414 145.6-9.414 190.15 0 274.25 75.31 84.722 74.68 84.722 243.5zm77.22-301.87h224.67l188.9 476.96 160.66-476.96h224.67l-295.59 769.4q-44.558 117.36-104.18 163.8-58.992 47.068-156.27 47.068h-129.91v-147.48h70.288q57.109 0 82.84-18.2 26.358-18.2 40.792-65.268l6.276-19.455zm965.8 0h226.55v242.87h-226.55zm0 460.01h226.55v242.87h-226.55z" fill="#ececec" aria-label="VCD Play:"/><path d="M39649 6582.5h6661.5v1975.2H39649z" fill="#b3b3b3" stroke="#000" stroke-width="80.329"/><path d="M41882 7106.1h334.2q149.05 0 228.55 66.421 80.019 65.898 80.019 188.28 0 122.9-80.019 189.33-79.496 65.898-228.55 65.898h-132.84v270.91h-201.35zm201.35 145.92v218.09h111.4q58.576 0 90.479-28.242 31.902-28.765 31.902-81.065t-31.902-80.542q-31.903-28.242-90.479-28.242zM42659 7073.1h187.23v813.78H42659zm630 550.2q-58.576 0-88.387 19.874-29.288 19.874-29.288 58.576 0 35.564 23.535 55.961 24.058 19.874 66.421 19.874 52.823 0 88.91-37.656 36.086-38.179 36.086-95.186V7623.3zm286.08-70.605v334.2h-188.8v-86.818q-37.655 53.346-84.725 77.927-47.07 24.058-114.54 24.058-91.001 0-148.01-52.823-56.484-53.346-56.484-138.07 0-103.03 70.605-151.15 71.127-48.116 222.8-48.116h110.35v-14.644q0-44.455-35.04-64.852-35.041-20.92-109.31-20.92-60.145 0-111.92 12.029-51.776 12.029-96.231 36.087v-142.78q60.145-14.644 120.81-21.966 60.668-7.845 121.34-7.845 158.47 0 228.55 62.76 70.605 62.237 70.605 202.92zm63.92-251.5h187.23l157.42 397.48 133.89-397.48h187.23l-246.33 641.2q-37.133 97.801-86.818 136.5-49.162 39.225-130.23 39.225h-108.26v-122.9h58.576q47.593 0 69.036-15.167 21.966-15.167 33.994-54.392l5.23-16.213z" aria-label="Play"/><g stroke-width="80.329" aria-label="Load"><path d="M41600 1065.8h201.35v628.64h353.55v152.19H41600zM42553 1380.6q-62.237 0-95.186 44.978-32.425 44.455-32.425 128.66 0 84.203 32.425 129.18 32.949 44.455 95.186 44.455 61.191 0 93.617-44.455 32.426-44.978 32.426-129.18 0-84.203-32.426-128.66-32.426-44.978-93.617-44.978zm0-133.89q151.15 0 235.87 81.588 85.249 81.588 85.249 225.94 0 144.35-85.249 225.94-84.725 81.588-235.87 81.588-151.67 0-237.44-81.588-85.249-81.588-85.249-225.94 0-144.35 85.249-225.94 85.772-81.588 237.44-81.588zM43272 1583q-58.575 0-88.386 19.874-29.288 19.874-29.288 58.576 0 35.564 23.535 55.961 24.058 19.874 66.42 19.874 52.823 0 88.91-37.656 36.087-38.179 36.087-95.186V1583zm286.08-70.605v334.2h-188.8v-86.818q-37.656 53.346-84.726 77.927-47.07 24.058-114.54 24.058-91.002 0-148.01-52.823-56.484-53.346-56.484-138.07 0-103.03 70.605-151.15 71.128-48.116 222.8-48.116h110.35v-14.644q0-44.455-35.041-64.852-35.041-20.92-109.31-20.92-60.145 0-111.92 12.029-51.777 12.029-96.232 36.087v-142.78q60.145-14.644 120.81-21.966 60.668-7.845 121.34-7.845 158.47 0 228.55 62.76 70.604 62.237 70.604 202.92zM44131 1346.6v-313.8h188.28v813.78H44131v-84.726q-38.702 51.777-85.249 75.835-46.546 24.058-107.74 24.058-108.26 0-177.82-85.772-69.558-86.295-69.558-221.75t69.558-221.23q69.559-86.295 177.82-86.295 60.668 0 107.21 24.581 47.07 24.058 85.772 75.312zm-123.43 379.17q60.145 0 91.525-43.932 31.903-43.932 31.903-127.61t-31.903-127.61q-31.38-43.932-91.525-43.932-59.621 0-91.524 43.932-31.38 43.932-31.38 127.61t31.38 127.61q31.903 43.932 91.524 43.932z"/></g></svg>